G04 #@! TF.GenerationSoftware,KiCad,Pcbnew,(5.0.1)-rc2*
G04 #@! TF.CreationDate,2019-01-30T13:00:54-05:00*
G04 #@! TF.ProjectId,power_board,706F7765725F626F6172642E6B696361,rev?*
G04 #@! TF.SameCoordinates,Original*
G04 #@! TF.FileFunction,Legend,Top*
G04 #@! TF.FilePolarity,Positive*
%FSLAX46Y46*%
G04 Gerber Fmt 4.6, Leading zero omitted, Abs format (unit mm)*
G04 Created by KiCad (PCBNEW (5.0.1)-rc2) date 1/30/2019 1:00:54 PM*
%MOMM*%
%LPD*%
G01*
G04 APERTURE LIST*
%ADD10C,0.300000*%
%ADD11C,0.120000*%
%ADD12C,0.150000*%
G04 APERTURE END LIST*
D10*
X169880742Y-75146457D02*
X169880742Y-74003600D01*
X170452171Y-74575028D02*
X169309314Y-74575028D01*
X169023600Y-71360742D02*
X168952171Y-71503600D01*
X168952171Y-71717885D01*
X169023600Y-71932171D01*
X169166457Y-72075028D01*
X169309314Y-72146457D01*
X169595028Y-72217885D01*
X169809314Y-72217885D01*
X170095028Y-72146457D01*
X170237885Y-72075028D01*
X170380742Y-71932171D01*
X170452171Y-71717885D01*
X170452171Y-71575028D01*
X170380742Y-71360742D01*
X170309314Y-71289314D01*
X169809314Y-71289314D01*
X169809314Y-71575028D01*
X177564171Y-76961428D02*
X176064171Y-76961428D01*
X176064171Y-76390000D01*
X176135600Y-76247142D01*
X176207028Y-76175714D01*
X176349885Y-76104285D01*
X176564171Y-76104285D01*
X176707028Y-76175714D01*
X176778457Y-76247142D01*
X176849885Y-76390000D01*
X176849885Y-76961428D01*
X177564171Y-75247142D02*
X177492742Y-75390000D01*
X177421314Y-75461428D01*
X177278457Y-75532857D01*
X176849885Y-75532857D01*
X176707028Y-75461428D01*
X176635600Y-75390000D01*
X176564171Y-75247142D01*
X176564171Y-75032857D01*
X176635600Y-74890000D01*
X176707028Y-74818571D01*
X176849885Y-74747142D01*
X177278457Y-74747142D01*
X177421314Y-74818571D01*
X177492742Y-74890000D01*
X177564171Y-75032857D01*
X177564171Y-75247142D01*
X176564171Y-74247142D02*
X177564171Y-73961428D01*
X176849885Y-73675714D01*
X177564171Y-73390000D01*
X176564171Y-73104285D01*
X177492742Y-71961428D02*
X177564171Y-72104285D01*
X177564171Y-72390000D01*
X177492742Y-72532857D01*
X177349885Y-72604285D01*
X176778457Y-72604285D01*
X176635600Y-72532857D01*
X176564171Y-72390000D01*
X176564171Y-72104285D01*
X176635600Y-71961428D01*
X176778457Y-71890000D01*
X176921314Y-71890000D01*
X177064171Y-72604285D01*
X177564171Y-71247142D02*
X176564171Y-71247142D01*
X176849885Y-71247142D02*
X176707028Y-71175714D01*
X176635600Y-71104285D01*
X176564171Y-70961428D01*
X176564171Y-70818571D01*
X177564171Y-69175714D02*
X176064171Y-69175714D01*
X176564171Y-68461428D02*
X177564171Y-68461428D01*
X176707028Y-68461428D02*
X176635600Y-68390000D01*
X176564171Y-68247142D01*
X176564171Y-68032857D01*
X176635600Y-67890000D01*
X176778457Y-67818571D01*
X177564171Y-67818571D01*
X158644685Y-70172971D02*
X158644685Y-69172971D01*
X158644685Y-69458685D02*
X158716114Y-69315828D01*
X158787542Y-69244400D01*
X158930400Y-69172971D01*
X159073257Y-69172971D01*
X160144685Y-70101542D02*
X160001828Y-70172971D01*
X159716114Y-70172971D01*
X159573257Y-70101542D01*
X159501828Y-69958685D01*
X159501828Y-69387257D01*
X159573257Y-69244400D01*
X159716114Y-69172971D01*
X160001828Y-69172971D01*
X160144685Y-69244400D01*
X160216114Y-69387257D01*
X160216114Y-69530114D01*
X159501828Y-69672971D01*
X160716114Y-69172971D02*
X161073257Y-70172971D01*
X161430400Y-69172971D01*
X161930400Y-68815828D02*
X162001828Y-68744400D01*
X162144685Y-68672971D01*
X162501828Y-68672971D01*
X162644685Y-68744400D01*
X162716114Y-68815828D01*
X162787542Y-68958685D01*
X162787542Y-69101542D01*
X162716114Y-69315828D01*
X161858971Y-70172971D01*
X162787542Y-70172971D01*
X155181142Y-58991428D02*
X155181142Y-57848571D01*
X196823771Y-37503571D02*
X197109485Y-37503571D01*
X197252342Y-37432142D01*
X197323771Y-37360714D01*
X197466628Y-37146428D01*
X197538057Y-36860714D01*
X197538057Y-36289285D01*
X197466628Y-36146428D01*
X197395200Y-36075000D01*
X197252342Y-36003571D01*
X196966628Y-36003571D01*
X196823771Y-36075000D01*
X196752342Y-36146428D01*
X196680914Y-36289285D01*
X196680914Y-36646428D01*
X196752342Y-36789285D01*
X196823771Y-36860714D01*
X196966628Y-36932142D01*
X197252342Y-36932142D01*
X197395200Y-36860714D01*
X197466628Y-36789285D01*
X197538057Y-36646428D01*
X197966628Y-36003571D02*
X198466628Y-37503571D01*
X198966628Y-36003571D01*
X201109485Y-36717857D02*
X201323771Y-36789285D01*
X201395200Y-36860714D01*
X201466628Y-37003571D01*
X201466628Y-37217857D01*
X201395200Y-37360714D01*
X201323771Y-37432142D01*
X201180914Y-37503571D01*
X200609485Y-37503571D01*
X200609485Y-36003571D01*
X201109485Y-36003571D01*
X201252342Y-36075000D01*
X201323771Y-36146428D01*
X201395200Y-36289285D01*
X201395200Y-36432142D01*
X201323771Y-36575000D01*
X201252342Y-36646428D01*
X201109485Y-36717857D01*
X200609485Y-36717857D01*
X202109485Y-37503571D02*
X202109485Y-36503571D01*
X202109485Y-36003571D02*
X202038057Y-36075000D01*
X202109485Y-36146428D01*
X202180914Y-36075000D01*
X202109485Y-36003571D01*
X202109485Y-36146428D01*
X202823771Y-36503571D02*
X202823771Y-38003571D01*
X202823771Y-36575000D02*
X202966628Y-36503571D01*
X203252342Y-36503571D01*
X203395200Y-36575000D01*
X203466628Y-36646428D01*
X203538057Y-36789285D01*
X203538057Y-37217857D01*
X203466628Y-37360714D01*
X203395200Y-37432142D01*
X203252342Y-37503571D01*
X202966628Y-37503571D01*
X202823771Y-37432142D01*
X204395200Y-37503571D02*
X204252342Y-37432142D01*
X204180914Y-37360714D01*
X204109485Y-37217857D01*
X204109485Y-36789285D01*
X204180914Y-36646428D01*
X204252342Y-36575000D01*
X204395200Y-36503571D01*
X204609485Y-36503571D01*
X204752342Y-36575000D01*
X204823771Y-36646428D01*
X204895200Y-36789285D01*
X204895200Y-37217857D01*
X204823771Y-37360714D01*
X204752342Y-37432142D01*
X204609485Y-37503571D01*
X204395200Y-37503571D01*
X205752342Y-37503571D02*
X205609485Y-37432142D01*
X205538057Y-37289285D01*
X205538057Y-36003571D01*
X206966628Y-37503571D02*
X206966628Y-36717857D01*
X206895200Y-36575000D01*
X206752342Y-36503571D01*
X206466628Y-36503571D01*
X206323771Y-36575000D01*
X206966628Y-37432142D02*
X206823771Y-37503571D01*
X206466628Y-37503571D01*
X206323771Y-37432142D01*
X206252342Y-37289285D01*
X206252342Y-37146428D01*
X206323771Y-37003571D01*
X206466628Y-36932142D01*
X206823771Y-36932142D01*
X206966628Y-36860714D01*
X207680914Y-37503571D02*
X207680914Y-36503571D01*
X207680914Y-36789285D02*
X207752342Y-36646428D01*
X207823771Y-36575000D01*
X207966628Y-36503571D01*
X208109485Y-36503571D01*
X195645200Y-39982142D02*
X195859485Y-40053571D01*
X196216628Y-40053571D01*
X196359485Y-39982142D01*
X196430914Y-39910714D01*
X196502342Y-39767857D01*
X196502342Y-39625000D01*
X196430914Y-39482142D01*
X196359485Y-39410714D01*
X196216628Y-39339285D01*
X195930914Y-39267857D01*
X195788057Y-39196428D01*
X195716628Y-39125000D01*
X195645200Y-38982142D01*
X195645200Y-38839285D01*
X195716628Y-38696428D01*
X195788057Y-38625000D01*
X195930914Y-38553571D01*
X196288057Y-38553571D01*
X196502342Y-38625000D01*
X197788057Y-39053571D02*
X197788057Y-40053571D01*
X197145200Y-39053571D02*
X197145200Y-39839285D01*
X197216628Y-39982142D01*
X197359485Y-40053571D01*
X197573771Y-40053571D01*
X197716628Y-39982142D01*
X197788057Y-39910714D01*
X198502342Y-39053571D02*
X198502342Y-40553571D01*
X198502342Y-39125000D02*
X198645200Y-39053571D01*
X198930914Y-39053571D01*
X199073771Y-39125000D01*
X199145200Y-39196428D01*
X199216628Y-39339285D01*
X199216628Y-39767857D01*
X199145200Y-39910714D01*
X199073771Y-39982142D01*
X198930914Y-40053571D01*
X198645200Y-40053571D01*
X198502342Y-39982142D01*
X199859485Y-39053571D02*
X199859485Y-40553571D01*
X199859485Y-39125000D02*
X200002342Y-39053571D01*
X200288057Y-39053571D01*
X200430914Y-39125000D01*
X200502342Y-39196428D01*
X200573771Y-39339285D01*
X200573771Y-39767857D01*
X200502342Y-39910714D01*
X200430914Y-39982142D01*
X200288057Y-40053571D01*
X200002342Y-40053571D01*
X199859485Y-39982142D01*
X201430914Y-40053571D02*
X201288057Y-39982142D01*
X201216628Y-39839285D01*
X201216628Y-38553571D01*
X201859485Y-39053571D02*
X202216628Y-40053571D01*
X202573771Y-39053571D02*
X202216628Y-40053571D01*
X202073771Y-40410714D01*
X202002342Y-40482142D01*
X201859485Y-40553571D01*
X204788057Y-39267857D02*
X205002342Y-39339285D01*
X205073771Y-39410714D01*
X205145200Y-39553571D01*
X205145200Y-39767857D01*
X205073771Y-39910714D01*
X205002342Y-39982142D01*
X204859485Y-40053571D01*
X204288057Y-40053571D01*
X204288057Y-38553571D01*
X204788057Y-38553571D01*
X204930914Y-38625000D01*
X205002342Y-38696428D01*
X205073771Y-38839285D01*
X205073771Y-38982142D01*
X205002342Y-39125000D01*
X204930914Y-39196428D01*
X204788057Y-39267857D01*
X204288057Y-39267857D01*
X206002342Y-40053571D02*
X205859485Y-39982142D01*
X205788057Y-39910714D01*
X205716628Y-39767857D01*
X205716628Y-39339285D01*
X205788057Y-39196428D01*
X205859485Y-39125000D01*
X206002342Y-39053571D01*
X206216628Y-39053571D01*
X206359485Y-39125000D01*
X206430914Y-39196428D01*
X206502342Y-39339285D01*
X206502342Y-39767857D01*
X206430914Y-39910714D01*
X206359485Y-39982142D01*
X206216628Y-40053571D01*
X206002342Y-40053571D01*
X207788057Y-40053571D02*
X207788057Y-39267857D01*
X207716628Y-39125000D01*
X207573771Y-39053571D01*
X207288057Y-39053571D01*
X207145200Y-39125000D01*
X207788057Y-39982142D02*
X207645200Y-40053571D01*
X207288057Y-40053571D01*
X207145200Y-39982142D01*
X207073771Y-39839285D01*
X207073771Y-39696428D01*
X207145200Y-39553571D01*
X207288057Y-39482142D01*
X207645200Y-39482142D01*
X207788057Y-39410714D01*
X208502342Y-40053571D02*
X208502342Y-39053571D01*
X208502342Y-39339285D02*
X208573771Y-39196428D01*
X208645200Y-39125000D01*
X208788057Y-39053571D01*
X208930914Y-39053571D01*
X210073771Y-40053571D02*
X210073771Y-38553571D01*
X210073771Y-39982142D02*
X209930914Y-40053571D01*
X209645200Y-40053571D01*
X209502342Y-39982142D01*
X209430914Y-39910714D01*
X209359485Y-39767857D01*
X209359485Y-39339285D01*
X209430914Y-39196428D01*
X209502342Y-39125000D01*
X209645200Y-39053571D01*
X209930914Y-39053571D01*
X210073771Y-39125000D01*
X186455000Y-60655927D02*
X186383571Y-60798785D01*
X186383571Y-61013070D01*
X186455000Y-61227356D01*
X186597857Y-61370213D01*
X186740714Y-61441642D01*
X187026428Y-61513070D01*
X187240714Y-61513070D01*
X187526428Y-61441642D01*
X187669285Y-61370213D01*
X187812142Y-61227356D01*
X187883571Y-61013070D01*
X187883571Y-60870213D01*
X187812142Y-60655927D01*
X187740714Y-60584499D01*
X187240714Y-60584499D01*
X187240714Y-60870213D01*
X186753571Y-63861142D02*
X187896428Y-63861142D01*
X187325000Y-64432571D02*
X187325000Y-63289714D01*
X187312142Y-58991428D02*
X187312142Y-57848571D01*
X179057142Y-58991428D02*
X179057142Y-57848571D01*
X178200000Y-60655927D02*
X178128571Y-60798785D01*
X178128571Y-61013070D01*
X178200000Y-61227356D01*
X178342857Y-61370213D01*
X178485714Y-61441642D01*
X178771428Y-61513070D01*
X178985714Y-61513070D01*
X179271428Y-61441642D01*
X179414285Y-61370213D01*
X179557142Y-61227356D01*
X179628571Y-61013070D01*
X179628571Y-60870213D01*
X179557142Y-60655927D01*
X179485714Y-60584499D01*
X178985714Y-60584499D01*
X178985714Y-60870213D01*
X178498571Y-63861142D02*
X179641428Y-63861142D01*
X179070000Y-64432571D02*
X179070000Y-63289714D01*
X170370571Y-63861142D02*
X171513428Y-63861142D01*
X170942000Y-64432571D02*
X170942000Y-63289714D01*
X170929142Y-58991428D02*
X170929142Y-57848571D01*
X170072000Y-60655927D02*
X170000571Y-60798785D01*
X170000571Y-61013070D01*
X170072000Y-61227356D01*
X170214857Y-61370213D01*
X170357714Y-61441642D01*
X170643428Y-61513070D01*
X170857714Y-61513070D01*
X171143428Y-61441642D01*
X171286285Y-61370213D01*
X171429142Y-61227356D01*
X171500571Y-61013070D01*
X171500571Y-60870213D01*
X171429142Y-60655927D01*
X171357714Y-60584499D01*
X170857714Y-60584499D01*
X170857714Y-60870213D01*
X162674142Y-58991428D02*
X162674142Y-57848571D01*
X161817000Y-60655927D02*
X161745571Y-60798785D01*
X161745571Y-61013070D01*
X161817000Y-61227356D01*
X161959857Y-61370213D01*
X162102714Y-61441642D01*
X162388428Y-61513070D01*
X162602714Y-61513070D01*
X162888428Y-61441642D01*
X163031285Y-61370213D01*
X163174142Y-61227356D01*
X163245571Y-61013070D01*
X163245571Y-60870213D01*
X163174142Y-60655927D01*
X163102714Y-60584499D01*
X162602714Y-60584499D01*
X162602714Y-60870213D01*
X162115571Y-63861142D02*
X163258428Y-63861142D01*
X162687000Y-64432571D02*
X162687000Y-63289714D01*
X187508571Y-50018142D02*
X188651428Y-50018142D01*
X188080000Y-50589571D02*
X188080000Y-49446714D01*
X188067142Y-46291428D02*
X188067142Y-45148571D01*
X187210000Y-47384427D02*
X187138571Y-47527285D01*
X187138571Y-47741570D01*
X187210000Y-47955856D01*
X187352857Y-48098713D01*
X187495714Y-48170142D01*
X187781428Y-48241570D01*
X187995714Y-48241570D01*
X188281428Y-48170142D01*
X188424285Y-48098713D01*
X188567142Y-47955856D01*
X188638571Y-47741570D01*
X188638571Y-47598713D01*
X188567142Y-47384427D01*
X188495714Y-47312999D01*
X187995714Y-47312999D01*
X187995714Y-47598713D01*
X178701000Y-47384427D02*
X178629571Y-47527285D01*
X178629571Y-47741570D01*
X178701000Y-47955856D01*
X178843857Y-48098713D01*
X178986714Y-48170142D01*
X179272428Y-48241570D01*
X179486714Y-48241570D01*
X179772428Y-48170142D01*
X179915285Y-48098713D01*
X180058142Y-47955856D01*
X180129571Y-47741570D01*
X180129571Y-47598713D01*
X180058142Y-47384427D01*
X179986714Y-47312999D01*
X179486714Y-47312999D01*
X179486714Y-47598713D01*
X178999571Y-50018142D02*
X180142428Y-50018142D01*
X179571000Y-50589571D02*
X179571000Y-49446714D01*
X179558142Y-46291428D02*
X179558142Y-45148571D01*
X171303142Y-46291428D02*
X171303142Y-45148571D01*
X170446000Y-47384427D02*
X170374571Y-47527285D01*
X170374571Y-47741570D01*
X170446000Y-47955856D01*
X170588857Y-48098713D01*
X170731714Y-48170142D01*
X171017428Y-48241570D01*
X171231714Y-48241570D01*
X171517428Y-48170142D01*
X171660285Y-48098713D01*
X171803142Y-47955856D01*
X171874571Y-47741570D01*
X171874571Y-47598713D01*
X171803142Y-47384427D01*
X171731714Y-47312999D01*
X171231714Y-47312999D01*
X171231714Y-47598713D01*
X170744571Y-50018142D02*
X171887428Y-50018142D01*
X171316000Y-50589571D02*
X171316000Y-49446714D01*
X163175142Y-46291428D02*
X163175142Y-45148571D01*
X162318000Y-47384427D02*
X162246571Y-47527285D01*
X162246571Y-47741570D01*
X162318000Y-47955856D01*
X162460857Y-48098713D01*
X162603714Y-48170142D01*
X162889428Y-48241570D01*
X163103714Y-48241570D01*
X163389428Y-48170142D01*
X163532285Y-48098713D01*
X163675142Y-47955856D01*
X163746571Y-47741570D01*
X163746571Y-47598713D01*
X163675142Y-47384427D01*
X163603714Y-47312999D01*
X163103714Y-47312999D01*
X163103714Y-47598713D01*
X162616571Y-50018142D02*
X163759428Y-50018142D01*
X163188000Y-50589571D02*
X163188000Y-49446714D01*
X153936000Y-47384427D02*
X153864571Y-47527285D01*
X153864571Y-47741570D01*
X153936000Y-47955856D01*
X154078857Y-48098713D01*
X154221714Y-48170142D01*
X154507428Y-48241570D01*
X154721714Y-48241570D01*
X155007428Y-48170142D01*
X155150285Y-48098713D01*
X155293142Y-47955856D01*
X155364571Y-47741570D01*
X155364571Y-47598713D01*
X155293142Y-47384427D01*
X155221714Y-47312999D01*
X154721714Y-47312999D01*
X154721714Y-47598713D01*
X154324000Y-60655927D02*
X154252571Y-60798785D01*
X154252571Y-61013070D01*
X154324000Y-61227356D01*
X154466857Y-61370213D01*
X154609714Y-61441642D01*
X154895428Y-61513070D01*
X155109714Y-61513070D01*
X155395428Y-61441642D01*
X155538285Y-61370213D01*
X155681142Y-61227356D01*
X155752571Y-61013070D01*
X155752571Y-60870213D01*
X155681142Y-60655927D01*
X155609714Y-60584499D01*
X155109714Y-60584499D01*
X155109714Y-60870213D01*
X154793142Y-46291428D02*
X154793142Y-45148571D01*
X154622571Y-63861142D02*
X155765428Y-63861142D01*
X155194000Y-64432571D02*
X155194000Y-63289714D01*
X154234571Y-50018142D02*
X155377428Y-50018142D01*
X154806000Y-50589571D02*
X154806000Y-49446714D01*
D11*
G04 #@! TO.C,J12*
X175218400Y-67758000D02*
X172558400Y-67758000D01*
X175218400Y-72898000D02*
X175218400Y-67758000D01*
X172558400Y-72898000D02*
X172558400Y-67758000D01*
X175218400Y-72898000D02*
X172558400Y-72898000D01*
X175218400Y-74168000D02*
X175218400Y-75498000D01*
X175218400Y-75498000D02*
X173888400Y-75498000D01*
G04 #@! TO.C,U2*
X195293600Y-77510000D02*
X195293600Y-67270000D01*
X179403600Y-77510000D02*
X179403600Y-67270000D01*
X179403600Y-77510000D02*
X195293600Y-77510000D01*
X179403600Y-67270000D02*
X195293600Y-67270000D01*
X195293600Y-74930000D02*
X197833600Y-74930000D01*
X195293600Y-72390000D02*
X197833600Y-72390000D01*
X195293600Y-69850000D02*
X197833600Y-69850000D01*
G04 #@! TO.C,J1*
X192465000Y-57217000D02*
X189805000Y-57217000D01*
X192465000Y-62357000D02*
X192465000Y-57217000D01*
X189805000Y-62357000D02*
X189805000Y-57217000D01*
X192465000Y-62357000D02*
X189805000Y-62357000D01*
X192465000Y-63627000D02*
X192465000Y-64957000D01*
X192465000Y-64957000D02*
X191135000Y-64957000D01*
G04 #@! TO.C,JP1*
X204589600Y-64989200D02*
X204589600Y-66989200D01*
X201789600Y-64989200D02*
X204589600Y-64989200D01*
X201789600Y-66989200D02*
X201789600Y-64989200D01*
X204589600Y-66989200D02*
X201789600Y-66989200D01*
G04 #@! TO.C,C5*
X210199600Y-72948800D02*
G75*
G03X210199600Y-72948800I-3870000J0D01*
G01*
X206329600Y-69118800D02*
X206329600Y-76778800D01*
X206369600Y-69118800D02*
X206369600Y-76778800D01*
X206409600Y-69118800D02*
X206409600Y-76778800D01*
X206449600Y-69119800D02*
X206449600Y-76777800D01*
X206489600Y-69121800D02*
X206489600Y-76775800D01*
X206529600Y-69123800D02*
X206529600Y-76773800D01*
X206569600Y-69125800D02*
X206569600Y-71908800D01*
X206569600Y-73988800D02*
X206569600Y-76771800D01*
X206609600Y-69128800D02*
X206609600Y-71908800D01*
X206609600Y-73988800D02*
X206609600Y-76768800D01*
X206649600Y-69131800D02*
X206649600Y-71908800D01*
X206649600Y-73988800D02*
X206649600Y-76765800D01*
X206689600Y-69134800D02*
X206689600Y-71908800D01*
X206689600Y-73988800D02*
X206689600Y-76762800D01*
X206729600Y-69138800D02*
X206729600Y-71908800D01*
X206729600Y-73988800D02*
X206729600Y-76758800D01*
X206769600Y-69143800D02*
X206769600Y-71908800D01*
X206769600Y-73988800D02*
X206769600Y-76753800D01*
X206809600Y-69147800D02*
X206809600Y-71908800D01*
X206809600Y-73988800D02*
X206809600Y-76749800D01*
X206849600Y-69153800D02*
X206849600Y-71908800D01*
X206849600Y-73988800D02*
X206849600Y-76743800D01*
X206889600Y-69158800D02*
X206889600Y-71908800D01*
X206889600Y-73988800D02*
X206889600Y-76738800D01*
X206929600Y-69164800D02*
X206929600Y-71908800D01*
X206929600Y-73988800D02*
X206929600Y-76732800D01*
X206969600Y-69171800D02*
X206969600Y-71908800D01*
X206969600Y-73988800D02*
X206969600Y-76725800D01*
X207009600Y-69178800D02*
X207009600Y-71908800D01*
X207009600Y-73988800D02*
X207009600Y-76718800D01*
X207050600Y-69185800D02*
X207050600Y-71908800D01*
X207050600Y-73988800D02*
X207050600Y-76711800D01*
X207090600Y-69193800D02*
X207090600Y-71908800D01*
X207090600Y-73988800D02*
X207090600Y-76703800D01*
X207130600Y-69201800D02*
X207130600Y-71908800D01*
X207130600Y-73988800D02*
X207130600Y-76695800D01*
X207170600Y-69210800D02*
X207170600Y-71908800D01*
X207170600Y-73988800D02*
X207170600Y-76686800D01*
X207210600Y-69219800D02*
X207210600Y-71908800D01*
X207210600Y-73988800D02*
X207210600Y-76677800D01*
X207250600Y-69228800D02*
X207250600Y-71908800D01*
X207250600Y-73988800D02*
X207250600Y-76668800D01*
X207290600Y-69238800D02*
X207290600Y-71908800D01*
X207290600Y-73988800D02*
X207290600Y-76658800D01*
X207330600Y-69249800D02*
X207330600Y-71908800D01*
X207330600Y-73988800D02*
X207330600Y-76647800D01*
X207370600Y-69260800D02*
X207370600Y-71908800D01*
X207370600Y-73988800D02*
X207370600Y-76636800D01*
X207410600Y-69271800D02*
X207410600Y-71908800D01*
X207410600Y-73988800D02*
X207410600Y-76625800D01*
X207450600Y-69283800D02*
X207450600Y-71908800D01*
X207450600Y-73988800D02*
X207450600Y-76613800D01*
X207490600Y-69295800D02*
X207490600Y-71908800D01*
X207490600Y-73988800D02*
X207490600Y-76601800D01*
X207530600Y-69308800D02*
X207530600Y-71908800D01*
X207530600Y-73988800D02*
X207530600Y-76588800D01*
X207570600Y-69322800D02*
X207570600Y-71908800D01*
X207570600Y-73988800D02*
X207570600Y-76574800D01*
X207610600Y-69335800D02*
X207610600Y-71908800D01*
X207610600Y-73988800D02*
X207610600Y-76561800D01*
X207650600Y-69350800D02*
X207650600Y-71908800D01*
X207650600Y-73988800D02*
X207650600Y-76546800D01*
X207690600Y-69364800D02*
X207690600Y-71908800D01*
X207690600Y-73988800D02*
X207690600Y-76532800D01*
X207730600Y-69380800D02*
X207730600Y-71908800D01*
X207730600Y-73988800D02*
X207730600Y-76516800D01*
X207770600Y-69395800D02*
X207770600Y-71908800D01*
X207770600Y-73988800D02*
X207770600Y-76501800D01*
X207810600Y-69412800D02*
X207810600Y-71908800D01*
X207810600Y-73988800D02*
X207810600Y-76484800D01*
X207850600Y-69428800D02*
X207850600Y-71908800D01*
X207850600Y-73988800D02*
X207850600Y-76468800D01*
X207890600Y-69446800D02*
X207890600Y-71908800D01*
X207890600Y-73988800D02*
X207890600Y-76450800D01*
X207930600Y-69464800D02*
X207930600Y-71908800D01*
X207930600Y-73988800D02*
X207930600Y-76432800D01*
X207970600Y-69482800D02*
X207970600Y-71908800D01*
X207970600Y-73988800D02*
X207970600Y-76414800D01*
X208010600Y-69501800D02*
X208010600Y-71908800D01*
X208010600Y-73988800D02*
X208010600Y-76395800D01*
X208050600Y-69521800D02*
X208050600Y-71908800D01*
X208050600Y-73988800D02*
X208050600Y-76375800D01*
X208090600Y-69541800D02*
X208090600Y-71908800D01*
X208090600Y-73988800D02*
X208090600Y-76355800D01*
X208130600Y-69562800D02*
X208130600Y-71908800D01*
X208130600Y-73988800D02*
X208130600Y-76334800D01*
X208170600Y-69583800D02*
X208170600Y-71908800D01*
X208170600Y-73988800D02*
X208170600Y-76313800D01*
X208210600Y-69605800D02*
X208210600Y-71908800D01*
X208210600Y-73988800D02*
X208210600Y-76291800D01*
X208250600Y-69627800D02*
X208250600Y-71908800D01*
X208250600Y-73988800D02*
X208250600Y-76269800D01*
X208290600Y-69651800D02*
X208290600Y-71908800D01*
X208290600Y-73988800D02*
X208290600Y-76245800D01*
X208330600Y-69674800D02*
X208330600Y-71908800D01*
X208330600Y-73988800D02*
X208330600Y-76222800D01*
X208370600Y-69699800D02*
X208370600Y-71908800D01*
X208370600Y-73988800D02*
X208370600Y-76197800D01*
X208410600Y-69724800D02*
X208410600Y-71908800D01*
X208410600Y-73988800D02*
X208410600Y-76172800D01*
X208450600Y-69750800D02*
X208450600Y-71908800D01*
X208450600Y-73988800D02*
X208450600Y-76146800D01*
X208490600Y-69776800D02*
X208490600Y-71908800D01*
X208490600Y-73988800D02*
X208490600Y-76120800D01*
X208530600Y-69804800D02*
X208530600Y-71908800D01*
X208530600Y-73988800D02*
X208530600Y-76092800D01*
X208570600Y-69832800D02*
X208570600Y-71908800D01*
X208570600Y-73988800D02*
X208570600Y-76064800D01*
X208610600Y-69860800D02*
X208610600Y-71908800D01*
X208610600Y-73988800D02*
X208610600Y-76036800D01*
X208650600Y-69890800D02*
X208650600Y-76006800D01*
X208690600Y-69920800D02*
X208690600Y-75976800D01*
X208730600Y-69952800D02*
X208730600Y-75944800D01*
X208770600Y-69984800D02*
X208770600Y-75912800D01*
X208810600Y-70017800D02*
X208810600Y-75879800D01*
X208850600Y-70050800D02*
X208850600Y-75846800D01*
X208890600Y-70085800D02*
X208890600Y-75811800D01*
X208930600Y-70121800D02*
X208930600Y-75775800D01*
X208970600Y-70158800D02*
X208970600Y-75738800D01*
X209010600Y-70196800D02*
X209010600Y-75700800D01*
X209050600Y-70235800D02*
X209050600Y-75661800D01*
X209090600Y-70275800D02*
X209090600Y-75621800D01*
X209130600Y-70316800D02*
X209130600Y-75580800D01*
X209170600Y-70359800D02*
X209170600Y-75537800D01*
X209210600Y-70402800D02*
X209210600Y-75494800D01*
X209250600Y-70448800D02*
X209250600Y-75448800D01*
X209290600Y-70494800D02*
X209290600Y-75402800D01*
X209330600Y-70543800D02*
X209330600Y-75353800D01*
X209370600Y-70593800D02*
X209370600Y-75303800D01*
X209410600Y-70644800D02*
X209410600Y-75252800D01*
X209450600Y-70698800D02*
X209450600Y-75198800D01*
X209490600Y-70753800D02*
X209490600Y-75143800D01*
X209530600Y-70811800D02*
X209530600Y-75085800D01*
X209570600Y-70871800D02*
X209570600Y-75025800D01*
X209610600Y-70934800D02*
X209610600Y-74962800D01*
X209650600Y-70999800D02*
X209650600Y-74897800D01*
X209690600Y-71067800D02*
X209690600Y-74829800D01*
X209730600Y-71139800D02*
X209730600Y-74757800D01*
X209770600Y-71215800D02*
X209770600Y-74681800D01*
X209810600Y-71294800D02*
X209810600Y-74602800D01*
X209850600Y-71379800D02*
X209850600Y-74517800D01*
X209890600Y-71470800D02*
X209890600Y-74426800D01*
X209930600Y-71567800D02*
X209930600Y-74329800D01*
X209970600Y-71673800D02*
X209970600Y-74223800D01*
X210010600Y-71790800D02*
X210010600Y-74106800D01*
X210050600Y-71920800D02*
X210050600Y-73976800D01*
X210090600Y-72071800D02*
X210090600Y-73825800D01*
X210130600Y-72255800D02*
X210130600Y-73641800D01*
X210170600Y-72507800D02*
X210170600Y-73389800D01*
X202187389Y-70773800D02*
X202937389Y-70773800D01*
X202562389Y-70398800D02*
X202562389Y-71148800D01*
G04 #@! TO.C,D1*
X204396000Y-45282000D02*
X204396000Y-45412000D01*
X204396000Y-45412000D02*
X198956000Y-45412000D01*
X198956000Y-45412000D02*
X198956000Y-45282000D01*
X204396000Y-42602000D02*
X204396000Y-42472000D01*
X204396000Y-42472000D02*
X198956000Y-42472000D01*
X198956000Y-42472000D02*
X198956000Y-42602000D01*
X203496000Y-45412000D02*
X203496000Y-42472000D01*
X203376000Y-45412000D02*
X203376000Y-42472000D01*
X203616000Y-45412000D02*
X203616000Y-42472000D01*
G04 #@! TO.C,C1*
X203210000Y-55902789D02*
X202460000Y-55902789D01*
X202835000Y-55527789D02*
X202835000Y-56277789D01*
X201101000Y-63511000D02*
X200219000Y-63511000D01*
X201353000Y-63471000D02*
X199967000Y-63471000D01*
X201537000Y-63431000D02*
X199783000Y-63431000D01*
X201688000Y-63391000D02*
X199632000Y-63391000D01*
X201818000Y-63351000D02*
X199502000Y-63351000D01*
X201935000Y-63311000D02*
X199385000Y-63311000D01*
X202041000Y-63271000D02*
X199279000Y-63271000D01*
X202138000Y-63231000D02*
X199182000Y-63231000D01*
X202229000Y-63191000D02*
X199091000Y-63191000D01*
X202314000Y-63151000D02*
X199006000Y-63151000D01*
X202393000Y-63111000D02*
X198927000Y-63111000D01*
X202469000Y-63071000D02*
X198851000Y-63071000D01*
X202541000Y-63031000D02*
X198779000Y-63031000D01*
X202609000Y-62991000D02*
X198711000Y-62991000D01*
X202674000Y-62951000D02*
X198646000Y-62951000D01*
X202737000Y-62911000D02*
X198583000Y-62911000D01*
X202797000Y-62871000D02*
X198523000Y-62871000D01*
X202855000Y-62831000D02*
X198465000Y-62831000D01*
X202910000Y-62791000D02*
X198410000Y-62791000D01*
X202964000Y-62751000D02*
X198356000Y-62751000D01*
X203015000Y-62711000D02*
X198305000Y-62711000D01*
X203065000Y-62671000D02*
X198255000Y-62671000D01*
X203114000Y-62631000D02*
X198206000Y-62631000D01*
X203160000Y-62591000D02*
X198160000Y-62591000D01*
X203206000Y-62551000D02*
X198114000Y-62551000D01*
X203249000Y-62511000D02*
X198071000Y-62511000D01*
X203292000Y-62471000D02*
X198028000Y-62471000D01*
X203333000Y-62431000D02*
X197987000Y-62431000D01*
X203373000Y-62391000D02*
X197947000Y-62391000D01*
X203412000Y-62351000D02*
X197908000Y-62351000D01*
X203450000Y-62311000D02*
X197870000Y-62311000D01*
X203487000Y-62271000D02*
X197833000Y-62271000D01*
X203523000Y-62231000D02*
X197797000Y-62231000D01*
X203558000Y-62191000D02*
X197762000Y-62191000D01*
X203591000Y-62151000D02*
X197729000Y-62151000D01*
X203624000Y-62111000D02*
X197696000Y-62111000D01*
X203656000Y-62071000D02*
X197664000Y-62071000D01*
X203688000Y-62031000D02*
X197632000Y-62031000D01*
X203718000Y-61991000D02*
X197602000Y-61991000D01*
X199620000Y-61951000D02*
X197572000Y-61951000D01*
X203748000Y-61951000D02*
X201700000Y-61951000D01*
X199620000Y-61911000D02*
X197544000Y-61911000D01*
X203776000Y-61911000D02*
X201700000Y-61911000D01*
X199620000Y-61871000D02*
X197516000Y-61871000D01*
X203804000Y-61871000D02*
X201700000Y-61871000D01*
X199620000Y-61831000D02*
X197488000Y-61831000D01*
X203832000Y-61831000D02*
X201700000Y-61831000D01*
X199620000Y-61791000D02*
X197462000Y-61791000D01*
X203858000Y-61791000D02*
X201700000Y-61791000D01*
X199620000Y-61751000D02*
X197436000Y-61751000D01*
X203884000Y-61751000D02*
X201700000Y-61751000D01*
X199620000Y-61711000D02*
X197411000Y-61711000D01*
X203909000Y-61711000D02*
X201700000Y-61711000D01*
X199620000Y-61671000D02*
X197386000Y-61671000D01*
X203934000Y-61671000D02*
X201700000Y-61671000D01*
X199620000Y-61631000D02*
X197363000Y-61631000D01*
X203957000Y-61631000D02*
X201700000Y-61631000D01*
X199620000Y-61591000D02*
X197339000Y-61591000D01*
X203981000Y-61591000D02*
X201700000Y-61591000D01*
X199620000Y-61551000D02*
X197317000Y-61551000D01*
X204003000Y-61551000D02*
X201700000Y-61551000D01*
X199620000Y-61511000D02*
X197295000Y-61511000D01*
X204025000Y-61511000D02*
X201700000Y-61511000D01*
X199620000Y-61471000D02*
X197274000Y-61471000D01*
X204046000Y-61471000D02*
X201700000Y-61471000D01*
X199620000Y-61431000D02*
X197253000Y-61431000D01*
X204067000Y-61431000D02*
X201700000Y-61431000D01*
X199620000Y-61391000D02*
X197233000Y-61391000D01*
X204087000Y-61391000D02*
X201700000Y-61391000D01*
X199620000Y-61351000D02*
X197213000Y-61351000D01*
X204107000Y-61351000D02*
X201700000Y-61351000D01*
X199620000Y-61311000D02*
X197194000Y-61311000D01*
X204126000Y-61311000D02*
X201700000Y-61311000D01*
X199620000Y-61271000D02*
X197176000Y-61271000D01*
X204144000Y-61271000D02*
X201700000Y-61271000D01*
X199620000Y-61231000D02*
X197158000Y-61231000D01*
X204162000Y-61231000D02*
X201700000Y-61231000D01*
X199620000Y-61191000D02*
X197140000Y-61191000D01*
X204180000Y-61191000D02*
X201700000Y-61191000D01*
X199620000Y-61151000D02*
X197124000Y-61151000D01*
X204196000Y-61151000D02*
X201700000Y-61151000D01*
X199620000Y-61111000D02*
X197107000Y-61111000D01*
X204213000Y-61111000D02*
X201700000Y-61111000D01*
X199620000Y-61071000D02*
X197092000Y-61071000D01*
X204228000Y-61071000D02*
X201700000Y-61071000D01*
X199620000Y-61031000D02*
X197076000Y-61031000D01*
X204244000Y-61031000D02*
X201700000Y-61031000D01*
X199620000Y-60991000D02*
X197062000Y-60991000D01*
X204258000Y-60991000D02*
X201700000Y-60991000D01*
X199620000Y-60951000D02*
X197047000Y-60951000D01*
X204273000Y-60951000D02*
X201700000Y-60951000D01*
X199620000Y-60911000D02*
X197034000Y-60911000D01*
X204286000Y-60911000D02*
X201700000Y-60911000D01*
X199620000Y-60871000D02*
X197020000Y-60871000D01*
X204300000Y-60871000D02*
X201700000Y-60871000D01*
X199620000Y-60831000D02*
X197007000Y-60831000D01*
X204313000Y-60831000D02*
X201700000Y-60831000D01*
X199620000Y-60791000D02*
X196995000Y-60791000D01*
X204325000Y-60791000D02*
X201700000Y-60791000D01*
X199620000Y-60751000D02*
X196983000Y-60751000D01*
X204337000Y-60751000D02*
X201700000Y-60751000D01*
X199620000Y-60711000D02*
X196972000Y-60711000D01*
X204348000Y-60711000D02*
X201700000Y-60711000D01*
X199620000Y-60671000D02*
X196961000Y-60671000D01*
X204359000Y-60671000D02*
X201700000Y-60671000D01*
X199620000Y-60631000D02*
X196950000Y-60631000D01*
X204370000Y-60631000D02*
X201700000Y-60631000D01*
X199620000Y-60591000D02*
X196940000Y-60591000D01*
X204380000Y-60591000D02*
X201700000Y-60591000D01*
X199620000Y-60551000D02*
X196931000Y-60551000D01*
X204389000Y-60551000D02*
X201700000Y-60551000D01*
X199620000Y-60511000D02*
X196922000Y-60511000D01*
X204398000Y-60511000D02*
X201700000Y-60511000D01*
X199620000Y-60471000D02*
X196913000Y-60471000D01*
X204407000Y-60471000D02*
X201700000Y-60471000D01*
X199620000Y-60431000D02*
X196905000Y-60431000D01*
X204415000Y-60431000D02*
X201700000Y-60431000D01*
X199620000Y-60391000D02*
X196897000Y-60391000D01*
X204423000Y-60391000D02*
X201700000Y-60391000D01*
X199620000Y-60350000D02*
X196890000Y-60350000D01*
X204430000Y-60350000D02*
X201700000Y-60350000D01*
X199620000Y-60310000D02*
X196883000Y-60310000D01*
X204437000Y-60310000D02*
X201700000Y-60310000D01*
X199620000Y-60270000D02*
X196876000Y-60270000D01*
X204444000Y-60270000D02*
X201700000Y-60270000D01*
X199620000Y-60230000D02*
X196870000Y-60230000D01*
X204450000Y-60230000D02*
X201700000Y-60230000D01*
X199620000Y-60190000D02*
X196865000Y-60190000D01*
X204455000Y-60190000D02*
X201700000Y-60190000D01*
X199620000Y-60150000D02*
X196859000Y-60150000D01*
X204461000Y-60150000D02*
X201700000Y-60150000D01*
X199620000Y-60110000D02*
X196855000Y-60110000D01*
X204465000Y-60110000D02*
X201700000Y-60110000D01*
X199620000Y-60070000D02*
X196850000Y-60070000D01*
X204470000Y-60070000D02*
X201700000Y-60070000D01*
X199620000Y-60030000D02*
X196846000Y-60030000D01*
X204474000Y-60030000D02*
X201700000Y-60030000D01*
X199620000Y-59990000D02*
X196843000Y-59990000D01*
X204477000Y-59990000D02*
X201700000Y-59990000D01*
X199620000Y-59950000D02*
X196840000Y-59950000D01*
X204480000Y-59950000D02*
X201700000Y-59950000D01*
X199620000Y-59910000D02*
X196837000Y-59910000D01*
X204483000Y-59910000D02*
X201700000Y-59910000D01*
X204485000Y-59870000D02*
X196835000Y-59870000D01*
X204487000Y-59830000D02*
X196833000Y-59830000D01*
X204489000Y-59790000D02*
X196831000Y-59790000D01*
X204490000Y-59750000D02*
X196830000Y-59750000D01*
X204490000Y-59710000D02*
X196830000Y-59710000D01*
X204490000Y-59670000D02*
X196830000Y-59670000D01*
X204530000Y-59670000D02*
G75*
G03X204530000Y-59670000I-3870000J0D01*
G01*
G04 #@! TO.C,C2*
X206308000Y-51288000D02*
G75*
G03X206308000Y-51288000I-3870000J0D01*
G01*
X206268000Y-51288000D02*
X198608000Y-51288000D01*
X206268000Y-51328000D02*
X198608000Y-51328000D01*
X206268000Y-51368000D02*
X198608000Y-51368000D01*
X206267000Y-51408000D02*
X198609000Y-51408000D01*
X206265000Y-51448000D02*
X198611000Y-51448000D01*
X206263000Y-51488000D02*
X198613000Y-51488000D01*
X206261000Y-51528000D02*
X203478000Y-51528000D01*
X201398000Y-51528000D02*
X198615000Y-51528000D01*
X206258000Y-51568000D02*
X203478000Y-51568000D01*
X201398000Y-51568000D02*
X198618000Y-51568000D01*
X206255000Y-51608000D02*
X203478000Y-51608000D01*
X201398000Y-51608000D02*
X198621000Y-51608000D01*
X206252000Y-51648000D02*
X203478000Y-51648000D01*
X201398000Y-51648000D02*
X198624000Y-51648000D01*
X206248000Y-51688000D02*
X203478000Y-51688000D01*
X201398000Y-51688000D02*
X198628000Y-51688000D01*
X206243000Y-51728000D02*
X203478000Y-51728000D01*
X201398000Y-51728000D02*
X198633000Y-51728000D01*
X206239000Y-51768000D02*
X203478000Y-51768000D01*
X201398000Y-51768000D02*
X198637000Y-51768000D01*
X206233000Y-51808000D02*
X203478000Y-51808000D01*
X201398000Y-51808000D02*
X198643000Y-51808000D01*
X206228000Y-51848000D02*
X203478000Y-51848000D01*
X201398000Y-51848000D02*
X198648000Y-51848000D01*
X206222000Y-51888000D02*
X203478000Y-51888000D01*
X201398000Y-51888000D02*
X198654000Y-51888000D01*
X206215000Y-51928000D02*
X203478000Y-51928000D01*
X201398000Y-51928000D02*
X198661000Y-51928000D01*
X206208000Y-51968000D02*
X203478000Y-51968000D01*
X201398000Y-51968000D02*
X198668000Y-51968000D01*
X206201000Y-52009000D02*
X203478000Y-52009000D01*
X201398000Y-52009000D02*
X198675000Y-52009000D01*
X206193000Y-52049000D02*
X203478000Y-52049000D01*
X201398000Y-52049000D02*
X198683000Y-52049000D01*
X206185000Y-52089000D02*
X203478000Y-52089000D01*
X201398000Y-52089000D02*
X198691000Y-52089000D01*
X206176000Y-52129000D02*
X203478000Y-52129000D01*
X201398000Y-52129000D02*
X198700000Y-52129000D01*
X206167000Y-52169000D02*
X203478000Y-52169000D01*
X201398000Y-52169000D02*
X198709000Y-52169000D01*
X206158000Y-52209000D02*
X203478000Y-52209000D01*
X201398000Y-52209000D02*
X198718000Y-52209000D01*
X206148000Y-52249000D02*
X203478000Y-52249000D01*
X201398000Y-52249000D02*
X198728000Y-52249000D01*
X206137000Y-52289000D02*
X203478000Y-52289000D01*
X201398000Y-52289000D02*
X198739000Y-52289000D01*
X206126000Y-52329000D02*
X203478000Y-52329000D01*
X201398000Y-52329000D02*
X198750000Y-52329000D01*
X206115000Y-52369000D02*
X203478000Y-52369000D01*
X201398000Y-52369000D02*
X198761000Y-52369000D01*
X206103000Y-52409000D02*
X203478000Y-52409000D01*
X201398000Y-52409000D02*
X198773000Y-52409000D01*
X206091000Y-52449000D02*
X203478000Y-52449000D01*
X201398000Y-52449000D02*
X198785000Y-52449000D01*
X206078000Y-52489000D02*
X203478000Y-52489000D01*
X201398000Y-52489000D02*
X198798000Y-52489000D01*
X206064000Y-52529000D02*
X203478000Y-52529000D01*
X201398000Y-52529000D02*
X198812000Y-52529000D01*
X206051000Y-52569000D02*
X203478000Y-52569000D01*
X201398000Y-52569000D02*
X198825000Y-52569000D01*
X206036000Y-52609000D02*
X203478000Y-52609000D01*
X201398000Y-52609000D02*
X198840000Y-52609000D01*
X206022000Y-52649000D02*
X203478000Y-52649000D01*
X201398000Y-52649000D02*
X198854000Y-52649000D01*
X206006000Y-52689000D02*
X203478000Y-52689000D01*
X201398000Y-52689000D02*
X198870000Y-52689000D01*
X205991000Y-52729000D02*
X203478000Y-52729000D01*
X201398000Y-52729000D02*
X198885000Y-52729000D01*
X205974000Y-52769000D02*
X203478000Y-52769000D01*
X201398000Y-52769000D02*
X198902000Y-52769000D01*
X205958000Y-52809000D02*
X203478000Y-52809000D01*
X201398000Y-52809000D02*
X198918000Y-52809000D01*
X205940000Y-52849000D02*
X203478000Y-52849000D01*
X201398000Y-52849000D02*
X198936000Y-52849000D01*
X205922000Y-52889000D02*
X203478000Y-52889000D01*
X201398000Y-52889000D02*
X198954000Y-52889000D01*
X205904000Y-52929000D02*
X203478000Y-52929000D01*
X201398000Y-52929000D02*
X198972000Y-52929000D01*
X205885000Y-52969000D02*
X203478000Y-52969000D01*
X201398000Y-52969000D02*
X198991000Y-52969000D01*
X205865000Y-53009000D02*
X203478000Y-53009000D01*
X201398000Y-53009000D02*
X199011000Y-53009000D01*
X205845000Y-53049000D02*
X203478000Y-53049000D01*
X201398000Y-53049000D02*
X199031000Y-53049000D01*
X205824000Y-53089000D02*
X203478000Y-53089000D01*
X201398000Y-53089000D02*
X199052000Y-53089000D01*
X205803000Y-53129000D02*
X203478000Y-53129000D01*
X201398000Y-53129000D02*
X199073000Y-53129000D01*
X205781000Y-53169000D02*
X203478000Y-53169000D01*
X201398000Y-53169000D02*
X199095000Y-53169000D01*
X205759000Y-53209000D02*
X203478000Y-53209000D01*
X201398000Y-53209000D02*
X199117000Y-53209000D01*
X205735000Y-53249000D02*
X203478000Y-53249000D01*
X201398000Y-53249000D02*
X199141000Y-53249000D01*
X205712000Y-53289000D02*
X203478000Y-53289000D01*
X201398000Y-53289000D02*
X199164000Y-53289000D01*
X205687000Y-53329000D02*
X203478000Y-53329000D01*
X201398000Y-53329000D02*
X199189000Y-53329000D01*
X205662000Y-53369000D02*
X203478000Y-53369000D01*
X201398000Y-53369000D02*
X199214000Y-53369000D01*
X205636000Y-53409000D02*
X203478000Y-53409000D01*
X201398000Y-53409000D02*
X199240000Y-53409000D01*
X205610000Y-53449000D02*
X203478000Y-53449000D01*
X201398000Y-53449000D02*
X199266000Y-53449000D01*
X205582000Y-53489000D02*
X203478000Y-53489000D01*
X201398000Y-53489000D02*
X199294000Y-53489000D01*
X205554000Y-53529000D02*
X203478000Y-53529000D01*
X201398000Y-53529000D02*
X199322000Y-53529000D01*
X205526000Y-53569000D02*
X203478000Y-53569000D01*
X201398000Y-53569000D02*
X199350000Y-53569000D01*
X205496000Y-53609000D02*
X199380000Y-53609000D01*
X205466000Y-53649000D02*
X199410000Y-53649000D01*
X205434000Y-53689000D02*
X199442000Y-53689000D01*
X205402000Y-53729000D02*
X199474000Y-53729000D01*
X205369000Y-53769000D02*
X199507000Y-53769000D01*
X205336000Y-53809000D02*
X199540000Y-53809000D01*
X205301000Y-53849000D02*
X199575000Y-53849000D01*
X205265000Y-53889000D02*
X199611000Y-53889000D01*
X205228000Y-53929000D02*
X199648000Y-53929000D01*
X205190000Y-53969000D02*
X199686000Y-53969000D01*
X205151000Y-54009000D02*
X199725000Y-54009000D01*
X205111000Y-54049000D02*
X199765000Y-54049000D01*
X205070000Y-54089000D02*
X199806000Y-54089000D01*
X205027000Y-54129000D02*
X199849000Y-54129000D01*
X204984000Y-54169000D02*
X199892000Y-54169000D01*
X204938000Y-54209000D02*
X199938000Y-54209000D01*
X204892000Y-54249000D02*
X199984000Y-54249000D01*
X204843000Y-54289000D02*
X200033000Y-54289000D01*
X204793000Y-54329000D02*
X200083000Y-54329000D01*
X204742000Y-54369000D02*
X200134000Y-54369000D01*
X204688000Y-54409000D02*
X200188000Y-54409000D01*
X204633000Y-54449000D02*
X200243000Y-54449000D01*
X204575000Y-54489000D02*
X200301000Y-54489000D01*
X204515000Y-54529000D02*
X200361000Y-54529000D01*
X204452000Y-54569000D02*
X200424000Y-54569000D01*
X204387000Y-54609000D02*
X200489000Y-54609000D01*
X204319000Y-54649000D02*
X200557000Y-54649000D01*
X204247000Y-54689000D02*
X200629000Y-54689000D01*
X204171000Y-54729000D02*
X200705000Y-54729000D01*
X204092000Y-54769000D02*
X200784000Y-54769000D01*
X204007000Y-54809000D02*
X200869000Y-54809000D01*
X203916000Y-54849000D02*
X200960000Y-54849000D01*
X203819000Y-54889000D02*
X201057000Y-54889000D01*
X203713000Y-54929000D02*
X201163000Y-54929000D01*
X203596000Y-54969000D02*
X201280000Y-54969000D01*
X203466000Y-55009000D02*
X201410000Y-55009000D01*
X203315000Y-55049000D02*
X201561000Y-55049000D01*
X203131000Y-55089000D02*
X201745000Y-55089000D01*
X202879000Y-55129000D02*
X201997000Y-55129000D01*
X204613000Y-47145789D02*
X204613000Y-47895789D01*
X204988000Y-47520789D02*
X204238000Y-47520789D01*
G04 #@! TO.C,C3*
X191759200Y-38455600D02*
G75*
G03X191759200Y-38455600I-3870000J0D01*
G01*
X187889200Y-34625600D02*
X187889200Y-42285600D01*
X187929200Y-34625600D02*
X187929200Y-42285600D01*
X187969200Y-34625600D02*
X187969200Y-42285600D01*
X188009200Y-34626600D02*
X188009200Y-42284600D01*
X188049200Y-34628600D02*
X188049200Y-42282600D01*
X188089200Y-34630600D02*
X188089200Y-42280600D01*
X188129200Y-34632600D02*
X188129200Y-37415600D01*
X188129200Y-39495600D02*
X188129200Y-42278600D01*
X188169200Y-34635600D02*
X188169200Y-37415600D01*
X188169200Y-39495600D02*
X188169200Y-42275600D01*
X188209200Y-34638600D02*
X188209200Y-37415600D01*
X188209200Y-39495600D02*
X188209200Y-42272600D01*
X188249200Y-34641600D02*
X188249200Y-37415600D01*
X188249200Y-39495600D02*
X188249200Y-42269600D01*
X188289200Y-34645600D02*
X188289200Y-37415600D01*
X188289200Y-39495600D02*
X188289200Y-42265600D01*
X188329200Y-34650600D02*
X188329200Y-37415600D01*
X188329200Y-39495600D02*
X188329200Y-42260600D01*
X188369200Y-34654600D02*
X188369200Y-37415600D01*
X188369200Y-39495600D02*
X188369200Y-42256600D01*
X188409200Y-34660600D02*
X188409200Y-37415600D01*
X188409200Y-39495600D02*
X188409200Y-42250600D01*
X188449200Y-34665600D02*
X188449200Y-37415600D01*
X188449200Y-39495600D02*
X188449200Y-42245600D01*
X188489200Y-34671600D02*
X188489200Y-37415600D01*
X188489200Y-39495600D02*
X188489200Y-42239600D01*
X188529200Y-34678600D02*
X188529200Y-37415600D01*
X188529200Y-39495600D02*
X188529200Y-42232600D01*
X188569200Y-34685600D02*
X188569200Y-37415600D01*
X188569200Y-39495600D02*
X188569200Y-42225600D01*
X188610200Y-34692600D02*
X188610200Y-37415600D01*
X188610200Y-39495600D02*
X188610200Y-42218600D01*
X188650200Y-34700600D02*
X188650200Y-37415600D01*
X188650200Y-39495600D02*
X188650200Y-42210600D01*
X188690200Y-34708600D02*
X188690200Y-37415600D01*
X188690200Y-39495600D02*
X188690200Y-42202600D01*
X188730200Y-34717600D02*
X188730200Y-37415600D01*
X188730200Y-39495600D02*
X188730200Y-42193600D01*
X188770200Y-34726600D02*
X188770200Y-37415600D01*
X188770200Y-39495600D02*
X188770200Y-42184600D01*
X188810200Y-34735600D02*
X188810200Y-37415600D01*
X188810200Y-39495600D02*
X188810200Y-42175600D01*
X188850200Y-34745600D02*
X188850200Y-37415600D01*
X188850200Y-39495600D02*
X188850200Y-42165600D01*
X188890200Y-34756600D02*
X188890200Y-37415600D01*
X188890200Y-39495600D02*
X188890200Y-42154600D01*
X188930200Y-34767600D02*
X188930200Y-37415600D01*
X188930200Y-39495600D02*
X188930200Y-42143600D01*
X188970200Y-34778600D02*
X188970200Y-37415600D01*
X188970200Y-39495600D02*
X188970200Y-42132600D01*
X189010200Y-34790600D02*
X189010200Y-37415600D01*
X189010200Y-39495600D02*
X189010200Y-42120600D01*
X189050200Y-34802600D02*
X189050200Y-37415600D01*
X189050200Y-39495600D02*
X189050200Y-42108600D01*
X189090200Y-34815600D02*
X189090200Y-37415600D01*
X189090200Y-39495600D02*
X189090200Y-42095600D01*
X189130200Y-34829600D02*
X189130200Y-37415600D01*
X189130200Y-39495600D02*
X189130200Y-42081600D01*
X189170200Y-34842600D02*
X189170200Y-37415600D01*
X189170200Y-39495600D02*
X189170200Y-42068600D01*
X189210200Y-34857600D02*
X189210200Y-37415600D01*
X189210200Y-39495600D02*
X189210200Y-42053600D01*
X189250200Y-34871600D02*
X189250200Y-37415600D01*
X189250200Y-39495600D02*
X189250200Y-42039600D01*
X189290200Y-34887600D02*
X189290200Y-37415600D01*
X189290200Y-39495600D02*
X189290200Y-42023600D01*
X189330200Y-34902600D02*
X189330200Y-37415600D01*
X189330200Y-39495600D02*
X189330200Y-42008600D01*
X189370200Y-34919600D02*
X189370200Y-37415600D01*
X189370200Y-39495600D02*
X189370200Y-41991600D01*
X189410200Y-34935600D02*
X189410200Y-37415600D01*
X189410200Y-39495600D02*
X189410200Y-41975600D01*
X189450200Y-34953600D02*
X189450200Y-37415600D01*
X189450200Y-39495600D02*
X189450200Y-41957600D01*
X189490200Y-34971600D02*
X189490200Y-37415600D01*
X189490200Y-39495600D02*
X189490200Y-41939600D01*
X189530200Y-34989600D02*
X189530200Y-37415600D01*
X189530200Y-39495600D02*
X189530200Y-41921600D01*
X189570200Y-35008600D02*
X189570200Y-37415600D01*
X189570200Y-39495600D02*
X189570200Y-41902600D01*
X189610200Y-35028600D02*
X189610200Y-37415600D01*
X189610200Y-39495600D02*
X189610200Y-41882600D01*
X189650200Y-35048600D02*
X189650200Y-37415600D01*
X189650200Y-39495600D02*
X189650200Y-41862600D01*
X189690200Y-35069600D02*
X189690200Y-37415600D01*
X189690200Y-39495600D02*
X189690200Y-41841600D01*
X189730200Y-35090600D02*
X189730200Y-37415600D01*
X189730200Y-39495600D02*
X189730200Y-41820600D01*
X189770200Y-35112600D02*
X189770200Y-37415600D01*
X189770200Y-39495600D02*
X189770200Y-41798600D01*
X189810200Y-35134600D02*
X189810200Y-37415600D01*
X189810200Y-39495600D02*
X189810200Y-41776600D01*
X189850200Y-35158600D02*
X189850200Y-37415600D01*
X189850200Y-39495600D02*
X189850200Y-41752600D01*
X189890200Y-35181600D02*
X189890200Y-37415600D01*
X189890200Y-39495600D02*
X189890200Y-41729600D01*
X189930200Y-35206600D02*
X189930200Y-37415600D01*
X189930200Y-39495600D02*
X189930200Y-41704600D01*
X189970200Y-35231600D02*
X189970200Y-37415600D01*
X189970200Y-39495600D02*
X189970200Y-41679600D01*
X190010200Y-35257600D02*
X190010200Y-37415600D01*
X190010200Y-39495600D02*
X190010200Y-41653600D01*
X190050200Y-35283600D02*
X190050200Y-37415600D01*
X190050200Y-39495600D02*
X190050200Y-41627600D01*
X190090200Y-35311600D02*
X190090200Y-37415600D01*
X190090200Y-39495600D02*
X190090200Y-41599600D01*
X190130200Y-35339600D02*
X190130200Y-37415600D01*
X190130200Y-39495600D02*
X190130200Y-41571600D01*
X190170200Y-35367600D02*
X190170200Y-37415600D01*
X190170200Y-39495600D02*
X190170200Y-41543600D01*
X190210200Y-35397600D02*
X190210200Y-41513600D01*
X190250200Y-35427600D02*
X190250200Y-41483600D01*
X190290200Y-35459600D02*
X190290200Y-41451600D01*
X190330200Y-35491600D02*
X190330200Y-41419600D01*
X190370200Y-35524600D02*
X190370200Y-41386600D01*
X190410200Y-35557600D02*
X190410200Y-41353600D01*
X190450200Y-35592600D02*
X190450200Y-41318600D01*
X190490200Y-35628600D02*
X190490200Y-41282600D01*
X190530200Y-35665600D02*
X190530200Y-41245600D01*
X190570200Y-35703600D02*
X190570200Y-41207600D01*
X190610200Y-35742600D02*
X190610200Y-41168600D01*
X190650200Y-35782600D02*
X190650200Y-41128600D01*
X190690200Y-35823600D02*
X190690200Y-41087600D01*
X190730200Y-35866600D02*
X190730200Y-41044600D01*
X190770200Y-35909600D02*
X190770200Y-41001600D01*
X190810200Y-35955600D02*
X190810200Y-40955600D01*
X190850200Y-36001600D02*
X190850200Y-40909600D01*
X190890200Y-36050600D02*
X190890200Y-40860600D01*
X190930200Y-36100600D02*
X190930200Y-40810600D01*
X190970200Y-36151600D02*
X190970200Y-40759600D01*
X191010200Y-36205600D02*
X191010200Y-40705600D01*
X191050200Y-36260600D02*
X191050200Y-40650600D01*
X191090200Y-36318600D02*
X191090200Y-40592600D01*
X191130200Y-36378600D02*
X191130200Y-40532600D01*
X191170200Y-36441600D02*
X191170200Y-40469600D01*
X191210200Y-36506600D02*
X191210200Y-40404600D01*
X191250200Y-36574600D02*
X191250200Y-40336600D01*
X191290200Y-36646600D02*
X191290200Y-40264600D01*
X191330200Y-36722600D02*
X191330200Y-40188600D01*
X191370200Y-36801600D02*
X191370200Y-40109600D01*
X191410200Y-36886600D02*
X191410200Y-40024600D01*
X191450200Y-36977600D02*
X191450200Y-39933600D01*
X191490200Y-37074600D02*
X191490200Y-39836600D01*
X191530200Y-37180600D02*
X191530200Y-39730600D01*
X191570200Y-37297600D02*
X191570200Y-39613600D01*
X191610200Y-37427600D02*
X191610200Y-39483600D01*
X191650200Y-37578600D02*
X191650200Y-39332600D01*
X191690200Y-37762600D02*
X191690200Y-39148600D01*
X191730200Y-38014600D02*
X191730200Y-38896600D01*
X183746989Y-36280600D02*
X184496989Y-36280600D01*
X184121989Y-35905600D02*
X184121989Y-36655600D01*
G04 #@! TO.C,C4*
X167307189Y-35854800D02*
X167307189Y-36604800D01*
X166932189Y-36229800D02*
X167682189Y-36229800D01*
X174915400Y-37963800D02*
X174915400Y-38845800D01*
X174875400Y-37711800D02*
X174875400Y-39097800D01*
X174835400Y-37527800D02*
X174835400Y-39281800D01*
X174795400Y-37376800D02*
X174795400Y-39432800D01*
X174755400Y-37246800D02*
X174755400Y-39562800D01*
X174715400Y-37129800D02*
X174715400Y-39679800D01*
X174675400Y-37023800D02*
X174675400Y-39785800D01*
X174635400Y-36926800D02*
X174635400Y-39882800D01*
X174595400Y-36835800D02*
X174595400Y-39973800D01*
X174555400Y-36750800D02*
X174555400Y-40058800D01*
X174515400Y-36671800D02*
X174515400Y-40137800D01*
X174475400Y-36595800D02*
X174475400Y-40213800D01*
X174435400Y-36523800D02*
X174435400Y-40285800D01*
X174395400Y-36455800D02*
X174395400Y-40353800D01*
X174355400Y-36390800D02*
X174355400Y-40418800D01*
X174315400Y-36327800D02*
X174315400Y-40481800D01*
X174275400Y-36267800D02*
X174275400Y-40541800D01*
X174235400Y-36209800D02*
X174235400Y-40599800D01*
X174195400Y-36154800D02*
X174195400Y-40654800D01*
X174155400Y-36100800D02*
X174155400Y-40708800D01*
X174115400Y-36049800D02*
X174115400Y-40759800D01*
X174075400Y-35999800D02*
X174075400Y-40809800D01*
X174035400Y-35950800D02*
X174035400Y-40858800D01*
X173995400Y-35904800D02*
X173995400Y-40904800D01*
X173955400Y-35858800D02*
X173955400Y-40950800D01*
X173915400Y-35815800D02*
X173915400Y-40993800D01*
X173875400Y-35772800D02*
X173875400Y-41036800D01*
X173835400Y-35731800D02*
X173835400Y-41077800D01*
X173795400Y-35691800D02*
X173795400Y-41117800D01*
X173755400Y-35652800D02*
X173755400Y-41156800D01*
X173715400Y-35614800D02*
X173715400Y-41194800D01*
X173675400Y-35577800D02*
X173675400Y-41231800D01*
X173635400Y-35541800D02*
X173635400Y-41267800D01*
X173595400Y-35506800D02*
X173595400Y-41302800D01*
X173555400Y-35473800D02*
X173555400Y-41335800D01*
X173515400Y-35440800D02*
X173515400Y-41368800D01*
X173475400Y-35408800D02*
X173475400Y-41400800D01*
X173435400Y-35376800D02*
X173435400Y-41432800D01*
X173395400Y-35346800D02*
X173395400Y-41462800D01*
X173355400Y-39444800D02*
X173355400Y-41492800D01*
X173355400Y-35316800D02*
X173355400Y-37364800D01*
X173315400Y-39444800D02*
X173315400Y-41520800D01*
X173315400Y-35288800D02*
X173315400Y-37364800D01*
X173275400Y-39444800D02*
X173275400Y-41548800D01*
X173275400Y-35260800D02*
X173275400Y-37364800D01*
X173235400Y-39444800D02*
X173235400Y-41576800D01*
X173235400Y-35232800D02*
X173235400Y-37364800D01*
X173195400Y-39444800D02*
X173195400Y-41602800D01*
X173195400Y-35206800D02*
X173195400Y-37364800D01*
X173155400Y-39444800D02*
X173155400Y-41628800D01*
X173155400Y-35180800D02*
X173155400Y-37364800D01*
X173115400Y-39444800D02*
X173115400Y-41653800D01*
X173115400Y-35155800D02*
X173115400Y-37364800D01*
X173075400Y-39444800D02*
X173075400Y-41678800D01*
X173075400Y-35130800D02*
X173075400Y-37364800D01*
X173035400Y-39444800D02*
X173035400Y-41701800D01*
X173035400Y-35107800D02*
X173035400Y-37364800D01*
X172995400Y-39444800D02*
X172995400Y-41725800D01*
X172995400Y-35083800D02*
X172995400Y-37364800D01*
X172955400Y-39444800D02*
X172955400Y-41747800D01*
X172955400Y-35061800D02*
X172955400Y-37364800D01*
X172915400Y-39444800D02*
X172915400Y-41769800D01*
X172915400Y-35039800D02*
X172915400Y-37364800D01*
X172875400Y-39444800D02*
X172875400Y-41790800D01*
X172875400Y-35018800D02*
X172875400Y-37364800D01*
X172835400Y-39444800D02*
X172835400Y-41811800D01*
X172835400Y-34997800D02*
X172835400Y-37364800D01*
X172795400Y-39444800D02*
X172795400Y-41831800D01*
X172795400Y-34977800D02*
X172795400Y-37364800D01*
X172755400Y-39444800D02*
X172755400Y-41851800D01*
X172755400Y-34957800D02*
X172755400Y-37364800D01*
X172715400Y-39444800D02*
X172715400Y-41870800D01*
X172715400Y-34938800D02*
X172715400Y-37364800D01*
X172675400Y-39444800D02*
X172675400Y-41888800D01*
X172675400Y-34920800D02*
X172675400Y-37364800D01*
X172635400Y-39444800D02*
X172635400Y-41906800D01*
X172635400Y-34902800D02*
X172635400Y-37364800D01*
X172595400Y-39444800D02*
X172595400Y-41924800D01*
X172595400Y-34884800D02*
X172595400Y-37364800D01*
X172555400Y-39444800D02*
X172555400Y-41940800D01*
X172555400Y-34868800D02*
X172555400Y-37364800D01*
X172515400Y-39444800D02*
X172515400Y-41957800D01*
X172515400Y-34851800D02*
X172515400Y-37364800D01*
X172475400Y-39444800D02*
X172475400Y-41972800D01*
X172475400Y-34836800D02*
X172475400Y-37364800D01*
X172435400Y-39444800D02*
X172435400Y-41988800D01*
X172435400Y-34820800D02*
X172435400Y-37364800D01*
X172395400Y-39444800D02*
X172395400Y-42002800D01*
X172395400Y-34806800D02*
X172395400Y-37364800D01*
X172355400Y-39444800D02*
X172355400Y-42017800D01*
X172355400Y-34791800D02*
X172355400Y-37364800D01*
X172315400Y-39444800D02*
X172315400Y-42030800D01*
X172315400Y-34778800D02*
X172315400Y-37364800D01*
X172275400Y-39444800D02*
X172275400Y-42044800D01*
X172275400Y-34764800D02*
X172275400Y-37364800D01*
X172235400Y-39444800D02*
X172235400Y-42057800D01*
X172235400Y-34751800D02*
X172235400Y-37364800D01*
X172195400Y-39444800D02*
X172195400Y-42069800D01*
X172195400Y-34739800D02*
X172195400Y-37364800D01*
X172155400Y-39444800D02*
X172155400Y-42081800D01*
X172155400Y-34727800D02*
X172155400Y-37364800D01*
X172115400Y-39444800D02*
X172115400Y-42092800D01*
X172115400Y-34716800D02*
X172115400Y-37364800D01*
X172075400Y-39444800D02*
X172075400Y-42103800D01*
X172075400Y-34705800D02*
X172075400Y-37364800D01*
X172035400Y-39444800D02*
X172035400Y-42114800D01*
X172035400Y-34694800D02*
X172035400Y-37364800D01*
X171995400Y-39444800D02*
X171995400Y-42124800D01*
X171995400Y-34684800D02*
X171995400Y-37364800D01*
X171955400Y-39444800D02*
X171955400Y-42133800D01*
X171955400Y-34675800D02*
X171955400Y-37364800D01*
X171915400Y-39444800D02*
X171915400Y-42142800D01*
X171915400Y-34666800D02*
X171915400Y-37364800D01*
X171875400Y-39444800D02*
X171875400Y-42151800D01*
X171875400Y-34657800D02*
X171875400Y-37364800D01*
X171835400Y-39444800D02*
X171835400Y-42159800D01*
X171835400Y-34649800D02*
X171835400Y-37364800D01*
X171795400Y-39444800D02*
X171795400Y-42167800D01*
X171795400Y-34641800D02*
X171795400Y-37364800D01*
X171754400Y-39444800D02*
X171754400Y-42174800D01*
X171754400Y-34634800D02*
X171754400Y-37364800D01*
X171714400Y-39444800D02*
X171714400Y-42181800D01*
X171714400Y-34627800D02*
X171714400Y-37364800D01*
X171674400Y-39444800D02*
X171674400Y-42188800D01*
X171674400Y-34620800D02*
X171674400Y-37364800D01*
X171634400Y-39444800D02*
X171634400Y-42194800D01*
X171634400Y-34614800D02*
X171634400Y-37364800D01*
X171594400Y-39444800D02*
X171594400Y-42199800D01*
X171594400Y-34609800D02*
X171594400Y-37364800D01*
X171554400Y-39444800D02*
X171554400Y-42205800D01*
X171554400Y-34603800D02*
X171554400Y-37364800D01*
X171514400Y-39444800D02*
X171514400Y-42209800D01*
X171514400Y-34599800D02*
X171514400Y-37364800D01*
X171474400Y-39444800D02*
X171474400Y-42214800D01*
X171474400Y-34594800D02*
X171474400Y-37364800D01*
X171434400Y-39444800D02*
X171434400Y-42218800D01*
X171434400Y-34590800D02*
X171434400Y-37364800D01*
X171394400Y-39444800D02*
X171394400Y-42221800D01*
X171394400Y-34587800D02*
X171394400Y-37364800D01*
X171354400Y-39444800D02*
X171354400Y-42224800D01*
X171354400Y-34584800D02*
X171354400Y-37364800D01*
X171314400Y-39444800D02*
X171314400Y-42227800D01*
X171314400Y-34581800D02*
X171314400Y-37364800D01*
X171274400Y-34579800D02*
X171274400Y-42229800D01*
X171234400Y-34577800D02*
X171234400Y-42231800D01*
X171194400Y-34575800D02*
X171194400Y-42233800D01*
X171154400Y-34574800D02*
X171154400Y-42234800D01*
X171114400Y-34574800D02*
X171114400Y-42234800D01*
X171074400Y-34574800D02*
X171074400Y-42234800D01*
X174944400Y-38404800D02*
G75*
G03X174944400Y-38404800I-3870000J0D01*
G01*
G04 #@! TO.C,J2*
X160080000Y-64957000D02*
X158750000Y-64957000D01*
X160080000Y-63627000D02*
X160080000Y-64957000D01*
X160080000Y-62357000D02*
X157420000Y-62357000D01*
X157420000Y-62357000D02*
X157420000Y-57217000D01*
X160080000Y-62357000D02*
X160080000Y-57217000D01*
X160080000Y-57217000D02*
X157420000Y-57217000D01*
G04 #@! TO.C,J3*
X214096000Y-59027000D02*
X223096000Y-59027000D01*
X223096000Y-59027000D02*
X223096000Y-68227000D01*
X223096000Y-68227000D02*
X208496000Y-68227000D01*
X208496000Y-68227000D02*
X208496000Y-65427000D01*
X208496000Y-61827000D02*
X208496000Y-59027000D01*
X208496000Y-59027000D02*
X210496000Y-59027000D01*
X209996000Y-68467000D02*
X208256000Y-68467000D01*
X208256000Y-68467000D02*
X208256000Y-66727000D01*
G04 #@! TO.C,J4*
X184368750Y-64957000D02*
X183038750Y-64957000D01*
X184368750Y-63627000D02*
X184368750Y-64957000D01*
X184368750Y-62357000D02*
X181708750Y-62357000D01*
X181708750Y-62357000D02*
X181708750Y-57217000D01*
X184368750Y-62357000D02*
X184368750Y-57217000D01*
X184368750Y-57217000D02*
X181708750Y-57217000D01*
G04 #@! TO.C,J5*
X156005000Y-52271000D02*
X157255000Y-52271000D01*
X156005000Y-51021000D02*
X156005000Y-52271000D01*
X160415000Y-46911000D02*
X159915000Y-46911000D01*
X159915000Y-46811000D02*
X160415000Y-46811000D01*
X159915000Y-47011000D02*
X159915000Y-46811000D01*
X160415000Y-47011000D02*
X159915000Y-47011000D01*
X160415000Y-48911000D02*
X159915000Y-48911000D01*
X159915000Y-48811000D02*
X160415000Y-48811000D01*
X159915000Y-49011000D02*
X159915000Y-48811000D01*
X160415000Y-49011000D02*
X159915000Y-49011000D01*
X158915000Y-43851000D02*
X158915000Y-44461000D01*
X157615000Y-43851000D02*
X157615000Y-44461000D01*
X158915000Y-51971000D02*
X158915000Y-51361000D01*
X157615000Y-51971000D02*
X157615000Y-51361000D01*
X156915000Y-46411000D02*
X156305000Y-46411000D01*
X156915000Y-44461000D02*
X156915000Y-46411000D01*
X160415000Y-44461000D02*
X156915000Y-44461000D01*
X160415000Y-51361000D02*
X160415000Y-44461000D01*
X156915000Y-51361000D02*
X160415000Y-51361000D01*
X156915000Y-49411000D02*
X156915000Y-51361000D01*
X156305000Y-49411000D02*
X156915000Y-49411000D01*
X156205000Y-50211000D02*
X156205000Y-50511000D01*
X156105000Y-50511000D02*
X156305000Y-50511000D01*
X156105000Y-50211000D02*
X156105000Y-50511000D01*
X156305000Y-50211000D02*
X156105000Y-50211000D01*
X156305000Y-43851000D02*
X156305000Y-51971000D01*
X161025000Y-43851000D02*
X156305000Y-43851000D01*
X161025000Y-51971000D02*
X161025000Y-43851000D01*
X156305000Y-51971000D02*
X161025000Y-51971000D01*
G04 #@! TO.C,J6*
X176272500Y-57217000D02*
X173612500Y-57217000D01*
X176272500Y-62357000D02*
X176272500Y-57217000D01*
X173612500Y-62357000D02*
X173612500Y-57217000D01*
X176272500Y-62357000D02*
X173612500Y-62357000D01*
X176272500Y-63627000D02*
X176272500Y-64957000D01*
X176272500Y-64957000D02*
X174942500Y-64957000D01*
G04 #@! TO.C,J7*
X164623500Y-51971000D02*
X169343500Y-51971000D01*
X169343500Y-51971000D02*
X169343500Y-43851000D01*
X169343500Y-43851000D02*
X164623500Y-43851000D01*
X164623500Y-43851000D02*
X164623500Y-51971000D01*
X164623500Y-50211000D02*
X164423500Y-50211000D01*
X164423500Y-50211000D02*
X164423500Y-50511000D01*
X164423500Y-50511000D02*
X164623500Y-50511000D01*
X164523500Y-50211000D02*
X164523500Y-50511000D01*
X164623500Y-49411000D02*
X165233500Y-49411000D01*
X165233500Y-49411000D02*
X165233500Y-51361000D01*
X165233500Y-51361000D02*
X168733500Y-51361000D01*
X168733500Y-51361000D02*
X168733500Y-44461000D01*
X168733500Y-44461000D02*
X165233500Y-44461000D01*
X165233500Y-44461000D02*
X165233500Y-46411000D01*
X165233500Y-46411000D02*
X164623500Y-46411000D01*
X165933500Y-51971000D02*
X165933500Y-51361000D01*
X167233500Y-51971000D02*
X167233500Y-51361000D01*
X165933500Y-43851000D02*
X165933500Y-44461000D01*
X167233500Y-43851000D02*
X167233500Y-44461000D01*
X168733500Y-49011000D02*
X168233500Y-49011000D01*
X168233500Y-49011000D02*
X168233500Y-48811000D01*
X168233500Y-48811000D02*
X168733500Y-48811000D01*
X168733500Y-48911000D02*
X168233500Y-48911000D01*
X168733500Y-47011000D02*
X168233500Y-47011000D01*
X168233500Y-47011000D02*
X168233500Y-46811000D01*
X168233500Y-46811000D02*
X168733500Y-46811000D01*
X168733500Y-46911000D02*
X168233500Y-46911000D01*
X164323500Y-51021000D02*
X164323500Y-52271000D01*
X164323500Y-52271000D02*
X165573500Y-52271000D01*
G04 #@! TO.C,J8*
X168176250Y-57217000D02*
X165516250Y-57217000D01*
X168176250Y-62357000D02*
X168176250Y-57217000D01*
X165516250Y-62357000D02*
X165516250Y-57217000D01*
X168176250Y-62357000D02*
X165516250Y-62357000D01*
X168176250Y-63627000D02*
X168176250Y-64957000D01*
X168176250Y-64957000D02*
X166846250Y-64957000D01*
G04 #@! TO.C,J9*
X172942000Y-51971000D02*
X177662000Y-51971000D01*
X177662000Y-51971000D02*
X177662000Y-43851000D01*
X177662000Y-43851000D02*
X172942000Y-43851000D01*
X172942000Y-43851000D02*
X172942000Y-51971000D01*
X172942000Y-50211000D02*
X172742000Y-50211000D01*
X172742000Y-50211000D02*
X172742000Y-50511000D01*
X172742000Y-50511000D02*
X172942000Y-50511000D01*
X172842000Y-50211000D02*
X172842000Y-50511000D01*
X172942000Y-49411000D02*
X173552000Y-49411000D01*
X173552000Y-49411000D02*
X173552000Y-51361000D01*
X173552000Y-51361000D02*
X177052000Y-51361000D01*
X177052000Y-51361000D02*
X177052000Y-44461000D01*
X177052000Y-44461000D02*
X173552000Y-44461000D01*
X173552000Y-44461000D02*
X173552000Y-46411000D01*
X173552000Y-46411000D02*
X172942000Y-46411000D01*
X174252000Y-51971000D02*
X174252000Y-51361000D01*
X175552000Y-51971000D02*
X175552000Y-51361000D01*
X174252000Y-43851000D02*
X174252000Y-44461000D01*
X175552000Y-43851000D02*
X175552000Y-44461000D01*
X177052000Y-49011000D02*
X176552000Y-49011000D01*
X176552000Y-49011000D02*
X176552000Y-48811000D01*
X176552000Y-48811000D02*
X177052000Y-48811000D01*
X177052000Y-48911000D02*
X176552000Y-48911000D01*
X177052000Y-47011000D02*
X176552000Y-47011000D01*
X176552000Y-47011000D02*
X176552000Y-46811000D01*
X176552000Y-46811000D02*
X177052000Y-46811000D01*
X177052000Y-46911000D02*
X176552000Y-46911000D01*
X172642000Y-51021000D02*
X172642000Y-52271000D01*
X172642000Y-52271000D02*
X173892000Y-52271000D01*
G04 #@! TO.C,J10*
X189579000Y-51971000D02*
X194299000Y-51971000D01*
X194299000Y-51971000D02*
X194299000Y-43851000D01*
X194299000Y-43851000D02*
X189579000Y-43851000D01*
X189579000Y-43851000D02*
X189579000Y-51971000D01*
X189579000Y-50211000D02*
X189379000Y-50211000D01*
X189379000Y-50211000D02*
X189379000Y-50511000D01*
X189379000Y-50511000D02*
X189579000Y-50511000D01*
X189479000Y-50211000D02*
X189479000Y-50511000D01*
X189579000Y-49411000D02*
X190189000Y-49411000D01*
X190189000Y-49411000D02*
X190189000Y-51361000D01*
X190189000Y-51361000D02*
X193689000Y-51361000D01*
X193689000Y-51361000D02*
X193689000Y-44461000D01*
X193689000Y-44461000D02*
X190189000Y-44461000D01*
X190189000Y-44461000D02*
X190189000Y-46411000D01*
X190189000Y-46411000D02*
X189579000Y-46411000D01*
X190889000Y-51971000D02*
X190889000Y-51361000D01*
X192189000Y-51971000D02*
X192189000Y-51361000D01*
X190889000Y-43851000D02*
X190889000Y-44461000D01*
X192189000Y-43851000D02*
X192189000Y-44461000D01*
X193689000Y-49011000D02*
X193189000Y-49011000D01*
X193189000Y-49011000D02*
X193189000Y-48811000D01*
X193189000Y-48811000D02*
X193689000Y-48811000D01*
X193689000Y-48911000D02*
X193189000Y-48911000D01*
X193689000Y-47011000D02*
X193189000Y-47011000D01*
X193189000Y-47011000D02*
X193189000Y-46811000D01*
X193189000Y-46811000D02*
X193689000Y-46811000D01*
X193689000Y-46911000D02*
X193189000Y-46911000D01*
X189279000Y-51021000D02*
X189279000Y-52271000D01*
X189279000Y-52271000D02*
X190529000Y-52271000D01*
G04 #@! TO.C,J11*
X180960500Y-52271000D02*
X182210500Y-52271000D01*
X180960500Y-51021000D02*
X180960500Y-52271000D01*
X185370500Y-46911000D02*
X184870500Y-46911000D01*
X184870500Y-46811000D02*
X185370500Y-46811000D01*
X184870500Y-47011000D02*
X184870500Y-46811000D01*
X185370500Y-47011000D02*
X184870500Y-47011000D01*
X185370500Y-48911000D02*
X184870500Y-48911000D01*
X184870500Y-48811000D02*
X185370500Y-48811000D01*
X184870500Y-49011000D02*
X184870500Y-48811000D01*
X185370500Y-49011000D02*
X184870500Y-49011000D01*
X183870500Y-43851000D02*
X183870500Y-44461000D01*
X182570500Y-43851000D02*
X182570500Y-44461000D01*
X183870500Y-51971000D02*
X183870500Y-51361000D01*
X182570500Y-51971000D02*
X182570500Y-51361000D01*
X181870500Y-46411000D02*
X181260500Y-46411000D01*
X181870500Y-44461000D02*
X181870500Y-46411000D01*
X185370500Y-44461000D02*
X181870500Y-44461000D01*
X185370500Y-51361000D02*
X185370500Y-44461000D01*
X181870500Y-51361000D02*
X185370500Y-51361000D01*
X181870500Y-49411000D02*
X181870500Y-51361000D01*
X181260500Y-49411000D02*
X181870500Y-49411000D01*
X181160500Y-50211000D02*
X181160500Y-50511000D01*
X181060500Y-50511000D02*
X181260500Y-50511000D01*
X181060500Y-50211000D02*
X181060500Y-50511000D01*
X181260500Y-50211000D02*
X181060500Y-50211000D01*
X181260500Y-43851000D02*
X181260500Y-51971000D01*
X185980500Y-43851000D02*
X181260500Y-43851000D01*
X185980500Y-51971000D02*
X185980500Y-43851000D01*
X181260500Y-51971000D02*
X185980500Y-51971000D01*
G04 #@! TO.C,U1*
X214106000Y-44136000D02*
G75*
G02X212106000Y-44136000I-1000000J0D01*
G01*
X212106000Y-44136000D02*
X210456000Y-44136000D01*
X210456000Y-44136000D02*
X210456000Y-54416000D01*
X210456000Y-54416000D02*
X215756000Y-54416000D01*
X215756000Y-54416000D02*
X215756000Y-44136000D01*
X215756000Y-44136000D02*
X214106000Y-44136000D01*
X207966000Y-44076000D02*
X207966000Y-54476000D01*
X207966000Y-54476000D02*
X218246000Y-54476000D01*
X218246000Y-54476000D02*
X218246000Y-44076000D01*
X218246000Y-44076000D02*
X207966000Y-44076000D01*
G04 #@! TO.C,J12*
D12*
X173078876Y-75950380D02*
X173078876Y-76664666D01*
X173031257Y-76807523D01*
X172936019Y-76902761D01*
X172793161Y-76950380D01*
X172697923Y-76950380D01*
X174078876Y-76950380D02*
X173507447Y-76950380D01*
X173793161Y-76950380D02*
X173793161Y-75950380D01*
X173697923Y-76093238D01*
X173602685Y-76188476D01*
X173507447Y-76236095D01*
X174459828Y-76045619D02*
X174507447Y-75998000D01*
X174602685Y-75950380D01*
X174840780Y-75950380D01*
X174936019Y-75998000D01*
X174983638Y-76045619D01*
X175031257Y-76140857D01*
X175031257Y-76236095D01*
X174983638Y-76378952D01*
X174412209Y-76950380D01*
X175031257Y-76950380D01*
G04 #@! TO.C,U2*
X177855980Y-73151904D02*
X178665504Y-73151904D01*
X178760742Y-73104285D01*
X178808361Y-73056666D01*
X178855980Y-72961428D01*
X178855980Y-72770952D01*
X178808361Y-72675714D01*
X178760742Y-72628095D01*
X178665504Y-72580476D01*
X177855980Y-72580476D01*
X177951219Y-72151904D02*
X177903600Y-72104285D01*
X177855980Y-72009047D01*
X177855980Y-71770952D01*
X177903600Y-71675714D01*
X177951219Y-71628095D01*
X178046457Y-71580476D01*
X178141695Y-71580476D01*
X178284552Y-71628095D01*
X178855980Y-72199523D01*
X178855980Y-71580476D01*
G04 #@! TO.C,J1*
X190801666Y-65409380D02*
X190801666Y-66123666D01*
X190754047Y-66266523D01*
X190658809Y-66361761D01*
X190515952Y-66409380D01*
X190420714Y-66409380D01*
X191801666Y-66409380D02*
X191230238Y-66409380D01*
X191515952Y-66409380D02*
X191515952Y-65409380D01*
X191420714Y-65552238D01*
X191325476Y-65647476D01*
X191230238Y-65695095D01*
G04 #@! TO.C,JP1*
X202356266Y-67241580D02*
X202356266Y-67955866D01*
X202308647Y-68098723D01*
X202213409Y-68193961D01*
X202070552Y-68241580D01*
X201975314Y-68241580D01*
X202832457Y-68241580D02*
X202832457Y-67241580D01*
X203213409Y-67241580D01*
X203308647Y-67289200D01*
X203356266Y-67336819D01*
X203403885Y-67432057D01*
X203403885Y-67574914D01*
X203356266Y-67670152D01*
X203308647Y-67717771D01*
X203213409Y-67765390D01*
X202832457Y-67765390D01*
X204356266Y-68241580D02*
X203784838Y-68241580D01*
X204070552Y-68241580D02*
X204070552Y-67241580D01*
X203975314Y-67384438D01*
X203880076Y-67479676D01*
X203784838Y-67527295D01*
G04 #@! TO.C,C5*
X200442533Y-72289942D02*
X200394914Y-72337561D01*
X200252057Y-72385180D01*
X200156819Y-72385180D01*
X200013961Y-72337561D01*
X199918723Y-72242323D01*
X199871104Y-72147085D01*
X199823485Y-71956609D01*
X199823485Y-71813752D01*
X199871104Y-71623276D01*
X199918723Y-71528038D01*
X200013961Y-71432800D01*
X200156819Y-71385180D01*
X200252057Y-71385180D01*
X200394914Y-71432800D01*
X200442533Y-71480419D01*
X201347295Y-71385180D02*
X200871104Y-71385180D01*
X200823485Y-71861371D01*
X200871104Y-71813752D01*
X200966342Y-71766133D01*
X201204438Y-71766133D01*
X201299676Y-71813752D01*
X201347295Y-71861371D01*
X201394914Y-71956609D01*
X201394914Y-72194704D01*
X201347295Y-72289942D01*
X201299676Y-72337561D01*
X201204438Y-72385180D01*
X200966342Y-72385180D01*
X200871104Y-72337561D01*
X200823485Y-72289942D01*
G04 #@! TO.C,H1*
X211124895Y-37536380D02*
X211124895Y-36536380D01*
X211124895Y-37012571D02*
X211696323Y-37012571D01*
X211696323Y-37536380D02*
X211696323Y-36536380D01*
X212696323Y-37536380D02*
X212124895Y-37536380D01*
X212410609Y-37536380D02*
X212410609Y-36536380D01*
X212315371Y-36679238D01*
X212220133Y-36774476D01*
X212124895Y-36822095D01*
G04 #@! TO.C,H2*
X215544495Y-71225980D02*
X215544495Y-70225980D01*
X215544495Y-70702171D02*
X216115923Y-70702171D01*
X216115923Y-71225980D02*
X216115923Y-70225980D01*
X216544495Y-70321219D02*
X216592114Y-70273600D01*
X216687352Y-70225980D01*
X216925447Y-70225980D01*
X217020685Y-70273600D01*
X217068304Y-70321219D01*
X217115923Y-70416457D01*
X217115923Y-70511695D01*
X217068304Y-70654552D01*
X216496876Y-71225980D01*
X217115923Y-71225980D01*
G04 #@! TO.C,H3*
X159664495Y-38704780D02*
X159664495Y-37704780D01*
X159664495Y-38180971D02*
X160235923Y-38180971D01*
X160235923Y-38704780D02*
X160235923Y-37704780D01*
X160616876Y-37704780D02*
X161235923Y-37704780D01*
X160902590Y-38085733D01*
X161045447Y-38085733D01*
X161140685Y-38133352D01*
X161188304Y-38180971D01*
X161235923Y-38276209D01*
X161235923Y-38514304D01*
X161188304Y-38609542D01*
X161140685Y-38657161D01*
X161045447Y-38704780D01*
X160759733Y-38704780D01*
X160664495Y-38657161D01*
X160616876Y-38609542D01*
G04 #@! TO.C,H4*
X155752895Y-71225980D02*
X155752895Y-70225980D01*
X155752895Y-70702171D02*
X156324323Y-70702171D01*
X156324323Y-71225980D02*
X156324323Y-70225980D01*
X157229085Y-70559314D02*
X157229085Y-71225980D01*
X156990990Y-70178361D02*
X156752895Y-70892647D01*
X157371942Y-70892647D01*
G04 #@! TO.C,D1*
X200937904Y-46864380D02*
X200937904Y-45864380D01*
X201176000Y-45864380D01*
X201318857Y-45912000D01*
X201414095Y-46007238D01*
X201461714Y-46102476D01*
X201509333Y-46292952D01*
X201509333Y-46435809D01*
X201461714Y-46626285D01*
X201414095Y-46721523D01*
X201318857Y-46816761D01*
X201176000Y-46864380D01*
X200937904Y-46864380D01*
X202461714Y-46864380D02*
X201890285Y-46864380D01*
X202176000Y-46864380D02*
X202176000Y-45864380D01*
X202080761Y-46007238D01*
X201985523Y-46102476D01*
X201890285Y-46150095D01*
X205224095Y-46494380D02*
X205224095Y-45494380D01*
X205795523Y-46494380D02*
X205366952Y-45922952D01*
X205795523Y-45494380D02*
X205224095Y-46065809D01*
G04 #@! TO.C,C1*
X206017142Y-59836666D02*
X206064761Y-59884285D01*
X206112380Y-60027142D01*
X206112380Y-60122380D01*
X206064761Y-60265238D01*
X205969523Y-60360476D01*
X205874285Y-60408095D01*
X205683809Y-60455714D01*
X205540952Y-60455714D01*
X205350476Y-60408095D01*
X205255238Y-60360476D01*
X205160000Y-60265238D01*
X205112380Y-60122380D01*
X205112380Y-60027142D01*
X205160000Y-59884285D01*
X205207619Y-59836666D01*
X206112380Y-58884285D02*
X206112380Y-59455714D01*
X206112380Y-59170000D02*
X205112380Y-59170000D01*
X205255238Y-59265238D01*
X205350476Y-59360476D01*
X205398095Y-59455714D01*
G04 #@! TO.C,C2*
X207795142Y-51454666D02*
X207842761Y-51502285D01*
X207890380Y-51645142D01*
X207890380Y-51740380D01*
X207842761Y-51883238D01*
X207747523Y-51978476D01*
X207652285Y-52026095D01*
X207461809Y-52073714D01*
X207318952Y-52073714D01*
X207128476Y-52026095D01*
X207033238Y-51978476D01*
X206938000Y-51883238D01*
X206890380Y-51740380D01*
X206890380Y-51645142D01*
X206938000Y-51502285D01*
X206985619Y-51454666D01*
X206985619Y-51073714D02*
X206938000Y-51026095D01*
X206890380Y-50930857D01*
X206890380Y-50692761D01*
X206938000Y-50597523D01*
X206985619Y-50549904D01*
X207080857Y-50502285D01*
X207176095Y-50502285D01*
X207318952Y-50549904D01*
X207890380Y-51121333D01*
X207890380Y-50502285D01*
G04 #@! TO.C,C3*
X193025733Y-37390342D02*
X192978114Y-37437961D01*
X192835257Y-37485580D01*
X192740019Y-37485580D01*
X192597161Y-37437961D01*
X192501923Y-37342723D01*
X192454304Y-37247485D01*
X192406685Y-37057009D01*
X192406685Y-36914152D01*
X192454304Y-36723676D01*
X192501923Y-36628438D01*
X192597161Y-36533200D01*
X192740019Y-36485580D01*
X192835257Y-36485580D01*
X192978114Y-36533200D01*
X193025733Y-36580819D01*
X193359066Y-36485580D02*
X193978114Y-36485580D01*
X193644780Y-36866533D01*
X193787638Y-36866533D01*
X193882876Y-36914152D01*
X193930495Y-36961771D01*
X193978114Y-37057009D01*
X193978114Y-37295104D01*
X193930495Y-37390342D01*
X193882876Y-37437961D01*
X193787638Y-37485580D01*
X193501923Y-37485580D01*
X193406685Y-37437961D01*
X193359066Y-37390342D01*
G04 #@! TO.C,C4*
X165441333Y-37441142D02*
X165393714Y-37488761D01*
X165250857Y-37536380D01*
X165155619Y-37536380D01*
X165012761Y-37488761D01*
X164917523Y-37393523D01*
X164869904Y-37298285D01*
X164822285Y-37107809D01*
X164822285Y-36964952D01*
X164869904Y-36774476D01*
X164917523Y-36679238D01*
X165012761Y-36584000D01*
X165155619Y-36536380D01*
X165250857Y-36536380D01*
X165393714Y-36584000D01*
X165441333Y-36631619D01*
X166298476Y-36869714D02*
X166298476Y-37536380D01*
X166060380Y-36488761D02*
X165822285Y-37203047D01*
X166441333Y-37203047D01*
G04 #@! TO.C,J2*
X158416666Y-65409380D02*
X158416666Y-66123666D01*
X158369047Y-66266523D01*
X158273809Y-66361761D01*
X158130952Y-66409380D01*
X158035714Y-66409380D01*
X158845238Y-65504619D02*
X158892857Y-65457000D01*
X158988095Y-65409380D01*
X159226190Y-65409380D01*
X159321428Y-65457000D01*
X159369047Y-65504619D01*
X159416666Y-65599857D01*
X159416666Y-65695095D01*
X159369047Y-65837952D01*
X158797619Y-66409380D01*
X159416666Y-66409380D01*
G04 #@! TO.C,J3*
X217412666Y-57329380D02*
X217412666Y-58043666D01*
X217365047Y-58186523D01*
X217269809Y-58281761D01*
X217126952Y-58329380D01*
X217031714Y-58329380D01*
X217793619Y-57329380D02*
X218412666Y-57329380D01*
X218079333Y-57710333D01*
X218222190Y-57710333D01*
X218317428Y-57757952D01*
X218365047Y-57805571D01*
X218412666Y-57900809D01*
X218412666Y-58138904D01*
X218365047Y-58234142D01*
X218317428Y-58281761D01*
X218222190Y-58329380D01*
X217936476Y-58329380D01*
X217841238Y-58281761D01*
X217793619Y-58234142D01*
G04 #@! TO.C,J4*
X182705416Y-65409380D02*
X182705416Y-66123666D01*
X182657797Y-66266523D01*
X182562559Y-66361761D01*
X182419702Y-66409380D01*
X182324464Y-66409380D01*
X183610178Y-65742714D02*
X183610178Y-66409380D01*
X183372083Y-65361761D02*
X183133988Y-66076047D01*
X183753035Y-66076047D01*
G04 #@! TO.C,J5*
X158075380Y-53673333D02*
X158789666Y-53673333D01*
X158932523Y-53720952D01*
X159027761Y-53816190D01*
X159075380Y-53959047D01*
X159075380Y-54054285D01*
X158075380Y-52720952D02*
X158075380Y-53197142D01*
X158551571Y-53244761D01*
X158503952Y-53197142D01*
X158456333Y-53101904D01*
X158456333Y-52863809D01*
X158503952Y-52768571D01*
X158551571Y-52720952D01*
X158646809Y-52673333D01*
X158884904Y-52673333D01*
X158980142Y-52720952D01*
X159027761Y-52768571D01*
X159075380Y-52863809D01*
X159075380Y-53101904D01*
X159027761Y-53197142D01*
X158980142Y-53244761D01*
G04 #@! TO.C,J6*
X174609166Y-65409380D02*
X174609166Y-66123666D01*
X174561547Y-66266523D01*
X174466309Y-66361761D01*
X174323452Y-66409380D01*
X174228214Y-66409380D01*
X175513928Y-65409380D02*
X175323452Y-65409380D01*
X175228214Y-65457000D01*
X175180595Y-65504619D01*
X175085357Y-65647476D01*
X175037738Y-65837952D01*
X175037738Y-66218904D01*
X175085357Y-66314142D01*
X175132976Y-66361761D01*
X175228214Y-66409380D01*
X175418690Y-66409380D01*
X175513928Y-66361761D01*
X175561547Y-66314142D01*
X175609166Y-66218904D01*
X175609166Y-65980809D01*
X175561547Y-65885571D01*
X175513928Y-65837952D01*
X175418690Y-65790333D01*
X175228214Y-65790333D01*
X175132976Y-65837952D01*
X175085357Y-65885571D01*
X175037738Y-65980809D01*
G04 #@! TO.C,J7*
X166584380Y-53800333D02*
X167298666Y-53800333D01*
X167441523Y-53847952D01*
X167536761Y-53943190D01*
X167584380Y-54086047D01*
X167584380Y-54181285D01*
X166584380Y-53419380D02*
X166584380Y-52752714D01*
X167584380Y-53181285D01*
G04 #@! TO.C,J8*
X166512916Y-65409380D02*
X166512916Y-66123666D01*
X166465297Y-66266523D01*
X166370059Y-66361761D01*
X166227202Y-66409380D01*
X166131964Y-66409380D01*
X167131964Y-65837952D02*
X167036726Y-65790333D01*
X166989107Y-65742714D01*
X166941488Y-65647476D01*
X166941488Y-65599857D01*
X166989107Y-65504619D01*
X167036726Y-65457000D01*
X167131964Y-65409380D01*
X167322440Y-65409380D01*
X167417678Y-65457000D01*
X167465297Y-65504619D01*
X167512916Y-65599857D01*
X167512916Y-65647476D01*
X167465297Y-65742714D01*
X167417678Y-65790333D01*
X167322440Y-65837952D01*
X167131964Y-65837952D01*
X167036726Y-65885571D01*
X166989107Y-65933190D01*
X166941488Y-66028428D01*
X166941488Y-66218904D01*
X166989107Y-66314142D01*
X167036726Y-66361761D01*
X167131964Y-66409380D01*
X167322440Y-66409380D01*
X167417678Y-66361761D01*
X167465297Y-66314142D01*
X167512916Y-66218904D01*
X167512916Y-66028428D01*
X167465297Y-65933190D01*
X167417678Y-65885571D01*
X167322440Y-65837952D01*
G04 #@! TO.C,J9*
X174712380Y-53546333D02*
X175426666Y-53546333D01*
X175569523Y-53593952D01*
X175664761Y-53689190D01*
X175712380Y-53832047D01*
X175712380Y-53927285D01*
X175712380Y-53022523D02*
X175712380Y-52832047D01*
X175664761Y-52736809D01*
X175617142Y-52689190D01*
X175474285Y-52593952D01*
X175283809Y-52546333D01*
X174902857Y-52546333D01*
X174807619Y-52593952D01*
X174760000Y-52641571D01*
X174712380Y-52736809D01*
X174712380Y-52927285D01*
X174760000Y-53022523D01*
X174807619Y-53070142D01*
X174902857Y-53117761D01*
X175140952Y-53117761D01*
X175236190Y-53070142D01*
X175283809Y-53022523D01*
X175331428Y-52927285D01*
X175331428Y-52736809D01*
X175283809Y-52641571D01*
X175236190Y-52593952D01*
X175140952Y-52546333D01*
G04 #@! TO.C,J10*
X191222380Y-54657523D02*
X191936666Y-54657523D01*
X192079523Y-54705142D01*
X192174761Y-54800380D01*
X192222380Y-54943238D01*
X192222380Y-55038476D01*
X192222380Y-53657523D02*
X192222380Y-54228952D01*
X192222380Y-53943238D02*
X191222380Y-53943238D01*
X191365238Y-54038476D01*
X191460476Y-54133714D01*
X191508095Y-54228952D01*
X191222380Y-53038476D02*
X191222380Y-52943238D01*
X191270000Y-52848000D01*
X191317619Y-52800380D01*
X191412857Y-52752761D01*
X191603333Y-52705142D01*
X191841428Y-52705142D01*
X192031904Y-52752761D01*
X192127142Y-52800380D01*
X192174761Y-52848000D01*
X192222380Y-52943238D01*
X192222380Y-53038476D01*
X192174761Y-53133714D01*
X192127142Y-53181333D01*
X192031904Y-53228952D01*
X191841428Y-53276571D01*
X191603333Y-53276571D01*
X191412857Y-53228952D01*
X191317619Y-53181333D01*
X191270000Y-53133714D01*
X191222380Y-53038476D01*
G04 #@! TO.C,J11*
X182713380Y-54530523D02*
X183427666Y-54530523D01*
X183570523Y-54578142D01*
X183665761Y-54673380D01*
X183713380Y-54816238D01*
X183713380Y-54911476D01*
X183713380Y-53530523D02*
X183713380Y-54101952D01*
X183713380Y-53816238D02*
X182713380Y-53816238D01*
X182856238Y-53911476D01*
X182951476Y-54006714D01*
X182999095Y-54101952D01*
X183713380Y-52578142D02*
X183713380Y-53149571D01*
X183713380Y-52863857D02*
X182713380Y-52863857D01*
X182856238Y-52959095D01*
X182951476Y-53054333D01*
X182999095Y-53149571D01*
G04 #@! TO.C,U1*
X212344095Y-42588380D02*
X212344095Y-43397904D01*
X212391714Y-43493142D01*
X212439333Y-43540761D01*
X212534571Y-43588380D01*
X212725047Y-43588380D01*
X212820285Y-43540761D01*
X212867904Y-43493142D01*
X212915523Y-43397904D01*
X212915523Y-42588380D01*
X213915523Y-43588380D02*
X213344095Y-43588380D01*
X213629809Y-43588380D02*
X213629809Y-42588380D01*
X213534571Y-42731238D01*
X213439333Y-42826476D01*
X213344095Y-42874095D01*
G04 #@! TD*
M02*
