G04 #@! TF.GenerationSoftware,KiCad,Pcbnew,(5.0.1)-rc2*
G04 #@! TF.CreationDate,2018-12-16T20:49:21-05:00*
G04 #@! TF.ProjectId,vco3,76636F332E6B696361645F7063620000,rev?*
G04 #@! TF.SameCoordinates,Original*
G04 #@! TF.FileFunction,Copper,L1,Top,Signal*
G04 #@! TF.FilePolarity,Positive*
%FSLAX46Y46*%
G04 Gerber Fmt 4.6, Leading zero omitted, Abs format (unit mm)*
G04 Created by KiCad (PCBNEW (5.0.1)-rc2) date 12/16/2018 8:49:21 PM*
%MOMM*%
%LPD*%
G01*
G04 APERTURE LIST*
G04 #@! TA.AperFunction,ComponentPad*
%ADD10C,1.600000*%
G04 #@! TD*
G04 #@! TA.AperFunction,ComponentPad*
%ADD11R,1.600000X1.600000*%
G04 #@! TD*
G04 #@! TA.AperFunction,ComponentPad*
%ADD12O,1.700000X1.950000*%
G04 #@! TD*
G04 #@! TA.AperFunction,Conductor*
%ADD13C,0.100000*%
G04 #@! TD*
G04 #@! TA.AperFunction,ComponentPad*
%ADD14C,1.700000*%
G04 #@! TD*
G04 #@! TA.AperFunction,ComponentPad*
%ADD15O,1.700000X1.700000*%
G04 #@! TD*
G04 #@! TA.AperFunction,ComponentPad*
%ADD16R,1.700000X1.700000*%
G04 #@! TD*
G04 #@! TA.AperFunction,ComponentPad*
%ADD17R,1.500000X1.500000*%
G04 #@! TD*
G04 #@! TA.AperFunction,ComponentPad*
%ADD18O,1.500000X1.500000*%
G04 #@! TD*
G04 #@! TA.AperFunction,ComponentPad*
%ADD19O,1.600000X1.600000*%
G04 #@! TD*
G04 #@! TA.AperFunction,ComponentPad*
%ADD20R,1.050000X1.500000*%
G04 #@! TD*
G04 #@! TA.AperFunction,ComponentPad*
%ADD21O,1.050000X1.500000*%
G04 #@! TD*
G04 #@! TA.AperFunction,ViaPad*
%ADD22C,0.800000*%
G04 #@! TD*
G04 #@! TA.AperFunction,Conductor*
%ADD23C,0.250000*%
G04 #@! TD*
G04 #@! TA.AperFunction,Conductor*
%ADD24C,0.254000*%
G04 #@! TD*
G04 APERTURE END LIST*
D10*
G04 #@! TO.P,C6,2*
G04 #@! TO.N,GND*
X164846000Y-32806000D03*
D11*
G04 #@! TO.P,C6,1*
G04 #@! TO.N,+9V*
X164846000Y-35306000D03*
G04 #@! TD*
G04 #@! TO.P,C7,1*
G04 #@! TO.N,GND*
X161290000Y-27686000D03*
D10*
G04 #@! TO.P,C7,2*
G04 #@! TO.N,-9V*
X163790000Y-27686000D03*
G04 #@! TD*
G04 #@! TO.P,C1,1*
G04 #@! TO.N,GND*
X123952000Y-40640000D03*
G04 #@! TO.P,C1,2*
G04 #@! TO.N,+9V*
X128952000Y-40640000D03*
G04 #@! TD*
G04 #@! TO.P,C2,2*
G04 #@! TO.N,-9V*
X144225000Y-40640000D03*
G04 #@! TO.P,C2,1*
G04 #@! TO.N,GND*
X149225000Y-40640000D03*
G04 #@! TD*
G04 #@! TO.P,C3,1*
G04 #@! TO.N,GND*
X170307000Y-57912000D03*
G04 #@! TO.P,C3,2*
G04 #@! TO.N,+9V*
X165307000Y-57912000D03*
G04 #@! TD*
G04 #@! TO.P,C4,2*
G04 #@! TO.N,-9V*
X170100000Y-41656000D03*
G04 #@! TO.P,C4,1*
G04 #@! TO.N,GND*
X165100000Y-41656000D03*
G04 #@! TD*
G04 #@! TO.P,C5,1*
G04 #@! TO.N,Net-(C5-Pad1)*
X129032000Y-48895000D03*
G04 #@! TO.P,C5,2*
G04 #@! TO.N,Net-(C5-Pad2)*
X129032000Y-43895000D03*
G04 #@! TD*
D12*
G04 #@! TO.P,J4,3*
G04 #@! TO.N,-9V*
X176196000Y-25908000D03*
G04 #@! TO.P,J4,2*
G04 #@! TO.N,GND*
X173696000Y-25908000D03*
D13*
G04 #@! TD*
G04 #@! TO.N,+9V*
G04 #@! TO.C,J4*
G36*
X171820504Y-24934204D02*
X171844773Y-24937804D01*
X171868571Y-24943765D01*
X171891671Y-24952030D01*
X171913849Y-24962520D01*
X171934893Y-24975133D01*
X171954598Y-24989747D01*
X171972777Y-25006223D01*
X171989253Y-25024402D01*
X172003867Y-25044107D01*
X172016480Y-25065151D01*
X172026970Y-25087329D01*
X172035235Y-25110429D01*
X172041196Y-25134227D01*
X172044796Y-25158496D01*
X172046000Y-25183000D01*
X172046000Y-26633000D01*
X172044796Y-26657504D01*
X172041196Y-26681773D01*
X172035235Y-26705571D01*
X172026970Y-26728671D01*
X172016480Y-26750849D01*
X172003867Y-26771893D01*
X171989253Y-26791598D01*
X171972777Y-26809777D01*
X171954598Y-26826253D01*
X171934893Y-26840867D01*
X171913849Y-26853480D01*
X171891671Y-26863970D01*
X171868571Y-26872235D01*
X171844773Y-26878196D01*
X171820504Y-26881796D01*
X171796000Y-26883000D01*
X170596000Y-26883000D01*
X170571496Y-26881796D01*
X170547227Y-26878196D01*
X170523429Y-26872235D01*
X170500329Y-26863970D01*
X170478151Y-26853480D01*
X170457107Y-26840867D01*
X170437402Y-26826253D01*
X170419223Y-26809777D01*
X170402747Y-26791598D01*
X170388133Y-26771893D01*
X170375520Y-26750849D01*
X170365030Y-26728671D01*
X170356765Y-26705571D01*
X170350804Y-26681773D01*
X170347204Y-26657504D01*
X170346000Y-26633000D01*
X170346000Y-25183000D01*
X170347204Y-25158496D01*
X170350804Y-25134227D01*
X170356765Y-25110429D01*
X170365030Y-25087329D01*
X170375520Y-25065151D01*
X170388133Y-25044107D01*
X170402747Y-25024402D01*
X170419223Y-25006223D01*
X170437402Y-24989747D01*
X170457107Y-24975133D01*
X170478151Y-24962520D01*
X170500329Y-24952030D01*
X170523429Y-24943765D01*
X170547227Y-24937804D01*
X170571496Y-24934204D01*
X170596000Y-24933000D01*
X171796000Y-24933000D01*
X171820504Y-24934204D01*
X171820504Y-24934204D01*
G37*
D14*
G04 #@! TO.P,J4,1*
G04 #@! TO.N,+9V*
X171196000Y-25908000D03*
G04 #@! TD*
D13*
G04 #@! TO.N,+9V*
G04 #@! TO.C,J3*
G36*
X171820504Y-33570204D02*
X171844773Y-33573804D01*
X171868571Y-33579765D01*
X171891671Y-33588030D01*
X171913849Y-33598520D01*
X171934893Y-33611133D01*
X171954598Y-33625747D01*
X171972777Y-33642223D01*
X171989253Y-33660402D01*
X172003867Y-33680107D01*
X172016480Y-33701151D01*
X172026970Y-33723329D01*
X172035235Y-33746429D01*
X172041196Y-33770227D01*
X172044796Y-33794496D01*
X172046000Y-33819000D01*
X172046000Y-35269000D01*
X172044796Y-35293504D01*
X172041196Y-35317773D01*
X172035235Y-35341571D01*
X172026970Y-35364671D01*
X172016480Y-35386849D01*
X172003867Y-35407893D01*
X171989253Y-35427598D01*
X171972777Y-35445777D01*
X171954598Y-35462253D01*
X171934893Y-35476867D01*
X171913849Y-35489480D01*
X171891671Y-35499970D01*
X171868571Y-35508235D01*
X171844773Y-35514196D01*
X171820504Y-35517796D01*
X171796000Y-35519000D01*
X170596000Y-35519000D01*
X170571496Y-35517796D01*
X170547227Y-35514196D01*
X170523429Y-35508235D01*
X170500329Y-35499970D01*
X170478151Y-35489480D01*
X170457107Y-35476867D01*
X170437402Y-35462253D01*
X170419223Y-35445777D01*
X170402747Y-35427598D01*
X170388133Y-35407893D01*
X170375520Y-35386849D01*
X170365030Y-35364671D01*
X170356765Y-35341571D01*
X170350804Y-35317773D01*
X170347204Y-35293504D01*
X170346000Y-35269000D01*
X170346000Y-33819000D01*
X170347204Y-33794496D01*
X170350804Y-33770227D01*
X170356765Y-33746429D01*
X170365030Y-33723329D01*
X170375520Y-33701151D01*
X170388133Y-33680107D01*
X170402747Y-33660402D01*
X170419223Y-33642223D01*
X170437402Y-33625747D01*
X170457107Y-33611133D01*
X170478151Y-33598520D01*
X170500329Y-33588030D01*
X170523429Y-33579765D01*
X170547227Y-33573804D01*
X170571496Y-33570204D01*
X170596000Y-33569000D01*
X171796000Y-33569000D01*
X171820504Y-33570204D01*
X171820504Y-33570204D01*
G37*
D14*
G04 #@! TD*
G04 #@! TO.P,J3,1*
G04 #@! TO.N,+9V*
X171196000Y-34544000D03*
D12*
G04 #@! TO.P,J3,2*
G04 #@! TO.N,GND*
X173696000Y-34544000D03*
G04 #@! TO.P,J3,3*
G04 #@! TO.N,-9V*
X176196000Y-34544000D03*
G04 #@! TD*
D15*
G04 #@! TO.P,J1,2*
G04 #@! TO.N,GND*
X115062000Y-40894000D03*
D16*
G04 #@! TO.P,J1,1*
G04 #@! TO.N,CV_In*
X115062000Y-38354000D03*
G04 #@! TD*
G04 #@! TO.P,J5,1*
G04 #@! TO.N,GND*
X170307000Y-63119000D03*
D15*
G04 #@! TO.P,J5,2*
G04 #@! TO.N,MixOut*
X172847000Y-63119000D03*
G04 #@! TD*
G04 #@! TO.P,J6,2*
G04 #@! TO.N,SawOut*
X154940000Y-32258000D03*
D16*
G04 #@! TO.P,J6,1*
G04 #@! TO.N,GND*
X157480000Y-32258000D03*
G04 #@! TD*
G04 #@! TO.P,J7,1*
G04 #@! TO.N,GND*
X114935000Y-59563000D03*
D15*
G04 #@! TO.P,J7,2*
G04 #@! TO.N,TuneOut*
X114935000Y-57023000D03*
G04 #@! TD*
G04 #@! TO.P,RV1,3*
G04 #@! TO.N,Net-(RV1-Pad3)*
X153797000Y-27305000D03*
G04 #@! TO.P,RV1,2*
G04 #@! TO.N,Net-(R10-Pad1)*
X151257000Y-27305000D03*
D16*
G04 #@! TO.P,RV1,1*
G04 #@! TO.N,SawOut*
X148717000Y-27305000D03*
G04 #@! TD*
G04 #@! TO.P,RV2,1*
G04 #@! TO.N,Net-(RV2-Pad1)*
X155702000Y-56642000D03*
D15*
G04 #@! TO.P,RV2,2*
G04 #@! TO.N,Net-(R9-Pad2)*
X155702000Y-59182000D03*
G04 #@! TO.P,RV2,3*
G04 #@! TO.N,SubTriOut*
X155702000Y-61722000D03*
G04 #@! TD*
D16*
G04 #@! TO.P,J2,1*
G04 #@! TO.N,CV_In*
X106553000Y-33274000D03*
D15*
G04 #@! TO.P,J2,2*
G04 #@! TO.N,MixOut*
X106553000Y-35814000D03*
G04 #@! TO.P,J2,3*
G04 #@! TO.N,SubTriOut*
X106553000Y-38354000D03*
G04 #@! TO.P,J2,4*
G04 #@! TO.N,SawOut*
X106553000Y-40894000D03*
G04 #@! TO.P,J2,5*
G04 #@! TO.N,TuneOut*
X106553000Y-43434000D03*
G04 #@! TO.P,J2,6*
G04 #@! TO.N,+9V*
X106553000Y-45974000D03*
G04 #@! TO.P,J2,7*
G04 #@! TO.N,GND*
X106553000Y-48514000D03*
G04 #@! TO.P,J2,8*
G04 #@! TO.N,-9V*
X106553000Y-51054000D03*
G04 #@! TD*
D17*
G04 #@! TO.P,D3,1*
G04 #@! TO.N,Net-(D3-Pad1)*
X131064000Y-62484000D03*
D18*
G04 #@! TO.P,D3,2*
G04 #@! TO.N,Net-(D3-Pad2)*
X138684000Y-62484000D03*
G04 #@! TD*
G04 #@! TO.P,D2,2*
G04 #@! TO.N,GND*
X140208000Y-58674000D03*
D17*
G04 #@! TO.P,D2,1*
G04 #@! TO.N,Net-(D1-Pad2)*
X140208000Y-51054000D03*
G04 #@! TD*
G04 #@! TO.P,D1,1*
G04 #@! TO.N,GND*
X150241000Y-58674000D03*
D18*
G04 #@! TO.P,D1,2*
G04 #@! TO.N,Net-(D1-Pad2)*
X142621000Y-58674000D03*
G04 #@! TD*
D11*
G04 #@! TO.P,D4,1*
G04 #@! TO.N,+9V*
X160147000Y-53340000D03*
D19*
G04 #@! TO.P,D4,2*
G04 #@! TO.N,-9V*
X160147000Y-43180000D03*
G04 #@! TD*
D11*
G04 #@! TO.P,U1,1*
G04 #@! TO.N,Net-(R2-Pad1)*
X132715000Y-33020000D03*
D19*
G04 #@! TO.P,U1,8*
G04 #@! TO.N,Net-(R14-Pad2)*
X140335000Y-48260000D03*
G04 #@! TO.P,U1,2*
G04 #@! TO.N,Net-(R1-Pad1)*
X132715000Y-35560000D03*
G04 #@! TO.P,U1,9*
G04 #@! TO.N,Net-(C5-Pad1)*
X140335000Y-45720000D03*
G04 #@! TO.P,U1,3*
G04 #@! TO.N,GND*
X132715000Y-38100000D03*
G04 #@! TO.P,U1,10*
G04 #@! TO.N,Net-(D1-Pad2)*
X140335000Y-43180000D03*
G04 #@! TO.P,U1,4*
G04 #@! TO.N,+9V*
X132715000Y-40640000D03*
G04 #@! TO.P,U1,11*
G04 #@! TO.N,-9V*
X140335000Y-40640000D03*
G04 #@! TO.P,U1,5*
G04 #@! TO.N,Net-(R4-Pad1)*
X132715000Y-43180000D03*
G04 #@! TO.P,U1,12*
G04 #@! TO.N,Net-(Q2-Pad1)*
X140335000Y-38100000D03*
G04 #@! TO.P,U1,6*
G04 #@! TO.N,Net-(C5-Pad2)*
X132715000Y-45720000D03*
G04 #@! TO.P,U1,13*
G04 #@! TO.N,Net-(R17-Pad2)*
X140335000Y-35560000D03*
G04 #@! TO.P,U1,7*
G04 #@! TO.N,Net-(C5-Pad1)*
X132715000Y-48260000D03*
G04 #@! TO.P,U1,14*
G04 #@! TO.N,Net-(R19-Pad2)*
X140335000Y-33020000D03*
G04 #@! TD*
D11*
G04 #@! TO.P,U2,1*
G04 #@! TO.N,Net-(R12-Pad2)*
X171450000Y-53213000D03*
D19*
G04 #@! TO.P,U2,5*
G04 #@! TO.N,GND*
X163830000Y-45593000D03*
G04 #@! TO.P,U2,2*
G04 #@! TO.N,Net-(R10-Pad2)*
X171450000Y-50673000D03*
G04 #@! TO.P,U2,6*
G04 #@! TO.N,SawOut*
X163830000Y-48133000D03*
G04 #@! TO.P,U2,3*
G04 #@! TO.N,GND*
X171450000Y-48133000D03*
G04 #@! TO.P,U2,7*
G04 #@! TO.N,Net-(D3-Pad2)*
X163830000Y-50673000D03*
G04 #@! TO.P,U2,4*
G04 #@! TO.N,-9V*
X171450000Y-45593000D03*
G04 #@! TO.P,U2,8*
G04 #@! TO.N,+9V*
X163830000Y-53213000D03*
G04 #@! TD*
D20*
G04 #@! TO.P,Q2,1*
G04 #@! TO.N,Net-(Q2-Pad1)*
X137668000Y-23749000D03*
D21*
G04 #@! TO.P,Q2,3*
G04 #@! TO.N,GND*
X135128000Y-23749000D03*
G04 #@! TO.P,Q2,2*
G04 #@! TO.N,Net-(Q2-Pad2)*
X136398000Y-23749000D03*
G04 #@! TD*
G04 #@! TO.P,Q1,2*
G04 #@! TO.N,Net-(Q1-Pad2)*
X127000000Y-55245000D03*
G04 #@! TO.P,Q1,3*
G04 #@! TO.N,GND*
X128270000Y-55245000D03*
D20*
G04 #@! TO.P,Q1,1*
G04 #@! TO.N,Net-(Q1-Pad1)*
X125730000Y-55245000D03*
G04 #@! TD*
D19*
G04 #@! TO.P,R11,2*
G04 #@! TO.N,Net-(C5-Pad1)*
X122047000Y-52451000D03*
D10*
G04 #@! TO.P,R11,1*
G04 #@! TO.N,SubTriOut*
X122047000Y-57531000D03*
G04 #@! TD*
G04 #@! TO.P,R22,1*
G04 #@! TO.N,TuneOut*
X114935000Y-45974000D03*
D19*
G04 #@! TO.P,R22,2*
G04 #@! TO.N,Net-(D3-Pad1)*
X114935000Y-51054000D03*
G04 #@! TD*
G04 #@! TO.P,R21,2*
G04 #@! TO.N,Net-(R12-Pad2)*
X174879000Y-59182000D03*
D10*
G04 #@! TO.P,R21,1*
G04 #@! TO.N,MixOut*
X179959000Y-59182000D03*
G04 #@! TD*
G04 #@! TO.P,R20,1*
G04 #@! TO.N,SawOut*
X148971000Y-33020000D03*
D19*
G04 #@! TO.P,R20,2*
G04 #@! TO.N,Net-(R19-Pad2)*
X143891000Y-33020000D03*
G04 #@! TD*
G04 #@! TO.P,R19,2*
G04 #@! TO.N,Net-(R19-Pad2)*
X144018000Y-28956000D03*
D10*
G04 #@! TO.P,R19,1*
G04 #@! TO.N,Net-(R17-Pad2)*
X138938000Y-28956000D03*
G04 #@! TD*
G04 #@! TO.P,R18,1*
G04 #@! TO.N,Net-(C5-Pad1)*
X132461000Y-52451000D03*
D19*
G04 #@! TO.P,R18,2*
G04 #@! TO.N,Net-(Q2-Pad1)*
X137541000Y-52451000D03*
G04 #@! TD*
G04 #@! TO.P,R17,2*
G04 #@! TO.N,Net-(R17-Pad2)*
X152908000Y-36830000D03*
D10*
G04 #@! TO.P,R17,1*
G04 #@! TO.N,Net-(C5-Pad1)*
X152908000Y-41910000D03*
G04 #@! TD*
G04 #@! TO.P,R16,1*
G04 #@! TO.N,SubSqrOut*
X148971000Y-48260000D03*
D19*
G04 #@! TO.P,R16,2*
G04 #@! TO.N,Net-(R14-Pad2)*
X143891000Y-48260000D03*
G04 #@! TD*
G04 #@! TO.P,R15,2*
G04 #@! TO.N,Net-(R14-Pad2)*
X134112000Y-28702000D03*
D10*
G04 #@! TO.P,R15,1*
G04 #@! TO.N,Net-(Q2-Pad2)*
X129032000Y-28702000D03*
G04 #@! TD*
G04 #@! TO.P,R14,1*
G04 #@! TO.N,GND*
X148971000Y-52070000D03*
D19*
G04 #@! TO.P,R14,2*
G04 #@! TO.N,Net-(R14-Pad2)*
X143891000Y-52070000D03*
G04 #@! TD*
G04 #@! TO.P,R10,2*
G04 #@! TO.N,Net-(R10-Pad2)*
X161544000Y-38862000D03*
D10*
G04 #@! TO.P,R10,1*
G04 #@! TO.N,Net-(R10-Pad1)*
X156464000Y-38862000D03*
G04 #@! TD*
G04 #@! TO.P,R9,1*
G04 #@! TO.N,Net-(R10-Pad2)*
X176911000Y-50419000D03*
D19*
G04 #@! TO.P,R9,2*
G04 #@! TO.N,Net-(R9-Pad2)*
X176911000Y-45339000D03*
G04 #@! TD*
G04 #@! TO.P,R8,2*
G04 #@! TO.N,Net-(Q1-Pad2)*
X132334000Y-56134000D03*
D10*
G04 #@! TO.P,R8,1*
G04 #@! TO.N,Net-(R14-Pad2)*
X137414000Y-56134000D03*
G04 #@! TD*
G04 #@! TO.P,R7,1*
G04 #@! TO.N,Net-(C5-Pad2)*
X125349000Y-44450000D03*
D19*
G04 #@! TO.P,R7,2*
G04 #@! TO.N,Net-(Q1-Pad1)*
X125349000Y-49530000D03*
G04 #@! TD*
G04 #@! TO.P,R6,2*
G04 #@! TO.N,Net-(R4-Pad1)*
X120650000Y-43815000D03*
D10*
G04 #@! TO.P,R6,1*
G04 #@! TO.N,GND*
X120650000Y-48895000D03*
G04 #@! TD*
G04 #@! TO.P,R1,1*
G04 #@! TO.N,Net-(R1-Pad1)*
X128905000Y-36449000D03*
D19*
G04 #@! TO.P,R1,2*
G04 #@! TO.N,CV_In*
X123825000Y-36449000D03*
G04 #@! TD*
G04 #@! TO.P,R2,2*
G04 #@! TO.N,Net-(R1-Pad1)*
X126111000Y-29591000D03*
D10*
G04 #@! TO.P,R2,1*
G04 #@! TO.N,Net-(R2-Pad1)*
X121031000Y-29591000D03*
G04 #@! TD*
G04 #@! TO.P,R3,1*
G04 #@! TO.N,Net-(Q1-Pad1)*
X124333000Y-33020000D03*
D19*
G04 #@! TO.P,R3,2*
G04 #@! TO.N,Net-(R2-Pad1)*
X129413000Y-33020000D03*
G04 #@! TD*
G04 #@! TO.P,R4,2*
G04 #@! TO.N,Net-(R2-Pad1)*
X120650000Y-35560000D03*
D10*
G04 #@! TO.P,R4,1*
G04 #@! TO.N,Net-(R4-Pad1)*
X120650000Y-40640000D03*
G04 #@! TD*
G04 #@! TO.P,R5,1*
G04 #@! TO.N,GND*
X148971000Y-44323000D03*
D19*
G04 #@! TO.P,R5,2*
G04 #@! TO.N,Net-(R4-Pad1)*
X143891000Y-44323000D03*
G04 #@! TD*
G04 #@! TO.P,R12,2*
G04 #@! TO.N,Net-(R12-Pad2)*
X174879000Y-54356000D03*
D10*
G04 #@! TO.P,R12,1*
G04 #@! TO.N,Net-(R10-Pad2)*
X179959000Y-54356000D03*
G04 #@! TD*
G04 #@! TO.P,R13,1*
G04 #@! TO.N,SawOut*
X155829000Y-45720000D03*
D19*
G04 #@! TO.P,R13,2*
G04 #@! TO.N,Net-(D3-Pad2)*
X155829000Y-50800000D03*
G04 #@! TD*
D22*
G04 #@! TO.N,SawOut*
X111125000Y-27305000D03*
G04 #@! TO.N,Net-(R14-Pad2)*
X135509000Y-50419000D03*
G04 #@! TD*
D23*
G04 #@! TO.N,GND*
X170307000Y-57912000D02*
X170307000Y-63119000D01*
G04 #@! TO.N,+9V*
X130083370Y-40640000D02*
X132715000Y-40640000D01*
X128952000Y-40640000D02*
X130083370Y-40640000D01*
X163830000Y-56435000D02*
X165307000Y-57912000D01*
X163830000Y-53213000D02*
X163830000Y-56435000D01*
G04 #@! TO.N,-9V*
X141466370Y-40640000D02*
X144225000Y-40640000D01*
X140335000Y-40640000D02*
X141466370Y-40640000D01*
G04 #@! TO.N,Net-(C5-Pad1)*
X132080000Y-48895000D02*
X132715000Y-48260000D01*
X129032000Y-48895000D02*
X132080000Y-48895000D01*
X137795000Y-48260000D02*
X140335000Y-45720000D01*
X132715000Y-48260000D02*
X137795000Y-48260000D01*
X151776630Y-41910000D02*
X152908000Y-41910000D01*
X149620002Y-41910000D02*
X151776630Y-41910000D01*
X145810002Y-45720000D02*
X149620002Y-41910000D01*
X140335000Y-45720000D02*
X145810002Y-45720000D01*
X128232001Y-48095001D02*
X129032000Y-48895000D01*
X125118997Y-48095001D02*
X128232001Y-48095001D01*
X122047000Y-51166998D02*
X125118997Y-48095001D01*
X122047000Y-52451000D02*
X122047000Y-51166998D01*
X132461000Y-48514000D02*
X132715000Y-48260000D01*
X132461000Y-52451000D02*
X132461000Y-48514000D01*
G04 #@! TO.N,Net-(C5-Pad2)*
X130890000Y-43895000D02*
X129032000Y-43895000D01*
X132715000Y-45720000D02*
X130890000Y-43895000D01*
X125904000Y-43895000D02*
X125349000Y-44450000D01*
X129032000Y-43895000D02*
X125904000Y-43895000D01*
G04 #@! TO.N,Net-(D1-Pad2)*
X140208000Y-56261000D02*
X142621000Y-58674000D01*
X140208000Y-51054000D02*
X140208000Y-56261000D01*
G04 #@! TO.N,Net-(D3-Pad2)*
X163703000Y-50800000D02*
X163830000Y-50673000D01*
X155829000Y-50800000D02*
X163703000Y-50800000D01*
G04 #@! TO.N,TuneOut*
X109093000Y-45974000D02*
X106553000Y-43434000D01*
X114935000Y-45974000D02*
X109093000Y-45974000D01*
X114085001Y-56173001D02*
X114935000Y-57023000D01*
X113809999Y-55897999D02*
X114085001Y-56173001D01*
X113809999Y-47099001D02*
X113809999Y-55897999D01*
X114935000Y-45974000D02*
X113809999Y-47099001D01*
G04 #@! TO.N,CV_In*
X121920000Y-38354000D02*
X115062000Y-38354000D01*
X123825000Y-36449000D02*
X121920000Y-38354000D01*
X111633000Y-38354000D02*
X106553000Y-33274000D01*
X115062000Y-38354000D02*
X111633000Y-38354000D01*
G04 #@! TO.N,SubTriOut*
X154499919Y-61722000D02*
X155702000Y-61722000D01*
X139513002Y-61722000D02*
X154499919Y-61722000D01*
X135322002Y-57531000D02*
X139513002Y-61722000D01*
X122047000Y-57531000D02*
X135322002Y-57531000D01*
X107755081Y-38354000D02*
X106553000Y-38354000D01*
X108980002Y-38354000D02*
X107755081Y-38354000D01*
X116060001Y-45433999D02*
X108980002Y-38354000D01*
X116060001Y-50412631D02*
X116060001Y-45433999D01*
X122047000Y-56399630D02*
X116060001Y-50412631D01*
X122047000Y-57531000D02*
X122047000Y-56399630D01*
G04 #@! TO.N,SawOut*
X158242000Y-48133000D02*
X163830000Y-48133000D01*
X155829000Y-45720000D02*
X158242000Y-48133000D01*
X150102370Y-33020000D02*
X148971000Y-33020000D01*
X150763002Y-33020000D02*
X150102370Y-33020000D01*
X154686000Y-36942998D02*
X150763002Y-33020000D01*
X154686000Y-44577000D02*
X154686000Y-36942998D01*
X155829000Y-45720000D02*
X154686000Y-44577000D01*
X148971000Y-27559000D02*
X148717000Y-27305000D01*
X148971000Y-33020000D02*
X148971000Y-27559000D01*
X154178000Y-33020000D02*
X154940000Y-32258000D01*
X148971000Y-33020000D02*
X154178000Y-33020000D01*
X148717000Y-27305000D02*
X111125000Y-27305000D01*
X111125000Y-27305000D02*
X111125000Y-27305000D01*
G04 #@! TO.N,Net-(Q1-Pad1)*
X125730000Y-49911000D02*
X125349000Y-49530000D01*
X125730000Y-55245000D02*
X125730000Y-49911000D01*
G04 #@! TO.N,Net-(Q1-Pad2)*
X131534001Y-56933999D02*
X132334000Y-56134000D01*
X127688999Y-56933999D02*
X131534001Y-56933999D01*
X127000000Y-56245000D02*
X127688999Y-56933999D01*
X127000000Y-55245000D02*
X127000000Y-56245000D01*
G04 #@! TO.N,Net-(R1-Pad1)*
X129794000Y-35560000D02*
X128905000Y-36449000D01*
X132715000Y-35560000D02*
X129794000Y-35560000D01*
G04 #@! TO.N,Net-(R2-Pad1)*
X130544370Y-33020000D02*
X132715000Y-33020000D01*
X129413000Y-33020000D02*
X130544370Y-33020000D01*
X128613001Y-32220001D02*
X129413000Y-33020000D01*
X128287999Y-31894999D02*
X128613001Y-32220001D01*
X123792999Y-31894999D02*
X128287999Y-31894999D01*
X121449999Y-34237999D02*
X123792999Y-31894999D01*
X121449999Y-34760001D02*
X121449999Y-34237999D01*
X120650000Y-35560000D02*
X121449999Y-34760001D01*
G04 #@! TO.N,Net-(R4-Pad1)*
X131915001Y-42380001D02*
X132715000Y-43180000D01*
X131300001Y-41765001D02*
X131915001Y-42380001D01*
X121775001Y-41765001D02*
X131300001Y-41765001D01*
X120650000Y-40640000D02*
X121775001Y-41765001D01*
X142759630Y-44323000D02*
X143891000Y-44323000D01*
X134989370Y-44323000D02*
X142759630Y-44323000D01*
X133846370Y-43180000D02*
X134989370Y-44323000D01*
X132715000Y-43180000D02*
X133846370Y-43180000D01*
G04 #@! TO.N,Net-(R14-Pad2)*
X141466370Y-48260000D02*
X143891000Y-48260000D01*
X140335000Y-48260000D02*
X141466370Y-48260000D01*
X135491001Y-54211001D02*
X137414000Y-56134000D01*
X135509000Y-54193002D02*
X135509000Y-50419000D01*
X135491001Y-54211001D02*
X135509000Y-54193002D01*
X138176000Y-50419000D02*
X140335000Y-48260000D01*
X135509000Y-50419000D02*
X138176000Y-50419000D01*
G04 #@! TO.N,Net-(R10-Pad2)*
X171704000Y-50419000D02*
X171450000Y-50673000D01*
X176911000Y-50419000D02*
X171704000Y-50419000D01*
X176911000Y-51308000D02*
X176911000Y-50419000D01*
X179959000Y-54356000D02*
X176911000Y-51308000D01*
X170650001Y-49873001D02*
X171450000Y-50673000D01*
X170324999Y-49547999D02*
X170650001Y-49873001D01*
X170324999Y-45215997D02*
X170324999Y-49547999D01*
X164771001Y-39661999D02*
X170324999Y-45215997D01*
X162343999Y-39661999D02*
X164771001Y-39661999D01*
X161544000Y-38862000D02*
X162343999Y-39661999D01*
G04 #@! TO.N,MixOut*
X176784000Y-59182000D02*
X179959000Y-59182000D01*
X172847000Y-63119000D02*
X176784000Y-59182000D01*
X105703001Y-36663999D02*
X106553000Y-35814000D01*
X105377999Y-36989001D02*
X105703001Y-36663999D01*
X105377999Y-53180999D02*
X105377999Y-36989001D01*
X116491001Y-64294001D02*
X105377999Y-53180999D01*
X171671999Y-64294001D02*
X116491001Y-64294001D01*
X172847000Y-63119000D02*
X171671999Y-64294001D01*
G04 #@! TO.N,Net-(R17-Pad2)*
X141605000Y-36830000D02*
X152908000Y-36830000D01*
X140335000Y-35560000D02*
X141605000Y-36830000D01*
X138938000Y-34163000D02*
X140335000Y-35560000D01*
X138938000Y-28956000D02*
X138938000Y-34163000D01*
G04 #@! TO.N,Net-(R19-Pad2)*
X140335000Y-33020000D02*
X143891000Y-33020000D01*
X143891000Y-29083000D02*
X144018000Y-28956000D01*
X143891000Y-33020000D02*
X143891000Y-29083000D01*
G04 #@! TO.N,Net-(R12-Pad2)*
X173736000Y-53213000D02*
X174879000Y-54356000D01*
X171450000Y-53213000D02*
X173736000Y-53213000D01*
X174879000Y-58050630D02*
X174879000Y-54356000D01*
X174879000Y-59182000D02*
X174879000Y-58050630D01*
G04 #@! TO.N,Net-(D3-Pad1)*
X114935000Y-52185370D02*
X114935000Y-51054000D01*
X125233630Y-62484000D02*
X114935000Y-52185370D01*
X131064000Y-62484000D02*
X125233630Y-62484000D01*
G04 #@! TD*
D24*
G04 #@! TO.N,+9V*
G36*
X182018000Y-25312807D02*
X182018001Y-65025145D01*
X171724440Y-65058458D01*
X171746846Y-65054001D01*
X171746851Y-65054001D01*
X171968536Y-65009905D01*
X172219928Y-64841930D01*
X172262330Y-64778471D01*
X172480592Y-64560209D01*
X172700744Y-64604000D01*
X172993256Y-64604000D01*
X173426418Y-64517839D01*
X173917625Y-64189625D01*
X174245839Y-63698418D01*
X174361092Y-63119000D01*
X174288209Y-62752592D01*
X177098802Y-59942000D01*
X178720570Y-59942000D01*
X178742466Y-59994862D01*
X179146138Y-60398534D01*
X179673561Y-60617000D01*
X180244439Y-60617000D01*
X180771862Y-60398534D01*
X181175534Y-59994862D01*
X181394000Y-59467439D01*
X181394000Y-58896561D01*
X181175534Y-58369138D01*
X180771862Y-57965466D01*
X180244439Y-57747000D01*
X179673561Y-57747000D01*
X179146138Y-57965466D01*
X178742466Y-58369138D01*
X178720570Y-58422000D01*
X176858848Y-58422000D01*
X176784000Y-58407112D01*
X176709152Y-58422000D01*
X176709148Y-58422000D01*
X176535605Y-58456520D01*
X176487462Y-58466096D01*
X176424749Y-58508000D01*
X176236071Y-58634071D01*
X176233799Y-58637471D01*
X176230740Y-58622091D01*
X175913577Y-58147423D01*
X175639000Y-57963957D01*
X175639000Y-55574043D01*
X175913577Y-55390577D01*
X176230740Y-54915909D01*
X176342113Y-54356000D01*
X176230740Y-53796091D01*
X175913577Y-53321423D01*
X175438909Y-53004260D01*
X175020333Y-52921000D01*
X174737667Y-52921000D01*
X174555113Y-52957312D01*
X174326331Y-52728530D01*
X174283929Y-52665071D01*
X174032537Y-52497096D01*
X173810852Y-52453000D01*
X173810847Y-52453000D01*
X173736000Y-52438112D01*
X173661153Y-52453000D01*
X172897440Y-52453000D01*
X172897440Y-52413000D01*
X172848157Y-52165235D01*
X172707809Y-51955191D01*
X172497765Y-51814843D01*
X172363894Y-51788215D01*
X172484577Y-51707577D01*
X172801740Y-51232909D01*
X172812463Y-51179000D01*
X175672570Y-51179000D01*
X175694466Y-51231862D01*
X176098138Y-51635534D01*
X176260838Y-51702927D01*
X176363071Y-51855929D01*
X176426530Y-51898331D01*
X178545897Y-54017698D01*
X178524000Y-54070561D01*
X178524000Y-54641439D01*
X178742466Y-55168862D01*
X179146138Y-55572534D01*
X179673561Y-55791000D01*
X180244439Y-55791000D01*
X180771862Y-55572534D01*
X181175534Y-55168862D01*
X181394000Y-54641439D01*
X181394000Y-54070561D01*
X181175534Y-53543138D01*
X180771862Y-53139466D01*
X180244439Y-52921000D01*
X179673561Y-52921000D01*
X179620698Y-52942897D01*
X178018599Y-51340797D01*
X178127534Y-51231862D01*
X178346000Y-50704439D01*
X178346000Y-50133561D01*
X178127534Y-49606138D01*
X177723862Y-49202466D01*
X177196439Y-48984000D01*
X176625561Y-48984000D01*
X176098138Y-49202466D01*
X175694466Y-49606138D01*
X175672570Y-49659000D01*
X172498326Y-49659000D01*
X172484577Y-49638423D01*
X172132242Y-49403000D01*
X172484577Y-49167577D01*
X172801740Y-48692909D01*
X172913113Y-48133000D01*
X172801740Y-47573091D01*
X172484577Y-47098423D01*
X172132242Y-46863000D01*
X172484577Y-46627577D01*
X172801740Y-46152909D01*
X172913113Y-45593000D01*
X172862590Y-45339000D01*
X175447887Y-45339000D01*
X175559260Y-45898909D01*
X175876423Y-46373577D01*
X176351091Y-46690740D01*
X176769667Y-46774000D01*
X177052333Y-46774000D01*
X177470909Y-46690740D01*
X177945577Y-46373577D01*
X178262740Y-45898909D01*
X178374113Y-45339000D01*
X178262740Y-44779091D01*
X177945577Y-44304423D01*
X177470909Y-43987260D01*
X177052333Y-43904000D01*
X176769667Y-43904000D01*
X176351091Y-43987260D01*
X175876423Y-44304423D01*
X175559260Y-44779091D01*
X175447887Y-45339000D01*
X172862590Y-45339000D01*
X172801740Y-45033091D01*
X172484577Y-44558423D01*
X172009909Y-44241260D01*
X171591333Y-44158000D01*
X171308667Y-44158000D01*
X170890091Y-44241260D01*
X170611328Y-44427523D01*
X167554365Y-41370561D01*
X168665000Y-41370561D01*
X168665000Y-41941439D01*
X168883466Y-42468862D01*
X169287138Y-42872534D01*
X169814561Y-43091000D01*
X170385439Y-43091000D01*
X170912862Y-42872534D01*
X171316534Y-42468862D01*
X171535000Y-41941439D01*
X171535000Y-41370561D01*
X171316534Y-40843138D01*
X170912862Y-40439466D01*
X170385439Y-40221000D01*
X169814561Y-40221000D01*
X169287138Y-40439466D01*
X168883466Y-40843138D01*
X168665000Y-41370561D01*
X167554365Y-41370561D01*
X165361332Y-39177529D01*
X165318930Y-39114070D01*
X165067538Y-38946095D01*
X164845853Y-38901999D01*
X164845848Y-38901999D01*
X164771001Y-38887111D01*
X164696154Y-38901999D01*
X162999157Y-38901999D01*
X163007113Y-38862000D01*
X162895740Y-38302091D01*
X162578577Y-37827423D01*
X162103909Y-37510260D01*
X161685333Y-37427000D01*
X161402667Y-37427000D01*
X160984091Y-37510260D01*
X160509423Y-37827423D01*
X160192260Y-38302091D01*
X160080887Y-38862000D01*
X160192260Y-39421909D01*
X160509423Y-39896577D01*
X160984091Y-40213740D01*
X161402667Y-40297000D01*
X161685333Y-40297000D01*
X161871084Y-40260052D01*
X161984901Y-40336101D01*
X162047462Y-40377903D01*
X162269147Y-40421999D01*
X162269151Y-40421999D01*
X162343998Y-40436887D01*
X162418845Y-40421999D01*
X164329307Y-40421999D01*
X164287138Y-40439466D01*
X163883466Y-40843138D01*
X163665000Y-41370561D01*
X163665000Y-41941439D01*
X163883466Y-42468862D01*
X164287138Y-42872534D01*
X164814561Y-43091000D01*
X165385439Y-43091000D01*
X165912862Y-42872534D01*
X166316534Y-42468862D01*
X166371167Y-42336967D01*
X169564999Y-45530800D01*
X169565000Y-49473147D01*
X169550111Y-49547999D01*
X169609096Y-49844536D01*
X169722644Y-50014472D01*
X169777071Y-50095928D01*
X169840527Y-50138328D01*
X170051312Y-50349113D01*
X169986887Y-50673000D01*
X170098260Y-51232909D01*
X170415423Y-51707577D01*
X170536106Y-51788215D01*
X170402235Y-51814843D01*
X170192191Y-51955191D01*
X170051843Y-52165235D01*
X170002560Y-52413000D01*
X170002560Y-54013000D01*
X170051843Y-54260765D01*
X170192191Y-54470809D01*
X170402235Y-54611157D01*
X170650000Y-54660440D01*
X172250000Y-54660440D01*
X172497765Y-54611157D01*
X172707809Y-54470809D01*
X172848157Y-54260765D01*
X172897440Y-54013000D01*
X172897440Y-53973000D01*
X173421199Y-53973000D01*
X173480312Y-54032113D01*
X173415887Y-54356000D01*
X173527260Y-54915909D01*
X173844423Y-55390577D01*
X174119001Y-55574044D01*
X174119000Y-57963956D01*
X173844423Y-58147423D01*
X173527260Y-58622091D01*
X173415887Y-59182000D01*
X173527260Y-59741909D01*
X173844423Y-60216577D01*
X174319091Y-60533740D01*
X174351093Y-60540106D01*
X173213408Y-61677791D01*
X172993256Y-61634000D01*
X172700744Y-61634000D01*
X172267582Y-61720161D01*
X171776375Y-62048375D01*
X171764184Y-62066619D01*
X171755157Y-62021235D01*
X171614809Y-61811191D01*
X171404765Y-61670843D01*
X171157000Y-61621560D01*
X171067000Y-61621560D01*
X171067000Y-59150430D01*
X171119862Y-59128534D01*
X171523534Y-58724862D01*
X171742000Y-58197439D01*
X171742000Y-57626561D01*
X171523534Y-57099138D01*
X171119862Y-56695466D01*
X170592439Y-56477000D01*
X170021561Y-56477000D01*
X169494138Y-56695466D01*
X169090466Y-57099138D01*
X168872000Y-57626561D01*
X168872000Y-58197439D01*
X169090466Y-58724862D01*
X169494138Y-59128534D01*
X169547000Y-59150430D01*
X169547001Y-61621560D01*
X169457000Y-61621560D01*
X169209235Y-61670843D01*
X168999191Y-61811191D01*
X168858843Y-62021235D01*
X168809560Y-62269000D01*
X168809560Y-63534001D01*
X139605496Y-63534001D01*
X139682529Y-63482529D01*
X139988641Y-63024400D01*
X140096133Y-62484000D01*
X140095735Y-62482000D01*
X154423822Y-62482000D01*
X154631375Y-62792625D01*
X155122582Y-63120839D01*
X155555744Y-63207000D01*
X155848256Y-63207000D01*
X156281418Y-63120839D01*
X156772625Y-62792625D01*
X157100839Y-62301418D01*
X157216092Y-61722000D01*
X157100839Y-61142582D01*
X156772625Y-60651375D01*
X156474239Y-60452000D01*
X156772625Y-60252625D01*
X157100839Y-59761418D01*
X157216092Y-59182000D01*
X157163927Y-58919745D01*
X164478861Y-58919745D01*
X164552995Y-59165864D01*
X165090223Y-59358965D01*
X165660454Y-59331778D01*
X166061005Y-59165864D01*
X166135139Y-58919745D01*
X165307000Y-58091605D01*
X164478861Y-58919745D01*
X157163927Y-58919745D01*
X157100839Y-58602582D01*
X156772625Y-58111375D01*
X156754381Y-58099184D01*
X156799765Y-58090157D01*
X157009809Y-57949809D01*
X157150157Y-57739765D01*
X157159016Y-57695223D01*
X163860035Y-57695223D01*
X163887222Y-58265454D01*
X164053136Y-58666005D01*
X164299255Y-58740139D01*
X165127395Y-57912000D01*
X165486605Y-57912000D01*
X166314745Y-58740139D01*
X166560864Y-58666005D01*
X166753965Y-58128777D01*
X166726778Y-57558546D01*
X166560864Y-57157995D01*
X166314745Y-57083861D01*
X165486605Y-57912000D01*
X165127395Y-57912000D01*
X164299255Y-57083861D01*
X164053136Y-57157995D01*
X163860035Y-57695223D01*
X157159016Y-57695223D01*
X157199440Y-57492000D01*
X157199440Y-56904255D01*
X164478861Y-56904255D01*
X165307000Y-57732395D01*
X166135139Y-56904255D01*
X166061005Y-56658136D01*
X165523777Y-56465035D01*
X164953546Y-56492222D01*
X164552995Y-56658136D01*
X164478861Y-56904255D01*
X157199440Y-56904255D01*
X157199440Y-55792000D01*
X157150157Y-55544235D01*
X157009809Y-55334191D01*
X156799765Y-55193843D01*
X156552000Y-55144560D01*
X154852000Y-55144560D01*
X154604235Y-55193843D01*
X154394191Y-55334191D01*
X154253843Y-55544235D01*
X154204560Y-55792000D01*
X154204560Y-57492000D01*
X154253843Y-57739765D01*
X154394191Y-57949809D01*
X154604235Y-58090157D01*
X154649619Y-58099184D01*
X154631375Y-58111375D01*
X154303161Y-58602582D01*
X154187908Y-59182000D01*
X154303161Y-59761418D01*
X154631375Y-60252625D01*
X154929761Y-60452000D01*
X154631375Y-60651375D01*
X154423822Y-60962000D01*
X139827804Y-60962000D01*
X135912333Y-57046530D01*
X135869931Y-56983071D01*
X135618539Y-56815096D01*
X135396854Y-56771000D01*
X135396849Y-56771000D01*
X135322002Y-56756112D01*
X135247155Y-56771000D01*
X133634229Y-56771000D01*
X133685740Y-56693909D01*
X133797113Y-56134000D01*
X133685740Y-55574091D01*
X133368577Y-55099423D01*
X132893909Y-54782260D01*
X132475333Y-54699000D01*
X132192667Y-54699000D01*
X131774091Y-54782260D01*
X131299423Y-55099423D01*
X130982260Y-55574091D01*
X130870887Y-56134000D01*
X130878843Y-56173999D01*
X129194722Y-56173999D01*
X129362695Y-55922608D01*
X129430000Y-55584245D01*
X129430000Y-54905754D01*
X129362695Y-54567391D01*
X129106313Y-54183687D01*
X128722608Y-53927305D01*
X128270000Y-53837275D01*
X127817391Y-53927305D01*
X127635000Y-54049175D01*
X127452608Y-53927305D01*
X127000000Y-53837275D01*
X126548133Y-53927157D01*
X126502765Y-53896843D01*
X126490000Y-53894304D01*
X126490000Y-50405304D01*
X126700740Y-50089909D01*
X126812113Y-49530000D01*
X126700740Y-48970091D01*
X126623839Y-48855001D01*
X127597000Y-48855001D01*
X127597000Y-49180439D01*
X127815466Y-49707862D01*
X128219138Y-50111534D01*
X128746561Y-50330000D01*
X129317439Y-50330000D01*
X129844862Y-50111534D01*
X130248534Y-49707862D01*
X130270430Y-49655000D01*
X131701001Y-49655000D01*
X131701000Y-51212570D01*
X131648138Y-51234466D01*
X131244466Y-51638138D01*
X131026000Y-52165561D01*
X131026000Y-52736439D01*
X131244466Y-53263862D01*
X131648138Y-53667534D01*
X132175561Y-53886000D01*
X132746439Y-53886000D01*
X133273862Y-53667534D01*
X133677534Y-53263862D01*
X133896000Y-52736439D01*
X133896000Y-52165561D01*
X133677534Y-51638138D01*
X133273862Y-51234466D01*
X133221000Y-51212570D01*
X133221000Y-49622463D01*
X133274909Y-49611740D01*
X133749577Y-49294577D01*
X133933043Y-49020000D01*
X137720153Y-49020000D01*
X137795000Y-49034888D01*
X137869847Y-49020000D01*
X137869852Y-49020000D01*
X138091537Y-48975904D01*
X138342929Y-48807929D01*
X138385331Y-48744470D01*
X138872405Y-48257397D01*
X138871887Y-48260000D01*
X138936312Y-48583886D01*
X137861199Y-49659000D01*
X136212711Y-49659000D01*
X136095280Y-49541569D01*
X135714874Y-49384000D01*
X135303126Y-49384000D01*
X134922720Y-49541569D01*
X134631569Y-49832720D01*
X134474000Y-50213126D01*
X134474000Y-50624874D01*
X134631569Y-51005280D01*
X134749001Y-51122712D01*
X134749000Y-54045667D01*
X134716113Y-54211001D01*
X134775098Y-54507538D01*
X134943072Y-54758930D01*
X135006530Y-54801331D01*
X136000897Y-55795698D01*
X135979000Y-55848561D01*
X135979000Y-56419439D01*
X136197466Y-56946862D01*
X136601138Y-57350534D01*
X137128561Y-57569000D01*
X137699439Y-57569000D01*
X138226862Y-57350534D01*
X138630534Y-56946862D01*
X138849000Y-56419439D01*
X138849000Y-55848561D01*
X138630534Y-55321138D01*
X138226862Y-54917466D01*
X137699439Y-54699000D01*
X137128561Y-54699000D01*
X137075698Y-54720897D01*
X136269000Y-53914199D01*
X136269000Y-53130248D01*
X136506423Y-53485577D01*
X136981091Y-53802740D01*
X137399667Y-53886000D01*
X137682333Y-53886000D01*
X138100909Y-53802740D01*
X138575577Y-53485577D01*
X138892740Y-53010909D01*
X139004113Y-52451000D01*
X138952191Y-52189973D01*
X139000191Y-52261809D01*
X139210235Y-52402157D01*
X139448000Y-52449451D01*
X139448001Y-56186148D01*
X139433112Y-56261000D01*
X139492097Y-56557537D01*
X139584727Y-56696167D01*
X139660072Y-56808929D01*
X139723528Y-56851329D01*
X140161199Y-57289000D01*
X140071593Y-57289000D01*
X139667600Y-57369359D01*
X139209471Y-57675471D01*
X138903359Y-58133600D01*
X138795867Y-58674000D01*
X138903359Y-59214400D01*
X139209471Y-59672529D01*
X139667600Y-59978641D01*
X140071593Y-60059000D01*
X140344407Y-60059000D01*
X140748400Y-59978641D01*
X141206529Y-59672529D01*
X141414500Y-59361278D01*
X141622471Y-59672529D01*
X142080600Y-59978641D01*
X142484593Y-60059000D01*
X142757407Y-60059000D01*
X143161400Y-59978641D01*
X143619529Y-59672529D01*
X143925641Y-59214400D01*
X144033133Y-58674000D01*
X143925641Y-58133600D01*
X143785591Y-57924000D01*
X148843560Y-57924000D01*
X148843560Y-59424000D01*
X148892843Y-59671765D01*
X149033191Y-59881809D01*
X149243235Y-60022157D01*
X149491000Y-60071440D01*
X150991000Y-60071440D01*
X151238765Y-60022157D01*
X151448809Y-59881809D01*
X151589157Y-59671765D01*
X151638440Y-59424000D01*
X151638440Y-57924000D01*
X151589157Y-57676235D01*
X151448809Y-57466191D01*
X151238765Y-57325843D01*
X150991000Y-57276560D01*
X149491000Y-57276560D01*
X149243235Y-57325843D01*
X149033191Y-57466191D01*
X148892843Y-57676235D01*
X148843560Y-57924000D01*
X143785591Y-57924000D01*
X143619529Y-57675471D01*
X143161400Y-57369359D01*
X142757407Y-57289000D01*
X142484593Y-57289000D01*
X142339636Y-57317834D01*
X140968000Y-55946199D01*
X140968000Y-53625750D01*
X158712000Y-53625750D01*
X158712000Y-54266309D01*
X158808673Y-54499698D01*
X158987301Y-54678327D01*
X159220690Y-54775000D01*
X159861250Y-54775000D01*
X160020000Y-54616250D01*
X160020000Y-53467000D01*
X160274000Y-53467000D01*
X160274000Y-54616250D01*
X160432750Y-54775000D01*
X161073310Y-54775000D01*
X161306699Y-54678327D01*
X161485327Y-54499698D01*
X161582000Y-54266309D01*
X161582000Y-53625750D01*
X161518289Y-53562039D01*
X162438096Y-53562039D01*
X162598959Y-53950423D01*
X162974866Y-54365389D01*
X163480959Y-54604914D01*
X163703000Y-54483629D01*
X163703000Y-53340000D01*
X163957000Y-53340000D01*
X163957000Y-54483629D01*
X164179041Y-54604914D01*
X164685134Y-54365389D01*
X165061041Y-53950423D01*
X165221904Y-53562039D01*
X165099915Y-53340000D01*
X163957000Y-53340000D01*
X163703000Y-53340000D01*
X162560085Y-53340000D01*
X162438096Y-53562039D01*
X161518289Y-53562039D01*
X161423250Y-53467000D01*
X160274000Y-53467000D01*
X160020000Y-53467000D01*
X158870750Y-53467000D01*
X158712000Y-53625750D01*
X140968000Y-53625750D01*
X140968000Y-52449451D01*
X141205765Y-52402157D01*
X141415809Y-52261809D01*
X141543972Y-52070000D01*
X142427887Y-52070000D01*
X142539260Y-52629909D01*
X142856423Y-53104577D01*
X143331091Y-53421740D01*
X143749667Y-53505000D01*
X144032333Y-53505000D01*
X144450909Y-53421740D01*
X144925577Y-53104577D01*
X145242740Y-52629909D01*
X145354113Y-52070000D01*
X145297336Y-51784561D01*
X147536000Y-51784561D01*
X147536000Y-52355439D01*
X147754466Y-52882862D01*
X148158138Y-53286534D01*
X148685561Y-53505000D01*
X149256439Y-53505000D01*
X149783862Y-53286534D01*
X150187534Y-52882862D01*
X150381871Y-52413691D01*
X158712000Y-52413691D01*
X158712000Y-53054250D01*
X158870750Y-53213000D01*
X160020000Y-53213000D01*
X160020000Y-52063750D01*
X160274000Y-52063750D01*
X160274000Y-53213000D01*
X161423250Y-53213000D01*
X161582000Y-53054250D01*
X161582000Y-52413691D01*
X161485327Y-52180302D01*
X161306699Y-52001673D01*
X161073310Y-51905000D01*
X160432750Y-51905000D01*
X160274000Y-52063750D01*
X160020000Y-52063750D01*
X159861250Y-51905000D01*
X159220690Y-51905000D01*
X158987301Y-52001673D01*
X158808673Y-52180302D01*
X158712000Y-52413691D01*
X150381871Y-52413691D01*
X150406000Y-52355439D01*
X150406000Y-51784561D01*
X150187534Y-51257138D01*
X149783862Y-50853466D01*
X149256439Y-50635000D01*
X148685561Y-50635000D01*
X148158138Y-50853466D01*
X147754466Y-51257138D01*
X147536000Y-51784561D01*
X145297336Y-51784561D01*
X145242740Y-51510091D01*
X144925577Y-51035423D01*
X144450909Y-50718260D01*
X144032333Y-50635000D01*
X143749667Y-50635000D01*
X143331091Y-50718260D01*
X142856423Y-51035423D01*
X142539260Y-51510091D01*
X142427887Y-52070000D01*
X141543972Y-52070000D01*
X141556157Y-52051765D01*
X141605440Y-51804000D01*
X141605440Y-50304000D01*
X141556157Y-50056235D01*
X141415809Y-49846191D01*
X141205765Y-49705843D01*
X140958000Y-49656560D01*
X140669584Y-49656560D01*
X140894909Y-49611740D01*
X141369577Y-49294577D01*
X141553043Y-49020000D01*
X142672957Y-49020000D01*
X142856423Y-49294577D01*
X143331091Y-49611740D01*
X143749667Y-49695000D01*
X144032333Y-49695000D01*
X144450909Y-49611740D01*
X144925577Y-49294577D01*
X145242740Y-48819909D01*
X145354113Y-48260000D01*
X145297336Y-47974561D01*
X147536000Y-47974561D01*
X147536000Y-48545439D01*
X147754466Y-49072862D01*
X148158138Y-49476534D01*
X148685561Y-49695000D01*
X149256439Y-49695000D01*
X149783862Y-49476534D01*
X150187534Y-49072862D01*
X150406000Y-48545439D01*
X150406000Y-47974561D01*
X150187534Y-47447138D01*
X149783862Y-47043466D01*
X149256439Y-46825000D01*
X148685561Y-46825000D01*
X148158138Y-47043466D01*
X147754466Y-47447138D01*
X147536000Y-47974561D01*
X145297336Y-47974561D01*
X145242740Y-47700091D01*
X144925577Y-47225423D01*
X144450909Y-46908260D01*
X144032333Y-46825000D01*
X143749667Y-46825000D01*
X143331091Y-46908260D01*
X142856423Y-47225423D01*
X142672957Y-47500000D01*
X141553043Y-47500000D01*
X141369577Y-47225423D01*
X141017242Y-46990000D01*
X141369577Y-46754577D01*
X141553043Y-46480000D01*
X145735155Y-46480000D01*
X145810002Y-46494888D01*
X145884849Y-46480000D01*
X145884854Y-46480000D01*
X146106539Y-46435904D01*
X146357931Y-46267929D01*
X146400333Y-46204470D01*
X147670838Y-44933966D01*
X147754466Y-45135862D01*
X148158138Y-45539534D01*
X148685561Y-45758000D01*
X149256439Y-45758000D01*
X149783862Y-45539534D01*
X150187534Y-45135862D01*
X150406000Y-44608439D01*
X150406000Y-44037561D01*
X150187534Y-43510138D01*
X149783862Y-43106466D01*
X149581966Y-43022838D01*
X149934804Y-42670000D01*
X151669570Y-42670000D01*
X151691466Y-42722862D01*
X152095138Y-43126534D01*
X152622561Y-43345000D01*
X153193439Y-43345000D01*
X153720862Y-43126534D01*
X153926000Y-42921396D01*
X153926000Y-44502153D01*
X153911112Y-44577000D01*
X153926000Y-44651847D01*
X153926000Y-44651851D01*
X153970096Y-44873536D01*
X154138071Y-45124929D01*
X154201530Y-45167331D01*
X154415897Y-45381698D01*
X154394000Y-45434561D01*
X154394000Y-46005439D01*
X154612466Y-46532862D01*
X155016138Y-46936534D01*
X155543561Y-47155000D01*
X156114439Y-47155000D01*
X156167302Y-47133104D01*
X157651673Y-48617476D01*
X157694071Y-48680929D01*
X157757524Y-48723327D01*
X157757526Y-48723329D01*
X157832031Y-48773111D01*
X157945463Y-48848904D01*
X158167148Y-48893000D01*
X158167152Y-48893000D01*
X158241999Y-48907888D01*
X158316846Y-48893000D01*
X162611957Y-48893000D01*
X162795423Y-49167577D01*
X163147758Y-49403000D01*
X162795423Y-49638423D01*
X162527098Y-50040000D01*
X157047043Y-50040000D01*
X156863577Y-49765423D01*
X156388909Y-49448260D01*
X155970333Y-49365000D01*
X155687667Y-49365000D01*
X155269091Y-49448260D01*
X154794423Y-49765423D01*
X154477260Y-50240091D01*
X154365887Y-50800000D01*
X154477260Y-51359909D01*
X154794423Y-51834577D01*
X155269091Y-52151740D01*
X155687667Y-52235000D01*
X155970333Y-52235000D01*
X156388909Y-52151740D01*
X156863577Y-51834577D01*
X157047043Y-51560000D01*
X162696815Y-51560000D01*
X162795423Y-51707577D01*
X163179108Y-51963947D01*
X162974866Y-52060611D01*
X162598959Y-52475577D01*
X162438096Y-52863961D01*
X162560085Y-53086000D01*
X163703000Y-53086000D01*
X163703000Y-53066000D01*
X163957000Y-53066000D01*
X163957000Y-53086000D01*
X165099915Y-53086000D01*
X165221904Y-52863961D01*
X165061041Y-52475577D01*
X164685134Y-52060611D01*
X164480892Y-51963947D01*
X164864577Y-51707577D01*
X165181740Y-51232909D01*
X165293113Y-50673000D01*
X165181740Y-50113091D01*
X164864577Y-49638423D01*
X164512242Y-49403000D01*
X164864577Y-49167577D01*
X165181740Y-48692909D01*
X165293113Y-48133000D01*
X165181740Y-47573091D01*
X164864577Y-47098423D01*
X164512242Y-46863000D01*
X164864577Y-46627577D01*
X165181740Y-46152909D01*
X165293113Y-45593000D01*
X165181740Y-45033091D01*
X164864577Y-44558423D01*
X164389909Y-44241260D01*
X163971333Y-44158000D01*
X163688667Y-44158000D01*
X163270091Y-44241260D01*
X162795423Y-44558423D01*
X162478260Y-45033091D01*
X162366887Y-45593000D01*
X162478260Y-46152909D01*
X162795423Y-46627577D01*
X163147758Y-46863000D01*
X162795423Y-47098423D01*
X162611957Y-47373000D01*
X158556803Y-47373000D01*
X157242104Y-46058302D01*
X157264000Y-46005439D01*
X157264000Y-45434561D01*
X157045534Y-44907138D01*
X156641862Y-44503466D01*
X156114439Y-44285000D01*
X155543561Y-44285000D01*
X155490698Y-44306897D01*
X155446000Y-44262199D01*
X155446000Y-43180000D01*
X158683887Y-43180000D01*
X158795260Y-43739909D01*
X159112423Y-44214577D01*
X159587091Y-44531740D01*
X160005667Y-44615000D01*
X160288333Y-44615000D01*
X160706909Y-44531740D01*
X161181577Y-44214577D01*
X161498740Y-43739909D01*
X161610113Y-43180000D01*
X161498740Y-42620091D01*
X161181577Y-42145423D01*
X160706909Y-41828260D01*
X160288333Y-41745000D01*
X160005667Y-41745000D01*
X159587091Y-41828260D01*
X159112423Y-42145423D01*
X158795260Y-42620091D01*
X158683887Y-43180000D01*
X155446000Y-43180000D01*
X155446000Y-39873396D01*
X155651138Y-40078534D01*
X156178561Y-40297000D01*
X156749439Y-40297000D01*
X157276862Y-40078534D01*
X157680534Y-39674862D01*
X157899000Y-39147439D01*
X157899000Y-38576561D01*
X157680534Y-38049138D01*
X157276862Y-37645466D01*
X156749439Y-37427000D01*
X156178561Y-37427000D01*
X155651138Y-37645466D01*
X155446000Y-37850604D01*
X155446000Y-37017845D01*
X155460888Y-36942998D01*
X155446000Y-36868151D01*
X155446000Y-36868146D01*
X155401904Y-36646461D01*
X155233929Y-36395069D01*
X155170473Y-36352669D01*
X154409554Y-35591750D01*
X163411000Y-35591750D01*
X163411000Y-36232309D01*
X163507673Y-36465698D01*
X163686301Y-36644327D01*
X163919690Y-36741000D01*
X164560250Y-36741000D01*
X164719000Y-36582250D01*
X164719000Y-35433000D01*
X164973000Y-35433000D01*
X164973000Y-36582250D01*
X165131750Y-36741000D01*
X165772310Y-36741000D01*
X166005699Y-36644327D01*
X166184327Y-36465698D01*
X166253647Y-36298343D01*
X168361000Y-36298343D01*
X168361000Y-36789657D01*
X168549018Y-37243571D01*
X168896429Y-37590982D01*
X169350343Y-37779000D01*
X169841657Y-37779000D01*
X170295571Y-37590982D01*
X170642982Y-37243571D01*
X170831000Y-36789657D01*
X170831000Y-36298343D01*
X170771211Y-36154000D01*
X170910250Y-36154000D01*
X171069000Y-35995250D01*
X171069000Y-34671000D01*
X169869750Y-34671000D01*
X169711000Y-34829750D01*
X169711000Y-35309000D01*
X169350343Y-35309000D01*
X168896429Y-35497018D01*
X168549018Y-35844429D01*
X168361000Y-36298343D01*
X166253647Y-36298343D01*
X166281000Y-36232309D01*
X166281000Y-35591750D01*
X166122250Y-35433000D01*
X164973000Y-35433000D01*
X164719000Y-35433000D01*
X163569750Y-35433000D01*
X163411000Y-35591750D01*
X154409554Y-35591750D01*
X152597803Y-33780000D01*
X154103153Y-33780000D01*
X154178000Y-33794888D01*
X154252847Y-33780000D01*
X154252852Y-33780000D01*
X154474537Y-33735904D01*
X154539580Y-33692444D01*
X154793744Y-33743000D01*
X155086256Y-33743000D01*
X155519418Y-33656839D01*
X156010625Y-33328625D01*
X156022816Y-33310381D01*
X156031843Y-33355765D01*
X156172191Y-33565809D01*
X156382235Y-33706157D01*
X156630000Y-33755440D01*
X158330000Y-33755440D01*
X158577765Y-33706157D01*
X158787809Y-33565809D01*
X158928157Y-33355765D01*
X158977440Y-33108000D01*
X158977440Y-32520561D01*
X163411000Y-32520561D01*
X163411000Y-33091439D01*
X163629466Y-33618862D01*
X163892759Y-33882155D01*
X163686301Y-33967673D01*
X163507673Y-34146302D01*
X163411000Y-34379691D01*
X163411000Y-35020250D01*
X163569750Y-35179000D01*
X164719000Y-35179000D01*
X164719000Y-35159000D01*
X164973000Y-35159000D01*
X164973000Y-35179000D01*
X166122250Y-35179000D01*
X166281000Y-35020250D01*
X166281000Y-34379691D01*
X166184327Y-34146302D01*
X166005699Y-33967673D01*
X165799241Y-33882155D01*
X166062534Y-33618862D01*
X166135506Y-33442690D01*
X169711000Y-33442690D01*
X169711000Y-34258250D01*
X169869750Y-34417000D01*
X171069000Y-34417000D01*
X171069000Y-33092750D01*
X171323000Y-33092750D01*
X171323000Y-34417000D01*
X171343000Y-34417000D01*
X171343000Y-34671000D01*
X171323000Y-34671000D01*
X171323000Y-35995250D01*
X171481750Y-36154000D01*
X172172309Y-36154000D01*
X172405698Y-36057327D01*
X172584327Y-35878699D01*
X172638344Y-35748291D01*
X173116583Y-36067839D01*
X173696000Y-36183092D01*
X174275418Y-36067839D01*
X174766625Y-35739625D01*
X174946000Y-35471171D01*
X175125375Y-35739625D01*
X175616583Y-36067839D01*
X176196000Y-36183092D01*
X176775418Y-36067839D01*
X177266625Y-35739625D01*
X177594839Y-35248417D01*
X177681000Y-34815255D01*
X177681000Y-34272744D01*
X177594839Y-33839582D01*
X177266625Y-33348375D01*
X176775417Y-33020161D01*
X176196000Y-32904908D01*
X175616582Y-33020161D01*
X175125375Y-33348375D01*
X174946000Y-33616829D01*
X174766625Y-33348375D01*
X174275417Y-33020161D01*
X173696000Y-32904908D01*
X173116582Y-33020161D01*
X172638344Y-33339709D01*
X172584327Y-33209301D01*
X172405698Y-33030673D01*
X172172309Y-32934000D01*
X171481750Y-32934000D01*
X171323000Y-33092750D01*
X171069000Y-33092750D01*
X170910250Y-32934000D01*
X170219691Y-32934000D01*
X169986302Y-33030673D01*
X169807673Y-33209301D01*
X169711000Y-33442690D01*
X166135506Y-33442690D01*
X166281000Y-33091439D01*
X166281000Y-32520561D01*
X166062534Y-31993138D01*
X165658862Y-31589466D01*
X165131439Y-31371000D01*
X164560561Y-31371000D01*
X164033138Y-31589466D01*
X163629466Y-31993138D01*
X163411000Y-32520561D01*
X158977440Y-32520561D01*
X158977440Y-31408000D01*
X158928157Y-31160235D01*
X158787809Y-30950191D01*
X158577765Y-30809843D01*
X158330000Y-30760560D01*
X156630000Y-30760560D01*
X156382235Y-30809843D01*
X156172191Y-30950191D01*
X156031843Y-31160235D01*
X156022816Y-31205619D01*
X156010625Y-31187375D01*
X155519418Y-30859161D01*
X155086256Y-30773000D01*
X154793744Y-30773000D01*
X154360582Y-30859161D01*
X153869375Y-31187375D01*
X153541161Y-31678582D01*
X153425908Y-32258000D01*
X153426306Y-32260000D01*
X150837849Y-32260000D01*
X150763002Y-32245112D01*
X150688155Y-32260000D01*
X150209430Y-32260000D01*
X150187534Y-32207138D01*
X149783862Y-31803466D01*
X149731000Y-31781570D01*
X149731000Y-28769819D01*
X149814765Y-28753157D01*
X150024809Y-28612809D01*
X150165157Y-28402765D01*
X150174184Y-28357381D01*
X150186375Y-28375625D01*
X150677582Y-28703839D01*
X151110744Y-28790000D01*
X151403256Y-28790000D01*
X151836418Y-28703839D01*
X152327625Y-28375625D01*
X152527000Y-28077239D01*
X152726375Y-28375625D01*
X153217582Y-28703839D01*
X153650744Y-28790000D01*
X153943256Y-28790000D01*
X154376418Y-28703839D01*
X154867625Y-28375625D01*
X155195839Y-27884418D01*
X155311092Y-27305000D01*
X155227749Y-26886000D01*
X159842560Y-26886000D01*
X159842560Y-28486000D01*
X159891843Y-28733765D01*
X160032191Y-28943809D01*
X160242235Y-29084157D01*
X160490000Y-29133440D01*
X162090000Y-29133440D01*
X162337765Y-29084157D01*
X162547809Y-28943809D01*
X162688157Y-28733765D01*
X162708101Y-28633497D01*
X162977138Y-28902534D01*
X163504561Y-29121000D01*
X164075439Y-29121000D01*
X164602862Y-28902534D01*
X165006534Y-28498862D01*
X165225000Y-27971439D01*
X165225000Y-27662343D01*
X168361000Y-27662343D01*
X168361000Y-28153657D01*
X168549018Y-28607571D01*
X168896429Y-28954982D01*
X169350343Y-29143000D01*
X169841657Y-29143000D01*
X170295571Y-28954982D01*
X170642982Y-28607571D01*
X170831000Y-28153657D01*
X170831000Y-27662343D01*
X170771211Y-27518000D01*
X170910250Y-27518000D01*
X171069000Y-27359250D01*
X171069000Y-26035000D01*
X169869750Y-26035000D01*
X169711000Y-26193750D01*
X169711000Y-26673000D01*
X169350343Y-26673000D01*
X168896429Y-26861018D01*
X168549018Y-27208429D01*
X168361000Y-27662343D01*
X165225000Y-27662343D01*
X165225000Y-27400561D01*
X165006534Y-26873138D01*
X164602862Y-26469466D01*
X164075439Y-26251000D01*
X163504561Y-26251000D01*
X162977138Y-26469466D01*
X162708101Y-26738503D01*
X162688157Y-26638235D01*
X162547809Y-26428191D01*
X162337765Y-26287843D01*
X162090000Y-26238560D01*
X160490000Y-26238560D01*
X160242235Y-26287843D01*
X160032191Y-26428191D01*
X159891843Y-26638235D01*
X159842560Y-26886000D01*
X155227749Y-26886000D01*
X155195839Y-26725582D01*
X154867625Y-26234375D01*
X154376418Y-25906161D01*
X153943256Y-25820000D01*
X153650744Y-25820000D01*
X153217582Y-25906161D01*
X152726375Y-26234375D01*
X152527000Y-26532761D01*
X152327625Y-26234375D01*
X151836418Y-25906161D01*
X151403256Y-25820000D01*
X151110744Y-25820000D01*
X150677582Y-25906161D01*
X150186375Y-26234375D01*
X150174184Y-26252619D01*
X150165157Y-26207235D01*
X150024809Y-25997191D01*
X149814765Y-25856843D01*
X149567000Y-25807560D01*
X147867000Y-25807560D01*
X147619235Y-25856843D01*
X147409191Y-25997191D01*
X147268843Y-26207235D01*
X147219560Y-26455000D01*
X147219560Y-26545000D01*
X111828711Y-26545000D01*
X111711280Y-26427569D01*
X111330874Y-26270000D01*
X110919126Y-26270000D01*
X110538720Y-26427569D01*
X110247569Y-26718720D01*
X110090000Y-27099126D01*
X110090000Y-27510874D01*
X110247569Y-27891280D01*
X110538720Y-28182431D01*
X110919126Y-28340000D01*
X111330874Y-28340000D01*
X111711280Y-28182431D01*
X111828711Y-28065000D01*
X127742621Y-28065000D01*
X127597000Y-28416561D01*
X127597000Y-28987439D01*
X127815466Y-29514862D01*
X128219138Y-29918534D01*
X128746561Y-30137000D01*
X129317439Y-30137000D01*
X129844862Y-29918534D01*
X130248534Y-29514862D01*
X130467000Y-28987439D01*
X130467000Y-28416561D01*
X130321379Y-28065000D01*
X132811771Y-28065000D01*
X132760260Y-28142091D01*
X132648887Y-28702000D01*
X132760260Y-29261909D01*
X133077423Y-29736577D01*
X133552091Y-30053740D01*
X133970667Y-30137000D01*
X134253333Y-30137000D01*
X134671909Y-30053740D01*
X135146577Y-29736577D01*
X135463740Y-29261909D01*
X135575113Y-28702000D01*
X135463740Y-28142091D01*
X135412229Y-28065000D01*
X137799604Y-28065000D01*
X137721466Y-28143138D01*
X137503000Y-28670561D01*
X137503000Y-29241439D01*
X137721466Y-29768862D01*
X138125138Y-30172534D01*
X138178000Y-30194430D01*
X138178001Y-34088148D01*
X138163112Y-34163000D01*
X138222097Y-34459537D01*
X138303797Y-34581809D01*
X138390072Y-34710929D01*
X138453528Y-34753329D01*
X138936312Y-35236114D01*
X138871887Y-35560000D01*
X138983260Y-36119909D01*
X139300423Y-36594577D01*
X139652758Y-36830000D01*
X139300423Y-37065423D01*
X138983260Y-37540091D01*
X138871887Y-38100000D01*
X138983260Y-38659909D01*
X139300423Y-39134577D01*
X139652758Y-39370000D01*
X139300423Y-39605423D01*
X138983260Y-40080091D01*
X138871887Y-40640000D01*
X138983260Y-41199909D01*
X139300423Y-41674577D01*
X139652758Y-41910000D01*
X139300423Y-42145423D01*
X138983260Y-42620091D01*
X138871887Y-43180000D01*
X138948071Y-43563000D01*
X135304172Y-43563000D01*
X134436701Y-42695530D01*
X134394299Y-42632071D01*
X134142907Y-42464096D01*
X133934855Y-42422712D01*
X133749577Y-42145423D01*
X133365892Y-41889053D01*
X133570134Y-41792389D01*
X133946041Y-41377423D01*
X134106904Y-40989039D01*
X133984915Y-40767000D01*
X132842000Y-40767000D01*
X132842000Y-40787000D01*
X132588000Y-40787000D01*
X132588000Y-40767000D01*
X131445085Y-40767000D01*
X131323096Y-40989039D01*
X131325654Y-40995216D01*
X131300001Y-40990113D01*
X131225154Y-41005001D01*
X130345687Y-41005001D01*
X130398965Y-40856777D01*
X130371778Y-40286546D01*
X130205864Y-39885995D01*
X129959745Y-39811861D01*
X129131605Y-40640000D01*
X129145748Y-40654143D01*
X128966143Y-40833748D01*
X128952000Y-40819605D01*
X128937858Y-40833748D01*
X128758253Y-40654143D01*
X128772395Y-40640000D01*
X127944255Y-39811861D01*
X127698136Y-39885995D01*
X127505035Y-40423223D01*
X127532222Y-40993454D01*
X127537005Y-41005001D01*
X125354044Y-41005001D01*
X125387000Y-40925439D01*
X125387000Y-40354561D01*
X125168534Y-39827138D01*
X124973651Y-39632255D01*
X128123861Y-39632255D01*
X128952000Y-40460395D01*
X129780139Y-39632255D01*
X129706005Y-39386136D01*
X129168777Y-39193035D01*
X128598546Y-39220222D01*
X128197995Y-39386136D01*
X128123861Y-39632255D01*
X124973651Y-39632255D01*
X124764862Y-39423466D01*
X124237439Y-39205000D01*
X123666561Y-39205000D01*
X123139138Y-39423466D01*
X122735466Y-39827138D01*
X122517000Y-40354561D01*
X122517000Y-40925439D01*
X122549956Y-41005001D01*
X122089803Y-41005001D01*
X122063104Y-40978302D01*
X122085000Y-40925439D01*
X122085000Y-40354561D01*
X121866534Y-39827138D01*
X121462862Y-39423466D01*
X120935439Y-39205000D01*
X120364561Y-39205000D01*
X119837138Y-39423466D01*
X119433466Y-39827138D01*
X119215000Y-40354561D01*
X119215000Y-40925439D01*
X119433466Y-41452862D01*
X119837138Y-41856534D01*
X120364561Y-42075000D01*
X120935439Y-42075000D01*
X120988302Y-42053104D01*
X121184671Y-42249473D01*
X121227072Y-42312930D01*
X121290528Y-42355330D01*
X121478463Y-42480905D01*
X121526606Y-42490481D01*
X121700149Y-42525001D01*
X121700153Y-42525001D01*
X121775001Y-42539889D01*
X121849849Y-42525001D01*
X128589635Y-42525001D01*
X128219138Y-42678466D01*
X127815466Y-43082138D01*
X127793570Y-43135000D01*
X125978848Y-43135000D01*
X125904000Y-43120112D01*
X125893327Y-43122235D01*
X125634439Y-43015000D01*
X125063561Y-43015000D01*
X124536138Y-43233466D01*
X124132466Y-43637138D01*
X123914000Y-44164561D01*
X123914000Y-44735439D01*
X124132466Y-45262862D01*
X124536138Y-45666534D01*
X125063561Y-45885000D01*
X125634439Y-45885000D01*
X126161862Y-45666534D01*
X126565534Y-45262862D01*
X126784000Y-44735439D01*
X126784000Y-44655000D01*
X127793570Y-44655000D01*
X127815466Y-44707862D01*
X128219138Y-45111534D01*
X128746561Y-45330000D01*
X129317439Y-45330000D01*
X129844862Y-45111534D01*
X130248534Y-44707862D01*
X130270430Y-44655000D01*
X130575199Y-44655000D01*
X131316312Y-45396114D01*
X131251887Y-45720000D01*
X131363260Y-46279909D01*
X131680423Y-46754577D01*
X132032758Y-46990000D01*
X131680423Y-47225423D01*
X131363260Y-47700091D01*
X131276751Y-48135000D01*
X130270430Y-48135000D01*
X130248534Y-48082138D01*
X129844862Y-47678466D01*
X129317439Y-47460000D01*
X128746561Y-47460000D01*
X128686716Y-47484789D01*
X128528538Y-47379097D01*
X128306853Y-47335001D01*
X128306848Y-47335001D01*
X128232001Y-47320113D01*
X128157154Y-47335001D01*
X125193845Y-47335001D01*
X125118997Y-47320113D01*
X125044149Y-47335001D01*
X125044145Y-47335001D01*
X124870602Y-47369521D01*
X124822459Y-47379097D01*
X124641516Y-47500000D01*
X124571068Y-47547072D01*
X124528668Y-47610528D01*
X121562528Y-50576669D01*
X121499072Y-50619069D01*
X121456672Y-50682525D01*
X121456671Y-50682526D01*
X121331097Y-50870461D01*
X121272112Y-51166998D01*
X121285439Y-51233999D01*
X121012423Y-51416423D01*
X120695260Y-51891091D01*
X120583887Y-52451000D01*
X120695260Y-53010909D01*
X121012423Y-53485577D01*
X121487091Y-53802740D01*
X121905667Y-53886000D01*
X122188333Y-53886000D01*
X122606909Y-53802740D01*
X123081577Y-53485577D01*
X123398740Y-53010909D01*
X123510113Y-52451000D01*
X123398740Y-51891091D01*
X123081577Y-51416423D01*
X122956170Y-51332629D01*
X124078022Y-50210778D01*
X124314423Y-50564577D01*
X124789091Y-50881740D01*
X124970001Y-50917725D01*
X124970000Y-53894304D01*
X124957235Y-53896843D01*
X124747191Y-54037191D01*
X124606843Y-54247235D01*
X124557560Y-54495000D01*
X124557560Y-55995000D01*
X124606843Y-56242765D01*
X124747191Y-56452809D01*
X124957235Y-56593157D01*
X125205000Y-56642440D01*
X126255000Y-56642440D01*
X126340195Y-56625494D01*
X126403964Y-56720930D01*
X126437419Y-56771000D01*
X123285430Y-56771000D01*
X123263534Y-56718138D01*
X122859862Y-56314466D01*
X122800018Y-56289678D01*
X122762904Y-56103093D01*
X122594929Y-55851701D01*
X122531473Y-55809301D01*
X116820001Y-50097830D01*
X116820001Y-48609561D01*
X119215000Y-48609561D01*
X119215000Y-49180439D01*
X119433466Y-49707862D01*
X119837138Y-50111534D01*
X120364561Y-50330000D01*
X120935439Y-50330000D01*
X121462862Y-50111534D01*
X121866534Y-49707862D01*
X122085000Y-49180439D01*
X122085000Y-48609561D01*
X121866534Y-48082138D01*
X121462862Y-47678466D01*
X120935439Y-47460000D01*
X120364561Y-47460000D01*
X119837138Y-47678466D01*
X119433466Y-48082138D01*
X119215000Y-48609561D01*
X116820001Y-48609561D01*
X116820001Y-45508847D01*
X116834889Y-45433999D01*
X116820001Y-45359151D01*
X116820001Y-45359147D01*
X116775905Y-45137462D01*
X116607930Y-44886070D01*
X116544474Y-44843670D01*
X115515804Y-43815000D01*
X119186887Y-43815000D01*
X119298260Y-44374909D01*
X119615423Y-44849577D01*
X120090091Y-45166740D01*
X120508667Y-45250000D01*
X120791333Y-45250000D01*
X121209909Y-45166740D01*
X121684577Y-44849577D01*
X122001740Y-44374909D01*
X122113113Y-43815000D01*
X122001740Y-43255091D01*
X121684577Y-42780423D01*
X121209909Y-42463260D01*
X120791333Y-42380000D01*
X120508667Y-42380000D01*
X120090091Y-42463260D01*
X119615423Y-42780423D01*
X119298260Y-43255091D01*
X119186887Y-43815000D01*
X115515804Y-43815000D01*
X109570333Y-37869530D01*
X109527931Y-37806071D01*
X109276539Y-37638096D01*
X109054854Y-37594000D01*
X109054849Y-37594000D01*
X108980002Y-37579112D01*
X108905155Y-37594000D01*
X107831178Y-37594000D01*
X107623625Y-37283375D01*
X107325239Y-37084000D01*
X107623625Y-36884625D01*
X107951839Y-36393418D01*
X108058980Y-35854781D01*
X111042670Y-38838472D01*
X111085071Y-38901929D01*
X111336463Y-39069904D01*
X111558148Y-39114000D01*
X111558153Y-39114000D01*
X111633000Y-39128888D01*
X111707847Y-39114000D01*
X113564560Y-39114000D01*
X113564560Y-39204000D01*
X113613843Y-39451765D01*
X113754191Y-39661809D01*
X113964235Y-39802157D01*
X114009619Y-39811184D01*
X113991375Y-39823375D01*
X113663161Y-40314582D01*
X113547908Y-40894000D01*
X113663161Y-41473418D01*
X113991375Y-41964625D01*
X114482582Y-42292839D01*
X114915744Y-42379000D01*
X115208256Y-42379000D01*
X115641418Y-42292839D01*
X116132625Y-41964625D01*
X116460839Y-41473418D01*
X116576092Y-40894000D01*
X116460839Y-40314582D01*
X116132625Y-39823375D01*
X116114381Y-39811184D01*
X116159765Y-39802157D01*
X116369809Y-39661809D01*
X116510157Y-39451765D01*
X116559440Y-39204000D01*
X116559440Y-39114000D01*
X121845153Y-39114000D01*
X121920000Y-39128888D01*
X121994847Y-39114000D01*
X121994852Y-39114000D01*
X122216537Y-39069904D01*
X122467929Y-38901929D01*
X122510331Y-38838470D01*
X123501114Y-37847688D01*
X123683667Y-37884000D01*
X123966333Y-37884000D01*
X124384909Y-37800740D01*
X124859577Y-37483577D01*
X125176740Y-37008909D01*
X125288113Y-36449000D01*
X125176740Y-35889091D01*
X124859577Y-35414423D01*
X124384909Y-35097260D01*
X123966333Y-35014000D01*
X123683667Y-35014000D01*
X123265091Y-35097260D01*
X122790423Y-35414423D01*
X122473260Y-35889091D01*
X122361887Y-36449000D01*
X122426312Y-36772886D01*
X121605199Y-37594000D01*
X116559440Y-37594000D01*
X116559440Y-37504000D01*
X116510157Y-37256235D01*
X116369809Y-37046191D01*
X116159765Y-36905843D01*
X115912000Y-36856560D01*
X114212000Y-36856560D01*
X113964235Y-36905843D01*
X113754191Y-37046191D01*
X113613843Y-37256235D01*
X113564560Y-37504000D01*
X113564560Y-37594000D01*
X111947802Y-37594000D01*
X109913802Y-35560000D01*
X119186887Y-35560000D01*
X119298260Y-36119909D01*
X119615423Y-36594577D01*
X120090091Y-36911740D01*
X120508667Y-36995000D01*
X120791333Y-36995000D01*
X121209909Y-36911740D01*
X121684577Y-36594577D01*
X122001740Y-36119909D01*
X122113113Y-35560000D01*
X122048052Y-35232916D01*
X122153214Y-35075528D01*
X122165903Y-35056538D01*
X122209999Y-34834853D01*
X122209999Y-34834849D01*
X122224887Y-34760002D01*
X122209999Y-34685155D01*
X122209999Y-34552800D01*
X123061833Y-33700967D01*
X123116466Y-33832862D01*
X123520138Y-34236534D01*
X124047561Y-34455000D01*
X124618439Y-34455000D01*
X125145862Y-34236534D01*
X125549534Y-33832862D01*
X125768000Y-33305439D01*
X125768000Y-32734561D01*
X125735044Y-32654999D01*
X127973198Y-32654999D01*
X128014312Y-32696113D01*
X127949887Y-33020000D01*
X128061260Y-33579909D01*
X128378423Y-34054577D01*
X128853091Y-34371740D01*
X129271667Y-34455000D01*
X129554333Y-34455000D01*
X129972909Y-34371740D01*
X130447577Y-34054577D01*
X130631043Y-33780000D01*
X131267560Y-33780000D01*
X131267560Y-33820000D01*
X131316843Y-34067765D01*
X131457191Y-34277809D01*
X131667235Y-34418157D01*
X131801106Y-34444785D01*
X131680423Y-34525423D01*
X131496957Y-34800000D01*
X129868847Y-34800000D01*
X129794000Y-34785112D01*
X129719153Y-34800000D01*
X129719148Y-34800000D01*
X129497463Y-34844096D01*
X129246071Y-35012071D01*
X129233002Y-35031630D01*
X129190439Y-35014000D01*
X128619561Y-35014000D01*
X128092138Y-35232466D01*
X127688466Y-35636138D01*
X127470000Y-36163561D01*
X127470000Y-36734439D01*
X127688466Y-37261862D01*
X128092138Y-37665534D01*
X128619561Y-37884000D01*
X129190439Y-37884000D01*
X129717862Y-37665534D01*
X130121534Y-37261862D01*
X130340000Y-36734439D01*
X130340000Y-36320000D01*
X131496957Y-36320000D01*
X131680423Y-36594577D01*
X132032758Y-36830000D01*
X131680423Y-37065423D01*
X131363260Y-37540091D01*
X131251887Y-38100000D01*
X131363260Y-38659909D01*
X131680423Y-39134577D01*
X132064108Y-39390947D01*
X131859866Y-39487611D01*
X131483959Y-39902577D01*
X131323096Y-40290961D01*
X131445085Y-40513000D01*
X132588000Y-40513000D01*
X132588000Y-40493000D01*
X132842000Y-40493000D01*
X132842000Y-40513000D01*
X133984915Y-40513000D01*
X134106904Y-40290961D01*
X133946041Y-39902577D01*
X133570134Y-39487611D01*
X133365892Y-39390947D01*
X133749577Y-39134577D01*
X134066740Y-38659909D01*
X134178113Y-38100000D01*
X134066740Y-37540091D01*
X133749577Y-37065423D01*
X133397242Y-36830000D01*
X133749577Y-36594577D01*
X134066740Y-36119909D01*
X134178113Y-35560000D01*
X134066740Y-35000091D01*
X133749577Y-34525423D01*
X133628894Y-34444785D01*
X133762765Y-34418157D01*
X133972809Y-34277809D01*
X134113157Y-34067765D01*
X134162440Y-33820000D01*
X134162440Y-32220000D01*
X134113157Y-31972235D01*
X133972809Y-31762191D01*
X133762765Y-31621843D01*
X133515000Y-31572560D01*
X131915000Y-31572560D01*
X131667235Y-31621843D01*
X131457191Y-31762191D01*
X131316843Y-31972235D01*
X131267560Y-32220000D01*
X131267560Y-32260000D01*
X130631043Y-32260000D01*
X130447577Y-31985423D01*
X129972909Y-31668260D01*
X129554333Y-31585000D01*
X129271667Y-31585000D01*
X129089113Y-31621312D01*
X128878330Y-31410529D01*
X128835928Y-31347070D01*
X128584536Y-31179095D01*
X128362851Y-31134999D01*
X128362846Y-31134999D01*
X128287999Y-31120111D01*
X128213152Y-31134999D01*
X123867845Y-31134999D01*
X123792998Y-31120111D01*
X123718151Y-31134999D01*
X123718147Y-31134999D01*
X123496462Y-31179095D01*
X123433901Y-31220897D01*
X123308525Y-31304670D01*
X123308523Y-31304672D01*
X123245070Y-31347070D01*
X123202672Y-31410523D01*
X120965527Y-33647670D01*
X120902071Y-33690070D01*
X120734095Y-33941462D01*
X120697587Y-34125000D01*
X120508667Y-34125000D01*
X120090091Y-34208260D01*
X119615423Y-34525423D01*
X119298260Y-35000091D01*
X119186887Y-35560000D01*
X109913802Y-35560000D01*
X108050440Y-33696639D01*
X108050440Y-32424000D01*
X108001157Y-32176235D01*
X107860809Y-31966191D01*
X107650765Y-31825843D01*
X107403000Y-31776560D01*
X105703000Y-31776560D01*
X105455235Y-31825843D01*
X105245191Y-31966191D01*
X105104843Y-32176235D01*
X105055560Y-32424000D01*
X105055560Y-34124000D01*
X105104843Y-34371765D01*
X105245191Y-34581809D01*
X105455235Y-34722157D01*
X105500619Y-34731184D01*
X105482375Y-34743375D01*
X105154161Y-35234582D01*
X105038908Y-35814000D01*
X105111791Y-36180408D01*
X104893527Y-36398672D01*
X104830071Y-36441072D01*
X104787671Y-36504528D01*
X104787670Y-36504529D01*
X104662096Y-36692464D01*
X104603111Y-36989001D01*
X104618000Y-37063853D01*
X104617999Y-53106152D01*
X104603111Y-53180999D01*
X104617999Y-53255846D01*
X104617999Y-53255850D01*
X104662095Y-53477535D01*
X104830070Y-53728928D01*
X104893529Y-53771330D01*
X115900672Y-64778474D01*
X115943072Y-64841930D01*
X116194464Y-65009905D01*
X116416149Y-65054001D01*
X116416153Y-65054001D01*
X116491000Y-65068889D01*
X116565847Y-65054001D01*
X171597152Y-65054001D01*
X171621237Y-65058792D01*
X134785836Y-65178000D01*
X104113000Y-65178000D01*
X104113000Y-47755402D01*
X104217531Y-29305561D01*
X119596000Y-29305561D01*
X119596000Y-29876439D01*
X119814466Y-30403862D01*
X120218138Y-30807534D01*
X120745561Y-31026000D01*
X121316439Y-31026000D01*
X121843862Y-30807534D01*
X122247534Y-30403862D01*
X122466000Y-29876439D01*
X122466000Y-29591000D01*
X124647887Y-29591000D01*
X124759260Y-30150909D01*
X125076423Y-30625577D01*
X125551091Y-30942740D01*
X125969667Y-31026000D01*
X126252333Y-31026000D01*
X126670909Y-30942740D01*
X127145577Y-30625577D01*
X127462740Y-30150909D01*
X127574113Y-29591000D01*
X127462740Y-29031091D01*
X127145577Y-28556423D01*
X126670909Y-28239260D01*
X126252333Y-28156000D01*
X125969667Y-28156000D01*
X125551091Y-28239260D01*
X125076423Y-28556423D01*
X124759260Y-29031091D01*
X124647887Y-29591000D01*
X122466000Y-29591000D01*
X122466000Y-29305561D01*
X122247534Y-28778138D01*
X121843862Y-28374466D01*
X121316439Y-28156000D01*
X120745561Y-28156000D01*
X120218138Y-28374466D01*
X119814466Y-28778138D01*
X119596000Y-29305561D01*
X104217531Y-29305561D01*
X104250935Y-23409754D01*
X133968000Y-23409754D01*
X133968000Y-24088245D01*
X134035305Y-24426608D01*
X134291687Y-24810313D01*
X134675391Y-25066695D01*
X135128000Y-25156725D01*
X135580608Y-25066695D01*
X135763000Y-24944825D01*
X135945391Y-25066695D01*
X136398000Y-25156725D01*
X136849866Y-25066842D01*
X136895235Y-25097157D01*
X137143000Y-25146440D01*
X138193000Y-25146440D01*
X138440765Y-25097157D01*
X138650809Y-24956809D01*
X138751116Y-24806690D01*
X169711000Y-24806690D01*
X169711000Y-25622250D01*
X169869750Y-25781000D01*
X171069000Y-25781000D01*
X171069000Y-24456750D01*
X171323000Y-24456750D01*
X171323000Y-25781000D01*
X171343000Y-25781000D01*
X171343000Y-26035000D01*
X171323000Y-26035000D01*
X171323000Y-27359250D01*
X171481750Y-27518000D01*
X172172309Y-27518000D01*
X172405698Y-27421327D01*
X172584327Y-27242699D01*
X172638344Y-27112291D01*
X173116583Y-27431839D01*
X173696000Y-27547092D01*
X174275418Y-27431839D01*
X174766625Y-27103625D01*
X174946000Y-26835171D01*
X175125375Y-27103625D01*
X175616583Y-27431839D01*
X176196000Y-27547092D01*
X176775418Y-27431839D01*
X177266625Y-27103625D01*
X177594839Y-26612417D01*
X177681000Y-26179255D01*
X177681000Y-25636744D01*
X177594839Y-25203582D01*
X177266625Y-24712375D01*
X176775417Y-24384161D01*
X176196000Y-24268908D01*
X175616582Y-24384161D01*
X175125375Y-24712375D01*
X174946000Y-24980829D01*
X174766625Y-24712375D01*
X174275417Y-24384161D01*
X173696000Y-24268908D01*
X173116582Y-24384161D01*
X172638344Y-24703709D01*
X172584327Y-24573301D01*
X172405698Y-24394673D01*
X172172309Y-24298000D01*
X171481750Y-24298000D01*
X171323000Y-24456750D01*
X171069000Y-24456750D01*
X170910250Y-24298000D01*
X170219691Y-24298000D01*
X169986302Y-24394673D01*
X169807673Y-24573301D01*
X169711000Y-24806690D01*
X138751116Y-24806690D01*
X138791157Y-24746765D01*
X138840440Y-24499000D01*
X138840440Y-22999000D01*
X138791157Y-22751235D01*
X138650809Y-22541191D01*
X138440765Y-22400843D01*
X138193000Y-22351560D01*
X137143000Y-22351560D01*
X136895235Y-22400843D01*
X136849867Y-22431157D01*
X136398000Y-22341275D01*
X135945392Y-22431305D01*
X135763001Y-22553175D01*
X135580609Y-22431305D01*
X135128000Y-22341275D01*
X134675392Y-22431305D01*
X134291688Y-22687687D01*
X134035305Y-23071391D01*
X133968000Y-23409754D01*
X104250935Y-23409754D01*
X104264419Y-21030000D01*
X181993597Y-21030000D01*
X182018000Y-25312807D01*
X182018000Y-25312807D01*
G37*
X182018000Y-25312807D02*
X182018001Y-65025145D01*
X171724440Y-65058458D01*
X171746846Y-65054001D01*
X171746851Y-65054001D01*
X171968536Y-65009905D01*
X172219928Y-64841930D01*
X172262330Y-64778471D01*
X172480592Y-64560209D01*
X172700744Y-64604000D01*
X172993256Y-64604000D01*
X173426418Y-64517839D01*
X173917625Y-64189625D01*
X174245839Y-63698418D01*
X174361092Y-63119000D01*
X174288209Y-62752592D01*
X177098802Y-59942000D01*
X178720570Y-59942000D01*
X178742466Y-59994862D01*
X179146138Y-60398534D01*
X179673561Y-60617000D01*
X180244439Y-60617000D01*
X180771862Y-60398534D01*
X181175534Y-59994862D01*
X181394000Y-59467439D01*
X181394000Y-58896561D01*
X181175534Y-58369138D01*
X180771862Y-57965466D01*
X180244439Y-57747000D01*
X179673561Y-57747000D01*
X179146138Y-57965466D01*
X178742466Y-58369138D01*
X178720570Y-58422000D01*
X176858848Y-58422000D01*
X176784000Y-58407112D01*
X176709152Y-58422000D01*
X176709148Y-58422000D01*
X176535605Y-58456520D01*
X176487462Y-58466096D01*
X176424749Y-58508000D01*
X176236071Y-58634071D01*
X176233799Y-58637471D01*
X176230740Y-58622091D01*
X175913577Y-58147423D01*
X175639000Y-57963957D01*
X175639000Y-55574043D01*
X175913577Y-55390577D01*
X176230740Y-54915909D01*
X176342113Y-54356000D01*
X176230740Y-53796091D01*
X175913577Y-53321423D01*
X175438909Y-53004260D01*
X175020333Y-52921000D01*
X174737667Y-52921000D01*
X174555113Y-52957312D01*
X174326331Y-52728530D01*
X174283929Y-52665071D01*
X174032537Y-52497096D01*
X173810852Y-52453000D01*
X173810847Y-52453000D01*
X173736000Y-52438112D01*
X173661153Y-52453000D01*
X172897440Y-52453000D01*
X172897440Y-52413000D01*
X172848157Y-52165235D01*
X172707809Y-51955191D01*
X172497765Y-51814843D01*
X172363894Y-51788215D01*
X172484577Y-51707577D01*
X172801740Y-51232909D01*
X172812463Y-51179000D01*
X175672570Y-51179000D01*
X175694466Y-51231862D01*
X176098138Y-51635534D01*
X176260838Y-51702927D01*
X176363071Y-51855929D01*
X176426530Y-51898331D01*
X178545897Y-54017698D01*
X178524000Y-54070561D01*
X178524000Y-54641439D01*
X178742466Y-55168862D01*
X179146138Y-55572534D01*
X179673561Y-55791000D01*
X180244439Y-55791000D01*
X180771862Y-55572534D01*
X181175534Y-55168862D01*
X181394000Y-54641439D01*
X181394000Y-54070561D01*
X181175534Y-53543138D01*
X180771862Y-53139466D01*
X180244439Y-52921000D01*
X179673561Y-52921000D01*
X179620698Y-52942897D01*
X178018599Y-51340797D01*
X178127534Y-51231862D01*
X178346000Y-50704439D01*
X178346000Y-50133561D01*
X178127534Y-49606138D01*
X177723862Y-49202466D01*
X177196439Y-48984000D01*
X176625561Y-48984000D01*
X176098138Y-49202466D01*
X175694466Y-49606138D01*
X175672570Y-49659000D01*
X172498326Y-49659000D01*
X172484577Y-49638423D01*
X172132242Y-49403000D01*
X172484577Y-49167577D01*
X172801740Y-48692909D01*
X172913113Y-48133000D01*
X172801740Y-47573091D01*
X172484577Y-47098423D01*
X172132242Y-46863000D01*
X172484577Y-46627577D01*
X172801740Y-46152909D01*
X172913113Y-45593000D01*
X172862590Y-45339000D01*
X175447887Y-45339000D01*
X175559260Y-45898909D01*
X175876423Y-46373577D01*
X176351091Y-46690740D01*
X176769667Y-46774000D01*
X177052333Y-46774000D01*
X177470909Y-46690740D01*
X177945577Y-46373577D01*
X178262740Y-45898909D01*
X178374113Y-45339000D01*
X178262740Y-44779091D01*
X177945577Y-44304423D01*
X177470909Y-43987260D01*
X177052333Y-43904000D01*
X176769667Y-43904000D01*
X176351091Y-43987260D01*
X175876423Y-44304423D01*
X175559260Y-44779091D01*
X175447887Y-45339000D01*
X172862590Y-45339000D01*
X172801740Y-45033091D01*
X172484577Y-44558423D01*
X172009909Y-44241260D01*
X171591333Y-44158000D01*
X171308667Y-44158000D01*
X170890091Y-44241260D01*
X170611328Y-44427523D01*
X167554365Y-41370561D01*
X168665000Y-41370561D01*
X168665000Y-41941439D01*
X168883466Y-42468862D01*
X169287138Y-42872534D01*
X169814561Y-43091000D01*
X170385439Y-43091000D01*
X170912862Y-42872534D01*
X171316534Y-42468862D01*
X171535000Y-41941439D01*
X171535000Y-41370561D01*
X171316534Y-40843138D01*
X170912862Y-40439466D01*
X170385439Y-40221000D01*
X169814561Y-40221000D01*
X169287138Y-40439466D01*
X168883466Y-40843138D01*
X168665000Y-41370561D01*
X167554365Y-41370561D01*
X165361332Y-39177529D01*
X165318930Y-39114070D01*
X165067538Y-38946095D01*
X164845853Y-38901999D01*
X164845848Y-38901999D01*
X164771001Y-38887111D01*
X164696154Y-38901999D01*
X162999157Y-38901999D01*
X163007113Y-38862000D01*
X162895740Y-38302091D01*
X162578577Y-37827423D01*
X162103909Y-37510260D01*
X161685333Y-37427000D01*
X161402667Y-37427000D01*
X160984091Y-37510260D01*
X160509423Y-37827423D01*
X160192260Y-38302091D01*
X160080887Y-38862000D01*
X160192260Y-39421909D01*
X160509423Y-39896577D01*
X160984091Y-40213740D01*
X161402667Y-40297000D01*
X161685333Y-40297000D01*
X161871084Y-40260052D01*
X161984901Y-40336101D01*
X162047462Y-40377903D01*
X162269147Y-40421999D01*
X162269151Y-40421999D01*
X162343998Y-40436887D01*
X162418845Y-40421999D01*
X164329307Y-40421999D01*
X164287138Y-40439466D01*
X163883466Y-40843138D01*
X163665000Y-41370561D01*
X163665000Y-41941439D01*
X163883466Y-42468862D01*
X164287138Y-42872534D01*
X164814561Y-43091000D01*
X165385439Y-43091000D01*
X165912862Y-42872534D01*
X166316534Y-42468862D01*
X166371167Y-42336967D01*
X169564999Y-45530800D01*
X169565000Y-49473147D01*
X169550111Y-49547999D01*
X169609096Y-49844536D01*
X169722644Y-50014472D01*
X169777071Y-50095928D01*
X169840527Y-50138328D01*
X170051312Y-50349113D01*
X169986887Y-50673000D01*
X170098260Y-51232909D01*
X170415423Y-51707577D01*
X170536106Y-51788215D01*
X170402235Y-51814843D01*
X170192191Y-51955191D01*
X170051843Y-52165235D01*
X170002560Y-52413000D01*
X170002560Y-54013000D01*
X170051843Y-54260765D01*
X170192191Y-54470809D01*
X170402235Y-54611157D01*
X170650000Y-54660440D01*
X172250000Y-54660440D01*
X172497765Y-54611157D01*
X172707809Y-54470809D01*
X172848157Y-54260765D01*
X172897440Y-54013000D01*
X172897440Y-53973000D01*
X173421199Y-53973000D01*
X173480312Y-54032113D01*
X173415887Y-54356000D01*
X173527260Y-54915909D01*
X173844423Y-55390577D01*
X174119001Y-55574044D01*
X174119000Y-57963956D01*
X173844423Y-58147423D01*
X173527260Y-58622091D01*
X173415887Y-59182000D01*
X173527260Y-59741909D01*
X173844423Y-60216577D01*
X174319091Y-60533740D01*
X174351093Y-60540106D01*
X173213408Y-61677791D01*
X172993256Y-61634000D01*
X172700744Y-61634000D01*
X172267582Y-61720161D01*
X171776375Y-62048375D01*
X171764184Y-62066619D01*
X171755157Y-62021235D01*
X171614809Y-61811191D01*
X171404765Y-61670843D01*
X171157000Y-61621560D01*
X171067000Y-61621560D01*
X171067000Y-59150430D01*
X171119862Y-59128534D01*
X171523534Y-58724862D01*
X171742000Y-58197439D01*
X171742000Y-57626561D01*
X171523534Y-57099138D01*
X171119862Y-56695466D01*
X170592439Y-56477000D01*
X170021561Y-56477000D01*
X169494138Y-56695466D01*
X169090466Y-57099138D01*
X168872000Y-57626561D01*
X168872000Y-58197439D01*
X169090466Y-58724862D01*
X169494138Y-59128534D01*
X169547000Y-59150430D01*
X169547001Y-61621560D01*
X169457000Y-61621560D01*
X169209235Y-61670843D01*
X168999191Y-61811191D01*
X168858843Y-62021235D01*
X168809560Y-62269000D01*
X168809560Y-63534001D01*
X139605496Y-63534001D01*
X139682529Y-63482529D01*
X139988641Y-63024400D01*
X140096133Y-62484000D01*
X140095735Y-62482000D01*
X154423822Y-62482000D01*
X154631375Y-62792625D01*
X155122582Y-63120839D01*
X155555744Y-63207000D01*
X155848256Y-63207000D01*
X156281418Y-63120839D01*
X156772625Y-62792625D01*
X157100839Y-62301418D01*
X157216092Y-61722000D01*
X157100839Y-61142582D01*
X156772625Y-60651375D01*
X156474239Y-60452000D01*
X156772625Y-60252625D01*
X157100839Y-59761418D01*
X157216092Y-59182000D01*
X157163927Y-58919745D01*
X164478861Y-58919745D01*
X164552995Y-59165864D01*
X165090223Y-59358965D01*
X165660454Y-59331778D01*
X166061005Y-59165864D01*
X166135139Y-58919745D01*
X165307000Y-58091605D01*
X164478861Y-58919745D01*
X157163927Y-58919745D01*
X157100839Y-58602582D01*
X156772625Y-58111375D01*
X156754381Y-58099184D01*
X156799765Y-58090157D01*
X157009809Y-57949809D01*
X157150157Y-57739765D01*
X157159016Y-57695223D01*
X163860035Y-57695223D01*
X163887222Y-58265454D01*
X164053136Y-58666005D01*
X164299255Y-58740139D01*
X165127395Y-57912000D01*
X165486605Y-57912000D01*
X166314745Y-58740139D01*
X166560864Y-58666005D01*
X166753965Y-58128777D01*
X166726778Y-57558546D01*
X166560864Y-57157995D01*
X166314745Y-57083861D01*
X165486605Y-57912000D01*
X165127395Y-57912000D01*
X164299255Y-57083861D01*
X164053136Y-57157995D01*
X163860035Y-57695223D01*
X157159016Y-57695223D01*
X157199440Y-57492000D01*
X157199440Y-56904255D01*
X164478861Y-56904255D01*
X165307000Y-57732395D01*
X166135139Y-56904255D01*
X166061005Y-56658136D01*
X165523777Y-56465035D01*
X164953546Y-56492222D01*
X164552995Y-56658136D01*
X164478861Y-56904255D01*
X157199440Y-56904255D01*
X157199440Y-55792000D01*
X157150157Y-55544235D01*
X157009809Y-55334191D01*
X156799765Y-55193843D01*
X156552000Y-55144560D01*
X154852000Y-55144560D01*
X154604235Y-55193843D01*
X154394191Y-55334191D01*
X154253843Y-55544235D01*
X154204560Y-55792000D01*
X154204560Y-57492000D01*
X154253843Y-57739765D01*
X154394191Y-57949809D01*
X154604235Y-58090157D01*
X154649619Y-58099184D01*
X154631375Y-58111375D01*
X154303161Y-58602582D01*
X154187908Y-59182000D01*
X154303161Y-59761418D01*
X154631375Y-60252625D01*
X154929761Y-60452000D01*
X154631375Y-60651375D01*
X154423822Y-60962000D01*
X139827804Y-60962000D01*
X135912333Y-57046530D01*
X135869931Y-56983071D01*
X135618539Y-56815096D01*
X135396854Y-56771000D01*
X135396849Y-56771000D01*
X135322002Y-56756112D01*
X135247155Y-56771000D01*
X133634229Y-56771000D01*
X133685740Y-56693909D01*
X133797113Y-56134000D01*
X133685740Y-55574091D01*
X133368577Y-55099423D01*
X132893909Y-54782260D01*
X132475333Y-54699000D01*
X132192667Y-54699000D01*
X131774091Y-54782260D01*
X131299423Y-55099423D01*
X130982260Y-55574091D01*
X130870887Y-56134000D01*
X130878843Y-56173999D01*
X129194722Y-56173999D01*
X129362695Y-55922608D01*
X129430000Y-55584245D01*
X129430000Y-54905754D01*
X129362695Y-54567391D01*
X129106313Y-54183687D01*
X128722608Y-53927305D01*
X128270000Y-53837275D01*
X127817391Y-53927305D01*
X127635000Y-54049175D01*
X127452608Y-53927305D01*
X127000000Y-53837275D01*
X126548133Y-53927157D01*
X126502765Y-53896843D01*
X126490000Y-53894304D01*
X126490000Y-50405304D01*
X126700740Y-50089909D01*
X126812113Y-49530000D01*
X126700740Y-48970091D01*
X126623839Y-48855001D01*
X127597000Y-48855001D01*
X127597000Y-49180439D01*
X127815466Y-49707862D01*
X128219138Y-50111534D01*
X128746561Y-50330000D01*
X129317439Y-50330000D01*
X129844862Y-50111534D01*
X130248534Y-49707862D01*
X130270430Y-49655000D01*
X131701001Y-49655000D01*
X131701000Y-51212570D01*
X131648138Y-51234466D01*
X131244466Y-51638138D01*
X131026000Y-52165561D01*
X131026000Y-52736439D01*
X131244466Y-53263862D01*
X131648138Y-53667534D01*
X132175561Y-53886000D01*
X132746439Y-53886000D01*
X133273862Y-53667534D01*
X133677534Y-53263862D01*
X133896000Y-52736439D01*
X133896000Y-52165561D01*
X133677534Y-51638138D01*
X133273862Y-51234466D01*
X133221000Y-51212570D01*
X133221000Y-49622463D01*
X133274909Y-49611740D01*
X133749577Y-49294577D01*
X133933043Y-49020000D01*
X137720153Y-49020000D01*
X137795000Y-49034888D01*
X137869847Y-49020000D01*
X137869852Y-49020000D01*
X138091537Y-48975904D01*
X138342929Y-48807929D01*
X138385331Y-48744470D01*
X138872405Y-48257397D01*
X138871887Y-48260000D01*
X138936312Y-48583886D01*
X137861199Y-49659000D01*
X136212711Y-49659000D01*
X136095280Y-49541569D01*
X135714874Y-49384000D01*
X135303126Y-49384000D01*
X134922720Y-49541569D01*
X134631569Y-49832720D01*
X134474000Y-50213126D01*
X134474000Y-50624874D01*
X134631569Y-51005280D01*
X134749001Y-51122712D01*
X134749000Y-54045667D01*
X134716113Y-54211001D01*
X134775098Y-54507538D01*
X134943072Y-54758930D01*
X135006530Y-54801331D01*
X136000897Y-55795698D01*
X135979000Y-55848561D01*
X135979000Y-56419439D01*
X136197466Y-56946862D01*
X136601138Y-57350534D01*
X137128561Y-57569000D01*
X137699439Y-57569000D01*
X138226862Y-57350534D01*
X138630534Y-56946862D01*
X138849000Y-56419439D01*
X138849000Y-55848561D01*
X138630534Y-55321138D01*
X138226862Y-54917466D01*
X137699439Y-54699000D01*
X137128561Y-54699000D01*
X137075698Y-54720897D01*
X136269000Y-53914199D01*
X136269000Y-53130248D01*
X136506423Y-53485577D01*
X136981091Y-53802740D01*
X137399667Y-53886000D01*
X137682333Y-53886000D01*
X138100909Y-53802740D01*
X138575577Y-53485577D01*
X138892740Y-53010909D01*
X139004113Y-52451000D01*
X138952191Y-52189973D01*
X139000191Y-52261809D01*
X139210235Y-52402157D01*
X139448000Y-52449451D01*
X139448001Y-56186148D01*
X139433112Y-56261000D01*
X139492097Y-56557537D01*
X139584727Y-56696167D01*
X139660072Y-56808929D01*
X139723528Y-56851329D01*
X140161199Y-57289000D01*
X140071593Y-57289000D01*
X139667600Y-57369359D01*
X139209471Y-57675471D01*
X138903359Y-58133600D01*
X138795867Y-58674000D01*
X138903359Y-59214400D01*
X139209471Y-59672529D01*
X139667600Y-59978641D01*
X140071593Y-60059000D01*
X140344407Y-60059000D01*
X140748400Y-59978641D01*
X141206529Y-59672529D01*
X141414500Y-59361278D01*
X141622471Y-59672529D01*
X142080600Y-59978641D01*
X142484593Y-60059000D01*
X142757407Y-60059000D01*
X143161400Y-59978641D01*
X143619529Y-59672529D01*
X143925641Y-59214400D01*
X144033133Y-58674000D01*
X143925641Y-58133600D01*
X143785591Y-57924000D01*
X148843560Y-57924000D01*
X148843560Y-59424000D01*
X148892843Y-59671765D01*
X149033191Y-59881809D01*
X149243235Y-60022157D01*
X149491000Y-60071440D01*
X150991000Y-60071440D01*
X151238765Y-60022157D01*
X151448809Y-59881809D01*
X151589157Y-59671765D01*
X151638440Y-59424000D01*
X151638440Y-57924000D01*
X151589157Y-57676235D01*
X151448809Y-57466191D01*
X151238765Y-57325843D01*
X150991000Y-57276560D01*
X149491000Y-57276560D01*
X149243235Y-57325843D01*
X149033191Y-57466191D01*
X148892843Y-57676235D01*
X148843560Y-57924000D01*
X143785591Y-57924000D01*
X143619529Y-57675471D01*
X143161400Y-57369359D01*
X142757407Y-57289000D01*
X142484593Y-57289000D01*
X142339636Y-57317834D01*
X140968000Y-55946199D01*
X140968000Y-53625750D01*
X158712000Y-53625750D01*
X158712000Y-54266309D01*
X158808673Y-54499698D01*
X158987301Y-54678327D01*
X159220690Y-54775000D01*
X159861250Y-54775000D01*
X160020000Y-54616250D01*
X160020000Y-53467000D01*
X160274000Y-53467000D01*
X160274000Y-54616250D01*
X160432750Y-54775000D01*
X161073310Y-54775000D01*
X161306699Y-54678327D01*
X161485327Y-54499698D01*
X161582000Y-54266309D01*
X161582000Y-53625750D01*
X161518289Y-53562039D01*
X162438096Y-53562039D01*
X162598959Y-53950423D01*
X162974866Y-54365389D01*
X163480959Y-54604914D01*
X163703000Y-54483629D01*
X163703000Y-53340000D01*
X163957000Y-53340000D01*
X163957000Y-54483629D01*
X164179041Y-54604914D01*
X164685134Y-54365389D01*
X165061041Y-53950423D01*
X165221904Y-53562039D01*
X165099915Y-53340000D01*
X163957000Y-53340000D01*
X163703000Y-53340000D01*
X162560085Y-53340000D01*
X162438096Y-53562039D01*
X161518289Y-53562039D01*
X161423250Y-53467000D01*
X160274000Y-53467000D01*
X160020000Y-53467000D01*
X158870750Y-53467000D01*
X158712000Y-53625750D01*
X140968000Y-53625750D01*
X140968000Y-52449451D01*
X141205765Y-52402157D01*
X141415809Y-52261809D01*
X141543972Y-52070000D01*
X142427887Y-52070000D01*
X142539260Y-52629909D01*
X142856423Y-53104577D01*
X143331091Y-53421740D01*
X143749667Y-53505000D01*
X144032333Y-53505000D01*
X144450909Y-53421740D01*
X144925577Y-53104577D01*
X145242740Y-52629909D01*
X145354113Y-52070000D01*
X145297336Y-51784561D01*
X147536000Y-51784561D01*
X147536000Y-52355439D01*
X147754466Y-52882862D01*
X148158138Y-53286534D01*
X148685561Y-53505000D01*
X149256439Y-53505000D01*
X149783862Y-53286534D01*
X150187534Y-52882862D01*
X150381871Y-52413691D01*
X158712000Y-52413691D01*
X158712000Y-53054250D01*
X158870750Y-53213000D01*
X160020000Y-53213000D01*
X160020000Y-52063750D01*
X160274000Y-52063750D01*
X160274000Y-53213000D01*
X161423250Y-53213000D01*
X161582000Y-53054250D01*
X161582000Y-52413691D01*
X161485327Y-52180302D01*
X161306699Y-52001673D01*
X161073310Y-51905000D01*
X160432750Y-51905000D01*
X160274000Y-52063750D01*
X160020000Y-52063750D01*
X159861250Y-51905000D01*
X159220690Y-51905000D01*
X158987301Y-52001673D01*
X158808673Y-52180302D01*
X158712000Y-52413691D01*
X150381871Y-52413691D01*
X150406000Y-52355439D01*
X150406000Y-51784561D01*
X150187534Y-51257138D01*
X149783862Y-50853466D01*
X149256439Y-50635000D01*
X148685561Y-50635000D01*
X148158138Y-50853466D01*
X147754466Y-51257138D01*
X147536000Y-51784561D01*
X145297336Y-51784561D01*
X145242740Y-51510091D01*
X144925577Y-51035423D01*
X144450909Y-50718260D01*
X144032333Y-50635000D01*
X143749667Y-50635000D01*
X143331091Y-50718260D01*
X142856423Y-51035423D01*
X142539260Y-51510091D01*
X142427887Y-52070000D01*
X141543972Y-52070000D01*
X141556157Y-52051765D01*
X141605440Y-51804000D01*
X141605440Y-50304000D01*
X141556157Y-50056235D01*
X141415809Y-49846191D01*
X141205765Y-49705843D01*
X140958000Y-49656560D01*
X140669584Y-49656560D01*
X140894909Y-49611740D01*
X141369577Y-49294577D01*
X141553043Y-49020000D01*
X142672957Y-49020000D01*
X142856423Y-49294577D01*
X143331091Y-49611740D01*
X143749667Y-49695000D01*
X144032333Y-49695000D01*
X144450909Y-49611740D01*
X144925577Y-49294577D01*
X145242740Y-48819909D01*
X145354113Y-48260000D01*
X145297336Y-47974561D01*
X147536000Y-47974561D01*
X147536000Y-48545439D01*
X147754466Y-49072862D01*
X148158138Y-49476534D01*
X148685561Y-49695000D01*
X149256439Y-49695000D01*
X149783862Y-49476534D01*
X150187534Y-49072862D01*
X150406000Y-48545439D01*
X150406000Y-47974561D01*
X150187534Y-47447138D01*
X149783862Y-47043466D01*
X149256439Y-46825000D01*
X148685561Y-46825000D01*
X148158138Y-47043466D01*
X147754466Y-47447138D01*
X147536000Y-47974561D01*
X145297336Y-47974561D01*
X145242740Y-47700091D01*
X144925577Y-47225423D01*
X144450909Y-46908260D01*
X144032333Y-46825000D01*
X143749667Y-46825000D01*
X143331091Y-46908260D01*
X142856423Y-47225423D01*
X142672957Y-47500000D01*
X141553043Y-47500000D01*
X141369577Y-47225423D01*
X141017242Y-46990000D01*
X141369577Y-46754577D01*
X141553043Y-46480000D01*
X145735155Y-46480000D01*
X145810002Y-46494888D01*
X145884849Y-46480000D01*
X145884854Y-46480000D01*
X146106539Y-46435904D01*
X146357931Y-46267929D01*
X146400333Y-46204470D01*
X147670838Y-44933966D01*
X147754466Y-45135862D01*
X148158138Y-45539534D01*
X148685561Y-45758000D01*
X149256439Y-45758000D01*
X149783862Y-45539534D01*
X150187534Y-45135862D01*
X150406000Y-44608439D01*
X150406000Y-44037561D01*
X150187534Y-43510138D01*
X149783862Y-43106466D01*
X149581966Y-43022838D01*
X149934804Y-42670000D01*
X151669570Y-42670000D01*
X151691466Y-42722862D01*
X152095138Y-43126534D01*
X152622561Y-43345000D01*
X153193439Y-43345000D01*
X153720862Y-43126534D01*
X153926000Y-42921396D01*
X153926000Y-44502153D01*
X153911112Y-44577000D01*
X153926000Y-44651847D01*
X153926000Y-44651851D01*
X153970096Y-44873536D01*
X154138071Y-45124929D01*
X154201530Y-45167331D01*
X154415897Y-45381698D01*
X154394000Y-45434561D01*
X154394000Y-46005439D01*
X154612466Y-46532862D01*
X155016138Y-46936534D01*
X155543561Y-47155000D01*
X156114439Y-47155000D01*
X156167302Y-47133104D01*
X157651673Y-48617476D01*
X157694071Y-48680929D01*
X157757524Y-48723327D01*
X157757526Y-48723329D01*
X157832031Y-48773111D01*
X157945463Y-48848904D01*
X158167148Y-48893000D01*
X158167152Y-48893000D01*
X158241999Y-48907888D01*
X158316846Y-48893000D01*
X162611957Y-48893000D01*
X162795423Y-49167577D01*
X163147758Y-49403000D01*
X162795423Y-49638423D01*
X162527098Y-50040000D01*
X157047043Y-50040000D01*
X156863577Y-49765423D01*
X156388909Y-49448260D01*
X155970333Y-49365000D01*
X155687667Y-49365000D01*
X155269091Y-49448260D01*
X154794423Y-49765423D01*
X154477260Y-50240091D01*
X154365887Y-50800000D01*
X154477260Y-51359909D01*
X154794423Y-51834577D01*
X155269091Y-52151740D01*
X155687667Y-52235000D01*
X155970333Y-52235000D01*
X156388909Y-52151740D01*
X156863577Y-51834577D01*
X157047043Y-51560000D01*
X162696815Y-51560000D01*
X162795423Y-51707577D01*
X163179108Y-51963947D01*
X162974866Y-52060611D01*
X162598959Y-52475577D01*
X162438096Y-52863961D01*
X162560085Y-53086000D01*
X163703000Y-53086000D01*
X163703000Y-53066000D01*
X163957000Y-53066000D01*
X163957000Y-53086000D01*
X165099915Y-53086000D01*
X165221904Y-52863961D01*
X165061041Y-52475577D01*
X164685134Y-52060611D01*
X164480892Y-51963947D01*
X164864577Y-51707577D01*
X165181740Y-51232909D01*
X165293113Y-50673000D01*
X165181740Y-50113091D01*
X164864577Y-49638423D01*
X164512242Y-49403000D01*
X164864577Y-49167577D01*
X165181740Y-48692909D01*
X165293113Y-48133000D01*
X165181740Y-47573091D01*
X164864577Y-47098423D01*
X164512242Y-46863000D01*
X164864577Y-46627577D01*
X165181740Y-46152909D01*
X165293113Y-45593000D01*
X165181740Y-45033091D01*
X164864577Y-44558423D01*
X164389909Y-44241260D01*
X163971333Y-44158000D01*
X163688667Y-44158000D01*
X163270091Y-44241260D01*
X162795423Y-44558423D01*
X162478260Y-45033091D01*
X162366887Y-45593000D01*
X162478260Y-46152909D01*
X162795423Y-46627577D01*
X163147758Y-46863000D01*
X162795423Y-47098423D01*
X162611957Y-47373000D01*
X158556803Y-47373000D01*
X157242104Y-46058302D01*
X157264000Y-46005439D01*
X157264000Y-45434561D01*
X157045534Y-44907138D01*
X156641862Y-44503466D01*
X156114439Y-44285000D01*
X155543561Y-44285000D01*
X155490698Y-44306897D01*
X155446000Y-44262199D01*
X155446000Y-43180000D01*
X158683887Y-43180000D01*
X158795260Y-43739909D01*
X159112423Y-44214577D01*
X159587091Y-44531740D01*
X160005667Y-44615000D01*
X160288333Y-44615000D01*
X160706909Y-44531740D01*
X161181577Y-44214577D01*
X161498740Y-43739909D01*
X161610113Y-43180000D01*
X161498740Y-42620091D01*
X161181577Y-42145423D01*
X160706909Y-41828260D01*
X160288333Y-41745000D01*
X160005667Y-41745000D01*
X159587091Y-41828260D01*
X159112423Y-42145423D01*
X158795260Y-42620091D01*
X158683887Y-43180000D01*
X155446000Y-43180000D01*
X155446000Y-39873396D01*
X155651138Y-40078534D01*
X156178561Y-40297000D01*
X156749439Y-40297000D01*
X157276862Y-40078534D01*
X157680534Y-39674862D01*
X157899000Y-39147439D01*
X157899000Y-38576561D01*
X157680534Y-38049138D01*
X157276862Y-37645466D01*
X156749439Y-37427000D01*
X156178561Y-37427000D01*
X155651138Y-37645466D01*
X155446000Y-37850604D01*
X155446000Y-37017845D01*
X155460888Y-36942998D01*
X155446000Y-36868151D01*
X155446000Y-36868146D01*
X155401904Y-36646461D01*
X155233929Y-36395069D01*
X155170473Y-36352669D01*
X154409554Y-35591750D01*
X163411000Y-35591750D01*
X163411000Y-36232309D01*
X163507673Y-36465698D01*
X163686301Y-36644327D01*
X163919690Y-36741000D01*
X164560250Y-36741000D01*
X164719000Y-36582250D01*
X164719000Y-35433000D01*
X164973000Y-35433000D01*
X164973000Y-36582250D01*
X165131750Y-36741000D01*
X165772310Y-36741000D01*
X166005699Y-36644327D01*
X166184327Y-36465698D01*
X166253647Y-36298343D01*
X168361000Y-36298343D01*
X168361000Y-36789657D01*
X168549018Y-37243571D01*
X168896429Y-37590982D01*
X169350343Y-37779000D01*
X169841657Y-37779000D01*
X170295571Y-37590982D01*
X170642982Y-37243571D01*
X170831000Y-36789657D01*
X170831000Y-36298343D01*
X170771211Y-36154000D01*
X170910250Y-36154000D01*
X171069000Y-35995250D01*
X171069000Y-34671000D01*
X169869750Y-34671000D01*
X169711000Y-34829750D01*
X169711000Y-35309000D01*
X169350343Y-35309000D01*
X168896429Y-35497018D01*
X168549018Y-35844429D01*
X168361000Y-36298343D01*
X166253647Y-36298343D01*
X166281000Y-36232309D01*
X166281000Y-35591750D01*
X166122250Y-35433000D01*
X164973000Y-35433000D01*
X164719000Y-35433000D01*
X163569750Y-35433000D01*
X163411000Y-35591750D01*
X154409554Y-35591750D01*
X152597803Y-33780000D01*
X154103153Y-33780000D01*
X154178000Y-33794888D01*
X154252847Y-33780000D01*
X154252852Y-33780000D01*
X154474537Y-33735904D01*
X154539580Y-33692444D01*
X154793744Y-33743000D01*
X155086256Y-33743000D01*
X155519418Y-33656839D01*
X156010625Y-33328625D01*
X156022816Y-33310381D01*
X156031843Y-33355765D01*
X156172191Y-33565809D01*
X156382235Y-33706157D01*
X156630000Y-33755440D01*
X158330000Y-33755440D01*
X158577765Y-33706157D01*
X158787809Y-33565809D01*
X158928157Y-33355765D01*
X158977440Y-33108000D01*
X158977440Y-32520561D01*
X163411000Y-32520561D01*
X163411000Y-33091439D01*
X163629466Y-33618862D01*
X163892759Y-33882155D01*
X163686301Y-33967673D01*
X163507673Y-34146302D01*
X163411000Y-34379691D01*
X163411000Y-35020250D01*
X163569750Y-35179000D01*
X164719000Y-35179000D01*
X164719000Y-35159000D01*
X164973000Y-35159000D01*
X164973000Y-35179000D01*
X166122250Y-35179000D01*
X166281000Y-35020250D01*
X166281000Y-34379691D01*
X166184327Y-34146302D01*
X166005699Y-33967673D01*
X165799241Y-33882155D01*
X166062534Y-33618862D01*
X166135506Y-33442690D01*
X169711000Y-33442690D01*
X169711000Y-34258250D01*
X169869750Y-34417000D01*
X171069000Y-34417000D01*
X171069000Y-33092750D01*
X171323000Y-33092750D01*
X171323000Y-34417000D01*
X171343000Y-34417000D01*
X171343000Y-34671000D01*
X171323000Y-34671000D01*
X171323000Y-35995250D01*
X171481750Y-36154000D01*
X172172309Y-36154000D01*
X172405698Y-36057327D01*
X172584327Y-35878699D01*
X172638344Y-35748291D01*
X173116583Y-36067839D01*
X173696000Y-36183092D01*
X174275418Y-36067839D01*
X174766625Y-35739625D01*
X174946000Y-35471171D01*
X175125375Y-35739625D01*
X175616583Y-36067839D01*
X176196000Y-36183092D01*
X176775418Y-36067839D01*
X177266625Y-35739625D01*
X177594839Y-35248417D01*
X177681000Y-34815255D01*
X177681000Y-34272744D01*
X177594839Y-33839582D01*
X177266625Y-33348375D01*
X176775417Y-33020161D01*
X176196000Y-32904908D01*
X175616582Y-33020161D01*
X175125375Y-33348375D01*
X174946000Y-33616829D01*
X174766625Y-33348375D01*
X174275417Y-33020161D01*
X173696000Y-32904908D01*
X173116582Y-33020161D01*
X172638344Y-33339709D01*
X172584327Y-33209301D01*
X172405698Y-33030673D01*
X172172309Y-32934000D01*
X171481750Y-32934000D01*
X171323000Y-33092750D01*
X171069000Y-33092750D01*
X170910250Y-32934000D01*
X170219691Y-32934000D01*
X169986302Y-33030673D01*
X169807673Y-33209301D01*
X169711000Y-33442690D01*
X166135506Y-33442690D01*
X166281000Y-33091439D01*
X166281000Y-32520561D01*
X166062534Y-31993138D01*
X165658862Y-31589466D01*
X165131439Y-31371000D01*
X164560561Y-31371000D01*
X164033138Y-31589466D01*
X163629466Y-31993138D01*
X163411000Y-32520561D01*
X158977440Y-32520561D01*
X158977440Y-31408000D01*
X158928157Y-31160235D01*
X158787809Y-30950191D01*
X158577765Y-30809843D01*
X158330000Y-30760560D01*
X156630000Y-30760560D01*
X156382235Y-30809843D01*
X156172191Y-30950191D01*
X156031843Y-31160235D01*
X156022816Y-31205619D01*
X156010625Y-31187375D01*
X155519418Y-30859161D01*
X155086256Y-30773000D01*
X154793744Y-30773000D01*
X154360582Y-30859161D01*
X153869375Y-31187375D01*
X153541161Y-31678582D01*
X153425908Y-32258000D01*
X153426306Y-32260000D01*
X150837849Y-32260000D01*
X150763002Y-32245112D01*
X150688155Y-32260000D01*
X150209430Y-32260000D01*
X150187534Y-32207138D01*
X149783862Y-31803466D01*
X149731000Y-31781570D01*
X149731000Y-28769819D01*
X149814765Y-28753157D01*
X150024809Y-28612809D01*
X150165157Y-28402765D01*
X150174184Y-28357381D01*
X150186375Y-28375625D01*
X150677582Y-28703839D01*
X151110744Y-28790000D01*
X151403256Y-28790000D01*
X151836418Y-28703839D01*
X152327625Y-28375625D01*
X152527000Y-28077239D01*
X152726375Y-28375625D01*
X153217582Y-28703839D01*
X153650744Y-28790000D01*
X153943256Y-28790000D01*
X154376418Y-28703839D01*
X154867625Y-28375625D01*
X155195839Y-27884418D01*
X155311092Y-27305000D01*
X155227749Y-26886000D01*
X159842560Y-26886000D01*
X159842560Y-28486000D01*
X159891843Y-28733765D01*
X160032191Y-28943809D01*
X160242235Y-29084157D01*
X160490000Y-29133440D01*
X162090000Y-29133440D01*
X162337765Y-29084157D01*
X162547809Y-28943809D01*
X162688157Y-28733765D01*
X162708101Y-28633497D01*
X162977138Y-28902534D01*
X163504561Y-29121000D01*
X164075439Y-29121000D01*
X164602862Y-28902534D01*
X165006534Y-28498862D01*
X165225000Y-27971439D01*
X165225000Y-27662343D01*
X168361000Y-27662343D01*
X168361000Y-28153657D01*
X168549018Y-28607571D01*
X168896429Y-28954982D01*
X169350343Y-29143000D01*
X169841657Y-29143000D01*
X170295571Y-28954982D01*
X170642982Y-28607571D01*
X170831000Y-28153657D01*
X170831000Y-27662343D01*
X170771211Y-27518000D01*
X170910250Y-27518000D01*
X171069000Y-27359250D01*
X171069000Y-26035000D01*
X169869750Y-26035000D01*
X169711000Y-26193750D01*
X169711000Y-26673000D01*
X169350343Y-26673000D01*
X168896429Y-26861018D01*
X168549018Y-27208429D01*
X168361000Y-27662343D01*
X165225000Y-27662343D01*
X165225000Y-27400561D01*
X165006534Y-26873138D01*
X164602862Y-26469466D01*
X164075439Y-26251000D01*
X163504561Y-26251000D01*
X162977138Y-26469466D01*
X162708101Y-26738503D01*
X162688157Y-26638235D01*
X162547809Y-26428191D01*
X162337765Y-26287843D01*
X162090000Y-26238560D01*
X160490000Y-26238560D01*
X160242235Y-26287843D01*
X160032191Y-26428191D01*
X159891843Y-26638235D01*
X159842560Y-26886000D01*
X155227749Y-26886000D01*
X155195839Y-26725582D01*
X154867625Y-26234375D01*
X154376418Y-25906161D01*
X153943256Y-25820000D01*
X153650744Y-25820000D01*
X153217582Y-25906161D01*
X152726375Y-26234375D01*
X152527000Y-26532761D01*
X152327625Y-26234375D01*
X151836418Y-25906161D01*
X151403256Y-25820000D01*
X151110744Y-25820000D01*
X150677582Y-25906161D01*
X150186375Y-26234375D01*
X150174184Y-26252619D01*
X150165157Y-26207235D01*
X150024809Y-25997191D01*
X149814765Y-25856843D01*
X149567000Y-25807560D01*
X147867000Y-25807560D01*
X147619235Y-25856843D01*
X147409191Y-25997191D01*
X147268843Y-26207235D01*
X147219560Y-26455000D01*
X147219560Y-26545000D01*
X111828711Y-26545000D01*
X111711280Y-26427569D01*
X111330874Y-26270000D01*
X110919126Y-26270000D01*
X110538720Y-26427569D01*
X110247569Y-26718720D01*
X110090000Y-27099126D01*
X110090000Y-27510874D01*
X110247569Y-27891280D01*
X110538720Y-28182431D01*
X110919126Y-28340000D01*
X111330874Y-28340000D01*
X111711280Y-28182431D01*
X111828711Y-28065000D01*
X127742621Y-28065000D01*
X127597000Y-28416561D01*
X127597000Y-28987439D01*
X127815466Y-29514862D01*
X128219138Y-29918534D01*
X128746561Y-30137000D01*
X129317439Y-30137000D01*
X129844862Y-29918534D01*
X130248534Y-29514862D01*
X130467000Y-28987439D01*
X130467000Y-28416561D01*
X130321379Y-28065000D01*
X132811771Y-28065000D01*
X132760260Y-28142091D01*
X132648887Y-28702000D01*
X132760260Y-29261909D01*
X133077423Y-29736577D01*
X133552091Y-30053740D01*
X133970667Y-30137000D01*
X134253333Y-30137000D01*
X134671909Y-30053740D01*
X135146577Y-29736577D01*
X135463740Y-29261909D01*
X135575113Y-28702000D01*
X135463740Y-28142091D01*
X135412229Y-28065000D01*
X137799604Y-28065000D01*
X137721466Y-28143138D01*
X137503000Y-28670561D01*
X137503000Y-29241439D01*
X137721466Y-29768862D01*
X138125138Y-30172534D01*
X138178000Y-30194430D01*
X138178001Y-34088148D01*
X138163112Y-34163000D01*
X138222097Y-34459537D01*
X138303797Y-34581809D01*
X138390072Y-34710929D01*
X138453528Y-34753329D01*
X138936312Y-35236114D01*
X138871887Y-35560000D01*
X138983260Y-36119909D01*
X139300423Y-36594577D01*
X139652758Y-36830000D01*
X139300423Y-37065423D01*
X138983260Y-37540091D01*
X138871887Y-38100000D01*
X138983260Y-38659909D01*
X139300423Y-39134577D01*
X139652758Y-39370000D01*
X139300423Y-39605423D01*
X138983260Y-40080091D01*
X138871887Y-40640000D01*
X138983260Y-41199909D01*
X139300423Y-41674577D01*
X139652758Y-41910000D01*
X139300423Y-42145423D01*
X138983260Y-42620091D01*
X138871887Y-43180000D01*
X138948071Y-43563000D01*
X135304172Y-43563000D01*
X134436701Y-42695530D01*
X134394299Y-42632071D01*
X134142907Y-42464096D01*
X133934855Y-42422712D01*
X133749577Y-42145423D01*
X133365892Y-41889053D01*
X133570134Y-41792389D01*
X133946041Y-41377423D01*
X134106904Y-40989039D01*
X133984915Y-40767000D01*
X132842000Y-40767000D01*
X132842000Y-40787000D01*
X132588000Y-40787000D01*
X132588000Y-40767000D01*
X131445085Y-40767000D01*
X131323096Y-40989039D01*
X131325654Y-40995216D01*
X131300001Y-40990113D01*
X131225154Y-41005001D01*
X130345687Y-41005001D01*
X130398965Y-40856777D01*
X130371778Y-40286546D01*
X130205864Y-39885995D01*
X129959745Y-39811861D01*
X129131605Y-40640000D01*
X129145748Y-40654143D01*
X128966143Y-40833748D01*
X128952000Y-40819605D01*
X128937858Y-40833748D01*
X128758253Y-40654143D01*
X128772395Y-40640000D01*
X127944255Y-39811861D01*
X127698136Y-39885995D01*
X127505035Y-40423223D01*
X127532222Y-40993454D01*
X127537005Y-41005001D01*
X125354044Y-41005001D01*
X125387000Y-40925439D01*
X125387000Y-40354561D01*
X125168534Y-39827138D01*
X124973651Y-39632255D01*
X128123861Y-39632255D01*
X128952000Y-40460395D01*
X129780139Y-39632255D01*
X129706005Y-39386136D01*
X129168777Y-39193035D01*
X128598546Y-39220222D01*
X128197995Y-39386136D01*
X128123861Y-39632255D01*
X124973651Y-39632255D01*
X124764862Y-39423466D01*
X124237439Y-39205000D01*
X123666561Y-39205000D01*
X123139138Y-39423466D01*
X122735466Y-39827138D01*
X122517000Y-40354561D01*
X122517000Y-40925439D01*
X122549956Y-41005001D01*
X122089803Y-41005001D01*
X122063104Y-40978302D01*
X122085000Y-40925439D01*
X122085000Y-40354561D01*
X121866534Y-39827138D01*
X121462862Y-39423466D01*
X120935439Y-39205000D01*
X120364561Y-39205000D01*
X119837138Y-39423466D01*
X119433466Y-39827138D01*
X119215000Y-40354561D01*
X119215000Y-40925439D01*
X119433466Y-41452862D01*
X119837138Y-41856534D01*
X120364561Y-42075000D01*
X120935439Y-42075000D01*
X120988302Y-42053104D01*
X121184671Y-42249473D01*
X121227072Y-42312930D01*
X121290528Y-42355330D01*
X121478463Y-42480905D01*
X121526606Y-42490481D01*
X121700149Y-42525001D01*
X121700153Y-42525001D01*
X121775001Y-42539889D01*
X121849849Y-42525001D01*
X128589635Y-42525001D01*
X128219138Y-42678466D01*
X127815466Y-43082138D01*
X127793570Y-43135000D01*
X125978848Y-43135000D01*
X125904000Y-43120112D01*
X125893327Y-43122235D01*
X125634439Y-43015000D01*
X125063561Y-43015000D01*
X124536138Y-43233466D01*
X124132466Y-43637138D01*
X123914000Y-44164561D01*
X123914000Y-44735439D01*
X124132466Y-45262862D01*
X124536138Y-45666534D01*
X125063561Y-45885000D01*
X125634439Y-45885000D01*
X126161862Y-45666534D01*
X126565534Y-45262862D01*
X126784000Y-44735439D01*
X126784000Y-44655000D01*
X127793570Y-44655000D01*
X127815466Y-44707862D01*
X128219138Y-45111534D01*
X128746561Y-45330000D01*
X129317439Y-45330000D01*
X129844862Y-45111534D01*
X130248534Y-44707862D01*
X130270430Y-44655000D01*
X130575199Y-44655000D01*
X131316312Y-45396114D01*
X131251887Y-45720000D01*
X131363260Y-46279909D01*
X131680423Y-46754577D01*
X132032758Y-46990000D01*
X131680423Y-47225423D01*
X131363260Y-47700091D01*
X131276751Y-48135000D01*
X130270430Y-48135000D01*
X130248534Y-48082138D01*
X129844862Y-47678466D01*
X129317439Y-47460000D01*
X128746561Y-47460000D01*
X128686716Y-47484789D01*
X128528538Y-47379097D01*
X128306853Y-47335001D01*
X128306848Y-47335001D01*
X128232001Y-47320113D01*
X128157154Y-47335001D01*
X125193845Y-47335001D01*
X125118997Y-47320113D01*
X125044149Y-47335001D01*
X125044145Y-47335001D01*
X124870602Y-47369521D01*
X124822459Y-47379097D01*
X124641516Y-47500000D01*
X124571068Y-47547072D01*
X124528668Y-47610528D01*
X121562528Y-50576669D01*
X121499072Y-50619069D01*
X121456672Y-50682525D01*
X121456671Y-50682526D01*
X121331097Y-50870461D01*
X121272112Y-51166998D01*
X121285439Y-51233999D01*
X121012423Y-51416423D01*
X120695260Y-51891091D01*
X120583887Y-52451000D01*
X120695260Y-53010909D01*
X121012423Y-53485577D01*
X121487091Y-53802740D01*
X121905667Y-53886000D01*
X122188333Y-53886000D01*
X122606909Y-53802740D01*
X123081577Y-53485577D01*
X123398740Y-53010909D01*
X123510113Y-52451000D01*
X123398740Y-51891091D01*
X123081577Y-51416423D01*
X122956170Y-51332629D01*
X124078022Y-50210778D01*
X124314423Y-50564577D01*
X124789091Y-50881740D01*
X124970001Y-50917725D01*
X124970000Y-53894304D01*
X124957235Y-53896843D01*
X124747191Y-54037191D01*
X124606843Y-54247235D01*
X124557560Y-54495000D01*
X124557560Y-55995000D01*
X124606843Y-56242765D01*
X124747191Y-56452809D01*
X124957235Y-56593157D01*
X125205000Y-56642440D01*
X126255000Y-56642440D01*
X126340195Y-56625494D01*
X126403964Y-56720930D01*
X126437419Y-56771000D01*
X123285430Y-56771000D01*
X123263534Y-56718138D01*
X122859862Y-56314466D01*
X122800018Y-56289678D01*
X122762904Y-56103093D01*
X122594929Y-55851701D01*
X122531473Y-55809301D01*
X116820001Y-50097830D01*
X116820001Y-48609561D01*
X119215000Y-48609561D01*
X119215000Y-49180439D01*
X119433466Y-49707862D01*
X119837138Y-50111534D01*
X120364561Y-50330000D01*
X120935439Y-50330000D01*
X121462862Y-50111534D01*
X121866534Y-49707862D01*
X122085000Y-49180439D01*
X122085000Y-48609561D01*
X121866534Y-48082138D01*
X121462862Y-47678466D01*
X120935439Y-47460000D01*
X120364561Y-47460000D01*
X119837138Y-47678466D01*
X119433466Y-48082138D01*
X119215000Y-48609561D01*
X116820001Y-48609561D01*
X116820001Y-45508847D01*
X116834889Y-45433999D01*
X116820001Y-45359151D01*
X116820001Y-45359147D01*
X116775905Y-45137462D01*
X116607930Y-44886070D01*
X116544474Y-44843670D01*
X115515804Y-43815000D01*
X119186887Y-43815000D01*
X119298260Y-44374909D01*
X119615423Y-44849577D01*
X120090091Y-45166740D01*
X120508667Y-45250000D01*
X120791333Y-45250000D01*
X121209909Y-45166740D01*
X121684577Y-44849577D01*
X122001740Y-44374909D01*
X122113113Y-43815000D01*
X122001740Y-43255091D01*
X121684577Y-42780423D01*
X121209909Y-42463260D01*
X120791333Y-42380000D01*
X120508667Y-42380000D01*
X120090091Y-42463260D01*
X119615423Y-42780423D01*
X119298260Y-43255091D01*
X119186887Y-43815000D01*
X115515804Y-43815000D01*
X109570333Y-37869530D01*
X109527931Y-37806071D01*
X109276539Y-37638096D01*
X109054854Y-37594000D01*
X109054849Y-37594000D01*
X108980002Y-37579112D01*
X108905155Y-37594000D01*
X107831178Y-37594000D01*
X107623625Y-37283375D01*
X107325239Y-37084000D01*
X107623625Y-36884625D01*
X107951839Y-36393418D01*
X108058980Y-35854781D01*
X111042670Y-38838472D01*
X111085071Y-38901929D01*
X111336463Y-39069904D01*
X111558148Y-39114000D01*
X111558153Y-39114000D01*
X111633000Y-39128888D01*
X111707847Y-39114000D01*
X113564560Y-39114000D01*
X113564560Y-39204000D01*
X113613843Y-39451765D01*
X113754191Y-39661809D01*
X113964235Y-39802157D01*
X114009619Y-39811184D01*
X113991375Y-39823375D01*
X113663161Y-40314582D01*
X113547908Y-40894000D01*
X113663161Y-41473418D01*
X113991375Y-41964625D01*
X114482582Y-42292839D01*
X114915744Y-42379000D01*
X115208256Y-42379000D01*
X115641418Y-42292839D01*
X116132625Y-41964625D01*
X116460839Y-41473418D01*
X116576092Y-40894000D01*
X116460839Y-40314582D01*
X116132625Y-39823375D01*
X116114381Y-39811184D01*
X116159765Y-39802157D01*
X116369809Y-39661809D01*
X116510157Y-39451765D01*
X116559440Y-39204000D01*
X116559440Y-39114000D01*
X121845153Y-39114000D01*
X121920000Y-39128888D01*
X121994847Y-39114000D01*
X121994852Y-39114000D01*
X122216537Y-39069904D01*
X122467929Y-38901929D01*
X122510331Y-38838470D01*
X123501114Y-37847688D01*
X123683667Y-37884000D01*
X123966333Y-37884000D01*
X124384909Y-37800740D01*
X124859577Y-37483577D01*
X125176740Y-37008909D01*
X125288113Y-36449000D01*
X125176740Y-35889091D01*
X124859577Y-35414423D01*
X124384909Y-35097260D01*
X123966333Y-35014000D01*
X123683667Y-35014000D01*
X123265091Y-35097260D01*
X122790423Y-35414423D01*
X122473260Y-35889091D01*
X122361887Y-36449000D01*
X122426312Y-36772886D01*
X121605199Y-37594000D01*
X116559440Y-37594000D01*
X116559440Y-37504000D01*
X116510157Y-37256235D01*
X116369809Y-37046191D01*
X116159765Y-36905843D01*
X115912000Y-36856560D01*
X114212000Y-36856560D01*
X113964235Y-36905843D01*
X113754191Y-37046191D01*
X113613843Y-37256235D01*
X113564560Y-37504000D01*
X113564560Y-37594000D01*
X111947802Y-37594000D01*
X109913802Y-35560000D01*
X119186887Y-35560000D01*
X119298260Y-36119909D01*
X119615423Y-36594577D01*
X120090091Y-36911740D01*
X120508667Y-36995000D01*
X120791333Y-36995000D01*
X121209909Y-36911740D01*
X121684577Y-36594577D01*
X122001740Y-36119909D01*
X122113113Y-35560000D01*
X122048052Y-35232916D01*
X122153214Y-35075528D01*
X122165903Y-35056538D01*
X122209999Y-34834853D01*
X122209999Y-34834849D01*
X122224887Y-34760002D01*
X122209999Y-34685155D01*
X122209999Y-34552800D01*
X123061833Y-33700967D01*
X123116466Y-33832862D01*
X123520138Y-34236534D01*
X124047561Y-34455000D01*
X124618439Y-34455000D01*
X125145862Y-34236534D01*
X125549534Y-33832862D01*
X125768000Y-33305439D01*
X125768000Y-32734561D01*
X125735044Y-32654999D01*
X127973198Y-32654999D01*
X128014312Y-32696113D01*
X127949887Y-33020000D01*
X128061260Y-33579909D01*
X128378423Y-34054577D01*
X128853091Y-34371740D01*
X129271667Y-34455000D01*
X129554333Y-34455000D01*
X129972909Y-34371740D01*
X130447577Y-34054577D01*
X130631043Y-33780000D01*
X131267560Y-33780000D01*
X131267560Y-33820000D01*
X131316843Y-34067765D01*
X131457191Y-34277809D01*
X131667235Y-34418157D01*
X131801106Y-34444785D01*
X131680423Y-34525423D01*
X131496957Y-34800000D01*
X129868847Y-34800000D01*
X129794000Y-34785112D01*
X129719153Y-34800000D01*
X129719148Y-34800000D01*
X129497463Y-34844096D01*
X129246071Y-35012071D01*
X129233002Y-35031630D01*
X129190439Y-35014000D01*
X128619561Y-35014000D01*
X128092138Y-35232466D01*
X127688466Y-35636138D01*
X127470000Y-36163561D01*
X127470000Y-36734439D01*
X127688466Y-37261862D01*
X128092138Y-37665534D01*
X128619561Y-37884000D01*
X129190439Y-37884000D01*
X129717862Y-37665534D01*
X130121534Y-37261862D01*
X130340000Y-36734439D01*
X130340000Y-36320000D01*
X131496957Y-36320000D01*
X131680423Y-36594577D01*
X132032758Y-36830000D01*
X131680423Y-37065423D01*
X131363260Y-37540091D01*
X131251887Y-38100000D01*
X131363260Y-38659909D01*
X131680423Y-39134577D01*
X132064108Y-39390947D01*
X131859866Y-39487611D01*
X131483959Y-39902577D01*
X131323096Y-40290961D01*
X131445085Y-40513000D01*
X132588000Y-40513000D01*
X132588000Y-40493000D01*
X132842000Y-40493000D01*
X132842000Y-40513000D01*
X133984915Y-40513000D01*
X134106904Y-40290961D01*
X133946041Y-39902577D01*
X133570134Y-39487611D01*
X133365892Y-39390947D01*
X133749577Y-39134577D01*
X134066740Y-38659909D01*
X134178113Y-38100000D01*
X134066740Y-37540091D01*
X133749577Y-37065423D01*
X133397242Y-36830000D01*
X133749577Y-36594577D01*
X134066740Y-36119909D01*
X134178113Y-35560000D01*
X134066740Y-35000091D01*
X133749577Y-34525423D01*
X133628894Y-34444785D01*
X133762765Y-34418157D01*
X133972809Y-34277809D01*
X134113157Y-34067765D01*
X134162440Y-33820000D01*
X134162440Y-32220000D01*
X134113157Y-31972235D01*
X133972809Y-31762191D01*
X133762765Y-31621843D01*
X133515000Y-31572560D01*
X131915000Y-31572560D01*
X131667235Y-31621843D01*
X131457191Y-31762191D01*
X131316843Y-31972235D01*
X131267560Y-32220000D01*
X131267560Y-32260000D01*
X130631043Y-32260000D01*
X130447577Y-31985423D01*
X129972909Y-31668260D01*
X129554333Y-31585000D01*
X129271667Y-31585000D01*
X129089113Y-31621312D01*
X128878330Y-31410529D01*
X128835928Y-31347070D01*
X128584536Y-31179095D01*
X128362851Y-31134999D01*
X128362846Y-31134999D01*
X128287999Y-31120111D01*
X128213152Y-31134999D01*
X123867845Y-31134999D01*
X123792998Y-31120111D01*
X123718151Y-31134999D01*
X123718147Y-31134999D01*
X123496462Y-31179095D01*
X123433901Y-31220897D01*
X123308525Y-31304670D01*
X123308523Y-31304672D01*
X123245070Y-31347070D01*
X123202672Y-31410523D01*
X120965527Y-33647670D01*
X120902071Y-33690070D01*
X120734095Y-33941462D01*
X120697587Y-34125000D01*
X120508667Y-34125000D01*
X120090091Y-34208260D01*
X119615423Y-34525423D01*
X119298260Y-35000091D01*
X119186887Y-35560000D01*
X109913802Y-35560000D01*
X108050440Y-33696639D01*
X108050440Y-32424000D01*
X108001157Y-32176235D01*
X107860809Y-31966191D01*
X107650765Y-31825843D01*
X107403000Y-31776560D01*
X105703000Y-31776560D01*
X105455235Y-31825843D01*
X105245191Y-31966191D01*
X105104843Y-32176235D01*
X105055560Y-32424000D01*
X105055560Y-34124000D01*
X105104843Y-34371765D01*
X105245191Y-34581809D01*
X105455235Y-34722157D01*
X105500619Y-34731184D01*
X105482375Y-34743375D01*
X105154161Y-35234582D01*
X105038908Y-35814000D01*
X105111791Y-36180408D01*
X104893527Y-36398672D01*
X104830071Y-36441072D01*
X104787671Y-36504528D01*
X104787670Y-36504529D01*
X104662096Y-36692464D01*
X104603111Y-36989001D01*
X104618000Y-37063853D01*
X104617999Y-53106152D01*
X104603111Y-53180999D01*
X104617999Y-53255846D01*
X104617999Y-53255850D01*
X104662095Y-53477535D01*
X104830070Y-53728928D01*
X104893529Y-53771330D01*
X115900672Y-64778474D01*
X115943072Y-64841930D01*
X116194464Y-65009905D01*
X116416149Y-65054001D01*
X116416153Y-65054001D01*
X116491000Y-65068889D01*
X116565847Y-65054001D01*
X171597152Y-65054001D01*
X171621237Y-65058792D01*
X134785836Y-65178000D01*
X104113000Y-65178000D01*
X104113000Y-47755402D01*
X104217531Y-29305561D01*
X119596000Y-29305561D01*
X119596000Y-29876439D01*
X119814466Y-30403862D01*
X120218138Y-30807534D01*
X120745561Y-31026000D01*
X121316439Y-31026000D01*
X121843862Y-30807534D01*
X122247534Y-30403862D01*
X122466000Y-29876439D01*
X122466000Y-29591000D01*
X124647887Y-29591000D01*
X124759260Y-30150909D01*
X125076423Y-30625577D01*
X125551091Y-30942740D01*
X125969667Y-31026000D01*
X126252333Y-31026000D01*
X126670909Y-30942740D01*
X127145577Y-30625577D01*
X127462740Y-30150909D01*
X127574113Y-29591000D01*
X127462740Y-29031091D01*
X127145577Y-28556423D01*
X126670909Y-28239260D01*
X126252333Y-28156000D01*
X125969667Y-28156000D01*
X125551091Y-28239260D01*
X125076423Y-28556423D01*
X124759260Y-29031091D01*
X124647887Y-29591000D01*
X122466000Y-29591000D01*
X122466000Y-29305561D01*
X122247534Y-28778138D01*
X121843862Y-28374466D01*
X121316439Y-28156000D01*
X120745561Y-28156000D01*
X120218138Y-28374466D01*
X119814466Y-28778138D01*
X119596000Y-29305561D01*
X104217531Y-29305561D01*
X104250935Y-23409754D01*
X133968000Y-23409754D01*
X133968000Y-24088245D01*
X134035305Y-24426608D01*
X134291687Y-24810313D01*
X134675391Y-25066695D01*
X135128000Y-25156725D01*
X135580608Y-25066695D01*
X135763000Y-24944825D01*
X135945391Y-25066695D01*
X136398000Y-25156725D01*
X136849866Y-25066842D01*
X136895235Y-25097157D01*
X137143000Y-25146440D01*
X138193000Y-25146440D01*
X138440765Y-25097157D01*
X138650809Y-24956809D01*
X138751116Y-24806690D01*
X169711000Y-24806690D01*
X169711000Y-25622250D01*
X169869750Y-25781000D01*
X171069000Y-25781000D01*
X171069000Y-24456750D01*
X171323000Y-24456750D01*
X171323000Y-25781000D01*
X171343000Y-25781000D01*
X171343000Y-26035000D01*
X171323000Y-26035000D01*
X171323000Y-27359250D01*
X171481750Y-27518000D01*
X172172309Y-27518000D01*
X172405698Y-27421327D01*
X172584327Y-27242699D01*
X172638344Y-27112291D01*
X173116583Y-27431839D01*
X173696000Y-27547092D01*
X174275418Y-27431839D01*
X174766625Y-27103625D01*
X174946000Y-26835171D01*
X175125375Y-27103625D01*
X175616583Y-27431839D01*
X176196000Y-27547092D01*
X176775418Y-27431839D01*
X177266625Y-27103625D01*
X177594839Y-26612417D01*
X177681000Y-26179255D01*
X177681000Y-25636744D01*
X177594839Y-25203582D01*
X177266625Y-24712375D01*
X176775417Y-24384161D01*
X176196000Y-24268908D01*
X175616582Y-24384161D01*
X175125375Y-24712375D01*
X174946000Y-24980829D01*
X174766625Y-24712375D01*
X174275417Y-24384161D01*
X173696000Y-24268908D01*
X173116582Y-24384161D01*
X172638344Y-24703709D01*
X172584327Y-24573301D01*
X172405698Y-24394673D01*
X172172309Y-24298000D01*
X171481750Y-24298000D01*
X171323000Y-24456750D01*
X171069000Y-24456750D01*
X170910250Y-24298000D01*
X170219691Y-24298000D01*
X169986302Y-24394673D01*
X169807673Y-24573301D01*
X169711000Y-24806690D01*
X138751116Y-24806690D01*
X138791157Y-24746765D01*
X138840440Y-24499000D01*
X138840440Y-22999000D01*
X138791157Y-22751235D01*
X138650809Y-22541191D01*
X138440765Y-22400843D01*
X138193000Y-22351560D01*
X137143000Y-22351560D01*
X136895235Y-22400843D01*
X136849867Y-22431157D01*
X136398000Y-22341275D01*
X135945392Y-22431305D01*
X135763001Y-22553175D01*
X135580609Y-22431305D01*
X135128000Y-22341275D01*
X134675392Y-22431305D01*
X134291688Y-22687687D01*
X134035305Y-23071391D01*
X133968000Y-23409754D01*
X104250935Y-23409754D01*
X104264419Y-21030000D01*
X181993597Y-21030000D01*
X182018000Y-25312807D01*
G36*
X106680000Y-45847000D02*
X106700000Y-45847000D01*
X106700000Y-46101000D01*
X106680000Y-46101000D01*
X106680000Y-46121000D01*
X106426000Y-46121000D01*
X106426000Y-46101000D01*
X106406000Y-46101000D01*
X106406000Y-45847000D01*
X106426000Y-45847000D01*
X106426000Y-45827000D01*
X106680000Y-45827000D01*
X106680000Y-45847000D01*
X106680000Y-45847000D01*
G37*
X106680000Y-45847000D02*
X106700000Y-45847000D01*
X106700000Y-46101000D01*
X106680000Y-46101000D01*
X106680000Y-46121000D01*
X106426000Y-46121000D01*
X106426000Y-46101000D01*
X106406000Y-46101000D01*
X106406000Y-45847000D01*
X106426000Y-45847000D01*
X106426000Y-45827000D01*
X106680000Y-45827000D01*
X106680000Y-45847000D01*
G04 #@! TD*
M02*
