M48
INCH,TZ
T1C0.0157
T2C0.0295
T3C0.0315
T4C0.0374
T5C0.0394
%
G90
G05
T1
X43750Y-10750
X53350Y-19850
T2
X55200Y-20100
X55200Y-23100
X51600Y-24600
X54600Y-24600
X56150Y-23100
X59150Y-23100
X53200Y-9350
X53700Y-9350
X54200Y-9350
X49500Y-21750
X50000Y-21750
X50500Y-21750
T3
X65000Y-16400
X66969Y-16400
X48800Y-16000
X50769Y-16000
X47650Y-11650
X49650Y-11650
X47500Y-14000
X47500Y-16000
X48950Y-13000
X50950Y-13000
X63500Y-10900
X64484Y-10900
X56781Y-16000
X58750Y-16000
X56650Y-19000
X58650Y-19000
X54700Y-11400
X56700Y-11400
X69650Y-17850
X69650Y-19850
X65081Y-22800
X67050Y-22800
X52150Y-20650
X54150Y-20650
X45250Y-18100
X45250Y-20100
X56650Y-17450
X58650Y-17450
X63050Y-17000
X63050Y-21000
X50800Y-17281
X50800Y-19250
X52250Y-13000
X52250Y-14000
X52250Y-15000
X52250Y-16000
X52250Y-17000
X52250Y-18000
X52250Y-19000
X55250Y-13000
X55250Y-14000
X55250Y-15000
X55250Y-16000
X55250Y-17000
X55250Y-18000
X55250Y-19000
X49350Y-17500
X49350Y-19500
X61350Y-18000
X61350Y-20000
X48050Y-20650
X48050Y-22650
X56650Y-13000
X58650Y-13000
X61600Y-15300
X63600Y-15300
X64500Y-17950
X64500Y-18950
X64500Y-19950
X64500Y-20950
X67500Y-17950
X67500Y-18950
X67500Y-19950
X67500Y-20950
X50800Y-11300
X52800Y-11300
X60200Y-14500
X60200Y-16500
X68850Y-23300
X70850Y-23300
X68850Y-21400
X70850Y-21400
X64900Y-12916
X64900Y-13900
X52100Y-22100
X54100Y-22100
X47500Y-17250
X47500Y-19250
X48750Y-14350
X50750Y-14350
X56650Y-20500
X58650Y-20500
T4
X67400Y-13600
X68384Y-13600
X69369Y-13600
X67400Y-10200
X68384Y-10200
X69369Y-10200
T5
X61300Y-22300
X61300Y-23300
X61300Y-24300
X67050Y-24850
X68050Y-24850
X45300Y-15100
X45300Y-16100
X58550Y-10750
X59550Y-10750
X60550Y-10750
X41950Y-13100
X41950Y-14100
X41950Y-15100
X41950Y-16100
X41950Y-17100
X41950Y-18100
X41950Y-19100
X41950Y-20100
X61000Y-12700
X62000Y-12700
X45250Y-22450
X45250Y-23450
T0
M30
