M48
INCH,TZ
T1C0.0157
T2C0.0295
T3C0.0315
%
G90
G05
T1
X71157Y-36997
X78140Y-34500
T2
X78165Y-39160
X78953Y-39160
X79740Y-39160
T3
X76160Y-26451
X76160Y-28420
X76160Y-29400
X76160Y-31400
X72100Y-27071
X72100Y-29040
X76180Y-32560
X76180Y-34529
X76200Y-35640
X76200Y-37640
X70480Y-31620
X70480Y-33589
X71820Y-30480
X71820Y-31480
X71820Y-32480
X71820Y-33480
X74820Y-30480
X74820Y-31480
X74820Y-32480
X74820Y-33480
X74840Y-26980
X74840Y-28980
X73460Y-27160
X73460Y-29160
X74420Y-38980
X76420Y-38980
T0
M30
