G04 #@! TF.GenerationSoftware,KiCad,Pcbnew,(5.1.0)-1*
G04 #@! TF.CreationDate,2019-04-07T20:12:25-04:00*
G04 #@! TF.ProjectId,envelope,656e7665-6c6f-4706-952e-6b696361645f,rev?*
G04 #@! TF.SameCoordinates,Original*
G04 #@! TF.FileFunction,Soldermask,Bot*
G04 #@! TF.FilePolarity,Negative*
%FSLAX46Y46*%
G04 Gerber Fmt 4.6, Leading zero omitted, Abs format (unit mm)*
G04 Created by KiCad (PCBNEW (5.1.0)-1) date 2019-04-07 20:12:25*
%MOMM*%
%LPD*%
G04 APERTURE LIST*
%ADD10C,0.100000*%
G04 APERTURE END LIST*
D10*
G36*
X136271000Y-133681000D02*
G01*
X134239000Y-133681000D01*
X134239000Y-131749000D01*
X136271000Y-131749000D01*
X136271000Y-133681000D01*
X136271000Y-133681000D01*
G37*
G36*
X118491000Y-133681000D02*
G01*
X116459000Y-133681000D01*
X116459000Y-131749000D01*
X118491000Y-131749000D01*
X118491000Y-133681000D01*
X118491000Y-133681000D01*
G37*
G36*
X117728655Y-128527591D02*
G01*
X117800525Y-128541887D01*
X118003624Y-128626013D01*
X118186409Y-128748146D01*
X118341854Y-128903591D01*
X118463987Y-129086376D01*
X118548113Y-129289475D01*
X118591000Y-129505084D01*
X118591000Y-129724916D01*
X118548113Y-129940525D01*
X118463987Y-130143624D01*
X118341854Y-130326409D01*
X118186409Y-130481854D01*
X118003624Y-130603987D01*
X117800525Y-130688113D01*
X117728655Y-130702409D01*
X117584918Y-130731000D01*
X117365082Y-130731000D01*
X117221345Y-130702409D01*
X117149475Y-130688113D01*
X116946376Y-130603987D01*
X116763591Y-130481854D01*
X116608146Y-130326409D01*
X116486013Y-130143624D01*
X116401887Y-129940525D01*
X116359000Y-129724916D01*
X116359000Y-129505084D01*
X116401887Y-129289475D01*
X116486013Y-129086376D01*
X116608146Y-128903591D01*
X116763591Y-128748146D01*
X116946376Y-128626013D01*
X117149475Y-128541887D01*
X117221345Y-128527591D01*
X117365082Y-128499000D01*
X117584918Y-128499000D01*
X117728655Y-128527591D01*
X117728655Y-128527591D01*
G37*
G36*
X135508655Y-128527591D02*
G01*
X135580525Y-128541887D01*
X135783624Y-128626013D01*
X135966409Y-128748146D01*
X136121854Y-128903591D01*
X136243987Y-129086376D01*
X136328113Y-129289475D01*
X136371000Y-129505084D01*
X136371000Y-129724916D01*
X136328113Y-129940525D01*
X136243987Y-130143624D01*
X136121854Y-130326409D01*
X135966409Y-130481854D01*
X135783624Y-130603987D01*
X135580525Y-130688113D01*
X135508655Y-130702409D01*
X135364918Y-130731000D01*
X135145082Y-130731000D01*
X135001345Y-130702409D01*
X134929475Y-130688113D01*
X134726376Y-130603987D01*
X134543591Y-130481854D01*
X134388146Y-130326409D01*
X134266013Y-130143624D01*
X134181887Y-129940525D01*
X134139000Y-129724916D01*
X134139000Y-129505084D01*
X134181887Y-129289475D01*
X134266013Y-129086376D01*
X134388146Y-128903591D01*
X134543591Y-128748146D01*
X134726376Y-128626013D01*
X134929475Y-128541887D01*
X135001345Y-128527591D01*
X135145082Y-128499000D01*
X135364918Y-128499000D01*
X135508655Y-128527591D01*
X135508655Y-128527591D01*
G37*
G36*
X128586000Y-127316000D02*
G01*
X126684000Y-127316000D01*
X126684000Y-125414000D01*
X128586000Y-125414000D01*
X128586000Y-127316000D01*
X128586000Y-127316000D01*
G37*
G36*
X125372395Y-125450546D02*
G01*
X125545466Y-125522234D01*
X125545467Y-125522235D01*
X125701227Y-125626310D01*
X125833690Y-125758773D01*
X125833691Y-125758775D01*
X125937766Y-125914534D01*
X126009454Y-126087605D01*
X126046000Y-126271333D01*
X126046000Y-126458667D01*
X126009454Y-126642395D01*
X125937766Y-126815466D01*
X125937765Y-126815467D01*
X125833690Y-126971227D01*
X125701227Y-127103690D01*
X125622818Y-127156081D01*
X125545466Y-127207766D01*
X125372395Y-127279454D01*
X125188667Y-127316000D01*
X125001333Y-127316000D01*
X124817605Y-127279454D01*
X124644534Y-127207766D01*
X124567182Y-127156081D01*
X124488773Y-127103690D01*
X124356310Y-126971227D01*
X124252235Y-126815467D01*
X124252234Y-126815466D01*
X124180546Y-126642395D01*
X124144000Y-126458667D01*
X124144000Y-126271333D01*
X124180546Y-126087605D01*
X124252234Y-125914534D01*
X124356309Y-125758775D01*
X124356310Y-125758773D01*
X124488773Y-125626310D01*
X124644533Y-125522235D01*
X124644534Y-125522234D01*
X124817605Y-125450546D01*
X125001333Y-125414000D01*
X125188667Y-125414000D01*
X125372395Y-125450546D01*
X125372395Y-125450546D01*
G37*
G36*
X135508655Y-120227591D02*
G01*
X135580525Y-120241887D01*
X135783624Y-120326013D01*
X135966409Y-120448146D01*
X136121854Y-120603591D01*
X136243987Y-120786376D01*
X136328113Y-120989475D01*
X136371000Y-121205084D01*
X136371000Y-121424916D01*
X136328113Y-121640525D01*
X136243987Y-121843624D01*
X136121854Y-122026409D01*
X135966409Y-122181854D01*
X135783624Y-122303987D01*
X135580525Y-122388113D01*
X135508655Y-122402409D01*
X135364918Y-122431000D01*
X135145082Y-122431000D01*
X135001345Y-122402409D01*
X134929475Y-122388113D01*
X134726376Y-122303987D01*
X134543591Y-122181854D01*
X134388146Y-122026409D01*
X134266013Y-121843624D01*
X134181887Y-121640525D01*
X134139000Y-121424916D01*
X134139000Y-121205084D01*
X134181887Y-120989475D01*
X134266013Y-120786376D01*
X134388146Y-120603591D01*
X134543591Y-120448146D01*
X134726376Y-120326013D01*
X134929475Y-120241887D01*
X135001345Y-120227591D01*
X135145082Y-120199000D01*
X135364918Y-120199000D01*
X135508655Y-120227591D01*
X135508655Y-120227591D01*
G37*
G36*
X117728655Y-120227591D02*
G01*
X117800525Y-120241887D01*
X118003624Y-120326013D01*
X118186409Y-120448146D01*
X118341854Y-120603591D01*
X118463987Y-120786376D01*
X118548113Y-120989475D01*
X118591000Y-121205084D01*
X118591000Y-121424916D01*
X118548113Y-121640525D01*
X118463987Y-121843624D01*
X118341854Y-122026409D01*
X118186409Y-122181854D01*
X118003624Y-122303987D01*
X117800525Y-122388113D01*
X117728655Y-122402409D01*
X117584918Y-122431000D01*
X117365082Y-122431000D01*
X117221345Y-122402409D01*
X117149475Y-122388113D01*
X116946376Y-122303987D01*
X116763591Y-122181854D01*
X116608146Y-122026409D01*
X116486013Y-121843624D01*
X116401887Y-121640525D01*
X116359000Y-121424916D01*
X116359000Y-121205084D01*
X116401887Y-120989475D01*
X116486013Y-120786376D01*
X116608146Y-120603591D01*
X116763591Y-120448146D01*
X116946376Y-120326013D01*
X117149475Y-120241887D01*
X117221345Y-120227591D01*
X117365082Y-120199000D01*
X117584918Y-120199000D01*
X117728655Y-120227591D01*
X117728655Y-120227591D01*
G37*
G36*
X130296228Y-117291703D02*
G01*
X130451100Y-117355853D01*
X130590481Y-117448985D01*
X130709015Y-117567519D01*
X130802147Y-117706900D01*
X130866297Y-117861772D01*
X130899000Y-118026184D01*
X130899000Y-118193816D01*
X130866297Y-118358228D01*
X130802147Y-118513100D01*
X130709015Y-118652481D01*
X130590481Y-118771015D01*
X130451100Y-118864147D01*
X130296228Y-118928297D01*
X130131816Y-118961000D01*
X129964184Y-118961000D01*
X129799772Y-118928297D01*
X129644900Y-118864147D01*
X129505519Y-118771015D01*
X129386985Y-118652481D01*
X129293853Y-118513100D01*
X129229703Y-118358228D01*
X129197000Y-118193816D01*
X129197000Y-118026184D01*
X129229703Y-117861772D01*
X129293853Y-117706900D01*
X129386985Y-117567519D01*
X129505519Y-117448985D01*
X129644900Y-117355853D01*
X129799772Y-117291703D01*
X129964184Y-117259000D01*
X130131816Y-117259000D01*
X130296228Y-117291703D01*
X130296228Y-117291703D01*
G37*
G36*
X139313228Y-116656703D02*
G01*
X139468100Y-116720853D01*
X139607481Y-116813985D01*
X139726015Y-116932519D01*
X139819147Y-117071900D01*
X139883297Y-117226772D01*
X139916000Y-117391184D01*
X139916000Y-117558816D01*
X139883297Y-117723228D01*
X139819147Y-117878100D01*
X139726015Y-118017481D01*
X139607481Y-118136015D01*
X139468100Y-118229147D01*
X139313228Y-118293297D01*
X139148816Y-118326000D01*
X138981184Y-118326000D01*
X138816772Y-118293297D01*
X138661900Y-118229147D01*
X138522519Y-118136015D01*
X138403985Y-118017481D01*
X138310853Y-117878100D01*
X138246703Y-117723228D01*
X138214000Y-117558816D01*
X138214000Y-117391184D01*
X138246703Y-117226772D01*
X138310853Y-117071900D01*
X138403985Y-116932519D01*
X138522519Y-116813985D01*
X138661900Y-116720853D01*
X138816772Y-116656703D01*
X138981184Y-116624000D01*
X139148816Y-116624000D01*
X139313228Y-116656703D01*
X139313228Y-116656703D01*
G37*
G36*
X134151823Y-116636313D02*
G01*
X134312242Y-116684976D01*
X134379361Y-116720852D01*
X134460078Y-116763996D01*
X134589659Y-116870341D01*
X134696004Y-116999922D01*
X134696005Y-116999924D01*
X134775024Y-117147758D01*
X134823687Y-117308177D01*
X134840117Y-117475000D01*
X134823687Y-117641823D01*
X134775024Y-117802242D01*
X134734477Y-117878100D01*
X134696004Y-117950078D01*
X134589659Y-118079659D01*
X134460078Y-118186004D01*
X134460076Y-118186005D01*
X134312242Y-118265024D01*
X134151823Y-118313687D01*
X134026804Y-118326000D01*
X133943196Y-118326000D01*
X133818177Y-118313687D01*
X133657758Y-118265024D01*
X133509924Y-118186005D01*
X133509922Y-118186004D01*
X133380341Y-118079659D01*
X133273996Y-117950078D01*
X133235523Y-117878100D01*
X133194976Y-117802242D01*
X133146313Y-117641823D01*
X133129883Y-117475000D01*
X133146313Y-117308177D01*
X133194976Y-117147758D01*
X133273995Y-116999924D01*
X133273996Y-116999922D01*
X133380341Y-116870341D01*
X133509922Y-116763996D01*
X133590639Y-116720852D01*
X133657758Y-116684976D01*
X133818177Y-116636313D01*
X133943196Y-116624000D01*
X134026804Y-116624000D01*
X134151823Y-116636313D01*
X134151823Y-116636313D01*
G37*
G36*
X115045442Y-115945518D02*
G01*
X115111627Y-115952037D01*
X115281466Y-116003557D01*
X115437991Y-116087222D01*
X115473729Y-116116552D01*
X115575186Y-116199814D01*
X115658448Y-116301271D01*
X115687778Y-116337009D01*
X115771443Y-116493534D01*
X115822963Y-116663373D01*
X115840359Y-116840000D01*
X115822963Y-117016627D01*
X115771443Y-117186466D01*
X115687778Y-117342991D01*
X115677223Y-117355852D01*
X115575186Y-117480186D01*
X115479375Y-117558815D01*
X115437991Y-117592778D01*
X115281466Y-117676443D01*
X115111627Y-117727963D01*
X115045442Y-117734482D01*
X114979260Y-117741000D01*
X114890740Y-117741000D01*
X114824558Y-117734482D01*
X114758373Y-117727963D01*
X114588534Y-117676443D01*
X114432009Y-117592778D01*
X114390625Y-117558815D01*
X114294814Y-117480186D01*
X114192777Y-117355852D01*
X114182222Y-117342991D01*
X114098557Y-117186466D01*
X114047037Y-117016627D01*
X114029641Y-116840000D01*
X114047037Y-116663373D01*
X114098557Y-116493534D01*
X114182222Y-116337009D01*
X114211552Y-116301271D01*
X114294814Y-116199814D01*
X114396271Y-116116552D01*
X114432009Y-116087222D01*
X114588534Y-116003557D01*
X114758373Y-115952037D01*
X114824558Y-115945518D01*
X114890740Y-115939000D01*
X114979260Y-115939000D01*
X115045442Y-115945518D01*
X115045442Y-115945518D01*
G37*
G36*
X125996000Y-117741000D02*
G01*
X124194000Y-117741000D01*
X124194000Y-115939000D01*
X125996000Y-115939000D01*
X125996000Y-117741000D01*
X125996000Y-117741000D01*
G37*
G36*
X117585442Y-115945518D02*
G01*
X117651627Y-115952037D01*
X117821466Y-116003557D01*
X117977991Y-116087222D01*
X118013729Y-116116552D01*
X118115186Y-116199814D01*
X118198448Y-116301271D01*
X118227778Y-116337009D01*
X118311443Y-116493534D01*
X118362963Y-116663373D01*
X118380359Y-116840000D01*
X118362963Y-117016627D01*
X118311443Y-117186466D01*
X118227778Y-117342991D01*
X118217223Y-117355852D01*
X118115186Y-117480186D01*
X118019375Y-117558815D01*
X117977991Y-117592778D01*
X117821466Y-117676443D01*
X117651627Y-117727963D01*
X117585442Y-117734482D01*
X117519260Y-117741000D01*
X117430740Y-117741000D01*
X117364558Y-117734482D01*
X117298373Y-117727963D01*
X117128534Y-117676443D01*
X116972009Y-117592778D01*
X116930625Y-117558815D01*
X116834814Y-117480186D01*
X116732777Y-117355852D01*
X116722222Y-117342991D01*
X116638557Y-117186466D01*
X116587037Y-117016627D01*
X116569641Y-116840000D01*
X116587037Y-116663373D01*
X116638557Y-116493534D01*
X116722222Y-116337009D01*
X116751552Y-116301271D01*
X116834814Y-116199814D01*
X116936271Y-116116552D01*
X116972009Y-116087222D01*
X117128534Y-116003557D01*
X117298373Y-115952037D01*
X117364558Y-115945518D01*
X117430740Y-115939000D01*
X117519260Y-115939000D01*
X117585442Y-115945518D01*
X117585442Y-115945518D01*
G37*
G36*
X122665442Y-115945518D02*
G01*
X122731627Y-115952037D01*
X122901466Y-116003557D01*
X123057991Y-116087222D01*
X123093729Y-116116552D01*
X123195186Y-116199814D01*
X123278448Y-116301271D01*
X123307778Y-116337009D01*
X123391443Y-116493534D01*
X123442963Y-116663373D01*
X123460359Y-116840000D01*
X123442963Y-117016627D01*
X123391443Y-117186466D01*
X123307778Y-117342991D01*
X123297223Y-117355852D01*
X123195186Y-117480186D01*
X123099375Y-117558815D01*
X123057991Y-117592778D01*
X122901466Y-117676443D01*
X122731627Y-117727963D01*
X122665442Y-117734482D01*
X122599260Y-117741000D01*
X122510740Y-117741000D01*
X122444558Y-117734482D01*
X122378373Y-117727963D01*
X122208534Y-117676443D01*
X122052009Y-117592778D01*
X122010625Y-117558815D01*
X121914814Y-117480186D01*
X121812777Y-117355852D01*
X121802222Y-117342991D01*
X121718557Y-117186466D01*
X121667037Y-117016627D01*
X121649641Y-116840000D01*
X121667037Y-116663373D01*
X121718557Y-116493534D01*
X121802222Y-116337009D01*
X121831552Y-116301271D01*
X121914814Y-116199814D01*
X122016271Y-116116552D01*
X122052009Y-116087222D01*
X122208534Y-116003557D01*
X122378373Y-115952037D01*
X122444558Y-115945518D01*
X122510740Y-115939000D01*
X122599260Y-115939000D01*
X122665442Y-115945518D01*
X122665442Y-115945518D01*
G37*
G36*
X120125442Y-115945518D02*
G01*
X120191627Y-115952037D01*
X120361466Y-116003557D01*
X120517991Y-116087222D01*
X120553729Y-116116552D01*
X120655186Y-116199814D01*
X120738448Y-116301271D01*
X120767778Y-116337009D01*
X120851443Y-116493534D01*
X120902963Y-116663373D01*
X120920359Y-116840000D01*
X120902963Y-117016627D01*
X120851443Y-117186466D01*
X120767778Y-117342991D01*
X120757223Y-117355852D01*
X120655186Y-117480186D01*
X120559375Y-117558815D01*
X120517991Y-117592778D01*
X120361466Y-117676443D01*
X120191627Y-117727963D01*
X120125442Y-117734482D01*
X120059260Y-117741000D01*
X119970740Y-117741000D01*
X119904558Y-117734482D01*
X119838373Y-117727963D01*
X119668534Y-117676443D01*
X119512009Y-117592778D01*
X119470625Y-117558815D01*
X119374814Y-117480186D01*
X119272777Y-117355852D01*
X119262222Y-117342991D01*
X119178557Y-117186466D01*
X119127037Y-117016627D01*
X119109641Y-116840000D01*
X119127037Y-116663373D01*
X119178557Y-116493534D01*
X119262222Y-116337009D01*
X119291552Y-116301271D01*
X119374814Y-116199814D01*
X119476271Y-116116552D01*
X119512009Y-116087222D01*
X119668534Y-116003557D01*
X119838373Y-115952037D01*
X119904558Y-115945518D01*
X119970740Y-115939000D01*
X120059260Y-115939000D01*
X120125442Y-115945518D01*
X120125442Y-115945518D01*
G37*
G36*
X125205443Y-113405519D02*
G01*
X125271627Y-113412037D01*
X125441466Y-113463557D01*
X125597991Y-113547222D01*
X125633729Y-113576552D01*
X125735186Y-113659814D01*
X125808226Y-113748815D01*
X125847778Y-113797009D01*
X125931443Y-113953534D01*
X125982963Y-114123373D01*
X126000359Y-114300000D01*
X125982963Y-114476627D01*
X125931443Y-114646466D01*
X125847778Y-114802991D01*
X125818448Y-114838729D01*
X125735186Y-114940186D01*
X125633729Y-115023448D01*
X125597991Y-115052778D01*
X125441466Y-115136443D01*
X125271627Y-115187963D01*
X125205442Y-115194482D01*
X125139260Y-115201000D01*
X125050740Y-115201000D01*
X124984558Y-115194482D01*
X124918373Y-115187963D01*
X124748534Y-115136443D01*
X124592009Y-115052778D01*
X124556271Y-115023448D01*
X124454814Y-114940186D01*
X124371552Y-114838729D01*
X124342222Y-114802991D01*
X124258557Y-114646466D01*
X124207037Y-114476627D01*
X124189641Y-114300000D01*
X124207037Y-114123373D01*
X124258557Y-113953534D01*
X124342222Y-113797009D01*
X124381774Y-113748815D01*
X124454814Y-113659814D01*
X124556271Y-113576552D01*
X124592009Y-113547222D01*
X124748534Y-113463557D01*
X124918373Y-113412037D01*
X124984557Y-113405519D01*
X125050740Y-113399000D01*
X125139260Y-113399000D01*
X125205443Y-113405519D01*
X125205443Y-113405519D01*
G37*
G36*
X120125443Y-113405519D02*
G01*
X120191627Y-113412037D01*
X120361466Y-113463557D01*
X120517991Y-113547222D01*
X120553729Y-113576552D01*
X120655186Y-113659814D01*
X120728226Y-113748815D01*
X120767778Y-113797009D01*
X120851443Y-113953534D01*
X120902963Y-114123373D01*
X120920359Y-114300000D01*
X120902963Y-114476627D01*
X120851443Y-114646466D01*
X120767778Y-114802991D01*
X120738448Y-114838729D01*
X120655186Y-114940186D01*
X120553729Y-115023448D01*
X120517991Y-115052778D01*
X120361466Y-115136443D01*
X120191627Y-115187963D01*
X120125442Y-115194482D01*
X120059260Y-115201000D01*
X119970740Y-115201000D01*
X119904558Y-115194482D01*
X119838373Y-115187963D01*
X119668534Y-115136443D01*
X119512009Y-115052778D01*
X119476271Y-115023448D01*
X119374814Y-114940186D01*
X119291552Y-114838729D01*
X119262222Y-114802991D01*
X119178557Y-114646466D01*
X119127037Y-114476627D01*
X119109641Y-114300000D01*
X119127037Y-114123373D01*
X119178557Y-113953534D01*
X119262222Y-113797009D01*
X119301774Y-113748815D01*
X119374814Y-113659814D01*
X119476271Y-113576552D01*
X119512009Y-113547222D01*
X119668534Y-113463557D01*
X119838373Y-113412037D01*
X119904557Y-113405519D01*
X119970740Y-113399000D01*
X120059260Y-113399000D01*
X120125443Y-113405519D01*
X120125443Y-113405519D01*
G37*
G36*
X117585443Y-113405519D02*
G01*
X117651627Y-113412037D01*
X117821466Y-113463557D01*
X117977991Y-113547222D01*
X118013729Y-113576552D01*
X118115186Y-113659814D01*
X118188226Y-113748815D01*
X118227778Y-113797009D01*
X118311443Y-113953534D01*
X118362963Y-114123373D01*
X118380359Y-114300000D01*
X118362963Y-114476627D01*
X118311443Y-114646466D01*
X118227778Y-114802991D01*
X118198448Y-114838729D01*
X118115186Y-114940186D01*
X118013729Y-115023448D01*
X117977991Y-115052778D01*
X117821466Y-115136443D01*
X117651627Y-115187963D01*
X117585442Y-115194482D01*
X117519260Y-115201000D01*
X117430740Y-115201000D01*
X117364558Y-115194482D01*
X117298373Y-115187963D01*
X117128534Y-115136443D01*
X116972009Y-115052778D01*
X116936271Y-115023448D01*
X116834814Y-114940186D01*
X116751552Y-114838729D01*
X116722222Y-114802991D01*
X116638557Y-114646466D01*
X116587037Y-114476627D01*
X116569641Y-114300000D01*
X116587037Y-114123373D01*
X116638557Y-113953534D01*
X116722222Y-113797009D01*
X116761774Y-113748815D01*
X116834814Y-113659814D01*
X116936271Y-113576552D01*
X116972009Y-113547222D01*
X117128534Y-113463557D01*
X117298373Y-113412037D01*
X117364557Y-113405519D01*
X117430740Y-113399000D01*
X117519260Y-113399000D01*
X117585443Y-113405519D01*
X117585443Y-113405519D01*
G37*
G36*
X115045443Y-113405519D02*
G01*
X115111627Y-113412037D01*
X115281466Y-113463557D01*
X115437991Y-113547222D01*
X115473729Y-113576552D01*
X115575186Y-113659814D01*
X115648226Y-113748815D01*
X115687778Y-113797009D01*
X115771443Y-113953534D01*
X115822963Y-114123373D01*
X115840359Y-114300000D01*
X115822963Y-114476627D01*
X115771443Y-114646466D01*
X115687778Y-114802991D01*
X115658448Y-114838729D01*
X115575186Y-114940186D01*
X115473729Y-115023448D01*
X115437991Y-115052778D01*
X115281466Y-115136443D01*
X115111627Y-115187963D01*
X115045442Y-115194482D01*
X114979260Y-115201000D01*
X114890740Y-115201000D01*
X114824558Y-115194482D01*
X114758373Y-115187963D01*
X114588534Y-115136443D01*
X114432009Y-115052778D01*
X114396271Y-115023448D01*
X114294814Y-114940186D01*
X114211552Y-114838729D01*
X114182222Y-114802991D01*
X114098557Y-114646466D01*
X114047037Y-114476627D01*
X114029641Y-114300000D01*
X114047037Y-114123373D01*
X114098557Y-113953534D01*
X114182222Y-113797009D01*
X114221774Y-113748815D01*
X114294814Y-113659814D01*
X114396271Y-113576552D01*
X114432009Y-113547222D01*
X114588534Y-113463557D01*
X114758373Y-113412037D01*
X114824557Y-113405519D01*
X114890740Y-113399000D01*
X114979260Y-113399000D01*
X115045443Y-113405519D01*
X115045443Y-113405519D01*
G37*
G36*
X122665443Y-113405519D02*
G01*
X122731627Y-113412037D01*
X122901466Y-113463557D01*
X123057991Y-113547222D01*
X123093729Y-113576552D01*
X123195186Y-113659814D01*
X123268226Y-113748815D01*
X123307778Y-113797009D01*
X123391443Y-113953534D01*
X123442963Y-114123373D01*
X123460359Y-114300000D01*
X123442963Y-114476627D01*
X123391443Y-114646466D01*
X123307778Y-114802991D01*
X123278448Y-114838729D01*
X123195186Y-114940186D01*
X123093729Y-115023448D01*
X123057991Y-115052778D01*
X122901466Y-115136443D01*
X122731627Y-115187963D01*
X122665442Y-115194482D01*
X122599260Y-115201000D01*
X122510740Y-115201000D01*
X122444558Y-115194482D01*
X122378373Y-115187963D01*
X122208534Y-115136443D01*
X122052009Y-115052778D01*
X122016271Y-115023448D01*
X121914814Y-114940186D01*
X121831552Y-114838729D01*
X121802222Y-114802991D01*
X121718557Y-114646466D01*
X121667037Y-114476627D01*
X121649641Y-114300000D01*
X121667037Y-114123373D01*
X121718557Y-113953534D01*
X121802222Y-113797009D01*
X121841774Y-113748815D01*
X121914814Y-113659814D01*
X122016271Y-113576552D01*
X122052009Y-113547222D01*
X122208534Y-113463557D01*
X122378373Y-113412037D01*
X122444557Y-113405519D01*
X122510740Y-113399000D01*
X122599260Y-113399000D01*
X122665443Y-113405519D01*
X122665443Y-113405519D01*
G37*
G36*
X139313228Y-112846703D02*
G01*
X139468100Y-112910853D01*
X139607481Y-113003985D01*
X139726015Y-113122519D01*
X139819147Y-113261900D01*
X139883297Y-113416772D01*
X139916000Y-113581184D01*
X139916000Y-113748816D01*
X139883297Y-113913228D01*
X139819147Y-114068100D01*
X139726015Y-114207481D01*
X139607481Y-114326015D01*
X139468100Y-114419147D01*
X139313228Y-114483297D01*
X139148816Y-114516000D01*
X138981184Y-114516000D01*
X138816772Y-114483297D01*
X138661900Y-114419147D01*
X138522519Y-114326015D01*
X138403985Y-114207481D01*
X138310853Y-114068100D01*
X138246703Y-113913228D01*
X138214000Y-113748816D01*
X138214000Y-113581184D01*
X138246703Y-113416772D01*
X138310853Y-113261900D01*
X138403985Y-113122519D01*
X138522519Y-113003985D01*
X138661900Y-112910853D01*
X138816772Y-112846703D01*
X138981184Y-112814000D01*
X139148816Y-112814000D01*
X139313228Y-112846703D01*
X139313228Y-112846703D01*
G37*
G36*
X134313228Y-112846703D02*
G01*
X134468100Y-112910853D01*
X134607481Y-113003985D01*
X134726015Y-113122519D01*
X134819147Y-113261900D01*
X134883297Y-113416772D01*
X134916000Y-113581184D01*
X134916000Y-113748816D01*
X134883297Y-113913228D01*
X134819147Y-114068100D01*
X134726015Y-114207481D01*
X134607481Y-114326015D01*
X134468100Y-114419147D01*
X134313228Y-114483297D01*
X134148816Y-114516000D01*
X133981184Y-114516000D01*
X133816772Y-114483297D01*
X133661900Y-114419147D01*
X133522519Y-114326015D01*
X133403985Y-114207481D01*
X133310853Y-114068100D01*
X133246703Y-113913228D01*
X133214000Y-113748816D01*
X133214000Y-113581184D01*
X133246703Y-113416772D01*
X133310853Y-113261900D01*
X133403985Y-113122519D01*
X133522519Y-113003985D01*
X133661900Y-112910853D01*
X133816772Y-112846703D01*
X133981184Y-112814000D01*
X134148816Y-112814000D01*
X134313228Y-112846703D01*
X134313228Y-112846703D01*
G37*
G36*
X130214823Y-112191313D02*
G01*
X130375242Y-112239976D01*
X130507906Y-112310886D01*
X130523078Y-112318996D01*
X130652659Y-112425341D01*
X130759004Y-112554922D01*
X130759005Y-112554924D01*
X130838024Y-112702758D01*
X130886687Y-112863177D01*
X130903117Y-113030000D01*
X130886687Y-113196823D01*
X130838024Y-113357242D01*
X130781197Y-113463557D01*
X130759004Y-113505078D01*
X130652659Y-113634659D01*
X130523078Y-113741004D01*
X130523076Y-113741005D01*
X130375242Y-113820024D01*
X130214823Y-113868687D01*
X130089804Y-113881000D01*
X130006196Y-113881000D01*
X129881177Y-113868687D01*
X129720758Y-113820024D01*
X129572924Y-113741005D01*
X129572922Y-113741004D01*
X129443341Y-113634659D01*
X129336996Y-113505078D01*
X129314803Y-113463557D01*
X129257976Y-113357242D01*
X129209313Y-113196823D01*
X129192883Y-113030000D01*
X129209313Y-112863177D01*
X129257976Y-112702758D01*
X129336995Y-112554924D01*
X129336996Y-112554922D01*
X129443341Y-112425341D01*
X129572922Y-112318996D01*
X129588094Y-112310886D01*
X129720758Y-112239976D01*
X129881177Y-112191313D01*
X130006196Y-112179000D01*
X130089804Y-112179000D01*
X130214823Y-112191313D01*
X130214823Y-112191313D01*
G37*
G36*
X133516823Y-108381313D02*
G01*
X133677242Y-108429976D01*
X133744361Y-108465852D01*
X133825078Y-108508996D01*
X133954659Y-108615341D01*
X134061004Y-108744922D01*
X134061005Y-108744924D01*
X134140024Y-108892758D01*
X134188687Y-109053177D01*
X134205117Y-109220000D01*
X134188687Y-109386823D01*
X134140024Y-109547242D01*
X134099477Y-109623100D01*
X134061004Y-109695078D01*
X133954659Y-109824659D01*
X133825078Y-109931004D01*
X133825076Y-109931005D01*
X133677242Y-110010024D01*
X133516823Y-110058687D01*
X133391804Y-110071000D01*
X133308196Y-110071000D01*
X133183177Y-110058687D01*
X133022758Y-110010024D01*
X132874924Y-109931005D01*
X132874922Y-109931004D01*
X132745341Y-109824659D01*
X132638996Y-109695078D01*
X132600523Y-109623100D01*
X132559976Y-109547242D01*
X132511313Y-109386823D01*
X132494883Y-109220000D01*
X132511313Y-109053177D01*
X132559976Y-108892758D01*
X132638995Y-108744924D01*
X132638996Y-108744922D01*
X132745341Y-108615341D01*
X132874922Y-108508996D01*
X132955639Y-108465852D01*
X133022758Y-108429976D01*
X133183177Y-108381313D01*
X133308196Y-108369000D01*
X133391804Y-108369000D01*
X133516823Y-108381313D01*
X133516823Y-108381313D01*
G37*
G36*
X115183228Y-108401703D02*
G01*
X115338100Y-108465853D01*
X115477481Y-108558985D01*
X115596015Y-108677519D01*
X115689147Y-108816900D01*
X115753297Y-108971772D01*
X115786000Y-109136184D01*
X115786000Y-109303816D01*
X115753297Y-109468228D01*
X115689147Y-109623100D01*
X115596015Y-109762481D01*
X115477481Y-109881015D01*
X115338100Y-109974147D01*
X115183228Y-110038297D01*
X115018816Y-110071000D01*
X114851184Y-110071000D01*
X114686772Y-110038297D01*
X114531900Y-109974147D01*
X114392519Y-109881015D01*
X114273985Y-109762481D01*
X114180853Y-109623100D01*
X114116703Y-109468228D01*
X114084000Y-109303816D01*
X114084000Y-109136184D01*
X114116703Y-108971772D01*
X114180853Y-108816900D01*
X114273985Y-108677519D01*
X114392519Y-108558985D01*
X114531900Y-108465853D01*
X114686772Y-108401703D01*
X114851184Y-108369000D01*
X115018816Y-108369000D01*
X115183228Y-108401703D01*
X115183228Y-108401703D01*
G37*
G36*
X123356823Y-108381313D02*
G01*
X123517242Y-108429976D01*
X123584361Y-108465852D01*
X123665078Y-108508996D01*
X123794659Y-108615341D01*
X123901004Y-108744922D01*
X123901005Y-108744924D01*
X123980024Y-108892758D01*
X124028687Y-109053177D01*
X124045117Y-109220000D01*
X124028687Y-109386823D01*
X123980024Y-109547242D01*
X123939477Y-109623100D01*
X123901004Y-109695078D01*
X123794659Y-109824659D01*
X123665078Y-109931004D01*
X123665076Y-109931005D01*
X123517242Y-110010024D01*
X123356823Y-110058687D01*
X123231804Y-110071000D01*
X123148196Y-110071000D01*
X123023177Y-110058687D01*
X122862758Y-110010024D01*
X122714924Y-109931005D01*
X122714922Y-109931004D01*
X122585341Y-109824659D01*
X122478996Y-109695078D01*
X122440523Y-109623100D01*
X122399976Y-109547242D01*
X122351313Y-109386823D01*
X122334883Y-109220000D01*
X122351313Y-109053177D01*
X122399976Y-108892758D01*
X122478995Y-108744924D01*
X122478996Y-108744922D01*
X122585341Y-108615341D01*
X122714922Y-108508996D01*
X122795639Y-108465852D01*
X122862758Y-108429976D01*
X123023177Y-108381313D01*
X123148196Y-108369000D01*
X123231804Y-108369000D01*
X123356823Y-108381313D01*
X123356823Y-108381313D01*
G37*
G36*
X125896823Y-108381313D02*
G01*
X126057242Y-108429976D01*
X126124361Y-108465852D01*
X126205078Y-108508996D01*
X126334659Y-108615341D01*
X126441004Y-108744922D01*
X126441005Y-108744924D01*
X126520024Y-108892758D01*
X126568687Y-109053177D01*
X126585117Y-109220000D01*
X126568687Y-109386823D01*
X126520024Y-109547242D01*
X126479477Y-109623100D01*
X126441004Y-109695078D01*
X126334659Y-109824659D01*
X126205078Y-109931004D01*
X126205076Y-109931005D01*
X126057242Y-110010024D01*
X125896823Y-110058687D01*
X125771804Y-110071000D01*
X125688196Y-110071000D01*
X125563177Y-110058687D01*
X125402758Y-110010024D01*
X125254924Y-109931005D01*
X125254922Y-109931004D01*
X125125341Y-109824659D01*
X125018996Y-109695078D01*
X124980523Y-109623100D01*
X124939976Y-109547242D01*
X124891313Y-109386823D01*
X124874883Y-109220000D01*
X124891313Y-109053177D01*
X124939976Y-108892758D01*
X125018995Y-108744924D01*
X125018996Y-108744922D01*
X125125341Y-108615341D01*
X125254922Y-108508996D01*
X125335639Y-108465852D01*
X125402758Y-108429976D01*
X125563177Y-108381313D01*
X125688196Y-108369000D01*
X125771804Y-108369000D01*
X125896823Y-108381313D01*
X125896823Y-108381313D01*
G37*
G36*
X128436823Y-108381313D02*
G01*
X128597242Y-108429976D01*
X128664361Y-108465852D01*
X128745078Y-108508996D01*
X128874659Y-108615341D01*
X128981004Y-108744922D01*
X128981005Y-108744924D01*
X129060024Y-108892758D01*
X129108687Y-109053177D01*
X129125117Y-109220000D01*
X129108687Y-109386823D01*
X129060024Y-109547242D01*
X129019477Y-109623100D01*
X128981004Y-109695078D01*
X128874659Y-109824659D01*
X128745078Y-109931004D01*
X128745076Y-109931005D01*
X128597242Y-110010024D01*
X128436823Y-110058687D01*
X128311804Y-110071000D01*
X128228196Y-110071000D01*
X128103177Y-110058687D01*
X127942758Y-110010024D01*
X127794924Y-109931005D01*
X127794922Y-109931004D01*
X127665341Y-109824659D01*
X127558996Y-109695078D01*
X127520523Y-109623100D01*
X127479976Y-109547242D01*
X127431313Y-109386823D01*
X127414883Y-109220000D01*
X127431313Y-109053177D01*
X127479976Y-108892758D01*
X127558995Y-108744924D01*
X127558996Y-108744922D01*
X127665341Y-108615341D01*
X127794922Y-108508996D01*
X127875639Y-108465852D01*
X127942758Y-108429976D01*
X128103177Y-108381313D01*
X128228196Y-108369000D01*
X128311804Y-108369000D01*
X128436823Y-108381313D01*
X128436823Y-108381313D01*
G37*
G36*
X136056823Y-108381313D02*
G01*
X136217242Y-108429976D01*
X136284361Y-108465852D01*
X136365078Y-108508996D01*
X136494659Y-108615341D01*
X136601004Y-108744922D01*
X136601005Y-108744924D01*
X136680024Y-108892758D01*
X136728687Y-109053177D01*
X136745117Y-109220000D01*
X136728687Y-109386823D01*
X136680024Y-109547242D01*
X136639477Y-109623100D01*
X136601004Y-109695078D01*
X136494659Y-109824659D01*
X136365078Y-109931004D01*
X136365076Y-109931005D01*
X136217242Y-110010024D01*
X136056823Y-110058687D01*
X135931804Y-110071000D01*
X135848196Y-110071000D01*
X135723177Y-110058687D01*
X135562758Y-110010024D01*
X135414924Y-109931005D01*
X135414922Y-109931004D01*
X135285341Y-109824659D01*
X135178996Y-109695078D01*
X135140523Y-109623100D01*
X135099976Y-109547242D01*
X135051313Y-109386823D01*
X135034883Y-109220000D01*
X135051313Y-109053177D01*
X135099976Y-108892758D01*
X135178995Y-108744924D01*
X135178996Y-108744922D01*
X135285341Y-108615341D01*
X135414922Y-108508996D01*
X135495639Y-108465852D01*
X135562758Y-108429976D01*
X135723177Y-108381313D01*
X135848196Y-108369000D01*
X135931804Y-108369000D01*
X136056823Y-108381313D01*
X136056823Y-108381313D01*
G37*
G36*
X130976823Y-108381313D02*
G01*
X131137242Y-108429976D01*
X131204361Y-108465852D01*
X131285078Y-108508996D01*
X131414659Y-108615341D01*
X131521004Y-108744922D01*
X131521005Y-108744924D01*
X131600024Y-108892758D01*
X131648687Y-109053177D01*
X131665117Y-109220000D01*
X131648687Y-109386823D01*
X131600024Y-109547242D01*
X131559477Y-109623100D01*
X131521004Y-109695078D01*
X131414659Y-109824659D01*
X131285078Y-109931004D01*
X131285076Y-109931005D01*
X131137242Y-110010024D01*
X130976823Y-110058687D01*
X130851804Y-110071000D01*
X130768196Y-110071000D01*
X130643177Y-110058687D01*
X130482758Y-110010024D01*
X130334924Y-109931005D01*
X130334922Y-109931004D01*
X130205341Y-109824659D01*
X130098996Y-109695078D01*
X130060523Y-109623100D01*
X130019976Y-109547242D01*
X129971313Y-109386823D01*
X129954883Y-109220000D01*
X129971313Y-109053177D01*
X130019976Y-108892758D01*
X130098995Y-108744924D01*
X130098996Y-108744922D01*
X130205341Y-108615341D01*
X130334922Y-108508996D01*
X130415639Y-108465852D01*
X130482758Y-108429976D01*
X130643177Y-108381313D01*
X130768196Y-108369000D01*
X130851804Y-108369000D01*
X130976823Y-108381313D01*
X130976823Y-108381313D01*
G37*
G36*
X119628228Y-108401703D02*
G01*
X119783100Y-108465853D01*
X119922481Y-108558985D01*
X120041015Y-108677519D01*
X120134147Y-108816900D01*
X120198297Y-108971772D01*
X120231000Y-109136184D01*
X120231000Y-109303816D01*
X120198297Y-109468228D01*
X120134147Y-109623100D01*
X120041015Y-109762481D01*
X119922481Y-109881015D01*
X119783100Y-109974147D01*
X119628228Y-110038297D01*
X119463816Y-110071000D01*
X119296184Y-110071000D01*
X119131772Y-110038297D01*
X118976900Y-109974147D01*
X118837519Y-109881015D01*
X118718985Y-109762481D01*
X118625853Y-109623100D01*
X118561703Y-109468228D01*
X118529000Y-109303816D01*
X118529000Y-109136184D01*
X118561703Y-108971772D01*
X118625853Y-108816900D01*
X118718985Y-108677519D01*
X118837519Y-108558985D01*
X118976900Y-108465853D01*
X119131772Y-108401703D01*
X119296184Y-108369000D01*
X119463816Y-108369000D01*
X119628228Y-108401703D01*
X119628228Y-108401703D01*
G37*
G36*
X138596823Y-108381313D02*
G01*
X138757242Y-108429976D01*
X138824361Y-108465852D01*
X138905078Y-108508996D01*
X139034659Y-108615341D01*
X139141004Y-108744922D01*
X139141005Y-108744924D01*
X139220024Y-108892758D01*
X139268687Y-109053177D01*
X139285117Y-109220000D01*
X139268687Y-109386823D01*
X139220024Y-109547242D01*
X139179477Y-109623100D01*
X139141004Y-109695078D01*
X139034659Y-109824659D01*
X138905078Y-109931004D01*
X138905076Y-109931005D01*
X138757242Y-110010024D01*
X138596823Y-110058687D01*
X138471804Y-110071000D01*
X138388196Y-110071000D01*
X138263177Y-110058687D01*
X138102758Y-110010024D01*
X137954924Y-109931005D01*
X137954922Y-109931004D01*
X137825341Y-109824659D01*
X137718996Y-109695078D01*
X137680523Y-109623100D01*
X137639976Y-109547242D01*
X137591313Y-109386823D01*
X137574883Y-109220000D01*
X137591313Y-109053177D01*
X137639976Y-108892758D01*
X137718995Y-108744924D01*
X137718996Y-108744922D01*
X137825341Y-108615341D01*
X137954922Y-108508996D01*
X138035639Y-108465852D01*
X138102758Y-108429976D01*
X138263177Y-108381313D01*
X138388196Y-108369000D01*
X138471804Y-108369000D01*
X138596823Y-108381313D01*
X138596823Y-108381313D01*
G37*
G36*
X119628228Y-103401703D02*
G01*
X119783100Y-103465853D01*
X119922481Y-103558985D01*
X120041015Y-103677519D01*
X120134147Y-103816900D01*
X120198297Y-103971772D01*
X120231000Y-104136184D01*
X120231000Y-104303816D01*
X120198297Y-104468228D01*
X120134147Y-104623100D01*
X120041015Y-104762481D01*
X119922481Y-104881015D01*
X119783100Y-104974147D01*
X119628228Y-105038297D01*
X119463816Y-105071000D01*
X119296184Y-105071000D01*
X119131772Y-105038297D01*
X118976900Y-104974147D01*
X118837519Y-104881015D01*
X118718985Y-104762481D01*
X118625853Y-104623100D01*
X118561703Y-104468228D01*
X118529000Y-104303816D01*
X118529000Y-104136184D01*
X118561703Y-103971772D01*
X118625853Y-103816900D01*
X118718985Y-103677519D01*
X118837519Y-103558985D01*
X118976900Y-103465853D01*
X119131772Y-103401703D01*
X119296184Y-103369000D01*
X119463816Y-103369000D01*
X119628228Y-103401703D01*
X119628228Y-103401703D01*
G37*
G36*
X115101823Y-103301313D02*
G01*
X115262242Y-103349976D01*
X115297833Y-103369000D01*
X115410078Y-103428996D01*
X115539659Y-103535341D01*
X115646004Y-103664922D01*
X115646005Y-103664924D01*
X115725024Y-103812758D01*
X115725025Y-103812761D01*
X115726281Y-103816903D01*
X115773687Y-103973177D01*
X115790117Y-104140000D01*
X115773687Y-104306823D01*
X115725024Y-104467242D01*
X115724496Y-104468229D01*
X115646004Y-104615078D01*
X115539659Y-104744659D01*
X115410078Y-104851004D01*
X115410076Y-104851005D01*
X115262242Y-104930024D01*
X115101823Y-104978687D01*
X114976804Y-104991000D01*
X114893196Y-104991000D01*
X114768177Y-104978687D01*
X114607758Y-104930024D01*
X114459924Y-104851005D01*
X114459922Y-104851004D01*
X114330341Y-104744659D01*
X114223996Y-104615078D01*
X114145504Y-104468229D01*
X114144976Y-104467242D01*
X114096313Y-104306823D01*
X114079883Y-104140000D01*
X114096313Y-103973177D01*
X114143719Y-103816903D01*
X114144975Y-103812761D01*
X114144976Y-103812758D01*
X114223995Y-103664924D01*
X114223996Y-103664922D01*
X114330341Y-103535341D01*
X114459922Y-103428996D01*
X114572167Y-103369000D01*
X114607758Y-103349976D01*
X114768177Y-103301313D01*
X114893196Y-103289000D01*
X114976804Y-103289000D01*
X115101823Y-103301313D01*
X115101823Y-103301313D01*
G37*
G36*
X133516823Y-100761313D02*
G01*
X133677242Y-100809976D01*
X133809906Y-100880886D01*
X133825078Y-100888996D01*
X133954659Y-100995341D01*
X134061004Y-101124922D01*
X134061005Y-101124924D01*
X134140024Y-101272758D01*
X134188687Y-101433177D01*
X134205117Y-101600000D01*
X134188687Y-101766823D01*
X134140024Y-101927242D01*
X134069114Y-102059906D01*
X134061004Y-102075078D01*
X133954659Y-102204659D01*
X133825078Y-102311004D01*
X133825076Y-102311005D01*
X133677242Y-102390024D01*
X133516823Y-102438687D01*
X133391804Y-102451000D01*
X133308196Y-102451000D01*
X133183177Y-102438687D01*
X133022758Y-102390024D01*
X132874924Y-102311005D01*
X132874922Y-102311004D01*
X132745341Y-102204659D01*
X132638996Y-102075078D01*
X132630886Y-102059906D01*
X132559976Y-101927242D01*
X132511313Y-101766823D01*
X132494883Y-101600000D01*
X132511313Y-101433177D01*
X132559976Y-101272758D01*
X132638995Y-101124924D01*
X132638996Y-101124922D01*
X132745341Y-100995341D01*
X132874922Y-100888996D01*
X132890094Y-100880886D01*
X133022758Y-100809976D01*
X133183177Y-100761313D01*
X133308196Y-100749000D01*
X133391804Y-100749000D01*
X133516823Y-100761313D01*
X133516823Y-100761313D01*
G37*
G36*
X128436823Y-100761313D02*
G01*
X128597242Y-100809976D01*
X128729906Y-100880886D01*
X128745078Y-100888996D01*
X128874659Y-100995341D01*
X128981004Y-101124922D01*
X128981005Y-101124924D01*
X129060024Y-101272758D01*
X129108687Y-101433177D01*
X129125117Y-101600000D01*
X129108687Y-101766823D01*
X129060024Y-101927242D01*
X128989114Y-102059906D01*
X128981004Y-102075078D01*
X128874659Y-102204659D01*
X128745078Y-102311004D01*
X128745076Y-102311005D01*
X128597242Y-102390024D01*
X128436823Y-102438687D01*
X128311804Y-102451000D01*
X128228196Y-102451000D01*
X128103177Y-102438687D01*
X127942758Y-102390024D01*
X127794924Y-102311005D01*
X127794922Y-102311004D01*
X127665341Y-102204659D01*
X127558996Y-102075078D01*
X127550886Y-102059906D01*
X127479976Y-101927242D01*
X127431313Y-101766823D01*
X127414883Y-101600000D01*
X127431313Y-101433177D01*
X127479976Y-101272758D01*
X127558995Y-101124924D01*
X127558996Y-101124922D01*
X127665341Y-100995341D01*
X127794922Y-100888996D01*
X127810094Y-100880886D01*
X127942758Y-100809976D01*
X128103177Y-100761313D01*
X128228196Y-100749000D01*
X128311804Y-100749000D01*
X128436823Y-100761313D01*
X128436823Y-100761313D01*
G37*
G36*
X130976823Y-100761313D02*
G01*
X131137242Y-100809976D01*
X131269906Y-100880886D01*
X131285078Y-100888996D01*
X131414659Y-100995341D01*
X131521004Y-101124922D01*
X131521005Y-101124924D01*
X131600024Y-101272758D01*
X131648687Y-101433177D01*
X131665117Y-101600000D01*
X131648687Y-101766823D01*
X131600024Y-101927242D01*
X131529114Y-102059906D01*
X131521004Y-102075078D01*
X131414659Y-102204659D01*
X131285078Y-102311004D01*
X131285076Y-102311005D01*
X131137242Y-102390024D01*
X130976823Y-102438687D01*
X130851804Y-102451000D01*
X130768196Y-102451000D01*
X130643177Y-102438687D01*
X130482758Y-102390024D01*
X130334924Y-102311005D01*
X130334922Y-102311004D01*
X130205341Y-102204659D01*
X130098996Y-102075078D01*
X130090886Y-102059906D01*
X130019976Y-101927242D01*
X129971313Y-101766823D01*
X129954883Y-101600000D01*
X129971313Y-101433177D01*
X130019976Y-101272758D01*
X130098995Y-101124924D01*
X130098996Y-101124922D01*
X130205341Y-100995341D01*
X130334922Y-100888996D01*
X130350094Y-100880886D01*
X130482758Y-100809976D01*
X130643177Y-100761313D01*
X130768196Y-100749000D01*
X130851804Y-100749000D01*
X130976823Y-100761313D01*
X130976823Y-100761313D01*
G37*
G36*
X136056823Y-100761313D02*
G01*
X136217242Y-100809976D01*
X136349906Y-100880886D01*
X136365078Y-100888996D01*
X136494659Y-100995341D01*
X136601004Y-101124922D01*
X136601005Y-101124924D01*
X136680024Y-101272758D01*
X136728687Y-101433177D01*
X136745117Y-101600000D01*
X136728687Y-101766823D01*
X136680024Y-101927242D01*
X136609114Y-102059906D01*
X136601004Y-102075078D01*
X136494659Y-102204659D01*
X136365078Y-102311004D01*
X136365076Y-102311005D01*
X136217242Y-102390024D01*
X136056823Y-102438687D01*
X135931804Y-102451000D01*
X135848196Y-102451000D01*
X135723177Y-102438687D01*
X135562758Y-102390024D01*
X135414924Y-102311005D01*
X135414922Y-102311004D01*
X135285341Y-102204659D01*
X135178996Y-102075078D01*
X135170886Y-102059906D01*
X135099976Y-101927242D01*
X135051313Y-101766823D01*
X135034883Y-101600000D01*
X135051313Y-101433177D01*
X135099976Y-101272758D01*
X135178995Y-101124924D01*
X135178996Y-101124922D01*
X135285341Y-100995341D01*
X135414922Y-100888996D01*
X135430094Y-100880886D01*
X135562758Y-100809976D01*
X135723177Y-100761313D01*
X135848196Y-100749000D01*
X135931804Y-100749000D01*
X136056823Y-100761313D01*
X136056823Y-100761313D01*
G37*
G36*
X139281000Y-102451000D02*
G01*
X137579000Y-102451000D01*
X137579000Y-100749000D01*
X139281000Y-100749000D01*
X139281000Y-102451000D01*
X139281000Y-102451000D01*
G37*
G36*
X123356823Y-100761313D02*
G01*
X123517242Y-100809976D01*
X123649906Y-100880886D01*
X123665078Y-100888996D01*
X123794659Y-100995341D01*
X123901004Y-101124922D01*
X123901005Y-101124924D01*
X123980024Y-101272758D01*
X124028687Y-101433177D01*
X124045117Y-101600000D01*
X124028687Y-101766823D01*
X123980024Y-101927242D01*
X123909114Y-102059906D01*
X123901004Y-102075078D01*
X123794659Y-102204659D01*
X123665078Y-102311004D01*
X123665076Y-102311005D01*
X123517242Y-102390024D01*
X123356823Y-102438687D01*
X123231804Y-102451000D01*
X123148196Y-102451000D01*
X123023177Y-102438687D01*
X122862758Y-102390024D01*
X122714924Y-102311005D01*
X122714922Y-102311004D01*
X122585341Y-102204659D01*
X122478996Y-102075078D01*
X122470886Y-102059906D01*
X122399976Y-101927242D01*
X122351313Y-101766823D01*
X122334883Y-101600000D01*
X122351313Y-101433177D01*
X122399976Y-101272758D01*
X122478995Y-101124924D01*
X122478996Y-101124922D01*
X122585341Y-100995341D01*
X122714922Y-100888996D01*
X122730094Y-100880886D01*
X122862758Y-100809976D01*
X123023177Y-100761313D01*
X123148196Y-100749000D01*
X123231804Y-100749000D01*
X123356823Y-100761313D01*
X123356823Y-100761313D01*
G37*
G36*
X125896823Y-100761313D02*
G01*
X126057242Y-100809976D01*
X126189906Y-100880886D01*
X126205078Y-100888996D01*
X126334659Y-100995341D01*
X126441004Y-101124922D01*
X126441005Y-101124924D01*
X126520024Y-101272758D01*
X126568687Y-101433177D01*
X126585117Y-101600000D01*
X126568687Y-101766823D01*
X126520024Y-101927242D01*
X126449114Y-102059906D01*
X126441004Y-102075078D01*
X126334659Y-102204659D01*
X126205078Y-102311004D01*
X126205076Y-102311005D01*
X126057242Y-102390024D01*
X125896823Y-102438687D01*
X125771804Y-102451000D01*
X125688196Y-102451000D01*
X125563177Y-102438687D01*
X125402758Y-102390024D01*
X125254924Y-102311005D01*
X125254922Y-102311004D01*
X125125341Y-102204659D01*
X125018996Y-102075078D01*
X125010886Y-102059906D01*
X124939976Y-101927242D01*
X124891313Y-101766823D01*
X124874883Y-101600000D01*
X124891313Y-101433177D01*
X124939976Y-101272758D01*
X125018995Y-101124924D01*
X125018996Y-101124922D01*
X125125341Y-100995341D01*
X125254922Y-100888996D01*
X125270094Y-100880886D01*
X125402758Y-100809976D01*
X125563177Y-100761313D01*
X125688196Y-100749000D01*
X125771804Y-100749000D01*
X125896823Y-100761313D01*
X125896823Y-100761313D01*
G37*
G36*
X118276823Y-100126313D02*
G01*
X118437242Y-100174976D01*
X118569906Y-100245886D01*
X118585078Y-100253996D01*
X118714659Y-100360341D01*
X118821004Y-100489922D01*
X118821005Y-100489924D01*
X118900024Y-100637758D01*
X118948687Y-100798177D01*
X118965117Y-100965000D01*
X118948687Y-101131823D01*
X118900024Y-101292242D01*
X118829114Y-101424906D01*
X118821004Y-101440078D01*
X118714659Y-101569659D01*
X118585078Y-101676004D01*
X118585076Y-101676005D01*
X118437242Y-101755024D01*
X118276823Y-101803687D01*
X118151804Y-101816000D01*
X118068196Y-101816000D01*
X117943177Y-101803687D01*
X117782758Y-101755024D01*
X117634924Y-101676005D01*
X117634922Y-101676004D01*
X117505341Y-101569659D01*
X117398996Y-101440078D01*
X117390886Y-101424906D01*
X117319976Y-101292242D01*
X117271313Y-101131823D01*
X117254883Y-100965000D01*
X117271313Y-100798177D01*
X117319976Y-100637758D01*
X117398995Y-100489924D01*
X117398996Y-100489922D01*
X117505341Y-100360341D01*
X117634922Y-100253996D01*
X117650094Y-100245886D01*
X117782758Y-100174976D01*
X117943177Y-100126313D01*
X118068196Y-100114000D01*
X118151804Y-100114000D01*
X118276823Y-100126313D01*
X118276823Y-100126313D01*
G37*
G36*
X132296000Y-99276000D02*
G01*
X130594000Y-99276000D01*
X130594000Y-97574000D01*
X132296000Y-97574000D01*
X132296000Y-99276000D01*
X132296000Y-99276000D01*
G37*
G36*
X121451823Y-97586313D02*
G01*
X121612242Y-97634976D01*
X121744906Y-97705886D01*
X121760078Y-97713996D01*
X121889659Y-97820341D01*
X121996004Y-97949922D01*
X121996005Y-97949924D01*
X122075024Y-98097758D01*
X122123687Y-98258177D01*
X122140117Y-98425000D01*
X122123687Y-98591823D01*
X122075024Y-98752242D01*
X122004114Y-98884906D01*
X121996004Y-98900078D01*
X121889659Y-99029659D01*
X121760078Y-99136004D01*
X121760076Y-99136005D01*
X121612242Y-99215024D01*
X121451823Y-99263687D01*
X121326804Y-99276000D01*
X121243196Y-99276000D01*
X121118177Y-99263687D01*
X120957758Y-99215024D01*
X120809924Y-99136005D01*
X120809922Y-99136004D01*
X120680341Y-99029659D01*
X120573996Y-98900078D01*
X120565886Y-98884906D01*
X120494976Y-98752242D01*
X120446313Y-98591823D01*
X120429883Y-98425000D01*
X120446313Y-98258177D01*
X120494976Y-98097758D01*
X120573995Y-97949924D01*
X120573996Y-97949922D01*
X120680341Y-97820341D01*
X120809922Y-97713996D01*
X120825094Y-97705886D01*
X120957758Y-97634976D01*
X121118177Y-97586313D01*
X121243196Y-97574000D01*
X121326804Y-97574000D01*
X121451823Y-97586313D01*
X121451823Y-97586313D01*
G37*
G36*
X129756000Y-99276000D02*
G01*
X128054000Y-99276000D01*
X128054000Y-97574000D01*
X129756000Y-97574000D01*
X129756000Y-99276000D01*
X129756000Y-99276000D01*
G37*
G36*
X139231823Y-97586313D02*
G01*
X139392242Y-97634976D01*
X139524906Y-97705886D01*
X139540078Y-97713996D01*
X139669659Y-97820341D01*
X139776004Y-97949922D01*
X139776005Y-97949924D01*
X139855024Y-98097758D01*
X139903687Y-98258177D01*
X139920117Y-98425000D01*
X139903687Y-98591823D01*
X139855024Y-98752242D01*
X139784114Y-98884906D01*
X139776004Y-98900078D01*
X139669659Y-99029659D01*
X139540078Y-99136004D01*
X139540076Y-99136005D01*
X139392242Y-99215024D01*
X139231823Y-99263687D01*
X139106804Y-99276000D01*
X139023196Y-99276000D01*
X138898177Y-99263687D01*
X138737758Y-99215024D01*
X138589924Y-99136005D01*
X138589922Y-99136004D01*
X138460341Y-99029659D01*
X138353996Y-98900078D01*
X138345886Y-98884906D01*
X138274976Y-98752242D01*
X138226313Y-98591823D01*
X138209883Y-98425000D01*
X138226313Y-98258177D01*
X138274976Y-98097758D01*
X138353995Y-97949924D01*
X138353996Y-97949922D01*
X138460341Y-97820341D01*
X138589922Y-97713996D01*
X138605094Y-97705886D01*
X138737758Y-97634976D01*
X138898177Y-97586313D01*
X139023196Y-97574000D01*
X139106804Y-97574000D01*
X139231823Y-97586313D01*
X139231823Y-97586313D01*
G37*
G36*
X118358228Y-95066703D02*
G01*
X118513100Y-95130853D01*
X118652481Y-95223985D01*
X118771015Y-95342519D01*
X118864147Y-95481900D01*
X118928297Y-95636772D01*
X118961000Y-95801184D01*
X118961000Y-95968816D01*
X118928297Y-96133228D01*
X118864147Y-96288100D01*
X118771015Y-96427481D01*
X118652481Y-96546015D01*
X118513100Y-96639147D01*
X118358228Y-96703297D01*
X118193816Y-96736000D01*
X118026184Y-96736000D01*
X117861772Y-96703297D01*
X117706900Y-96639147D01*
X117567519Y-96546015D01*
X117448985Y-96427481D01*
X117355853Y-96288100D01*
X117291703Y-96133228D01*
X117259000Y-95968816D01*
X117259000Y-95801184D01*
X117291703Y-95636772D01*
X117355853Y-95481900D01*
X117448985Y-95342519D01*
X117567519Y-95223985D01*
X117706900Y-95130853D01*
X117861772Y-95066703D01*
X118026184Y-95034000D01*
X118193816Y-95034000D01*
X118358228Y-95066703D01*
X118358228Y-95066703D01*
G37*
G36*
X130341823Y-93776313D02*
G01*
X130502242Y-93824976D01*
X130569361Y-93860852D01*
X130650078Y-93903996D01*
X130779659Y-94010341D01*
X130886004Y-94139922D01*
X130886005Y-94139924D01*
X130965024Y-94287758D01*
X131013687Y-94448177D01*
X131030117Y-94615000D01*
X131013687Y-94781823D01*
X130965024Y-94942242D01*
X130924477Y-95018100D01*
X130886004Y-95090078D01*
X130779659Y-95219659D01*
X130650078Y-95326004D01*
X130650076Y-95326005D01*
X130502242Y-95405024D01*
X130341823Y-95453687D01*
X130216804Y-95466000D01*
X130133196Y-95466000D01*
X130008177Y-95453687D01*
X129847758Y-95405024D01*
X129699924Y-95326005D01*
X129699922Y-95326004D01*
X129570341Y-95219659D01*
X129463996Y-95090078D01*
X129425523Y-95018100D01*
X129384976Y-94942242D01*
X129336313Y-94781823D01*
X129319883Y-94615000D01*
X129336313Y-94448177D01*
X129384976Y-94287758D01*
X129463995Y-94139924D01*
X129463996Y-94139922D01*
X129570341Y-94010341D01*
X129699922Y-93903996D01*
X129780639Y-93860852D01*
X129847758Y-93824976D01*
X130008177Y-93776313D01*
X130133196Y-93764000D01*
X130216804Y-93764000D01*
X130341823Y-93776313D01*
X130341823Y-93776313D01*
G37*
G36*
X133598228Y-93796703D02*
G01*
X133753100Y-93860853D01*
X133892481Y-93953985D01*
X134011015Y-94072519D01*
X134104147Y-94211900D01*
X134168297Y-94366772D01*
X134201000Y-94531184D01*
X134201000Y-94698816D01*
X134168297Y-94863228D01*
X134104147Y-95018100D01*
X134011015Y-95157481D01*
X133892481Y-95276015D01*
X133753100Y-95369147D01*
X133598228Y-95433297D01*
X133433816Y-95466000D01*
X133266184Y-95466000D01*
X133101772Y-95433297D01*
X132946900Y-95369147D01*
X132807519Y-95276015D01*
X132688985Y-95157481D01*
X132595853Y-95018100D01*
X132531703Y-94863228D01*
X132499000Y-94698816D01*
X132499000Y-94531184D01*
X132531703Y-94366772D01*
X132595853Y-94211900D01*
X132688985Y-94072519D01*
X132807519Y-93953985D01*
X132946900Y-93860853D01*
X133101772Y-93796703D01*
X133266184Y-93764000D01*
X133433816Y-93764000D01*
X133598228Y-93796703D01*
X133598228Y-93796703D01*
G37*
G36*
X122721823Y-93776313D02*
G01*
X122882242Y-93824976D01*
X122949361Y-93860852D01*
X123030078Y-93903996D01*
X123159659Y-94010341D01*
X123266004Y-94139922D01*
X123266005Y-94139924D01*
X123345024Y-94287758D01*
X123393687Y-94448177D01*
X123410117Y-94615000D01*
X123393687Y-94781823D01*
X123345024Y-94942242D01*
X123304477Y-95018100D01*
X123266004Y-95090078D01*
X123159659Y-95219659D01*
X123030078Y-95326004D01*
X123030076Y-95326005D01*
X122882242Y-95405024D01*
X122721823Y-95453687D01*
X122596804Y-95466000D01*
X122513196Y-95466000D01*
X122388177Y-95453687D01*
X122227758Y-95405024D01*
X122079924Y-95326005D01*
X122079922Y-95326004D01*
X121950341Y-95219659D01*
X121843996Y-95090078D01*
X121805523Y-95018100D01*
X121764976Y-94942242D01*
X121716313Y-94781823D01*
X121699883Y-94615000D01*
X121716313Y-94448177D01*
X121764976Y-94287758D01*
X121843995Y-94139924D01*
X121843996Y-94139922D01*
X121950341Y-94010341D01*
X122079922Y-93903996D01*
X122160639Y-93860852D01*
X122227758Y-93824976D01*
X122388177Y-93776313D01*
X122513196Y-93764000D01*
X122596804Y-93764000D01*
X122721823Y-93776313D01*
X122721823Y-93776313D01*
G37*
G36*
X138598228Y-93796703D02*
G01*
X138753100Y-93860853D01*
X138892481Y-93953985D01*
X139011015Y-94072519D01*
X139104147Y-94211900D01*
X139168297Y-94366772D01*
X139201000Y-94531184D01*
X139201000Y-94698816D01*
X139168297Y-94863228D01*
X139104147Y-95018100D01*
X139011015Y-95157481D01*
X138892481Y-95276015D01*
X138753100Y-95369147D01*
X138598228Y-95433297D01*
X138433816Y-95466000D01*
X138266184Y-95466000D01*
X138101772Y-95433297D01*
X137946900Y-95369147D01*
X137807519Y-95276015D01*
X137688985Y-95157481D01*
X137595853Y-95018100D01*
X137531703Y-94863228D01*
X137499000Y-94698816D01*
X137499000Y-94531184D01*
X137531703Y-94366772D01*
X137595853Y-94211900D01*
X137688985Y-94072519D01*
X137807519Y-93953985D01*
X137946900Y-93860853D01*
X138101772Y-93796703D01*
X138266184Y-93764000D01*
X138433816Y-93764000D01*
X138598228Y-93796703D01*
X138598228Y-93796703D01*
G37*
G36*
X118993228Y-91811703D02*
G01*
X119148100Y-91875853D01*
X119287481Y-91968985D01*
X119406015Y-92087519D01*
X119499147Y-92226900D01*
X119563297Y-92381772D01*
X119596000Y-92546184D01*
X119596000Y-92713816D01*
X119563297Y-92878228D01*
X119499147Y-93033100D01*
X119406015Y-93172481D01*
X119287481Y-93291015D01*
X119148100Y-93384147D01*
X118993228Y-93448297D01*
X118828816Y-93481000D01*
X118661184Y-93481000D01*
X118496772Y-93448297D01*
X118341900Y-93384147D01*
X118202519Y-93291015D01*
X118083985Y-93172481D01*
X117990853Y-93033100D01*
X117926703Y-92878228D01*
X117894000Y-92713816D01*
X117894000Y-92546184D01*
X117926703Y-92381772D01*
X117990853Y-92226900D01*
X118083985Y-92087519D01*
X118202519Y-91968985D01*
X118341900Y-91875853D01*
X118496772Y-91811703D01*
X118661184Y-91779000D01*
X118828816Y-91779000D01*
X118993228Y-91811703D01*
X118993228Y-91811703D01*
G37*
G36*
X130341823Y-91236313D02*
G01*
X130502242Y-91284976D01*
X130614604Y-91345035D01*
X130650078Y-91363996D01*
X130779659Y-91470341D01*
X130886004Y-91599922D01*
X130886005Y-91599924D01*
X130965024Y-91747758D01*
X131013687Y-91908177D01*
X131030117Y-92075000D01*
X131013687Y-92241823D01*
X130965024Y-92402242D01*
X130894114Y-92534906D01*
X130886004Y-92550078D01*
X130779659Y-92679659D01*
X130650078Y-92786004D01*
X130650076Y-92786005D01*
X130502242Y-92865024D01*
X130341823Y-92913687D01*
X130216804Y-92926000D01*
X130133196Y-92926000D01*
X130008177Y-92913687D01*
X129847758Y-92865024D01*
X129699924Y-92786005D01*
X129699922Y-92786004D01*
X129570341Y-92679659D01*
X129463996Y-92550078D01*
X129455886Y-92534906D01*
X129384976Y-92402242D01*
X129336313Y-92241823D01*
X129319883Y-92075000D01*
X129336313Y-91908177D01*
X129384976Y-91747758D01*
X129463995Y-91599924D01*
X129463996Y-91599922D01*
X129570341Y-91470341D01*
X129699922Y-91363996D01*
X129735396Y-91345035D01*
X129847758Y-91284976D01*
X130008177Y-91236313D01*
X130133196Y-91224000D01*
X130216804Y-91224000D01*
X130341823Y-91236313D01*
X130341823Y-91236313D01*
G37*
G36*
X122721823Y-91236313D02*
G01*
X122882242Y-91284976D01*
X122994604Y-91345035D01*
X123030078Y-91363996D01*
X123159659Y-91470341D01*
X123266004Y-91599922D01*
X123266005Y-91599924D01*
X123345024Y-91747758D01*
X123393687Y-91908177D01*
X123410117Y-92075000D01*
X123393687Y-92241823D01*
X123345024Y-92402242D01*
X123274114Y-92534906D01*
X123266004Y-92550078D01*
X123159659Y-92679659D01*
X123030078Y-92786004D01*
X123030076Y-92786005D01*
X122882242Y-92865024D01*
X122721823Y-92913687D01*
X122596804Y-92926000D01*
X122513196Y-92926000D01*
X122388177Y-92913687D01*
X122227758Y-92865024D01*
X122079924Y-92786005D01*
X122079922Y-92786004D01*
X121950341Y-92679659D01*
X121843996Y-92550078D01*
X121835886Y-92534906D01*
X121764976Y-92402242D01*
X121716313Y-92241823D01*
X121699883Y-92075000D01*
X121716313Y-91908177D01*
X121764976Y-91747758D01*
X121843995Y-91599924D01*
X121843996Y-91599922D01*
X121950341Y-91470341D01*
X122079922Y-91363996D01*
X122115396Y-91345035D01*
X122227758Y-91284976D01*
X122388177Y-91236313D01*
X122513196Y-91224000D01*
X122596804Y-91224000D01*
X122721823Y-91236313D01*
X122721823Y-91236313D01*
G37*
G36*
X136637915Y-90012334D02*
G01*
X136746491Y-90045271D01*
X136746494Y-90045272D01*
X136782600Y-90064571D01*
X136846556Y-90098756D01*
X136934264Y-90170736D01*
X137006244Y-90258443D01*
X137040429Y-90322399D01*
X137059728Y-90358505D01*
X137059729Y-90358508D01*
X137092666Y-90467084D01*
X137101000Y-90551702D01*
X137101000Y-91058297D01*
X137092666Y-91142916D01*
X137060252Y-91249767D01*
X137059728Y-91251495D01*
X137049761Y-91270141D01*
X137006244Y-91351557D01*
X136934264Y-91439264D01*
X136846557Y-91511244D01*
X136782601Y-91545429D01*
X136746495Y-91564728D01*
X136746492Y-91564729D01*
X136637916Y-91597666D01*
X136525000Y-91608787D01*
X136412085Y-91597666D01*
X136303509Y-91564729D01*
X136303506Y-91564728D01*
X136267400Y-91545429D01*
X136203444Y-91511244D01*
X136115737Y-91439264D01*
X136043757Y-91351557D01*
X136000239Y-91270141D01*
X135986625Y-91249766D01*
X135969298Y-91232439D01*
X135948924Y-91218826D01*
X135926285Y-91209448D01*
X135902252Y-91204668D01*
X135877748Y-91204668D01*
X135853715Y-91209448D01*
X135831076Y-91218826D01*
X135810701Y-91232440D01*
X135793374Y-91249767D01*
X135779761Y-91270141D01*
X135736244Y-91351557D01*
X135664264Y-91439264D01*
X135576557Y-91511244D01*
X135512601Y-91545429D01*
X135476495Y-91564728D01*
X135476492Y-91564729D01*
X135367916Y-91597666D01*
X135255000Y-91608787D01*
X135142085Y-91597666D01*
X135033509Y-91564729D01*
X135033506Y-91564728D01*
X134997400Y-91545429D01*
X134933444Y-91511244D01*
X134845737Y-91439264D01*
X134782622Y-91362359D01*
X134765297Y-91345034D01*
X134744923Y-91331420D01*
X134722284Y-91322043D01*
X134698250Y-91317263D01*
X134673746Y-91317263D01*
X134649713Y-91322044D01*
X134627074Y-91331421D01*
X134606700Y-91345035D01*
X134589373Y-91362362D01*
X134575759Y-91382736D01*
X134566382Y-91405375D01*
X134561000Y-91441660D01*
X134561000Y-91606000D01*
X133409000Y-91606000D01*
X133409000Y-90004000D01*
X134561000Y-90004000D01*
X134561000Y-90168341D01*
X134563402Y-90192727D01*
X134570515Y-90216176D01*
X134582066Y-90237787D01*
X134597611Y-90256729D01*
X134616553Y-90272274D01*
X134638164Y-90283825D01*
X134661613Y-90290938D01*
X134685999Y-90293340D01*
X134710385Y-90290938D01*
X134733834Y-90283825D01*
X134755445Y-90272274D01*
X134774387Y-90256729D01*
X134782608Y-90247657D01*
X134845736Y-90170736D01*
X134933443Y-90098756D01*
X134997399Y-90064571D01*
X135033505Y-90045272D01*
X135033508Y-90045271D01*
X135142084Y-90012334D01*
X135255000Y-90001213D01*
X135367915Y-90012334D01*
X135476491Y-90045271D01*
X135476494Y-90045272D01*
X135512600Y-90064571D01*
X135576556Y-90098756D01*
X135664264Y-90170736D01*
X135736244Y-90258443D01*
X135771832Y-90325025D01*
X135779761Y-90339859D01*
X135793375Y-90360234D01*
X135810702Y-90377561D01*
X135831076Y-90391174D01*
X135853715Y-90400552D01*
X135877748Y-90405332D01*
X135902252Y-90405332D01*
X135926285Y-90400552D01*
X135948924Y-90391174D01*
X135969299Y-90377560D01*
X135986626Y-90360233D01*
X136000239Y-90339860D01*
X136043756Y-90258444D01*
X136115736Y-90170736D01*
X136203443Y-90098756D01*
X136267399Y-90064571D01*
X136303505Y-90045272D01*
X136303508Y-90045271D01*
X136412084Y-90012334D01*
X136525000Y-90001213D01*
X136637915Y-90012334D01*
X136637915Y-90012334D01*
G37*
G36*
X122721823Y-88696313D02*
G01*
X122882242Y-88744976D01*
X123014906Y-88815886D01*
X123030078Y-88823996D01*
X123159659Y-88930341D01*
X123266004Y-89059922D01*
X123266005Y-89059924D01*
X123345024Y-89207758D01*
X123393687Y-89368177D01*
X123410117Y-89535000D01*
X123393687Y-89701823D01*
X123345024Y-89862242D01*
X123274114Y-89994906D01*
X123266004Y-90010078D01*
X123159659Y-90139659D01*
X123030078Y-90246004D01*
X123030076Y-90246005D01*
X122882242Y-90325024D01*
X122721823Y-90373687D01*
X122596804Y-90386000D01*
X122513196Y-90386000D01*
X122388177Y-90373687D01*
X122227758Y-90325024D01*
X122079924Y-90246005D01*
X122079922Y-90246004D01*
X121950341Y-90139659D01*
X121843996Y-90010078D01*
X121835886Y-89994906D01*
X121764976Y-89862242D01*
X121716313Y-89701823D01*
X121699883Y-89535000D01*
X121716313Y-89368177D01*
X121764976Y-89207758D01*
X121843995Y-89059924D01*
X121843996Y-89059922D01*
X121950341Y-88930341D01*
X122079922Y-88823996D01*
X122095094Y-88815886D01*
X122227758Y-88744976D01*
X122388177Y-88696313D01*
X122513196Y-88684000D01*
X122596804Y-88684000D01*
X122721823Y-88696313D01*
X122721823Y-88696313D01*
G37*
G36*
X130341823Y-88696313D02*
G01*
X130502242Y-88744976D01*
X130634906Y-88815886D01*
X130650078Y-88823996D01*
X130779659Y-88930341D01*
X130886004Y-89059922D01*
X130886005Y-89059924D01*
X130965024Y-89207758D01*
X131013687Y-89368177D01*
X131030117Y-89535000D01*
X131013687Y-89701823D01*
X130965024Y-89862242D01*
X130894114Y-89994906D01*
X130886004Y-90010078D01*
X130779659Y-90139659D01*
X130650078Y-90246004D01*
X130650076Y-90246005D01*
X130502242Y-90325024D01*
X130341823Y-90373687D01*
X130216804Y-90386000D01*
X130133196Y-90386000D01*
X130008177Y-90373687D01*
X129847758Y-90325024D01*
X129699924Y-90246005D01*
X129699922Y-90246004D01*
X129570341Y-90139659D01*
X129463996Y-90010078D01*
X129455886Y-89994906D01*
X129384976Y-89862242D01*
X129336313Y-89701823D01*
X129319883Y-89535000D01*
X129336313Y-89368177D01*
X129384976Y-89207758D01*
X129463995Y-89059924D01*
X129463996Y-89059922D01*
X129570341Y-88930341D01*
X129699922Y-88823996D01*
X129715094Y-88815886D01*
X129847758Y-88744976D01*
X130008177Y-88696313D01*
X130133196Y-88684000D01*
X130216804Y-88684000D01*
X130341823Y-88696313D01*
X130341823Y-88696313D01*
G37*
G36*
X118993228Y-86811703D02*
G01*
X119148100Y-86875853D01*
X119287481Y-86968985D01*
X119406015Y-87087519D01*
X119499147Y-87226900D01*
X119563297Y-87381772D01*
X119596000Y-87546184D01*
X119596000Y-87713816D01*
X119563297Y-87878228D01*
X119499147Y-88033100D01*
X119406015Y-88172481D01*
X119287481Y-88291015D01*
X119148100Y-88384147D01*
X118993228Y-88448297D01*
X118828816Y-88481000D01*
X118661184Y-88481000D01*
X118496772Y-88448297D01*
X118341900Y-88384147D01*
X118202519Y-88291015D01*
X118083985Y-88172481D01*
X117990853Y-88033100D01*
X117926703Y-87878228D01*
X117894000Y-87713816D01*
X117894000Y-87546184D01*
X117926703Y-87381772D01*
X117990853Y-87226900D01*
X118083985Y-87087519D01*
X118202519Y-86968985D01*
X118341900Y-86875853D01*
X118496772Y-86811703D01*
X118661184Y-86779000D01*
X118828816Y-86779000D01*
X118993228Y-86811703D01*
X118993228Y-86811703D01*
G37*
G36*
X130341823Y-86156313D02*
G01*
X130502242Y-86204976D01*
X130634906Y-86275886D01*
X130650078Y-86283996D01*
X130779659Y-86390341D01*
X130886004Y-86519922D01*
X130886005Y-86519924D01*
X130965024Y-86667758D01*
X131013687Y-86828177D01*
X131030117Y-86995000D01*
X131013687Y-87161823D01*
X130965024Y-87322242D01*
X130894114Y-87454906D01*
X130886004Y-87470078D01*
X130779659Y-87599659D01*
X130650078Y-87706004D01*
X130650076Y-87706005D01*
X130502242Y-87785024D01*
X130341823Y-87833687D01*
X130216804Y-87846000D01*
X130133196Y-87846000D01*
X130008177Y-87833687D01*
X129847758Y-87785024D01*
X129699924Y-87706005D01*
X129699922Y-87706004D01*
X129570341Y-87599659D01*
X129463996Y-87470078D01*
X129455886Y-87454906D01*
X129384976Y-87322242D01*
X129336313Y-87161823D01*
X129319883Y-86995000D01*
X129336313Y-86828177D01*
X129384976Y-86667758D01*
X129463995Y-86519924D01*
X129463996Y-86519922D01*
X129570341Y-86390341D01*
X129699922Y-86283996D01*
X129715094Y-86275886D01*
X129847758Y-86204976D01*
X130008177Y-86156313D01*
X130133196Y-86144000D01*
X130216804Y-86144000D01*
X130341823Y-86156313D01*
X130341823Y-86156313D01*
G37*
G36*
X122721823Y-86156313D02*
G01*
X122882242Y-86204976D01*
X123014906Y-86275886D01*
X123030078Y-86283996D01*
X123159659Y-86390341D01*
X123266004Y-86519922D01*
X123266005Y-86519924D01*
X123345024Y-86667758D01*
X123393687Y-86828177D01*
X123410117Y-86995000D01*
X123393687Y-87161823D01*
X123345024Y-87322242D01*
X123274114Y-87454906D01*
X123266004Y-87470078D01*
X123159659Y-87599659D01*
X123030078Y-87706004D01*
X123030076Y-87706005D01*
X122882242Y-87785024D01*
X122721823Y-87833687D01*
X122596804Y-87846000D01*
X122513196Y-87846000D01*
X122388177Y-87833687D01*
X122227758Y-87785024D01*
X122079924Y-87706005D01*
X122079922Y-87706004D01*
X121950341Y-87599659D01*
X121843996Y-87470078D01*
X121835886Y-87454906D01*
X121764976Y-87322242D01*
X121716313Y-87161823D01*
X121699883Y-86995000D01*
X121716313Y-86828177D01*
X121764976Y-86667758D01*
X121843995Y-86519924D01*
X121843996Y-86519922D01*
X121950341Y-86390341D01*
X122079922Y-86283996D01*
X122095094Y-86275886D01*
X122227758Y-86204976D01*
X122388177Y-86156313D01*
X122513196Y-86144000D01*
X122596804Y-86144000D01*
X122721823Y-86156313D01*
X122721823Y-86156313D01*
G37*
G36*
X136691823Y-85521313D02*
G01*
X136852242Y-85569976D01*
X136984906Y-85640886D01*
X137000078Y-85648996D01*
X137129659Y-85755341D01*
X137236004Y-85884922D01*
X137236005Y-85884924D01*
X137315024Y-86032758D01*
X137363687Y-86193177D01*
X137380117Y-86360000D01*
X137363687Y-86526823D01*
X137315024Y-86687242D01*
X137274477Y-86763100D01*
X137236004Y-86835078D01*
X137129659Y-86964659D01*
X137000078Y-87071004D01*
X137000076Y-87071005D01*
X136852242Y-87150024D01*
X136691823Y-87198687D01*
X136566804Y-87211000D01*
X136483196Y-87211000D01*
X136358177Y-87198687D01*
X136197758Y-87150024D01*
X136049924Y-87071005D01*
X136049922Y-87071004D01*
X135920341Y-86964659D01*
X135813996Y-86835078D01*
X135775523Y-86763100D01*
X135734976Y-86687242D01*
X135686313Y-86526823D01*
X135669883Y-86360000D01*
X135686313Y-86193177D01*
X135734976Y-86032758D01*
X135813995Y-85884924D01*
X135813996Y-85884922D01*
X135920341Y-85755341D01*
X136049922Y-85648996D01*
X136065094Y-85640886D01*
X136197758Y-85569976D01*
X136358177Y-85521313D01*
X136483196Y-85509000D01*
X136566804Y-85509000D01*
X136691823Y-85521313D01*
X136691823Y-85521313D01*
G37*
G36*
X133598228Y-85541703D02*
G01*
X133753100Y-85605853D01*
X133892481Y-85698985D01*
X134011015Y-85817519D01*
X134104147Y-85956900D01*
X134168297Y-86111772D01*
X134201000Y-86276184D01*
X134201000Y-86443816D01*
X134168297Y-86608228D01*
X134104147Y-86763100D01*
X134011015Y-86902481D01*
X133892481Y-87021015D01*
X133753100Y-87114147D01*
X133598228Y-87178297D01*
X133433816Y-87211000D01*
X133266184Y-87211000D01*
X133101772Y-87178297D01*
X132946900Y-87114147D01*
X132807519Y-87021015D01*
X132688985Y-86902481D01*
X132595853Y-86763100D01*
X132531703Y-86608228D01*
X132499000Y-86443816D01*
X132499000Y-86276184D01*
X132531703Y-86111772D01*
X132595853Y-85956900D01*
X132688985Y-85817519D01*
X132807519Y-85698985D01*
X132946900Y-85605853D01*
X133101772Y-85541703D01*
X133266184Y-85509000D01*
X133433816Y-85509000D01*
X133598228Y-85541703D01*
X133598228Y-85541703D01*
G37*
G36*
X115818228Y-84271703D02*
G01*
X115973100Y-84335853D01*
X116112481Y-84428985D01*
X116231015Y-84547519D01*
X116324147Y-84686900D01*
X116388297Y-84841772D01*
X116421000Y-85006184D01*
X116421000Y-85173816D01*
X116388297Y-85338228D01*
X116324147Y-85493100D01*
X116231015Y-85632481D01*
X116112481Y-85751015D01*
X115973100Y-85844147D01*
X115818228Y-85908297D01*
X115653816Y-85941000D01*
X115486184Y-85941000D01*
X115321772Y-85908297D01*
X115166900Y-85844147D01*
X115027519Y-85751015D01*
X114908985Y-85632481D01*
X114815853Y-85493100D01*
X114751703Y-85338228D01*
X114719000Y-85173816D01*
X114719000Y-85006184D01*
X114751703Y-84841772D01*
X114815853Y-84686900D01*
X114908985Y-84547519D01*
X115027519Y-84428985D01*
X115166900Y-84335853D01*
X115321772Y-84271703D01*
X115486184Y-84239000D01*
X115653816Y-84239000D01*
X115818228Y-84271703D01*
X115818228Y-84271703D01*
G37*
G36*
X118911823Y-84251313D02*
G01*
X119072242Y-84299976D01*
X119139361Y-84335852D01*
X119220078Y-84378996D01*
X119349659Y-84485341D01*
X119456004Y-84614922D01*
X119456005Y-84614924D01*
X119535024Y-84762758D01*
X119583687Y-84923177D01*
X119600117Y-85090000D01*
X119583687Y-85256823D01*
X119535024Y-85417242D01*
X119494477Y-85493100D01*
X119456004Y-85565078D01*
X119349659Y-85694659D01*
X119220078Y-85801004D01*
X119220076Y-85801005D01*
X119072242Y-85880024D01*
X118911823Y-85928687D01*
X118786804Y-85941000D01*
X118703196Y-85941000D01*
X118578177Y-85928687D01*
X118417758Y-85880024D01*
X118269924Y-85801005D01*
X118269922Y-85801004D01*
X118140341Y-85694659D01*
X118033996Y-85565078D01*
X117995523Y-85493100D01*
X117954976Y-85417242D01*
X117906313Y-85256823D01*
X117889883Y-85090000D01*
X117906313Y-84923177D01*
X117954976Y-84762758D01*
X118033995Y-84614924D01*
X118033996Y-84614922D01*
X118140341Y-84485341D01*
X118269922Y-84378996D01*
X118350639Y-84335852D01*
X118417758Y-84299976D01*
X118578177Y-84251313D01*
X118703196Y-84239000D01*
X118786804Y-84239000D01*
X118911823Y-84251313D01*
X118911823Y-84251313D01*
G37*
G36*
X130341823Y-83616313D02*
G01*
X130502242Y-83664976D01*
X130634906Y-83735886D01*
X130650078Y-83743996D01*
X130779659Y-83850341D01*
X130886004Y-83979922D01*
X130886005Y-83979924D01*
X130965024Y-84127758D01*
X131013687Y-84288177D01*
X131030117Y-84455000D01*
X131013687Y-84621823D01*
X130965024Y-84782242D01*
X130894114Y-84914906D01*
X130886004Y-84930078D01*
X130779659Y-85059659D01*
X130650078Y-85166004D01*
X130650076Y-85166005D01*
X130502242Y-85245024D01*
X130341823Y-85293687D01*
X130216804Y-85306000D01*
X130133196Y-85306000D01*
X130008177Y-85293687D01*
X129847758Y-85245024D01*
X129699924Y-85166005D01*
X129699922Y-85166004D01*
X129570341Y-85059659D01*
X129463996Y-84930078D01*
X129455886Y-84914906D01*
X129384976Y-84782242D01*
X129336313Y-84621823D01*
X129319883Y-84455000D01*
X129336313Y-84288177D01*
X129384976Y-84127758D01*
X129463995Y-83979924D01*
X129463996Y-83979922D01*
X129570341Y-83850341D01*
X129699922Y-83743996D01*
X129715094Y-83735886D01*
X129847758Y-83664976D01*
X130008177Y-83616313D01*
X130133196Y-83604000D01*
X130216804Y-83604000D01*
X130341823Y-83616313D01*
X130341823Y-83616313D01*
G37*
G36*
X122721823Y-83616313D02*
G01*
X122882242Y-83664976D01*
X123014906Y-83735886D01*
X123030078Y-83743996D01*
X123159659Y-83850341D01*
X123266004Y-83979922D01*
X123266005Y-83979924D01*
X123345024Y-84127758D01*
X123393687Y-84288177D01*
X123410117Y-84455000D01*
X123393687Y-84621823D01*
X123345024Y-84782242D01*
X123274114Y-84914906D01*
X123266004Y-84930078D01*
X123159659Y-85059659D01*
X123030078Y-85166004D01*
X123030076Y-85166005D01*
X122882242Y-85245024D01*
X122721823Y-85293687D01*
X122596804Y-85306000D01*
X122513196Y-85306000D01*
X122388177Y-85293687D01*
X122227758Y-85245024D01*
X122079924Y-85166005D01*
X122079922Y-85166004D01*
X121950341Y-85059659D01*
X121843996Y-84930078D01*
X121835886Y-84914906D01*
X121764976Y-84782242D01*
X121716313Y-84621823D01*
X121699883Y-84455000D01*
X121716313Y-84288177D01*
X121764976Y-84127758D01*
X121843995Y-83979924D01*
X121843996Y-83979922D01*
X121950341Y-83850341D01*
X122079922Y-83743996D01*
X122095094Y-83735886D01*
X122227758Y-83664976D01*
X122388177Y-83616313D01*
X122513196Y-83604000D01*
X122596804Y-83604000D01*
X122721823Y-83616313D01*
X122721823Y-83616313D01*
G37*
G36*
X130341823Y-81076313D02*
G01*
X130502242Y-81124976D01*
X130634906Y-81195886D01*
X130650078Y-81203996D01*
X130779659Y-81310341D01*
X130886004Y-81439922D01*
X130886005Y-81439924D01*
X130965024Y-81587758D01*
X131013687Y-81748177D01*
X131030117Y-81915000D01*
X131013687Y-82081823D01*
X130965024Y-82242242D01*
X130894114Y-82374906D01*
X130886004Y-82390078D01*
X130779659Y-82519659D01*
X130650078Y-82626004D01*
X130650076Y-82626005D01*
X130502242Y-82705024D01*
X130341823Y-82753687D01*
X130216804Y-82766000D01*
X130133196Y-82766000D01*
X130008177Y-82753687D01*
X129847758Y-82705024D01*
X129699924Y-82626005D01*
X129699922Y-82626004D01*
X129570341Y-82519659D01*
X129463996Y-82390078D01*
X129455886Y-82374906D01*
X129384976Y-82242242D01*
X129336313Y-82081823D01*
X129319883Y-81915000D01*
X129336313Y-81748177D01*
X129384976Y-81587758D01*
X129463995Y-81439924D01*
X129463996Y-81439922D01*
X129570341Y-81310341D01*
X129699922Y-81203996D01*
X129715094Y-81195886D01*
X129847758Y-81124976D01*
X130008177Y-81076313D01*
X130133196Y-81064000D01*
X130216804Y-81064000D01*
X130341823Y-81076313D01*
X130341823Y-81076313D01*
G37*
G36*
X122721823Y-81076313D02*
G01*
X122882242Y-81124976D01*
X123014906Y-81195886D01*
X123030078Y-81203996D01*
X123159659Y-81310341D01*
X123266004Y-81439922D01*
X123266005Y-81439924D01*
X123345024Y-81587758D01*
X123393687Y-81748177D01*
X123410117Y-81915000D01*
X123393687Y-82081823D01*
X123345024Y-82242242D01*
X123274114Y-82374906D01*
X123266004Y-82390078D01*
X123159659Y-82519659D01*
X123030078Y-82626004D01*
X123030076Y-82626005D01*
X122882242Y-82705024D01*
X122721823Y-82753687D01*
X122596804Y-82766000D01*
X122513196Y-82766000D01*
X122388177Y-82753687D01*
X122227758Y-82705024D01*
X122079924Y-82626005D01*
X122079922Y-82626004D01*
X121950341Y-82519659D01*
X121843996Y-82390078D01*
X121835886Y-82374906D01*
X121764976Y-82242242D01*
X121716313Y-82081823D01*
X121699883Y-81915000D01*
X121716313Y-81748177D01*
X121764976Y-81587758D01*
X121843995Y-81439924D01*
X121843996Y-81439922D01*
X121950341Y-81310341D01*
X122079922Y-81203996D01*
X122095094Y-81195886D01*
X122227758Y-81124976D01*
X122388177Y-81076313D01*
X122513196Y-81064000D01*
X122596804Y-81064000D01*
X122721823Y-81076313D01*
X122721823Y-81076313D01*
G37*
G36*
X133598228Y-80541703D02*
G01*
X133753100Y-80605853D01*
X133892481Y-80698985D01*
X134011015Y-80817519D01*
X134104147Y-80956900D01*
X134168297Y-81111772D01*
X134201000Y-81276184D01*
X134201000Y-81443816D01*
X134168297Y-81608228D01*
X134104147Y-81763100D01*
X134011015Y-81902481D01*
X133892481Y-82021015D01*
X133753100Y-82114147D01*
X133598228Y-82178297D01*
X133433816Y-82211000D01*
X133266184Y-82211000D01*
X133101772Y-82178297D01*
X132946900Y-82114147D01*
X132807519Y-82021015D01*
X132688985Y-81902481D01*
X132595853Y-81763100D01*
X132531703Y-81608228D01*
X132499000Y-81443816D01*
X132499000Y-81276184D01*
X132531703Y-81111772D01*
X132595853Y-80956900D01*
X132688985Y-80817519D01*
X132807519Y-80698985D01*
X132946900Y-80605853D01*
X133101772Y-80541703D01*
X133266184Y-80509000D01*
X133433816Y-80509000D01*
X133598228Y-80541703D01*
X133598228Y-80541703D01*
G37*
G36*
X136773228Y-80461703D02*
G01*
X136928100Y-80525853D01*
X137067481Y-80618985D01*
X137186015Y-80737519D01*
X137279147Y-80876900D01*
X137343297Y-81031772D01*
X137376000Y-81196184D01*
X137376000Y-81363816D01*
X137343297Y-81528228D01*
X137279147Y-81683100D01*
X137186015Y-81822481D01*
X137067481Y-81941015D01*
X136928100Y-82034147D01*
X136773228Y-82098297D01*
X136608816Y-82131000D01*
X136441184Y-82131000D01*
X136276772Y-82098297D01*
X136121900Y-82034147D01*
X135982519Y-81941015D01*
X135863985Y-81822481D01*
X135770853Y-81683100D01*
X135706703Y-81528228D01*
X135674000Y-81363816D01*
X135674000Y-81196184D01*
X135706703Y-81031772D01*
X135770853Y-80876900D01*
X135863985Y-80737519D01*
X135982519Y-80618985D01*
X136121900Y-80525853D01*
X136276772Y-80461703D01*
X136441184Y-80429000D01*
X136608816Y-80429000D01*
X136773228Y-80461703D01*
X136773228Y-80461703D01*
G37*
G36*
X115818228Y-79271703D02*
G01*
X115973100Y-79335853D01*
X116112481Y-79428985D01*
X116231015Y-79547519D01*
X116324147Y-79686900D01*
X116388297Y-79841772D01*
X116421000Y-80006184D01*
X116421000Y-80173816D01*
X116388297Y-80338228D01*
X116324147Y-80493100D01*
X116231015Y-80632481D01*
X116112481Y-80751015D01*
X115973100Y-80844147D01*
X115818228Y-80908297D01*
X115653816Y-80941000D01*
X115486184Y-80941000D01*
X115321772Y-80908297D01*
X115166900Y-80844147D01*
X115027519Y-80751015D01*
X114908985Y-80632481D01*
X114815853Y-80493100D01*
X114751703Y-80338228D01*
X114719000Y-80173816D01*
X114719000Y-80006184D01*
X114751703Y-79841772D01*
X114815853Y-79686900D01*
X114908985Y-79547519D01*
X115027519Y-79428985D01*
X115166900Y-79335853D01*
X115321772Y-79271703D01*
X115486184Y-79239000D01*
X115653816Y-79239000D01*
X115818228Y-79271703D01*
X115818228Y-79271703D01*
G37*
G36*
X123406000Y-80226000D02*
G01*
X121704000Y-80226000D01*
X121704000Y-78524000D01*
X123406000Y-78524000D01*
X123406000Y-80226000D01*
X123406000Y-80226000D01*
G37*
G36*
X130341823Y-78536313D02*
G01*
X130502242Y-78584976D01*
X130634906Y-78655886D01*
X130650078Y-78663996D01*
X130779659Y-78770341D01*
X130886004Y-78899922D01*
X130886005Y-78899924D01*
X130965024Y-79047758D01*
X131013687Y-79208177D01*
X131030117Y-79375000D01*
X131013687Y-79541823D01*
X130965024Y-79702242D01*
X130894114Y-79834906D01*
X130886004Y-79850078D01*
X130779659Y-79979659D01*
X130650078Y-80086004D01*
X130650076Y-80086005D01*
X130502242Y-80165024D01*
X130341823Y-80213687D01*
X130216804Y-80226000D01*
X130133196Y-80226000D01*
X130008177Y-80213687D01*
X129847758Y-80165024D01*
X129699924Y-80086005D01*
X129699922Y-80086004D01*
X129570341Y-79979659D01*
X129463996Y-79850078D01*
X129455886Y-79834906D01*
X129384976Y-79702242D01*
X129336313Y-79541823D01*
X129319883Y-79375000D01*
X129336313Y-79208177D01*
X129384976Y-79047758D01*
X129463995Y-78899924D01*
X129463996Y-78899922D01*
X129570341Y-78770341D01*
X129699922Y-78663996D01*
X129715094Y-78655886D01*
X129847758Y-78584976D01*
X130008177Y-78536313D01*
X130133196Y-78524000D01*
X130216804Y-78524000D01*
X130341823Y-78536313D01*
X130341823Y-78536313D01*
G37*
G36*
X119596000Y-78321000D02*
G01*
X117894000Y-78321000D01*
X117894000Y-76619000D01*
X119596000Y-76619000D01*
X119596000Y-78321000D01*
X119596000Y-78321000D01*
G37*
G36*
X138308254Y-67257818D02*
G01*
X138681511Y-67412426D01*
X138681513Y-67412427D01*
X139017436Y-67636884D01*
X139303116Y-67922564D01*
X139527574Y-68258489D01*
X139682182Y-68631746D01*
X139761000Y-69027993D01*
X139761000Y-69432007D01*
X139682182Y-69828254D01*
X139527574Y-70201511D01*
X139527573Y-70201513D01*
X139303116Y-70537436D01*
X139017436Y-70823116D01*
X138681513Y-71047573D01*
X138681512Y-71047574D01*
X138681511Y-71047574D01*
X138308254Y-71202182D01*
X137912007Y-71281000D01*
X137507993Y-71281000D01*
X137111746Y-71202182D01*
X136738489Y-71047574D01*
X136738488Y-71047574D01*
X136738487Y-71047573D01*
X136402564Y-70823116D01*
X136116884Y-70537436D01*
X135892427Y-70201513D01*
X135892426Y-70201511D01*
X135737818Y-69828254D01*
X135659000Y-69432007D01*
X135659000Y-69027993D01*
X135737818Y-68631746D01*
X135892426Y-68258489D01*
X136116884Y-67922564D01*
X136402564Y-67636884D01*
X136738487Y-67412427D01*
X136738489Y-67412426D01*
X137111746Y-67257818D01*
X137507993Y-67179000D01*
X137912007Y-67179000D01*
X138308254Y-67257818D01*
X138308254Y-67257818D01*
G37*
G36*
X124338254Y-67257818D02*
G01*
X124711511Y-67412426D01*
X124711513Y-67412427D01*
X125047436Y-67636884D01*
X125333116Y-67922564D01*
X125557574Y-68258489D01*
X125712182Y-68631746D01*
X125791000Y-69027993D01*
X125791000Y-69432007D01*
X125712182Y-69828254D01*
X125557574Y-70201511D01*
X125557573Y-70201513D01*
X125333116Y-70537436D01*
X125047436Y-70823116D01*
X124711513Y-71047573D01*
X124711512Y-71047574D01*
X124711511Y-71047574D01*
X124338254Y-71202182D01*
X123942007Y-71281000D01*
X123537993Y-71281000D01*
X123141746Y-71202182D01*
X122768489Y-71047574D01*
X122768488Y-71047574D01*
X122768487Y-71047573D01*
X122432564Y-70823116D01*
X122146884Y-70537436D01*
X121922427Y-70201513D01*
X121922426Y-70201511D01*
X121767818Y-69828254D01*
X121689000Y-69432007D01*
X121689000Y-69027993D01*
X121767818Y-68631746D01*
X121922426Y-68258489D01*
X122146884Y-67922564D01*
X122432564Y-67636884D01*
X122768487Y-67412427D01*
X122768489Y-67412426D01*
X123141746Y-67257818D01*
X123537993Y-67179000D01*
X123942007Y-67179000D01*
X124338254Y-67257818D01*
X124338254Y-67257818D01*
G37*
G36*
X115538254Y-67257818D02*
G01*
X115911511Y-67412426D01*
X115911513Y-67412427D01*
X116247436Y-67636884D01*
X116533116Y-67922564D01*
X116757574Y-68258489D01*
X116912182Y-68631746D01*
X116991000Y-69027993D01*
X116991000Y-69432007D01*
X116912182Y-69828254D01*
X116757574Y-70201511D01*
X116757573Y-70201513D01*
X116533116Y-70537436D01*
X116247436Y-70823116D01*
X115911513Y-71047573D01*
X115911512Y-71047574D01*
X115911511Y-71047574D01*
X115538254Y-71202182D01*
X115142007Y-71281000D01*
X114737993Y-71281000D01*
X114341746Y-71202182D01*
X113968489Y-71047574D01*
X113968488Y-71047574D01*
X113968487Y-71047573D01*
X113632564Y-70823116D01*
X113346884Y-70537436D01*
X113122427Y-70201513D01*
X113122426Y-70201511D01*
X112967818Y-69828254D01*
X112889000Y-69432007D01*
X112889000Y-69027993D01*
X112967818Y-68631746D01*
X113122426Y-68258489D01*
X113346884Y-67922564D01*
X113632564Y-67636884D01*
X113968487Y-67412427D01*
X113968489Y-67412426D01*
X114341746Y-67257818D01*
X114737993Y-67179000D01*
X115142007Y-67179000D01*
X115538254Y-67257818D01*
X115538254Y-67257818D01*
G37*
G36*
X129508254Y-67257818D02*
G01*
X129881511Y-67412426D01*
X129881513Y-67412427D01*
X130217436Y-67636884D01*
X130503116Y-67922564D01*
X130727574Y-68258489D01*
X130882182Y-68631746D01*
X130961000Y-69027993D01*
X130961000Y-69432007D01*
X130882182Y-69828254D01*
X130727574Y-70201511D01*
X130727573Y-70201513D01*
X130503116Y-70537436D01*
X130217436Y-70823116D01*
X129881513Y-71047573D01*
X129881512Y-71047574D01*
X129881511Y-71047574D01*
X129508254Y-71202182D01*
X129112007Y-71281000D01*
X128707993Y-71281000D01*
X128311746Y-71202182D01*
X127938489Y-71047574D01*
X127938488Y-71047574D01*
X127938487Y-71047573D01*
X127602564Y-70823116D01*
X127316884Y-70537436D01*
X127092427Y-70201513D01*
X127092426Y-70201511D01*
X126937818Y-69828254D01*
X126859000Y-69432007D01*
X126859000Y-69027993D01*
X126937818Y-68631746D01*
X127092426Y-68258489D01*
X127316884Y-67922564D01*
X127602564Y-67636884D01*
X127938487Y-67412427D01*
X127938489Y-67412426D01*
X128311746Y-67257818D01*
X128707993Y-67179000D01*
X129112007Y-67179000D01*
X129508254Y-67257818D01*
X129508254Y-67257818D01*
G37*
G36*
X133587395Y-61315546D02*
G01*
X133760466Y-61387234D01*
X133760467Y-61387235D01*
X133916227Y-61491310D01*
X134048690Y-61623773D01*
X134048691Y-61623775D01*
X134152766Y-61779534D01*
X134224454Y-61952605D01*
X134261000Y-62136333D01*
X134261000Y-62323667D01*
X134224454Y-62507395D01*
X134152766Y-62680466D01*
X134152765Y-62680467D01*
X134048690Y-62836227D01*
X133916227Y-62968690D01*
X133837818Y-63021081D01*
X133760466Y-63072766D01*
X133587395Y-63144454D01*
X133403667Y-63181000D01*
X133216333Y-63181000D01*
X133032605Y-63144454D01*
X132859534Y-63072766D01*
X132782182Y-63021081D01*
X132703773Y-62968690D01*
X132571310Y-62836227D01*
X132467235Y-62680467D01*
X132467234Y-62680466D01*
X132395546Y-62507395D01*
X132359000Y-62323667D01*
X132359000Y-62136333D01*
X132395546Y-61952605D01*
X132467234Y-61779534D01*
X132571309Y-61623775D01*
X132571310Y-61623773D01*
X132703773Y-61491310D01*
X132859533Y-61387235D01*
X132859534Y-61387234D01*
X133032605Y-61315546D01*
X133216333Y-61279000D01*
X133403667Y-61279000D01*
X133587395Y-61315546D01*
X133587395Y-61315546D01*
G37*
G36*
X122117395Y-61315546D02*
G01*
X122290466Y-61387234D01*
X122290467Y-61387235D01*
X122446227Y-61491310D01*
X122578690Y-61623773D01*
X122578691Y-61623775D01*
X122682766Y-61779534D01*
X122754454Y-61952605D01*
X122791000Y-62136333D01*
X122791000Y-62323667D01*
X122754454Y-62507395D01*
X122682766Y-62680466D01*
X122682765Y-62680467D01*
X122578690Y-62836227D01*
X122446227Y-62968690D01*
X122367818Y-63021081D01*
X122290466Y-63072766D01*
X122117395Y-63144454D01*
X121933667Y-63181000D01*
X121746333Y-63181000D01*
X121562605Y-63144454D01*
X121389534Y-63072766D01*
X121312182Y-63021081D01*
X121233773Y-62968690D01*
X121101310Y-62836227D01*
X120997235Y-62680467D01*
X120997234Y-62680466D01*
X120925546Y-62507395D01*
X120889000Y-62323667D01*
X120889000Y-62136333D01*
X120925546Y-61952605D01*
X120997234Y-61779534D01*
X121101309Y-61623775D01*
X121101310Y-61623773D01*
X121233773Y-61491310D01*
X121389533Y-61387235D01*
X121389534Y-61387234D01*
X121562605Y-61315546D01*
X121746333Y-61279000D01*
X121933667Y-61279000D01*
X122117395Y-61315546D01*
X122117395Y-61315546D01*
G37*
G36*
X117117395Y-61315546D02*
G01*
X117290466Y-61387234D01*
X117290467Y-61387235D01*
X117446227Y-61491310D01*
X117578690Y-61623773D01*
X117578691Y-61623775D01*
X117682766Y-61779534D01*
X117754454Y-61952605D01*
X117791000Y-62136333D01*
X117791000Y-62323667D01*
X117754454Y-62507395D01*
X117682766Y-62680466D01*
X117682765Y-62680467D01*
X117578690Y-62836227D01*
X117446227Y-62968690D01*
X117367818Y-63021081D01*
X117290466Y-63072766D01*
X117117395Y-63144454D01*
X116933667Y-63181000D01*
X116746333Y-63181000D01*
X116562605Y-63144454D01*
X116389534Y-63072766D01*
X116312182Y-63021081D01*
X116233773Y-62968690D01*
X116101310Y-62836227D01*
X115997235Y-62680467D01*
X115997234Y-62680466D01*
X115925546Y-62507395D01*
X115889000Y-62323667D01*
X115889000Y-62136333D01*
X115925546Y-61952605D01*
X115997234Y-61779534D01*
X116101309Y-61623775D01*
X116101310Y-61623773D01*
X116233773Y-61491310D01*
X116389533Y-61387235D01*
X116389534Y-61387234D01*
X116562605Y-61315546D01*
X116746333Y-61279000D01*
X116933667Y-61279000D01*
X117117395Y-61315546D01*
X117117395Y-61315546D01*
G37*
G36*
X131087395Y-61315546D02*
G01*
X131260466Y-61387234D01*
X131260467Y-61387235D01*
X131416227Y-61491310D01*
X131548690Y-61623773D01*
X131548691Y-61623775D01*
X131652766Y-61779534D01*
X131724454Y-61952605D01*
X131761000Y-62136333D01*
X131761000Y-62323667D01*
X131724454Y-62507395D01*
X131652766Y-62680466D01*
X131652765Y-62680467D01*
X131548690Y-62836227D01*
X131416227Y-62968690D01*
X131337818Y-63021081D01*
X131260466Y-63072766D01*
X131087395Y-63144454D01*
X130903667Y-63181000D01*
X130716333Y-63181000D01*
X130532605Y-63144454D01*
X130359534Y-63072766D01*
X130282182Y-63021081D01*
X130203773Y-62968690D01*
X130071310Y-62836227D01*
X129967235Y-62680467D01*
X129967234Y-62680466D01*
X129895546Y-62507395D01*
X129859000Y-62323667D01*
X129859000Y-62136333D01*
X129895546Y-61952605D01*
X129967234Y-61779534D01*
X130071309Y-61623775D01*
X130071310Y-61623773D01*
X130203773Y-61491310D01*
X130359533Y-61387235D01*
X130359534Y-61387234D01*
X130532605Y-61315546D01*
X130716333Y-61279000D01*
X130903667Y-61279000D01*
X131087395Y-61315546D01*
X131087395Y-61315546D01*
G37*
G36*
X136087395Y-61315546D02*
G01*
X136260466Y-61387234D01*
X136260467Y-61387235D01*
X136416227Y-61491310D01*
X136548690Y-61623773D01*
X136548691Y-61623775D01*
X136652766Y-61779534D01*
X136724454Y-61952605D01*
X136761000Y-62136333D01*
X136761000Y-62323667D01*
X136724454Y-62507395D01*
X136652766Y-62680466D01*
X136652765Y-62680467D01*
X136548690Y-62836227D01*
X136416227Y-62968690D01*
X136337818Y-63021081D01*
X136260466Y-63072766D01*
X136087395Y-63144454D01*
X135903667Y-63181000D01*
X135716333Y-63181000D01*
X135532605Y-63144454D01*
X135359534Y-63072766D01*
X135282182Y-63021081D01*
X135203773Y-62968690D01*
X135071310Y-62836227D01*
X134967235Y-62680467D01*
X134967234Y-62680466D01*
X134895546Y-62507395D01*
X134859000Y-62323667D01*
X134859000Y-62136333D01*
X134895546Y-61952605D01*
X134967234Y-61779534D01*
X135071309Y-61623775D01*
X135071310Y-61623773D01*
X135203773Y-61491310D01*
X135359533Y-61387235D01*
X135359534Y-61387234D01*
X135532605Y-61315546D01*
X135716333Y-61279000D01*
X135903667Y-61279000D01*
X136087395Y-61315546D01*
X136087395Y-61315546D01*
G37*
G36*
X119617395Y-61315546D02*
G01*
X119790466Y-61387234D01*
X119790467Y-61387235D01*
X119946227Y-61491310D01*
X120078690Y-61623773D01*
X120078691Y-61623775D01*
X120182766Y-61779534D01*
X120254454Y-61952605D01*
X120291000Y-62136333D01*
X120291000Y-62323667D01*
X120254454Y-62507395D01*
X120182766Y-62680466D01*
X120182765Y-62680467D01*
X120078690Y-62836227D01*
X119946227Y-62968690D01*
X119867818Y-63021081D01*
X119790466Y-63072766D01*
X119617395Y-63144454D01*
X119433667Y-63181000D01*
X119246333Y-63181000D01*
X119062605Y-63144454D01*
X118889534Y-63072766D01*
X118812182Y-63021081D01*
X118733773Y-62968690D01*
X118601310Y-62836227D01*
X118497235Y-62680467D01*
X118497234Y-62680466D01*
X118425546Y-62507395D01*
X118389000Y-62323667D01*
X118389000Y-62136333D01*
X118425546Y-61952605D01*
X118497234Y-61779534D01*
X118601309Y-61623775D01*
X118601310Y-61623773D01*
X118733773Y-61491310D01*
X118889533Y-61387235D01*
X118889534Y-61387234D01*
X119062605Y-61315546D01*
X119246333Y-61279000D01*
X119433667Y-61279000D01*
X119617395Y-61315546D01*
X119617395Y-61315546D01*
G37*
G36*
X131693228Y-56331703D02*
G01*
X131848100Y-56395853D01*
X131987481Y-56488985D01*
X132106015Y-56607519D01*
X132199147Y-56746900D01*
X132263297Y-56901772D01*
X132296000Y-57066184D01*
X132296000Y-57233816D01*
X132263297Y-57398228D01*
X132199147Y-57553100D01*
X132106015Y-57692481D01*
X131987481Y-57811015D01*
X131848100Y-57904147D01*
X131693228Y-57968297D01*
X131528816Y-58001000D01*
X131361184Y-58001000D01*
X131196772Y-57968297D01*
X131041900Y-57904147D01*
X130902519Y-57811015D01*
X130783985Y-57692481D01*
X130690853Y-57553100D01*
X130626703Y-57398228D01*
X130594000Y-57233816D01*
X130594000Y-57066184D01*
X130626703Y-56901772D01*
X130690853Y-56746900D01*
X130783985Y-56607519D01*
X130902519Y-56488985D01*
X131041900Y-56395853D01*
X131196772Y-56331703D01*
X131361184Y-56299000D01*
X131528816Y-56299000D01*
X131693228Y-56331703D01*
X131693228Y-56331703D01*
G37*
G36*
X136228855Y-55422140D02*
G01*
X136292618Y-55428420D01*
X136383404Y-55455960D01*
X136415336Y-55465646D01*
X136528425Y-55526094D01*
X136627554Y-55607446D01*
X136708906Y-55706575D01*
X136769354Y-55819664D01*
X136769355Y-55819668D01*
X136806580Y-55942382D01*
X136819149Y-56070000D01*
X136806580Y-56197618D01*
X136779040Y-56288404D01*
X136769354Y-56320336D01*
X136708906Y-56433425D01*
X136627554Y-56532554D01*
X136528425Y-56613906D01*
X136415336Y-56674354D01*
X136383404Y-56684040D01*
X136292618Y-56711580D01*
X136228855Y-56717860D01*
X136196974Y-56721000D01*
X135583026Y-56721000D01*
X135551145Y-56717860D01*
X135487382Y-56711580D01*
X135396596Y-56684040D01*
X135364664Y-56674354D01*
X135251575Y-56613906D01*
X135152446Y-56532554D01*
X135071094Y-56433425D01*
X135010646Y-56320336D01*
X135000960Y-56288404D01*
X134973420Y-56197618D01*
X134960851Y-56070000D01*
X134973420Y-55942382D01*
X135010645Y-55819668D01*
X135010646Y-55819664D01*
X135071094Y-55706575D01*
X135152446Y-55607446D01*
X135251575Y-55526094D01*
X135364664Y-55465646D01*
X135396596Y-55455960D01*
X135487382Y-55428420D01*
X135551145Y-55422140D01*
X135583026Y-55419000D01*
X136196974Y-55419000D01*
X136228855Y-55422140D01*
X136228855Y-55422140D01*
G37*
G36*
X118923655Y-53522591D02*
G01*
X118995525Y-53536887D01*
X119198624Y-53621013D01*
X119381409Y-53743146D01*
X119536854Y-53898591D01*
X119658987Y-54081376D01*
X119743113Y-54284475D01*
X119743113Y-54284476D01*
X119786000Y-54500082D01*
X119786000Y-54719918D01*
X119757409Y-54863655D01*
X119743113Y-54935525D01*
X119658987Y-55138624D01*
X119536854Y-55321409D01*
X119381409Y-55476854D01*
X119198624Y-55598987D01*
X118995525Y-55683113D01*
X118923655Y-55697409D01*
X118779918Y-55726000D01*
X118560082Y-55726000D01*
X118416345Y-55697409D01*
X118344475Y-55683113D01*
X118141376Y-55598987D01*
X117958591Y-55476854D01*
X117803146Y-55321409D01*
X117681013Y-55138624D01*
X117596887Y-54935525D01*
X117582591Y-54863655D01*
X117554000Y-54719918D01*
X117554000Y-54500082D01*
X117596887Y-54284476D01*
X117596887Y-54284475D01*
X117681013Y-54081376D01*
X117803146Y-53898591D01*
X117958591Y-53743146D01*
X118141376Y-53621013D01*
X118344475Y-53536887D01*
X118416345Y-53522591D01*
X118560082Y-53494000D01*
X118779918Y-53494000D01*
X118923655Y-53522591D01*
X118923655Y-53522591D01*
G37*
G36*
X127223655Y-53522591D02*
G01*
X127295525Y-53536887D01*
X127498624Y-53621013D01*
X127681409Y-53743146D01*
X127836854Y-53898591D01*
X127958987Y-54081376D01*
X128043113Y-54284475D01*
X128043113Y-54284476D01*
X128086000Y-54500082D01*
X128086000Y-54719918D01*
X128057409Y-54863655D01*
X128043113Y-54935525D01*
X127958987Y-55138624D01*
X127836854Y-55321409D01*
X127681409Y-55476854D01*
X127498624Y-55598987D01*
X127295525Y-55683113D01*
X127223655Y-55697409D01*
X127079918Y-55726000D01*
X126860082Y-55726000D01*
X126716345Y-55697409D01*
X126644475Y-55683113D01*
X126441376Y-55598987D01*
X126258591Y-55476854D01*
X126103146Y-55321409D01*
X125981013Y-55138624D01*
X125896887Y-54935525D01*
X125882591Y-54863655D01*
X125854000Y-54719918D01*
X125854000Y-54500082D01*
X125896887Y-54284476D01*
X125896887Y-54284475D01*
X125981013Y-54081376D01*
X126103146Y-53898591D01*
X126258591Y-53743146D01*
X126441376Y-53621013D01*
X126644475Y-53536887D01*
X126716345Y-53522591D01*
X126860082Y-53494000D01*
X127079918Y-53494000D01*
X127223655Y-53522591D01*
X127223655Y-53522591D01*
G37*
G36*
X116536000Y-55626000D02*
G01*
X114604000Y-55626000D01*
X114604000Y-53594000D01*
X116536000Y-53594000D01*
X116536000Y-55626000D01*
X116536000Y-55626000D01*
G37*
G36*
X136228855Y-53422140D02*
G01*
X136292618Y-53428420D01*
X136383404Y-53455960D01*
X136415336Y-53465646D01*
X136528425Y-53526094D01*
X136627554Y-53607446D01*
X136708906Y-53706575D01*
X136769354Y-53819664D01*
X136769355Y-53819668D01*
X136806580Y-53942382D01*
X136819149Y-54070000D01*
X136806580Y-54197618D01*
X136780232Y-54284475D01*
X136769354Y-54320336D01*
X136708906Y-54433425D01*
X136627554Y-54532554D01*
X136528425Y-54613906D01*
X136415336Y-54674354D01*
X136383404Y-54684040D01*
X136292618Y-54711580D01*
X136228855Y-54717860D01*
X136196974Y-54721000D01*
X135583026Y-54721000D01*
X135551145Y-54717860D01*
X135487382Y-54711580D01*
X135396596Y-54684040D01*
X135364664Y-54674354D01*
X135251575Y-54613906D01*
X135152446Y-54532554D01*
X135071094Y-54433425D01*
X135010646Y-54320336D01*
X134999768Y-54284475D01*
X134973420Y-54197618D01*
X134960851Y-54070000D01*
X134973420Y-53942382D01*
X135010645Y-53819668D01*
X135010646Y-53819664D01*
X135071094Y-53706575D01*
X135152446Y-53607446D01*
X135251575Y-53526094D01*
X135364664Y-53465646D01*
X135396596Y-53455960D01*
X135487382Y-53428420D01*
X135551145Y-53422140D01*
X135583026Y-53419000D01*
X136196974Y-53419000D01*
X136228855Y-53422140D01*
X136228855Y-53422140D01*
G37*
G36*
X131611823Y-51231313D02*
G01*
X131772242Y-51279976D01*
X131904906Y-51350886D01*
X131920078Y-51358996D01*
X132049659Y-51465341D01*
X132156004Y-51594922D01*
X132156005Y-51594924D01*
X132235024Y-51742758D01*
X132283687Y-51903177D01*
X132300117Y-52070000D01*
X132283687Y-52236823D01*
X132235024Y-52397242D01*
X132206957Y-52449751D01*
X132156004Y-52545078D01*
X132049659Y-52674659D01*
X131920078Y-52781004D01*
X131920076Y-52781005D01*
X131772242Y-52860024D01*
X131611823Y-52908687D01*
X131486804Y-52921000D01*
X131403196Y-52921000D01*
X131278177Y-52908687D01*
X131117758Y-52860024D01*
X130969924Y-52781005D01*
X130969922Y-52781004D01*
X130840341Y-52674659D01*
X130733996Y-52545078D01*
X130683043Y-52449751D01*
X130654976Y-52397242D01*
X130606313Y-52236823D01*
X130589883Y-52070000D01*
X130606313Y-51903177D01*
X130654976Y-51742758D01*
X130733995Y-51594924D01*
X130733996Y-51594922D01*
X130840341Y-51465341D01*
X130969922Y-51358996D01*
X130985094Y-51350886D01*
X131117758Y-51279976D01*
X131278177Y-51231313D01*
X131403196Y-51219000D01*
X131486804Y-51219000D01*
X131611823Y-51231313D01*
X131611823Y-51231313D01*
G37*
G36*
X136656242Y-51423404D02*
G01*
X136693337Y-51434657D01*
X136727515Y-51452925D01*
X136757481Y-51477519D01*
X136782075Y-51507485D01*
X136800343Y-51541663D01*
X136811596Y-51578758D01*
X136816000Y-51623474D01*
X136816000Y-52516526D01*
X136811596Y-52561242D01*
X136800343Y-52598337D01*
X136782075Y-52632515D01*
X136757481Y-52662481D01*
X136727515Y-52687075D01*
X136693337Y-52705343D01*
X136656242Y-52716596D01*
X136611526Y-52721000D01*
X135168474Y-52721000D01*
X135123758Y-52716596D01*
X135086663Y-52705343D01*
X135052485Y-52687075D01*
X135022519Y-52662481D01*
X134997925Y-52632515D01*
X134979657Y-52598337D01*
X134968404Y-52561242D01*
X134964000Y-52516526D01*
X134964000Y-51623474D01*
X134968404Y-51578758D01*
X134979657Y-51541663D01*
X134997925Y-51507485D01*
X135022519Y-51477519D01*
X135052485Y-51452925D01*
X135086663Y-51434657D01*
X135123758Y-51423404D01*
X135168474Y-51419000D01*
X136611526Y-51419000D01*
X136656242Y-51423404D01*
X136656242Y-51423404D01*
G37*
M02*
