G04 #@! TF.GenerationSoftware,KiCad,Pcbnew,(5.1.0)-1*
G04 #@! TF.CreationDate,2019-04-07T20:12:25-04:00*
G04 #@! TF.ProjectId,envelope,656e7665-6c6f-4706-952e-6b696361645f,rev?*
G04 #@! TF.SameCoordinates,Original*
G04 #@! TF.FileFunction,Copper,L1,Top*
G04 #@! TF.FilePolarity,Positive*
%FSLAX46Y46*%
G04 Gerber Fmt 4.6, Leading zero omitted, Abs format (unit mm)*
G04 Created by KiCad (PCBNEW (5.1.0)-1) date 2019-04-07 20:12:25*
%MOMM*%
%LPD*%
G04 APERTURE LIST*
%ADD10O,1.600000X1.600000*%
%ADD11R,1.600000X1.600000*%
%ADD12C,4.000000*%
%ADD13C,1.800000*%
%ADD14C,1.600000*%
%ADD15R,1.050000X1.500000*%
%ADD16O,1.050000X1.500000*%
%ADD17C,2.130000*%
%ADD18R,1.930000X1.830000*%
%ADD19O,1.700000X1.700000*%
%ADD20R,1.700000X1.700000*%
%ADD21R,1.830000X1.930000*%
%ADD22O,1.750000X1.200000*%
%ADD23C,0.100000*%
%ADD24C,1.200000*%
%ADD25R,1.800000X1.800000*%
%ADD26C,0.800000*%
%ADD27C,0.250000*%
%ADD28C,0.254000*%
G04 APERTURE END LIST*
D10*
X138430000Y-109220000D03*
X123190000Y-101600000D03*
X135890000Y-109220000D03*
X125730000Y-101600000D03*
X133350000Y-109220000D03*
X128270000Y-101600000D03*
X130810000Y-109220000D03*
X130810000Y-101600000D03*
X128270000Y-109220000D03*
X133350000Y-101600000D03*
X125730000Y-109220000D03*
X135890000Y-101600000D03*
X123190000Y-109220000D03*
D11*
X138430000Y-101600000D03*
D10*
X130175000Y-79375000D03*
X122555000Y-94615000D03*
X130175000Y-81915000D03*
X122555000Y-92075000D03*
X130175000Y-84455000D03*
X122555000Y-89535000D03*
X130175000Y-86995000D03*
X122555000Y-86995000D03*
X130175000Y-89535000D03*
X122555000Y-84455000D03*
X130175000Y-92075000D03*
X122555000Y-81915000D03*
X130175000Y-94615000D03*
D11*
X122555000Y-79375000D03*
D12*
X128910000Y-69230000D03*
X137710000Y-69230000D03*
D13*
X130810000Y-62230000D03*
X133310000Y-62230000D03*
X135810000Y-62230000D03*
D12*
X114940000Y-69230000D03*
X123740000Y-69230000D03*
D13*
X116840000Y-62230000D03*
X119340000Y-62230000D03*
X121840000Y-62230000D03*
D10*
X130048000Y-113030000D03*
D14*
X130048000Y-118110000D03*
D10*
X133985000Y-117475000D03*
D14*
X139065000Y-117475000D03*
D10*
X114935000Y-104140000D03*
D14*
X114935000Y-109220000D03*
D10*
X136525000Y-86360000D03*
D14*
X136525000Y-81280000D03*
D10*
X118110000Y-100965000D03*
D14*
X118110000Y-95885000D03*
D10*
X131445000Y-52070000D03*
D14*
X131445000Y-57150000D03*
D15*
X133985000Y-90805000D03*
D16*
X136525000Y-90805000D03*
X135255000Y-90805000D03*
D17*
X135255000Y-121315000D03*
D18*
X135255000Y-132715000D03*
D17*
X135255000Y-129615000D03*
D19*
X114935000Y-114300000D03*
X114935000Y-116840000D03*
X117475000Y-114300000D03*
X117475000Y-116840000D03*
X120015000Y-114300000D03*
X120015000Y-116840000D03*
X122555000Y-114300000D03*
X122555000Y-116840000D03*
X125095000Y-114300000D03*
D20*
X125095000Y-116840000D03*
D17*
X117475000Y-121315000D03*
D18*
X117475000Y-132715000D03*
D17*
X117475000Y-129615000D03*
X126970000Y-54610000D03*
D21*
X115570000Y-54610000D03*
D17*
X118670000Y-54610000D03*
D22*
X135890000Y-56070000D03*
X135890000Y-54070000D03*
D23*
G36*
X136539505Y-51471204D02*
G01*
X136563773Y-51474804D01*
X136587572Y-51480765D01*
X136610671Y-51489030D01*
X136632850Y-51499520D01*
X136653893Y-51512132D01*
X136673599Y-51526747D01*
X136691777Y-51543223D01*
X136708253Y-51561401D01*
X136722868Y-51581107D01*
X136735480Y-51602150D01*
X136745970Y-51624329D01*
X136754235Y-51647428D01*
X136760196Y-51671227D01*
X136763796Y-51695495D01*
X136765000Y-51719999D01*
X136765000Y-52420001D01*
X136763796Y-52444505D01*
X136760196Y-52468773D01*
X136754235Y-52492572D01*
X136745970Y-52515671D01*
X136735480Y-52537850D01*
X136722868Y-52558893D01*
X136708253Y-52578599D01*
X136691777Y-52596777D01*
X136673599Y-52613253D01*
X136653893Y-52627868D01*
X136632850Y-52640480D01*
X136610671Y-52650970D01*
X136587572Y-52659235D01*
X136563773Y-52665196D01*
X136539505Y-52668796D01*
X136515001Y-52670000D01*
X135264999Y-52670000D01*
X135240495Y-52668796D01*
X135216227Y-52665196D01*
X135192428Y-52659235D01*
X135169329Y-52650970D01*
X135147150Y-52640480D01*
X135126107Y-52627868D01*
X135106401Y-52613253D01*
X135088223Y-52596777D01*
X135071747Y-52578599D01*
X135057132Y-52558893D01*
X135044520Y-52537850D01*
X135034030Y-52515671D01*
X135025765Y-52492572D01*
X135019804Y-52468773D01*
X135016204Y-52444505D01*
X135015000Y-52420001D01*
X135015000Y-51719999D01*
X135016204Y-51695495D01*
X135019804Y-51671227D01*
X135025765Y-51647428D01*
X135034030Y-51624329D01*
X135044520Y-51602150D01*
X135057132Y-51581107D01*
X135071747Y-51561401D01*
X135088223Y-51543223D01*
X135106401Y-51526747D01*
X135126107Y-51512132D01*
X135147150Y-51499520D01*
X135169329Y-51489030D01*
X135192428Y-51480765D01*
X135216227Y-51474804D01*
X135240495Y-51471204D01*
X135264999Y-51470000D01*
X136515001Y-51470000D01*
X136539505Y-51471204D01*
X136539505Y-51471204D01*
G37*
D24*
X135890000Y-52070000D03*
D13*
X125095000Y-126365000D03*
D25*
X127635000Y-126365000D03*
D10*
X139065000Y-98425000D03*
D11*
X131445000Y-98425000D03*
D10*
X121285000Y-98425000D03*
D11*
X128905000Y-98425000D03*
D10*
X118745000Y-85090000D03*
D11*
X118745000Y-77470000D03*
D14*
X134065000Y-113665000D03*
X139065000Y-113665000D03*
X119380000Y-104220000D03*
X119380000Y-109220000D03*
X138350000Y-94615000D03*
X133350000Y-94615000D03*
X115570000Y-80090000D03*
X115570000Y-85090000D03*
X133350000Y-81360000D03*
X133350000Y-86360000D03*
X118745000Y-92630000D03*
X118745000Y-87630000D03*
D26*
X114935000Y-90805000D03*
X137795000Y-106680000D03*
D27*
X121920000Y-87630000D02*
X122555000Y-86995000D01*
X118745000Y-87630000D02*
X121920000Y-87630000D01*
X137933630Y-113665000D02*
X139065000Y-113665000D01*
X135730002Y-113665000D02*
X137933630Y-113665000D01*
X132555002Y-116840000D02*
X135730002Y-113665000D01*
X125095000Y-116840000D02*
X132555002Y-116840000D01*
X117475000Y-132715000D02*
X135255000Y-132715000D01*
X133265001Y-112865001D02*
X134065000Y-113665000D01*
X132304999Y-111904999D02*
X133265001Y-112865001D01*
X124950001Y-111904999D02*
X132304999Y-111904999D01*
X122555000Y-114300000D02*
X124950001Y-111904999D01*
X130313630Y-52070000D02*
X131445000Y-52070000D01*
X119152798Y-52070000D02*
X130313630Y-52070000D01*
X116612798Y-54610000D02*
X119152798Y-52070000D01*
X115570000Y-54610000D02*
X116612798Y-54610000D01*
X133985000Y-90580000D02*
X133985000Y-90805000D01*
X134835010Y-89729990D02*
X133985000Y-90580000D01*
X136877085Y-89729990D02*
X134835010Y-89729990D01*
X138350000Y-91202905D02*
X136877085Y-89729990D01*
X138350000Y-94615000D02*
X138350000Y-91202905D01*
X134149999Y-80560001D02*
X133350000Y-81360000D01*
X140035001Y-74674999D02*
X134149999Y-80560001D01*
X140035001Y-56631840D02*
X140035001Y-74674999D01*
X136548151Y-53144990D02*
X140035001Y-56631840D01*
X132519990Y-53144990D02*
X136548151Y-53144990D01*
X131445000Y-52070000D02*
X132519990Y-53144990D01*
X132715000Y-86995000D02*
X133350000Y-86360000D01*
X130175000Y-86995000D02*
X132715000Y-86995000D01*
X126760002Y-86995000D02*
X122950002Y-90805000D01*
X130175000Y-86995000D02*
X126760002Y-86995000D01*
X122950002Y-90805000D02*
X114935000Y-90805000D01*
X114935000Y-90805000D02*
X114935000Y-90805000D01*
X115570000Y-85090000D02*
X118745000Y-85090000D01*
X121423630Y-89535000D02*
X122555000Y-89535000D01*
X118984998Y-89535000D02*
X121423630Y-89535000D01*
X117619999Y-88170001D02*
X118984998Y-89535000D01*
X117619999Y-86215001D02*
X117619999Y-88170001D01*
X118745000Y-85090000D02*
X117619999Y-86215001D01*
X119340000Y-62230000D02*
X121840000Y-62230000D01*
X133310000Y-62230000D02*
X135810000Y-62230000D01*
X122555000Y-78325000D02*
X122555000Y-79375000D01*
X121700000Y-77470000D02*
X122555000Y-78325000D01*
X118745000Y-77470000D02*
X121700000Y-77470000D01*
X119380000Y-94615000D02*
X122555000Y-94615000D01*
X118110000Y-95885000D02*
X119380000Y-94615000D01*
X135255000Y-91805000D02*
X135255000Y-90805000D01*
X133570001Y-93489999D02*
X135255000Y-91805000D01*
X131300001Y-93489999D02*
X133570001Y-93489999D01*
X130175000Y-94615000D02*
X131300001Y-93489999D01*
X135725001Y-85560001D02*
X136525000Y-86360000D01*
X133820001Y-83655001D02*
X135725001Y-85560001D01*
X130974999Y-83655001D02*
X133820001Y-83655001D01*
X130175000Y-84455000D02*
X130974999Y-83655001D01*
X134765000Y-56070000D02*
X135890000Y-56070000D01*
X134369999Y-55674999D02*
X134765000Y-56070000D01*
X128034999Y-55674999D02*
X134369999Y-55674999D01*
X126970000Y-54610000D02*
X128034999Y-55674999D01*
X126843000Y-121315000D02*
X130048000Y-118110000D01*
X117475000Y-121315000D02*
X126843000Y-121315000D01*
X133253000Y-121315000D02*
X135255000Y-121315000D01*
X130048000Y-118110000D02*
X133253000Y-121315000D01*
X128190000Y-104220000D02*
X130810000Y-101600000D01*
X119380000Y-104220000D02*
X128190000Y-104220000D01*
X114935000Y-109220000D02*
X119380000Y-109220000D01*
X139864999Y-99224999D02*
X139065000Y-98425000D01*
X139864999Y-102350003D02*
X139864999Y-99224999D01*
X137544992Y-104670010D02*
X139864999Y-102350003D01*
X123929990Y-104670010D02*
X137544992Y-104670010D01*
X119380000Y-109220000D02*
X123929990Y-104670010D01*
X123989999Y-108420001D02*
X123190000Y-109220000D01*
X124765011Y-107644989D02*
X123989999Y-108420001D01*
X136830011Y-107644989D02*
X124765011Y-107644989D01*
X137795000Y-106680000D02*
X136830011Y-107644989D01*
X135090001Y-108420001D02*
X135890000Y-109220000D01*
X134764999Y-108094999D02*
X135090001Y-108420001D01*
X129395001Y-108094999D02*
X134764999Y-108094999D01*
X128270000Y-109220000D02*
X129395001Y-108094999D01*
X135090001Y-100800001D02*
X135890000Y-101600000D01*
X134149999Y-100800001D02*
X135090001Y-100800001D01*
X133350000Y-101600000D02*
X134149999Y-100800001D01*
D28*
G36*
X140185000Y-55707037D02*
G01*
X137301455Y-52823493D01*
X137335472Y-52759851D01*
X137386008Y-52593255D01*
X137403072Y-52420001D01*
X137403072Y-51719999D01*
X137386008Y-51546745D01*
X137335472Y-51380149D01*
X137253405Y-51226613D01*
X137142962Y-51092038D01*
X137008387Y-50981595D01*
X136854851Y-50899528D01*
X136688255Y-50848992D01*
X136515001Y-50831928D01*
X135264999Y-50831928D01*
X135091745Y-50848992D01*
X134925149Y-50899528D01*
X134771613Y-50981595D01*
X134637038Y-51092038D01*
X134526595Y-51226613D01*
X134444528Y-51380149D01*
X134393992Y-51546745D01*
X134376928Y-51719999D01*
X134376928Y-52384990D01*
X132849019Y-52384990D01*
X132859236Y-52351309D01*
X132886943Y-52070000D01*
X132859236Y-51788691D01*
X132777182Y-51518192D01*
X132643932Y-51268899D01*
X132464608Y-51050392D01*
X132246101Y-50871068D01*
X131996808Y-50737818D01*
X131726309Y-50655764D01*
X131515492Y-50635000D01*
X131374508Y-50635000D01*
X131163691Y-50655764D01*
X130893192Y-50737818D01*
X130643899Y-50871068D01*
X130425392Y-51050392D01*
X130246068Y-51268899D01*
X130224099Y-51310000D01*
X119190120Y-51310000D01*
X119152797Y-51306324D01*
X119115474Y-51310000D01*
X119115465Y-51310000D01*
X119003812Y-51320997D01*
X118860551Y-51364454D01*
X118728522Y-51435026D01*
X118728520Y-51435027D01*
X118728521Y-51435027D01*
X118641794Y-51506201D01*
X118641790Y-51506205D01*
X118612797Y-51529999D01*
X118589003Y-51558992D01*
X116944297Y-53203699D01*
X116936185Y-53193815D01*
X116839494Y-53114463D01*
X116729180Y-53055498D01*
X116609482Y-53019188D01*
X116485000Y-53006928D01*
X114655000Y-53006928D01*
X114530518Y-53019188D01*
X114410820Y-53055498D01*
X114300506Y-53114463D01*
X114203815Y-53193815D01*
X114124463Y-53290506D01*
X114065498Y-53400820D01*
X114029188Y-53520518D01*
X114016928Y-53645000D01*
X114016928Y-55575000D01*
X114029188Y-55699482D01*
X114065498Y-55819180D01*
X114124463Y-55929494D01*
X114203815Y-56026185D01*
X114300506Y-56105537D01*
X114410820Y-56164502D01*
X114530518Y-56200812D01*
X114655000Y-56213072D01*
X116485000Y-56213072D01*
X116609482Y-56200812D01*
X116729180Y-56164502D01*
X116839494Y-56105537D01*
X116936185Y-56026185D01*
X117015537Y-55929494D01*
X117074502Y-55819180D01*
X117110812Y-55699482D01*
X117123072Y-55575000D01*
X117123072Y-55317701D01*
X117163479Y-55415252D01*
X117349523Y-55693687D01*
X117586313Y-55930477D01*
X117864748Y-56116521D01*
X118174128Y-56244670D01*
X118502565Y-56310000D01*
X118837435Y-56310000D01*
X119165872Y-56244670D01*
X119475252Y-56116521D01*
X119753687Y-55930477D01*
X119990477Y-55693687D01*
X120176521Y-55415252D01*
X120304670Y-55105872D01*
X120370000Y-54777435D01*
X120370000Y-54442565D01*
X120304670Y-54114128D01*
X120176521Y-53804748D01*
X119990477Y-53526313D01*
X119753687Y-53289523D01*
X119475252Y-53103479D01*
X119276463Y-53021138D01*
X119467601Y-52830000D01*
X130224099Y-52830000D01*
X130246068Y-52871101D01*
X130425392Y-53089608D01*
X130643899Y-53268932D01*
X130893192Y-53402182D01*
X131163691Y-53484236D01*
X131374508Y-53505000D01*
X131515492Y-53505000D01*
X131726309Y-53484236D01*
X131770905Y-53470708D01*
X131956195Y-53655998D01*
X131979989Y-53684991D01*
X132008982Y-53708785D01*
X132008986Y-53708789D01*
X132079675Y-53766801D01*
X132095714Y-53779964D01*
X132227743Y-53850536D01*
X132371004Y-53893993D01*
X132482657Y-53904990D01*
X132482666Y-53904990D01*
X132519989Y-53908666D01*
X132557312Y-53904990D01*
X134390277Y-53904990D01*
X134374025Y-54070000D01*
X134397870Y-54312102D01*
X134468489Y-54544901D01*
X134583167Y-54759449D01*
X134737498Y-54947502D01*
X134886762Y-55070000D01*
X134858781Y-55092964D01*
X134794275Y-55040025D01*
X134662246Y-54969453D01*
X134518985Y-54925996D01*
X134407332Y-54914999D01*
X134407321Y-54914999D01*
X134369999Y-54911323D01*
X134332677Y-54914999D01*
X128642637Y-54914999D01*
X128670000Y-54777435D01*
X128670000Y-54442565D01*
X128604670Y-54114128D01*
X128476521Y-53804748D01*
X128290477Y-53526313D01*
X128053687Y-53289523D01*
X127775252Y-53103479D01*
X127465872Y-52975330D01*
X127137435Y-52910000D01*
X126802565Y-52910000D01*
X126474128Y-52975330D01*
X126164748Y-53103479D01*
X125886313Y-53289523D01*
X125649523Y-53526313D01*
X125463479Y-53804748D01*
X125335330Y-54114128D01*
X125270000Y-54442565D01*
X125270000Y-54777435D01*
X125335330Y-55105872D01*
X125463479Y-55415252D01*
X125649523Y-55693687D01*
X125886313Y-55930477D01*
X126164748Y-56116521D01*
X126474128Y-56244670D01*
X126802565Y-56310000D01*
X127137435Y-56310000D01*
X127465872Y-56244670D01*
X127509255Y-56226700D01*
X127523996Y-56238798D01*
X127610722Y-56309973D01*
X127666137Y-56339593D01*
X127742752Y-56380545D01*
X127886013Y-56424002D01*
X127997666Y-56434999D01*
X127997675Y-56434999D01*
X128034998Y-56438675D01*
X128072321Y-56434999D01*
X130196889Y-56434999D01*
X130173320Y-56470273D01*
X130065147Y-56731426D01*
X130010000Y-57008665D01*
X130010000Y-57291335D01*
X130065147Y-57568574D01*
X130173320Y-57829727D01*
X130330363Y-58064759D01*
X130530241Y-58264637D01*
X130765273Y-58421680D01*
X131026426Y-58529853D01*
X131303665Y-58585000D01*
X131586335Y-58585000D01*
X131863574Y-58529853D01*
X132124727Y-58421680D01*
X132359759Y-58264637D01*
X132559637Y-58064759D01*
X132716680Y-57829727D01*
X132824853Y-57568574D01*
X132880000Y-57291335D01*
X132880000Y-57008665D01*
X132824853Y-56731426D01*
X132716680Y-56470273D01*
X132693111Y-56434999D01*
X134055198Y-56434999D01*
X134201196Y-56580997D01*
X134224999Y-56610001D01*
X134340724Y-56704974D01*
X134472753Y-56775546D01*
X134616014Y-56819003D01*
X134633451Y-56820720D01*
X134737498Y-56947502D01*
X134925551Y-57101833D01*
X135140099Y-57216511D01*
X135372898Y-57287130D01*
X135554335Y-57305000D01*
X136225665Y-57305000D01*
X136407102Y-57287130D01*
X136639901Y-57216511D01*
X136854449Y-57101833D01*
X137042502Y-56947502D01*
X137196833Y-56759449D01*
X137311511Y-56544901D01*
X137382130Y-56312102D01*
X137405975Y-56070000D01*
X137382130Y-55827898D01*
X137311511Y-55595099D01*
X137196833Y-55380551D01*
X137042502Y-55192498D01*
X136893238Y-55070000D01*
X137042502Y-54947502D01*
X137147690Y-54819330D01*
X139275001Y-56946642D01*
X139275002Y-67106613D01*
X138958141Y-66894893D01*
X138478601Y-66696261D01*
X137969525Y-66595000D01*
X137450475Y-66595000D01*
X136941399Y-66696261D01*
X136461859Y-66894893D01*
X136030285Y-67183262D01*
X135663262Y-67550285D01*
X135374893Y-67981859D01*
X135176261Y-68461399D01*
X135075000Y-68970475D01*
X135075000Y-69489525D01*
X135176261Y-69998601D01*
X135374893Y-70478141D01*
X135663262Y-70909715D01*
X136030285Y-71276738D01*
X136461859Y-71565107D01*
X136941399Y-71763739D01*
X137450475Y-71865000D01*
X137969525Y-71865000D01*
X138478601Y-71763739D01*
X138958141Y-71565107D01*
X139275002Y-71353387D01*
X139275002Y-74360196D01*
X133673887Y-79961312D01*
X133491335Y-79925000D01*
X133208665Y-79925000D01*
X132931426Y-79980147D01*
X132670273Y-80088320D01*
X132435241Y-80245363D01*
X132235363Y-80445241D01*
X132078320Y-80680273D01*
X131970147Y-80941426D01*
X131915000Y-81218665D01*
X131915000Y-81501335D01*
X131970147Y-81778574D01*
X132078320Y-82039727D01*
X132235363Y-82274759D01*
X132435241Y-82474637D01*
X132670273Y-82631680D01*
X132931426Y-82739853D01*
X133208665Y-82795000D01*
X133491335Y-82795000D01*
X133768574Y-82739853D01*
X134029727Y-82631680D01*
X134264759Y-82474637D01*
X134464637Y-82274759D01*
X134466011Y-82272702D01*
X135711903Y-82272702D01*
X135783486Y-82516671D01*
X136038996Y-82637571D01*
X136313184Y-82706300D01*
X136595512Y-82720217D01*
X136875130Y-82678787D01*
X137141292Y-82583603D01*
X137266514Y-82516671D01*
X137338097Y-82272702D01*
X136525000Y-81459605D01*
X135711903Y-82272702D01*
X134466011Y-82272702D01*
X134621680Y-82039727D01*
X134729853Y-81778574D01*
X134785000Y-81501335D01*
X134785000Y-81218665D01*
X134748688Y-81036113D01*
X135425097Y-80359704D01*
X135532296Y-80466903D01*
X135288329Y-80538486D01*
X135167429Y-80793996D01*
X135098700Y-81068184D01*
X135084783Y-81350512D01*
X135126213Y-81630130D01*
X135221397Y-81896292D01*
X135288329Y-82021514D01*
X135532298Y-82093097D01*
X136345395Y-81280000D01*
X136704605Y-81280000D01*
X137517702Y-82093097D01*
X137761671Y-82021514D01*
X137882571Y-81766004D01*
X137951300Y-81491816D01*
X137965217Y-81209488D01*
X137923787Y-80929870D01*
X137828603Y-80663708D01*
X137761671Y-80538486D01*
X137517702Y-80466903D01*
X136704605Y-81280000D01*
X136345395Y-81280000D01*
X136331253Y-81265858D01*
X136510858Y-81086253D01*
X136525000Y-81100395D01*
X137338097Y-80287298D01*
X137266514Y-80043329D01*
X137011004Y-79922429D01*
X136736816Y-79853700D01*
X136454488Y-79839783D01*
X136174870Y-79881213D01*
X135908708Y-79976397D01*
X135783486Y-80043329D01*
X135711903Y-80287296D01*
X135604704Y-80180097D01*
X140185000Y-75599802D01*
X140185001Y-97527721D01*
X140084608Y-97405392D01*
X139866101Y-97226068D01*
X139616808Y-97092818D01*
X139346309Y-97010764D01*
X139135492Y-96990000D01*
X138994508Y-96990000D01*
X138783691Y-97010764D01*
X138513192Y-97092818D01*
X138263899Y-97226068D01*
X138045392Y-97405392D01*
X137866068Y-97623899D01*
X137732818Y-97873192D01*
X137650764Y-98143691D01*
X137623057Y-98425000D01*
X137650764Y-98706309D01*
X137732818Y-98976808D01*
X137866068Y-99226101D01*
X138045392Y-99444608D01*
X138263899Y-99623932D01*
X138513192Y-99757182D01*
X138783691Y-99839236D01*
X138994508Y-99860000D01*
X139105000Y-99860000D01*
X139105000Y-100161928D01*
X137630000Y-100161928D01*
X137505518Y-100174188D01*
X137385820Y-100210498D01*
X137275506Y-100269463D01*
X137178815Y-100348815D01*
X137099463Y-100445506D01*
X137040498Y-100555820D01*
X137004188Y-100675518D01*
X137002419Y-100693482D01*
X136909608Y-100580392D01*
X136691101Y-100401068D01*
X136441808Y-100267818D01*
X136171309Y-100185764D01*
X135960492Y-100165000D01*
X135819508Y-100165000D01*
X135608691Y-100185764D01*
X135558206Y-100201078D01*
X135514277Y-100165027D01*
X135382248Y-100094455D01*
X135238987Y-100050998D01*
X135127334Y-100040001D01*
X135127323Y-100040001D01*
X135090001Y-100036325D01*
X135052679Y-100040001D01*
X134187321Y-100040001D01*
X134149998Y-100036325D01*
X134112675Y-100040001D01*
X134112666Y-100040001D01*
X134001013Y-100050998D01*
X133857752Y-100094455D01*
X133725723Y-100165027D01*
X133725721Y-100165028D01*
X133725722Y-100165028D01*
X133681794Y-100201078D01*
X133631309Y-100185764D01*
X133420492Y-100165000D01*
X133279508Y-100165000D01*
X133068691Y-100185764D01*
X132798192Y-100267818D01*
X132548899Y-100401068D01*
X132330392Y-100580392D01*
X132151068Y-100798899D01*
X132080000Y-100931858D01*
X132008932Y-100798899D01*
X131829608Y-100580392D01*
X131611101Y-100401068D01*
X131361808Y-100267818D01*
X131091309Y-100185764D01*
X130880492Y-100165000D01*
X130739508Y-100165000D01*
X130528691Y-100185764D01*
X130258192Y-100267818D01*
X130008899Y-100401068D01*
X129790392Y-100580392D01*
X129611068Y-100798899D01*
X129540000Y-100931858D01*
X129468932Y-100798899D01*
X129289608Y-100580392D01*
X129071101Y-100401068D01*
X128821808Y-100267818D01*
X128551309Y-100185764D01*
X128340492Y-100165000D01*
X128199508Y-100165000D01*
X127988691Y-100185764D01*
X127718192Y-100267818D01*
X127468899Y-100401068D01*
X127250392Y-100580392D01*
X127071068Y-100798899D01*
X127000000Y-100931858D01*
X126928932Y-100798899D01*
X126749608Y-100580392D01*
X126531101Y-100401068D01*
X126281808Y-100267818D01*
X126011309Y-100185764D01*
X125800492Y-100165000D01*
X125659508Y-100165000D01*
X125448691Y-100185764D01*
X125178192Y-100267818D01*
X124928899Y-100401068D01*
X124710392Y-100580392D01*
X124531068Y-100798899D01*
X124460000Y-100931858D01*
X124388932Y-100798899D01*
X124209608Y-100580392D01*
X123991101Y-100401068D01*
X123741808Y-100267818D01*
X123471309Y-100185764D01*
X123260492Y-100165000D01*
X123119508Y-100165000D01*
X122908691Y-100185764D01*
X122638192Y-100267818D01*
X122388899Y-100401068D01*
X122170392Y-100580392D01*
X121991068Y-100798899D01*
X121857818Y-101048192D01*
X121775764Y-101318691D01*
X121748057Y-101600000D01*
X121775764Y-101881309D01*
X121857818Y-102151808D01*
X121991068Y-102401101D01*
X122170392Y-102619608D01*
X122388899Y-102798932D01*
X122638192Y-102932182D01*
X122908691Y-103014236D01*
X123119508Y-103035000D01*
X123260492Y-103035000D01*
X123471309Y-103014236D01*
X123741808Y-102932182D01*
X123991101Y-102798932D01*
X124209608Y-102619608D01*
X124388932Y-102401101D01*
X124460000Y-102268142D01*
X124531068Y-102401101D01*
X124710392Y-102619608D01*
X124928899Y-102798932D01*
X125178192Y-102932182D01*
X125448691Y-103014236D01*
X125659508Y-103035000D01*
X125800492Y-103035000D01*
X126011309Y-103014236D01*
X126281808Y-102932182D01*
X126531101Y-102798932D01*
X126749608Y-102619608D01*
X126928932Y-102401101D01*
X127000000Y-102268142D01*
X127071068Y-102401101D01*
X127250392Y-102619608D01*
X127468899Y-102798932D01*
X127718192Y-102932182D01*
X127988691Y-103014236D01*
X128199508Y-103035000D01*
X128300199Y-103035000D01*
X127875199Y-103460000D01*
X120598043Y-103460000D01*
X120494637Y-103305241D01*
X120294759Y-103105363D01*
X120059727Y-102948320D01*
X119798574Y-102840147D01*
X119521335Y-102785000D01*
X119238665Y-102785000D01*
X118961426Y-102840147D01*
X118700273Y-102948320D01*
X118465241Y-103105363D01*
X118265363Y-103305241D01*
X118108320Y-103540273D01*
X118000147Y-103801426D01*
X117945000Y-104078665D01*
X117945000Y-104361335D01*
X118000147Y-104638574D01*
X118108320Y-104899727D01*
X118265363Y-105134759D01*
X118465241Y-105334637D01*
X118700273Y-105491680D01*
X118961426Y-105599853D01*
X119238665Y-105655000D01*
X119521335Y-105655000D01*
X119798574Y-105599853D01*
X120059727Y-105491680D01*
X120294759Y-105334637D01*
X120494637Y-105134759D01*
X120598043Y-104980000D01*
X122545198Y-104980000D01*
X119703887Y-107821312D01*
X119521335Y-107785000D01*
X119238665Y-107785000D01*
X118961426Y-107840147D01*
X118700273Y-107948320D01*
X118465241Y-108105363D01*
X118265363Y-108305241D01*
X118161957Y-108460000D01*
X116153043Y-108460000D01*
X116049637Y-108305241D01*
X115849759Y-108105363D01*
X115614727Y-107948320D01*
X115353574Y-107840147D01*
X115076335Y-107785000D01*
X114793665Y-107785000D01*
X114516426Y-107840147D01*
X114255273Y-107948320D01*
X114020241Y-108105363D01*
X113820363Y-108305241D01*
X113663320Y-108540273D01*
X113555147Y-108801426D01*
X113500000Y-109078665D01*
X113500000Y-109361335D01*
X113555147Y-109638574D01*
X113663320Y-109899727D01*
X113820363Y-110134759D01*
X114020241Y-110334637D01*
X114255273Y-110491680D01*
X114516426Y-110599853D01*
X114793665Y-110655000D01*
X115076335Y-110655000D01*
X115353574Y-110599853D01*
X115614727Y-110491680D01*
X115849759Y-110334637D01*
X116049637Y-110134759D01*
X116153043Y-109980000D01*
X118161957Y-109980000D01*
X118265363Y-110134759D01*
X118465241Y-110334637D01*
X118700273Y-110491680D01*
X118961426Y-110599853D01*
X119238665Y-110655000D01*
X119521335Y-110655000D01*
X119798574Y-110599853D01*
X120059727Y-110491680D01*
X120294759Y-110334637D01*
X120494637Y-110134759D01*
X120651680Y-109899727D01*
X120759853Y-109638574D01*
X120815000Y-109361335D01*
X120815000Y-109220000D01*
X121748057Y-109220000D01*
X121775764Y-109501309D01*
X121857818Y-109771808D01*
X121991068Y-110021101D01*
X122170392Y-110239608D01*
X122388899Y-110418932D01*
X122638192Y-110552182D01*
X122908691Y-110634236D01*
X123119508Y-110655000D01*
X123260492Y-110655000D01*
X123471309Y-110634236D01*
X123741808Y-110552182D01*
X123991101Y-110418932D01*
X124209608Y-110239608D01*
X124388932Y-110021101D01*
X124460000Y-109888142D01*
X124531068Y-110021101D01*
X124710392Y-110239608D01*
X124928899Y-110418932D01*
X125178192Y-110552182D01*
X125448691Y-110634236D01*
X125659508Y-110655000D01*
X125800492Y-110655000D01*
X126011309Y-110634236D01*
X126281808Y-110552182D01*
X126531101Y-110418932D01*
X126749608Y-110239608D01*
X126928932Y-110021101D01*
X127000000Y-109888142D01*
X127071068Y-110021101D01*
X127250392Y-110239608D01*
X127468899Y-110418932D01*
X127718192Y-110552182D01*
X127988691Y-110634236D01*
X128199508Y-110655000D01*
X128340492Y-110655000D01*
X128551309Y-110634236D01*
X128821808Y-110552182D01*
X129071101Y-110418932D01*
X129289608Y-110239608D01*
X129468932Y-110021101D01*
X129540000Y-109888142D01*
X129611068Y-110021101D01*
X129790392Y-110239608D01*
X130008899Y-110418932D01*
X130258192Y-110552182D01*
X130528691Y-110634236D01*
X130739508Y-110655000D01*
X130880492Y-110655000D01*
X131091309Y-110634236D01*
X131361808Y-110552182D01*
X131611101Y-110418932D01*
X131829608Y-110239608D01*
X132008932Y-110021101D01*
X132080000Y-109888142D01*
X132151068Y-110021101D01*
X132330392Y-110239608D01*
X132548899Y-110418932D01*
X132798192Y-110552182D01*
X133068691Y-110634236D01*
X133279508Y-110655000D01*
X133420492Y-110655000D01*
X133631309Y-110634236D01*
X133901808Y-110552182D01*
X134151101Y-110418932D01*
X134369608Y-110239608D01*
X134548932Y-110021101D01*
X134620000Y-109888142D01*
X134691068Y-110021101D01*
X134870392Y-110239608D01*
X135088899Y-110418932D01*
X135338192Y-110552182D01*
X135608691Y-110634236D01*
X135819508Y-110655000D01*
X135960492Y-110655000D01*
X136171309Y-110634236D01*
X136441808Y-110552182D01*
X136691101Y-110418932D01*
X136909608Y-110239608D01*
X137088932Y-110021101D01*
X137162579Y-109883318D01*
X137277615Y-110075131D01*
X137466586Y-110283519D01*
X137692580Y-110451037D01*
X137946913Y-110571246D01*
X138080961Y-110611904D01*
X138303000Y-110489915D01*
X138303000Y-109347000D01*
X138557000Y-109347000D01*
X138557000Y-110489915D01*
X138779039Y-110611904D01*
X138913087Y-110571246D01*
X139167420Y-110451037D01*
X139393414Y-110283519D01*
X139582385Y-110075131D01*
X139727070Y-109833881D01*
X139821909Y-109569040D01*
X139700624Y-109347000D01*
X138557000Y-109347000D01*
X138303000Y-109347000D01*
X138283000Y-109347000D01*
X138283000Y-109093000D01*
X138303000Y-109093000D01*
X138303000Y-107950085D01*
X138557000Y-107950085D01*
X138557000Y-109093000D01*
X139700624Y-109093000D01*
X139821909Y-108870960D01*
X139727070Y-108606119D01*
X139582385Y-108364869D01*
X139393414Y-108156481D01*
X139167420Y-107988963D01*
X138913087Y-107868754D01*
X138779039Y-107828096D01*
X138557000Y-107950085D01*
X138303000Y-107950085D01*
X138080961Y-107828096D01*
X137946913Y-107868754D01*
X137692580Y-107988963D01*
X137466586Y-108156481D01*
X137277615Y-108364869D01*
X137162579Y-108556682D01*
X137088932Y-108418899D01*
X137050653Y-108372256D01*
X137122258Y-108350535D01*
X137254287Y-108279963D01*
X137370012Y-108184990D01*
X137393815Y-108155987D01*
X137834801Y-107715000D01*
X137896939Y-107715000D01*
X138096898Y-107675226D01*
X138285256Y-107597205D01*
X138454774Y-107483937D01*
X138598937Y-107339774D01*
X138712205Y-107170256D01*
X138790226Y-106981898D01*
X138830000Y-106781939D01*
X138830000Y-106578061D01*
X138790226Y-106378102D01*
X138712205Y-106189744D01*
X138598937Y-106020226D01*
X138454774Y-105876063D01*
X138285256Y-105762795D01*
X138096898Y-105684774D01*
X137896939Y-105645000D01*
X137693061Y-105645000D01*
X137493102Y-105684774D01*
X137304744Y-105762795D01*
X137135226Y-105876063D01*
X136991063Y-106020226D01*
X136877795Y-106189744D01*
X136799774Y-106378102D01*
X136760000Y-106578061D01*
X136760000Y-106640199D01*
X136515210Y-106884989D01*
X124802333Y-106884989D01*
X124765010Y-106881313D01*
X124727687Y-106884989D01*
X124727678Y-106884989D01*
X124616025Y-106895986D01*
X124472764Y-106939443D01*
X124340735Y-107010015D01*
X124340733Y-107010016D01*
X124340734Y-107010016D01*
X124254007Y-107081190D01*
X124254003Y-107081194D01*
X124225010Y-107104988D01*
X124201216Y-107133981D01*
X123515906Y-107819292D01*
X123471309Y-107805764D01*
X123260492Y-107785000D01*
X123119508Y-107785000D01*
X122908691Y-107805764D01*
X122638192Y-107887818D01*
X122388899Y-108021068D01*
X122170392Y-108200392D01*
X121991068Y-108418899D01*
X121857818Y-108668192D01*
X121775764Y-108938691D01*
X121748057Y-109220000D01*
X120815000Y-109220000D01*
X120815000Y-109078665D01*
X120778688Y-108896113D01*
X124244792Y-105430010D01*
X137507670Y-105430010D01*
X137544992Y-105433686D01*
X137582314Y-105430010D01*
X137582325Y-105430010D01*
X137693978Y-105419013D01*
X137837239Y-105375556D01*
X137969268Y-105304984D01*
X138084993Y-105210011D01*
X138108796Y-105181007D01*
X140185001Y-103104803D01*
X140185001Y-112889254D01*
X140057702Y-112851903D01*
X139244605Y-113665000D01*
X140057702Y-114478097D01*
X140185001Y-114440746D01*
X140185001Y-116568268D01*
X140179637Y-116560241D01*
X139979759Y-116360363D01*
X139744727Y-116203320D01*
X139483574Y-116095147D01*
X139206335Y-116040000D01*
X138923665Y-116040000D01*
X138646426Y-116095147D01*
X138385273Y-116203320D01*
X138150241Y-116360363D01*
X137950363Y-116560241D01*
X137793320Y-116795273D01*
X137685147Y-117056426D01*
X137630000Y-117333665D01*
X137630000Y-117616335D01*
X137685147Y-117893574D01*
X137793320Y-118154727D01*
X137950363Y-118389759D01*
X138150241Y-118589637D01*
X138385273Y-118746680D01*
X138646426Y-118854853D01*
X138923665Y-118910000D01*
X139206335Y-118910000D01*
X139483574Y-118854853D01*
X139744727Y-118746680D01*
X139979759Y-118589637D01*
X140179637Y-118389759D01*
X140185001Y-118381731D01*
X140185001Y-133835000D01*
X136821387Y-133835000D01*
X136845812Y-133754482D01*
X136858072Y-133630000D01*
X136858072Y-131800000D01*
X136845812Y-131675518D01*
X136809502Y-131555820D01*
X136750537Y-131445506D01*
X136671185Y-131348815D01*
X136574494Y-131269463D01*
X136464180Y-131210498D01*
X136344482Y-131174188D01*
X136220000Y-131161928D01*
X135962701Y-131161928D01*
X136060252Y-131121521D01*
X136338687Y-130935477D01*
X136575477Y-130698687D01*
X136761521Y-130420252D01*
X136889670Y-130110872D01*
X136955000Y-129782435D01*
X136955000Y-129447565D01*
X136889670Y-129119128D01*
X136761521Y-128809748D01*
X136575477Y-128531313D01*
X136338687Y-128294523D01*
X136060252Y-128108479D01*
X135750872Y-127980330D01*
X135422435Y-127915000D01*
X135087565Y-127915000D01*
X134759128Y-127980330D01*
X134449748Y-128108479D01*
X134171313Y-128294523D01*
X133934523Y-128531313D01*
X133748479Y-128809748D01*
X133620330Y-129119128D01*
X133555000Y-129447565D01*
X133555000Y-129782435D01*
X133620330Y-130110872D01*
X133748479Y-130420252D01*
X133934523Y-130698687D01*
X134171313Y-130935477D01*
X134449748Y-131121521D01*
X134547299Y-131161928D01*
X134290000Y-131161928D01*
X134165518Y-131174188D01*
X134045820Y-131210498D01*
X133935506Y-131269463D01*
X133838815Y-131348815D01*
X133759463Y-131445506D01*
X133700498Y-131555820D01*
X133664188Y-131675518D01*
X133651928Y-131800000D01*
X133651928Y-131955000D01*
X119078072Y-131955000D01*
X119078072Y-131800000D01*
X119065812Y-131675518D01*
X119029502Y-131555820D01*
X118970537Y-131445506D01*
X118891185Y-131348815D01*
X118794494Y-131269463D01*
X118684180Y-131210498D01*
X118564482Y-131174188D01*
X118440000Y-131161928D01*
X118182701Y-131161928D01*
X118280252Y-131121521D01*
X118558687Y-130935477D01*
X118795477Y-130698687D01*
X118981521Y-130420252D01*
X119109670Y-130110872D01*
X119175000Y-129782435D01*
X119175000Y-129447565D01*
X119109670Y-129119128D01*
X118981521Y-128809748D01*
X118795477Y-128531313D01*
X118558687Y-128294523D01*
X118280252Y-128108479D01*
X117970872Y-127980330D01*
X117642435Y-127915000D01*
X117307565Y-127915000D01*
X116979128Y-127980330D01*
X116669748Y-128108479D01*
X116391313Y-128294523D01*
X116154523Y-128531313D01*
X115968479Y-128809748D01*
X115840330Y-129119128D01*
X115775000Y-129447565D01*
X115775000Y-129782435D01*
X115840330Y-130110872D01*
X115968479Y-130420252D01*
X116154523Y-130698687D01*
X116391313Y-130935477D01*
X116669748Y-131121521D01*
X116767299Y-131161928D01*
X116510000Y-131161928D01*
X116385518Y-131174188D01*
X116265820Y-131210498D01*
X116155506Y-131269463D01*
X116058815Y-131348815D01*
X115979463Y-131445506D01*
X115920498Y-131555820D01*
X115884188Y-131675518D01*
X115871928Y-131800000D01*
X115871928Y-133630000D01*
X115884188Y-133754482D01*
X115908613Y-133835000D01*
X112545000Y-133835000D01*
X112545000Y-129702445D01*
X112571630Y-126213816D01*
X123560000Y-126213816D01*
X123560000Y-126516184D01*
X123618989Y-126812743D01*
X123734701Y-127092095D01*
X123902688Y-127343505D01*
X124116495Y-127557312D01*
X124367905Y-127725299D01*
X124647257Y-127841011D01*
X124943816Y-127900000D01*
X125246184Y-127900000D01*
X125542743Y-127841011D01*
X125822095Y-127725299D01*
X126073505Y-127557312D01*
X126139944Y-127490873D01*
X126145498Y-127509180D01*
X126204463Y-127619494D01*
X126283815Y-127716185D01*
X126380506Y-127795537D01*
X126490820Y-127854502D01*
X126610518Y-127890812D01*
X126735000Y-127903072D01*
X128535000Y-127903072D01*
X128659482Y-127890812D01*
X128779180Y-127854502D01*
X128889494Y-127795537D01*
X128986185Y-127716185D01*
X129065537Y-127619494D01*
X129124502Y-127509180D01*
X129160812Y-127389482D01*
X129173072Y-127265000D01*
X129173072Y-125465000D01*
X129160812Y-125340518D01*
X129124502Y-125220820D01*
X129065537Y-125110506D01*
X128986185Y-125013815D01*
X128889494Y-124934463D01*
X128779180Y-124875498D01*
X128659482Y-124839188D01*
X128535000Y-124826928D01*
X126735000Y-124826928D01*
X126610518Y-124839188D01*
X126490820Y-124875498D01*
X126380506Y-124934463D01*
X126283815Y-125013815D01*
X126204463Y-125110506D01*
X126145498Y-125220820D01*
X126139944Y-125239127D01*
X126073505Y-125172688D01*
X125822095Y-125004701D01*
X125542743Y-124888989D01*
X125246184Y-124830000D01*
X124943816Y-124830000D01*
X124647257Y-124888989D01*
X124367905Y-125004701D01*
X124116495Y-125172688D01*
X123902688Y-125386495D01*
X123734701Y-125637905D01*
X123618989Y-125917257D01*
X123560000Y-126213816D01*
X112571630Y-126213816D01*
X112610303Y-121147565D01*
X115775000Y-121147565D01*
X115775000Y-121482435D01*
X115840330Y-121810872D01*
X115968479Y-122120252D01*
X116154523Y-122398687D01*
X116391313Y-122635477D01*
X116669748Y-122821521D01*
X116979128Y-122949670D01*
X117307565Y-123015000D01*
X117642435Y-123015000D01*
X117970872Y-122949670D01*
X118280252Y-122821521D01*
X118558687Y-122635477D01*
X118795477Y-122398687D01*
X118981521Y-122120252D01*
X119000265Y-122075000D01*
X126805678Y-122075000D01*
X126843000Y-122078676D01*
X126880322Y-122075000D01*
X126880333Y-122075000D01*
X126991986Y-122064003D01*
X127135247Y-122020546D01*
X127267276Y-121949974D01*
X127383001Y-121855001D01*
X127406804Y-121825997D01*
X129724114Y-119508688D01*
X129906665Y-119545000D01*
X130189335Y-119545000D01*
X130371886Y-119508688D01*
X132689205Y-121826008D01*
X132712999Y-121855001D01*
X132741992Y-121878795D01*
X132741996Y-121878799D01*
X132812685Y-121936811D01*
X132828724Y-121949974D01*
X132960753Y-122020546D01*
X133104014Y-122064003D01*
X133215667Y-122075000D01*
X133215676Y-122075000D01*
X133252999Y-122078676D01*
X133290322Y-122075000D01*
X133729735Y-122075000D01*
X133748479Y-122120252D01*
X133934523Y-122398687D01*
X134171313Y-122635477D01*
X134449748Y-122821521D01*
X134759128Y-122949670D01*
X135087565Y-123015000D01*
X135422435Y-123015000D01*
X135750872Y-122949670D01*
X136060252Y-122821521D01*
X136338687Y-122635477D01*
X136575477Y-122398687D01*
X136761521Y-122120252D01*
X136889670Y-121810872D01*
X136955000Y-121482435D01*
X136955000Y-121147565D01*
X136889670Y-120819128D01*
X136761521Y-120509748D01*
X136575477Y-120231313D01*
X136338687Y-119994523D01*
X136060252Y-119808479D01*
X135750872Y-119680330D01*
X135422435Y-119615000D01*
X135087565Y-119615000D01*
X134759128Y-119680330D01*
X134449748Y-119808479D01*
X134171313Y-119994523D01*
X133934523Y-120231313D01*
X133748479Y-120509748D01*
X133729735Y-120555000D01*
X133567803Y-120555000D01*
X131446688Y-118433886D01*
X131483000Y-118251335D01*
X131483000Y-117968665D01*
X131427853Y-117691426D01*
X131338207Y-117475000D01*
X132543057Y-117475000D01*
X132570764Y-117756309D01*
X132652818Y-118026808D01*
X132786068Y-118276101D01*
X132965392Y-118494608D01*
X133183899Y-118673932D01*
X133433192Y-118807182D01*
X133703691Y-118889236D01*
X133914508Y-118910000D01*
X134055492Y-118910000D01*
X134266309Y-118889236D01*
X134536808Y-118807182D01*
X134786101Y-118673932D01*
X135004608Y-118494608D01*
X135183932Y-118276101D01*
X135317182Y-118026808D01*
X135399236Y-117756309D01*
X135426943Y-117475000D01*
X135399236Y-117193691D01*
X135317182Y-116923192D01*
X135183932Y-116673899D01*
X135004608Y-116455392D01*
X134786101Y-116276068D01*
X134536808Y-116142818D01*
X134266309Y-116060764D01*
X134055492Y-116040000D01*
X133914508Y-116040000D01*
X133703691Y-116060764D01*
X133433192Y-116142818D01*
X133183899Y-116276068D01*
X132965392Y-116455392D01*
X132786068Y-116673899D01*
X132652818Y-116923192D01*
X132570764Y-117193691D01*
X132543057Y-117475000D01*
X131338207Y-117475000D01*
X131319680Y-117430273D01*
X131162637Y-117195241D01*
X130962759Y-116995363D01*
X130727727Y-116838320D01*
X130466574Y-116730147D01*
X130189335Y-116675000D01*
X129906665Y-116675000D01*
X129629426Y-116730147D01*
X129368273Y-116838320D01*
X129133241Y-116995363D01*
X128933363Y-117195241D01*
X128776320Y-117430273D01*
X128668147Y-117691426D01*
X128613000Y-117968665D01*
X128613000Y-118251335D01*
X128649312Y-118433886D01*
X126528199Y-120555000D01*
X119000265Y-120555000D01*
X118981521Y-120509748D01*
X118795477Y-120231313D01*
X118558687Y-119994523D01*
X118280252Y-119808479D01*
X117970872Y-119680330D01*
X117642435Y-119615000D01*
X117307565Y-119615000D01*
X116979128Y-119680330D01*
X116669748Y-119808479D01*
X116391313Y-119994523D01*
X116154523Y-120231313D01*
X115968479Y-120509748D01*
X115840330Y-120819128D01*
X115775000Y-121147565D01*
X112610303Y-121147565D01*
X112662575Y-114300000D01*
X113442815Y-114300000D01*
X113471487Y-114591111D01*
X113556401Y-114871034D01*
X113694294Y-115129014D01*
X113879866Y-115355134D01*
X114105986Y-115540706D01*
X114160791Y-115570000D01*
X114105986Y-115599294D01*
X113879866Y-115784866D01*
X113694294Y-116010986D01*
X113556401Y-116268966D01*
X113471487Y-116548889D01*
X113442815Y-116840000D01*
X113471487Y-117131111D01*
X113556401Y-117411034D01*
X113694294Y-117669014D01*
X113879866Y-117895134D01*
X114105986Y-118080706D01*
X114363966Y-118218599D01*
X114643889Y-118303513D01*
X114862050Y-118325000D01*
X115007950Y-118325000D01*
X115226111Y-118303513D01*
X115506034Y-118218599D01*
X115764014Y-118080706D01*
X115990134Y-117895134D01*
X116175706Y-117669014D01*
X116205000Y-117614209D01*
X116234294Y-117669014D01*
X116419866Y-117895134D01*
X116645986Y-118080706D01*
X116903966Y-118218599D01*
X117183889Y-118303513D01*
X117402050Y-118325000D01*
X117547950Y-118325000D01*
X117766111Y-118303513D01*
X118046034Y-118218599D01*
X118304014Y-118080706D01*
X118530134Y-117895134D01*
X118715706Y-117669014D01*
X118745000Y-117614209D01*
X118774294Y-117669014D01*
X118959866Y-117895134D01*
X119185986Y-118080706D01*
X119443966Y-118218599D01*
X119723889Y-118303513D01*
X119942050Y-118325000D01*
X120087950Y-118325000D01*
X120306111Y-118303513D01*
X120586034Y-118218599D01*
X120844014Y-118080706D01*
X121070134Y-117895134D01*
X121255706Y-117669014D01*
X121285000Y-117614209D01*
X121314294Y-117669014D01*
X121499866Y-117895134D01*
X121725986Y-118080706D01*
X121983966Y-118218599D01*
X122263889Y-118303513D01*
X122482050Y-118325000D01*
X122627950Y-118325000D01*
X122846111Y-118303513D01*
X123126034Y-118218599D01*
X123384014Y-118080706D01*
X123610134Y-117895134D01*
X123634607Y-117865313D01*
X123655498Y-117934180D01*
X123714463Y-118044494D01*
X123793815Y-118141185D01*
X123890506Y-118220537D01*
X124000820Y-118279502D01*
X124120518Y-118315812D01*
X124245000Y-118328072D01*
X124809250Y-118325000D01*
X124968000Y-118166250D01*
X124968000Y-116967000D01*
X125222000Y-116967000D01*
X125222000Y-118166250D01*
X125380750Y-118325000D01*
X125945000Y-118328072D01*
X126069482Y-118315812D01*
X126189180Y-118279502D01*
X126299494Y-118220537D01*
X126396185Y-118141185D01*
X126475537Y-118044494D01*
X126534502Y-117934180D01*
X126570812Y-117814482D01*
X126583072Y-117690000D01*
X126580000Y-117125750D01*
X126421250Y-116967000D01*
X125222000Y-116967000D01*
X124968000Y-116967000D01*
X124948000Y-116967000D01*
X124948000Y-116713000D01*
X124968000Y-116713000D01*
X124968000Y-114427000D01*
X125222000Y-114427000D01*
X125222000Y-116713000D01*
X126421250Y-116713000D01*
X126580000Y-116554250D01*
X126583072Y-115990000D01*
X126570812Y-115865518D01*
X126534502Y-115745820D01*
X126475537Y-115635506D01*
X126396185Y-115538815D01*
X126299494Y-115459463D01*
X126189180Y-115400498D01*
X126113374Y-115377502D01*
X126290178Y-115181355D01*
X126439157Y-114931252D01*
X126536481Y-114656891D01*
X126415814Y-114427000D01*
X125222000Y-114427000D01*
X124968000Y-114427000D01*
X124948000Y-114427000D01*
X124948000Y-114173000D01*
X124968000Y-114173000D01*
X124968000Y-114153000D01*
X125222000Y-114153000D01*
X125222000Y-114173000D01*
X126415814Y-114173000D01*
X126536481Y-113943109D01*
X126439157Y-113668748D01*
X126290178Y-113418645D01*
X126095269Y-113202412D01*
X125861920Y-113028359D01*
X125599099Y-112903175D01*
X125451890Y-112858524D01*
X125222002Y-112979844D01*
X125222002Y-112815000D01*
X125114802Y-112815000D01*
X125264803Y-112664999D01*
X128659151Y-112664999D01*
X128633764Y-112748691D01*
X128606057Y-113030000D01*
X128633764Y-113311309D01*
X128715818Y-113581808D01*
X128849068Y-113831101D01*
X129028392Y-114049608D01*
X129246899Y-114228932D01*
X129496192Y-114362182D01*
X129766691Y-114444236D01*
X129977508Y-114465000D01*
X130118492Y-114465000D01*
X130329309Y-114444236D01*
X130599808Y-114362182D01*
X130849101Y-114228932D01*
X131067608Y-114049608D01*
X131246932Y-113831101D01*
X131380182Y-113581808D01*
X131462236Y-113311309D01*
X131489943Y-113030000D01*
X131462236Y-112748691D01*
X131436849Y-112664999D01*
X131990198Y-112664999D01*
X132666312Y-113341114D01*
X132630000Y-113523665D01*
X132630000Y-113806335D01*
X132685147Y-114083574D01*
X132793320Y-114344727D01*
X132950363Y-114579759D01*
X133150241Y-114779637D01*
X133385273Y-114936680D01*
X133646426Y-115044853D01*
X133923665Y-115100000D01*
X134206335Y-115100000D01*
X134483574Y-115044853D01*
X134744727Y-114936680D01*
X134979759Y-114779637D01*
X135101694Y-114657702D01*
X138251903Y-114657702D01*
X138323486Y-114901671D01*
X138578996Y-115022571D01*
X138853184Y-115091300D01*
X139135512Y-115105217D01*
X139415130Y-115063787D01*
X139681292Y-114968603D01*
X139806514Y-114901671D01*
X139878097Y-114657702D01*
X139065000Y-113844605D01*
X138251903Y-114657702D01*
X135101694Y-114657702D01*
X135179637Y-114579759D01*
X135336680Y-114344727D01*
X135444853Y-114083574D01*
X135500000Y-113806335D01*
X135500000Y-113735512D01*
X137624783Y-113735512D01*
X137666213Y-114015130D01*
X137761397Y-114281292D01*
X137828329Y-114406514D01*
X138072298Y-114478097D01*
X138885395Y-113665000D01*
X138072298Y-112851903D01*
X137828329Y-112923486D01*
X137707429Y-113178996D01*
X137638700Y-113453184D01*
X137624783Y-113735512D01*
X135500000Y-113735512D01*
X135500000Y-113523665D01*
X135444853Y-113246426D01*
X135336680Y-112985273D01*
X135179637Y-112750241D01*
X135101694Y-112672298D01*
X138251903Y-112672298D01*
X139065000Y-113485395D01*
X139878097Y-112672298D01*
X139806514Y-112428329D01*
X139551004Y-112307429D01*
X139276816Y-112238700D01*
X138994488Y-112224783D01*
X138714870Y-112266213D01*
X138448708Y-112361397D01*
X138323486Y-112428329D01*
X138251903Y-112672298D01*
X135101694Y-112672298D01*
X134979759Y-112550363D01*
X134744727Y-112393320D01*
X134483574Y-112285147D01*
X134206335Y-112230000D01*
X133923665Y-112230000D01*
X133741114Y-112266312D01*
X132868803Y-111394001D01*
X132845000Y-111364998D01*
X132729275Y-111270025D01*
X132597246Y-111199453D01*
X132453985Y-111155996D01*
X132342332Y-111144999D01*
X132342321Y-111144999D01*
X132304999Y-111141323D01*
X132267677Y-111144999D01*
X124987324Y-111144999D01*
X124950001Y-111141323D01*
X124912678Y-111144999D01*
X124912668Y-111144999D01*
X124801015Y-111155996D01*
X124657754Y-111199453D01*
X124525724Y-111270025D01*
X124442084Y-111338667D01*
X124410000Y-111364998D01*
X124386202Y-111393996D01*
X122920996Y-112859203D01*
X122846111Y-112836487D01*
X122627950Y-112815000D01*
X122482050Y-112815000D01*
X122263889Y-112836487D01*
X121983966Y-112921401D01*
X121725986Y-113059294D01*
X121499866Y-113244866D01*
X121314294Y-113470986D01*
X121285000Y-113525791D01*
X121255706Y-113470986D01*
X121070134Y-113244866D01*
X120844014Y-113059294D01*
X120586034Y-112921401D01*
X120306111Y-112836487D01*
X120087950Y-112815000D01*
X119942050Y-112815000D01*
X119723889Y-112836487D01*
X119443966Y-112921401D01*
X119185986Y-113059294D01*
X118959866Y-113244866D01*
X118774294Y-113470986D01*
X118745000Y-113525791D01*
X118715706Y-113470986D01*
X118530134Y-113244866D01*
X118304014Y-113059294D01*
X118046034Y-112921401D01*
X117766111Y-112836487D01*
X117547950Y-112815000D01*
X117402050Y-112815000D01*
X117183889Y-112836487D01*
X116903966Y-112921401D01*
X116645986Y-113059294D01*
X116419866Y-113244866D01*
X116234294Y-113470986D01*
X116205000Y-113525791D01*
X116175706Y-113470986D01*
X115990134Y-113244866D01*
X115764014Y-113059294D01*
X115506034Y-112921401D01*
X115226111Y-112836487D01*
X115007950Y-112815000D01*
X114862050Y-112815000D01*
X114643889Y-112836487D01*
X114363966Y-112921401D01*
X114105986Y-113059294D01*
X113879866Y-113244866D01*
X113694294Y-113470986D01*
X113556401Y-113728966D01*
X113471487Y-114008889D01*
X113442815Y-114300000D01*
X112662575Y-114300000D01*
X112740132Y-104140000D01*
X113493057Y-104140000D01*
X113520764Y-104421309D01*
X113602818Y-104691808D01*
X113736068Y-104941101D01*
X113915392Y-105159608D01*
X114133899Y-105338932D01*
X114383192Y-105472182D01*
X114653691Y-105554236D01*
X114864508Y-105575000D01*
X115005492Y-105575000D01*
X115216309Y-105554236D01*
X115486808Y-105472182D01*
X115736101Y-105338932D01*
X115954608Y-105159608D01*
X116133932Y-104941101D01*
X116267182Y-104691808D01*
X116349236Y-104421309D01*
X116376943Y-104140000D01*
X116349236Y-103858691D01*
X116267182Y-103588192D01*
X116133932Y-103338899D01*
X115954608Y-103120392D01*
X115736101Y-102941068D01*
X115486808Y-102807818D01*
X115216309Y-102725764D01*
X115005492Y-102705000D01*
X114864508Y-102705000D01*
X114653691Y-102725764D01*
X114383192Y-102807818D01*
X114133899Y-102941068D01*
X113915392Y-103120392D01*
X113736068Y-103338899D01*
X113602818Y-103588192D01*
X113520764Y-103858691D01*
X113493057Y-104140000D01*
X112740132Y-104140000D01*
X112764368Y-100965000D01*
X116668057Y-100965000D01*
X116695764Y-101246309D01*
X116777818Y-101516808D01*
X116911068Y-101766101D01*
X117090392Y-101984608D01*
X117308899Y-102163932D01*
X117558192Y-102297182D01*
X117828691Y-102379236D01*
X118039508Y-102400000D01*
X118180492Y-102400000D01*
X118391309Y-102379236D01*
X118661808Y-102297182D01*
X118911101Y-102163932D01*
X119129608Y-101984608D01*
X119308932Y-101766101D01*
X119442182Y-101516808D01*
X119524236Y-101246309D01*
X119551943Y-100965000D01*
X119524236Y-100683691D01*
X119442182Y-100413192D01*
X119308932Y-100163899D01*
X119129608Y-99945392D01*
X118911101Y-99766068D01*
X118661808Y-99632818D01*
X118391309Y-99550764D01*
X118180492Y-99530000D01*
X118039508Y-99530000D01*
X117828691Y-99550764D01*
X117558192Y-99632818D01*
X117308899Y-99766068D01*
X117090392Y-99945392D01*
X116911068Y-100163899D01*
X116777818Y-100413192D01*
X116695764Y-100683691D01*
X116668057Y-100965000D01*
X112764368Y-100965000D01*
X112783757Y-98425000D01*
X119843057Y-98425000D01*
X119870764Y-98706309D01*
X119952818Y-98976808D01*
X120086068Y-99226101D01*
X120265392Y-99444608D01*
X120483899Y-99623932D01*
X120733192Y-99757182D01*
X121003691Y-99839236D01*
X121214508Y-99860000D01*
X121355492Y-99860000D01*
X121566309Y-99839236D01*
X121836808Y-99757182D01*
X122086101Y-99623932D01*
X122304608Y-99444608D01*
X122483932Y-99226101D01*
X122617182Y-98976808D01*
X122699236Y-98706309D01*
X122726943Y-98425000D01*
X122699236Y-98143691D01*
X122617182Y-97873192D01*
X122484521Y-97625000D01*
X127466928Y-97625000D01*
X127466928Y-99225000D01*
X127479188Y-99349482D01*
X127515498Y-99469180D01*
X127574463Y-99579494D01*
X127653815Y-99676185D01*
X127750506Y-99755537D01*
X127860820Y-99814502D01*
X127980518Y-99850812D01*
X128105000Y-99863072D01*
X129705000Y-99863072D01*
X129829482Y-99850812D01*
X129949180Y-99814502D01*
X130059494Y-99755537D01*
X130156185Y-99676185D01*
X130175000Y-99653259D01*
X130193815Y-99676185D01*
X130290506Y-99755537D01*
X130400820Y-99814502D01*
X130520518Y-99850812D01*
X130645000Y-99863072D01*
X132245000Y-99863072D01*
X132369482Y-99850812D01*
X132489180Y-99814502D01*
X132599494Y-99755537D01*
X132696185Y-99676185D01*
X132775537Y-99579494D01*
X132834502Y-99469180D01*
X132870812Y-99349482D01*
X132883072Y-99225000D01*
X132883072Y-97625000D01*
X132870812Y-97500518D01*
X132834502Y-97380820D01*
X132775537Y-97270506D01*
X132696185Y-97173815D01*
X132599494Y-97094463D01*
X132489180Y-97035498D01*
X132369482Y-96999188D01*
X132245000Y-96986928D01*
X130645000Y-96986928D01*
X130520518Y-96999188D01*
X130400820Y-97035498D01*
X130290506Y-97094463D01*
X130193815Y-97173815D01*
X130175000Y-97196741D01*
X130156185Y-97173815D01*
X130059494Y-97094463D01*
X129949180Y-97035498D01*
X129829482Y-96999188D01*
X129705000Y-96986928D01*
X128105000Y-96986928D01*
X127980518Y-96999188D01*
X127860820Y-97035498D01*
X127750506Y-97094463D01*
X127653815Y-97173815D01*
X127574463Y-97270506D01*
X127515498Y-97380820D01*
X127479188Y-97500518D01*
X127466928Y-97625000D01*
X122484521Y-97625000D01*
X122483932Y-97623899D01*
X122304608Y-97405392D01*
X122086101Y-97226068D01*
X121836808Y-97092818D01*
X121566309Y-97010764D01*
X121355492Y-96990000D01*
X121214508Y-96990000D01*
X121003691Y-97010764D01*
X120733192Y-97092818D01*
X120483899Y-97226068D01*
X120265392Y-97405392D01*
X120086068Y-97623899D01*
X119952818Y-97873192D01*
X119870764Y-98143691D01*
X119843057Y-98425000D01*
X112783757Y-98425000D01*
X112842704Y-90703061D01*
X113900000Y-90703061D01*
X113900000Y-90906939D01*
X113939774Y-91106898D01*
X114017795Y-91295256D01*
X114131063Y-91464774D01*
X114275226Y-91608937D01*
X114444744Y-91722205D01*
X114633102Y-91800226D01*
X114833061Y-91840000D01*
X115036939Y-91840000D01*
X115236898Y-91800226D01*
X115425256Y-91722205D01*
X115594774Y-91608937D01*
X115638711Y-91565000D01*
X117780604Y-91565000D01*
X117630363Y-91715241D01*
X117473320Y-91950273D01*
X117365147Y-92211426D01*
X117310000Y-92488665D01*
X117310000Y-92771335D01*
X117365147Y-93048574D01*
X117473320Y-93309727D01*
X117630363Y-93544759D01*
X117830241Y-93744637D01*
X118065273Y-93901680D01*
X118326426Y-94009853D01*
X118603665Y-94065000D01*
X118852183Y-94065000D01*
X118839999Y-94074999D01*
X118816201Y-94103997D01*
X118433886Y-94486312D01*
X118251335Y-94450000D01*
X117968665Y-94450000D01*
X117691426Y-94505147D01*
X117430273Y-94613320D01*
X117195241Y-94770363D01*
X116995363Y-94970241D01*
X116838320Y-95205273D01*
X116730147Y-95466426D01*
X116675000Y-95743665D01*
X116675000Y-96026335D01*
X116730147Y-96303574D01*
X116838320Y-96564727D01*
X116995363Y-96799759D01*
X117195241Y-96999637D01*
X117430273Y-97156680D01*
X117691426Y-97264853D01*
X117968665Y-97320000D01*
X118251335Y-97320000D01*
X118528574Y-97264853D01*
X118789727Y-97156680D01*
X119024759Y-96999637D01*
X119224637Y-96799759D01*
X119381680Y-96564727D01*
X119489853Y-96303574D01*
X119545000Y-96026335D01*
X119545000Y-95743665D01*
X119508688Y-95561114D01*
X119694802Y-95375000D01*
X121334099Y-95375000D01*
X121356068Y-95416101D01*
X121535392Y-95634608D01*
X121753899Y-95813932D01*
X122003192Y-95947182D01*
X122273691Y-96029236D01*
X122484508Y-96050000D01*
X122625492Y-96050000D01*
X122836309Y-96029236D01*
X123106808Y-95947182D01*
X123356101Y-95813932D01*
X123574608Y-95634608D01*
X123753932Y-95416101D01*
X123887182Y-95166808D01*
X123969236Y-94896309D01*
X123996943Y-94615000D01*
X123969236Y-94333691D01*
X123887182Y-94063192D01*
X123753932Y-93813899D01*
X123574608Y-93595392D01*
X123356101Y-93416068D01*
X123223142Y-93345000D01*
X123356101Y-93273932D01*
X123574608Y-93094608D01*
X123753932Y-92876101D01*
X123887182Y-92626808D01*
X123969236Y-92356309D01*
X123996943Y-92075000D01*
X123969236Y-91793691D01*
X123887182Y-91523192D01*
X123753932Y-91273899D01*
X123664670Y-91165133D01*
X127074804Y-87755000D01*
X128954099Y-87755000D01*
X128976068Y-87796101D01*
X129155392Y-88014608D01*
X129373899Y-88193932D01*
X129506858Y-88265000D01*
X129373899Y-88336068D01*
X129155392Y-88515392D01*
X128976068Y-88733899D01*
X128842818Y-88983192D01*
X128760764Y-89253691D01*
X128733057Y-89535000D01*
X128760764Y-89816309D01*
X128842818Y-90086808D01*
X128976068Y-90336101D01*
X129155392Y-90554608D01*
X129373899Y-90733932D01*
X129506858Y-90805000D01*
X129373899Y-90876068D01*
X129155392Y-91055392D01*
X128976068Y-91273899D01*
X128842818Y-91523192D01*
X128760764Y-91793691D01*
X128733057Y-92075000D01*
X128760764Y-92356309D01*
X128842818Y-92626808D01*
X128976068Y-92876101D01*
X129155392Y-93094608D01*
X129373899Y-93273932D01*
X129506858Y-93345000D01*
X129373899Y-93416068D01*
X129155392Y-93595392D01*
X128976068Y-93813899D01*
X128842818Y-94063192D01*
X128760764Y-94333691D01*
X128733057Y-94615000D01*
X128760764Y-94896309D01*
X128842818Y-95166808D01*
X128976068Y-95416101D01*
X129155392Y-95634608D01*
X129373899Y-95813932D01*
X129623192Y-95947182D01*
X129893691Y-96029236D01*
X130104508Y-96050000D01*
X130245492Y-96050000D01*
X130456309Y-96029236D01*
X130726808Y-95947182D01*
X130976101Y-95813932D01*
X131194608Y-95634608D01*
X131373932Y-95416101D01*
X131507182Y-95166808D01*
X131589236Y-94896309D01*
X131616943Y-94615000D01*
X131589236Y-94333691D01*
X131575708Y-94289094D01*
X131614803Y-94249999D01*
X131959491Y-94249999D01*
X131915000Y-94473665D01*
X131915000Y-94756335D01*
X131970147Y-95033574D01*
X132078320Y-95294727D01*
X132235363Y-95529759D01*
X132435241Y-95729637D01*
X132670273Y-95886680D01*
X132931426Y-95994853D01*
X133208665Y-96050000D01*
X133491335Y-96050000D01*
X133768574Y-95994853D01*
X134029727Y-95886680D01*
X134264759Y-95729637D01*
X134464637Y-95529759D01*
X134621680Y-95294727D01*
X134729853Y-95033574D01*
X134785000Y-94756335D01*
X134785000Y-94473665D01*
X134729853Y-94196426D01*
X134621680Y-93935273D01*
X134464637Y-93700241D01*
X134449599Y-93685203D01*
X135766009Y-92368794D01*
X135795001Y-92345001D01*
X135818795Y-92316008D01*
X135818799Y-92316004D01*
X135889973Y-92229277D01*
X135889974Y-92229276D01*
X135960546Y-92097247D01*
X135974549Y-92051086D01*
X136078941Y-92106885D01*
X136297601Y-92173215D01*
X136525000Y-92195612D01*
X136752400Y-92173215D01*
X136971060Y-92106885D01*
X137172579Y-91999171D01*
X137349212Y-91854212D01*
X137494171Y-91677579D01*
X137583238Y-91510945D01*
X137590001Y-91517708D01*
X137590000Y-93396956D01*
X137435241Y-93500363D01*
X137235363Y-93700241D01*
X137078320Y-93935273D01*
X136970147Y-94196426D01*
X136915000Y-94473665D01*
X136915000Y-94756335D01*
X136970147Y-95033574D01*
X137078320Y-95294727D01*
X137235363Y-95529759D01*
X137435241Y-95729637D01*
X137670273Y-95886680D01*
X137931426Y-95994853D01*
X138208665Y-96050000D01*
X138491335Y-96050000D01*
X138768574Y-95994853D01*
X139029727Y-95886680D01*
X139264759Y-95729637D01*
X139464637Y-95529759D01*
X139621680Y-95294727D01*
X139729853Y-95033574D01*
X139785000Y-94756335D01*
X139785000Y-94473665D01*
X139729853Y-94196426D01*
X139621680Y-93935273D01*
X139464637Y-93700241D01*
X139264759Y-93500363D01*
X139110000Y-93396957D01*
X139110000Y-91240227D01*
X139113676Y-91202904D01*
X139110000Y-91165581D01*
X139110000Y-91165572D01*
X139099003Y-91053919D01*
X139055546Y-90910658D01*
X138984974Y-90778629D01*
X138890001Y-90662904D01*
X138861003Y-90639106D01*
X137440889Y-89218993D01*
X137417086Y-89189989D01*
X137301361Y-89095016D01*
X137169332Y-89024444D01*
X137026071Y-88980987D01*
X136914418Y-88969990D01*
X136914407Y-88969990D01*
X136877085Y-88966314D01*
X136839763Y-88969990D01*
X134872335Y-88969990D01*
X134835010Y-88966314D01*
X134797685Y-88969990D01*
X134797677Y-88969990D01*
X134686024Y-88980987D01*
X134542763Y-89024444D01*
X134410734Y-89095016D01*
X134295009Y-89189989D01*
X134271211Y-89218987D01*
X134073270Y-89416928D01*
X133460000Y-89416928D01*
X133335518Y-89429188D01*
X133215820Y-89465498D01*
X133105506Y-89524463D01*
X133008815Y-89603815D01*
X132929463Y-89700506D01*
X132870498Y-89810820D01*
X132834188Y-89930518D01*
X132821928Y-90055000D01*
X132821928Y-91555000D01*
X132834188Y-91679482D01*
X132870498Y-91799180D01*
X132929463Y-91909494D01*
X133008815Y-92006185D01*
X133105506Y-92085537D01*
X133215820Y-92144502D01*
X133335518Y-92180812D01*
X133460000Y-92193072D01*
X133792126Y-92193072D01*
X133255200Y-92729999D01*
X131452025Y-92729999D01*
X131507182Y-92626808D01*
X131589236Y-92356309D01*
X131616943Y-92075000D01*
X131589236Y-91793691D01*
X131507182Y-91523192D01*
X131373932Y-91273899D01*
X131194608Y-91055392D01*
X130976101Y-90876068D01*
X130843142Y-90805000D01*
X130976101Y-90733932D01*
X131194608Y-90554608D01*
X131373932Y-90336101D01*
X131507182Y-90086808D01*
X131589236Y-89816309D01*
X131616943Y-89535000D01*
X131589236Y-89253691D01*
X131507182Y-88983192D01*
X131373932Y-88733899D01*
X131194608Y-88515392D01*
X130976101Y-88336068D01*
X130843142Y-88265000D01*
X130976101Y-88193932D01*
X131194608Y-88014608D01*
X131373932Y-87796101D01*
X131395901Y-87755000D01*
X132677678Y-87755000D01*
X132715000Y-87758676D01*
X132752322Y-87755000D01*
X132752333Y-87755000D01*
X132863986Y-87744003D01*
X132908700Y-87730439D01*
X132931426Y-87739853D01*
X133208665Y-87795000D01*
X133491335Y-87795000D01*
X133768574Y-87739853D01*
X134029727Y-87631680D01*
X134264759Y-87474637D01*
X134464637Y-87274759D01*
X134621680Y-87039727D01*
X134729853Y-86778574D01*
X134785000Y-86501335D01*
X134785000Y-86218665D01*
X134729853Y-85941426D01*
X134621680Y-85680273D01*
X134464637Y-85445241D01*
X134264759Y-85245363D01*
X134029727Y-85088320D01*
X133768574Y-84980147D01*
X133491335Y-84925000D01*
X133208665Y-84925000D01*
X132931426Y-84980147D01*
X132670273Y-85088320D01*
X132435241Y-85245363D01*
X132235363Y-85445241D01*
X132078320Y-85680273D01*
X131970147Y-85941426D01*
X131915000Y-86218665D01*
X131915000Y-86235000D01*
X131395901Y-86235000D01*
X131373932Y-86193899D01*
X131194608Y-85975392D01*
X130976101Y-85796068D01*
X130843142Y-85725000D01*
X130976101Y-85653932D01*
X131194608Y-85474608D01*
X131373932Y-85256101D01*
X131507182Y-85006808D01*
X131589236Y-84736309D01*
X131616943Y-84455000D01*
X131613003Y-84415001D01*
X133505200Y-84415001D01*
X135124292Y-86034094D01*
X135110764Y-86078691D01*
X135083057Y-86360000D01*
X135110764Y-86641309D01*
X135192818Y-86911808D01*
X135326068Y-87161101D01*
X135505392Y-87379608D01*
X135723899Y-87558932D01*
X135973192Y-87692182D01*
X136243691Y-87774236D01*
X136454508Y-87795000D01*
X136595492Y-87795000D01*
X136806309Y-87774236D01*
X137076808Y-87692182D01*
X137326101Y-87558932D01*
X137544608Y-87379608D01*
X137723932Y-87161101D01*
X137857182Y-86911808D01*
X137939236Y-86641309D01*
X137966943Y-86360000D01*
X137939236Y-86078691D01*
X137857182Y-85808192D01*
X137723932Y-85558899D01*
X137544608Y-85340392D01*
X137326101Y-85161068D01*
X137076808Y-85027818D01*
X136806309Y-84945764D01*
X136595492Y-84925000D01*
X136454508Y-84925000D01*
X136243691Y-84945764D01*
X136199094Y-84959292D01*
X134383805Y-83144004D01*
X134360002Y-83115000D01*
X134244277Y-83020027D01*
X134112248Y-82949455D01*
X133968987Y-82905998D01*
X133857334Y-82895001D01*
X133857323Y-82895001D01*
X133820001Y-82891325D01*
X133782679Y-82895001D01*
X131227113Y-82895001D01*
X131373932Y-82716101D01*
X131507182Y-82466808D01*
X131589236Y-82196309D01*
X131616943Y-81915000D01*
X131589236Y-81633691D01*
X131507182Y-81363192D01*
X131373932Y-81113899D01*
X131194608Y-80895392D01*
X130976101Y-80716068D01*
X130843142Y-80645000D01*
X130976101Y-80573932D01*
X131194608Y-80394608D01*
X131373932Y-80176101D01*
X131507182Y-79926808D01*
X131589236Y-79656309D01*
X131616943Y-79375000D01*
X131589236Y-79093691D01*
X131507182Y-78823192D01*
X131373932Y-78573899D01*
X131194608Y-78355392D01*
X130976101Y-78176068D01*
X130726808Y-78042818D01*
X130456309Y-77960764D01*
X130245492Y-77940000D01*
X130104508Y-77940000D01*
X129893691Y-77960764D01*
X129623192Y-78042818D01*
X129373899Y-78176068D01*
X129155392Y-78355392D01*
X128976068Y-78573899D01*
X128842818Y-78823192D01*
X128760764Y-79093691D01*
X128733057Y-79375000D01*
X128760764Y-79656309D01*
X128842818Y-79926808D01*
X128976068Y-80176101D01*
X129155392Y-80394608D01*
X129373899Y-80573932D01*
X129506858Y-80645000D01*
X129373899Y-80716068D01*
X129155392Y-80895392D01*
X128976068Y-81113899D01*
X128842818Y-81363192D01*
X128760764Y-81633691D01*
X128733057Y-81915000D01*
X128760764Y-82196309D01*
X128842818Y-82466808D01*
X128976068Y-82716101D01*
X129155392Y-82934608D01*
X129373899Y-83113932D01*
X129506858Y-83185000D01*
X129373899Y-83256068D01*
X129155392Y-83435392D01*
X128976068Y-83653899D01*
X128842818Y-83903192D01*
X128760764Y-84173691D01*
X128733057Y-84455000D01*
X128760764Y-84736309D01*
X128842818Y-85006808D01*
X128976068Y-85256101D01*
X129155392Y-85474608D01*
X129373899Y-85653932D01*
X129506858Y-85725000D01*
X129373899Y-85796068D01*
X129155392Y-85975392D01*
X128976068Y-86193899D01*
X128954099Y-86235000D01*
X126797327Y-86235000D01*
X126760002Y-86231324D01*
X126722677Y-86235000D01*
X126722669Y-86235000D01*
X126611016Y-86245997D01*
X126467755Y-86289454D01*
X126335726Y-86360026D01*
X126220001Y-86454999D01*
X126196203Y-86483997D01*
X123820940Y-88859261D01*
X123753932Y-88733899D01*
X123574608Y-88515392D01*
X123356101Y-88336068D01*
X123218318Y-88262421D01*
X123410131Y-88147385D01*
X123618519Y-87958414D01*
X123786037Y-87732420D01*
X123906246Y-87478087D01*
X123946904Y-87344039D01*
X123824915Y-87122000D01*
X122682000Y-87122000D01*
X122682000Y-87142000D01*
X122428000Y-87142000D01*
X122428000Y-87122000D01*
X121285085Y-87122000D01*
X121163096Y-87344039D01*
X121203754Y-87478087D01*
X121323963Y-87732420D01*
X121491481Y-87958414D01*
X121699869Y-88147385D01*
X121891682Y-88262421D01*
X121753899Y-88336068D01*
X121535392Y-88515392D01*
X121356068Y-88733899D01*
X121334099Y-88775000D01*
X119513411Y-88775000D01*
X119558097Y-88622702D01*
X118745000Y-87809605D01*
X118730858Y-87823748D01*
X118551253Y-87644143D01*
X118565395Y-87630000D01*
X118924605Y-87630000D01*
X119737702Y-88443097D01*
X119981671Y-88371514D01*
X120102571Y-88116004D01*
X120171300Y-87841816D01*
X120185217Y-87559488D01*
X120143787Y-87279870D01*
X120048603Y-87013708D01*
X119981671Y-86888486D01*
X119737702Y-86816903D01*
X118924605Y-87630000D01*
X118565395Y-87630000D01*
X118551253Y-87615858D01*
X118730858Y-87436253D01*
X118745000Y-87450395D01*
X119558097Y-86637298D01*
X119486514Y-86393329D01*
X119414520Y-86359264D01*
X119546101Y-86288932D01*
X119764608Y-86109608D01*
X119943932Y-85891101D01*
X120077182Y-85641808D01*
X120159236Y-85371309D01*
X120186943Y-85090000D01*
X120159236Y-84808691D01*
X120077182Y-84538192D01*
X119943932Y-84288899D01*
X119764608Y-84070392D01*
X119546101Y-83891068D01*
X119296808Y-83757818D01*
X119026309Y-83675764D01*
X118815492Y-83655000D01*
X118674508Y-83655000D01*
X118463691Y-83675764D01*
X118193192Y-83757818D01*
X117943899Y-83891068D01*
X117725392Y-84070392D01*
X117546068Y-84288899D01*
X117524099Y-84330000D01*
X116788043Y-84330000D01*
X116684637Y-84175241D01*
X116484759Y-83975363D01*
X116249727Y-83818320D01*
X115988574Y-83710147D01*
X115711335Y-83655000D01*
X115428665Y-83655000D01*
X115151426Y-83710147D01*
X114890273Y-83818320D01*
X114655241Y-83975363D01*
X114455363Y-84175241D01*
X114298320Y-84410273D01*
X114190147Y-84671426D01*
X114135000Y-84948665D01*
X114135000Y-85231335D01*
X114190147Y-85508574D01*
X114298320Y-85769727D01*
X114455363Y-86004759D01*
X114655241Y-86204637D01*
X114890273Y-86361680D01*
X115151426Y-86469853D01*
X115428665Y-86525000D01*
X115711335Y-86525000D01*
X115988574Y-86469853D01*
X116249727Y-86361680D01*
X116484759Y-86204637D01*
X116684637Y-86004759D01*
X116788043Y-85850000D01*
X116953342Y-85850000D01*
X116914453Y-85922755D01*
X116870996Y-86066016D01*
X116859999Y-86177669D01*
X116859999Y-86177679D01*
X116856323Y-86215001D01*
X116859999Y-86252324D01*
X116860000Y-88132669D01*
X116856323Y-88170001D01*
X116860000Y-88207334D01*
X116870997Y-88318987D01*
X116884179Y-88362443D01*
X116914453Y-88462247D01*
X116985025Y-88594277D01*
X117056200Y-88681003D01*
X117079999Y-88710002D01*
X117108997Y-88733800D01*
X118420196Y-90045000D01*
X115638711Y-90045000D01*
X115594774Y-90001063D01*
X115425256Y-89887795D01*
X115236898Y-89809774D01*
X115036939Y-89770000D01*
X114833061Y-89770000D01*
X114633102Y-89809774D01*
X114444744Y-89887795D01*
X114275226Y-90001063D01*
X114131063Y-90145226D01*
X114017795Y-90314744D01*
X113939774Y-90503102D01*
X113900000Y-90703061D01*
X112842704Y-90703061D01*
X112924799Y-79948665D01*
X114135000Y-79948665D01*
X114135000Y-80231335D01*
X114190147Y-80508574D01*
X114298320Y-80769727D01*
X114455363Y-81004759D01*
X114655241Y-81204637D01*
X114890273Y-81361680D01*
X115151426Y-81469853D01*
X115428665Y-81525000D01*
X115711335Y-81525000D01*
X115988574Y-81469853D01*
X116249727Y-81361680D01*
X116484759Y-81204637D01*
X116684637Y-81004759D01*
X116841680Y-80769727D01*
X116949853Y-80508574D01*
X117005000Y-80231335D01*
X117005000Y-79948665D01*
X116949853Y-79671426D01*
X116841680Y-79410273D01*
X116684637Y-79175241D01*
X116484759Y-78975363D01*
X116249727Y-78818320D01*
X115988574Y-78710147D01*
X115711335Y-78655000D01*
X115428665Y-78655000D01*
X115151426Y-78710147D01*
X114890273Y-78818320D01*
X114655241Y-78975363D01*
X114455363Y-79175241D01*
X114298320Y-79410273D01*
X114190147Y-79671426D01*
X114135000Y-79948665D01*
X112924799Y-79948665D01*
X112949827Y-76670000D01*
X117306928Y-76670000D01*
X117306928Y-78270000D01*
X117319188Y-78394482D01*
X117355498Y-78514180D01*
X117414463Y-78624494D01*
X117493815Y-78721185D01*
X117590506Y-78800537D01*
X117700820Y-78859502D01*
X117820518Y-78895812D01*
X117945000Y-78908072D01*
X119545000Y-78908072D01*
X119669482Y-78895812D01*
X119789180Y-78859502D01*
X119899494Y-78800537D01*
X119996185Y-78721185D01*
X120075537Y-78624494D01*
X120134502Y-78514180D01*
X120170812Y-78394482D01*
X120183072Y-78270000D01*
X120183072Y-78230000D01*
X121219388Y-78230000D01*
X121165498Y-78330820D01*
X121129188Y-78450518D01*
X121116928Y-78575000D01*
X121116928Y-80175000D01*
X121129188Y-80299482D01*
X121165498Y-80419180D01*
X121224463Y-80529494D01*
X121303815Y-80626185D01*
X121400506Y-80705537D01*
X121510820Y-80764502D01*
X121630518Y-80800812D01*
X121648482Y-80802581D01*
X121535392Y-80895392D01*
X121356068Y-81113899D01*
X121222818Y-81363192D01*
X121140764Y-81633691D01*
X121113057Y-81915000D01*
X121140764Y-82196309D01*
X121222818Y-82466808D01*
X121356068Y-82716101D01*
X121535392Y-82934608D01*
X121753899Y-83113932D01*
X121886858Y-83185000D01*
X121753899Y-83256068D01*
X121535392Y-83435392D01*
X121356068Y-83653899D01*
X121222818Y-83903192D01*
X121140764Y-84173691D01*
X121113057Y-84455000D01*
X121140764Y-84736309D01*
X121222818Y-85006808D01*
X121356068Y-85256101D01*
X121535392Y-85474608D01*
X121753899Y-85653932D01*
X121891682Y-85727579D01*
X121699869Y-85842615D01*
X121491481Y-86031586D01*
X121323963Y-86257580D01*
X121203754Y-86511913D01*
X121163096Y-86645961D01*
X121285085Y-86868000D01*
X122428000Y-86868000D01*
X122428000Y-86848000D01*
X122682000Y-86848000D01*
X122682000Y-86868000D01*
X123824915Y-86868000D01*
X123946904Y-86645961D01*
X123906246Y-86511913D01*
X123786037Y-86257580D01*
X123618519Y-86031586D01*
X123410131Y-85842615D01*
X123218318Y-85727579D01*
X123356101Y-85653932D01*
X123574608Y-85474608D01*
X123753932Y-85256101D01*
X123887182Y-85006808D01*
X123969236Y-84736309D01*
X123996943Y-84455000D01*
X123969236Y-84173691D01*
X123887182Y-83903192D01*
X123753932Y-83653899D01*
X123574608Y-83435392D01*
X123356101Y-83256068D01*
X123223142Y-83185000D01*
X123356101Y-83113932D01*
X123574608Y-82934608D01*
X123753932Y-82716101D01*
X123887182Y-82466808D01*
X123969236Y-82196309D01*
X123996943Y-81915000D01*
X123969236Y-81633691D01*
X123887182Y-81363192D01*
X123753932Y-81113899D01*
X123574608Y-80895392D01*
X123461518Y-80802581D01*
X123479482Y-80800812D01*
X123599180Y-80764502D01*
X123709494Y-80705537D01*
X123806185Y-80626185D01*
X123885537Y-80529494D01*
X123944502Y-80419180D01*
X123980812Y-80299482D01*
X123993072Y-80175000D01*
X123993072Y-78575000D01*
X123980812Y-78450518D01*
X123944502Y-78330820D01*
X123885537Y-78220506D01*
X123806185Y-78123815D01*
X123709494Y-78044463D01*
X123599180Y-77985498D01*
X123479482Y-77949188D01*
X123355000Y-77936928D01*
X123209326Y-77936928D01*
X123189974Y-77900724D01*
X123118799Y-77813997D01*
X123095001Y-77784999D01*
X123066004Y-77761202D01*
X122263803Y-76959002D01*
X122240001Y-76929999D01*
X122124276Y-76835026D01*
X121992247Y-76764454D01*
X121848986Y-76720997D01*
X121737333Y-76710000D01*
X121737322Y-76710000D01*
X121700000Y-76706324D01*
X121662678Y-76710000D01*
X120183072Y-76710000D01*
X120183072Y-76670000D01*
X120170812Y-76545518D01*
X120134502Y-76425820D01*
X120075537Y-76315506D01*
X119996185Y-76218815D01*
X119899494Y-76139463D01*
X119789180Y-76080498D01*
X119669482Y-76044188D01*
X119545000Y-76031928D01*
X117945000Y-76031928D01*
X117820518Y-76044188D01*
X117700820Y-76080498D01*
X117590506Y-76139463D01*
X117493815Y-76218815D01*
X117414463Y-76315506D01*
X117355498Y-76425820D01*
X117319188Y-76545518D01*
X117306928Y-76670000D01*
X112949827Y-76670000D01*
X112993038Y-71009491D01*
X113260285Y-71276738D01*
X113691859Y-71565107D01*
X114171399Y-71763739D01*
X114680475Y-71865000D01*
X115199525Y-71865000D01*
X115708601Y-71763739D01*
X116188141Y-71565107D01*
X116619715Y-71276738D01*
X116986738Y-70909715D01*
X117275107Y-70478141D01*
X117473739Y-69998601D01*
X117575000Y-69489525D01*
X117575000Y-68970475D01*
X121105000Y-68970475D01*
X121105000Y-69489525D01*
X121206261Y-69998601D01*
X121404893Y-70478141D01*
X121693262Y-70909715D01*
X122060285Y-71276738D01*
X122491859Y-71565107D01*
X122971399Y-71763739D01*
X123480475Y-71865000D01*
X123999525Y-71865000D01*
X124508601Y-71763739D01*
X124988141Y-71565107D01*
X125419715Y-71276738D01*
X125786738Y-70909715D01*
X126075107Y-70478141D01*
X126273739Y-69998601D01*
X126325000Y-69740893D01*
X126376261Y-69998601D01*
X126574893Y-70478141D01*
X126863262Y-70909715D01*
X127230285Y-71276738D01*
X127661859Y-71565107D01*
X128141399Y-71763739D01*
X128650475Y-71865000D01*
X129169525Y-71865000D01*
X129678601Y-71763739D01*
X130158141Y-71565107D01*
X130589715Y-71276738D01*
X130956738Y-70909715D01*
X131245107Y-70478141D01*
X131443739Y-69998601D01*
X131545000Y-69489525D01*
X131545000Y-68970475D01*
X131443739Y-68461399D01*
X131245107Y-67981859D01*
X130956738Y-67550285D01*
X130589715Y-67183262D01*
X130158141Y-66894893D01*
X129678601Y-66696261D01*
X129169525Y-66595000D01*
X128650475Y-66595000D01*
X128141399Y-66696261D01*
X127661859Y-66894893D01*
X127230285Y-67183262D01*
X126863262Y-67550285D01*
X126574893Y-67981859D01*
X126376261Y-68461399D01*
X126325000Y-68719107D01*
X126273739Y-68461399D01*
X126075107Y-67981859D01*
X125786738Y-67550285D01*
X125419715Y-67183262D01*
X124988141Y-66894893D01*
X124508601Y-66696261D01*
X123999525Y-66595000D01*
X123480475Y-66595000D01*
X122971399Y-66696261D01*
X122491859Y-66894893D01*
X122060285Y-67183262D01*
X121693262Y-67550285D01*
X121404893Y-67981859D01*
X121206261Y-68461399D01*
X121105000Y-68970475D01*
X117575000Y-68970475D01*
X117473739Y-68461399D01*
X117275107Y-67981859D01*
X116986738Y-67550285D01*
X116619715Y-67183262D01*
X116188141Y-66894893D01*
X115708601Y-66696261D01*
X115199525Y-66595000D01*
X114680475Y-66595000D01*
X114171399Y-66696261D01*
X113691859Y-66894893D01*
X113260285Y-67183262D01*
X113020415Y-67423132D01*
X113061211Y-62078816D01*
X115305000Y-62078816D01*
X115305000Y-62381184D01*
X115363989Y-62677743D01*
X115479701Y-62957095D01*
X115647688Y-63208505D01*
X115861495Y-63422312D01*
X116112905Y-63590299D01*
X116392257Y-63706011D01*
X116688816Y-63765000D01*
X116991184Y-63765000D01*
X117287743Y-63706011D01*
X117567095Y-63590299D01*
X117818505Y-63422312D01*
X118032312Y-63208505D01*
X118090000Y-63122169D01*
X118147688Y-63208505D01*
X118361495Y-63422312D01*
X118612905Y-63590299D01*
X118892257Y-63706011D01*
X119188816Y-63765000D01*
X119491184Y-63765000D01*
X119787743Y-63706011D01*
X120067095Y-63590299D01*
X120318505Y-63422312D01*
X120532312Y-63208505D01*
X120590000Y-63122169D01*
X120647688Y-63208505D01*
X120861495Y-63422312D01*
X121112905Y-63590299D01*
X121392257Y-63706011D01*
X121688816Y-63765000D01*
X121991184Y-63765000D01*
X122287743Y-63706011D01*
X122567095Y-63590299D01*
X122818505Y-63422312D01*
X123032312Y-63208505D01*
X123200299Y-62957095D01*
X123316011Y-62677743D01*
X123375000Y-62381184D01*
X123375000Y-62078816D01*
X129275000Y-62078816D01*
X129275000Y-62381184D01*
X129333989Y-62677743D01*
X129449701Y-62957095D01*
X129617688Y-63208505D01*
X129831495Y-63422312D01*
X130082905Y-63590299D01*
X130362257Y-63706011D01*
X130658816Y-63765000D01*
X130961184Y-63765000D01*
X131257743Y-63706011D01*
X131537095Y-63590299D01*
X131788505Y-63422312D01*
X132002312Y-63208505D01*
X132060000Y-63122169D01*
X132117688Y-63208505D01*
X132331495Y-63422312D01*
X132582905Y-63590299D01*
X132862257Y-63706011D01*
X133158816Y-63765000D01*
X133461184Y-63765000D01*
X133757743Y-63706011D01*
X134037095Y-63590299D01*
X134288505Y-63422312D01*
X134502312Y-63208505D01*
X134560000Y-63122169D01*
X134617688Y-63208505D01*
X134831495Y-63422312D01*
X135082905Y-63590299D01*
X135362257Y-63706011D01*
X135658816Y-63765000D01*
X135961184Y-63765000D01*
X136257743Y-63706011D01*
X136537095Y-63590299D01*
X136788505Y-63422312D01*
X137002312Y-63208505D01*
X137170299Y-62957095D01*
X137286011Y-62677743D01*
X137345000Y-62381184D01*
X137345000Y-62078816D01*
X137286011Y-61782257D01*
X137170299Y-61502905D01*
X137002312Y-61251495D01*
X136788505Y-61037688D01*
X136537095Y-60869701D01*
X136257743Y-60753989D01*
X135961184Y-60695000D01*
X135658816Y-60695000D01*
X135362257Y-60753989D01*
X135082905Y-60869701D01*
X134831495Y-61037688D01*
X134617688Y-61251495D01*
X134560000Y-61337831D01*
X134502312Y-61251495D01*
X134288505Y-61037688D01*
X134037095Y-60869701D01*
X133757743Y-60753989D01*
X133461184Y-60695000D01*
X133158816Y-60695000D01*
X132862257Y-60753989D01*
X132582905Y-60869701D01*
X132331495Y-61037688D01*
X132117688Y-61251495D01*
X132060000Y-61337831D01*
X132002312Y-61251495D01*
X131788505Y-61037688D01*
X131537095Y-60869701D01*
X131257743Y-60753989D01*
X130961184Y-60695000D01*
X130658816Y-60695000D01*
X130362257Y-60753989D01*
X130082905Y-60869701D01*
X129831495Y-61037688D01*
X129617688Y-61251495D01*
X129449701Y-61502905D01*
X129333989Y-61782257D01*
X129275000Y-62078816D01*
X123375000Y-62078816D01*
X123316011Y-61782257D01*
X123200299Y-61502905D01*
X123032312Y-61251495D01*
X122818505Y-61037688D01*
X122567095Y-60869701D01*
X122287743Y-60753989D01*
X121991184Y-60695000D01*
X121688816Y-60695000D01*
X121392257Y-60753989D01*
X121112905Y-60869701D01*
X120861495Y-61037688D01*
X120647688Y-61251495D01*
X120590000Y-61337831D01*
X120532312Y-61251495D01*
X120318505Y-61037688D01*
X120067095Y-60869701D01*
X119787743Y-60753989D01*
X119491184Y-60695000D01*
X119188816Y-60695000D01*
X118892257Y-60753989D01*
X118612905Y-60869701D01*
X118361495Y-61037688D01*
X118147688Y-61251495D01*
X118090000Y-61337831D01*
X118032312Y-61251495D01*
X117818505Y-61037688D01*
X117567095Y-60869701D01*
X117287743Y-60753989D01*
X116991184Y-60695000D01*
X116688816Y-60695000D01*
X116392257Y-60753989D01*
X116112905Y-60869701D01*
X115861495Y-61037688D01*
X115647688Y-61251495D01*
X115479701Y-61502905D01*
X115363989Y-61782257D01*
X115305000Y-62078816D01*
X113061211Y-62078816D01*
X113156034Y-49657000D01*
X140185000Y-49657000D01*
X140185000Y-55707037D01*
X140185000Y-55707037D01*
G37*
X140185000Y-55707037D02*
X137301455Y-52823493D01*
X137335472Y-52759851D01*
X137386008Y-52593255D01*
X137403072Y-52420001D01*
X137403072Y-51719999D01*
X137386008Y-51546745D01*
X137335472Y-51380149D01*
X137253405Y-51226613D01*
X137142962Y-51092038D01*
X137008387Y-50981595D01*
X136854851Y-50899528D01*
X136688255Y-50848992D01*
X136515001Y-50831928D01*
X135264999Y-50831928D01*
X135091745Y-50848992D01*
X134925149Y-50899528D01*
X134771613Y-50981595D01*
X134637038Y-51092038D01*
X134526595Y-51226613D01*
X134444528Y-51380149D01*
X134393992Y-51546745D01*
X134376928Y-51719999D01*
X134376928Y-52384990D01*
X132849019Y-52384990D01*
X132859236Y-52351309D01*
X132886943Y-52070000D01*
X132859236Y-51788691D01*
X132777182Y-51518192D01*
X132643932Y-51268899D01*
X132464608Y-51050392D01*
X132246101Y-50871068D01*
X131996808Y-50737818D01*
X131726309Y-50655764D01*
X131515492Y-50635000D01*
X131374508Y-50635000D01*
X131163691Y-50655764D01*
X130893192Y-50737818D01*
X130643899Y-50871068D01*
X130425392Y-51050392D01*
X130246068Y-51268899D01*
X130224099Y-51310000D01*
X119190120Y-51310000D01*
X119152797Y-51306324D01*
X119115474Y-51310000D01*
X119115465Y-51310000D01*
X119003812Y-51320997D01*
X118860551Y-51364454D01*
X118728522Y-51435026D01*
X118728520Y-51435027D01*
X118728521Y-51435027D01*
X118641794Y-51506201D01*
X118641790Y-51506205D01*
X118612797Y-51529999D01*
X118589003Y-51558992D01*
X116944297Y-53203699D01*
X116936185Y-53193815D01*
X116839494Y-53114463D01*
X116729180Y-53055498D01*
X116609482Y-53019188D01*
X116485000Y-53006928D01*
X114655000Y-53006928D01*
X114530518Y-53019188D01*
X114410820Y-53055498D01*
X114300506Y-53114463D01*
X114203815Y-53193815D01*
X114124463Y-53290506D01*
X114065498Y-53400820D01*
X114029188Y-53520518D01*
X114016928Y-53645000D01*
X114016928Y-55575000D01*
X114029188Y-55699482D01*
X114065498Y-55819180D01*
X114124463Y-55929494D01*
X114203815Y-56026185D01*
X114300506Y-56105537D01*
X114410820Y-56164502D01*
X114530518Y-56200812D01*
X114655000Y-56213072D01*
X116485000Y-56213072D01*
X116609482Y-56200812D01*
X116729180Y-56164502D01*
X116839494Y-56105537D01*
X116936185Y-56026185D01*
X117015537Y-55929494D01*
X117074502Y-55819180D01*
X117110812Y-55699482D01*
X117123072Y-55575000D01*
X117123072Y-55317701D01*
X117163479Y-55415252D01*
X117349523Y-55693687D01*
X117586313Y-55930477D01*
X117864748Y-56116521D01*
X118174128Y-56244670D01*
X118502565Y-56310000D01*
X118837435Y-56310000D01*
X119165872Y-56244670D01*
X119475252Y-56116521D01*
X119753687Y-55930477D01*
X119990477Y-55693687D01*
X120176521Y-55415252D01*
X120304670Y-55105872D01*
X120370000Y-54777435D01*
X120370000Y-54442565D01*
X120304670Y-54114128D01*
X120176521Y-53804748D01*
X119990477Y-53526313D01*
X119753687Y-53289523D01*
X119475252Y-53103479D01*
X119276463Y-53021138D01*
X119467601Y-52830000D01*
X130224099Y-52830000D01*
X130246068Y-52871101D01*
X130425392Y-53089608D01*
X130643899Y-53268932D01*
X130893192Y-53402182D01*
X131163691Y-53484236D01*
X131374508Y-53505000D01*
X131515492Y-53505000D01*
X131726309Y-53484236D01*
X131770905Y-53470708D01*
X131956195Y-53655998D01*
X131979989Y-53684991D01*
X132008982Y-53708785D01*
X132008986Y-53708789D01*
X132079675Y-53766801D01*
X132095714Y-53779964D01*
X132227743Y-53850536D01*
X132371004Y-53893993D01*
X132482657Y-53904990D01*
X132482666Y-53904990D01*
X132519989Y-53908666D01*
X132557312Y-53904990D01*
X134390277Y-53904990D01*
X134374025Y-54070000D01*
X134397870Y-54312102D01*
X134468489Y-54544901D01*
X134583167Y-54759449D01*
X134737498Y-54947502D01*
X134886762Y-55070000D01*
X134858781Y-55092964D01*
X134794275Y-55040025D01*
X134662246Y-54969453D01*
X134518985Y-54925996D01*
X134407332Y-54914999D01*
X134407321Y-54914999D01*
X134369999Y-54911323D01*
X134332677Y-54914999D01*
X128642637Y-54914999D01*
X128670000Y-54777435D01*
X128670000Y-54442565D01*
X128604670Y-54114128D01*
X128476521Y-53804748D01*
X128290477Y-53526313D01*
X128053687Y-53289523D01*
X127775252Y-53103479D01*
X127465872Y-52975330D01*
X127137435Y-52910000D01*
X126802565Y-52910000D01*
X126474128Y-52975330D01*
X126164748Y-53103479D01*
X125886313Y-53289523D01*
X125649523Y-53526313D01*
X125463479Y-53804748D01*
X125335330Y-54114128D01*
X125270000Y-54442565D01*
X125270000Y-54777435D01*
X125335330Y-55105872D01*
X125463479Y-55415252D01*
X125649523Y-55693687D01*
X125886313Y-55930477D01*
X126164748Y-56116521D01*
X126474128Y-56244670D01*
X126802565Y-56310000D01*
X127137435Y-56310000D01*
X127465872Y-56244670D01*
X127509255Y-56226700D01*
X127523996Y-56238798D01*
X127610722Y-56309973D01*
X127666137Y-56339593D01*
X127742752Y-56380545D01*
X127886013Y-56424002D01*
X127997666Y-56434999D01*
X127997675Y-56434999D01*
X128034998Y-56438675D01*
X128072321Y-56434999D01*
X130196889Y-56434999D01*
X130173320Y-56470273D01*
X130065147Y-56731426D01*
X130010000Y-57008665D01*
X130010000Y-57291335D01*
X130065147Y-57568574D01*
X130173320Y-57829727D01*
X130330363Y-58064759D01*
X130530241Y-58264637D01*
X130765273Y-58421680D01*
X131026426Y-58529853D01*
X131303665Y-58585000D01*
X131586335Y-58585000D01*
X131863574Y-58529853D01*
X132124727Y-58421680D01*
X132359759Y-58264637D01*
X132559637Y-58064759D01*
X132716680Y-57829727D01*
X132824853Y-57568574D01*
X132880000Y-57291335D01*
X132880000Y-57008665D01*
X132824853Y-56731426D01*
X132716680Y-56470273D01*
X132693111Y-56434999D01*
X134055198Y-56434999D01*
X134201196Y-56580997D01*
X134224999Y-56610001D01*
X134340724Y-56704974D01*
X134472753Y-56775546D01*
X134616014Y-56819003D01*
X134633451Y-56820720D01*
X134737498Y-56947502D01*
X134925551Y-57101833D01*
X135140099Y-57216511D01*
X135372898Y-57287130D01*
X135554335Y-57305000D01*
X136225665Y-57305000D01*
X136407102Y-57287130D01*
X136639901Y-57216511D01*
X136854449Y-57101833D01*
X137042502Y-56947502D01*
X137196833Y-56759449D01*
X137311511Y-56544901D01*
X137382130Y-56312102D01*
X137405975Y-56070000D01*
X137382130Y-55827898D01*
X137311511Y-55595099D01*
X137196833Y-55380551D01*
X137042502Y-55192498D01*
X136893238Y-55070000D01*
X137042502Y-54947502D01*
X137147690Y-54819330D01*
X139275001Y-56946642D01*
X139275002Y-67106613D01*
X138958141Y-66894893D01*
X138478601Y-66696261D01*
X137969525Y-66595000D01*
X137450475Y-66595000D01*
X136941399Y-66696261D01*
X136461859Y-66894893D01*
X136030285Y-67183262D01*
X135663262Y-67550285D01*
X135374893Y-67981859D01*
X135176261Y-68461399D01*
X135075000Y-68970475D01*
X135075000Y-69489525D01*
X135176261Y-69998601D01*
X135374893Y-70478141D01*
X135663262Y-70909715D01*
X136030285Y-71276738D01*
X136461859Y-71565107D01*
X136941399Y-71763739D01*
X137450475Y-71865000D01*
X137969525Y-71865000D01*
X138478601Y-71763739D01*
X138958141Y-71565107D01*
X139275002Y-71353387D01*
X139275002Y-74360196D01*
X133673887Y-79961312D01*
X133491335Y-79925000D01*
X133208665Y-79925000D01*
X132931426Y-79980147D01*
X132670273Y-80088320D01*
X132435241Y-80245363D01*
X132235363Y-80445241D01*
X132078320Y-80680273D01*
X131970147Y-80941426D01*
X131915000Y-81218665D01*
X131915000Y-81501335D01*
X131970147Y-81778574D01*
X132078320Y-82039727D01*
X132235363Y-82274759D01*
X132435241Y-82474637D01*
X132670273Y-82631680D01*
X132931426Y-82739853D01*
X133208665Y-82795000D01*
X133491335Y-82795000D01*
X133768574Y-82739853D01*
X134029727Y-82631680D01*
X134264759Y-82474637D01*
X134464637Y-82274759D01*
X134466011Y-82272702D01*
X135711903Y-82272702D01*
X135783486Y-82516671D01*
X136038996Y-82637571D01*
X136313184Y-82706300D01*
X136595512Y-82720217D01*
X136875130Y-82678787D01*
X137141292Y-82583603D01*
X137266514Y-82516671D01*
X137338097Y-82272702D01*
X136525000Y-81459605D01*
X135711903Y-82272702D01*
X134466011Y-82272702D01*
X134621680Y-82039727D01*
X134729853Y-81778574D01*
X134785000Y-81501335D01*
X134785000Y-81218665D01*
X134748688Y-81036113D01*
X135425097Y-80359704D01*
X135532296Y-80466903D01*
X135288329Y-80538486D01*
X135167429Y-80793996D01*
X135098700Y-81068184D01*
X135084783Y-81350512D01*
X135126213Y-81630130D01*
X135221397Y-81896292D01*
X135288329Y-82021514D01*
X135532298Y-82093097D01*
X136345395Y-81280000D01*
X136704605Y-81280000D01*
X137517702Y-82093097D01*
X137761671Y-82021514D01*
X137882571Y-81766004D01*
X137951300Y-81491816D01*
X137965217Y-81209488D01*
X137923787Y-80929870D01*
X137828603Y-80663708D01*
X137761671Y-80538486D01*
X137517702Y-80466903D01*
X136704605Y-81280000D01*
X136345395Y-81280000D01*
X136331253Y-81265858D01*
X136510858Y-81086253D01*
X136525000Y-81100395D01*
X137338097Y-80287298D01*
X137266514Y-80043329D01*
X137011004Y-79922429D01*
X136736816Y-79853700D01*
X136454488Y-79839783D01*
X136174870Y-79881213D01*
X135908708Y-79976397D01*
X135783486Y-80043329D01*
X135711903Y-80287296D01*
X135604704Y-80180097D01*
X140185000Y-75599802D01*
X140185001Y-97527721D01*
X140084608Y-97405392D01*
X139866101Y-97226068D01*
X139616808Y-97092818D01*
X139346309Y-97010764D01*
X139135492Y-96990000D01*
X138994508Y-96990000D01*
X138783691Y-97010764D01*
X138513192Y-97092818D01*
X138263899Y-97226068D01*
X138045392Y-97405392D01*
X137866068Y-97623899D01*
X137732818Y-97873192D01*
X137650764Y-98143691D01*
X137623057Y-98425000D01*
X137650764Y-98706309D01*
X137732818Y-98976808D01*
X137866068Y-99226101D01*
X138045392Y-99444608D01*
X138263899Y-99623932D01*
X138513192Y-99757182D01*
X138783691Y-99839236D01*
X138994508Y-99860000D01*
X139105000Y-99860000D01*
X139105000Y-100161928D01*
X137630000Y-100161928D01*
X137505518Y-100174188D01*
X137385820Y-100210498D01*
X137275506Y-100269463D01*
X137178815Y-100348815D01*
X137099463Y-100445506D01*
X137040498Y-100555820D01*
X137004188Y-100675518D01*
X137002419Y-100693482D01*
X136909608Y-100580392D01*
X136691101Y-100401068D01*
X136441808Y-100267818D01*
X136171309Y-100185764D01*
X135960492Y-100165000D01*
X135819508Y-100165000D01*
X135608691Y-100185764D01*
X135558206Y-100201078D01*
X135514277Y-100165027D01*
X135382248Y-100094455D01*
X135238987Y-100050998D01*
X135127334Y-100040001D01*
X135127323Y-100040001D01*
X135090001Y-100036325D01*
X135052679Y-100040001D01*
X134187321Y-100040001D01*
X134149998Y-100036325D01*
X134112675Y-100040001D01*
X134112666Y-100040001D01*
X134001013Y-100050998D01*
X133857752Y-100094455D01*
X133725723Y-100165027D01*
X133725721Y-100165028D01*
X133725722Y-100165028D01*
X133681794Y-100201078D01*
X133631309Y-100185764D01*
X133420492Y-100165000D01*
X133279508Y-100165000D01*
X133068691Y-100185764D01*
X132798192Y-100267818D01*
X132548899Y-100401068D01*
X132330392Y-100580392D01*
X132151068Y-100798899D01*
X132080000Y-100931858D01*
X132008932Y-100798899D01*
X131829608Y-100580392D01*
X131611101Y-100401068D01*
X131361808Y-100267818D01*
X131091309Y-100185764D01*
X130880492Y-100165000D01*
X130739508Y-100165000D01*
X130528691Y-100185764D01*
X130258192Y-100267818D01*
X130008899Y-100401068D01*
X129790392Y-100580392D01*
X129611068Y-100798899D01*
X129540000Y-100931858D01*
X129468932Y-100798899D01*
X129289608Y-100580392D01*
X129071101Y-100401068D01*
X128821808Y-100267818D01*
X128551309Y-100185764D01*
X128340492Y-100165000D01*
X128199508Y-100165000D01*
X127988691Y-100185764D01*
X127718192Y-100267818D01*
X127468899Y-100401068D01*
X127250392Y-100580392D01*
X127071068Y-100798899D01*
X127000000Y-100931858D01*
X126928932Y-100798899D01*
X126749608Y-100580392D01*
X126531101Y-100401068D01*
X126281808Y-100267818D01*
X126011309Y-100185764D01*
X125800492Y-100165000D01*
X125659508Y-100165000D01*
X125448691Y-100185764D01*
X125178192Y-100267818D01*
X124928899Y-100401068D01*
X124710392Y-100580392D01*
X124531068Y-100798899D01*
X124460000Y-100931858D01*
X124388932Y-100798899D01*
X124209608Y-100580392D01*
X123991101Y-100401068D01*
X123741808Y-100267818D01*
X123471309Y-100185764D01*
X123260492Y-100165000D01*
X123119508Y-100165000D01*
X122908691Y-100185764D01*
X122638192Y-100267818D01*
X122388899Y-100401068D01*
X122170392Y-100580392D01*
X121991068Y-100798899D01*
X121857818Y-101048192D01*
X121775764Y-101318691D01*
X121748057Y-101600000D01*
X121775764Y-101881309D01*
X121857818Y-102151808D01*
X121991068Y-102401101D01*
X122170392Y-102619608D01*
X122388899Y-102798932D01*
X122638192Y-102932182D01*
X122908691Y-103014236D01*
X123119508Y-103035000D01*
X123260492Y-103035000D01*
X123471309Y-103014236D01*
X123741808Y-102932182D01*
X123991101Y-102798932D01*
X124209608Y-102619608D01*
X124388932Y-102401101D01*
X124460000Y-102268142D01*
X124531068Y-102401101D01*
X124710392Y-102619608D01*
X124928899Y-102798932D01*
X125178192Y-102932182D01*
X125448691Y-103014236D01*
X125659508Y-103035000D01*
X125800492Y-103035000D01*
X126011309Y-103014236D01*
X126281808Y-102932182D01*
X126531101Y-102798932D01*
X126749608Y-102619608D01*
X126928932Y-102401101D01*
X127000000Y-102268142D01*
X127071068Y-102401101D01*
X127250392Y-102619608D01*
X127468899Y-102798932D01*
X127718192Y-102932182D01*
X127988691Y-103014236D01*
X128199508Y-103035000D01*
X128300199Y-103035000D01*
X127875199Y-103460000D01*
X120598043Y-103460000D01*
X120494637Y-103305241D01*
X120294759Y-103105363D01*
X120059727Y-102948320D01*
X119798574Y-102840147D01*
X119521335Y-102785000D01*
X119238665Y-102785000D01*
X118961426Y-102840147D01*
X118700273Y-102948320D01*
X118465241Y-103105363D01*
X118265363Y-103305241D01*
X118108320Y-103540273D01*
X118000147Y-103801426D01*
X117945000Y-104078665D01*
X117945000Y-104361335D01*
X118000147Y-104638574D01*
X118108320Y-104899727D01*
X118265363Y-105134759D01*
X118465241Y-105334637D01*
X118700273Y-105491680D01*
X118961426Y-105599853D01*
X119238665Y-105655000D01*
X119521335Y-105655000D01*
X119798574Y-105599853D01*
X120059727Y-105491680D01*
X120294759Y-105334637D01*
X120494637Y-105134759D01*
X120598043Y-104980000D01*
X122545198Y-104980000D01*
X119703887Y-107821312D01*
X119521335Y-107785000D01*
X119238665Y-107785000D01*
X118961426Y-107840147D01*
X118700273Y-107948320D01*
X118465241Y-108105363D01*
X118265363Y-108305241D01*
X118161957Y-108460000D01*
X116153043Y-108460000D01*
X116049637Y-108305241D01*
X115849759Y-108105363D01*
X115614727Y-107948320D01*
X115353574Y-107840147D01*
X115076335Y-107785000D01*
X114793665Y-107785000D01*
X114516426Y-107840147D01*
X114255273Y-107948320D01*
X114020241Y-108105363D01*
X113820363Y-108305241D01*
X113663320Y-108540273D01*
X113555147Y-108801426D01*
X113500000Y-109078665D01*
X113500000Y-109361335D01*
X113555147Y-109638574D01*
X113663320Y-109899727D01*
X113820363Y-110134759D01*
X114020241Y-110334637D01*
X114255273Y-110491680D01*
X114516426Y-110599853D01*
X114793665Y-110655000D01*
X115076335Y-110655000D01*
X115353574Y-110599853D01*
X115614727Y-110491680D01*
X115849759Y-110334637D01*
X116049637Y-110134759D01*
X116153043Y-109980000D01*
X118161957Y-109980000D01*
X118265363Y-110134759D01*
X118465241Y-110334637D01*
X118700273Y-110491680D01*
X118961426Y-110599853D01*
X119238665Y-110655000D01*
X119521335Y-110655000D01*
X119798574Y-110599853D01*
X120059727Y-110491680D01*
X120294759Y-110334637D01*
X120494637Y-110134759D01*
X120651680Y-109899727D01*
X120759853Y-109638574D01*
X120815000Y-109361335D01*
X120815000Y-109220000D01*
X121748057Y-109220000D01*
X121775764Y-109501309D01*
X121857818Y-109771808D01*
X121991068Y-110021101D01*
X122170392Y-110239608D01*
X122388899Y-110418932D01*
X122638192Y-110552182D01*
X122908691Y-110634236D01*
X123119508Y-110655000D01*
X123260492Y-110655000D01*
X123471309Y-110634236D01*
X123741808Y-110552182D01*
X123991101Y-110418932D01*
X124209608Y-110239608D01*
X124388932Y-110021101D01*
X124460000Y-109888142D01*
X124531068Y-110021101D01*
X124710392Y-110239608D01*
X124928899Y-110418932D01*
X125178192Y-110552182D01*
X125448691Y-110634236D01*
X125659508Y-110655000D01*
X125800492Y-110655000D01*
X126011309Y-110634236D01*
X126281808Y-110552182D01*
X126531101Y-110418932D01*
X126749608Y-110239608D01*
X126928932Y-110021101D01*
X127000000Y-109888142D01*
X127071068Y-110021101D01*
X127250392Y-110239608D01*
X127468899Y-110418932D01*
X127718192Y-110552182D01*
X127988691Y-110634236D01*
X128199508Y-110655000D01*
X128340492Y-110655000D01*
X128551309Y-110634236D01*
X128821808Y-110552182D01*
X129071101Y-110418932D01*
X129289608Y-110239608D01*
X129468932Y-110021101D01*
X129540000Y-109888142D01*
X129611068Y-110021101D01*
X129790392Y-110239608D01*
X130008899Y-110418932D01*
X130258192Y-110552182D01*
X130528691Y-110634236D01*
X130739508Y-110655000D01*
X130880492Y-110655000D01*
X131091309Y-110634236D01*
X131361808Y-110552182D01*
X131611101Y-110418932D01*
X131829608Y-110239608D01*
X132008932Y-110021101D01*
X132080000Y-109888142D01*
X132151068Y-110021101D01*
X132330392Y-110239608D01*
X132548899Y-110418932D01*
X132798192Y-110552182D01*
X133068691Y-110634236D01*
X133279508Y-110655000D01*
X133420492Y-110655000D01*
X133631309Y-110634236D01*
X133901808Y-110552182D01*
X134151101Y-110418932D01*
X134369608Y-110239608D01*
X134548932Y-110021101D01*
X134620000Y-109888142D01*
X134691068Y-110021101D01*
X134870392Y-110239608D01*
X135088899Y-110418932D01*
X135338192Y-110552182D01*
X135608691Y-110634236D01*
X135819508Y-110655000D01*
X135960492Y-110655000D01*
X136171309Y-110634236D01*
X136441808Y-110552182D01*
X136691101Y-110418932D01*
X136909608Y-110239608D01*
X137088932Y-110021101D01*
X137162579Y-109883318D01*
X137277615Y-110075131D01*
X137466586Y-110283519D01*
X137692580Y-110451037D01*
X137946913Y-110571246D01*
X138080961Y-110611904D01*
X138303000Y-110489915D01*
X138303000Y-109347000D01*
X138557000Y-109347000D01*
X138557000Y-110489915D01*
X138779039Y-110611904D01*
X138913087Y-110571246D01*
X139167420Y-110451037D01*
X139393414Y-110283519D01*
X139582385Y-110075131D01*
X139727070Y-109833881D01*
X139821909Y-109569040D01*
X139700624Y-109347000D01*
X138557000Y-109347000D01*
X138303000Y-109347000D01*
X138283000Y-109347000D01*
X138283000Y-109093000D01*
X138303000Y-109093000D01*
X138303000Y-107950085D01*
X138557000Y-107950085D01*
X138557000Y-109093000D01*
X139700624Y-109093000D01*
X139821909Y-108870960D01*
X139727070Y-108606119D01*
X139582385Y-108364869D01*
X139393414Y-108156481D01*
X139167420Y-107988963D01*
X138913087Y-107868754D01*
X138779039Y-107828096D01*
X138557000Y-107950085D01*
X138303000Y-107950085D01*
X138080961Y-107828096D01*
X137946913Y-107868754D01*
X137692580Y-107988963D01*
X137466586Y-108156481D01*
X137277615Y-108364869D01*
X137162579Y-108556682D01*
X137088932Y-108418899D01*
X137050653Y-108372256D01*
X137122258Y-108350535D01*
X137254287Y-108279963D01*
X137370012Y-108184990D01*
X137393815Y-108155987D01*
X137834801Y-107715000D01*
X137896939Y-107715000D01*
X138096898Y-107675226D01*
X138285256Y-107597205D01*
X138454774Y-107483937D01*
X138598937Y-107339774D01*
X138712205Y-107170256D01*
X138790226Y-106981898D01*
X138830000Y-106781939D01*
X138830000Y-106578061D01*
X138790226Y-106378102D01*
X138712205Y-106189744D01*
X138598937Y-106020226D01*
X138454774Y-105876063D01*
X138285256Y-105762795D01*
X138096898Y-105684774D01*
X137896939Y-105645000D01*
X137693061Y-105645000D01*
X137493102Y-105684774D01*
X137304744Y-105762795D01*
X137135226Y-105876063D01*
X136991063Y-106020226D01*
X136877795Y-106189744D01*
X136799774Y-106378102D01*
X136760000Y-106578061D01*
X136760000Y-106640199D01*
X136515210Y-106884989D01*
X124802333Y-106884989D01*
X124765010Y-106881313D01*
X124727687Y-106884989D01*
X124727678Y-106884989D01*
X124616025Y-106895986D01*
X124472764Y-106939443D01*
X124340735Y-107010015D01*
X124340733Y-107010016D01*
X124340734Y-107010016D01*
X124254007Y-107081190D01*
X124254003Y-107081194D01*
X124225010Y-107104988D01*
X124201216Y-107133981D01*
X123515906Y-107819292D01*
X123471309Y-107805764D01*
X123260492Y-107785000D01*
X123119508Y-107785000D01*
X122908691Y-107805764D01*
X122638192Y-107887818D01*
X122388899Y-108021068D01*
X122170392Y-108200392D01*
X121991068Y-108418899D01*
X121857818Y-108668192D01*
X121775764Y-108938691D01*
X121748057Y-109220000D01*
X120815000Y-109220000D01*
X120815000Y-109078665D01*
X120778688Y-108896113D01*
X124244792Y-105430010D01*
X137507670Y-105430010D01*
X137544992Y-105433686D01*
X137582314Y-105430010D01*
X137582325Y-105430010D01*
X137693978Y-105419013D01*
X137837239Y-105375556D01*
X137969268Y-105304984D01*
X138084993Y-105210011D01*
X138108796Y-105181007D01*
X140185001Y-103104803D01*
X140185001Y-112889254D01*
X140057702Y-112851903D01*
X139244605Y-113665000D01*
X140057702Y-114478097D01*
X140185001Y-114440746D01*
X140185001Y-116568268D01*
X140179637Y-116560241D01*
X139979759Y-116360363D01*
X139744727Y-116203320D01*
X139483574Y-116095147D01*
X139206335Y-116040000D01*
X138923665Y-116040000D01*
X138646426Y-116095147D01*
X138385273Y-116203320D01*
X138150241Y-116360363D01*
X137950363Y-116560241D01*
X137793320Y-116795273D01*
X137685147Y-117056426D01*
X137630000Y-117333665D01*
X137630000Y-117616335D01*
X137685147Y-117893574D01*
X137793320Y-118154727D01*
X137950363Y-118389759D01*
X138150241Y-118589637D01*
X138385273Y-118746680D01*
X138646426Y-118854853D01*
X138923665Y-118910000D01*
X139206335Y-118910000D01*
X139483574Y-118854853D01*
X139744727Y-118746680D01*
X139979759Y-118589637D01*
X140179637Y-118389759D01*
X140185001Y-118381731D01*
X140185001Y-133835000D01*
X136821387Y-133835000D01*
X136845812Y-133754482D01*
X136858072Y-133630000D01*
X136858072Y-131800000D01*
X136845812Y-131675518D01*
X136809502Y-131555820D01*
X136750537Y-131445506D01*
X136671185Y-131348815D01*
X136574494Y-131269463D01*
X136464180Y-131210498D01*
X136344482Y-131174188D01*
X136220000Y-131161928D01*
X135962701Y-131161928D01*
X136060252Y-131121521D01*
X136338687Y-130935477D01*
X136575477Y-130698687D01*
X136761521Y-130420252D01*
X136889670Y-130110872D01*
X136955000Y-129782435D01*
X136955000Y-129447565D01*
X136889670Y-129119128D01*
X136761521Y-128809748D01*
X136575477Y-128531313D01*
X136338687Y-128294523D01*
X136060252Y-128108479D01*
X135750872Y-127980330D01*
X135422435Y-127915000D01*
X135087565Y-127915000D01*
X134759128Y-127980330D01*
X134449748Y-128108479D01*
X134171313Y-128294523D01*
X133934523Y-128531313D01*
X133748479Y-128809748D01*
X133620330Y-129119128D01*
X133555000Y-129447565D01*
X133555000Y-129782435D01*
X133620330Y-130110872D01*
X133748479Y-130420252D01*
X133934523Y-130698687D01*
X134171313Y-130935477D01*
X134449748Y-131121521D01*
X134547299Y-131161928D01*
X134290000Y-131161928D01*
X134165518Y-131174188D01*
X134045820Y-131210498D01*
X133935506Y-131269463D01*
X133838815Y-131348815D01*
X133759463Y-131445506D01*
X133700498Y-131555820D01*
X133664188Y-131675518D01*
X133651928Y-131800000D01*
X133651928Y-131955000D01*
X119078072Y-131955000D01*
X119078072Y-131800000D01*
X119065812Y-131675518D01*
X119029502Y-131555820D01*
X118970537Y-131445506D01*
X118891185Y-131348815D01*
X118794494Y-131269463D01*
X118684180Y-131210498D01*
X118564482Y-131174188D01*
X118440000Y-131161928D01*
X118182701Y-131161928D01*
X118280252Y-131121521D01*
X118558687Y-130935477D01*
X118795477Y-130698687D01*
X118981521Y-130420252D01*
X119109670Y-130110872D01*
X119175000Y-129782435D01*
X119175000Y-129447565D01*
X119109670Y-129119128D01*
X118981521Y-128809748D01*
X118795477Y-128531313D01*
X118558687Y-128294523D01*
X118280252Y-128108479D01*
X117970872Y-127980330D01*
X117642435Y-127915000D01*
X117307565Y-127915000D01*
X116979128Y-127980330D01*
X116669748Y-128108479D01*
X116391313Y-128294523D01*
X116154523Y-128531313D01*
X115968479Y-128809748D01*
X115840330Y-129119128D01*
X115775000Y-129447565D01*
X115775000Y-129782435D01*
X115840330Y-130110872D01*
X115968479Y-130420252D01*
X116154523Y-130698687D01*
X116391313Y-130935477D01*
X116669748Y-131121521D01*
X116767299Y-131161928D01*
X116510000Y-131161928D01*
X116385518Y-131174188D01*
X116265820Y-131210498D01*
X116155506Y-131269463D01*
X116058815Y-131348815D01*
X115979463Y-131445506D01*
X115920498Y-131555820D01*
X115884188Y-131675518D01*
X115871928Y-131800000D01*
X115871928Y-133630000D01*
X115884188Y-133754482D01*
X115908613Y-133835000D01*
X112545000Y-133835000D01*
X112545000Y-129702445D01*
X112571630Y-126213816D01*
X123560000Y-126213816D01*
X123560000Y-126516184D01*
X123618989Y-126812743D01*
X123734701Y-127092095D01*
X123902688Y-127343505D01*
X124116495Y-127557312D01*
X124367905Y-127725299D01*
X124647257Y-127841011D01*
X124943816Y-127900000D01*
X125246184Y-127900000D01*
X125542743Y-127841011D01*
X125822095Y-127725299D01*
X126073505Y-127557312D01*
X126139944Y-127490873D01*
X126145498Y-127509180D01*
X126204463Y-127619494D01*
X126283815Y-127716185D01*
X126380506Y-127795537D01*
X126490820Y-127854502D01*
X126610518Y-127890812D01*
X126735000Y-127903072D01*
X128535000Y-127903072D01*
X128659482Y-127890812D01*
X128779180Y-127854502D01*
X128889494Y-127795537D01*
X128986185Y-127716185D01*
X129065537Y-127619494D01*
X129124502Y-127509180D01*
X129160812Y-127389482D01*
X129173072Y-127265000D01*
X129173072Y-125465000D01*
X129160812Y-125340518D01*
X129124502Y-125220820D01*
X129065537Y-125110506D01*
X128986185Y-125013815D01*
X128889494Y-124934463D01*
X128779180Y-124875498D01*
X128659482Y-124839188D01*
X128535000Y-124826928D01*
X126735000Y-124826928D01*
X126610518Y-124839188D01*
X126490820Y-124875498D01*
X126380506Y-124934463D01*
X126283815Y-125013815D01*
X126204463Y-125110506D01*
X126145498Y-125220820D01*
X126139944Y-125239127D01*
X126073505Y-125172688D01*
X125822095Y-125004701D01*
X125542743Y-124888989D01*
X125246184Y-124830000D01*
X124943816Y-124830000D01*
X124647257Y-124888989D01*
X124367905Y-125004701D01*
X124116495Y-125172688D01*
X123902688Y-125386495D01*
X123734701Y-125637905D01*
X123618989Y-125917257D01*
X123560000Y-126213816D01*
X112571630Y-126213816D01*
X112610303Y-121147565D01*
X115775000Y-121147565D01*
X115775000Y-121482435D01*
X115840330Y-121810872D01*
X115968479Y-122120252D01*
X116154523Y-122398687D01*
X116391313Y-122635477D01*
X116669748Y-122821521D01*
X116979128Y-122949670D01*
X117307565Y-123015000D01*
X117642435Y-123015000D01*
X117970872Y-122949670D01*
X118280252Y-122821521D01*
X118558687Y-122635477D01*
X118795477Y-122398687D01*
X118981521Y-122120252D01*
X119000265Y-122075000D01*
X126805678Y-122075000D01*
X126843000Y-122078676D01*
X126880322Y-122075000D01*
X126880333Y-122075000D01*
X126991986Y-122064003D01*
X127135247Y-122020546D01*
X127267276Y-121949974D01*
X127383001Y-121855001D01*
X127406804Y-121825997D01*
X129724114Y-119508688D01*
X129906665Y-119545000D01*
X130189335Y-119545000D01*
X130371886Y-119508688D01*
X132689205Y-121826008D01*
X132712999Y-121855001D01*
X132741992Y-121878795D01*
X132741996Y-121878799D01*
X132812685Y-121936811D01*
X132828724Y-121949974D01*
X132960753Y-122020546D01*
X133104014Y-122064003D01*
X133215667Y-122075000D01*
X133215676Y-122075000D01*
X133252999Y-122078676D01*
X133290322Y-122075000D01*
X133729735Y-122075000D01*
X133748479Y-122120252D01*
X133934523Y-122398687D01*
X134171313Y-122635477D01*
X134449748Y-122821521D01*
X134759128Y-122949670D01*
X135087565Y-123015000D01*
X135422435Y-123015000D01*
X135750872Y-122949670D01*
X136060252Y-122821521D01*
X136338687Y-122635477D01*
X136575477Y-122398687D01*
X136761521Y-122120252D01*
X136889670Y-121810872D01*
X136955000Y-121482435D01*
X136955000Y-121147565D01*
X136889670Y-120819128D01*
X136761521Y-120509748D01*
X136575477Y-120231313D01*
X136338687Y-119994523D01*
X136060252Y-119808479D01*
X135750872Y-119680330D01*
X135422435Y-119615000D01*
X135087565Y-119615000D01*
X134759128Y-119680330D01*
X134449748Y-119808479D01*
X134171313Y-119994523D01*
X133934523Y-120231313D01*
X133748479Y-120509748D01*
X133729735Y-120555000D01*
X133567803Y-120555000D01*
X131446688Y-118433886D01*
X131483000Y-118251335D01*
X131483000Y-117968665D01*
X131427853Y-117691426D01*
X131338207Y-117475000D01*
X132543057Y-117475000D01*
X132570764Y-117756309D01*
X132652818Y-118026808D01*
X132786068Y-118276101D01*
X132965392Y-118494608D01*
X133183899Y-118673932D01*
X133433192Y-118807182D01*
X133703691Y-118889236D01*
X133914508Y-118910000D01*
X134055492Y-118910000D01*
X134266309Y-118889236D01*
X134536808Y-118807182D01*
X134786101Y-118673932D01*
X135004608Y-118494608D01*
X135183932Y-118276101D01*
X135317182Y-118026808D01*
X135399236Y-117756309D01*
X135426943Y-117475000D01*
X135399236Y-117193691D01*
X135317182Y-116923192D01*
X135183932Y-116673899D01*
X135004608Y-116455392D01*
X134786101Y-116276068D01*
X134536808Y-116142818D01*
X134266309Y-116060764D01*
X134055492Y-116040000D01*
X133914508Y-116040000D01*
X133703691Y-116060764D01*
X133433192Y-116142818D01*
X133183899Y-116276068D01*
X132965392Y-116455392D01*
X132786068Y-116673899D01*
X132652818Y-116923192D01*
X132570764Y-117193691D01*
X132543057Y-117475000D01*
X131338207Y-117475000D01*
X131319680Y-117430273D01*
X131162637Y-117195241D01*
X130962759Y-116995363D01*
X130727727Y-116838320D01*
X130466574Y-116730147D01*
X130189335Y-116675000D01*
X129906665Y-116675000D01*
X129629426Y-116730147D01*
X129368273Y-116838320D01*
X129133241Y-116995363D01*
X128933363Y-117195241D01*
X128776320Y-117430273D01*
X128668147Y-117691426D01*
X128613000Y-117968665D01*
X128613000Y-118251335D01*
X128649312Y-118433886D01*
X126528199Y-120555000D01*
X119000265Y-120555000D01*
X118981521Y-120509748D01*
X118795477Y-120231313D01*
X118558687Y-119994523D01*
X118280252Y-119808479D01*
X117970872Y-119680330D01*
X117642435Y-119615000D01*
X117307565Y-119615000D01*
X116979128Y-119680330D01*
X116669748Y-119808479D01*
X116391313Y-119994523D01*
X116154523Y-120231313D01*
X115968479Y-120509748D01*
X115840330Y-120819128D01*
X115775000Y-121147565D01*
X112610303Y-121147565D01*
X112662575Y-114300000D01*
X113442815Y-114300000D01*
X113471487Y-114591111D01*
X113556401Y-114871034D01*
X113694294Y-115129014D01*
X113879866Y-115355134D01*
X114105986Y-115540706D01*
X114160791Y-115570000D01*
X114105986Y-115599294D01*
X113879866Y-115784866D01*
X113694294Y-116010986D01*
X113556401Y-116268966D01*
X113471487Y-116548889D01*
X113442815Y-116840000D01*
X113471487Y-117131111D01*
X113556401Y-117411034D01*
X113694294Y-117669014D01*
X113879866Y-117895134D01*
X114105986Y-118080706D01*
X114363966Y-118218599D01*
X114643889Y-118303513D01*
X114862050Y-118325000D01*
X115007950Y-118325000D01*
X115226111Y-118303513D01*
X115506034Y-118218599D01*
X115764014Y-118080706D01*
X115990134Y-117895134D01*
X116175706Y-117669014D01*
X116205000Y-117614209D01*
X116234294Y-117669014D01*
X116419866Y-117895134D01*
X116645986Y-118080706D01*
X116903966Y-118218599D01*
X117183889Y-118303513D01*
X117402050Y-118325000D01*
X117547950Y-118325000D01*
X117766111Y-118303513D01*
X118046034Y-118218599D01*
X118304014Y-118080706D01*
X118530134Y-117895134D01*
X118715706Y-117669014D01*
X118745000Y-117614209D01*
X118774294Y-117669014D01*
X118959866Y-117895134D01*
X119185986Y-118080706D01*
X119443966Y-118218599D01*
X119723889Y-118303513D01*
X119942050Y-118325000D01*
X120087950Y-118325000D01*
X120306111Y-118303513D01*
X120586034Y-118218599D01*
X120844014Y-118080706D01*
X121070134Y-117895134D01*
X121255706Y-117669014D01*
X121285000Y-117614209D01*
X121314294Y-117669014D01*
X121499866Y-117895134D01*
X121725986Y-118080706D01*
X121983966Y-118218599D01*
X122263889Y-118303513D01*
X122482050Y-118325000D01*
X122627950Y-118325000D01*
X122846111Y-118303513D01*
X123126034Y-118218599D01*
X123384014Y-118080706D01*
X123610134Y-117895134D01*
X123634607Y-117865313D01*
X123655498Y-117934180D01*
X123714463Y-118044494D01*
X123793815Y-118141185D01*
X123890506Y-118220537D01*
X124000820Y-118279502D01*
X124120518Y-118315812D01*
X124245000Y-118328072D01*
X124809250Y-118325000D01*
X124968000Y-118166250D01*
X124968000Y-116967000D01*
X125222000Y-116967000D01*
X125222000Y-118166250D01*
X125380750Y-118325000D01*
X125945000Y-118328072D01*
X126069482Y-118315812D01*
X126189180Y-118279502D01*
X126299494Y-118220537D01*
X126396185Y-118141185D01*
X126475537Y-118044494D01*
X126534502Y-117934180D01*
X126570812Y-117814482D01*
X126583072Y-117690000D01*
X126580000Y-117125750D01*
X126421250Y-116967000D01*
X125222000Y-116967000D01*
X124968000Y-116967000D01*
X124948000Y-116967000D01*
X124948000Y-116713000D01*
X124968000Y-116713000D01*
X124968000Y-114427000D01*
X125222000Y-114427000D01*
X125222000Y-116713000D01*
X126421250Y-116713000D01*
X126580000Y-116554250D01*
X126583072Y-115990000D01*
X126570812Y-115865518D01*
X126534502Y-115745820D01*
X126475537Y-115635506D01*
X126396185Y-115538815D01*
X126299494Y-115459463D01*
X126189180Y-115400498D01*
X126113374Y-115377502D01*
X126290178Y-115181355D01*
X126439157Y-114931252D01*
X126536481Y-114656891D01*
X126415814Y-114427000D01*
X125222000Y-114427000D01*
X124968000Y-114427000D01*
X124948000Y-114427000D01*
X124948000Y-114173000D01*
X124968000Y-114173000D01*
X124968000Y-114153000D01*
X125222000Y-114153000D01*
X125222000Y-114173000D01*
X126415814Y-114173000D01*
X126536481Y-113943109D01*
X126439157Y-113668748D01*
X126290178Y-113418645D01*
X126095269Y-113202412D01*
X125861920Y-113028359D01*
X125599099Y-112903175D01*
X125451890Y-112858524D01*
X125222002Y-112979844D01*
X125222002Y-112815000D01*
X125114802Y-112815000D01*
X125264803Y-112664999D01*
X128659151Y-112664999D01*
X128633764Y-112748691D01*
X128606057Y-113030000D01*
X128633764Y-113311309D01*
X128715818Y-113581808D01*
X128849068Y-113831101D01*
X129028392Y-114049608D01*
X129246899Y-114228932D01*
X129496192Y-114362182D01*
X129766691Y-114444236D01*
X129977508Y-114465000D01*
X130118492Y-114465000D01*
X130329309Y-114444236D01*
X130599808Y-114362182D01*
X130849101Y-114228932D01*
X131067608Y-114049608D01*
X131246932Y-113831101D01*
X131380182Y-113581808D01*
X131462236Y-113311309D01*
X131489943Y-113030000D01*
X131462236Y-112748691D01*
X131436849Y-112664999D01*
X131990198Y-112664999D01*
X132666312Y-113341114D01*
X132630000Y-113523665D01*
X132630000Y-113806335D01*
X132685147Y-114083574D01*
X132793320Y-114344727D01*
X132950363Y-114579759D01*
X133150241Y-114779637D01*
X133385273Y-114936680D01*
X133646426Y-115044853D01*
X133923665Y-115100000D01*
X134206335Y-115100000D01*
X134483574Y-115044853D01*
X134744727Y-114936680D01*
X134979759Y-114779637D01*
X135101694Y-114657702D01*
X138251903Y-114657702D01*
X138323486Y-114901671D01*
X138578996Y-115022571D01*
X138853184Y-115091300D01*
X139135512Y-115105217D01*
X139415130Y-115063787D01*
X139681292Y-114968603D01*
X139806514Y-114901671D01*
X139878097Y-114657702D01*
X139065000Y-113844605D01*
X138251903Y-114657702D01*
X135101694Y-114657702D01*
X135179637Y-114579759D01*
X135336680Y-114344727D01*
X135444853Y-114083574D01*
X135500000Y-113806335D01*
X135500000Y-113735512D01*
X137624783Y-113735512D01*
X137666213Y-114015130D01*
X137761397Y-114281292D01*
X137828329Y-114406514D01*
X138072298Y-114478097D01*
X138885395Y-113665000D01*
X138072298Y-112851903D01*
X137828329Y-112923486D01*
X137707429Y-113178996D01*
X137638700Y-113453184D01*
X137624783Y-113735512D01*
X135500000Y-113735512D01*
X135500000Y-113523665D01*
X135444853Y-113246426D01*
X135336680Y-112985273D01*
X135179637Y-112750241D01*
X135101694Y-112672298D01*
X138251903Y-112672298D01*
X139065000Y-113485395D01*
X139878097Y-112672298D01*
X139806514Y-112428329D01*
X139551004Y-112307429D01*
X139276816Y-112238700D01*
X138994488Y-112224783D01*
X138714870Y-112266213D01*
X138448708Y-112361397D01*
X138323486Y-112428329D01*
X138251903Y-112672298D01*
X135101694Y-112672298D01*
X134979759Y-112550363D01*
X134744727Y-112393320D01*
X134483574Y-112285147D01*
X134206335Y-112230000D01*
X133923665Y-112230000D01*
X133741114Y-112266312D01*
X132868803Y-111394001D01*
X132845000Y-111364998D01*
X132729275Y-111270025D01*
X132597246Y-111199453D01*
X132453985Y-111155996D01*
X132342332Y-111144999D01*
X132342321Y-111144999D01*
X132304999Y-111141323D01*
X132267677Y-111144999D01*
X124987324Y-111144999D01*
X124950001Y-111141323D01*
X124912678Y-111144999D01*
X124912668Y-111144999D01*
X124801015Y-111155996D01*
X124657754Y-111199453D01*
X124525724Y-111270025D01*
X124442084Y-111338667D01*
X124410000Y-111364998D01*
X124386202Y-111393996D01*
X122920996Y-112859203D01*
X122846111Y-112836487D01*
X122627950Y-112815000D01*
X122482050Y-112815000D01*
X122263889Y-112836487D01*
X121983966Y-112921401D01*
X121725986Y-113059294D01*
X121499866Y-113244866D01*
X121314294Y-113470986D01*
X121285000Y-113525791D01*
X121255706Y-113470986D01*
X121070134Y-113244866D01*
X120844014Y-113059294D01*
X120586034Y-112921401D01*
X120306111Y-112836487D01*
X120087950Y-112815000D01*
X119942050Y-112815000D01*
X119723889Y-112836487D01*
X119443966Y-112921401D01*
X119185986Y-113059294D01*
X118959866Y-113244866D01*
X118774294Y-113470986D01*
X118745000Y-113525791D01*
X118715706Y-113470986D01*
X118530134Y-113244866D01*
X118304014Y-113059294D01*
X118046034Y-112921401D01*
X117766111Y-112836487D01*
X117547950Y-112815000D01*
X117402050Y-112815000D01*
X117183889Y-112836487D01*
X116903966Y-112921401D01*
X116645986Y-113059294D01*
X116419866Y-113244866D01*
X116234294Y-113470986D01*
X116205000Y-113525791D01*
X116175706Y-113470986D01*
X115990134Y-113244866D01*
X115764014Y-113059294D01*
X115506034Y-112921401D01*
X115226111Y-112836487D01*
X115007950Y-112815000D01*
X114862050Y-112815000D01*
X114643889Y-112836487D01*
X114363966Y-112921401D01*
X114105986Y-113059294D01*
X113879866Y-113244866D01*
X113694294Y-113470986D01*
X113556401Y-113728966D01*
X113471487Y-114008889D01*
X113442815Y-114300000D01*
X112662575Y-114300000D01*
X112740132Y-104140000D01*
X113493057Y-104140000D01*
X113520764Y-104421309D01*
X113602818Y-104691808D01*
X113736068Y-104941101D01*
X113915392Y-105159608D01*
X114133899Y-105338932D01*
X114383192Y-105472182D01*
X114653691Y-105554236D01*
X114864508Y-105575000D01*
X115005492Y-105575000D01*
X115216309Y-105554236D01*
X115486808Y-105472182D01*
X115736101Y-105338932D01*
X115954608Y-105159608D01*
X116133932Y-104941101D01*
X116267182Y-104691808D01*
X116349236Y-104421309D01*
X116376943Y-104140000D01*
X116349236Y-103858691D01*
X116267182Y-103588192D01*
X116133932Y-103338899D01*
X115954608Y-103120392D01*
X115736101Y-102941068D01*
X115486808Y-102807818D01*
X115216309Y-102725764D01*
X115005492Y-102705000D01*
X114864508Y-102705000D01*
X114653691Y-102725764D01*
X114383192Y-102807818D01*
X114133899Y-102941068D01*
X113915392Y-103120392D01*
X113736068Y-103338899D01*
X113602818Y-103588192D01*
X113520764Y-103858691D01*
X113493057Y-104140000D01*
X112740132Y-104140000D01*
X112764368Y-100965000D01*
X116668057Y-100965000D01*
X116695764Y-101246309D01*
X116777818Y-101516808D01*
X116911068Y-101766101D01*
X117090392Y-101984608D01*
X117308899Y-102163932D01*
X117558192Y-102297182D01*
X117828691Y-102379236D01*
X118039508Y-102400000D01*
X118180492Y-102400000D01*
X118391309Y-102379236D01*
X118661808Y-102297182D01*
X118911101Y-102163932D01*
X119129608Y-101984608D01*
X119308932Y-101766101D01*
X119442182Y-101516808D01*
X119524236Y-101246309D01*
X119551943Y-100965000D01*
X119524236Y-100683691D01*
X119442182Y-100413192D01*
X119308932Y-100163899D01*
X119129608Y-99945392D01*
X118911101Y-99766068D01*
X118661808Y-99632818D01*
X118391309Y-99550764D01*
X118180492Y-99530000D01*
X118039508Y-99530000D01*
X117828691Y-99550764D01*
X117558192Y-99632818D01*
X117308899Y-99766068D01*
X117090392Y-99945392D01*
X116911068Y-100163899D01*
X116777818Y-100413192D01*
X116695764Y-100683691D01*
X116668057Y-100965000D01*
X112764368Y-100965000D01*
X112783757Y-98425000D01*
X119843057Y-98425000D01*
X119870764Y-98706309D01*
X119952818Y-98976808D01*
X120086068Y-99226101D01*
X120265392Y-99444608D01*
X120483899Y-99623932D01*
X120733192Y-99757182D01*
X121003691Y-99839236D01*
X121214508Y-99860000D01*
X121355492Y-99860000D01*
X121566309Y-99839236D01*
X121836808Y-99757182D01*
X122086101Y-99623932D01*
X122304608Y-99444608D01*
X122483932Y-99226101D01*
X122617182Y-98976808D01*
X122699236Y-98706309D01*
X122726943Y-98425000D01*
X122699236Y-98143691D01*
X122617182Y-97873192D01*
X122484521Y-97625000D01*
X127466928Y-97625000D01*
X127466928Y-99225000D01*
X127479188Y-99349482D01*
X127515498Y-99469180D01*
X127574463Y-99579494D01*
X127653815Y-99676185D01*
X127750506Y-99755537D01*
X127860820Y-99814502D01*
X127980518Y-99850812D01*
X128105000Y-99863072D01*
X129705000Y-99863072D01*
X129829482Y-99850812D01*
X129949180Y-99814502D01*
X130059494Y-99755537D01*
X130156185Y-99676185D01*
X130175000Y-99653259D01*
X130193815Y-99676185D01*
X130290506Y-99755537D01*
X130400820Y-99814502D01*
X130520518Y-99850812D01*
X130645000Y-99863072D01*
X132245000Y-99863072D01*
X132369482Y-99850812D01*
X132489180Y-99814502D01*
X132599494Y-99755537D01*
X132696185Y-99676185D01*
X132775537Y-99579494D01*
X132834502Y-99469180D01*
X132870812Y-99349482D01*
X132883072Y-99225000D01*
X132883072Y-97625000D01*
X132870812Y-97500518D01*
X132834502Y-97380820D01*
X132775537Y-97270506D01*
X132696185Y-97173815D01*
X132599494Y-97094463D01*
X132489180Y-97035498D01*
X132369482Y-96999188D01*
X132245000Y-96986928D01*
X130645000Y-96986928D01*
X130520518Y-96999188D01*
X130400820Y-97035498D01*
X130290506Y-97094463D01*
X130193815Y-97173815D01*
X130175000Y-97196741D01*
X130156185Y-97173815D01*
X130059494Y-97094463D01*
X129949180Y-97035498D01*
X129829482Y-96999188D01*
X129705000Y-96986928D01*
X128105000Y-96986928D01*
X127980518Y-96999188D01*
X127860820Y-97035498D01*
X127750506Y-97094463D01*
X127653815Y-97173815D01*
X127574463Y-97270506D01*
X127515498Y-97380820D01*
X127479188Y-97500518D01*
X127466928Y-97625000D01*
X122484521Y-97625000D01*
X122483932Y-97623899D01*
X122304608Y-97405392D01*
X122086101Y-97226068D01*
X121836808Y-97092818D01*
X121566309Y-97010764D01*
X121355492Y-96990000D01*
X121214508Y-96990000D01*
X121003691Y-97010764D01*
X120733192Y-97092818D01*
X120483899Y-97226068D01*
X120265392Y-97405392D01*
X120086068Y-97623899D01*
X119952818Y-97873192D01*
X119870764Y-98143691D01*
X119843057Y-98425000D01*
X112783757Y-98425000D01*
X112842704Y-90703061D01*
X113900000Y-90703061D01*
X113900000Y-90906939D01*
X113939774Y-91106898D01*
X114017795Y-91295256D01*
X114131063Y-91464774D01*
X114275226Y-91608937D01*
X114444744Y-91722205D01*
X114633102Y-91800226D01*
X114833061Y-91840000D01*
X115036939Y-91840000D01*
X115236898Y-91800226D01*
X115425256Y-91722205D01*
X115594774Y-91608937D01*
X115638711Y-91565000D01*
X117780604Y-91565000D01*
X117630363Y-91715241D01*
X117473320Y-91950273D01*
X117365147Y-92211426D01*
X117310000Y-92488665D01*
X117310000Y-92771335D01*
X117365147Y-93048574D01*
X117473320Y-93309727D01*
X117630363Y-93544759D01*
X117830241Y-93744637D01*
X118065273Y-93901680D01*
X118326426Y-94009853D01*
X118603665Y-94065000D01*
X118852183Y-94065000D01*
X118839999Y-94074999D01*
X118816201Y-94103997D01*
X118433886Y-94486312D01*
X118251335Y-94450000D01*
X117968665Y-94450000D01*
X117691426Y-94505147D01*
X117430273Y-94613320D01*
X117195241Y-94770363D01*
X116995363Y-94970241D01*
X116838320Y-95205273D01*
X116730147Y-95466426D01*
X116675000Y-95743665D01*
X116675000Y-96026335D01*
X116730147Y-96303574D01*
X116838320Y-96564727D01*
X116995363Y-96799759D01*
X117195241Y-96999637D01*
X117430273Y-97156680D01*
X117691426Y-97264853D01*
X117968665Y-97320000D01*
X118251335Y-97320000D01*
X118528574Y-97264853D01*
X118789727Y-97156680D01*
X119024759Y-96999637D01*
X119224637Y-96799759D01*
X119381680Y-96564727D01*
X119489853Y-96303574D01*
X119545000Y-96026335D01*
X119545000Y-95743665D01*
X119508688Y-95561114D01*
X119694802Y-95375000D01*
X121334099Y-95375000D01*
X121356068Y-95416101D01*
X121535392Y-95634608D01*
X121753899Y-95813932D01*
X122003192Y-95947182D01*
X122273691Y-96029236D01*
X122484508Y-96050000D01*
X122625492Y-96050000D01*
X122836309Y-96029236D01*
X123106808Y-95947182D01*
X123356101Y-95813932D01*
X123574608Y-95634608D01*
X123753932Y-95416101D01*
X123887182Y-95166808D01*
X123969236Y-94896309D01*
X123996943Y-94615000D01*
X123969236Y-94333691D01*
X123887182Y-94063192D01*
X123753932Y-93813899D01*
X123574608Y-93595392D01*
X123356101Y-93416068D01*
X123223142Y-93345000D01*
X123356101Y-93273932D01*
X123574608Y-93094608D01*
X123753932Y-92876101D01*
X123887182Y-92626808D01*
X123969236Y-92356309D01*
X123996943Y-92075000D01*
X123969236Y-91793691D01*
X123887182Y-91523192D01*
X123753932Y-91273899D01*
X123664670Y-91165133D01*
X127074804Y-87755000D01*
X128954099Y-87755000D01*
X128976068Y-87796101D01*
X129155392Y-88014608D01*
X129373899Y-88193932D01*
X129506858Y-88265000D01*
X129373899Y-88336068D01*
X129155392Y-88515392D01*
X128976068Y-88733899D01*
X128842818Y-88983192D01*
X128760764Y-89253691D01*
X128733057Y-89535000D01*
X128760764Y-89816309D01*
X128842818Y-90086808D01*
X128976068Y-90336101D01*
X129155392Y-90554608D01*
X129373899Y-90733932D01*
X129506858Y-90805000D01*
X129373899Y-90876068D01*
X129155392Y-91055392D01*
X128976068Y-91273899D01*
X128842818Y-91523192D01*
X128760764Y-91793691D01*
X128733057Y-92075000D01*
X128760764Y-92356309D01*
X128842818Y-92626808D01*
X128976068Y-92876101D01*
X129155392Y-93094608D01*
X129373899Y-93273932D01*
X129506858Y-93345000D01*
X129373899Y-93416068D01*
X129155392Y-93595392D01*
X128976068Y-93813899D01*
X128842818Y-94063192D01*
X128760764Y-94333691D01*
X128733057Y-94615000D01*
X128760764Y-94896309D01*
X128842818Y-95166808D01*
X128976068Y-95416101D01*
X129155392Y-95634608D01*
X129373899Y-95813932D01*
X129623192Y-95947182D01*
X129893691Y-96029236D01*
X130104508Y-96050000D01*
X130245492Y-96050000D01*
X130456309Y-96029236D01*
X130726808Y-95947182D01*
X130976101Y-95813932D01*
X131194608Y-95634608D01*
X131373932Y-95416101D01*
X131507182Y-95166808D01*
X131589236Y-94896309D01*
X131616943Y-94615000D01*
X131589236Y-94333691D01*
X131575708Y-94289094D01*
X131614803Y-94249999D01*
X131959491Y-94249999D01*
X131915000Y-94473665D01*
X131915000Y-94756335D01*
X131970147Y-95033574D01*
X132078320Y-95294727D01*
X132235363Y-95529759D01*
X132435241Y-95729637D01*
X132670273Y-95886680D01*
X132931426Y-95994853D01*
X133208665Y-96050000D01*
X133491335Y-96050000D01*
X133768574Y-95994853D01*
X134029727Y-95886680D01*
X134264759Y-95729637D01*
X134464637Y-95529759D01*
X134621680Y-95294727D01*
X134729853Y-95033574D01*
X134785000Y-94756335D01*
X134785000Y-94473665D01*
X134729853Y-94196426D01*
X134621680Y-93935273D01*
X134464637Y-93700241D01*
X134449599Y-93685203D01*
X135766009Y-92368794D01*
X135795001Y-92345001D01*
X135818795Y-92316008D01*
X135818799Y-92316004D01*
X135889973Y-92229277D01*
X135889974Y-92229276D01*
X135960546Y-92097247D01*
X135974549Y-92051086D01*
X136078941Y-92106885D01*
X136297601Y-92173215D01*
X136525000Y-92195612D01*
X136752400Y-92173215D01*
X136971060Y-92106885D01*
X137172579Y-91999171D01*
X137349212Y-91854212D01*
X137494171Y-91677579D01*
X137583238Y-91510945D01*
X137590001Y-91517708D01*
X137590000Y-93396956D01*
X137435241Y-93500363D01*
X137235363Y-93700241D01*
X137078320Y-93935273D01*
X136970147Y-94196426D01*
X136915000Y-94473665D01*
X136915000Y-94756335D01*
X136970147Y-95033574D01*
X137078320Y-95294727D01*
X137235363Y-95529759D01*
X137435241Y-95729637D01*
X137670273Y-95886680D01*
X137931426Y-95994853D01*
X138208665Y-96050000D01*
X138491335Y-96050000D01*
X138768574Y-95994853D01*
X139029727Y-95886680D01*
X139264759Y-95729637D01*
X139464637Y-95529759D01*
X139621680Y-95294727D01*
X139729853Y-95033574D01*
X139785000Y-94756335D01*
X139785000Y-94473665D01*
X139729853Y-94196426D01*
X139621680Y-93935273D01*
X139464637Y-93700241D01*
X139264759Y-93500363D01*
X139110000Y-93396957D01*
X139110000Y-91240227D01*
X139113676Y-91202904D01*
X139110000Y-91165581D01*
X139110000Y-91165572D01*
X139099003Y-91053919D01*
X139055546Y-90910658D01*
X138984974Y-90778629D01*
X138890001Y-90662904D01*
X138861003Y-90639106D01*
X137440889Y-89218993D01*
X137417086Y-89189989D01*
X137301361Y-89095016D01*
X137169332Y-89024444D01*
X137026071Y-88980987D01*
X136914418Y-88969990D01*
X136914407Y-88969990D01*
X136877085Y-88966314D01*
X136839763Y-88969990D01*
X134872335Y-88969990D01*
X134835010Y-88966314D01*
X134797685Y-88969990D01*
X134797677Y-88969990D01*
X134686024Y-88980987D01*
X134542763Y-89024444D01*
X134410734Y-89095016D01*
X134295009Y-89189989D01*
X134271211Y-89218987D01*
X134073270Y-89416928D01*
X133460000Y-89416928D01*
X133335518Y-89429188D01*
X133215820Y-89465498D01*
X133105506Y-89524463D01*
X133008815Y-89603815D01*
X132929463Y-89700506D01*
X132870498Y-89810820D01*
X132834188Y-89930518D01*
X132821928Y-90055000D01*
X132821928Y-91555000D01*
X132834188Y-91679482D01*
X132870498Y-91799180D01*
X132929463Y-91909494D01*
X133008815Y-92006185D01*
X133105506Y-92085537D01*
X133215820Y-92144502D01*
X133335518Y-92180812D01*
X133460000Y-92193072D01*
X133792126Y-92193072D01*
X133255200Y-92729999D01*
X131452025Y-92729999D01*
X131507182Y-92626808D01*
X131589236Y-92356309D01*
X131616943Y-92075000D01*
X131589236Y-91793691D01*
X131507182Y-91523192D01*
X131373932Y-91273899D01*
X131194608Y-91055392D01*
X130976101Y-90876068D01*
X130843142Y-90805000D01*
X130976101Y-90733932D01*
X131194608Y-90554608D01*
X131373932Y-90336101D01*
X131507182Y-90086808D01*
X131589236Y-89816309D01*
X131616943Y-89535000D01*
X131589236Y-89253691D01*
X131507182Y-88983192D01*
X131373932Y-88733899D01*
X131194608Y-88515392D01*
X130976101Y-88336068D01*
X130843142Y-88265000D01*
X130976101Y-88193932D01*
X131194608Y-88014608D01*
X131373932Y-87796101D01*
X131395901Y-87755000D01*
X132677678Y-87755000D01*
X132715000Y-87758676D01*
X132752322Y-87755000D01*
X132752333Y-87755000D01*
X132863986Y-87744003D01*
X132908700Y-87730439D01*
X132931426Y-87739853D01*
X133208665Y-87795000D01*
X133491335Y-87795000D01*
X133768574Y-87739853D01*
X134029727Y-87631680D01*
X134264759Y-87474637D01*
X134464637Y-87274759D01*
X134621680Y-87039727D01*
X134729853Y-86778574D01*
X134785000Y-86501335D01*
X134785000Y-86218665D01*
X134729853Y-85941426D01*
X134621680Y-85680273D01*
X134464637Y-85445241D01*
X134264759Y-85245363D01*
X134029727Y-85088320D01*
X133768574Y-84980147D01*
X133491335Y-84925000D01*
X133208665Y-84925000D01*
X132931426Y-84980147D01*
X132670273Y-85088320D01*
X132435241Y-85245363D01*
X132235363Y-85445241D01*
X132078320Y-85680273D01*
X131970147Y-85941426D01*
X131915000Y-86218665D01*
X131915000Y-86235000D01*
X131395901Y-86235000D01*
X131373932Y-86193899D01*
X131194608Y-85975392D01*
X130976101Y-85796068D01*
X130843142Y-85725000D01*
X130976101Y-85653932D01*
X131194608Y-85474608D01*
X131373932Y-85256101D01*
X131507182Y-85006808D01*
X131589236Y-84736309D01*
X131616943Y-84455000D01*
X131613003Y-84415001D01*
X133505200Y-84415001D01*
X135124292Y-86034094D01*
X135110764Y-86078691D01*
X135083057Y-86360000D01*
X135110764Y-86641309D01*
X135192818Y-86911808D01*
X135326068Y-87161101D01*
X135505392Y-87379608D01*
X135723899Y-87558932D01*
X135973192Y-87692182D01*
X136243691Y-87774236D01*
X136454508Y-87795000D01*
X136595492Y-87795000D01*
X136806309Y-87774236D01*
X137076808Y-87692182D01*
X137326101Y-87558932D01*
X137544608Y-87379608D01*
X137723932Y-87161101D01*
X137857182Y-86911808D01*
X137939236Y-86641309D01*
X137966943Y-86360000D01*
X137939236Y-86078691D01*
X137857182Y-85808192D01*
X137723932Y-85558899D01*
X137544608Y-85340392D01*
X137326101Y-85161068D01*
X137076808Y-85027818D01*
X136806309Y-84945764D01*
X136595492Y-84925000D01*
X136454508Y-84925000D01*
X136243691Y-84945764D01*
X136199094Y-84959292D01*
X134383805Y-83144004D01*
X134360002Y-83115000D01*
X134244277Y-83020027D01*
X134112248Y-82949455D01*
X133968987Y-82905998D01*
X133857334Y-82895001D01*
X133857323Y-82895001D01*
X133820001Y-82891325D01*
X133782679Y-82895001D01*
X131227113Y-82895001D01*
X131373932Y-82716101D01*
X131507182Y-82466808D01*
X131589236Y-82196309D01*
X131616943Y-81915000D01*
X131589236Y-81633691D01*
X131507182Y-81363192D01*
X131373932Y-81113899D01*
X131194608Y-80895392D01*
X130976101Y-80716068D01*
X130843142Y-80645000D01*
X130976101Y-80573932D01*
X131194608Y-80394608D01*
X131373932Y-80176101D01*
X131507182Y-79926808D01*
X131589236Y-79656309D01*
X131616943Y-79375000D01*
X131589236Y-79093691D01*
X131507182Y-78823192D01*
X131373932Y-78573899D01*
X131194608Y-78355392D01*
X130976101Y-78176068D01*
X130726808Y-78042818D01*
X130456309Y-77960764D01*
X130245492Y-77940000D01*
X130104508Y-77940000D01*
X129893691Y-77960764D01*
X129623192Y-78042818D01*
X129373899Y-78176068D01*
X129155392Y-78355392D01*
X128976068Y-78573899D01*
X128842818Y-78823192D01*
X128760764Y-79093691D01*
X128733057Y-79375000D01*
X128760764Y-79656309D01*
X128842818Y-79926808D01*
X128976068Y-80176101D01*
X129155392Y-80394608D01*
X129373899Y-80573932D01*
X129506858Y-80645000D01*
X129373899Y-80716068D01*
X129155392Y-80895392D01*
X128976068Y-81113899D01*
X128842818Y-81363192D01*
X128760764Y-81633691D01*
X128733057Y-81915000D01*
X128760764Y-82196309D01*
X128842818Y-82466808D01*
X128976068Y-82716101D01*
X129155392Y-82934608D01*
X129373899Y-83113932D01*
X129506858Y-83185000D01*
X129373899Y-83256068D01*
X129155392Y-83435392D01*
X128976068Y-83653899D01*
X128842818Y-83903192D01*
X128760764Y-84173691D01*
X128733057Y-84455000D01*
X128760764Y-84736309D01*
X128842818Y-85006808D01*
X128976068Y-85256101D01*
X129155392Y-85474608D01*
X129373899Y-85653932D01*
X129506858Y-85725000D01*
X129373899Y-85796068D01*
X129155392Y-85975392D01*
X128976068Y-86193899D01*
X128954099Y-86235000D01*
X126797327Y-86235000D01*
X126760002Y-86231324D01*
X126722677Y-86235000D01*
X126722669Y-86235000D01*
X126611016Y-86245997D01*
X126467755Y-86289454D01*
X126335726Y-86360026D01*
X126220001Y-86454999D01*
X126196203Y-86483997D01*
X123820940Y-88859261D01*
X123753932Y-88733899D01*
X123574608Y-88515392D01*
X123356101Y-88336068D01*
X123218318Y-88262421D01*
X123410131Y-88147385D01*
X123618519Y-87958414D01*
X123786037Y-87732420D01*
X123906246Y-87478087D01*
X123946904Y-87344039D01*
X123824915Y-87122000D01*
X122682000Y-87122000D01*
X122682000Y-87142000D01*
X122428000Y-87142000D01*
X122428000Y-87122000D01*
X121285085Y-87122000D01*
X121163096Y-87344039D01*
X121203754Y-87478087D01*
X121323963Y-87732420D01*
X121491481Y-87958414D01*
X121699869Y-88147385D01*
X121891682Y-88262421D01*
X121753899Y-88336068D01*
X121535392Y-88515392D01*
X121356068Y-88733899D01*
X121334099Y-88775000D01*
X119513411Y-88775000D01*
X119558097Y-88622702D01*
X118745000Y-87809605D01*
X118730858Y-87823748D01*
X118551253Y-87644143D01*
X118565395Y-87630000D01*
X118924605Y-87630000D01*
X119737702Y-88443097D01*
X119981671Y-88371514D01*
X120102571Y-88116004D01*
X120171300Y-87841816D01*
X120185217Y-87559488D01*
X120143787Y-87279870D01*
X120048603Y-87013708D01*
X119981671Y-86888486D01*
X119737702Y-86816903D01*
X118924605Y-87630000D01*
X118565395Y-87630000D01*
X118551253Y-87615858D01*
X118730858Y-87436253D01*
X118745000Y-87450395D01*
X119558097Y-86637298D01*
X119486514Y-86393329D01*
X119414520Y-86359264D01*
X119546101Y-86288932D01*
X119764608Y-86109608D01*
X119943932Y-85891101D01*
X120077182Y-85641808D01*
X120159236Y-85371309D01*
X120186943Y-85090000D01*
X120159236Y-84808691D01*
X120077182Y-84538192D01*
X119943932Y-84288899D01*
X119764608Y-84070392D01*
X119546101Y-83891068D01*
X119296808Y-83757818D01*
X119026309Y-83675764D01*
X118815492Y-83655000D01*
X118674508Y-83655000D01*
X118463691Y-83675764D01*
X118193192Y-83757818D01*
X117943899Y-83891068D01*
X117725392Y-84070392D01*
X117546068Y-84288899D01*
X117524099Y-84330000D01*
X116788043Y-84330000D01*
X116684637Y-84175241D01*
X116484759Y-83975363D01*
X116249727Y-83818320D01*
X115988574Y-83710147D01*
X115711335Y-83655000D01*
X115428665Y-83655000D01*
X115151426Y-83710147D01*
X114890273Y-83818320D01*
X114655241Y-83975363D01*
X114455363Y-84175241D01*
X114298320Y-84410273D01*
X114190147Y-84671426D01*
X114135000Y-84948665D01*
X114135000Y-85231335D01*
X114190147Y-85508574D01*
X114298320Y-85769727D01*
X114455363Y-86004759D01*
X114655241Y-86204637D01*
X114890273Y-86361680D01*
X115151426Y-86469853D01*
X115428665Y-86525000D01*
X115711335Y-86525000D01*
X115988574Y-86469853D01*
X116249727Y-86361680D01*
X116484759Y-86204637D01*
X116684637Y-86004759D01*
X116788043Y-85850000D01*
X116953342Y-85850000D01*
X116914453Y-85922755D01*
X116870996Y-86066016D01*
X116859999Y-86177669D01*
X116859999Y-86177679D01*
X116856323Y-86215001D01*
X116859999Y-86252324D01*
X116860000Y-88132669D01*
X116856323Y-88170001D01*
X116860000Y-88207334D01*
X116870997Y-88318987D01*
X116884179Y-88362443D01*
X116914453Y-88462247D01*
X116985025Y-88594277D01*
X117056200Y-88681003D01*
X117079999Y-88710002D01*
X117108997Y-88733800D01*
X118420196Y-90045000D01*
X115638711Y-90045000D01*
X115594774Y-90001063D01*
X115425256Y-89887795D01*
X115236898Y-89809774D01*
X115036939Y-89770000D01*
X114833061Y-89770000D01*
X114633102Y-89809774D01*
X114444744Y-89887795D01*
X114275226Y-90001063D01*
X114131063Y-90145226D01*
X114017795Y-90314744D01*
X113939774Y-90503102D01*
X113900000Y-90703061D01*
X112842704Y-90703061D01*
X112924799Y-79948665D01*
X114135000Y-79948665D01*
X114135000Y-80231335D01*
X114190147Y-80508574D01*
X114298320Y-80769727D01*
X114455363Y-81004759D01*
X114655241Y-81204637D01*
X114890273Y-81361680D01*
X115151426Y-81469853D01*
X115428665Y-81525000D01*
X115711335Y-81525000D01*
X115988574Y-81469853D01*
X116249727Y-81361680D01*
X116484759Y-81204637D01*
X116684637Y-81004759D01*
X116841680Y-80769727D01*
X116949853Y-80508574D01*
X117005000Y-80231335D01*
X117005000Y-79948665D01*
X116949853Y-79671426D01*
X116841680Y-79410273D01*
X116684637Y-79175241D01*
X116484759Y-78975363D01*
X116249727Y-78818320D01*
X115988574Y-78710147D01*
X115711335Y-78655000D01*
X115428665Y-78655000D01*
X115151426Y-78710147D01*
X114890273Y-78818320D01*
X114655241Y-78975363D01*
X114455363Y-79175241D01*
X114298320Y-79410273D01*
X114190147Y-79671426D01*
X114135000Y-79948665D01*
X112924799Y-79948665D01*
X112949827Y-76670000D01*
X117306928Y-76670000D01*
X117306928Y-78270000D01*
X117319188Y-78394482D01*
X117355498Y-78514180D01*
X117414463Y-78624494D01*
X117493815Y-78721185D01*
X117590506Y-78800537D01*
X117700820Y-78859502D01*
X117820518Y-78895812D01*
X117945000Y-78908072D01*
X119545000Y-78908072D01*
X119669482Y-78895812D01*
X119789180Y-78859502D01*
X119899494Y-78800537D01*
X119996185Y-78721185D01*
X120075537Y-78624494D01*
X120134502Y-78514180D01*
X120170812Y-78394482D01*
X120183072Y-78270000D01*
X120183072Y-78230000D01*
X121219388Y-78230000D01*
X121165498Y-78330820D01*
X121129188Y-78450518D01*
X121116928Y-78575000D01*
X121116928Y-80175000D01*
X121129188Y-80299482D01*
X121165498Y-80419180D01*
X121224463Y-80529494D01*
X121303815Y-80626185D01*
X121400506Y-80705537D01*
X121510820Y-80764502D01*
X121630518Y-80800812D01*
X121648482Y-80802581D01*
X121535392Y-80895392D01*
X121356068Y-81113899D01*
X121222818Y-81363192D01*
X121140764Y-81633691D01*
X121113057Y-81915000D01*
X121140764Y-82196309D01*
X121222818Y-82466808D01*
X121356068Y-82716101D01*
X121535392Y-82934608D01*
X121753899Y-83113932D01*
X121886858Y-83185000D01*
X121753899Y-83256068D01*
X121535392Y-83435392D01*
X121356068Y-83653899D01*
X121222818Y-83903192D01*
X121140764Y-84173691D01*
X121113057Y-84455000D01*
X121140764Y-84736309D01*
X121222818Y-85006808D01*
X121356068Y-85256101D01*
X121535392Y-85474608D01*
X121753899Y-85653932D01*
X121891682Y-85727579D01*
X121699869Y-85842615D01*
X121491481Y-86031586D01*
X121323963Y-86257580D01*
X121203754Y-86511913D01*
X121163096Y-86645961D01*
X121285085Y-86868000D01*
X122428000Y-86868000D01*
X122428000Y-86848000D01*
X122682000Y-86848000D01*
X122682000Y-86868000D01*
X123824915Y-86868000D01*
X123946904Y-86645961D01*
X123906246Y-86511913D01*
X123786037Y-86257580D01*
X123618519Y-86031586D01*
X123410131Y-85842615D01*
X123218318Y-85727579D01*
X123356101Y-85653932D01*
X123574608Y-85474608D01*
X123753932Y-85256101D01*
X123887182Y-85006808D01*
X123969236Y-84736309D01*
X123996943Y-84455000D01*
X123969236Y-84173691D01*
X123887182Y-83903192D01*
X123753932Y-83653899D01*
X123574608Y-83435392D01*
X123356101Y-83256068D01*
X123223142Y-83185000D01*
X123356101Y-83113932D01*
X123574608Y-82934608D01*
X123753932Y-82716101D01*
X123887182Y-82466808D01*
X123969236Y-82196309D01*
X123996943Y-81915000D01*
X123969236Y-81633691D01*
X123887182Y-81363192D01*
X123753932Y-81113899D01*
X123574608Y-80895392D01*
X123461518Y-80802581D01*
X123479482Y-80800812D01*
X123599180Y-80764502D01*
X123709494Y-80705537D01*
X123806185Y-80626185D01*
X123885537Y-80529494D01*
X123944502Y-80419180D01*
X123980812Y-80299482D01*
X123993072Y-80175000D01*
X123993072Y-78575000D01*
X123980812Y-78450518D01*
X123944502Y-78330820D01*
X123885537Y-78220506D01*
X123806185Y-78123815D01*
X123709494Y-78044463D01*
X123599180Y-77985498D01*
X123479482Y-77949188D01*
X123355000Y-77936928D01*
X123209326Y-77936928D01*
X123189974Y-77900724D01*
X123118799Y-77813997D01*
X123095001Y-77784999D01*
X123066004Y-77761202D01*
X122263803Y-76959002D01*
X122240001Y-76929999D01*
X122124276Y-76835026D01*
X121992247Y-76764454D01*
X121848986Y-76720997D01*
X121737333Y-76710000D01*
X121737322Y-76710000D01*
X121700000Y-76706324D01*
X121662678Y-76710000D01*
X120183072Y-76710000D01*
X120183072Y-76670000D01*
X120170812Y-76545518D01*
X120134502Y-76425820D01*
X120075537Y-76315506D01*
X119996185Y-76218815D01*
X119899494Y-76139463D01*
X119789180Y-76080498D01*
X119669482Y-76044188D01*
X119545000Y-76031928D01*
X117945000Y-76031928D01*
X117820518Y-76044188D01*
X117700820Y-76080498D01*
X117590506Y-76139463D01*
X117493815Y-76218815D01*
X117414463Y-76315506D01*
X117355498Y-76425820D01*
X117319188Y-76545518D01*
X117306928Y-76670000D01*
X112949827Y-76670000D01*
X112993038Y-71009491D01*
X113260285Y-71276738D01*
X113691859Y-71565107D01*
X114171399Y-71763739D01*
X114680475Y-71865000D01*
X115199525Y-71865000D01*
X115708601Y-71763739D01*
X116188141Y-71565107D01*
X116619715Y-71276738D01*
X116986738Y-70909715D01*
X117275107Y-70478141D01*
X117473739Y-69998601D01*
X117575000Y-69489525D01*
X117575000Y-68970475D01*
X121105000Y-68970475D01*
X121105000Y-69489525D01*
X121206261Y-69998601D01*
X121404893Y-70478141D01*
X121693262Y-70909715D01*
X122060285Y-71276738D01*
X122491859Y-71565107D01*
X122971399Y-71763739D01*
X123480475Y-71865000D01*
X123999525Y-71865000D01*
X124508601Y-71763739D01*
X124988141Y-71565107D01*
X125419715Y-71276738D01*
X125786738Y-70909715D01*
X126075107Y-70478141D01*
X126273739Y-69998601D01*
X126325000Y-69740893D01*
X126376261Y-69998601D01*
X126574893Y-70478141D01*
X126863262Y-70909715D01*
X127230285Y-71276738D01*
X127661859Y-71565107D01*
X128141399Y-71763739D01*
X128650475Y-71865000D01*
X129169525Y-71865000D01*
X129678601Y-71763739D01*
X130158141Y-71565107D01*
X130589715Y-71276738D01*
X130956738Y-70909715D01*
X131245107Y-70478141D01*
X131443739Y-69998601D01*
X131545000Y-69489525D01*
X131545000Y-68970475D01*
X131443739Y-68461399D01*
X131245107Y-67981859D01*
X130956738Y-67550285D01*
X130589715Y-67183262D01*
X130158141Y-66894893D01*
X129678601Y-66696261D01*
X129169525Y-66595000D01*
X128650475Y-66595000D01*
X128141399Y-66696261D01*
X127661859Y-66894893D01*
X127230285Y-67183262D01*
X126863262Y-67550285D01*
X126574893Y-67981859D01*
X126376261Y-68461399D01*
X126325000Y-68719107D01*
X126273739Y-68461399D01*
X126075107Y-67981859D01*
X125786738Y-67550285D01*
X125419715Y-67183262D01*
X124988141Y-66894893D01*
X124508601Y-66696261D01*
X123999525Y-66595000D01*
X123480475Y-66595000D01*
X122971399Y-66696261D01*
X122491859Y-66894893D01*
X122060285Y-67183262D01*
X121693262Y-67550285D01*
X121404893Y-67981859D01*
X121206261Y-68461399D01*
X121105000Y-68970475D01*
X117575000Y-68970475D01*
X117473739Y-68461399D01*
X117275107Y-67981859D01*
X116986738Y-67550285D01*
X116619715Y-67183262D01*
X116188141Y-66894893D01*
X115708601Y-66696261D01*
X115199525Y-66595000D01*
X114680475Y-66595000D01*
X114171399Y-66696261D01*
X113691859Y-66894893D01*
X113260285Y-67183262D01*
X113020415Y-67423132D01*
X113061211Y-62078816D01*
X115305000Y-62078816D01*
X115305000Y-62381184D01*
X115363989Y-62677743D01*
X115479701Y-62957095D01*
X115647688Y-63208505D01*
X115861495Y-63422312D01*
X116112905Y-63590299D01*
X116392257Y-63706011D01*
X116688816Y-63765000D01*
X116991184Y-63765000D01*
X117287743Y-63706011D01*
X117567095Y-63590299D01*
X117818505Y-63422312D01*
X118032312Y-63208505D01*
X118090000Y-63122169D01*
X118147688Y-63208505D01*
X118361495Y-63422312D01*
X118612905Y-63590299D01*
X118892257Y-63706011D01*
X119188816Y-63765000D01*
X119491184Y-63765000D01*
X119787743Y-63706011D01*
X120067095Y-63590299D01*
X120318505Y-63422312D01*
X120532312Y-63208505D01*
X120590000Y-63122169D01*
X120647688Y-63208505D01*
X120861495Y-63422312D01*
X121112905Y-63590299D01*
X121392257Y-63706011D01*
X121688816Y-63765000D01*
X121991184Y-63765000D01*
X122287743Y-63706011D01*
X122567095Y-63590299D01*
X122818505Y-63422312D01*
X123032312Y-63208505D01*
X123200299Y-62957095D01*
X123316011Y-62677743D01*
X123375000Y-62381184D01*
X123375000Y-62078816D01*
X129275000Y-62078816D01*
X129275000Y-62381184D01*
X129333989Y-62677743D01*
X129449701Y-62957095D01*
X129617688Y-63208505D01*
X129831495Y-63422312D01*
X130082905Y-63590299D01*
X130362257Y-63706011D01*
X130658816Y-63765000D01*
X130961184Y-63765000D01*
X131257743Y-63706011D01*
X131537095Y-63590299D01*
X131788505Y-63422312D01*
X132002312Y-63208505D01*
X132060000Y-63122169D01*
X132117688Y-63208505D01*
X132331495Y-63422312D01*
X132582905Y-63590299D01*
X132862257Y-63706011D01*
X133158816Y-63765000D01*
X133461184Y-63765000D01*
X133757743Y-63706011D01*
X134037095Y-63590299D01*
X134288505Y-63422312D01*
X134502312Y-63208505D01*
X134560000Y-63122169D01*
X134617688Y-63208505D01*
X134831495Y-63422312D01*
X135082905Y-63590299D01*
X135362257Y-63706011D01*
X135658816Y-63765000D01*
X135961184Y-63765000D01*
X136257743Y-63706011D01*
X136537095Y-63590299D01*
X136788505Y-63422312D01*
X137002312Y-63208505D01*
X137170299Y-62957095D01*
X137286011Y-62677743D01*
X137345000Y-62381184D01*
X137345000Y-62078816D01*
X137286011Y-61782257D01*
X137170299Y-61502905D01*
X137002312Y-61251495D01*
X136788505Y-61037688D01*
X136537095Y-60869701D01*
X136257743Y-60753989D01*
X135961184Y-60695000D01*
X135658816Y-60695000D01*
X135362257Y-60753989D01*
X135082905Y-60869701D01*
X134831495Y-61037688D01*
X134617688Y-61251495D01*
X134560000Y-61337831D01*
X134502312Y-61251495D01*
X134288505Y-61037688D01*
X134037095Y-60869701D01*
X133757743Y-60753989D01*
X133461184Y-60695000D01*
X133158816Y-60695000D01*
X132862257Y-60753989D01*
X132582905Y-60869701D01*
X132331495Y-61037688D01*
X132117688Y-61251495D01*
X132060000Y-61337831D01*
X132002312Y-61251495D01*
X131788505Y-61037688D01*
X131537095Y-60869701D01*
X131257743Y-60753989D01*
X130961184Y-60695000D01*
X130658816Y-60695000D01*
X130362257Y-60753989D01*
X130082905Y-60869701D01*
X129831495Y-61037688D01*
X129617688Y-61251495D01*
X129449701Y-61502905D01*
X129333989Y-61782257D01*
X129275000Y-62078816D01*
X123375000Y-62078816D01*
X123316011Y-61782257D01*
X123200299Y-61502905D01*
X123032312Y-61251495D01*
X122818505Y-61037688D01*
X122567095Y-60869701D01*
X122287743Y-60753989D01*
X121991184Y-60695000D01*
X121688816Y-60695000D01*
X121392257Y-60753989D01*
X121112905Y-60869701D01*
X120861495Y-61037688D01*
X120647688Y-61251495D01*
X120590000Y-61337831D01*
X120532312Y-61251495D01*
X120318505Y-61037688D01*
X120067095Y-60869701D01*
X119787743Y-60753989D01*
X119491184Y-60695000D01*
X119188816Y-60695000D01*
X118892257Y-60753989D01*
X118612905Y-60869701D01*
X118361495Y-61037688D01*
X118147688Y-61251495D01*
X118090000Y-61337831D01*
X118032312Y-61251495D01*
X117818505Y-61037688D01*
X117567095Y-60869701D01*
X117287743Y-60753989D01*
X116991184Y-60695000D01*
X116688816Y-60695000D01*
X116392257Y-60753989D01*
X116112905Y-60869701D01*
X115861495Y-61037688D01*
X115647688Y-61251495D01*
X115479701Y-61502905D01*
X115363989Y-61782257D01*
X115305000Y-62078816D01*
X113061211Y-62078816D01*
X113156034Y-49657000D01*
X140185000Y-49657000D01*
X140185000Y-55707037D01*
M02*
