G04 #@! TF.GenerationSoftware,KiCad,Pcbnew,(5.0.1)-rc2*
G04 #@! TF.CreationDate,2019-01-13T21:26:45-05:00*
G04 #@! TF.ProjectId,pot_board,706F745F626F6172642E6B696361645F,rev?*
G04 #@! TF.SameCoordinates,Original*
G04 #@! TF.FileFunction,Legend,Bot*
G04 #@! TF.FilePolarity,Positive*
%FSLAX46Y46*%
G04 Gerber Fmt 4.6, Leading zero omitted, Abs format (unit mm)*
G04 Created by KiCad (PCBNEW (5.0.1)-rc2) date 1/13/2019 9:26:45 PM*
%MOMM*%
%LPD*%
G01*
G04 APERTURE LIST*
%ADD10C,0.300000*%
G04 APERTURE END LIST*
D10*
X142675657Y-48328971D02*
X143175657Y-47614685D01*
X143532800Y-48328971D02*
X143532800Y-46828971D01*
X142961371Y-46828971D01*
X142818514Y-46900400D01*
X142747085Y-46971828D01*
X142675657Y-47114685D01*
X142675657Y-47328971D01*
X142747085Y-47471828D01*
X142818514Y-47543257D01*
X142961371Y-47614685D01*
X143532800Y-47614685D01*
X142247085Y-46828971D02*
X141747085Y-48328971D01*
X141247085Y-46828971D01*
X140104228Y-47328971D02*
X140104228Y-48328971D01*
X140461371Y-46757542D02*
X140818514Y-47828971D01*
X139889942Y-47828971D01*
X127943657Y-47820971D02*
X128443657Y-47106685D01*
X128800800Y-47820971D02*
X128800800Y-46320971D01*
X128229371Y-46320971D01*
X128086514Y-46392400D01*
X128015085Y-46463828D01*
X127943657Y-46606685D01*
X127943657Y-46820971D01*
X128015085Y-46963828D01*
X128086514Y-47035257D01*
X128229371Y-47106685D01*
X128800800Y-47106685D01*
X127515085Y-46320971D02*
X127015085Y-47820971D01*
X126515085Y-46320971D01*
X126157942Y-46320971D02*
X125229371Y-46320971D01*
X125729371Y-46892400D01*
X125515085Y-46892400D01*
X125372228Y-46963828D01*
X125300800Y-47035257D01*
X125229371Y-47178114D01*
X125229371Y-47535257D01*
X125300800Y-47678114D01*
X125372228Y-47749542D01*
X125515085Y-47820971D01*
X125943657Y-47820971D01*
X126086514Y-47749542D01*
X126157942Y-47678114D01*
X112348057Y-48049571D02*
X112848057Y-47335285D01*
X113205200Y-48049571D02*
X113205200Y-46549571D01*
X112633771Y-46549571D01*
X112490914Y-46621000D01*
X112419485Y-46692428D01*
X112348057Y-46835285D01*
X112348057Y-47049571D01*
X112419485Y-47192428D01*
X112490914Y-47263857D01*
X112633771Y-47335285D01*
X113205200Y-47335285D01*
X111919485Y-46549571D02*
X111419485Y-48049571D01*
X110919485Y-46549571D01*
X110490914Y-46692428D02*
X110419485Y-46621000D01*
X110276628Y-46549571D01*
X109919485Y-46549571D01*
X109776628Y-46621000D01*
X109705200Y-46692428D01*
X109633771Y-46835285D01*
X109633771Y-46978142D01*
X109705200Y-47192428D01*
X110562342Y-48049571D01*
X109633771Y-48049571D01*
X97184257Y-48049571D02*
X97684257Y-47335285D01*
X98041400Y-48049571D02*
X98041400Y-46549571D01*
X97469971Y-46549571D01*
X97327114Y-46621000D01*
X97255685Y-46692428D01*
X97184257Y-46835285D01*
X97184257Y-47049571D01*
X97255685Y-47192428D01*
X97327114Y-47263857D01*
X97469971Y-47335285D01*
X98041400Y-47335285D01*
X96755685Y-46549571D02*
X96255685Y-48049571D01*
X95755685Y-46549571D01*
X94469971Y-48049571D02*
X95327114Y-48049571D01*
X94898542Y-48049571D02*
X94898542Y-46549571D01*
X95041400Y-46763857D01*
X95184257Y-46906714D01*
X95327114Y-46978142D01*
M02*
