G04 #@! TF.GenerationSoftware,KiCad,Pcbnew,(5.0.1)-rc2*
G04 #@! TF.CreationDate,2019-01-13T21:26:45-05:00*
G04 #@! TF.ProjectId,pot_board,706F745F626F6172642E6B696361645F,rev?*
G04 #@! TF.SameCoordinates,Original*
G04 #@! TF.FileFunction,Copper,L1,Top,Signal*
G04 #@! TF.FilePolarity,Positive*
%FSLAX46Y46*%
G04 Gerber Fmt 4.6, Leading zero omitted, Abs format (unit mm)*
G04 Created by KiCad (PCBNEW (5.0.1)-rc2) date 1/13/2019 9:26:45 PM*
%MOMM*%
%LPD*%
G01*
G04 APERTURE LIST*
G04 #@! TA.AperFunction,ComponentPad*
%ADD10C,5.700000*%
G04 #@! TD*
G04 #@! TA.AperFunction,Conductor*
%ADD11C,0.100000*%
G04 #@! TD*
G04 #@! TA.AperFunction,ComponentPad*
%ADD12C,1.200000*%
G04 #@! TD*
G04 #@! TA.AperFunction,ComponentPad*
%ADD13O,1.200000X1.750000*%
G04 #@! TD*
G04 #@! TA.AperFunction,ComponentPad*
%ADD14C,1.700000*%
G04 #@! TD*
G04 #@! TA.AperFunction,ComponentPad*
%ADD15O,1.700000X1.950000*%
G04 #@! TD*
G04 #@! TA.AperFunction,ComponentPad*
%ADD16C,1.800000*%
G04 #@! TD*
G04 #@! TA.AperFunction,WasherPad*
%ADD17C,4.000000*%
G04 #@! TD*
G04 #@! TA.AperFunction,Conductor*
%ADD18C,0.250000*%
G04 #@! TD*
G04 #@! TA.AperFunction,Conductor*
%ADD19C,0.254000*%
G04 #@! TD*
G04 APERTURE END LIST*
D10*
G04 #@! TO.P,H4,1*
G04 #@! TO.N,GND*
X92430600Y-40665400D03*
G04 #@! TD*
G04 #@! TO.P,H3,1*
G04 #@! TO.N,GND*
X146253200Y-64287400D03*
G04 #@! TD*
G04 #@! TO.P,H2,1*
G04 #@! TO.N,GND*
X92430600Y-64287400D03*
G04 #@! TD*
G04 #@! TO.P,H1,1*
G04 #@! TO.N,GND*
X146253200Y-40665400D03*
G04 #@! TD*
D11*
G04 #@! TO.N,Net-(J1-Pad1)*
G04 #@! TO.C,J1*
G36*
X106038505Y-64658204D02*
X106062773Y-64661804D01*
X106086572Y-64667765D01*
X106109671Y-64676030D01*
X106131850Y-64686520D01*
X106152893Y-64699132D01*
X106172599Y-64713747D01*
X106190777Y-64730223D01*
X106207253Y-64748401D01*
X106221868Y-64768107D01*
X106234480Y-64789150D01*
X106244970Y-64811329D01*
X106253235Y-64834428D01*
X106259196Y-64858227D01*
X106262796Y-64882495D01*
X106264000Y-64906999D01*
X106264000Y-66157001D01*
X106262796Y-66181505D01*
X106259196Y-66205773D01*
X106253235Y-66229572D01*
X106244970Y-66252671D01*
X106234480Y-66274850D01*
X106221868Y-66295893D01*
X106207253Y-66315599D01*
X106190777Y-66333777D01*
X106172599Y-66350253D01*
X106152893Y-66364868D01*
X106131850Y-66377480D01*
X106109671Y-66387970D01*
X106086572Y-66396235D01*
X106062773Y-66402196D01*
X106038505Y-66405796D01*
X106014001Y-66407000D01*
X105313999Y-66407000D01*
X105289495Y-66405796D01*
X105265227Y-66402196D01*
X105241428Y-66396235D01*
X105218329Y-66387970D01*
X105196150Y-66377480D01*
X105175107Y-66364868D01*
X105155401Y-66350253D01*
X105137223Y-66333777D01*
X105120747Y-66315599D01*
X105106132Y-66295893D01*
X105093520Y-66274850D01*
X105083030Y-66252671D01*
X105074765Y-66229572D01*
X105068804Y-66205773D01*
X105065204Y-66181505D01*
X105064000Y-66157001D01*
X105064000Y-64906999D01*
X105065204Y-64882495D01*
X105068804Y-64858227D01*
X105074765Y-64834428D01*
X105083030Y-64811329D01*
X105093520Y-64789150D01*
X105106132Y-64768107D01*
X105120747Y-64748401D01*
X105137223Y-64730223D01*
X105155401Y-64713747D01*
X105175107Y-64699132D01*
X105196150Y-64686520D01*
X105218329Y-64676030D01*
X105241428Y-64667765D01*
X105265227Y-64661804D01*
X105289495Y-64658204D01*
X105313999Y-64657000D01*
X106014001Y-64657000D01*
X106038505Y-64658204D01*
X106038505Y-64658204D01*
G37*
D12*
G04 #@! TD*
G04 #@! TO.P,J1,1*
G04 #@! TO.N,Net-(J1-Pad1)*
X105664000Y-65532000D03*
D13*
G04 #@! TO.P,J1,2*
G04 #@! TO.N,Net-(J1-Pad2)*
X103664000Y-65532000D03*
G04 #@! TO.P,J1,3*
G04 #@! TO.N,Net-(J1-Pad3)*
X101664000Y-65532000D03*
G04 #@! TD*
D11*
G04 #@! TO.N,Net-(J1-Pad1)*
G04 #@! TO.C,J2*
G36*
X104459704Y-40428204D02*
X104483973Y-40431804D01*
X104507771Y-40437765D01*
X104530871Y-40446030D01*
X104553049Y-40456520D01*
X104574093Y-40469133D01*
X104593798Y-40483747D01*
X104611977Y-40500223D01*
X104628453Y-40518402D01*
X104643067Y-40538107D01*
X104655680Y-40559151D01*
X104666170Y-40581329D01*
X104674435Y-40604429D01*
X104680396Y-40628227D01*
X104683996Y-40652496D01*
X104685200Y-40677000D01*
X104685200Y-42127000D01*
X104683996Y-42151504D01*
X104680396Y-42175773D01*
X104674435Y-42199571D01*
X104666170Y-42222671D01*
X104655680Y-42244849D01*
X104643067Y-42265893D01*
X104628453Y-42285598D01*
X104611977Y-42303777D01*
X104593798Y-42320253D01*
X104574093Y-42334867D01*
X104553049Y-42347480D01*
X104530871Y-42357970D01*
X104507771Y-42366235D01*
X104483973Y-42372196D01*
X104459704Y-42375796D01*
X104435200Y-42377000D01*
X103235200Y-42377000D01*
X103210696Y-42375796D01*
X103186427Y-42372196D01*
X103162629Y-42366235D01*
X103139529Y-42357970D01*
X103117351Y-42347480D01*
X103096307Y-42334867D01*
X103076602Y-42320253D01*
X103058423Y-42303777D01*
X103041947Y-42285598D01*
X103027333Y-42265893D01*
X103014720Y-42244849D01*
X103004230Y-42222671D01*
X102995965Y-42199571D01*
X102990004Y-42175773D01*
X102986404Y-42151504D01*
X102985200Y-42127000D01*
X102985200Y-40677000D01*
X102986404Y-40652496D01*
X102990004Y-40628227D01*
X102995965Y-40604429D01*
X103004230Y-40581329D01*
X103014720Y-40559151D01*
X103027333Y-40538107D01*
X103041947Y-40518402D01*
X103058423Y-40500223D01*
X103076602Y-40483747D01*
X103096307Y-40469133D01*
X103117351Y-40456520D01*
X103139529Y-40446030D01*
X103162629Y-40437765D01*
X103186427Y-40431804D01*
X103210696Y-40428204D01*
X103235200Y-40427000D01*
X104435200Y-40427000D01*
X104459704Y-40428204D01*
X104459704Y-40428204D01*
G37*
D14*
G04 #@! TD*
G04 #@! TO.P,J2,1*
G04 #@! TO.N,Net-(J1-Pad1)*
X103835200Y-41402000D03*
D15*
G04 #@! TO.P,J2,2*
G04 #@! TO.N,Net-(J1-Pad2)*
X101335200Y-41402000D03*
G04 #@! TO.P,J2,3*
G04 #@! TO.N,Net-(J1-Pad3)*
X98835200Y-41402000D03*
G04 #@! TD*
D11*
G04 #@! TO.N,Net-(J3-Pad1)*
G04 #@! TO.C,J3*
G36*
X116571038Y-64658204D02*
X116595306Y-64661804D01*
X116619105Y-64667765D01*
X116642204Y-64676030D01*
X116664383Y-64686520D01*
X116685426Y-64699132D01*
X116705132Y-64713747D01*
X116723310Y-64730223D01*
X116739786Y-64748401D01*
X116754401Y-64768107D01*
X116767013Y-64789150D01*
X116777503Y-64811329D01*
X116785768Y-64834428D01*
X116791729Y-64858227D01*
X116795329Y-64882495D01*
X116796533Y-64906999D01*
X116796533Y-66157001D01*
X116795329Y-66181505D01*
X116791729Y-66205773D01*
X116785768Y-66229572D01*
X116777503Y-66252671D01*
X116767013Y-66274850D01*
X116754401Y-66295893D01*
X116739786Y-66315599D01*
X116723310Y-66333777D01*
X116705132Y-66350253D01*
X116685426Y-66364868D01*
X116664383Y-66377480D01*
X116642204Y-66387970D01*
X116619105Y-66396235D01*
X116595306Y-66402196D01*
X116571038Y-66405796D01*
X116546534Y-66407000D01*
X115846532Y-66407000D01*
X115822028Y-66405796D01*
X115797760Y-66402196D01*
X115773961Y-66396235D01*
X115750862Y-66387970D01*
X115728683Y-66377480D01*
X115707640Y-66364868D01*
X115687934Y-66350253D01*
X115669756Y-66333777D01*
X115653280Y-66315599D01*
X115638665Y-66295893D01*
X115626053Y-66274850D01*
X115615563Y-66252671D01*
X115607298Y-66229572D01*
X115601337Y-66205773D01*
X115597737Y-66181505D01*
X115596533Y-66157001D01*
X115596533Y-64906999D01*
X115597737Y-64882495D01*
X115601337Y-64858227D01*
X115607298Y-64834428D01*
X115615563Y-64811329D01*
X115626053Y-64789150D01*
X115638665Y-64768107D01*
X115653280Y-64748401D01*
X115669756Y-64730223D01*
X115687934Y-64713747D01*
X115707640Y-64699132D01*
X115728683Y-64686520D01*
X115750862Y-64676030D01*
X115773961Y-64667765D01*
X115797760Y-64661804D01*
X115822028Y-64658204D01*
X115846532Y-64657000D01*
X116546534Y-64657000D01*
X116571038Y-64658204D01*
X116571038Y-64658204D01*
G37*
D12*
G04 #@! TD*
G04 #@! TO.P,J3,1*
G04 #@! TO.N,Net-(J3-Pad1)*
X116196533Y-65532000D03*
D13*
G04 #@! TO.P,J3,2*
G04 #@! TO.N,Net-(J3-Pad2)*
X114196533Y-65532000D03*
G04 #@! TO.P,J3,3*
G04 #@! TO.N,Net-(J3-Pad3)*
X112196533Y-65532000D03*
G04 #@! TD*
D11*
G04 #@! TO.N,Net-(J3-Pad1)*
G04 #@! TO.C,J4*
G36*
X116465437Y-40428204D02*
X116489706Y-40431804D01*
X116513504Y-40437765D01*
X116536604Y-40446030D01*
X116558782Y-40456520D01*
X116579826Y-40469133D01*
X116599531Y-40483747D01*
X116617710Y-40500223D01*
X116634186Y-40518402D01*
X116648800Y-40538107D01*
X116661413Y-40559151D01*
X116671903Y-40581329D01*
X116680168Y-40604429D01*
X116686129Y-40628227D01*
X116689729Y-40652496D01*
X116690933Y-40677000D01*
X116690933Y-42127000D01*
X116689729Y-42151504D01*
X116686129Y-42175773D01*
X116680168Y-42199571D01*
X116671903Y-42222671D01*
X116661413Y-42244849D01*
X116648800Y-42265893D01*
X116634186Y-42285598D01*
X116617710Y-42303777D01*
X116599531Y-42320253D01*
X116579826Y-42334867D01*
X116558782Y-42347480D01*
X116536604Y-42357970D01*
X116513504Y-42366235D01*
X116489706Y-42372196D01*
X116465437Y-42375796D01*
X116440933Y-42377000D01*
X115240933Y-42377000D01*
X115216429Y-42375796D01*
X115192160Y-42372196D01*
X115168362Y-42366235D01*
X115145262Y-42357970D01*
X115123084Y-42347480D01*
X115102040Y-42334867D01*
X115082335Y-42320253D01*
X115064156Y-42303777D01*
X115047680Y-42285598D01*
X115033066Y-42265893D01*
X115020453Y-42244849D01*
X115009963Y-42222671D01*
X115001698Y-42199571D01*
X114995737Y-42175773D01*
X114992137Y-42151504D01*
X114990933Y-42127000D01*
X114990933Y-40677000D01*
X114992137Y-40652496D01*
X114995737Y-40628227D01*
X115001698Y-40604429D01*
X115009963Y-40581329D01*
X115020453Y-40559151D01*
X115033066Y-40538107D01*
X115047680Y-40518402D01*
X115064156Y-40500223D01*
X115082335Y-40483747D01*
X115102040Y-40469133D01*
X115123084Y-40456520D01*
X115145262Y-40446030D01*
X115168362Y-40437765D01*
X115192160Y-40431804D01*
X115216429Y-40428204D01*
X115240933Y-40427000D01*
X116440933Y-40427000D01*
X116465437Y-40428204D01*
X116465437Y-40428204D01*
G37*
D14*
G04 #@! TD*
G04 #@! TO.P,J4,1*
G04 #@! TO.N,Net-(J3-Pad1)*
X115840933Y-41402000D03*
D15*
G04 #@! TO.P,J4,2*
G04 #@! TO.N,Net-(J3-Pad2)*
X113340933Y-41402000D03*
G04 #@! TO.P,J4,3*
G04 #@! TO.N,Net-(J3-Pad3)*
X110840933Y-41402000D03*
G04 #@! TD*
D13*
G04 #@! TO.P,J5,3*
G04 #@! TO.N,Net-(J5-Pad3)*
X122729066Y-65532000D03*
G04 #@! TO.P,J5,2*
G04 #@! TO.N,Net-(J5-Pad2)*
X124729066Y-65532000D03*
D11*
G04 #@! TD*
G04 #@! TO.N,Net-(J5-Pad1)*
G04 #@! TO.C,J5*
G36*
X127103571Y-64658204D02*
X127127839Y-64661804D01*
X127151638Y-64667765D01*
X127174737Y-64676030D01*
X127196916Y-64686520D01*
X127217959Y-64699132D01*
X127237665Y-64713747D01*
X127255843Y-64730223D01*
X127272319Y-64748401D01*
X127286934Y-64768107D01*
X127299546Y-64789150D01*
X127310036Y-64811329D01*
X127318301Y-64834428D01*
X127324262Y-64858227D01*
X127327862Y-64882495D01*
X127329066Y-64906999D01*
X127329066Y-66157001D01*
X127327862Y-66181505D01*
X127324262Y-66205773D01*
X127318301Y-66229572D01*
X127310036Y-66252671D01*
X127299546Y-66274850D01*
X127286934Y-66295893D01*
X127272319Y-66315599D01*
X127255843Y-66333777D01*
X127237665Y-66350253D01*
X127217959Y-66364868D01*
X127196916Y-66377480D01*
X127174737Y-66387970D01*
X127151638Y-66396235D01*
X127127839Y-66402196D01*
X127103571Y-66405796D01*
X127079067Y-66407000D01*
X126379065Y-66407000D01*
X126354561Y-66405796D01*
X126330293Y-66402196D01*
X126306494Y-66396235D01*
X126283395Y-66387970D01*
X126261216Y-66377480D01*
X126240173Y-66364868D01*
X126220467Y-66350253D01*
X126202289Y-66333777D01*
X126185813Y-66315599D01*
X126171198Y-66295893D01*
X126158586Y-66274850D01*
X126148096Y-66252671D01*
X126139831Y-66229572D01*
X126133870Y-66205773D01*
X126130270Y-66181505D01*
X126129066Y-66157001D01*
X126129066Y-64906999D01*
X126130270Y-64882495D01*
X126133870Y-64858227D01*
X126139831Y-64834428D01*
X126148096Y-64811329D01*
X126158586Y-64789150D01*
X126171198Y-64768107D01*
X126185813Y-64748401D01*
X126202289Y-64730223D01*
X126220467Y-64713747D01*
X126240173Y-64699132D01*
X126261216Y-64686520D01*
X126283395Y-64676030D01*
X126306494Y-64667765D01*
X126330293Y-64661804D01*
X126354561Y-64658204D01*
X126379065Y-64657000D01*
X127079067Y-64657000D01*
X127103571Y-64658204D01*
X127103571Y-64658204D01*
G37*
D12*
G04 #@! TO.P,J5,1*
G04 #@! TO.N,Net-(J5-Pad1)*
X126729066Y-65532000D03*
G04 #@! TD*
D15*
G04 #@! TO.P,J6,3*
G04 #@! TO.N,Net-(J5-Pad3)*
X122846666Y-41402000D03*
G04 #@! TO.P,J6,2*
G04 #@! TO.N,Net-(J5-Pad2)*
X125346666Y-41402000D03*
D11*
G04 #@! TD*
G04 #@! TO.N,Net-(J5-Pad1)*
G04 #@! TO.C,J6*
G36*
X128471170Y-40428204D02*
X128495439Y-40431804D01*
X128519237Y-40437765D01*
X128542337Y-40446030D01*
X128564515Y-40456520D01*
X128585559Y-40469133D01*
X128605264Y-40483747D01*
X128623443Y-40500223D01*
X128639919Y-40518402D01*
X128654533Y-40538107D01*
X128667146Y-40559151D01*
X128677636Y-40581329D01*
X128685901Y-40604429D01*
X128691862Y-40628227D01*
X128695462Y-40652496D01*
X128696666Y-40677000D01*
X128696666Y-42127000D01*
X128695462Y-42151504D01*
X128691862Y-42175773D01*
X128685901Y-42199571D01*
X128677636Y-42222671D01*
X128667146Y-42244849D01*
X128654533Y-42265893D01*
X128639919Y-42285598D01*
X128623443Y-42303777D01*
X128605264Y-42320253D01*
X128585559Y-42334867D01*
X128564515Y-42347480D01*
X128542337Y-42357970D01*
X128519237Y-42366235D01*
X128495439Y-42372196D01*
X128471170Y-42375796D01*
X128446666Y-42377000D01*
X127246666Y-42377000D01*
X127222162Y-42375796D01*
X127197893Y-42372196D01*
X127174095Y-42366235D01*
X127150995Y-42357970D01*
X127128817Y-42347480D01*
X127107773Y-42334867D01*
X127088068Y-42320253D01*
X127069889Y-42303777D01*
X127053413Y-42285598D01*
X127038799Y-42265893D01*
X127026186Y-42244849D01*
X127015696Y-42222671D01*
X127007431Y-42199571D01*
X127001470Y-42175773D01*
X126997870Y-42151504D01*
X126996666Y-42127000D01*
X126996666Y-40677000D01*
X126997870Y-40652496D01*
X127001470Y-40628227D01*
X127007431Y-40604429D01*
X127015696Y-40581329D01*
X127026186Y-40559151D01*
X127038799Y-40538107D01*
X127053413Y-40518402D01*
X127069889Y-40500223D01*
X127088068Y-40483747D01*
X127107773Y-40469133D01*
X127128817Y-40456520D01*
X127150995Y-40446030D01*
X127174095Y-40437765D01*
X127197893Y-40431804D01*
X127222162Y-40428204D01*
X127246666Y-40427000D01*
X128446666Y-40427000D01*
X128471170Y-40428204D01*
X128471170Y-40428204D01*
G37*
D14*
G04 #@! TO.P,J6,1*
G04 #@! TO.N,Net-(J5-Pad1)*
X127846666Y-41402000D03*
G04 #@! TD*
D13*
G04 #@! TO.P,J7,3*
G04 #@! TO.N,Net-(J7-Pad3)*
X133261600Y-65532000D03*
G04 #@! TO.P,J7,2*
G04 #@! TO.N,Net-(J7-Pad2)*
X135261600Y-65532000D03*
D11*
G04 #@! TD*
G04 #@! TO.N,Net-(J7-Pad1)*
G04 #@! TO.C,J7*
G36*
X137636105Y-64658204D02*
X137660373Y-64661804D01*
X137684172Y-64667765D01*
X137707271Y-64676030D01*
X137729450Y-64686520D01*
X137750493Y-64699132D01*
X137770199Y-64713747D01*
X137788377Y-64730223D01*
X137804853Y-64748401D01*
X137819468Y-64768107D01*
X137832080Y-64789150D01*
X137842570Y-64811329D01*
X137850835Y-64834428D01*
X137856796Y-64858227D01*
X137860396Y-64882495D01*
X137861600Y-64906999D01*
X137861600Y-66157001D01*
X137860396Y-66181505D01*
X137856796Y-66205773D01*
X137850835Y-66229572D01*
X137842570Y-66252671D01*
X137832080Y-66274850D01*
X137819468Y-66295893D01*
X137804853Y-66315599D01*
X137788377Y-66333777D01*
X137770199Y-66350253D01*
X137750493Y-66364868D01*
X137729450Y-66377480D01*
X137707271Y-66387970D01*
X137684172Y-66396235D01*
X137660373Y-66402196D01*
X137636105Y-66405796D01*
X137611601Y-66407000D01*
X136911599Y-66407000D01*
X136887095Y-66405796D01*
X136862827Y-66402196D01*
X136839028Y-66396235D01*
X136815929Y-66387970D01*
X136793750Y-66377480D01*
X136772707Y-66364868D01*
X136753001Y-66350253D01*
X136734823Y-66333777D01*
X136718347Y-66315599D01*
X136703732Y-66295893D01*
X136691120Y-66274850D01*
X136680630Y-66252671D01*
X136672365Y-66229572D01*
X136666404Y-66205773D01*
X136662804Y-66181505D01*
X136661600Y-66157001D01*
X136661600Y-64906999D01*
X136662804Y-64882495D01*
X136666404Y-64858227D01*
X136672365Y-64834428D01*
X136680630Y-64811329D01*
X136691120Y-64789150D01*
X136703732Y-64768107D01*
X136718347Y-64748401D01*
X136734823Y-64730223D01*
X136753001Y-64713747D01*
X136772707Y-64699132D01*
X136793750Y-64686520D01*
X136815929Y-64676030D01*
X136839028Y-64667765D01*
X136862827Y-64661804D01*
X136887095Y-64658204D01*
X136911599Y-64657000D01*
X137611601Y-64657000D01*
X137636105Y-64658204D01*
X137636105Y-64658204D01*
G37*
D12*
G04 #@! TO.P,J7,1*
G04 #@! TO.N,Net-(J7-Pad1)*
X137261600Y-65532000D03*
G04 #@! TD*
D15*
G04 #@! TO.P,J8,3*
G04 #@! TO.N,Net-(J7-Pad3)*
X134852400Y-41402000D03*
G04 #@! TO.P,J8,2*
G04 #@! TO.N,Net-(J7-Pad2)*
X137352400Y-41402000D03*
D11*
G04 #@! TD*
G04 #@! TO.N,Net-(J7-Pad1)*
G04 #@! TO.C,J8*
G36*
X140476904Y-40428204D02*
X140501173Y-40431804D01*
X140524971Y-40437765D01*
X140548071Y-40446030D01*
X140570249Y-40456520D01*
X140591293Y-40469133D01*
X140610998Y-40483747D01*
X140629177Y-40500223D01*
X140645653Y-40518402D01*
X140660267Y-40538107D01*
X140672880Y-40559151D01*
X140683370Y-40581329D01*
X140691635Y-40604429D01*
X140697596Y-40628227D01*
X140701196Y-40652496D01*
X140702400Y-40677000D01*
X140702400Y-42127000D01*
X140701196Y-42151504D01*
X140697596Y-42175773D01*
X140691635Y-42199571D01*
X140683370Y-42222671D01*
X140672880Y-42244849D01*
X140660267Y-42265893D01*
X140645653Y-42285598D01*
X140629177Y-42303777D01*
X140610998Y-42320253D01*
X140591293Y-42334867D01*
X140570249Y-42347480D01*
X140548071Y-42357970D01*
X140524971Y-42366235D01*
X140501173Y-42372196D01*
X140476904Y-42375796D01*
X140452400Y-42377000D01*
X139252400Y-42377000D01*
X139227896Y-42375796D01*
X139203627Y-42372196D01*
X139179829Y-42366235D01*
X139156729Y-42357970D01*
X139134551Y-42347480D01*
X139113507Y-42334867D01*
X139093802Y-42320253D01*
X139075623Y-42303777D01*
X139059147Y-42285598D01*
X139044533Y-42265893D01*
X139031920Y-42244849D01*
X139021430Y-42222671D01*
X139013165Y-42199571D01*
X139007204Y-42175773D01*
X139003604Y-42151504D01*
X139002400Y-42127000D01*
X139002400Y-40677000D01*
X139003604Y-40652496D01*
X139007204Y-40628227D01*
X139013165Y-40604429D01*
X139021430Y-40581329D01*
X139031920Y-40559151D01*
X139044533Y-40538107D01*
X139059147Y-40518402D01*
X139075623Y-40500223D01*
X139093802Y-40483747D01*
X139113507Y-40469133D01*
X139134551Y-40456520D01*
X139156729Y-40446030D01*
X139179829Y-40437765D01*
X139203627Y-40431804D01*
X139227896Y-40428204D01*
X139252400Y-40427000D01*
X140452400Y-40427000D01*
X140476904Y-40428204D01*
X140476904Y-40428204D01*
G37*
D14*
G04 #@! TO.P,J8,1*
G04 #@! TO.N,Net-(J7-Pad1)*
X139852400Y-41402000D03*
G04 #@! TD*
D16*
G04 #@! TO.P,RV1,3*
G04 #@! TO.N,Net-(J1-Pad3)*
X93615500Y-59182000D03*
G04 #@! TO.P,RV1,2*
G04 #@! TO.N,Net-(J1-Pad2)*
X96115500Y-59182000D03*
G04 #@! TO.P,RV1,1*
G04 #@! TO.N,Net-(J1-Pad1)*
X98615500Y-59182000D03*
D17*
G04 #@! TO.P,RV1,*
G04 #@! TO.N,*
X91715500Y-52182000D03*
X100515500Y-52182000D03*
G04 #@! TD*
D16*
G04 #@! TO.P,RV2,3*
G04 #@! TO.N,Net-(J3-Pad3)*
X109067166Y-59182000D03*
G04 #@! TO.P,RV2,2*
G04 #@! TO.N,Net-(J3-Pad2)*
X111567166Y-59182000D03*
G04 #@! TO.P,RV2,1*
G04 #@! TO.N,Net-(J3-Pad1)*
X114067166Y-59182000D03*
D17*
G04 #@! TO.P,RV2,*
G04 #@! TO.N,*
X107167166Y-52182000D03*
X115967166Y-52182000D03*
G04 #@! TD*
G04 #@! TO.P,RV3,*
G04 #@! TO.N,*
X131291832Y-52182000D03*
X122491832Y-52182000D03*
D16*
G04 #@! TO.P,RV3,1*
G04 #@! TO.N,Net-(J5-Pad1)*
X129391832Y-59182000D03*
G04 #@! TO.P,RV3,2*
G04 #@! TO.N,Net-(J5-Pad2)*
X126891832Y-59182000D03*
G04 #@! TO.P,RV3,3*
G04 #@! TO.N,Net-(J5-Pad3)*
X124391832Y-59182000D03*
G04 #@! TD*
D17*
G04 #@! TO.P,RV4,*
G04 #@! TO.N,*
X146489500Y-52182000D03*
X137689500Y-52182000D03*
D16*
G04 #@! TO.P,RV4,1*
G04 #@! TO.N,Net-(J7-Pad1)*
X144589500Y-59182000D03*
G04 #@! TO.P,RV4,2*
G04 #@! TO.N,Net-(J7-Pad2)*
X142089500Y-59182000D03*
G04 #@! TO.P,RV4,3*
G04 #@! TO.N,Net-(J7-Pad3)*
X139589500Y-59182000D03*
G04 #@! TD*
D18*
G04 #@! TO.N,Net-(J1-Pad1)*
X104993290Y-64861290D02*
X105664000Y-65532000D01*
X100213999Y-60081999D02*
X104993290Y-64861290D01*
X99515499Y-60081999D02*
X100213999Y-60081999D01*
X98615500Y-59182000D02*
X99515499Y-60081999D01*
X102936828Y-42300372D02*
X103835200Y-41402000D01*
X97715501Y-47521699D02*
X102936828Y-42300372D01*
X97715501Y-58282001D02*
X97715501Y-47521699D01*
X98615500Y-59182000D02*
X97715501Y-58282001D01*
G04 #@! TO.N,Net-(J1-Pad2)*
X101335200Y-41527000D02*
X101335200Y-41402000D01*
X100235200Y-42627000D02*
X101335200Y-41527000D01*
X100110200Y-42627000D02*
X100235200Y-42627000D01*
X96115500Y-46621700D02*
X100110200Y-42627000D01*
X96115500Y-59182000D02*
X96115500Y-46621700D01*
X97015499Y-60081999D02*
X96115500Y-59182000D01*
X97340501Y-60407001D02*
X97015499Y-60081999D01*
X98814001Y-60407001D02*
X97340501Y-60407001D01*
X103664000Y-65257000D02*
X98814001Y-60407001D01*
X103664000Y-65532000D02*
X103664000Y-65257000D01*
G04 #@! TO.N,Net-(J1-Pad3)*
X98835200Y-42627000D02*
X98835200Y-41402000D01*
X94515499Y-46946701D02*
X98835200Y-42627000D01*
X94515499Y-58282001D02*
X94515499Y-46946701D01*
X93615500Y-59182000D02*
X94515499Y-58282001D01*
X99965500Y-65532000D02*
X101664000Y-65532000D01*
X93615500Y-59182000D02*
X99965500Y-65532000D01*
G04 #@! TO.N,Net-(J3-Pad1)*
X114942561Y-42300372D02*
X115840933Y-41402000D01*
X113642165Y-43600768D02*
X114942561Y-42300372D01*
X113642165Y-57484207D02*
X113642165Y-43600768D01*
X114067166Y-57909208D02*
X113642165Y-57484207D01*
X114067166Y-59182000D02*
X114067166Y-57909208D01*
X116196533Y-61311367D02*
X116196533Y-65532000D01*
X114067166Y-59182000D02*
X116196533Y-61311367D01*
G04 #@! TO.N,Net-(J3-Pad2)*
X111567166Y-57909208D02*
X111567166Y-59182000D01*
X111567166Y-44400767D02*
X111567166Y-57909208D01*
X113340933Y-42627000D02*
X111567166Y-44400767D01*
X113340933Y-41402000D02*
X113340933Y-42627000D01*
X114196533Y-61811367D02*
X111567166Y-59182000D01*
X114196533Y-65532000D02*
X114196533Y-61811367D01*
G04 #@! TO.N,Net-(J3-Pad3)*
X110840933Y-57408233D02*
X110840933Y-41402000D01*
X109067166Y-59182000D02*
X110840933Y-57408233D01*
X111346533Y-65532000D02*
X112196533Y-65532000D01*
X109067166Y-63252633D02*
X111346533Y-65532000D01*
X109067166Y-59182000D02*
X109067166Y-63252633D01*
G04 #@! TO.N,Net-(J5-Pad3)*
X122846666Y-41527000D02*
X122846666Y-41402000D01*
X124816833Y-43497167D02*
X122846666Y-41527000D01*
X124816833Y-58756999D02*
X124816833Y-43497167D01*
X124391832Y-59182000D02*
X124816833Y-58756999D01*
X122729066Y-60844766D02*
X124391832Y-59182000D01*
X122729066Y-65532000D02*
X122729066Y-60844766D01*
G04 #@! TO.N,Net-(J5-Pad2)*
X125346666Y-57636834D02*
X126891832Y-59182000D01*
X125346666Y-41402000D02*
X125346666Y-57636834D01*
X124729066Y-65257000D02*
X124729066Y-65532000D01*
X125579066Y-64407000D02*
X124729066Y-65257000D01*
X125854066Y-64407000D02*
X125579066Y-64407000D01*
X126891832Y-63369234D02*
X125854066Y-64407000D01*
X126891832Y-59182000D02*
X126891832Y-63369234D01*
G04 #@! TO.N,Net-(J5-Pad1)*
X127846666Y-57636834D02*
X127846666Y-41402000D01*
X129391832Y-59182000D02*
X127846666Y-57636834D01*
X129391832Y-62869234D02*
X129391832Y-59182000D01*
X126729066Y-65532000D02*
X129391832Y-62869234D01*
G04 #@! TO.N,Net-(J7-Pad3)*
X134852400Y-54444900D02*
X139589500Y-59182000D01*
X134852400Y-41402000D02*
X134852400Y-54444900D01*
X139336600Y-59182000D02*
X139589500Y-59182000D01*
X133261600Y-65257000D02*
X139336600Y-59182000D01*
X133261600Y-65532000D02*
X133261600Y-65257000D01*
G04 #@! TO.N,Net-(J7-Pad2)*
X137352400Y-41527000D02*
X137352400Y-41402000D01*
X140014501Y-44189101D02*
X137352400Y-41527000D01*
X140014501Y-57107001D02*
X140014501Y-44189101D01*
X142089500Y-59182000D02*
X140014501Y-57107001D01*
X141189501Y-60081999D02*
X142089500Y-59182000D01*
X140436601Y-60081999D02*
X141189501Y-60081999D01*
X135261600Y-65257000D02*
X140436601Y-60081999D01*
X135261600Y-65532000D02*
X135261600Y-65257000D01*
G04 #@! TO.N,Net-(J7-Pad1)*
X143689501Y-58282001D02*
X144589500Y-59182000D01*
X143689501Y-46314101D02*
X143689501Y-58282001D01*
X139852400Y-42477000D02*
X143689501Y-46314101D01*
X139852400Y-41402000D02*
X139852400Y-42477000D01*
X138239500Y-65532000D02*
X144589500Y-59182000D01*
X137261600Y-65532000D02*
X138239500Y-65532000D01*
G04 #@! TD*
D19*
G04 #@! TO.N,GND*
G36*
X90466920Y-37704028D02*
X90446117Y-37717928D01*
X90121792Y-38176987D01*
X92430600Y-40485795D01*
X94739408Y-38176987D01*
X94415083Y-37717928D01*
X94110243Y-37590400D01*
X144566597Y-37590400D01*
X144289520Y-37704028D01*
X144268717Y-37717928D01*
X143944392Y-38176987D01*
X146253200Y-40485795D01*
X148562008Y-38176987D01*
X148237683Y-37717928D01*
X147932843Y-37590400D01*
X149150400Y-37590400D01*
X149150400Y-38645400D01*
X148741613Y-38356592D01*
X146432805Y-40665400D01*
X148741613Y-42974208D01*
X149150400Y-42685400D01*
X149150401Y-62267400D01*
X148741613Y-61978592D01*
X146432805Y-64287400D01*
X148741613Y-66596208D01*
X149150401Y-66307399D01*
X149150401Y-67411006D01*
X147826701Y-67408783D01*
X148216880Y-67248772D01*
X148237683Y-67234872D01*
X148562008Y-66775813D01*
X146253200Y-64467005D01*
X143944392Y-66775813D01*
X144268717Y-67234872D01*
X144671764Y-67403485D01*
X94223596Y-67318769D01*
X94394280Y-67248772D01*
X94415083Y-67234872D01*
X94739408Y-66775813D01*
X92430600Y-64467005D01*
X90121792Y-66775813D01*
X90446117Y-67234872D01*
X90632246Y-67312738D01*
X89508000Y-67310850D01*
X89508000Y-66289455D01*
X89942187Y-66596208D01*
X92250995Y-64287400D01*
X92610205Y-64287400D01*
X94919013Y-66596208D01*
X95378072Y-66271883D01*
X95913138Y-64992875D01*
X95918019Y-63606464D01*
X95391972Y-62323720D01*
X95378072Y-62302917D01*
X94919013Y-61978592D01*
X92610205Y-64287400D01*
X92250995Y-64287400D01*
X89942187Y-61978592D01*
X89508000Y-62285345D01*
X89508000Y-61798987D01*
X90121792Y-61798987D01*
X92430600Y-64107795D01*
X94739408Y-61798987D01*
X94415083Y-61339928D01*
X93136075Y-60804862D01*
X91749664Y-60799981D01*
X90466920Y-61326028D01*
X90446117Y-61339928D01*
X90121792Y-61798987D01*
X89508000Y-61798987D01*
X89508000Y-53700953D01*
X90222892Y-54415845D01*
X91191366Y-54817000D01*
X92239634Y-54817000D01*
X93208108Y-54415845D01*
X93755499Y-53868454D01*
X93755499Y-57647000D01*
X93310170Y-57647000D01*
X92745993Y-57880690D01*
X92314190Y-58312493D01*
X92080500Y-58876670D01*
X92080500Y-59487330D01*
X92314190Y-60051507D01*
X92745993Y-60483310D01*
X93310170Y-60717000D01*
X93920830Y-60717000D01*
X94030339Y-60671640D01*
X99375171Y-66016473D01*
X99417571Y-66079929D01*
X99668963Y-66247904D01*
X99890648Y-66292000D01*
X99890652Y-66292000D01*
X99965499Y-66306888D01*
X100040346Y-66292000D01*
X100502746Y-66292000D01*
X100773615Y-66697385D01*
X101182127Y-66970344D01*
X101664000Y-67066195D01*
X102145872Y-66970344D01*
X102554385Y-66697385D01*
X102664000Y-66533334D01*
X102773615Y-66697385D01*
X103182127Y-66970344D01*
X103664000Y-67066195D01*
X104145872Y-66970344D01*
X104554385Y-66697385D01*
X104585428Y-66650926D01*
X104679414Y-66791586D01*
X104970564Y-66986127D01*
X105313999Y-67054440D01*
X106014001Y-67054440D01*
X106357436Y-66986127D01*
X106648586Y-66791586D01*
X106843127Y-66500436D01*
X106911440Y-66157001D01*
X106911440Y-64906999D01*
X106843127Y-64563564D01*
X106648586Y-64272414D01*
X106357436Y-64077873D01*
X106014001Y-64009560D01*
X105313999Y-64009560D01*
X105232561Y-64025759D01*
X100804330Y-59597529D01*
X100761928Y-59534070D01*
X100510536Y-59366095D01*
X100288851Y-59321999D01*
X100288846Y-59321999D01*
X100213999Y-59307111D01*
X100150500Y-59319742D01*
X100150500Y-58876670D01*
X107532166Y-58876670D01*
X107532166Y-59487330D01*
X107765856Y-60051507D01*
X108197659Y-60483310D01*
X108307166Y-60528669D01*
X108307167Y-63177781D01*
X108292278Y-63252633D01*
X108351263Y-63549170D01*
X108414709Y-63644123D01*
X108519238Y-63800562D01*
X108582694Y-63842962D01*
X110756204Y-66016473D01*
X110798604Y-66079929D01*
X110862060Y-66122329D01*
X111021215Y-66228673D01*
X111033189Y-66288872D01*
X111306148Y-66697385D01*
X111714660Y-66970344D01*
X112196533Y-67066195D01*
X112678405Y-66970344D01*
X113086918Y-66697385D01*
X113196533Y-66533334D01*
X113306148Y-66697385D01*
X113714660Y-66970344D01*
X114196533Y-67066195D01*
X114678405Y-66970344D01*
X115086918Y-66697385D01*
X115117961Y-66650926D01*
X115211947Y-66791586D01*
X115503097Y-66986127D01*
X115846532Y-67054440D01*
X116546534Y-67054440D01*
X116889969Y-66986127D01*
X117181119Y-66791586D01*
X117375660Y-66500436D01*
X117443973Y-66157001D01*
X117443973Y-64906999D01*
X117375660Y-64563564D01*
X117181119Y-64272414D01*
X116956533Y-64122350D01*
X116956533Y-61386215D01*
X116971421Y-61311367D01*
X116956533Y-61236519D01*
X116956533Y-61236515D01*
X116912437Y-61014830D01*
X116912437Y-61014829D01*
X116786862Y-60826894D01*
X116744462Y-60763438D01*
X116681006Y-60721038D01*
X115556806Y-59596839D01*
X115602166Y-59487330D01*
X115602166Y-58876670D01*
X115368476Y-58312493D01*
X114936673Y-57880690D01*
X114827376Y-57835418D01*
X114827166Y-57834360D01*
X114827166Y-57834356D01*
X114783070Y-57612671D01*
X114615095Y-57361279D01*
X114551636Y-57318877D01*
X114402165Y-57169406D01*
X114402165Y-54343452D01*
X114474558Y-54415845D01*
X115443032Y-54817000D01*
X116491300Y-54817000D01*
X117459774Y-54415845D01*
X118201011Y-53674608D01*
X118602166Y-52706134D01*
X118602166Y-51657866D01*
X119856832Y-51657866D01*
X119856832Y-52706134D01*
X120257987Y-53674608D01*
X120999224Y-54415845D01*
X121967698Y-54817000D01*
X123015966Y-54817000D01*
X123984440Y-54415845D01*
X124056833Y-54343452D01*
X124056833Y-57659289D01*
X123522325Y-57880690D01*
X123090522Y-58312493D01*
X122856832Y-58876670D01*
X122856832Y-59487330D01*
X122902192Y-59596839D01*
X122244594Y-60254437D01*
X122181138Y-60296837D01*
X122138738Y-60360293D01*
X122138737Y-60360294D01*
X122013163Y-60548229D01*
X121954178Y-60844766D01*
X121969067Y-60919618D01*
X121969066Y-64279495D01*
X121838682Y-64366615D01*
X121565722Y-64775127D01*
X121494066Y-65135364D01*
X121494066Y-65928635D01*
X121565722Y-66288872D01*
X121838681Y-66697385D01*
X122247193Y-66970344D01*
X122729066Y-67066195D01*
X123210938Y-66970344D01*
X123619451Y-66697385D01*
X123729066Y-66533334D01*
X123838681Y-66697385D01*
X124247193Y-66970344D01*
X124729066Y-67066195D01*
X125210938Y-66970344D01*
X125619451Y-66697385D01*
X125650494Y-66650926D01*
X125744480Y-66791586D01*
X126035630Y-66986127D01*
X126379065Y-67054440D01*
X127079067Y-67054440D01*
X127422502Y-66986127D01*
X127713652Y-66791586D01*
X127908193Y-66500436D01*
X127976506Y-66157001D01*
X127976506Y-65359361D01*
X128200503Y-65135364D01*
X132026600Y-65135364D01*
X132026600Y-65928635D01*
X132098256Y-66288872D01*
X132371215Y-66697385D01*
X132779727Y-66970344D01*
X133261600Y-67066195D01*
X133743472Y-66970344D01*
X134151985Y-66697385D01*
X134261600Y-66533334D01*
X134371215Y-66697385D01*
X134779727Y-66970344D01*
X135261600Y-67066195D01*
X135743472Y-66970344D01*
X136151985Y-66697385D01*
X136183028Y-66650926D01*
X136277014Y-66791586D01*
X136568164Y-66986127D01*
X136911599Y-67054440D01*
X137611601Y-67054440D01*
X137955036Y-66986127D01*
X138246186Y-66791586D01*
X138440727Y-66500436D01*
X138489101Y-66257240D01*
X138536037Y-66247904D01*
X138787429Y-66079929D01*
X138829831Y-66016470D01*
X139877965Y-64968336D01*
X142765781Y-64968336D01*
X143291828Y-66251080D01*
X143305728Y-66271883D01*
X143764787Y-66596208D01*
X146073595Y-64287400D01*
X143764787Y-61978592D01*
X143305728Y-62302917D01*
X142770662Y-63581925D01*
X142765781Y-64968336D01*
X139877965Y-64968336D01*
X143047314Y-61798987D01*
X143944392Y-61798987D01*
X146253200Y-64107795D01*
X148562008Y-61798987D01*
X148237683Y-61339928D01*
X146958675Y-60804862D01*
X145572264Y-60799981D01*
X144289520Y-61326028D01*
X144268717Y-61339928D01*
X143944392Y-61798987D01*
X143047314Y-61798987D01*
X144174662Y-60671640D01*
X144284170Y-60717000D01*
X144894830Y-60717000D01*
X145459007Y-60483310D01*
X145890810Y-60051507D01*
X146124500Y-59487330D01*
X146124500Y-58876670D01*
X145890810Y-58312493D01*
X145459007Y-57880690D01*
X144894830Y-57647000D01*
X144449501Y-57647000D01*
X144449501Y-53868454D01*
X144996892Y-54415845D01*
X145965366Y-54817000D01*
X147013634Y-54817000D01*
X147982108Y-54415845D01*
X148723345Y-53674608D01*
X149124500Y-52706134D01*
X149124500Y-51657866D01*
X148723345Y-50689392D01*
X147982108Y-49948155D01*
X147013634Y-49547000D01*
X145965366Y-49547000D01*
X144996892Y-49948155D01*
X144449501Y-50495546D01*
X144449501Y-46388947D01*
X144464389Y-46314100D01*
X144449501Y-46239253D01*
X144449501Y-46239249D01*
X144405405Y-46017564D01*
X144237430Y-45766172D01*
X144173974Y-45723772D01*
X141604015Y-43153813D01*
X143944392Y-43153813D01*
X144268717Y-43612872D01*
X145547725Y-44147938D01*
X146934136Y-44152819D01*
X148216880Y-43626772D01*
X148237683Y-43612872D01*
X148562008Y-43153813D01*
X146253200Y-40845005D01*
X143944392Y-43153813D01*
X141604015Y-43153813D01*
X141136974Y-42686773D01*
X141281526Y-42470435D01*
X141349840Y-42127000D01*
X141349840Y-41346336D01*
X142765781Y-41346336D01*
X143291828Y-42629080D01*
X143305728Y-42649883D01*
X143764787Y-42974208D01*
X146073595Y-40665400D01*
X143764787Y-38356592D01*
X143305728Y-38680917D01*
X142770662Y-39959925D01*
X142765781Y-41346336D01*
X141349840Y-41346336D01*
X141349840Y-40677000D01*
X141281526Y-40333565D01*
X141086986Y-40042414D01*
X140795835Y-39847874D01*
X140452400Y-39779560D01*
X139252400Y-39779560D01*
X138908965Y-39847874D01*
X138617814Y-40042414D01*
X138465642Y-40270156D01*
X138423025Y-40206375D01*
X137931818Y-39878161D01*
X137352400Y-39762908D01*
X136772983Y-39878161D01*
X136281775Y-40206375D01*
X136102400Y-40474829D01*
X135923025Y-40206375D01*
X135431818Y-39878161D01*
X134852400Y-39762908D01*
X134272983Y-39878161D01*
X133781775Y-40206375D01*
X133453561Y-40697582D01*
X133367400Y-41130744D01*
X133367400Y-41673255D01*
X133453561Y-42106417D01*
X133781775Y-42597625D01*
X134092400Y-42805178D01*
X134092401Y-54370048D01*
X134077512Y-54444900D01*
X134092401Y-54519752D01*
X134136497Y-54741437D01*
X134304472Y-54992829D01*
X134367928Y-55035229D01*
X138099860Y-58767162D01*
X138054500Y-58876670D01*
X138054500Y-59389297D01*
X133415401Y-64028398D01*
X133261600Y-63997805D01*
X132779728Y-64093656D01*
X132371216Y-64366615D01*
X132098256Y-64775127D01*
X132026600Y-65135364D01*
X128200503Y-65135364D01*
X129876305Y-63459563D01*
X129939761Y-63417163D01*
X130049697Y-63252633D01*
X130107736Y-63165772D01*
X130117312Y-63117629D01*
X130151832Y-62944086D01*
X130151832Y-62944082D01*
X130166720Y-62869234D01*
X130151832Y-62794386D01*
X130151832Y-60528669D01*
X130261339Y-60483310D01*
X130693142Y-60051507D01*
X130926832Y-59487330D01*
X130926832Y-58876670D01*
X130693142Y-58312493D01*
X130261339Y-57880690D01*
X129697162Y-57647000D01*
X129086502Y-57647000D01*
X128976993Y-57692360D01*
X128606666Y-57322033D01*
X128606666Y-51657866D01*
X128656832Y-51657866D01*
X128656832Y-52706134D01*
X129057987Y-53674608D01*
X129799224Y-54415845D01*
X130767698Y-54817000D01*
X131815966Y-54817000D01*
X132784440Y-54415845D01*
X133525677Y-53674608D01*
X133926832Y-52706134D01*
X133926832Y-51657866D01*
X133525677Y-50689392D01*
X132784440Y-49948155D01*
X131815966Y-49547000D01*
X130767698Y-49547000D01*
X129799224Y-49948155D01*
X129057987Y-50689392D01*
X128656832Y-51657866D01*
X128606666Y-51657866D01*
X128606666Y-42992614D01*
X128790101Y-42956126D01*
X129081252Y-42761586D01*
X129275792Y-42470435D01*
X129344106Y-42127000D01*
X129344106Y-40677000D01*
X129275792Y-40333565D01*
X129081252Y-40042414D01*
X128790101Y-39847874D01*
X128446666Y-39779560D01*
X127246666Y-39779560D01*
X126903231Y-39847874D01*
X126612080Y-40042414D01*
X126459908Y-40270156D01*
X126417291Y-40206375D01*
X125926084Y-39878161D01*
X125346666Y-39762908D01*
X124767249Y-39878161D01*
X124276041Y-40206375D01*
X124096666Y-40474829D01*
X123917291Y-40206375D01*
X123426084Y-39878161D01*
X122846666Y-39762908D01*
X122267249Y-39878161D01*
X121776041Y-40206375D01*
X121447827Y-40697582D01*
X121361666Y-41130744D01*
X121361666Y-41673255D01*
X121447827Y-42106417D01*
X121776041Y-42597625D01*
X122267248Y-42925839D01*
X122846666Y-43041092D01*
X123213074Y-42968209D01*
X124056834Y-43811970D01*
X124056834Y-50020549D01*
X123984440Y-49948155D01*
X123015966Y-49547000D01*
X121967698Y-49547000D01*
X120999224Y-49948155D01*
X120257987Y-50689392D01*
X119856832Y-51657866D01*
X118602166Y-51657866D01*
X118201011Y-50689392D01*
X117459774Y-49948155D01*
X116491300Y-49547000D01*
X115443032Y-49547000D01*
X114474558Y-49948155D01*
X114402165Y-50020548D01*
X114402165Y-43915569D01*
X115293295Y-43024440D01*
X116440933Y-43024440D01*
X116784368Y-42956126D01*
X117075519Y-42761586D01*
X117270059Y-42470435D01*
X117338373Y-42127000D01*
X117338373Y-40677000D01*
X117270059Y-40333565D01*
X117075519Y-40042414D01*
X116784368Y-39847874D01*
X116440933Y-39779560D01*
X115240933Y-39779560D01*
X114897498Y-39847874D01*
X114606347Y-40042414D01*
X114454175Y-40270156D01*
X114411558Y-40206375D01*
X113920351Y-39878161D01*
X113340933Y-39762908D01*
X112761516Y-39878161D01*
X112270308Y-40206375D01*
X112090933Y-40474829D01*
X111911558Y-40206375D01*
X111420351Y-39878161D01*
X110840933Y-39762908D01*
X110261516Y-39878161D01*
X109770308Y-40206375D01*
X109442094Y-40697582D01*
X109355933Y-41130744D01*
X109355933Y-41673255D01*
X109442094Y-42106417D01*
X109770308Y-42597625D01*
X110080934Y-42805179D01*
X110080933Y-57093430D01*
X109482004Y-57692360D01*
X109372496Y-57647000D01*
X108761836Y-57647000D01*
X108197659Y-57880690D01*
X107765856Y-58312493D01*
X107532166Y-58876670D01*
X100150500Y-58876670D01*
X99916810Y-58312493D01*
X99485007Y-57880690D01*
X98920830Y-57647000D01*
X98475501Y-57647000D01*
X98475501Y-53868454D01*
X99022892Y-54415845D01*
X99991366Y-54817000D01*
X101039634Y-54817000D01*
X102008108Y-54415845D01*
X102749345Y-53674608D01*
X103150500Y-52706134D01*
X103150500Y-51657866D01*
X104532166Y-51657866D01*
X104532166Y-52706134D01*
X104933321Y-53674608D01*
X105674558Y-54415845D01*
X106643032Y-54817000D01*
X107691300Y-54817000D01*
X108659774Y-54415845D01*
X109401011Y-53674608D01*
X109802166Y-52706134D01*
X109802166Y-51657866D01*
X109401011Y-50689392D01*
X108659774Y-49948155D01*
X107691300Y-49547000D01*
X106643032Y-49547000D01*
X105674558Y-49948155D01*
X104933321Y-50689392D01*
X104532166Y-51657866D01*
X103150500Y-51657866D01*
X102749345Y-50689392D01*
X102008108Y-49948155D01*
X101039634Y-49547000D01*
X99991366Y-49547000D01*
X99022892Y-49948155D01*
X98475501Y-50495546D01*
X98475501Y-47836500D01*
X103287563Y-43024440D01*
X104435200Y-43024440D01*
X104778635Y-42956126D01*
X105069786Y-42761586D01*
X105264326Y-42470435D01*
X105332640Y-42127000D01*
X105332640Y-40677000D01*
X105264326Y-40333565D01*
X105069786Y-40042414D01*
X104778635Y-39847874D01*
X104435200Y-39779560D01*
X103235200Y-39779560D01*
X102891765Y-39847874D01*
X102600614Y-40042414D01*
X102448442Y-40270156D01*
X102405825Y-40206375D01*
X101914618Y-39878161D01*
X101335200Y-39762908D01*
X100755783Y-39878161D01*
X100264575Y-40206375D01*
X100085200Y-40474829D01*
X99905825Y-40206375D01*
X99414618Y-39878161D01*
X98835200Y-39762908D01*
X98255783Y-39878161D01*
X97764575Y-40206375D01*
X97436361Y-40697582D01*
X97350200Y-41130744D01*
X97350200Y-41673255D01*
X97436361Y-42106417D01*
X97764575Y-42597625D01*
X97779680Y-42607718D01*
X94031027Y-46356372D01*
X93967571Y-46398772D01*
X93925171Y-46462228D01*
X93925170Y-46462229D01*
X93799596Y-46650164D01*
X93740611Y-46946701D01*
X93755500Y-47021553D01*
X93755500Y-50495547D01*
X93208108Y-49948155D01*
X92239634Y-49547000D01*
X91191366Y-49547000D01*
X90222892Y-49948155D01*
X89508000Y-50663047D01*
X89508000Y-43153813D01*
X90121792Y-43153813D01*
X90446117Y-43612872D01*
X91725125Y-44147938D01*
X93111536Y-44152819D01*
X94394280Y-43626772D01*
X94415083Y-43612872D01*
X94739408Y-43153813D01*
X92430600Y-40845005D01*
X90121792Y-43153813D01*
X89508000Y-43153813D01*
X89508000Y-42667455D01*
X89942187Y-42974208D01*
X92250995Y-40665400D01*
X92610205Y-40665400D01*
X94919013Y-42974208D01*
X95378072Y-42649883D01*
X95913138Y-41370875D01*
X95918019Y-39984464D01*
X95391972Y-38701720D01*
X95378072Y-38680917D01*
X94919013Y-38356592D01*
X92610205Y-40665400D01*
X92250995Y-40665400D01*
X89942187Y-38356592D01*
X89508000Y-38663345D01*
X89508000Y-37590400D01*
X90743997Y-37590400D01*
X90466920Y-37704028D01*
X90466920Y-37704028D01*
G37*
X90466920Y-37704028D02*
X90446117Y-37717928D01*
X90121792Y-38176987D01*
X92430600Y-40485795D01*
X94739408Y-38176987D01*
X94415083Y-37717928D01*
X94110243Y-37590400D01*
X144566597Y-37590400D01*
X144289520Y-37704028D01*
X144268717Y-37717928D01*
X143944392Y-38176987D01*
X146253200Y-40485795D01*
X148562008Y-38176987D01*
X148237683Y-37717928D01*
X147932843Y-37590400D01*
X149150400Y-37590400D01*
X149150400Y-38645400D01*
X148741613Y-38356592D01*
X146432805Y-40665400D01*
X148741613Y-42974208D01*
X149150400Y-42685400D01*
X149150401Y-62267400D01*
X148741613Y-61978592D01*
X146432805Y-64287400D01*
X148741613Y-66596208D01*
X149150401Y-66307399D01*
X149150401Y-67411006D01*
X147826701Y-67408783D01*
X148216880Y-67248772D01*
X148237683Y-67234872D01*
X148562008Y-66775813D01*
X146253200Y-64467005D01*
X143944392Y-66775813D01*
X144268717Y-67234872D01*
X144671764Y-67403485D01*
X94223596Y-67318769D01*
X94394280Y-67248772D01*
X94415083Y-67234872D01*
X94739408Y-66775813D01*
X92430600Y-64467005D01*
X90121792Y-66775813D01*
X90446117Y-67234872D01*
X90632246Y-67312738D01*
X89508000Y-67310850D01*
X89508000Y-66289455D01*
X89942187Y-66596208D01*
X92250995Y-64287400D01*
X92610205Y-64287400D01*
X94919013Y-66596208D01*
X95378072Y-66271883D01*
X95913138Y-64992875D01*
X95918019Y-63606464D01*
X95391972Y-62323720D01*
X95378072Y-62302917D01*
X94919013Y-61978592D01*
X92610205Y-64287400D01*
X92250995Y-64287400D01*
X89942187Y-61978592D01*
X89508000Y-62285345D01*
X89508000Y-61798987D01*
X90121792Y-61798987D01*
X92430600Y-64107795D01*
X94739408Y-61798987D01*
X94415083Y-61339928D01*
X93136075Y-60804862D01*
X91749664Y-60799981D01*
X90466920Y-61326028D01*
X90446117Y-61339928D01*
X90121792Y-61798987D01*
X89508000Y-61798987D01*
X89508000Y-53700953D01*
X90222892Y-54415845D01*
X91191366Y-54817000D01*
X92239634Y-54817000D01*
X93208108Y-54415845D01*
X93755499Y-53868454D01*
X93755499Y-57647000D01*
X93310170Y-57647000D01*
X92745993Y-57880690D01*
X92314190Y-58312493D01*
X92080500Y-58876670D01*
X92080500Y-59487330D01*
X92314190Y-60051507D01*
X92745993Y-60483310D01*
X93310170Y-60717000D01*
X93920830Y-60717000D01*
X94030339Y-60671640D01*
X99375171Y-66016473D01*
X99417571Y-66079929D01*
X99668963Y-66247904D01*
X99890648Y-66292000D01*
X99890652Y-66292000D01*
X99965499Y-66306888D01*
X100040346Y-66292000D01*
X100502746Y-66292000D01*
X100773615Y-66697385D01*
X101182127Y-66970344D01*
X101664000Y-67066195D01*
X102145872Y-66970344D01*
X102554385Y-66697385D01*
X102664000Y-66533334D01*
X102773615Y-66697385D01*
X103182127Y-66970344D01*
X103664000Y-67066195D01*
X104145872Y-66970344D01*
X104554385Y-66697385D01*
X104585428Y-66650926D01*
X104679414Y-66791586D01*
X104970564Y-66986127D01*
X105313999Y-67054440D01*
X106014001Y-67054440D01*
X106357436Y-66986127D01*
X106648586Y-66791586D01*
X106843127Y-66500436D01*
X106911440Y-66157001D01*
X106911440Y-64906999D01*
X106843127Y-64563564D01*
X106648586Y-64272414D01*
X106357436Y-64077873D01*
X106014001Y-64009560D01*
X105313999Y-64009560D01*
X105232561Y-64025759D01*
X100804330Y-59597529D01*
X100761928Y-59534070D01*
X100510536Y-59366095D01*
X100288851Y-59321999D01*
X100288846Y-59321999D01*
X100213999Y-59307111D01*
X100150500Y-59319742D01*
X100150500Y-58876670D01*
X107532166Y-58876670D01*
X107532166Y-59487330D01*
X107765856Y-60051507D01*
X108197659Y-60483310D01*
X108307166Y-60528669D01*
X108307167Y-63177781D01*
X108292278Y-63252633D01*
X108351263Y-63549170D01*
X108414709Y-63644123D01*
X108519238Y-63800562D01*
X108582694Y-63842962D01*
X110756204Y-66016473D01*
X110798604Y-66079929D01*
X110862060Y-66122329D01*
X111021215Y-66228673D01*
X111033189Y-66288872D01*
X111306148Y-66697385D01*
X111714660Y-66970344D01*
X112196533Y-67066195D01*
X112678405Y-66970344D01*
X113086918Y-66697385D01*
X113196533Y-66533334D01*
X113306148Y-66697385D01*
X113714660Y-66970344D01*
X114196533Y-67066195D01*
X114678405Y-66970344D01*
X115086918Y-66697385D01*
X115117961Y-66650926D01*
X115211947Y-66791586D01*
X115503097Y-66986127D01*
X115846532Y-67054440D01*
X116546534Y-67054440D01*
X116889969Y-66986127D01*
X117181119Y-66791586D01*
X117375660Y-66500436D01*
X117443973Y-66157001D01*
X117443973Y-64906999D01*
X117375660Y-64563564D01*
X117181119Y-64272414D01*
X116956533Y-64122350D01*
X116956533Y-61386215D01*
X116971421Y-61311367D01*
X116956533Y-61236519D01*
X116956533Y-61236515D01*
X116912437Y-61014830D01*
X116912437Y-61014829D01*
X116786862Y-60826894D01*
X116744462Y-60763438D01*
X116681006Y-60721038D01*
X115556806Y-59596839D01*
X115602166Y-59487330D01*
X115602166Y-58876670D01*
X115368476Y-58312493D01*
X114936673Y-57880690D01*
X114827376Y-57835418D01*
X114827166Y-57834360D01*
X114827166Y-57834356D01*
X114783070Y-57612671D01*
X114615095Y-57361279D01*
X114551636Y-57318877D01*
X114402165Y-57169406D01*
X114402165Y-54343452D01*
X114474558Y-54415845D01*
X115443032Y-54817000D01*
X116491300Y-54817000D01*
X117459774Y-54415845D01*
X118201011Y-53674608D01*
X118602166Y-52706134D01*
X118602166Y-51657866D01*
X119856832Y-51657866D01*
X119856832Y-52706134D01*
X120257987Y-53674608D01*
X120999224Y-54415845D01*
X121967698Y-54817000D01*
X123015966Y-54817000D01*
X123984440Y-54415845D01*
X124056833Y-54343452D01*
X124056833Y-57659289D01*
X123522325Y-57880690D01*
X123090522Y-58312493D01*
X122856832Y-58876670D01*
X122856832Y-59487330D01*
X122902192Y-59596839D01*
X122244594Y-60254437D01*
X122181138Y-60296837D01*
X122138738Y-60360293D01*
X122138737Y-60360294D01*
X122013163Y-60548229D01*
X121954178Y-60844766D01*
X121969067Y-60919618D01*
X121969066Y-64279495D01*
X121838682Y-64366615D01*
X121565722Y-64775127D01*
X121494066Y-65135364D01*
X121494066Y-65928635D01*
X121565722Y-66288872D01*
X121838681Y-66697385D01*
X122247193Y-66970344D01*
X122729066Y-67066195D01*
X123210938Y-66970344D01*
X123619451Y-66697385D01*
X123729066Y-66533334D01*
X123838681Y-66697385D01*
X124247193Y-66970344D01*
X124729066Y-67066195D01*
X125210938Y-66970344D01*
X125619451Y-66697385D01*
X125650494Y-66650926D01*
X125744480Y-66791586D01*
X126035630Y-66986127D01*
X126379065Y-67054440D01*
X127079067Y-67054440D01*
X127422502Y-66986127D01*
X127713652Y-66791586D01*
X127908193Y-66500436D01*
X127976506Y-66157001D01*
X127976506Y-65359361D01*
X128200503Y-65135364D01*
X132026600Y-65135364D01*
X132026600Y-65928635D01*
X132098256Y-66288872D01*
X132371215Y-66697385D01*
X132779727Y-66970344D01*
X133261600Y-67066195D01*
X133743472Y-66970344D01*
X134151985Y-66697385D01*
X134261600Y-66533334D01*
X134371215Y-66697385D01*
X134779727Y-66970344D01*
X135261600Y-67066195D01*
X135743472Y-66970344D01*
X136151985Y-66697385D01*
X136183028Y-66650926D01*
X136277014Y-66791586D01*
X136568164Y-66986127D01*
X136911599Y-67054440D01*
X137611601Y-67054440D01*
X137955036Y-66986127D01*
X138246186Y-66791586D01*
X138440727Y-66500436D01*
X138489101Y-66257240D01*
X138536037Y-66247904D01*
X138787429Y-66079929D01*
X138829831Y-66016470D01*
X139877965Y-64968336D01*
X142765781Y-64968336D01*
X143291828Y-66251080D01*
X143305728Y-66271883D01*
X143764787Y-66596208D01*
X146073595Y-64287400D01*
X143764787Y-61978592D01*
X143305728Y-62302917D01*
X142770662Y-63581925D01*
X142765781Y-64968336D01*
X139877965Y-64968336D01*
X143047314Y-61798987D01*
X143944392Y-61798987D01*
X146253200Y-64107795D01*
X148562008Y-61798987D01*
X148237683Y-61339928D01*
X146958675Y-60804862D01*
X145572264Y-60799981D01*
X144289520Y-61326028D01*
X144268717Y-61339928D01*
X143944392Y-61798987D01*
X143047314Y-61798987D01*
X144174662Y-60671640D01*
X144284170Y-60717000D01*
X144894830Y-60717000D01*
X145459007Y-60483310D01*
X145890810Y-60051507D01*
X146124500Y-59487330D01*
X146124500Y-58876670D01*
X145890810Y-58312493D01*
X145459007Y-57880690D01*
X144894830Y-57647000D01*
X144449501Y-57647000D01*
X144449501Y-53868454D01*
X144996892Y-54415845D01*
X145965366Y-54817000D01*
X147013634Y-54817000D01*
X147982108Y-54415845D01*
X148723345Y-53674608D01*
X149124500Y-52706134D01*
X149124500Y-51657866D01*
X148723345Y-50689392D01*
X147982108Y-49948155D01*
X147013634Y-49547000D01*
X145965366Y-49547000D01*
X144996892Y-49948155D01*
X144449501Y-50495546D01*
X144449501Y-46388947D01*
X144464389Y-46314100D01*
X144449501Y-46239253D01*
X144449501Y-46239249D01*
X144405405Y-46017564D01*
X144237430Y-45766172D01*
X144173974Y-45723772D01*
X141604015Y-43153813D01*
X143944392Y-43153813D01*
X144268717Y-43612872D01*
X145547725Y-44147938D01*
X146934136Y-44152819D01*
X148216880Y-43626772D01*
X148237683Y-43612872D01*
X148562008Y-43153813D01*
X146253200Y-40845005D01*
X143944392Y-43153813D01*
X141604015Y-43153813D01*
X141136974Y-42686773D01*
X141281526Y-42470435D01*
X141349840Y-42127000D01*
X141349840Y-41346336D01*
X142765781Y-41346336D01*
X143291828Y-42629080D01*
X143305728Y-42649883D01*
X143764787Y-42974208D01*
X146073595Y-40665400D01*
X143764787Y-38356592D01*
X143305728Y-38680917D01*
X142770662Y-39959925D01*
X142765781Y-41346336D01*
X141349840Y-41346336D01*
X141349840Y-40677000D01*
X141281526Y-40333565D01*
X141086986Y-40042414D01*
X140795835Y-39847874D01*
X140452400Y-39779560D01*
X139252400Y-39779560D01*
X138908965Y-39847874D01*
X138617814Y-40042414D01*
X138465642Y-40270156D01*
X138423025Y-40206375D01*
X137931818Y-39878161D01*
X137352400Y-39762908D01*
X136772983Y-39878161D01*
X136281775Y-40206375D01*
X136102400Y-40474829D01*
X135923025Y-40206375D01*
X135431818Y-39878161D01*
X134852400Y-39762908D01*
X134272983Y-39878161D01*
X133781775Y-40206375D01*
X133453561Y-40697582D01*
X133367400Y-41130744D01*
X133367400Y-41673255D01*
X133453561Y-42106417D01*
X133781775Y-42597625D01*
X134092400Y-42805178D01*
X134092401Y-54370048D01*
X134077512Y-54444900D01*
X134092401Y-54519752D01*
X134136497Y-54741437D01*
X134304472Y-54992829D01*
X134367928Y-55035229D01*
X138099860Y-58767162D01*
X138054500Y-58876670D01*
X138054500Y-59389297D01*
X133415401Y-64028398D01*
X133261600Y-63997805D01*
X132779728Y-64093656D01*
X132371216Y-64366615D01*
X132098256Y-64775127D01*
X132026600Y-65135364D01*
X128200503Y-65135364D01*
X129876305Y-63459563D01*
X129939761Y-63417163D01*
X130049697Y-63252633D01*
X130107736Y-63165772D01*
X130117312Y-63117629D01*
X130151832Y-62944086D01*
X130151832Y-62944082D01*
X130166720Y-62869234D01*
X130151832Y-62794386D01*
X130151832Y-60528669D01*
X130261339Y-60483310D01*
X130693142Y-60051507D01*
X130926832Y-59487330D01*
X130926832Y-58876670D01*
X130693142Y-58312493D01*
X130261339Y-57880690D01*
X129697162Y-57647000D01*
X129086502Y-57647000D01*
X128976993Y-57692360D01*
X128606666Y-57322033D01*
X128606666Y-51657866D01*
X128656832Y-51657866D01*
X128656832Y-52706134D01*
X129057987Y-53674608D01*
X129799224Y-54415845D01*
X130767698Y-54817000D01*
X131815966Y-54817000D01*
X132784440Y-54415845D01*
X133525677Y-53674608D01*
X133926832Y-52706134D01*
X133926832Y-51657866D01*
X133525677Y-50689392D01*
X132784440Y-49948155D01*
X131815966Y-49547000D01*
X130767698Y-49547000D01*
X129799224Y-49948155D01*
X129057987Y-50689392D01*
X128656832Y-51657866D01*
X128606666Y-51657866D01*
X128606666Y-42992614D01*
X128790101Y-42956126D01*
X129081252Y-42761586D01*
X129275792Y-42470435D01*
X129344106Y-42127000D01*
X129344106Y-40677000D01*
X129275792Y-40333565D01*
X129081252Y-40042414D01*
X128790101Y-39847874D01*
X128446666Y-39779560D01*
X127246666Y-39779560D01*
X126903231Y-39847874D01*
X126612080Y-40042414D01*
X126459908Y-40270156D01*
X126417291Y-40206375D01*
X125926084Y-39878161D01*
X125346666Y-39762908D01*
X124767249Y-39878161D01*
X124276041Y-40206375D01*
X124096666Y-40474829D01*
X123917291Y-40206375D01*
X123426084Y-39878161D01*
X122846666Y-39762908D01*
X122267249Y-39878161D01*
X121776041Y-40206375D01*
X121447827Y-40697582D01*
X121361666Y-41130744D01*
X121361666Y-41673255D01*
X121447827Y-42106417D01*
X121776041Y-42597625D01*
X122267248Y-42925839D01*
X122846666Y-43041092D01*
X123213074Y-42968209D01*
X124056834Y-43811970D01*
X124056834Y-50020549D01*
X123984440Y-49948155D01*
X123015966Y-49547000D01*
X121967698Y-49547000D01*
X120999224Y-49948155D01*
X120257987Y-50689392D01*
X119856832Y-51657866D01*
X118602166Y-51657866D01*
X118201011Y-50689392D01*
X117459774Y-49948155D01*
X116491300Y-49547000D01*
X115443032Y-49547000D01*
X114474558Y-49948155D01*
X114402165Y-50020548D01*
X114402165Y-43915569D01*
X115293295Y-43024440D01*
X116440933Y-43024440D01*
X116784368Y-42956126D01*
X117075519Y-42761586D01*
X117270059Y-42470435D01*
X117338373Y-42127000D01*
X117338373Y-40677000D01*
X117270059Y-40333565D01*
X117075519Y-40042414D01*
X116784368Y-39847874D01*
X116440933Y-39779560D01*
X115240933Y-39779560D01*
X114897498Y-39847874D01*
X114606347Y-40042414D01*
X114454175Y-40270156D01*
X114411558Y-40206375D01*
X113920351Y-39878161D01*
X113340933Y-39762908D01*
X112761516Y-39878161D01*
X112270308Y-40206375D01*
X112090933Y-40474829D01*
X111911558Y-40206375D01*
X111420351Y-39878161D01*
X110840933Y-39762908D01*
X110261516Y-39878161D01*
X109770308Y-40206375D01*
X109442094Y-40697582D01*
X109355933Y-41130744D01*
X109355933Y-41673255D01*
X109442094Y-42106417D01*
X109770308Y-42597625D01*
X110080934Y-42805179D01*
X110080933Y-57093430D01*
X109482004Y-57692360D01*
X109372496Y-57647000D01*
X108761836Y-57647000D01*
X108197659Y-57880690D01*
X107765856Y-58312493D01*
X107532166Y-58876670D01*
X100150500Y-58876670D01*
X99916810Y-58312493D01*
X99485007Y-57880690D01*
X98920830Y-57647000D01*
X98475501Y-57647000D01*
X98475501Y-53868454D01*
X99022892Y-54415845D01*
X99991366Y-54817000D01*
X101039634Y-54817000D01*
X102008108Y-54415845D01*
X102749345Y-53674608D01*
X103150500Y-52706134D01*
X103150500Y-51657866D01*
X104532166Y-51657866D01*
X104532166Y-52706134D01*
X104933321Y-53674608D01*
X105674558Y-54415845D01*
X106643032Y-54817000D01*
X107691300Y-54817000D01*
X108659774Y-54415845D01*
X109401011Y-53674608D01*
X109802166Y-52706134D01*
X109802166Y-51657866D01*
X109401011Y-50689392D01*
X108659774Y-49948155D01*
X107691300Y-49547000D01*
X106643032Y-49547000D01*
X105674558Y-49948155D01*
X104933321Y-50689392D01*
X104532166Y-51657866D01*
X103150500Y-51657866D01*
X102749345Y-50689392D01*
X102008108Y-49948155D01*
X101039634Y-49547000D01*
X99991366Y-49547000D01*
X99022892Y-49948155D01*
X98475501Y-50495546D01*
X98475501Y-47836500D01*
X103287563Y-43024440D01*
X104435200Y-43024440D01*
X104778635Y-42956126D01*
X105069786Y-42761586D01*
X105264326Y-42470435D01*
X105332640Y-42127000D01*
X105332640Y-40677000D01*
X105264326Y-40333565D01*
X105069786Y-40042414D01*
X104778635Y-39847874D01*
X104435200Y-39779560D01*
X103235200Y-39779560D01*
X102891765Y-39847874D01*
X102600614Y-40042414D01*
X102448442Y-40270156D01*
X102405825Y-40206375D01*
X101914618Y-39878161D01*
X101335200Y-39762908D01*
X100755783Y-39878161D01*
X100264575Y-40206375D01*
X100085200Y-40474829D01*
X99905825Y-40206375D01*
X99414618Y-39878161D01*
X98835200Y-39762908D01*
X98255783Y-39878161D01*
X97764575Y-40206375D01*
X97436361Y-40697582D01*
X97350200Y-41130744D01*
X97350200Y-41673255D01*
X97436361Y-42106417D01*
X97764575Y-42597625D01*
X97779680Y-42607718D01*
X94031027Y-46356372D01*
X93967571Y-46398772D01*
X93925171Y-46462228D01*
X93925170Y-46462229D01*
X93799596Y-46650164D01*
X93740611Y-46946701D01*
X93755500Y-47021553D01*
X93755500Y-50495547D01*
X93208108Y-49948155D01*
X92239634Y-49547000D01*
X91191366Y-49547000D01*
X90222892Y-49948155D01*
X89508000Y-50663047D01*
X89508000Y-43153813D01*
X90121792Y-43153813D01*
X90446117Y-43612872D01*
X91725125Y-44147938D01*
X93111536Y-44152819D01*
X94394280Y-43626772D01*
X94415083Y-43612872D01*
X94739408Y-43153813D01*
X92430600Y-40845005D01*
X90121792Y-43153813D01*
X89508000Y-43153813D01*
X89508000Y-42667455D01*
X89942187Y-42974208D01*
X92250995Y-40665400D01*
X92610205Y-40665400D01*
X94919013Y-42974208D01*
X95378072Y-42649883D01*
X95913138Y-41370875D01*
X95918019Y-39984464D01*
X95391972Y-38701720D01*
X95378072Y-38680917D01*
X94919013Y-38356592D01*
X92610205Y-40665400D01*
X92250995Y-40665400D01*
X89942187Y-38356592D01*
X89508000Y-38663345D01*
X89508000Y-37590400D01*
X90743997Y-37590400D01*
X90466920Y-37704028D01*
G04 #@! TD*
M02*
