M48
INCH,TZ
T1C0.0295
T2C0.0374
T3C0.0394
T4C0.1260
%
G90
G05
T1
X52465Y-25800
X53253Y-25800
X54040Y-25800
X48319Y-25800
X49106Y-25800
X49893Y-25800
X44172Y-25800
X44959Y-25800
X45747Y-25800
X40025Y-25800
X40813Y-25800
X41600Y-25800
T2
X48365Y-16300
X49349Y-16300
X50333Y-16300
X43638Y-16300
X44622Y-16300
X45607Y-16300
X53091Y-16300
X54076Y-16300
X55060Y-16300
X38911Y-16300
X39896Y-16300
X40880Y-16300
T3
X36856Y-23300
X37841Y-23300
X38825Y-23300
X48973Y-23300
X49957Y-23300
X50942Y-23300
X54956Y-23300
X55941Y-23300
X56925Y-23300
X42940Y-23300
X43924Y-23300
X44908Y-23300
T4
X57580Y-25310
X57580Y-16010
X36390Y-25310
X36390Y-16010
T0
M30
