G04 #@! TF.GenerationSoftware,KiCad,Pcbnew,(5.0.1)-rc2*
G04 #@! TF.CreationDate,2019-01-13T21:26:45-05:00*
G04 #@! TF.ProjectId,pot_board,706F745F626F6172642E6B696361645F,rev?*
G04 #@! TF.SameCoordinates,Original*
G04 #@! TF.FileFunction,Soldermask,Top*
G04 #@! TF.FilePolarity,Negative*
%FSLAX46Y46*%
G04 Gerber Fmt 4.6, Leading zero omitted, Abs format (unit mm)*
G04 Created by KiCad (PCBNEW (5.0.1)-rc2) date 1/13/2019 9:26:45 PM*
%MOMM*%
%LPD*%
G01*
G04 APERTURE LIST*
%ADD10C,0.100000*%
G04 APERTURE END LIST*
D10*
G36*
X147099390Y-61497883D02*
X147627338Y-61716566D01*
X148102483Y-62034048D01*
X148506552Y-62438117D01*
X148824034Y-62913262D01*
X149042717Y-63441210D01*
X149154200Y-64001675D01*
X149154200Y-64573125D01*
X149042717Y-65133590D01*
X148824034Y-65661538D01*
X148506552Y-66136683D01*
X148102483Y-66540752D01*
X147627338Y-66858234D01*
X147099390Y-67076917D01*
X146538925Y-67188400D01*
X145967475Y-67188400D01*
X145407010Y-67076917D01*
X144879062Y-66858234D01*
X144403917Y-66540752D01*
X143999848Y-66136683D01*
X143682366Y-65661538D01*
X143463683Y-65133590D01*
X143352200Y-64573125D01*
X143352200Y-64001675D01*
X143463683Y-63441210D01*
X143682366Y-62913262D01*
X143999848Y-62438117D01*
X144403917Y-62034048D01*
X144879062Y-61716566D01*
X145407010Y-61497883D01*
X145967475Y-61386400D01*
X146538925Y-61386400D01*
X147099390Y-61497883D01*
X147099390Y-61497883D01*
G37*
G36*
X93276790Y-61497883D02*
X93804738Y-61716566D01*
X94279883Y-62034048D01*
X94683952Y-62438117D01*
X95001434Y-62913262D01*
X95220117Y-63441210D01*
X95331600Y-64001675D01*
X95331600Y-64573125D01*
X95220117Y-65133590D01*
X95001434Y-65661538D01*
X94683952Y-66136683D01*
X94279883Y-66540752D01*
X93804738Y-66858234D01*
X93276790Y-67076917D01*
X92716325Y-67188400D01*
X92144875Y-67188400D01*
X91584410Y-67076917D01*
X91056462Y-66858234D01*
X90581317Y-66540752D01*
X90177248Y-66136683D01*
X89859766Y-65661538D01*
X89641083Y-65133590D01*
X89529600Y-64573125D01*
X89529600Y-64001675D01*
X89641083Y-63441210D01*
X89859766Y-62913262D01*
X90177248Y-62438117D01*
X90581317Y-62034048D01*
X91056462Y-61716566D01*
X91584410Y-61497883D01*
X92144875Y-61386400D01*
X92716325Y-61386400D01*
X93276790Y-61497883D01*
X93276790Y-61497883D01*
G37*
G36*
X101791618Y-64615420D02*
X101873427Y-64640237D01*
X101914333Y-64652645D01*
X101992600Y-64694480D01*
X102027426Y-64713095D01*
X102126553Y-64794447D01*
X102207905Y-64893574D01*
X102207906Y-64893576D01*
X102268355Y-65006667D01*
X102268355Y-65006668D01*
X102305580Y-65129382D01*
X102315000Y-65225027D01*
X102315000Y-65838973D01*
X102305580Y-65934618D01*
X102280763Y-66016427D01*
X102268355Y-66057333D01*
X102225943Y-66136680D01*
X102207905Y-66170426D01*
X102126553Y-66269553D01*
X102126551Y-66269555D01*
X102091595Y-66298242D01*
X102027425Y-66350905D01*
X101975699Y-66378553D01*
X101914332Y-66411355D01*
X101873426Y-66423763D01*
X101791617Y-66448580D01*
X101664000Y-66461149D01*
X101536382Y-66448580D01*
X101454573Y-66423763D01*
X101413667Y-66411355D01*
X101300576Y-66350906D01*
X101300574Y-66350905D01*
X101201447Y-66269553D01*
X101120095Y-66170425D01*
X101059646Y-66057333D01*
X101059645Y-66057332D01*
X101047237Y-66016426D01*
X101022420Y-65934617D01*
X101013000Y-65838972D01*
X101013000Y-65225027D01*
X101022420Y-65129382D01*
X101059645Y-65006668D01*
X101059645Y-65006667D01*
X101079795Y-64968970D01*
X101120095Y-64893574D01*
X101201448Y-64794447D01*
X101300575Y-64713095D01*
X101335401Y-64694480D01*
X101413668Y-64652645D01*
X101454574Y-64640237D01*
X101536383Y-64615420D01*
X101664000Y-64602851D01*
X101791618Y-64615420D01*
X101791618Y-64615420D01*
G37*
G36*
X133389218Y-64615420D02*
X133471027Y-64640237D01*
X133511933Y-64652645D01*
X133590200Y-64694480D01*
X133625026Y-64713095D01*
X133724153Y-64794447D01*
X133805505Y-64893574D01*
X133805506Y-64893576D01*
X133865955Y-65006667D01*
X133865955Y-65006668D01*
X133903180Y-65129382D01*
X133912600Y-65225027D01*
X133912600Y-65838973D01*
X133903180Y-65934618D01*
X133878363Y-66016427D01*
X133865955Y-66057333D01*
X133823543Y-66136680D01*
X133805505Y-66170426D01*
X133724153Y-66269553D01*
X133724151Y-66269555D01*
X133689195Y-66298242D01*
X133625025Y-66350905D01*
X133573299Y-66378553D01*
X133511932Y-66411355D01*
X133471026Y-66423763D01*
X133389217Y-66448580D01*
X133261600Y-66461149D01*
X133133982Y-66448580D01*
X133052173Y-66423763D01*
X133011267Y-66411355D01*
X132898176Y-66350906D01*
X132898174Y-66350905D01*
X132799047Y-66269553D01*
X132717695Y-66170425D01*
X132657246Y-66057333D01*
X132657245Y-66057332D01*
X132644837Y-66016426D01*
X132620020Y-65934617D01*
X132610600Y-65838972D01*
X132610600Y-65225027D01*
X132620020Y-65129382D01*
X132657245Y-65006668D01*
X132657245Y-65006667D01*
X132677395Y-64968970D01*
X132717695Y-64893574D01*
X132799048Y-64794447D01*
X132898175Y-64713095D01*
X132933001Y-64694480D01*
X133011268Y-64652645D01*
X133052174Y-64640237D01*
X133133983Y-64615420D01*
X133261600Y-64602851D01*
X133389218Y-64615420D01*
X133389218Y-64615420D01*
G37*
G36*
X135389218Y-64615420D02*
X135471027Y-64640237D01*
X135511933Y-64652645D01*
X135590200Y-64694480D01*
X135625026Y-64713095D01*
X135724153Y-64794447D01*
X135805505Y-64893574D01*
X135805506Y-64893576D01*
X135865955Y-65006667D01*
X135865955Y-65006668D01*
X135903180Y-65129382D01*
X135912600Y-65225027D01*
X135912600Y-65838973D01*
X135903180Y-65934618D01*
X135878363Y-66016427D01*
X135865955Y-66057333D01*
X135823543Y-66136680D01*
X135805505Y-66170426D01*
X135724153Y-66269553D01*
X135724151Y-66269555D01*
X135689195Y-66298242D01*
X135625025Y-66350905D01*
X135573299Y-66378553D01*
X135511932Y-66411355D01*
X135471026Y-66423763D01*
X135389217Y-66448580D01*
X135261600Y-66461149D01*
X135133982Y-66448580D01*
X135052173Y-66423763D01*
X135011267Y-66411355D01*
X134898176Y-66350906D01*
X134898174Y-66350905D01*
X134799047Y-66269553D01*
X134717695Y-66170425D01*
X134657246Y-66057333D01*
X134657245Y-66057332D01*
X134644837Y-66016426D01*
X134620020Y-65934617D01*
X134610600Y-65838972D01*
X134610600Y-65225027D01*
X134620020Y-65129382D01*
X134657245Y-65006668D01*
X134657245Y-65006667D01*
X134677395Y-64968970D01*
X134717695Y-64893574D01*
X134799048Y-64794447D01*
X134898175Y-64713095D01*
X134933001Y-64694480D01*
X135011268Y-64652645D01*
X135052174Y-64640237D01*
X135133983Y-64615420D01*
X135261600Y-64602851D01*
X135389218Y-64615420D01*
X135389218Y-64615420D01*
G37*
G36*
X124856684Y-64615420D02*
X124938493Y-64640237D01*
X124979399Y-64652645D01*
X125057666Y-64694480D01*
X125092492Y-64713095D01*
X125191619Y-64794447D01*
X125272971Y-64893574D01*
X125272972Y-64893576D01*
X125333421Y-65006667D01*
X125333421Y-65006668D01*
X125370646Y-65129382D01*
X125380066Y-65225027D01*
X125380066Y-65838973D01*
X125370646Y-65934618D01*
X125345829Y-66016427D01*
X125333421Y-66057333D01*
X125291009Y-66136680D01*
X125272971Y-66170426D01*
X125191619Y-66269553D01*
X125191617Y-66269555D01*
X125156661Y-66298242D01*
X125092491Y-66350905D01*
X125040765Y-66378553D01*
X124979398Y-66411355D01*
X124938492Y-66423763D01*
X124856683Y-66448580D01*
X124729066Y-66461149D01*
X124601448Y-66448580D01*
X124519639Y-66423763D01*
X124478733Y-66411355D01*
X124365642Y-66350906D01*
X124365640Y-66350905D01*
X124266513Y-66269553D01*
X124185161Y-66170425D01*
X124124712Y-66057333D01*
X124124711Y-66057332D01*
X124112303Y-66016426D01*
X124087486Y-65934617D01*
X124078066Y-65838972D01*
X124078066Y-65225027D01*
X124087486Y-65129382D01*
X124124711Y-65006668D01*
X124124711Y-65006667D01*
X124144861Y-64968970D01*
X124185161Y-64893574D01*
X124266514Y-64794447D01*
X124365641Y-64713095D01*
X124400467Y-64694480D01*
X124478734Y-64652645D01*
X124519640Y-64640237D01*
X124601449Y-64615420D01*
X124729066Y-64602851D01*
X124856684Y-64615420D01*
X124856684Y-64615420D01*
G37*
G36*
X122856684Y-64615420D02*
X122938493Y-64640237D01*
X122979399Y-64652645D01*
X123057666Y-64694480D01*
X123092492Y-64713095D01*
X123191619Y-64794447D01*
X123272971Y-64893574D01*
X123272972Y-64893576D01*
X123333421Y-65006667D01*
X123333421Y-65006668D01*
X123370646Y-65129382D01*
X123380066Y-65225027D01*
X123380066Y-65838973D01*
X123370646Y-65934618D01*
X123345829Y-66016427D01*
X123333421Y-66057333D01*
X123291009Y-66136680D01*
X123272971Y-66170426D01*
X123191619Y-66269553D01*
X123191617Y-66269555D01*
X123156661Y-66298242D01*
X123092491Y-66350905D01*
X123040765Y-66378553D01*
X122979398Y-66411355D01*
X122938492Y-66423763D01*
X122856683Y-66448580D01*
X122729066Y-66461149D01*
X122601448Y-66448580D01*
X122519639Y-66423763D01*
X122478733Y-66411355D01*
X122365642Y-66350906D01*
X122365640Y-66350905D01*
X122266513Y-66269553D01*
X122185161Y-66170425D01*
X122124712Y-66057333D01*
X122124711Y-66057332D01*
X122112303Y-66016426D01*
X122087486Y-65934617D01*
X122078066Y-65838972D01*
X122078066Y-65225027D01*
X122087486Y-65129382D01*
X122124711Y-65006668D01*
X122124711Y-65006667D01*
X122144861Y-64968970D01*
X122185161Y-64893574D01*
X122266514Y-64794447D01*
X122365641Y-64713095D01*
X122400467Y-64694480D01*
X122478734Y-64652645D01*
X122519640Y-64640237D01*
X122601449Y-64615420D01*
X122729066Y-64602851D01*
X122856684Y-64615420D01*
X122856684Y-64615420D01*
G37*
G36*
X112324151Y-64615420D02*
X112405960Y-64640237D01*
X112446866Y-64652645D01*
X112525133Y-64694480D01*
X112559959Y-64713095D01*
X112659086Y-64794447D01*
X112740438Y-64893574D01*
X112740439Y-64893576D01*
X112800888Y-65006667D01*
X112800888Y-65006668D01*
X112838113Y-65129382D01*
X112847533Y-65225027D01*
X112847533Y-65838973D01*
X112838113Y-65934618D01*
X112813296Y-66016427D01*
X112800888Y-66057333D01*
X112758476Y-66136680D01*
X112740438Y-66170426D01*
X112659086Y-66269553D01*
X112659084Y-66269555D01*
X112624128Y-66298242D01*
X112559958Y-66350905D01*
X112508232Y-66378553D01*
X112446865Y-66411355D01*
X112405959Y-66423763D01*
X112324150Y-66448580D01*
X112196533Y-66461149D01*
X112068915Y-66448580D01*
X111987106Y-66423763D01*
X111946200Y-66411355D01*
X111833109Y-66350906D01*
X111833107Y-66350905D01*
X111733980Y-66269553D01*
X111652628Y-66170425D01*
X111592179Y-66057333D01*
X111592178Y-66057332D01*
X111579770Y-66016426D01*
X111554953Y-65934617D01*
X111545533Y-65838972D01*
X111545533Y-65225027D01*
X111554953Y-65129382D01*
X111592178Y-65006668D01*
X111592178Y-65006667D01*
X111612328Y-64968970D01*
X111652628Y-64893574D01*
X111733981Y-64794447D01*
X111833108Y-64713095D01*
X111867934Y-64694480D01*
X111946201Y-64652645D01*
X111987107Y-64640237D01*
X112068916Y-64615420D01*
X112196533Y-64602851D01*
X112324151Y-64615420D01*
X112324151Y-64615420D01*
G37*
G36*
X114324151Y-64615420D02*
X114405960Y-64640237D01*
X114446866Y-64652645D01*
X114525133Y-64694480D01*
X114559959Y-64713095D01*
X114659086Y-64794447D01*
X114740438Y-64893574D01*
X114740439Y-64893576D01*
X114800888Y-65006667D01*
X114800888Y-65006668D01*
X114838113Y-65129382D01*
X114847533Y-65225027D01*
X114847533Y-65838973D01*
X114838113Y-65934618D01*
X114813296Y-66016427D01*
X114800888Y-66057333D01*
X114758476Y-66136680D01*
X114740438Y-66170426D01*
X114659086Y-66269553D01*
X114659084Y-66269555D01*
X114624128Y-66298242D01*
X114559958Y-66350905D01*
X114508232Y-66378553D01*
X114446865Y-66411355D01*
X114405959Y-66423763D01*
X114324150Y-66448580D01*
X114196533Y-66461149D01*
X114068915Y-66448580D01*
X113987106Y-66423763D01*
X113946200Y-66411355D01*
X113833109Y-66350906D01*
X113833107Y-66350905D01*
X113733980Y-66269553D01*
X113652628Y-66170425D01*
X113592179Y-66057333D01*
X113592178Y-66057332D01*
X113579770Y-66016426D01*
X113554953Y-65934617D01*
X113545533Y-65838972D01*
X113545533Y-65225027D01*
X113554953Y-65129382D01*
X113592178Y-65006668D01*
X113592178Y-65006667D01*
X113612328Y-64968970D01*
X113652628Y-64893574D01*
X113733981Y-64794447D01*
X113833108Y-64713095D01*
X113867934Y-64694480D01*
X113946201Y-64652645D01*
X113987107Y-64640237D01*
X114068916Y-64615420D01*
X114196533Y-64602851D01*
X114324151Y-64615420D01*
X114324151Y-64615420D01*
G37*
G36*
X103791618Y-64615420D02*
X103873427Y-64640237D01*
X103914333Y-64652645D01*
X103992600Y-64694480D01*
X104027426Y-64713095D01*
X104126553Y-64794447D01*
X104207905Y-64893574D01*
X104207906Y-64893576D01*
X104268355Y-65006667D01*
X104268355Y-65006668D01*
X104305580Y-65129382D01*
X104315000Y-65225027D01*
X104315000Y-65838973D01*
X104305580Y-65934618D01*
X104280763Y-66016427D01*
X104268355Y-66057333D01*
X104225943Y-66136680D01*
X104207905Y-66170426D01*
X104126553Y-66269553D01*
X104126551Y-66269555D01*
X104091595Y-66298242D01*
X104027425Y-66350905D01*
X103975699Y-66378553D01*
X103914332Y-66411355D01*
X103873426Y-66423763D01*
X103791617Y-66448580D01*
X103664000Y-66461149D01*
X103536382Y-66448580D01*
X103454573Y-66423763D01*
X103413667Y-66411355D01*
X103300576Y-66350906D01*
X103300574Y-66350905D01*
X103201447Y-66269553D01*
X103120095Y-66170425D01*
X103059646Y-66057333D01*
X103059645Y-66057332D01*
X103047237Y-66016426D01*
X103022420Y-65934617D01*
X103013000Y-65838972D01*
X103013000Y-65225027D01*
X103022420Y-65129382D01*
X103059645Y-65006668D01*
X103059645Y-65006667D01*
X103079795Y-64968970D01*
X103120095Y-64893574D01*
X103201448Y-64794447D01*
X103300575Y-64713095D01*
X103335401Y-64694480D01*
X103413668Y-64652645D01*
X103454574Y-64640237D01*
X103536383Y-64615420D01*
X103664000Y-64602851D01*
X103791618Y-64615420D01*
X103791618Y-64615420D01*
G37*
G36*
X106155242Y-64610404D02*
X106192339Y-64621657D01*
X106226520Y-64639927D01*
X106256482Y-64664518D01*
X106281073Y-64694480D01*
X106299343Y-64728661D01*
X106310596Y-64765758D01*
X106315000Y-64810473D01*
X106315000Y-66253527D01*
X106310596Y-66298242D01*
X106299343Y-66335339D01*
X106281073Y-66369520D01*
X106256482Y-66399482D01*
X106226520Y-66424073D01*
X106192339Y-66442343D01*
X106155242Y-66453596D01*
X106110527Y-66458000D01*
X105217473Y-66458000D01*
X105172758Y-66453596D01*
X105135661Y-66442343D01*
X105101480Y-66424073D01*
X105071518Y-66399482D01*
X105046927Y-66369520D01*
X105028657Y-66335339D01*
X105017404Y-66298242D01*
X105013000Y-66253527D01*
X105013000Y-64810473D01*
X105017404Y-64765758D01*
X105028657Y-64728661D01*
X105046927Y-64694480D01*
X105071518Y-64664518D01*
X105101480Y-64639927D01*
X105135661Y-64621657D01*
X105172758Y-64610404D01*
X105217473Y-64606000D01*
X106110527Y-64606000D01*
X106155242Y-64610404D01*
X106155242Y-64610404D01*
G37*
G36*
X137752842Y-64610404D02*
X137789939Y-64621657D01*
X137824120Y-64639927D01*
X137854082Y-64664518D01*
X137878673Y-64694480D01*
X137896943Y-64728661D01*
X137908196Y-64765758D01*
X137912600Y-64810473D01*
X137912600Y-66253527D01*
X137908196Y-66298242D01*
X137896943Y-66335339D01*
X137878673Y-66369520D01*
X137854082Y-66399482D01*
X137824120Y-66424073D01*
X137789939Y-66442343D01*
X137752842Y-66453596D01*
X137708127Y-66458000D01*
X136815073Y-66458000D01*
X136770358Y-66453596D01*
X136733261Y-66442343D01*
X136699080Y-66424073D01*
X136669118Y-66399482D01*
X136644527Y-66369520D01*
X136626257Y-66335339D01*
X136615004Y-66298242D01*
X136610600Y-66253527D01*
X136610600Y-64810473D01*
X136615004Y-64765758D01*
X136626257Y-64728661D01*
X136644527Y-64694480D01*
X136669118Y-64664518D01*
X136699080Y-64639927D01*
X136733261Y-64621657D01*
X136770358Y-64610404D01*
X136815073Y-64606000D01*
X137708127Y-64606000D01*
X137752842Y-64610404D01*
X137752842Y-64610404D01*
G37*
G36*
X127220308Y-64610404D02*
X127257405Y-64621657D01*
X127291586Y-64639927D01*
X127321548Y-64664518D01*
X127346139Y-64694480D01*
X127364409Y-64728661D01*
X127375662Y-64765758D01*
X127380066Y-64810473D01*
X127380066Y-66253527D01*
X127375662Y-66298242D01*
X127364409Y-66335339D01*
X127346139Y-66369520D01*
X127321548Y-66399482D01*
X127291586Y-66424073D01*
X127257405Y-66442343D01*
X127220308Y-66453596D01*
X127175593Y-66458000D01*
X126282539Y-66458000D01*
X126237824Y-66453596D01*
X126200727Y-66442343D01*
X126166546Y-66424073D01*
X126136584Y-66399482D01*
X126111993Y-66369520D01*
X126093723Y-66335339D01*
X126082470Y-66298242D01*
X126078066Y-66253527D01*
X126078066Y-64810473D01*
X126082470Y-64765758D01*
X126093723Y-64728661D01*
X126111993Y-64694480D01*
X126136584Y-64664518D01*
X126166546Y-64639927D01*
X126200727Y-64621657D01*
X126237824Y-64610404D01*
X126282539Y-64606000D01*
X127175593Y-64606000D01*
X127220308Y-64610404D01*
X127220308Y-64610404D01*
G37*
G36*
X116687775Y-64610404D02*
X116724872Y-64621657D01*
X116759053Y-64639927D01*
X116789015Y-64664518D01*
X116813606Y-64694480D01*
X116831876Y-64728661D01*
X116843129Y-64765758D01*
X116847533Y-64810473D01*
X116847533Y-66253527D01*
X116843129Y-66298242D01*
X116831876Y-66335339D01*
X116813606Y-66369520D01*
X116789015Y-66399482D01*
X116759053Y-66424073D01*
X116724872Y-66442343D01*
X116687775Y-66453596D01*
X116643060Y-66458000D01*
X115750006Y-66458000D01*
X115705291Y-66453596D01*
X115668194Y-66442343D01*
X115634013Y-66424073D01*
X115604051Y-66399482D01*
X115579460Y-66369520D01*
X115561190Y-66335339D01*
X115549937Y-66298242D01*
X115545533Y-66253527D01*
X115545533Y-64810473D01*
X115549937Y-64765758D01*
X115561190Y-64728661D01*
X115579460Y-64694480D01*
X115604051Y-64664518D01*
X115634013Y-64639927D01*
X115668194Y-64621657D01*
X115705291Y-64610404D01*
X115750006Y-64606000D01*
X116643060Y-64606000D01*
X116687775Y-64610404D01*
X116687775Y-64610404D01*
G37*
G36*
X142366896Y-58267546D02*
X142539966Y-58339234D01*
X142695730Y-58443312D01*
X142828188Y-58575770D01*
X142932266Y-58731534D01*
X143003954Y-58904604D01*
X143040500Y-59088333D01*
X143040500Y-59275667D01*
X143003954Y-59459396D01*
X142932266Y-59632466D01*
X142828188Y-59788230D01*
X142695730Y-59920688D01*
X142539966Y-60024766D01*
X142366896Y-60096454D01*
X142183167Y-60133000D01*
X141995833Y-60133000D01*
X141812104Y-60096454D01*
X141639034Y-60024766D01*
X141483270Y-59920688D01*
X141350812Y-59788230D01*
X141246734Y-59632466D01*
X141175046Y-59459396D01*
X141138500Y-59275667D01*
X141138500Y-59088333D01*
X141175046Y-58904604D01*
X141246734Y-58731534D01*
X141350812Y-58575770D01*
X141483270Y-58443312D01*
X141639034Y-58339234D01*
X141812104Y-58267546D01*
X141995833Y-58231000D01*
X142183167Y-58231000D01*
X142366896Y-58267546D01*
X142366896Y-58267546D01*
G37*
G36*
X144866896Y-58267546D02*
X145039966Y-58339234D01*
X145195730Y-58443312D01*
X145328188Y-58575770D01*
X145432266Y-58731534D01*
X145503954Y-58904604D01*
X145540500Y-59088333D01*
X145540500Y-59275667D01*
X145503954Y-59459396D01*
X145432266Y-59632466D01*
X145328188Y-59788230D01*
X145195730Y-59920688D01*
X145039966Y-60024766D01*
X144866896Y-60096454D01*
X144683167Y-60133000D01*
X144495833Y-60133000D01*
X144312104Y-60096454D01*
X144139034Y-60024766D01*
X143983270Y-59920688D01*
X143850812Y-59788230D01*
X143746734Y-59632466D01*
X143675046Y-59459396D01*
X143638500Y-59275667D01*
X143638500Y-59088333D01*
X143675046Y-58904604D01*
X143746734Y-58731534D01*
X143850812Y-58575770D01*
X143983270Y-58443312D01*
X144139034Y-58339234D01*
X144312104Y-58267546D01*
X144495833Y-58231000D01*
X144683167Y-58231000D01*
X144866896Y-58267546D01*
X144866896Y-58267546D01*
G37*
G36*
X124669228Y-58267546D02*
X124842298Y-58339234D01*
X124998062Y-58443312D01*
X125130520Y-58575770D01*
X125234598Y-58731534D01*
X125306286Y-58904604D01*
X125342832Y-59088333D01*
X125342832Y-59275667D01*
X125306286Y-59459396D01*
X125234598Y-59632466D01*
X125130520Y-59788230D01*
X124998062Y-59920688D01*
X124842298Y-60024766D01*
X124669228Y-60096454D01*
X124485499Y-60133000D01*
X124298165Y-60133000D01*
X124114436Y-60096454D01*
X123941366Y-60024766D01*
X123785602Y-59920688D01*
X123653144Y-59788230D01*
X123549066Y-59632466D01*
X123477378Y-59459396D01*
X123440832Y-59275667D01*
X123440832Y-59088333D01*
X123477378Y-58904604D01*
X123549066Y-58731534D01*
X123653144Y-58575770D01*
X123785602Y-58443312D01*
X123941366Y-58339234D01*
X124114436Y-58267546D01*
X124298165Y-58231000D01*
X124485499Y-58231000D01*
X124669228Y-58267546D01*
X124669228Y-58267546D01*
G37*
G36*
X127169228Y-58267546D02*
X127342298Y-58339234D01*
X127498062Y-58443312D01*
X127630520Y-58575770D01*
X127734598Y-58731534D01*
X127806286Y-58904604D01*
X127842832Y-59088333D01*
X127842832Y-59275667D01*
X127806286Y-59459396D01*
X127734598Y-59632466D01*
X127630520Y-59788230D01*
X127498062Y-59920688D01*
X127342298Y-60024766D01*
X127169228Y-60096454D01*
X126985499Y-60133000D01*
X126798165Y-60133000D01*
X126614436Y-60096454D01*
X126441366Y-60024766D01*
X126285602Y-59920688D01*
X126153144Y-59788230D01*
X126049066Y-59632466D01*
X125977378Y-59459396D01*
X125940832Y-59275667D01*
X125940832Y-59088333D01*
X125977378Y-58904604D01*
X126049066Y-58731534D01*
X126153144Y-58575770D01*
X126285602Y-58443312D01*
X126441366Y-58339234D01*
X126614436Y-58267546D01*
X126798165Y-58231000D01*
X126985499Y-58231000D01*
X127169228Y-58267546D01*
X127169228Y-58267546D01*
G37*
G36*
X129669228Y-58267546D02*
X129842298Y-58339234D01*
X129998062Y-58443312D01*
X130130520Y-58575770D01*
X130234598Y-58731534D01*
X130306286Y-58904604D01*
X130342832Y-59088333D01*
X130342832Y-59275667D01*
X130306286Y-59459396D01*
X130234598Y-59632466D01*
X130130520Y-59788230D01*
X129998062Y-59920688D01*
X129842298Y-60024766D01*
X129669228Y-60096454D01*
X129485499Y-60133000D01*
X129298165Y-60133000D01*
X129114436Y-60096454D01*
X128941366Y-60024766D01*
X128785602Y-59920688D01*
X128653144Y-59788230D01*
X128549066Y-59632466D01*
X128477378Y-59459396D01*
X128440832Y-59275667D01*
X128440832Y-59088333D01*
X128477378Y-58904604D01*
X128549066Y-58731534D01*
X128653144Y-58575770D01*
X128785602Y-58443312D01*
X128941366Y-58339234D01*
X129114436Y-58267546D01*
X129298165Y-58231000D01*
X129485499Y-58231000D01*
X129669228Y-58267546D01*
X129669228Y-58267546D01*
G37*
G36*
X114344562Y-58267546D02*
X114517632Y-58339234D01*
X114673396Y-58443312D01*
X114805854Y-58575770D01*
X114909932Y-58731534D01*
X114981620Y-58904604D01*
X115018166Y-59088333D01*
X115018166Y-59275667D01*
X114981620Y-59459396D01*
X114909932Y-59632466D01*
X114805854Y-59788230D01*
X114673396Y-59920688D01*
X114517632Y-60024766D01*
X114344562Y-60096454D01*
X114160833Y-60133000D01*
X113973499Y-60133000D01*
X113789770Y-60096454D01*
X113616700Y-60024766D01*
X113460936Y-59920688D01*
X113328478Y-59788230D01*
X113224400Y-59632466D01*
X113152712Y-59459396D01*
X113116166Y-59275667D01*
X113116166Y-59088333D01*
X113152712Y-58904604D01*
X113224400Y-58731534D01*
X113328478Y-58575770D01*
X113460936Y-58443312D01*
X113616700Y-58339234D01*
X113789770Y-58267546D01*
X113973499Y-58231000D01*
X114160833Y-58231000D01*
X114344562Y-58267546D01*
X114344562Y-58267546D01*
G37*
G36*
X109344562Y-58267546D02*
X109517632Y-58339234D01*
X109673396Y-58443312D01*
X109805854Y-58575770D01*
X109909932Y-58731534D01*
X109981620Y-58904604D01*
X110018166Y-59088333D01*
X110018166Y-59275667D01*
X109981620Y-59459396D01*
X109909932Y-59632466D01*
X109805854Y-59788230D01*
X109673396Y-59920688D01*
X109517632Y-60024766D01*
X109344562Y-60096454D01*
X109160833Y-60133000D01*
X108973499Y-60133000D01*
X108789770Y-60096454D01*
X108616700Y-60024766D01*
X108460936Y-59920688D01*
X108328478Y-59788230D01*
X108224400Y-59632466D01*
X108152712Y-59459396D01*
X108116166Y-59275667D01*
X108116166Y-59088333D01*
X108152712Y-58904604D01*
X108224400Y-58731534D01*
X108328478Y-58575770D01*
X108460936Y-58443312D01*
X108616700Y-58339234D01*
X108789770Y-58267546D01*
X108973499Y-58231000D01*
X109160833Y-58231000D01*
X109344562Y-58267546D01*
X109344562Y-58267546D01*
G37*
G36*
X98892896Y-58267546D02*
X99065966Y-58339234D01*
X99221730Y-58443312D01*
X99354188Y-58575770D01*
X99458266Y-58731534D01*
X99529954Y-58904604D01*
X99566500Y-59088333D01*
X99566500Y-59275667D01*
X99529954Y-59459396D01*
X99458266Y-59632466D01*
X99354188Y-59788230D01*
X99221730Y-59920688D01*
X99065966Y-60024766D01*
X98892896Y-60096454D01*
X98709167Y-60133000D01*
X98521833Y-60133000D01*
X98338104Y-60096454D01*
X98165034Y-60024766D01*
X98009270Y-59920688D01*
X97876812Y-59788230D01*
X97772734Y-59632466D01*
X97701046Y-59459396D01*
X97664500Y-59275667D01*
X97664500Y-59088333D01*
X97701046Y-58904604D01*
X97772734Y-58731534D01*
X97876812Y-58575770D01*
X98009270Y-58443312D01*
X98165034Y-58339234D01*
X98338104Y-58267546D01*
X98521833Y-58231000D01*
X98709167Y-58231000D01*
X98892896Y-58267546D01*
X98892896Y-58267546D01*
G37*
G36*
X96392896Y-58267546D02*
X96565966Y-58339234D01*
X96721730Y-58443312D01*
X96854188Y-58575770D01*
X96958266Y-58731534D01*
X97029954Y-58904604D01*
X97066500Y-59088333D01*
X97066500Y-59275667D01*
X97029954Y-59459396D01*
X96958266Y-59632466D01*
X96854188Y-59788230D01*
X96721730Y-59920688D01*
X96565966Y-60024766D01*
X96392896Y-60096454D01*
X96209167Y-60133000D01*
X96021833Y-60133000D01*
X95838104Y-60096454D01*
X95665034Y-60024766D01*
X95509270Y-59920688D01*
X95376812Y-59788230D01*
X95272734Y-59632466D01*
X95201046Y-59459396D01*
X95164500Y-59275667D01*
X95164500Y-59088333D01*
X95201046Y-58904604D01*
X95272734Y-58731534D01*
X95376812Y-58575770D01*
X95509270Y-58443312D01*
X95665034Y-58339234D01*
X95838104Y-58267546D01*
X96021833Y-58231000D01*
X96209167Y-58231000D01*
X96392896Y-58267546D01*
X96392896Y-58267546D01*
G37*
G36*
X93892896Y-58267546D02*
X94065966Y-58339234D01*
X94221730Y-58443312D01*
X94354188Y-58575770D01*
X94458266Y-58731534D01*
X94529954Y-58904604D01*
X94566500Y-59088333D01*
X94566500Y-59275667D01*
X94529954Y-59459396D01*
X94458266Y-59632466D01*
X94354188Y-59788230D01*
X94221730Y-59920688D01*
X94065966Y-60024766D01*
X93892896Y-60096454D01*
X93709167Y-60133000D01*
X93521833Y-60133000D01*
X93338104Y-60096454D01*
X93165034Y-60024766D01*
X93009270Y-59920688D01*
X92876812Y-59788230D01*
X92772734Y-59632466D01*
X92701046Y-59459396D01*
X92664500Y-59275667D01*
X92664500Y-59088333D01*
X92701046Y-58904604D01*
X92772734Y-58731534D01*
X92876812Y-58575770D01*
X93009270Y-58443312D01*
X93165034Y-58339234D01*
X93338104Y-58267546D01*
X93521833Y-58231000D01*
X93709167Y-58231000D01*
X93892896Y-58267546D01*
X93892896Y-58267546D01*
G37*
G36*
X139866896Y-58267546D02*
X140039966Y-58339234D01*
X140195730Y-58443312D01*
X140328188Y-58575770D01*
X140432266Y-58731534D01*
X140503954Y-58904604D01*
X140540500Y-59088333D01*
X140540500Y-59275667D01*
X140503954Y-59459396D01*
X140432266Y-59632466D01*
X140328188Y-59788230D01*
X140195730Y-59920688D01*
X140039966Y-60024766D01*
X139866896Y-60096454D01*
X139683167Y-60133000D01*
X139495833Y-60133000D01*
X139312104Y-60096454D01*
X139139034Y-60024766D01*
X138983270Y-59920688D01*
X138850812Y-59788230D01*
X138746734Y-59632466D01*
X138675046Y-59459396D01*
X138638500Y-59275667D01*
X138638500Y-59088333D01*
X138675046Y-58904604D01*
X138746734Y-58731534D01*
X138850812Y-58575770D01*
X138983270Y-58443312D01*
X139139034Y-58339234D01*
X139312104Y-58267546D01*
X139495833Y-58231000D01*
X139683167Y-58231000D01*
X139866896Y-58267546D01*
X139866896Y-58267546D01*
G37*
G36*
X111844562Y-58267546D02*
X112017632Y-58339234D01*
X112173396Y-58443312D01*
X112305854Y-58575770D01*
X112409932Y-58731534D01*
X112481620Y-58904604D01*
X112518166Y-59088333D01*
X112518166Y-59275667D01*
X112481620Y-59459396D01*
X112409932Y-59632466D01*
X112305854Y-59788230D01*
X112173396Y-59920688D01*
X112017632Y-60024766D01*
X111844562Y-60096454D01*
X111660833Y-60133000D01*
X111473499Y-60133000D01*
X111289770Y-60096454D01*
X111116700Y-60024766D01*
X110960936Y-59920688D01*
X110828478Y-59788230D01*
X110724400Y-59632466D01*
X110652712Y-59459396D01*
X110616166Y-59275667D01*
X110616166Y-59088333D01*
X110652712Y-58904604D01*
X110724400Y-58731534D01*
X110828478Y-58575770D01*
X110960936Y-58443312D01*
X111116700Y-58339234D01*
X111289770Y-58267546D01*
X111473499Y-58231000D01*
X111660833Y-58231000D01*
X111844562Y-58267546D01*
X111844562Y-58267546D01*
G37*
G36*
X138287752Y-50209818D02*
X138287754Y-50209819D01*
X138287755Y-50209819D01*
X138661013Y-50364427D01*
X138661014Y-50364428D01*
X138996939Y-50588886D01*
X139282614Y-50874561D01*
X139282616Y-50874564D01*
X139507073Y-51210487D01*
X139661681Y-51583745D01*
X139740500Y-51979994D01*
X139740500Y-52384006D01*
X139661681Y-52780255D01*
X139507073Y-53153513D01*
X139507072Y-53153514D01*
X139282614Y-53489439D01*
X138996939Y-53775114D01*
X138996936Y-53775116D01*
X138661013Y-53999573D01*
X138287755Y-54154181D01*
X138287754Y-54154181D01*
X138287752Y-54154182D01*
X137891507Y-54233000D01*
X137487493Y-54233000D01*
X137091248Y-54154182D01*
X137091246Y-54154181D01*
X137091245Y-54154181D01*
X136717987Y-53999573D01*
X136382064Y-53775116D01*
X136382061Y-53775114D01*
X136096386Y-53489439D01*
X135871928Y-53153514D01*
X135871927Y-53153513D01*
X135717319Y-52780255D01*
X135638500Y-52384006D01*
X135638500Y-51979994D01*
X135717319Y-51583745D01*
X135871927Y-51210487D01*
X136096384Y-50874564D01*
X136096386Y-50874561D01*
X136382061Y-50588886D01*
X136717986Y-50364428D01*
X136717987Y-50364427D01*
X137091245Y-50209819D01*
X137091246Y-50209819D01*
X137091248Y-50209818D01*
X137487493Y-50131000D01*
X137891507Y-50131000D01*
X138287752Y-50209818D01*
X138287752Y-50209818D01*
G37*
G36*
X147087752Y-50209818D02*
X147087754Y-50209819D01*
X147087755Y-50209819D01*
X147461013Y-50364427D01*
X147461014Y-50364428D01*
X147796939Y-50588886D01*
X148082614Y-50874561D01*
X148082616Y-50874564D01*
X148307073Y-51210487D01*
X148461681Y-51583745D01*
X148540500Y-51979994D01*
X148540500Y-52384006D01*
X148461681Y-52780255D01*
X148307073Y-53153513D01*
X148307072Y-53153514D01*
X148082614Y-53489439D01*
X147796939Y-53775114D01*
X147796936Y-53775116D01*
X147461013Y-53999573D01*
X147087755Y-54154181D01*
X147087754Y-54154181D01*
X147087752Y-54154182D01*
X146691507Y-54233000D01*
X146287493Y-54233000D01*
X145891248Y-54154182D01*
X145891246Y-54154181D01*
X145891245Y-54154181D01*
X145517987Y-53999573D01*
X145182064Y-53775116D01*
X145182061Y-53775114D01*
X144896386Y-53489439D01*
X144671928Y-53153514D01*
X144671927Y-53153513D01*
X144517319Y-52780255D01*
X144438500Y-52384006D01*
X144438500Y-51979994D01*
X144517319Y-51583745D01*
X144671927Y-51210487D01*
X144896384Y-50874564D01*
X144896386Y-50874561D01*
X145182061Y-50588886D01*
X145517986Y-50364428D01*
X145517987Y-50364427D01*
X145891245Y-50209819D01*
X145891246Y-50209819D01*
X145891248Y-50209818D01*
X146287493Y-50131000D01*
X146691507Y-50131000D01*
X147087752Y-50209818D01*
X147087752Y-50209818D01*
G37*
G36*
X131890084Y-50209818D02*
X131890086Y-50209819D01*
X131890087Y-50209819D01*
X132263345Y-50364427D01*
X132263346Y-50364428D01*
X132599271Y-50588886D01*
X132884946Y-50874561D01*
X132884948Y-50874564D01*
X133109405Y-51210487D01*
X133264013Y-51583745D01*
X133342832Y-51979994D01*
X133342832Y-52384006D01*
X133264013Y-52780255D01*
X133109405Y-53153513D01*
X133109404Y-53153514D01*
X132884946Y-53489439D01*
X132599271Y-53775114D01*
X132599268Y-53775116D01*
X132263345Y-53999573D01*
X131890087Y-54154181D01*
X131890086Y-54154181D01*
X131890084Y-54154182D01*
X131493839Y-54233000D01*
X131089825Y-54233000D01*
X130693580Y-54154182D01*
X130693578Y-54154181D01*
X130693577Y-54154181D01*
X130320319Y-53999573D01*
X129984396Y-53775116D01*
X129984393Y-53775114D01*
X129698718Y-53489439D01*
X129474260Y-53153514D01*
X129474259Y-53153513D01*
X129319651Y-52780255D01*
X129240832Y-52384006D01*
X129240832Y-51979994D01*
X129319651Y-51583745D01*
X129474259Y-51210487D01*
X129698716Y-50874564D01*
X129698718Y-50874561D01*
X129984393Y-50588886D01*
X130320318Y-50364428D01*
X130320319Y-50364427D01*
X130693577Y-50209819D01*
X130693578Y-50209819D01*
X130693580Y-50209818D01*
X131089825Y-50131000D01*
X131493839Y-50131000D01*
X131890084Y-50209818D01*
X131890084Y-50209818D01*
G37*
G36*
X123090084Y-50209818D02*
X123090086Y-50209819D01*
X123090087Y-50209819D01*
X123463345Y-50364427D01*
X123463346Y-50364428D01*
X123799271Y-50588886D01*
X124084946Y-50874561D01*
X124084948Y-50874564D01*
X124309405Y-51210487D01*
X124464013Y-51583745D01*
X124542832Y-51979994D01*
X124542832Y-52384006D01*
X124464013Y-52780255D01*
X124309405Y-53153513D01*
X124309404Y-53153514D01*
X124084946Y-53489439D01*
X123799271Y-53775114D01*
X123799268Y-53775116D01*
X123463345Y-53999573D01*
X123090087Y-54154181D01*
X123090086Y-54154181D01*
X123090084Y-54154182D01*
X122693839Y-54233000D01*
X122289825Y-54233000D01*
X121893580Y-54154182D01*
X121893578Y-54154181D01*
X121893577Y-54154181D01*
X121520319Y-53999573D01*
X121184396Y-53775116D01*
X121184393Y-53775114D01*
X120898718Y-53489439D01*
X120674260Y-53153514D01*
X120674259Y-53153513D01*
X120519651Y-52780255D01*
X120440832Y-52384006D01*
X120440832Y-51979994D01*
X120519651Y-51583745D01*
X120674259Y-51210487D01*
X120898716Y-50874564D01*
X120898718Y-50874561D01*
X121184393Y-50588886D01*
X121520318Y-50364428D01*
X121520319Y-50364427D01*
X121893577Y-50209819D01*
X121893578Y-50209819D01*
X121893580Y-50209818D01*
X122289825Y-50131000D01*
X122693839Y-50131000D01*
X123090084Y-50209818D01*
X123090084Y-50209818D01*
G37*
G36*
X116565418Y-50209818D02*
X116565420Y-50209819D01*
X116565421Y-50209819D01*
X116938679Y-50364427D01*
X116938680Y-50364428D01*
X117274605Y-50588886D01*
X117560280Y-50874561D01*
X117560282Y-50874564D01*
X117784739Y-51210487D01*
X117939347Y-51583745D01*
X118018166Y-51979994D01*
X118018166Y-52384006D01*
X117939347Y-52780255D01*
X117784739Y-53153513D01*
X117784738Y-53153514D01*
X117560280Y-53489439D01*
X117274605Y-53775114D01*
X117274602Y-53775116D01*
X116938679Y-53999573D01*
X116565421Y-54154181D01*
X116565420Y-54154181D01*
X116565418Y-54154182D01*
X116169173Y-54233000D01*
X115765159Y-54233000D01*
X115368914Y-54154182D01*
X115368912Y-54154181D01*
X115368911Y-54154181D01*
X114995653Y-53999573D01*
X114659730Y-53775116D01*
X114659727Y-53775114D01*
X114374052Y-53489439D01*
X114149594Y-53153514D01*
X114149593Y-53153513D01*
X113994985Y-52780255D01*
X113916166Y-52384006D01*
X113916166Y-51979994D01*
X113994985Y-51583745D01*
X114149593Y-51210487D01*
X114374050Y-50874564D01*
X114374052Y-50874561D01*
X114659727Y-50588886D01*
X114995652Y-50364428D01*
X114995653Y-50364427D01*
X115368911Y-50209819D01*
X115368912Y-50209819D01*
X115368914Y-50209818D01*
X115765159Y-50131000D01*
X116169173Y-50131000D01*
X116565418Y-50209818D01*
X116565418Y-50209818D01*
G37*
G36*
X107765418Y-50209818D02*
X107765420Y-50209819D01*
X107765421Y-50209819D01*
X108138679Y-50364427D01*
X108138680Y-50364428D01*
X108474605Y-50588886D01*
X108760280Y-50874561D01*
X108760282Y-50874564D01*
X108984739Y-51210487D01*
X109139347Y-51583745D01*
X109218166Y-51979994D01*
X109218166Y-52384006D01*
X109139347Y-52780255D01*
X108984739Y-53153513D01*
X108984738Y-53153514D01*
X108760280Y-53489439D01*
X108474605Y-53775114D01*
X108474602Y-53775116D01*
X108138679Y-53999573D01*
X107765421Y-54154181D01*
X107765420Y-54154181D01*
X107765418Y-54154182D01*
X107369173Y-54233000D01*
X106965159Y-54233000D01*
X106568914Y-54154182D01*
X106568912Y-54154181D01*
X106568911Y-54154181D01*
X106195653Y-53999573D01*
X105859730Y-53775116D01*
X105859727Y-53775114D01*
X105574052Y-53489439D01*
X105349594Y-53153514D01*
X105349593Y-53153513D01*
X105194985Y-52780255D01*
X105116166Y-52384006D01*
X105116166Y-51979994D01*
X105194985Y-51583745D01*
X105349593Y-51210487D01*
X105574050Y-50874564D01*
X105574052Y-50874561D01*
X105859727Y-50588886D01*
X106195652Y-50364428D01*
X106195653Y-50364427D01*
X106568911Y-50209819D01*
X106568912Y-50209819D01*
X106568914Y-50209818D01*
X106965159Y-50131000D01*
X107369173Y-50131000D01*
X107765418Y-50209818D01*
X107765418Y-50209818D01*
G37*
G36*
X92313752Y-50209818D02*
X92313754Y-50209819D01*
X92313755Y-50209819D01*
X92687013Y-50364427D01*
X92687014Y-50364428D01*
X93022939Y-50588886D01*
X93308614Y-50874561D01*
X93308616Y-50874564D01*
X93533073Y-51210487D01*
X93687681Y-51583745D01*
X93766500Y-51979994D01*
X93766500Y-52384006D01*
X93687681Y-52780255D01*
X93533073Y-53153513D01*
X93533072Y-53153514D01*
X93308614Y-53489439D01*
X93022939Y-53775114D01*
X93022936Y-53775116D01*
X92687013Y-53999573D01*
X92313755Y-54154181D01*
X92313754Y-54154181D01*
X92313752Y-54154182D01*
X91917507Y-54233000D01*
X91513493Y-54233000D01*
X91117248Y-54154182D01*
X91117246Y-54154181D01*
X91117245Y-54154181D01*
X90743987Y-53999573D01*
X90408064Y-53775116D01*
X90408061Y-53775114D01*
X90122386Y-53489439D01*
X89897928Y-53153514D01*
X89897927Y-53153513D01*
X89743319Y-52780255D01*
X89664500Y-52384006D01*
X89664500Y-51979994D01*
X89743319Y-51583745D01*
X89897927Y-51210487D01*
X90122384Y-50874564D01*
X90122386Y-50874561D01*
X90408061Y-50588886D01*
X90743986Y-50364428D01*
X90743987Y-50364427D01*
X91117245Y-50209819D01*
X91117246Y-50209819D01*
X91117248Y-50209818D01*
X91513493Y-50131000D01*
X91917507Y-50131000D01*
X92313752Y-50209818D01*
X92313752Y-50209818D01*
G37*
G36*
X101113752Y-50209818D02*
X101113754Y-50209819D01*
X101113755Y-50209819D01*
X101487013Y-50364427D01*
X101487014Y-50364428D01*
X101822939Y-50588886D01*
X102108614Y-50874561D01*
X102108616Y-50874564D01*
X102333073Y-51210487D01*
X102487681Y-51583745D01*
X102566500Y-51979994D01*
X102566500Y-52384006D01*
X102487681Y-52780255D01*
X102333073Y-53153513D01*
X102333072Y-53153514D01*
X102108614Y-53489439D01*
X101822939Y-53775114D01*
X101822936Y-53775116D01*
X101487013Y-53999573D01*
X101113755Y-54154181D01*
X101113754Y-54154181D01*
X101113752Y-54154182D01*
X100717507Y-54233000D01*
X100313493Y-54233000D01*
X99917248Y-54154182D01*
X99917246Y-54154181D01*
X99917245Y-54154181D01*
X99543987Y-53999573D01*
X99208064Y-53775116D01*
X99208061Y-53775114D01*
X98922386Y-53489439D01*
X98697928Y-53153514D01*
X98697927Y-53153513D01*
X98543319Y-52780255D01*
X98464500Y-52384006D01*
X98464500Y-51979994D01*
X98543319Y-51583745D01*
X98697927Y-51210487D01*
X98922384Y-50874564D01*
X98922386Y-50874561D01*
X99208061Y-50588886D01*
X99543986Y-50364428D01*
X99543987Y-50364427D01*
X99917245Y-50209819D01*
X99917246Y-50209819D01*
X99917248Y-50209818D01*
X100313493Y-50131000D01*
X100717507Y-50131000D01*
X101113752Y-50209818D01*
X101113752Y-50209818D01*
G37*
G36*
X93276790Y-37875883D02*
X93804738Y-38094566D01*
X94279883Y-38412048D01*
X94683952Y-38816117D01*
X95001434Y-39291262D01*
X95220117Y-39819210D01*
X95331600Y-40379675D01*
X95331600Y-40951125D01*
X95220117Y-41511590D01*
X95001434Y-42039538D01*
X94683952Y-42514683D01*
X94279883Y-42918752D01*
X93804738Y-43236234D01*
X93276790Y-43454917D01*
X92716325Y-43566400D01*
X92144875Y-43566400D01*
X91584410Y-43454917D01*
X91056462Y-43236234D01*
X90581317Y-42918752D01*
X90177248Y-42514683D01*
X89859766Y-42039538D01*
X89641083Y-41511590D01*
X89529600Y-40951125D01*
X89529600Y-40379675D01*
X89641083Y-39819210D01*
X89859766Y-39291262D01*
X90177248Y-38816117D01*
X90581317Y-38412048D01*
X91056462Y-38094566D01*
X91584410Y-37875883D01*
X92144875Y-37764400D01*
X92716325Y-37764400D01*
X93276790Y-37875883D01*
X93276790Y-37875883D01*
G37*
G36*
X147099390Y-37875883D02*
X147627338Y-38094566D01*
X148102483Y-38412048D01*
X148506552Y-38816117D01*
X148824034Y-39291262D01*
X149042717Y-39819210D01*
X149154200Y-40379675D01*
X149154200Y-40951125D01*
X149042717Y-41511590D01*
X148824034Y-42039538D01*
X148506552Y-42514683D01*
X148102483Y-42918752D01*
X147627338Y-43236234D01*
X147099390Y-43454917D01*
X146538925Y-43566400D01*
X145967475Y-43566400D01*
X145407010Y-43454917D01*
X144879062Y-43236234D01*
X144403917Y-42918752D01*
X143999848Y-42514683D01*
X143682366Y-42039538D01*
X143463683Y-41511590D01*
X143352200Y-40951125D01*
X143352200Y-40379675D01*
X143463683Y-39819210D01*
X143682366Y-39291262D01*
X143999848Y-38816117D01*
X144403917Y-38412048D01*
X144879062Y-38094566D01*
X145407010Y-37875883D01*
X145967475Y-37764400D01*
X146538925Y-37764400D01*
X147099390Y-37875883D01*
X147099390Y-37875883D01*
G37*
G36*
X125523293Y-40389037D02*
X125636519Y-40423384D01*
X125693133Y-40440557D01*
X125831753Y-40514652D01*
X125849657Y-40524222D01*
X125885395Y-40553552D01*
X125986852Y-40636814D01*
X126070114Y-40738271D01*
X126099444Y-40774009D01*
X126183109Y-40930534D01*
X126234629Y-41100374D01*
X126247666Y-41232743D01*
X126247666Y-41571258D01*
X126234629Y-41703627D01*
X126200282Y-41816853D01*
X126183109Y-41873467D01*
X126109014Y-42012087D01*
X126099444Y-42029991D01*
X126091608Y-42039539D01*
X125986852Y-42167186D01*
X125849655Y-42279779D01*
X125693132Y-42363443D01*
X125652399Y-42375799D01*
X125523292Y-42414963D01*
X125346666Y-42432359D01*
X125170039Y-42414963D01*
X125040932Y-42375799D01*
X125000199Y-42363443D01*
X124843677Y-42279779D01*
X124843675Y-42279778D01*
X124801415Y-42245096D01*
X124706480Y-42167186D01*
X124593887Y-42029989D01*
X124510223Y-41873466D01*
X124493050Y-41816852D01*
X124458703Y-41703626D01*
X124445666Y-41571257D01*
X124445666Y-41232742D01*
X124458703Y-41100373D01*
X124510223Y-40930534D01*
X124510223Y-40930533D01*
X124593888Y-40774008D01*
X124706478Y-40636817D01*
X124801416Y-40558904D01*
X124843676Y-40524222D01*
X124861580Y-40514652D01*
X125000200Y-40440557D01*
X125056814Y-40423384D01*
X125170040Y-40389037D01*
X125346666Y-40371641D01*
X125523293Y-40389037D01*
X125523293Y-40389037D01*
G37*
G36*
X137529027Y-40389037D02*
X137642253Y-40423384D01*
X137698867Y-40440557D01*
X137837487Y-40514652D01*
X137855391Y-40524222D01*
X137891129Y-40553552D01*
X137992586Y-40636814D01*
X138075848Y-40738271D01*
X138105178Y-40774009D01*
X138188843Y-40930534D01*
X138240363Y-41100374D01*
X138253400Y-41232743D01*
X138253400Y-41571258D01*
X138240363Y-41703627D01*
X138206016Y-41816853D01*
X138188843Y-41873467D01*
X138114748Y-42012087D01*
X138105178Y-42029991D01*
X138097342Y-42039539D01*
X137992586Y-42167186D01*
X137855389Y-42279779D01*
X137698866Y-42363443D01*
X137658133Y-42375799D01*
X137529026Y-42414963D01*
X137352400Y-42432359D01*
X137175773Y-42414963D01*
X137046666Y-42375799D01*
X137005933Y-42363443D01*
X136849411Y-42279779D01*
X136849409Y-42279778D01*
X136807149Y-42245096D01*
X136712214Y-42167186D01*
X136599621Y-42029989D01*
X136515957Y-41873466D01*
X136498784Y-41816852D01*
X136464437Y-41703626D01*
X136451400Y-41571257D01*
X136451400Y-41232742D01*
X136464437Y-41100373D01*
X136515957Y-40930534D01*
X136515957Y-40930533D01*
X136599622Y-40774008D01*
X136712212Y-40636817D01*
X136807150Y-40558904D01*
X136849410Y-40524222D01*
X136867314Y-40514652D01*
X137005934Y-40440557D01*
X137062548Y-40423384D01*
X137175774Y-40389037D01*
X137352400Y-40371641D01*
X137529027Y-40389037D01*
X137529027Y-40389037D01*
G37*
G36*
X99011827Y-40389037D02*
X99125053Y-40423384D01*
X99181667Y-40440557D01*
X99320287Y-40514652D01*
X99338191Y-40524222D01*
X99373929Y-40553552D01*
X99475386Y-40636814D01*
X99558648Y-40738271D01*
X99587978Y-40774009D01*
X99671643Y-40930534D01*
X99723163Y-41100374D01*
X99736200Y-41232743D01*
X99736200Y-41571258D01*
X99723163Y-41703627D01*
X99688816Y-41816853D01*
X99671643Y-41873467D01*
X99597548Y-42012087D01*
X99587978Y-42029991D01*
X99580142Y-42039539D01*
X99475386Y-42167186D01*
X99338189Y-42279779D01*
X99181666Y-42363443D01*
X99140933Y-42375799D01*
X99011826Y-42414963D01*
X98835200Y-42432359D01*
X98658573Y-42414963D01*
X98529466Y-42375799D01*
X98488733Y-42363443D01*
X98332211Y-42279779D01*
X98332209Y-42279778D01*
X98289949Y-42245096D01*
X98195014Y-42167186D01*
X98082421Y-42029989D01*
X97998757Y-41873466D01*
X97981584Y-41816852D01*
X97947237Y-41703626D01*
X97934200Y-41571257D01*
X97934200Y-41232742D01*
X97947237Y-41100373D01*
X97998757Y-40930534D01*
X97998757Y-40930533D01*
X98082422Y-40774008D01*
X98195012Y-40636817D01*
X98289950Y-40558904D01*
X98332210Y-40524222D01*
X98350114Y-40514652D01*
X98488734Y-40440557D01*
X98545348Y-40423384D01*
X98658574Y-40389037D01*
X98835200Y-40371641D01*
X99011827Y-40389037D01*
X99011827Y-40389037D01*
G37*
G36*
X135029027Y-40389037D02*
X135142253Y-40423384D01*
X135198867Y-40440557D01*
X135337487Y-40514652D01*
X135355391Y-40524222D01*
X135391129Y-40553552D01*
X135492586Y-40636814D01*
X135575848Y-40738271D01*
X135605178Y-40774009D01*
X135688843Y-40930534D01*
X135740363Y-41100374D01*
X135753400Y-41232743D01*
X135753400Y-41571258D01*
X135740363Y-41703627D01*
X135706016Y-41816853D01*
X135688843Y-41873467D01*
X135614748Y-42012087D01*
X135605178Y-42029991D01*
X135597342Y-42039539D01*
X135492586Y-42167186D01*
X135355389Y-42279779D01*
X135198866Y-42363443D01*
X135158133Y-42375799D01*
X135029026Y-42414963D01*
X134852400Y-42432359D01*
X134675773Y-42414963D01*
X134546666Y-42375799D01*
X134505933Y-42363443D01*
X134349411Y-42279779D01*
X134349409Y-42279778D01*
X134307149Y-42245096D01*
X134212214Y-42167186D01*
X134099621Y-42029989D01*
X134015957Y-41873466D01*
X133998784Y-41816852D01*
X133964437Y-41703626D01*
X133951400Y-41571257D01*
X133951400Y-41232742D01*
X133964437Y-41100373D01*
X134015957Y-40930534D01*
X134015957Y-40930533D01*
X134099622Y-40774008D01*
X134212212Y-40636817D01*
X134307150Y-40558904D01*
X134349410Y-40524222D01*
X134367314Y-40514652D01*
X134505934Y-40440557D01*
X134562548Y-40423384D01*
X134675774Y-40389037D01*
X134852400Y-40371641D01*
X135029027Y-40389037D01*
X135029027Y-40389037D01*
G37*
G36*
X113517560Y-40389037D02*
X113630786Y-40423384D01*
X113687400Y-40440557D01*
X113826020Y-40514652D01*
X113843924Y-40524222D01*
X113879662Y-40553552D01*
X113981119Y-40636814D01*
X114064381Y-40738271D01*
X114093711Y-40774009D01*
X114177376Y-40930534D01*
X114228896Y-41100374D01*
X114241933Y-41232743D01*
X114241933Y-41571258D01*
X114228896Y-41703627D01*
X114194549Y-41816853D01*
X114177376Y-41873467D01*
X114103281Y-42012087D01*
X114093711Y-42029991D01*
X114085875Y-42039539D01*
X113981119Y-42167186D01*
X113843922Y-42279779D01*
X113687399Y-42363443D01*
X113646666Y-42375799D01*
X113517559Y-42414963D01*
X113340933Y-42432359D01*
X113164306Y-42414963D01*
X113035199Y-42375799D01*
X112994466Y-42363443D01*
X112837944Y-42279779D01*
X112837942Y-42279778D01*
X112795682Y-42245096D01*
X112700747Y-42167186D01*
X112588154Y-42029989D01*
X112504490Y-41873466D01*
X112487317Y-41816852D01*
X112452970Y-41703626D01*
X112439933Y-41571257D01*
X112439933Y-41232742D01*
X112452970Y-41100373D01*
X112504490Y-40930534D01*
X112504490Y-40930533D01*
X112588155Y-40774008D01*
X112700745Y-40636817D01*
X112795683Y-40558904D01*
X112837943Y-40524222D01*
X112855847Y-40514652D01*
X112994467Y-40440557D01*
X113051081Y-40423384D01*
X113164307Y-40389037D01*
X113340933Y-40371641D01*
X113517560Y-40389037D01*
X113517560Y-40389037D01*
G37*
G36*
X111017560Y-40389037D02*
X111130786Y-40423384D01*
X111187400Y-40440557D01*
X111326020Y-40514652D01*
X111343924Y-40524222D01*
X111379662Y-40553552D01*
X111481119Y-40636814D01*
X111564381Y-40738271D01*
X111593711Y-40774009D01*
X111677376Y-40930534D01*
X111728896Y-41100374D01*
X111741933Y-41232743D01*
X111741933Y-41571258D01*
X111728896Y-41703627D01*
X111694549Y-41816853D01*
X111677376Y-41873467D01*
X111603281Y-42012087D01*
X111593711Y-42029991D01*
X111585875Y-42039539D01*
X111481119Y-42167186D01*
X111343922Y-42279779D01*
X111187399Y-42363443D01*
X111146666Y-42375799D01*
X111017559Y-42414963D01*
X110840933Y-42432359D01*
X110664306Y-42414963D01*
X110535199Y-42375799D01*
X110494466Y-42363443D01*
X110337944Y-42279779D01*
X110337942Y-42279778D01*
X110295682Y-42245096D01*
X110200747Y-42167186D01*
X110088154Y-42029989D01*
X110004490Y-41873466D01*
X109987317Y-41816852D01*
X109952970Y-41703626D01*
X109939933Y-41571257D01*
X109939933Y-41232742D01*
X109952970Y-41100373D01*
X110004490Y-40930534D01*
X110004490Y-40930533D01*
X110088155Y-40774008D01*
X110200745Y-40636817D01*
X110295683Y-40558904D01*
X110337943Y-40524222D01*
X110355847Y-40514652D01*
X110494467Y-40440557D01*
X110551081Y-40423384D01*
X110664307Y-40389037D01*
X110840933Y-40371641D01*
X111017560Y-40389037D01*
X111017560Y-40389037D01*
G37*
G36*
X101511827Y-40389037D02*
X101625053Y-40423384D01*
X101681667Y-40440557D01*
X101820287Y-40514652D01*
X101838191Y-40524222D01*
X101873929Y-40553552D01*
X101975386Y-40636814D01*
X102058648Y-40738271D01*
X102087978Y-40774009D01*
X102171643Y-40930534D01*
X102223163Y-41100374D01*
X102236200Y-41232743D01*
X102236200Y-41571258D01*
X102223163Y-41703627D01*
X102188816Y-41816853D01*
X102171643Y-41873467D01*
X102097548Y-42012087D01*
X102087978Y-42029991D01*
X102080142Y-42039539D01*
X101975386Y-42167186D01*
X101838189Y-42279779D01*
X101681666Y-42363443D01*
X101640933Y-42375799D01*
X101511826Y-42414963D01*
X101335200Y-42432359D01*
X101158573Y-42414963D01*
X101029466Y-42375799D01*
X100988733Y-42363443D01*
X100832211Y-42279779D01*
X100832209Y-42279778D01*
X100789949Y-42245096D01*
X100695014Y-42167186D01*
X100582421Y-42029989D01*
X100498757Y-41873466D01*
X100481584Y-41816852D01*
X100447237Y-41703626D01*
X100434200Y-41571257D01*
X100434200Y-41232742D01*
X100447237Y-41100373D01*
X100498757Y-40930534D01*
X100498757Y-40930533D01*
X100582422Y-40774008D01*
X100695012Y-40636817D01*
X100789950Y-40558904D01*
X100832210Y-40524222D01*
X100850114Y-40514652D01*
X100988734Y-40440557D01*
X101045348Y-40423384D01*
X101158574Y-40389037D01*
X101335200Y-40371641D01*
X101511827Y-40389037D01*
X101511827Y-40389037D01*
G37*
G36*
X123023293Y-40389037D02*
X123136519Y-40423384D01*
X123193133Y-40440557D01*
X123331753Y-40514652D01*
X123349657Y-40524222D01*
X123385395Y-40553552D01*
X123486852Y-40636814D01*
X123570114Y-40738271D01*
X123599444Y-40774009D01*
X123683109Y-40930534D01*
X123734629Y-41100374D01*
X123747666Y-41232743D01*
X123747666Y-41571258D01*
X123734629Y-41703627D01*
X123700282Y-41816853D01*
X123683109Y-41873467D01*
X123609014Y-42012087D01*
X123599444Y-42029991D01*
X123591608Y-42039539D01*
X123486852Y-42167186D01*
X123349655Y-42279779D01*
X123193132Y-42363443D01*
X123152399Y-42375799D01*
X123023292Y-42414963D01*
X122846666Y-42432359D01*
X122670039Y-42414963D01*
X122540932Y-42375799D01*
X122500199Y-42363443D01*
X122343677Y-42279779D01*
X122343675Y-42279778D01*
X122301415Y-42245096D01*
X122206480Y-42167186D01*
X122093887Y-42029989D01*
X122010223Y-41873466D01*
X121993050Y-41816852D01*
X121958703Y-41703626D01*
X121945666Y-41571257D01*
X121945666Y-41232742D01*
X121958703Y-41100373D01*
X122010223Y-40930534D01*
X122010223Y-40930533D01*
X122093888Y-40774008D01*
X122206478Y-40636817D01*
X122301416Y-40558904D01*
X122343676Y-40524222D01*
X122361580Y-40514652D01*
X122500200Y-40440557D01*
X122556814Y-40423384D01*
X122670040Y-40389037D01*
X122846666Y-40371641D01*
X123023293Y-40389037D01*
X123023293Y-40389037D01*
G37*
G36*
X104593800Y-40379989D02*
X104626849Y-40390014D01*
X104657306Y-40406294D01*
X104683999Y-40428201D01*
X104705906Y-40454894D01*
X104722186Y-40485351D01*
X104732211Y-40518400D01*
X104736200Y-40558904D01*
X104736200Y-42245096D01*
X104732211Y-42285600D01*
X104722186Y-42318649D01*
X104705906Y-42349106D01*
X104683999Y-42375799D01*
X104657306Y-42397706D01*
X104626849Y-42413986D01*
X104593800Y-42424011D01*
X104553296Y-42428000D01*
X103117104Y-42428000D01*
X103076600Y-42424011D01*
X103043551Y-42413986D01*
X103013094Y-42397706D01*
X102986401Y-42375799D01*
X102964494Y-42349106D01*
X102948214Y-42318649D01*
X102938189Y-42285600D01*
X102934200Y-42245096D01*
X102934200Y-40558904D01*
X102938189Y-40518400D01*
X102948214Y-40485351D01*
X102964494Y-40454894D01*
X102986401Y-40428201D01*
X103013094Y-40406294D01*
X103043551Y-40390014D01*
X103076600Y-40379989D01*
X103117104Y-40376000D01*
X104553296Y-40376000D01*
X104593800Y-40379989D01*
X104593800Y-40379989D01*
G37*
G36*
X116599533Y-40379989D02*
X116632582Y-40390014D01*
X116663039Y-40406294D01*
X116689732Y-40428201D01*
X116711639Y-40454894D01*
X116727919Y-40485351D01*
X116737944Y-40518400D01*
X116741933Y-40558904D01*
X116741933Y-42245096D01*
X116737944Y-42285600D01*
X116727919Y-42318649D01*
X116711639Y-42349106D01*
X116689732Y-42375799D01*
X116663039Y-42397706D01*
X116632582Y-42413986D01*
X116599533Y-42424011D01*
X116559029Y-42428000D01*
X115122837Y-42428000D01*
X115082333Y-42424011D01*
X115049284Y-42413986D01*
X115018827Y-42397706D01*
X114992134Y-42375799D01*
X114970227Y-42349106D01*
X114953947Y-42318649D01*
X114943922Y-42285600D01*
X114939933Y-42245096D01*
X114939933Y-40558904D01*
X114943922Y-40518400D01*
X114953947Y-40485351D01*
X114970227Y-40454894D01*
X114992134Y-40428201D01*
X115018827Y-40406294D01*
X115049284Y-40390014D01*
X115082333Y-40379989D01*
X115122837Y-40376000D01*
X116559029Y-40376000D01*
X116599533Y-40379989D01*
X116599533Y-40379989D01*
G37*
G36*
X128605266Y-40379989D02*
X128638315Y-40390014D01*
X128668772Y-40406294D01*
X128695465Y-40428201D01*
X128717372Y-40454894D01*
X128733652Y-40485351D01*
X128743677Y-40518400D01*
X128747666Y-40558904D01*
X128747666Y-42245096D01*
X128743677Y-42285600D01*
X128733652Y-42318649D01*
X128717372Y-42349106D01*
X128695465Y-42375799D01*
X128668772Y-42397706D01*
X128638315Y-42413986D01*
X128605266Y-42424011D01*
X128564762Y-42428000D01*
X127128570Y-42428000D01*
X127088066Y-42424011D01*
X127055017Y-42413986D01*
X127024560Y-42397706D01*
X126997867Y-42375799D01*
X126975960Y-42349106D01*
X126959680Y-42318649D01*
X126949655Y-42285600D01*
X126945666Y-42245096D01*
X126945666Y-40558904D01*
X126949655Y-40518400D01*
X126959680Y-40485351D01*
X126975960Y-40454894D01*
X126997867Y-40428201D01*
X127024560Y-40406294D01*
X127055017Y-40390014D01*
X127088066Y-40379989D01*
X127128570Y-40376000D01*
X128564762Y-40376000D01*
X128605266Y-40379989D01*
X128605266Y-40379989D01*
G37*
G36*
X140611000Y-40379989D02*
X140644049Y-40390014D01*
X140674506Y-40406294D01*
X140701199Y-40428201D01*
X140723106Y-40454894D01*
X140739386Y-40485351D01*
X140749411Y-40518400D01*
X140753400Y-40558904D01*
X140753400Y-42245096D01*
X140749411Y-42285600D01*
X140739386Y-42318649D01*
X140723106Y-42349106D01*
X140701199Y-42375799D01*
X140674506Y-42397706D01*
X140644049Y-42413986D01*
X140611000Y-42424011D01*
X140570496Y-42428000D01*
X139134304Y-42428000D01*
X139093800Y-42424011D01*
X139060751Y-42413986D01*
X139030294Y-42397706D01*
X139003601Y-42375799D01*
X138981694Y-42349106D01*
X138965414Y-42318649D01*
X138955389Y-42285600D01*
X138951400Y-42245096D01*
X138951400Y-40558904D01*
X138955389Y-40518400D01*
X138965414Y-40485351D01*
X138981694Y-40454894D01*
X139003601Y-40428201D01*
X139030294Y-40406294D01*
X139060751Y-40390014D01*
X139093800Y-40379989D01*
X139134304Y-40376000D01*
X140570496Y-40376000D01*
X140611000Y-40379989D01*
X140611000Y-40379989D01*
G37*
M02*
