G04 #@! TF.GenerationSoftware,KiCad,Pcbnew,(5.1.0)-1*
G04 #@! TF.CreationDate,2019-04-11T14:16:13-04:00*
G04 #@! TF.ProjectId,moog_vca,6d6f6f67-5f76-4636-912e-6b696361645f,rev?*
G04 #@! TF.SameCoordinates,Original*
G04 #@! TF.FileFunction,Copper,L1,Top*
G04 #@! TF.FilePolarity,Positive*
%FSLAX46Y46*%
G04 Gerber Fmt 4.6, Leading zero omitted, Abs format (unit mm)*
G04 Created by KiCad (PCBNEW (5.1.0)-1) date 2019-04-11 14:16:13*
%MOMM*%
%LPD*%
G04 APERTURE LIST*
%ADD10O,1.600000X1.600000*%
%ADD11R,1.600000X1.600000*%
%ADD12C,1.600000*%
%ADD13R,1.500000X1.050000*%
%ADD14O,1.500000X1.050000*%
%ADD15O,1.700000X1.700000*%
%ADD16R,1.700000X1.700000*%
%ADD17C,2.130000*%
%ADD18R,1.930000X1.830000*%
%ADD19R,1.830000X1.930000*%
%ADD20C,0.800000*%
%ADD21C,0.250000*%
%ADD22C,0.254000*%
G04 APERTURE END LIST*
D10*
X180086000Y-80264000D03*
X197866000Y-87884000D03*
X182626000Y-80264000D03*
X195326000Y-87884000D03*
X185166000Y-80264000D03*
X192786000Y-87884000D03*
X187706000Y-80264000D03*
X190246000Y-87884000D03*
X190246000Y-80264000D03*
X187706000Y-87884000D03*
X192786000Y-80264000D03*
X185166000Y-87884000D03*
X195326000Y-80264000D03*
X182626000Y-87884000D03*
X197866000Y-80264000D03*
D11*
X180086000Y-87884000D03*
D10*
X192659000Y-104267000D03*
D12*
X187579000Y-104267000D03*
D10*
X201676000Y-62611000D03*
D12*
X201676000Y-57531000D03*
D10*
X205486000Y-100838000D03*
D12*
X200406000Y-100838000D03*
D10*
X202184000Y-97917000D03*
D12*
X202184000Y-92837000D03*
D10*
X192659000Y-91186000D03*
D12*
X187579000Y-91186000D03*
D10*
X184277000Y-97282000D03*
D12*
X184277000Y-102362000D03*
D10*
X179324000Y-94361000D03*
D12*
X184404000Y-94361000D03*
D10*
X187198000Y-100965000D03*
D12*
X192278000Y-100965000D03*
D10*
X179324000Y-91186000D03*
D12*
X184404000Y-91186000D03*
D10*
X187198000Y-94488000D03*
D12*
X192278000Y-94488000D03*
D10*
X180594000Y-102870000D03*
D12*
X180594000Y-97790000D03*
D10*
X187198000Y-97663000D03*
D12*
X192278000Y-97663000D03*
D10*
X185420000Y-61595000D03*
D12*
X180340000Y-61595000D03*
D10*
X204851000Y-62611000D03*
D12*
X204851000Y-57531000D03*
D10*
X193040000Y-76962000D03*
D12*
X187960000Y-76962000D03*
D10*
X179959000Y-68834000D03*
D12*
X185039000Y-68834000D03*
D10*
X179705000Y-73787000D03*
D12*
X184785000Y-73787000D03*
D10*
X185166000Y-76962000D03*
D12*
X180086000Y-76962000D03*
D10*
X179832000Y-65278000D03*
D12*
X184912000Y-65278000D03*
D10*
X193040000Y-73787000D03*
D12*
X187960000Y-73787000D03*
D10*
X198501000Y-57023000D03*
D12*
X198501000Y-62103000D03*
D10*
X204724000Y-64897000D03*
D12*
X204724000Y-69977000D03*
D13*
X195961000Y-100076000D03*
D14*
X195961000Y-102616000D03*
X195961000Y-101346000D03*
D13*
X199898000Y-68834000D03*
D14*
X199898000Y-66294000D03*
X199898000Y-67564000D03*
D15*
X204216000Y-89281000D03*
X201676000Y-89281000D03*
X204216000Y-86741000D03*
X201676000Y-86741000D03*
X204216000Y-84201000D03*
X201676000Y-84201000D03*
X204216000Y-81661000D03*
X201676000Y-81661000D03*
X204216000Y-79121000D03*
D16*
X201676000Y-79121000D03*
D17*
X191770000Y-129002000D03*
D18*
X191770000Y-117602000D03*
D17*
X191770000Y-120702000D03*
X191770000Y-68804000D03*
D18*
X191770000Y-57404000D03*
D17*
X191770000Y-60504000D03*
X178846000Y-50800000D03*
D19*
X190246000Y-50800000D03*
D17*
X187146000Y-50800000D03*
X204694000Y-50800000D03*
D19*
X193294000Y-50800000D03*
D17*
X196394000Y-50800000D03*
X204694000Y-110998000D03*
D19*
X193294000Y-110998000D03*
D17*
X196394000Y-110998000D03*
X178846000Y-110998000D03*
D19*
X190246000Y-110998000D03*
D17*
X187146000Y-110998000D03*
D12*
X195453000Y-95805000D03*
X195453000Y-90805000D03*
X196088000Y-72343000D03*
X196088000Y-77343000D03*
X198882000Y-92409000D03*
X198882000Y-97409000D03*
X185467000Y-57785000D03*
X180467000Y-57785000D03*
D20*
X201295000Y-75184000D03*
X201295000Y-72263000D03*
D21*
X180467000Y-61468000D02*
X180340000Y-61595000D01*
X180467000Y-57785000D02*
X180467000Y-61468000D01*
X204051001Y-63410999D02*
X204851000Y-62611000D01*
X203598999Y-63863001D02*
X204051001Y-63410999D01*
X203598999Y-74531001D02*
X203598999Y-63863001D01*
X197866000Y-80264000D02*
X203598999Y-74531001D01*
X198882000Y-88900000D02*
X197866000Y-87884000D01*
X198882000Y-92409000D02*
X198882000Y-88900000D01*
X198882000Y-94615000D02*
X202184000Y-97917000D01*
X198882000Y-92409000D02*
X198882000Y-94615000D01*
X200406000Y-98933000D02*
X200406000Y-100838000D01*
X198882000Y-97409000D02*
X200406000Y-98933000D01*
X191720000Y-117602000D02*
X191770000Y-117602000D01*
X190246000Y-116128000D02*
X191720000Y-117602000D01*
X190246000Y-110998000D02*
X190246000Y-116128000D01*
X193077999Y-101764999D02*
X192278000Y-100965000D01*
X193784001Y-102471001D02*
X193077999Y-101764999D01*
X193784001Y-109292999D02*
X193784001Y-102471001D01*
X193294000Y-109783000D02*
X193784001Y-109292999D01*
X193294000Y-110998000D02*
X193294000Y-109783000D01*
X196252999Y-96604999D02*
X195453000Y-95805000D01*
X197036001Y-97388001D02*
X196252999Y-96604999D01*
X197036001Y-101270999D02*
X197036001Y-97388001D01*
X196961000Y-101346000D02*
X197036001Y-101270999D01*
X195961000Y-101346000D02*
X196961000Y-101346000D01*
X179705000Y-76581000D02*
X180086000Y-76962000D01*
X179705000Y-73787000D02*
X179705000Y-76581000D01*
X190246000Y-52015000D02*
X190246000Y-50800000D01*
X190246000Y-57095000D02*
X190246000Y-52015000D01*
X190555000Y-57404000D02*
X190246000Y-57095000D01*
X191770000Y-57404000D02*
X190555000Y-57404000D01*
X196088000Y-71211630D02*
X196088000Y-72343000D01*
X196088000Y-61672000D02*
X196088000Y-71211630D01*
X191820000Y-57404000D02*
X196088000Y-61672000D01*
X191770000Y-57404000D02*
X191820000Y-57404000D01*
X200473919Y-84201000D02*
X201676000Y-84201000D01*
X200137998Y-84201000D02*
X200473919Y-84201000D01*
X196740999Y-80804001D02*
X200137998Y-84201000D01*
X196740999Y-79723999D02*
X196740999Y-80804001D01*
X197231000Y-73486000D02*
X197231000Y-79233998D01*
X197231000Y-79233998D02*
X196740999Y-79723999D01*
X196088000Y-72343000D02*
X197231000Y-73486000D01*
X188759999Y-77761999D02*
X187960000Y-76962000D01*
X189120999Y-78122999D02*
X188759999Y-77761999D01*
X189120999Y-89644001D02*
X189120999Y-78122999D01*
X187579000Y-91186000D02*
X189120999Y-89644001D01*
X190246000Y-110948000D02*
X190246000Y-110998000D01*
X188905999Y-109607999D02*
X190246000Y-110948000D01*
X185666997Y-109607999D02*
X188905999Y-109607999D01*
X179324000Y-103265002D02*
X185666997Y-109607999D01*
X179324000Y-94361000D02*
X179324000Y-103265002D01*
X200898000Y-67564000D02*
X201295000Y-67961000D01*
X199898000Y-67564000D02*
X200898000Y-67564000D01*
X201295000Y-67961000D02*
X201295000Y-72263000D01*
X201295000Y-75184000D02*
X201295000Y-75184000D01*
X201295000Y-72263000D02*
X201295000Y-75184000D01*
X201676000Y-85538919D02*
X201676000Y-84201000D01*
X201676000Y-86741000D02*
X201676000Y-85538919D01*
X201676000Y-84201000D02*
X201676000Y-81661000D01*
X204216000Y-82863081D02*
X204216000Y-84201000D01*
X204216000Y-81661000D02*
X204216000Y-82863081D01*
X204216000Y-84201000D02*
X204216000Y-86741000D01*
X202776000Y-79121000D02*
X204216000Y-79121000D01*
X201676000Y-79121000D02*
X202776000Y-79121000D01*
X205065999Y-88431001D02*
X204216000Y-89281000D01*
X205391001Y-88105999D02*
X205065999Y-88431001D01*
X205391001Y-71775371D02*
X205391001Y-88105999D01*
X204724000Y-71108370D02*
X205391001Y-71775371D01*
X204724000Y-69977000D02*
X204724000Y-71108370D01*
X202184000Y-91313000D02*
X204216000Y-89281000D01*
X202184000Y-92837000D02*
X202184000Y-91313000D01*
X195453000Y-90551000D02*
X195453000Y-90805000D01*
X192786000Y-87884000D02*
X195453000Y-90551000D01*
X191478001Y-98462999D02*
X192278000Y-97663000D01*
X188378999Y-101562001D02*
X191478001Y-98462999D01*
X188378999Y-103467001D02*
X188378999Y-101562001D01*
X187579000Y-104267000D02*
X188378999Y-103467001D01*
X205650999Y-58330999D02*
X204851000Y-57531000D01*
X205976001Y-58656001D02*
X205650999Y-58330999D01*
X205976001Y-67593629D02*
X205976001Y-58656001D01*
X204724000Y-68845630D02*
X205976001Y-67593629D01*
X204724000Y-69977000D02*
X204724000Y-68845630D01*
X201676000Y-92329000D02*
X202184000Y-92837000D01*
X201676000Y-89281000D02*
X201676000Y-92329000D01*
X204694000Y-50830000D02*
X204694000Y-50800000D01*
X198501000Y-57023000D02*
X204694000Y-50830000D01*
X187198000Y-95619370D02*
X187198000Y-97663000D01*
X187198000Y-94488000D02*
X187198000Y-95619370D01*
X198501000Y-63234370D02*
X198501000Y-62103000D01*
X198501000Y-68437000D02*
X198501000Y-63234370D01*
X198898000Y-68834000D02*
X198501000Y-68437000D01*
X199898000Y-68834000D02*
X198898000Y-68834000D01*
X199898000Y-64389000D02*
X201676000Y-62611000D01*
X199898000Y-66294000D02*
X199898000Y-64389000D01*
X195961000Y-98171000D02*
X192278000Y-94488000D01*
X195961000Y-100076000D02*
X195961000Y-98171000D01*
X185166000Y-79132630D02*
X185166000Y-76962000D01*
X185166000Y-80264000D02*
X185166000Y-79132630D01*
X184112001Y-66077999D02*
X184912000Y-65278000D01*
X183659999Y-66530001D02*
X184112001Y-66077999D01*
X183659999Y-75455999D02*
X183659999Y-66530001D01*
X185166000Y-76962000D02*
X183659999Y-75455999D01*
X178846000Y-64292000D02*
X179832000Y-65278000D01*
X178846000Y-50800000D02*
X178846000Y-64292000D01*
X186906001Y-79464001D02*
X187706000Y-80264000D01*
X186291001Y-78849001D02*
X186906001Y-79464001D01*
X186291001Y-75293001D02*
X186291001Y-78849001D01*
X184785000Y-73787000D02*
X186291001Y-75293001D01*
X179286001Y-79464001D02*
X180086000Y-80264000D01*
X178579999Y-78757999D02*
X179286001Y-79464001D01*
X178579999Y-70213001D02*
X178579999Y-78757999D01*
X179959000Y-68834000D02*
X178579999Y-70213001D01*
X190246000Y-79756000D02*
X190246000Y-80264000D01*
X193040000Y-76962000D02*
X190246000Y-79756000D01*
X195326000Y-79248000D02*
X195326000Y-80264000D01*
X193040000Y-76962000D02*
X195326000Y-79248000D01*
X185420000Y-62454000D02*
X185420000Y-61595000D01*
X191770000Y-68804000D02*
X185420000Y-62454000D01*
X178524001Y-91985999D02*
X179324000Y-91186000D01*
X178198999Y-92311001D02*
X178524001Y-91985999D01*
X178198999Y-108844862D02*
X178198999Y-92311001D01*
X178846000Y-109491863D02*
X178198999Y-108844862D01*
X178846000Y-110998000D02*
X178846000Y-109491863D01*
X184404000Y-88646000D02*
X185166000Y-87884000D01*
X184404000Y-91186000D02*
X184404000Y-88646000D01*
X186398001Y-100165001D02*
X187198000Y-100965000D01*
X186072999Y-99839999D02*
X186398001Y-100165001D01*
X186072999Y-94364997D02*
X186072999Y-99839999D01*
X184404000Y-92695998D02*
X186072999Y-94364997D01*
X184404000Y-91186000D02*
X184404000Y-92695998D01*
X180086000Y-88934000D02*
X180086000Y-87884000D01*
X180467000Y-89315000D02*
X180086000Y-88934000D01*
X180467000Y-93472000D02*
X180467000Y-89315000D01*
X184277000Y-97282000D02*
X180467000Y-93472000D01*
X192659000Y-90297000D02*
X192659000Y-91186000D01*
X190246000Y-87884000D02*
X192659000Y-90297000D01*
X192834999Y-127937001D02*
X191770000Y-129002000D01*
X193160001Y-127611999D02*
X192834999Y-127937001D01*
X193160001Y-116289201D02*
X193160001Y-127611999D01*
X205486000Y-103963202D02*
X193160001Y-116289201D01*
X205486000Y-100838000D02*
X205486000Y-103963202D01*
D22*
G36*
X205971000Y-49672836D02*
G01*
X205777687Y-49479523D01*
X205499252Y-49293479D01*
X205189872Y-49165330D01*
X204861435Y-49100000D01*
X204526565Y-49100000D01*
X204198128Y-49165330D01*
X203888748Y-49293479D01*
X203610313Y-49479523D01*
X203373523Y-49716313D01*
X203187479Y-49994748D01*
X203059330Y-50304128D01*
X202994000Y-50632565D01*
X202994000Y-50967435D01*
X203059330Y-51295872D01*
X203086861Y-51362337D01*
X198826907Y-55622292D01*
X198782309Y-55608764D01*
X198571492Y-55588000D01*
X198430508Y-55588000D01*
X198219691Y-55608764D01*
X197949192Y-55690818D01*
X197699899Y-55824068D01*
X197481392Y-56003392D01*
X197302068Y-56221899D01*
X197168818Y-56471192D01*
X197086764Y-56741691D01*
X197059057Y-57023000D01*
X197086764Y-57304309D01*
X197168818Y-57574808D01*
X197302068Y-57824101D01*
X197481392Y-58042608D01*
X197699899Y-58221932D01*
X197949192Y-58355182D01*
X198219691Y-58437236D01*
X198430508Y-58458000D01*
X198571492Y-58458000D01*
X198782309Y-58437236D01*
X199052808Y-58355182D01*
X199302101Y-58221932D01*
X199520608Y-58042608D01*
X199699932Y-57824101D01*
X199833182Y-57574808D01*
X199889343Y-57389665D01*
X200241000Y-57389665D01*
X200241000Y-57672335D01*
X200296147Y-57949574D01*
X200404320Y-58210727D01*
X200561363Y-58445759D01*
X200761241Y-58645637D01*
X200996273Y-58802680D01*
X201257426Y-58910853D01*
X201534665Y-58966000D01*
X201817335Y-58966000D01*
X202094574Y-58910853D01*
X202355727Y-58802680D01*
X202590759Y-58645637D01*
X202790637Y-58445759D01*
X202947680Y-58210727D01*
X203055853Y-57949574D01*
X203111000Y-57672335D01*
X203111000Y-57389665D01*
X203055853Y-57112426D01*
X202947680Y-56851273D01*
X202790637Y-56616241D01*
X202590759Y-56416363D01*
X202355727Y-56259320D01*
X202094574Y-56151147D01*
X201817335Y-56096000D01*
X201534665Y-56096000D01*
X201257426Y-56151147D01*
X200996273Y-56259320D01*
X200761241Y-56416363D01*
X200561363Y-56616241D01*
X200404320Y-56851273D01*
X200296147Y-57112426D01*
X200241000Y-57389665D01*
X199889343Y-57389665D01*
X199915236Y-57304309D01*
X199942943Y-57023000D01*
X199915236Y-56741691D01*
X199901708Y-56697093D01*
X204174089Y-52424713D01*
X204198128Y-52434670D01*
X204526565Y-52500000D01*
X204861435Y-52500000D01*
X205189872Y-52434670D01*
X205499252Y-52306521D01*
X205777687Y-52120477D01*
X205971000Y-51927164D01*
X205971000Y-56624268D01*
X205965637Y-56616241D01*
X205765759Y-56416363D01*
X205530727Y-56259320D01*
X205269574Y-56151147D01*
X204992335Y-56096000D01*
X204709665Y-56096000D01*
X204432426Y-56151147D01*
X204171273Y-56259320D01*
X203936241Y-56416363D01*
X203736363Y-56616241D01*
X203579320Y-56851273D01*
X203471147Y-57112426D01*
X203416000Y-57389665D01*
X203416000Y-57672335D01*
X203471147Y-57949574D01*
X203579320Y-58210727D01*
X203736363Y-58445759D01*
X203936241Y-58645637D01*
X204171273Y-58802680D01*
X204432426Y-58910853D01*
X204709665Y-58966000D01*
X204992335Y-58966000D01*
X205174887Y-58929688D01*
X205216002Y-58970803D01*
X205216002Y-61222152D01*
X205132309Y-61196764D01*
X204921492Y-61176000D01*
X204780508Y-61176000D01*
X204569691Y-61196764D01*
X204299192Y-61278818D01*
X204049899Y-61412068D01*
X203831392Y-61591392D01*
X203652068Y-61809899D01*
X203518818Y-62059192D01*
X203436764Y-62329691D01*
X203409057Y-62611000D01*
X203436764Y-62892309D01*
X203450292Y-62936907D01*
X203087997Y-63299202D01*
X203058999Y-63323000D01*
X203035201Y-63351998D01*
X203035200Y-63351999D01*
X202964025Y-63438725D01*
X202893453Y-63570755D01*
X202876901Y-63625323D01*
X202854835Y-63698068D01*
X202849997Y-63714016D01*
X202835323Y-63863001D01*
X202839000Y-63900333D01*
X202838999Y-74216199D01*
X198191907Y-78863292D01*
X198147309Y-78849764D01*
X197936492Y-78829000D01*
X197795508Y-78829000D01*
X197584691Y-78849764D01*
X197314192Y-78931818D01*
X197064899Y-79065068D01*
X196846392Y-79244392D01*
X196667068Y-79462899D01*
X196596000Y-79595858D01*
X196524932Y-79462899D01*
X196345608Y-79244392D01*
X196127101Y-79065068D01*
X196052631Y-79025263D01*
X196031546Y-78955753D01*
X195960974Y-78823724D01*
X195918920Y-78772481D01*
X195946665Y-78778000D01*
X196229335Y-78778000D01*
X196506574Y-78722853D01*
X196767727Y-78614680D01*
X197002759Y-78457637D01*
X197202637Y-78257759D01*
X197359680Y-78022727D01*
X197467853Y-77761574D01*
X197523000Y-77484335D01*
X197523000Y-77201665D01*
X197467853Y-76924426D01*
X197359680Y-76663273D01*
X197202637Y-76428241D01*
X197002759Y-76228363D01*
X196767727Y-76071320D01*
X196506574Y-75963147D01*
X196229335Y-75908000D01*
X195946665Y-75908000D01*
X195669426Y-75963147D01*
X195408273Y-76071320D01*
X195173241Y-76228363D01*
X194973363Y-76428241D01*
X194816320Y-76663273D01*
X194708147Y-76924426D01*
X194653000Y-77201665D01*
X194653000Y-77484335D01*
X194656939Y-77504138D01*
X194440708Y-77287906D01*
X194454236Y-77243309D01*
X194481943Y-76962000D01*
X194454236Y-76680691D01*
X194372182Y-76410192D01*
X194238932Y-76160899D01*
X194059608Y-75942392D01*
X193841101Y-75763068D01*
X193591808Y-75629818D01*
X193321309Y-75547764D01*
X193110492Y-75527000D01*
X192969508Y-75527000D01*
X192758691Y-75547764D01*
X192488192Y-75629818D01*
X192238899Y-75763068D01*
X192020392Y-75942392D01*
X191841068Y-76160899D01*
X191707818Y-76410192D01*
X191625764Y-76680691D01*
X191598057Y-76962000D01*
X191625764Y-77243309D01*
X191639292Y-77287906D01*
X190089753Y-78837446D01*
X189964691Y-78849764D01*
X189694192Y-78931818D01*
X189444899Y-79065068D01*
X189226392Y-79244392D01*
X189047068Y-79462899D01*
X188976000Y-79595858D01*
X188904932Y-79462899D01*
X188725608Y-79244392D01*
X188507101Y-79065068D01*
X188257808Y-78931818D01*
X187987309Y-78849764D01*
X187776492Y-78829000D01*
X187635508Y-78829000D01*
X187424691Y-78849764D01*
X187380094Y-78863292D01*
X187051001Y-78534200D01*
X187051001Y-78050606D01*
X187146903Y-77954704D01*
X187218486Y-78198671D01*
X187473996Y-78319571D01*
X187748184Y-78388300D01*
X188030512Y-78402217D01*
X188310130Y-78360787D01*
X188576292Y-78265603D01*
X188701514Y-78198671D01*
X188773097Y-77954702D01*
X187960000Y-77141605D01*
X187945858Y-77155748D01*
X187766253Y-76976143D01*
X187780395Y-76962000D01*
X188139605Y-76962000D01*
X188952702Y-77775097D01*
X189196671Y-77703514D01*
X189317571Y-77448004D01*
X189386300Y-77173816D01*
X189400217Y-76891488D01*
X189358787Y-76611870D01*
X189263603Y-76345708D01*
X189196671Y-76220486D01*
X188952702Y-76148903D01*
X188139605Y-76962000D01*
X187780395Y-76962000D01*
X187766253Y-76947858D01*
X187945858Y-76768253D01*
X187960000Y-76782395D01*
X188773097Y-75969298D01*
X188701514Y-75725329D01*
X188446004Y-75604429D01*
X188171816Y-75535700D01*
X187889488Y-75521783D01*
X187609870Y-75563213D01*
X187343708Y-75658397D01*
X187218486Y-75725329D01*
X187146903Y-75969296D01*
X187051001Y-75873394D01*
X187051001Y-75330323D01*
X187054677Y-75293000D01*
X187051001Y-75255677D01*
X187051001Y-75255668D01*
X187040004Y-75144015D01*
X186996547Y-75000754D01*
X186963744Y-74939385D01*
X186925975Y-74868724D01*
X186854800Y-74781998D01*
X186831002Y-74753000D01*
X186802005Y-74729203D01*
X186183688Y-74110886D01*
X186220000Y-73928335D01*
X186220000Y-73645665D01*
X186525000Y-73645665D01*
X186525000Y-73928335D01*
X186580147Y-74205574D01*
X186688320Y-74466727D01*
X186845363Y-74701759D01*
X187045241Y-74901637D01*
X187280273Y-75058680D01*
X187541426Y-75166853D01*
X187818665Y-75222000D01*
X188101335Y-75222000D01*
X188378574Y-75166853D01*
X188639727Y-75058680D01*
X188874759Y-74901637D01*
X189074637Y-74701759D01*
X189231680Y-74466727D01*
X189339853Y-74205574D01*
X189395000Y-73928335D01*
X189395000Y-73787000D01*
X191598057Y-73787000D01*
X191625764Y-74068309D01*
X191707818Y-74338808D01*
X191841068Y-74588101D01*
X192020392Y-74806608D01*
X192238899Y-74985932D01*
X192488192Y-75119182D01*
X192758691Y-75201236D01*
X192969508Y-75222000D01*
X193110492Y-75222000D01*
X193321309Y-75201236D01*
X193591808Y-75119182D01*
X193841101Y-74985932D01*
X194059608Y-74806608D01*
X194238932Y-74588101D01*
X194372182Y-74338808D01*
X194454236Y-74068309D01*
X194481943Y-73787000D01*
X194454236Y-73505691D01*
X194402672Y-73335702D01*
X195274903Y-73335702D01*
X195346486Y-73579671D01*
X195601996Y-73700571D01*
X195876184Y-73769300D01*
X196158512Y-73783217D01*
X196438130Y-73741787D01*
X196704292Y-73646603D01*
X196829514Y-73579671D01*
X196901097Y-73335702D01*
X196088000Y-72522605D01*
X195274903Y-73335702D01*
X194402672Y-73335702D01*
X194372182Y-73235192D01*
X194238932Y-72985899D01*
X194059608Y-72767392D01*
X193841101Y-72588068D01*
X193591808Y-72454818D01*
X193455639Y-72413512D01*
X194647783Y-72413512D01*
X194689213Y-72693130D01*
X194784397Y-72959292D01*
X194851329Y-73084514D01*
X195095298Y-73156097D01*
X195908395Y-72343000D01*
X196267605Y-72343000D01*
X197080702Y-73156097D01*
X197324671Y-73084514D01*
X197445571Y-72829004D01*
X197514300Y-72554816D01*
X197528217Y-72272488D01*
X197486787Y-71992870D01*
X197391603Y-71726708D01*
X197324671Y-71601486D01*
X197080702Y-71529903D01*
X196267605Y-72343000D01*
X195908395Y-72343000D01*
X195095298Y-71529903D01*
X194851329Y-71601486D01*
X194730429Y-71856996D01*
X194661700Y-72131184D01*
X194647783Y-72413512D01*
X193455639Y-72413512D01*
X193321309Y-72372764D01*
X193110492Y-72352000D01*
X192969508Y-72352000D01*
X192758691Y-72372764D01*
X192488192Y-72454818D01*
X192238899Y-72588068D01*
X192020392Y-72767392D01*
X191841068Y-72985899D01*
X191707818Y-73235192D01*
X191625764Y-73505691D01*
X191598057Y-73787000D01*
X189395000Y-73787000D01*
X189395000Y-73645665D01*
X189339853Y-73368426D01*
X189231680Y-73107273D01*
X189074637Y-72872241D01*
X188874759Y-72672363D01*
X188639727Y-72515320D01*
X188378574Y-72407147D01*
X188101335Y-72352000D01*
X187818665Y-72352000D01*
X187541426Y-72407147D01*
X187280273Y-72515320D01*
X187045241Y-72672363D01*
X186845363Y-72872241D01*
X186688320Y-73107273D01*
X186580147Y-73368426D01*
X186525000Y-73645665D01*
X186220000Y-73645665D01*
X186164853Y-73368426D01*
X186056680Y-73107273D01*
X185899637Y-72872241D01*
X185699759Y-72672363D01*
X185464727Y-72515320D01*
X185203574Y-72407147D01*
X184926335Y-72352000D01*
X184643665Y-72352000D01*
X184419999Y-72396491D01*
X184419999Y-71350298D01*
X195274903Y-71350298D01*
X196088000Y-72163395D01*
X196901097Y-71350298D01*
X196829514Y-71106329D01*
X196574004Y-70985429D01*
X196299816Y-70916700D01*
X196017488Y-70902783D01*
X195737870Y-70944213D01*
X195471708Y-71039397D01*
X195346486Y-71106329D01*
X195274903Y-71350298D01*
X184419999Y-71350298D01*
X184419999Y-70130834D01*
X184620426Y-70213853D01*
X184897665Y-70269000D01*
X185180335Y-70269000D01*
X185457574Y-70213853D01*
X185718727Y-70105680D01*
X185953759Y-69948637D01*
X186153637Y-69748759D01*
X186310680Y-69513727D01*
X186418853Y-69252574D01*
X186474000Y-68975335D01*
X186474000Y-68692665D01*
X186418853Y-68415426D01*
X186310680Y-68154273D01*
X186153637Y-67919241D01*
X185953759Y-67719363D01*
X185718727Y-67562320D01*
X185457574Y-67454147D01*
X185180335Y-67399000D01*
X184897665Y-67399000D01*
X184620426Y-67454147D01*
X184419999Y-67537166D01*
X184419999Y-66844802D01*
X184588113Y-66676688D01*
X184770665Y-66713000D01*
X185053335Y-66713000D01*
X185330574Y-66657853D01*
X185591727Y-66549680D01*
X185826759Y-66392637D01*
X186026637Y-66192759D01*
X186183680Y-65957727D01*
X186291853Y-65696574D01*
X186347000Y-65419335D01*
X186347000Y-65136665D01*
X186291853Y-64859426D01*
X186183680Y-64598273D01*
X186026637Y-64363241D01*
X185826759Y-64163363D01*
X185591727Y-64006320D01*
X185330574Y-63898147D01*
X185053335Y-63843000D01*
X184770665Y-63843000D01*
X184493426Y-63898147D01*
X184232273Y-64006320D01*
X183997241Y-64163363D01*
X183797363Y-64363241D01*
X183640320Y-64598273D01*
X183532147Y-64859426D01*
X183477000Y-65136665D01*
X183477000Y-65419335D01*
X183513312Y-65601887D01*
X183148997Y-65966202D01*
X183119999Y-65990000D01*
X183096201Y-66018998D01*
X183096200Y-66018999D01*
X183025025Y-66105725D01*
X182954453Y-66237755D01*
X182937392Y-66294000D01*
X182910997Y-66381015D01*
X182904893Y-66442985D01*
X182896323Y-66530001D01*
X182900000Y-66567333D01*
X182899999Y-75418677D01*
X182896323Y-75455999D01*
X182899999Y-75493321D01*
X182899999Y-75493331D01*
X182910996Y-75604984D01*
X182945059Y-75717277D01*
X182954453Y-75748245D01*
X183025025Y-75880275D01*
X183047779Y-75908000D01*
X183119998Y-75996000D01*
X183149002Y-76019803D01*
X183765292Y-76636094D01*
X183751764Y-76680691D01*
X183724057Y-76962000D01*
X183751764Y-77243309D01*
X183833818Y-77513808D01*
X183967068Y-77763101D01*
X184146392Y-77981608D01*
X184364899Y-78160932D01*
X184406000Y-78182901D01*
X184406000Y-79043099D01*
X184364899Y-79065068D01*
X184146392Y-79244392D01*
X183967068Y-79462899D01*
X183896000Y-79595858D01*
X183824932Y-79462899D01*
X183645608Y-79244392D01*
X183427101Y-79065068D01*
X183177808Y-78931818D01*
X182907309Y-78849764D01*
X182696492Y-78829000D01*
X182555508Y-78829000D01*
X182344691Y-78849764D01*
X182074192Y-78931818D01*
X181824899Y-79065068D01*
X181606392Y-79244392D01*
X181427068Y-79462899D01*
X181356000Y-79595858D01*
X181284932Y-79462899D01*
X181105608Y-79244392D01*
X180887101Y-79065068D01*
X180637808Y-78931818D01*
X180367309Y-78849764D01*
X180156492Y-78829000D01*
X180015508Y-78829000D01*
X179804691Y-78849764D01*
X179760094Y-78863292D01*
X179339999Y-78443198D01*
X179339999Y-78183378D01*
X179344486Y-78198671D01*
X179599996Y-78319571D01*
X179874184Y-78388300D01*
X180156512Y-78402217D01*
X180436130Y-78360787D01*
X180702292Y-78265603D01*
X180827514Y-78198671D01*
X180899097Y-77954702D01*
X180086000Y-77141605D01*
X180071858Y-77155748D01*
X179892253Y-76976143D01*
X179906395Y-76962000D01*
X180265605Y-76962000D01*
X181078702Y-77775097D01*
X181322671Y-77703514D01*
X181443571Y-77448004D01*
X181512300Y-77173816D01*
X181526217Y-76891488D01*
X181484787Y-76611870D01*
X181389603Y-76345708D01*
X181322671Y-76220486D01*
X181078702Y-76148903D01*
X180265605Y-76962000D01*
X179906395Y-76962000D01*
X179892253Y-76947858D01*
X180071858Y-76768253D01*
X180086000Y-76782395D01*
X180899097Y-75969298D01*
X180827514Y-75725329D01*
X180572004Y-75604429D01*
X180297816Y-75535700D01*
X180015488Y-75521783D01*
X179735870Y-75563213D01*
X179469708Y-75658397D01*
X179344486Y-75725329D01*
X179339999Y-75740622D01*
X179339999Y-75173193D01*
X179355960Y-75178909D01*
X179578000Y-75057624D01*
X179578000Y-73914000D01*
X179832000Y-73914000D01*
X179832000Y-75057624D01*
X180054040Y-75178909D01*
X180318881Y-75084070D01*
X180560131Y-74939385D01*
X180768519Y-74750414D01*
X180936037Y-74524420D01*
X181056246Y-74270087D01*
X181096904Y-74136039D01*
X180974915Y-73914000D01*
X179832000Y-73914000D01*
X179578000Y-73914000D01*
X179558000Y-73914000D01*
X179558000Y-73660000D01*
X179578000Y-73660000D01*
X179578000Y-72516376D01*
X179832000Y-72516376D01*
X179832000Y-73660000D01*
X180974915Y-73660000D01*
X181096904Y-73437961D01*
X181056246Y-73303913D01*
X180936037Y-73049580D01*
X180768519Y-72823586D01*
X180560131Y-72634615D01*
X180318881Y-72489930D01*
X180054040Y-72395091D01*
X179832000Y-72516376D01*
X179578000Y-72516376D01*
X179355960Y-72395091D01*
X179339999Y-72400807D01*
X179339999Y-70527802D01*
X179633094Y-70234708D01*
X179677691Y-70248236D01*
X179888508Y-70269000D01*
X180029492Y-70269000D01*
X180240309Y-70248236D01*
X180510808Y-70166182D01*
X180760101Y-70032932D01*
X180978608Y-69853608D01*
X181157932Y-69635101D01*
X181291182Y-69385808D01*
X181373236Y-69115309D01*
X181400943Y-68834000D01*
X181373236Y-68552691D01*
X181291182Y-68282192D01*
X181157932Y-68032899D01*
X180978608Y-67814392D01*
X180760101Y-67635068D01*
X180510808Y-67501818D01*
X180240309Y-67419764D01*
X180029492Y-67399000D01*
X179888508Y-67399000D01*
X179677691Y-67419764D01*
X179407192Y-67501818D01*
X179157899Y-67635068D01*
X178939392Y-67814392D01*
X178760068Y-68032899D01*
X178626818Y-68282192D01*
X178544764Y-68552691D01*
X178517057Y-68834000D01*
X178544764Y-69115309D01*
X178558292Y-69159906D01*
X178069002Y-69649197D01*
X178039998Y-69673000D01*
X178006766Y-69713494D01*
X177945025Y-69788725D01*
X177874454Y-69920754D01*
X177874453Y-69920755D01*
X177830996Y-70064016D01*
X177819999Y-70175669D01*
X177819999Y-70175679D01*
X177816323Y-70213001D01*
X177819999Y-70250323D01*
X177820000Y-78720667D01*
X177816323Y-78757999D01*
X177820000Y-78795332D01*
X177830997Y-78906985D01*
X177838530Y-78931818D01*
X177874453Y-79050245D01*
X177945025Y-79182275D01*
X177996004Y-79244392D01*
X178039999Y-79298000D01*
X178068997Y-79321798D01*
X178685292Y-79938094D01*
X178671764Y-79982691D01*
X178644057Y-80264000D01*
X178671764Y-80545309D01*
X178753818Y-80815808D01*
X178887068Y-81065101D01*
X179066392Y-81283608D01*
X179284899Y-81462932D01*
X179534192Y-81596182D01*
X179804691Y-81678236D01*
X180015508Y-81699000D01*
X180156492Y-81699000D01*
X180367309Y-81678236D01*
X180637808Y-81596182D01*
X180887101Y-81462932D01*
X181105608Y-81283608D01*
X181284932Y-81065101D01*
X181356000Y-80932142D01*
X181427068Y-81065101D01*
X181606392Y-81283608D01*
X181824899Y-81462932D01*
X182074192Y-81596182D01*
X182344691Y-81678236D01*
X182555508Y-81699000D01*
X182696492Y-81699000D01*
X182907309Y-81678236D01*
X183177808Y-81596182D01*
X183427101Y-81462932D01*
X183645608Y-81283608D01*
X183824932Y-81065101D01*
X183896000Y-80932142D01*
X183967068Y-81065101D01*
X184146392Y-81283608D01*
X184364899Y-81462932D01*
X184614192Y-81596182D01*
X184884691Y-81678236D01*
X185095508Y-81699000D01*
X185236492Y-81699000D01*
X185447309Y-81678236D01*
X185717808Y-81596182D01*
X185967101Y-81462932D01*
X186185608Y-81283608D01*
X186364932Y-81065101D01*
X186436000Y-80932142D01*
X186507068Y-81065101D01*
X186686392Y-81283608D01*
X186904899Y-81462932D01*
X187154192Y-81596182D01*
X187424691Y-81678236D01*
X187635508Y-81699000D01*
X187776492Y-81699000D01*
X187987309Y-81678236D01*
X188257808Y-81596182D01*
X188507101Y-81462932D01*
X188725608Y-81283608D01*
X188904932Y-81065101D01*
X188976000Y-80932142D01*
X189047068Y-81065101D01*
X189226392Y-81283608D01*
X189444899Y-81462932D01*
X189694192Y-81596182D01*
X189964691Y-81678236D01*
X190175508Y-81699000D01*
X190316492Y-81699000D01*
X190527309Y-81678236D01*
X190797808Y-81596182D01*
X191047101Y-81462932D01*
X191265608Y-81283608D01*
X191444932Y-81065101D01*
X191516000Y-80932142D01*
X191587068Y-81065101D01*
X191766392Y-81283608D01*
X191984899Y-81462932D01*
X192234192Y-81596182D01*
X192504691Y-81678236D01*
X192715508Y-81699000D01*
X192856492Y-81699000D01*
X193067309Y-81678236D01*
X193337808Y-81596182D01*
X193587101Y-81462932D01*
X193805608Y-81283608D01*
X193984932Y-81065101D01*
X194056000Y-80932142D01*
X194127068Y-81065101D01*
X194306392Y-81283608D01*
X194524899Y-81462932D01*
X194774192Y-81596182D01*
X195044691Y-81678236D01*
X195255508Y-81699000D01*
X195396492Y-81699000D01*
X195607309Y-81678236D01*
X195877808Y-81596182D01*
X196127101Y-81462932D01*
X196345608Y-81283608D01*
X196524932Y-81065101D01*
X196596000Y-80932142D01*
X196667068Y-81065101D01*
X196846392Y-81283608D01*
X197064899Y-81462932D01*
X197314192Y-81596182D01*
X197584691Y-81678236D01*
X197795508Y-81699000D01*
X197936492Y-81699000D01*
X198147309Y-81678236D01*
X198417808Y-81596182D01*
X198667101Y-81462932D01*
X198885608Y-81283608D01*
X199064932Y-81065101D01*
X199198182Y-80815808D01*
X199280236Y-80545309D01*
X199307943Y-80264000D01*
X199280236Y-79982691D01*
X199266708Y-79938093D01*
X200187928Y-79016873D01*
X200187928Y-79971000D01*
X200200188Y-80095482D01*
X200236498Y-80215180D01*
X200295463Y-80325494D01*
X200374815Y-80422185D01*
X200471506Y-80501537D01*
X200581820Y-80560502D01*
X200662466Y-80584966D01*
X200578412Y-80660731D01*
X200404359Y-80894080D01*
X200279175Y-81156901D01*
X200234524Y-81304110D01*
X200355845Y-81534000D01*
X201549000Y-81534000D01*
X201549000Y-81514000D01*
X201803000Y-81514000D01*
X201803000Y-81534000D01*
X204089000Y-81534000D01*
X204089000Y-81514000D01*
X204343000Y-81514000D01*
X204343000Y-81534000D01*
X204363000Y-81534000D01*
X204363000Y-81788000D01*
X204343000Y-81788000D01*
X204343000Y-84074000D01*
X204363000Y-84074000D01*
X204363000Y-84328000D01*
X204343000Y-84328000D01*
X204343000Y-86614000D01*
X204363000Y-86614000D01*
X204363000Y-86868000D01*
X204343000Y-86868000D01*
X204343000Y-86888000D01*
X204089000Y-86888000D01*
X204089000Y-86868000D01*
X201803000Y-86868000D01*
X201803000Y-86888000D01*
X201549000Y-86888000D01*
X201549000Y-86868000D01*
X200355845Y-86868000D01*
X200234524Y-87097890D01*
X200279175Y-87245099D01*
X200404359Y-87507920D01*
X200578412Y-87741269D01*
X200794645Y-87936178D01*
X200911523Y-88005799D01*
X200846986Y-88040294D01*
X200620866Y-88225866D01*
X200435294Y-88451986D01*
X200297401Y-88709966D01*
X200212487Y-88989889D01*
X200183815Y-89281000D01*
X200212487Y-89572111D01*
X200297401Y-89852034D01*
X200435294Y-90110014D01*
X200620866Y-90336134D01*
X200846986Y-90521706D01*
X200916000Y-90558595D01*
X200916001Y-92151764D01*
X200912320Y-92157273D01*
X200804147Y-92418426D01*
X200749000Y-92695665D01*
X200749000Y-92978335D01*
X200804147Y-93255574D01*
X200912320Y-93516727D01*
X201069363Y-93751759D01*
X201269241Y-93951637D01*
X201504273Y-94108680D01*
X201765426Y-94216853D01*
X202042665Y-94272000D01*
X202325335Y-94272000D01*
X202602574Y-94216853D01*
X202863727Y-94108680D01*
X203098759Y-93951637D01*
X203298637Y-93751759D01*
X203455680Y-93516727D01*
X203563853Y-93255574D01*
X203619000Y-92978335D01*
X203619000Y-92695665D01*
X203563853Y-92418426D01*
X203455680Y-92157273D01*
X203298637Y-91922241D01*
X203098759Y-91722363D01*
X202949302Y-91622499D01*
X203850005Y-90721797D01*
X203924889Y-90744513D01*
X204143050Y-90766000D01*
X204288950Y-90766000D01*
X204507111Y-90744513D01*
X204787034Y-90659599D01*
X205045014Y-90521706D01*
X205271134Y-90336134D01*
X205456706Y-90110014D01*
X205594599Y-89852034D01*
X205679513Y-89572111D01*
X205708185Y-89281000D01*
X205679513Y-88989889D01*
X205656797Y-88915004D01*
X205901998Y-88669803D01*
X205929073Y-88647583D01*
X205849066Y-99448564D01*
X205767309Y-99423764D01*
X205556492Y-99403000D01*
X205415508Y-99403000D01*
X205204691Y-99423764D01*
X204934192Y-99505818D01*
X204684899Y-99639068D01*
X204466392Y-99818392D01*
X204287068Y-100036899D01*
X204153818Y-100286192D01*
X204071764Y-100556691D01*
X204044057Y-100838000D01*
X204071764Y-101119309D01*
X204153818Y-101389808D01*
X204287068Y-101639101D01*
X204466392Y-101857608D01*
X204684899Y-102036932D01*
X204726000Y-102058901D01*
X204726001Y-103648399D01*
X197982862Y-110391538D01*
X197900521Y-110192748D01*
X197714477Y-109914313D01*
X197477687Y-109677523D01*
X197199252Y-109491479D01*
X196889872Y-109363330D01*
X196561435Y-109298000D01*
X196226565Y-109298000D01*
X195898128Y-109363330D01*
X195588748Y-109491479D01*
X195310313Y-109677523D01*
X195073523Y-109914313D01*
X194887479Y-110192748D01*
X194845895Y-110293140D01*
X194847072Y-110033000D01*
X194834812Y-109908518D01*
X194798502Y-109788820D01*
X194739537Y-109678506D01*
X194660185Y-109581815D01*
X194563494Y-109502463D01*
X194453180Y-109443498D01*
X194333482Y-109407188D01*
X194209000Y-109394928D01*
X193579750Y-109398000D01*
X193421000Y-109556750D01*
X193421000Y-110871000D01*
X193441000Y-110871000D01*
X193441000Y-111125000D01*
X193421000Y-111125000D01*
X193421000Y-112439250D01*
X193579750Y-112598000D01*
X194209000Y-112601072D01*
X194333482Y-112588812D01*
X194453180Y-112552502D01*
X194563494Y-112493537D01*
X194660185Y-112414185D01*
X194739537Y-112317494D01*
X194798502Y-112207180D01*
X194834812Y-112087482D01*
X194847072Y-111963000D01*
X194845895Y-111702860D01*
X194887479Y-111803252D01*
X195073523Y-112081687D01*
X195310313Y-112318477D01*
X195588748Y-112504521D01*
X195787538Y-112586862D01*
X192649004Y-115725397D01*
X192620000Y-115749200D01*
X192564872Y-115816375D01*
X192525027Y-115864925D01*
X192454456Y-115996954D01*
X192454455Y-115996955D01*
X192438282Y-116050270D01*
X192055750Y-116052000D01*
X191897000Y-116210750D01*
X191897000Y-117475000D01*
X191917000Y-117475000D01*
X191917000Y-117729000D01*
X191897000Y-117729000D01*
X191897000Y-117749000D01*
X191643000Y-117749000D01*
X191643000Y-117729000D01*
X190328750Y-117729000D01*
X190170000Y-117887750D01*
X190166928Y-118517000D01*
X190179188Y-118641482D01*
X190215498Y-118761180D01*
X190274463Y-118871494D01*
X190353815Y-118968185D01*
X190450506Y-119047537D01*
X190560820Y-119106502D01*
X190680518Y-119142812D01*
X190805000Y-119155072D01*
X191065140Y-119153895D01*
X190964748Y-119195479D01*
X190686313Y-119381523D01*
X190449523Y-119618313D01*
X190263479Y-119896748D01*
X190135330Y-120206128D01*
X190070000Y-120534565D01*
X190070000Y-120869435D01*
X190135330Y-121197872D01*
X190263479Y-121507252D01*
X190449523Y-121785687D01*
X190686313Y-122022477D01*
X190964748Y-122208521D01*
X191274128Y-122336670D01*
X191602565Y-122402000D01*
X191937435Y-122402000D01*
X192265872Y-122336670D01*
X192400002Y-122281112D01*
X192400002Y-127297197D01*
X192324002Y-127373197D01*
X192323996Y-127373202D01*
X192311124Y-127386074D01*
X192265872Y-127367330D01*
X191937435Y-127302000D01*
X191602565Y-127302000D01*
X191274128Y-127367330D01*
X190964748Y-127495479D01*
X190686313Y-127681523D01*
X190449523Y-127918313D01*
X190263479Y-128196748D01*
X190135330Y-128506128D01*
X190070000Y-128834565D01*
X190070000Y-129169435D01*
X190135330Y-129497872D01*
X190263479Y-129807252D01*
X190449523Y-130085687D01*
X190686313Y-130322477D01*
X190964748Y-130508521D01*
X191274128Y-130636670D01*
X191602565Y-130702000D01*
X191937435Y-130702000D01*
X192265872Y-130636670D01*
X192575252Y-130508521D01*
X192853687Y-130322477D01*
X193090477Y-130085687D01*
X193276521Y-129807252D01*
X193404670Y-129497872D01*
X193470000Y-129169435D01*
X193470000Y-128834565D01*
X193404670Y-128506128D01*
X193385926Y-128460876D01*
X193398798Y-128448004D01*
X193398803Y-128447998D01*
X193670998Y-128175803D01*
X193700002Y-128152000D01*
X193794975Y-128036275D01*
X193865547Y-127904246D01*
X193909004Y-127760985D01*
X193920001Y-127649332D01*
X193920001Y-127649323D01*
X193923677Y-127612000D01*
X193920001Y-127574677D01*
X193920001Y-116604002D01*
X205810063Y-104713941D01*
X205773317Y-109674603D01*
X205499252Y-109491479D01*
X205189872Y-109363330D01*
X204861435Y-109298000D01*
X204526565Y-109298000D01*
X204198128Y-109363330D01*
X203888748Y-109491479D01*
X203610313Y-109677523D01*
X203373523Y-109914313D01*
X203187479Y-110192748D01*
X203059330Y-110502128D01*
X202994000Y-110830565D01*
X202994000Y-111165435D01*
X203059330Y-111493872D01*
X203187479Y-111803252D01*
X203373523Y-112081687D01*
X203610313Y-112318477D01*
X203888748Y-112504521D01*
X204198128Y-112632670D01*
X204526565Y-112698000D01*
X204861435Y-112698000D01*
X205189872Y-112632670D01*
X205499252Y-112504521D01*
X205753614Y-112334562D01*
X205617314Y-130735000D01*
X177494000Y-130735000D01*
X177494000Y-116687000D01*
X190166928Y-116687000D01*
X190170000Y-117316250D01*
X190328750Y-117475000D01*
X191643000Y-117475000D01*
X191643000Y-116210750D01*
X191484250Y-116052000D01*
X190805000Y-116048928D01*
X190680518Y-116061188D01*
X190560820Y-116097498D01*
X190450506Y-116156463D01*
X190353815Y-116235815D01*
X190274463Y-116332506D01*
X190215498Y-116442820D01*
X190179188Y-116562518D01*
X190166928Y-116687000D01*
X177494000Y-116687000D01*
X177494000Y-112034509D01*
X177525523Y-112081687D01*
X177762313Y-112318477D01*
X178040748Y-112504521D01*
X178350128Y-112632670D01*
X178678565Y-112698000D01*
X179013435Y-112698000D01*
X179341872Y-112632670D01*
X179651252Y-112504521D01*
X179929687Y-112318477D01*
X180166477Y-112081687D01*
X180352521Y-111803252D01*
X180480670Y-111493872D01*
X180546000Y-111165435D01*
X180546000Y-110830565D01*
X185446000Y-110830565D01*
X185446000Y-111165435D01*
X185511330Y-111493872D01*
X185639479Y-111803252D01*
X185825523Y-112081687D01*
X186062313Y-112318477D01*
X186340748Y-112504521D01*
X186650128Y-112632670D01*
X186978565Y-112698000D01*
X187313435Y-112698000D01*
X187641872Y-112632670D01*
X187951252Y-112504521D01*
X188229687Y-112318477D01*
X188466477Y-112081687D01*
X188652521Y-111803252D01*
X188694105Y-111702860D01*
X188692928Y-111963000D01*
X188705188Y-112087482D01*
X188741498Y-112207180D01*
X188800463Y-112317494D01*
X188879815Y-112414185D01*
X188976506Y-112493537D01*
X189086820Y-112552502D01*
X189206518Y-112588812D01*
X189331000Y-112601072D01*
X189960250Y-112598000D01*
X190119000Y-112439250D01*
X190119000Y-111125000D01*
X190373000Y-111125000D01*
X190373000Y-112439250D01*
X190531750Y-112598000D01*
X191161000Y-112601072D01*
X191285482Y-112588812D01*
X191405180Y-112552502D01*
X191515494Y-112493537D01*
X191612185Y-112414185D01*
X191691537Y-112317494D01*
X191750502Y-112207180D01*
X191770000Y-112142904D01*
X191789498Y-112207180D01*
X191848463Y-112317494D01*
X191927815Y-112414185D01*
X192024506Y-112493537D01*
X192134820Y-112552502D01*
X192254518Y-112588812D01*
X192379000Y-112601072D01*
X193008250Y-112598000D01*
X193167000Y-112439250D01*
X193167000Y-111125000D01*
X191902750Y-111125000D01*
X191770000Y-111257750D01*
X191637250Y-111125000D01*
X190373000Y-111125000D01*
X190119000Y-111125000D01*
X190099000Y-111125000D01*
X190099000Y-110871000D01*
X190119000Y-110871000D01*
X190119000Y-109556750D01*
X190373000Y-109556750D01*
X190373000Y-110871000D01*
X191637250Y-110871000D01*
X191770000Y-110738250D01*
X191902750Y-110871000D01*
X193167000Y-110871000D01*
X193167000Y-109556750D01*
X193008250Y-109398000D01*
X192379000Y-109394928D01*
X192254518Y-109407188D01*
X192134820Y-109443498D01*
X192024506Y-109502463D01*
X191927815Y-109581815D01*
X191848463Y-109678506D01*
X191789498Y-109788820D01*
X191770000Y-109853096D01*
X191750502Y-109788820D01*
X191691537Y-109678506D01*
X191612185Y-109581815D01*
X191515494Y-109502463D01*
X191405180Y-109443498D01*
X191285482Y-109407188D01*
X191161000Y-109394928D01*
X190531750Y-109398000D01*
X190373000Y-109556750D01*
X190119000Y-109556750D01*
X189960250Y-109398000D01*
X189331000Y-109394928D01*
X189206518Y-109407188D01*
X189086820Y-109443498D01*
X188976506Y-109502463D01*
X188879815Y-109581815D01*
X188800463Y-109678506D01*
X188741498Y-109788820D01*
X188705188Y-109908518D01*
X188692928Y-110033000D01*
X188694105Y-110293140D01*
X188652521Y-110192748D01*
X188466477Y-109914313D01*
X188229687Y-109677523D01*
X187951252Y-109491479D01*
X187641872Y-109363330D01*
X187313435Y-109298000D01*
X186978565Y-109298000D01*
X186650128Y-109363330D01*
X186340748Y-109491479D01*
X186062313Y-109677523D01*
X185825523Y-109914313D01*
X185639479Y-110192748D01*
X185511330Y-110502128D01*
X185446000Y-110830565D01*
X180546000Y-110830565D01*
X180480670Y-110502128D01*
X180352521Y-110192748D01*
X180166477Y-109914313D01*
X179929687Y-109677523D01*
X179651252Y-109491479D01*
X179607869Y-109473509D01*
X179595003Y-109342877D01*
X179551546Y-109199616D01*
X179480974Y-109067587D01*
X179409799Y-108980860D01*
X179386001Y-108951862D01*
X179357002Y-108928063D01*
X178958999Y-108530061D01*
X178958999Y-102870000D01*
X179152057Y-102870000D01*
X179179764Y-103151309D01*
X179261818Y-103421808D01*
X179395068Y-103671101D01*
X179574392Y-103889608D01*
X179792899Y-104068932D01*
X180042192Y-104202182D01*
X180312691Y-104284236D01*
X180523508Y-104305000D01*
X180664492Y-104305000D01*
X180875309Y-104284236D01*
X181145808Y-104202182D01*
X181395101Y-104068932D01*
X181613608Y-103889608D01*
X181792932Y-103671101D01*
X181926182Y-103421808D01*
X182008236Y-103151309D01*
X182035943Y-102870000D01*
X182008236Y-102588691D01*
X181926182Y-102318192D01*
X181874053Y-102220665D01*
X182842000Y-102220665D01*
X182842000Y-102503335D01*
X182897147Y-102780574D01*
X183005320Y-103041727D01*
X183162363Y-103276759D01*
X183362241Y-103476637D01*
X183597273Y-103633680D01*
X183858426Y-103741853D01*
X184135665Y-103797000D01*
X184418335Y-103797000D01*
X184695574Y-103741853D01*
X184956727Y-103633680D01*
X185191759Y-103476637D01*
X185391637Y-103276759D01*
X185548680Y-103041727D01*
X185656853Y-102780574D01*
X185712000Y-102503335D01*
X185712000Y-102220665D01*
X185656853Y-101943426D01*
X185548680Y-101682273D01*
X185391637Y-101447241D01*
X185191759Y-101247363D01*
X184956727Y-101090320D01*
X184695574Y-100982147D01*
X184418335Y-100927000D01*
X184135665Y-100927000D01*
X183858426Y-100982147D01*
X183597273Y-101090320D01*
X183362241Y-101247363D01*
X183162363Y-101447241D01*
X183005320Y-101682273D01*
X182897147Y-101943426D01*
X182842000Y-102220665D01*
X181874053Y-102220665D01*
X181792932Y-102068899D01*
X181613608Y-101850392D01*
X181395101Y-101671068D01*
X181145808Y-101537818D01*
X180875309Y-101455764D01*
X180664492Y-101435000D01*
X180523508Y-101435000D01*
X180312691Y-101455764D01*
X180042192Y-101537818D01*
X179792899Y-101671068D01*
X179574392Y-101850392D01*
X179395068Y-102068899D01*
X179261818Y-102318192D01*
X179179764Y-102588691D01*
X179152057Y-102870000D01*
X178958999Y-102870000D01*
X178958999Y-97648665D01*
X179159000Y-97648665D01*
X179159000Y-97931335D01*
X179214147Y-98208574D01*
X179322320Y-98469727D01*
X179479363Y-98704759D01*
X179679241Y-98904637D01*
X179914273Y-99061680D01*
X180175426Y-99169853D01*
X180452665Y-99225000D01*
X180735335Y-99225000D01*
X181012574Y-99169853D01*
X181273727Y-99061680D01*
X181508759Y-98904637D01*
X181708637Y-98704759D01*
X181865680Y-98469727D01*
X181973853Y-98208574D01*
X182029000Y-97931335D01*
X182029000Y-97648665D01*
X181973853Y-97371426D01*
X181865680Y-97110273D01*
X181708637Y-96875241D01*
X181508759Y-96675363D01*
X181273727Y-96518320D01*
X181012574Y-96410147D01*
X180735335Y-96355000D01*
X180452665Y-96355000D01*
X180175426Y-96410147D01*
X179914273Y-96518320D01*
X179679241Y-96675363D01*
X179479363Y-96875241D01*
X179322320Y-97110273D01*
X179214147Y-97371426D01*
X179159000Y-97648665D01*
X178958999Y-97648665D01*
X178958999Y-95747193D01*
X178974960Y-95752909D01*
X179197000Y-95631624D01*
X179197000Y-94488000D01*
X179177000Y-94488000D01*
X179177000Y-94234000D01*
X179197000Y-94234000D01*
X179197000Y-93090376D01*
X178974960Y-92969091D01*
X178958999Y-92974807D01*
X178958999Y-92625802D01*
X178998093Y-92586708D01*
X179042691Y-92600236D01*
X179253508Y-92621000D01*
X179394492Y-92621000D01*
X179605309Y-92600236D01*
X179707000Y-92569389D01*
X179707000Y-92981252D01*
X179673040Y-92969091D01*
X179451000Y-93090376D01*
X179451000Y-94234000D01*
X179471000Y-94234000D01*
X179471000Y-94488000D01*
X179451000Y-94488000D01*
X179451000Y-95631624D01*
X179673040Y-95752909D01*
X179937881Y-95658070D01*
X180179131Y-95513385D01*
X180387519Y-95324414D01*
X180555037Y-95098420D01*
X180675246Y-94844087D01*
X180695968Y-94775769D01*
X182876292Y-96956094D01*
X182862764Y-97000691D01*
X182835057Y-97282000D01*
X182862764Y-97563309D01*
X182944818Y-97833808D01*
X183078068Y-98083101D01*
X183257392Y-98301608D01*
X183475899Y-98480932D01*
X183725192Y-98614182D01*
X183995691Y-98696236D01*
X184206508Y-98717000D01*
X184347492Y-98717000D01*
X184558309Y-98696236D01*
X184828808Y-98614182D01*
X185078101Y-98480932D01*
X185296608Y-98301608D01*
X185313000Y-98281635D01*
X185313000Y-99802667D01*
X185309323Y-99839999D01*
X185313000Y-99877332D01*
X185322354Y-99972298D01*
X185323997Y-99988984D01*
X185367453Y-100132245D01*
X185438025Y-100264275D01*
X185499681Y-100339402D01*
X185532999Y-100380000D01*
X185561997Y-100403798D01*
X185797292Y-100639093D01*
X185783764Y-100683691D01*
X185756057Y-100965000D01*
X185783764Y-101246309D01*
X185865818Y-101516808D01*
X185999068Y-101766101D01*
X186178392Y-101984608D01*
X186396899Y-102163932D01*
X186646192Y-102297182D01*
X186916691Y-102379236D01*
X187127508Y-102400000D01*
X187268492Y-102400000D01*
X187479309Y-102379236D01*
X187619000Y-102336862D01*
X187618999Y-102832000D01*
X187437665Y-102832000D01*
X187160426Y-102887147D01*
X186899273Y-102995320D01*
X186664241Y-103152363D01*
X186464363Y-103352241D01*
X186307320Y-103587273D01*
X186199147Y-103848426D01*
X186144000Y-104125665D01*
X186144000Y-104408335D01*
X186199147Y-104685574D01*
X186307320Y-104946727D01*
X186464363Y-105181759D01*
X186664241Y-105381637D01*
X186899273Y-105538680D01*
X187160426Y-105646853D01*
X187437665Y-105702000D01*
X187720335Y-105702000D01*
X187997574Y-105646853D01*
X188258727Y-105538680D01*
X188493759Y-105381637D01*
X188693637Y-105181759D01*
X188850680Y-104946727D01*
X188958853Y-104685574D01*
X189014000Y-104408335D01*
X189014000Y-104267000D01*
X191217057Y-104267000D01*
X191244764Y-104548309D01*
X191326818Y-104818808D01*
X191460068Y-105068101D01*
X191639392Y-105286608D01*
X191857899Y-105465932D01*
X192107192Y-105599182D01*
X192377691Y-105681236D01*
X192588508Y-105702000D01*
X192729492Y-105702000D01*
X192940309Y-105681236D01*
X193210808Y-105599182D01*
X193460101Y-105465932D01*
X193678608Y-105286608D01*
X193857932Y-105068101D01*
X193991182Y-104818808D01*
X194073236Y-104548309D01*
X194100943Y-104267000D01*
X194073236Y-103985691D01*
X193991182Y-103715192D01*
X193857932Y-103465899D01*
X193678608Y-103247392D01*
X193460101Y-103068068D01*
X193210808Y-102934818D01*
X192940309Y-102852764D01*
X192729492Y-102832000D01*
X192588508Y-102832000D01*
X192377691Y-102852764D01*
X192107192Y-102934818D01*
X191857899Y-103068068D01*
X191639392Y-103247392D01*
X191460068Y-103465899D01*
X191326818Y-103715192D01*
X191244764Y-103985691D01*
X191217057Y-104267000D01*
X189014000Y-104267000D01*
X189014000Y-104125665D01*
X188976467Y-103936978D01*
X189013972Y-103891278D01*
X189013973Y-103891277D01*
X189084545Y-103759248D01*
X189128002Y-103615987D01*
X189138999Y-103504334D01*
X189138999Y-103504325D01*
X189142675Y-103467002D01*
X189138999Y-103429679D01*
X189138999Y-102616000D01*
X194570388Y-102616000D01*
X194592785Y-102843400D01*
X194659115Y-103062060D01*
X194766829Y-103263579D01*
X194911788Y-103440212D01*
X195088421Y-103585171D01*
X195289940Y-103692885D01*
X195508600Y-103759215D01*
X195679021Y-103776000D01*
X196242979Y-103776000D01*
X196413400Y-103759215D01*
X196632060Y-103692885D01*
X196833579Y-103585171D01*
X197010212Y-103440212D01*
X197155171Y-103263579D01*
X197262885Y-103062060D01*
X197329215Y-102843400D01*
X197351612Y-102616000D01*
X197329215Y-102388600D01*
X197262885Y-102169940D01*
X197162071Y-101981331D01*
X197203275Y-101922882D01*
X197296272Y-101713337D01*
X197304964Y-101651810D01*
X197179163Y-101473000D01*
X196414109Y-101473000D01*
X196413400Y-101472785D01*
X196242979Y-101456000D01*
X195679021Y-101456000D01*
X195508600Y-101472785D01*
X195507891Y-101473000D01*
X194742837Y-101473000D01*
X194617036Y-101651810D01*
X194625728Y-101713337D01*
X194718725Y-101922882D01*
X194759929Y-101981331D01*
X194659115Y-102169940D01*
X194592785Y-102388600D01*
X194570388Y-102616000D01*
X189138999Y-102616000D01*
X189138999Y-101957702D01*
X191464903Y-101957702D01*
X191536486Y-102201671D01*
X191791996Y-102322571D01*
X192066184Y-102391300D01*
X192348512Y-102405217D01*
X192628130Y-102363787D01*
X192894292Y-102268603D01*
X193019514Y-102201671D01*
X193091097Y-101957702D01*
X192278000Y-101144605D01*
X191464903Y-101957702D01*
X189138999Y-101957702D01*
X189138999Y-101876802D01*
X189980289Y-101035512D01*
X190837783Y-101035512D01*
X190879213Y-101315130D01*
X190974397Y-101581292D01*
X191041329Y-101706514D01*
X191285298Y-101778097D01*
X192098395Y-100965000D01*
X192457605Y-100965000D01*
X193270702Y-101778097D01*
X193514671Y-101706514D01*
X193635571Y-101451004D01*
X193704300Y-101176816D01*
X193718217Y-100894488D01*
X193676787Y-100614870D01*
X193581603Y-100348708D01*
X193514671Y-100223486D01*
X193270702Y-100151903D01*
X192457605Y-100965000D01*
X192098395Y-100965000D01*
X191285298Y-100151903D01*
X191041329Y-100223486D01*
X190920429Y-100478996D01*
X190851700Y-100753184D01*
X190837783Y-101035512D01*
X189980289Y-101035512D01*
X191043503Y-99972298D01*
X191464903Y-99972298D01*
X192278000Y-100785395D01*
X193091097Y-99972298D01*
X193019514Y-99728329D01*
X192764004Y-99607429D01*
X192489816Y-99538700D01*
X192207488Y-99524783D01*
X191927870Y-99566213D01*
X191661708Y-99661397D01*
X191536486Y-99728329D01*
X191464903Y-99972298D01*
X191043503Y-99972298D01*
X191954114Y-99061688D01*
X192136665Y-99098000D01*
X192419335Y-99098000D01*
X192696574Y-99042853D01*
X192957727Y-98934680D01*
X193192759Y-98777637D01*
X193392637Y-98577759D01*
X193549680Y-98342727D01*
X193657853Y-98081574D01*
X193713000Y-97804335D01*
X193713000Y-97521665D01*
X193657853Y-97244426D01*
X193549680Y-96983273D01*
X193392637Y-96748241D01*
X193192759Y-96548363D01*
X192957727Y-96391320D01*
X192696574Y-96283147D01*
X192419335Y-96228000D01*
X192136665Y-96228000D01*
X191859426Y-96283147D01*
X191598273Y-96391320D01*
X191363241Y-96548363D01*
X191163363Y-96748241D01*
X191006320Y-96983273D01*
X190898147Y-97244426D01*
X190843000Y-97521665D01*
X190843000Y-97804335D01*
X190879312Y-97986886D01*
X188503300Y-100362899D01*
X188396932Y-100163899D01*
X188217608Y-99945392D01*
X187999101Y-99766068D01*
X187749808Y-99632818D01*
X187479309Y-99550764D01*
X187268492Y-99530000D01*
X187127508Y-99530000D01*
X186916691Y-99550764D01*
X186872093Y-99564292D01*
X186832999Y-99525198D01*
X186832999Y-99051849D01*
X186916691Y-99077236D01*
X187127508Y-99098000D01*
X187268492Y-99098000D01*
X187479309Y-99077236D01*
X187749808Y-98995182D01*
X187999101Y-98861932D01*
X188217608Y-98682608D01*
X188396932Y-98464101D01*
X188530182Y-98214808D01*
X188612236Y-97944309D01*
X188639943Y-97663000D01*
X188612236Y-97381691D01*
X188530182Y-97111192D01*
X188396932Y-96861899D01*
X188217608Y-96643392D01*
X187999101Y-96464068D01*
X187958000Y-96442099D01*
X187958000Y-95708901D01*
X187999101Y-95686932D01*
X188217608Y-95507608D01*
X188396932Y-95289101D01*
X188530182Y-95039808D01*
X188612236Y-94769309D01*
X188639943Y-94488000D01*
X188626023Y-94346665D01*
X190843000Y-94346665D01*
X190843000Y-94629335D01*
X190898147Y-94906574D01*
X191006320Y-95167727D01*
X191163363Y-95402759D01*
X191363241Y-95602637D01*
X191598273Y-95759680D01*
X191859426Y-95867853D01*
X192136665Y-95923000D01*
X192419335Y-95923000D01*
X192601887Y-95886688D01*
X195201001Y-98485803D01*
X195201001Y-98913913D01*
X195086518Y-98925188D01*
X194966820Y-98961498D01*
X194856506Y-99020463D01*
X194759815Y-99099815D01*
X194680463Y-99196506D01*
X194621498Y-99306820D01*
X194585188Y-99426518D01*
X194572928Y-99551000D01*
X194572928Y-100601000D01*
X194585188Y-100725482D01*
X194621498Y-100845180D01*
X194656176Y-100910057D01*
X194625728Y-100978663D01*
X194617036Y-101040190D01*
X194742837Y-101219000D01*
X195060765Y-101219000D01*
X195086518Y-101226812D01*
X195211000Y-101239072D01*
X196711000Y-101239072D01*
X196835482Y-101226812D01*
X196861235Y-101219000D01*
X197179163Y-101219000D01*
X197304964Y-101040190D01*
X197296272Y-100978663D01*
X197265824Y-100910057D01*
X197300502Y-100845180D01*
X197336812Y-100725482D01*
X197349072Y-100601000D01*
X197349072Y-99551000D01*
X197336812Y-99426518D01*
X197300502Y-99306820D01*
X197241537Y-99196506D01*
X197162185Y-99099815D01*
X197065494Y-99020463D01*
X196955180Y-98961498D01*
X196835482Y-98925188D01*
X196721000Y-98913913D01*
X196721000Y-98208333D01*
X196724677Y-98171000D01*
X196710003Y-98022014D01*
X196666546Y-97878753D01*
X196595974Y-97746724D01*
X196527264Y-97663001D01*
X196501001Y-97630999D01*
X196472003Y-97607201D01*
X195998663Y-97133861D01*
X196069292Y-97108603D01*
X196194514Y-97041671D01*
X196266097Y-96797702D01*
X195453000Y-95984605D01*
X195438858Y-95998748D01*
X195259253Y-95819143D01*
X195273395Y-95805000D01*
X195632605Y-95805000D01*
X196445702Y-96618097D01*
X196689671Y-96546514D01*
X196810571Y-96291004D01*
X196879300Y-96016816D01*
X196893217Y-95734488D01*
X196851787Y-95454870D01*
X196756603Y-95188708D01*
X196689671Y-95063486D01*
X196445702Y-94991903D01*
X195632605Y-95805000D01*
X195273395Y-95805000D01*
X194460298Y-94991903D01*
X194216329Y-95063486D01*
X194123812Y-95259011D01*
X193677099Y-94812298D01*
X194639903Y-94812298D01*
X195453000Y-95625395D01*
X196266097Y-94812298D01*
X196194514Y-94568329D01*
X195939004Y-94447429D01*
X195664816Y-94378700D01*
X195382488Y-94364783D01*
X195102870Y-94406213D01*
X194836708Y-94501397D01*
X194711486Y-94568329D01*
X194639903Y-94812298D01*
X193677099Y-94812298D01*
X193676688Y-94811887D01*
X193713000Y-94629335D01*
X193713000Y-94346665D01*
X193657853Y-94069426D01*
X193549680Y-93808273D01*
X193392637Y-93573241D01*
X193192759Y-93373363D01*
X192957727Y-93216320D01*
X192696574Y-93108147D01*
X192419335Y-93053000D01*
X192136665Y-93053000D01*
X191859426Y-93108147D01*
X191598273Y-93216320D01*
X191363241Y-93373363D01*
X191163363Y-93573241D01*
X191006320Y-93808273D01*
X190898147Y-94069426D01*
X190843000Y-94346665D01*
X188626023Y-94346665D01*
X188612236Y-94206691D01*
X188530182Y-93936192D01*
X188396932Y-93686899D01*
X188217608Y-93468392D01*
X187999101Y-93289068D01*
X187749808Y-93155818D01*
X187479309Y-93073764D01*
X187268492Y-93053000D01*
X187127508Y-93053000D01*
X186916691Y-93073764D01*
X186646192Y-93155818D01*
X186396899Y-93289068D01*
X186218379Y-93435575D01*
X185177696Y-92394892D01*
X185318759Y-92300637D01*
X185440694Y-92178702D01*
X186765903Y-92178702D01*
X186837486Y-92422671D01*
X187092996Y-92543571D01*
X187367184Y-92612300D01*
X187649512Y-92626217D01*
X187929130Y-92584787D01*
X188195292Y-92489603D01*
X188320514Y-92422671D01*
X188392097Y-92178702D01*
X187579000Y-91365605D01*
X186765903Y-92178702D01*
X185440694Y-92178702D01*
X185518637Y-92100759D01*
X185675680Y-91865727D01*
X185783853Y-91604574D01*
X185839000Y-91327335D01*
X185839000Y-91256512D01*
X186138783Y-91256512D01*
X186180213Y-91536130D01*
X186275397Y-91802292D01*
X186342329Y-91927514D01*
X186586298Y-91999097D01*
X187399395Y-91186000D01*
X187758605Y-91186000D01*
X188571702Y-91999097D01*
X188815671Y-91927514D01*
X188936571Y-91672004D01*
X189005300Y-91397816D01*
X189019217Y-91115488D01*
X188977787Y-90835870D01*
X188882603Y-90569708D01*
X188815671Y-90444486D01*
X188571702Y-90372903D01*
X187758605Y-91186000D01*
X187399395Y-91186000D01*
X186586298Y-90372903D01*
X186342329Y-90444486D01*
X186221429Y-90699996D01*
X186152700Y-90974184D01*
X186138783Y-91256512D01*
X185839000Y-91256512D01*
X185839000Y-91044665D01*
X185783853Y-90767426D01*
X185675680Y-90506273D01*
X185518637Y-90271241D01*
X185440694Y-90193298D01*
X186765903Y-90193298D01*
X187579000Y-91006395D01*
X188392097Y-90193298D01*
X188320514Y-89949329D01*
X188065004Y-89828429D01*
X187790816Y-89759700D01*
X187508488Y-89745783D01*
X187228870Y-89787213D01*
X186962708Y-89882397D01*
X186837486Y-89949329D01*
X186765903Y-90193298D01*
X185440694Y-90193298D01*
X185318759Y-90071363D01*
X185164000Y-89967957D01*
X185164000Y-89319000D01*
X185236492Y-89319000D01*
X185447309Y-89298236D01*
X185717808Y-89216182D01*
X185967101Y-89082932D01*
X186185608Y-88903608D01*
X186364932Y-88685101D01*
X186436000Y-88552142D01*
X186507068Y-88685101D01*
X186686392Y-88903608D01*
X186904899Y-89082932D01*
X187154192Y-89216182D01*
X187424691Y-89298236D01*
X187635508Y-89319000D01*
X187776492Y-89319000D01*
X187987309Y-89298236D01*
X188257808Y-89216182D01*
X188507101Y-89082932D01*
X188725608Y-88903608D01*
X188904932Y-88685101D01*
X188976000Y-88552142D01*
X189047068Y-88685101D01*
X189226392Y-88903608D01*
X189444899Y-89082932D01*
X189694192Y-89216182D01*
X189964691Y-89298236D01*
X190175508Y-89319000D01*
X190316492Y-89319000D01*
X190527309Y-89298236D01*
X190571906Y-89284708D01*
X191555641Y-90268443D01*
X191460068Y-90384899D01*
X191326818Y-90634192D01*
X191244764Y-90904691D01*
X191217057Y-91186000D01*
X191244764Y-91467309D01*
X191326818Y-91737808D01*
X191460068Y-91987101D01*
X191639392Y-92205608D01*
X191857899Y-92384932D01*
X192107192Y-92518182D01*
X192377691Y-92600236D01*
X192588508Y-92621000D01*
X192729492Y-92621000D01*
X192940309Y-92600236D01*
X193210808Y-92518182D01*
X193460101Y-92384932D01*
X193678608Y-92205608D01*
X193857932Y-91987101D01*
X193991182Y-91737808D01*
X194073236Y-91467309D01*
X194092613Y-91270570D01*
X194181320Y-91484727D01*
X194338363Y-91719759D01*
X194538241Y-91919637D01*
X194773273Y-92076680D01*
X195034426Y-92184853D01*
X195311665Y-92240000D01*
X195594335Y-92240000D01*
X195871574Y-92184853D01*
X196132727Y-92076680D01*
X196367759Y-91919637D01*
X196567637Y-91719759D01*
X196724680Y-91484727D01*
X196832853Y-91223574D01*
X196888000Y-90946335D01*
X196888000Y-90663665D01*
X196832853Y-90386426D01*
X196724680Y-90125273D01*
X196567637Y-89890241D01*
X196367759Y-89690363D01*
X196132727Y-89533320D01*
X195871574Y-89425147D01*
X195594335Y-89370000D01*
X195346802Y-89370000D01*
X195295802Y-89319000D01*
X195396492Y-89319000D01*
X195607309Y-89298236D01*
X195877808Y-89216182D01*
X196127101Y-89082932D01*
X196345608Y-88903608D01*
X196524932Y-88685101D01*
X196596000Y-88552142D01*
X196667068Y-88685101D01*
X196846392Y-88903608D01*
X197064899Y-89082932D01*
X197314192Y-89216182D01*
X197584691Y-89298236D01*
X197795508Y-89319000D01*
X197936492Y-89319000D01*
X198122001Y-89300729D01*
X198122000Y-91190956D01*
X197967241Y-91294363D01*
X197767363Y-91494241D01*
X197610320Y-91729273D01*
X197502147Y-91990426D01*
X197447000Y-92267665D01*
X197447000Y-92550335D01*
X197502147Y-92827574D01*
X197610320Y-93088727D01*
X197767363Y-93323759D01*
X197967241Y-93523637D01*
X198122001Y-93627044D01*
X198122001Y-94577668D01*
X198118324Y-94615000D01*
X198122001Y-94652333D01*
X198132998Y-94763986D01*
X198140669Y-94789273D01*
X198176454Y-94907246D01*
X198247026Y-95039276D01*
X198318201Y-95126002D01*
X198342000Y-95155001D01*
X198370998Y-95178799D01*
X199201673Y-96009474D01*
X199023335Y-95974000D01*
X198740665Y-95974000D01*
X198463426Y-96029147D01*
X198202273Y-96137320D01*
X197967241Y-96294363D01*
X197767363Y-96494241D01*
X197610320Y-96729273D01*
X197502147Y-96990426D01*
X197447000Y-97267665D01*
X197447000Y-97550335D01*
X197502147Y-97827574D01*
X197610320Y-98088727D01*
X197767363Y-98323759D01*
X197967241Y-98523637D01*
X198202273Y-98680680D01*
X198463426Y-98788853D01*
X198740665Y-98844000D01*
X199023335Y-98844000D01*
X199205886Y-98807688D01*
X199646000Y-99247803D01*
X199646000Y-99619956D01*
X199491241Y-99723363D01*
X199291363Y-99923241D01*
X199134320Y-100158273D01*
X199026147Y-100419426D01*
X198971000Y-100696665D01*
X198971000Y-100979335D01*
X199026147Y-101256574D01*
X199134320Y-101517727D01*
X199291363Y-101752759D01*
X199491241Y-101952637D01*
X199726273Y-102109680D01*
X199987426Y-102217853D01*
X200264665Y-102273000D01*
X200547335Y-102273000D01*
X200824574Y-102217853D01*
X201085727Y-102109680D01*
X201320759Y-101952637D01*
X201520637Y-101752759D01*
X201677680Y-101517727D01*
X201785853Y-101256574D01*
X201841000Y-100979335D01*
X201841000Y-100696665D01*
X201785853Y-100419426D01*
X201677680Y-100158273D01*
X201520637Y-99923241D01*
X201320759Y-99723363D01*
X201166000Y-99619957D01*
X201166000Y-98970322D01*
X201168952Y-98940350D01*
X201382899Y-99115932D01*
X201632192Y-99249182D01*
X201902691Y-99331236D01*
X202113508Y-99352000D01*
X202254492Y-99352000D01*
X202465309Y-99331236D01*
X202735808Y-99249182D01*
X202985101Y-99115932D01*
X203203608Y-98936608D01*
X203382932Y-98718101D01*
X203516182Y-98468808D01*
X203598236Y-98198309D01*
X203625943Y-97917000D01*
X203598236Y-97635691D01*
X203516182Y-97365192D01*
X203382932Y-97115899D01*
X203203608Y-96897392D01*
X202985101Y-96718068D01*
X202735808Y-96584818D01*
X202465309Y-96502764D01*
X202254492Y-96482000D01*
X202113508Y-96482000D01*
X201902691Y-96502764D01*
X201858094Y-96516292D01*
X199642000Y-94300199D01*
X199642000Y-93627043D01*
X199796759Y-93523637D01*
X199996637Y-93323759D01*
X200153680Y-93088727D01*
X200261853Y-92827574D01*
X200317000Y-92550335D01*
X200317000Y-92267665D01*
X200261853Y-91990426D01*
X200153680Y-91729273D01*
X199996637Y-91494241D01*
X199796759Y-91294363D01*
X199642000Y-91190957D01*
X199642000Y-88937322D01*
X199645676Y-88900000D01*
X199642000Y-88862677D01*
X199642000Y-88862667D01*
X199631003Y-88751014D01*
X199587546Y-88607753D01*
X199539210Y-88517324D01*
X199516974Y-88475723D01*
X199445799Y-88388997D01*
X199422001Y-88359999D01*
X199393003Y-88336201D01*
X199266708Y-88209906D01*
X199280236Y-88165309D01*
X199307943Y-87884000D01*
X199280236Y-87602691D01*
X199198182Y-87332192D01*
X199064932Y-87082899D01*
X198885608Y-86864392D01*
X198667101Y-86685068D01*
X198417808Y-86551818D01*
X198147309Y-86469764D01*
X197936492Y-86449000D01*
X197795508Y-86449000D01*
X197584691Y-86469764D01*
X197314192Y-86551818D01*
X197064899Y-86685068D01*
X196846392Y-86864392D01*
X196667068Y-87082899D01*
X196596000Y-87215858D01*
X196524932Y-87082899D01*
X196345608Y-86864392D01*
X196127101Y-86685068D01*
X195877808Y-86551818D01*
X195607309Y-86469764D01*
X195396492Y-86449000D01*
X195255508Y-86449000D01*
X195044691Y-86469764D01*
X194774192Y-86551818D01*
X194524899Y-86685068D01*
X194306392Y-86864392D01*
X194127068Y-87082899D01*
X194056000Y-87215858D01*
X193984932Y-87082899D01*
X193805608Y-86864392D01*
X193587101Y-86685068D01*
X193337808Y-86551818D01*
X193067309Y-86469764D01*
X192856492Y-86449000D01*
X192715508Y-86449000D01*
X192504691Y-86469764D01*
X192234192Y-86551818D01*
X191984899Y-86685068D01*
X191766392Y-86864392D01*
X191587068Y-87082899D01*
X191516000Y-87215858D01*
X191444932Y-87082899D01*
X191265608Y-86864392D01*
X191047101Y-86685068D01*
X190797808Y-86551818D01*
X190527309Y-86469764D01*
X190316492Y-86449000D01*
X190175508Y-86449000D01*
X189964691Y-86469764D01*
X189694192Y-86551818D01*
X189444899Y-86685068D01*
X189226392Y-86864392D01*
X189047068Y-87082899D01*
X188976000Y-87215858D01*
X188904932Y-87082899D01*
X188725608Y-86864392D01*
X188507101Y-86685068D01*
X188257808Y-86551818D01*
X187987309Y-86469764D01*
X187776492Y-86449000D01*
X187635508Y-86449000D01*
X187424691Y-86469764D01*
X187154192Y-86551818D01*
X186904899Y-86685068D01*
X186686392Y-86864392D01*
X186507068Y-87082899D01*
X186436000Y-87215858D01*
X186364932Y-87082899D01*
X186185608Y-86864392D01*
X185967101Y-86685068D01*
X185717808Y-86551818D01*
X185447309Y-86469764D01*
X185236492Y-86449000D01*
X185095508Y-86449000D01*
X184884691Y-86469764D01*
X184614192Y-86551818D01*
X184364899Y-86685068D01*
X184146392Y-86864392D01*
X183967068Y-87082899D01*
X183896000Y-87215858D01*
X183824932Y-87082899D01*
X183645608Y-86864392D01*
X183427101Y-86685068D01*
X183177808Y-86551818D01*
X182907309Y-86469764D01*
X182696492Y-86449000D01*
X182555508Y-86449000D01*
X182344691Y-86469764D01*
X182074192Y-86551818D01*
X181824899Y-86685068D01*
X181606392Y-86864392D01*
X181513581Y-86977482D01*
X181511812Y-86959518D01*
X181475502Y-86839820D01*
X181416537Y-86729506D01*
X181337185Y-86632815D01*
X181240494Y-86553463D01*
X181130180Y-86494498D01*
X181010482Y-86458188D01*
X180886000Y-86445928D01*
X179286000Y-86445928D01*
X179161518Y-86458188D01*
X179041820Y-86494498D01*
X178931506Y-86553463D01*
X178834815Y-86632815D01*
X178755463Y-86729506D01*
X178696498Y-86839820D01*
X178660188Y-86959518D01*
X178647928Y-87084000D01*
X178647928Y-88684000D01*
X178660188Y-88808482D01*
X178696498Y-88928180D01*
X178755463Y-89038494D01*
X178834815Y-89135185D01*
X178931506Y-89214537D01*
X179041820Y-89273502D01*
X179161518Y-89309812D01*
X179286000Y-89322072D01*
X179431674Y-89322072D01*
X179451026Y-89358276D01*
X179460648Y-89370000D01*
X179545999Y-89474001D01*
X179575003Y-89497804D01*
X179707001Y-89629802D01*
X179707001Y-89802612D01*
X179605309Y-89771764D01*
X179394492Y-89751000D01*
X179253508Y-89751000D01*
X179042691Y-89771764D01*
X178772192Y-89853818D01*
X178522899Y-89987068D01*
X178304392Y-90166392D01*
X178125068Y-90384899D01*
X177991818Y-90634192D01*
X177909764Y-90904691D01*
X177882057Y-91186000D01*
X177909764Y-91467309D01*
X177923292Y-91511907D01*
X177687997Y-91747202D01*
X177658999Y-91771000D01*
X177635201Y-91799998D01*
X177635200Y-91799999D01*
X177564025Y-91886725D01*
X177494000Y-92017732D01*
X177494000Y-84557890D01*
X200234524Y-84557890D01*
X200279175Y-84705099D01*
X200404359Y-84967920D01*
X200578412Y-85201269D01*
X200794645Y-85396178D01*
X200920255Y-85471000D01*
X200794645Y-85545822D01*
X200578412Y-85740731D01*
X200404359Y-85974080D01*
X200279175Y-86236901D01*
X200234524Y-86384110D01*
X200355845Y-86614000D01*
X201549000Y-86614000D01*
X201549000Y-84328000D01*
X201803000Y-84328000D01*
X201803000Y-86614000D01*
X204089000Y-86614000D01*
X204089000Y-84328000D01*
X201803000Y-84328000D01*
X201549000Y-84328000D01*
X200355845Y-84328000D01*
X200234524Y-84557890D01*
X177494000Y-84557890D01*
X177494000Y-82017890D01*
X200234524Y-82017890D01*
X200279175Y-82165099D01*
X200404359Y-82427920D01*
X200578412Y-82661269D01*
X200794645Y-82856178D01*
X200920255Y-82931000D01*
X200794645Y-83005822D01*
X200578412Y-83200731D01*
X200404359Y-83434080D01*
X200279175Y-83696901D01*
X200234524Y-83844110D01*
X200355845Y-84074000D01*
X201549000Y-84074000D01*
X201549000Y-81788000D01*
X201803000Y-81788000D01*
X201803000Y-84074000D01*
X204089000Y-84074000D01*
X204089000Y-81788000D01*
X201803000Y-81788000D01*
X201549000Y-81788000D01*
X200355845Y-81788000D01*
X200234524Y-82017890D01*
X177494000Y-82017890D01*
X177494000Y-51836509D01*
X177525523Y-51883687D01*
X177762313Y-52120477D01*
X178040748Y-52306521D01*
X178086000Y-52325265D01*
X178086001Y-64254668D01*
X178082324Y-64292000D01*
X178096998Y-64440985D01*
X178140454Y-64584246D01*
X178211026Y-64716276D01*
X178282201Y-64803002D01*
X178306000Y-64832001D01*
X178334998Y-64855799D01*
X178431292Y-64952093D01*
X178417764Y-64996691D01*
X178390057Y-65278000D01*
X178417764Y-65559309D01*
X178499818Y-65829808D01*
X178633068Y-66079101D01*
X178812392Y-66297608D01*
X179030899Y-66476932D01*
X179280192Y-66610182D01*
X179550691Y-66692236D01*
X179761508Y-66713000D01*
X179902492Y-66713000D01*
X180113309Y-66692236D01*
X180383808Y-66610182D01*
X180633101Y-66476932D01*
X180851608Y-66297608D01*
X181030932Y-66079101D01*
X181164182Y-65829808D01*
X181246236Y-65559309D01*
X181273943Y-65278000D01*
X181246236Y-64996691D01*
X181164182Y-64726192D01*
X181030932Y-64476899D01*
X180851608Y-64258392D01*
X180633101Y-64079068D01*
X180383808Y-63945818D01*
X180113309Y-63863764D01*
X179902492Y-63843000D01*
X179761508Y-63843000D01*
X179606000Y-63858316D01*
X179606000Y-62830416D01*
X179660273Y-62866680D01*
X179921426Y-62974853D01*
X180198665Y-63030000D01*
X180481335Y-63030000D01*
X180758574Y-62974853D01*
X181019727Y-62866680D01*
X181254759Y-62709637D01*
X181454637Y-62509759D01*
X181611680Y-62274727D01*
X181719853Y-62013574D01*
X181775000Y-61736335D01*
X181775000Y-61595000D01*
X183978057Y-61595000D01*
X184005764Y-61876309D01*
X184087818Y-62146808D01*
X184221068Y-62396101D01*
X184400392Y-62614608D01*
X184618899Y-62793932D01*
X184791536Y-62886209D01*
X184824871Y-62926826D01*
X184879999Y-62994001D01*
X184909003Y-63017804D01*
X190154074Y-68262876D01*
X190135330Y-68308128D01*
X190070000Y-68636565D01*
X190070000Y-68971435D01*
X190135330Y-69299872D01*
X190263479Y-69609252D01*
X190449523Y-69887687D01*
X190686313Y-70124477D01*
X190964748Y-70310521D01*
X191274128Y-70438670D01*
X191602565Y-70504000D01*
X191937435Y-70504000D01*
X192265872Y-70438670D01*
X192575252Y-70310521D01*
X192853687Y-70124477D01*
X193090477Y-69887687D01*
X193276521Y-69609252D01*
X193404670Y-69299872D01*
X193470000Y-68971435D01*
X193470000Y-68636565D01*
X193404670Y-68308128D01*
X193276521Y-67998748D01*
X193090477Y-67720313D01*
X192853687Y-67483523D01*
X192575252Y-67297479D01*
X192265872Y-67169330D01*
X191937435Y-67104000D01*
X191602565Y-67104000D01*
X191274128Y-67169330D01*
X191228876Y-67188074D01*
X186536881Y-62496080D01*
X186618932Y-62396101D01*
X186752182Y-62146808D01*
X186834236Y-61876309D01*
X186861943Y-61595000D01*
X186834236Y-61313691D01*
X186752182Y-61043192D01*
X186618932Y-60793899D01*
X186439608Y-60575392D01*
X186221101Y-60396068D01*
X186109779Y-60336565D01*
X190070000Y-60336565D01*
X190070000Y-60671435D01*
X190135330Y-60999872D01*
X190263479Y-61309252D01*
X190449523Y-61587687D01*
X190686313Y-61824477D01*
X190964748Y-62010521D01*
X191274128Y-62138670D01*
X191602565Y-62204000D01*
X191937435Y-62204000D01*
X192265872Y-62138670D01*
X192575252Y-62010521D01*
X192648370Y-61961665D01*
X197066000Y-61961665D01*
X197066000Y-62244335D01*
X197121147Y-62521574D01*
X197229320Y-62782727D01*
X197386363Y-63017759D01*
X197586241Y-63217637D01*
X197741001Y-63321044D01*
X197741000Y-68399677D01*
X197737324Y-68437000D01*
X197741000Y-68474322D01*
X197741000Y-68474332D01*
X197751997Y-68585985D01*
X197785565Y-68696645D01*
X197795454Y-68729246D01*
X197866026Y-68861276D01*
X197905871Y-68909826D01*
X197960999Y-68977001D01*
X197990003Y-69000804D01*
X198334196Y-69344997D01*
X198357999Y-69374001D01*
X198473724Y-69468974D01*
X198526314Y-69497084D01*
X198558498Y-69603180D01*
X198617463Y-69713494D01*
X198696815Y-69810185D01*
X198793506Y-69889537D01*
X198903820Y-69948502D01*
X199023518Y-69984812D01*
X199148000Y-69997072D01*
X200648000Y-69997072D01*
X200772482Y-69984812D01*
X200892180Y-69948502D01*
X201002494Y-69889537D01*
X201099185Y-69810185D01*
X201178537Y-69713494D01*
X201237502Y-69603180D01*
X201273812Y-69483482D01*
X201286072Y-69359000D01*
X201286072Y-68309000D01*
X201273812Y-68184518D01*
X201237502Y-68064820D01*
X201202824Y-67999943D01*
X201233272Y-67931337D01*
X201241964Y-67869810D01*
X201116163Y-67691000D01*
X200798235Y-67691000D01*
X200772482Y-67683188D01*
X200648000Y-67670928D01*
X199751000Y-67670928D01*
X199751000Y-67454000D01*
X200179979Y-67454000D01*
X200350400Y-67437215D01*
X200351109Y-67437000D01*
X201116163Y-67437000D01*
X201241964Y-67258190D01*
X201233272Y-67196663D01*
X201140275Y-66987118D01*
X201099071Y-66928669D01*
X201199885Y-66740060D01*
X201266215Y-66521400D01*
X201288612Y-66294000D01*
X201266215Y-66066600D01*
X201199885Y-65847940D01*
X201092171Y-65646421D01*
X200947212Y-65469788D01*
X200770579Y-65324829D01*
X200658000Y-65264654D01*
X200658000Y-64703801D01*
X201350094Y-64011708D01*
X201394691Y-64025236D01*
X201605508Y-64046000D01*
X201746492Y-64046000D01*
X201957309Y-64025236D01*
X202227808Y-63943182D01*
X202477101Y-63809932D01*
X202695608Y-63630608D01*
X202874932Y-63412101D01*
X203008182Y-63162808D01*
X203090236Y-62892309D01*
X203117943Y-62611000D01*
X203090236Y-62329691D01*
X203008182Y-62059192D01*
X202874932Y-61809899D01*
X202695608Y-61591392D01*
X202477101Y-61412068D01*
X202227808Y-61278818D01*
X201957309Y-61196764D01*
X201746492Y-61176000D01*
X201605508Y-61176000D01*
X201394691Y-61196764D01*
X201124192Y-61278818D01*
X200874899Y-61412068D01*
X200656392Y-61591392D01*
X200477068Y-61809899D01*
X200343818Y-62059192D01*
X200261764Y-62329691D01*
X200234057Y-62611000D01*
X200261764Y-62892309D01*
X200275292Y-62936906D01*
X199386998Y-63825201D01*
X199358000Y-63848999D01*
X199334202Y-63877997D01*
X199334201Y-63877998D01*
X199263026Y-63964724D01*
X199261000Y-63968514D01*
X199261000Y-63321043D01*
X199415759Y-63217637D01*
X199615637Y-63017759D01*
X199772680Y-62782727D01*
X199880853Y-62521574D01*
X199936000Y-62244335D01*
X199936000Y-61961665D01*
X199880853Y-61684426D01*
X199772680Y-61423273D01*
X199615637Y-61188241D01*
X199415759Y-60988363D01*
X199180727Y-60831320D01*
X198919574Y-60723147D01*
X198642335Y-60668000D01*
X198359665Y-60668000D01*
X198082426Y-60723147D01*
X197821273Y-60831320D01*
X197586241Y-60988363D01*
X197386363Y-61188241D01*
X197229320Y-61423273D01*
X197121147Y-61684426D01*
X197066000Y-61961665D01*
X192648370Y-61961665D01*
X192853687Y-61824477D01*
X193090477Y-61587687D01*
X193276521Y-61309252D01*
X193404670Y-60999872D01*
X193470000Y-60671435D01*
X193470000Y-60336565D01*
X193404670Y-60008128D01*
X193276521Y-59698748D01*
X193090477Y-59420313D01*
X192853687Y-59183523D01*
X192575252Y-58997479D01*
X192474860Y-58955895D01*
X192735000Y-58957072D01*
X192859482Y-58944812D01*
X192979180Y-58908502D01*
X193089494Y-58849537D01*
X193186185Y-58770185D01*
X193265537Y-58673494D01*
X193324502Y-58563180D01*
X193360812Y-58443482D01*
X193373072Y-58319000D01*
X193370000Y-57689750D01*
X193211250Y-57531000D01*
X191897000Y-57531000D01*
X191897000Y-57551000D01*
X191643000Y-57551000D01*
X191643000Y-57531000D01*
X190328750Y-57531000D01*
X190170000Y-57689750D01*
X190166928Y-58319000D01*
X190179188Y-58443482D01*
X190215498Y-58563180D01*
X190274463Y-58673494D01*
X190353815Y-58770185D01*
X190450506Y-58849537D01*
X190560820Y-58908502D01*
X190680518Y-58944812D01*
X190805000Y-58957072D01*
X191065140Y-58955895D01*
X190964748Y-58997479D01*
X190686313Y-59183523D01*
X190449523Y-59420313D01*
X190263479Y-59698748D01*
X190135330Y-60008128D01*
X190070000Y-60336565D01*
X186109779Y-60336565D01*
X185971808Y-60262818D01*
X185701309Y-60180764D01*
X185490492Y-60160000D01*
X185349508Y-60160000D01*
X185138691Y-60180764D01*
X184868192Y-60262818D01*
X184618899Y-60396068D01*
X184400392Y-60575392D01*
X184221068Y-60793899D01*
X184087818Y-61043192D01*
X184005764Y-61313691D01*
X183978057Y-61595000D01*
X181775000Y-61595000D01*
X181775000Y-61453665D01*
X181719853Y-61176426D01*
X181611680Y-60915273D01*
X181454637Y-60680241D01*
X181254759Y-60480363D01*
X181227000Y-60461815D01*
X181227000Y-59003043D01*
X181381759Y-58899637D01*
X181581637Y-58699759D01*
X181738680Y-58464727D01*
X181846853Y-58203574D01*
X181902000Y-57926335D01*
X181902000Y-57643665D01*
X184032000Y-57643665D01*
X184032000Y-57926335D01*
X184087147Y-58203574D01*
X184195320Y-58464727D01*
X184352363Y-58699759D01*
X184552241Y-58899637D01*
X184787273Y-59056680D01*
X185048426Y-59164853D01*
X185325665Y-59220000D01*
X185608335Y-59220000D01*
X185885574Y-59164853D01*
X186146727Y-59056680D01*
X186381759Y-58899637D01*
X186581637Y-58699759D01*
X186738680Y-58464727D01*
X186846853Y-58203574D01*
X186902000Y-57926335D01*
X186902000Y-57643665D01*
X186846853Y-57366426D01*
X186738680Y-57105273D01*
X186581637Y-56870241D01*
X186381759Y-56670363D01*
X186146727Y-56513320D01*
X186088014Y-56489000D01*
X190166928Y-56489000D01*
X190170000Y-57118250D01*
X190328750Y-57277000D01*
X191643000Y-57277000D01*
X191643000Y-56012750D01*
X191897000Y-56012750D01*
X191897000Y-57277000D01*
X193211250Y-57277000D01*
X193370000Y-57118250D01*
X193373072Y-56489000D01*
X193360812Y-56364518D01*
X193324502Y-56244820D01*
X193265537Y-56134506D01*
X193186185Y-56037815D01*
X193089494Y-55958463D01*
X192979180Y-55899498D01*
X192859482Y-55863188D01*
X192735000Y-55850928D01*
X192055750Y-55854000D01*
X191897000Y-56012750D01*
X191643000Y-56012750D01*
X191484250Y-55854000D01*
X190805000Y-55850928D01*
X190680518Y-55863188D01*
X190560820Y-55899498D01*
X190450506Y-55958463D01*
X190353815Y-56037815D01*
X190274463Y-56134506D01*
X190215498Y-56244820D01*
X190179188Y-56364518D01*
X190166928Y-56489000D01*
X186088014Y-56489000D01*
X185885574Y-56405147D01*
X185608335Y-56350000D01*
X185325665Y-56350000D01*
X185048426Y-56405147D01*
X184787273Y-56513320D01*
X184552241Y-56670363D01*
X184352363Y-56870241D01*
X184195320Y-57105273D01*
X184087147Y-57366426D01*
X184032000Y-57643665D01*
X181902000Y-57643665D01*
X181846853Y-57366426D01*
X181738680Y-57105273D01*
X181581637Y-56870241D01*
X181381759Y-56670363D01*
X181146727Y-56513320D01*
X180885574Y-56405147D01*
X180608335Y-56350000D01*
X180325665Y-56350000D01*
X180048426Y-56405147D01*
X179787273Y-56513320D01*
X179606000Y-56634442D01*
X179606000Y-52325265D01*
X179651252Y-52306521D01*
X179929687Y-52120477D01*
X180166477Y-51883687D01*
X180352521Y-51605252D01*
X180480670Y-51295872D01*
X180546000Y-50967435D01*
X180546000Y-50632565D01*
X185446000Y-50632565D01*
X185446000Y-50967435D01*
X185511330Y-51295872D01*
X185639479Y-51605252D01*
X185825523Y-51883687D01*
X186062313Y-52120477D01*
X186340748Y-52306521D01*
X186650128Y-52434670D01*
X186978565Y-52500000D01*
X187313435Y-52500000D01*
X187641872Y-52434670D01*
X187951252Y-52306521D01*
X188229687Y-52120477D01*
X188466477Y-51883687D01*
X188652521Y-51605252D01*
X188694105Y-51504860D01*
X188692928Y-51765000D01*
X188705188Y-51889482D01*
X188741498Y-52009180D01*
X188800463Y-52119494D01*
X188879815Y-52216185D01*
X188976506Y-52295537D01*
X189086820Y-52354502D01*
X189206518Y-52390812D01*
X189331000Y-52403072D01*
X189960250Y-52400000D01*
X190119000Y-52241250D01*
X190119000Y-50927000D01*
X190373000Y-50927000D01*
X190373000Y-52241250D01*
X190531750Y-52400000D01*
X191161000Y-52403072D01*
X191285482Y-52390812D01*
X191405180Y-52354502D01*
X191515494Y-52295537D01*
X191612185Y-52216185D01*
X191691537Y-52119494D01*
X191750502Y-52009180D01*
X191770000Y-51944904D01*
X191789498Y-52009180D01*
X191848463Y-52119494D01*
X191927815Y-52216185D01*
X192024506Y-52295537D01*
X192134820Y-52354502D01*
X192254518Y-52390812D01*
X192379000Y-52403072D01*
X193008250Y-52400000D01*
X193167000Y-52241250D01*
X193167000Y-50927000D01*
X191902750Y-50927000D01*
X191770000Y-51059750D01*
X191637250Y-50927000D01*
X190373000Y-50927000D01*
X190119000Y-50927000D01*
X190099000Y-50927000D01*
X190099000Y-50673000D01*
X190119000Y-50673000D01*
X190119000Y-49358750D01*
X190373000Y-49358750D01*
X190373000Y-50673000D01*
X191637250Y-50673000D01*
X191770000Y-50540250D01*
X191902750Y-50673000D01*
X193167000Y-50673000D01*
X193167000Y-49358750D01*
X193421000Y-49358750D01*
X193421000Y-50673000D01*
X193441000Y-50673000D01*
X193441000Y-50927000D01*
X193421000Y-50927000D01*
X193421000Y-52241250D01*
X193579750Y-52400000D01*
X194209000Y-52403072D01*
X194333482Y-52390812D01*
X194453180Y-52354502D01*
X194563494Y-52295537D01*
X194660185Y-52216185D01*
X194739537Y-52119494D01*
X194798502Y-52009180D01*
X194834812Y-51889482D01*
X194847072Y-51765000D01*
X194845895Y-51504860D01*
X194887479Y-51605252D01*
X195073523Y-51883687D01*
X195310313Y-52120477D01*
X195588748Y-52306521D01*
X195898128Y-52434670D01*
X196226565Y-52500000D01*
X196561435Y-52500000D01*
X196889872Y-52434670D01*
X197199252Y-52306521D01*
X197477687Y-52120477D01*
X197714477Y-51883687D01*
X197900521Y-51605252D01*
X198028670Y-51295872D01*
X198094000Y-50967435D01*
X198094000Y-50632565D01*
X198028670Y-50304128D01*
X197900521Y-49994748D01*
X197714477Y-49716313D01*
X197477687Y-49479523D01*
X197199252Y-49293479D01*
X196889872Y-49165330D01*
X196561435Y-49100000D01*
X196226565Y-49100000D01*
X195898128Y-49165330D01*
X195588748Y-49293479D01*
X195310313Y-49479523D01*
X195073523Y-49716313D01*
X194887479Y-49994748D01*
X194845895Y-50095140D01*
X194847072Y-49835000D01*
X194834812Y-49710518D01*
X194798502Y-49590820D01*
X194739537Y-49480506D01*
X194660185Y-49383815D01*
X194563494Y-49304463D01*
X194453180Y-49245498D01*
X194333482Y-49209188D01*
X194209000Y-49196928D01*
X193579750Y-49200000D01*
X193421000Y-49358750D01*
X193167000Y-49358750D01*
X193008250Y-49200000D01*
X192379000Y-49196928D01*
X192254518Y-49209188D01*
X192134820Y-49245498D01*
X192024506Y-49304463D01*
X191927815Y-49383815D01*
X191848463Y-49480506D01*
X191789498Y-49590820D01*
X191770000Y-49655096D01*
X191750502Y-49590820D01*
X191691537Y-49480506D01*
X191612185Y-49383815D01*
X191515494Y-49304463D01*
X191405180Y-49245498D01*
X191285482Y-49209188D01*
X191161000Y-49196928D01*
X190531750Y-49200000D01*
X190373000Y-49358750D01*
X190119000Y-49358750D01*
X189960250Y-49200000D01*
X189331000Y-49196928D01*
X189206518Y-49209188D01*
X189086820Y-49245498D01*
X188976506Y-49304463D01*
X188879815Y-49383815D01*
X188800463Y-49480506D01*
X188741498Y-49590820D01*
X188705188Y-49710518D01*
X188692928Y-49835000D01*
X188694105Y-50095140D01*
X188652521Y-49994748D01*
X188466477Y-49716313D01*
X188229687Y-49479523D01*
X187951252Y-49293479D01*
X187641872Y-49165330D01*
X187313435Y-49100000D01*
X186978565Y-49100000D01*
X186650128Y-49165330D01*
X186340748Y-49293479D01*
X186062313Y-49479523D01*
X185825523Y-49716313D01*
X185639479Y-49994748D01*
X185511330Y-50304128D01*
X185446000Y-50632565D01*
X180546000Y-50632565D01*
X180480670Y-50304128D01*
X180352521Y-49994748D01*
X180166477Y-49716313D01*
X179929687Y-49479523D01*
X179651252Y-49293479D01*
X179341872Y-49165330D01*
X179013435Y-49100000D01*
X178678565Y-49100000D01*
X178350128Y-49165330D01*
X178040748Y-49293479D01*
X177762313Y-49479523D01*
X177525523Y-49716313D01*
X177494000Y-49763491D01*
X177494000Y-45922000D01*
X205971000Y-45922000D01*
X205971000Y-49672836D01*
X205971000Y-49672836D01*
G37*
X205971000Y-49672836D02*
X205777687Y-49479523D01*
X205499252Y-49293479D01*
X205189872Y-49165330D01*
X204861435Y-49100000D01*
X204526565Y-49100000D01*
X204198128Y-49165330D01*
X203888748Y-49293479D01*
X203610313Y-49479523D01*
X203373523Y-49716313D01*
X203187479Y-49994748D01*
X203059330Y-50304128D01*
X202994000Y-50632565D01*
X202994000Y-50967435D01*
X203059330Y-51295872D01*
X203086861Y-51362337D01*
X198826907Y-55622292D01*
X198782309Y-55608764D01*
X198571492Y-55588000D01*
X198430508Y-55588000D01*
X198219691Y-55608764D01*
X197949192Y-55690818D01*
X197699899Y-55824068D01*
X197481392Y-56003392D01*
X197302068Y-56221899D01*
X197168818Y-56471192D01*
X197086764Y-56741691D01*
X197059057Y-57023000D01*
X197086764Y-57304309D01*
X197168818Y-57574808D01*
X197302068Y-57824101D01*
X197481392Y-58042608D01*
X197699899Y-58221932D01*
X197949192Y-58355182D01*
X198219691Y-58437236D01*
X198430508Y-58458000D01*
X198571492Y-58458000D01*
X198782309Y-58437236D01*
X199052808Y-58355182D01*
X199302101Y-58221932D01*
X199520608Y-58042608D01*
X199699932Y-57824101D01*
X199833182Y-57574808D01*
X199889343Y-57389665D01*
X200241000Y-57389665D01*
X200241000Y-57672335D01*
X200296147Y-57949574D01*
X200404320Y-58210727D01*
X200561363Y-58445759D01*
X200761241Y-58645637D01*
X200996273Y-58802680D01*
X201257426Y-58910853D01*
X201534665Y-58966000D01*
X201817335Y-58966000D01*
X202094574Y-58910853D01*
X202355727Y-58802680D01*
X202590759Y-58645637D01*
X202790637Y-58445759D01*
X202947680Y-58210727D01*
X203055853Y-57949574D01*
X203111000Y-57672335D01*
X203111000Y-57389665D01*
X203055853Y-57112426D01*
X202947680Y-56851273D01*
X202790637Y-56616241D01*
X202590759Y-56416363D01*
X202355727Y-56259320D01*
X202094574Y-56151147D01*
X201817335Y-56096000D01*
X201534665Y-56096000D01*
X201257426Y-56151147D01*
X200996273Y-56259320D01*
X200761241Y-56416363D01*
X200561363Y-56616241D01*
X200404320Y-56851273D01*
X200296147Y-57112426D01*
X200241000Y-57389665D01*
X199889343Y-57389665D01*
X199915236Y-57304309D01*
X199942943Y-57023000D01*
X199915236Y-56741691D01*
X199901708Y-56697093D01*
X204174089Y-52424713D01*
X204198128Y-52434670D01*
X204526565Y-52500000D01*
X204861435Y-52500000D01*
X205189872Y-52434670D01*
X205499252Y-52306521D01*
X205777687Y-52120477D01*
X205971000Y-51927164D01*
X205971000Y-56624268D01*
X205965637Y-56616241D01*
X205765759Y-56416363D01*
X205530727Y-56259320D01*
X205269574Y-56151147D01*
X204992335Y-56096000D01*
X204709665Y-56096000D01*
X204432426Y-56151147D01*
X204171273Y-56259320D01*
X203936241Y-56416363D01*
X203736363Y-56616241D01*
X203579320Y-56851273D01*
X203471147Y-57112426D01*
X203416000Y-57389665D01*
X203416000Y-57672335D01*
X203471147Y-57949574D01*
X203579320Y-58210727D01*
X203736363Y-58445759D01*
X203936241Y-58645637D01*
X204171273Y-58802680D01*
X204432426Y-58910853D01*
X204709665Y-58966000D01*
X204992335Y-58966000D01*
X205174887Y-58929688D01*
X205216002Y-58970803D01*
X205216002Y-61222152D01*
X205132309Y-61196764D01*
X204921492Y-61176000D01*
X204780508Y-61176000D01*
X204569691Y-61196764D01*
X204299192Y-61278818D01*
X204049899Y-61412068D01*
X203831392Y-61591392D01*
X203652068Y-61809899D01*
X203518818Y-62059192D01*
X203436764Y-62329691D01*
X203409057Y-62611000D01*
X203436764Y-62892309D01*
X203450292Y-62936907D01*
X203087997Y-63299202D01*
X203058999Y-63323000D01*
X203035201Y-63351998D01*
X203035200Y-63351999D01*
X202964025Y-63438725D01*
X202893453Y-63570755D01*
X202876901Y-63625323D01*
X202854835Y-63698068D01*
X202849997Y-63714016D01*
X202835323Y-63863001D01*
X202839000Y-63900333D01*
X202838999Y-74216199D01*
X198191907Y-78863292D01*
X198147309Y-78849764D01*
X197936492Y-78829000D01*
X197795508Y-78829000D01*
X197584691Y-78849764D01*
X197314192Y-78931818D01*
X197064899Y-79065068D01*
X196846392Y-79244392D01*
X196667068Y-79462899D01*
X196596000Y-79595858D01*
X196524932Y-79462899D01*
X196345608Y-79244392D01*
X196127101Y-79065068D01*
X196052631Y-79025263D01*
X196031546Y-78955753D01*
X195960974Y-78823724D01*
X195918920Y-78772481D01*
X195946665Y-78778000D01*
X196229335Y-78778000D01*
X196506574Y-78722853D01*
X196767727Y-78614680D01*
X197002759Y-78457637D01*
X197202637Y-78257759D01*
X197359680Y-78022727D01*
X197467853Y-77761574D01*
X197523000Y-77484335D01*
X197523000Y-77201665D01*
X197467853Y-76924426D01*
X197359680Y-76663273D01*
X197202637Y-76428241D01*
X197002759Y-76228363D01*
X196767727Y-76071320D01*
X196506574Y-75963147D01*
X196229335Y-75908000D01*
X195946665Y-75908000D01*
X195669426Y-75963147D01*
X195408273Y-76071320D01*
X195173241Y-76228363D01*
X194973363Y-76428241D01*
X194816320Y-76663273D01*
X194708147Y-76924426D01*
X194653000Y-77201665D01*
X194653000Y-77484335D01*
X194656939Y-77504138D01*
X194440708Y-77287906D01*
X194454236Y-77243309D01*
X194481943Y-76962000D01*
X194454236Y-76680691D01*
X194372182Y-76410192D01*
X194238932Y-76160899D01*
X194059608Y-75942392D01*
X193841101Y-75763068D01*
X193591808Y-75629818D01*
X193321309Y-75547764D01*
X193110492Y-75527000D01*
X192969508Y-75527000D01*
X192758691Y-75547764D01*
X192488192Y-75629818D01*
X192238899Y-75763068D01*
X192020392Y-75942392D01*
X191841068Y-76160899D01*
X191707818Y-76410192D01*
X191625764Y-76680691D01*
X191598057Y-76962000D01*
X191625764Y-77243309D01*
X191639292Y-77287906D01*
X190089753Y-78837446D01*
X189964691Y-78849764D01*
X189694192Y-78931818D01*
X189444899Y-79065068D01*
X189226392Y-79244392D01*
X189047068Y-79462899D01*
X188976000Y-79595858D01*
X188904932Y-79462899D01*
X188725608Y-79244392D01*
X188507101Y-79065068D01*
X188257808Y-78931818D01*
X187987309Y-78849764D01*
X187776492Y-78829000D01*
X187635508Y-78829000D01*
X187424691Y-78849764D01*
X187380094Y-78863292D01*
X187051001Y-78534200D01*
X187051001Y-78050606D01*
X187146903Y-77954704D01*
X187218486Y-78198671D01*
X187473996Y-78319571D01*
X187748184Y-78388300D01*
X188030512Y-78402217D01*
X188310130Y-78360787D01*
X188576292Y-78265603D01*
X188701514Y-78198671D01*
X188773097Y-77954702D01*
X187960000Y-77141605D01*
X187945858Y-77155748D01*
X187766253Y-76976143D01*
X187780395Y-76962000D01*
X188139605Y-76962000D01*
X188952702Y-77775097D01*
X189196671Y-77703514D01*
X189317571Y-77448004D01*
X189386300Y-77173816D01*
X189400217Y-76891488D01*
X189358787Y-76611870D01*
X189263603Y-76345708D01*
X189196671Y-76220486D01*
X188952702Y-76148903D01*
X188139605Y-76962000D01*
X187780395Y-76962000D01*
X187766253Y-76947858D01*
X187945858Y-76768253D01*
X187960000Y-76782395D01*
X188773097Y-75969298D01*
X188701514Y-75725329D01*
X188446004Y-75604429D01*
X188171816Y-75535700D01*
X187889488Y-75521783D01*
X187609870Y-75563213D01*
X187343708Y-75658397D01*
X187218486Y-75725329D01*
X187146903Y-75969296D01*
X187051001Y-75873394D01*
X187051001Y-75330323D01*
X187054677Y-75293000D01*
X187051001Y-75255677D01*
X187051001Y-75255668D01*
X187040004Y-75144015D01*
X186996547Y-75000754D01*
X186963744Y-74939385D01*
X186925975Y-74868724D01*
X186854800Y-74781998D01*
X186831002Y-74753000D01*
X186802005Y-74729203D01*
X186183688Y-74110886D01*
X186220000Y-73928335D01*
X186220000Y-73645665D01*
X186525000Y-73645665D01*
X186525000Y-73928335D01*
X186580147Y-74205574D01*
X186688320Y-74466727D01*
X186845363Y-74701759D01*
X187045241Y-74901637D01*
X187280273Y-75058680D01*
X187541426Y-75166853D01*
X187818665Y-75222000D01*
X188101335Y-75222000D01*
X188378574Y-75166853D01*
X188639727Y-75058680D01*
X188874759Y-74901637D01*
X189074637Y-74701759D01*
X189231680Y-74466727D01*
X189339853Y-74205574D01*
X189395000Y-73928335D01*
X189395000Y-73787000D01*
X191598057Y-73787000D01*
X191625764Y-74068309D01*
X191707818Y-74338808D01*
X191841068Y-74588101D01*
X192020392Y-74806608D01*
X192238899Y-74985932D01*
X192488192Y-75119182D01*
X192758691Y-75201236D01*
X192969508Y-75222000D01*
X193110492Y-75222000D01*
X193321309Y-75201236D01*
X193591808Y-75119182D01*
X193841101Y-74985932D01*
X194059608Y-74806608D01*
X194238932Y-74588101D01*
X194372182Y-74338808D01*
X194454236Y-74068309D01*
X194481943Y-73787000D01*
X194454236Y-73505691D01*
X194402672Y-73335702D01*
X195274903Y-73335702D01*
X195346486Y-73579671D01*
X195601996Y-73700571D01*
X195876184Y-73769300D01*
X196158512Y-73783217D01*
X196438130Y-73741787D01*
X196704292Y-73646603D01*
X196829514Y-73579671D01*
X196901097Y-73335702D01*
X196088000Y-72522605D01*
X195274903Y-73335702D01*
X194402672Y-73335702D01*
X194372182Y-73235192D01*
X194238932Y-72985899D01*
X194059608Y-72767392D01*
X193841101Y-72588068D01*
X193591808Y-72454818D01*
X193455639Y-72413512D01*
X194647783Y-72413512D01*
X194689213Y-72693130D01*
X194784397Y-72959292D01*
X194851329Y-73084514D01*
X195095298Y-73156097D01*
X195908395Y-72343000D01*
X196267605Y-72343000D01*
X197080702Y-73156097D01*
X197324671Y-73084514D01*
X197445571Y-72829004D01*
X197514300Y-72554816D01*
X197528217Y-72272488D01*
X197486787Y-71992870D01*
X197391603Y-71726708D01*
X197324671Y-71601486D01*
X197080702Y-71529903D01*
X196267605Y-72343000D01*
X195908395Y-72343000D01*
X195095298Y-71529903D01*
X194851329Y-71601486D01*
X194730429Y-71856996D01*
X194661700Y-72131184D01*
X194647783Y-72413512D01*
X193455639Y-72413512D01*
X193321309Y-72372764D01*
X193110492Y-72352000D01*
X192969508Y-72352000D01*
X192758691Y-72372764D01*
X192488192Y-72454818D01*
X192238899Y-72588068D01*
X192020392Y-72767392D01*
X191841068Y-72985899D01*
X191707818Y-73235192D01*
X191625764Y-73505691D01*
X191598057Y-73787000D01*
X189395000Y-73787000D01*
X189395000Y-73645665D01*
X189339853Y-73368426D01*
X189231680Y-73107273D01*
X189074637Y-72872241D01*
X188874759Y-72672363D01*
X188639727Y-72515320D01*
X188378574Y-72407147D01*
X188101335Y-72352000D01*
X187818665Y-72352000D01*
X187541426Y-72407147D01*
X187280273Y-72515320D01*
X187045241Y-72672363D01*
X186845363Y-72872241D01*
X186688320Y-73107273D01*
X186580147Y-73368426D01*
X186525000Y-73645665D01*
X186220000Y-73645665D01*
X186164853Y-73368426D01*
X186056680Y-73107273D01*
X185899637Y-72872241D01*
X185699759Y-72672363D01*
X185464727Y-72515320D01*
X185203574Y-72407147D01*
X184926335Y-72352000D01*
X184643665Y-72352000D01*
X184419999Y-72396491D01*
X184419999Y-71350298D01*
X195274903Y-71350298D01*
X196088000Y-72163395D01*
X196901097Y-71350298D01*
X196829514Y-71106329D01*
X196574004Y-70985429D01*
X196299816Y-70916700D01*
X196017488Y-70902783D01*
X195737870Y-70944213D01*
X195471708Y-71039397D01*
X195346486Y-71106329D01*
X195274903Y-71350298D01*
X184419999Y-71350298D01*
X184419999Y-70130834D01*
X184620426Y-70213853D01*
X184897665Y-70269000D01*
X185180335Y-70269000D01*
X185457574Y-70213853D01*
X185718727Y-70105680D01*
X185953759Y-69948637D01*
X186153637Y-69748759D01*
X186310680Y-69513727D01*
X186418853Y-69252574D01*
X186474000Y-68975335D01*
X186474000Y-68692665D01*
X186418853Y-68415426D01*
X186310680Y-68154273D01*
X186153637Y-67919241D01*
X185953759Y-67719363D01*
X185718727Y-67562320D01*
X185457574Y-67454147D01*
X185180335Y-67399000D01*
X184897665Y-67399000D01*
X184620426Y-67454147D01*
X184419999Y-67537166D01*
X184419999Y-66844802D01*
X184588113Y-66676688D01*
X184770665Y-66713000D01*
X185053335Y-66713000D01*
X185330574Y-66657853D01*
X185591727Y-66549680D01*
X185826759Y-66392637D01*
X186026637Y-66192759D01*
X186183680Y-65957727D01*
X186291853Y-65696574D01*
X186347000Y-65419335D01*
X186347000Y-65136665D01*
X186291853Y-64859426D01*
X186183680Y-64598273D01*
X186026637Y-64363241D01*
X185826759Y-64163363D01*
X185591727Y-64006320D01*
X185330574Y-63898147D01*
X185053335Y-63843000D01*
X184770665Y-63843000D01*
X184493426Y-63898147D01*
X184232273Y-64006320D01*
X183997241Y-64163363D01*
X183797363Y-64363241D01*
X183640320Y-64598273D01*
X183532147Y-64859426D01*
X183477000Y-65136665D01*
X183477000Y-65419335D01*
X183513312Y-65601887D01*
X183148997Y-65966202D01*
X183119999Y-65990000D01*
X183096201Y-66018998D01*
X183096200Y-66018999D01*
X183025025Y-66105725D01*
X182954453Y-66237755D01*
X182937392Y-66294000D01*
X182910997Y-66381015D01*
X182904893Y-66442985D01*
X182896323Y-66530001D01*
X182900000Y-66567333D01*
X182899999Y-75418677D01*
X182896323Y-75455999D01*
X182899999Y-75493321D01*
X182899999Y-75493331D01*
X182910996Y-75604984D01*
X182945059Y-75717277D01*
X182954453Y-75748245D01*
X183025025Y-75880275D01*
X183047779Y-75908000D01*
X183119998Y-75996000D01*
X183149002Y-76019803D01*
X183765292Y-76636094D01*
X183751764Y-76680691D01*
X183724057Y-76962000D01*
X183751764Y-77243309D01*
X183833818Y-77513808D01*
X183967068Y-77763101D01*
X184146392Y-77981608D01*
X184364899Y-78160932D01*
X184406000Y-78182901D01*
X184406000Y-79043099D01*
X184364899Y-79065068D01*
X184146392Y-79244392D01*
X183967068Y-79462899D01*
X183896000Y-79595858D01*
X183824932Y-79462899D01*
X183645608Y-79244392D01*
X183427101Y-79065068D01*
X183177808Y-78931818D01*
X182907309Y-78849764D01*
X182696492Y-78829000D01*
X182555508Y-78829000D01*
X182344691Y-78849764D01*
X182074192Y-78931818D01*
X181824899Y-79065068D01*
X181606392Y-79244392D01*
X181427068Y-79462899D01*
X181356000Y-79595858D01*
X181284932Y-79462899D01*
X181105608Y-79244392D01*
X180887101Y-79065068D01*
X180637808Y-78931818D01*
X180367309Y-78849764D01*
X180156492Y-78829000D01*
X180015508Y-78829000D01*
X179804691Y-78849764D01*
X179760094Y-78863292D01*
X179339999Y-78443198D01*
X179339999Y-78183378D01*
X179344486Y-78198671D01*
X179599996Y-78319571D01*
X179874184Y-78388300D01*
X180156512Y-78402217D01*
X180436130Y-78360787D01*
X180702292Y-78265603D01*
X180827514Y-78198671D01*
X180899097Y-77954702D01*
X180086000Y-77141605D01*
X180071858Y-77155748D01*
X179892253Y-76976143D01*
X179906395Y-76962000D01*
X180265605Y-76962000D01*
X181078702Y-77775097D01*
X181322671Y-77703514D01*
X181443571Y-77448004D01*
X181512300Y-77173816D01*
X181526217Y-76891488D01*
X181484787Y-76611870D01*
X181389603Y-76345708D01*
X181322671Y-76220486D01*
X181078702Y-76148903D01*
X180265605Y-76962000D01*
X179906395Y-76962000D01*
X179892253Y-76947858D01*
X180071858Y-76768253D01*
X180086000Y-76782395D01*
X180899097Y-75969298D01*
X180827514Y-75725329D01*
X180572004Y-75604429D01*
X180297816Y-75535700D01*
X180015488Y-75521783D01*
X179735870Y-75563213D01*
X179469708Y-75658397D01*
X179344486Y-75725329D01*
X179339999Y-75740622D01*
X179339999Y-75173193D01*
X179355960Y-75178909D01*
X179578000Y-75057624D01*
X179578000Y-73914000D01*
X179832000Y-73914000D01*
X179832000Y-75057624D01*
X180054040Y-75178909D01*
X180318881Y-75084070D01*
X180560131Y-74939385D01*
X180768519Y-74750414D01*
X180936037Y-74524420D01*
X181056246Y-74270087D01*
X181096904Y-74136039D01*
X180974915Y-73914000D01*
X179832000Y-73914000D01*
X179578000Y-73914000D01*
X179558000Y-73914000D01*
X179558000Y-73660000D01*
X179578000Y-73660000D01*
X179578000Y-72516376D01*
X179832000Y-72516376D01*
X179832000Y-73660000D01*
X180974915Y-73660000D01*
X181096904Y-73437961D01*
X181056246Y-73303913D01*
X180936037Y-73049580D01*
X180768519Y-72823586D01*
X180560131Y-72634615D01*
X180318881Y-72489930D01*
X180054040Y-72395091D01*
X179832000Y-72516376D01*
X179578000Y-72516376D01*
X179355960Y-72395091D01*
X179339999Y-72400807D01*
X179339999Y-70527802D01*
X179633094Y-70234708D01*
X179677691Y-70248236D01*
X179888508Y-70269000D01*
X180029492Y-70269000D01*
X180240309Y-70248236D01*
X180510808Y-70166182D01*
X180760101Y-70032932D01*
X180978608Y-69853608D01*
X181157932Y-69635101D01*
X181291182Y-69385808D01*
X181373236Y-69115309D01*
X181400943Y-68834000D01*
X181373236Y-68552691D01*
X181291182Y-68282192D01*
X181157932Y-68032899D01*
X180978608Y-67814392D01*
X180760101Y-67635068D01*
X180510808Y-67501818D01*
X180240309Y-67419764D01*
X180029492Y-67399000D01*
X179888508Y-67399000D01*
X179677691Y-67419764D01*
X179407192Y-67501818D01*
X179157899Y-67635068D01*
X178939392Y-67814392D01*
X178760068Y-68032899D01*
X178626818Y-68282192D01*
X178544764Y-68552691D01*
X178517057Y-68834000D01*
X178544764Y-69115309D01*
X178558292Y-69159906D01*
X178069002Y-69649197D01*
X178039998Y-69673000D01*
X178006766Y-69713494D01*
X177945025Y-69788725D01*
X177874454Y-69920754D01*
X177874453Y-69920755D01*
X177830996Y-70064016D01*
X177819999Y-70175669D01*
X177819999Y-70175679D01*
X177816323Y-70213001D01*
X177819999Y-70250323D01*
X177820000Y-78720667D01*
X177816323Y-78757999D01*
X177820000Y-78795332D01*
X177830997Y-78906985D01*
X177838530Y-78931818D01*
X177874453Y-79050245D01*
X177945025Y-79182275D01*
X177996004Y-79244392D01*
X178039999Y-79298000D01*
X178068997Y-79321798D01*
X178685292Y-79938094D01*
X178671764Y-79982691D01*
X178644057Y-80264000D01*
X178671764Y-80545309D01*
X178753818Y-80815808D01*
X178887068Y-81065101D01*
X179066392Y-81283608D01*
X179284899Y-81462932D01*
X179534192Y-81596182D01*
X179804691Y-81678236D01*
X180015508Y-81699000D01*
X180156492Y-81699000D01*
X180367309Y-81678236D01*
X180637808Y-81596182D01*
X180887101Y-81462932D01*
X181105608Y-81283608D01*
X181284932Y-81065101D01*
X181356000Y-80932142D01*
X181427068Y-81065101D01*
X181606392Y-81283608D01*
X181824899Y-81462932D01*
X182074192Y-81596182D01*
X182344691Y-81678236D01*
X182555508Y-81699000D01*
X182696492Y-81699000D01*
X182907309Y-81678236D01*
X183177808Y-81596182D01*
X183427101Y-81462932D01*
X183645608Y-81283608D01*
X183824932Y-81065101D01*
X183896000Y-80932142D01*
X183967068Y-81065101D01*
X184146392Y-81283608D01*
X184364899Y-81462932D01*
X184614192Y-81596182D01*
X184884691Y-81678236D01*
X185095508Y-81699000D01*
X185236492Y-81699000D01*
X185447309Y-81678236D01*
X185717808Y-81596182D01*
X185967101Y-81462932D01*
X186185608Y-81283608D01*
X186364932Y-81065101D01*
X186436000Y-80932142D01*
X186507068Y-81065101D01*
X186686392Y-81283608D01*
X186904899Y-81462932D01*
X187154192Y-81596182D01*
X187424691Y-81678236D01*
X187635508Y-81699000D01*
X187776492Y-81699000D01*
X187987309Y-81678236D01*
X188257808Y-81596182D01*
X188507101Y-81462932D01*
X188725608Y-81283608D01*
X188904932Y-81065101D01*
X188976000Y-80932142D01*
X189047068Y-81065101D01*
X189226392Y-81283608D01*
X189444899Y-81462932D01*
X189694192Y-81596182D01*
X189964691Y-81678236D01*
X190175508Y-81699000D01*
X190316492Y-81699000D01*
X190527309Y-81678236D01*
X190797808Y-81596182D01*
X191047101Y-81462932D01*
X191265608Y-81283608D01*
X191444932Y-81065101D01*
X191516000Y-80932142D01*
X191587068Y-81065101D01*
X191766392Y-81283608D01*
X191984899Y-81462932D01*
X192234192Y-81596182D01*
X192504691Y-81678236D01*
X192715508Y-81699000D01*
X192856492Y-81699000D01*
X193067309Y-81678236D01*
X193337808Y-81596182D01*
X193587101Y-81462932D01*
X193805608Y-81283608D01*
X193984932Y-81065101D01*
X194056000Y-80932142D01*
X194127068Y-81065101D01*
X194306392Y-81283608D01*
X194524899Y-81462932D01*
X194774192Y-81596182D01*
X195044691Y-81678236D01*
X195255508Y-81699000D01*
X195396492Y-81699000D01*
X195607309Y-81678236D01*
X195877808Y-81596182D01*
X196127101Y-81462932D01*
X196345608Y-81283608D01*
X196524932Y-81065101D01*
X196596000Y-80932142D01*
X196667068Y-81065101D01*
X196846392Y-81283608D01*
X197064899Y-81462932D01*
X197314192Y-81596182D01*
X197584691Y-81678236D01*
X197795508Y-81699000D01*
X197936492Y-81699000D01*
X198147309Y-81678236D01*
X198417808Y-81596182D01*
X198667101Y-81462932D01*
X198885608Y-81283608D01*
X199064932Y-81065101D01*
X199198182Y-80815808D01*
X199280236Y-80545309D01*
X199307943Y-80264000D01*
X199280236Y-79982691D01*
X199266708Y-79938093D01*
X200187928Y-79016873D01*
X200187928Y-79971000D01*
X200200188Y-80095482D01*
X200236498Y-80215180D01*
X200295463Y-80325494D01*
X200374815Y-80422185D01*
X200471506Y-80501537D01*
X200581820Y-80560502D01*
X200662466Y-80584966D01*
X200578412Y-80660731D01*
X200404359Y-80894080D01*
X200279175Y-81156901D01*
X200234524Y-81304110D01*
X200355845Y-81534000D01*
X201549000Y-81534000D01*
X201549000Y-81514000D01*
X201803000Y-81514000D01*
X201803000Y-81534000D01*
X204089000Y-81534000D01*
X204089000Y-81514000D01*
X204343000Y-81514000D01*
X204343000Y-81534000D01*
X204363000Y-81534000D01*
X204363000Y-81788000D01*
X204343000Y-81788000D01*
X204343000Y-84074000D01*
X204363000Y-84074000D01*
X204363000Y-84328000D01*
X204343000Y-84328000D01*
X204343000Y-86614000D01*
X204363000Y-86614000D01*
X204363000Y-86868000D01*
X204343000Y-86868000D01*
X204343000Y-86888000D01*
X204089000Y-86888000D01*
X204089000Y-86868000D01*
X201803000Y-86868000D01*
X201803000Y-86888000D01*
X201549000Y-86888000D01*
X201549000Y-86868000D01*
X200355845Y-86868000D01*
X200234524Y-87097890D01*
X200279175Y-87245099D01*
X200404359Y-87507920D01*
X200578412Y-87741269D01*
X200794645Y-87936178D01*
X200911523Y-88005799D01*
X200846986Y-88040294D01*
X200620866Y-88225866D01*
X200435294Y-88451986D01*
X200297401Y-88709966D01*
X200212487Y-88989889D01*
X200183815Y-89281000D01*
X200212487Y-89572111D01*
X200297401Y-89852034D01*
X200435294Y-90110014D01*
X200620866Y-90336134D01*
X200846986Y-90521706D01*
X200916000Y-90558595D01*
X200916001Y-92151764D01*
X200912320Y-92157273D01*
X200804147Y-92418426D01*
X200749000Y-92695665D01*
X200749000Y-92978335D01*
X200804147Y-93255574D01*
X200912320Y-93516727D01*
X201069363Y-93751759D01*
X201269241Y-93951637D01*
X201504273Y-94108680D01*
X201765426Y-94216853D01*
X202042665Y-94272000D01*
X202325335Y-94272000D01*
X202602574Y-94216853D01*
X202863727Y-94108680D01*
X203098759Y-93951637D01*
X203298637Y-93751759D01*
X203455680Y-93516727D01*
X203563853Y-93255574D01*
X203619000Y-92978335D01*
X203619000Y-92695665D01*
X203563853Y-92418426D01*
X203455680Y-92157273D01*
X203298637Y-91922241D01*
X203098759Y-91722363D01*
X202949302Y-91622499D01*
X203850005Y-90721797D01*
X203924889Y-90744513D01*
X204143050Y-90766000D01*
X204288950Y-90766000D01*
X204507111Y-90744513D01*
X204787034Y-90659599D01*
X205045014Y-90521706D01*
X205271134Y-90336134D01*
X205456706Y-90110014D01*
X205594599Y-89852034D01*
X205679513Y-89572111D01*
X205708185Y-89281000D01*
X205679513Y-88989889D01*
X205656797Y-88915004D01*
X205901998Y-88669803D01*
X205929073Y-88647583D01*
X205849066Y-99448564D01*
X205767309Y-99423764D01*
X205556492Y-99403000D01*
X205415508Y-99403000D01*
X205204691Y-99423764D01*
X204934192Y-99505818D01*
X204684899Y-99639068D01*
X204466392Y-99818392D01*
X204287068Y-100036899D01*
X204153818Y-100286192D01*
X204071764Y-100556691D01*
X204044057Y-100838000D01*
X204071764Y-101119309D01*
X204153818Y-101389808D01*
X204287068Y-101639101D01*
X204466392Y-101857608D01*
X204684899Y-102036932D01*
X204726000Y-102058901D01*
X204726001Y-103648399D01*
X197982862Y-110391538D01*
X197900521Y-110192748D01*
X197714477Y-109914313D01*
X197477687Y-109677523D01*
X197199252Y-109491479D01*
X196889872Y-109363330D01*
X196561435Y-109298000D01*
X196226565Y-109298000D01*
X195898128Y-109363330D01*
X195588748Y-109491479D01*
X195310313Y-109677523D01*
X195073523Y-109914313D01*
X194887479Y-110192748D01*
X194845895Y-110293140D01*
X194847072Y-110033000D01*
X194834812Y-109908518D01*
X194798502Y-109788820D01*
X194739537Y-109678506D01*
X194660185Y-109581815D01*
X194563494Y-109502463D01*
X194453180Y-109443498D01*
X194333482Y-109407188D01*
X194209000Y-109394928D01*
X193579750Y-109398000D01*
X193421000Y-109556750D01*
X193421000Y-110871000D01*
X193441000Y-110871000D01*
X193441000Y-111125000D01*
X193421000Y-111125000D01*
X193421000Y-112439250D01*
X193579750Y-112598000D01*
X194209000Y-112601072D01*
X194333482Y-112588812D01*
X194453180Y-112552502D01*
X194563494Y-112493537D01*
X194660185Y-112414185D01*
X194739537Y-112317494D01*
X194798502Y-112207180D01*
X194834812Y-112087482D01*
X194847072Y-111963000D01*
X194845895Y-111702860D01*
X194887479Y-111803252D01*
X195073523Y-112081687D01*
X195310313Y-112318477D01*
X195588748Y-112504521D01*
X195787538Y-112586862D01*
X192649004Y-115725397D01*
X192620000Y-115749200D01*
X192564872Y-115816375D01*
X192525027Y-115864925D01*
X192454456Y-115996954D01*
X192454455Y-115996955D01*
X192438282Y-116050270D01*
X192055750Y-116052000D01*
X191897000Y-116210750D01*
X191897000Y-117475000D01*
X191917000Y-117475000D01*
X191917000Y-117729000D01*
X191897000Y-117729000D01*
X191897000Y-117749000D01*
X191643000Y-117749000D01*
X191643000Y-117729000D01*
X190328750Y-117729000D01*
X190170000Y-117887750D01*
X190166928Y-118517000D01*
X190179188Y-118641482D01*
X190215498Y-118761180D01*
X190274463Y-118871494D01*
X190353815Y-118968185D01*
X190450506Y-119047537D01*
X190560820Y-119106502D01*
X190680518Y-119142812D01*
X190805000Y-119155072D01*
X191065140Y-119153895D01*
X190964748Y-119195479D01*
X190686313Y-119381523D01*
X190449523Y-119618313D01*
X190263479Y-119896748D01*
X190135330Y-120206128D01*
X190070000Y-120534565D01*
X190070000Y-120869435D01*
X190135330Y-121197872D01*
X190263479Y-121507252D01*
X190449523Y-121785687D01*
X190686313Y-122022477D01*
X190964748Y-122208521D01*
X191274128Y-122336670D01*
X191602565Y-122402000D01*
X191937435Y-122402000D01*
X192265872Y-122336670D01*
X192400002Y-122281112D01*
X192400002Y-127297197D01*
X192324002Y-127373197D01*
X192323996Y-127373202D01*
X192311124Y-127386074D01*
X192265872Y-127367330D01*
X191937435Y-127302000D01*
X191602565Y-127302000D01*
X191274128Y-127367330D01*
X190964748Y-127495479D01*
X190686313Y-127681523D01*
X190449523Y-127918313D01*
X190263479Y-128196748D01*
X190135330Y-128506128D01*
X190070000Y-128834565D01*
X190070000Y-129169435D01*
X190135330Y-129497872D01*
X190263479Y-129807252D01*
X190449523Y-130085687D01*
X190686313Y-130322477D01*
X190964748Y-130508521D01*
X191274128Y-130636670D01*
X191602565Y-130702000D01*
X191937435Y-130702000D01*
X192265872Y-130636670D01*
X192575252Y-130508521D01*
X192853687Y-130322477D01*
X193090477Y-130085687D01*
X193276521Y-129807252D01*
X193404670Y-129497872D01*
X193470000Y-129169435D01*
X193470000Y-128834565D01*
X193404670Y-128506128D01*
X193385926Y-128460876D01*
X193398798Y-128448004D01*
X193398803Y-128447998D01*
X193670998Y-128175803D01*
X193700002Y-128152000D01*
X193794975Y-128036275D01*
X193865547Y-127904246D01*
X193909004Y-127760985D01*
X193920001Y-127649332D01*
X193920001Y-127649323D01*
X193923677Y-127612000D01*
X193920001Y-127574677D01*
X193920001Y-116604002D01*
X205810063Y-104713941D01*
X205773317Y-109674603D01*
X205499252Y-109491479D01*
X205189872Y-109363330D01*
X204861435Y-109298000D01*
X204526565Y-109298000D01*
X204198128Y-109363330D01*
X203888748Y-109491479D01*
X203610313Y-109677523D01*
X203373523Y-109914313D01*
X203187479Y-110192748D01*
X203059330Y-110502128D01*
X202994000Y-110830565D01*
X202994000Y-111165435D01*
X203059330Y-111493872D01*
X203187479Y-111803252D01*
X203373523Y-112081687D01*
X203610313Y-112318477D01*
X203888748Y-112504521D01*
X204198128Y-112632670D01*
X204526565Y-112698000D01*
X204861435Y-112698000D01*
X205189872Y-112632670D01*
X205499252Y-112504521D01*
X205753614Y-112334562D01*
X205617314Y-130735000D01*
X177494000Y-130735000D01*
X177494000Y-116687000D01*
X190166928Y-116687000D01*
X190170000Y-117316250D01*
X190328750Y-117475000D01*
X191643000Y-117475000D01*
X191643000Y-116210750D01*
X191484250Y-116052000D01*
X190805000Y-116048928D01*
X190680518Y-116061188D01*
X190560820Y-116097498D01*
X190450506Y-116156463D01*
X190353815Y-116235815D01*
X190274463Y-116332506D01*
X190215498Y-116442820D01*
X190179188Y-116562518D01*
X190166928Y-116687000D01*
X177494000Y-116687000D01*
X177494000Y-112034509D01*
X177525523Y-112081687D01*
X177762313Y-112318477D01*
X178040748Y-112504521D01*
X178350128Y-112632670D01*
X178678565Y-112698000D01*
X179013435Y-112698000D01*
X179341872Y-112632670D01*
X179651252Y-112504521D01*
X179929687Y-112318477D01*
X180166477Y-112081687D01*
X180352521Y-111803252D01*
X180480670Y-111493872D01*
X180546000Y-111165435D01*
X180546000Y-110830565D01*
X185446000Y-110830565D01*
X185446000Y-111165435D01*
X185511330Y-111493872D01*
X185639479Y-111803252D01*
X185825523Y-112081687D01*
X186062313Y-112318477D01*
X186340748Y-112504521D01*
X186650128Y-112632670D01*
X186978565Y-112698000D01*
X187313435Y-112698000D01*
X187641872Y-112632670D01*
X187951252Y-112504521D01*
X188229687Y-112318477D01*
X188466477Y-112081687D01*
X188652521Y-111803252D01*
X188694105Y-111702860D01*
X188692928Y-111963000D01*
X188705188Y-112087482D01*
X188741498Y-112207180D01*
X188800463Y-112317494D01*
X188879815Y-112414185D01*
X188976506Y-112493537D01*
X189086820Y-112552502D01*
X189206518Y-112588812D01*
X189331000Y-112601072D01*
X189960250Y-112598000D01*
X190119000Y-112439250D01*
X190119000Y-111125000D01*
X190373000Y-111125000D01*
X190373000Y-112439250D01*
X190531750Y-112598000D01*
X191161000Y-112601072D01*
X191285482Y-112588812D01*
X191405180Y-112552502D01*
X191515494Y-112493537D01*
X191612185Y-112414185D01*
X191691537Y-112317494D01*
X191750502Y-112207180D01*
X191770000Y-112142904D01*
X191789498Y-112207180D01*
X191848463Y-112317494D01*
X191927815Y-112414185D01*
X192024506Y-112493537D01*
X192134820Y-112552502D01*
X192254518Y-112588812D01*
X192379000Y-112601072D01*
X193008250Y-112598000D01*
X193167000Y-112439250D01*
X193167000Y-111125000D01*
X191902750Y-111125000D01*
X191770000Y-111257750D01*
X191637250Y-111125000D01*
X190373000Y-111125000D01*
X190119000Y-111125000D01*
X190099000Y-111125000D01*
X190099000Y-110871000D01*
X190119000Y-110871000D01*
X190119000Y-109556750D01*
X190373000Y-109556750D01*
X190373000Y-110871000D01*
X191637250Y-110871000D01*
X191770000Y-110738250D01*
X191902750Y-110871000D01*
X193167000Y-110871000D01*
X193167000Y-109556750D01*
X193008250Y-109398000D01*
X192379000Y-109394928D01*
X192254518Y-109407188D01*
X192134820Y-109443498D01*
X192024506Y-109502463D01*
X191927815Y-109581815D01*
X191848463Y-109678506D01*
X191789498Y-109788820D01*
X191770000Y-109853096D01*
X191750502Y-109788820D01*
X191691537Y-109678506D01*
X191612185Y-109581815D01*
X191515494Y-109502463D01*
X191405180Y-109443498D01*
X191285482Y-109407188D01*
X191161000Y-109394928D01*
X190531750Y-109398000D01*
X190373000Y-109556750D01*
X190119000Y-109556750D01*
X189960250Y-109398000D01*
X189331000Y-109394928D01*
X189206518Y-109407188D01*
X189086820Y-109443498D01*
X188976506Y-109502463D01*
X188879815Y-109581815D01*
X188800463Y-109678506D01*
X188741498Y-109788820D01*
X188705188Y-109908518D01*
X188692928Y-110033000D01*
X188694105Y-110293140D01*
X188652521Y-110192748D01*
X188466477Y-109914313D01*
X188229687Y-109677523D01*
X187951252Y-109491479D01*
X187641872Y-109363330D01*
X187313435Y-109298000D01*
X186978565Y-109298000D01*
X186650128Y-109363330D01*
X186340748Y-109491479D01*
X186062313Y-109677523D01*
X185825523Y-109914313D01*
X185639479Y-110192748D01*
X185511330Y-110502128D01*
X185446000Y-110830565D01*
X180546000Y-110830565D01*
X180480670Y-110502128D01*
X180352521Y-110192748D01*
X180166477Y-109914313D01*
X179929687Y-109677523D01*
X179651252Y-109491479D01*
X179607869Y-109473509D01*
X179595003Y-109342877D01*
X179551546Y-109199616D01*
X179480974Y-109067587D01*
X179409799Y-108980860D01*
X179386001Y-108951862D01*
X179357002Y-108928063D01*
X178958999Y-108530061D01*
X178958999Y-102870000D01*
X179152057Y-102870000D01*
X179179764Y-103151309D01*
X179261818Y-103421808D01*
X179395068Y-103671101D01*
X179574392Y-103889608D01*
X179792899Y-104068932D01*
X180042192Y-104202182D01*
X180312691Y-104284236D01*
X180523508Y-104305000D01*
X180664492Y-104305000D01*
X180875309Y-104284236D01*
X181145808Y-104202182D01*
X181395101Y-104068932D01*
X181613608Y-103889608D01*
X181792932Y-103671101D01*
X181926182Y-103421808D01*
X182008236Y-103151309D01*
X182035943Y-102870000D01*
X182008236Y-102588691D01*
X181926182Y-102318192D01*
X181874053Y-102220665D01*
X182842000Y-102220665D01*
X182842000Y-102503335D01*
X182897147Y-102780574D01*
X183005320Y-103041727D01*
X183162363Y-103276759D01*
X183362241Y-103476637D01*
X183597273Y-103633680D01*
X183858426Y-103741853D01*
X184135665Y-103797000D01*
X184418335Y-103797000D01*
X184695574Y-103741853D01*
X184956727Y-103633680D01*
X185191759Y-103476637D01*
X185391637Y-103276759D01*
X185548680Y-103041727D01*
X185656853Y-102780574D01*
X185712000Y-102503335D01*
X185712000Y-102220665D01*
X185656853Y-101943426D01*
X185548680Y-101682273D01*
X185391637Y-101447241D01*
X185191759Y-101247363D01*
X184956727Y-101090320D01*
X184695574Y-100982147D01*
X184418335Y-100927000D01*
X184135665Y-100927000D01*
X183858426Y-100982147D01*
X183597273Y-101090320D01*
X183362241Y-101247363D01*
X183162363Y-101447241D01*
X183005320Y-101682273D01*
X182897147Y-101943426D01*
X182842000Y-102220665D01*
X181874053Y-102220665D01*
X181792932Y-102068899D01*
X181613608Y-101850392D01*
X181395101Y-101671068D01*
X181145808Y-101537818D01*
X180875309Y-101455764D01*
X180664492Y-101435000D01*
X180523508Y-101435000D01*
X180312691Y-101455764D01*
X180042192Y-101537818D01*
X179792899Y-101671068D01*
X179574392Y-101850392D01*
X179395068Y-102068899D01*
X179261818Y-102318192D01*
X179179764Y-102588691D01*
X179152057Y-102870000D01*
X178958999Y-102870000D01*
X178958999Y-97648665D01*
X179159000Y-97648665D01*
X179159000Y-97931335D01*
X179214147Y-98208574D01*
X179322320Y-98469727D01*
X179479363Y-98704759D01*
X179679241Y-98904637D01*
X179914273Y-99061680D01*
X180175426Y-99169853D01*
X180452665Y-99225000D01*
X180735335Y-99225000D01*
X181012574Y-99169853D01*
X181273727Y-99061680D01*
X181508759Y-98904637D01*
X181708637Y-98704759D01*
X181865680Y-98469727D01*
X181973853Y-98208574D01*
X182029000Y-97931335D01*
X182029000Y-97648665D01*
X181973853Y-97371426D01*
X181865680Y-97110273D01*
X181708637Y-96875241D01*
X181508759Y-96675363D01*
X181273727Y-96518320D01*
X181012574Y-96410147D01*
X180735335Y-96355000D01*
X180452665Y-96355000D01*
X180175426Y-96410147D01*
X179914273Y-96518320D01*
X179679241Y-96675363D01*
X179479363Y-96875241D01*
X179322320Y-97110273D01*
X179214147Y-97371426D01*
X179159000Y-97648665D01*
X178958999Y-97648665D01*
X178958999Y-95747193D01*
X178974960Y-95752909D01*
X179197000Y-95631624D01*
X179197000Y-94488000D01*
X179177000Y-94488000D01*
X179177000Y-94234000D01*
X179197000Y-94234000D01*
X179197000Y-93090376D01*
X178974960Y-92969091D01*
X178958999Y-92974807D01*
X178958999Y-92625802D01*
X178998093Y-92586708D01*
X179042691Y-92600236D01*
X179253508Y-92621000D01*
X179394492Y-92621000D01*
X179605309Y-92600236D01*
X179707000Y-92569389D01*
X179707000Y-92981252D01*
X179673040Y-92969091D01*
X179451000Y-93090376D01*
X179451000Y-94234000D01*
X179471000Y-94234000D01*
X179471000Y-94488000D01*
X179451000Y-94488000D01*
X179451000Y-95631624D01*
X179673040Y-95752909D01*
X179937881Y-95658070D01*
X180179131Y-95513385D01*
X180387519Y-95324414D01*
X180555037Y-95098420D01*
X180675246Y-94844087D01*
X180695968Y-94775769D01*
X182876292Y-96956094D01*
X182862764Y-97000691D01*
X182835057Y-97282000D01*
X182862764Y-97563309D01*
X182944818Y-97833808D01*
X183078068Y-98083101D01*
X183257392Y-98301608D01*
X183475899Y-98480932D01*
X183725192Y-98614182D01*
X183995691Y-98696236D01*
X184206508Y-98717000D01*
X184347492Y-98717000D01*
X184558309Y-98696236D01*
X184828808Y-98614182D01*
X185078101Y-98480932D01*
X185296608Y-98301608D01*
X185313000Y-98281635D01*
X185313000Y-99802667D01*
X185309323Y-99839999D01*
X185313000Y-99877332D01*
X185322354Y-99972298D01*
X185323997Y-99988984D01*
X185367453Y-100132245D01*
X185438025Y-100264275D01*
X185499681Y-100339402D01*
X185532999Y-100380000D01*
X185561997Y-100403798D01*
X185797292Y-100639093D01*
X185783764Y-100683691D01*
X185756057Y-100965000D01*
X185783764Y-101246309D01*
X185865818Y-101516808D01*
X185999068Y-101766101D01*
X186178392Y-101984608D01*
X186396899Y-102163932D01*
X186646192Y-102297182D01*
X186916691Y-102379236D01*
X187127508Y-102400000D01*
X187268492Y-102400000D01*
X187479309Y-102379236D01*
X187619000Y-102336862D01*
X187618999Y-102832000D01*
X187437665Y-102832000D01*
X187160426Y-102887147D01*
X186899273Y-102995320D01*
X186664241Y-103152363D01*
X186464363Y-103352241D01*
X186307320Y-103587273D01*
X186199147Y-103848426D01*
X186144000Y-104125665D01*
X186144000Y-104408335D01*
X186199147Y-104685574D01*
X186307320Y-104946727D01*
X186464363Y-105181759D01*
X186664241Y-105381637D01*
X186899273Y-105538680D01*
X187160426Y-105646853D01*
X187437665Y-105702000D01*
X187720335Y-105702000D01*
X187997574Y-105646853D01*
X188258727Y-105538680D01*
X188493759Y-105381637D01*
X188693637Y-105181759D01*
X188850680Y-104946727D01*
X188958853Y-104685574D01*
X189014000Y-104408335D01*
X189014000Y-104267000D01*
X191217057Y-104267000D01*
X191244764Y-104548309D01*
X191326818Y-104818808D01*
X191460068Y-105068101D01*
X191639392Y-105286608D01*
X191857899Y-105465932D01*
X192107192Y-105599182D01*
X192377691Y-105681236D01*
X192588508Y-105702000D01*
X192729492Y-105702000D01*
X192940309Y-105681236D01*
X193210808Y-105599182D01*
X193460101Y-105465932D01*
X193678608Y-105286608D01*
X193857932Y-105068101D01*
X193991182Y-104818808D01*
X194073236Y-104548309D01*
X194100943Y-104267000D01*
X194073236Y-103985691D01*
X193991182Y-103715192D01*
X193857932Y-103465899D01*
X193678608Y-103247392D01*
X193460101Y-103068068D01*
X193210808Y-102934818D01*
X192940309Y-102852764D01*
X192729492Y-102832000D01*
X192588508Y-102832000D01*
X192377691Y-102852764D01*
X192107192Y-102934818D01*
X191857899Y-103068068D01*
X191639392Y-103247392D01*
X191460068Y-103465899D01*
X191326818Y-103715192D01*
X191244764Y-103985691D01*
X191217057Y-104267000D01*
X189014000Y-104267000D01*
X189014000Y-104125665D01*
X188976467Y-103936978D01*
X189013972Y-103891278D01*
X189013973Y-103891277D01*
X189084545Y-103759248D01*
X189128002Y-103615987D01*
X189138999Y-103504334D01*
X189138999Y-103504325D01*
X189142675Y-103467002D01*
X189138999Y-103429679D01*
X189138999Y-102616000D01*
X194570388Y-102616000D01*
X194592785Y-102843400D01*
X194659115Y-103062060D01*
X194766829Y-103263579D01*
X194911788Y-103440212D01*
X195088421Y-103585171D01*
X195289940Y-103692885D01*
X195508600Y-103759215D01*
X195679021Y-103776000D01*
X196242979Y-103776000D01*
X196413400Y-103759215D01*
X196632060Y-103692885D01*
X196833579Y-103585171D01*
X197010212Y-103440212D01*
X197155171Y-103263579D01*
X197262885Y-103062060D01*
X197329215Y-102843400D01*
X197351612Y-102616000D01*
X197329215Y-102388600D01*
X197262885Y-102169940D01*
X197162071Y-101981331D01*
X197203275Y-101922882D01*
X197296272Y-101713337D01*
X197304964Y-101651810D01*
X197179163Y-101473000D01*
X196414109Y-101473000D01*
X196413400Y-101472785D01*
X196242979Y-101456000D01*
X195679021Y-101456000D01*
X195508600Y-101472785D01*
X195507891Y-101473000D01*
X194742837Y-101473000D01*
X194617036Y-101651810D01*
X194625728Y-101713337D01*
X194718725Y-101922882D01*
X194759929Y-101981331D01*
X194659115Y-102169940D01*
X194592785Y-102388600D01*
X194570388Y-102616000D01*
X189138999Y-102616000D01*
X189138999Y-101957702D01*
X191464903Y-101957702D01*
X191536486Y-102201671D01*
X191791996Y-102322571D01*
X192066184Y-102391300D01*
X192348512Y-102405217D01*
X192628130Y-102363787D01*
X192894292Y-102268603D01*
X193019514Y-102201671D01*
X193091097Y-101957702D01*
X192278000Y-101144605D01*
X191464903Y-101957702D01*
X189138999Y-101957702D01*
X189138999Y-101876802D01*
X189980289Y-101035512D01*
X190837783Y-101035512D01*
X190879213Y-101315130D01*
X190974397Y-101581292D01*
X191041329Y-101706514D01*
X191285298Y-101778097D01*
X192098395Y-100965000D01*
X192457605Y-100965000D01*
X193270702Y-101778097D01*
X193514671Y-101706514D01*
X193635571Y-101451004D01*
X193704300Y-101176816D01*
X193718217Y-100894488D01*
X193676787Y-100614870D01*
X193581603Y-100348708D01*
X193514671Y-100223486D01*
X193270702Y-100151903D01*
X192457605Y-100965000D01*
X192098395Y-100965000D01*
X191285298Y-100151903D01*
X191041329Y-100223486D01*
X190920429Y-100478996D01*
X190851700Y-100753184D01*
X190837783Y-101035512D01*
X189980289Y-101035512D01*
X191043503Y-99972298D01*
X191464903Y-99972298D01*
X192278000Y-100785395D01*
X193091097Y-99972298D01*
X193019514Y-99728329D01*
X192764004Y-99607429D01*
X192489816Y-99538700D01*
X192207488Y-99524783D01*
X191927870Y-99566213D01*
X191661708Y-99661397D01*
X191536486Y-99728329D01*
X191464903Y-99972298D01*
X191043503Y-99972298D01*
X191954114Y-99061688D01*
X192136665Y-99098000D01*
X192419335Y-99098000D01*
X192696574Y-99042853D01*
X192957727Y-98934680D01*
X193192759Y-98777637D01*
X193392637Y-98577759D01*
X193549680Y-98342727D01*
X193657853Y-98081574D01*
X193713000Y-97804335D01*
X193713000Y-97521665D01*
X193657853Y-97244426D01*
X193549680Y-96983273D01*
X193392637Y-96748241D01*
X193192759Y-96548363D01*
X192957727Y-96391320D01*
X192696574Y-96283147D01*
X192419335Y-96228000D01*
X192136665Y-96228000D01*
X191859426Y-96283147D01*
X191598273Y-96391320D01*
X191363241Y-96548363D01*
X191163363Y-96748241D01*
X191006320Y-96983273D01*
X190898147Y-97244426D01*
X190843000Y-97521665D01*
X190843000Y-97804335D01*
X190879312Y-97986886D01*
X188503300Y-100362899D01*
X188396932Y-100163899D01*
X188217608Y-99945392D01*
X187999101Y-99766068D01*
X187749808Y-99632818D01*
X187479309Y-99550764D01*
X187268492Y-99530000D01*
X187127508Y-99530000D01*
X186916691Y-99550764D01*
X186872093Y-99564292D01*
X186832999Y-99525198D01*
X186832999Y-99051849D01*
X186916691Y-99077236D01*
X187127508Y-99098000D01*
X187268492Y-99098000D01*
X187479309Y-99077236D01*
X187749808Y-98995182D01*
X187999101Y-98861932D01*
X188217608Y-98682608D01*
X188396932Y-98464101D01*
X188530182Y-98214808D01*
X188612236Y-97944309D01*
X188639943Y-97663000D01*
X188612236Y-97381691D01*
X188530182Y-97111192D01*
X188396932Y-96861899D01*
X188217608Y-96643392D01*
X187999101Y-96464068D01*
X187958000Y-96442099D01*
X187958000Y-95708901D01*
X187999101Y-95686932D01*
X188217608Y-95507608D01*
X188396932Y-95289101D01*
X188530182Y-95039808D01*
X188612236Y-94769309D01*
X188639943Y-94488000D01*
X188626023Y-94346665D01*
X190843000Y-94346665D01*
X190843000Y-94629335D01*
X190898147Y-94906574D01*
X191006320Y-95167727D01*
X191163363Y-95402759D01*
X191363241Y-95602637D01*
X191598273Y-95759680D01*
X191859426Y-95867853D01*
X192136665Y-95923000D01*
X192419335Y-95923000D01*
X192601887Y-95886688D01*
X195201001Y-98485803D01*
X195201001Y-98913913D01*
X195086518Y-98925188D01*
X194966820Y-98961498D01*
X194856506Y-99020463D01*
X194759815Y-99099815D01*
X194680463Y-99196506D01*
X194621498Y-99306820D01*
X194585188Y-99426518D01*
X194572928Y-99551000D01*
X194572928Y-100601000D01*
X194585188Y-100725482D01*
X194621498Y-100845180D01*
X194656176Y-100910057D01*
X194625728Y-100978663D01*
X194617036Y-101040190D01*
X194742837Y-101219000D01*
X195060765Y-101219000D01*
X195086518Y-101226812D01*
X195211000Y-101239072D01*
X196711000Y-101239072D01*
X196835482Y-101226812D01*
X196861235Y-101219000D01*
X197179163Y-101219000D01*
X197304964Y-101040190D01*
X197296272Y-100978663D01*
X197265824Y-100910057D01*
X197300502Y-100845180D01*
X197336812Y-100725482D01*
X197349072Y-100601000D01*
X197349072Y-99551000D01*
X197336812Y-99426518D01*
X197300502Y-99306820D01*
X197241537Y-99196506D01*
X197162185Y-99099815D01*
X197065494Y-99020463D01*
X196955180Y-98961498D01*
X196835482Y-98925188D01*
X196721000Y-98913913D01*
X196721000Y-98208333D01*
X196724677Y-98171000D01*
X196710003Y-98022014D01*
X196666546Y-97878753D01*
X196595974Y-97746724D01*
X196527264Y-97663001D01*
X196501001Y-97630999D01*
X196472003Y-97607201D01*
X195998663Y-97133861D01*
X196069292Y-97108603D01*
X196194514Y-97041671D01*
X196266097Y-96797702D01*
X195453000Y-95984605D01*
X195438858Y-95998748D01*
X195259253Y-95819143D01*
X195273395Y-95805000D01*
X195632605Y-95805000D01*
X196445702Y-96618097D01*
X196689671Y-96546514D01*
X196810571Y-96291004D01*
X196879300Y-96016816D01*
X196893217Y-95734488D01*
X196851787Y-95454870D01*
X196756603Y-95188708D01*
X196689671Y-95063486D01*
X196445702Y-94991903D01*
X195632605Y-95805000D01*
X195273395Y-95805000D01*
X194460298Y-94991903D01*
X194216329Y-95063486D01*
X194123812Y-95259011D01*
X193677099Y-94812298D01*
X194639903Y-94812298D01*
X195453000Y-95625395D01*
X196266097Y-94812298D01*
X196194514Y-94568329D01*
X195939004Y-94447429D01*
X195664816Y-94378700D01*
X195382488Y-94364783D01*
X195102870Y-94406213D01*
X194836708Y-94501397D01*
X194711486Y-94568329D01*
X194639903Y-94812298D01*
X193677099Y-94812298D01*
X193676688Y-94811887D01*
X193713000Y-94629335D01*
X193713000Y-94346665D01*
X193657853Y-94069426D01*
X193549680Y-93808273D01*
X193392637Y-93573241D01*
X193192759Y-93373363D01*
X192957727Y-93216320D01*
X192696574Y-93108147D01*
X192419335Y-93053000D01*
X192136665Y-93053000D01*
X191859426Y-93108147D01*
X191598273Y-93216320D01*
X191363241Y-93373363D01*
X191163363Y-93573241D01*
X191006320Y-93808273D01*
X190898147Y-94069426D01*
X190843000Y-94346665D01*
X188626023Y-94346665D01*
X188612236Y-94206691D01*
X188530182Y-93936192D01*
X188396932Y-93686899D01*
X188217608Y-93468392D01*
X187999101Y-93289068D01*
X187749808Y-93155818D01*
X187479309Y-93073764D01*
X187268492Y-93053000D01*
X187127508Y-93053000D01*
X186916691Y-93073764D01*
X186646192Y-93155818D01*
X186396899Y-93289068D01*
X186218379Y-93435575D01*
X185177696Y-92394892D01*
X185318759Y-92300637D01*
X185440694Y-92178702D01*
X186765903Y-92178702D01*
X186837486Y-92422671D01*
X187092996Y-92543571D01*
X187367184Y-92612300D01*
X187649512Y-92626217D01*
X187929130Y-92584787D01*
X188195292Y-92489603D01*
X188320514Y-92422671D01*
X188392097Y-92178702D01*
X187579000Y-91365605D01*
X186765903Y-92178702D01*
X185440694Y-92178702D01*
X185518637Y-92100759D01*
X185675680Y-91865727D01*
X185783853Y-91604574D01*
X185839000Y-91327335D01*
X185839000Y-91256512D01*
X186138783Y-91256512D01*
X186180213Y-91536130D01*
X186275397Y-91802292D01*
X186342329Y-91927514D01*
X186586298Y-91999097D01*
X187399395Y-91186000D01*
X187758605Y-91186000D01*
X188571702Y-91999097D01*
X188815671Y-91927514D01*
X188936571Y-91672004D01*
X189005300Y-91397816D01*
X189019217Y-91115488D01*
X188977787Y-90835870D01*
X188882603Y-90569708D01*
X188815671Y-90444486D01*
X188571702Y-90372903D01*
X187758605Y-91186000D01*
X187399395Y-91186000D01*
X186586298Y-90372903D01*
X186342329Y-90444486D01*
X186221429Y-90699996D01*
X186152700Y-90974184D01*
X186138783Y-91256512D01*
X185839000Y-91256512D01*
X185839000Y-91044665D01*
X185783853Y-90767426D01*
X185675680Y-90506273D01*
X185518637Y-90271241D01*
X185440694Y-90193298D01*
X186765903Y-90193298D01*
X187579000Y-91006395D01*
X188392097Y-90193298D01*
X188320514Y-89949329D01*
X188065004Y-89828429D01*
X187790816Y-89759700D01*
X187508488Y-89745783D01*
X187228870Y-89787213D01*
X186962708Y-89882397D01*
X186837486Y-89949329D01*
X186765903Y-90193298D01*
X185440694Y-90193298D01*
X185318759Y-90071363D01*
X185164000Y-89967957D01*
X185164000Y-89319000D01*
X185236492Y-89319000D01*
X185447309Y-89298236D01*
X185717808Y-89216182D01*
X185967101Y-89082932D01*
X186185608Y-88903608D01*
X186364932Y-88685101D01*
X186436000Y-88552142D01*
X186507068Y-88685101D01*
X186686392Y-88903608D01*
X186904899Y-89082932D01*
X187154192Y-89216182D01*
X187424691Y-89298236D01*
X187635508Y-89319000D01*
X187776492Y-89319000D01*
X187987309Y-89298236D01*
X188257808Y-89216182D01*
X188507101Y-89082932D01*
X188725608Y-88903608D01*
X188904932Y-88685101D01*
X188976000Y-88552142D01*
X189047068Y-88685101D01*
X189226392Y-88903608D01*
X189444899Y-89082932D01*
X189694192Y-89216182D01*
X189964691Y-89298236D01*
X190175508Y-89319000D01*
X190316492Y-89319000D01*
X190527309Y-89298236D01*
X190571906Y-89284708D01*
X191555641Y-90268443D01*
X191460068Y-90384899D01*
X191326818Y-90634192D01*
X191244764Y-90904691D01*
X191217057Y-91186000D01*
X191244764Y-91467309D01*
X191326818Y-91737808D01*
X191460068Y-91987101D01*
X191639392Y-92205608D01*
X191857899Y-92384932D01*
X192107192Y-92518182D01*
X192377691Y-92600236D01*
X192588508Y-92621000D01*
X192729492Y-92621000D01*
X192940309Y-92600236D01*
X193210808Y-92518182D01*
X193460101Y-92384932D01*
X193678608Y-92205608D01*
X193857932Y-91987101D01*
X193991182Y-91737808D01*
X194073236Y-91467309D01*
X194092613Y-91270570D01*
X194181320Y-91484727D01*
X194338363Y-91719759D01*
X194538241Y-91919637D01*
X194773273Y-92076680D01*
X195034426Y-92184853D01*
X195311665Y-92240000D01*
X195594335Y-92240000D01*
X195871574Y-92184853D01*
X196132727Y-92076680D01*
X196367759Y-91919637D01*
X196567637Y-91719759D01*
X196724680Y-91484727D01*
X196832853Y-91223574D01*
X196888000Y-90946335D01*
X196888000Y-90663665D01*
X196832853Y-90386426D01*
X196724680Y-90125273D01*
X196567637Y-89890241D01*
X196367759Y-89690363D01*
X196132727Y-89533320D01*
X195871574Y-89425147D01*
X195594335Y-89370000D01*
X195346802Y-89370000D01*
X195295802Y-89319000D01*
X195396492Y-89319000D01*
X195607309Y-89298236D01*
X195877808Y-89216182D01*
X196127101Y-89082932D01*
X196345608Y-88903608D01*
X196524932Y-88685101D01*
X196596000Y-88552142D01*
X196667068Y-88685101D01*
X196846392Y-88903608D01*
X197064899Y-89082932D01*
X197314192Y-89216182D01*
X197584691Y-89298236D01*
X197795508Y-89319000D01*
X197936492Y-89319000D01*
X198122001Y-89300729D01*
X198122000Y-91190956D01*
X197967241Y-91294363D01*
X197767363Y-91494241D01*
X197610320Y-91729273D01*
X197502147Y-91990426D01*
X197447000Y-92267665D01*
X197447000Y-92550335D01*
X197502147Y-92827574D01*
X197610320Y-93088727D01*
X197767363Y-93323759D01*
X197967241Y-93523637D01*
X198122001Y-93627044D01*
X198122001Y-94577668D01*
X198118324Y-94615000D01*
X198122001Y-94652333D01*
X198132998Y-94763986D01*
X198140669Y-94789273D01*
X198176454Y-94907246D01*
X198247026Y-95039276D01*
X198318201Y-95126002D01*
X198342000Y-95155001D01*
X198370998Y-95178799D01*
X199201673Y-96009474D01*
X199023335Y-95974000D01*
X198740665Y-95974000D01*
X198463426Y-96029147D01*
X198202273Y-96137320D01*
X197967241Y-96294363D01*
X197767363Y-96494241D01*
X197610320Y-96729273D01*
X197502147Y-96990426D01*
X197447000Y-97267665D01*
X197447000Y-97550335D01*
X197502147Y-97827574D01*
X197610320Y-98088727D01*
X197767363Y-98323759D01*
X197967241Y-98523637D01*
X198202273Y-98680680D01*
X198463426Y-98788853D01*
X198740665Y-98844000D01*
X199023335Y-98844000D01*
X199205886Y-98807688D01*
X199646000Y-99247803D01*
X199646000Y-99619956D01*
X199491241Y-99723363D01*
X199291363Y-99923241D01*
X199134320Y-100158273D01*
X199026147Y-100419426D01*
X198971000Y-100696665D01*
X198971000Y-100979335D01*
X199026147Y-101256574D01*
X199134320Y-101517727D01*
X199291363Y-101752759D01*
X199491241Y-101952637D01*
X199726273Y-102109680D01*
X199987426Y-102217853D01*
X200264665Y-102273000D01*
X200547335Y-102273000D01*
X200824574Y-102217853D01*
X201085727Y-102109680D01*
X201320759Y-101952637D01*
X201520637Y-101752759D01*
X201677680Y-101517727D01*
X201785853Y-101256574D01*
X201841000Y-100979335D01*
X201841000Y-100696665D01*
X201785853Y-100419426D01*
X201677680Y-100158273D01*
X201520637Y-99923241D01*
X201320759Y-99723363D01*
X201166000Y-99619957D01*
X201166000Y-98970322D01*
X201168952Y-98940350D01*
X201382899Y-99115932D01*
X201632192Y-99249182D01*
X201902691Y-99331236D01*
X202113508Y-99352000D01*
X202254492Y-99352000D01*
X202465309Y-99331236D01*
X202735808Y-99249182D01*
X202985101Y-99115932D01*
X203203608Y-98936608D01*
X203382932Y-98718101D01*
X203516182Y-98468808D01*
X203598236Y-98198309D01*
X203625943Y-97917000D01*
X203598236Y-97635691D01*
X203516182Y-97365192D01*
X203382932Y-97115899D01*
X203203608Y-96897392D01*
X202985101Y-96718068D01*
X202735808Y-96584818D01*
X202465309Y-96502764D01*
X202254492Y-96482000D01*
X202113508Y-96482000D01*
X201902691Y-96502764D01*
X201858094Y-96516292D01*
X199642000Y-94300199D01*
X199642000Y-93627043D01*
X199796759Y-93523637D01*
X199996637Y-93323759D01*
X200153680Y-93088727D01*
X200261853Y-92827574D01*
X200317000Y-92550335D01*
X200317000Y-92267665D01*
X200261853Y-91990426D01*
X200153680Y-91729273D01*
X199996637Y-91494241D01*
X199796759Y-91294363D01*
X199642000Y-91190957D01*
X199642000Y-88937322D01*
X199645676Y-88900000D01*
X199642000Y-88862677D01*
X199642000Y-88862667D01*
X199631003Y-88751014D01*
X199587546Y-88607753D01*
X199539210Y-88517324D01*
X199516974Y-88475723D01*
X199445799Y-88388997D01*
X199422001Y-88359999D01*
X199393003Y-88336201D01*
X199266708Y-88209906D01*
X199280236Y-88165309D01*
X199307943Y-87884000D01*
X199280236Y-87602691D01*
X199198182Y-87332192D01*
X199064932Y-87082899D01*
X198885608Y-86864392D01*
X198667101Y-86685068D01*
X198417808Y-86551818D01*
X198147309Y-86469764D01*
X197936492Y-86449000D01*
X197795508Y-86449000D01*
X197584691Y-86469764D01*
X197314192Y-86551818D01*
X197064899Y-86685068D01*
X196846392Y-86864392D01*
X196667068Y-87082899D01*
X196596000Y-87215858D01*
X196524932Y-87082899D01*
X196345608Y-86864392D01*
X196127101Y-86685068D01*
X195877808Y-86551818D01*
X195607309Y-86469764D01*
X195396492Y-86449000D01*
X195255508Y-86449000D01*
X195044691Y-86469764D01*
X194774192Y-86551818D01*
X194524899Y-86685068D01*
X194306392Y-86864392D01*
X194127068Y-87082899D01*
X194056000Y-87215858D01*
X193984932Y-87082899D01*
X193805608Y-86864392D01*
X193587101Y-86685068D01*
X193337808Y-86551818D01*
X193067309Y-86469764D01*
X192856492Y-86449000D01*
X192715508Y-86449000D01*
X192504691Y-86469764D01*
X192234192Y-86551818D01*
X191984899Y-86685068D01*
X191766392Y-86864392D01*
X191587068Y-87082899D01*
X191516000Y-87215858D01*
X191444932Y-87082899D01*
X191265608Y-86864392D01*
X191047101Y-86685068D01*
X190797808Y-86551818D01*
X190527309Y-86469764D01*
X190316492Y-86449000D01*
X190175508Y-86449000D01*
X189964691Y-86469764D01*
X189694192Y-86551818D01*
X189444899Y-86685068D01*
X189226392Y-86864392D01*
X189047068Y-87082899D01*
X188976000Y-87215858D01*
X188904932Y-87082899D01*
X188725608Y-86864392D01*
X188507101Y-86685068D01*
X188257808Y-86551818D01*
X187987309Y-86469764D01*
X187776492Y-86449000D01*
X187635508Y-86449000D01*
X187424691Y-86469764D01*
X187154192Y-86551818D01*
X186904899Y-86685068D01*
X186686392Y-86864392D01*
X186507068Y-87082899D01*
X186436000Y-87215858D01*
X186364932Y-87082899D01*
X186185608Y-86864392D01*
X185967101Y-86685068D01*
X185717808Y-86551818D01*
X185447309Y-86469764D01*
X185236492Y-86449000D01*
X185095508Y-86449000D01*
X184884691Y-86469764D01*
X184614192Y-86551818D01*
X184364899Y-86685068D01*
X184146392Y-86864392D01*
X183967068Y-87082899D01*
X183896000Y-87215858D01*
X183824932Y-87082899D01*
X183645608Y-86864392D01*
X183427101Y-86685068D01*
X183177808Y-86551818D01*
X182907309Y-86469764D01*
X182696492Y-86449000D01*
X182555508Y-86449000D01*
X182344691Y-86469764D01*
X182074192Y-86551818D01*
X181824899Y-86685068D01*
X181606392Y-86864392D01*
X181513581Y-86977482D01*
X181511812Y-86959518D01*
X181475502Y-86839820D01*
X181416537Y-86729506D01*
X181337185Y-86632815D01*
X181240494Y-86553463D01*
X181130180Y-86494498D01*
X181010482Y-86458188D01*
X180886000Y-86445928D01*
X179286000Y-86445928D01*
X179161518Y-86458188D01*
X179041820Y-86494498D01*
X178931506Y-86553463D01*
X178834815Y-86632815D01*
X178755463Y-86729506D01*
X178696498Y-86839820D01*
X178660188Y-86959518D01*
X178647928Y-87084000D01*
X178647928Y-88684000D01*
X178660188Y-88808482D01*
X178696498Y-88928180D01*
X178755463Y-89038494D01*
X178834815Y-89135185D01*
X178931506Y-89214537D01*
X179041820Y-89273502D01*
X179161518Y-89309812D01*
X179286000Y-89322072D01*
X179431674Y-89322072D01*
X179451026Y-89358276D01*
X179460648Y-89370000D01*
X179545999Y-89474001D01*
X179575003Y-89497804D01*
X179707001Y-89629802D01*
X179707001Y-89802612D01*
X179605309Y-89771764D01*
X179394492Y-89751000D01*
X179253508Y-89751000D01*
X179042691Y-89771764D01*
X178772192Y-89853818D01*
X178522899Y-89987068D01*
X178304392Y-90166392D01*
X178125068Y-90384899D01*
X177991818Y-90634192D01*
X177909764Y-90904691D01*
X177882057Y-91186000D01*
X177909764Y-91467309D01*
X177923292Y-91511907D01*
X177687997Y-91747202D01*
X177658999Y-91771000D01*
X177635201Y-91799998D01*
X177635200Y-91799999D01*
X177564025Y-91886725D01*
X177494000Y-92017732D01*
X177494000Y-84557890D01*
X200234524Y-84557890D01*
X200279175Y-84705099D01*
X200404359Y-84967920D01*
X200578412Y-85201269D01*
X200794645Y-85396178D01*
X200920255Y-85471000D01*
X200794645Y-85545822D01*
X200578412Y-85740731D01*
X200404359Y-85974080D01*
X200279175Y-86236901D01*
X200234524Y-86384110D01*
X200355845Y-86614000D01*
X201549000Y-86614000D01*
X201549000Y-84328000D01*
X201803000Y-84328000D01*
X201803000Y-86614000D01*
X204089000Y-86614000D01*
X204089000Y-84328000D01*
X201803000Y-84328000D01*
X201549000Y-84328000D01*
X200355845Y-84328000D01*
X200234524Y-84557890D01*
X177494000Y-84557890D01*
X177494000Y-82017890D01*
X200234524Y-82017890D01*
X200279175Y-82165099D01*
X200404359Y-82427920D01*
X200578412Y-82661269D01*
X200794645Y-82856178D01*
X200920255Y-82931000D01*
X200794645Y-83005822D01*
X200578412Y-83200731D01*
X200404359Y-83434080D01*
X200279175Y-83696901D01*
X200234524Y-83844110D01*
X200355845Y-84074000D01*
X201549000Y-84074000D01*
X201549000Y-81788000D01*
X201803000Y-81788000D01*
X201803000Y-84074000D01*
X204089000Y-84074000D01*
X204089000Y-81788000D01*
X201803000Y-81788000D01*
X201549000Y-81788000D01*
X200355845Y-81788000D01*
X200234524Y-82017890D01*
X177494000Y-82017890D01*
X177494000Y-51836509D01*
X177525523Y-51883687D01*
X177762313Y-52120477D01*
X178040748Y-52306521D01*
X178086000Y-52325265D01*
X178086001Y-64254668D01*
X178082324Y-64292000D01*
X178096998Y-64440985D01*
X178140454Y-64584246D01*
X178211026Y-64716276D01*
X178282201Y-64803002D01*
X178306000Y-64832001D01*
X178334998Y-64855799D01*
X178431292Y-64952093D01*
X178417764Y-64996691D01*
X178390057Y-65278000D01*
X178417764Y-65559309D01*
X178499818Y-65829808D01*
X178633068Y-66079101D01*
X178812392Y-66297608D01*
X179030899Y-66476932D01*
X179280192Y-66610182D01*
X179550691Y-66692236D01*
X179761508Y-66713000D01*
X179902492Y-66713000D01*
X180113309Y-66692236D01*
X180383808Y-66610182D01*
X180633101Y-66476932D01*
X180851608Y-66297608D01*
X181030932Y-66079101D01*
X181164182Y-65829808D01*
X181246236Y-65559309D01*
X181273943Y-65278000D01*
X181246236Y-64996691D01*
X181164182Y-64726192D01*
X181030932Y-64476899D01*
X180851608Y-64258392D01*
X180633101Y-64079068D01*
X180383808Y-63945818D01*
X180113309Y-63863764D01*
X179902492Y-63843000D01*
X179761508Y-63843000D01*
X179606000Y-63858316D01*
X179606000Y-62830416D01*
X179660273Y-62866680D01*
X179921426Y-62974853D01*
X180198665Y-63030000D01*
X180481335Y-63030000D01*
X180758574Y-62974853D01*
X181019727Y-62866680D01*
X181254759Y-62709637D01*
X181454637Y-62509759D01*
X181611680Y-62274727D01*
X181719853Y-62013574D01*
X181775000Y-61736335D01*
X181775000Y-61595000D01*
X183978057Y-61595000D01*
X184005764Y-61876309D01*
X184087818Y-62146808D01*
X184221068Y-62396101D01*
X184400392Y-62614608D01*
X184618899Y-62793932D01*
X184791536Y-62886209D01*
X184824871Y-62926826D01*
X184879999Y-62994001D01*
X184909003Y-63017804D01*
X190154074Y-68262876D01*
X190135330Y-68308128D01*
X190070000Y-68636565D01*
X190070000Y-68971435D01*
X190135330Y-69299872D01*
X190263479Y-69609252D01*
X190449523Y-69887687D01*
X190686313Y-70124477D01*
X190964748Y-70310521D01*
X191274128Y-70438670D01*
X191602565Y-70504000D01*
X191937435Y-70504000D01*
X192265872Y-70438670D01*
X192575252Y-70310521D01*
X192853687Y-70124477D01*
X193090477Y-69887687D01*
X193276521Y-69609252D01*
X193404670Y-69299872D01*
X193470000Y-68971435D01*
X193470000Y-68636565D01*
X193404670Y-68308128D01*
X193276521Y-67998748D01*
X193090477Y-67720313D01*
X192853687Y-67483523D01*
X192575252Y-67297479D01*
X192265872Y-67169330D01*
X191937435Y-67104000D01*
X191602565Y-67104000D01*
X191274128Y-67169330D01*
X191228876Y-67188074D01*
X186536881Y-62496080D01*
X186618932Y-62396101D01*
X186752182Y-62146808D01*
X186834236Y-61876309D01*
X186861943Y-61595000D01*
X186834236Y-61313691D01*
X186752182Y-61043192D01*
X186618932Y-60793899D01*
X186439608Y-60575392D01*
X186221101Y-60396068D01*
X186109779Y-60336565D01*
X190070000Y-60336565D01*
X190070000Y-60671435D01*
X190135330Y-60999872D01*
X190263479Y-61309252D01*
X190449523Y-61587687D01*
X190686313Y-61824477D01*
X190964748Y-62010521D01*
X191274128Y-62138670D01*
X191602565Y-62204000D01*
X191937435Y-62204000D01*
X192265872Y-62138670D01*
X192575252Y-62010521D01*
X192648370Y-61961665D01*
X197066000Y-61961665D01*
X197066000Y-62244335D01*
X197121147Y-62521574D01*
X197229320Y-62782727D01*
X197386363Y-63017759D01*
X197586241Y-63217637D01*
X197741001Y-63321044D01*
X197741000Y-68399677D01*
X197737324Y-68437000D01*
X197741000Y-68474322D01*
X197741000Y-68474332D01*
X197751997Y-68585985D01*
X197785565Y-68696645D01*
X197795454Y-68729246D01*
X197866026Y-68861276D01*
X197905871Y-68909826D01*
X197960999Y-68977001D01*
X197990003Y-69000804D01*
X198334196Y-69344997D01*
X198357999Y-69374001D01*
X198473724Y-69468974D01*
X198526314Y-69497084D01*
X198558498Y-69603180D01*
X198617463Y-69713494D01*
X198696815Y-69810185D01*
X198793506Y-69889537D01*
X198903820Y-69948502D01*
X199023518Y-69984812D01*
X199148000Y-69997072D01*
X200648000Y-69997072D01*
X200772482Y-69984812D01*
X200892180Y-69948502D01*
X201002494Y-69889537D01*
X201099185Y-69810185D01*
X201178537Y-69713494D01*
X201237502Y-69603180D01*
X201273812Y-69483482D01*
X201286072Y-69359000D01*
X201286072Y-68309000D01*
X201273812Y-68184518D01*
X201237502Y-68064820D01*
X201202824Y-67999943D01*
X201233272Y-67931337D01*
X201241964Y-67869810D01*
X201116163Y-67691000D01*
X200798235Y-67691000D01*
X200772482Y-67683188D01*
X200648000Y-67670928D01*
X199751000Y-67670928D01*
X199751000Y-67454000D01*
X200179979Y-67454000D01*
X200350400Y-67437215D01*
X200351109Y-67437000D01*
X201116163Y-67437000D01*
X201241964Y-67258190D01*
X201233272Y-67196663D01*
X201140275Y-66987118D01*
X201099071Y-66928669D01*
X201199885Y-66740060D01*
X201266215Y-66521400D01*
X201288612Y-66294000D01*
X201266215Y-66066600D01*
X201199885Y-65847940D01*
X201092171Y-65646421D01*
X200947212Y-65469788D01*
X200770579Y-65324829D01*
X200658000Y-65264654D01*
X200658000Y-64703801D01*
X201350094Y-64011708D01*
X201394691Y-64025236D01*
X201605508Y-64046000D01*
X201746492Y-64046000D01*
X201957309Y-64025236D01*
X202227808Y-63943182D01*
X202477101Y-63809932D01*
X202695608Y-63630608D01*
X202874932Y-63412101D01*
X203008182Y-63162808D01*
X203090236Y-62892309D01*
X203117943Y-62611000D01*
X203090236Y-62329691D01*
X203008182Y-62059192D01*
X202874932Y-61809899D01*
X202695608Y-61591392D01*
X202477101Y-61412068D01*
X202227808Y-61278818D01*
X201957309Y-61196764D01*
X201746492Y-61176000D01*
X201605508Y-61176000D01*
X201394691Y-61196764D01*
X201124192Y-61278818D01*
X200874899Y-61412068D01*
X200656392Y-61591392D01*
X200477068Y-61809899D01*
X200343818Y-62059192D01*
X200261764Y-62329691D01*
X200234057Y-62611000D01*
X200261764Y-62892309D01*
X200275292Y-62936906D01*
X199386998Y-63825201D01*
X199358000Y-63848999D01*
X199334202Y-63877997D01*
X199334201Y-63877998D01*
X199263026Y-63964724D01*
X199261000Y-63968514D01*
X199261000Y-63321043D01*
X199415759Y-63217637D01*
X199615637Y-63017759D01*
X199772680Y-62782727D01*
X199880853Y-62521574D01*
X199936000Y-62244335D01*
X199936000Y-61961665D01*
X199880853Y-61684426D01*
X199772680Y-61423273D01*
X199615637Y-61188241D01*
X199415759Y-60988363D01*
X199180727Y-60831320D01*
X198919574Y-60723147D01*
X198642335Y-60668000D01*
X198359665Y-60668000D01*
X198082426Y-60723147D01*
X197821273Y-60831320D01*
X197586241Y-60988363D01*
X197386363Y-61188241D01*
X197229320Y-61423273D01*
X197121147Y-61684426D01*
X197066000Y-61961665D01*
X192648370Y-61961665D01*
X192853687Y-61824477D01*
X193090477Y-61587687D01*
X193276521Y-61309252D01*
X193404670Y-60999872D01*
X193470000Y-60671435D01*
X193470000Y-60336565D01*
X193404670Y-60008128D01*
X193276521Y-59698748D01*
X193090477Y-59420313D01*
X192853687Y-59183523D01*
X192575252Y-58997479D01*
X192474860Y-58955895D01*
X192735000Y-58957072D01*
X192859482Y-58944812D01*
X192979180Y-58908502D01*
X193089494Y-58849537D01*
X193186185Y-58770185D01*
X193265537Y-58673494D01*
X193324502Y-58563180D01*
X193360812Y-58443482D01*
X193373072Y-58319000D01*
X193370000Y-57689750D01*
X193211250Y-57531000D01*
X191897000Y-57531000D01*
X191897000Y-57551000D01*
X191643000Y-57551000D01*
X191643000Y-57531000D01*
X190328750Y-57531000D01*
X190170000Y-57689750D01*
X190166928Y-58319000D01*
X190179188Y-58443482D01*
X190215498Y-58563180D01*
X190274463Y-58673494D01*
X190353815Y-58770185D01*
X190450506Y-58849537D01*
X190560820Y-58908502D01*
X190680518Y-58944812D01*
X190805000Y-58957072D01*
X191065140Y-58955895D01*
X190964748Y-58997479D01*
X190686313Y-59183523D01*
X190449523Y-59420313D01*
X190263479Y-59698748D01*
X190135330Y-60008128D01*
X190070000Y-60336565D01*
X186109779Y-60336565D01*
X185971808Y-60262818D01*
X185701309Y-60180764D01*
X185490492Y-60160000D01*
X185349508Y-60160000D01*
X185138691Y-60180764D01*
X184868192Y-60262818D01*
X184618899Y-60396068D01*
X184400392Y-60575392D01*
X184221068Y-60793899D01*
X184087818Y-61043192D01*
X184005764Y-61313691D01*
X183978057Y-61595000D01*
X181775000Y-61595000D01*
X181775000Y-61453665D01*
X181719853Y-61176426D01*
X181611680Y-60915273D01*
X181454637Y-60680241D01*
X181254759Y-60480363D01*
X181227000Y-60461815D01*
X181227000Y-59003043D01*
X181381759Y-58899637D01*
X181581637Y-58699759D01*
X181738680Y-58464727D01*
X181846853Y-58203574D01*
X181902000Y-57926335D01*
X181902000Y-57643665D01*
X184032000Y-57643665D01*
X184032000Y-57926335D01*
X184087147Y-58203574D01*
X184195320Y-58464727D01*
X184352363Y-58699759D01*
X184552241Y-58899637D01*
X184787273Y-59056680D01*
X185048426Y-59164853D01*
X185325665Y-59220000D01*
X185608335Y-59220000D01*
X185885574Y-59164853D01*
X186146727Y-59056680D01*
X186381759Y-58899637D01*
X186581637Y-58699759D01*
X186738680Y-58464727D01*
X186846853Y-58203574D01*
X186902000Y-57926335D01*
X186902000Y-57643665D01*
X186846853Y-57366426D01*
X186738680Y-57105273D01*
X186581637Y-56870241D01*
X186381759Y-56670363D01*
X186146727Y-56513320D01*
X186088014Y-56489000D01*
X190166928Y-56489000D01*
X190170000Y-57118250D01*
X190328750Y-57277000D01*
X191643000Y-57277000D01*
X191643000Y-56012750D01*
X191897000Y-56012750D01*
X191897000Y-57277000D01*
X193211250Y-57277000D01*
X193370000Y-57118250D01*
X193373072Y-56489000D01*
X193360812Y-56364518D01*
X193324502Y-56244820D01*
X193265537Y-56134506D01*
X193186185Y-56037815D01*
X193089494Y-55958463D01*
X192979180Y-55899498D01*
X192859482Y-55863188D01*
X192735000Y-55850928D01*
X192055750Y-55854000D01*
X191897000Y-56012750D01*
X191643000Y-56012750D01*
X191484250Y-55854000D01*
X190805000Y-55850928D01*
X190680518Y-55863188D01*
X190560820Y-55899498D01*
X190450506Y-55958463D01*
X190353815Y-56037815D01*
X190274463Y-56134506D01*
X190215498Y-56244820D01*
X190179188Y-56364518D01*
X190166928Y-56489000D01*
X186088014Y-56489000D01*
X185885574Y-56405147D01*
X185608335Y-56350000D01*
X185325665Y-56350000D01*
X185048426Y-56405147D01*
X184787273Y-56513320D01*
X184552241Y-56670363D01*
X184352363Y-56870241D01*
X184195320Y-57105273D01*
X184087147Y-57366426D01*
X184032000Y-57643665D01*
X181902000Y-57643665D01*
X181846853Y-57366426D01*
X181738680Y-57105273D01*
X181581637Y-56870241D01*
X181381759Y-56670363D01*
X181146727Y-56513320D01*
X180885574Y-56405147D01*
X180608335Y-56350000D01*
X180325665Y-56350000D01*
X180048426Y-56405147D01*
X179787273Y-56513320D01*
X179606000Y-56634442D01*
X179606000Y-52325265D01*
X179651252Y-52306521D01*
X179929687Y-52120477D01*
X180166477Y-51883687D01*
X180352521Y-51605252D01*
X180480670Y-51295872D01*
X180546000Y-50967435D01*
X180546000Y-50632565D01*
X185446000Y-50632565D01*
X185446000Y-50967435D01*
X185511330Y-51295872D01*
X185639479Y-51605252D01*
X185825523Y-51883687D01*
X186062313Y-52120477D01*
X186340748Y-52306521D01*
X186650128Y-52434670D01*
X186978565Y-52500000D01*
X187313435Y-52500000D01*
X187641872Y-52434670D01*
X187951252Y-52306521D01*
X188229687Y-52120477D01*
X188466477Y-51883687D01*
X188652521Y-51605252D01*
X188694105Y-51504860D01*
X188692928Y-51765000D01*
X188705188Y-51889482D01*
X188741498Y-52009180D01*
X188800463Y-52119494D01*
X188879815Y-52216185D01*
X188976506Y-52295537D01*
X189086820Y-52354502D01*
X189206518Y-52390812D01*
X189331000Y-52403072D01*
X189960250Y-52400000D01*
X190119000Y-52241250D01*
X190119000Y-50927000D01*
X190373000Y-50927000D01*
X190373000Y-52241250D01*
X190531750Y-52400000D01*
X191161000Y-52403072D01*
X191285482Y-52390812D01*
X191405180Y-52354502D01*
X191515494Y-52295537D01*
X191612185Y-52216185D01*
X191691537Y-52119494D01*
X191750502Y-52009180D01*
X191770000Y-51944904D01*
X191789498Y-52009180D01*
X191848463Y-52119494D01*
X191927815Y-52216185D01*
X192024506Y-52295537D01*
X192134820Y-52354502D01*
X192254518Y-52390812D01*
X192379000Y-52403072D01*
X193008250Y-52400000D01*
X193167000Y-52241250D01*
X193167000Y-50927000D01*
X191902750Y-50927000D01*
X191770000Y-51059750D01*
X191637250Y-50927000D01*
X190373000Y-50927000D01*
X190119000Y-50927000D01*
X190099000Y-50927000D01*
X190099000Y-50673000D01*
X190119000Y-50673000D01*
X190119000Y-49358750D01*
X190373000Y-49358750D01*
X190373000Y-50673000D01*
X191637250Y-50673000D01*
X191770000Y-50540250D01*
X191902750Y-50673000D01*
X193167000Y-50673000D01*
X193167000Y-49358750D01*
X193421000Y-49358750D01*
X193421000Y-50673000D01*
X193441000Y-50673000D01*
X193441000Y-50927000D01*
X193421000Y-50927000D01*
X193421000Y-52241250D01*
X193579750Y-52400000D01*
X194209000Y-52403072D01*
X194333482Y-52390812D01*
X194453180Y-52354502D01*
X194563494Y-52295537D01*
X194660185Y-52216185D01*
X194739537Y-52119494D01*
X194798502Y-52009180D01*
X194834812Y-51889482D01*
X194847072Y-51765000D01*
X194845895Y-51504860D01*
X194887479Y-51605252D01*
X195073523Y-51883687D01*
X195310313Y-52120477D01*
X195588748Y-52306521D01*
X195898128Y-52434670D01*
X196226565Y-52500000D01*
X196561435Y-52500000D01*
X196889872Y-52434670D01*
X197199252Y-52306521D01*
X197477687Y-52120477D01*
X197714477Y-51883687D01*
X197900521Y-51605252D01*
X198028670Y-51295872D01*
X198094000Y-50967435D01*
X198094000Y-50632565D01*
X198028670Y-50304128D01*
X197900521Y-49994748D01*
X197714477Y-49716313D01*
X197477687Y-49479523D01*
X197199252Y-49293479D01*
X196889872Y-49165330D01*
X196561435Y-49100000D01*
X196226565Y-49100000D01*
X195898128Y-49165330D01*
X195588748Y-49293479D01*
X195310313Y-49479523D01*
X195073523Y-49716313D01*
X194887479Y-49994748D01*
X194845895Y-50095140D01*
X194847072Y-49835000D01*
X194834812Y-49710518D01*
X194798502Y-49590820D01*
X194739537Y-49480506D01*
X194660185Y-49383815D01*
X194563494Y-49304463D01*
X194453180Y-49245498D01*
X194333482Y-49209188D01*
X194209000Y-49196928D01*
X193579750Y-49200000D01*
X193421000Y-49358750D01*
X193167000Y-49358750D01*
X193008250Y-49200000D01*
X192379000Y-49196928D01*
X192254518Y-49209188D01*
X192134820Y-49245498D01*
X192024506Y-49304463D01*
X191927815Y-49383815D01*
X191848463Y-49480506D01*
X191789498Y-49590820D01*
X191770000Y-49655096D01*
X191750502Y-49590820D01*
X191691537Y-49480506D01*
X191612185Y-49383815D01*
X191515494Y-49304463D01*
X191405180Y-49245498D01*
X191285482Y-49209188D01*
X191161000Y-49196928D01*
X190531750Y-49200000D01*
X190373000Y-49358750D01*
X190119000Y-49358750D01*
X189960250Y-49200000D01*
X189331000Y-49196928D01*
X189206518Y-49209188D01*
X189086820Y-49245498D01*
X188976506Y-49304463D01*
X188879815Y-49383815D01*
X188800463Y-49480506D01*
X188741498Y-49590820D01*
X188705188Y-49710518D01*
X188692928Y-49835000D01*
X188694105Y-50095140D01*
X188652521Y-49994748D01*
X188466477Y-49716313D01*
X188229687Y-49479523D01*
X187951252Y-49293479D01*
X187641872Y-49165330D01*
X187313435Y-49100000D01*
X186978565Y-49100000D01*
X186650128Y-49165330D01*
X186340748Y-49293479D01*
X186062313Y-49479523D01*
X185825523Y-49716313D01*
X185639479Y-49994748D01*
X185511330Y-50304128D01*
X185446000Y-50632565D01*
X180546000Y-50632565D01*
X180480670Y-50304128D01*
X180352521Y-49994748D01*
X180166477Y-49716313D01*
X179929687Y-49479523D01*
X179651252Y-49293479D01*
X179341872Y-49165330D01*
X179013435Y-49100000D01*
X178678565Y-49100000D01*
X178350128Y-49165330D01*
X178040748Y-49293479D01*
X177762313Y-49479523D01*
X177525523Y-49716313D01*
X177494000Y-49763491D01*
X177494000Y-45922000D01*
X205971000Y-45922000D01*
X205971000Y-49672836D01*
M02*
