G04 #@! TF.GenerationSoftware,KiCad,Pcbnew,(5.1.0)-1*
G04 #@! TF.CreationDate,2019-04-24T00:20:58-04:00*
G04 #@! TF.ProjectId,envelope,656e7665-6c6f-4706-952e-6b696361645f,rev?*
G04 #@! TF.SameCoordinates,Original*
G04 #@! TF.FileFunction,Copper,L2,Bot*
G04 #@! TF.FilePolarity,Positive*
%FSLAX46Y46*%
G04 Gerber Fmt 4.6, Leading zero omitted, Abs format (unit mm)*
G04 Created by KiCad (PCBNEW (5.1.0)-1) date 2019-04-24 00:20:58*
%MOMM*%
%LPD*%
G04 APERTURE LIST*
%ADD10R,1.500000X1.050000*%
%ADD11O,1.500000X1.050000*%
%ADD12O,1.600000X1.600000*%
%ADD13R,1.600000X1.600000*%
%ADD14C,4.000000*%
%ADD15C,1.800000*%
%ADD16C,1.600000*%
%ADD17R,1.050000X1.500000*%
%ADD18O,1.050000X1.500000*%
%ADD19C,2.130000*%
%ADD20R,1.930000X1.830000*%
%ADD21O,1.700000X1.700000*%
%ADD22R,1.700000X1.700000*%
%ADD23R,1.830000X1.930000*%
%ADD24O,1.750000X1.200000*%
%ADD25C,0.100000*%
%ADD26C,1.200000*%
%ADD27R,1.800000X1.800000*%
%ADD28C,0.800000*%
%ADD29C,0.250000*%
%ADD30C,0.254000*%
G04 APERTURE END LIST*
D10*
X114808000Y-101346000D03*
D11*
X114808000Y-98806000D03*
X114808000Y-100076000D03*
D10*
X114808000Y-95758000D03*
D11*
X114808000Y-93218000D03*
X114808000Y-94488000D03*
D12*
X138430000Y-109220000D03*
X123190000Y-101600000D03*
X135890000Y-109220000D03*
X125730000Y-101600000D03*
X133350000Y-109220000D03*
X128270000Y-101600000D03*
X130810000Y-109220000D03*
X130810000Y-101600000D03*
X128270000Y-109220000D03*
X133350000Y-101600000D03*
X125730000Y-109220000D03*
X135890000Y-101600000D03*
X123190000Y-109220000D03*
D13*
X138430000Y-101600000D03*
D12*
X130175000Y-79375000D03*
X122555000Y-94615000D03*
X130175000Y-81915000D03*
X122555000Y-92075000D03*
X130175000Y-84455000D03*
X122555000Y-89535000D03*
X130175000Y-86995000D03*
X122555000Y-86995000D03*
X130175000Y-89535000D03*
X122555000Y-84455000D03*
X130175000Y-92075000D03*
X122555000Y-81915000D03*
X130175000Y-94615000D03*
D13*
X122555000Y-79375000D03*
D14*
X128910000Y-69230000D03*
X137710000Y-69230000D03*
D15*
X130810000Y-62230000D03*
X133310000Y-62230000D03*
X135810000Y-62230000D03*
D14*
X114940000Y-69230000D03*
X123740000Y-69230000D03*
D15*
X116840000Y-62230000D03*
X119340000Y-62230000D03*
X121840000Y-62230000D03*
D12*
X130048000Y-113030000D03*
D16*
X130048000Y-118110000D03*
D12*
X133985000Y-117475000D03*
D16*
X139065000Y-117475000D03*
D12*
X114935000Y-104140000D03*
D16*
X114935000Y-109220000D03*
D12*
X136525000Y-86360000D03*
D16*
X136525000Y-81280000D03*
D12*
X118618000Y-101092000D03*
D16*
X118618000Y-96012000D03*
D12*
X131445000Y-52070000D03*
D16*
X131445000Y-57150000D03*
D17*
X133985000Y-90805000D03*
D18*
X136525000Y-90805000D03*
X135255000Y-90805000D03*
D19*
X135255000Y-121315000D03*
D20*
X135255000Y-132715000D03*
D19*
X135255000Y-129615000D03*
D21*
X114935000Y-114300000D03*
X114935000Y-116840000D03*
X117475000Y-114300000D03*
X117475000Y-116840000D03*
X120015000Y-114300000D03*
X120015000Y-116840000D03*
X122555000Y-114300000D03*
X122555000Y-116840000D03*
X125095000Y-114300000D03*
D22*
X125095000Y-116840000D03*
D19*
X117475000Y-121315000D03*
D20*
X117475000Y-132715000D03*
D19*
X117475000Y-129615000D03*
X126970000Y-54610000D03*
D23*
X115570000Y-54610000D03*
D19*
X118670000Y-54610000D03*
D24*
X135890000Y-56070000D03*
X135890000Y-54070000D03*
D25*
G36*
X136539505Y-51471204D02*
G01*
X136563773Y-51474804D01*
X136587572Y-51480765D01*
X136610671Y-51489030D01*
X136632850Y-51499520D01*
X136653893Y-51512132D01*
X136673599Y-51526747D01*
X136691777Y-51543223D01*
X136708253Y-51561401D01*
X136722868Y-51581107D01*
X136735480Y-51602150D01*
X136745970Y-51624329D01*
X136754235Y-51647428D01*
X136760196Y-51671227D01*
X136763796Y-51695495D01*
X136765000Y-51719999D01*
X136765000Y-52420001D01*
X136763796Y-52444505D01*
X136760196Y-52468773D01*
X136754235Y-52492572D01*
X136745970Y-52515671D01*
X136735480Y-52537850D01*
X136722868Y-52558893D01*
X136708253Y-52578599D01*
X136691777Y-52596777D01*
X136673599Y-52613253D01*
X136653893Y-52627868D01*
X136632850Y-52640480D01*
X136610671Y-52650970D01*
X136587572Y-52659235D01*
X136563773Y-52665196D01*
X136539505Y-52668796D01*
X136515001Y-52670000D01*
X135264999Y-52670000D01*
X135240495Y-52668796D01*
X135216227Y-52665196D01*
X135192428Y-52659235D01*
X135169329Y-52650970D01*
X135147150Y-52640480D01*
X135126107Y-52627868D01*
X135106401Y-52613253D01*
X135088223Y-52596777D01*
X135071747Y-52578599D01*
X135057132Y-52558893D01*
X135044520Y-52537850D01*
X135034030Y-52515671D01*
X135025765Y-52492572D01*
X135019804Y-52468773D01*
X135016204Y-52444505D01*
X135015000Y-52420001D01*
X135015000Y-51719999D01*
X135016204Y-51695495D01*
X135019804Y-51671227D01*
X135025765Y-51647428D01*
X135034030Y-51624329D01*
X135044520Y-51602150D01*
X135057132Y-51581107D01*
X135071747Y-51561401D01*
X135088223Y-51543223D01*
X135106401Y-51526747D01*
X135126107Y-51512132D01*
X135147150Y-51499520D01*
X135169329Y-51489030D01*
X135192428Y-51480765D01*
X135216227Y-51474804D01*
X135240495Y-51471204D01*
X135264999Y-51470000D01*
X136515001Y-51470000D01*
X136539505Y-51471204D01*
X136539505Y-51471204D01*
G37*
D26*
X135890000Y-52070000D03*
D15*
X125095000Y-126365000D03*
D27*
X127635000Y-126365000D03*
D12*
X139065000Y-98425000D03*
D13*
X131445000Y-98425000D03*
D12*
X121285000Y-98425000D03*
D13*
X128905000Y-98425000D03*
D12*
X118745000Y-85090000D03*
D13*
X118745000Y-77470000D03*
D16*
X134065000Y-113665000D03*
X139065000Y-113665000D03*
X119380000Y-104220000D03*
X119380000Y-109220000D03*
X138350000Y-94615000D03*
X133350000Y-94615000D03*
X115570000Y-80090000D03*
X115570000Y-85090000D03*
X133350000Y-81360000D03*
X133350000Y-86360000D03*
X118745000Y-92630000D03*
X118745000Y-87630000D03*
D28*
X114935000Y-90805000D03*
X137160000Y-96266000D03*
X137795000Y-106680000D03*
X117094000Y-83058000D03*
X132080000Y-103124000D03*
D29*
X114935000Y-114300000D02*
X114935000Y-116840000D01*
X114085001Y-113450001D02*
X114935000Y-114300000D01*
X113732990Y-113097990D02*
X114085001Y-113450001D01*
X113732990Y-92865915D02*
X113732990Y-113097990D01*
X114935000Y-91663905D02*
X113732990Y-92865915D01*
X114935000Y-90805000D02*
X114935000Y-91663905D01*
X119340000Y-63502792D02*
X119340000Y-62230000D01*
X119870001Y-64032793D02*
X119340000Y-63502792D01*
X119870001Y-83964999D02*
X119870001Y-64032793D01*
X118745000Y-85090000D02*
X119870001Y-83964999D01*
X130974999Y-88735001D02*
X130175000Y-89535000D01*
X131300001Y-88409999D02*
X130974999Y-88735001D01*
X131300001Y-81744997D02*
X131300001Y-88409999D01*
X133310000Y-79734998D02*
X131300001Y-81744997D01*
X133310000Y-62230000D02*
X133310000Y-79734998D01*
X132218630Y-94615000D02*
X133350000Y-94615000D01*
X128905000Y-97928630D02*
X132218630Y-94615000D01*
X128905000Y-98425000D02*
X128905000Y-97928630D01*
X133350000Y-92710000D02*
X133350000Y-94615000D01*
X130175000Y-89535000D02*
X133350000Y-92710000D01*
X118745000Y-76420000D02*
X118745000Y-77470000D01*
X118745000Y-65407792D02*
X118745000Y-76420000D01*
X116840000Y-63502792D02*
X118745000Y-65407792D01*
X116840000Y-62230000D02*
X116840000Y-63502792D01*
X123354999Y-81115001D02*
X122555000Y-81915000D01*
X131235001Y-73234999D02*
X123354999Y-81115001D01*
X131235001Y-68113999D02*
X131235001Y-73234999D01*
X130810000Y-67688998D02*
X131235001Y-68113999D01*
X130810000Y-62230000D02*
X130810000Y-67688998D01*
X121755001Y-91275001D02*
X122555000Y-92075000D01*
X121429999Y-90949999D02*
X121755001Y-91275001D01*
X121429999Y-83040001D02*
X121429999Y-90949999D01*
X122555000Y-81915000D02*
X121429999Y-83040001D01*
X122555000Y-92075000D02*
X122555000Y-94615000D01*
X121285000Y-95885000D02*
X121285000Y-98425000D01*
X122555000Y-94615000D02*
X121285000Y-95885000D01*
X130175000Y-92075000D02*
X130175000Y-94615000D01*
X136525000Y-86360000D02*
X136525000Y-90805000D01*
X135890000Y-56920000D02*
X135890000Y-56070000D01*
X134584999Y-58225001D02*
X135890000Y-56920000D01*
X134584999Y-69546001D02*
X134584999Y-58225001D01*
X137650001Y-72611003D02*
X134584999Y-69546001D01*
X137650001Y-93649997D02*
X137650001Y-72611003D01*
X137160000Y-94139998D02*
X137650001Y-93649997D01*
X137160000Y-96266000D02*
X137160000Y-94139998D01*
X129069999Y-100800001D02*
X131445000Y-98425000D01*
X128270000Y-101600000D02*
X129069999Y-100800001D01*
X125994999Y-125465001D02*
X125095000Y-126365000D01*
X132570001Y-118889999D02*
X125994999Y-125465001D01*
X132570001Y-113494997D02*
X132570001Y-118889999D01*
X133350000Y-112714998D02*
X132570001Y-113494997D01*
X133350000Y-109220000D02*
X133350000Y-112714998D01*
X133985000Y-118606370D02*
X133985000Y-117475000D01*
X133985000Y-118865000D02*
X133985000Y-118606370D01*
X127635000Y-125215000D02*
X133985000Y-118865000D01*
X127635000Y-126365000D02*
X127635000Y-125215000D01*
X123354999Y-83655001D02*
X122555000Y-84455000D01*
X132035001Y-74974999D02*
X123354999Y-83655001D01*
X132035001Y-58871371D02*
X132035001Y-74974999D01*
X131445000Y-58281370D02*
X132035001Y-58871371D01*
X131445000Y-57150000D02*
X131445000Y-58281370D01*
X134525000Y-54070000D02*
X135890000Y-54070000D01*
X131445000Y-57150000D02*
X134525000Y-54070000D01*
X140190001Y-56370001D02*
X140190001Y-104284999D01*
X135890000Y-52070000D02*
X140190001Y-56370001D01*
X140190001Y-104284999D02*
X137795000Y-106680000D01*
X137795000Y-106680000D02*
X137795000Y-106680000D01*
X130175000Y-79375000D02*
X130175000Y-81915000D01*
X125730000Y-101600000D02*
X125730000Y-109220000D01*
X115385085Y-99656010D02*
X117094000Y-97947095D01*
X117094000Y-97947095D02*
X117094000Y-83623685D01*
X114808000Y-100076000D02*
X115227990Y-99656010D01*
X117094000Y-83623685D02*
X117094000Y-83058000D01*
X115227990Y-99656010D02*
X115385085Y-99656010D01*
X132080000Y-110998000D02*
X130048000Y-113030000D01*
X132080000Y-103124000D02*
X132080000Y-110998000D01*
D30*
G36*
X140185000Y-55290198D02*
G01*
X137395158Y-52500356D01*
X137403072Y-52420001D01*
X137403072Y-51719999D01*
X137386008Y-51546745D01*
X137335472Y-51380149D01*
X137253405Y-51226613D01*
X137142962Y-51092038D01*
X137008387Y-50981595D01*
X136854851Y-50899528D01*
X136688255Y-50848992D01*
X136515001Y-50831928D01*
X135264999Y-50831928D01*
X135091745Y-50848992D01*
X134925149Y-50899528D01*
X134771613Y-50981595D01*
X134637038Y-51092038D01*
X134526595Y-51226613D01*
X134444528Y-51380149D01*
X134393992Y-51546745D01*
X134376928Y-51719999D01*
X134376928Y-52420001D01*
X134393992Y-52593255D01*
X134444528Y-52759851D01*
X134526595Y-52913387D01*
X134637038Y-53047962D01*
X134771613Y-53158405D01*
X134776111Y-53160809D01*
X134737498Y-53192498D01*
X134641067Y-53310000D01*
X134562325Y-53310000D01*
X134525000Y-53306324D01*
X134487675Y-53310000D01*
X134487667Y-53310000D01*
X134376014Y-53320997D01*
X134232753Y-53364454D01*
X134100724Y-53435026D01*
X133984999Y-53529999D01*
X133961201Y-53558997D01*
X131768886Y-55751312D01*
X131586335Y-55715000D01*
X131303665Y-55715000D01*
X131026426Y-55770147D01*
X130765273Y-55878320D01*
X130530241Y-56035363D01*
X130330363Y-56235241D01*
X130173320Y-56470273D01*
X130065147Y-56731426D01*
X130010000Y-57008665D01*
X130010000Y-57291335D01*
X130065147Y-57568574D01*
X130173320Y-57829727D01*
X130330363Y-58064759D01*
X130530241Y-58264637D01*
X130690203Y-58371520D01*
X130695998Y-58430356D01*
X130701076Y-58447095D01*
X130739454Y-58573616D01*
X130810026Y-58705646D01*
X130858739Y-58765002D01*
X130905000Y-58821371D01*
X130933997Y-58845168D01*
X131275001Y-59186173D01*
X131275001Y-60761138D01*
X131257743Y-60753989D01*
X130961184Y-60695000D01*
X130658816Y-60695000D01*
X130362257Y-60753989D01*
X130082905Y-60869701D01*
X129831495Y-61037688D01*
X129617688Y-61251495D01*
X129449701Y-61502905D01*
X129333989Y-61782257D01*
X129275000Y-62078816D01*
X129275000Y-62381184D01*
X129333989Y-62677743D01*
X129449701Y-62957095D01*
X129617688Y-63208505D01*
X129831495Y-63422312D01*
X130050000Y-63568313D01*
X130050001Y-66850100D01*
X129678601Y-66696261D01*
X129169525Y-66595000D01*
X128650475Y-66595000D01*
X128141399Y-66696261D01*
X127661859Y-66894893D01*
X127230285Y-67183262D01*
X126863262Y-67550285D01*
X126574893Y-67981859D01*
X126376261Y-68461399D01*
X126325000Y-68719107D01*
X126273739Y-68461399D01*
X126075107Y-67981859D01*
X125786738Y-67550285D01*
X125419715Y-67183262D01*
X124988141Y-66894893D01*
X124508601Y-66696261D01*
X123999525Y-66595000D01*
X123480475Y-66595000D01*
X122971399Y-66696261D01*
X122491859Y-66894893D01*
X122060285Y-67183262D01*
X121693262Y-67550285D01*
X121404893Y-67981859D01*
X121206261Y-68461399D01*
X121105000Y-68970475D01*
X121105000Y-69489525D01*
X121206261Y-69998601D01*
X121404893Y-70478141D01*
X121693262Y-70909715D01*
X122060285Y-71276738D01*
X122491859Y-71565107D01*
X122971399Y-71763739D01*
X123480475Y-71865000D01*
X123999525Y-71865000D01*
X124508601Y-71763739D01*
X124988141Y-71565107D01*
X125419715Y-71276738D01*
X125786738Y-70909715D01*
X126075107Y-70478141D01*
X126273739Y-69998601D01*
X126325000Y-69740893D01*
X126376261Y-69998601D01*
X126574893Y-70478141D01*
X126863262Y-70909715D01*
X127230285Y-71276738D01*
X127661859Y-71565107D01*
X128141399Y-71763739D01*
X128650475Y-71865000D01*
X129169525Y-71865000D01*
X129678601Y-71763739D01*
X130158141Y-71565107D01*
X130475002Y-71353387D01*
X130475002Y-72920196D01*
X123993072Y-79402127D01*
X123993072Y-78575000D01*
X123980812Y-78450518D01*
X123944502Y-78330820D01*
X123885537Y-78220506D01*
X123806185Y-78123815D01*
X123709494Y-78044463D01*
X123599180Y-77985498D01*
X123479482Y-77949188D01*
X123355000Y-77936928D01*
X121755000Y-77936928D01*
X121630518Y-77949188D01*
X121510820Y-77985498D01*
X121400506Y-78044463D01*
X121303815Y-78123815D01*
X121224463Y-78220506D01*
X121165498Y-78330820D01*
X121129188Y-78450518D01*
X121116928Y-78575000D01*
X121116928Y-80175000D01*
X121129188Y-80299482D01*
X121165498Y-80419180D01*
X121224463Y-80529494D01*
X121303815Y-80626185D01*
X121400506Y-80705537D01*
X121510820Y-80764502D01*
X121630518Y-80800812D01*
X121648482Y-80802581D01*
X121535392Y-80895392D01*
X121356068Y-81113899D01*
X121222818Y-81363192D01*
X121140764Y-81633691D01*
X121113057Y-81915000D01*
X121140764Y-82196309D01*
X121154292Y-82240906D01*
X120919001Y-82476197D01*
X120889998Y-82500000D01*
X120848986Y-82549974D01*
X120795025Y-82615725D01*
X120769220Y-82664003D01*
X120724453Y-82747755D01*
X120680996Y-82891016D01*
X120669999Y-83002669D01*
X120669999Y-83002679D01*
X120666323Y-83040001D01*
X120669999Y-83077323D01*
X120670000Y-90912667D01*
X120666323Y-90949999D01*
X120670000Y-90987332D01*
X120680997Y-91098985D01*
X120688556Y-91123904D01*
X120724453Y-91242245D01*
X120795025Y-91374275D01*
X120848986Y-91440026D01*
X120889999Y-91490000D01*
X120918997Y-91513798D01*
X121154292Y-91749093D01*
X121140764Y-91793691D01*
X121113057Y-92075000D01*
X121140764Y-92356309D01*
X121222818Y-92626808D01*
X121356068Y-92876101D01*
X121535392Y-93094608D01*
X121753899Y-93273932D01*
X121795000Y-93295901D01*
X121795001Y-93394099D01*
X121753899Y-93416068D01*
X121535392Y-93595392D01*
X121356068Y-93813899D01*
X121222818Y-94063192D01*
X121140764Y-94333691D01*
X121113057Y-94615000D01*
X121140764Y-94896309D01*
X121154292Y-94940906D01*
X120774003Y-95321196D01*
X120744999Y-95344999D01*
X120689871Y-95412174D01*
X120650026Y-95460724D01*
X120579455Y-95592753D01*
X120579454Y-95592754D01*
X120535997Y-95736015D01*
X120525000Y-95847668D01*
X120525000Y-95847678D01*
X120521324Y-95885000D01*
X120525000Y-95922323D01*
X120525001Y-97204099D01*
X120483899Y-97226068D01*
X120265392Y-97405392D01*
X120086068Y-97623899D01*
X119952818Y-97873192D01*
X119870764Y-98143691D01*
X119843057Y-98425000D01*
X119870764Y-98706309D01*
X119952818Y-98976808D01*
X120086068Y-99226101D01*
X120265392Y-99444608D01*
X120483899Y-99623932D01*
X120733192Y-99757182D01*
X121003691Y-99839236D01*
X121214508Y-99860000D01*
X121355492Y-99860000D01*
X121566309Y-99839236D01*
X121836808Y-99757182D01*
X122086101Y-99623932D01*
X122304608Y-99444608D01*
X122483932Y-99226101D01*
X122617182Y-98976808D01*
X122699236Y-98706309D01*
X122726943Y-98425000D01*
X122699236Y-98143691D01*
X122617182Y-97873192D01*
X122483932Y-97623899D01*
X122304608Y-97405392D01*
X122086101Y-97226068D01*
X122045000Y-97204099D01*
X122045000Y-96199801D01*
X122229094Y-96015708D01*
X122273691Y-96029236D01*
X122484508Y-96050000D01*
X122625492Y-96050000D01*
X122836309Y-96029236D01*
X123106808Y-95947182D01*
X123356101Y-95813932D01*
X123574608Y-95634608D01*
X123753932Y-95416101D01*
X123887182Y-95166808D01*
X123969236Y-94896309D01*
X123996943Y-94615000D01*
X123969236Y-94333691D01*
X123887182Y-94063192D01*
X123753932Y-93813899D01*
X123574608Y-93595392D01*
X123356101Y-93416068D01*
X123315000Y-93394099D01*
X123315000Y-93295901D01*
X123356101Y-93273932D01*
X123574608Y-93094608D01*
X123753932Y-92876101D01*
X123887182Y-92626808D01*
X123969236Y-92356309D01*
X123996943Y-92075000D01*
X123969236Y-91793691D01*
X123887182Y-91523192D01*
X123753932Y-91273899D01*
X123574608Y-91055392D01*
X123356101Y-90876068D01*
X123223142Y-90805000D01*
X123356101Y-90733932D01*
X123574608Y-90554608D01*
X123753932Y-90336101D01*
X123887182Y-90086808D01*
X123969236Y-89816309D01*
X123996943Y-89535000D01*
X123969236Y-89253691D01*
X123887182Y-88983192D01*
X123753932Y-88733899D01*
X123574608Y-88515392D01*
X123356101Y-88336068D01*
X123223142Y-88265000D01*
X123356101Y-88193932D01*
X123574608Y-88014608D01*
X123753932Y-87796101D01*
X123887182Y-87546808D01*
X123969236Y-87276309D01*
X123996943Y-86995000D01*
X123969236Y-86713691D01*
X123887182Y-86443192D01*
X123753932Y-86193899D01*
X123574608Y-85975392D01*
X123356101Y-85796068D01*
X123223142Y-85725000D01*
X123356101Y-85653932D01*
X123574608Y-85474608D01*
X123753932Y-85256101D01*
X123887182Y-85006808D01*
X123969236Y-84736309D01*
X123996943Y-84455000D01*
X123969236Y-84173691D01*
X123955708Y-84129093D01*
X128735598Y-79349204D01*
X128733057Y-79375000D01*
X128760764Y-79656309D01*
X128842818Y-79926808D01*
X128976068Y-80176101D01*
X129155392Y-80394608D01*
X129373899Y-80573932D01*
X129415000Y-80595901D01*
X129415001Y-80694099D01*
X129373899Y-80716068D01*
X129155392Y-80895392D01*
X128976068Y-81113899D01*
X128842818Y-81363192D01*
X128760764Y-81633691D01*
X128733057Y-81915000D01*
X128760764Y-82196309D01*
X128842818Y-82466808D01*
X128976068Y-82716101D01*
X129155392Y-82934608D01*
X129373899Y-83113932D01*
X129506858Y-83185000D01*
X129373899Y-83256068D01*
X129155392Y-83435392D01*
X128976068Y-83653899D01*
X128842818Y-83903192D01*
X128760764Y-84173691D01*
X128733057Y-84455000D01*
X128760764Y-84736309D01*
X128842818Y-85006808D01*
X128976068Y-85256101D01*
X129155392Y-85474608D01*
X129373899Y-85653932D01*
X129506858Y-85725000D01*
X129373899Y-85796068D01*
X129155392Y-85975392D01*
X128976068Y-86193899D01*
X128842818Y-86443192D01*
X128760764Y-86713691D01*
X128733057Y-86995000D01*
X128760764Y-87276309D01*
X128842818Y-87546808D01*
X128976068Y-87796101D01*
X129155392Y-88014608D01*
X129373899Y-88193932D01*
X129506858Y-88265000D01*
X129373899Y-88336068D01*
X129155392Y-88515392D01*
X128976068Y-88733899D01*
X128842818Y-88983192D01*
X128760764Y-89253691D01*
X128733057Y-89535000D01*
X128760764Y-89816309D01*
X128842818Y-90086808D01*
X128976068Y-90336101D01*
X129155392Y-90554608D01*
X129373899Y-90733932D01*
X129506858Y-90805000D01*
X129373899Y-90876068D01*
X129155392Y-91055392D01*
X128976068Y-91273899D01*
X128842818Y-91523192D01*
X128760764Y-91793691D01*
X128733057Y-92075000D01*
X128760764Y-92356309D01*
X128842818Y-92626808D01*
X128976068Y-92876101D01*
X129155392Y-93094608D01*
X129373899Y-93273932D01*
X129415000Y-93295901D01*
X129415001Y-93394099D01*
X129373899Y-93416068D01*
X129155392Y-93595392D01*
X128976068Y-93813899D01*
X128842818Y-94063192D01*
X128760764Y-94333691D01*
X128733057Y-94615000D01*
X128760764Y-94896309D01*
X128842818Y-95166808D01*
X128976068Y-95416101D01*
X129155392Y-95634608D01*
X129373899Y-95813932D01*
X129623192Y-95947182D01*
X129767785Y-95991043D01*
X128771901Y-96986928D01*
X128105000Y-96986928D01*
X127980518Y-96999188D01*
X127860820Y-97035498D01*
X127750506Y-97094463D01*
X127653815Y-97173815D01*
X127574463Y-97270506D01*
X127515498Y-97380820D01*
X127479188Y-97500518D01*
X127466928Y-97625000D01*
X127466928Y-99225000D01*
X127479188Y-99349482D01*
X127515498Y-99469180D01*
X127574463Y-99579494D01*
X127653815Y-99676185D01*
X127750506Y-99755537D01*
X127860820Y-99814502D01*
X127980518Y-99850812D01*
X128105000Y-99863072D01*
X128932127Y-99863072D01*
X128595907Y-100199292D01*
X128551309Y-100185764D01*
X128340492Y-100165000D01*
X128199508Y-100165000D01*
X127988691Y-100185764D01*
X127718192Y-100267818D01*
X127468899Y-100401068D01*
X127250392Y-100580392D01*
X127071068Y-100798899D01*
X127000000Y-100931858D01*
X126928932Y-100798899D01*
X126749608Y-100580392D01*
X126531101Y-100401068D01*
X126281808Y-100267818D01*
X126011309Y-100185764D01*
X125800492Y-100165000D01*
X125659508Y-100165000D01*
X125448691Y-100185764D01*
X125178192Y-100267818D01*
X124928899Y-100401068D01*
X124710392Y-100580392D01*
X124531068Y-100798899D01*
X124457421Y-100936682D01*
X124342385Y-100744869D01*
X124153414Y-100536481D01*
X123927420Y-100368963D01*
X123673087Y-100248754D01*
X123539039Y-100208096D01*
X123317000Y-100330085D01*
X123317000Y-101473000D01*
X123337000Y-101473000D01*
X123337000Y-101727000D01*
X123317000Y-101727000D01*
X123317000Y-102869915D01*
X123539039Y-102991904D01*
X123673087Y-102951246D01*
X123927420Y-102831037D01*
X124153414Y-102663519D01*
X124342385Y-102455131D01*
X124457421Y-102263318D01*
X124531068Y-102401101D01*
X124710392Y-102619608D01*
X124928899Y-102798932D01*
X124970000Y-102820901D01*
X124970001Y-107999099D01*
X124928899Y-108021068D01*
X124710392Y-108200392D01*
X124531068Y-108418899D01*
X124460000Y-108551858D01*
X124388932Y-108418899D01*
X124209608Y-108200392D01*
X123991101Y-108021068D01*
X123741808Y-107887818D01*
X123471309Y-107805764D01*
X123260492Y-107785000D01*
X123119508Y-107785000D01*
X122908691Y-107805764D01*
X122638192Y-107887818D01*
X122388899Y-108021068D01*
X122170392Y-108200392D01*
X121991068Y-108418899D01*
X121857818Y-108668192D01*
X121775764Y-108938691D01*
X121748057Y-109220000D01*
X121775764Y-109501309D01*
X121857818Y-109771808D01*
X121991068Y-110021101D01*
X122170392Y-110239608D01*
X122388899Y-110418932D01*
X122638192Y-110552182D01*
X122908691Y-110634236D01*
X123119508Y-110655000D01*
X123260492Y-110655000D01*
X123471309Y-110634236D01*
X123741808Y-110552182D01*
X123991101Y-110418932D01*
X124209608Y-110239608D01*
X124388932Y-110021101D01*
X124460000Y-109888142D01*
X124531068Y-110021101D01*
X124710392Y-110239608D01*
X124928899Y-110418932D01*
X125178192Y-110552182D01*
X125448691Y-110634236D01*
X125659508Y-110655000D01*
X125800492Y-110655000D01*
X126011309Y-110634236D01*
X126281808Y-110552182D01*
X126531101Y-110418932D01*
X126749608Y-110239608D01*
X126928932Y-110021101D01*
X127000000Y-109888142D01*
X127071068Y-110021101D01*
X127250392Y-110239608D01*
X127468899Y-110418932D01*
X127718192Y-110552182D01*
X127988691Y-110634236D01*
X128199508Y-110655000D01*
X128340492Y-110655000D01*
X128551309Y-110634236D01*
X128821808Y-110552182D01*
X129071101Y-110418932D01*
X129289608Y-110239608D01*
X129468932Y-110021101D01*
X129540000Y-109888142D01*
X129611068Y-110021101D01*
X129790392Y-110239608D01*
X130008899Y-110418932D01*
X130258192Y-110552182D01*
X130528691Y-110634236D01*
X130739508Y-110655000D01*
X130880492Y-110655000D01*
X131091309Y-110634236D01*
X131320001Y-110564864D01*
X131320001Y-110683197D01*
X130373906Y-111629292D01*
X130329309Y-111615764D01*
X130118492Y-111595000D01*
X129977508Y-111595000D01*
X129766691Y-111615764D01*
X129496192Y-111697818D01*
X129246899Y-111831068D01*
X129028392Y-112010392D01*
X128849068Y-112228899D01*
X128715818Y-112478192D01*
X128633764Y-112748691D01*
X128606057Y-113030000D01*
X128633764Y-113311309D01*
X128715818Y-113581808D01*
X128849068Y-113831101D01*
X129028392Y-114049608D01*
X129246899Y-114228932D01*
X129496192Y-114362182D01*
X129766691Y-114444236D01*
X129977508Y-114465000D01*
X130118492Y-114465000D01*
X130329309Y-114444236D01*
X130599808Y-114362182D01*
X130849101Y-114228932D01*
X131067608Y-114049608D01*
X131246932Y-113831101D01*
X131380182Y-113581808D01*
X131462236Y-113311309D01*
X131489943Y-113030000D01*
X131462236Y-112748691D01*
X131448708Y-112704094D01*
X132590001Y-111562801D01*
X132590001Y-112400195D01*
X132059003Y-112931194D01*
X132030000Y-112954996D01*
X132005153Y-112985273D01*
X131935027Y-113070721D01*
X131898384Y-113139275D01*
X131864455Y-113202751D01*
X131820998Y-113346012D01*
X131810001Y-113457665D01*
X131810001Y-113457675D01*
X131806325Y-113494997D01*
X131810001Y-113532320D01*
X131810002Y-118575196D01*
X125503930Y-124881269D01*
X125246184Y-124830000D01*
X124943816Y-124830000D01*
X124647257Y-124888989D01*
X124367905Y-125004701D01*
X124116495Y-125172688D01*
X123902688Y-125386495D01*
X123734701Y-125637905D01*
X123618989Y-125917257D01*
X123560000Y-126213816D01*
X123560000Y-126516184D01*
X123618989Y-126812743D01*
X123734701Y-127092095D01*
X123902688Y-127343505D01*
X124116495Y-127557312D01*
X124367905Y-127725299D01*
X124647257Y-127841011D01*
X124943816Y-127900000D01*
X125246184Y-127900000D01*
X125542743Y-127841011D01*
X125822095Y-127725299D01*
X126073505Y-127557312D01*
X126139944Y-127490873D01*
X126145498Y-127509180D01*
X126204463Y-127619494D01*
X126283815Y-127716185D01*
X126380506Y-127795537D01*
X126490820Y-127854502D01*
X126610518Y-127890812D01*
X126735000Y-127903072D01*
X128535000Y-127903072D01*
X128659482Y-127890812D01*
X128779180Y-127854502D01*
X128889494Y-127795537D01*
X128986185Y-127716185D01*
X129065537Y-127619494D01*
X129124502Y-127509180D01*
X129160812Y-127389482D01*
X129173072Y-127265000D01*
X129173072Y-125465000D01*
X129160812Y-125340518D01*
X129124502Y-125220820D01*
X129065537Y-125110506D01*
X128986185Y-125013815D01*
X128944882Y-124979919D01*
X132777236Y-121147565D01*
X133555000Y-121147565D01*
X133555000Y-121482435D01*
X133620330Y-121810872D01*
X133748479Y-122120252D01*
X133934523Y-122398687D01*
X134171313Y-122635477D01*
X134449748Y-122821521D01*
X134759128Y-122949670D01*
X135087565Y-123015000D01*
X135422435Y-123015000D01*
X135750872Y-122949670D01*
X136060252Y-122821521D01*
X136338687Y-122635477D01*
X136575477Y-122398687D01*
X136761521Y-122120252D01*
X136889670Y-121810872D01*
X136955000Y-121482435D01*
X136955000Y-121147565D01*
X136889670Y-120819128D01*
X136761521Y-120509748D01*
X136575477Y-120231313D01*
X136338687Y-119994523D01*
X136060252Y-119808479D01*
X135750872Y-119680330D01*
X135422435Y-119615000D01*
X135087565Y-119615000D01*
X134759128Y-119680330D01*
X134449748Y-119808479D01*
X134171313Y-119994523D01*
X133934523Y-120231313D01*
X133748479Y-120509748D01*
X133620330Y-120819128D01*
X133555000Y-121147565D01*
X132777236Y-121147565D01*
X134496004Y-119428798D01*
X134525001Y-119405001D01*
X134565730Y-119355373D01*
X134619974Y-119289277D01*
X134690546Y-119157247D01*
X134693845Y-119146371D01*
X134734003Y-119013986D01*
X134745000Y-118902333D01*
X134745000Y-118902324D01*
X134748676Y-118865001D01*
X134745000Y-118827678D01*
X134745000Y-118695901D01*
X134786101Y-118673932D01*
X135004608Y-118494608D01*
X135026689Y-118467702D01*
X138251903Y-118467702D01*
X138323486Y-118711671D01*
X138578996Y-118832571D01*
X138853184Y-118901300D01*
X139135512Y-118915217D01*
X139415130Y-118873787D01*
X139681292Y-118778603D01*
X139806514Y-118711671D01*
X139878097Y-118467702D01*
X139065000Y-117654605D01*
X138251903Y-118467702D01*
X135026689Y-118467702D01*
X135183932Y-118276101D01*
X135317182Y-118026808D01*
X135399236Y-117756309D01*
X135419998Y-117545512D01*
X137624783Y-117545512D01*
X137666213Y-117825130D01*
X137761397Y-118091292D01*
X137828329Y-118216514D01*
X138072298Y-118288097D01*
X138885395Y-117475000D01*
X138072298Y-116661903D01*
X137828329Y-116733486D01*
X137707429Y-116988996D01*
X137638700Y-117263184D01*
X137624783Y-117545512D01*
X135419998Y-117545512D01*
X135426943Y-117475000D01*
X135399236Y-117193691D01*
X135317182Y-116923192D01*
X135183932Y-116673899D01*
X135026690Y-116482298D01*
X138251903Y-116482298D01*
X139065000Y-117295395D01*
X139878097Y-116482298D01*
X139806514Y-116238329D01*
X139551004Y-116117429D01*
X139276816Y-116048700D01*
X138994488Y-116034783D01*
X138714870Y-116076213D01*
X138448708Y-116171397D01*
X138323486Y-116238329D01*
X138251903Y-116482298D01*
X135026690Y-116482298D01*
X135004608Y-116455392D01*
X134786101Y-116276068D01*
X134536808Y-116142818D01*
X134266309Y-116060764D01*
X134055492Y-116040000D01*
X133914508Y-116040000D01*
X133703691Y-116060764D01*
X133433192Y-116142818D01*
X133330001Y-116197975D01*
X133330001Y-114904754D01*
X133578996Y-115022571D01*
X133853184Y-115091300D01*
X134135512Y-115105217D01*
X134415130Y-115063787D01*
X134681292Y-114968603D01*
X134806514Y-114901671D01*
X134878097Y-114657702D01*
X134065000Y-113844605D01*
X134050858Y-113858748D01*
X133871253Y-113679143D01*
X133885395Y-113665000D01*
X134244605Y-113665000D01*
X135057702Y-114478097D01*
X135301671Y-114406514D01*
X135422571Y-114151004D01*
X135491300Y-113876816D01*
X135505217Y-113594488D01*
X135463787Y-113314870D01*
X135368603Y-113048708D01*
X135301671Y-112923486D01*
X135057702Y-112851903D01*
X134244605Y-113665000D01*
X133885395Y-113665000D01*
X133871253Y-113650858D01*
X134050858Y-113471253D01*
X134065000Y-113485395D01*
X134878097Y-112672298D01*
X134806514Y-112428329D01*
X134551004Y-112307429D01*
X134276816Y-112238700D01*
X134110000Y-112230477D01*
X134110000Y-110440901D01*
X134151101Y-110418932D01*
X134369608Y-110239608D01*
X134548932Y-110021101D01*
X134620000Y-109888142D01*
X134691068Y-110021101D01*
X134870392Y-110239608D01*
X135088899Y-110418932D01*
X135338192Y-110552182D01*
X135608691Y-110634236D01*
X135819508Y-110655000D01*
X135960492Y-110655000D01*
X136171309Y-110634236D01*
X136441808Y-110552182D01*
X136691101Y-110418932D01*
X136909608Y-110239608D01*
X137088932Y-110021101D01*
X137160000Y-109888142D01*
X137231068Y-110021101D01*
X137410392Y-110239608D01*
X137628899Y-110418932D01*
X137878192Y-110552182D01*
X138148691Y-110634236D01*
X138359508Y-110655000D01*
X138500492Y-110655000D01*
X138711309Y-110634236D01*
X138981808Y-110552182D01*
X139231101Y-110418932D01*
X139449608Y-110239608D01*
X139628932Y-110021101D01*
X139762182Y-109771808D01*
X139844236Y-109501309D01*
X139871943Y-109220000D01*
X139844236Y-108938691D01*
X139762182Y-108668192D01*
X139628932Y-108418899D01*
X139449608Y-108200392D01*
X139231101Y-108021068D01*
X138981808Y-107887818D01*
X138711309Y-107805764D01*
X138500492Y-107785000D01*
X138359508Y-107785000D01*
X138148691Y-107805764D01*
X137878192Y-107887818D01*
X137628899Y-108021068D01*
X137410392Y-108200392D01*
X137231068Y-108418899D01*
X137160000Y-108551858D01*
X137088932Y-108418899D01*
X136909608Y-108200392D01*
X136691101Y-108021068D01*
X136441808Y-107887818D01*
X136171309Y-107805764D01*
X135960492Y-107785000D01*
X135819508Y-107785000D01*
X135608691Y-107805764D01*
X135338192Y-107887818D01*
X135088899Y-108021068D01*
X134870392Y-108200392D01*
X134691068Y-108418899D01*
X134620000Y-108551858D01*
X134548932Y-108418899D01*
X134369608Y-108200392D01*
X134151101Y-108021068D01*
X133901808Y-107887818D01*
X133631309Y-107805764D01*
X133420492Y-107785000D01*
X133279508Y-107785000D01*
X133068691Y-107805764D01*
X132840000Y-107875136D01*
X132840000Y-103827711D01*
X132883937Y-103783774D01*
X132997205Y-103614256D01*
X133075226Y-103425898D01*
X133115000Y-103225939D01*
X133115000Y-103022061D01*
X133114338Y-103018732D01*
X133279508Y-103035000D01*
X133420492Y-103035000D01*
X133631309Y-103014236D01*
X133901808Y-102932182D01*
X134151101Y-102798932D01*
X134369608Y-102619608D01*
X134548932Y-102401101D01*
X134620000Y-102268142D01*
X134691068Y-102401101D01*
X134870392Y-102619608D01*
X135088899Y-102798932D01*
X135338192Y-102932182D01*
X135608691Y-103014236D01*
X135819508Y-103035000D01*
X135960492Y-103035000D01*
X136171309Y-103014236D01*
X136441808Y-102932182D01*
X136691101Y-102798932D01*
X136909608Y-102619608D01*
X137002419Y-102506518D01*
X137004188Y-102524482D01*
X137040498Y-102644180D01*
X137099463Y-102754494D01*
X137178815Y-102851185D01*
X137275506Y-102930537D01*
X137385820Y-102989502D01*
X137505518Y-103025812D01*
X137630000Y-103038072D01*
X139230000Y-103038072D01*
X139354482Y-103025812D01*
X139430002Y-103002903D01*
X139430002Y-103970196D01*
X137755199Y-105645000D01*
X137693061Y-105645000D01*
X137493102Y-105684774D01*
X137304744Y-105762795D01*
X137135226Y-105876063D01*
X136991063Y-106020226D01*
X136877795Y-106189744D01*
X136799774Y-106378102D01*
X136760000Y-106578061D01*
X136760000Y-106781939D01*
X136799774Y-106981898D01*
X136877795Y-107170256D01*
X136991063Y-107339774D01*
X137135226Y-107483937D01*
X137304744Y-107597205D01*
X137493102Y-107675226D01*
X137693061Y-107715000D01*
X137896939Y-107715000D01*
X138096898Y-107675226D01*
X138285256Y-107597205D01*
X138454774Y-107483937D01*
X138598937Y-107339774D01*
X138712205Y-107170256D01*
X138790226Y-106981898D01*
X138830000Y-106781939D01*
X138830000Y-106719801D01*
X140185001Y-105364801D01*
X140185001Y-112758268D01*
X140179637Y-112750241D01*
X139979759Y-112550363D01*
X139744727Y-112393320D01*
X139483574Y-112285147D01*
X139206335Y-112230000D01*
X138923665Y-112230000D01*
X138646426Y-112285147D01*
X138385273Y-112393320D01*
X138150241Y-112550363D01*
X137950363Y-112750241D01*
X137793320Y-112985273D01*
X137685147Y-113246426D01*
X137630000Y-113523665D01*
X137630000Y-113806335D01*
X137685147Y-114083574D01*
X137793320Y-114344727D01*
X137950363Y-114579759D01*
X138150241Y-114779637D01*
X138385273Y-114936680D01*
X138646426Y-115044853D01*
X138923665Y-115100000D01*
X139206335Y-115100000D01*
X139483574Y-115044853D01*
X139744727Y-114936680D01*
X139979759Y-114779637D01*
X140179637Y-114579759D01*
X140185001Y-114571732D01*
X140185001Y-116699254D01*
X140057702Y-116661903D01*
X139244605Y-117475000D01*
X140057702Y-118288097D01*
X140185001Y-118250746D01*
X140185001Y-133835000D01*
X136821387Y-133835000D01*
X136845812Y-133754482D01*
X136858072Y-133630000D01*
X136855000Y-133000750D01*
X136696250Y-132842000D01*
X135382000Y-132842000D01*
X135382000Y-132862000D01*
X135128000Y-132862000D01*
X135128000Y-132842000D01*
X133813750Y-132842000D01*
X133655000Y-133000750D01*
X133651928Y-133630000D01*
X133664188Y-133754482D01*
X133688613Y-133835000D01*
X119041387Y-133835000D01*
X119065812Y-133754482D01*
X119078072Y-133630000D01*
X119075000Y-133000750D01*
X118916250Y-132842000D01*
X117602000Y-132842000D01*
X117602000Y-132862000D01*
X117348000Y-132862000D01*
X117348000Y-132842000D01*
X116033750Y-132842000D01*
X115875000Y-133000750D01*
X115871928Y-133630000D01*
X115884188Y-133754482D01*
X115908613Y-133835000D01*
X112545000Y-133835000D01*
X112545000Y-130926413D01*
X112556119Y-129447565D01*
X115775000Y-129447565D01*
X115775000Y-129782435D01*
X115840330Y-130110872D01*
X115968479Y-130420252D01*
X116154523Y-130698687D01*
X116391313Y-130935477D01*
X116669748Y-131121521D01*
X116770140Y-131163105D01*
X116510000Y-131161928D01*
X116385518Y-131174188D01*
X116265820Y-131210498D01*
X116155506Y-131269463D01*
X116058815Y-131348815D01*
X115979463Y-131445506D01*
X115920498Y-131555820D01*
X115884188Y-131675518D01*
X115871928Y-131800000D01*
X115875000Y-132429250D01*
X116033750Y-132588000D01*
X117348000Y-132588000D01*
X117348000Y-132568000D01*
X117602000Y-132568000D01*
X117602000Y-132588000D01*
X118916250Y-132588000D01*
X119075000Y-132429250D01*
X119078072Y-131800000D01*
X119065812Y-131675518D01*
X119029502Y-131555820D01*
X118970537Y-131445506D01*
X118891185Y-131348815D01*
X118794494Y-131269463D01*
X118684180Y-131210498D01*
X118564482Y-131174188D01*
X118440000Y-131161928D01*
X118179860Y-131163105D01*
X118280252Y-131121521D01*
X118558687Y-130935477D01*
X118795477Y-130698687D01*
X118981521Y-130420252D01*
X119109670Y-130110872D01*
X119175000Y-129782435D01*
X119175000Y-129447565D01*
X133555000Y-129447565D01*
X133555000Y-129782435D01*
X133620330Y-130110872D01*
X133748479Y-130420252D01*
X133934523Y-130698687D01*
X134171313Y-130935477D01*
X134449748Y-131121521D01*
X134550140Y-131163105D01*
X134290000Y-131161928D01*
X134165518Y-131174188D01*
X134045820Y-131210498D01*
X133935506Y-131269463D01*
X133838815Y-131348815D01*
X133759463Y-131445506D01*
X133700498Y-131555820D01*
X133664188Y-131675518D01*
X133651928Y-131800000D01*
X133655000Y-132429250D01*
X133813750Y-132588000D01*
X135128000Y-132588000D01*
X135128000Y-132568000D01*
X135382000Y-132568000D01*
X135382000Y-132588000D01*
X136696250Y-132588000D01*
X136855000Y-132429250D01*
X136858072Y-131800000D01*
X136845812Y-131675518D01*
X136809502Y-131555820D01*
X136750537Y-131445506D01*
X136671185Y-131348815D01*
X136574494Y-131269463D01*
X136464180Y-131210498D01*
X136344482Y-131174188D01*
X136220000Y-131161928D01*
X135959860Y-131163105D01*
X136060252Y-131121521D01*
X136338687Y-130935477D01*
X136575477Y-130698687D01*
X136761521Y-130420252D01*
X136889670Y-130110872D01*
X136955000Y-129782435D01*
X136955000Y-129447565D01*
X136889670Y-129119128D01*
X136761521Y-128809748D01*
X136575477Y-128531313D01*
X136338687Y-128294523D01*
X136060252Y-128108479D01*
X135750872Y-127980330D01*
X135422435Y-127915000D01*
X135087565Y-127915000D01*
X134759128Y-127980330D01*
X134449748Y-128108479D01*
X134171313Y-128294523D01*
X133934523Y-128531313D01*
X133748479Y-128809748D01*
X133620330Y-129119128D01*
X133555000Y-129447565D01*
X119175000Y-129447565D01*
X119109670Y-129119128D01*
X118981521Y-128809748D01*
X118795477Y-128531313D01*
X118558687Y-128294523D01*
X118280252Y-128108479D01*
X117970872Y-127980330D01*
X117642435Y-127915000D01*
X117307565Y-127915000D01*
X116979128Y-127980330D01*
X116669748Y-128108479D01*
X116391313Y-128294523D01*
X116154523Y-128531313D01*
X115968479Y-128809748D01*
X115840330Y-129119128D01*
X115775000Y-129447565D01*
X112556119Y-129447565D01*
X112618525Y-121147565D01*
X115775000Y-121147565D01*
X115775000Y-121482435D01*
X115840330Y-121810872D01*
X115968479Y-122120252D01*
X116154523Y-122398687D01*
X116391313Y-122635477D01*
X116669748Y-122821521D01*
X116979128Y-122949670D01*
X117307565Y-123015000D01*
X117642435Y-123015000D01*
X117970872Y-122949670D01*
X118280252Y-122821521D01*
X118558687Y-122635477D01*
X118795477Y-122398687D01*
X118981521Y-122120252D01*
X119109670Y-121810872D01*
X119175000Y-121482435D01*
X119175000Y-121147565D01*
X119109670Y-120819128D01*
X118981521Y-120509748D01*
X118795477Y-120231313D01*
X118558687Y-119994523D01*
X118280252Y-119808479D01*
X117970872Y-119680330D01*
X117642435Y-119615000D01*
X117307565Y-119615000D01*
X116979128Y-119680330D01*
X116669748Y-119808479D01*
X116391313Y-119994523D01*
X116154523Y-120231313D01*
X115968479Y-120509748D01*
X115840330Y-120819128D01*
X115775000Y-121147565D01*
X112618525Y-121147565D01*
X112831169Y-92865915D01*
X112969314Y-92865915D01*
X112972990Y-92903237D01*
X112972991Y-113060657D01*
X112969314Y-113097990D01*
X112972991Y-113135323D01*
X112977293Y-113178996D01*
X112983988Y-113246975D01*
X113027444Y-113390236D01*
X113098016Y-113522266D01*
X113157260Y-113594454D01*
X113192990Y-113637991D01*
X113221988Y-113661789D01*
X113494203Y-113934004D01*
X113471487Y-114008889D01*
X113442815Y-114300000D01*
X113471487Y-114591111D01*
X113556401Y-114871034D01*
X113694294Y-115129014D01*
X113879866Y-115355134D01*
X114105986Y-115540706D01*
X114160791Y-115570000D01*
X114105986Y-115599294D01*
X113879866Y-115784866D01*
X113694294Y-116010986D01*
X113556401Y-116268966D01*
X113471487Y-116548889D01*
X113442815Y-116840000D01*
X113471487Y-117131111D01*
X113556401Y-117411034D01*
X113694294Y-117669014D01*
X113879866Y-117895134D01*
X114105986Y-118080706D01*
X114363966Y-118218599D01*
X114643889Y-118303513D01*
X114862050Y-118325000D01*
X115007950Y-118325000D01*
X115226111Y-118303513D01*
X115506034Y-118218599D01*
X115764014Y-118080706D01*
X115990134Y-117895134D01*
X116175706Y-117669014D01*
X116210201Y-117604477D01*
X116279822Y-117721355D01*
X116474731Y-117937588D01*
X116708080Y-118111641D01*
X116970901Y-118236825D01*
X117118110Y-118281476D01*
X117348000Y-118160155D01*
X117348000Y-116967000D01*
X117602000Y-116967000D01*
X117602000Y-118160155D01*
X117831890Y-118281476D01*
X117979099Y-118236825D01*
X118241920Y-118111641D01*
X118475269Y-117937588D01*
X118670178Y-117721355D01*
X118745000Y-117595745D01*
X118819822Y-117721355D01*
X119014731Y-117937588D01*
X119248080Y-118111641D01*
X119510901Y-118236825D01*
X119658110Y-118281476D01*
X119888000Y-118160155D01*
X119888000Y-116967000D01*
X120142000Y-116967000D01*
X120142000Y-118160155D01*
X120371890Y-118281476D01*
X120519099Y-118236825D01*
X120781920Y-118111641D01*
X121015269Y-117937588D01*
X121210178Y-117721355D01*
X121285000Y-117595745D01*
X121359822Y-117721355D01*
X121554731Y-117937588D01*
X121788080Y-118111641D01*
X122050901Y-118236825D01*
X122198110Y-118281476D01*
X122428000Y-118160155D01*
X122428000Y-116967000D01*
X120142000Y-116967000D01*
X119888000Y-116967000D01*
X117602000Y-116967000D01*
X117348000Y-116967000D01*
X117328000Y-116967000D01*
X117328000Y-116713000D01*
X117348000Y-116713000D01*
X117348000Y-114427000D01*
X117602000Y-114427000D01*
X117602000Y-116713000D01*
X119888000Y-116713000D01*
X119888000Y-114427000D01*
X120142000Y-114427000D01*
X120142000Y-116713000D01*
X122428000Y-116713000D01*
X122428000Y-114427000D01*
X120142000Y-114427000D01*
X119888000Y-114427000D01*
X117602000Y-114427000D01*
X117348000Y-114427000D01*
X117328000Y-114427000D01*
X117328000Y-114173000D01*
X117348000Y-114173000D01*
X117348000Y-112979845D01*
X117602000Y-112979845D01*
X117602000Y-114173000D01*
X119888000Y-114173000D01*
X119888000Y-112979845D01*
X120142000Y-112979845D01*
X120142000Y-114173000D01*
X122428000Y-114173000D01*
X122428000Y-112979845D01*
X122682000Y-112979845D01*
X122682000Y-114173000D01*
X122702000Y-114173000D01*
X122702000Y-114427000D01*
X122682000Y-114427000D01*
X122682000Y-116713000D01*
X122702000Y-116713000D01*
X122702000Y-116967000D01*
X122682000Y-116967000D01*
X122682000Y-118160155D01*
X122911890Y-118281476D01*
X123059099Y-118236825D01*
X123321920Y-118111641D01*
X123555269Y-117937588D01*
X123631034Y-117853534D01*
X123655498Y-117934180D01*
X123714463Y-118044494D01*
X123793815Y-118141185D01*
X123890506Y-118220537D01*
X124000820Y-118279502D01*
X124120518Y-118315812D01*
X124245000Y-118328072D01*
X125945000Y-118328072D01*
X126069482Y-118315812D01*
X126189180Y-118279502D01*
X126299494Y-118220537D01*
X126396185Y-118141185D01*
X126475537Y-118044494D01*
X126516069Y-117968665D01*
X128613000Y-117968665D01*
X128613000Y-118251335D01*
X128668147Y-118528574D01*
X128776320Y-118789727D01*
X128933363Y-119024759D01*
X129133241Y-119224637D01*
X129368273Y-119381680D01*
X129629426Y-119489853D01*
X129906665Y-119545000D01*
X130189335Y-119545000D01*
X130466574Y-119489853D01*
X130727727Y-119381680D01*
X130962759Y-119224637D01*
X131162637Y-119024759D01*
X131319680Y-118789727D01*
X131427853Y-118528574D01*
X131483000Y-118251335D01*
X131483000Y-117968665D01*
X131427853Y-117691426D01*
X131319680Y-117430273D01*
X131162637Y-117195241D01*
X130962759Y-116995363D01*
X130727727Y-116838320D01*
X130466574Y-116730147D01*
X130189335Y-116675000D01*
X129906665Y-116675000D01*
X129629426Y-116730147D01*
X129368273Y-116838320D01*
X129133241Y-116995363D01*
X128933363Y-117195241D01*
X128776320Y-117430273D01*
X128668147Y-117691426D01*
X128613000Y-117968665D01*
X126516069Y-117968665D01*
X126534502Y-117934180D01*
X126570812Y-117814482D01*
X126583072Y-117690000D01*
X126583072Y-115990000D01*
X126570812Y-115865518D01*
X126534502Y-115745820D01*
X126475537Y-115635506D01*
X126396185Y-115538815D01*
X126299494Y-115459463D01*
X126189180Y-115400498D01*
X126120313Y-115379607D01*
X126150134Y-115355134D01*
X126335706Y-115129014D01*
X126473599Y-114871034D01*
X126558513Y-114591111D01*
X126587185Y-114300000D01*
X126558513Y-114008889D01*
X126473599Y-113728966D01*
X126335706Y-113470986D01*
X126150134Y-113244866D01*
X125924014Y-113059294D01*
X125666034Y-112921401D01*
X125386111Y-112836487D01*
X125167950Y-112815000D01*
X125022050Y-112815000D01*
X124803889Y-112836487D01*
X124523966Y-112921401D01*
X124265986Y-113059294D01*
X124039866Y-113244866D01*
X123854294Y-113470986D01*
X123819799Y-113535523D01*
X123750178Y-113418645D01*
X123555269Y-113202412D01*
X123321920Y-113028359D01*
X123059099Y-112903175D01*
X122911890Y-112858524D01*
X122682000Y-112979845D01*
X122428000Y-112979845D01*
X122198110Y-112858524D01*
X122050901Y-112903175D01*
X121788080Y-113028359D01*
X121554731Y-113202412D01*
X121359822Y-113418645D01*
X121285000Y-113544255D01*
X121210178Y-113418645D01*
X121015269Y-113202412D01*
X120781920Y-113028359D01*
X120519099Y-112903175D01*
X120371890Y-112858524D01*
X120142000Y-112979845D01*
X119888000Y-112979845D01*
X119658110Y-112858524D01*
X119510901Y-112903175D01*
X119248080Y-113028359D01*
X119014731Y-113202412D01*
X118819822Y-113418645D01*
X118745000Y-113544255D01*
X118670178Y-113418645D01*
X118475269Y-113202412D01*
X118241920Y-113028359D01*
X117979099Y-112903175D01*
X117831890Y-112858524D01*
X117602000Y-112979845D01*
X117348000Y-112979845D01*
X117118110Y-112858524D01*
X116970901Y-112903175D01*
X116708080Y-113028359D01*
X116474731Y-113202412D01*
X116279822Y-113418645D01*
X116210201Y-113535523D01*
X116175706Y-113470986D01*
X115990134Y-113244866D01*
X115764014Y-113059294D01*
X115506034Y-112921401D01*
X115226111Y-112836487D01*
X115007950Y-112815000D01*
X114862050Y-112815000D01*
X114643889Y-112836487D01*
X114569004Y-112859203D01*
X114492990Y-112783189D01*
X114492990Y-110590146D01*
X114516426Y-110599853D01*
X114793665Y-110655000D01*
X115076335Y-110655000D01*
X115353574Y-110599853D01*
X115614727Y-110491680D01*
X115849759Y-110334637D01*
X116049637Y-110134759D01*
X116206680Y-109899727D01*
X116314853Y-109638574D01*
X116370000Y-109361335D01*
X116370000Y-109078665D01*
X117945000Y-109078665D01*
X117945000Y-109361335D01*
X118000147Y-109638574D01*
X118108320Y-109899727D01*
X118265363Y-110134759D01*
X118465241Y-110334637D01*
X118700273Y-110491680D01*
X118961426Y-110599853D01*
X119238665Y-110655000D01*
X119521335Y-110655000D01*
X119798574Y-110599853D01*
X120059727Y-110491680D01*
X120294759Y-110334637D01*
X120494637Y-110134759D01*
X120651680Y-109899727D01*
X120759853Y-109638574D01*
X120815000Y-109361335D01*
X120815000Y-109078665D01*
X120759853Y-108801426D01*
X120651680Y-108540273D01*
X120494637Y-108305241D01*
X120294759Y-108105363D01*
X120059727Y-107948320D01*
X119798574Y-107840147D01*
X119521335Y-107785000D01*
X119238665Y-107785000D01*
X118961426Y-107840147D01*
X118700273Y-107948320D01*
X118465241Y-108105363D01*
X118265363Y-108305241D01*
X118108320Y-108540273D01*
X118000147Y-108801426D01*
X117945000Y-109078665D01*
X116370000Y-109078665D01*
X116314853Y-108801426D01*
X116206680Y-108540273D01*
X116049637Y-108305241D01*
X115849759Y-108105363D01*
X115614727Y-107948320D01*
X115353574Y-107840147D01*
X115076335Y-107785000D01*
X114793665Y-107785000D01*
X114516426Y-107840147D01*
X114492990Y-107849854D01*
X114492990Y-105503705D01*
X114585961Y-105531904D01*
X114808000Y-105409915D01*
X114808000Y-104267000D01*
X115062000Y-104267000D01*
X115062000Y-105409915D01*
X115284039Y-105531904D01*
X115418087Y-105491246D01*
X115672420Y-105371037D01*
X115898414Y-105203519D01*
X116087385Y-104995131D01*
X116232070Y-104753881D01*
X116326909Y-104489040D01*
X116205624Y-104267000D01*
X115062000Y-104267000D01*
X114808000Y-104267000D01*
X114788000Y-104267000D01*
X114788000Y-104078665D01*
X117945000Y-104078665D01*
X117945000Y-104361335D01*
X118000147Y-104638574D01*
X118108320Y-104899727D01*
X118265363Y-105134759D01*
X118465241Y-105334637D01*
X118700273Y-105491680D01*
X118961426Y-105599853D01*
X119238665Y-105655000D01*
X119521335Y-105655000D01*
X119798574Y-105599853D01*
X120059727Y-105491680D01*
X120294759Y-105334637D01*
X120494637Y-105134759D01*
X120651680Y-104899727D01*
X120759853Y-104638574D01*
X120815000Y-104361335D01*
X120815000Y-104078665D01*
X120759853Y-103801426D01*
X120651680Y-103540273D01*
X120494637Y-103305241D01*
X120294759Y-103105363D01*
X120059727Y-102948320D01*
X119798574Y-102840147D01*
X119521335Y-102785000D01*
X119238665Y-102785000D01*
X118961426Y-102840147D01*
X118700273Y-102948320D01*
X118465241Y-103105363D01*
X118265363Y-103305241D01*
X118108320Y-103540273D01*
X118000147Y-103801426D01*
X117945000Y-104078665D01*
X114788000Y-104078665D01*
X114788000Y-104013000D01*
X114808000Y-104013000D01*
X114808000Y-102870085D01*
X115062000Y-102870085D01*
X115062000Y-104013000D01*
X116205624Y-104013000D01*
X116326909Y-103790960D01*
X116232070Y-103526119D01*
X116087385Y-103284869D01*
X115898414Y-103076481D01*
X115672420Y-102908963D01*
X115418087Y-102788754D01*
X115284039Y-102748096D01*
X115062000Y-102870085D01*
X114808000Y-102870085D01*
X114585961Y-102748096D01*
X114492990Y-102776295D01*
X114492990Y-102509072D01*
X115558000Y-102509072D01*
X115682482Y-102496812D01*
X115802180Y-102460502D01*
X115912494Y-102401537D01*
X116009185Y-102322185D01*
X116088537Y-102225494D01*
X116147502Y-102115180D01*
X116183812Y-101995482D01*
X116196072Y-101871000D01*
X116196072Y-101441040D01*
X117226091Y-101441040D01*
X117320930Y-101705881D01*
X117465615Y-101947131D01*
X117654586Y-102155519D01*
X117880580Y-102323037D01*
X118134913Y-102443246D01*
X118268961Y-102483904D01*
X118491000Y-102361915D01*
X118491000Y-101219000D01*
X118745000Y-101219000D01*
X118745000Y-102361915D01*
X118967039Y-102483904D01*
X119101087Y-102443246D01*
X119355420Y-102323037D01*
X119581414Y-102155519D01*
X119768653Y-101949040D01*
X121798091Y-101949040D01*
X121892930Y-102213881D01*
X122037615Y-102455131D01*
X122226586Y-102663519D01*
X122452580Y-102831037D01*
X122706913Y-102951246D01*
X122840961Y-102991904D01*
X123063000Y-102869915D01*
X123063000Y-101727000D01*
X121919376Y-101727000D01*
X121798091Y-101949040D01*
X119768653Y-101949040D01*
X119770385Y-101947131D01*
X119915070Y-101705881D01*
X120009909Y-101441040D01*
X119906082Y-101250960D01*
X121798091Y-101250960D01*
X121919376Y-101473000D01*
X123063000Y-101473000D01*
X123063000Y-100330085D01*
X122840961Y-100208096D01*
X122706913Y-100248754D01*
X122452580Y-100368963D01*
X122226586Y-100536481D01*
X122037615Y-100744869D01*
X121892930Y-100986119D01*
X121798091Y-101250960D01*
X119906082Y-101250960D01*
X119888624Y-101219000D01*
X118745000Y-101219000D01*
X118491000Y-101219000D01*
X117347376Y-101219000D01*
X117226091Y-101441040D01*
X116196072Y-101441040D01*
X116196072Y-100821000D01*
X116188386Y-100742960D01*
X117226091Y-100742960D01*
X117347376Y-100965000D01*
X118491000Y-100965000D01*
X118491000Y-99822085D01*
X118745000Y-99822085D01*
X118745000Y-100965000D01*
X119888624Y-100965000D01*
X120009909Y-100742960D01*
X119915070Y-100478119D01*
X119770385Y-100236869D01*
X119581414Y-100028481D01*
X119355420Y-99860963D01*
X119101087Y-99740754D01*
X118967039Y-99700096D01*
X118745000Y-99822085D01*
X118491000Y-99822085D01*
X118268961Y-99700096D01*
X118134913Y-99740754D01*
X117880580Y-99860963D01*
X117654586Y-100028481D01*
X117465615Y-100236869D01*
X117320930Y-100478119D01*
X117226091Y-100742960D01*
X116188386Y-100742960D01*
X116183812Y-100696518D01*
X116147502Y-100576820D01*
X116112907Y-100512098D01*
X116176215Y-100303400D01*
X116198612Y-100076000D01*
X116184381Y-99931515D01*
X117605004Y-98510893D01*
X117634001Y-98487096D01*
X117728974Y-98371371D01*
X117799546Y-98239342D01*
X117843003Y-98096081D01*
X117854000Y-97984428D01*
X117854000Y-97984420D01*
X117857676Y-97947095D01*
X117854000Y-97909770D01*
X117854000Y-97227371D01*
X117938273Y-97283680D01*
X118199426Y-97391853D01*
X118476665Y-97447000D01*
X118759335Y-97447000D01*
X119036574Y-97391853D01*
X119297727Y-97283680D01*
X119532759Y-97126637D01*
X119732637Y-96926759D01*
X119889680Y-96691727D01*
X119997853Y-96430574D01*
X120053000Y-96153335D01*
X120053000Y-95870665D01*
X119997853Y-95593426D01*
X119889680Y-95332273D01*
X119732637Y-95097241D01*
X119532759Y-94897363D01*
X119297727Y-94740320D01*
X119036574Y-94632147D01*
X118759335Y-94577000D01*
X118476665Y-94577000D01*
X118199426Y-94632147D01*
X117938273Y-94740320D01*
X117854000Y-94796629D01*
X117854000Y-93700607D01*
X117931903Y-93622704D01*
X118003486Y-93866671D01*
X118258996Y-93987571D01*
X118533184Y-94056300D01*
X118815512Y-94070217D01*
X119095130Y-94028787D01*
X119361292Y-93933603D01*
X119486514Y-93866671D01*
X119558097Y-93622702D01*
X118745000Y-92809605D01*
X118730858Y-92823748D01*
X118551253Y-92644143D01*
X118565395Y-92630000D01*
X118924605Y-92630000D01*
X119737702Y-93443097D01*
X119981671Y-93371514D01*
X120102571Y-93116004D01*
X120171300Y-92841816D01*
X120185217Y-92559488D01*
X120143787Y-92279870D01*
X120048603Y-92013708D01*
X119981671Y-91888486D01*
X119737702Y-91816903D01*
X118924605Y-92630000D01*
X118565395Y-92630000D01*
X118551253Y-92615858D01*
X118730858Y-92436253D01*
X118745000Y-92450395D01*
X119558097Y-91637298D01*
X119486514Y-91393329D01*
X119231004Y-91272429D01*
X118956816Y-91203700D01*
X118674488Y-91189783D01*
X118394870Y-91231213D01*
X118128708Y-91326397D01*
X118003486Y-91393329D01*
X117931903Y-91637296D01*
X117854000Y-91559393D01*
X117854000Y-88760512D01*
X118065273Y-88901680D01*
X118326426Y-89009853D01*
X118603665Y-89065000D01*
X118886335Y-89065000D01*
X119163574Y-89009853D01*
X119424727Y-88901680D01*
X119659759Y-88744637D01*
X119859637Y-88544759D01*
X120016680Y-88309727D01*
X120124853Y-88048574D01*
X120180000Y-87771335D01*
X120180000Y-87488665D01*
X120124853Y-87211426D01*
X120016680Y-86950273D01*
X119859637Y-86715241D01*
X119659759Y-86515363D01*
X119424727Y-86358320D01*
X119419971Y-86356350D01*
X119546101Y-86288932D01*
X119764608Y-86109608D01*
X119943932Y-85891101D01*
X120077182Y-85641808D01*
X120159236Y-85371309D01*
X120186943Y-85090000D01*
X120159236Y-84808691D01*
X120145708Y-84764094D01*
X120381005Y-84528797D01*
X120410002Y-84505000D01*
X120504975Y-84389275D01*
X120575547Y-84257246D01*
X120619004Y-84113985D01*
X120630001Y-84002332D01*
X120630001Y-84002324D01*
X120633677Y-83964999D01*
X120630001Y-83927674D01*
X120630001Y-64070126D01*
X120633678Y-64032793D01*
X120619004Y-63883807D01*
X120575547Y-63740546D01*
X120504975Y-63608517D01*
X120433800Y-63521790D01*
X120410002Y-63492792D01*
X120381003Y-63468993D01*
X120326413Y-63414404D01*
X120532312Y-63208505D01*
X120590000Y-63122169D01*
X120647688Y-63208505D01*
X120861495Y-63422312D01*
X121112905Y-63590299D01*
X121392257Y-63706011D01*
X121688816Y-63765000D01*
X121991184Y-63765000D01*
X122287743Y-63706011D01*
X122567095Y-63590299D01*
X122818505Y-63422312D01*
X123032312Y-63208505D01*
X123200299Y-62957095D01*
X123316011Y-62677743D01*
X123375000Y-62381184D01*
X123375000Y-62078816D01*
X123316011Y-61782257D01*
X123200299Y-61502905D01*
X123032312Y-61251495D01*
X122818505Y-61037688D01*
X122567095Y-60869701D01*
X122287743Y-60753989D01*
X121991184Y-60695000D01*
X121688816Y-60695000D01*
X121392257Y-60753989D01*
X121112905Y-60869701D01*
X120861495Y-61037688D01*
X120647688Y-61251495D01*
X120590000Y-61337831D01*
X120532312Y-61251495D01*
X120318505Y-61037688D01*
X120067095Y-60869701D01*
X119787743Y-60753989D01*
X119491184Y-60695000D01*
X119188816Y-60695000D01*
X118892257Y-60753989D01*
X118612905Y-60869701D01*
X118361495Y-61037688D01*
X118147688Y-61251495D01*
X118090000Y-61337831D01*
X118032312Y-61251495D01*
X117818505Y-61037688D01*
X117567095Y-60869701D01*
X117287743Y-60753989D01*
X116991184Y-60695000D01*
X116688816Y-60695000D01*
X116392257Y-60753989D01*
X116112905Y-60869701D01*
X115861495Y-61037688D01*
X115647688Y-61251495D01*
X115479701Y-61502905D01*
X115363989Y-61782257D01*
X115305000Y-62078816D01*
X115305000Y-62381184D01*
X115363989Y-62677743D01*
X115479701Y-62957095D01*
X115647688Y-63208505D01*
X115861495Y-63422312D01*
X116082973Y-63570299D01*
X116090998Y-63651777D01*
X116134454Y-63795038D01*
X116205026Y-63927068D01*
X116261155Y-63995460D01*
X116300000Y-64042793D01*
X116328998Y-64066591D01*
X117985000Y-65722594D01*
X117985001Y-76031928D01*
X117945000Y-76031928D01*
X117820518Y-76044188D01*
X117700820Y-76080498D01*
X117590506Y-76139463D01*
X117493815Y-76218815D01*
X117414463Y-76315506D01*
X117355498Y-76425820D01*
X117319188Y-76545518D01*
X117306928Y-76670000D01*
X117306928Y-78270000D01*
X117319188Y-78394482D01*
X117355498Y-78514180D01*
X117414463Y-78624494D01*
X117493815Y-78721185D01*
X117590506Y-78800537D01*
X117700820Y-78859502D01*
X117820518Y-78895812D01*
X117945000Y-78908072D01*
X119110001Y-78908072D01*
X119110001Y-83650197D01*
X119070906Y-83689292D01*
X119026309Y-83675764D01*
X118815492Y-83655000D01*
X118674508Y-83655000D01*
X118463691Y-83675764D01*
X118193192Y-83757818D01*
X117943899Y-83891068D01*
X117854000Y-83964846D01*
X117854000Y-83761711D01*
X117897937Y-83717774D01*
X118011205Y-83548256D01*
X118089226Y-83359898D01*
X118129000Y-83159939D01*
X118129000Y-82956061D01*
X118089226Y-82756102D01*
X118011205Y-82567744D01*
X117897937Y-82398226D01*
X117753774Y-82254063D01*
X117584256Y-82140795D01*
X117395898Y-82062774D01*
X117195939Y-82023000D01*
X116992061Y-82023000D01*
X116792102Y-82062774D01*
X116603744Y-82140795D01*
X116434226Y-82254063D01*
X116290063Y-82398226D01*
X116176795Y-82567744D01*
X116098774Y-82756102D01*
X116059000Y-82956061D01*
X116059000Y-83159939D01*
X116098774Y-83359898D01*
X116176795Y-83548256D01*
X116290063Y-83717774D01*
X116334001Y-83761712D01*
X116334001Y-83874630D01*
X116249727Y-83818320D01*
X115988574Y-83710147D01*
X115711335Y-83655000D01*
X115428665Y-83655000D01*
X115151426Y-83710147D01*
X114890273Y-83818320D01*
X114655241Y-83975363D01*
X114455363Y-84175241D01*
X114298320Y-84410273D01*
X114190147Y-84671426D01*
X114135000Y-84948665D01*
X114135000Y-85231335D01*
X114190147Y-85508574D01*
X114298320Y-85769727D01*
X114455363Y-86004759D01*
X114655241Y-86204637D01*
X114890273Y-86361680D01*
X115151426Y-86469853D01*
X115428665Y-86525000D01*
X115711335Y-86525000D01*
X115988574Y-86469853D01*
X116249727Y-86361680D01*
X116334001Y-86305370D01*
X116334000Y-97632293D01*
X115914590Y-98051703D01*
X115857212Y-97981788D01*
X115680579Y-97836829D01*
X115479060Y-97729115D01*
X115260400Y-97662785D01*
X115089979Y-97646000D01*
X114526021Y-97646000D01*
X114492990Y-97649253D01*
X114492990Y-96921072D01*
X115558000Y-96921072D01*
X115682482Y-96908812D01*
X115802180Y-96872502D01*
X115912494Y-96813537D01*
X116009185Y-96734185D01*
X116088537Y-96637494D01*
X116147502Y-96527180D01*
X116183812Y-96407482D01*
X116196072Y-96283000D01*
X116196072Y-95233000D01*
X116183812Y-95108518D01*
X116147502Y-94988820D01*
X116112907Y-94924098D01*
X116176215Y-94715400D01*
X116198612Y-94488000D01*
X116176215Y-94260600D01*
X116109885Y-94041940D01*
X116008895Y-93853000D01*
X116109885Y-93664060D01*
X116176215Y-93445400D01*
X116198612Y-93218000D01*
X116176215Y-92990600D01*
X116109885Y-92771940D01*
X116002171Y-92570421D01*
X115857212Y-92393788D01*
X115680579Y-92248829D01*
X115512057Y-92158753D01*
X115569974Y-92088181D01*
X115640546Y-91956152D01*
X115684003Y-91812891D01*
X115695000Y-91701238D01*
X115695000Y-91701228D01*
X115698676Y-91663905D01*
X115695000Y-91626582D01*
X115695000Y-91508711D01*
X115738937Y-91464774D01*
X115852205Y-91295256D01*
X115930226Y-91106898D01*
X115970000Y-90906939D01*
X115970000Y-90703061D01*
X115930226Y-90503102D01*
X115852205Y-90314744D01*
X115738937Y-90145226D01*
X115594774Y-90001063D01*
X115425256Y-89887795D01*
X115236898Y-89809774D01*
X115036939Y-89770000D01*
X114833061Y-89770000D01*
X114633102Y-89809774D01*
X114444744Y-89887795D01*
X114275226Y-90001063D01*
X114131063Y-90145226D01*
X114017795Y-90314744D01*
X113939774Y-90503102D01*
X113900000Y-90703061D01*
X113900000Y-90906939D01*
X113939774Y-91106898D01*
X114017795Y-91295256D01*
X114102331Y-91421773D01*
X113221993Y-92302111D01*
X113192989Y-92325914D01*
X113137861Y-92393089D01*
X113098016Y-92441639D01*
X113093336Y-92450395D01*
X113027444Y-92573669D01*
X112983987Y-92716930D01*
X112972990Y-92828583D01*
X112972990Y-92828593D01*
X112969314Y-92865915D01*
X112831169Y-92865915D01*
X112919764Y-81082702D01*
X114756903Y-81082702D01*
X114828486Y-81326671D01*
X115083996Y-81447571D01*
X115358184Y-81516300D01*
X115640512Y-81530217D01*
X115920130Y-81488787D01*
X116186292Y-81393603D01*
X116311514Y-81326671D01*
X116383097Y-81082702D01*
X115570000Y-80269605D01*
X114756903Y-81082702D01*
X112919764Y-81082702D01*
X112926698Y-80160512D01*
X114129783Y-80160512D01*
X114171213Y-80440130D01*
X114266397Y-80706292D01*
X114333329Y-80831514D01*
X114577298Y-80903097D01*
X115390395Y-80090000D01*
X115749605Y-80090000D01*
X116562702Y-80903097D01*
X116806671Y-80831514D01*
X116927571Y-80576004D01*
X116996300Y-80301816D01*
X117010217Y-80019488D01*
X116968787Y-79739870D01*
X116873603Y-79473708D01*
X116806671Y-79348486D01*
X116562702Y-79276903D01*
X115749605Y-80090000D01*
X115390395Y-80090000D01*
X114577298Y-79276903D01*
X114333329Y-79348486D01*
X114212429Y-79603996D01*
X114143700Y-79878184D01*
X114129783Y-80160512D01*
X112926698Y-80160512D01*
X112934692Y-79097298D01*
X114756903Y-79097298D01*
X115570000Y-79910395D01*
X116383097Y-79097298D01*
X116311514Y-78853329D01*
X116056004Y-78732429D01*
X115781816Y-78663700D01*
X115499488Y-78649783D01*
X115219870Y-78691213D01*
X114953708Y-78786397D01*
X114828486Y-78853329D01*
X114756903Y-79097298D01*
X112934692Y-79097298D01*
X112995485Y-71011938D01*
X113260285Y-71276738D01*
X113691859Y-71565107D01*
X114171399Y-71763739D01*
X114680475Y-71865000D01*
X115199525Y-71865000D01*
X115708601Y-71763739D01*
X116188141Y-71565107D01*
X116619715Y-71276738D01*
X116986738Y-70909715D01*
X117275107Y-70478141D01*
X117473739Y-69998601D01*
X117575000Y-69489525D01*
X117575000Y-68970475D01*
X117473739Y-68461399D01*
X117275107Y-67981859D01*
X116986738Y-67550285D01*
X116619715Y-67183262D01*
X116188141Y-66894893D01*
X115708601Y-66696261D01*
X115199525Y-66595000D01*
X114680475Y-66595000D01*
X114171399Y-66696261D01*
X113691859Y-66894893D01*
X113260285Y-67183262D01*
X113022484Y-67421063D01*
X113111551Y-55575000D01*
X114016928Y-55575000D01*
X114029188Y-55699482D01*
X114065498Y-55819180D01*
X114124463Y-55929494D01*
X114203815Y-56026185D01*
X114300506Y-56105537D01*
X114410820Y-56164502D01*
X114530518Y-56200812D01*
X114655000Y-56213072D01*
X115284250Y-56210000D01*
X115443000Y-56051250D01*
X115443000Y-54737000D01*
X114178750Y-54737000D01*
X114020000Y-54895750D01*
X114016928Y-55575000D01*
X113111551Y-55575000D01*
X113126062Y-53645000D01*
X114016928Y-53645000D01*
X114020000Y-54324250D01*
X114178750Y-54483000D01*
X115443000Y-54483000D01*
X115443000Y-53168750D01*
X115697000Y-53168750D01*
X115697000Y-54483000D01*
X115717000Y-54483000D01*
X115717000Y-54737000D01*
X115697000Y-54737000D01*
X115697000Y-56051250D01*
X115855750Y-56210000D01*
X116485000Y-56213072D01*
X116609482Y-56200812D01*
X116729180Y-56164502D01*
X116839494Y-56105537D01*
X116936185Y-56026185D01*
X117015537Y-55929494D01*
X117074502Y-55819180D01*
X117110812Y-55699482D01*
X117123072Y-55575000D01*
X117121895Y-55314860D01*
X117163479Y-55415252D01*
X117349523Y-55693687D01*
X117586313Y-55930477D01*
X117864748Y-56116521D01*
X118174128Y-56244670D01*
X118502565Y-56310000D01*
X118837435Y-56310000D01*
X119165872Y-56244670D01*
X119475252Y-56116521D01*
X119753687Y-55930477D01*
X119990477Y-55693687D01*
X120176521Y-55415252D01*
X120304670Y-55105872D01*
X120370000Y-54777435D01*
X120370000Y-54442565D01*
X125270000Y-54442565D01*
X125270000Y-54777435D01*
X125335330Y-55105872D01*
X125463479Y-55415252D01*
X125649523Y-55693687D01*
X125886313Y-55930477D01*
X126164748Y-56116521D01*
X126474128Y-56244670D01*
X126802565Y-56310000D01*
X127137435Y-56310000D01*
X127465872Y-56244670D01*
X127775252Y-56116521D01*
X128053687Y-55930477D01*
X128290477Y-55693687D01*
X128476521Y-55415252D01*
X128604670Y-55105872D01*
X128670000Y-54777435D01*
X128670000Y-54442565D01*
X128604670Y-54114128D01*
X128476521Y-53804748D01*
X128290477Y-53526313D01*
X128053687Y-53289523D01*
X127775252Y-53103479D01*
X127465872Y-52975330D01*
X127137435Y-52910000D01*
X126802565Y-52910000D01*
X126474128Y-52975330D01*
X126164748Y-53103479D01*
X125886313Y-53289523D01*
X125649523Y-53526313D01*
X125463479Y-53804748D01*
X125335330Y-54114128D01*
X125270000Y-54442565D01*
X120370000Y-54442565D01*
X120304670Y-54114128D01*
X120176521Y-53804748D01*
X119990477Y-53526313D01*
X119753687Y-53289523D01*
X119475252Y-53103479D01*
X119165872Y-52975330D01*
X118837435Y-52910000D01*
X118502565Y-52910000D01*
X118174128Y-52975330D01*
X117864748Y-53103479D01*
X117586313Y-53289523D01*
X117349523Y-53526313D01*
X117163479Y-53804748D01*
X117121895Y-53905140D01*
X117123072Y-53645000D01*
X117110812Y-53520518D01*
X117074502Y-53400820D01*
X117015537Y-53290506D01*
X116936185Y-53193815D01*
X116839494Y-53114463D01*
X116729180Y-53055498D01*
X116609482Y-53019188D01*
X116485000Y-53006928D01*
X115855750Y-53010000D01*
X115697000Y-53168750D01*
X115443000Y-53168750D01*
X115284250Y-53010000D01*
X114655000Y-53006928D01*
X114530518Y-53019188D01*
X114410820Y-53055498D01*
X114300506Y-53114463D01*
X114203815Y-53193815D01*
X114124463Y-53290506D01*
X114065498Y-53400820D01*
X114029188Y-53520518D01*
X114016928Y-53645000D01*
X113126062Y-53645000D01*
X113135280Y-52419040D01*
X130053091Y-52419040D01*
X130147930Y-52683881D01*
X130292615Y-52925131D01*
X130481586Y-53133519D01*
X130707580Y-53301037D01*
X130961913Y-53421246D01*
X131095961Y-53461904D01*
X131318000Y-53339915D01*
X131318000Y-52197000D01*
X131572000Y-52197000D01*
X131572000Y-53339915D01*
X131794039Y-53461904D01*
X131928087Y-53421246D01*
X132182420Y-53301037D01*
X132408414Y-53133519D01*
X132597385Y-52925131D01*
X132742070Y-52683881D01*
X132836909Y-52419040D01*
X132715624Y-52197000D01*
X131572000Y-52197000D01*
X131318000Y-52197000D01*
X130174376Y-52197000D01*
X130053091Y-52419040D01*
X113135280Y-52419040D01*
X113140528Y-51720960D01*
X130053091Y-51720960D01*
X130174376Y-51943000D01*
X131318000Y-51943000D01*
X131318000Y-50800085D01*
X131572000Y-50800085D01*
X131572000Y-51943000D01*
X132715624Y-51943000D01*
X132836909Y-51720960D01*
X132742070Y-51456119D01*
X132597385Y-51214869D01*
X132408414Y-51006481D01*
X132182420Y-50838963D01*
X131928087Y-50718754D01*
X131794039Y-50678096D01*
X131572000Y-50800085D01*
X131318000Y-50800085D01*
X131095961Y-50678096D01*
X130961913Y-50718754D01*
X130707580Y-50838963D01*
X130481586Y-51006481D01*
X130292615Y-51214869D01*
X130147930Y-51456119D01*
X130053091Y-51720960D01*
X113140528Y-51720960D01*
X113156048Y-49657000D01*
X140185000Y-49657000D01*
X140185000Y-55290198D01*
X140185000Y-55290198D01*
G37*
X140185000Y-55290198D02*
X137395158Y-52500356D01*
X137403072Y-52420001D01*
X137403072Y-51719999D01*
X137386008Y-51546745D01*
X137335472Y-51380149D01*
X137253405Y-51226613D01*
X137142962Y-51092038D01*
X137008387Y-50981595D01*
X136854851Y-50899528D01*
X136688255Y-50848992D01*
X136515001Y-50831928D01*
X135264999Y-50831928D01*
X135091745Y-50848992D01*
X134925149Y-50899528D01*
X134771613Y-50981595D01*
X134637038Y-51092038D01*
X134526595Y-51226613D01*
X134444528Y-51380149D01*
X134393992Y-51546745D01*
X134376928Y-51719999D01*
X134376928Y-52420001D01*
X134393992Y-52593255D01*
X134444528Y-52759851D01*
X134526595Y-52913387D01*
X134637038Y-53047962D01*
X134771613Y-53158405D01*
X134776111Y-53160809D01*
X134737498Y-53192498D01*
X134641067Y-53310000D01*
X134562325Y-53310000D01*
X134525000Y-53306324D01*
X134487675Y-53310000D01*
X134487667Y-53310000D01*
X134376014Y-53320997D01*
X134232753Y-53364454D01*
X134100724Y-53435026D01*
X133984999Y-53529999D01*
X133961201Y-53558997D01*
X131768886Y-55751312D01*
X131586335Y-55715000D01*
X131303665Y-55715000D01*
X131026426Y-55770147D01*
X130765273Y-55878320D01*
X130530241Y-56035363D01*
X130330363Y-56235241D01*
X130173320Y-56470273D01*
X130065147Y-56731426D01*
X130010000Y-57008665D01*
X130010000Y-57291335D01*
X130065147Y-57568574D01*
X130173320Y-57829727D01*
X130330363Y-58064759D01*
X130530241Y-58264637D01*
X130690203Y-58371520D01*
X130695998Y-58430356D01*
X130701076Y-58447095D01*
X130739454Y-58573616D01*
X130810026Y-58705646D01*
X130858739Y-58765002D01*
X130905000Y-58821371D01*
X130933997Y-58845168D01*
X131275001Y-59186173D01*
X131275001Y-60761138D01*
X131257743Y-60753989D01*
X130961184Y-60695000D01*
X130658816Y-60695000D01*
X130362257Y-60753989D01*
X130082905Y-60869701D01*
X129831495Y-61037688D01*
X129617688Y-61251495D01*
X129449701Y-61502905D01*
X129333989Y-61782257D01*
X129275000Y-62078816D01*
X129275000Y-62381184D01*
X129333989Y-62677743D01*
X129449701Y-62957095D01*
X129617688Y-63208505D01*
X129831495Y-63422312D01*
X130050000Y-63568313D01*
X130050001Y-66850100D01*
X129678601Y-66696261D01*
X129169525Y-66595000D01*
X128650475Y-66595000D01*
X128141399Y-66696261D01*
X127661859Y-66894893D01*
X127230285Y-67183262D01*
X126863262Y-67550285D01*
X126574893Y-67981859D01*
X126376261Y-68461399D01*
X126325000Y-68719107D01*
X126273739Y-68461399D01*
X126075107Y-67981859D01*
X125786738Y-67550285D01*
X125419715Y-67183262D01*
X124988141Y-66894893D01*
X124508601Y-66696261D01*
X123999525Y-66595000D01*
X123480475Y-66595000D01*
X122971399Y-66696261D01*
X122491859Y-66894893D01*
X122060285Y-67183262D01*
X121693262Y-67550285D01*
X121404893Y-67981859D01*
X121206261Y-68461399D01*
X121105000Y-68970475D01*
X121105000Y-69489525D01*
X121206261Y-69998601D01*
X121404893Y-70478141D01*
X121693262Y-70909715D01*
X122060285Y-71276738D01*
X122491859Y-71565107D01*
X122971399Y-71763739D01*
X123480475Y-71865000D01*
X123999525Y-71865000D01*
X124508601Y-71763739D01*
X124988141Y-71565107D01*
X125419715Y-71276738D01*
X125786738Y-70909715D01*
X126075107Y-70478141D01*
X126273739Y-69998601D01*
X126325000Y-69740893D01*
X126376261Y-69998601D01*
X126574893Y-70478141D01*
X126863262Y-70909715D01*
X127230285Y-71276738D01*
X127661859Y-71565107D01*
X128141399Y-71763739D01*
X128650475Y-71865000D01*
X129169525Y-71865000D01*
X129678601Y-71763739D01*
X130158141Y-71565107D01*
X130475002Y-71353387D01*
X130475002Y-72920196D01*
X123993072Y-79402127D01*
X123993072Y-78575000D01*
X123980812Y-78450518D01*
X123944502Y-78330820D01*
X123885537Y-78220506D01*
X123806185Y-78123815D01*
X123709494Y-78044463D01*
X123599180Y-77985498D01*
X123479482Y-77949188D01*
X123355000Y-77936928D01*
X121755000Y-77936928D01*
X121630518Y-77949188D01*
X121510820Y-77985498D01*
X121400506Y-78044463D01*
X121303815Y-78123815D01*
X121224463Y-78220506D01*
X121165498Y-78330820D01*
X121129188Y-78450518D01*
X121116928Y-78575000D01*
X121116928Y-80175000D01*
X121129188Y-80299482D01*
X121165498Y-80419180D01*
X121224463Y-80529494D01*
X121303815Y-80626185D01*
X121400506Y-80705537D01*
X121510820Y-80764502D01*
X121630518Y-80800812D01*
X121648482Y-80802581D01*
X121535392Y-80895392D01*
X121356068Y-81113899D01*
X121222818Y-81363192D01*
X121140764Y-81633691D01*
X121113057Y-81915000D01*
X121140764Y-82196309D01*
X121154292Y-82240906D01*
X120919001Y-82476197D01*
X120889998Y-82500000D01*
X120848986Y-82549974D01*
X120795025Y-82615725D01*
X120769220Y-82664003D01*
X120724453Y-82747755D01*
X120680996Y-82891016D01*
X120669999Y-83002669D01*
X120669999Y-83002679D01*
X120666323Y-83040001D01*
X120669999Y-83077323D01*
X120670000Y-90912667D01*
X120666323Y-90949999D01*
X120670000Y-90987332D01*
X120680997Y-91098985D01*
X120688556Y-91123904D01*
X120724453Y-91242245D01*
X120795025Y-91374275D01*
X120848986Y-91440026D01*
X120889999Y-91490000D01*
X120918997Y-91513798D01*
X121154292Y-91749093D01*
X121140764Y-91793691D01*
X121113057Y-92075000D01*
X121140764Y-92356309D01*
X121222818Y-92626808D01*
X121356068Y-92876101D01*
X121535392Y-93094608D01*
X121753899Y-93273932D01*
X121795000Y-93295901D01*
X121795001Y-93394099D01*
X121753899Y-93416068D01*
X121535392Y-93595392D01*
X121356068Y-93813899D01*
X121222818Y-94063192D01*
X121140764Y-94333691D01*
X121113057Y-94615000D01*
X121140764Y-94896309D01*
X121154292Y-94940906D01*
X120774003Y-95321196D01*
X120744999Y-95344999D01*
X120689871Y-95412174D01*
X120650026Y-95460724D01*
X120579455Y-95592753D01*
X120579454Y-95592754D01*
X120535997Y-95736015D01*
X120525000Y-95847668D01*
X120525000Y-95847678D01*
X120521324Y-95885000D01*
X120525000Y-95922323D01*
X120525001Y-97204099D01*
X120483899Y-97226068D01*
X120265392Y-97405392D01*
X120086068Y-97623899D01*
X119952818Y-97873192D01*
X119870764Y-98143691D01*
X119843057Y-98425000D01*
X119870764Y-98706309D01*
X119952818Y-98976808D01*
X120086068Y-99226101D01*
X120265392Y-99444608D01*
X120483899Y-99623932D01*
X120733192Y-99757182D01*
X121003691Y-99839236D01*
X121214508Y-99860000D01*
X121355492Y-99860000D01*
X121566309Y-99839236D01*
X121836808Y-99757182D01*
X122086101Y-99623932D01*
X122304608Y-99444608D01*
X122483932Y-99226101D01*
X122617182Y-98976808D01*
X122699236Y-98706309D01*
X122726943Y-98425000D01*
X122699236Y-98143691D01*
X122617182Y-97873192D01*
X122483932Y-97623899D01*
X122304608Y-97405392D01*
X122086101Y-97226068D01*
X122045000Y-97204099D01*
X122045000Y-96199801D01*
X122229094Y-96015708D01*
X122273691Y-96029236D01*
X122484508Y-96050000D01*
X122625492Y-96050000D01*
X122836309Y-96029236D01*
X123106808Y-95947182D01*
X123356101Y-95813932D01*
X123574608Y-95634608D01*
X123753932Y-95416101D01*
X123887182Y-95166808D01*
X123969236Y-94896309D01*
X123996943Y-94615000D01*
X123969236Y-94333691D01*
X123887182Y-94063192D01*
X123753932Y-93813899D01*
X123574608Y-93595392D01*
X123356101Y-93416068D01*
X123315000Y-93394099D01*
X123315000Y-93295901D01*
X123356101Y-93273932D01*
X123574608Y-93094608D01*
X123753932Y-92876101D01*
X123887182Y-92626808D01*
X123969236Y-92356309D01*
X123996943Y-92075000D01*
X123969236Y-91793691D01*
X123887182Y-91523192D01*
X123753932Y-91273899D01*
X123574608Y-91055392D01*
X123356101Y-90876068D01*
X123223142Y-90805000D01*
X123356101Y-90733932D01*
X123574608Y-90554608D01*
X123753932Y-90336101D01*
X123887182Y-90086808D01*
X123969236Y-89816309D01*
X123996943Y-89535000D01*
X123969236Y-89253691D01*
X123887182Y-88983192D01*
X123753932Y-88733899D01*
X123574608Y-88515392D01*
X123356101Y-88336068D01*
X123223142Y-88265000D01*
X123356101Y-88193932D01*
X123574608Y-88014608D01*
X123753932Y-87796101D01*
X123887182Y-87546808D01*
X123969236Y-87276309D01*
X123996943Y-86995000D01*
X123969236Y-86713691D01*
X123887182Y-86443192D01*
X123753932Y-86193899D01*
X123574608Y-85975392D01*
X123356101Y-85796068D01*
X123223142Y-85725000D01*
X123356101Y-85653932D01*
X123574608Y-85474608D01*
X123753932Y-85256101D01*
X123887182Y-85006808D01*
X123969236Y-84736309D01*
X123996943Y-84455000D01*
X123969236Y-84173691D01*
X123955708Y-84129093D01*
X128735598Y-79349204D01*
X128733057Y-79375000D01*
X128760764Y-79656309D01*
X128842818Y-79926808D01*
X128976068Y-80176101D01*
X129155392Y-80394608D01*
X129373899Y-80573932D01*
X129415000Y-80595901D01*
X129415001Y-80694099D01*
X129373899Y-80716068D01*
X129155392Y-80895392D01*
X128976068Y-81113899D01*
X128842818Y-81363192D01*
X128760764Y-81633691D01*
X128733057Y-81915000D01*
X128760764Y-82196309D01*
X128842818Y-82466808D01*
X128976068Y-82716101D01*
X129155392Y-82934608D01*
X129373899Y-83113932D01*
X129506858Y-83185000D01*
X129373899Y-83256068D01*
X129155392Y-83435392D01*
X128976068Y-83653899D01*
X128842818Y-83903192D01*
X128760764Y-84173691D01*
X128733057Y-84455000D01*
X128760764Y-84736309D01*
X128842818Y-85006808D01*
X128976068Y-85256101D01*
X129155392Y-85474608D01*
X129373899Y-85653932D01*
X129506858Y-85725000D01*
X129373899Y-85796068D01*
X129155392Y-85975392D01*
X128976068Y-86193899D01*
X128842818Y-86443192D01*
X128760764Y-86713691D01*
X128733057Y-86995000D01*
X128760764Y-87276309D01*
X128842818Y-87546808D01*
X128976068Y-87796101D01*
X129155392Y-88014608D01*
X129373899Y-88193932D01*
X129506858Y-88265000D01*
X129373899Y-88336068D01*
X129155392Y-88515392D01*
X128976068Y-88733899D01*
X128842818Y-88983192D01*
X128760764Y-89253691D01*
X128733057Y-89535000D01*
X128760764Y-89816309D01*
X128842818Y-90086808D01*
X128976068Y-90336101D01*
X129155392Y-90554608D01*
X129373899Y-90733932D01*
X129506858Y-90805000D01*
X129373899Y-90876068D01*
X129155392Y-91055392D01*
X128976068Y-91273899D01*
X128842818Y-91523192D01*
X128760764Y-91793691D01*
X128733057Y-92075000D01*
X128760764Y-92356309D01*
X128842818Y-92626808D01*
X128976068Y-92876101D01*
X129155392Y-93094608D01*
X129373899Y-93273932D01*
X129415000Y-93295901D01*
X129415001Y-93394099D01*
X129373899Y-93416068D01*
X129155392Y-93595392D01*
X128976068Y-93813899D01*
X128842818Y-94063192D01*
X128760764Y-94333691D01*
X128733057Y-94615000D01*
X128760764Y-94896309D01*
X128842818Y-95166808D01*
X128976068Y-95416101D01*
X129155392Y-95634608D01*
X129373899Y-95813932D01*
X129623192Y-95947182D01*
X129767785Y-95991043D01*
X128771901Y-96986928D01*
X128105000Y-96986928D01*
X127980518Y-96999188D01*
X127860820Y-97035498D01*
X127750506Y-97094463D01*
X127653815Y-97173815D01*
X127574463Y-97270506D01*
X127515498Y-97380820D01*
X127479188Y-97500518D01*
X127466928Y-97625000D01*
X127466928Y-99225000D01*
X127479188Y-99349482D01*
X127515498Y-99469180D01*
X127574463Y-99579494D01*
X127653815Y-99676185D01*
X127750506Y-99755537D01*
X127860820Y-99814502D01*
X127980518Y-99850812D01*
X128105000Y-99863072D01*
X128932127Y-99863072D01*
X128595907Y-100199292D01*
X128551309Y-100185764D01*
X128340492Y-100165000D01*
X128199508Y-100165000D01*
X127988691Y-100185764D01*
X127718192Y-100267818D01*
X127468899Y-100401068D01*
X127250392Y-100580392D01*
X127071068Y-100798899D01*
X127000000Y-100931858D01*
X126928932Y-100798899D01*
X126749608Y-100580392D01*
X126531101Y-100401068D01*
X126281808Y-100267818D01*
X126011309Y-100185764D01*
X125800492Y-100165000D01*
X125659508Y-100165000D01*
X125448691Y-100185764D01*
X125178192Y-100267818D01*
X124928899Y-100401068D01*
X124710392Y-100580392D01*
X124531068Y-100798899D01*
X124457421Y-100936682D01*
X124342385Y-100744869D01*
X124153414Y-100536481D01*
X123927420Y-100368963D01*
X123673087Y-100248754D01*
X123539039Y-100208096D01*
X123317000Y-100330085D01*
X123317000Y-101473000D01*
X123337000Y-101473000D01*
X123337000Y-101727000D01*
X123317000Y-101727000D01*
X123317000Y-102869915D01*
X123539039Y-102991904D01*
X123673087Y-102951246D01*
X123927420Y-102831037D01*
X124153414Y-102663519D01*
X124342385Y-102455131D01*
X124457421Y-102263318D01*
X124531068Y-102401101D01*
X124710392Y-102619608D01*
X124928899Y-102798932D01*
X124970000Y-102820901D01*
X124970001Y-107999099D01*
X124928899Y-108021068D01*
X124710392Y-108200392D01*
X124531068Y-108418899D01*
X124460000Y-108551858D01*
X124388932Y-108418899D01*
X124209608Y-108200392D01*
X123991101Y-108021068D01*
X123741808Y-107887818D01*
X123471309Y-107805764D01*
X123260492Y-107785000D01*
X123119508Y-107785000D01*
X122908691Y-107805764D01*
X122638192Y-107887818D01*
X122388899Y-108021068D01*
X122170392Y-108200392D01*
X121991068Y-108418899D01*
X121857818Y-108668192D01*
X121775764Y-108938691D01*
X121748057Y-109220000D01*
X121775764Y-109501309D01*
X121857818Y-109771808D01*
X121991068Y-110021101D01*
X122170392Y-110239608D01*
X122388899Y-110418932D01*
X122638192Y-110552182D01*
X122908691Y-110634236D01*
X123119508Y-110655000D01*
X123260492Y-110655000D01*
X123471309Y-110634236D01*
X123741808Y-110552182D01*
X123991101Y-110418932D01*
X124209608Y-110239608D01*
X124388932Y-110021101D01*
X124460000Y-109888142D01*
X124531068Y-110021101D01*
X124710392Y-110239608D01*
X124928899Y-110418932D01*
X125178192Y-110552182D01*
X125448691Y-110634236D01*
X125659508Y-110655000D01*
X125800492Y-110655000D01*
X126011309Y-110634236D01*
X126281808Y-110552182D01*
X126531101Y-110418932D01*
X126749608Y-110239608D01*
X126928932Y-110021101D01*
X127000000Y-109888142D01*
X127071068Y-110021101D01*
X127250392Y-110239608D01*
X127468899Y-110418932D01*
X127718192Y-110552182D01*
X127988691Y-110634236D01*
X128199508Y-110655000D01*
X128340492Y-110655000D01*
X128551309Y-110634236D01*
X128821808Y-110552182D01*
X129071101Y-110418932D01*
X129289608Y-110239608D01*
X129468932Y-110021101D01*
X129540000Y-109888142D01*
X129611068Y-110021101D01*
X129790392Y-110239608D01*
X130008899Y-110418932D01*
X130258192Y-110552182D01*
X130528691Y-110634236D01*
X130739508Y-110655000D01*
X130880492Y-110655000D01*
X131091309Y-110634236D01*
X131320001Y-110564864D01*
X131320001Y-110683197D01*
X130373906Y-111629292D01*
X130329309Y-111615764D01*
X130118492Y-111595000D01*
X129977508Y-111595000D01*
X129766691Y-111615764D01*
X129496192Y-111697818D01*
X129246899Y-111831068D01*
X129028392Y-112010392D01*
X128849068Y-112228899D01*
X128715818Y-112478192D01*
X128633764Y-112748691D01*
X128606057Y-113030000D01*
X128633764Y-113311309D01*
X128715818Y-113581808D01*
X128849068Y-113831101D01*
X129028392Y-114049608D01*
X129246899Y-114228932D01*
X129496192Y-114362182D01*
X129766691Y-114444236D01*
X129977508Y-114465000D01*
X130118492Y-114465000D01*
X130329309Y-114444236D01*
X130599808Y-114362182D01*
X130849101Y-114228932D01*
X131067608Y-114049608D01*
X131246932Y-113831101D01*
X131380182Y-113581808D01*
X131462236Y-113311309D01*
X131489943Y-113030000D01*
X131462236Y-112748691D01*
X131448708Y-112704094D01*
X132590001Y-111562801D01*
X132590001Y-112400195D01*
X132059003Y-112931194D01*
X132030000Y-112954996D01*
X132005153Y-112985273D01*
X131935027Y-113070721D01*
X131898384Y-113139275D01*
X131864455Y-113202751D01*
X131820998Y-113346012D01*
X131810001Y-113457665D01*
X131810001Y-113457675D01*
X131806325Y-113494997D01*
X131810001Y-113532320D01*
X131810002Y-118575196D01*
X125503930Y-124881269D01*
X125246184Y-124830000D01*
X124943816Y-124830000D01*
X124647257Y-124888989D01*
X124367905Y-125004701D01*
X124116495Y-125172688D01*
X123902688Y-125386495D01*
X123734701Y-125637905D01*
X123618989Y-125917257D01*
X123560000Y-126213816D01*
X123560000Y-126516184D01*
X123618989Y-126812743D01*
X123734701Y-127092095D01*
X123902688Y-127343505D01*
X124116495Y-127557312D01*
X124367905Y-127725299D01*
X124647257Y-127841011D01*
X124943816Y-127900000D01*
X125246184Y-127900000D01*
X125542743Y-127841011D01*
X125822095Y-127725299D01*
X126073505Y-127557312D01*
X126139944Y-127490873D01*
X126145498Y-127509180D01*
X126204463Y-127619494D01*
X126283815Y-127716185D01*
X126380506Y-127795537D01*
X126490820Y-127854502D01*
X126610518Y-127890812D01*
X126735000Y-127903072D01*
X128535000Y-127903072D01*
X128659482Y-127890812D01*
X128779180Y-127854502D01*
X128889494Y-127795537D01*
X128986185Y-127716185D01*
X129065537Y-127619494D01*
X129124502Y-127509180D01*
X129160812Y-127389482D01*
X129173072Y-127265000D01*
X129173072Y-125465000D01*
X129160812Y-125340518D01*
X129124502Y-125220820D01*
X129065537Y-125110506D01*
X128986185Y-125013815D01*
X128944882Y-124979919D01*
X132777236Y-121147565D01*
X133555000Y-121147565D01*
X133555000Y-121482435D01*
X133620330Y-121810872D01*
X133748479Y-122120252D01*
X133934523Y-122398687D01*
X134171313Y-122635477D01*
X134449748Y-122821521D01*
X134759128Y-122949670D01*
X135087565Y-123015000D01*
X135422435Y-123015000D01*
X135750872Y-122949670D01*
X136060252Y-122821521D01*
X136338687Y-122635477D01*
X136575477Y-122398687D01*
X136761521Y-122120252D01*
X136889670Y-121810872D01*
X136955000Y-121482435D01*
X136955000Y-121147565D01*
X136889670Y-120819128D01*
X136761521Y-120509748D01*
X136575477Y-120231313D01*
X136338687Y-119994523D01*
X136060252Y-119808479D01*
X135750872Y-119680330D01*
X135422435Y-119615000D01*
X135087565Y-119615000D01*
X134759128Y-119680330D01*
X134449748Y-119808479D01*
X134171313Y-119994523D01*
X133934523Y-120231313D01*
X133748479Y-120509748D01*
X133620330Y-120819128D01*
X133555000Y-121147565D01*
X132777236Y-121147565D01*
X134496004Y-119428798D01*
X134525001Y-119405001D01*
X134565730Y-119355373D01*
X134619974Y-119289277D01*
X134690546Y-119157247D01*
X134693845Y-119146371D01*
X134734003Y-119013986D01*
X134745000Y-118902333D01*
X134745000Y-118902324D01*
X134748676Y-118865001D01*
X134745000Y-118827678D01*
X134745000Y-118695901D01*
X134786101Y-118673932D01*
X135004608Y-118494608D01*
X135026689Y-118467702D01*
X138251903Y-118467702D01*
X138323486Y-118711671D01*
X138578996Y-118832571D01*
X138853184Y-118901300D01*
X139135512Y-118915217D01*
X139415130Y-118873787D01*
X139681292Y-118778603D01*
X139806514Y-118711671D01*
X139878097Y-118467702D01*
X139065000Y-117654605D01*
X138251903Y-118467702D01*
X135026689Y-118467702D01*
X135183932Y-118276101D01*
X135317182Y-118026808D01*
X135399236Y-117756309D01*
X135419998Y-117545512D01*
X137624783Y-117545512D01*
X137666213Y-117825130D01*
X137761397Y-118091292D01*
X137828329Y-118216514D01*
X138072298Y-118288097D01*
X138885395Y-117475000D01*
X138072298Y-116661903D01*
X137828329Y-116733486D01*
X137707429Y-116988996D01*
X137638700Y-117263184D01*
X137624783Y-117545512D01*
X135419998Y-117545512D01*
X135426943Y-117475000D01*
X135399236Y-117193691D01*
X135317182Y-116923192D01*
X135183932Y-116673899D01*
X135026690Y-116482298D01*
X138251903Y-116482298D01*
X139065000Y-117295395D01*
X139878097Y-116482298D01*
X139806514Y-116238329D01*
X139551004Y-116117429D01*
X139276816Y-116048700D01*
X138994488Y-116034783D01*
X138714870Y-116076213D01*
X138448708Y-116171397D01*
X138323486Y-116238329D01*
X138251903Y-116482298D01*
X135026690Y-116482298D01*
X135004608Y-116455392D01*
X134786101Y-116276068D01*
X134536808Y-116142818D01*
X134266309Y-116060764D01*
X134055492Y-116040000D01*
X133914508Y-116040000D01*
X133703691Y-116060764D01*
X133433192Y-116142818D01*
X133330001Y-116197975D01*
X133330001Y-114904754D01*
X133578996Y-115022571D01*
X133853184Y-115091300D01*
X134135512Y-115105217D01*
X134415130Y-115063787D01*
X134681292Y-114968603D01*
X134806514Y-114901671D01*
X134878097Y-114657702D01*
X134065000Y-113844605D01*
X134050858Y-113858748D01*
X133871253Y-113679143D01*
X133885395Y-113665000D01*
X134244605Y-113665000D01*
X135057702Y-114478097D01*
X135301671Y-114406514D01*
X135422571Y-114151004D01*
X135491300Y-113876816D01*
X135505217Y-113594488D01*
X135463787Y-113314870D01*
X135368603Y-113048708D01*
X135301671Y-112923486D01*
X135057702Y-112851903D01*
X134244605Y-113665000D01*
X133885395Y-113665000D01*
X133871253Y-113650858D01*
X134050858Y-113471253D01*
X134065000Y-113485395D01*
X134878097Y-112672298D01*
X134806514Y-112428329D01*
X134551004Y-112307429D01*
X134276816Y-112238700D01*
X134110000Y-112230477D01*
X134110000Y-110440901D01*
X134151101Y-110418932D01*
X134369608Y-110239608D01*
X134548932Y-110021101D01*
X134620000Y-109888142D01*
X134691068Y-110021101D01*
X134870392Y-110239608D01*
X135088899Y-110418932D01*
X135338192Y-110552182D01*
X135608691Y-110634236D01*
X135819508Y-110655000D01*
X135960492Y-110655000D01*
X136171309Y-110634236D01*
X136441808Y-110552182D01*
X136691101Y-110418932D01*
X136909608Y-110239608D01*
X137088932Y-110021101D01*
X137160000Y-109888142D01*
X137231068Y-110021101D01*
X137410392Y-110239608D01*
X137628899Y-110418932D01*
X137878192Y-110552182D01*
X138148691Y-110634236D01*
X138359508Y-110655000D01*
X138500492Y-110655000D01*
X138711309Y-110634236D01*
X138981808Y-110552182D01*
X139231101Y-110418932D01*
X139449608Y-110239608D01*
X139628932Y-110021101D01*
X139762182Y-109771808D01*
X139844236Y-109501309D01*
X139871943Y-109220000D01*
X139844236Y-108938691D01*
X139762182Y-108668192D01*
X139628932Y-108418899D01*
X139449608Y-108200392D01*
X139231101Y-108021068D01*
X138981808Y-107887818D01*
X138711309Y-107805764D01*
X138500492Y-107785000D01*
X138359508Y-107785000D01*
X138148691Y-107805764D01*
X137878192Y-107887818D01*
X137628899Y-108021068D01*
X137410392Y-108200392D01*
X137231068Y-108418899D01*
X137160000Y-108551858D01*
X137088932Y-108418899D01*
X136909608Y-108200392D01*
X136691101Y-108021068D01*
X136441808Y-107887818D01*
X136171309Y-107805764D01*
X135960492Y-107785000D01*
X135819508Y-107785000D01*
X135608691Y-107805764D01*
X135338192Y-107887818D01*
X135088899Y-108021068D01*
X134870392Y-108200392D01*
X134691068Y-108418899D01*
X134620000Y-108551858D01*
X134548932Y-108418899D01*
X134369608Y-108200392D01*
X134151101Y-108021068D01*
X133901808Y-107887818D01*
X133631309Y-107805764D01*
X133420492Y-107785000D01*
X133279508Y-107785000D01*
X133068691Y-107805764D01*
X132840000Y-107875136D01*
X132840000Y-103827711D01*
X132883937Y-103783774D01*
X132997205Y-103614256D01*
X133075226Y-103425898D01*
X133115000Y-103225939D01*
X133115000Y-103022061D01*
X133114338Y-103018732D01*
X133279508Y-103035000D01*
X133420492Y-103035000D01*
X133631309Y-103014236D01*
X133901808Y-102932182D01*
X134151101Y-102798932D01*
X134369608Y-102619608D01*
X134548932Y-102401101D01*
X134620000Y-102268142D01*
X134691068Y-102401101D01*
X134870392Y-102619608D01*
X135088899Y-102798932D01*
X135338192Y-102932182D01*
X135608691Y-103014236D01*
X135819508Y-103035000D01*
X135960492Y-103035000D01*
X136171309Y-103014236D01*
X136441808Y-102932182D01*
X136691101Y-102798932D01*
X136909608Y-102619608D01*
X137002419Y-102506518D01*
X137004188Y-102524482D01*
X137040498Y-102644180D01*
X137099463Y-102754494D01*
X137178815Y-102851185D01*
X137275506Y-102930537D01*
X137385820Y-102989502D01*
X137505518Y-103025812D01*
X137630000Y-103038072D01*
X139230000Y-103038072D01*
X139354482Y-103025812D01*
X139430002Y-103002903D01*
X139430002Y-103970196D01*
X137755199Y-105645000D01*
X137693061Y-105645000D01*
X137493102Y-105684774D01*
X137304744Y-105762795D01*
X137135226Y-105876063D01*
X136991063Y-106020226D01*
X136877795Y-106189744D01*
X136799774Y-106378102D01*
X136760000Y-106578061D01*
X136760000Y-106781939D01*
X136799774Y-106981898D01*
X136877795Y-107170256D01*
X136991063Y-107339774D01*
X137135226Y-107483937D01*
X137304744Y-107597205D01*
X137493102Y-107675226D01*
X137693061Y-107715000D01*
X137896939Y-107715000D01*
X138096898Y-107675226D01*
X138285256Y-107597205D01*
X138454774Y-107483937D01*
X138598937Y-107339774D01*
X138712205Y-107170256D01*
X138790226Y-106981898D01*
X138830000Y-106781939D01*
X138830000Y-106719801D01*
X140185001Y-105364801D01*
X140185001Y-112758268D01*
X140179637Y-112750241D01*
X139979759Y-112550363D01*
X139744727Y-112393320D01*
X139483574Y-112285147D01*
X139206335Y-112230000D01*
X138923665Y-112230000D01*
X138646426Y-112285147D01*
X138385273Y-112393320D01*
X138150241Y-112550363D01*
X137950363Y-112750241D01*
X137793320Y-112985273D01*
X137685147Y-113246426D01*
X137630000Y-113523665D01*
X137630000Y-113806335D01*
X137685147Y-114083574D01*
X137793320Y-114344727D01*
X137950363Y-114579759D01*
X138150241Y-114779637D01*
X138385273Y-114936680D01*
X138646426Y-115044853D01*
X138923665Y-115100000D01*
X139206335Y-115100000D01*
X139483574Y-115044853D01*
X139744727Y-114936680D01*
X139979759Y-114779637D01*
X140179637Y-114579759D01*
X140185001Y-114571732D01*
X140185001Y-116699254D01*
X140057702Y-116661903D01*
X139244605Y-117475000D01*
X140057702Y-118288097D01*
X140185001Y-118250746D01*
X140185001Y-133835000D01*
X136821387Y-133835000D01*
X136845812Y-133754482D01*
X136858072Y-133630000D01*
X136855000Y-133000750D01*
X136696250Y-132842000D01*
X135382000Y-132842000D01*
X135382000Y-132862000D01*
X135128000Y-132862000D01*
X135128000Y-132842000D01*
X133813750Y-132842000D01*
X133655000Y-133000750D01*
X133651928Y-133630000D01*
X133664188Y-133754482D01*
X133688613Y-133835000D01*
X119041387Y-133835000D01*
X119065812Y-133754482D01*
X119078072Y-133630000D01*
X119075000Y-133000750D01*
X118916250Y-132842000D01*
X117602000Y-132842000D01*
X117602000Y-132862000D01*
X117348000Y-132862000D01*
X117348000Y-132842000D01*
X116033750Y-132842000D01*
X115875000Y-133000750D01*
X115871928Y-133630000D01*
X115884188Y-133754482D01*
X115908613Y-133835000D01*
X112545000Y-133835000D01*
X112545000Y-130926413D01*
X112556119Y-129447565D01*
X115775000Y-129447565D01*
X115775000Y-129782435D01*
X115840330Y-130110872D01*
X115968479Y-130420252D01*
X116154523Y-130698687D01*
X116391313Y-130935477D01*
X116669748Y-131121521D01*
X116770140Y-131163105D01*
X116510000Y-131161928D01*
X116385518Y-131174188D01*
X116265820Y-131210498D01*
X116155506Y-131269463D01*
X116058815Y-131348815D01*
X115979463Y-131445506D01*
X115920498Y-131555820D01*
X115884188Y-131675518D01*
X115871928Y-131800000D01*
X115875000Y-132429250D01*
X116033750Y-132588000D01*
X117348000Y-132588000D01*
X117348000Y-132568000D01*
X117602000Y-132568000D01*
X117602000Y-132588000D01*
X118916250Y-132588000D01*
X119075000Y-132429250D01*
X119078072Y-131800000D01*
X119065812Y-131675518D01*
X119029502Y-131555820D01*
X118970537Y-131445506D01*
X118891185Y-131348815D01*
X118794494Y-131269463D01*
X118684180Y-131210498D01*
X118564482Y-131174188D01*
X118440000Y-131161928D01*
X118179860Y-131163105D01*
X118280252Y-131121521D01*
X118558687Y-130935477D01*
X118795477Y-130698687D01*
X118981521Y-130420252D01*
X119109670Y-130110872D01*
X119175000Y-129782435D01*
X119175000Y-129447565D01*
X133555000Y-129447565D01*
X133555000Y-129782435D01*
X133620330Y-130110872D01*
X133748479Y-130420252D01*
X133934523Y-130698687D01*
X134171313Y-130935477D01*
X134449748Y-131121521D01*
X134550140Y-131163105D01*
X134290000Y-131161928D01*
X134165518Y-131174188D01*
X134045820Y-131210498D01*
X133935506Y-131269463D01*
X133838815Y-131348815D01*
X133759463Y-131445506D01*
X133700498Y-131555820D01*
X133664188Y-131675518D01*
X133651928Y-131800000D01*
X133655000Y-132429250D01*
X133813750Y-132588000D01*
X135128000Y-132588000D01*
X135128000Y-132568000D01*
X135382000Y-132568000D01*
X135382000Y-132588000D01*
X136696250Y-132588000D01*
X136855000Y-132429250D01*
X136858072Y-131800000D01*
X136845812Y-131675518D01*
X136809502Y-131555820D01*
X136750537Y-131445506D01*
X136671185Y-131348815D01*
X136574494Y-131269463D01*
X136464180Y-131210498D01*
X136344482Y-131174188D01*
X136220000Y-131161928D01*
X135959860Y-131163105D01*
X136060252Y-131121521D01*
X136338687Y-130935477D01*
X136575477Y-130698687D01*
X136761521Y-130420252D01*
X136889670Y-130110872D01*
X136955000Y-129782435D01*
X136955000Y-129447565D01*
X136889670Y-129119128D01*
X136761521Y-128809748D01*
X136575477Y-128531313D01*
X136338687Y-128294523D01*
X136060252Y-128108479D01*
X135750872Y-127980330D01*
X135422435Y-127915000D01*
X135087565Y-127915000D01*
X134759128Y-127980330D01*
X134449748Y-128108479D01*
X134171313Y-128294523D01*
X133934523Y-128531313D01*
X133748479Y-128809748D01*
X133620330Y-129119128D01*
X133555000Y-129447565D01*
X119175000Y-129447565D01*
X119109670Y-129119128D01*
X118981521Y-128809748D01*
X118795477Y-128531313D01*
X118558687Y-128294523D01*
X118280252Y-128108479D01*
X117970872Y-127980330D01*
X117642435Y-127915000D01*
X117307565Y-127915000D01*
X116979128Y-127980330D01*
X116669748Y-128108479D01*
X116391313Y-128294523D01*
X116154523Y-128531313D01*
X115968479Y-128809748D01*
X115840330Y-129119128D01*
X115775000Y-129447565D01*
X112556119Y-129447565D01*
X112618525Y-121147565D01*
X115775000Y-121147565D01*
X115775000Y-121482435D01*
X115840330Y-121810872D01*
X115968479Y-122120252D01*
X116154523Y-122398687D01*
X116391313Y-122635477D01*
X116669748Y-122821521D01*
X116979128Y-122949670D01*
X117307565Y-123015000D01*
X117642435Y-123015000D01*
X117970872Y-122949670D01*
X118280252Y-122821521D01*
X118558687Y-122635477D01*
X118795477Y-122398687D01*
X118981521Y-122120252D01*
X119109670Y-121810872D01*
X119175000Y-121482435D01*
X119175000Y-121147565D01*
X119109670Y-120819128D01*
X118981521Y-120509748D01*
X118795477Y-120231313D01*
X118558687Y-119994523D01*
X118280252Y-119808479D01*
X117970872Y-119680330D01*
X117642435Y-119615000D01*
X117307565Y-119615000D01*
X116979128Y-119680330D01*
X116669748Y-119808479D01*
X116391313Y-119994523D01*
X116154523Y-120231313D01*
X115968479Y-120509748D01*
X115840330Y-120819128D01*
X115775000Y-121147565D01*
X112618525Y-121147565D01*
X112831169Y-92865915D01*
X112969314Y-92865915D01*
X112972990Y-92903237D01*
X112972991Y-113060657D01*
X112969314Y-113097990D01*
X112972991Y-113135323D01*
X112977293Y-113178996D01*
X112983988Y-113246975D01*
X113027444Y-113390236D01*
X113098016Y-113522266D01*
X113157260Y-113594454D01*
X113192990Y-113637991D01*
X113221988Y-113661789D01*
X113494203Y-113934004D01*
X113471487Y-114008889D01*
X113442815Y-114300000D01*
X113471487Y-114591111D01*
X113556401Y-114871034D01*
X113694294Y-115129014D01*
X113879866Y-115355134D01*
X114105986Y-115540706D01*
X114160791Y-115570000D01*
X114105986Y-115599294D01*
X113879866Y-115784866D01*
X113694294Y-116010986D01*
X113556401Y-116268966D01*
X113471487Y-116548889D01*
X113442815Y-116840000D01*
X113471487Y-117131111D01*
X113556401Y-117411034D01*
X113694294Y-117669014D01*
X113879866Y-117895134D01*
X114105986Y-118080706D01*
X114363966Y-118218599D01*
X114643889Y-118303513D01*
X114862050Y-118325000D01*
X115007950Y-118325000D01*
X115226111Y-118303513D01*
X115506034Y-118218599D01*
X115764014Y-118080706D01*
X115990134Y-117895134D01*
X116175706Y-117669014D01*
X116210201Y-117604477D01*
X116279822Y-117721355D01*
X116474731Y-117937588D01*
X116708080Y-118111641D01*
X116970901Y-118236825D01*
X117118110Y-118281476D01*
X117348000Y-118160155D01*
X117348000Y-116967000D01*
X117602000Y-116967000D01*
X117602000Y-118160155D01*
X117831890Y-118281476D01*
X117979099Y-118236825D01*
X118241920Y-118111641D01*
X118475269Y-117937588D01*
X118670178Y-117721355D01*
X118745000Y-117595745D01*
X118819822Y-117721355D01*
X119014731Y-117937588D01*
X119248080Y-118111641D01*
X119510901Y-118236825D01*
X119658110Y-118281476D01*
X119888000Y-118160155D01*
X119888000Y-116967000D01*
X120142000Y-116967000D01*
X120142000Y-118160155D01*
X120371890Y-118281476D01*
X120519099Y-118236825D01*
X120781920Y-118111641D01*
X121015269Y-117937588D01*
X121210178Y-117721355D01*
X121285000Y-117595745D01*
X121359822Y-117721355D01*
X121554731Y-117937588D01*
X121788080Y-118111641D01*
X122050901Y-118236825D01*
X122198110Y-118281476D01*
X122428000Y-118160155D01*
X122428000Y-116967000D01*
X120142000Y-116967000D01*
X119888000Y-116967000D01*
X117602000Y-116967000D01*
X117348000Y-116967000D01*
X117328000Y-116967000D01*
X117328000Y-116713000D01*
X117348000Y-116713000D01*
X117348000Y-114427000D01*
X117602000Y-114427000D01*
X117602000Y-116713000D01*
X119888000Y-116713000D01*
X119888000Y-114427000D01*
X120142000Y-114427000D01*
X120142000Y-116713000D01*
X122428000Y-116713000D01*
X122428000Y-114427000D01*
X120142000Y-114427000D01*
X119888000Y-114427000D01*
X117602000Y-114427000D01*
X117348000Y-114427000D01*
X117328000Y-114427000D01*
X117328000Y-114173000D01*
X117348000Y-114173000D01*
X117348000Y-112979845D01*
X117602000Y-112979845D01*
X117602000Y-114173000D01*
X119888000Y-114173000D01*
X119888000Y-112979845D01*
X120142000Y-112979845D01*
X120142000Y-114173000D01*
X122428000Y-114173000D01*
X122428000Y-112979845D01*
X122682000Y-112979845D01*
X122682000Y-114173000D01*
X122702000Y-114173000D01*
X122702000Y-114427000D01*
X122682000Y-114427000D01*
X122682000Y-116713000D01*
X122702000Y-116713000D01*
X122702000Y-116967000D01*
X122682000Y-116967000D01*
X122682000Y-118160155D01*
X122911890Y-118281476D01*
X123059099Y-118236825D01*
X123321920Y-118111641D01*
X123555269Y-117937588D01*
X123631034Y-117853534D01*
X123655498Y-117934180D01*
X123714463Y-118044494D01*
X123793815Y-118141185D01*
X123890506Y-118220537D01*
X124000820Y-118279502D01*
X124120518Y-118315812D01*
X124245000Y-118328072D01*
X125945000Y-118328072D01*
X126069482Y-118315812D01*
X126189180Y-118279502D01*
X126299494Y-118220537D01*
X126396185Y-118141185D01*
X126475537Y-118044494D01*
X126516069Y-117968665D01*
X128613000Y-117968665D01*
X128613000Y-118251335D01*
X128668147Y-118528574D01*
X128776320Y-118789727D01*
X128933363Y-119024759D01*
X129133241Y-119224637D01*
X129368273Y-119381680D01*
X129629426Y-119489853D01*
X129906665Y-119545000D01*
X130189335Y-119545000D01*
X130466574Y-119489853D01*
X130727727Y-119381680D01*
X130962759Y-119224637D01*
X131162637Y-119024759D01*
X131319680Y-118789727D01*
X131427853Y-118528574D01*
X131483000Y-118251335D01*
X131483000Y-117968665D01*
X131427853Y-117691426D01*
X131319680Y-117430273D01*
X131162637Y-117195241D01*
X130962759Y-116995363D01*
X130727727Y-116838320D01*
X130466574Y-116730147D01*
X130189335Y-116675000D01*
X129906665Y-116675000D01*
X129629426Y-116730147D01*
X129368273Y-116838320D01*
X129133241Y-116995363D01*
X128933363Y-117195241D01*
X128776320Y-117430273D01*
X128668147Y-117691426D01*
X128613000Y-117968665D01*
X126516069Y-117968665D01*
X126534502Y-117934180D01*
X126570812Y-117814482D01*
X126583072Y-117690000D01*
X126583072Y-115990000D01*
X126570812Y-115865518D01*
X126534502Y-115745820D01*
X126475537Y-115635506D01*
X126396185Y-115538815D01*
X126299494Y-115459463D01*
X126189180Y-115400498D01*
X126120313Y-115379607D01*
X126150134Y-115355134D01*
X126335706Y-115129014D01*
X126473599Y-114871034D01*
X126558513Y-114591111D01*
X126587185Y-114300000D01*
X126558513Y-114008889D01*
X126473599Y-113728966D01*
X126335706Y-113470986D01*
X126150134Y-113244866D01*
X125924014Y-113059294D01*
X125666034Y-112921401D01*
X125386111Y-112836487D01*
X125167950Y-112815000D01*
X125022050Y-112815000D01*
X124803889Y-112836487D01*
X124523966Y-112921401D01*
X124265986Y-113059294D01*
X124039866Y-113244866D01*
X123854294Y-113470986D01*
X123819799Y-113535523D01*
X123750178Y-113418645D01*
X123555269Y-113202412D01*
X123321920Y-113028359D01*
X123059099Y-112903175D01*
X122911890Y-112858524D01*
X122682000Y-112979845D01*
X122428000Y-112979845D01*
X122198110Y-112858524D01*
X122050901Y-112903175D01*
X121788080Y-113028359D01*
X121554731Y-113202412D01*
X121359822Y-113418645D01*
X121285000Y-113544255D01*
X121210178Y-113418645D01*
X121015269Y-113202412D01*
X120781920Y-113028359D01*
X120519099Y-112903175D01*
X120371890Y-112858524D01*
X120142000Y-112979845D01*
X119888000Y-112979845D01*
X119658110Y-112858524D01*
X119510901Y-112903175D01*
X119248080Y-113028359D01*
X119014731Y-113202412D01*
X118819822Y-113418645D01*
X118745000Y-113544255D01*
X118670178Y-113418645D01*
X118475269Y-113202412D01*
X118241920Y-113028359D01*
X117979099Y-112903175D01*
X117831890Y-112858524D01*
X117602000Y-112979845D01*
X117348000Y-112979845D01*
X117118110Y-112858524D01*
X116970901Y-112903175D01*
X116708080Y-113028359D01*
X116474731Y-113202412D01*
X116279822Y-113418645D01*
X116210201Y-113535523D01*
X116175706Y-113470986D01*
X115990134Y-113244866D01*
X115764014Y-113059294D01*
X115506034Y-112921401D01*
X115226111Y-112836487D01*
X115007950Y-112815000D01*
X114862050Y-112815000D01*
X114643889Y-112836487D01*
X114569004Y-112859203D01*
X114492990Y-112783189D01*
X114492990Y-110590146D01*
X114516426Y-110599853D01*
X114793665Y-110655000D01*
X115076335Y-110655000D01*
X115353574Y-110599853D01*
X115614727Y-110491680D01*
X115849759Y-110334637D01*
X116049637Y-110134759D01*
X116206680Y-109899727D01*
X116314853Y-109638574D01*
X116370000Y-109361335D01*
X116370000Y-109078665D01*
X117945000Y-109078665D01*
X117945000Y-109361335D01*
X118000147Y-109638574D01*
X118108320Y-109899727D01*
X118265363Y-110134759D01*
X118465241Y-110334637D01*
X118700273Y-110491680D01*
X118961426Y-110599853D01*
X119238665Y-110655000D01*
X119521335Y-110655000D01*
X119798574Y-110599853D01*
X120059727Y-110491680D01*
X120294759Y-110334637D01*
X120494637Y-110134759D01*
X120651680Y-109899727D01*
X120759853Y-109638574D01*
X120815000Y-109361335D01*
X120815000Y-109078665D01*
X120759853Y-108801426D01*
X120651680Y-108540273D01*
X120494637Y-108305241D01*
X120294759Y-108105363D01*
X120059727Y-107948320D01*
X119798574Y-107840147D01*
X119521335Y-107785000D01*
X119238665Y-107785000D01*
X118961426Y-107840147D01*
X118700273Y-107948320D01*
X118465241Y-108105363D01*
X118265363Y-108305241D01*
X118108320Y-108540273D01*
X118000147Y-108801426D01*
X117945000Y-109078665D01*
X116370000Y-109078665D01*
X116314853Y-108801426D01*
X116206680Y-108540273D01*
X116049637Y-108305241D01*
X115849759Y-108105363D01*
X115614727Y-107948320D01*
X115353574Y-107840147D01*
X115076335Y-107785000D01*
X114793665Y-107785000D01*
X114516426Y-107840147D01*
X114492990Y-107849854D01*
X114492990Y-105503705D01*
X114585961Y-105531904D01*
X114808000Y-105409915D01*
X114808000Y-104267000D01*
X115062000Y-104267000D01*
X115062000Y-105409915D01*
X115284039Y-105531904D01*
X115418087Y-105491246D01*
X115672420Y-105371037D01*
X115898414Y-105203519D01*
X116087385Y-104995131D01*
X116232070Y-104753881D01*
X116326909Y-104489040D01*
X116205624Y-104267000D01*
X115062000Y-104267000D01*
X114808000Y-104267000D01*
X114788000Y-104267000D01*
X114788000Y-104078665D01*
X117945000Y-104078665D01*
X117945000Y-104361335D01*
X118000147Y-104638574D01*
X118108320Y-104899727D01*
X118265363Y-105134759D01*
X118465241Y-105334637D01*
X118700273Y-105491680D01*
X118961426Y-105599853D01*
X119238665Y-105655000D01*
X119521335Y-105655000D01*
X119798574Y-105599853D01*
X120059727Y-105491680D01*
X120294759Y-105334637D01*
X120494637Y-105134759D01*
X120651680Y-104899727D01*
X120759853Y-104638574D01*
X120815000Y-104361335D01*
X120815000Y-104078665D01*
X120759853Y-103801426D01*
X120651680Y-103540273D01*
X120494637Y-103305241D01*
X120294759Y-103105363D01*
X120059727Y-102948320D01*
X119798574Y-102840147D01*
X119521335Y-102785000D01*
X119238665Y-102785000D01*
X118961426Y-102840147D01*
X118700273Y-102948320D01*
X118465241Y-103105363D01*
X118265363Y-103305241D01*
X118108320Y-103540273D01*
X118000147Y-103801426D01*
X117945000Y-104078665D01*
X114788000Y-104078665D01*
X114788000Y-104013000D01*
X114808000Y-104013000D01*
X114808000Y-102870085D01*
X115062000Y-102870085D01*
X115062000Y-104013000D01*
X116205624Y-104013000D01*
X116326909Y-103790960D01*
X116232070Y-103526119D01*
X116087385Y-103284869D01*
X115898414Y-103076481D01*
X115672420Y-102908963D01*
X115418087Y-102788754D01*
X115284039Y-102748096D01*
X115062000Y-102870085D01*
X114808000Y-102870085D01*
X114585961Y-102748096D01*
X114492990Y-102776295D01*
X114492990Y-102509072D01*
X115558000Y-102509072D01*
X115682482Y-102496812D01*
X115802180Y-102460502D01*
X115912494Y-102401537D01*
X116009185Y-102322185D01*
X116088537Y-102225494D01*
X116147502Y-102115180D01*
X116183812Y-101995482D01*
X116196072Y-101871000D01*
X116196072Y-101441040D01*
X117226091Y-101441040D01*
X117320930Y-101705881D01*
X117465615Y-101947131D01*
X117654586Y-102155519D01*
X117880580Y-102323037D01*
X118134913Y-102443246D01*
X118268961Y-102483904D01*
X118491000Y-102361915D01*
X118491000Y-101219000D01*
X118745000Y-101219000D01*
X118745000Y-102361915D01*
X118967039Y-102483904D01*
X119101087Y-102443246D01*
X119355420Y-102323037D01*
X119581414Y-102155519D01*
X119768653Y-101949040D01*
X121798091Y-101949040D01*
X121892930Y-102213881D01*
X122037615Y-102455131D01*
X122226586Y-102663519D01*
X122452580Y-102831037D01*
X122706913Y-102951246D01*
X122840961Y-102991904D01*
X123063000Y-102869915D01*
X123063000Y-101727000D01*
X121919376Y-101727000D01*
X121798091Y-101949040D01*
X119768653Y-101949040D01*
X119770385Y-101947131D01*
X119915070Y-101705881D01*
X120009909Y-101441040D01*
X119906082Y-101250960D01*
X121798091Y-101250960D01*
X121919376Y-101473000D01*
X123063000Y-101473000D01*
X123063000Y-100330085D01*
X122840961Y-100208096D01*
X122706913Y-100248754D01*
X122452580Y-100368963D01*
X122226586Y-100536481D01*
X122037615Y-100744869D01*
X121892930Y-100986119D01*
X121798091Y-101250960D01*
X119906082Y-101250960D01*
X119888624Y-101219000D01*
X118745000Y-101219000D01*
X118491000Y-101219000D01*
X117347376Y-101219000D01*
X117226091Y-101441040D01*
X116196072Y-101441040D01*
X116196072Y-100821000D01*
X116188386Y-100742960D01*
X117226091Y-100742960D01*
X117347376Y-100965000D01*
X118491000Y-100965000D01*
X118491000Y-99822085D01*
X118745000Y-99822085D01*
X118745000Y-100965000D01*
X119888624Y-100965000D01*
X120009909Y-100742960D01*
X119915070Y-100478119D01*
X119770385Y-100236869D01*
X119581414Y-100028481D01*
X119355420Y-99860963D01*
X119101087Y-99740754D01*
X118967039Y-99700096D01*
X118745000Y-99822085D01*
X118491000Y-99822085D01*
X118268961Y-99700096D01*
X118134913Y-99740754D01*
X117880580Y-99860963D01*
X117654586Y-100028481D01*
X117465615Y-100236869D01*
X117320930Y-100478119D01*
X117226091Y-100742960D01*
X116188386Y-100742960D01*
X116183812Y-100696518D01*
X116147502Y-100576820D01*
X116112907Y-100512098D01*
X116176215Y-100303400D01*
X116198612Y-100076000D01*
X116184381Y-99931515D01*
X117605004Y-98510893D01*
X117634001Y-98487096D01*
X117728974Y-98371371D01*
X117799546Y-98239342D01*
X117843003Y-98096081D01*
X117854000Y-97984428D01*
X117854000Y-97984420D01*
X117857676Y-97947095D01*
X117854000Y-97909770D01*
X117854000Y-97227371D01*
X117938273Y-97283680D01*
X118199426Y-97391853D01*
X118476665Y-97447000D01*
X118759335Y-97447000D01*
X119036574Y-97391853D01*
X119297727Y-97283680D01*
X119532759Y-97126637D01*
X119732637Y-96926759D01*
X119889680Y-96691727D01*
X119997853Y-96430574D01*
X120053000Y-96153335D01*
X120053000Y-95870665D01*
X119997853Y-95593426D01*
X119889680Y-95332273D01*
X119732637Y-95097241D01*
X119532759Y-94897363D01*
X119297727Y-94740320D01*
X119036574Y-94632147D01*
X118759335Y-94577000D01*
X118476665Y-94577000D01*
X118199426Y-94632147D01*
X117938273Y-94740320D01*
X117854000Y-94796629D01*
X117854000Y-93700607D01*
X117931903Y-93622704D01*
X118003486Y-93866671D01*
X118258996Y-93987571D01*
X118533184Y-94056300D01*
X118815512Y-94070217D01*
X119095130Y-94028787D01*
X119361292Y-93933603D01*
X119486514Y-93866671D01*
X119558097Y-93622702D01*
X118745000Y-92809605D01*
X118730858Y-92823748D01*
X118551253Y-92644143D01*
X118565395Y-92630000D01*
X118924605Y-92630000D01*
X119737702Y-93443097D01*
X119981671Y-93371514D01*
X120102571Y-93116004D01*
X120171300Y-92841816D01*
X120185217Y-92559488D01*
X120143787Y-92279870D01*
X120048603Y-92013708D01*
X119981671Y-91888486D01*
X119737702Y-91816903D01*
X118924605Y-92630000D01*
X118565395Y-92630000D01*
X118551253Y-92615858D01*
X118730858Y-92436253D01*
X118745000Y-92450395D01*
X119558097Y-91637298D01*
X119486514Y-91393329D01*
X119231004Y-91272429D01*
X118956816Y-91203700D01*
X118674488Y-91189783D01*
X118394870Y-91231213D01*
X118128708Y-91326397D01*
X118003486Y-91393329D01*
X117931903Y-91637296D01*
X117854000Y-91559393D01*
X117854000Y-88760512D01*
X118065273Y-88901680D01*
X118326426Y-89009853D01*
X118603665Y-89065000D01*
X118886335Y-89065000D01*
X119163574Y-89009853D01*
X119424727Y-88901680D01*
X119659759Y-88744637D01*
X119859637Y-88544759D01*
X120016680Y-88309727D01*
X120124853Y-88048574D01*
X120180000Y-87771335D01*
X120180000Y-87488665D01*
X120124853Y-87211426D01*
X120016680Y-86950273D01*
X119859637Y-86715241D01*
X119659759Y-86515363D01*
X119424727Y-86358320D01*
X119419971Y-86356350D01*
X119546101Y-86288932D01*
X119764608Y-86109608D01*
X119943932Y-85891101D01*
X120077182Y-85641808D01*
X120159236Y-85371309D01*
X120186943Y-85090000D01*
X120159236Y-84808691D01*
X120145708Y-84764094D01*
X120381005Y-84528797D01*
X120410002Y-84505000D01*
X120504975Y-84389275D01*
X120575547Y-84257246D01*
X120619004Y-84113985D01*
X120630001Y-84002332D01*
X120630001Y-84002324D01*
X120633677Y-83964999D01*
X120630001Y-83927674D01*
X120630001Y-64070126D01*
X120633678Y-64032793D01*
X120619004Y-63883807D01*
X120575547Y-63740546D01*
X120504975Y-63608517D01*
X120433800Y-63521790D01*
X120410002Y-63492792D01*
X120381003Y-63468993D01*
X120326413Y-63414404D01*
X120532312Y-63208505D01*
X120590000Y-63122169D01*
X120647688Y-63208505D01*
X120861495Y-63422312D01*
X121112905Y-63590299D01*
X121392257Y-63706011D01*
X121688816Y-63765000D01*
X121991184Y-63765000D01*
X122287743Y-63706011D01*
X122567095Y-63590299D01*
X122818505Y-63422312D01*
X123032312Y-63208505D01*
X123200299Y-62957095D01*
X123316011Y-62677743D01*
X123375000Y-62381184D01*
X123375000Y-62078816D01*
X123316011Y-61782257D01*
X123200299Y-61502905D01*
X123032312Y-61251495D01*
X122818505Y-61037688D01*
X122567095Y-60869701D01*
X122287743Y-60753989D01*
X121991184Y-60695000D01*
X121688816Y-60695000D01*
X121392257Y-60753989D01*
X121112905Y-60869701D01*
X120861495Y-61037688D01*
X120647688Y-61251495D01*
X120590000Y-61337831D01*
X120532312Y-61251495D01*
X120318505Y-61037688D01*
X120067095Y-60869701D01*
X119787743Y-60753989D01*
X119491184Y-60695000D01*
X119188816Y-60695000D01*
X118892257Y-60753989D01*
X118612905Y-60869701D01*
X118361495Y-61037688D01*
X118147688Y-61251495D01*
X118090000Y-61337831D01*
X118032312Y-61251495D01*
X117818505Y-61037688D01*
X117567095Y-60869701D01*
X117287743Y-60753989D01*
X116991184Y-60695000D01*
X116688816Y-60695000D01*
X116392257Y-60753989D01*
X116112905Y-60869701D01*
X115861495Y-61037688D01*
X115647688Y-61251495D01*
X115479701Y-61502905D01*
X115363989Y-61782257D01*
X115305000Y-62078816D01*
X115305000Y-62381184D01*
X115363989Y-62677743D01*
X115479701Y-62957095D01*
X115647688Y-63208505D01*
X115861495Y-63422312D01*
X116082973Y-63570299D01*
X116090998Y-63651777D01*
X116134454Y-63795038D01*
X116205026Y-63927068D01*
X116261155Y-63995460D01*
X116300000Y-64042793D01*
X116328998Y-64066591D01*
X117985000Y-65722594D01*
X117985001Y-76031928D01*
X117945000Y-76031928D01*
X117820518Y-76044188D01*
X117700820Y-76080498D01*
X117590506Y-76139463D01*
X117493815Y-76218815D01*
X117414463Y-76315506D01*
X117355498Y-76425820D01*
X117319188Y-76545518D01*
X117306928Y-76670000D01*
X117306928Y-78270000D01*
X117319188Y-78394482D01*
X117355498Y-78514180D01*
X117414463Y-78624494D01*
X117493815Y-78721185D01*
X117590506Y-78800537D01*
X117700820Y-78859502D01*
X117820518Y-78895812D01*
X117945000Y-78908072D01*
X119110001Y-78908072D01*
X119110001Y-83650197D01*
X119070906Y-83689292D01*
X119026309Y-83675764D01*
X118815492Y-83655000D01*
X118674508Y-83655000D01*
X118463691Y-83675764D01*
X118193192Y-83757818D01*
X117943899Y-83891068D01*
X117854000Y-83964846D01*
X117854000Y-83761711D01*
X117897937Y-83717774D01*
X118011205Y-83548256D01*
X118089226Y-83359898D01*
X118129000Y-83159939D01*
X118129000Y-82956061D01*
X118089226Y-82756102D01*
X118011205Y-82567744D01*
X117897937Y-82398226D01*
X117753774Y-82254063D01*
X117584256Y-82140795D01*
X117395898Y-82062774D01*
X117195939Y-82023000D01*
X116992061Y-82023000D01*
X116792102Y-82062774D01*
X116603744Y-82140795D01*
X116434226Y-82254063D01*
X116290063Y-82398226D01*
X116176795Y-82567744D01*
X116098774Y-82756102D01*
X116059000Y-82956061D01*
X116059000Y-83159939D01*
X116098774Y-83359898D01*
X116176795Y-83548256D01*
X116290063Y-83717774D01*
X116334001Y-83761712D01*
X116334001Y-83874630D01*
X116249727Y-83818320D01*
X115988574Y-83710147D01*
X115711335Y-83655000D01*
X115428665Y-83655000D01*
X115151426Y-83710147D01*
X114890273Y-83818320D01*
X114655241Y-83975363D01*
X114455363Y-84175241D01*
X114298320Y-84410273D01*
X114190147Y-84671426D01*
X114135000Y-84948665D01*
X114135000Y-85231335D01*
X114190147Y-85508574D01*
X114298320Y-85769727D01*
X114455363Y-86004759D01*
X114655241Y-86204637D01*
X114890273Y-86361680D01*
X115151426Y-86469853D01*
X115428665Y-86525000D01*
X115711335Y-86525000D01*
X115988574Y-86469853D01*
X116249727Y-86361680D01*
X116334001Y-86305370D01*
X116334000Y-97632293D01*
X115914590Y-98051703D01*
X115857212Y-97981788D01*
X115680579Y-97836829D01*
X115479060Y-97729115D01*
X115260400Y-97662785D01*
X115089979Y-97646000D01*
X114526021Y-97646000D01*
X114492990Y-97649253D01*
X114492990Y-96921072D01*
X115558000Y-96921072D01*
X115682482Y-96908812D01*
X115802180Y-96872502D01*
X115912494Y-96813537D01*
X116009185Y-96734185D01*
X116088537Y-96637494D01*
X116147502Y-96527180D01*
X116183812Y-96407482D01*
X116196072Y-96283000D01*
X116196072Y-95233000D01*
X116183812Y-95108518D01*
X116147502Y-94988820D01*
X116112907Y-94924098D01*
X116176215Y-94715400D01*
X116198612Y-94488000D01*
X116176215Y-94260600D01*
X116109885Y-94041940D01*
X116008895Y-93853000D01*
X116109885Y-93664060D01*
X116176215Y-93445400D01*
X116198612Y-93218000D01*
X116176215Y-92990600D01*
X116109885Y-92771940D01*
X116002171Y-92570421D01*
X115857212Y-92393788D01*
X115680579Y-92248829D01*
X115512057Y-92158753D01*
X115569974Y-92088181D01*
X115640546Y-91956152D01*
X115684003Y-91812891D01*
X115695000Y-91701238D01*
X115695000Y-91701228D01*
X115698676Y-91663905D01*
X115695000Y-91626582D01*
X115695000Y-91508711D01*
X115738937Y-91464774D01*
X115852205Y-91295256D01*
X115930226Y-91106898D01*
X115970000Y-90906939D01*
X115970000Y-90703061D01*
X115930226Y-90503102D01*
X115852205Y-90314744D01*
X115738937Y-90145226D01*
X115594774Y-90001063D01*
X115425256Y-89887795D01*
X115236898Y-89809774D01*
X115036939Y-89770000D01*
X114833061Y-89770000D01*
X114633102Y-89809774D01*
X114444744Y-89887795D01*
X114275226Y-90001063D01*
X114131063Y-90145226D01*
X114017795Y-90314744D01*
X113939774Y-90503102D01*
X113900000Y-90703061D01*
X113900000Y-90906939D01*
X113939774Y-91106898D01*
X114017795Y-91295256D01*
X114102331Y-91421773D01*
X113221993Y-92302111D01*
X113192989Y-92325914D01*
X113137861Y-92393089D01*
X113098016Y-92441639D01*
X113093336Y-92450395D01*
X113027444Y-92573669D01*
X112983987Y-92716930D01*
X112972990Y-92828583D01*
X112972990Y-92828593D01*
X112969314Y-92865915D01*
X112831169Y-92865915D01*
X112919764Y-81082702D01*
X114756903Y-81082702D01*
X114828486Y-81326671D01*
X115083996Y-81447571D01*
X115358184Y-81516300D01*
X115640512Y-81530217D01*
X115920130Y-81488787D01*
X116186292Y-81393603D01*
X116311514Y-81326671D01*
X116383097Y-81082702D01*
X115570000Y-80269605D01*
X114756903Y-81082702D01*
X112919764Y-81082702D01*
X112926698Y-80160512D01*
X114129783Y-80160512D01*
X114171213Y-80440130D01*
X114266397Y-80706292D01*
X114333329Y-80831514D01*
X114577298Y-80903097D01*
X115390395Y-80090000D01*
X115749605Y-80090000D01*
X116562702Y-80903097D01*
X116806671Y-80831514D01*
X116927571Y-80576004D01*
X116996300Y-80301816D01*
X117010217Y-80019488D01*
X116968787Y-79739870D01*
X116873603Y-79473708D01*
X116806671Y-79348486D01*
X116562702Y-79276903D01*
X115749605Y-80090000D01*
X115390395Y-80090000D01*
X114577298Y-79276903D01*
X114333329Y-79348486D01*
X114212429Y-79603996D01*
X114143700Y-79878184D01*
X114129783Y-80160512D01*
X112926698Y-80160512D01*
X112934692Y-79097298D01*
X114756903Y-79097298D01*
X115570000Y-79910395D01*
X116383097Y-79097298D01*
X116311514Y-78853329D01*
X116056004Y-78732429D01*
X115781816Y-78663700D01*
X115499488Y-78649783D01*
X115219870Y-78691213D01*
X114953708Y-78786397D01*
X114828486Y-78853329D01*
X114756903Y-79097298D01*
X112934692Y-79097298D01*
X112995485Y-71011938D01*
X113260285Y-71276738D01*
X113691859Y-71565107D01*
X114171399Y-71763739D01*
X114680475Y-71865000D01*
X115199525Y-71865000D01*
X115708601Y-71763739D01*
X116188141Y-71565107D01*
X116619715Y-71276738D01*
X116986738Y-70909715D01*
X117275107Y-70478141D01*
X117473739Y-69998601D01*
X117575000Y-69489525D01*
X117575000Y-68970475D01*
X117473739Y-68461399D01*
X117275107Y-67981859D01*
X116986738Y-67550285D01*
X116619715Y-67183262D01*
X116188141Y-66894893D01*
X115708601Y-66696261D01*
X115199525Y-66595000D01*
X114680475Y-66595000D01*
X114171399Y-66696261D01*
X113691859Y-66894893D01*
X113260285Y-67183262D01*
X113022484Y-67421063D01*
X113111551Y-55575000D01*
X114016928Y-55575000D01*
X114029188Y-55699482D01*
X114065498Y-55819180D01*
X114124463Y-55929494D01*
X114203815Y-56026185D01*
X114300506Y-56105537D01*
X114410820Y-56164502D01*
X114530518Y-56200812D01*
X114655000Y-56213072D01*
X115284250Y-56210000D01*
X115443000Y-56051250D01*
X115443000Y-54737000D01*
X114178750Y-54737000D01*
X114020000Y-54895750D01*
X114016928Y-55575000D01*
X113111551Y-55575000D01*
X113126062Y-53645000D01*
X114016928Y-53645000D01*
X114020000Y-54324250D01*
X114178750Y-54483000D01*
X115443000Y-54483000D01*
X115443000Y-53168750D01*
X115697000Y-53168750D01*
X115697000Y-54483000D01*
X115717000Y-54483000D01*
X115717000Y-54737000D01*
X115697000Y-54737000D01*
X115697000Y-56051250D01*
X115855750Y-56210000D01*
X116485000Y-56213072D01*
X116609482Y-56200812D01*
X116729180Y-56164502D01*
X116839494Y-56105537D01*
X116936185Y-56026185D01*
X117015537Y-55929494D01*
X117074502Y-55819180D01*
X117110812Y-55699482D01*
X117123072Y-55575000D01*
X117121895Y-55314860D01*
X117163479Y-55415252D01*
X117349523Y-55693687D01*
X117586313Y-55930477D01*
X117864748Y-56116521D01*
X118174128Y-56244670D01*
X118502565Y-56310000D01*
X118837435Y-56310000D01*
X119165872Y-56244670D01*
X119475252Y-56116521D01*
X119753687Y-55930477D01*
X119990477Y-55693687D01*
X120176521Y-55415252D01*
X120304670Y-55105872D01*
X120370000Y-54777435D01*
X120370000Y-54442565D01*
X125270000Y-54442565D01*
X125270000Y-54777435D01*
X125335330Y-55105872D01*
X125463479Y-55415252D01*
X125649523Y-55693687D01*
X125886313Y-55930477D01*
X126164748Y-56116521D01*
X126474128Y-56244670D01*
X126802565Y-56310000D01*
X127137435Y-56310000D01*
X127465872Y-56244670D01*
X127775252Y-56116521D01*
X128053687Y-55930477D01*
X128290477Y-55693687D01*
X128476521Y-55415252D01*
X128604670Y-55105872D01*
X128670000Y-54777435D01*
X128670000Y-54442565D01*
X128604670Y-54114128D01*
X128476521Y-53804748D01*
X128290477Y-53526313D01*
X128053687Y-53289523D01*
X127775252Y-53103479D01*
X127465872Y-52975330D01*
X127137435Y-52910000D01*
X126802565Y-52910000D01*
X126474128Y-52975330D01*
X126164748Y-53103479D01*
X125886313Y-53289523D01*
X125649523Y-53526313D01*
X125463479Y-53804748D01*
X125335330Y-54114128D01*
X125270000Y-54442565D01*
X120370000Y-54442565D01*
X120304670Y-54114128D01*
X120176521Y-53804748D01*
X119990477Y-53526313D01*
X119753687Y-53289523D01*
X119475252Y-53103479D01*
X119165872Y-52975330D01*
X118837435Y-52910000D01*
X118502565Y-52910000D01*
X118174128Y-52975330D01*
X117864748Y-53103479D01*
X117586313Y-53289523D01*
X117349523Y-53526313D01*
X117163479Y-53804748D01*
X117121895Y-53905140D01*
X117123072Y-53645000D01*
X117110812Y-53520518D01*
X117074502Y-53400820D01*
X117015537Y-53290506D01*
X116936185Y-53193815D01*
X116839494Y-53114463D01*
X116729180Y-53055498D01*
X116609482Y-53019188D01*
X116485000Y-53006928D01*
X115855750Y-53010000D01*
X115697000Y-53168750D01*
X115443000Y-53168750D01*
X115284250Y-53010000D01*
X114655000Y-53006928D01*
X114530518Y-53019188D01*
X114410820Y-53055498D01*
X114300506Y-53114463D01*
X114203815Y-53193815D01*
X114124463Y-53290506D01*
X114065498Y-53400820D01*
X114029188Y-53520518D01*
X114016928Y-53645000D01*
X113126062Y-53645000D01*
X113135280Y-52419040D01*
X130053091Y-52419040D01*
X130147930Y-52683881D01*
X130292615Y-52925131D01*
X130481586Y-53133519D01*
X130707580Y-53301037D01*
X130961913Y-53421246D01*
X131095961Y-53461904D01*
X131318000Y-53339915D01*
X131318000Y-52197000D01*
X131572000Y-52197000D01*
X131572000Y-53339915D01*
X131794039Y-53461904D01*
X131928087Y-53421246D01*
X132182420Y-53301037D01*
X132408414Y-53133519D01*
X132597385Y-52925131D01*
X132742070Y-52683881D01*
X132836909Y-52419040D01*
X132715624Y-52197000D01*
X131572000Y-52197000D01*
X131318000Y-52197000D01*
X130174376Y-52197000D01*
X130053091Y-52419040D01*
X113135280Y-52419040D01*
X113140528Y-51720960D01*
X130053091Y-51720960D01*
X130174376Y-51943000D01*
X131318000Y-51943000D01*
X131318000Y-50800085D01*
X131572000Y-50800085D01*
X131572000Y-51943000D01*
X132715624Y-51943000D01*
X132836909Y-51720960D01*
X132742070Y-51456119D01*
X132597385Y-51214869D01*
X132408414Y-51006481D01*
X132182420Y-50838963D01*
X131928087Y-50718754D01*
X131794039Y-50678096D01*
X131572000Y-50800085D01*
X131318000Y-50800085D01*
X131095961Y-50678096D01*
X130961913Y-50718754D01*
X130707580Y-50838963D01*
X130481586Y-51006481D01*
X130292615Y-51214869D01*
X130147930Y-51456119D01*
X130053091Y-51720960D01*
X113140528Y-51720960D01*
X113156048Y-49657000D01*
X140185000Y-49657000D01*
X140185000Y-55290198D01*
G36*
X134074002Y-70109805D02*
G01*
X136890002Y-72925807D01*
X136890002Y-79889491D01*
X136666335Y-79845000D01*
X136383665Y-79845000D01*
X136106426Y-79900147D01*
X135845273Y-80008320D01*
X135610241Y-80165363D01*
X135410363Y-80365241D01*
X135253320Y-80600273D01*
X135145147Y-80861426D01*
X135090000Y-81138665D01*
X135090000Y-81421335D01*
X135145147Y-81698574D01*
X135253320Y-81959727D01*
X135410363Y-82194759D01*
X135610241Y-82394637D01*
X135845273Y-82551680D01*
X136106426Y-82659853D01*
X136383665Y-82715000D01*
X136666335Y-82715000D01*
X136890002Y-82670509D01*
X136890001Y-84971152D01*
X136806309Y-84945764D01*
X136595492Y-84925000D01*
X136454508Y-84925000D01*
X136243691Y-84945764D01*
X135973192Y-85027818D01*
X135723899Y-85161068D01*
X135505392Y-85340392D01*
X135326068Y-85558899D01*
X135192818Y-85808192D01*
X135110764Y-86078691D01*
X135083057Y-86360000D01*
X135110764Y-86641309D01*
X135192818Y-86911808D01*
X135326068Y-87161101D01*
X135505392Y-87379608D01*
X135723899Y-87558932D01*
X135765000Y-87580901D01*
X135765001Y-89537293D01*
X135701059Y-89503115D01*
X135482399Y-89436785D01*
X135255000Y-89414388D01*
X135027600Y-89436785D01*
X134818902Y-89500093D01*
X134754180Y-89465498D01*
X134634482Y-89429188D01*
X134510000Y-89416928D01*
X134270750Y-89420000D01*
X134112000Y-89578750D01*
X134112000Y-90351892D01*
X134111785Y-90352601D01*
X134095000Y-90523022D01*
X134095000Y-91086979D01*
X134111785Y-91257400D01*
X134112000Y-91258109D01*
X134112000Y-92031250D01*
X134270750Y-92190000D01*
X134510000Y-92193072D01*
X134634482Y-92180812D01*
X134754180Y-92144502D01*
X134818902Y-92109907D01*
X135027601Y-92173215D01*
X135255000Y-92195612D01*
X135482400Y-92173215D01*
X135701060Y-92106885D01*
X135890001Y-92005894D01*
X136078941Y-92106885D01*
X136297601Y-92173215D01*
X136525000Y-92195612D01*
X136752400Y-92173215D01*
X136890001Y-92131474D01*
X136890001Y-93335196D01*
X136648998Y-93576199D01*
X136620000Y-93599997D01*
X136596202Y-93628995D01*
X136596201Y-93628996D01*
X136525026Y-93715722D01*
X136454454Y-93847752D01*
X136427906Y-93935273D01*
X136410998Y-93991012D01*
X136405982Y-94041940D01*
X136396324Y-94139998D01*
X136400001Y-94177330D01*
X136400000Y-95562289D01*
X136356063Y-95606226D01*
X136242795Y-95775744D01*
X136164774Y-95964102D01*
X136125000Y-96164061D01*
X136125000Y-96367939D01*
X136164774Y-96567898D01*
X136242795Y-96756256D01*
X136356063Y-96925774D01*
X136500226Y-97069937D01*
X136669744Y-97183205D01*
X136858102Y-97261226D01*
X137058061Y-97301000D01*
X137261939Y-97301000D01*
X137461898Y-97261226D01*
X137650256Y-97183205D01*
X137819774Y-97069937D01*
X137963937Y-96925774D01*
X138077205Y-96756256D01*
X138155226Y-96567898D01*
X138195000Y-96367939D01*
X138195000Y-96164061D01*
X138170902Y-96042913D01*
X138420512Y-96055217D01*
X138700130Y-96013787D01*
X138966292Y-95918603D01*
X139091514Y-95851671D01*
X139163097Y-95607702D01*
X138350000Y-94794605D01*
X138335858Y-94808748D01*
X138156253Y-94629143D01*
X138170395Y-94615000D01*
X138156253Y-94600858D01*
X138335858Y-94421253D01*
X138350000Y-94435395D01*
X139163097Y-93622298D01*
X139091514Y-93378329D01*
X138836004Y-93257429D01*
X138561816Y-93188700D01*
X138410001Y-93181216D01*
X138410001Y-72648325D01*
X138413677Y-72611002D01*
X138410001Y-72573679D01*
X138410001Y-72573670D01*
X138399004Y-72462017D01*
X138355547Y-72318756D01*
X138284975Y-72186727D01*
X138271812Y-72170688D01*
X138213800Y-72099999D01*
X138213796Y-72099995D01*
X138190002Y-72071002D01*
X138161009Y-72047208D01*
X137977262Y-71863461D01*
X138478601Y-71763739D01*
X138958141Y-71565107D01*
X139389715Y-71276738D01*
X139430001Y-71236452D01*
X139430002Y-93827518D01*
X139342702Y-93801903D01*
X138529605Y-94615000D01*
X139342702Y-95428097D01*
X139430002Y-95402482D01*
X139430002Y-97036152D01*
X139346309Y-97010764D01*
X139135492Y-96990000D01*
X138994508Y-96990000D01*
X138783691Y-97010764D01*
X138513192Y-97092818D01*
X138263899Y-97226068D01*
X138045392Y-97405392D01*
X137866068Y-97623899D01*
X137732818Y-97873192D01*
X137650764Y-98143691D01*
X137623057Y-98425000D01*
X137650764Y-98706309D01*
X137732818Y-98976808D01*
X137866068Y-99226101D01*
X138045392Y-99444608D01*
X138263899Y-99623932D01*
X138513192Y-99757182D01*
X138783691Y-99839236D01*
X138994508Y-99860000D01*
X139135492Y-99860000D01*
X139346309Y-99839236D01*
X139430002Y-99813848D01*
X139430002Y-100197097D01*
X139354482Y-100174188D01*
X139230000Y-100161928D01*
X137630000Y-100161928D01*
X137505518Y-100174188D01*
X137385820Y-100210498D01*
X137275506Y-100269463D01*
X137178815Y-100348815D01*
X137099463Y-100445506D01*
X137040498Y-100555820D01*
X137004188Y-100675518D01*
X137002419Y-100693482D01*
X136909608Y-100580392D01*
X136691101Y-100401068D01*
X136441808Y-100267818D01*
X136171309Y-100185764D01*
X135960492Y-100165000D01*
X135819508Y-100165000D01*
X135608691Y-100185764D01*
X135338192Y-100267818D01*
X135088899Y-100401068D01*
X134870392Y-100580392D01*
X134691068Y-100798899D01*
X134620000Y-100931858D01*
X134548932Y-100798899D01*
X134369608Y-100580392D01*
X134151101Y-100401068D01*
X133901808Y-100267818D01*
X133631309Y-100185764D01*
X133420492Y-100165000D01*
X133279508Y-100165000D01*
X133068691Y-100185764D01*
X132798192Y-100267818D01*
X132548899Y-100401068D01*
X132330392Y-100580392D01*
X132151068Y-100798899D01*
X132080000Y-100931858D01*
X132008932Y-100798899D01*
X131829608Y-100580392D01*
X131611101Y-100401068D01*
X131361808Y-100267818D01*
X131091309Y-100185764D01*
X130880492Y-100165000D01*
X130779801Y-100165000D01*
X131081730Y-99863072D01*
X132245000Y-99863072D01*
X132369482Y-99850812D01*
X132489180Y-99814502D01*
X132599494Y-99755537D01*
X132696185Y-99676185D01*
X132775537Y-99579494D01*
X132834502Y-99469180D01*
X132870812Y-99349482D01*
X132883072Y-99225000D01*
X132883072Y-97625000D01*
X132870812Y-97500518D01*
X132834502Y-97380820D01*
X132775537Y-97270506D01*
X132696185Y-97173815D01*
X132599494Y-97094463D01*
X132489180Y-97035498D01*
X132369482Y-96999188D01*
X132245000Y-96986928D01*
X130921504Y-96986928D01*
X132307018Y-95601414D01*
X132435241Y-95729637D01*
X132670273Y-95886680D01*
X132931426Y-95994853D01*
X133208665Y-96050000D01*
X133491335Y-96050000D01*
X133768574Y-95994853D01*
X134029727Y-95886680D01*
X134264759Y-95729637D01*
X134464637Y-95529759D01*
X134621680Y-95294727D01*
X134729853Y-95033574D01*
X134785000Y-94756335D01*
X134785000Y-94473665D01*
X134729853Y-94196426D01*
X134621680Y-93935273D01*
X134464637Y-93700241D01*
X134264759Y-93500363D01*
X134110000Y-93396957D01*
X134110000Y-92747322D01*
X134113676Y-92709999D01*
X134110000Y-92672676D01*
X134110000Y-92672667D01*
X134099003Y-92561014D01*
X134055546Y-92417753D01*
X134021957Y-92354913D01*
X133984974Y-92285723D01*
X133913799Y-92198997D01*
X133890001Y-92169999D01*
X133861004Y-92146202D01*
X133802026Y-92087224D01*
X133858000Y-92031250D01*
X133858000Y-90932000D01*
X132983750Y-90932000D01*
X132825000Y-91090750D01*
X132824872Y-91110070D01*
X131769802Y-90055000D01*
X132821928Y-90055000D01*
X132825000Y-90519250D01*
X132983750Y-90678000D01*
X133858000Y-90678000D01*
X133858000Y-89578750D01*
X133699250Y-89420000D01*
X133460000Y-89416928D01*
X133335518Y-89429188D01*
X133215820Y-89465498D01*
X133105506Y-89524463D01*
X133008815Y-89603815D01*
X132929463Y-89700506D01*
X132870498Y-89810820D01*
X132834188Y-89930518D01*
X132821928Y-90055000D01*
X131769802Y-90055000D01*
X131575708Y-89860906D01*
X131589236Y-89816309D01*
X131616943Y-89535000D01*
X131589236Y-89253691D01*
X131575708Y-89209093D01*
X131810998Y-88973803D01*
X131840002Y-88950000D01*
X131934975Y-88834275D01*
X132005547Y-88702246D01*
X132049004Y-88558985D01*
X132060001Y-88447332D01*
X132060001Y-88447323D01*
X132063677Y-88410000D01*
X132060001Y-88372677D01*
X132060001Y-86995501D01*
X132078320Y-87039727D01*
X132235363Y-87274759D01*
X132435241Y-87474637D01*
X132670273Y-87631680D01*
X132931426Y-87739853D01*
X133208665Y-87795000D01*
X133491335Y-87795000D01*
X133768574Y-87739853D01*
X134029727Y-87631680D01*
X134264759Y-87474637D01*
X134464637Y-87274759D01*
X134621680Y-87039727D01*
X134729853Y-86778574D01*
X134785000Y-86501335D01*
X134785000Y-86218665D01*
X134729853Y-85941426D01*
X134621680Y-85680273D01*
X134464637Y-85445241D01*
X134264759Y-85245363D01*
X134029727Y-85088320D01*
X133768574Y-84980147D01*
X133491335Y-84925000D01*
X133208665Y-84925000D01*
X132931426Y-84980147D01*
X132670273Y-85088320D01*
X132435241Y-85245363D01*
X132235363Y-85445241D01*
X132078320Y-85680273D01*
X132060001Y-85724499D01*
X132060001Y-82352702D01*
X132536903Y-82352702D01*
X132608486Y-82596671D01*
X132863996Y-82717571D01*
X133138184Y-82786300D01*
X133420512Y-82800217D01*
X133700130Y-82758787D01*
X133966292Y-82663603D01*
X134091514Y-82596671D01*
X134163097Y-82352702D01*
X133350000Y-81539605D01*
X132536903Y-82352702D01*
X132060001Y-82352702D01*
X132060001Y-82059798D01*
X132080223Y-82039576D01*
X132113329Y-82101514D01*
X132357298Y-82173097D01*
X133170395Y-81360000D01*
X133529605Y-81360000D01*
X134342702Y-82173097D01*
X134586671Y-82101514D01*
X134707571Y-81846004D01*
X134776300Y-81571816D01*
X134790217Y-81289488D01*
X134748787Y-81009870D01*
X134653603Y-80743708D01*
X134586671Y-80618486D01*
X134342702Y-80546903D01*
X133529605Y-81360000D01*
X133170395Y-81360000D01*
X133156253Y-81345858D01*
X133335858Y-81166253D01*
X133350000Y-81180395D01*
X134163097Y-80367298D01*
X134091514Y-80123329D01*
X133989890Y-80075243D01*
X134015546Y-80027245D01*
X134059003Y-79883984D01*
X134070000Y-79772331D01*
X134070000Y-79772321D01*
X134073676Y-79734998D01*
X134070000Y-79697675D01*
X134070000Y-70106521D01*
X134074002Y-70109805D01*
X134074002Y-70109805D01*
G37*
X134074002Y-70109805D02*
X136890002Y-72925807D01*
X136890002Y-79889491D01*
X136666335Y-79845000D01*
X136383665Y-79845000D01*
X136106426Y-79900147D01*
X135845273Y-80008320D01*
X135610241Y-80165363D01*
X135410363Y-80365241D01*
X135253320Y-80600273D01*
X135145147Y-80861426D01*
X135090000Y-81138665D01*
X135090000Y-81421335D01*
X135145147Y-81698574D01*
X135253320Y-81959727D01*
X135410363Y-82194759D01*
X135610241Y-82394637D01*
X135845273Y-82551680D01*
X136106426Y-82659853D01*
X136383665Y-82715000D01*
X136666335Y-82715000D01*
X136890002Y-82670509D01*
X136890001Y-84971152D01*
X136806309Y-84945764D01*
X136595492Y-84925000D01*
X136454508Y-84925000D01*
X136243691Y-84945764D01*
X135973192Y-85027818D01*
X135723899Y-85161068D01*
X135505392Y-85340392D01*
X135326068Y-85558899D01*
X135192818Y-85808192D01*
X135110764Y-86078691D01*
X135083057Y-86360000D01*
X135110764Y-86641309D01*
X135192818Y-86911808D01*
X135326068Y-87161101D01*
X135505392Y-87379608D01*
X135723899Y-87558932D01*
X135765000Y-87580901D01*
X135765001Y-89537293D01*
X135701059Y-89503115D01*
X135482399Y-89436785D01*
X135255000Y-89414388D01*
X135027600Y-89436785D01*
X134818902Y-89500093D01*
X134754180Y-89465498D01*
X134634482Y-89429188D01*
X134510000Y-89416928D01*
X134270750Y-89420000D01*
X134112000Y-89578750D01*
X134112000Y-90351892D01*
X134111785Y-90352601D01*
X134095000Y-90523022D01*
X134095000Y-91086979D01*
X134111785Y-91257400D01*
X134112000Y-91258109D01*
X134112000Y-92031250D01*
X134270750Y-92190000D01*
X134510000Y-92193072D01*
X134634482Y-92180812D01*
X134754180Y-92144502D01*
X134818902Y-92109907D01*
X135027601Y-92173215D01*
X135255000Y-92195612D01*
X135482400Y-92173215D01*
X135701060Y-92106885D01*
X135890001Y-92005894D01*
X136078941Y-92106885D01*
X136297601Y-92173215D01*
X136525000Y-92195612D01*
X136752400Y-92173215D01*
X136890001Y-92131474D01*
X136890001Y-93335196D01*
X136648998Y-93576199D01*
X136620000Y-93599997D01*
X136596202Y-93628995D01*
X136596201Y-93628996D01*
X136525026Y-93715722D01*
X136454454Y-93847752D01*
X136427906Y-93935273D01*
X136410998Y-93991012D01*
X136405982Y-94041940D01*
X136396324Y-94139998D01*
X136400001Y-94177330D01*
X136400000Y-95562289D01*
X136356063Y-95606226D01*
X136242795Y-95775744D01*
X136164774Y-95964102D01*
X136125000Y-96164061D01*
X136125000Y-96367939D01*
X136164774Y-96567898D01*
X136242795Y-96756256D01*
X136356063Y-96925774D01*
X136500226Y-97069937D01*
X136669744Y-97183205D01*
X136858102Y-97261226D01*
X137058061Y-97301000D01*
X137261939Y-97301000D01*
X137461898Y-97261226D01*
X137650256Y-97183205D01*
X137819774Y-97069937D01*
X137963937Y-96925774D01*
X138077205Y-96756256D01*
X138155226Y-96567898D01*
X138195000Y-96367939D01*
X138195000Y-96164061D01*
X138170902Y-96042913D01*
X138420512Y-96055217D01*
X138700130Y-96013787D01*
X138966292Y-95918603D01*
X139091514Y-95851671D01*
X139163097Y-95607702D01*
X138350000Y-94794605D01*
X138335858Y-94808748D01*
X138156253Y-94629143D01*
X138170395Y-94615000D01*
X138156253Y-94600858D01*
X138335858Y-94421253D01*
X138350000Y-94435395D01*
X139163097Y-93622298D01*
X139091514Y-93378329D01*
X138836004Y-93257429D01*
X138561816Y-93188700D01*
X138410001Y-93181216D01*
X138410001Y-72648325D01*
X138413677Y-72611002D01*
X138410001Y-72573679D01*
X138410001Y-72573670D01*
X138399004Y-72462017D01*
X138355547Y-72318756D01*
X138284975Y-72186727D01*
X138271812Y-72170688D01*
X138213800Y-72099999D01*
X138213796Y-72099995D01*
X138190002Y-72071002D01*
X138161009Y-72047208D01*
X137977262Y-71863461D01*
X138478601Y-71763739D01*
X138958141Y-71565107D01*
X139389715Y-71276738D01*
X139430001Y-71236452D01*
X139430002Y-93827518D01*
X139342702Y-93801903D01*
X138529605Y-94615000D01*
X139342702Y-95428097D01*
X139430002Y-95402482D01*
X139430002Y-97036152D01*
X139346309Y-97010764D01*
X139135492Y-96990000D01*
X138994508Y-96990000D01*
X138783691Y-97010764D01*
X138513192Y-97092818D01*
X138263899Y-97226068D01*
X138045392Y-97405392D01*
X137866068Y-97623899D01*
X137732818Y-97873192D01*
X137650764Y-98143691D01*
X137623057Y-98425000D01*
X137650764Y-98706309D01*
X137732818Y-98976808D01*
X137866068Y-99226101D01*
X138045392Y-99444608D01*
X138263899Y-99623932D01*
X138513192Y-99757182D01*
X138783691Y-99839236D01*
X138994508Y-99860000D01*
X139135492Y-99860000D01*
X139346309Y-99839236D01*
X139430002Y-99813848D01*
X139430002Y-100197097D01*
X139354482Y-100174188D01*
X139230000Y-100161928D01*
X137630000Y-100161928D01*
X137505518Y-100174188D01*
X137385820Y-100210498D01*
X137275506Y-100269463D01*
X137178815Y-100348815D01*
X137099463Y-100445506D01*
X137040498Y-100555820D01*
X137004188Y-100675518D01*
X137002419Y-100693482D01*
X136909608Y-100580392D01*
X136691101Y-100401068D01*
X136441808Y-100267818D01*
X136171309Y-100185764D01*
X135960492Y-100165000D01*
X135819508Y-100165000D01*
X135608691Y-100185764D01*
X135338192Y-100267818D01*
X135088899Y-100401068D01*
X134870392Y-100580392D01*
X134691068Y-100798899D01*
X134620000Y-100931858D01*
X134548932Y-100798899D01*
X134369608Y-100580392D01*
X134151101Y-100401068D01*
X133901808Y-100267818D01*
X133631309Y-100185764D01*
X133420492Y-100165000D01*
X133279508Y-100165000D01*
X133068691Y-100185764D01*
X132798192Y-100267818D01*
X132548899Y-100401068D01*
X132330392Y-100580392D01*
X132151068Y-100798899D01*
X132080000Y-100931858D01*
X132008932Y-100798899D01*
X131829608Y-100580392D01*
X131611101Y-100401068D01*
X131361808Y-100267818D01*
X131091309Y-100185764D01*
X130880492Y-100165000D01*
X130779801Y-100165000D01*
X131081730Y-99863072D01*
X132245000Y-99863072D01*
X132369482Y-99850812D01*
X132489180Y-99814502D01*
X132599494Y-99755537D01*
X132696185Y-99676185D01*
X132775537Y-99579494D01*
X132834502Y-99469180D01*
X132870812Y-99349482D01*
X132883072Y-99225000D01*
X132883072Y-97625000D01*
X132870812Y-97500518D01*
X132834502Y-97380820D01*
X132775537Y-97270506D01*
X132696185Y-97173815D01*
X132599494Y-97094463D01*
X132489180Y-97035498D01*
X132369482Y-96999188D01*
X132245000Y-96986928D01*
X130921504Y-96986928D01*
X132307018Y-95601414D01*
X132435241Y-95729637D01*
X132670273Y-95886680D01*
X132931426Y-95994853D01*
X133208665Y-96050000D01*
X133491335Y-96050000D01*
X133768574Y-95994853D01*
X134029727Y-95886680D01*
X134264759Y-95729637D01*
X134464637Y-95529759D01*
X134621680Y-95294727D01*
X134729853Y-95033574D01*
X134785000Y-94756335D01*
X134785000Y-94473665D01*
X134729853Y-94196426D01*
X134621680Y-93935273D01*
X134464637Y-93700241D01*
X134264759Y-93500363D01*
X134110000Y-93396957D01*
X134110000Y-92747322D01*
X134113676Y-92709999D01*
X134110000Y-92672676D01*
X134110000Y-92672667D01*
X134099003Y-92561014D01*
X134055546Y-92417753D01*
X134021957Y-92354913D01*
X133984974Y-92285723D01*
X133913799Y-92198997D01*
X133890001Y-92169999D01*
X133861004Y-92146202D01*
X133802026Y-92087224D01*
X133858000Y-92031250D01*
X133858000Y-90932000D01*
X132983750Y-90932000D01*
X132825000Y-91090750D01*
X132824872Y-91110070D01*
X131769802Y-90055000D01*
X132821928Y-90055000D01*
X132825000Y-90519250D01*
X132983750Y-90678000D01*
X133858000Y-90678000D01*
X133858000Y-89578750D01*
X133699250Y-89420000D01*
X133460000Y-89416928D01*
X133335518Y-89429188D01*
X133215820Y-89465498D01*
X133105506Y-89524463D01*
X133008815Y-89603815D01*
X132929463Y-89700506D01*
X132870498Y-89810820D01*
X132834188Y-89930518D01*
X132821928Y-90055000D01*
X131769802Y-90055000D01*
X131575708Y-89860906D01*
X131589236Y-89816309D01*
X131616943Y-89535000D01*
X131589236Y-89253691D01*
X131575708Y-89209093D01*
X131810998Y-88973803D01*
X131840002Y-88950000D01*
X131934975Y-88834275D01*
X132005547Y-88702246D01*
X132049004Y-88558985D01*
X132060001Y-88447332D01*
X132060001Y-88447323D01*
X132063677Y-88410000D01*
X132060001Y-88372677D01*
X132060001Y-86995501D01*
X132078320Y-87039727D01*
X132235363Y-87274759D01*
X132435241Y-87474637D01*
X132670273Y-87631680D01*
X132931426Y-87739853D01*
X133208665Y-87795000D01*
X133491335Y-87795000D01*
X133768574Y-87739853D01*
X134029727Y-87631680D01*
X134264759Y-87474637D01*
X134464637Y-87274759D01*
X134621680Y-87039727D01*
X134729853Y-86778574D01*
X134785000Y-86501335D01*
X134785000Y-86218665D01*
X134729853Y-85941426D01*
X134621680Y-85680273D01*
X134464637Y-85445241D01*
X134264759Y-85245363D01*
X134029727Y-85088320D01*
X133768574Y-84980147D01*
X133491335Y-84925000D01*
X133208665Y-84925000D01*
X132931426Y-84980147D01*
X132670273Y-85088320D01*
X132435241Y-85245363D01*
X132235363Y-85445241D01*
X132078320Y-85680273D01*
X132060001Y-85724499D01*
X132060001Y-82352702D01*
X132536903Y-82352702D01*
X132608486Y-82596671D01*
X132863996Y-82717571D01*
X133138184Y-82786300D01*
X133420512Y-82800217D01*
X133700130Y-82758787D01*
X133966292Y-82663603D01*
X134091514Y-82596671D01*
X134163097Y-82352702D01*
X133350000Y-81539605D01*
X132536903Y-82352702D01*
X132060001Y-82352702D01*
X132060001Y-82059798D01*
X132080223Y-82039576D01*
X132113329Y-82101514D01*
X132357298Y-82173097D01*
X133170395Y-81360000D01*
X133529605Y-81360000D01*
X134342702Y-82173097D01*
X134586671Y-82101514D01*
X134707571Y-81846004D01*
X134776300Y-81571816D01*
X134790217Y-81289488D01*
X134748787Y-81009870D01*
X134653603Y-80743708D01*
X134586671Y-80618486D01*
X134342702Y-80546903D01*
X133529605Y-81360000D01*
X133170395Y-81360000D01*
X133156253Y-81345858D01*
X133335858Y-81166253D01*
X133350000Y-81180395D01*
X134163097Y-80367298D01*
X134091514Y-80123329D01*
X133989890Y-80075243D01*
X134015546Y-80027245D01*
X134059003Y-79883984D01*
X134070000Y-79772331D01*
X134070000Y-79772321D01*
X134073676Y-79734998D01*
X134070000Y-79697675D01*
X134070000Y-70106521D01*
X134074002Y-70109805D01*
M02*
