G04 #@! TF.GenerationSoftware,KiCad,Pcbnew,(5.0.1)-rc2*
G04 #@! TF.CreationDate,2019-01-31T01:05:06-05:00*
G04 #@! TF.ProjectId,passive_buffer,706173736976655F6275666665722E6B,rev?*
G04 #@! TF.SameCoordinates,Original*
G04 #@! TF.FileFunction,Legend,Top*
G04 #@! TF.FilePolarity,Positive*
%FSLAX46Y46*%
G04 Gerber Fmt 4.6, Leading zero omitted, Abs format (unit mm)*
G04 Created by KiCad (PCBNEW (5.0.1)-rc2) date 1/31/2019 1:05:06 AM*
%MOMM*%
%LPD*%
G01*
G04 APERTURE LIST*
%ADD10C,0.127000*%
%ADD11C,0.300000*%
%ADD12C,0.050000*%
G04 APERTURE END LIST*
D10*
G04 #@! TO.C,J4*
X134218800Y-86870800D02*
X140468800Y-86870800D01*
X144968800Y-86870800D02*
X143968800Y-86870800D01*
X144968800Y-84870800D02*
X144968800Y-86870800D01*
X144968800Y-80870800D02*
X144968800Y-81370800D01*
X130468800Y-80870800D02*
X144968800Y-80870800D01*
X130468800Y-86370800D02*
X130468800Y-80870800D01*
X130468800Y-86870800D02*
X131468800Y-86870800D01*
X130468800Y-86370800D02*
X130468800Y-86870800D01*
X127968800Y-86370800D02*
X130468800Y-86370800D01*
X127968800Y-81370800D02*
X127968800Y-86370800D01*
X130468800Y-81370800D02*
X127968800Y-81370800D01*
D11*
X133118800Y-89870800D02*
G75*
G03X133118800Y-89870800I-150000J0D01*
G01*
G04 #@! TO.C,J3*
X163548400Y-80106000D02*
G75*
G03X163548400Y-80106000I-150000J0D01*
G01*
D10*
X165898400Y-88606000D02*
X168398400Y-88606000D01*
X168398400Y-88606000D02*
X168398400Y-83606000D01*
X168398400Y-83606000D02*
X165898400Y-83606000D01*
X165898400Y-83606000D02*
X165898400Y-83106000D01*
X165898400Y-83106000D02*
X164898400Y-83106000D01*
X165898400Y-83606000D02*
X165898400Y-89106000D01*
X165898400Y-89106000D02*
X151398400Y-89106000D01*
X151398400Y-89106000D02*
X151398400Y-88606000D01*
X151398400Y-85106000D02*
X151398400Y-83106000D01*
X151398400Y-83106000D02*
X152398400Y-83106000D01*
X162148400Y-83106000D02*
X155898400Y-83106000D01*
G04 #@! TO.C,J2*
X134218800Y-76914000D02*
X140468800Y-76914000D01*
X144968800Y-76914000D02*
X143968800Y-76914000D01*
X144968800Y-74914000D02*
X144968800Y-76914000D01*
X144968800Y-70914000D02*
X144968800Y-71414000D01*
X130468800Y-70914000D02*
X144968800Y-70914000D01*
X130468800Y-76414000D02*
X130468800Y-70914000D01*
X130468800Y-76914000D02*
X131468800Y-76914000D01*
X130468800Y-76414000D02*
X130468800Y-76914000D01*
X127968800Y-76414000D02*
X130468800Y-76414000D01*
X127968800Y-71414000D02*
X127968800Y-76414000D01*
X130468800Y-71414000D02*
X127968800Y-71414000D01*
D11*
X133118800Y-79914000D02*
G75*
G03X133118800Y-79914000I-150000J0D01*
G01*
G04 #@! TO.C,J1*
X163548400Y-70098400D02*
G75*
G03X163548400Y-70098400I-150000J0D01*
G01*
D10*
X165898400Y-78598400D02*
X168398400Y-78598400D01*
X168398400Y-78598400D02*
X168398400Y-73598400D01*
X168398400Y-73598400D02*
X165898400Y-73598400D01*
X165898400Y-73598400D02*
X165898400Y-73098400D01*
X165898400Y-73098400D02*
X164898400Y-73098400D01*
X165898400Y-73598400D02*
X165898400Y-79098400D01*
X165898400Y-79098400D02*
X151398400Y-79098400D01*
X151398400Y-79098400D02*
X151398400Y-78598400D01*
X151398400Y-75098400D02*
X151398400Y-73098400D01*
X151398400Y-73098400D02*
X152398400Y-73098400D01*
X162148400Y-73098400D02*
X155898400Y-73098400D01*
G04 #@! TO.C,J4*
D12*
X137689620Y-81493318D02*
X137689620Y-82208990D01*
X137641908Y-82352124D01*
X137546485Y-82447547D01*
X137403351Y-82495258D01*
X137307928Y-82495258D01*
X138596137Y-81827298D02*
X138596137Y-82495258D01*
X138357580Y-81445607D02*
X138119022Y-82161278D01*
X138739271Y-82161278D01*
X136250346Y-88844453D02*
X136250346Y-87844293D01*
X136726613Y-88177680D02*
X136726613Y-88844453D01*
X136726613Y-88272933D02*
X136774240Y-88225306D01*
X136869493Y-88177680D01*
X137012373Y-88177680D01*
X137107626Y-88225306D01*
X137155253Y-88320560D01*
X137155253Y-88844453D01*
G04 #@! TO.C,J3*
X158263620Y-87894118D02*
X158263620Y-88609790D01*
X158215908Y-88752924D01*
X158120485Y-88848347D01*
X157977351Y-88896058D01*
X157881928Y-88896058D01*
X158645311Y-87894118D02*
X159265560Y-87894118D01*
X158931580Y-88275810D01*
X159074714Y-88275810D01*
X159170137Y-88323521D01*
X159217848Y-88371232D01*
X159265560Y-88466655D01*
X159265560Y-88705212D01*
X159217848Y-88800635D01*
X159170137Y-88848347D01*
X159074714Y-88896058D01*
X158788445Y-88896058D01*
X158693022Y-88848347D01*
X158645311Y-88800635D01*
X158653146Y-82189653D02*
X158653146Y-81189493D01*
X159129413Y-81522880D02*
X159129413Y-82189653D01*
X159129413Y-81618133D02*
X159177040Y-81570506D01*
X159272293Y-81522880D01*
X159415173Y-81522880D01*
X159510426Y-81570506D01*
X159558053Y-81665760D01*
X159558053Y-82189653D01*
G04 #@! TO.C,J2*
X137232420Y-74025718D02*
X137232420Y-74741390D01*
X137184708Y-74884524D01*
X137089285Y-74979947D01*
X136946151Y-75027658D01*
X136850728Y-75027658D01*
X137661822Y-74121141D02*
X137709534Y-74073430D01*
X137804957Y-74025718D01*
X138043514Y-74025718D01*
X138138937Y-74073430D01*
X138186648Y-74121141D01*
X138234360Y-74216564D01*
X138234360Y-74311987D01*
X138186648Y-74455121D01*
X137614111Y-75027658D01*
X138234360Y-75027658D01*
X137723546Y-78887653D02*
X137723546Y-77887493D01*
X138199813Y-78220880D02*
X138199813Y-78887653D01*
X138199813Y-78316133D02*
X138247440Y-78268506D01*
X138342693Y-78220880D01*
X138485573Y-78220880D01*
X138580826Y-78268506D01*
X138628453Y-78363760D01*
X138628453Y-78887653D01*
G04 #@! TO.C,J1*
X158314420Y-77886518D02*
X158314420Y-78602190D01*
X158266708Y-78745324D01*
X158171285Y-78840747D01*
X158028151Y-78888458D01*
X157932728Y-78888458D01*
X159316360Y-78888458D02*
X158743822Y-78888458D01*
X159030091Y-78888458D02*
X159030091Y-77886518D01*
X158934668Y-78029652D01*
X158839245Y-78125075D01*
X158743822Y-78172787D01*
X158602346Y-72588453D02*
X158602346Y-71588293D01*
X159078613Y-71921680D02*
X159078613Y-72588453D01*
X159078613Y-72016933D02*
X159126240Y-71969306D01*
X159221493Y-71921680D01*
X159364373Y-71921680D01*
X159459626Y-71969306D01*
X159507253Y-72064560D01*
X159507253Y-72588453D01*
G04 #@! TD*
M02*
