G04 #@! TF.GenerationSoftware,KiCad,Pcbnew,(5.0.1)-rc2*
G04 #@! TF.CreationDate,2018-11-24T17:46:36-05:00*
G04 #@! TF.ProjectId,vco2,76636F322E6B696361645F7063620000,1*
G04 #@! TF.SameCoordinates,Original*
G04 #@! TF.FileFunction,Legend,Top*
G04 #@! TF.FilePolarity,Positive*
%FSLAX46Y46*%
G04 Gerber Fmt 4.6, Leading zero omitted, Abs format (unit mm)*
G04 Created by KiCad (PCBNEW (5.0.1)-rc2) date 11/24/2018 5:46:36 PM*
%MOMM*%
%LPD*%
G01*
G04 APERTURE LIST*
%ADD10C,0.100000*%
%ADD11C,0.200000*%
%ADD12C,0.150000*%
%ADD13C,0.300000*%
%ADD14C,0.120000*%
G04 APERTURE END LIST*
D10*
X133294380Y-138390095D02*
X132627714Y-138390095D01*
X132818190Y-138390095D02*
X132722952Y-138342476D01*
X132675333Y-138294857D01*
X132627714Y-138199619D01*
X132627714Y-138104380D01*
X133246761Y-137390095D02*
X133294380Y-137485333D01*
X133294380Y-137675809D01*
X133246761Y-137771047D01*
X133151523Y-137818666D01*
X132770571Y-137818666D01*
X132675333Y-137771047D01*
X132627714Y-137675809D01*
X132627714Y-137485333D01*
X132675333Y-137390095D01*
X132770571Y-137342476D01*
X132865809Y-137342476D01*
X132961047Y-137818666D01*
X132627714Y-137009142D02*
X133294380Y-136771047D01*
X132627714Y-136532952D01*
X132294380Y-135485333D02*
X132294380Y-134866285D01*
X132675333Y-135199619D01*
X132675333Y-135056761D01*
X132722952Y-134961523D01*
X132770571Y-134913904D01*
X132865809Y-134866285D01*
X133103904Y-134866285D01*
X133199142Y-134913904D01*
X133246761Y-134961523D01*
X133294380Y-135056761D01*
X133294380Y-135342476D01*
X133246761Y-135437714D01*
X133199142Y-135485333D01*
D11*
X138049000Y-151130000D02*
X139319000Y-152400000D01*
X136779000Y-152400000D02*
X138049000Y-151130000D01*
X139319000Y-152400000D02*
X140589000Y-151130000D01*
X141224000Y-152781000D02*
X139954000Y-152781000D01*
X139954000Y-154051000D02*
X138684000Y-154051000D01*
X138684000Y-152781000D02*
X137414000Y-152781000D01*
X137414000Y-154051000D02*
X136144000Y-154051000D01*
X138684000Y-154051000D02*
X138684000Y-152781000D01*
X139954000Y-152781000D02*
X139954000Y-154051000D01*
X137414000Y-152781000D02*
X137414000Y-154051000D01*
D12*
X141986333Y-151408380D02*
X142557761Y-151408380D01*
X142272047Y-152408380D02*
X142272047Y-151408380D01*
X142891095Y-152408380D02*
X142891095Y-151741714D01*
X142891095Y-151932190D02*
X142938714Y-151836952D01*
X142986333Y-151789333D01*
X143081571Y-151741714D01*
X143176809Y-151741714D01*
X143510142Y-152408380D02*
X143510142Y-151741714D01*
X143510142Y-151408380D02*
X143462523Y-151456000D01*
X143510142Y-151503619D01*
X143557761Y-151456000D01*
X143510142Y-151408380D01*
X143510142Y-151503619D01*
X144700619Y-151360761D02*
X143843476Y-152646476D01*
X144986333Y-152360761D02*
X145129190Y-152408380D01*
X145367285Y-152408380D01*
X145462523Y-152360761D01*
X145510142Y-152313142D01*
X145557761Y-152217904D01*
X145557761Y-152122666D01*
X145510142Y-152027428D01*
X145462523Y-151979809D01*
X145367285Y-151932190D01*
X145176809Y-151884571D01*
X145081571Y-151836952D01*
X145033952Y-151789333D01*
X144986333Y-151694095D01*
X144986333Y-151598857D01*
X145033952Y-151503619D01*
X145081571Y-151456000D01*
X145176809Y-151408380D01*
X145414904Y-151408380D01*
X145557761Y-151456000D01*
X146414904Y-151741714D02*
X146414904Y-152741714D01*
X146414904Y-152360761D02*
X146319666Y-152408380D01*
X146129190Y-152408380D01*
X146033952Y-152360761D01*
X145986333Y-152313142D01*
X145938714Y-152217904D01*
X145938714Y-151932190D01*
X145986333Y-151836952D01*
X146033952Y-151789333D01*
X146129190Y-151741714D01*
X146319666Y-151741714D01*
X146414904Y-151789333D01*
X142010142Y-154058380D02*
X141533952Y-154058380D01*
X141533952Y-153058380D01*
X142486333Y-154058380D02*
X142391095Y-154010761D01*
X142343476Y-153963142D01*
X142295857Y-153867904D01*
X142295857Y-153582190D01*
X142343476Y-153486952D01*
X142391095Y-153439333D01*
X142486333Y-153391714D01*
X142629190Y-153391714D01*
X142724428Y-153439333D01*
X142772047Y-153486952D01*
X142819666Y-153582190D01*
X142819666Y-153867904D01*
X142772047Y-153963142D01*
X142724428Y-154010761D01*
X142629190Y-154058380D01*
X142486333Y-154058380D01*
X143581571Y-153534571D02*
X143248238Y-153534571D01*
X143248238Y-154058380D02*
X143248238Y-153058380D01*
X143724428Y-153058380D01*
X144105380Y-154058380D02*
X144105380Y-153391714D01*
X144105380Y-153058380D02*
X144057761Y-153106000D01*
X144105380Y-153153619D01*
X144153000Y-153106000D01*
X144105380Y-153058380D01*
X144105380Y-153153619D01*
X145200619Y-153058380D02*
X145533952Y-154058380D01*
X145867285Y-153058380D01*
X146772047Y-153963142D02*
X146724428Y-154010761D01*
X146581571Y-154058380D01*
X146486333Y-154058380D01*
X146343476Y-154010761D01*
X146248238Y-153915523D01*
X146200619Y-153820285D01*
X146153000Y-153629809D01*
X146153000Y-153486952D01*
X146200619Y-153296476D01*
X146248238Y-153201238D01*
X146343476Y-153106000D01*
X146486333Y-153058380D01*
X146581571Y-153058380D01*
X146724428Y-153106000D01*
X146772047Y-153153619D01*
X147391095Y-153058380D02*
X147581571Y-153058380D01*
X147676809Y-153106000D01*
X147772047Y-153201238D01*
X147819666Y-153391714D01*
X147819666Y-153725047D01*
X147772047Y-153915523D01*
X147676809Y-154010761D01*
X147581571Y-154058380D01*
X147391095Y-154058380D01*
X147295857Y-154010761D01*
X147200619Y-153915523D01*
X147153000Y-153725047D01*
X147153000Y-153391714D01*
X147200619Y-153201238D01*
X147295857Y-153106000D01*
X147391095Y-153058380D01*
D11*
X145034000Y-101346000D02*
X146304000Y-100076000D01*
X143764000Y-100076000D02*
X145034000Y-101346000D01*
X142494000Y-101346000D02*
X143764000Y-100076000D01*
X136525000Y-104648000D02*
X135255000Y-104648000D01*
X136525000Y-103378000D02*
X136525000Y-104648000D01*
X137795000Y-103378000D02*
X136525000Y-103378000D01*
X137795000Y-104648000D02*
X137795000Y-103378000D01*
X139065000Y-104648000D02*
X137795000Y-104648000D01*
X139065000Y-103378000D02*
X139065000Y-104648000D01*
X140335000Y-103378000D02*
X139065000Y-103378000D01*
D13*
X133544571Y-149141142D02*
X135044571Y-148141142D01*
X133544571Y-148141142D02*
X135044571Y-149141142D01*
X134258857Y-147069714D02*
X134330285Y-146855428D01*
X134401714Y-146784000D01*
X134544571Y-146712571D01*
X134758857Y-146712571D01*
X134901714Y-146784000D01*
X134973142Y-146855428D01*
X135044571Y-146998285D01*
X135044571Y-147569714D01*
X133544571Y-147569714D01*
X133544571Y-147069714D01*
X133616000Y-146926857D01*
X133687428Y-146855428D01*
X133830285Y-146784000D01*
X133973142Y-146784000D01*
X134116000Y-146855428D01*
X134187428Y-146926857D01*
X134258857Y-147069714D01*
X134258857Y-147569714D01*
X135044571Y-145284000D02*
X135044571Y-146141142D01*
X135044571Y-145712571D02*
X133544571Y-145712571D01*
X133758857Y-145855428D01*
X133901714Y-145998285D01*
X133973142Y-146141142D01*
X133544571Y-144355428D02*
X133544571Y-144212571D01*
X133616000Y-144069714D01*
X133687428Y-143998285D01*
X133830285Y-143926857D01*
X134116000Y-143855428D01*
X134473142Y-143855428D01*
X134758857Y-143926857D01*
X134901714Y-143998285D01*
X134973142Y-144069714D01*
X135044571Y-144212571D01*
X135044571Y-144355428D01*
X134973142Y-144498285D01*
X134901714Y-144569714D01*
X134758857Y-144641142D01*
X134473142Y-144712571D01*
X134116000Y-144712571D01*
X133830285Y-144641142D01*
X133687428Y-144569714D01*
X133616000Y-144498285D01*
X133544571Y-144355428D01*
X133544571Y-142926857D02*
X133544571Y-142784000D01*
X133616000Y-142641142D01*
X133687428Y-142569714D01*
X133830285Y-142498285D01*
X134116000Y-142426857D01*
X134473142Y-142426857D01*
X134758857Y-142498285D01*
X134901714Y-142569714D01*
X134973142Y-142641142D01*
X135044571Y-142784000D01*
X135044571Y-142926857D01*
X134973142Y-143069714D01*
X134901714Y-143141142D01*
X134758857Y-143212571D01*
X134473142Y-143284000D01*
X134116000Y-143284000D01*
X133830285Y-143212571D01*
X133687428Y-143141142D01*
X133616000Y-143069714D01*
X133544571Y-142926857D01*
X133544571Y-141498285D02*
X133544571Y-141355428D01*
X133616000Y-141212571D01*
X133687428Y-141141142D01*
X133830285Y-141069714D01*
X134116000Y-140998285D01*
X134473142Y-140998285D01*
X134758857Y-141069714D01*
X134901714Y-141141142D01*
X134973142Y-141212571D01*
X135044571Y-141355428D01*
X135044571Y-141498285D01*
X134973142Y-141641142D01*
X134901714Y-141712571D01*
X134758857Y-141784000D01*
X134473142Y-141855428D01*
X134116000Y-141855428D01*
X133830285Y-141784000D01*
X133687428Y-141712571D01*
X133616000Y-141641142D01*
X133544571Y-141498285D01*
D14*
G04 #@! TO.C,C1*
X146851000Y-108695000D02*
X147166000Y-108695000D01*
X144426000Y-108695000D02*
X144741000Y-108695000D01*
X146851000Y-113635000D02*
X147166000Y-113635000D01*
X144426000Y-113635000D02*
X144741000Y-113635000D01*
X147166000Y-113635000D02*
X147166000Y-108695000D01*
X144426000Y-113635000D02*
X144426000Y-108695000D01*
G04 #@! TO.C,C5*
X141251000Y-113635000D02*
X141251000Y-108695000D01*
X143991000Y-113635000D02*
X143991000Y-108695000D01*
X141251000Y-113635000D02*
X141566000Y-113635000D01*
X143676000Y-113635000D02*
X143991000Y-113635000D01*
X141251000Y-108695000D02*
X141566000Y-108695000D01*
X143676000Y-108695000D02*
X143991000Y-108695000D01*
G04 #@! TO.C,R10*
X149833000Y-135763000D02*
X149903000Y-135763000D01*
X149833000Y-135763000D02*
G75*
G03X149833000Y-135763000I-1370000J0D01*
G01*
G04 #@! TO.C,U1*
X147733000Y-119039000D02*
X147733000Y-108799000D01*
X152374000Y-119039000D02*
X152374000Y-108799000D01*
X147733000Y-119039000D02*
X152374000Y-119039000D01*
X147733000Y-108799000D02*
X152374000Y-108799000D01*
X149243000Y-119039000D02*
X149243000Y-108799000D01*
X147733000Y-115769000D02*
X149243000Y-115769000D01*
X147733000Y-112068000D02*
X149243000Y-112068000D01*
G04 #@! TO.C,C2*
X134650000Y-137695000D02*
X139590000Y-137695000D01*
X134650000Y-140435000D02*
X139590000Y-140435000D01*
X134650000Y-137695000D02*
X134650000Y-138010000D01*
X134650000Y-140120000D02*
X134650000Y-140435000D01*
X139590000Y-137695000D02*
X139590000Y-138010000D01*
X139590000Y-140120000D02*
X139590000Y-140435000D01*
G04 #@! TO.C,C3*
X147789000Y-125747000D02*
X147474000Y-125747000D01*
X150214000Y-125747000D02*
X149899000Y-125747000D01*
X147789000Y-120807000D02*
X147474000Y-120807000D01*
X150214000Y-120807000D02*
X149899000Y-120807000D01*
X147474000Y-120807000D02*
X147474000Y-125747000D01*
X150214000Y-120807000D02*
X150214000Y-125747000D01*
G04 #@! TO.C,C4*
X132742000Y-133066000D02*
X132742000Y-128126000D01*
X135482000Y-133066000D02*
X135482000Y-128126000D01*
X132742000Y-133066000D02*
X133057000Y-133066000D01*
X135167000Y-133066000D02*
X135482000Y-133066000D01*
X132742000Y-128126000D02*
X133057000Y-128126000D01*
X135167000Y-128126000D02*
X135482000Y-128126000D01*
G04 #@! TO.C,J1*
X136070000Y-144321000D02*
X136070000Y-145571000D01*
X137320000Y-144321000D02*
X136070000Y-144321000D01*
X139430000Y-148731000D02*
X139430000Y-148231000D01*
X139530000Y-148231000D02*
X139530000Y-148731000D01*
X139330000Y-148231000D02*
X139530000Y-148231000D01*
X139330000Y-148731000D02*
X139330000Y-148231000D01*
X142490000Y-147231000D02*
X141880000Y-147231000D01*
X142490000Y-145931000D02*
X141880000Y-145931000D01*
X136370000Y-147231000D02*
X136980000Y-147231000D01*
X136370000Y-145931000D02*
X136980000Y-145931000D01*
X139930000Y-145231000D02*
X139930000Y-144621000D01*
X141880000Y-145231000D02*
X139930000Y-145231000D01*
X141880000Y-148731000D02*
X141880000Y-145231000D01*
X136980000Y-148731000D02*
X141880000Y-148731000D01*
X136980000Y-145231000D02*
X136980000Y-148731000D01*
X138930000Y-145231000D02*
X136980000Y-145231000D01*
X138930000Y-144621000D02*
X138930000Y-145231000D01*
X138130000Y-144521000D02*
X137830000Y-144521000D01*
X137830000Y-144421000D02*
X137830000Y-144621000D01*
X138130000Y-144421000D02*
X137830000Y-144421000D01*
X138130000Y-144621000D02*
X138130000Y-144421000D01*
X142490000Y-144621000D02*
X136370000Y-144621000D01*
X142490000Y-149341000D02*
X142490000Y-144621000D01*
X136370000Y-149341000D02*
X142490000Y-149341000D01*
X136370000Y-144621000D02*
X136370000Y-149341000D01*
G04 #@! TO.C,J2*
X143990000Y-144621000D02*
X143990000Y-149341000D01*
X143990000Y-149341000D02*
X150110000Y-149341000D01*
X150110000Y-149341000D02*
X150110000Y-144621000D01*
X150110000Y-144621000D02*
X143990000Y-144621000D01*
X145750000Y-144621000D02*
X145750000Y-144421000D01*
X145750000Y-144421000D02*
X145450000Y-144421000D01*
X145450000Y-144421000D02*
X145450000Y-144621000D01*
X145750000Y-144521000D02*
X145450000Y-144521000D01*
X146550000Y-144621000D02*
X146550000Y-145231000D01*
X146550000Y-145231000D02*
X144600000Y-145231000D01*
X144600000Y-145231000D02*
X144600000Y-148731000D01*
X144600000Y-148731000D02*
X149500000Y-148731000D01*
X149500000Y-148731000D02*
X149500000Y-145231000D01*
X149500000Y-145231000D02*
X147550000Y-145231000D01*
X147550000Y-145231000D02*
X147550000Y-144621000D01*
X143990000Y-145931000D02*
X144600000Y-145931000D01*
X143990000Y-147231000D02*
X144600000Y-147231000D01*
X150110000Y-145931000D02*
X149500000Y-145931000D01*
X150110000Y-147231000D02*
X149500000Y-147231000D01*
X146950000Y-148731000D02*
X146950000Y-148231000D01*
X146950000Y-148231000D02*
X147150000Y-148231000D01*
X147150000Y-148231000D02*
X147150000Y-148731000D01*
X147050000Y-148731000D02*
X147050000Y-148231000D01*
X144940000Y-144321000D02*
X143690000Y-144321000D01*
X143690000Y-144321000D02*
X143690000Y-145571000D01*
G04 #@! TO.C,J3*
X147521000Y-107139000D02*
X147521000Y-105889000D01*
X146271000Y-107139000D02*
X147521000Y-107139000D01*
X144161000Y-102729000D02*
X144161000Y-103229000D01*
X144061000Y-103229000D02*
X144061000Y-102729000D01*
X144261000Y-103229000D02*
X144061000Y-103229000D01*
X144261000Y-102729000D02*
X144261000Y-103229000D01*
X141101000Y-104229000D02*
X141711000Y-104229000D01*
X141101000Y-105529000D02*
X141711000Y-105529000D01*
X147221000Y-104229000D02*
X146611000Y-104229000D01*
X147221000Y-105529000D02*
X146611000Y-105529000D01*
X143661000Y-106229000D02*
X143661000Y-106839000D01*
X141711000Y-106229000D02*
X143661000Y-106229000D01*
X141711000Y-102729000D02*
X141711000Y-106229000D01*
X146611000Y-102729000D02*
X141711000Y-102729000D01*
X146611000Y-106229000D02*
X146611000Y-102729000D01*
X144661000Y-106229000D02*
X146611000Y-106229000D01*
X144661000Y-106839000D02*
X144661000Y-106229000D01*
X145461000Y-106939000D02*
X145761000Y-106939000D01*
X145761000Y-107039000D02*
X145761000Y-106839000D01*
X145461000Y-107039000D02*
X145761000Y-107039000D01*
X145461000Y-106839000D02*
X145461000Y-107039000D01*
X141101000Y-106839000D02*
X147221000Y-106839000D01*
X141101000Y-102119000D02*
X141101000Y-106839000D01*
X147221000Y-102119000D02*
X141101000Y-102119000D01*
X147221000Y-106839000D02*
X147221000Y-102119000D01*
G04 #@! TO.C,J4*
X132941000Y-105378000D02*
X132941000Y-110098000D01*
X132941000Y-110098000D02*
X139061000Y-110098000D01*
X139061000Y-110098000D02*
X139061000Y-105378000D01*
X139061000Y-105378000D02*
X132941000Y-105378000D01*
X134701000Y-105378000D02*
X134701000Y-105178000D01*
X134701000Y-105178000D02*
X134401000Y-105178000D01*
X134401000Y-105178000D02*
X134401000Y-105378000D01*
X134701000Y-105278000D02*
X134401000Y-105278000D01*
X135501000Y-105378000D02*
X135501000Y-105988000D01*
X135501000Y-105988000D02*
X133551000Y-105988000D01*
X133551000Y-105988000D02*
X133551000Y-109488000D01*
X133551000Y-109488000D02*
X138451000Y-109488000D01*
X138451000Y-109488000D02*
X138451000Y-105988000D01*
X138451000Y-105988000D02*
X136501000Y-105988000D01*
X136501000Y-105988000D02*
X136501000Y-105378000D01*
X132941000Y-106688000D02*
X133551000Y-106688000D01*
X132941000Y-107988000D02*
X133551000Y-107988000D01*
X139061000Y-106688000D02*
X138451000Y-106688000D01*
X139061000Y-107988000D02*
X138451000Y-107988000D01*
X135901000Y-109488000D02*
X135901000Y-108988000D01*
X135901000Y-108988000D02*
X136101000Y-108988000D01*
X136101000Y-108988000D02*
X136101000Y-109488000D01*
X136001000Y-109488000D02*
X136001000Y-108988000D01*
X133891000Y-105078000D02*
X132641000Y-105078000D01*
X132641000Y-105078000D02*
X132641000Y-106328000D01*
G04 #@! TO.C,R14*
X135482000Y-117602000D02*
G75*
G03X135482000Y-117602000I-1370000J0D01*
G01*
X134112000Y-118972000D02*
X134112000Y-119042000D01*
G04 #@! TO.C,R15*
X148590000Y-140689000D02*
X148590000Y-140759000D01*
X149960000Y-139319000D02*
G75*
G03X149960000Y-139319000I-1370000J0D01*
G01*
G04 #@! TO.C,R9*
X151992000Y-132207000D02*
G75*
G03X151992000Y-132207000I-1370000J0D01*
G01*
X149252000Y-132207000D02*
X149182000Y-132207000D01*
G04 #@! TO.C,R8*
X138784000Y-112141000D02*
X138854000Y-112141000D01*
X138784000Y-112141000D02*
G75*
G03X138784000Y-112141000I-1370000J0D01*
G01*
G04 #@! TO.C,R7*
X149960000Y-128778000D02*
G75*
G03X149960000Y-128778000I-1370000J0D01*
G01*
X149960000Y-128778000D02*
X150030000Y-128778000D01*
G04 #@! TO.C,R11*
X138911000Y-142367000D02*
G75*
G03X138911000Y-142367000I-1370000J0D01*
G01*
X138911000Y-142367000D02*
X138981000Y-142367000D01*
G04 #@! TO.C,R12*
X134112000Y-112930000D02*
X134112000Y-112860000D01*
X135482000Y-114300000D02*
G75*
G03X135482000Y-114300000I-1370000J0D01*
G01*
G04 #@! TO.C,R13*
X135482000Y-125095000D02*
G75*
G03X135482000Y-125095000I-1370000J0D01*
G01*
X134112000Y-123725000D02*
X134112000Y-123655000D01*
G04 #@! TO.C,U4*
X146805000Y-125282000D02*
X146805000Y-115002000D01*
X136405000Y-125282000D02*
X146805000Y-125282000D01*
X136405000Y-115002000D02*
X136405000Y-125282000D01*
X146805000Y-115002000D02*
X136405000Y-115002000D01*
X146745000Y-122792000D02*
X146745000Y-121142000D01*
X136465000Y-122792000D02*
X146745000Y-122792000D01*
X136465000Y-117492000D02*
X136465000Y-122792000D01*
X146745000Y-117492000D02*
X136465000Y-117492000D01*
X146745000Y-119142000D02*
X146745000Y-117492000D01*
X146745000Y-121142000D02*
G75*
G02X146745000Y-119142000I0J1000000D01*
G01*
G04 #@! TO.C,U3*
X136211000Y-130826000D02*
G75*
G02X136211000Y-132826000I0J-1000000D01*
G01*
X136211000Y-132826000D02*
X136211000Y-134476000D01*
X136211000Y-134476000D02*
X146491000Y-134476000D01*
X146491000Y-134476000D02*
X146491000Y-129176000D01*
X146491000Y-129176000D02*
X136211000Y-129176000D01*
X136211000Y-129176000D02*
X136211000Y-130826000D01*
X136151000Y-136966000D02*
X146551000Y-136966000D01*
X146551000Y-136966000D02*
X146551000Y-126686000D01*
X146551000Y-126686000D02*
X136151000Y-126686000D01*
X136151000Y-126686000D02*
X136151000Y-136966000D01*
G04 #@! TO.C,Q3*
X142345000Y-142439000D02*
X145945000Y-142439000D01*
X142306522Y-142427478D02*
G75*
G02X144145000Y-137989000I1838478J1838478D01*
G01*
X145983478Y-142427478D02*
G75*
G03X144145000Y-137989000I-1838478J1838478D01*
G01*
G04 #@! TO.C,*
D12*
G04 #@! TO.C,C1*
X145899142Y-111164666D02*
X145946761Y-111212285D01*
X145994380Y-111355142D01*
X145994380Y-111450380D01*
X145946761Y-111593238D01*
X145851523Y-111688476D01*
X145756285Y-111736095D01*
X145565809Y-111783714D01*
X145422952Y-111783714D01*
X145232476Y-111736095D01*
X145137238Y-111688476D01*
X145042000Y-111593238D01*
X144994380Y-111450380D01*
X144994380Y-111355142D01*
X145042000Y-111212285D01*
X145089619Y-111164666D01*
X145994380Y-110212285D02*
X145994380Y-110783714D01*
X145994380Y-110498000D02*
X144994380Y-110498000D01*
X145137238Y-110593238D01*
X145232476Y-110688476D01*
X145280095Y-110783714D01*
G04 #@! TO.C,C5*
X142978142Y-111291666D02*
X143025761Y-111339285D01*
X143073380Y-111482142D01*
X143073380Y-111577380D01*
X143025761Y-111720238D01*
X142930523Y-111815476D01*
X142835285Y-111863095D01*
X142644809Y-111910714D01*
X142501952Y-111910714D01*
X142311476Y-111863095D01*
X142216238Y-111815476D01*
X142121000Y-111720238D01*
X142073380Y-111577380D01*
X142073380Y-111482142D01*
X142121000Y-111339285D01*
X142168619Y-111291666D01*
X142073380Y-110386904D02*
X142073380Y-110863095D01*
X142549571Y-110910714D01*
X142501952Y-110863095D01*
X142454333Y-110767857D01*
X142454333Y-110529761D01*
X142501952Y-110434523D01*
X142549571Y-110386904D01*
X142644809Y-110339285D01*
X142882904Y-110339285D01*
X142978142Y-110386904D01*
X143025761Y-110434523D01*
X143073380Y-110529761D01*
X143073380Y-110767857D01*
X143025761Y-110863095D01*
X142978142Y-110910714D01*
G04 #@! TO.C,R10*
X150106142Y-137993380D02*
X149772809Y-137517190D01*
X149534714Y-137993380D02*
X149534714Y-136993380D01*
X149915666Y-136993380D01*
X150010904Y-137041000D01*
X150058523Y-137088619D01*
X150106142Y-137183857D01*
X150106142Y-137326714D01*
X150058523Y-137421952D01*
X150010904Y-137469571D01*
X149915666Y-137517190D01*
X149534714Y-137517190D01*
X151058523Y-137993380D02*
X150487095Y-137993380D01*
X150772809Y-137993380D02*
X150772809Y-136993380D01*
X150677571Y-137136238D01*
X150582333Y-137231476D01*
X150487095Y-137279095D01*
X151677571Y-136993380D02*
X151772809Y-136993380D01*
X151868047Y-137041000D01*
X151915666Y-137088619D01*
X151963285Y-137183857D01*
X152010904Y-137374333D01*
X152010904Y-137612428D01*
X151963285Y-137802904D01*
X151915666Y-137898142D01*
X151868047Y-137945761D01*
X151772809Y-137993380D01*
X151677571Y-137993380D01*
X151582333Y-137945761D01*
X151534714Y-137898142D01*
X151487095Y-137802904D01*
X151439476Y-137612428D01*
X151439476Y-137374333D01*
X151487095Y-137183857D01*
X151534714Y-137088619D01*
X151582333Y-137041000D01*
X151677571Y-136993380D01*
G04 #@! TO.C,U1*
X147915380Y-114807904D02*
X148724904Y-114807904D01*
X148820142Y-114760285D01*
X148867761Y-114712666D01*
X148915380Y-114617428D01*
X148915380Y-114426952D01*
X148867761Y-114331714D01*
X148820142Y-114284095D01*
X148724904Y-114236476D01*
X147915380Y-114236476D01*
X148915380Y-113236476D02*
X148915380Y-113807904D01*
X148915380Y-113522190D02*
X147915380Y-113522190D01*
X148058238Y-113617428D01*
X148153476Y-113712666D01*
X148201095Y-113807904D01*
G04 #@! TO.C,C2*
X136993333Y-139422142D02*
X136945714Y-139469761D01*
X136802857Y-139517380D01*
X136707619Y-139517380D01*
X136564761Y-139469761D01*
X136469523Y-139374523D01*
X136421904Y-139279285D01*
X136374285Y-139088809D01*
X136374285Y-138945952D01*
X136421904Y-138755476D01*
X136469523Y-138660238D01*
X136564761Y-138565000D01*
X136707619Y-138517380D01*
X136802857Y-138517380D01*
X136945714Y-138565000D01*
X136993333Y-138612619D01*
X137374285Y-138612619D02*
X137421904Y-138565000D01*
X137517142Y-138517380D01*
X137755238Y-138517380D01*
X137850476Y-138565000D01*
X137898095Y-138612619D01*
X137945714Y-138707857D01*
X137945714Y-138803095D01*
X137898095Y-138945952D01*
X137326666Y-139517380D01*
X137945714Y-139517380D01*
G04 #@! TO.C,C3*
X149201142Y-123443666D02*
X149248761Y-123491285D01*
X149296380Y-123634142D01*
X149296380Y-123729380D01*
X149248761Y-123872238D01*
X149153523Y-123967476D01*
X149058285Y-124015095D01*
X148867809Y-124062714D01*
X148724952Y-124062714D01*
X148534476Y-124015095D01*
X148439238Y-123967476D01*
X148344000Y-123872238D01*
X148296380Y-123729380D01*
X148296380Y-123634142D01*
X148344000Y-123491285D01*
X148391619Y-123443666D01*
X148296380Y-123110333D02*
X148296380Y-122491285D01*
X148677333Y-122824619D01*
X148677333Y-122681761D01*
X148724952Y-122586523D01*
X148772571Y-122538904D01*
X148867809Y-122491285D01*
X149105904Y-122491285D01*
X149201142Y-122538904D01*
X149248761Y-122586523D01*
X149296380Y-122681761D01*
X149296380Y-122967476D01*
X149248761Y-123062714D01*
X149201142Y-123110333D01*
G04 #@! TO.C,C4*
X134469142Y-130722666D02*
X134516761Y-130770285D01*
X134564380Y-130913142D01*
X134564380Y-131008380D01*
X134516761Y-131151238D01*
X134421523Y-131246476D01*
X134326285Y-131294095D01*
X134135809Y-131341714D01*
X133992952Y-131341714D01*
X133802476Y-131294095D01*
X133707238Y-131246476D01*
X133612000Y-131151238D01*
X133564380Y-131008380D01*
X133564380Y-130913142D01*
X133612000Y-130770285D01*
X133659619Y-130722666D01*
X133897714Y-129865523D02*
X134564380Y-129865523D01*
X133516761Y-130103619D02*
X134231047Y-130341714D01*
X134231047Y-129722666D01*
G04 #@! TO.C,J1*
X139112666Y-147788380D02*
X139112666Y-148502666D01*
X139065047Y-148645523D01*
X138969809Y-148740761D01*
X138826952Y-148788380D01*
X138731714Y-148788380D01*
X140112666Y-148788380D02*
X139541238Y-148788380D01*
X139826952Y-148788380D02*
X139826952Y-147788380D01*
X139731714Y-147931238D01*
X139636476Y-148026476D01*
X139541238Y-148074095D01*
G04 #@! TO.C,J2*
X147875666Y-147915380D02*
X147875666Y-148629666D01*
X147828047Y-148772523D01*
X147732809Y-148867761D01*
X147589952Y-148915380D01*
X147494714Y-148915380D01*
X148304238Y-148010619D02*
X148351857Y-147963000D01*
X148447095Y-147915380D01*
X148685190Y-147915380D01*
X148780428Y-147963000D01*
X148828047Y-148010619D01*
X148875666Y-148105857D01*
X148875666Y-148201095D01*
X148828047Y-148343952D01*
X148256619Y-148915380D01*
X148875666Y-148915380D01*
G04 #@! TO.C,J3*
X143176666Y-102703380D02*
X143176666Y-103417666D01*
X143129047Y-103560523D01*
X143033809Y-103655761D01*
X142890952Y-103703380D01*
X142795714Y-103703380D01*
X143557619Y-102703380D02*
X144176666Y-102703380D01*
X143843333Y-103084333D01*
X143986190Y-103084333D01*
X144081428Y-103131952D01*
X144129047Y-103179571D01*
X144176666Y-103274809D01*
X144176666Y-103512904D01*
X144129047Y-103608142D01*
X144081428Y-103655761D01*
X143986190Y-103703380D01*
X143700476Y-103703380D01*
X143605238Y-103655761D01*
X143557619Y-103608142D01*
G04 #@! TO.C,J4*
X137080666Y-108672380D02*
X137080666Y-109386666D01*
X137033047Y-109529523D01*
X136937809Y-109624761D01*
X136794952Y-109672380D01*
X136699714Y-109672380D01*
X137985428Y-109005714D02*
X137985428Y-109672380D01*
X137747333Y-108624761D02*
X137509238Y-109339047D01*
X138128285Y-109339047D01*
G04 #@! TO.C,R14*
X136850380Y-121292857D02*
X136374190Y-121626190D01*
X136850380Y-121864285D02*
X135850380Y-121864285D01*
X135850380Y-121483333D01*
X135898000Y-121388095D01*
X135945619Y-121340476D01*
X136040857Y-121292857D01*
X136183714Y-121292857D01*
X136278952Y-121340476D01*
X136326571Y-121388095D01*
X136374190Y-121483333D01*
X136374190Y-121864285D01*
X136850380Y-120340476D02*
X136850380Y-120911904D01*
X136850380Y-120626190D02*
X135850380Y-120626190D01*
X135993238Y-120721428D01*
X136088476Y-120816666D01*
X136136095Y-120911904D01*
X136183714Y-119483333D02*
X136850380Y-119483333D01*
X135802761Y-119721428D02*
X136517047Y-119959523D01*
X136517047Y-119340476D01*
G04 #@! TO.C,R15*
X151412380Y-141231857D02*
X150936190Y-141565190D01*
X151412380Y-141803285D02*
X150412380Y-141803285D01*
X150412380Y-141422333D01*
X150460000Y-141327095D01*
X150507619Y-141279476D01*
X150602857Y-141231857D01*
X150745714Y-141231857D01*
X150840952Y-141279476D01*
X150888571Y-141327095D01*
X150936190Y-141422333D01*
X150936190Y-141803285D01*
X151412380Y-140279476D02*
X151412380Y-140850904D01*
X151412380Y-140565190D02*
X150412380Y-140565190D01*
X150555238Y-140660428D01*
X150650476Y-140755666D01*
X150698095Y-140850904D01*
X150412380Y-139374714D02*
X150412380Y-139850904D01*
X150888571Y-139898523D01*
X150840952Y-139850904D01*
X150793333Y-139755666D01*
X150793333Y-139517571D01*
X150840952Y-139422333D01*
X150888571Y-139374714D01*
X150983809Y-139327095D01*
X151221904Y-139327095D01*
X151317142Y-139374714D01*
X151364761Y-139422333D01*
X151412380Y-139517571D01*
X151412380Y-139755666D01*
X151364761Y-139850904D01*
X151317142Y-139898523D01*
G04 #@! TO.C,R9*
X146391333Y-131389380D02*
X146058000Y-130913190D01*
X145819904Y-131389380D02*
X145819904Y-130389380D01*
X146200857Y-130389380D01*
X146296095Y-130437000D01*
X146343714Y-130484619D01*
X146391333Y-130579857D01*
X146391333Y-130722714D01*
X146343714Y-130817952D01*
X146296095Y-130865571D01*
X146200857Y-130913190D01*
X145819904Y-130913190D01*
X146867523Y-131389380D02*
X147058000Y-131389380D01*
X147153238Y-131341761D01*
X147200857Y-131294142D01*
X147296095Y-131151285D01*
X147343714Y-130960809D01*
X147343714Y-130579857D01*
X147296095Y-130484619D01*
X147248476Y-130437000D01*
X147153238Y-130389380D01*
X146962761Y-130389380D01*
X146867523Y-130437000D01*
X146819904Y-130484619D01*
X146772285Y-130579857D01*
X146772285Y-130817952D01*
X146819904Y-130913190D01*
X146867523Y-130960809D01*
X146962761Y-131008428D01*
X147153238Y-131008428D01*
X147248476Y-130960809D01*
X147296095Y-130913190D01*
X147343714Y-130817952D01*
G04 #@! TO.C,R8*
X139406333Y-114371380D02*
X139073000Y-113895190D01*
X138834904Y-114371380D02*
X138834904Y-113371380D01*
X139215857Y-113371380D01*
X139311095Y-113419000D01*
X139358714Y-113466619D01*
X139406333Y-113561857D01*
X139406333Y-113704714D01*
X139358714Y-113799952D01*
X139311095Y-113847571D01*
X139215857Y-113895190D01*
X138834904Y-113895190D01*
X139977761Y-113799952D02*
X139882523Y-113752333D01*
X139834904Y-113704714D01*
X139787285Y-113609476D01*
X139787285Y-113561857D01*
X139834904Y-113466619D01*
X139882523Y-113419000D01*
X139977761Y-113371380D01*
X140168238Y-113371380D01*
X140263476Y-113419000D01*
X140311095Y-113466619D01*
X140358714Y-113561857D01*
X140358714Y-113609476D01*
X140311095Y-113704714D01*
X140263476Y-113752333D01*
X140168238Y-113799952D01*
X139977761Y-113799952D01*
X139882523Y-113847571D01*
X139834904Y-113895190D01*
X139787285Y-113990428D01*
X139787285Y-114180904D01*
X139834904Y-114276142D01*
X139882523Y-114323761D01*
X139977761Y-114371380D01*
X140168238Y-114371380D01*
X140263476Y-114323761D01*
X140311095Y-114276142D01*
X140358714Y-114180904D01*
X140358714Y-113990428D01*
X140311095Y-113895190D01*
X140263476Y-113847571D01*
X140168238Y-113799952D01*
G04 #@! TO.C,R7*
X150455333Y-127579380D02*
X150122000Y-127103190D01*
X149883904Y-127579380D02*
X149883904Y-126579380D01*
X150264857Y-126579380D01*
X150360095Y-126627000D01*
X150407714Y-126674619D01*
X150455333Y-126769857D01*
X150455333Y-126912714D01*
X150407714Y-127007952D01*
X150360095Y-127055571D01*
X150264857Y-127103190D01*
X149883904Y-127103190D01*
X150788666Y-126579380D02*
X151455333Y-126579380D01*
X151026761Y-127579380D01*
G04 #@! TO.C,R11*
X142105142Y-143962380D02*
X141771809Y-143486190D01*
X141533714Y-143962380D02*
X141533714Y-142962380D01*
X141914666Y-142962380D01*
X142009904Y-143010000D01*
X142057523Y-143057619D01*
X142105142Y-143152857D01*
X142105142Y-143295714D01*
X142057523Y-143390952D01*
X142009904Y-143438571D01*
X141914666Y-143486190D01*
X141533714Y-143486190D01*
X143057523Y-143962380D02*
X142486095Y-143962380D01*
X142771809Y-143962380D02*
X142771809Y-142962380D01*
X142676571Y-143105238D01*
X142581333Y-143200476D01*
X142486095Y-143248095D01*
X144009904Y-143962380D02*
X143438476Y-143962380D01*
X143724190Y-143962380D02*
X143724190Y-142962380D01*
X143628952Y-143105238D01*
X143533714Y-143200476D01*
X143438476Y-143248095D01*
G04 #@! TO.C,R12*
X136596380Y-115958857D02*
X136120190Y-116292190D01*
X136596380Y-116530285D02*
X135596380Y-116530285D01*
X135596380Y-116149333D01*
X135644000Y-116054095D01*
X135691619Y-116006476D01*
X135786857Y-115958857D01*
X135929714Y-115958857D01*
X136024952Y-116006476D01*
X136072571Y-116054095D01*
X136120190Y-116149333D01*
X136120190Y-116530285D01*
X136596380Y-115006476D02*
X136596380Y-115577904D01*
X136596380Y-115292190D02*
X135596380Y-115292190D01*
X135739238Y-115387428D01*
X135834476Y-115482666D01*
X135882095Y-115577904D01*
X135691619Y-114625523D02*
X135644000Y-114577904D01*
X135596380Y-114482666D01*
X135596380Y-114244571D01*
X135644000Y-114149333D01*
X135691619Y-114101714D01*
X135786857Y-114054095D01*
X135882095Y-114054095D01*
X136024952Y-114101714D01*
X136596380Y-114673142D01*
X136596380Y-114054095D01*
G04 #@! TO.C,R13*
X136390142Y-126436380D02*
X136056809Y-125960190D01*
X135818714Y-126436380D02*
X135818714Y-125436380D01*
X136199666Y-125436380D01*
X136294904Y-125484000D01*
X136342523Y-125531619D01*
X136390142Y-125626857D01*
X136390142Y-125769714D01*
X136342523Y-125864952D01*
X136294904Y-125912571D01*
X136199666Y-125960190D01*
X135818714Y-125960190D01*
X137342523Y-126436380D02*
X136771095Y-126436380D01*
X137056809Y-126436380D02*
X137056809Y-125436380D01*
X136961571Y-125579238D01*
X136866333Y-125674476D01*
X136771095Y-125722095D01*
X137675857Y-125436380D02*
X138294904Y-125436380D01*
X137961571Y-125817333D01*
X138104428Y-125817333D01*
X138199666Y-125864952D01*
X138247285Y-125912571D01*
X138294904Y-126007809D01*
X138294904Y-126245904D01*
X138247285Y-126341142D01*
X138199666Y-126388761D01*
X138104428Y-126436380D01*
X137818714Y-126436380D01*
X137723476Y-126388761D01*
X137675857Y-126341142D01*
G04 #@! TO.C,U4*
X147197380Y-120903904D02*
X148006904Y-120903904D01*
X148102142Y-120856285D01*
X148149761Y-120808666D01*
X148197380Y-120713428D01*
X148197380Y-120522952D01*
X148149761Y-120427714D01*
X148102142Y-120380095D01*
X148006904Y-120332476D01*
X147197380Y-120332476D01*
X147530714Y-119427714D02*
X148197380Y-119427714D01*
X147149761Y-119665809D02*
X147864047Y-119903904D01*
X147864047Y-119284857D01*
G04 #@! TO.C,U3*
X140295380Y-132714904D02*
X141104904Y-132714904D01*
X141200142Y-132667285D01*
X141247761Y-132619666D01*
X141295380Y-132524428D01*
X141295380Y-132333952D01*
X141247761Y-132238714D01*
X141200142Y-132191095D01*
X141104904Y-132143476D01*
X140295380Y-132143476D01*
X140295380Y-131762523D02*
X140295380Y-131143476D01*
X140676333Y-131476809D01*
X140676333Y-131333952D01*
X140723952Y-131238714D01*
X140771571Y-131191095D01*
X140866809Y-131143476D01*
X141104904Y-131143476D01*
X141200142Y-131191095D01*
X141247761Y-131238714D01*
X141295380Y-131333952D01*
X141295380Y-131619666D01*
X141247761Y-131714904D01*
X141200142Y-131762523D01*
G04 #@! TO.C,Q3*
X141763761Y-138469619D02*
X141668523Y-138422000D01*
X141573285Y-138326761D01*
X141430428Y-138183904D01*
X141335190Y-138136285D01*
X141239952Y-138136285D01*
X141287571Y-138374380D02*
X141192333Y-138326761D01*
X141097095Y-138231523D01*
X141049476Y-138041047D01*
X141049476Y-137707714D01*
X141097095Y-137517238D01*
X141192333Y-137422000D01*
X141287571Y-137374380D01*
X141478047Y-137374380D01*
X141573285Y-137422000D01*
X141668523Y-137517238D01*
X141716142Y-137707714D01*
X141716142Y-138041047D01*
X141668523Y-138231523D01*
X141573285Y-138326761D01*
X141478047Y-138374380D01*
X141287571Y-138374380D01*
X142049476Y-137374380D02*
X142668523Y-137374380D01*
X142335190Y-137755333D01*
X142478047Y-137755333D01*
X142573285Y-137802952D01*
X142620904Y-137850571D01*
X142668523Y-137945809D01*
X142668523Y-138183904D01*
X142620904Y-138279142D01*
X142573285Y-138326761D01*
X142478047Y-138374380D01*
X142192333Y-138374380D01*
X142097095Y-138326761D01*
X142049476Y-138279142D01*
G04 #@! TO.C,*
G04 #@! TD*
M02*
