M48
INCH,TZ
T1C0.0295
T2C0.0315
T3C0.0433
%
G90
G05
T1
X54500Y-57650
X55287Y-57650
X57500Y-57650
X58287Y-57650
X53150Y-42200
X53937Y-42200
X56363Y-41350
X57150Y-41350
X56250Y-55350
X56750Y-55350
X57250Y-55350
T2
X58300Y-52050
X59300Y-52050
X52800Y-48250
X52800Y-49250
X52800Y-44000
X52800Y-45000
X53000Y-54750
X54969Y-54750
X52800Y-50431
X52800Y-52400
X58500Y-54850
X58500Y-55850
X54150Y-50400
X54150Y-53400
X55150Y-50400
X55150Y-53400
X56150Y-50400
X56150Y-53400
X57150Y-50400
X57150Y-53400
X54100Y-44150
X55100Y-44150
X58600Y-47550
X58600Y-49519
X56150Y-42781
X56150Y-44750
X54250Y-45800
X54250Y-48800
X55250Y-45800
X55250Y-48800
X56250Y-45800
X56250Y-48800
X57250Y-45800
X57250Y-48800
X58500Y-50700
X59500Y-50700
X57400Y-42781
X57400Y-44750
X58450Y-53450
X59450Y-53450
X52800Y-46300
X52800Y-47300
X54150Y-56050
X55150Y-56050
T3
X59450Y-43850
X59450Y-44850
X59450Y-45850
T0
M30
