G04 #@! TF.GenerationSoftware,KiCad,Pcbnew,(5.0.1)-rc2*
G04 #@! TF.CreationDate,2018-11-24T17:46:36-05:00*
G04 #@! TF.ProjectId,vco2,76636F322E6B696361645F7063620000,1*
G04 #@! TF.SameCoordinates,Original*
G04 #@! TF.FileFunction,Soldermask,Top*
G04 #@! TF.FilePolarity,Negative*
%FSLAX46Y46*%
G04 Gerber Fmt 4.6, Leading zero omitted, Abs format (unit mm)*
G04 Created by KiCad (PCBNEW (5.0.1)-rc2) date 11/24/2018 5:46:36 PM*
%MOMM*%
%LPD*%
G01*
G04 APERTURE LIST*
%ADD10C,0.100000*%
G04 APERTURE END LIST*
D10*
G36*
X150940433Y-150653893D02*
X151030657Y-150671839D01*
X151136267Y-150715585D01*
X151285621Y-150777449D01*
X151515089Y-150930774D01*
X151710226Y-151125911D01*
X151863551Y-151355379D01*
X151969161Y-151610344D01*
X152023000Y-151881012D01*
X152023000Y-152156988D01*
X151969161Y-152427656D01*
X151863551Y-152682621D01*
X151710226Y-152912089D01*
X151515089Y-153107226D01*
X151285621Y-153260551D01*
X151136267Y-153322415D01*
X151030657Y-153366161D01*
X150940433Y-153384107D01*
X150759988Y-153420000D01*
X150484012Y-153420000D01*
X150303567Y-153384107D01*
X150213343Y-153366161D01*
X150107733Y-153322415D01*
X149958379Y-153260551D01*
X149728911Y-153107226D01*
X149533774Y-152912089D01*
X149380449Y-152682621D01*
X149274839Y-152427656D01*
X149221000Y-152156988D01*
X149221000Y-151881012D01*
X149274839Y-151610344D01*
X149380449Y-151355379D01*
X149533774Y-151125911D01*
X149728911Y-150930774D01*
X149958379Y-150777449D01*
X150107733Y-150715585D01*
X150213343Y-150671839D01*
X150303567Y-150653893D01*
X150484012Y-150618000D01*
X150759988Y-150618000D01*
X150940433Y-150653893D01*
X150940433Y-150653893D01*
G37*
G36*
X134303433Y-150653893D02*
X134393657Y-150671839D01*
X134499267Y-150715585D01*
X134648621Y-150777449D01*
X134878089Y-150930774D01*
X135073226Y-151125911D01*
X135226551Y-151355379D01*
X135332161Y-151610344D01*
X135386000Y-151881012D01*
X135386000Y-152156988D01*
X135332161Y-152427656D01*
X135226551Y-152682621D01*
X135073226Y-152912089D01*
X134878089Y-153107226D01*
X134648621Y-153260551D01*
X134499267Y-153322415D01*
X134393657Y-153366161D01*
X134303433Y-153384107D01*
X134122988Y-153420000D01*
X133847012Y-153420000D01*
X133666567Y-153384107D01*
X133576343Y-153366161D01*
X133470733Y-153322415D01*
X133321379Y-153260551D01*
X133091911Y-153107226D01*
X132896774Y-152912089D01*
X132743449Y-152682621D01*
X132637839Y-152427656D01*
X132584000Y-152156988D01*
X132584000Y-151881012D01*
X132637839Y-151610344D01*
X132743449Y-151355379D01*
X132896774Y-151125911D01*
X133091911Y-150930774D01*
X133321379Y-150777449D01*
X133470733Y-150715585D01*
X133576343Y-150671839D01*
X133666567Y-150653893D01*
X133847012Y-150618000D01*
X134122988Y-150618000D01*
X134303433Y-150653893D01*
X134303433Y-150653893D01*
G37*
G36*
X148177617Y-145514420D02*
X148259426Y-145539237D01*
X148300332Y-145551645D01*
X148322544Y-145563518D01*
X148413425Y-145612095D01*
X148413427Y-145612096D01*
X148413426Y-145612096D01*
X148486965Y-145672447D01*
X148512553Y-145693447D01*
X148593905Y-145792574D01*
X148593906Y-145792576D01*
X148654355Y-145905667D01*
X148666763Y-145946573D01*
X148691580Y-146028382D01*
X148701000Y-146124027D01*
X148701000Y-146737973D01*
X148691580Y-146833618D01*
X148666763Y-146915427D01*
X148654355Y-146956333D01*
X148600819Y-147056491D01*
X148593905Y-147069426D01*
X148512553Y-147168553D01*
X148413426Y-147249905D01*
X148413424Y-147249906D01*
X148300333Y-147310355D01*
X148259427Y-147322763D01*
X148177618Y-147347580D01*
X148050000Y-147360149D01*
X147922383Y-147347580D01*
X147840574Y-147322763D01*
X147799668Y-147310355D01*
X147686577Y-147249906D01*
X147686575Y-147249905D01*
X147587448Y-147168553D01*
X147506095Y-147069426D01*
X147465795Y-146994030D01*
X147445645Y-146956333D01*
X147433237Y-146915427D01*
X147408420Y-146833618D01*
X147399000Y-146737973D01*
X147399000Y-146124028D01*
X147408420Y-146028383D01*
X147445645Y-145905669D01*
X147445645Y-145905668D01*
X147477957Y-145845218D01*
X147506095Y-145792575D01*
X147587447Y-145693447D01*
X147686574Y-145612095D01*
X147721400Y-145593480D01*
X147799667Y-145551645D01*
X147840573Y-145539237D01*
X147922382Y-145514420D01*
X148050000Y-145501851D01*
X148177617Y-145514420D01*
X148177617Y-145514420D01*
G37*
G36*
X140557617Y-145514420D02*
X140639426Y-145539237D01*
X140680332Y-145551645D01*
X140702544Y-145563518D01*
X140793425Y-145612095D01*
X140793427Y-145612096D01*
X140793426Y-145612096D01*
X140866965Y-145672447D01*
X140892553Y-145693447D01*
X140973905Y-145792574D01*
X140973906Y-145792576D01*
X141034355Y-145905667D01*
X141046763Y-145946573D01*
X141071580Y-146028382D01*
X141081000Y-146124027D01*
X141081000Y-146737973D01*
X141071580Y-146833618D01*
X141046763Y-146915427D01*
X141034355Y-146956333D01*
X140980819Y-147056491D01*
X140973905Y-147069426D01*
X140892553Y-147168553D01*
X140793426Y-147249905D01*
X140793424Y-147249906D01*
X140680333Y-147310355D01*
X140639427Y-147322763D01*
X140557618Y-147347580D01*
X140430000Y-147360149D01*
X140302383Y-147347580D01*
X140220574Y-147322763D01*
X140179668Y-147310355D01*
X140066577Y-147249906D01*
X140066575Y-147249905D01*
X139967448Y-147168553D01*
X139886095Y-147069426D01*
X139845795Y-146994030D01*
X139825645Y-146956333D01*
X139813237Y-146915427D01*
X139788420Y-146833618D01*
X139779000Y-146737973D01*
X139779000Y-146124028D01*
X139788420Y-146028383D01*
X139825645Y-145905669D01*
X139825645Y-145905668D01*
X139857957Y-145845218D01*
X139886095Y-145792575D01*
X139967447Y-145693447D01*
X140066574Y-145612095D01*
X140101400Y-145593480D01*
X140179667Y-145551645D01*
X140220573Y-145539237D01*
X140302382Y-145514420D01*
X140430000Y-145501851D01*
X140557617Y-145514420D01*
X140557617Y-145514420D01*
G37*
G36*
X146541242Y-145509404D02*
X146578339Y-145520657D01*
X146612520Y-145538927D01*
X146642482Y-145563518D01*
X146667073Y-145593480D01*
X146685343Y-145627661D01*
X146696596Y-145664758D01*
X146701000Y-145709473D01*
X146701000Y-147152527D01*
X146696596Y-147197242D01*
X146685343Y-147234339D01*
X146667073Y-147268520D01*
X146642482Y-147298482D01*
X146612520Y-147323073D01*
X146578339Y-147341343D01*
X146541242Y-147352596D01*
X146496527Y-147357000D01*
X145603473Y-147357000D01*
X145558758Y-147352596D01*
X145521661Y-147341343D01*
X145487480Y-147323073D01*
X145457518Y-147298482D01*
X145432927Y-147268520D01*
X145414657Y-147234339D01*
X145403404Y-147197242D01*
X145399000Y-147152527D01*
X145399000Y-145709473D01*
X145403404Y-145664758D01*
X145414657Y-145627661D01*
X145432927Y-145593480D01*
X145457518Y-145563518D01*
X145487480Y-145538927D01*
X145521661Y-145520657D01*
X145558758Y-145509404D01*
X145603473Y-145505000D01*
X146496527Y-145505000D01*
X146541242Y-145509404D01*
X146541242Y-145509404D01*
G37*
G36*
X138921242Y-145509404D02*
X138958339Y-145520657D01*
X138992520Y-145538927D01*
X139022482Y-145563518D01*
X139047073Y-145593480D01*
X139065343Y-145627661D01*
X139076596Y-145664758D01*
X139081000Y-145709473D01*
X139081000Y-147152527D01*
X139076596Y-147197242D01*
X139065343Y-147234339D01*
X139047073Y-147268520D01*
X139022482Y-147298482D01*
X138992520Y-147323073D01*
X138958339Y-147341343D01*
X138921242Y-147352596D01*
X138876527Y-147357000D01*
X137983473Y-147357000D01*
X137938758Y-147352596D01*
X137901661Y-147341343D01*
X137867480Y-147323073D01*
X137837518Y-147298482D01*
X137812927Y-147268520D01*
X137794657Y-147234339D01*
X137783404Y-147197242D01*
X137779000Y-147152527D01*
X137779000Y-145709473D01*
X137783404Y-145664758D01*
X137794657Y-145627661D01*
X137812927Y-145593480D01*
X137837518Y-145563518D01*
X137867480Y-145538927D01*
X137901661Y-145520657D01*
X137938758Y-145509404D01*
X137983473Y-145505000D01*
X138876527Y-145505000D01*
X138921242Y-145509404D01*
X138921242Y-145509404D01*
G37*
G36*
X140247821Y-141528313D02*
X140247824Y-141528314D01*
X140247825Y-141528314D01*
X140408239Y-141576975D01*
X140408241Y-141576976D01*
X140408244Y-141576977D01*
X140556078Y-141655995D01*
X140685659Y-141762341D01*
X140792005Y-141891922D01*
X140871023Y-142039756D01*
X140871024Y-142039759D01*
X140871025Y-142039761D01*
X140915460Y-142186244D01*
X140919687Y-142200179D01*
X140936117Y-142367000D01*
X140919687Y-142533821D01*
X140919686Y-142533824D01*
X140919686Y-142533825D01*
X140884741Y-142649025D01*
X140871023Y-142694244D01*
X140792005Y-142842078D01*
X140685659Y-142971659D01*
X140556078Y-143078005D01*
X140408244Y-143157023D01*
X140408241Y-143157024D01*
X140408239Y-143157025D01*
X140247825Y-143205686D01*
X140247824Y-143205686D01*
X140247821Y-143205687D01*
X140122804Y-143218000D01*
X140039196Y-143218000D01*
X139914179Y-143205687D01*
X139914176Y-143205686D01*
X139914175Y-143205686D01*
X139753761Y-143157025D01*
X139753759Y-143157024D01*
X139753756Y-143157023D01*
X139605922Y-143078005D01*
X139476341Y-142971659D01*
X139369995Y-142842078D01*
X139290977Y-142694244D01*
X139277260Y-142649025D01*
X139242314Y-142533825D01*
X139242314Y-142533824D01*
X139242313Y-142533821D01*
X139225883Y-142367000D01*
X139242313Y-142200179D01*
X139246540Y-142186244D01*
X139290975Y-142039761D01*
X139290976Y-142039759D01*
X139290977Y-142039756D01*
X139369995Y-141891922D01*
X139476341Y-141762341D01*
X139605922Y-141655995D01*
X139753756Y-141576977D01*
X139753759Y-141576976D01*
X139753761Y-141576975D01*
X139914175Y-141528314D01*
X139914176Y-141528314D01*
X139914179Y-141528313D01*
X140039196Y-141516000D01*
X140122804Y-141516000D01*
X140247821Y-141528313D01*
X140247821Y-141528313D01*
G37*
G36*
X137789228Y-141548703D02*
X137944100Y-141612853D01*
X138083481Y-141705985D01*
X138202015Y-141824519D01*
X138295147Y-141963900D01*
X138359297Y-142118772D01*
X138392000Y-142283184D01*
X138392000Y-142450816D01*
X138359297Y-142615228D01*
X138295147Y-142770100D01*
X138202015Y-142909481D01*
X138083481Y-143028015D01*
X137944100Y-143121147D01*
X137789228Y-143185297D01*
X137624816Y-143218000D01*
X137457184Y-143218000D01*
X137292772Y-143185297D01*
X137137900Y-143121147D01*
X136998519Y-143028015D01*
X136879985Y-142909481D01*
X136786853Y-142770100D01*
X136722703Y-142615228D01*
X136690000Y-142450816D01*
X136690000Y-142283184D01*
X136722703Y-142118772D01*
X136786853Y-141963900D01*
X136879985Y-141824519D01*
X136998519Y-141705985D01*
X137137900Y-141612853D01*
X137292772Y-141548703D01*
X137457184Y-141516000D01*
X137624816Y-141516000D01*
X137789228Y-141548703D01*
X137789228Y-141548703D01*
G37*
G36*
X148756821Y-141020313D02*
X148756824Y-141020314D01*
X148756825Y-141020314D01*
X148917239Y-141068975D01*
X148917241Y-141068976D01*
X148917244Y-141068977D01*
X149065078Y-141147995D01*
X149194659Y-141254341D01*
X149301005Y-141383922D01*
X149380023Y-141531756D01*
X149380024Y-141531759D01*
X149380025Y-141531761D01*
X149393741Y-141576977D01*
X149428687Y-141692179D01*
X149445117Y-141859000D01*
X149428687Y-142025821D01*
X149428686Y-142025824D01*
X149428686Y-142025825D01*
X149400491Y-142118772D01*
X149380023Y-142186244D01*
X149301005Y-142334078D01*
X149194659Y-142463659D01*
X149065078Y-142570005D01*
X148917244Y-142649023D01*
X148917241Y-142649024D01*
X148917239Y-142649025D01*
X148756825Y-142697686D01*
X148756824Y-142697686D01*
X148756821Y-142697687D01*
X148631804Y-142710000D01*
X148548196Y-142710000D01*
X148423179Y-142697687D01*
X148423176Y-142697686D01*
X148423175Y-142697686D01*
X148262761Y-142649025D01*
X148262759Y-142649024D01*
X148262756Y-142649023D01*
X148114922Y-142570005D01*
X147985341Y-142463659D01*
X147878995Y-142334078D01*
X147799977Y-142186244D01*
X147779510Y-142118772D01*
X147751314Y-142025825D01*
X147751314Y-142025824D01*
X147751313Y-142025821D01*
X147734883Y-141859000D01*
X147751313Y-141692179D01*
X147786259Y-141576977D01*
X147799975Y-141531761D01*
X147799976Y-141531759D01*
X147799977Y-141531756D01*
X147878995Y-141383922D01*
X147985341Y-141254341D01*
X148114922Y-141147995D01*
X148262756Y-141068977D01*
X148262759Y-141068976D01*
X148262761Y-141068975D01*
X148423175Y-141020314D01*
X148423176Y-141020314D01*
X148423179Y-141020313D01*
X148548196Y-141008000D01*
X148631804Y-141008000D01*
X148756821Y-141020313D01*
X148756821Y-141020313D01*
G37*
G36*
X145527915Y-139796334D02*
X145636491Y-139829271D01*
X145736556Y-139882756D01*
X145824264Y-139954736D01*
X145896244Y-140042443D01*
X145949729Y-140142508D01*
X145982666Y-140251084D01*
X145991000Y-140335702D01*
X145991000Y-140842297D01*
X145982666Y-140926916D01*
X145949729Y-141035492D01*
X145896244Y-141135557D01*
X145824264Y-141223264D01*
X145736557Y-141295244D01*
X145636492Y-141348729D01*
X145527916Y-141381666D01*
X145415000Y-141392787D01*
X145302085Y-141381666D01*
X145193509Y-141348729D01*
X145093444Y-141295244D01*
X145005737Y-141223264D01*
X144933757Y-141135557D01*
X144890240Y-141054143D01*
X144876627Y-141033768D01*
X144859299Y-141016441D01*
X144838925Y-141002827D01*
X144816286Y-140993450D01*
X144792253Y-140988669D01*
X144767748Y-140988669D01*
X144743715Y-140993449D01*
X144721076Y-141002827D01*
X144700701Y-141016440D01*
X144683374Y-141033768D01*
X144669760Y-141054143D01*
X144626244Y-141135557D01*
X144554264Y-141223264D01*
X144466557Y-141295244D01*
X144366492Y-141348729D01*
X144257916Y-141381666D01*
X144145000Y-141392787D01*
X144032085Y-141381666D01*
X143923509Y-141348729D01*
X143823444Y-141295244D01*
X143735737Y-141223264D01*
X143689348Y-141166739D01*
X143672626Y-141146364D01*
X143655299Y-141129036D01*
X143634924Y-141115423D01*
X143612285Y-141106045D01*
X143588252Y-141101265D01*
X143563748Y-141101265D01*
X143539714Y-141106046D01*
X143517075Y-141115423D01*
X143496701Y-141129037D01*
X143479373Y-141146364D01*
X143465760Y-141166739D01*
X143456382Y-141189378D01*
X143451000Y-141225663D01*
X143451000Y-141390000D01*
X142299000Y-141390000D01*
X142299000Y-139788000D01*
X143451000Y-139788000D01*
X143451000Y-139952337D01*
X143453402Y-139976723D01*
X143460515Y-140000172D01*
X143472066Y-140021783D01*
X143487612Y-140040725D01*
X143506554Y-140056271D01*
X143528165Y-140067822D01*
X143551614Y-140074935D01*
X143576000Y-140077337D01*
X143600386Y-140074935D01*
X143623835Y-140067822D01*
X143645446Y-140056271D01*
X143672626Y-140031636D01*
X143735734Y-139954739D01*
X143735736Y-139954736D01*
X143823443Y-139882756D01*
X143923508Y-139829271D01*
X144032084Y-139796334D01*
X144145000Y-139785213D01*
X144257915Y-139796334D01*
X144366491Y-139829271D01*
X144466556Y-139882756D01*
X144554264Y-139954736D01*
X144626244Y-140042443D01*
X144669767Y-140123869D01*
X144683373Y-140144232D01*
X144700700Y-140161560D01*
X144721075Y-140175174D01*
X144743713Y-140184551D01*
X144767747Y-140189332D01*
X144792251Y-140189332D01*
X144816285Y-140184552D01*
X144838924Y-140175175D01*
X144859298Y-140161561D01*
X144876626Y-140144234D01*
X144890240Y-140123858D01*
X144933756Y-140042444D01*
X145005734Y-139954739D01*
X145005736Y-139954736D01*
X145093443Y-139882756D01*
X145193508Y-139829271D01*
X145302084Y-139796334D01*
X145415000Y-139785213D01*
X145527915Y-139796334D01*
X145527915Y-139796334D01*
G37*
G36*
X148838228Y-138500703D02*
X148993100Y-138564853D01*
X149132481Y-138657985D01*
X149251015Y-138776519D01*
X149344147Y-138915900D01*
X149408297Y-139070772D01*
X149441000Y-139235184D01*
X149441000Y-139402816D01*
X149408297Y-139567228D01*
X149344147Y-139722100D01*
X149251015Y-139861481D01*
X149132481Y-139980015D01*
X148993100Y-140073147D01*
X148838228Y-140137297D01*
X148673816Y-140170000D01*
X148506184Y-140170000D01*
X148341772Y-140137297D01*
X148186900Y-140073147D01*
X148047519Y-139980015D01*
X147928985Y-139861481D01*
X147835853Y-139722100D01*
X147771703Y-139567228D01*
X147739000Y-139402816D01*
X147739000Y-139235184D01*
X147771703Y-139070772D01*
X147835853Y-138915900D01*
X147928985Y-138776519D01*
X148047519Y-138657985D01*
X148186900Y-138564853D01*
X148341772Y-138500703D01*
X148506184Y-138468000D01*
X148673816Y-138468000D01*
X148838228Y-138500703D01*
X148838228Y-138500703D01*
G37*
G36*
X134868228Y-138246703D02*
X135023100Y-138310853D01*
X135162481Y-138403985D01*
X135281015Y-138522519D01*
X135374147Y-138661900D01*
X135438297Y-138816772D01*
X135471000Y-138981184D01*
X135471000Y-139148816D01*
X135438297Y-139313228D01*
X135374147Y-139468100D01*
X135281015Y-139607481D01*
X135162481Y-139726015D01*
X135023100Y-139819147D01*
X134868228Y-139883297D01*
X134703816Y-139916000D01*
X134536184Y-139916000D01*
X134371772Y-139883297D01*
X134216900Y-139819147D01*
X134077519Y-139726015D01*
X133958985Y-139607481D01*
X133865853Y-139468100D01*
X133801703Y-139313228D01*
X133769000Y-139148816D01*
X133769000Y-138981184D01*
X133801703Y-138816772D01*
X133865853Y-138661900D01*
X133958985Y-138522519D01*
X134077519Y-138403985D01*
X134216900Y-138310853D01*
X134371772Y-138246703D01*
X134536184Y-138214000D01*
X134703816Y-138214000D01*
X134868228Y-138246703D01*
X134868228Y-138246703D01*
G37*
G36*
X139868228Y-138246703D02*
X140023100Y-138310853D01*
X140162481Y-138403985D01*
X140281015Y-138522519D01*
X140374147Y-138661900D01*
X140438297Y-138816772D01*
X140471000Y-138981184D01*
X140471000Y-139148816D01*
X140438297Y-139313228D01*
X140374147Y-139468100D01*
X140281015Y-139607481D01*
X140162481Y-139726015D01*
X140023100Y-139819147D01*
X139868228Y-139883297D01*
X139703816Y-139916000D01*
X139536184Y-139916000D01*
X139371772Y-139883297D01*
X139216900Y-139819147D01*
X139077519Y-139726015D01*
X138958985Y-139607481D01*
X138865853Y-139468100D01*
X138801703Y-139313228D01*
X138769000Y-139148816D01*
X138769000Y-138981184D01*
X138801703Y-138816772D01*
X138865853Y-138661900D01*
X138958985Y-138522519D01*
X139077519Y-138403985D01*
X139216900Y-138310853D01*
X139371772Y-138246703D01*
X139536184Y-138214000D01*
X139703816Y-138214000D01*
X139868228Y-138246703D01*
X139868228Y-138246703D01*
G37*
G36*
X151169821Y-134924313D02*
X151169824Y-134924314D01*
X151169825Y-134924314D01*
X151330239Y-134972975D01*
X151330241Y-134972976D01*
X151330244Y-134972977D01*
X151478078Y-135051995D01*
X151607659Y-135158341D01*
X151714005Y-135287922D01*
X151793023Y-135435756D01*
X151793024Y-135435759D01*
X151793025Y-135435761D01*
X151841686Y-135596175D01*
X151841687Y-135596179D01*
X151858117Y-135763000D01*
X151841687Y-135929821D01*
X151841686Y-135929824D01*
X151841686Y-135929825D01*
X151816993Y-136011228D01*
X151793023Y-136090244D01*
X151714005Y-136238078D01*
X151607659Y-136367659D01*
X151478078Y-136474005D01*
X151330244Y-136553023D01*
X151330241Y-136553024D01*
X151330239Y-136553025D01*
X151169825Y-136601686D01*
X151169824Y-136601686D01*
X151169821Y-136601687D01*
X151044804Y-136614000D01*
X150961196Y-136614000D01*
X150836179Y-136601687D01*
X150836176Y-136601686D01*
X150836175Y-136601686D01*
X150675761Y-136553025D01*
X150675759Y-136553024D01*
X150675756Y-136553023D01*
X150527922Y-136474005D01*
X150398341Y-136367659D01*
X150291995Y-136238078D01*
X150212977Y-136090244D01*
X150189008Y-136011228D01*
X150164314Y-135929825D01*
X150164314Y-135929824D01*
X150164313Y-135929821D01*
X150147883Y-135763000D01*
X150164313Y-135596179D01*
X150164314Y-135596175D01*
X150212975Y-135435761D01*
X150212976Y-135435759D01*
X150212977Y-135435756D01*
X150291995Y-135287922D01*
X150398341Y-135158341D01*
X150527922Y-135051995D01*
X150675756Y-134972977D01*
X150675759Y-134972976D01*
X150675761Y-134972975D01*
X150836175Y-134924314D01*
X150836176Y-134924314D01*
X150836179Y-134924313D01*
X150961196Y-134912000D01*
X151044804Y-134912000D01*
X151169821Y-134924313D01*
X151169821Y-134924313D01*
G37*
G36*
X148711228Y-134944703D02*
X148866100Y-135008853D01*
X149005481Y-135101985D01*
X149124015Y-135220519D01*
X149217147Y-135359900D01*
X149281297Y-135514772D01*
X149314000Y-135679184D01*
X149314000Y-135846816D01*
X149281297Y-136011228D01*
X149217147Y-136166100D01*
X149124015Y-136305481D01*
X149005481Y-136424015D01*
X148866100Y-136517147D01*
X148711228Y-136581297D01*
X148546816Y-136614000D01*
X148379184Y-136614000D01*
X148214772Y-136581297D01*
X148059900Y-136517147D01*
X147920519Y-136424015D01*
X147801985Y-136305481D01*
X147708853Y-136166100D01*
X147644703Y-136011228D01*
X147612000Y-135846816D01*
X147612000Y-135679184D01*
X147644703Y-135514772D01*
X147708853Y-135359900D01*
X147801985Y-135220519D01*
X147920519Y-135101985D01*
X148059900Y-135008853D01*
X148214772Y-134944703D01*
X148379184Y-134912000D01*
X148546816Y-134912000D01*
X148711228Y-134944703D01*
X148711228Y-134944703D01*
G37*
G36*
X140247821Y-134797313D02*
X140247824Y-134797314D01*
X140247825Y-134797314D01*
X140408239Y-134845975D01*
X140408241Y-134845976D01*
X140408244Y-134845977D01*
X140556078Y-134924995D01*
X140685659Y-135031341D01*
X140792005Y-135160922D01*
X140871023Y-135308756D01*
X140871024Y-135308759D01*
X140871025Y-135308761D01*
X140909548Y-135435756D01*
X140919687Y-135469179D01*
X140936117Y-135636000D01*
X140919687Y-135802821D01*
X140871023Y-135963244D01*
X140792005Y-136111078D01*
X140685659Y-136240659D01*
X140556078Y-136347005D01*
X140408244Y-136426023D01*
X140408241Y-136426024D01*
X140408239Y-136426025D01*
X140247825Y-136474686D01*
X140247824Y-136474686D01*
X140247821Y-136474687D01*
X140122804Y-136487000D01*
X140039196Y-136487000D01*
X139914179Y-136474687D01*
X139914176Y-136474686D01*
X139914175Y-136474686D01*
X139753761Y-136426025D01*
X139753759Y-136426024D01*
X139753756Y-136426023D01*
X139605922Y-136347005D01*
X139476341Y-136240659D01*
X139369995Y-136111078D01*
X139290977Y-135963244D01*
X139242313Y-135802821D01*
X139225883Y-135636000D01*
X139242313Y-135469179D01*
X139252452Y-135435756D01*
X139290975Y-135308761D01*
X139290976Y-135308759D01*
X139290977Y-135308756D01*
X139369995Y-135160922D01*
X139476341Y-135031341D01*
X139605922Y-134924995D01*
X139753756Y-134845977D01*
X139753759Y-134845976D01*
X139753761Y-134845975D01*
X139914175Y-134797314D01*
X139914176Y-134797314D01*
X139914179Y-134797313D01*
X140039196Y-134785000D01*
X140122804Y-134785000D01*
X140247821Y-134797313D01*
X140247821Y-134797313D01*
G37*
G36*
X145327821Y-134797313D02*
X145327824Y-134797314D01*
X145327825Y-134797314D01*
X145488239Y-134845975D01*
X145488241Y-134845976D01*
X145488244Y-134845977D01*
X145636078Y-134924995D01*
X145765659Y-135031341D01*
X145872005Y-135160922D01*
X145951023Y-135308756D01*
X145951024Y-135308759D01*
X145951025Y-135308761D01*
X145989548Y-135435756D01*
X145999687Y-135469179D01*
X146016117Y-135636000D01*
X145999687Y-135802821D01*
X145951023Y-135963244D01*
X145872005Y-136111078D01*
X145765659Y-136240659D01*
X145636078Y-136347005D01*
X145488244Y-136426023D01*
X145488241Y-136426024D01*
X145488239Y-136426025D01*
X145327825Y-136474686D01*
X145327824Y-136474686D01*
X145327821Y-136474687D01*
X145202804Y-136487000D01*
X145119196Y-136487000D01*
X144994179Y-136474687D01*
X144994176Y-136474686D01*
X144994175Y-136474686D01*
X144833761Y-136426025D01*
X144833759Y-136426024D01*
X144833756Y-136426023D01*
X144685922Y-136347005D01*
X144556341Y-136240659D01*
X144449995Y-136111078D01*
X144370977Y-135963244D01*
X144322313Y-135802821D01*
X144305883Y-135636000D01*
X144322313Y-135469179D01*
X144332452Y-135435756D01*
X144370975Y-135308761D01*
X144370976Y-135308759D01*
X144370977Y-135308756D01*
X144449995Y-135160922D01*
X144556341Y-135031341D01*
X144685922Y-134924995D01*
X144833756Y-134845977D01*
X144833759Y-134845976D01*
X144833761Y-134845975D01*
X144994175Y-134797314D01*
X144994176Y-134797314D01*
X144994179Y-134797313D01*
X145119196Y-134785000D01*
X145202804Y-134785000D01*
X145327821Y-134797313D01*
X145327821Y-134797313D01*
G37*
G36*
X138392000Y-136487000D02*
X136690000Y-136487000D01*
X136690000Y-134785000D01*
X138392000Y-134785000D01*
X138392000Y-136487000D01*
X138392000Y-136487000D01*
G37*
G36*
X142787821Y-134797313D02*
X142787824Y-134797314D01*
X142787825Y-134797314D01*
X142948239Y-134845975D01*
X142948241Y-134845976D01*
X142948244Y-134845977D01*
X143096078Y-134924995D01*
X143225659Y-135031341D01*
X143332005Y-135160922D01*
X143411023Y-135308756D01*
X143411024Y-135308759D01*
X143411025Y-135308761D01*
X143449548Y-135435756D01*
X143459687Y-135469179D01*
X143476117Y-135636000D01*
X143459687Y-135802821D01*
X143411023Y-135963244D01*
X143332005Y-136111078D01*
X143225659Y-136240659D01*
X143096078Y-136347005D01*
X142948244Y-136426023D01*
X142948241Y-136426024D01*
X142948239Y-136426025D01*
X142787825Y-136474686D01*
X142787824Y-136474686D01*
X142787821Y-136474687D01*
X142662804Y-136487000D01*
X142579196Y-136487000D01*
X142454179Y-136474687D01*
X142454176Y-136474686D01*
X142454175Y-136474686D01*
X142293761Y-136426025D01*
X142293759Y-136426024D01*
X142293756Y-136426023D01*
X142145922Y-136347005D01*
X142016341Y-136240659D01*
X141909995Y-136111078D01*
X141830977Y-135963244D01*
X141782313Y-135802821D01*
X141765883Y-135636000D01*
X141782313Y-135469179D01*
X141792452Y-135435756D01*
X141830975Y-135308761D01*
X141830976Y-135308759D01*
X141830977Y-135308756D01*
X141909995Y-135160922D01*
X142016341Y-135031341D01*
X142145922Y-134924995D01*
X142293756Y-134845977D01*
X142293759Y-134845976D01*
X142293761Y-134845975D01*
X142454175Y-134797314D01*
X142454176Y-134797314D01*
X142454179Y-134797313D01*
X142579196Y-134785000D01*
X142662804Y-134785000D01*
X142787821Y-134797313D01*
X142787821Y-134797313D01*
G37*
G36*
X134360228Y-132277703D02*
X134515100Y-132341853D01*
X134654481Y-132434985D01*
X134773015Y-132553519D01*
X134866147Y-132692900D01*
X134930297Y-132847772D01*
X134963000Y-133012184D01*
X134963000Y-133179816D01*
X134930297Y-133344228D01*
X134866147Y-133499100D01*
X134773015Y-133638481D01*
X134654481Y-133757015D01*
X134515100Y-133850147D01*
X134360228Y-133914297D01*
X134195816Y-133947000D01*
X134028184Y-133947000D01*
X133863772Y-133914297D01*
X133708900Y-133850147D01*
X133569519Y-133757015D01*
X133450985Y-133638481D01*
X133357853Y-133499100D01*
X133293703Y-133344228D01*
X133261000Y-133179816D01*
X133261000Y-133012184D01*
X133293703Y-132847772D01*
X133357853Y-132692900D01*
X133450985Y-132553519D01*
X133569519Y-132434985D01*
X133708900Y-132341853D01*
X133863772Y-132277703D01*
X134028184Y-132245000D01*
X134195816Y-132245000D01*
X134360228Y-132277703D01*
X134360228Y-132277703D01*
G37*
G36*
X148248821Y-131368313D02*
X148248824Y-131368314D01*
X148248825Y-131368314D01*
X148409239Y-131416975D01*
X148409241Y-131416976D01*
X148409244Y-131416977D01*
X148557078Y-131495995D01*
X148686659Y-131602341D01*
X148793005Y-131731922D01*
X148872023Y-131879756D01*
X148872024Y-131879759D01*
X148872025Y-131879761D01*
X148920686Y-132040175D01*
X148920687Y-132040179D01*
X148937117Y-132207000D01*
X148920687Y-132373821D01*
X148920686Y-132373824D01*
X148920686Y-132373825D01*
X148895993Y-132455228D01*
X148872023Y-132534244D01*
X148793005Y-132682078D01*
X148686659Y-132811659D01*
X148557078Y-132918005D01*
X148409244Y-132997023D01*
X148409241Y-132997024D01*
X148409239Y-132997025D01*
X148248825Y-133045686D01*
X148248824Y-133045686D01*
X148248821Y-133045687D01*
X148123804Y-133058000D01*
X148040196Y-133058000D01*
X147915179Y-133045687D01*
X147915176Y-133045686D01*
X147915175Y-133045686D01*
X147754761Y-132997025D01*
X147754759Y-132997024D01*
X147754756Y-132997023D01*
X147606922Y-132918005D01*
X147477341Y-132811659D01*
X147370995Y-132682078D01*
X147291977Y-132534244D01*
X147268008Y-132455228D01*
X147243314Y-132373825D01*
X147243314Y-132373824D01*
X147243313Y-132373821D01*
X147226883Y-132207000D01*
X147243313Y-132040179D01*
X147243314Y-132040175D01*
X147291975Y-131879761D01*
X147291976Y-131879759D01*
X147291977Y-131879756D01*
X147370995Y-131731922D01*
X147477341Y-131602341D01*
X147606922Y-131495995D01*
X147754756Y-131416977D01*
X147754759Y-131416976D01*
X147754761Y-131416975D01*
X147915175Y-131368314D01*
X147915176Y-131368314D01*
X147915179Y-131368313D01*
X148040196Y-131356000D01*
X148123804Y-131356000D01*
X148248821Y-131368313D01*
X148248821Y-131368313D01*
G37*
G36*
X150870228Y-131388703D02*
X151025100Y-131452853D01*
X151164481Y-131545985D01*
X151283015Y-131664519D01*
X151376147Y-131803900D01*
X151440297Y-131958772D01*
X151473000Y-132123184D01*
X151473000Y-132290816D01*
X151440297Y-132455228D01*
X151376147Y-132610100D01*
X151283015Y-132749481D01*
X151164481Y-132868015D01*
X151025100Y-132961147D01*
X150870228Y-133025297D01*
X150705816Y-133058000D01*
X150538184Y-133058000D01*
X150373772Y-133025297D01*
X150218900Y-132961147D01*
X150079519Y-132868015D01*
X149960985Y-132749481D01*
X149867853Y-132610100D01*
X149803703Y-132455228D01*
X149771000Y-132290816D01*
X149771000Y-132123184D01*
X149803703Y-131958772D01*
X149867853Y-131803900D01*
X149960985Y-131664519D01*
X150079519Y-131545985D01*
X150218900Y-131452853D01*
X150373772Y-131388703D01*
X150538184Y-131356000D01*
X150705816Y-131356000D01*
X150870228Y-131388703D01*
X150870228Y-131388703D01*
G37*
G36*
X151296821Y-127939313D02*
X151296824Y-127939314D01*
X151296825Y-127939314D01*
X151457239Y-127987975D01*
X151457241Y-127987976D01*
X151457244Y-127987977D01*
X151605078Y-128066995D01*
X151734659Y-128173341D01*
X151841005Y-128302922D01*
X151920023Y-128450756D01*
X151920024Y-128450759D01*
X151920025Y-128450761D01*
X151968686Y-128611175D01*
X151968687Y-128611179D01*
X151985117Y-128778000D01*
X151968687Y-128944821D01*
X151968686Y-128944824D01*
X151968686Y-128944825D01*
X151943993Y-129026228D01*
X151920023Y-129105244D01*
X151841005Y-129253078D01*
X151734659Y-129382659D01*
X151605078Y-129489005D01*
X151457244Y-129568023D01*
X151457241Y-129568024D01*
X151457239Y-129568025D01*
X151296825Y-129616686D01*
X151296824Y-129616686D01*
X151296821Y-129616687D01*
X151171804Y-129629000D01*
X151088196Y-129629000D01*
X150963179Y-129616687D01*
X150963176Y-129616686D01*
X150963175Y-129616686D01*
X150802761Y-129568025D01*
X150802759Y-129568024D01*
X150802756Y-129568023D01*
X150654922Y-129489005D01*
X150525341Y-129382659D01*
X150418995Y-129253078D01*
X150339977Y-129105244D01*
X150316008Y-129026228D01*
X150291314Y-128944825D01*
X150291314Y-128944824D01*
X150291313Y-128944821D01*
X150274883Y-128778000D01*
X150291313Y-128611179D01*
X150291314Y-128611175D01*
X150339975Y-128450761D01*
X150339976Y-128450759D01*
X150339977Y-128450756D01*
X150418995Y-128302922D01*
X150525341Y-128173341D01*
X150654922Y-128066995D01*
X150802756Y-127987977D01*
X150802759Y-127987976D01*
X150802761Y-127987975D01*
X150963175Y-127939314D01*
X150963176Y-127939314D01*
X150963179Y-127939313D01*
X151088196Y-127927000D01*
X151171804Y-127927000D01*
X151296821Y-127939313D01*
X151296821Y-127939313D01*
G37*
G36*
X148838228Y-127959703D02*
X148993100Y-128023853D01*
X149132481Y-128116985D01*
X149251015Y-128235519D01*
X149344147Y-128374900D01*
X149408297Y-128529772D01*
X149441000Y-128694184D01*
X149441000Y-128861816D01*
X149408297Y-129026228D01*
X149344147Y-129181100D01*
X149251015Y-129320481D01*
X149132481Y-129439015D01*
X148993100Y-129532147D01*
X148838228Y-129596297D01*
X148673816Y-129629000D01*
X148506184Y-129629000D01*
X148341772Y-129596297D01*
X148186900Y-129532147D01*
X148047519Y-129439015D01*
X147928985Y-129320481D01*
X147835853Y-129181100D01*
X147771703Y-129026228D01*
X147739000Y-128861816D01*
X147739000Y-128694184D01*
X147771703Y-128529772D01*
X147835853Y-128374900D01*
X147928985Y-128235519D01*
X148047519Y-128116985D01*
X148186900Y-128023853D01*
X148341772Y-127959703D01*
X148506184Y-127927000D01*
X148673816Y-127927000D01*
X148838228Y-127959703D01*
X148838228Y-127959703D01*
G37*
G36*
X134360228Y-127277703D02*
X134515100Y-127341853D01*
X134654481Y-127434985D01*
X134773015Y-127553519D01*
X134866147Y-127692900D01*
X134930297Y-127847772D01*
X134963000Y-128012184D01*
X134963000Y-128179816D01*
X134930297Y-128344228D01*
X134866147Y-128499100D01*
X134773015Y-128638481D01*
X134654481Y-128757015D01*
X134515100Y-128850147D01*
X134360228Y-128914297D01*
X134195816Y-128947000D01*
X134028184Y-128947000D01*
X133863772Y-128914297D01*
X133708900Y-128850147D01*
X133569519Y-128757015D01*
X133450985Y-128638481D01*
X133357853Y-128499100D01*
X133293703Y-128344228D01*
X133261000Y-128179816D01*
X133261000Y-128012184D01*
X133293703Y-127847772D01*
X133357853Y-127692900D01*
X133450985Y-127553519D01*
X133569519Y-127434985D01*
X133708900Y-127341853D01*
X133863772Y-127277703D01*
X134028184Y-127245000D01*
X134195816Y-127245000D01*
X134360228Y-127277703D01*
X134360228Y-127277703D01*
G37*
G36*
X142787821Y-127177313D02*
X142787824Y-127177314D01*
X142787825Y-127177314D01*
X142948239Y-127225975D01*
X142948241Y-127225976D01*
X142948244Y-127225977D01*
X143096078Y-127304995D01*
X143225659Y-127411341D01*
X143332005Y-127540922D01*
X143411023Y-127688756D01*
X143411024Y-127688759D01*
X143411025Y-127688761D01*
X143459260Y-127847772D01*
X143459687Y-127849179D01*
X143476117Y-128016000D01*
X143459687Y-128182821D01*
X143411023Y-128343244D01*
X143332005Y-128491078D01*
X143225659Y-128620659D01*
X143096078Y-128727005D01*
X142948244Y-128806023D01*
X142948241Y-128806024D01*
X142948239Y-128806025D01*
X142787825Y-128854686D01*
X142787824Y-128854686D01*
X142787821Y-128854687D01*
X142662804Y-128867000D01*
X142579196Y-128867000D01*
X142454179Y-128854687D01*
X142454176Y-128854686D01*
X142454175Y-128854686D01*
X142293761Y-128806025D01*
X142293759Y-128806024D01*
X142293756Y-128806023D01*
X142145922Y-128727005D01*
X142016341Y-128620659D01*
X141909995Y-128491078D01*
X141830977Y-128343244D01*
X141782313Y-128182821D01*
X141765883Y-128016000D01*
X141782313Y-127849179D01*
X141782740Y-127847772D01*
X141830975Y-127688761D01*
X141830976Y-127688759D01*
X141830977Y-127688756D01*
X141909995Y-127540922D01*
X142016341Y-127411341D01*
X142145922Y-127304995D01*
X142293756Y-127225977D01*
X142293759Y-127225976D01*
X142293761Y-127225975D01*
X142454175Y-127177314D01*
X142454176Y-127177314D01*
X142454179Y-127177313D01*
X142579196Y-127165000D01*
X142662804Y-127165000D01*
X142787821Y-127177313D01*
X142787821Y-127177313D01*
G37*
G36*
X145327821Y-127177313D02*
X145327824Y-127177314D01*
X145327825Y-127177314D01*
X145488239Y-127225975D01*
X145488241Y-127225976D01*
X145488244Y-127225977D01*
X145636078Y-127304995D01*
X145765659Y-127411341D01*
X145872005Y-127540922D01*
X145951023Y-127688756D01*
X145951024Y-127688759D01*
X145951025Y-127688761D01*
X145999260Y-127847772D01*
X145999687Y-127849179D01*
X146016117Y-128016000D01*
X145999687Y-128182821D01*
X145951023Y-128343244D01*
X145872005Y-128491078D01*
X145765659Y-128620659D01*
X145636078Y-128727005D01*
X145488244Y-128806023D01*
X145488241Y-128806024D01*
X145488239Y-128806025D01*
X145327825Y-128854686D01*
X145327824Y-128854686D01*
X145327821Y-128854687D01*
X145202804Y-128867000D01*
X145119196Y-128867000D01*
X144994179Y-128854687D01*
X144994176Y-128854686D01*
X144994175Y-128854686D01*
X144833761Y-128806025D01*
X144833759Y-128806024D01*
X144833756Y-128806023D01*
X144685922Y-128727005D01*
X144556341Y-128620659D01*
X144449995Y-128491078D01*
X144370977Y-128343244D01*
X144322313Y-128182821D01*
X144305883Y-128016000D01*
X144322313Y-127849179D01*
X144322740Y-127847772D01*
X144370975Y-127688761D01*
X144370976Y-127688759D01*
X144370977Y-127688756D01*
X144449995Y-127540922D01*
X144556341Y-127411341D01*
X144685922Y-127304995D01*
X144833756Y-127225977D01*
X144833759Y-127225976D01*
X144833761Y-127225975D01*
X144994175Y-127177314D01*
X144994176Y-127177314D01*
X144994179Y-127177313D01*
X145119196Y-127165000D01*
X145202804Y-127165000D01*
X145327821Y-127177313D01*
X145327821Y-127177313D01*
G37*
G36*
X137707821Y-127177313D02*
X137707824Y-127177314D01*
X137707825Y-127177314D01*
X137868239Y-127225975D01*
X137868241Y-127225976D01*
X137868244Y-127225977D01*
X138016078Y-127304995D01*
X138145659Y-127411341D01*
X138252005Y-127540922D01*
X138331023Y-127688756D01*
X138331024Y-127688759D01*
X138331025Y-127688761D01*
X138379260Y-127847772D01*
X138379687Y-127849179D01*
X138396117Y-128016000D01*
X138379687Y-128182821D01*
X138331023Y-128343244D01*
X138252005Y-128491078D01*
X138145659Y-128620659D01*
X138016078Y-128727005D01*
X137868244Y-128806023D01*
X137868241Y-128806024D01*
X137868239Y-128806025D01*
X137707825Y-128854686D01*
X137707824Y-128854686D01*
X137707821Y-128854687D01*
X137582804Y-128867000D01*
X137499196Y-128867000D01*
X137374179Y-128854687D01*
X137374176Y-128854686D01*
X137374175Y-128854686D01*
X137213761Y-128806025D01*
X137213759Y-128806024D01*
X137213756Y-128806023D01*
X137065922Y-128727005D01*
X136936341Y-128620659D01*
X136829995Y-128491078D01*
X136750977Y-128343244D01*
X136702313Y-128182821D01*
X136685883Y-128016000D01*
X136702313Y-127849179D01*
X136702740Y-127847772D01*
X136750975Y-127688761D01*
X136750976Y-127688759D01*
X136750977Y-127688756D01*
X136829995Y-127540922D01*
X136936341Y-127411341D01*
X137065922Y-127304995D01*
X137213756Y-127225977D01*
X137213759Y-127225976D01*
X137213761Y-127225975D01*
X137374175Y-127177314D01*
X137374176Y-127177314D01*
X137374179Y-127177313D01*
X137499196Y-127165000D01*
X137582804Y-127165000D01*
X137707821Y-127177313D01*
X137707821Y-127177313D01*
G37*
G36*
X140247821Y-127177313D02*
X140247824Y-127177314D01*
X140247825Y-127177314D01*
X140408239Y-127225975D01*
X140408241Y-127225976D01*
X140408244Y-127225977D01*
X140556078Y-127304995D01*
X140685659Y-127411341D01*
X140792005Y-127540922D01*
X140871023Y-127688756D01*
X140871024Y-127688759D01*
X140871025Y-127688761D01*
X140919260Y-127847772D01*
X140919687Y-127849179D01*
X140936117Y-128016000D01*
X140919687Y-128182821D01*
X140871023Y-128343244D01*
X140792005Y-128491078D01*
X140685659Y-128620659D01*
X140556078Y-128727005D01*
X140408244Y-128806023D01*
X140408241Y-128806024D01*
X140408239Y-128806025D01*
X140247825Y-128854686D01*
X140247824Y-128854686D01*
X140247821Y-128854687D01*
X140122804Y-128867000D01*
X140039196Y-128867000D01*
X139914179Y-128854687D01*
X139914176Y-128854686D01*
X139914175Y-128854686D01*
X139753761Y-128806025D01*
X139753759Y-128806024D01*
X139753756Y-128806023D01*
X139605922Y-128727005D01*
X139476341Y-128620659D01*
X139369995Y-128491078D01*
X139290977Y-128343244D01*
X139242313Y-128182821D01*
X139225883Y-128016000D01*
X139242313Y-127849179D01*
X139242740Y-127847772D01*
X139290975Y-127688761D01*
X139290976Y-127688759D01*
X139290977Y-127688756D01*
X139369995Y-127540922D01*
X139476341Y-127411341D01*
X139605922Y-127304995D01*
X139753756Y-127225977D01*
X139753759Y-127225976D01*
X139753761Y-127225975D01*
X139914175Y-127177314D01*
X139914176Y-127177314D01*
X139914179Y-127177313D01*
X140039196Y-127165000D01*
X140122804Y-127165000D01*
X140247821Y-127177313D01*
X140247821Y-127177313D01*
G37*
G36*
X149092228Y-124958703D02*
X149247100Y-125022853D01*
X149386481Y-125115985D01*
X149505015Y-125234519D01*
X149598147Y-125373900D01*
X149662297Y-125528772D01*
X149695000Y-125693184D01*
X149695000Y-125860816D01*
X149662297Y-126025228D01*
X149598147Y-126180100D01*
X149505015Y-126319481D01*
X149386481Y-126438015D01*
X149247100Y-126531147D01*
X149092228Y-126595297D01*
X148927816Y-126628000D01*
X148760184Y-126628000D01*
X148595772Y-126595297D01*
X148440900Y-126531147D01*
X148301519Y-126438015D01*
X148182985Y-126319481D01*
X148089853Y-126180100D01*
X148025703Y-126025228D01*
X147993000Y-125860816D01*
X147993000Y-125693184D01*
X148025703Y-125528772D01*
X148089853Y-125373900D01*
X148182985Y-125234519D01*
X148301519Y-125115985D01*
X148440900Y-125022853D01*
X148595772Y-124958703D01*
X148760184Y-124926000D01*
X148927816Y-124926000D01*
X149092228Y-124958703D01*
X149092228Y-124958703D01*
G37*
G36*
X134360228Y-124276703D02*
X134515100Y-124340853D01*
X134654481Y-124433985D01*
X134773015Y-124552519D01*
X134866147Y-124691900D01*
X134930297Y-124846772D01*
X134963000Y-125011184D01*
X134963000Y-125178816D01*
X134930297Y-125343228D01*
X134866147Y-125498100D01*
X134773015Y-125637481D01*
X134654481Y-125756015D01*
X134515100Y-125849147D01*
X134360228Y-125913297D01*
X134195816Y-125946000D01*
X134028184Y-125946000D01*
X133863772Y-125913297D01*
X133708900Y-125849147D01*
X133569519Y-125756015D01*
X133450985Y-125637481D01*
X133357853Y-125498100D01*
X133293703Y-125343228D01*
X133261000Y-125178816D01*
X133261000Y-125011184D01*
X133293703Y-124846772D01*
X133357853Y-124691900D01*
X133450985Y-124552519D01*
X133569519Y-124433985D01*
X133708900Y-124340853D01*
X133863772Y-124276703D01*
X134028184Y-124244000D01*
X134195816Y-124244000D01*
X134360228Y-124276703D01*
X134360228Y-124276703D01*
G37*
G36*
X140501821Y-123113313D02*
X140501824Y-123113314D01*
X140501825Y-123113314D01*
X140662239Y-123161975D01*
X140662241Y-123161976D01*
X140662244Y-123161977D01*
X140810078Y-123240995D01*
X140939659Y-123347341D01*
X141046005Y-123476922D01*
X141125023Y-123624756D01*
X141173687Y-123785179D01*
X141190117Y-123952000D01*
X141173687Y-124118821D01*
X141173686Y-124118824D01*
X141173686Y-124118825D01*
X141135715Y-124244000D01*
X141125023Y-124279244D01*
X141046005Y-124427078D01*
X140939659Y-124556659D01*
X140810078Y-124663005D01*
X140662244Y-124742023D01*
X140662241Y-124742024D01*
X140662239Y-124742025D01*
X140501825Y-124790686D01*
X140501824Y-124790686D01*
X140501821Y-124790687D01*
X140376804Y-124803000D01*
X140293196Y-124803000D01*
X140168179Y-124790687D01*
X140168176Y-124790686D01*
X140168175Y-124790686D01*
X140007761Y-124742025D01*
X140007759Y-124742024D01*
X140007756Y-124742023D01*
X139859922Y-124663005D01*
X139730341Y-124556659D01*
X139623995Y-124427078D01*
X139544977Y-124279244D01*
X139534286Y-124244000D01*
X139496314Y-124118825D01*
X139496314Y-124118824D01*
X139496313Y-124118821D01*
X139479883Y-123952000D01*
X139496313Y-123785179D01*
X139544977Y-123624756D01*
X139623995Y-123476922D01*
X139730341Y-123347341D01*
X139859922Y-123240995D01*
X140007756Y-123161977D01*
X140007759Y-123161976D01*
X140007761Y-123161975D01*
X140168175Y-123113314D01*
X140168176Y-123113314D01*
X140168179Y-123113313D01*
X140293196Y-123101000D01*
X140376804Y-123101000D01*
X140501821Y-123113313D01*
X140501821Y-123113313D01*
G37*
G36*
X137961821Y-123113313D02*
X137961824Y-123113314D01*
X137961825Y-123113314D01*
X138122239Y-123161975D01*
X138122241Y-123161976D01*
X138122244Y-123161977D01*
X138270078Y-123240995D01*
X138399659Y-123347341D01*
X138506005Y-123476922D01*
X138585023Y-123624756D01*
X138633687Y-123785179D01*
X138650117Y-123952000D01*
X138633687Y-124118821D01*
X138633686Y-124118824D01*
X138633686Y-124118825D01*
X138595715Y-124244000D01*
X138585023Y-124279244D01*
X138506005Y-124427078D01*
X138399659Y-124556659D01*
X138270078Y-124663005D01*
X138122244Y-124742023D01*
X138122241Y-124742024D01*
X138122239Y-124742025D01*
X137961825Y-124790686D01*
X137961824Y-124790686D01*
X137961821Y-124790687D01*
X137836804Y-124803000D01*
X137753196Y-124803000D01*
X137628179Y-124790687D01*
X137628176Y-124790686D01*
X137628175Y-124790686D01*
X137467761Y-124742025D01*
X137467759Y-124742024D01*
X137467756Y-124742023D01*
X137319922Y-124663005D01*
X137190341Y-124556659D01*
X137083995Y-124427078D01*
X137004977Y-124279244D01*
X136994286Y-124244000D01*
X136956314Y-124118825D01*
X136956314Y-124118824D01*
X136956313Y-124118821D01*
X136939883Y-123952000D01*
X136956313Y-123785179D01*
X137004977Y-123624756D01*
X137083995Y-123476922D01*
X137190341Y-123347341D01*
X137319922Y-123240995D01*
X137467756Y-123161977D01*
X137467759Y-123161976D01*
X137467761Y-123161975D01*
X137628175Y-123113314D01*
X137628176Y-123113314D01*
X137628179Y-123113313D01*
X137753196Y-123101000D01*
X137836804Y-123101000D01*
X137961821Y-123113313D01*
X137961821Y-123113313D01*
G37*
G36*
X143041821Y-123113313D02*
X143041824Y-123113314D01*
X143041825Y-123113314D01*
X143202239Y-123161975D01*
X143202241Y-123161976D01*
X143202244Y-123161977D01*
X143350078Y-123240995D01*
X143479659Y-123347341D01*
X143586005Y-123476922D01*
X143665023Y-123624756D01*
X143713687Y-123785179D01*
X143730117Y-123952000D01*
X143713687Y-124118821D01*
X143713686Y-124118824D01*
X143713686Y-124118825D01*
X143675715Y-124244000D01*
X143665023Y-124279244D01*
X143586005Y-124427078D01*
X143479659Y-124556659D01*
X143350078Y-124663005D01*
X143202244Y-124742023D01*
X143202241Y-124742024D01*
X143202239Y-124742025D01*
X143041825Y-124790686D01*
X143041824Y-124790686D01*
X143041821Y-124790687D01*
X142916804Y-124803000D01*
X142833196Y-124803000D01*
X142708179Y-124790687D01*
X142708176Y-124790686D01*
X142708175Y-124790686D01*
X142547761Y-124742025D01*
X142547759Y-124742024D01*
X142547756Y-124742023D01*
X142399922Y-124663005D01*
X142270341Y-124556659D01*
X142163995Y-124427078D01*
X142084977Y-124279244D01*
X142074286Y-124244000D01*
X142036314Y-124118825D01*
X142036314Y-124118824D01*
X142036313Y-124118821D01*
X142019883Y-123952000D01*
X142036313Y-123785179D01*
X142084977Y-123624756D01*
X142163995Y-123476922D01*
X142270341Y-123347341D01*
X142399922Y-123240995D01*
X142547756Y-123161977D01*
X142547759Y-123161976D01*
X142547761Y-123161975D01*
X142708175Y-123113314D01*
X142708176Y-123113314D01*
X142708179Y-123113313D01*
X142833196Y-123101000D01*
X142916804Y-123101000D01*
X143041821Y-123113313D01*
X143041821Y-123113313D01*
G37*
G36*
X145581821Y-123113313D02*
X145581824Y-123113314D01*
X145581825Y-123113314D01*
X145742239Y-123161975D01*
X145742241Y-123161976D01*
X145742244Y-123161977D01*
X145890078Y-123240995D01*
X146019659Y-123347341D01*
X146126005Y-123476922D01*
X146205023Y-123624756D01*
X146253687Y-123785179D01*
X146270117Y-123952000D01*
X146253687Y-124118821D01*
X146253686Y-124118824D01*
X146253686Y-124118825D01*
X146215715Y-124244000D01*
X146205023Y-124279244D01*
X146126005Y-124427078D01*
X146019659Y-124556659D01*
X145890078Y-124663005D01*
X145742244Y-124742023D01*
X145742241Y-124742024D01*
X145742239Y-124742025D01*
X145581825Y-124790686D01*
X145581824Y-124790686D01*
X145581821Y-124790687D01*
X145456804Y-124803000D01*
X145373196Y-124803000D01*
X145248179Y-124790687D01*
X145248176Y-124790686D01*
X145248175Y-124790686D01*
X145087761Y-124742025D01*
X145087759Y-124742024D01*
X145087756Y-124742023D01*
X144939922Y-124663005D01*
X144810341Y-124556659D01*
X144703995Y-124427078D01*
X144624977Y-124279244D01*
X144614286Y-124244000D01*
X144576314Y-124118825D01*
X144576314Y-124118824D01*
X144576313Y-124118821D01*
X144559883Y-123952000D01*
X144576313Y-123785179D01*
X144624977Y-123624756D01*
X144703995Y-123476922D01*
X144810341Y-123347341D01*
X144939922Y-123240995D01*
X145087756Y-123161977D01*
X145087759Y-123161976D01*
X145087761Y-123161975D01*
X145248175Y-123113314D01*
X145248176Y-123113314D01*
X145248179Y-123113313D01*
X145373196Y-123101000D01*
X145456804Y-123101000D01*
X145581821Y-123113313D01*
X145581821Y-123113313D01*
G37*
G36*
X134278821Y-121716313D02*
X134278824Y-121716314D01*
X134278825Y-121716314D01*
X134439239Y-121764975D01*
X134439241Y-121764976D01*
X134439244Y-121764977D01*
X134587078Y-121843995D01*
X134716659Y-121950341D01*
X134823005Y-122079922D01*
X134902023Y-122227756D01*
X134950687Y-122388179D01*
X134967117Y-122555000D01*
X134950687Y-122721821D01*
X134902023Y-122882244D01*
X134823005Y-123030078D01*
X134716659Y-123159659D01*
X134587078Y-123266005D01*
X134439244Y-123345023D01*
X134439241Y-123345024D01*
X134439239Y-123345025D01*
X134278825Y-123393686D01*
X134278824Y-123393686D01*
X134278821Y-123393687D01*
X134153804Y-123406000D01*
X134070196Y-123406000D01*
X133945179Y-123393687D01*
X133945176Y-123393686D01*
X133945175Y-123393686D01*
X133784761Y-123345025D01*
X133784759Y-123345024D01*
X133784756Y-123345023D01*
X133636922Y-123266005D01*
X133507341Y-123159659D01*
X133400995Y-123030078D01*
X133321977Y-122882244D01*
X133273313Y-122721821D01*
X133256883Y-122555000D01*
X133273313Y-122388179D01*
X133321977Y-122227756D01*
X133400995Y-122079922D01*
X133507341Y-121950341D01*
X133636922Y-121843995D01*
X133784756Y-121764977D01*
X133784759Y-121764976D01*
X133784761Y-121764975D01*
X133945175Y-121716314D01*
X133945176Y-121716314D01*
X133945179Y-121716313D01*
X134070196Y-121704000D01*
X134153804Y-121704000D01*
X134278821Y-121716313D01*
X134278821Y-121716313D01*
G37*
G36*
X149092228Y-119958703D02*
X149247100Y-120022853D01*
X149386481Y-120115985D01*
X149505015Y-120234519D01*
X149598147Y-120373900D01*
X149662297Y-120528772D01*
X149695000Y-120693184D01*
X149695000Y-120860816D01*
X149662297Y-121025228D01*
X149598147Y-121180100D01*
X149505015Y-121319481D01*
X149386481Y-121438015D01*
X149247100Y-121531147D01*
X149092228Y-121595297D01*
X148927816Y-121628000D01*
X148760184Y-121628000D01*
X148595772Y-121595297D01*
X148440900Y-121531147D01*
X148301519Y-121438015D01*
X148182985Y-121319481D01*
X148089853Y-121180100D01*
X148025703Y-121025228D01*
X147993000Y-120860816D01*
X147993000Y-120693184D01*
X148025703Y-120528772D01*
X148089853Y-120373900D01*
X148182985Y-120234519D01*
X148301519Y-120115985D01*
X148440900Y-120022853D01*
X148595772Y-119958703D01*
X148760184Y-119926000D01*
X148927816Y-119926000D01*
X149092228Y-119958703D01*
X149092228Y-119958703D01*
G37*
G36*
X134278821Y-119303313D02*
X134278824Y-119303314D01*
X134278825Y-119303314D01*
X134439239Y-119351975D01*
X134439241Y-119351976D01*
X134439244Y-119351977D01*
X134587078Y-119430995D01*
X134716659Y-119537341D01*
X134823005Y-119666922D01*
X134902023Y-119814756D01*
X134902024Y-119814759D01*
X134902025Y-119814761D01*
X134950686Y-119975175D01*
X134950687Y-119975179D01*
X134967117Y-120142000D01*
X134950687Y-120308821D01*
X134950686Y-120308824D01*
X134950686Y-120308825D01*
X134930946Y-120373900D01*
X134902023Y-120469244D01*
X134823005Y-120617078D01*
X134716659Y-120746659D01*
X134587078Y-120853005D01*
X134439244Y-120932023D01*
X134439241Y-120932024D01*
X134439239Y-120932025D01*
X134278825Y-120980686D01*
X134278824Y-120980686D01*
X134278821Y-120980687D01*
X134153804Y-120993000D01*
X134070196Y-120993000D01*
X133945179Y-120980687D01*
X133945176Y-120980686D01*
X133945175Y-120980686D01*
X133784761Y-120932025D01*
X133784759Y-120932024D01*
X133784756Y-120932023D01*
X133636922Y-120853005D01*
X133507341Y-120746659D01*
X133400995Y-120617078D01*
X133321977Y-120469244D01*
X133293055Y-120373900D01*
X133273314Y-120308825D01*
X133273314Y-120308824D01*
X133273313Y-120308821D01*
X133256883Y-120142000D01*
X133273313Y-119975179D01*
X133273314Y-119975175D01*
X133321975Y-119814761D01*
X133321976Y-119814759D01*
X133321977Y-119814756D01*
X133400995Y-119666922D01*
X133507341Y-119537341D01*
X133636922Y-119430995D01*
X133784756Y-119351977D01*
X133784759Y-119351976D01*
X133784761Y-119351975D01*
X133945175Y-119303314D01*
X133945176Y-119303314D01*
X133945179Y-119303313D01*
X134070196Y-119291000D01*
X134153804Y-119291000D01*
X134278821Y-119303313D01*
X134278821Y-119303313D01*
G37*
G36*
X134360228Y-116783703D02*
X134515100Y-116847853D01*
X134654481Y-116940985D01*
X134773015Y-117059519D01*
X134866147Y-117198900D01*
X134930297Y-117353772D01*
X134963000Y-117518184D01*
X134963000Y-117685816D01*
X134930297Y-117850228D01*
X134866147Y-118005100D01*
X134773015Y-118144481D01*
X134654481Y-118263015D01*
X134515100Y-118356147D01*
X134360228Y-118420297D01*
X134195816Y-118453000D01*
X134028184Y-118453000D01*
X133863772Y-118420297D01*
X133708900Y-118356147D01*
X133569519Y-118263015D01*
X133450985Y-118144481D01*
X133357853Y-118005100D01*
X133293703Y-117850228D01*
X133261000Y-117685816D01*
X133261000Y-117518184D01*
X133293703Y-117353772D01*
X133357853Y-117198900D01*
X133450985Y-117059519D01*
X133569519Y-116940985D01*
X133708900Y-116847853D01*
X133863772Y-116783703D01*
X134028184Y-116751000D01*
X134195816Y-116751000D01*
X134360228Y-116783703D01*
X134360228Y-116783703D01*
G37*
G36*
X152054000Y-117462500D02*
X149952000Y-117462500D01*
X149952000Y-115455500D01*
X152054000Y-115455500D01*
X152054000Y-117462500D01*
X152054000Y-117462500D01*
G37*
G36*
X146266000Y-117183000D02*
X144564000Y-117183000D01*
X144564000Y-115481000D01*
X146266000Y-115481000D01*
X146266000Y-117183000D01*
X146266000Y-117183000D01*
G37*
G36*
X143041821Y-115493313D02*
X143041824Y-115493314D01*
X143041825Y-115493314D01*
X143202239Y-115541975D01*
X143202241Y-115541976D01*
X143202244Y-115541977D01*
X143350078Y-115620995D01*
X143479659Y-115727341D01*
X143586005Y-115856922D01*
X143665023Y-116004756D01*
X143713687Y-116165179D01*
X143730117Y-116332000D01*
X143713687Y-116498821D01*
X143665023Y-116659244D01*
X143586005Y-116807078D01*
X143479659Y-116936659D01*
X143350078Y-117043005D01*
X143202244Y-117122023D01*
X143202241Y-117122024D01*
X143202239Y-117122025D01*
X143041825Y-117170686D01*
X143041824Y-117170686D01*
X143041821Y-117170687D01*
X142916804Y-117183000D01*
X142833196Y-117183000D01*
X142708179Y-117170687D01*
X142708176Y-117170686D01*
X142708175Y-117170686D01*
X142547761Y-117122025D01*
X142547759Y-117122024D01*
X142547756Y-117122023D01*
X142399922Y-117043005D01*
X142270341Y-116936659D01*
X142163995Y-116807078D01*
X142084977Y-116659244D01*
X142036313Y-116498821D01*
X142019883Y-116332000D01*
X142036313Y-116165179D01*
X142084977Y-116004756D01*
X142163995Y-115856922D01*
X142270341Y-115727341D01*
X142399922Y-115620995D01*
X142547756Y-115541977D01*
X142547759Y-115541976D01*
X142547761Y-115541975D01*
X142708175Y-115493314D01*
X142708176Y-115493314D01*
X142708179Y-115493313D01*
X142833196Y-115481000D01*
X142916804Y-115481000D01*
X143041821Y-115493313D01*
X143041821Y-115493313D01*
G37*
G36*
X137961821Y-115493313D02*
X137961824Y-115493314D01*
X137961825Y-115493314D01*
X138122239Y-115541975D01*
X138122241Y-115541976D01*
X138122244Y-115541977D01*
X138270078Y-115620995D01*
X138399659Y-115727341D01*
X138506005Y-115856922D01*
X138585023Y-116004756D01*
X138633687Y-116165179D01*
X138650117Y-116332000D01*
X138633687Y-116498821D01*
X138585023Y-116659244D01*
X138506005Y-116807078D01*
X138399659Y-116936659D01*
X138270078Y-117043005D01*
X138122244Y-117122023D01*
X138122241Y-117122024D01*
X138122239Y-117122025D01*
X137961825Y-117170686D01*
X137961824Y-117170686D01*
X137961821Y-117170687D01*
X137836804Y-117183000D01*
X137753196Y-117183000D01*
X137628179Y-117170687D01*
X137628176Y-117170686D01*
X137628175Y-117170686D01*
X137467761Y-117122025D01*
X137467759Y-117122024D01*
X137467756Y-117122023D01*
X137319922Y-117043005D01*
X137190341Y-116936659D01*
X137083995Y-116807078D01*
X137004977Y-116659244D01*
X136956313Y-116498821D01*
X136939883Y-116332000D01*
X136956313Y-116165179D01*
X137004977Y-116004756D01*
X137083995Y-115856922D01*
X137190341Y-115727341D01*
X137319922Y-115620995D01*
X137467756Y-115541977D01*
X137467759Y-115541976D01*
X137467761Y-115541975D01*
X137628175Y-115493314D01*
X137628176Y-115493314D01*
X137628179Y-115493313D01*
X137753196Y-115481000D01*
X137836804Y-115481000D01*
X137961821Y-115493313D01*
X137961821Y-115493313D01*
G37*
G36*
X140501821Y-115493313D02*
X140501824Y-115493314D01*
X140501825Y-115493314D01*
X140662239Y-115541975D01*
X140662241Y-115541976D01*
X140662244Y-115541977D01*
X140810078Y-115620995D01*
X140939659Y-115727341D01*
X141046005Y-115856922D01*
X141125023Y-116004756D01*
X141173687Y-116165179D01*
X141190117Y-116332000D01*
X141173687Y-116498821D01*
X141125023Y-116659244D01*
X141046005Y-116807078D01*
X140939659Y-116936659D01*
X140810078Y-117043005D01*
X140662244Y-117122023D01*
X140662241Y-117122024D01*
X140662239Y-117122025D01*
X140501825Y-117170686D01*
X140501824Y-117170686D01*
X140501821Y-117170687D01*
X140376804Y-117183000D01*
X140293196Y-117183000D01*
X140168179Y-117170687D01*
X140168176Y-117170686D01*
X140168175Y-117170686D01*
X140007761Y-117122025D01*
X140007759Y-117122024D01*
X140007756Y-117122023D01*
X139859922Y-117043005D01*
X139730341Y-116936659D01*
X139623995Y-116807078D01*
X139544977Y-116659244D01*
X139496313Y-116498821D01*
X139479883Y-116332000D01*
X139496313Y-116165179D01*
X139544977Y-116004756D01*
X139623995Y-115856922D01*
X139730341Y-115727341D01*
X139859922Y-115620995D01*
X140007756Y-115541977D01*
X140007759Y-115541976D01*
X140007761Y-115541975D01*
X140168175Y-115493314D01*
X140168176Y-115493314D01*
X140168179Y-115493313D01*
X140293196Y-115481000D01*
X140376804Y-115481000D01*
X140501821Y-115493313D01*
X140501821Y-115493313D01*
G37*
G36*
X134360228Y-113481703D02*
X134515100Y-113545853D01*
X134654481Y-113638985D01*
X134773015Y-113757519D01*
X134866147Y-113896900D01*
X134930297Y-114051772D01*
X134963000Y-114216184D01*
X134963000Y-114383816D01*
X134930297Y-114548228D01*
X134866147Y-114703100D01*
X134773015Y-114842481D01*
X134654481Y-114961015D01*
X134515100Y-115054147D01*
X134360228Y-115118297D01*
X134195816Y-115151000D01*
X134028184Y-115151000D01*
X133863772Y-115118297D01*
X133708900Y-115054147D01*
X133569519Y-114961015D01*
X133450985Y-114842481D01*
X133357853Y-114703100D01*
X133293703Y-114548228D01*
X133261000Y-114383816D01*
X133261000Y-114216184D01*
X133293703Y-114051772D01*
X133357853Y-113896900D01*
X133450985Y-113757519D01*
X133569519Y-113638985D01*
X133708900Y-113545853D01*
X133863772Y-113481703D01*
X134028184Y-113449000D01*
X134195816Y-113449000D01*
X134360228Y-113481703D01*
X134360228Y-113481703D01*
G37*
G36*
X151158764Y-112921308D02*
X151247220Y-112930020D01*
X151436381Y-112987401D01*
X151610712Y-113080583D01*
X151763515Y-113205985D01*
X151888917Y-113358788D01*
X151982099Y-113533119D01*
X152039480Y-113722280D01*
X152058855Y-113919000D01*
X152039480Y-114115720D01*
X151982099Y-114304881D01*
X151888917Y-114479212D01*
X151763515Y-114632015D01*
X151610712Y-114757417D01*
X151436381Y-114850599D01*
X151247220Y-114907980D01*
X151158764Y-114916692D01*
X151099796Y-114922500D01*
X150906204Y-114922500D01*
X150847236Y-114916692D01*
X150758780Y-114907980D01*
X150569619Y-114850599D01*
X150395288Y-114757417D01*
X150242485Y-114632015D01*
X150117083Y-114479212D01*
X150023901Y-114304881D01*
X149966520Y-114115720D01*
X149947145Y-113919000D01*
X149966520Y-113722280D01*
X150023901Y-113533119D01*
X150117083Y-113358788D01*
X150242485Y-113205985D01*
X150395288Y-113080583D01*
X150569619Y-112987401D01*
X150758780Y-112930020D01*
X150847236Y-112921308D01*
X150906204Y-112915500D01*
X151099796Y-112915500D01*
X151158764Y-112921308D01*
X151158764Y-112921308D01*
G37*
G36*
X142869228Y-112846703D02*
X143024100Y-112910853D01*
X143163481Y-113003985D01*
X143282015Y-113122519D01*
X143375147Y-113261900D01*
X143439297Y-113416772D01*
X143472000Y-113581184D01*
X143472000Y-113748816D01*
X143439297Y-113913228D01*
X143375147Y-114068100D01*
X143282015Y-114207481D01*
X143163481Y-114326015D01*
X143024100Y-114419147D01*
X142869228Y-114483297D01*
X142704816Y-114516000D01*
X142537184Y-114516000D01*
X142372772Y-114483297D01*
X142217900Y-114419147D01*
X142078519Y-114326015D01*
X141959985Y-114207481D01*
X141866853Y-114068100D01*
X141802703Y-113913228D01*
X141770000Y-113748816D01*
X141770000Y-113581184D01*
X141802703Y-113416772D01*
X141866853Y-113261900D01*
X141959985Y-113122519D01*
X142078519Y-113003985D01*
X142217900Y-112910853D01*
X142372772Y-112846703D01*
X142537184Y-112814000D01*
X142704816Y-112814000D01*
X142869228Y-112846703D01*
X142869228Y-112846703D01*
G37*
G36*
X146044228Y-112846703D02*
X146199100Y-112910853D01*
X146338481Y-113003985D01*
X146457015Y-113122519D01*
X146550147Y-113261900D01*
X146614297Y-113416772D01*
X146647000Y-113581184D01*
X146647000Y-113748816D01*
X146614297Y-113913228D01*
X146550147Y-114068100D01*
X146457015Y-114207481D01*
X146338481Y-114326015D01*
X146199100Y-114419147D01*
X146044228Y-114483297D01*
X145879816Y-114516000D01*
X145712184Y-114516000D01*
X145547772Y-114483297D01*
X145392900Y-114419147D01*
X145253519Y-114326015D01*
X145134985Y-114207481D01*
X145041853Y-114068100D01*
X144977703Y-113913228D01*
X144945000Y-113748816D01*
X144945000Y-113581184D01*
X144977703Y-113416772D01*
X145041853Y-113261900D01*
X145134985Y-113122519D01*
X145253519Y-113003985D01*
X145392900Y-112910853D01*
X145547772Y-112846703D01*
X145712184Y-112814000D01*
X145879816Y-112814000D01*
X146044228Y-112846703D01*
X146044228Y-112846703D01*
G37*
G36*
X140120821Y-111302313D02*
X140120824Y-111302314D01*
X140120825Y-111302314D01*
X140281239Y-111350975D01*
X140281241Y-111350976D01*
X140281244Y-111350977D01*
X140429078Y-111429995D01*
X140558659Y-111536341D01*
X140665005Y-111665922D01*
X140744023Y-111813756D01*
X140744024Y-111813759D01*
X140744025Y-111813761D01*
X140782079Y-111939210D01*
X140792687Y-111974179D01*
X140809117Y-112141000D01*
X140792687Y-112307821D01*
X140792686Y-112307824D01*
X140792686Y-112307825D01*
X140767993Y-112389228D01*
X140744023Y-112468244D01*
X140665005Y-112616078D01*
X140558659Y-112745659D01*
X140429078Y-112852005D01*
X140281244Y-112931023D01*
X140281241Y-112931024D01*
X140281239Y-112931025D01*
X140120825Y-112979686D01*
X140120824Y-112979686D01*
X140120821Y-112979687D01*
X139995804Y-112992000D01*
X139912196Y-112992000D01*
X139787179Y-112979687D01*
X139787176Y-112979686D01*
X139787175Y-112979686D01*
X139626761Y-112931025D01*
X139626759Y-112931024D01*
X139626756Y-112931023D01*
X139478922Y-112852005D01*
X139349341Y-112745659D01*
X139242995Y-112616078D01*
X139163977Y-112468244D01*
X139140008Y-112389228D01*
X139115314Y-112307825D01*
X139115314Y-112307824D01*
X139115313Y-112307821D01*
X139098883Y-112141000D01*
X139115313Y-111974179D01*
X139125921Y-111939210D01*
X139163975Y-111813761D01*
X139163976Y-111813759D01*
X139163977Y-111813756D01*
X139242995Y-111665922D01*
X139349341Y-111536341D01*
X139478922Y-111429995D01*
X139626756Y-111350977D01*
X139626759Y-111350976D01*
X139626761Y-111350975D01*
X139787175Y-111302314D01*
X139787176Y-111302314D01*
X139787179Y-111302313D01*
X139912196Y-111290000D01*
X139995804Y-111290000D01*
X140120821Y-111302313D01*
X140120821Y-111302313D01*
G37*
G36*
X137662228Y-111322703D02*
X137817100Y-111386853D01*
X137956481Y-111479985D01*
X138075015Y-111598519D01*
X138168147Y-111737900D01*
X138232297Y-111892772D01*
X138265000Y-112057184D01*
X138265000Y-112224816D01*
X138232297Y-112389228D01*
X138168147Y-112544100D01*
X138075015Y-112683481D01*
X137956481Y-112802015D01*
X137817100Y-112895147D01*
X137662228Y-112959297D01*
X137497816Y-112992000D01*
X137330184Y-112992000D01*
X137165772Y-112959297D01*
X137010900Y-112895147D01*
X136871519Y-112802015D01*
X136752985Y-112683481D01*
X136659853Y-112544100D01*
X136595703Y-112389228D01*
X136563000Y-112224816D01*
X136563000Y-112057184D01*
X136595703Y-111892772D01*
X136659853Y-111737900D01*
X136752985Y-111598519D01*
X136871519Y-111479985D01*
X137010900Y-111386853D01*
X137165772Y-111322703D01*
X137330184Y-111290000D01*
X137497816Y-111290000D01*
X137662228Y-111322703D01*
X137662228Y-111322703D01*
G37*
G36*
X134278821Y-110921313D02*
X134278824Y-110921314D01*
X134278825Y-110921314D01*
X134439239Y-110969975D01*
X134439241Y-110969976D01*
X134439244Y-110969977D01*
X134587078Y-111048995D01*
X134716659Y-111155341D01*
X134823005Y-111284922D01*
X134902023Y-111432756D01*
X134902024Y-111432759D01*
X134902025Y-111432761D01*
X134945390Y-111575717D01*
X134950687Y-111593179D01*
X134967117Y-111760000D01*
X134950687Y-111926821D01*
X134950686Y-111926824D01*
X134950686Y-111926825D01*
X134936323Y-111974175D01*
X134902023Y-112087244D01*
X134823005Y-112235078D01*
X134716659Y-112364659D01*
X134587078Y-112471005D01*
X134439244Y-112550023D01*
X134439241Y-112550024D01*
X134439239Y-112550025D01*
X134278825Y-112598686D01*
X134278824Y-112598686D01*
X134278821Y-112598687D01*
X134153804Y-112611000D01*
X134070196Y-112611000D01*
X133945179Y-112598687D01*
X133945176Y-112598686D01*
X133945175Y-112598686D01*
X133784761Y-112550025D01*
X133784759Y-112550024D01*
X133784756Y-112550023D01*
X133636922Y-112471005D01*
X133507341Y-112364659D01*
X133400995Y-112235078D01*
X133321977Y-112087244D01*
X133287678Y-111974175D01*
X133273314Y-111926825D01*
X133273314Y-111926824D01*
X133273313Y-111926821D01*
X133256883Y-111760000D01*
X133273313Y-111593179D01*
X133278610Y-111575717D01*
X133321975Y-111432761D01*
X133321976Y-111432759D01*
X133321977Y-111432756D01*
X133400995Y-111284922D01*
X133507341Y-111155341D01*
X133636922Y-111048995D01*
X133784756Y-110969977D01*
X133784759Y-110969976D01*
X133784761Y-110969975D01*
X133945175Y-110921314D01*
X133945176Y-110921314D01*
X133945179Y-110921313D01*
X134070196Y-110909000D01*
X134153804Y-110909000D01*
X134278821Y-110921313D01*
X134278821Y-110921313D01*
G37*
G36*
X151158764Y-110381308D02*
X151247220Y-110390020D01*
X151436381Y-110447401D01*
X151610712Y-110540583D01*
X151763515Y-110665985D01*
X151888917Y-110818788D01*
X151982099Y-110993119D01*
X152039480Y-111182280D01*
X152058855Y-111379000D01*
X152039480Y-111575720D01*
X151982099Y-111764881D01*
X151888917Y-111939212D01*
X151763515Y-112092015D01*
X151610712Y-112217417D01*
X151436381Y-112310599D01*
X151247220Y-112367980D01*
X151158764Y-112376692D01*
X151099796Y-112382500D01*
X150906204Y-112382500D01*
X150847236Y-112376692D01*
X150758780Y-112367980D01*
X150569619Y-112310599D01*
X150395288Y-112217417D01*
X150242485Y-112092015D01*
X150117083Y-111939212D01*
X150023901Y-111764881D01*
X149966520Y-111575720D01*
X149947145Y-111379000D01*
X149966520Y-111182280D01*
X150023901Y-110993119D01*
X150117083Y-110818788D01*
X150242485Y-110665985D01*
X150395288Y-110540583D01*
X150569619Y-110447401D01*
X150758780Y-110390020D01*
X150847236Y-110381308D01*
X150906204Y-110375500D01*
X151099796Y-110375500D01*
X151158764Y-110381308D01*
X151158764Y-110381308D01*
G37*
G36*
X146044228Y-107846703D02*
X146199100Y-107910853D01*
X146338481Y-108003985D01*
X146457015Y-108122519D01*
X146550147Y-108261900D01*
X146614297Y-108416772D01*
X146647000Y-108581184D01*
X146647000Y-108748816D01*
X146614297Y-108913228D01*
X146550147Y-109068100D01*
X146457015Y-109207481D01*
X146338481Y-109326015D01*
X146199100Y-109419147D01*
X146044228Y-109483297D01*
X145879816Y-109516000D01*
X145712184Y-109516000D01*
X145547772Y-109483297D01*
X145392900Y-109419147D01*
X145253519Y-109326015D01*
X145134985Y-109207481D01*
X145041853Y-109068100D01*
X144977703Y-108913228D01*
X144945000Y-108748816D01*
X144945000Y-108581184D01*
X144977703Y-108416772D01*
X145041853Y-108261900D01*
X145134985Y-108122519D01*
X145253519Y-108003985D01*
X145392900Y-107910853D01*
X145547772Y-107846703D01*
X145712184Y-107814000D01*
X145879816Y-107814000D01*
X146044228Y-107846703D01*
X146044228Y-107846703D01*
G37*
G36*
X142869228Y-107846703D02*
X143024100Y-107910853D01*
X143163481Y-108003985D01*
X143282015Y-108122519D01*
X143375147Y-108261900D01*
X143439297Y-108416772D01*
X143472000Y-108581184D01*
X143472000Y-108748816D01*
X143439297Y-108913228D01*
X143375147Y-109068100D01*
X143282015Y-109207481D01*
X143163481Y-109326015D01*
X143024100Y-109419147D01*
X142869228Y-109483297D01*
X142704816Y-109516000D01*
X142537184Y-109516000D01*
X142372772Y-109483297D01*
X142217900Y-109419147D01*
X142078519Y-109326015D01*
X141959985Y-109207481D01*
X141866853Y-109068100D01*
X141802703Y-108913228D01*
X141770000Y-108748816D01*
X141770000Y-108581184D01*
X141802703Y-108416772D01*
X141866853Y-108261900D01*
X141959985Y-108122519D01*
X142078519Y-108003985D01*
X142217900Y-107910853D01*
X142372772Y-107846703D01*
X142537184Y-107814000D01*
X142704816Y-107814000D01*
X142869228Y-107846703D01*
X142869228Y-107846703D01*
G37*
G36*
X137128617Y-106271420D02*
X137210426Y-106296237D01*
X137251332Y-106308645D01*
X137273544Y-106320518D01*
X137364425Y-106369095D01*
X137364427Y-106369096D01*
X137364426Y-106369096D01*
X137437965Y-106429447D01*
X137463553Y-106450447D01*
X137544905Y-106549574D01*
X137544906Y-106549576D01*
X137605355Y-106662667D01*
X137617763Y-106703573D01*
X137642580Y-106785382D01*
X137652000Y-106881027D01*
X137652000Y-107494973D01*
X137642580Y-107590618D01*
X137617763Y-107672427D01*
X137605355Y-107713333D01*
X137551819Y-107813491D01*
X137544905Y-107826426D01*
X137463553Y-107925553D01*
X137364426Y-108006905D01*
X137364424Y-108006906D01*
X137251333Y-108067355D01*
X137210427Y-108079763D01*
X137128618Y-108104580D01*
X137001000Y-108117149D01*
X136873383Y-108104580D01*
X136791574Y-108079763D01*
X136750668Y-108067355D01*
X136637577Y-108006906D01*
X136637575Y-108006905D01*
X136538448Y-107925553D01*
X136457095Y-107826426D01*
X136416795Y-107751030D01*
X136396645Y-107713333D01*
X136384237Y-107672427D01*
X136359420Y-107590618D01*
X136350000Y-107494973D01*
X136350000Y-106881028D01*
X136359420Y-106785383D01*
X136396645Y-106662669D01*
X136396645Y-106662668D01*
X136428957Y-106602218D01*
X136457095Y-106549575D01*
X136538447Y-106450447D01*
X136637574Y-106369095D01*
X136672400Y-106350480D01*
X136750667Y-106308645D01*
X136791573Y-106296237D01*
X136873382Y-106271420D01*
X137001000Y-106258851D01*
X137128617Y-106271420D01*
X137128617Y-106271420D01*
G37*
G36*
X135492242Y-106266404D02*
X135529339Y-106277657D01*
X135563520Y-106295927D01*
X135593482Y-106320518D01*
X135618073Y-106350480D01*
X135636343Y-106384661D01*
X135647596Y-106421758D01*
X135652000Y-106466473D01*
X135652000Y-107909527D01*
X135647596Y-107954242D01*
X135636343Y-107991339D01*
X135618073Y-108025520D01*
X135593482Y-108055482D01*
X135563520Y-108080073D01*
X135529339Y-108098343D01*
X135492242Y-108109596D01*
X135447527Y-108114000D01*
X134554473Y-108114000D01*
X134509758Y-108109596D01*
X134472661Y-108098343D01*
X134438480Y-108080073D01*
X134408518Y-108055482D01*
X134383927Y-108025520D01*
X134365657Y-107991339D01*
X134354404Y-107954242D01*
X134350000Y-107909527D01*
X134350000Y-106466473D01*
X134354404Y-106421758D01*
X134365657Y-106384661D01*
X134383927Y-106350480D01*
X134408518Y-106320518D01*
X134438480Y-106295927D01*
X134472661Y-106277657D01*
X134509758Y-106266404D01*
X134554473Y-106262000D01*
X135447527Y-106262000D01*
X135492242Y-106266404D01*
X135492242Y-106266404D01*
G37*
G36*
X143288618Y-104112420D02*
X143370427Y-104137237D01*
X143411333Y-104149645D01*
X143489600Y-104191480D01*
X143524426Y-104210095D01*
X143623553Y-104291447D01*
X143704905Y-104390574D01*
X143704906Y-104390576D01*
X143765355Y-104503667D01*
X143765355Y-104503668D01*
X143802580Y-104626382D01*
X143812000Y-104722027D01*
X143812000Y-105335973D01*
X143802580Y-105431618D01*
X143777763Y-105513427D01*
X143765355Y-105554333D01*
X143711819Y-105654491D01*
X143704905Y-105667426D01*
X143623553Y-105766553D01*
X143623551Y-105766555D01*
X143588595Y-105795242D01*
X143524425Y-105847905D01*
X143472699Y-105875553D01*
X143411332Y-105908355D01*
X143370426Y-105920763D01*
X143288617Y-105945580D01*
X143161000Y-105958149D01*
X143033382Y-105945580D01*
X142951573Y-105920763D01*
X142910667Y-105908355D01*
X142797576Y-105847906D01*
X142797574Y-105847905D01*
X142698447Y-105766553D01*
X142617095Y-105667425D01*
X142556646Y-105554333D01*
X142556645Y-105554332D01*
X142544237Y-105513426D01*
X142519420Y-105431617D01*
X142510000Y-105335972D01*
X142510000Y-104722027D01*
X142519420Y-104626382D01*
X142556645Y-104503668D01*
X142556645Y-104503667D01*
X142576795Y-104465970D01*
X142617095Y-104390574D01*
X142698448Y-104291447D01*
X142797575Y-104210095D01*
X142832401Y-104191480D01*
X142910668Y-104149645D01*
X142951574Y-104137237D01*
X143033383Y-104112420D01*
X143161000Y-104099851D01*
X143288618Y-104112420D01*
X143288618Y-104112420D01*
G37*
G36*
X145652242Y-104107404D02*
X145689339Y-104118657D01*
X145723520Y-104136927D01*
X145753482Y-104161518D01*
X145778073Y-104191480D01*
X145796343Y-104225661D01*
X145807596Y-104262758D01*
X145812000Y-104307473D01*
X145812000Y-105750527D01*
X145807596Y-105795242D01*
X145796343Y-105832339D01*
X145778073Y-105866520D01*
X145753482Y-105896482D01*
X145723520Y-105921073D01*
X145689339Y-105939343D01*
X145652242Y-105950596D01*
X145607527Y-105955000D01*
X144714473Y-105955000D01*
X144669758Y-105950596D01*
X144632661Y-105939343D01*
X144598480Y-105921073D01*
X144568518Y-105896482D01*
X144543927Y-105866520D01*
X144525657Y-105832339D01*
X144514404Y-105795242D01*
X144510000Y-105750527D01*
X144510000Y-104307473D01*
X144514404Y-104262758D01*
X144525657Y-104225661D01*
X144543927Y-104191480D01*
X144568518Y-104161518D01*
X144598480Y-104136927D01*
X144632661Y-104118657D01*
X144669758Y-104107404D01*
X144714473Y-104103000D01*
X145607527Y-104103000D01*
X145652242Y-104107404D01*
X145652242Y-104107404D01*
G37*
G36*
X134303433Y-100615893D02*
X134393657Y-100633839D01*
X134499267Y-100677585D01*
X134648621Y-100739449D01*
X134878089Y-100892774D01*
X135073226Y-101087911D01*
X135226551Y-101317379D01*
X135332161Y-101572344D01*
X135386000Y-101843012D01*
X135386000Y-102118988D01*
X135332161Y-102389656D01*
X135226551Y-102644621D01*
X135073226Y-102874089D01*
X134878089Y-103069226D01*
X134648621Y-103222551D01*
X134499267Y-103284415D01*
X134393657Y-103328161D01*
X134303433Y-103346107D01*
X134122988Y-103382000D01*
X133847012Y-103382000D01*
X133666567Y-103346107D01*
X133576343Y-103328161D01*
X133470733Y-103284415D01*
X133321379Y-103222551D01*
X133091911Y-103069226D01*
X132896774Y-102874089D01*
X132743449Y-102644621D01*
X132637839Y-102389656D01*
X132584000Y-102118988D01*
X132584000Y-101843012D01*
X132637839Y-101572344D01*
X132743449Y-101317379D01*
X132896774Y-101087911D01*
X133091911Y-100892774D01*
X133321379Y-100739449D01*
X133470733Y-100677585D01*
X133576343Y-100633839D01*
X133666567Y-100615893D01*
X133847012Y-100580000D01*
X134122988Y-100580000D01*
X134303433Y-100615893D01*
X134303433Y-100615893D01*
G37*
G36*
X150940433Y-100615893D02*
X151030657Y-100633839D01*
X151136267Y-100677585D01*
X151285621Y-100739449D01*
X151515089Y-100892774D01*
X151710226Y-101087911D01*
X151863551Y-101317379D01*
X151969161Y-101572344D01*
X152023000Y-101843012D01*
X152023000Y-102118988D01*
X151969161Y-102389656D01*
X151863551Y-102644621D01*
X151710226Y-102874089D01*
X151515089Y-103069226D01*
X151285621Y-103222551D01*
X151136267Y-103284415D01*
X151030657Y-103328161D01*
X150940433Y-103346107D01*
X150759988Y-103382000D01*
X150484012Y-103382000D01*
X150303567Y-103346107D01*
X150213343Y-103328161D01*
X150107733Y-103284415D01*
X149958379Y-103222551D01*
X149728911Y-103069226D01*
X149533774Y-102874089D01*
X149380449Y-102644621D01*
X149274839Y-102389656D01*
X149221000Y-102118988D01*
X149221000Y-101843012D01*
X149274839Y-101572344D01*
X149380449Y-101317379D01*
X149533774Y-101087911D01*
X149728911Y-100892774D01*
X149958379Y-100739449D01*
X150107733Y-100677585D01*
X150213343Y-100633839D01*
X150303567Y-100615893D01*
X150484012Y-100580000D01*
X150759988Y-100580000D01*
X150940433Y-100615893D01*
X150940433Y-100615893D01*
G37*
M02*
