M48
INCH,TZ
T1C0.0157
T2C0.0295
T3C0.0315
T4C0.0354
T5C0.0394
T6C0.0630
%
G90
G05
T1
X49850Y-34550
X49950Y-39800
X50000Y-29200
X54100Y-35350
X54500Y-29050
X54800Y-40800
T2
X54663Y-23850
X55450Y-23850
X68300Y-25213
X68300Y-26000
T3
X68250Y-28816
X68250Y-29800
X58800Y-28250
X58800Y-29250
X58800Y-30250
X58800Y-31250
X61800Y-28250
X61800Y-29250
X61800Y-30250
X61800Y-31250
X57000Y-26200
X57000Y-28169
X49600Y-25250
X51600Y-25250
X61850Y-33150
X63819Y-33150
X60450Y-33300
X60450Y-35269
X60650Y-36950
X62619Y-36950
X64450Y-29300
X65434Y-29300
X59350Y-26200
X61350Y-26200
X56600Y-34450
X58569Y-34450
X56650Y-30700
X56650Y-32700
X63300Y-25250
X64284Y-25250
X56750Y-36950
X58750Y-36950
X68450Y-33300
X68450Y-35300
X68750Y-31750
X70719Y-31750
X66450Y-30550
X66450Y-32550
T4
X50250Y-22250
X50250Y-23250
T5
X72950Y-37231
X72950Y-38216
X72950Y-39200
X72950Y-23981
X72950Y-24966
X72950Y-25950
X72950Y-30606
X72950Y-31591
X72950Y-32575
T6
X68500Y-36800
X68500Y-39162
X70350Y-37981
T0
M30
