G04 #@! TF.GenerationSoftware,KiCad,Pcbnew,(5.0.1)-rc2*
G04 #@! TF.CreationDate,2019-02-18T01:36:53-05:00*
G04 #@! TF.ProjectId,mfos_power,6D666F735F706F7765722E6B69636164,rev?*
G04 #@! TF.SameCoordinates,Original*
G04 #@! TF.FileFunction,Copper,L2,Bot,Signal*
G04 #@! TF.FilePolarity,Positive*
%FSLAX46Y46*%
G04 Gerber Fmt 4.6, Leading zero omitted, Abs format (unit mm)*
G04 Created by KiCad (PCBNEW (5.0.1)-rc2) date 2/18/2019 1:36:53 AM*
%MOMM*%
%LPD*%
G01*
G04 APERTURE LIST*
G04 #@! TA.AperFunction,ComponentPad*
%ADD10C,2.400000*%
G04 #@! TD*
G04 #@! TA.AperFunction,ComponentPad*
%ADD11R,2.400000X2.400000*%
G04 #@! TD*
G04 #@! TA.AperFunction,ComponentPad*
%ADD12C,1.600000*%
G04 #@! TD*
G04 #@! TA.AperFunction,ComponentPad*
%ADD13R,1.600000X1.600000*%
G04 #@! TD*
G04 #@! TA.AperFunction,ComponentPad*
%ADD14O,2.000000X1.905000*%
G04 #@! TD*
G04 #@! TA.AperFunction,ComponentPad*
%ADD15R,2.000000X1.905000*%
G04 #@! TD*
G04 #@! TA.AperFunction,ComponentPad*
%ADD16O,2.200000X2.200000*%
G04 #@! TD*
G04 #@! TA.AperFunction,ComponentPad*
%ADD17R,2.200000X2.200000*%
G04 #@! TD*
G04 #@! TA.AperFunction,ComponentPad*
%ADD18R,2.600000X2.600000*%
G04 #@! TD*
G04 #@! TA.AperFunction,ComponentPad*
%ADD19C,2.600000*%
G04 #@! TD*
G04 #@! TA.AperFunction,ComponentPad*
%ADD20R,1.800000X1.800000*%
G04 #@! TD*
G04 #@! TA.AperFunction,ComponentPad*
%ADD21C,1.800000*%
G04 #@! TD*
G04 #@! TA.AperFunction,ComponentPad*
%ADD22O,1.750000X1.200000*%
G04 #@! TD*
G04 #@! TA.AperFunction,Conductor*
%ADD23C,0.100000*%
G04 #@! TD*
G04 #@! TA.AperFunction,ComponentPad*
%ADD24C,1.200000*%
G04 #@! TD*
G04 #@! TA.AperFunction,ComponentPad*
%ADD25O,1.950000X1.700000*%
G04 #@! TD*
G04 #@! TA.AperFunction,ComponentPad*
%ADD26C,1.700000*%
G04 #@! TD*
G04 #@! TA.AperFunction,ComponentPad*
%ADD27O,1.600000X1.600000*%
G04 #@! TD*
G04 #@! TA.AperFunction,Conductor*
%ADD28C,0.508000*%
G04 #@! TD*
G04 #@! TA.AperFunction,Conductor*
%ADD29C,0.254000*%
G04 #@! TD*
G04 APERTURE END LIST*
D10*
G04 #@! TO.P,C2,2*
G04 #@! TO.N,GND*
X108198920Y-44900200D03*
D11*
G04 #@! TO.P,C2,1*
G04 #@! TO.N,Net-(C2-Pad1)*
X108198920Y-52400200D03*
G04 #@! TD*
G04 #@! TO.P,C3,1*
G04 #@! TO.N,GND*
X128978660Y-100223320D03*
D10*
G04 #@! TO.P,C3,2*
G04 #@! TO.N,Net-(C1-Pad2)*
X128978660Y-92723320D03*
G04 #@! TD*
G04 #@! TO.P,C4,2*
G04 #@! TO.N,GND*
X150825200Y-44900200D03*
D11*
G04 #@! TO.P,C4,1*
G04 #@! TO.N,Net-(C2-Pad1)*
X150825200Y-52400200D03*
G04 #@! TD*
G04 #@! TO.P,C5,1*
G04 #@! TO.N,Net-(C2-Pad1)*
X129512060Y-52400200D03*
D10*
G04 #@! TO.P,C5,2*
G04 #@! TO.N,GND*
X129512060Y-44900200D03*
G04 #@! TD*
G04 #@! TO.P,C6,2*
G04 #@! TO.N,Net-(C1-Pad2)*
X150291800Y-92723320D03*
D11*
G04 #@! TO.P,C6,1*
G04 #@! TO.N,GND*
X150291800Y-100223320D03*
G04 #@! TD*
G04 #@! TO.P,C1,1*
G04 #@! TO.N,GND*
X107665520Y-100223320D03*
D10*
G04 #@! TO.P,C1,2*
G04 #@! TO.N,Net-(C1-Pad2)*
X107665520Y-92723320D03*
G04 #@! TD*
D12*
G04 #@! TO.P,C7,2*
G04 #@! TO.N,GND*
X105719880Y-70160520D03*
D13*
G04 #@! TO.P,C7,1*
G04 #@! TO.N,Net-(C2-Pad1)*
X105719880Y-67660520D03*
G04 #@! TD*
G04 #@! TO.P,C8,1*
G04 #@! TO.N,GND*
X104622600Y-76057760D03*
D12*
G04 #@! TO.P,C8,2*
G04 #@! TO.N,Net-(C1-Pad2)*
X107122600Y-76057760D03*
G04 #@! TD*
G04 #@! TO.P,C9,2*
G04 #@! TO.N,GND*
X165780720Y-51221000D03*
D13*
G04 #@! TO.P,C9,1*
G04 #@! TO.N,+12V*
X165780720Y-53721000D03*
G04 #@! TD*
G04 #@! TO.P,C10,1*
G04 #@! TO.N,GND*
X165907720Y-90749120D03*
D12*
G04 #@! TO.P,C10,2*
G04 #@! TO.N,-12V*
X163407720Y-90749120D03*
G04 #@! TD*
D14*
G04 #@! TO.P,U1,3*
G04 #@! TO.N,+12V*
X115600480Y-69021960D03*
G04 #@! TO.P,U1,2*
G04 #@! TO.N,GND*
X115600480Y-66481960D03*
D15*
G04 #@! TO.P,U1,1*
G04 #@! TO.N,Net-(C2-Pad1)*
X115600480Y-63941960D03*
G04 #@! TD*
G04 #@! TO.P,U2,1*
G04 #@! TO.N,GND*
X115458240Y-77434440D03*
D14*
G04 #@! TO.P,U2,2*
G04 #@! TO.N,Net-(C1-Pad2)*
X115458240Y-79974440D03*
G04 #@! TO.P,U2,3*
G04 #@! TO.N,-12V*
X115458240Y-82514440D03*
G04 #@! TD*
D16*
G04 #@! TO.P,D1,2*
G04 #@! TO.N,Net-(D1-Pad2)*
X100197920Y-61620400D03*
D17*
G04 #@! TO.P,D1,1*
G04 #@! TO.N,Net-(C2-Pad1)*
X110357920Y-61620400D03*
G04 #@! TD*
G04 #@! TO.P,D2,1*
G04 #@! TO.N,Net-(D1-Pad2)*
X100269040Y-83078320D03*
D16*
G04 #@! TO.P,D2,2*
G04 #@! TO.N,Net-(C1-Pad2)*
X110429040Y-83078320D03*
G04 #@! TD*
G04 #@! TO.P,D3,2*
G04 #@! TO.N,+12V*
X149169120Y-64521080D03*
D17*
G04 #@! TO.P,D3,1*
G04 #@! TO.N,Net-(C2-Pad1)*
X139009120Y-64521080D03*
G04 #@! TD*
G04 #@! TO.P,D5,1*
G04 #@! TO.N,GND*
X139009120Y-81732120D03*
D16*
G04 #@! TO.P,D5,2*
G04 #@! TO.N,-12V*
X149169120Y-81732120D03*
G04 #@! TD*
G04 #@! TO.P,D6,2*
G04 #@! TO.N,GND*
X139009120Y-70258093D03*
D17*
G04 #@! TO.P,D6,1*
G04 #@! TO.N,+12V*
X149169120Y-70258093D03*
G04 #@! TD*
G04 #@! TO.P,D4,1*
G04 #@! TO.N,-12V*
X149169120Y-75995106D03*
D16*
G04 #@! TO.P,D4,2*
G04 #@! TO.N,Net-(C1-Pad2)*
X139009120Y-75995106D03*
G04 #@! TD*
D18*
G04 #@! TO.P,J1,1*
G04 #@! TO.N,Net-(D1-Pad2)*
X97149920Y-71419720D03*
D19*
G04 #@! TO.P,J1,2*
G04 #@! TO.N,GND*
X91149920Y-71419720D03*
G04 #@! TO.P,J1,3*
G04 #@! TO.N,Net-(J1-Pad3)*
X94149920Y-76119720D03*
G04 #@! TD*
D20*
G04 #@! TO.P,D7,1*
G04 #@! TO.N,Net-(D7-Pad1)*
X156748320Y-78216760D03*
D21*
G04 #@! TO.P,D7,2*
G04 #@! TO.N,GND*
X154208320Y-78216760D03*
G04 #@! TD*
G04 #@! TO.P,D8,2*
G04 #@! TO.N,Net-(D8-Pad2)*
X156738320Y-66639440D03*
D20*
G04 #@! TO.P,D8,1*
G04 #@! TO.N,GND*
X154198320Y-66639440D03*
G04 #@! TD*
D22*
G04 #@! TO.P,J2,3*
G04 #@! TO.N,+12V*
X174386240Y-62578480D03*
G04 #@! TO.P,J2,2*
G04 #@! TO.N,GND*
X174386240Y-64578480D03*
D23*
G04 #@! TD*
G04 #@! TO.N,-12V*
G04 #@! TO.C,J2*
G36*
X175035745Y-65979684D02*
X175060013Y-65983284D01*
X175083812Y-65989245D01*
X175106911Y-65997510D01*
X175129090Y-66008000D01*
X175150133Y-66020612D01*
X175169839Y-66035227D01*
X175188017Y-66051703D01*
X175204493Y-66069881D01*
X175219108Y-66089587D01*
X175231720Y-66110630D01*
X175242210Y-66132809D01*
X175250475Y-66155908D01*
X175256436Y-66179707D01*
X175260036Y-66203975D01*
X175261240Y-66228479D01*
X175261240Y-66928481D01*
X175260036Y-66952985D01*
X175256436Y-66977253D01*
X175250475Y-67001052D01*
X175242210Y-67024151D01*
X175231720Y-67046330D01*
X175219108Y-67067373D01*
X175204493Y-67087079D01*
X175188017Y-67105257D01*
X175169839Y-67121733D01*
X175150133Y-67136348D01*
X175129090Y-67148960D01*
X175106911Y-67159450D01*
X175083812Y-67167715D01*
X175060013Y-67173676D01*
X175035745Y-67177276D01*
X175011241Y-67178480D01*
X173761239Y-67178480D01*
X173736735Y-67177276D01*
X173712467Y-67173676D01*
X173688668Y-67167715D01*
X173665569Y-67159450D01*
X173643390Y-67148960D01*
X173622347Y-67136348D01*
X173602641Y-67121733D01*
X173584463Y-67105257D01*
X173567987Y-67087079D01*
X173553372Y-67067373D01*
X173540760Y-67046330D01*
X173530270Y-67024151D01*
X173522005Y-67001052D01*
X173516044Y-66977253D01*
X173512444Y-66952985D01*
X173511240Y-66928481D01*
X173511240Y-66228479D01*
X173512444Y-66203975D01*
X173516044Y-66179707D01*
X173522005Y-66155908D01*
X173530270Y-66132809D01*
X173540760Y-66110630D01*
X173553372Y-66089587D01*
X173567987Y-66069881D01*
X173584463Y-66051703D01*
X173602641Y-66035227D01*
X173622347Y-66020612D01*
X173643390Y-66008000D01*
X173665569Y-65997510D01*
X173688668Y-65989245D01*
X173712467Y-65983284D01*
X173736735Y-65979684D01*
X173761239Y-65978480D01*
X175011241Y-65978480D01*
X175035745Y-65979684D01*
X175035745Y-65979684D01*
G37*
D24*
G04 #@! TO.P,J2,1*
G04 #@! TO.N,-12V*
X174386240Y-66578480D03*
G04 #@! TD*
D23*
G04 #@! TO.N,-12V*
G04 #@! TO.C,J3*
G36*
X174929065Y-80107164D02*
X174953333Y-80110764D01*
X174977132Y-80116725D01*
X175000231Y-80124990D01*
X175022410Y-80135480D01*
X175043453Y-80148092D01*
X175063159Y-80162707D01*
X175081337Y-80179183D01*
X175097813Y-80197361D01*
X175112428Y-80217067D01*
X175125040Y-80238110D01*
X175135530Y-80260289D01*
X175143795Y-80283388D01*
X175149756Y-80307187D01*
X175153356Y-80331455D01*
X175154560Y-80355959D01*
X175154560Y-81055961D01*
X175153356Y-81080465D01*
X175149756Y-81104733D01*
X175143795Y-81128532D01*
X175135530Y-81151631D01*
X175125040Y-81173810D01*
X175112428Y-81194853D01*
X175097813Y-81214559D01*
X175081337Y-81232737D01*
X175063159Y-81249213D01*
X175043453Y-81263828D01*
X175022410Y-81276440D01*
X175000231Y-81286930D01*
X174977132Y-81295195D01*
X174953333Y-81301156D01*
X174929065Y-81304756D01*
X174904561Y-81305960D01*
X173654559Y-81305960D01*
X173630055Y-81304756D01*
X173605787Y-81301156D01*
X173581988Y-81295195D01*
X173558889Y-81286930D01*
X173536710Y-81276440D01*
X173515667Y-81263828D01*
X173495961Y-81249213D01*
X173477783Y-81232737D01*
X173461307Y-81214559D01*
X173446692Y-81194853D01*
X173434080Y-81173810D01*
X173423590Y-81151631D01*
X173415325Y-81128532D01*
X173409364Y-81104733D01*
X173405764Y-81080465D01*
X173404560Y-81055961D01*
X173404560Y-80355959D01*
X173405764Y-80331455D01*
X173409364Y-80307187D01*
X173415325Y-80283388D01*
X173423590Y-80260289D01*
X173434080Y-80238110D01*
X173446692Y-80217067D01*
X173461307Y-80197361D01*
X173477783Y-80179183D01*
X173495961Y-80162707D01*
X173515667Y-80148092D01*
X173536710Y-80135480D01*
X173558889Y-80124990D01*
X173581988Y-80116725D01*
X173605787Y-80110764D01*
X173630055Y-80107164D01*
X173654559Y-80105960D01*
X174904561Y-80105960D01*
X174929065Y-80107164D01*
X174929065Y-80107164D01*
G37*
D24*
G04 #@! TD*
G04 #@! TO.P,J3,1*
G04 #@! TO.N,-12V*
X174279560Y-80705960D03*
D22*
G04 #@! TO.P,J3,2*
G04 #@! TO.N,GND*
X174279560Y-78705960D03*
G04 #@! TO.P,J3,3*
G04 #@! TO.N,+12V*
X174279560Y-76705960D03*
G04 #@! TD*
D25*
G04 #@! TO.P,J4,3*
G04 #@! TO.N,+12V*
X164084000Y-62325240D03*
G04 #@! TO.P,J4,2*
G04 #@! TO.N,GND*
X164084000Y-64825240D03*
D23*
G04 #@! TD*
G04 #@! TO.N,-12V*
G04 #@! TO.C,J4*
G36*
X164833504Y-66476444D02*
X164857773Y-66480044D01*
X164881571Y-66486005D01*
X164904671Y-66494270D01*
X164926849Y-66504760D01*
X164947893Y-66517373D01*
X164967598Y-66531987D01*
X164985777Y-66548463D01*
X165002253Y-66566642D01*
X165016867Y-66586347D01*
X165029480Y-66607391D01*
X165039970Y-66629569D01*
X165048235Y-66652669D01*
X165054196Y-66676467D01*
X165057796Y-66700736D01*
X165059000Y-66725240D01*
X165059000Y-67925240D01*
X165057796Y-67949744D01*
X165054196Y-67974013D01*
X165048235Y-67997811D01*
X165039970Y-68020911D01*
X165029480Y-68043089D01*
X165016867Y-68064133D01*
X165002253Y-68083838D01*
X164985777Y-68102017D01*
X164967598Y-68118493D01*
X164947893Y-68133107D01*
X164926849Y-68145720D01*
X164904671Y-68156210D01*
X164881571Y-68164475D01*
X164857773Y-68170436D01*
X164833504Y-68174036D01*
X164809000Y-68175240D01*
X163359000Y-68175240D01*
X163334496Y-68174036D01*
X163310227Y-68170436D01*
X163286429Y-68164475D01*
X163263329Y-68156210D01*
X163241151Y-68145720D01*
X163220107Y-68133107D01*
X163200402Y-68118493D01*
X163182223Y-68102017D01*
X163165747Y-68083838D01*
X163151133Y-68064133D01*
X163138520Y-68043089D01*
X163128030Y-68020911D01*
X163119765Y-67997811D01*
X163113804Y-67974013D01*
X163110204Y-67949744D01*
X163109000Y-67925240D01*
X163109000Y-66725240D01*
X163110204Y-66700736D01*
X163113804Y-66676467D01*
X163119765Y-66652669D01*
X163128030Y-66629569D01*
X163138520Y-66607391D01*
X163151133Y-66586347D01*
X163165747Y-66566642D01*
X163182223Y-66548463D01*
X163200402Y-66531987D01*
X163220107Y-66517373D01*
X163241151Y-66504760D01*
X163263329Y-66494270D01*
X163286429Y-66486005D01*
X163310227Y-66480044D01*
X163334496Y-66476444D01*
X163359000Y-66475240D01*
X164809000Y-66475240D01*
X164833504Y-66476444D01*
X164833504Y-66476444D01*
G37*
D26*
G04 #@! TO.P,J4,1*
G04 #@! TO.N,-12V*
X164084000Y-67325240D03*
G04 #@! TD*
D23*
G04 #@! TO.N,-12V*
G04 #@! TO.C,J5*
G36*
X164940184Y-80603924D02*
X164964453Y-80607524D01*
X164988251Y-80613485D01*
X165011351Y-80621750D01*
X165033529Y-80632240D01*
X165054573Y-80644853D01*
X165074278Y-80659467D01*
X165092457Y-80675943D01*
X165108933Y-80694122D01*
X165123547Y-80713827D01*
X165136160Y-80734871D01*
X165146650Y-80757049D01*
X165154915Y-80780149D01*
X165160876Y-80803947D01*
X165164476Y-80828216D01*
X165165680Y-80852720D01*
X165165680Y-82052720D01*
X165164476Y-82077224D01*
X165160876Y-82101493D01*
X165154915Y-82125291D01*
X165146650Y-82148391D01*
X165136160Y-82170569D01*
X165123547Y-82191613D01*
X165108933Y-82211318D01*
X165092457Y-82229497D01*
X165074278Y-82245973D01*
X165054573Y-82260587D01*
X165033529Y-82273200D01*
X165011351Y-82283690D01*
X164988251Y-82291955D01*
X164964453Y-82297916D01*
X164940184Y-82301516D01*
X164915680Y-82302720D01*
X163465680Y-82302720D01*
X163441176Y-82301516D01*
X163416907Y-82297916D01*
X163393109Y-82291955D01*
X163370009Y-82283690D01*
X163347831Y-82273200D01*
X163326787Y-82260587D01*
X163307082Y-82245973D01*
X163288903Y-82229497D01*
X163272427Y-82211318D01*
X163257813Y-82191613D01*
X163245200Y-82170569D01*
X163234710Y-82148391D01*
X163226445Y-82125291D01*
X163220484Y-82101493D01*
X163216884Y-82077224D01*
X163215680Y-82052720D01*
X163215680Y-80852720D01*
X163216884Y-80828216D01*
X163220484Y-80803947D01*
X163226445Y-80780149D01*
X163234710Y-80757049D01*
X163245200Y-80734871D01*
X163257813Y-80713827D01*
X163272427Y-80694122D01*
X163288903Y-80675943D01*
X163307082Y-80659467D01*
X163326787Y-80644853D01*
X163347831Y-80632240D01*
X163370009Y-80621750D01*
X163393109Y-80613485D01*
X163416907Y-80607524D01*
X163441176Y-80603924D01*
X163465680Y-80602720D01*
X164915680Y-80602720D01*
X164940184Y-80603924D01*
X164940184Y-80603924D01*
G37*
D26*
G04 #@! TD*
G04 #@! TO.P,J5,1*
G04 #@! TO.N,-12V*
X164190680Y-81452720D03*
D25*
G04 #@! TO.P,J5,2*
G04 #@! TO.N,GND*
X164190680Y-78952720D03*
G04 #@! TO.P,J5,3*
G04 #@! TO.N,+12V*
X164190680Y-76452720D03*
G04 #@! TD*
D12*
G04 #@! TO.P,R1,1*
G04 #@! TO.N,-12V*
X137840720Y-86827360D03*
D27*
G04 #@! TO.P,R1,2*
G04 #@! TO.N,Net-(D7-Pad1)*
X142920720Y-86827360D03*
G04 #@! TD*
G04 #@! TO.P,R2,2*
G04 #@! TO.N,Net-(D8-Pad2)*
X142392400Y-58145680D03*
D12*
G04 #@! TO.P,R2,1*
G04 #@! TO.N,+12V*
X137312400Y-58145680D03*
G04 #@! TD*
D28*
G04 #@! TO.N,GND*
X104622600Y-77365760D02*
X104622600Y-76057760D01*
X104622600Y-95472400D02*
X104622600Y-77365760D01*
X107665520Y-98515320D02*
X104622600Y-95472400D01*
X107665520Y-100223320D02*
X107665520Y-98515320D01*
G04 #@! TO.N,Net-(C2-Pad1)*
X137401120Y-64521080D02*
X139009120Y-64521080D01*
X129512060Y-56632020D02*
X137401120Y-64521080D01*
X129512060Y-52400200D02*
X129512060Y-56632020D01*
G04 #@! TO.N,GND*
X104919881Y-69360521D02*
X105719880Y-70160520D01*
X93209119Y-69360521D02*
X104919881Y-69360521D01*
X91149920Y-71419720D02*
X93209119Y-69360521D01*
X115370778Y-66481960D02*
X115600480Y-66481960D01*
X114146479Y-65257661D02*
X115370778Y-66481960D01*
X114146479Y-52544815D02*
X114146479Y-65257661D01*
X108198920Y-46597256D02*
X114146479Y-52544815D01*
X108198920Y-44900200D02*
X108198920Y-46597256D01*
X109398440Y-66481960D02*
X115600480Y-66481960D01*
X105719880Y-70160520D02*
X109398440Y-66481960D01*
X154198320Y-78206760D02*
X154208320Y-78216760D01*
X154198320Y-66639440D02*
X154198320Y-78206760D01*
X174139480Y-64825240D02*
X174386240Y-64578480D01*
X164084000Y-64825240D02*
X174139480Y-64825240D01*
G04 #@! TO.N,-12V*
X133527800Y-82514440D02*
X138313160Y-87299800D01*
X115458240Y-82514440D02*
X133527800Y-82514440D01*
X143880840Y-81732120D02*
X149169120Y-81732120D01*
X138313160Y-87299800D02*
X143880840Y-81732120D01*
X149169120Y-80176486D02*
X149169120Y-75995106D01*
X149169120Y-81732120D02*
X149169120Y-80176486D01*
X173532800Y-81452720D02*
X174279560Y-80705960D01*
X164190680Y-81452720D02*
X173532800Y-81452720D01*
X163407720Y-82235680D02*
X164190680Y-81452720D01*
X163407720Y-90749120D02*
X163407720Y-82235680D01*
X173639480Y-67325240D02*
X174386240Y-66578480D01*
X164084000Y-67325240D02*
X173639480Y-67325240D01*
X174950270Y-80035250D02*
X174279560Y-80705960D01*
X175608570Y-79376950D02*
X174950270Y-80035250D01*
X175608570Y-68500810D02*
X175608570Y-79376950D01*
X174386240Y-67278480D02*
X175608570Y-68500810D01*
X174386240Y-66578480D02*
X174386240Y-67278480D01*
X163911280Y-81732120D02*
X164190680Y-81452720D01*
X149169120Y-81732120D02*
X163911280Y-81732120D01*
G04 #@! TO.N,Net-(D8-Pad2)*
X143523770Y-58145680D02*
X142392400Y-58145680D01*
X148321762Y-58145680D02*
X143523770Y-58145680D01*
X155838321Y-65662239D02*
X148321762Y-58145680D01*
X155838321Y-65739441D02*
X155838321Y-65662239D01*
X156738320Y-66639440D02*
X155838321Y-65739441D01*
G04 #@! TD*
D29*
G04 #@! TO.N,-12V*
G36*
X162520006Y-61947694D02*
X162444908Y-62325240D01*
X162546137Y-62834157D01*
X162586585Y-64206276D01*
X162560161Y-64245822D01*
X162444908Y-64825240D01*
X162560161Y-65404658D01*
X162624761Y-65501338D01*
X162640799Y-66045416D01*
X162570673Y-66115542D01*
X162474000Y-66348931D01*
X162474000Y-67039490D01*
X162632750Y-67198240D01*
X162674782Y-67198240D01*
X162682269Y-67452240D01*
X162632750Y-67452240D01*
X162474000Y-67610990D01*
X162474000Y-68301549D01*
X162570673Y-68534938D01*
X162718544Y-68682810D01*
X162919365Y-75495373D01*
X162666841Y-75873302D01*
X162551588Y-76452720D01*
X162666841Y-77032138D01*
X162978412Y-77498436D01*
X162989946Y-77889740D01*
X162666841Y-78373302D01*
X162551588Y-78952720D01*
X162666841Y-79532138D01*
X162986389Y-80010376D01*
X162855981Y-80064393D01*
X162677353Y-80243022D01*
X162580680Y-80476411D01*
X162580680Y-81166970D01*
X162739430Y-81325720D01*
X163091232Y-81325720D01*
X163098720Y-81579720D01*
X162739430Y-81579720D01*
X162580680Y-81738470D01*
X162580680Y-82429029D01*
X162677353Y-82662418D01*
X162855981Y-82841047D01*
X163089370Y-82937720D01*
X163138751Y-82937720D01*
X163326780Y-89316349D01*
X163054266Y-89329342D01*
X162653715Y-89495256D01*
X162579581Y-89741375D01*
X163362385Y-90524180D01*
X163375267Y-90961178D01*
X162579581Y-91756865D01*
X162653715Y-92002984D01*
X163190943Y-92196085D01*
X163411360Y-92185576D01*
X163562204Y-97302756D01*
X130738646Y-98718429D01*
X130636469Y-98565511D01*
X130426425Y-98425163D01*
X130178660Y-98375880D01*
X127778660Y-98375880D01*
X127530895Y-98425163D01*
X127320851Y-98565511D01*
X127180503Y-98775555D01*
X127161175Y-98872724D01*
X109512960Y-99633888D01*
X109512960Y-99023320D01*
X109463677Y-98775555D01*
X109323329Y-98565511D01*
X109113285Y-98425163D01*
X108865520Y-98375880D01*
X108544200Y-98375880D01*
X108502939Y-98168450D01*
X108306453Y-97874387D01*
X108232227Y-97824791D01*
X105511600Y-95104165D01*
X105511600Y-92358316D01*
X105830520Y-92358316D01*
X105830520Y-93088324D01*
X106109882Y-93762764D01*
X106626076Y-94278958D01*
X107300516Y-94558320D01*
X108030524Y-94558320D01*
X108704964Y-94278958D01*
X109221158Y-93762764D01*
X109500520Y-93088324D01*
X109500520Y-92358316D01*
X127143660Y-92358316D01*
X127143660Y-93088324D01*
X127423022Y-93762764D01*
X127939216Y-94278958D01*
X128613656Y-94558320D01*
X129343664Y-94558320D01*
X130018104Y-94278958D01*
X130534298Y-93762764D01*
X130813660Y-93088324D01*
X130813660Y-92358316D01*
X148456800Y-92358316D01*
X148456800Y-93088324D01*
X148736162Y-93762764D01*
X149252356Y-94278958D01*
X149926796Y-94558320D01*
X150656804Y-94558320D01*
X151331244Y-94278958D01*
X151847438Y-93762764D01*
X152126800Y-93088324D01*
X152126800Y-92358316D01*
X151847438Y-91683876D01*
X151331244Y-91167682D01*
X150656804Y-90888320D01*
X149926796Y-90888320D01*
X149252356Y-91167682D01*
X148736162Y-91683876D01*
X148456800Y-92358316D01*
X130813660Y-92358316D01*
X130534298Y-91683876D01*
X130018104Y-91167682D01*
X129343664Y-90888320D01*
X128613656Y-90888320D01*
X127939216Y-91167682D01*
X127423022Y-91683876D01*
X127143660Y-92358316D01*
X109500520Y-92358316D01*
X109221158Y-91683876D01*
X108704964Y-91167682D01*
X108030524Y-90888320D01*
X107300516Y-90888320D01*
X106626076Y-91167682D01*
X106109882Y-91683876D01*
X105830520Y-92358316D01*
X105511600Y-92358316D01*
X105511600Y-90532343D01*
X161960755Y-90532343D01*
X161987942Y-91102574D01*
X162153856Y-91503125D01*
X162399975Y-91577259D01*
X163228115Y-90749120D01*
X162399975Y-89920981D01*
X162153856Y-89995115D01*
X161960755Y-90532343D01*
X105511600Y-90532343D01*
X105511600Y-87835105D01*
X137012581Y-87835105D01*
X137086715Y-88081224D01*
X137623943Y-88274325D01*
X138194174Y-88247138D01*
X138594725Y-88081224D01*
X138668859Y-87835105D01*
X137840720Y-87006965D01*
X137012581Y-87835105D01*
X105511600Y-87835105D01*
X105511600Y-86610583D01*
X136393755Y-86610583D01*
X136420942Y-87180814D01*
X136586856Y-87581365D01*
X136832975Y-87655499D01*
X137661115Y-86827360D01*
X138020325Y-86827360D01*
X138848465Y-87655499D01*
X139094584Y-87581365D01*
X139287685Y-87044137D01*
X139277350Y-86827360D01*
X141457607Y-86827360D01*
X141568980Y-87387269D01*
X141886143Y-87861937D01*
X142360811Y-88179100D01*
X142779387Y-88262360D01*
X143062053Y-88262360D01*
X143480629Y-88179100D01*
X143955297Y-87861937D01*
X144272460Y-87387269D01*
X144383833Y-86827360D01*
X144272460Y-86267451D01*
X143955297Y-85792783D01*
X143480629Y-85475620D01*
X143062053Y-85392360D01*
X142779387Y-85392360D01*
X142360811Y-85475620D01*
X141886143Y-85792783D01*
X141568980Y-86267451D01*
X141457607Y-86827360D01*
X139277350Y-86827360D01*
X139260498Y-86473906D01*
X139094584Y-86073355D01*
X138848465Y-85999221D01*
X138020325Y-86827360D01*
X137661115Y-86827360D01*
X136832975Y-85999221D01*
X136586856Y-86073355D01*
X136393755Y-86610583D01*
X105511600Y-86610583D01*
X105511600Y-85819615D01*
X137012581Y-85819615D01*
X137840720Y-86647755D01*
X138668859Y-85819615D01*
X138594725Y-85573496D01*
X138057497Y-85380395D01*
X137487266Y-85407582D01*
X137086715Y-85573496D01*
X137012581Y-85819615D01*
X105511600Y-85819615D01*
X105511600Y-83078320D01*
X108660050Y-83078320D01*
X108794706Y-83755283D01*
X109178175Y-84329185D01*
X109752077Y-84712654D01*
X110258160Y-84813320D01*
X110599920Y-84813320D01*
X111106003Y-84712654D01*
X111679905Y-84329185D01*
X112063374Y-83755283D01*
X112198030Y-83078320D01*
X112160058Y-82887420D01*
X113867677Y-82887420D01*
X114082267Y-83381364D01*
X114515149Y-83823758D01*
X115084376Y-84066820D01*
X115331240Y-83940012D01*
X115331240Y-82641440D01*
X115585240Y-82641440D01*
X115585240Y-83940012D01*
X115832104Y-84066820D01*
X116401331Y-83823758D01*
X116834213Y-83381364D01*
X117048803Y-82887420D01*
X116928834Y-82641440D01*
X115585240Y-82641440D01*
X115331240Y-82641440D01*
X113987646Y-82641440D01*
X113867677Y-82887420D01*
X112160058Y-82887420D01*
X112063374Y-82401357D01*
X111679905Y-81827455D01*
X111106003Y-81443986D01*
X110599920Y-81343320D01*
X110258160Y-81343320D01*
X109752077Y-81443986D01*
X109178175Y-81827455D01*
X108794706Y-82401357D01*
X108660050Y-83078320D01*
X105511600Y-83078320D01*
X105511600Y-79974440D01*
X113792140Y-79974440D01*
X113915349Y-80593851D01*
X114266217Y-81118963D01*
X114467714Y-81253599D01*
X114082267Y-81647516D01*
X113867677Y-82141460D01*
X113987646Y-82387440D01*
X115331240Y-82387440D01*
X115331240Y-82367440D01*
X115585240Y-82367440D01*
X115585240Y-82387440D01*
X116928834Y-82387440D01*
X117048803Y-82141460D01*
X116834213Y-81647516D01*
X116448766Y-81253599D01*
X116650263Y-81118963D01*
X117001131Y-80593851D01*
X117124340Y-79974440D01*
X129686516Y-79974440D01*
X129871620Y-80905020D01*
X130398751Y-81693929D01*
X131187660Y-82221060D01*
X131883343Y-82359440D01*
X132353137Y-82359440D01*
X133048820Y-82221060D01*
X133837729Y-81693929D01*
X134364860Y-80905020D01*
X134419143Y-80632120D01*
X137261680Y-80632120D01*
X137261680Y-82832120D01*
X137310963Y-83079885D01*
X137451311Y-83289929D01*
X137661355Y-83430277D01*
X137909120Y-83479560D01*
X140109120Y-83479560D01*
X140356885Y-83430277D01*
X140566929Y-83289929D01*
X140707277Y-83079885D01*
X140756560Y-82832120D01*
X140756560Y-82128242D01*
X147479945Y-82128242D01*
X147694586Y-82646452D01*
X148156728Y-83141132D01*
X148772997Y-83421303D01*
X149042120Y-83303724D01*
X149042120Y-81859120D01*
X149296120Y-81859120D01*
X149296120Y-83303724D01*
X149565243Y-83421303D01*
X150181512Y-83141132D01*
X150643654Y-82646452D01*
X150858295Y-82128242D01*
X150740245Y-81859120D01*
X149296120Y-81859120D01*
X149042120Y-81859120D01*
X147597995Y-81859120D01*
X147479945Y-82128242D01*
X140756560Y-82128242D01*
X140756560Y-81335998D01*
X147479945Y-81335998D01*
X147597995Y-81605120D01*
X149042120Y-81605120D01*
X149042120Y-80160516D01*
X149296120Y-80160516D01*
X149296120Y-81605120D01*
X150740245Y-81605120D01*
X150858295Y-81335998D01*
X150643654Y-80817788D01*
X150181512Y-80323108D01*
X149565243Y-80042937D01*
X149296120Y-80160516D01*
X149042120Y-80160516D01*
X148772997Y-80042937D01*
X148156728Y-80323108D01*
X147694586Y-80817788D01*
X147479945Y-81335998D01*
X140756560Y-81335998D01*
X140756560Y-80632120D01*
X140707277Y-80384355D01*
X140566929Y-80174311D01*
X140356885Y-80033963D01*
X140109120Y-79984680D01*
X137909120Y-79984680D01*
X137661355Y-80033963D01*
X137451311Y-80174311D01*
X137310963Y-80384355D01*
X137261680Y-80632120D01*
X134419143Y-80632120D01*
X134549964Y-79974440D01*
X134364860Y-79043860D01*
X133837729Y-78254951D01*
X133048820Y-77727820D01*
X132353137Y-77589440D01*
X131883343Y-77589440D01*
X131187660Y-77727820D01*
X130398751Y-78254951D01*
X129871620Y-79043860D01*
X129686516Y-79974440D01*
X117124340Y-79974440D01*
X117001131Y-79355029D01*
X116739152Y-78962949D01*
X116916049Y-78844749D01*
X117056397Y-78634705D01*
X117105680Y-78386940D01*
X117105680Y-76481940D01*
X117056397Y-76234175D01*
X116916049Y-76024131D01*
X116872611Y-75995106D01*
X137240130Y-75995106D01*
X137374786Y-76672069D01*
X137758255Y-77245971D01*
X138332157Y-77629440D01*
X138838240Y-77730106D01*
X139180000Y-77730106D01*
X139686083Y-77629440D01*
X140259985Y-77245971D01*
X140643454Y-76672069D01*
X140721270Y-76280856D01*
X147434120Y-76280856D01*
X147434120Y-77221416D01*
X147530793Y-77454805D01*
X147709422Y-77633433D01*
X147942811Y-77730106D01*
X148883370Y-77730106D01*
X149042120Y-77571356D01*
X149042120Y-76122106D01*
X149296120Y-76122106D01*
X149296120Y-77571356D01*
X149454870Y-77730106D01*
X150395429Y-77730106D01*
X150628818Y-77633433D01*
X150807447Y-77454805D01*
X150904120Y-77221416D01*
X150904120Y-76280856D01*
X150745370Y-76122106D01*
X149296120Y-76122106D01*
X149042120Y-76122106D01*
X147592870Y-76122106D01*
X147434120Y-76280856D01*
X140721270Y-76280856D01*
X140778110Y-75995106D01*
X140643454Y-75318143D01*
X140276393Y-74768796D01*
X147434120Y-74768796D01*
X147434120Y-75709356D01*
X147592870Y-75868106D01*
X149042120Y-75868106D01*
X149042120Y-74418856D01*
X149296120Y-74418856D01*
X149296120Y-75868106D01*
X150745370Y-75868106D01*
X150904120Y-75709356D01*
X150904120Y-74768796D01*
X150807447Y-74535407D01*
X150628818Y-74356779D01*
X150395429Y-74260106D01*
X149454870Y-74260106D01*
X149296120Y-74418856D01*
X149042120Y-74418856D01*
X148883370Y-74260106D01*
X147942811Y-74260106D01*
X147709422Y-74356779D01*
X147530793Y-74535407D01*
X147434120Y-74768796D01*
X140276393Y-74768796D01*
X140259985Y-74744241D01*
X139686083Y-74360772D01*
X139180000Y-74260106D01*
X138838240Y-74260106D01*
X138332157Y-74360772D01*
X137758255Y-74744241D01*
X137374786Y-75318143D01*
X137240130Y-75995106D01*
X116872611Y-75995106D01*
X116706005Y-75883783D01*
X116458240Y-75834500D01*
X114458240Y-75834500D01*
X114210475Y-75883783D01*
X114000431Y-76024131D01*
X113860083Y-76234175D01*
X113810800Y-76481940D01*
X113810800Y-78386940D01*
X113860083Y-78634705D01*
X114000431Y-78844749D01*
X114177328Y-78962949D01*
X113915349Y-79355029D01*
X113792140Y-79974440D01*
X105511600Y-79974440D01*
X105511600Y-77487497D01*
X105670365Y-77455917D01*
X105880409Y-77315569D01*
X106020757Y-77105525D01*
X106040701Y-77005257D01*
X106309738Y-77274294D01*
X106837161Y-77492760D01*
X107408039Y-77492760D01*
X107935462Y-77274294D01*
X108339134Y-76870622D01*
X108557600Y-76343199D01*
X108557600Y-75772321D01*
X108339134Y-75244898D01*
X107935462Y-74841226D01*
X107408039Y-74622760D01*
X106837161Y-74622760D01*
X106309738Y-74841226D01*
X106040701Y-75110263D01*
X106020757Y-75009995D01*
X105880409Y-74799951D01*
X105670365Y-74659603D01*
X105422600Y-74610320D01*
X103822600Y-74610320D01*
X103574835Y-74659603D01*
X103364791Y-74799951D01*
X103224443Y-75009995D01*
X103175160Y-75257760D01*
X103175160Y-76857760D01*
X103224443Y-77105525D01*
X103364791Y-77315569D01*
X103574835Y-77455917D01*
X103733601Y-77487497D01*
X103733600Y-95384845D01*
X103716184Y-95472400D01*
X103733600Y-95559955D01*
X103785181Y-95819269D01*
X103981667Y-96113333D01*
X104055896Y-96162931D01*
X106301475Y-98408510D01*
X106217755Y-98425163D01*
X106007711Y-98565511D01*
X105867363Y-98775555D01*
X105818080Y-99023320D01*
X105818080Y-99793247D01*
X97275418Y-100161690D01*
X97759404Y-81978320D01*
X98521600Y-81978320D01*
X98521600Y-84178320D01*
X98570883Y-84426085D01*
X98711231Y-84636129D01*
X98921275Y-84776477D01*
X99169040Y-84825760D01*
X101369040Y-84825760D01*
X101616805Y-84776477D01*
X101826849Y-84636129D01*
X101967197Y-84426085D01*
X102016480Y-84178320D01*
X102016480Y-81978320D01*
X101967197Y-81730555D01*
X101826849Y-81520511D01*
X101616805Y-81380163D01*
X101369040Y-81330880D01*
X99169040Y-81330880D01*
X98921275Y-81380163D01*
X98711231Y-81520511D01*
X98570883Y-81730555D01*
X98521600Y-81978320D01*
X97759404Y-81978320D01*
X97988608Y-73367160D01*
X98449920Y-73367160D01*
X98697685Y-73317877D01*
X98907729Y-73177529D01*
X99048077Y-72967485D01*
X99097360Y-72719720D01*
X99097360Y-70249521D01*
X104284880Y-70249521D01*
X104284880Y-70445959D01*
X104503346Y-70973382D01*
X104907018Y-71377054D01*
X105434441Y-71595520D01*
X106005319Y-71595520D01*
X106532742Y-71377054D01*
X106936414Y-70973382D01*
X107154880Y-70445959D01*
X107154880Y-69982755D01*
X109766676Y-67370960D01*
X114237722Y-67370960D01*
X114408457Y-67626483D01*
X114596247Y-67751960D01*
X114408457Y-67877437D01*
X114057589Y-68402549D01*
X113934380Y-69021960D01*
X114057589Y-69641371D01*
X114408457Y-70166483D01*
X114933569Y-70517351D01*
X115396630Y-70609460D01*
X115804330Y-70609460D01*
X116267391Y-70517351D01*
X116655398Y-70258093D01*
X137240130Y-70258093D01*
X137374786Y-70935056D01*
X137758255Y-71508958D01*
X138332157Y-71892427D01*
X138838240Y-71993093D01*
X139180000Y-71993093D01*
X139686083Y-71892427D01*
X140259985Y-71508958D01*
X140643454Y-70935056D01*
X140778110Y-70258093D01*
X140643454Y-69581130D01*
X140360790Y-69158093D01*
X147421680Y-69158093D01*
X147421680Y-71358093D01*
X147470963Y-71605858D01*
X147611311Y-71815902D01*
X147821355Y-71956250D01*
X148069120Y-72005533D01*
X150269120Y-72005533D01*
X150516885Y-71956250D01*
X150726929Y-71815902D01*
X150867277Y-71605858D01*
X150916560Y-71358093D01*
X150916560Y-69158093D01*
X150867277Y-68910328D01*
X150726929Y-68700284D01*
X150516885Y-68559936D01*
X150269120Y-68510653D01*
X148069120Y-68510653D01*
X147821355Y-68559936D01*
X147611311Y-68700284D01*
X147470963Y-68910328D01*
X147421680Y-69158093D01*
X140360790Y-69158093D01*
X140259985Y-69007228D01*
X139686083Y-68623759D01*
X139180000Y-68523093D01*
X138838240Y-68523093D01*
X138332157Y-68623759D01*
X137758255Y-69007228D01*
X137374786Y-69581130D01*
X137240130Y-70258093D01*
X116655398Y-70258093D01*
X116792503Y-70166483D01*
X117143371Y-69641371D01*
X117266580Y-69021960D01*
X117143371Y-68402549D01*
X116792503Y-67877437D01*
X116604713Y-67751960D01*
X116792503Y-67626483D01*
X117143371Y-67101371D01*
X117266580Y-66481960D01*
X129828756Y-66481960D01*
X130013860Y-67412540D01*
X130540991Y-68201449D01*
X131329900Y-68728580D01*
X132025583Y-68866960D01*
X132495377Y-68866960D01*
X133191060Y-68728580D01*
X133979969Y-68201449D01*
X134507100Y-67412540D01*
X134692204Y-66481960D01*
X134507100Y-65551380D01*
X133979969Y-64762471D01*
X133191060Y-64235340D01*
X132495377Y-64096960D01*
X132025583Y-64096960D01*
X131329900Y-64235340D01*
X130540991Y-64762471D01*
X130013860Y-65551380D01*
X129828756Y-66481960D01*
X117266580Y-66481960D01*
X117143371Y-65862549D01*
X116881392Y-65470469D01*
X117058289Y-65352269D01*
X117198637Y-65142225D01*
X117247920Y-64894460D01*
X117247920Y-62989460D01*
X117198637Y-62741695D01*
X117058289Y-62531651D01*
X116848245Y-62391303D01*
X116600480Y-62342020D01*
X115035479Y-62342020D01*
X115035479Y-52632371D01*
X115052895Y-52544815D01*
X114983898Y-52197944D01*
X114837008Y-51978108D01*
X114787412Y-51903882D01*
X114713186Y-51854286D01*
X114059100Y-51200200D01*
X127664620Y-51200200D01*
X127664620Y-53600200D01*
X127713903Y-53847965D01*
X127854251Y-54058009D01*
X128064295Y-54198357D01*
X128312060Y-54247640D01*
X128623060Y-54247640D01*
X128623061Y-56544461D01*
X128605644Y-56632020D01*
X128674642Y-56978890D01*
X128762984Y-57111103D01*
X128871128Y-57272953D01*
X128945354Y-57322549D01*
X136710591Y-65087787D01*
X136760187Y-65162013D01*
X136834413Y-65211609D01*
X137054249Y-65358499D01*
X137261680Y-65399760D01*
X137261680Y-65621080D01*
X137310963Y-65868845D01*
X137451311Y-66078889D01*
X137661355Y-66219237D01*
X137909120Y-66268520D01*
X140109120Y-66268520D01*
X140356885Y-66219237D01*
X140566929Y-66078889D01*
X140707277Y-65868845D01*
X140756560Y-65621080D01*
X140756560Y-64521080D01*
X147400130Y-64521080D01*
X147534786Y-65198043D01*
X147918255Y-65771945D01*
X148492157Y-66155414D01*
X148998240Y-66256080D01*
X149340000Y-66256080D01*
X149846083Y-66155414D01*
X150419985Y-65771945D01*
X150803454Y-65198043D01*
X150938110Y-64521080D01*
X150803454Y-63844117D01*
X150419985Y-63270215D01*
X149846083Y-62886746D01*
X149340000Y-62786080D01*
X148998240Y-62786080D01*
X148492157Y-62886746D01*
X147918255Y-63270215D01*
X147534786Y-63844117D01*
X147400130Y-64521080D01*
X140756560Y-64521080D01*
X140756560Y-63421080D01*
X140707277Y-63173315D01*
X140566929Y-62963271D01*
X140356885Y-62822923D01*
X140109120Y-62773640D01*
X137909120Y-62773640D01*
X137661355Y-62822923D01*
X137451311Y-62963271D01*
X137310963Y-63173315D01*
X137310901Y-63173625D01*
X131997517Y-57860241D01*
X135877400Y-57860241D01*
X135877400Y-58431119D01*
X136095866Y-58958542D01*
X136499538Y-59362214D01*
X137026961Y-59580680D01*
X137597839Y-59580680D01*
X138125262Y-59362214D01*
X138528934Y-58958542D01*
X138747400Y-58431119D01*
X138747400Y-58145680D01*
X140929287Y-58145680D01*
X141040660Y-58705589D01*
X141357823Y-59180257D01*
X141832491Y-59497420D01*
X142251067Y-59580680D01*
X142533733Y-59580680D01*
X142952309Y-59497420D01*
X143426977Y-59180257D01*
X143524248Y-59034680D01*
X147953527Y-59034680D01*
X154010846Y-65092000D01*
X153298320Y-65092000D01*
X153050555Y-65141283D01*
X152840511Y-65281631D01*
X152700163Y-65491675D01*
X152650880Y-65739440D01*
X152650880Y-67539440D01*
X152700163Y-67787205D01*
X152840511Y-67997249D01*
X153050555Y-68137597D01*
X153298320Y-68186880D01*
X153309320Y-68186880D01*
X153309321Y-76944942D01*
X152907010Y-77347253D01*
X152673320Y-77911430D01*
X152673320Y-78522090D01*
X152907010Y-79086267D01*
X153338813Y-79518070D01*
X153902990Y-79751760D01*
X154513650Y-79751760D01*
X155077827Y-79518070D01*
X155247045Y-79348852D01*
X155250163Y-79364525D01*
X155390511Y-79574569D01*
X155600555Y-79714917D01*
X155848320Y-79764200D01*
X157648320Y-79764200D01*
X157896085Y-79714917D01*
X158106129Y-79574569D01*
X158246477Y-79364525D01*
X158295760Y-79116760D01*
X158295760Y-77316760D01*
X158246477Y-77068995D01*
X158106129Y-76858951D01*
X157896085Y-76718603D01*
X157648320Y-76669320D01*
X155848320Y-76669320D01*
X155600555Y-76718603D01*
X155390511Y-76858951D01*
X155250163Y-77068995D01*
X155247045Y-77084668D01*
X155087320Y-76924943D01*
X155087320Y-68186880D01*
X155098320Y-68186880D01*
X155346085Y-68137597D01*
X155556129Y-67997249D01*
X155696477Y-67787205D01*
X155699595Y-67771532D01*
X155868813Y-67940750D01*
X156432990Y-68174440D01*
X157043650Y-68174440D01*
X157607827Y-67940750D01*
X158039630Y-67508947D01*
X158273320Y-66944770D01*
X158273320Y-66334110D01*
X158039630Y-65769933D01*
X157607827Y-65338130D01*
X157043650Y-65104440D01*
X156534802Y-65104440D01*
X156528850Y-65095532D01*
X156479254Y-65021306D01*
X156405028Y-64971710D01*
X149012293Y-57578976D01*
X148962695Y-57504747D01*
X148668632Y-57308261D01*
X148409318Y-57256680D01*
X148409317Y-57256680D01*
X148321762Y-57239264D01*
X148234207Y-57256680D01*
X143524248Y-57256680D01*
X143426977Y-57111103D01*
X142952309Y-56793940D01*
X142533733Y-56710680D01*
X142251067Y-56710680D01*
X141832491Y-56793940D01*
X141357823Y-57111103D01*
X141040660Y-57585771D01*
X140929287Y-58145680D01*
X138747400Y-58145680D01*
X138747400Y-57860241D01*
X138528934Y-57332818D01*
X138125262Y-56929146D01*
X137597839Y-56710680D01*
X137026961Y-56710680D01*
X136499538Y-56929146D01*
X136095866Y-57332818D01*
X135877400Y-57860241D01*
X131997517Y-57860241D01*
X130401060Y-56263785D01*
X130401060Y-54247640D01*
X130712060Y-54247640D01*
X130959825Y-54198357D01*
X131169869Y-54058009D01*
X131310217Y-53847965D01*
X131359500Y-53600200D01*
X131359500Y-51200200D01*
X148977760Y-51200200D01*
X148977760Y-53600200D01*
X149027043Y-53847965D01*
X149167391Y-54058009D01*
X149377435Y-54198357D01*
X149625200Y-54247640D01*
X152025200Y-54247640D01*
X152272965Y-54198357D01*
X152483009Y-54058009D01*
X152623357Y-53847965D01*
X152672640Y-53600200D01*
X152672640Y-51200200D01*
X152623357Y-50952435D01*
X152483009Y-50742391D01*
X152272965Y-50602043D01*
X152025200Y-50552760D01*
X149625200Y-50552760D01*
X149377435Y-50602043D01*
X149167391Y-50742391D01*
X149027043Y-50952435D01*
X148977760Y-51200200D01*
X131359500Y-51200200D01*
X131310217Y-50952435D01*
X131169869Y-50742391D01*
X130959825Y-50602043D01*
X130712060Y-50552760D01*
X128312060Y-50552760D01*
X128064295Y-50602043D01*
X127854251Y-50742391D01*
X127713903Y-50952435D01*
X127664620Y-51200200D01*
X114059100Y-51200200D01*
X109276551Y-46417651D01*
X109754558Y-45939644D01*
X110033920Y-45265204D01*
X110033920Y-44535196D01*
X109941321Y-44311641D01*
X127894063Y-44011303D01*
X127677060Y-44535196D01*
X127677060Y-45265204D01*
X127956422Y-45939644D01*
X128472616Y-46455838D01*
X129147056Y-46735200D01*
X129877064Y-46735200D01*
X130551504Y-46455838D01*
X131067698Y-45939644D01*
X131347060Y-45265204D01*
X131347060Y-44535196D01*
X131107787Y-43957539D01*
X149480137Y-43650181D01*
X149269562Y-43860756D01*
X148990200Y-44535196D01*
X148990200Y-45265204D01*
X149269562Y-45939644D01*
X149785756Y-46455838D01*
X150460196Y-46735200D01*
X151190204Y-46735200D01*
X151864644Y-46455838D01*
X152380838Y-45939644D01*
X152660200Y-45265204D01*
X152660200Y-44535196D01*
X152380838Y-43860756D01*
X152126000Y-43605918D01*
X161974470Y-43441159D01*
X162520006Y-61947694D01*
X162520006Y-61947694D01*
G37*
X162520006Y-61947694D02*
X162444908Y-62325240D01*
X162546137Y-62834157D01*
X162586585Y-64206276D01*
X162560161Y-64245822D01*
X162444908Y-64825240D01*
X162560161Y-65404658D01*
X162624761Y-65501338D01*
X162640799Y-66045416D01*
X162570673Y-66115542D01*
X162474000Y-66348931D01*
X162474000Y-67039490D01*
X162632750Y-67198240D01*
X162674782Y-67198240D01*
X162682269Y-67452240D01*
X162632750Y-67452240D01*
X162474000Y-67610990D01*
X162474000Y-68301549D01*
X162570673Y-68534938D01*
X162718544Y-68682810D01*
X162919365Y-75495373D01*
X162666841Y-75873302D01*
X162551588Y-76452720D01*
X162666841Y-77032138D01*
X162978412Y-77498436D01*
X162989946Y-77889740D01*
X162666841Y-78373302D01*
X162551588Y-78952720D01*
X162666841Y-79532138D01*
X162986389Y-80010376D01*
X162855981Y-80064393D01*
X162677353Y-80243022D01*
X162580680Y-80476411D01*
X162580680Y-81166970D01*
X162739430Y-81325720D01*
X163091232Y-81325720D01*
X163098720Y-81579720D01*
X162739430Y-81579720D01*
X162580680Y-81738470D01*
X162580680Y-82429029D01*
X162677353Y-82662418D01*
X162855981Y-82841047D01*
X163089370Y-82937720D01*
X163138751Y-82937720D01*
X163326780Y-89316349D01*
X163054266Y-89329342D01*
X162653715Y-89495256D01*
X162579581Y-89741375D01*
X163362385Y-90524180D01*
X163375267Y-90961178D01*
X162579581Y-91756865D01*
X162653715Y-92002984D01*
X163190943Y-92196085D01*
X163411360Y-92185576D01*
X163562204Y-97302756D01*
X130738646Y-98718429D01*
X130636469Y-98565511D01*
X130426425Y-98425163D01*
X130178660Y-98375880D01*
X127778660Y-98375880D01*
X127530895Y-98425163D01*
X127320851Y-98565511D01*
X127180503Y-98775555D01*
X127161175Y-98872724D01*
X109512960Y-99633888D01*
X109512960Y-99023320D01*
X109463677Y-98775555D01*
X109323329Y-98565511D01*
X109113285Y-98425163D01*
X108865520Y-98375880D01*
X108544200Y-98375880D01*
X108502939Y-98168450D01*
X108306453Y-97874387D01*
X108232227Y-97824791D01*
X105511600Y-95104165D01*
X105511600Y-92358316D01*
X105830520Y-92358316D01*
X105830520Y-93088324D01*
X106109882Y-93762764D01*
X106626076Y-94278958D01*
X107300516Y-94558320D01*
X108030524Y-94558320D01*
X108704964Y-94278958D01*
X109221158Y-93762764D01*
X109500520Y-93088324D01*
X109500520Y-92358316D01*
X127143660Y-92358316D01*
X127143660Y-93088324D01*
X127423022Y-93762764D01*
X127939216Y-94278958D01*
X128613656Y-94558320D01*
X129343664Y-94558320D01*
X130018104Y-94278958D01*
X130534298Y-93762764D01*
X130813660Y-93088324D01*
X130813660Y-92358316D01*
X148456800Y-92358316D01*
X148456800Y-93088324D01*
X148736162Y-93762764D01*
X149252356Y-94278958D01*
X149926796Y-94558320D01*
X150656804Y-94558320D01*
X151331244Y-94278958D01*
X151847438Y-93762764D01*
X152126800Y-93088324D01*
X152126800Y-92358316D01*
X151847438Y-91683876D01*
X151331244Y-91167682D01*
X150656804Y-90888320D01*
X149926796Y-90888320D01*
X149252356Y-91167682D01*
X148736162Y-91683876D01*
X148456800Y-92358316D01*
X130813660Y-92358316D01*
X130534298Y-91683876D01*
X130018104Y-91167682D01*
X129343664Y-90888320D01*
X128613656Y-90888320D01*
X127939216Y-91167682D01*
X127423022Y-91683876D01*
X127143660Y-92358316D01*
X109500520Y-92358316D01*
X109221158Y-91683876D01*
X108704964Y-91167682D01*
X108030524Y-90888320D01*
X107300516Y-90888320D01*
X106626076Y-91167682D01*
X106109882Y-91683876D01*
X105830520Y-92358316D01*
X105511600Y-92358316D01*
X105511600Y-90532343D01*
X161960755Y-90532343D01*
X161987942Y-91102574D01*
X162153856Y-91503125D01*
X162399975Y-91577259D01*
X163228115Y-90749120D01*
X162399975Y-89920981D01*
X162153856Y-89995115D01*
X161960755Y-90532343D01*
X105511600Y-90532343D01*
X105511600Y-87835105D01*
X137012581Y-87835105D01*
X137086715Y-88081224D01*
X137623943Y-88274325D01*
X138194174Y-88247138D01*
X138594725Y-88081224D01*
X138668859Y-87835105D01*
X137840720Y-87006965D01*
X137012581Y-87835105D01*
X105511600Y-87835105D01*
X105511600Y-86610583D01*
X136393755Y-86610583D01*
X136420942Y-87180814D01*
X136586856Y-87581365D01*
X136832975Y-87655499D01*
X137661115Y-86827360D01*
X138020325Y-86827360D01*
X138848465Y-87655499D01*
X139094584Y-87581365D01*
X139287685Y-87044137D01*
X139277350Y-86827360D01*
X141457607Y-86827360D01*
X141568980Y-87387269D01*
X141886143Y-87861937D01*
X142360811Y-88179100D01*
X142779387Y-88262360D01*
X143062053Y-88262360D01*
X143480629Y-88179100D01*
X143955297Y-87861937D01*
X144272460Y-87387269D01*
X144383833Y-86827360D01*
X144272460Y-86267451D01*
X143955297Y-85792783D01*
X143480629Y-85475620D01*
X143062053Y-85392360D01*
X142779387Y-85392360D01*
X142360811Y-85475620D01*
X141886143Y-85792783D01*
X141568980Y-86267451D01*
X141457607Y-86827360D01*
X139277350Y-86827360D01*
X139260498Y-86473906D01*
X139094584Y-86073355D01*
X138848465Y-85999221D01*
X138020325Y-86827360D01*
X137661115Y-86827360D01*
X136832975Y-85999221D01*
X136586856Y-86073355D01*
X136393755Y-86610583D01*
X105511600Y-86610583D01*
X105511600Y-85819615D01*
X137012581Y-85819615D01*
X137840720Y-86647755D01*
X138668859Y-85819615D01*
X138594725Y-85573496D01*
X138057497Y-85380395D01*
X137487266Y-85407582D01*
X137086715Y-85573496D01*
X137012581Y-85819615D01*
X105511600Y-85819615D01*
X105511600Y-83078320D01*
X108660050Y-83078320D01*
X108794706Y-83755283D01*
X109178175Y-84329185D01*
X109752077Y-84712654D01*
X110258160Y-84813320D01*
X110599920Y-84813320D01*
X111106003Y-84712654D01*
X111679905Y-84329185D01*
X112063374Y-83755283D01*
X112198030Y-83078320D01*
X112160058Y-82887420D01*
X113867677Y-82887420D01*
X114082267Y-83381364D01*
X114515149Y-83823758D01*
X115084376Y-84066820D01*
X115331240Y-83940012D01*
X115331240Y-82641440D01*
X115585240Y-82641440D01*
X115585240Y-83940012D01*
X115832104Y-84066820D01*
X116401331Y-83823758D01*
X116834213Y-83381364D01*
X117048803Y-82887420D01*
X116928834Y-82641440D01*
X115585240Y-82641440D01*
X115331240Y-82641440D01*
X113987646Y-82641440D01*
X113867677Y-82887420D01*
X112160058Y-82887420D01*
X112063374Y-82401357D01*
X111679905Y-81827455D01*
X111106003Y-81443986D01*
X110599920Y-81343320D01*
X110258160Y-81343320D01*
X109752077Y-81443986D01*
X109178175Y-81827455D01*
X108794706Y-82401357D01*
X108660050Y-83078320D01*
X105511600Y-83078320D01*
X105511600Y-79974440D01*
X113792140Y-79974440D01*
X113915349Y-80593851D01*
X114266217Y-81118963D01*
X114467714Y-81253599D01*
X114082267Y-81647516D01*
X113867677Y-82141460D01*
X113987646Y-82387440D01*
X115331240Y-82387440D01*
X115331240Y-82367440D01*
X115585240Y-82367440D01*
X115585240Y-82387440D01*
X116928834Y-82387440D01*
X117048803Y-82141460D01*
X116834213Y-81647516D01*
X116448766Y-81253599D01*
X116650263Y-81118963D01*
X117001131Y-80593851D01*
X117124340Y-79974440D01*
X129686516Y-79974440D01*
X129871620Y-80905020D01*
X130398751Y-81693929D01*
X131187660Y-82221060D01*
X131883343Y-82359440D01*
X132353137Y-82359440D01*
X133048820Y-82221060D01*
X133837729Y-81693929D01*
X134364860Y-80905020D01*
X134419143Y-80632120D01*
X137261680Y-80632120D01*
X137261680Y-82832120D01*
X137310963Y-83079885D01*
X137451311Y-83289929D01*
X137661355Y-83430277D01*
X137909120Y-83479560D01*
X140109120Y-83479560D01*
X140356885Y-83430277D01*
X140566929Y-83289929D01*
X140707277Y-83079885D01*
X140756560Y-82832120D01*
X140756560Y-82128242D01*
X147479945Y-82128242D01*
X147694586Y-82646452D01*
X148156728Y-83141132D01*
X148772997Y-83421303D01*
X149042120Y-83303724D01*
X149042120Y-81859120D01*
X149296120Y-81859120D01*
X149296120Y-83303724D01*
X149565243Y-83421303D01*
X150181512Y-83141132D01*
X150643654Y-82646452D01*
X150858295Y-82128242D01*
X150740245Y-81859120D01*
X149296120Y-81859120D01*
X149042120Y-81859120D01*
X147597995Y-81859120D01*
X147479945Y-82128242D01*
X140756560Y-82128242D01*
X140756560Y-81335998D01*
X147479945Y-81335998D01*
X147597995Y-81605120D01*
X149042120Y-81605120D01*
X149042120Y-80160516D01*
X149296120Y-80160516D01*
X149296120Y-81605120D01*
X150740245Y-81605120D01*
X150858295Y-81335998D01*
X150643654Y-80817788D01*
X150181512Y-80323108D01*
X149565243Y-80042937D01*
X149296120Y-80160516D01*
X149042120Y-80160516D01*
X148772997Y-80042937D01*
X148156728Y-80323108D01*
X147694586Y-80817788D01*
X147479945Y-81335998D01*
X140756560Y-81335998D01*
X140756560Y-80632120D01*
X140707277Y-80384355D01*
X140566929Y-80174311D01*
X140356885Y-80033963D01*
X140109120Y-79984680D01*
X137909120Y-79984680D01*
X137661355Y-80033963D01*
X137451311Y-80174311D01*
X137310963Y-80384355D01*
X137261680Y-80632120D01*
X134419143Y-80632120D01*
X134549964Y-79974440D01*
X134364860Y-79043860D01*
X133837729Y-78254951D01*
X133048820Y-77727820D01*
X132353137Y-77589440D01*
X131883343Y-77589440D01*
X131187660Y-77727820D01*
X130398751Y-78254951D01*
X129871620Y-79043860D01*
X129686516Y-79974440D01*
X117124340Y-79974440D01*
X117001131Y-79355029D01*
X116739152Y-78962949D01*
X116916049Y-78844749D01*
X117056397Y-78634705D01*
X117105680Y-78386940D01*
X117105680Y-76481940D01*
X117056397Y-76234175D01*
X116916049Y-76024131D01*
X116872611Y-75995106D01*
X137240130Y-75995106D01*
X137374786Y-76672069D01*
X137758255Y-77245971D01*
X138332157Y-77629440D01*
X138838240Y-77730106D01*
X139180000Y-77730106D01*
X139686083Y-77629440D01*
X140259985Y-77245971D01*
X140643454Y-76672069D01*
X140721270Y-76280856D01*
X147434120Y-76280856D01*
X147434120Y-77221416D01*
X147530793Y-77454805D01*
X147709422Y-77633433D01*
X147942811Y-77730106D01*
X148883370Y-77730106D01*
X149042120Y-77571356D01*
X149042120Y-76122106D01*
X149296120Y-76122106D01*
X149296120Y-77571356D01*
X149454870Y-77730106D01*
X150395429Y-77730106D01*
X150628818Y-77633433D01*
X150807447Y-77454805D01*
X150904120Y-77221416D01*
X150904120Y-76280856D01*
X150745370Y-76122106D01*
X149296120Y-76122106D01*
X149042120Y-76122106D01*
X147592870Y-76122106D01*
X147434120Y-76280856D01*
X140721270Y-76280856D01*
X140778110Y-75995106D01*
X140643454Y-75318143D01*
X140276393Y-74768796D01*
X147434120Y-74768796D01*
X147434120Y-75709356D01*
X147592870Y-75868106D01*
X149042120Y-75868106D01*
X149042120Y-74418856D01*
X149296120Y-74418856D01*
X149296120Y-75868106D01*
X150745370Y-75868106D01*
X150904120Y-75709356D01*
X150904120Y-74768796D01*
X150807447Y-74535407D01*
X150628818Y-74356779D01*
X150395429Y-74260106D01*
X149454870Y-74260106D01*
X149296120Y-74418856D01*
X149042120Y-74418856D01*
X148883370Y-74260106D01*
X147942811Y-74260106D01*
X147709422Y-74356779D01*
X147530793Y-74535407D01*
X147434120Y-74768796D01*
X140276393Y-74768796D01*
X140259985Y-74744241D01*
X139686083Y-74360772D01*
X139180000Y-74260106D01*
X138838240Y-74260106D01*
X138332157Y-74360772D01*
X137758255Y-74744241D01*
X137374786Y-75318143D01*
X137240130Y-75995106D01*
X116872611Y-75995106D01*
X116706005Y-75883783D01*
X116458240Y-75834500D01*
X114458240Y-75834500D01*
X114210475Y-75883783D01*
X114000431Y-76024131D01*
X113860083Y-76234175D01*
X113810800Y-76481940D01*
X113810800Y-78386940D01*
X113860083Y-78634705D01*
X114000431Y-78844749D01*
X114177328Y-78962949D01*
X113915349Y-79355029D01*
X113792140Y-79974440D01*
X105511600Y-79974440D01*
X105511600Y-77487497D01*
X105670365Y-77455917D01*
X105880409Y-77315569D01*
X106020757Y-77105525D01*
X106040701Y-77005257D01*
X106309738Y-77274294D01*
X106837161Y-77492760D01*
X107408039Y-77492760D01*
X107935462Y-77274294D01*
X108339134Y-76870622D01*
X108557600Y-76343199D01*
X108557600Y-75772321D01*
X108339134Y-75244898D01*
X107935462Y-74841226D01*
X107408039Y-74622760D01*
X106837161Y-74622760D01*
X106309738Y-74841226D01*
X106040701Y-75110263D01*
X106020757Y-75009995D01*
X105880409Y-74799951D01*
X105670365Y-74659603D01*
X105422600Y-74610320D01*
X103822600Y-74610320D01*
X103574835Y-74659603D01*
X103364791Y-74799951D01*
X103224443Y-75009995D01*
X103175160Y-75257760D01*
X103175160Y-76857760D01*
X103224443Y-77105525D01*
X103364791Y-77315569D01*
X103574835Y-77455917D01*
X103733601Y-77487497D01*
X103733600Y-95384845D01*
X103716184Y-95472400D01*
X103733600Y-95559955D01*
X103785181Y-95819269D01*
X103981667Y-96113333D01*
X104055896Y-96162931D01*
X106301475Y-98408510D01*
X106217755Y-98425163D01*
X106007711Y-98565511D01*
X105867363Y-98775555D01*
X105818080Y-99023320D01*
X105818080Y-99793247D01*
X97275418Y-100161690D01*
X97759404Y-81978320D01*
X98521600Y-81978320D01*
X98521600Y-84178320D01*
X98570883Y-84426085D01*
X98711231Y-84636129D01*
X98921275Y-84776477D01*
X99169040Y-84825760D01*
X101369040Y-84825760D01*
X101616805Y-84776477D01*
X101826849Y-84636129D01*
X101967197Y-84426085D01*
X102016480Y-84178320D01*
X102016480Y-81978320D01*
X101967197Y-81730555D01*
X101826849Y-81520511D01*
X101616805Y-81380163D01*
X101369040Y-81330880D01*
X99169040Y-81330880D01*
X98921275Y-81380163D01*
X98711231Y-81520511D01*
X98570883Y-81730555D01*
X98521600Y-81978320D01*
X97759404Y-81978320D01*
X97988608Y-73367160D01*
X98449920Y-73367160D01*
X98697685Y-73317877D01*
X98907729Y-73177529D01*
X99048077Y-72967485D01*
X99097360Y-72719720D01*
X99097360Y-70249521D01*
X104284880Y-70249521D01*
X104284880Y-70445959D01*
X104503346Y-70973382D01*
X104907018Y-71377054D01*
X105434441Y-71595520D01*
X106005319Y-71595520D01*
X106532742Y-71377054D01*
X106936414Y-70973382D01*
X107154880Y-70445959D01*
X107154880Y-69982755D01*
X109766676Y-67370960D01*
X114237722Y-67370960D01*
X114408457Y-67626483D01*
X114596247Y-67751960D01*
X114408457Y-67877437D01*
X114057589Y-68402549D01*
X113934380Y-69021960D01*
X114057589Y-69641371D01*
X114408457Y-70166483D01*
X114933569Y-70517351D01*
X115396630Y-70609460D01*
X115804330Y-70609460D01*
X116267391Y-70517351D01*
X116655398Y-70258093D01*
X137240130Y-70258093D01*
X137374786Y-70935056D01*
X137758255Y-71508958D01*
X138332157Y-71892427D01*
X138838240Y-71993093D01*
X139180000Y-71993093D01*
X139686083Y-71892427D01*
X140259985Y-71508958D01*
X140643454Y-70935056D01*
X140778110Y-70258093D01*
X140643454Y-69581130D01*
X140360790Y-69158093D01*
X147421680Y-69158093D01*
X147421680Y-71358093D01*
X147470963Y-71605858D01*
X147611311Y-71815902D01*
X147821355Y-71956250D01*
X148069120Y-72005533D01*
X150269120Y-72005533D01*
X150516885Y-71956250D01*
X150726929Y-71815902D01*
X150867277Y-71605858D01*
X150916560Y-71358093D01*
X150916560Y-69158093D01*
X150867277Y-68910328D01*
X150726929Y-68700284D01*
X150516885Y-68559936D01*
X150269120Y-68510653D01*
X148069120Y-68510653D01*
X147821355Y-68559936D01*
X147611311Y-68700284D01*
X147470963Y-68910328D01*
X147421680Y-69158093D01*
X140360790Y-69158093D01*
X140259985Y-69007228D01*
X139686083Y-68623759D01*
X139180000Y-68523093D01*
X138838240Y-68523093D01*
X138332157Y-68623759D01*
X137758255Y-69007228D01*
X137374786Y-69581130D01*
X137240130Y-70258093D01*
X116655398Y-70258093D01*
X116792503Y-70166483D01*
X117143371Y-69641371D01*
X117266580Y-69021960D01*
X117143371Y-68402549D01*
X116792503Y-67877437D01*
X116604713Y-67751960D01*
X116792503Y-67626483D01*
X117143371Y-67101371D01*
X117266580Y-66481960D01*
X129828756Y-66481960D01*
X130013860Y-67412540D01*
X130540991Y-68201449D01*
X131329900Y-68728580D01*
X132025583Y-68866960D01*
X132495377Y-68866960D01*
X133191060Y-68728580D01*
X133979969Y-68201449D01*
X134507100Y-67412540D01*
X134692204Y-66481960D01*
X134507100Y-65551380D01*
X133979969Y-64762471D01*
X133191060Y-64235340D01*
X132495377Y-64096960D01*
X132025583Y-64096960D01*
X131329900Y-64235340D01*
X130540991Y-64762471D01*
X130013860Y-65551380D01*
X129828756Y-66481960D01*
X117266580Y-66481960D01*
X117143371Y-65862549D01*
X116881392Y-65470469D01*
X117058289Y-65352269D01*
X117198637Y-65142225D01*
X117247920Y-64894460D01*
X117247920Y-62989460D01*
X117198637Y-62741695D01*
X117058289Y-62531651D01*
X116848245Y-62391303D01*
X116600480Y-62342020D01*
X115035479Y-62342020D01*
X115035479Y-52632371D01*
X115052895Y-52544815D01*
X114983898Y-52197944D01*
X114837008Y-51978108D01*
X114787412Y-51903882D01*
X114713186Y-51854286D01*
X114059100Y-51200200D01*
X127664620Y-51200200D01*
X127664620Y-53600200D01*
X127713903Y-53847965D01*
X127854251Y-54058009D01*
X128064295Y-54198357D01*
X128312060Y-54247640D01*
X128623060Y-54247640D01*
X128623061Y-56544461D01*
X128605644Y-56632020D01*
X128674642Y-56978890D01*
X128762984Y-57111103D01*
X128871128Y-57272953D01*
X128945354Y-57322549D01*
X136710591Y-65087787D01*
X136760187Y-65162013D01*
X136834413Y-65211609D01*
X137054249Y-65358499D01*
X137261680Y-65399760D01*
X137261680Y-65621080D01*
X137310963Y-65868845D01*
X137451311Y-66078889D01*
X137661355Y-66219237D01*
X137909120Y-66268520D01*
X140109120Y-66268520D01*
X140356885Y-66219237D01*
X140566929Y-66078889D01*
X140707277Y-65868845D01*
X140756560Y-65621080D01*
X140756560Y-64521080D01*
X147400130Y-64521080D01*
X147534786Y-65198043D01*
X147918255Y-65771945D01*
X148492157Y-66155414D01*
X148998240Y-66256080D01*
X149340000Y-66256080D01*
X149846083Y-66155414D01*
X150419985Y-65771945D01*
X150803454Y-65198043D01*
X150938110Y-64521080D01*
X150803454Y-63844117D01*
X150419985Y-63270215D01*
X149846083Y-62886746D01*
X149340000Y-62786080D01*
X148998240Y-62786080D01*
X148492157Y-62886746D01*
X147918255Y-63270215D01*
X147534786Y-63844117D01*
X147400130Y-64521080D01*
X140756560Y-64521080D01*
X140756560Y-63421080D01*
X140707277Y-63173315D01*
X140566929Y-62963271D01*
X140356885Y-62822923D01*
X140109120Y-62773640D01*
X137909120Y-62773640D01*
X137661355Y-62822923D01*
X137451311Y-62963271D01*
X137310963Y-63173315D01*
X137310901Y-63173625D01*
X131997517Y-57860241D01*
X135877400Y-57860241D01*
X135877400Y-58431119D01*
X136095866Y-58958542D01*
X136499538Y-59362214D01*
X137026961Y-59580680D01*
X137597839Y-59580680D01*
X138125262Y-59362214D01*
X138528934Y-58958542D01*
X138747400Y-58431119D01*
X138747400Y-58145680D01*
X140929287Y-58145680D01*
X141040660Y-58705589D01*
X141357823Y-59180257D01*
X141832491Y-59497420D01*
X142251067Y-59580680D01*
X142533733Y-59580680D01*
X142952309Y-59497420D01*
X143426977Y-59180257D01*
X143524248Y-59034680D01*
X147953527Y-59034680D01*
X154010846Y-65092000D01*
X153298320Y-65092000D01*
X153050555Y-65141283D01*
X152840511Y-65281631D01*
X152700163Y-65491675D01*
X152650880Y-65739440D01*
X152650880Y-67539440D01*
X152700163Y-67787205D01*
X152840511Y-67997249D01*
X153050555Y-68137597D01*
X153298320Y-68186880D01*
X153309320Y-68186880D01*
X153309321Y-76944942D01*
X152907010Y-77347253D01*
X152673320Y-77911430D01*
X152673320Y-78522090D01*
X152907010Y-79086267D01*
X153338813Y-79518070D01*
X153902990Y-79751760D01*
X154513650Y-79751760D01*
X155077827Y-79518070D01*
X155247045Y-79348852D01*
X155250163Y-79364525D01*
X155390511Y-79574569D01*
X155600555Y-79714917D01*
X155848320Y-79764200D01*
X157648320Y-79764200D01*
X157896085Y-79714917D01*
X158106129Y-79574569D01*
X158246477Y-79364525D01*
X158295760Y-79116760D01*
X158295760Y-77316760D01*
X158246477Y-77068995D01*
X158106129Y-76858951D01*
X157896085Y-76718603D01*
X157648320Y-76669320D01*
X155848320Y-76669320D01*
X155600555Y-76718603D01*
X155390511Y-76858951D01*
X155250163Y-77068995D01*
X155247045Y-77084668D01*
X155087320Y-76924943D01*
X155087320Y-68186880D01*
X155098320Y-68186880D01*
X155346085Y-68137597D01*
X155556129Y-67997249D01*
X155696477Y-67787205D01*
X155699595Y-67771532D01*
X155868813Y-67940750D01*
X156432990Y-68174440D01*
X157043650Y-68174440D01*
X157607827Y-67940750D01*
X158039630Y-67508947D01*
X158273320Y-66944770D01*
X158273320Y-66334110D01*
X158039630Y-65769933D01*
X157607827Y-65338130D01*
X157043650Y-65104440D01*
X156534802Y-65104440D01*
X156528850Y-65095532D01*
X156479254Y-65021306D01*
X156405028Y-64971710D01*
X149012293Y-57578976D01*
X148962695Y-57504747D01*
X148668632Y-57308261D01*
X148409318Y-57256680D01*
X148409317Y-57256680D01*
X148321762Y-57239264D01*
X148234207Y-57256680D01*
X143524248Y-57256680D01*
X143426977Y-57111103D01*
X142952309Y-56793940D01*
X142533733Y-56710680D01*
X142251067Y-56710680D01*
X141832491Y-56793940D01*
X141357823Y-57111103D01*
X141040660Y-57585771D01*
X140929287Y-58145680D01*
X138747400Y-58145680D01*
X138747400Y-57860241D01*
X138528934Y-57332818D01*
X138125262Y-56929146D01*
X137597839Y-56710680D01*
X137026961Y-56710680D01*
X136499538Y-56929146D01*
X136095866Y-57332818D01*
X135877400Y-57860241D01*
X131997517Y-57860241D01*
X130401060Y-56263785D01*
X130401060Y-54247640D01*
X130712060Y-54247640D01*
X130959825Y-54198357D01*
X131169869Y-54058009D01*
X131310217Y-53847965D01*
X131359500Y-53600200D01*
X131359500Y-51200200D01*
X148977760Y-51200200D01*
X148977760Y-53600200D01*
X149027043Y-53847965D01*
X149167391Y-54058009D01*
X149377435Y-54198357D01*
X149625200Y-54247640D01*
X152025200Y-54247640D01*
X152272965Y-54198357D01*
X152483009Y-54058009D01*
X152623357Y-53847965D01*
X152672640Y-53600200D01*
X152672640Y-51200200D01*
X152623357Y-50952435D01*
X152483009Y-50742391D01*
X152272965Y-50602043D01*
X152025200Y-50552760D01*
X149625200Y-50552760D01*
X149377435Y-50602043D01*
X149167391Y-50742391D01*
X149027043Y-50952435D01*
X148977760Y-51200200D01*
X131359500Y-51200200D01*
X131310217Y-50952435D01*
X131169869Y-50742391D01*
X130959825Y-50602043D01*
X130712060Y-50552760D01*
X128312060Y-50552760D01*
X128064295Y-50602043D01*
X127854251Y-50742391D01*
X127713903Y-50952435D01*
X127664620Y-51200200D01*
X114059100Y-51200200D01*
X109276551Y-46417651D01*
X109754558Y-45939644D01*
X110033920Y-45265204D01*
X110033920Y-44535196D01*
X109941321Y-44311641D01*
X127894063Y-44011303D01*
X127677060Y-44535196D01*
X127677060Y-45265204D01*
X127956422Y-45939644D01*
X128472616Y-46455838D01*
X129147056Y-46735200D01*
X129877064Y-46735200D01*
X130551504Y-46455838D01*
X131067698Y-45939644D01*
X131347060Y-45265204D01*
X131347060Y-44535196D01*
X131107787Y-43957539D01*
X149480137Y-43650181D01*
X149269562Y-43860756D01*
X148990200Y-44535196D01*
X148990200Y-45265204D01*
X149269562Y-45939644D01*
X149785756Y-46455838D01*
X150460196Y-46735200D01*
X151190204Y-46735200D01*
X151864644Y-46455838D01*
X152380838Y-45939644D01*
X152660200Y-45265204D01*
X152660200Y-44535196D01*
X152380838Y-43860756D01*
X152126000Y-43605918D01*
X161974470Y-43441159D01*
X162520006Y-61947694D01*
G04 #@! TD*
M02*
