G04 #@! TF.GenerationSoftware,KiCad,Pcbnew,(5.0.1)-rc2*
G04 #@! TF.CreationDate,2019-02-18T01:36:53-05:00*
G04 #@! TF.ProjectId,mfos_power,6D666F735F706F7765722E6B69636164,rev?*
G04 #@! TF.SameCoordinates,Original*
G04 #@! TF.FileFunction,Soldermask,Bot*
G04 #@! TF.FilePolarity,Negative*
%FSLAX46Y46*%
G04 Gerber Fmt 4.6, Leading zero omitted, Abs format (unit mm)*
G04 Created by KiCad (PCBNEW (5.0.1)-rc2) date 2/18/2019 1:36:53 AM*
%MOMM*%
%LPD*%
G01*
G04 APERTURE LIST*
%ADD10C,0.100000*%
G04 APERTURE END LIST*
D10*
G36*
X173755656Y-98919418D02*
X173861979Y-98940567D01*
X174162442Y-99065023D01*
X174429252Y-99243300D01*
X174432854Y-99245707D01*
X174662813Y-99475666D01*
X174843498Y-99746080D01*
X174967953Y-100046542D01*
X175031400Y-100365509D01*
X175031400Y-100690731D01*
X174967953Y-101009698D01*
X174843498Y-101310160D01*
X174662813Y-101580574D01*
X174432854Y-101810533D01*
X174432851Y-101810535D01*
X174162442Y-101991217D01*
X173861979Y-102115673D01*
X173755656Y-102136822D01*
X173543011Y-102179120D01*
X173217789Y-102179120D01*
X173005144Y-102136822D01*
X172898821Y-102115673D01*
X172598358Y-101991217D01*
X172327949Y-101810535D01*
X172327946Y-101810533D01*
X172097987Y-101580574D01*
X171917302Y-101310160D01*
X171792847Y-101009698D01*
X171729400Y-100690731D01*
X171729400Y-100365509D01*
X171792847Y-100046542D01*
X171917302Y-99746080D01*
X172097987Y-99475666D01*
X172327946Y-99245707D01*
X172331548Y-99243300D01*
X172598358Y-99065023D01*
X172898821Y-98940567D01*
X173005144Y-98919418D01*
X173217789Y-98877120D01*
X173543011Y-98877120D01*
X173755656Y-98919418D01*
X173755656Y-98919418D01*
G37*
G36*
X93278296Y-98919418D02*
X93384619Y-98940567D01*
X93685082Y-99065023D01*
X93951892Y-99243300D01*
X93955494Y-99245707D01*
X94185453Y-99475666D01*
X94366138Y-99746080D01*
X94490593Y-100046542D01*
X94554040Y-100365509D01*
X94554040Y-100690731D01*
X94490593Y-101009698D01*
X94366138Y-101310160D01*
X94185453Y-101580574D01*
X93955494Y-101810533D01*
X93955491Y-101810535D01*
X93685082Y-101991217D01*
X93384619Y-102115673D01*
X93278296Y-102136822D01*
X93065651Y-102179120D01*
X92740429Y-102179120D01*
X92527784Y-102136822D01*
X92421461Y-102115673D01*
X92120998Y-101991217D01*
X91850589Y-101810535D01*
X91850586Y-101810533D01*
X91620627Y-101580574D01*
X91439942Y-101310160D01*
X91315487Y-101009698D01*
X91252040Y-100690731D01*
X91252040Y-100365509D01*
X91315487Y-100046542D01*
X91439942Y-99746080D01*
X91620627Y-99475666D01*
X91850586Y-99245707D01*
X91854188Y-99243300D01*
X92120998Y-99065023D01*
X92421461Y-98940567D01*
X92527784Y-98919418D01*
X92740429Y-98877120D01*
X93065651Y-98877120D01*
X93278296Y-98919418D01*
X93278296Y-98919418D01*
G37*
G36*
X130229660Y-101474320D02*
X127727660Y-101474320D01*
X127727660Y-98972320D01*
X130229660Y-98972320D01*
X130229660Y-101474320D01*
X130229660Y-101474320D01*
G37*
G36*
X108916520Y-101474320D02*
X106414520Y-101474320D01*
X106414520Y-98972320D01*
X108916520Y-98972320D01*
X108916520Y-101474320D01*
X108916520Y-101474320D01*
G37*
G36*
X151542800Y-101474320D02*
X149040800Y-101474320D01*
X149040800Y-98972320D01*
X151542800Y-98972320D01*
X151542800Y-101474320D01*
X151542800Y-101474320D01*
G37*
G36*
X107849156Y-91484339D02*
X108030423Y-91520395D01*
X108258091Y-91614698D01*
X108462062Y-91750988D01*
X108462989Y-91751607D01*
X108637233Y-91925851D01*
X108637235Y-91925854D01*
X108774142Y-92130749D01*
X108868445Y-92358417D01*
X108916520Y-92600107D01*
X108916520Y-92846533D01*
X108868445Y-93088223D01*
X108774142Y-93315891D01*
X108637852Y-93519862D01*
X108637233Y-93520789D01*
X108462989Y-93695033D01*
X108462986Y-93695035D01*
X108258091Y-93831942D01*
X108030423Y-93926245D01*
X107849156Y-93962301D01*
X107788734Y-93974320D01*
X107542306Y-93974320D01*
X107481884Y-93962301D01*
X107300617Y-93926245D01*
X107072949Y-93831942D01*
X106868054Y-93695035D01*
X106868051Y-93695033D01*
X106693807Y-93520789D01*
X106693188Y-93519862D01*
X106556898Y-93315891D01*
X106462595Y-93088223D01*
X106414520Y-92846533D01*
X106414520Y-92600107D01*
X106462595Y-92358417D01*
X106556898Y-92130749D01*
X106693805Y-91925854D01*
X106693807Y-91925851D01*
X106868051Y-91751607D01*
X106868978Y-91750988D01*
X107072949Y-91614698D01*
X107300617Y-91520395D01*
X107481884Y-91484339D01*
X107542306Y-91472320D01*
X107788734Y-91472320D01*
X107849156Y-91484339D01*
X107849156Y-91484339D01*
G37*
G36*
X150475436Y-91484339D02*
X150656703Y-91520395D01*
X150884371Y-91614698D01*
X151088342Y-91750988D01*
X151089269Y-91751607D01*
X151263513Y-91925851D01*
X151263515Y-91925854D01*
X151400422Y-92130749D01*
X151494725Y-92358417D01*
X151542800Y-92600107D01*
X151542800Y-92846533D01*
X151494725Y-93088223D01*
X151400422Y-93315891D01*
X151264132Y-93519862D01*
X151263513Y-93520789D01*
X151089269Y-93695033D01*
X151089266Y-93695035D01*
X150884371Y-93831942D01*
X150656703Y-93926245D01*
X150475436Y-93962301D01*
X150415014Y-93974320D01*
X150168586Y-93974320D01*
X150108164Y-93962301D01*
X149926897Y-93926245D01*
X149699229Y-93831942D01*
X149494334Y-93695035D01*
X149494331Y-93695033D01*
X149320087Y-93520789D01*
X149319468Y-93519862D01*
X149183178Y-93315891D01*
X149088875Y-93088223D01*
X149040800Y-92846533D01*
X149040800Y-92600107D01*
X149088875Y-92358417D01*
X149183178Y-92130749D01*
X149320085Y-91925854D01*
X149320087Y-91925851D01*
X149494331Y-91751607D01*
X149495258Y-91750988D01*
X149699229Y-91614698D01*
X149926897Y-91520395D01*
X150108164Y-91484339D01*
X150168586Y-91472320D01*
X150415014Y-91472320D01*
X150475436Y-91484339D01*
X150475436Y-91484339D01*
G37*
G36*
X129162296Y-91484339D02*
X129343563Y-91520395D01*
X129571231Y-91614698D01*
X129775202Y-91750988D01*
X129776129Y-91751607D01*
X129950373Y-91925851D01*
X129950375Y-91925854D01*
X130087282Y-92130749D01*
X130181585Y-92358417D01*
X130229660Y-92600107D01*
X130229660Y-92846533D01*
X130181585Y-93088223D01*
X130087282Y-93315891D01*
X129950992Y-93519862D01*
X129950373Y-93520789D01*
X129776129Y-93695033D01*
X129776126Y-93695035D01*
X129571231Y-93831942D01*
X129343563Y-93926245D01*
X129162296Y-93962301D01*
X129101874Y-93974320D01*
X128855446Y-93974320D01*
X128795024Y-93962301D01*
X128613757Y-93926245D01*
X128386089Y-93831942D01*
X128181194Y-93695035D01*
X128181191Y-93695033D01*
X128006947Y-93520789D01*
X128006328Y-93519862D01*
X127870038Y-93315891D01*
X127775735Y-93088223D01*
X127727660Y-92846533D01*
X127727660Y-92600107D01*
X127775735Y-92358417D01*
X127870038Y-92130749D01*
X128006945Y-91925854D01*
X128006947Y-91925851D01*
X128181191Y-91751607D01*
X128182118Y-91750988D01*
X128386089Y-91614698D01*
X128613757Y-91520395D01*
X128795024Y-91484339D01*
X128855446Y-91472320D01*
X129101874Y-91472320D01*
X129162296Y-91484339D01*
X129162296Y-91484339D01*
G37*
G36*
X163655948Y-89930823D02*
X163810820Y-89994973D01*
X163950201Y-90088105D01*
X164068735Y-90206639D01*
X164161867Y-90346020D01*
X164226017Y-90500892D01*
X164258720Y-90665304D01*
X164258720Y-90832936D01*
X164226017Y-90997348D01*
X164161867Y-91152220D01*
X164068735Y-91291601D01*
X163950201Y-91410135D01*
X163810820Y-91503267D01*
X163655948Y-91567417D01*
X163491536Y-91600120D01*
X163323904Y-91600120D01*
X163159492Y-91567417D01*
X163004620Y-91503267D01*
X162865239Y-91410135D01*
X162746705Y-91291601D01*
X162653573Y-91152220D01*
X162589423Y-90997348D01*
X162556720Y-90832936D01*
X162556720Y-90665304D01*
X162589423Y-90500892D01*
X162653573Y-90346020D01*
X162746705Y-90206639D01*
X162865239Y-90088105D01*
X163004620Y-89994973D01*
X163159492Y-89930823D01*
X163323904Y-89898120D01*
X163491536Y-89898120D01*
X163655948Y-89930823D01*
X163655948Y-89930823D01*
G37*
G36*
X166758720Y-91600120D02*
X165056720Y-91600120D01*
X165056720Y-89898120D01*
X166758720Y-89898120D01*
X166758720Y-91600120D01*
X166758720Y-91600120D01*
G37*
G36*
X138088948Y-86009063D02*
X138243820Y-86073213D01*
X138383201Y-86166345D01*
X138501735Y-86284879D01*
X138594867Y-86424260D01*
X138659017Y-86579132D01*
X138691720Y-86743544D01*
X138691720Y-86911176D01*
X138659017Y-87075588D01*
X138594867Y-87230460D01*
X138501735Y-87369841D01*
X138383201Y-87488375D01*
X138243820Y-87581507D01*
X138088948Y-87645657D01*
X137924536Y-87678360D01*
X137756904Y-87678360D01*
X137592492Y-87645657D01*
X137437620Y-87581507D01*
X137298239Y-87488375D01*
X137179705Y-87369841D01*
X137086573Y-87230460D01*
X137022423Y-87075588D01*
X136989720Y-86911176D01*
X136989720Y-86743544D01*
X137022423Y-86579132D01*
X137086573Y-86424260D01*
X137179705Y-86284879D01*
X137298239Y-86166345D01*
X137437620Y-86073213D01*
X137592492Y-86009063D01*
X137756904Y-85976360D01*
X137924536Y-85976360D01*
X138088948Y-86009063D01*
X138088948Y-86009063D01*
G37*
G36*
X143087541Y-85988673D02*
X143087544Y-85988674D01*
X143087545Y-85988674D01*
X143247959Y-86037335D01*
X143247961Y-86037336D01*
X143247964Y-86037337D01*
X143395798Y-86116355D01*
X143525379Y-86222701D01*
X143631725Y-86352282D01*
X143710743Y-86500116D01*
X143710744Y-86500119D01*
X143710745Y-86500121D01*
X143759406Y-86660535D01*
X143759407Y-86660539D01*
X143775837Y-86827360D01*
X143759407Y-86994181D01*
X143759406Y-86994184D01*
X143759406Y-86994185D01*
X143734713Y-87075588D01*
X143710743Y-87154604D01*
X143631725Y-87302438D01*
X143525379Y-87432019D01*
X143395798Y-87538365D01*
X143247964Y-87617383D01*
X143247961Y-87617384D01*
X143247959Y-87617385D01*
X143087545Y-87666046D01*
X143087544Y-87666046D01*
X143087541Y-87666047D01*
X142962524Y-87678360D01*
X142878916Y-87678360D01*
X142753899Y-87666047D01*
X142753896Y-87666046D01*
X142753895Y-87666046D01*
X142593481Y-87617385D01*
X142593479Y-87617384D01*
X142593476Y-87617383D01*
X142445642Y-87538365D01*
X142316061Y-87432019D01*
X142209715Y-87302438D01*
X142130697Y-87154604D01*
X142106728Y-87075588D01*
X142082034Y-86994185D01*
X142082034Y-86994184D01*
X142082033Y-86994181D01*
X142065603Y-86827360D01*
X142082033Y-86660539D01*
X142082034Y-86660535D01*
X142130695Y-86500121D01*
X142130696Y-86500119D01*
X142130697Y-86500116D01*
X142209715Y-86352282D01*
X142316061Y-86222701D01*
X142445642Y-86116355D01*
X142593476Y-86037337D01*
X142593479Y-86037336D01*
X142593481Y-86037335D01*
X142753895Y-85988674D01*
X142753896Y-85988674D01*
X142753899Y-85988673D01*
X142878916Y-85976360D01*
X142962524Y-85976360D01*
X143087541Y-85988673D01*
X143087541Y-85988673D01*
G37*
G36*
X101420040Y-84229320D02*
X99118040Y-84229320D01*
X99118040Y-81927320D01*
X101420040Y-81927320D01*
X101420040Y-84229320D01*
X101420040Y-84229320D01*
G37*
G36*
X110553220Y-81933982D02*
X110654675Y-81943974D01*
X110871640Y-82009790D01*
X110871642Y-82009791D01*
X110871645Y-82009792D01*
X111071596Y-82116667D01*
X111246858Y-82260502D01*
X111390693Y-82435764D01*
X111497568Y-82635715D01*
X111497569Y-82635718D01*
X111497570Y-82635720D01*
X111563386Y-82852685D01*
X111585609Y-83078320D01*
X111563386Y-83303955D01*
X111497570Y-83520920D01*
X111497568Y-83520925D01*
X111390693Y-83720876D01*
X111246858Y-83896138D01*
X111071596Y-84039973D01*
X110871645Y-84146848D01*
X110871642Y-84146849D01*
X110871640Y-84146850D01*
X110654675Y-84212666D01*
X110553220Y-84222658D01*
X110485585Y-84229320D01*
X110372495Y-84229320D01*
X110304860Y-84222658D01*
X110203405Y-84212666D01*
X109986440Y-84146850D01*
X109986438Y-84146849D01*
X109986435Y-84146848D01*
X109786484Y-84039973D01*
X109611222Y-83896138D01*
X109467387Y-83720876D01*
X109360512Y-83520925D01*
X109360510Y-83520920D01*
X109294694Y-83303955D01*
X109272471Y-83078320D01*
X109294694Y-82852685D01*
X109360510Y-82635720D01*
X109360511Y-82635718D01*
X109360512Y-82635715D01*
X109467387Y-82435764D01*
X109611222Y-82260502D01*
X109786484Y-82116667D01*
X109986435Y-82009792D01*
X109986438Y-82009791D01*
X109986440Y-82009790D01*
X110203405Y-81943974D01*
X110304860Y-81933982D01*
X110372495Y-81927320D01*
X110485585Y-81927320D01*
X110553220Y-81933982D01*
X110553220Y-81933982D01*
G37*
G36*
X115614004Y-81516748D02*
X115702460Y-81525460D01*
X115891621Y-81582841D01*
X116065952Y-81676023D01*
X116218755Y-81801425D01*
X116344157Y-81954228D01*
X116437339Y-82128559D01*
X116494720Y-82317720D01*
X116514095Y-82514440D01*
X116494720Y-82711160D01*
X116437339Y-82900321D01*
X116344157Y-83074652D01*
X116218755Y-83227455D01*
X116065952Y-83352857D01*
X115891621Y-83446039D01*
X115702460Y-83503420D01*
X115614004Y-83512132D01*
X115555036Y-83517940D01*
X115361444Y-83517940D01*
X115302476Y-83512132D01*
X115214020Y-83503420D01*
X115024859Y-83446039D01*
X114850528Y-83352857D01*
X114697725Y-83227455D01*
X114572323Y-83074652D01*
X114479141Y-82900321D01*
X114421760Y-82711160D01*
X114402385Y-82514440D01*
X114421760Y-82317720D01*
X114479141Y-82128559D01*
X114572323Y-81954228D01*
X114697725Y-81801425D01*
X114850528Y-81676023D01*
X115024859Y-81582841D01*
X115214020Y-81525460D01*
X115302476Y-81516748D01*
X115361444Y-81510940D01*
X115555036Y-81510940D01*
X115614004Y-81516748D01*
X115614004Y-81516748D01*
G37*
G36*
X140160120Y-82883120D02*
X137858120Y-82883120D01*
X137858120Y-80581120D01*
X140160120Y-80581120D01*
X140160120Y-82883120D01*
X140160120Y-82883120D01*
G37*
G36*
X149293300Y-80587782D02*
X149394755Y-80597774D01*
X149611720Y-80663590D01*
X149611722Y-80663591D01*
X149611725Y-80663592D01*
X149811676Y-80770467D01*
X149986938Y-80914302D01*
X150130773Y-81089564D01*
X150237648Y-81289515D01*
X150237649Y-81289518D01*
X150237650Y-81289520D01*
X150303466Y-81506485D01*
X150325689Y-81732120D01*
X150303466Y-81957755D01*
X150248055Y-82140419D01*
X150237648Y-82174725D01*
X150130773Y-82374676D01*
X149986938Y-82549938D01*
X149811676Y-82693773D01*
X149611725Y-82800648D01*
X149611722Y-82800649D01*
X149611720Y-82800650D01*
X149394755Y-82866466D01*
X149293300Y-82876458D01*
X149225665Y-82883120D01*
X149112575Y-82883120D01*
X149044940Y-82876458D01*
X148943485Y-82866466D01*
X148726520Y-82800650D01*
X148726518Y-82800649D01*
X148726515Y-82800648D01*
X148526564Y-82693773D01*
X148351302Y-82549938D01*
X148207467Y-82374676D01*
X148100592Y-82174725D01*
X148090185Y-82140419D01*
X148034774Y-81957755D01*
X148012551Y-81732120D01*
X148034774Y-81506485D01*
X148100590Y-81289520D01*
X148100591Y-81289518D01*
X148100592Y-81289515D01*
X148207467Y-81089564D01*
X148351302Y-80914302D01*
X148526564Y-80770467D01*
X148726515Y-80663592D01*
X148726518Y-80663591D01*
X148726520Y-80663590D01*
X148943485Y-80597774D01*
X149044940Y-80587782D01*
X149112575Y-80581120D01*
X149225665Y-80581120D01*
X149293300Y-80587782D01*
X149293300Y-80587782D01*
G37*
G36*
X165074280Y-80555709D02*
X165107329Y-80565734D01*
X165137786Y-80582014D01*
X165164479Y-80603921D01*
X165186386Y-80630614D01*
X165202666Y-80661071D01*
X165212691Y-80694120D01*
X165216680Y-80734624D01*
X165216680Y-82170816D01*
X165212691Y-82211320D01*
X165202666Y-82244369D01*
X165186386Y-82274826D01*
X165164479Y-82301519D01*
X165137786Y-82323426D01*
X165107329Y-82339706D01*
X165074280Y-82349731D01*
X165033776Y-82353720D01*
X163347584Y-82353720D01*
X163307080Y-82349731D01*
X163274031Y-82339706D01*
X163243574Y-82323426D01*
X163216881Y-82301519D01*
X163194974Y-82274826D01*
X163178694Y-82244369D01*
X163168669Y-82211320D01*
X163164680Y-82170816D01*
X163164680Y-80734624D01*
X163168669Y-80694120D01*
X163178694Y-80661071D01*
X163194974Y-80630614D01*
X163216881Y-80603921D01*
X163243574Y-80582014D01*
X163274031Y-80565734D01*
X163307080Y-80555709D01*
X163347584Y-80551720D01*
X165033776Y-80551720D01*
X165074280Y-80555709D01*
X165074280Y-80555709D01*
G37*
G36*
X132294909Y-78182126D02*
X132471298Y-78199499D01*
X132697625Y-78268154D01*
X132810789Y-78302482D01*
X133123665Y-78469719D01*
X133397901Y-78694779D01*
X133622961Y-78969015D01*
X133790198Y-79281891D01*
X133798820Y-79310315D01*
X133893181Y-79621382D01*
X133927954Y-79974440D01*
X133893181Y-80327498D01*
X133830342Y-80534650D01*
X133790198Y-80666989D01*
X133622961Y-80979865D01*
X133397901Y-81254101D01*
X133123665Y-81479161D01*
X132810789Y-81646398D01*
X132713127Y-81676023D01*
X132471298Y-81749381D01*
X132294909Y-81766754D01*
X132206716Y-81775440D01*
X132029764Y-81775440D01*
X131941571Y-81766754D01*
X131765182Y-81749381D01*
X131523353Y-81676023D01*
X131425691Y-81646398D01*
X131112815Y-81479161D01*
X130838579Y-81254101D01*
X130613519Y-80979865D01*
X130446282Y-80666989D01*
X130406138Y-80534650D01*
X130343299Y-80327498D01*
X130308526Y-79974440D01*
X130343299Y-79621382D01*
X130437660Y-79310315D01*
X130446282Y-79281891D01*
X130613519Y-78969015D01*
X130838579Y-78694779D01*
X131112815Y-78469719D01*
X131425691Y-78302482D01*
X131538855Y-78268154D01*
X131765182Y-78199499D01*
X131941571Y-78182126D01*
X132029764Y-78173440D01*
X132206716Y-78173440D01*
X132294909Y-78182126D01*
X132294909Y-78182126D01*
G37*
G36*
X175045802Y-80059364D02*
X175082899Y-80070617D01*
X175117080Y-80088887D01*
X175147042Y-80113478D01*
X175171633Y-80143440D01*
X175189903Y-80177621D01*
X175201156Y-80214718D01*
X175205560Y-80259433D01*
X175205560Y-81152487D01*
X175201156Y-81197202D01*
X175189903Y-81234299D01*
X175171633Y-81268480D01*
X175147042Y-81298442D01*
X175117080Y-81323033D01*
X175082899Y-81341303D01*
X175045802Y-81352556D01*
X175001087Y-81356960D01*
X173558033Y-81356960D01*
X173513318Y-81352556D01*
X173476221Y-81341303D01*
X173442040Y-81323033D01*
X173412078Y-81298442D01*
X173387487Y-81268480D01*
X173369217Y-81234299D01*
X173357964Y-81197202D01*
X173353560Y-81152487D01*
X173353560Y-80259433D01*
X173357964Y-80214718D01*
X173369217Y-80177621D01*
X173387487Y-80143440D01*
X173412078Y-80113478D01*
X173442040Y-80088887D01*
X173476221Y-80070617D01*
X173513318Y-80059364D01*
X173558033Y-80054960D01*
X175001087Y-80054960D01*
X175045802Y-80059364D01*
X175045802Y-80059364D01*
G37*
G36*
X115614004Y-78976748D02*
X115702460Y-78985460D01*
X115891621Y-79042841D01*
X116065952Y-79136023D01*
X116218755Y-79261425D01*
X116344157Y-79414228D01*
X116437339Y-79588559D01*
X116494720Y-79777720D01*
X116514095Y-79974440D01*
X116494720Y-80171160D01*
X116437339Y-80360321D01*
X116344157Y-80534652D01*
X116218755Y-80687455D01*
X116065952Y-80812857D01*
X115891621Y-80906039D01*
X115702460Y-80963420D01*
X115614004Y-80972132D01*
X115555036Y-80977940D01*
X115361444Y-80977940D01*
X115302476Y-80972132D01*
X115214020Y-80963420D01*
X115024859Y-80906039D01*
X114850528Y-80812857D01*
X114697725Y-80687455D01*
X114572323Y-80534652D01*
X114479141Y-80360321D01*
X114421760Y-80171160D01*
X114402385Y-79974440D01*
X114421760Y-79777720D01*
X114479141Y-79588559D01*
X114572323Y-79414228D01*
X114697725Y-79261425D01*
X114850528Y-79136023D01*
X115024859Y-79042841D01*
X115214020Y-78985460D01*
X115302476Y-78976748D01*
X115361444Y-78970940D01*
X115555036Y-78970940D01*
X115614004Y-78976748D01*
X115614004Y-78976748D01*
G37*
G36*
X164426123Y-78058239D02*
X164492307Y-78064757D01*
X164605533Y-78099104D01*
X164662147Y-78116277D01*
X164747788Y-78162054D01*
X164818671Y-78199942D01*
X164854409Y-78229272D01*
X164955866Y-78312534D01*
X165039128Y-78413991D01*
X165068458Y-78449729D01*
X165068459Y-78449731D01*
X165152123Y-78606253D01*
X165152123Y-78606254D01*
X165203643Y-78776093D01*
X165221039Y-78952720D01*
X165203643Y-79129347D01*
X165191762Y-79168513D01*
X165152123Y-79299187D01*
X165126277Y-79347540D01*
X165068458Y-79455711D01*
X165039128Y-79491449D01*
X164955866Y-79592906D01*
X164854409Y-79676168D01*
X164818671Y-79705498D01*
X164818669Y-79705499D01*
X164662147Y-79789163D01*
X164605533Y-79806336D01*
X164492307Y-79840683D01*
X164426123Y-79847201D01*
X164359940Y-79853720D01*
X164021420Y-79853720D01*
X163955237Y-79847201D01*
X163889053Y-79840683D01*
X163775827Y-79806336D01*
X163719213Y-79789163D01*
X163562691Y-79705499D01*
X163562689Y-79705498D01*
X163526951Y-79676168D01*
X163425494Y-79592906D01*
X163342232Y-79491449D01*
X163312902Y-79455711D01*
X163255083Y-79347540D01*
X163229237Y-79299187D01*
X163189598Y-79168513D01*
X163177717Y-79129347D01*
X163160321Y-78952720D01*
X163177717Y-78776093D01*
X163229237Y-78606254D01*
X163229237Y-78606253D01*
X163312901Y-78449731D01*
X163312902Y-78449729D01*
X163342232Y-78413991D01*
X163425494Y-78312534D01*
X163526951Y-78229272D01*
X163562689Y-78199942D01*
X163633572Y-78162054D01*
X163719213Y-78116277D01*
X163775827Y-78099104D01*
X163889053Y-78064757D01*
X163955237Y-78058239D01*
X164021420Y-78051720D01*
X164359940Y-78051720D01*
X164426123Y-78058239D01*
X164426123Y-78058239D01*
G37*
G36*
X174618415Y-78058100D02*
X174682178Y-78064380D01*
X174763987Y-78089197D01*
X174804893Y-78101605D01*
X174905051Y-78155141D01*
X174917986Y-78162055D01*
X175017113Y-78243407D01*
X175098465Y-78342534D01*
X175098466Y-78342536D01*
X175158915Y-78455627D01*
X175170602Y-78494156D01*
X175196140Y-78578342D01*
X175208709Y-78705960D01*
X175196140Y-78833578D01*
X175171323Y-78915387D01*
X175158915Y-78956293D01*
X175112654Y-79042841D01*
X175098465Y-79069386D01*
X175017113Y-79168513D01*
X174917986Y-79249865D01*
X174917984Y-79249866D01*
X174804893Y-79310315D01*
X174763987Y-79322723D01*
X174682178Y-79347540D01*
X174618415Y-79353820D01*
X174586534Y-79356960D01*
X173972586Y-79356960D01*
X173940705Y-79353820D01*
X173876942Y-79347540D01*
X173795133Y-79322723D01*
X173754227Y-79310315D01*
X173641136Y-79249866D01*
X173641134Y-79249865D01*
X173542007Y-79168513D01*
X173460655Y-79069386D01*
X173446466Y-79042841D01*
X173400205Y-78956293D01*
X173387797Y-78915387D01*
X173362980Y-78833578D01*
X173350411Y-78705960D01*
X173362980Y-78578342D01*
X173388518Y-78494156D01*
X173400205Y-78455627D01*
X173460654Y-78342536D01*
X173460655Y-78342534D01*
X173542007Y-78243407D01*
X173641134Y-78162055D01*
X173654069Y-78155141D01*
X173754227Y-78101605D01*
X173795133Y-78089197D01*
X173876942Y-78064380D01*
X173940705Y-78058100D01*
X173972586Y-78054960D01*
X174586534Y-78054960D01*
X174618415Y-78058100D01*
X174618415Y-78058100D01*
G37*
G36*
X154485716Y-77302306D02*
X154658786Y-77373994D01*
X154814550Y-77478072D01*
X154947008Y-77610530D01*
X155051086Y-77766294D01*
X155122774Y-77939364D01*
X155159320Y-78123093D01*
X155159320Y-78310427D01*
X155122774Y-78494156D01*
X155051086Y-78667226D01*
X154947008Y-78822990D01*
X154814550Y-78955448D01*
X154658786Y-79059526D01*
X154485716Y-79131214D01*
X154301987Y-79167760D01*
X154114653Y-79167760D01*
X153930924Y-79131214D01*
X153757854Y-79059526D01*
X153602090Y-78955448D01*
X153469632Y-78822990D01*
X153365554Y-78667226D01*
X153293866Y-78494156D01*
X153257320Y-78310427D01*
X153257320Y-78123093D01*
X153293866Y-77939364D01*
X153365554Y-77766294D01*
X153469632Y-77610530D01*
X153602090Y-77478072D01*
X153757854Y-77373994D01*
X153930924Y-77302306D01*
X154114653Y-77265760D01*
X154301987Y-77265760D01*
X154485716Y-77302306D01*
X154485716Y-77302306D01*
G37*
G36*
X157699320Y-79167760D02*
X155797320Y-79167760D01*
X155797320Y-77265760D01*
X157699320Y-77265760D01*
X157699320Y-79167760D01*
X157699320Y-79167760D01*
G37*
G36*
X116509240Y-78437940D02*
X114407240Y-78437940D01*
X114407240Y-76430940D01*
X116509240Y-76430940D01*
X116509240Y-78437940D01*
X116509240Y-78437940D01*
G37*
G36*
X94413487Y-74794679D02*
X94543992Y-74820638D01*
X94789859Y-74922479D01*
X95010384Y-75069830D01*
X95011135Y-75070332D01*
X95199308Y-75258505D01*
X95199310Y-75258508D01*
X95347161Y-75479781D01*
X95449002Y-75725648D01*
X95466285Y-75812534D01*
X95493575Y-75949729D01*
X95500920Y-75986658D01*
X95500920Y-76252782D01*
X95449002Y-76513792D01*
X95347161Y-76759659D01*
X95216162Y-76955711D01*
X95199308Y-76980935D01*
X95011135Y-77169108D01*
X95011132Y-77169110D01*
X94789859Y-77316961D01*
X94543992Y-77418802D01*
X94413487Y-77444761D01*
X94282983Y-77470720D01*
X94016857Y-77470720D01*
X93886353Y-77444761D01*
X93755848Y-77418802D01*
X93509981Y-77316961D01*
X93288708Y-77169110D01*
X93288705Y-77169108D01*
X93100532Y-76980935D01*
X93083678Y-76955711D01*
X92952679Y-76759659D01*
X92850838Y-76513792D01*
X92798920Y-76252782D01*
X92798920Y-75986658D01*
X92806266Y-75949729D01*
X92833555Y-75812534D01*
X92850838Y-75725648D01*
X92952679Y-75479781D01*
X93100530Y-75258508D01*
X93100532Y-75258505D01*
X93288705Y-75070332D01*
X93289456Y-75069830D01*
X93509981Y-74922479D01*
X93755848Y-74820638D01*
X93886353Y-74794679D01*
X94016857Y-74768720D01*
X94282983Y-74768720D01*
X94413487Y-74794679D01*
X94413487Y-74794679D01*
G37*
G36*
X174618415Y-76058100D02*
X174682178Y-76064380D01*
X174763987Y-76089197D01*
X174804893Y-76101605D01*
X174905051Y-76155141D01*
X174917986Y-76162055D01*
X175017113Y-76243407D01*
X175098465Y-76342534D01*
X175098466Y-76342536D01*
X175158915Y-76455627D01*
X175158915Y-76455628D01*
X175196140Y-76578342D01*
X175208709Y-76705960D01*
X175196140Y-76833578D01*
X175183254Y-76876056D01*
X175158915Y-76956293D01*
X175145745Y-76980932D01*
X175098465Y-77069386D01*
X175017113Y-77168513D01*
X174917986Y-77249865D01*
X174917984Y-77249866D01*
X174804893Y-77310315D01*
X174763987Y-77322723D01*
X174682178Y-77347540D01*
X174619430Y-77353720D01*
X174586534Y-77356960D01*
X173972586Y-77356960D01*
X173939690Y-77353720D01*
X173876942Y-77347540D01*
X173795133Y-77322723D01*
X173754227Y-77310315D01*
X173641136Y-77249866D01*
X173641134Y-77249865D01*
X173542007Y-77168513D01*
X173460655Y-77069386D01*
X173413375Y-76980932D01*
X173400205Y-76956293D01*
X173375866Y-76876056D01*
X173362980Y-76833578D01*
X173350411Y-76705960D01*
X173362980Y-76578342D01*
X173400205Y-76455628D01*
X173400205Y-76455627D01*
X173460654Y-76342536D01*
X173460655Y-76342534D01*
X173542007Y-76243407D01*
X173641134Y-76162055D01*
X173654069Y-76155141D01*
X173754227Y-76101605D01*
X173795133Y-76089197D01*
X173876942Y-76064380D01*
X173940705Y-76058100D01*
X173972586Y-76054960D01*
X174586534Y-76054960D01*
X174618415Y-76058100D01*
X174618415Y-76058100D01*
G37*
G36*
X164426123Y-75558239D02*
X164492307Y-75564757D01*
X164605533Y-75599104D01*
X164662147Y-75616277D01*
X164733955Y-75654660D01*
X164818671Y-75699942D01*
X164849994Y-75725648D01*
X164955866Y-75812534D01*
X165039128Y-75913991D01*
X165068458Y-75949729D01*
X165068459Y-75949731D01*
X165152123Y-76106253D01*
X165152123Y-76106254D01*
X165203643Y-76276093D01*
X165221039Y-76452720D01*
X165203643Y-76629347D01*
X165180403Y-76705960D01*
X165152123Y-76799187D01*
X165093554Y-76908760D01*
X165068458Y-76955711D01*
X165047757Y-76980935D01*
X164955866Y-77092906D01*
X164863737Y-77168513D01*
X164818671Y-77205498D01*
X164818669Y-77205499D01*
X164662147Y-77289163D01*
X164618819Y-77302306D01*
X164492307Y-77340683D01*
X164426122Y-77347202D01*
X164359940Y-77353720D01*
X164021420Y-77353720D01*
X163955238Y-77347202D01*
X163889053Y-77340683D01*
X163762541Y-77302306D01*
X163719213Y-77289163D01*
X163562691Y-77205499D01*
X163562689Y-77205498D01*
X163517623Y-77168513D01*
X163425494Y-77092906D01*
X163333603Y-76980935D01*
X163312902Y-76955711D01*
X163287806Y-76908760D01*
X163229237Y-76799187D01*
X163200957Y-76705960D01*
X163177717Y-76629347D01*
X163160321Y-76452720D01*
X163177717Y-76276093D01*
X163229237Y-76106254D01*
X163229237Y-76106253D01*
X163312901Y-75949731D01*
X163312902Y-75949729D01*
X163342232Y-75913991D01*
X163425494Y-75812534D01*
X163531366Y-75725648D01*
X163562689Y-75699942D01*
X163647405Y-75654660D01*
X163719213Y-75616277D01*
X163775827Y-75599104D01*
X163889053Y-75564757D01*
X163955237Y-75558239D01*
X164021420Y-75551720D01*
X164359940Y-75551720D01*
X164426123Y-75558239D01*
X164426123Y-75558239D01*
G37*
G36*
X150320120Y-77146106D02*
X148018120Y-77146106D01*
X148018120Y-74844106D01*
X150320120Y-74844106D01*
X150320120Y-77146106D01*
X150320120Y-77146106D01*
G37*
G36*
X139133300Y-74850768D02*
X139234755Y-74860760D01*
X139451720Y-74926576D01*
X139451722Y-74926577D01*
X139451725Y-74926578D01*
X139651676Y-75033453D01*
X139826938Y-75177288D01*
X139970773Y-75352550D01*
X140077648Y-75552501D01*
X140077649Y-75552504D01*
X140077650Y-75552506D01*
X140143466Y-75769471D01*
X140165689Y-75995106D01*
X140143466Y-76220741D01*
X140079702Y-76430940D01*
X140077648Y-76437711D01*
X139970773Y-76637662D01*
X139826938Y-76812924D01*
X139651676Y-76956759D01*
X139451725Y-77063634D01*
X139451722Y-77063635D01*
X139451720Y-77063636D01*
X139234755Y-77129452D01*
X139133300Y-77139444D01*
X139065665Y-77146106D01*
X138952575Y-77146106D01*
X138884940Y-77139444D01*
X138783485Y-77129452D01*
X138566520Y-77063636D01*
X138566518Y-77063635D01*
X138566515Y-77063634D01*
X138366564Y-76956759D01*
X138191302Y-76812924D01*
X138047467Y-76637662D01*
X137940592Y-76437711D01*
X137938538Y-76430940D01*
X137874774Y-76220741D01*
X137852551Y-75995106D01*
X137874774Y-75769471D01*
X137940590Y-75552506D01*
X137940591Y-75552504D01*
X137940592Y-75552501D01*
X138047467Y-75352550D01*
X138191302Y-75177288D01*
X138366564Y-75033453D01*
X138566515Y-74926578D01*
X138566518Y-74926577D01*
X138566520Y-74926576D01*
X138783485Y-74860760D01*
X138884940Y-74850768D01*
X138952575Y-74844106D01*
X139065665Y-74844106D01*
X139133300Y-74850768D01*
X139133300Y-74850768D01*
G37*
G36*
X105473600Y-76908760D02*
X103771600Y-76908760D01*
X103771600Y-75206760D01*
X105473600Y-75206760D01*
X105473600Y-76908760D01*
X105473600Y-76908760D01*
G37*
G36*
X107370828Y-75239463D02*
X107525700Y-75303613D01*
X107665081Y-75396745D01*
X107783615Y-75515279D01*
X107876747Y-75654660D01*
X107940897Y-75809532D01*
X107973600Y-75973944D01*
X107973600Y-76141576D01*
X107940897Y-76305988D01*
X107876747Y-76460860D01*
X107783615Y-76600241D01*
X107665081Y-76718775D01*
X107525700Y-76811907D01*
X107370828Y-76876057D01*
X107206416Y-76908760D01*
X107038784Y-76908760D01*
X106874372Y-76876057D01*
X106719500Y-76811907D01*
X106580119Y-76718775D01*
X106461585Y-76600241D01*
X106368453Y-76460860D01*
X106304303Y-76305988D01*
X106271600Y-76141576D01*
X106271600Y-75973944D01*
X106304303Y-75809532D01*
X106368453Y-75654660D01*
X106461585Y-75515279D01*
X106580119Y-75396745D01*
X106719500Y-75303613D01*
X106874372Y-75239463D01*
X107038784Y-75206760D01*
X107206416Y-75206760D01*
X107370828Y-75239463D01*
X107370828Y-75239463D01*
G37*
G36*
X98500920Y-72770720D02*
X95798920Y-72770720D01*
X95798920Y-70068720D01*
X98500920Y-70068720D01*
X98500920Y-72770720D01*
X98500920Y-72770720D01*
G37*
G36*
X91413487Y-70094679D02*
X91543992Y-70120638D01*
X91789859Y-70222479D01*
X92010384Y-70369830D01*
X92011135Y-70370332D01*
X92199308Y-70558505D01*
X92199310Y-70558508D01*
X92347161Y-70779781D01*
X92429604Y-70978817D01*
X92449002Y-71025649D01*
X92487611Y-71219746D01*
X92500920Y-71286658D01*
X92500920Y-71552782D01*
X92449002Y-71813792D01*
X92347161Y-72059659D01*
X92199810Y-72280184D01*
X92199308Y-72280935D01*
X92011135Y-72469108D01*
X92011132Y-72469110D01*
X91789859Y-72616961D01*
X91543992Y-72718802D01*
X91413487Y-72744761D01*
X91282983Y-72770720D01*
X91016857Y-72770720D01*
X90886353Y-72744761D01*
X90755848Y-72718802D01*
X90509981Y-72616961D01*
X90288708Y-72469110D01*
X90288705Y-72469108D01*
X90100532Y-72280935D01*
X90100030Y-72280184D01*
X89952679Y-72059659D01*
X89850838Y-71813792D01*
X89798920Y-71552782D01*
X89798920Y-71286658D01*
X89812230Y-71219746D01*
X89850838Y-71025649D01*
X89870236Y-70978817D01*
X89952679Y-70779781D01*
X90100530Y-70558508D01*
X90100532Y-70558505D01*
X90288705Y-70370332D01*
X90289456Y-70369830D01*
X90509981Y-70222479D01*
X90755848Y-70120638D01*
X90886353Y-70094679D01*
X91016857Y-70068720D01*
X91282983Y-70068720D01*
X91413487Y-70094679D01*
X91413487Y-70094679D01*
G37*
G36*
X139133300Y-69113755D02*
X139234755Y-69123747D01*
X139451720Y-69189563D01*
X139451722Y-69189564D01*
X139451725Y-69189565D01*
X139651676Y-69296440D01*
X139826938Y-69440275D01*
X139970773Y-69615537D01*
X140077648Y-69815488D01*
X140077649Y-69815491D01*
X140077650Y-69815493D01*
X140143466Y-70032458D01*
X140165689Y-70258093D01*
X140143466Y-70483728D01*
X140077650Y-70700693D01*
X140077648Y-70700698D01*
X139970773Y-70900649D01*
X139826938Y-71075911D01*
X139651676Y-71219746D01*
X139451725Y-71326621D01*
X139451722Y-71326622D01*
X139451720Y-71326623D01*
X139234755Y-71392439D01*
X139133300Y-71402431D01*
X139065665Y-71409093D01*
X138952575Y-71409093D01*
X138884940Y-71402431D01*
X138783485Y-71392439D01*
X138566520Y-71326623D01*
X138566518Y-71326622D01*
X138566515Y-71326621D01*
X138366564Y-71219746D01*
X138191302Y-71075911D01*
X138047467Y-70900649D01*
X137940592Y-70700698D01*
X137940590Y-70700693D01*
X137874774Y-70483728D01*
X137852551Y-70258093D01*
X137874774Y-70032458D01*
X137940590Y-69815493D01*
X137940591Y-69815491D01*
X137940592Y-69815488D01*
X138047467Y-69615537D01*
X138191302Y-69440275D01*
X138366564Y-69296440D01*
X138566515Y-69189565D01*
X138566518Y-69189564D01*
X138566520Y-69189563D01*
X138783485Y-69123747D01*
X138884940Y-69113755D01*
X138952575Y-69107093D01*
X139065665Y-69107093D01*
X139133300Y-69113755D01*
X139133300Y-69113755D01*
G37*
G36*
X150320120Y-71409093D02*
X148018120Y-71409093D01*
X148018120Y-69107093D01*
X150320120Y-69107093D01*
X150320120Y-71409093D01*
X150320120Y-71409093D01*
G37*
G36*
X105968108Y-69342223D02*
X106122980Y-69406373D01*
X106262361Y-69499505D01*
X106380895Y-69618039D01*
X106474027Y-69757420D01*
X106538177Y-69912292D01*
X106570880Y-70076704D01*
X106570880Y-70244336D01*
X106538177Y-70408748D01*
X106474027Y-70563620D01*
X106380895Y-70703001D01*
X106262361Y-70821535D01*
X106122980Y-70914667D01*
X105968108Y-70978817D01*
X105803696Y-71011520D01*
X105636064Y-71011520D01*
X105471652Y-70978817D01*
X105316780Y-70914667D01*
X105177399Y-70821535D01*
X105058865Y-70703001D01*
X104965733Y-70563620D01*
X104901583Y-70408748D01*
X104868880Y-70244336D01*
X104868880Y-70076704D01*
X104901583Y-69912292D01*
X104965733Y-69757420D01*
X105058865Y-69618039D01*
X105177399Y-69499505D01*
X105316780Y-69406373D01*
X105471652Y-69342223D01*
X105636064Y-69309520D01*
X105803696Y-69309520D01*
X105968108Y-69342223D01*
X105968108Y-69342223D01*
G37*
G36*
X115756244Y-68024268D02*
X115844700Y-68032980D01*
X116033861Y-68090361D01*
X116208192Y-68183543D01*
X116360995Y-68308945D01*
X116486397Y-68461748D01*
X116579579Y-68636079D01*
X116636960Y-68825240D01*
X116656335Y-69021960D01*
X116636960Y-69218680D01*
X116579579Y-69407841D01*
X116486397Y-69582172D01*
X116360995Y-69734975D01*
X116208192Y-69860377D01*
X116033861Y-69953559D01*
X115844700Y-70010940D01*
X115756244Y-70019652D01*
X115697276Y-70025460D01*
X115503684Y-70025460D01*
X115444716Y-70019652D01*
X115356260Y-70010940D01*
X115167099Y-69953559D01*
X114992768Y-69860377D01*
X114839965Y-69734975D01*
X114714563Y-69582172D01*
X114621381Y-69407841D01*
X114564000Y-69218680D01*
X114544625Y-69021960D01*
X114564000Y-68825240D01*
X114621381Y-68636079D01*
X114714563Y-68461748D01*
X114839965Y-68308945D01*
X114992768Y-68183543D01*
X115167099Y-68090361D01*
X115356260Y-68032980D01*
X115444716Y-68024268D01*
X115503684Y-68018460D01*
X115697276Y-68018460D01*
X115756244Y-68024268D01*
X115756244Y-68024268D01*
G37*
G36*
X106570880Y-68511520D02*
X104868880Y-68511520D01*
X104868880Y-66809520D01*
X106570880Y-66809520D01*
X106570880Y-68511520D01*
X106570880Y-68511520D01*
G37*
G36*
X132437149Y-64689646D02*
X132613538Y-64707019D01*
X132744388Y-64746712D01*
X132953029Y-64810002D01*
X133265905Y-64977239D01*
X133540141Y-65202299D01*
X133765201Y-65476535D01*
X133932438Y-65789411D01*
X133932438Y-65789412D01*
X134035421Y-66128902D01*
X134070194Y-66481960D01*
X134035421Y-66835018D01*
X133972582Y-67042170D01*
X133932438Y-67174509D01*
X133765201Y-67487385D01*
X133540141Y-67761621D01*
X133265905Y-67986681D01*
X132953029Y-68153918D01*
X132886698Y-68174039D01*
X132613538Y-68256901D01*
X132437149Y-68274274D01*
X132348956Y-68282960D01*
X132172004Y-68282960D01*
X132083811Y-68274274D01*
X131907422Y-68256901D01*
X131634262Y-68174039D01*
X131567931Y-68153918D01*
X131255055Y-67986681D01*
X130980819Y-67761621D01*
X130755759Y-67487385D01*
X130588522Y-67174509D01*
X130548378Y-67042170D01*
X130485539Y-66835018D01*
X130450766Y-66481960D01*
X130485539Y-66128902D01*
X130588522Y-65789412D01*
X130588522Y-65789411D01*
X130755759Y-65476535D01*
X130980819Y-65202299D01*
X131255055Y-64977239D01*
X131567931Y-64810002D01*
X131776572Y-64746712D01*
X131907422Y-64707019D01*
X132083811Y-64689646D01*
X132172004Y-64680960D01*
X132348956Y-64680960D01*
X132437149Y-64689646D01*
X132437149Y-64689646D01*
G37*
G36*
X164967600Y-66428229D02*
X165000649Y-66438254D01*
X165031106Y-66454534D01*
X165057799Y-66476441D01*
X165079706Y-66503134D01*
X165095986Y-66533591D01*
X165106011Y-66566640D01*
X165110000Y-66607144D01*
X165110000Y-68043336D01*
X165106011Y-68083840D01*
X165095986Y-68116889D01*
X165079706Y-68147346D01*
X165057799Y-68174039D01*
X165031106Y-68195946D01*
X165000649Y-68212226D01*
X164967600Y-68222251D01*
X164927096Y-68226240D01*
X163240904Y-68226240D01*
X163200400Y-68222251D01*
X163167351Y-68212226D01*
X163136894Y-68195946D01*
X163110201Y-68174039D01*
X163088294Y-68147346D01*
X163072014Y-68116889D01*
X163061989Y-68083840D01*
X163058000Y-68043336D01*
X163058000Y-66607144D01*
X163061989Y-66566640D01*
X163072014Y-66533591D01*
X163088294Y-66503134D01*
X163110201Y-66476441D01*
X163136894Y-66454534D01*
X163167351Y-66438254D01*
X163200400Y-66428229D01*
X163240904Y-66424240D01*
X164927096Y-66424240D01*
X164967600Y-66428229D01*
X164967600Y-66428229D01*
G37*
G36*
X155149320Y-67590440D02*
X153247320Y-67590440D01*
X153247320Y-65688440D01*
X155149320Y-65688440D01*
X155149320Y-67590440D01*
X155149320Y-67590440D01*
G37*
G36*
X157015716Y-65724986D02*
X157188786Y-65796674D01*
X157344550Y-65900752D01*
X157477008Y-66033210D01*
X157581086Y-66188974D01*
X157652774Y-66362044D01*
X157689320Y-66545773D01*
X157689320Y-66733107D01*
X157652774Y-66916836D01*
X157581086Y-67089906D01*
X157477008Y-67245670D01*
X157344550Y-67378128D01*
X157188786Y-67482206D01*
X157015716Y-67553894D01*
X156831987Y-67590440D01*
X156644653Y-67590440D01*
X156460924Y-67553894D01*
X156287854Y-67482206D01*
X156132090Y-67378128D01*
X155999632Y-67245670D01*
X155895554Y-67089906D01*
X155823866Y-66916836D01*
X155787320Y-66733107D01*
X155787320Y-66545773D01*
X155823866Y-66362044D01*
X155895554Y-66188974D01*
X155999632Y-66033210D01*
X156132090Y-65900752D01*
X156287854Y-65796674D01*
X156460924Y-65724986D01*
X156644653Y-65688440D01*
X156831987Y-65688440D01*
X157015716Y-65724986D01*
X157015716Y-65724986D01*
G37*
G36*
X115756244Y-65484268D02*
X115844700Y-65492980D01*
X116033861Y-65550361D01*
X116208192Y-65643543D01*
X116360995Y-65768945D01*
X116486397Y-65921748D01*
X116579579Y-66096079D01*
X116636960Y-66285240D01*
X116656335Y-66481960D01*
X116636960Y-66678680D01*
X116579579Y-66867841D01*
X116486397Y-67042172D01*
X116360995Y-67194975D01*
X116208192Y-67320377D01*
X116033861Y-67413559D01*
X115844700Y-67470940D01*
X115756244Y-67479652D01*
X115697276Y-67485460D01*
X115503684Y-67485460D01*
X115444716Y-67479652D01*
X115356260Y-67470940D01*
X115167099Y-67413559D01*
X114992768Y-67320377D01*
X114839965Y-67194975D01*
X114714563Y-67042172D01*
X114621381Y-66867841D01*
X114564000Y-66678680D01*
X114544625Y-66481960D01*
X114564000Y-66285240D01*
X114621381Y-66096079D01*
X114714563Y-65921748D01*
X114839965Y-65768945D01*
X114992768Y-65643543D01*
X115167099Y-65550361D01*
X115356260Y-65492980D01*
X115444716Y-65484268D01*
X115503684Y-65478460D01*
X115697276Y-65478460D01*
X115756244Y-65484268D01*
X115756244Y-65484268D01*
G37*
G36*
X175152482Y-65931884D02*
X175189579Y-65943137D01*
X175223760Y-65961407D01*
X175253722Y-65985998D01*
X175278313Y-66015960D01*
X175296583Y-66050141D01*
X175307836Y-66087238D01*
X175312240Y-66131953D01*
X175312240Y-67025007D01*
X175307836Y-67069722D01*
X175296583Y-67106819D01*
X175278313Y-67141000D01*
X175253722Y-67170962D01*
X175223760Y-67195553D01*
X175189579Y-67213823D01*
X175152482Y-67225076D01*
X175107767Y-67229480D01*
X173664713Y-67229480D01*
X173619998Y-67225076D01*
X173582901Y-67213823D01*
X173548720Y-67195553D01*
X173518758Y-67170962D01*
X173494167Y-67141000D01*
X173475897Y-67106819D01*
X173464644Y-67069722D01*
X173460240Y-67025007D01*
X173460240Y-66131953D01*
X173464644Y-66087238D01*
X173475897Y-66050141D01*
X173494167Y-66015960D01*
X173518758Y-65985998D01*
X173548720Y-65961407D01*
X173582901Y-65943137D01*
X173619998Y-65931884D01*
X173664713Y-65927480D01*
X175107767Y-65927480D01*
X175152482Y-65931884D01*
X175152482Y-65931884D01*
G37*
G36*
X164319442Y-63930758D02*
X164385627Y-63937277D01*
X164498853Y-63971624D01*
X164555467Y-63988797D01*
X164641108Y-64034574D01*
X164711991Y-64072462D01*
X164747729Y-64101792D01*
X164849186Y-64185054D01*
X164932448Y-64286511D01*
X164961778Y-64322249D01*
X164961779Y-64322251D01*
X165045443Y-64478773D01*
X165045443Y-64478774D01*
X165096963Y-64648613D01*
X165114359Y-64825240D01*
X165096963Y-65001867D01*
X165085082Y-65041033D01*
X165045443Y-65171707D01*
X165029091Y-65202299D01*
X164961778Y-65328231D01*
X164932448Y-65363969D01*
X164849186Y-65465426D01*
X164747729Y-65548688D01*
X164711991Y-65578018D01*
X164711989Y-65578019D01*
X164555467Y-65661683D01*
X164521192Y-65672080D01*
X164385627Y-65713203D01*
X164319443Y-65719721D01*
X164253260Y-65726240D01*
X163914740Y-65726240D01*
X163848557Y-65719721D01*
X163782373Y-65713203D01*
X163646808Y-65672080D01*
X163612533Y-65661683D01*
X163456011Y-65578019D01*
X163456009Y-65578018D01*
X163420271Y-65548688D01*
X163318814Y-65465426D01*
X163235552Y-65363969D01*
X163206222Y-65328231D01*
X163138909Y-65202299D01*
X163122557Y-65171707D01*
X163082918Y-65041033D01*
X163071037Y-65001867D01*
X163053641Y-64825240D01*
X163071037Y-64648613D01*
X163122557Y-64478774D01*
X163122557Y-64478773D01*
X163206221Y-64322251D01*
X163206222Y-64322249D01*
X163235552Y-64286511D01*
X163318814Y-64185054D01*
X163420271Y-64101792D01*
X163456009Y-64072462D01*
X163526892Y-64034574D01*
X163612533Y-63988797D01*
X163669147Y-63971624D01*
X163782373Y-63937277D01*
X163848558Y-63930758D01*
X163914740Y-63924240D01*
X164253260Y-63924240D01*
X164319442Y-63930758D01*
X164319442Y-63930758D01*
G37*
G36*
X140160120Y-65672080D02*
X137858120Y-65672080D01*
X137858120Y-63370080D01*
X140160120Y-63370080D01*
X140160120Y-65672080D01*
X140160120Y-65672080D01*
G37*
G36*
X149293300Y-63376742D02*
X149394755Y-63386734D01*
X149611720Y-63452550D01*
X149611722Y-63452551D01*
X149611725Y-63452552D01*
X149811676Y-63559427D01*
X149986938Y-63703262D01*
X150130773Y-63878524D01*
X150237648Y-64078475D01*
X150237649Y-64078478D01*
X150237650Y-64078480D01*
X150303466Y-64295445D01*
X150325689Y-64521080D01*
X150303466Y-64746715D01*
X150237650Y-64963680D01*
X150237648Y-64963685D01*
X150130773Y-65163636D01*
X149986938Y-65338898D01*
X149811676Y-65482733D01*
X149611725Y-65589608D01*
X149611722Y-65589609D01*
X149611720Y-65589610D01*
X149394755Y-65655426D01*
X149293300Y-65665418D01*
X149225665Y-65672080D01*
X149112575Y-65672080D01*
X149044940Y-65665418D01*
X148943485Y-65655426D01*
X148726520Y-65589610D01*
X148726518Y-65589609D01*
X148726515Y-65589608D01*
X148526564Y-65482733D01*
X148351302Y-65338898D01*
X148207467Y-65163636D01*
X148100592Y-64963685D01*
X148100590Y-64963680D01*
X148034774Y-64746715D01*
X148012551Y-64521080D01*
X148034774Y-64295445D01*
X148100590Y-64078480D01*
X148100591Y-64078478D01*
X148100592Y-64078475D01*
X148207467Y-63878524D01*
X148351302Y-63703262D01*
X148526564Y-63559427D01*
X148726515Y-63452552D01*
X148726518Y-63452551D01*
X148726520Y-63452550D01*
X148943485Y-63386734D01*
X149044940Y-63376742D01*
X149112575Y-63370080D01*
X149225665Y-63370080D01*
X149293300Y-63376742D01*
X149293300Y-63376742D01*
G37*
G36*
X174725095Y-63930620D02*
X174788858Y-63936900D01*
X174870667Y-63961717D01*
X174911573Y-63974125D01*
X175011731Y-64027661D01*
X175024666Y-64034575D01*
X175123793Y-64115927D01*
X175205145Y-64215054D01*
X175205146Y-64215056D01*
X175265595Y-64328147D01*
X175265595Y-64328148D01*
X175302820Y-64450862D01*
X175315389Y-64578480D01*
X175302820Y-64706098D01*
X175290500Y-64746712D01*
X175265595Y-64828813D01*
X175212059Y-64928971D01*
X175205145Y-64941906D01*
X175123793Y-65041033D01*
X175024666Y-65122385D01*
X175024664Y-65122386D01*
X174911573Y-65182835D01*
X174870667Y-65195243D01*
X174788858Y-65220060D01*
X174725095Y-65226340D01*
X174693214Y-65229480D01*
X174079266Y-65229480D01*
X174047385Y-65226340D01*
X173983622Y-65220060D01*
X173901813Y-65195243D01*
X173860907Y-65182835D01*
X173747816Y-65122386D01*
X173747814Y-65122385D01*
X173648687Y-65041033D01*
X173567335Y-64941906D01*
X173560421Y-64928971D01*
X173506885Y-64828813D01*
X173481980Y-64746712D01*
X173469660Y-64706098D01*
X173457091Y-64578480D01*
X173469660Y-64450862D01*
X173506885Y-64328148D01*
X173506885Y-64328147D01*
X173567334Y-64215056D01*
X173567335Y-64215054D01*
X173648687Y-64115927D01*
X173747814Y-64034575D01*
X173760749Y-64027661D01*
X173860907Y-63974125D01*
X173901813Y-63961717D01*
X173983622Y-63936900D01*
X174047385Y-63930620D01*
X174079266Y-63927480D01*
X174693214Y-63927480D01*
X174725095Y-63930620D01*
X174725095Y-63930620D01*
G37*
G36*
X116651480Y-64945460D02*
X114549480Y-64945460D01*
X114549480Y-62938460D01*
X116651480Y-62938460D01*
X116651480Y-64945460D01*
X116651480Y-64945460D01*
G37*
G36*
X174725095Y-61930620D02*
X174788858Y-61936900D01*
X174870667Y-61961717D01*
X174911573Y-61974125D01*
X175011731Y-62027661D01*
X175024666Y-62034575D01*
X175123793Y-62115927D01*
X175205145Y-62215054D01*
X175205146Y-62215056D01*
X175265595Y-62328147D01*
X175265595Y-62328148D01*
X175302820Y-62450862D01*
X175315389Y-62578480D01*
X175302820Y-62706098D01*
X175283011Y-62771400D01*
X175265595Y-62828813D01*
X175212059Y-62928971D01*
X175205145Y-62941906D01*
X175123793Y-63041033D01*
X175024666Y-63122385D01*
X175024664Y-63122386D01*
X174911573Y-63182835D01*
X174870667Y-63195243D01*
X174788858Y-63220060D01*
X174726110Y-63226240D01*
X174693214Y-63229480D01*
X174079266Y-63229480D01*
X174046370Y-63226240D01*
X173983622Y-63220060D01*
X173901813Y-63195243D01*
X173860907Y-63182835D01*
X173747816Y-63122386D01*
X173747814Y-63122385D01*
X173648687Y-63041033D01*
X173567335Y-62941906D01*
X173560421Y-62928971D01*
X173506885Y-62828813D01*
X173489469Y-62771400D01*
X173469660Y-62706098D01*
X173457091Y-62578480D01*
X173469660Y-62450862D01*
X173506885Y-62328148D01*
X173506885Y-62328147D01*
X173567334Y-62215056D01*
X173567335Y-62215054D01*
X173648687Y-62115927D01*
X173747814Y-62034575D01*
X173760749Y-62027661D01*
X173860907Y-61974125D01*
X173901813Y-61961717D01*
X173983622Y-61936900D01*
X174047385Y-61930620D01*
X174079266Y-61927480D01*
X174693214Y-61927480D01*
X174725095Y-61930620D01*
X174725095Y-61930620D01*
G37*
G36*
X164319443Y-61430759D02*
X164385627Y-61437277D01*
X164498853Y-61471624D01*
X164555467Y-61488797D01*
X164694087Y-61562892D01*
X164711991Y-61572462D01*
X164747729Y-61601792D01*
X164849186Y-61685054D01*
X164932448Y-61786511D01*
X164961778Y-61822249D01*
X164961779Y-61822251D01*
X165045443Y-61978773D01*
X165045443Y-61978774D01*
X165096963Y-62148613D01*
X165114359Y-62325240D01*
X165096963Y-62501867D01*
X165073723Y-62578480D01*
X165045443Y-62671707D01*
X165036238Y-62688928D01*
X164961778Y-62828231D01*
X164961301Y-62828812D01*
X164849186Y-62965426D01*
X164757057Y-63041033D01*
X164711991Y-63078018D01*
X164711989Y-63078019D01*
X164555467Y-63161683D01*
X164498853Y-63178856D01*
X164385627Y-63213203D01*
X164319443Y-63219721D01*
X164253260Y-63226240D01*
X163914740Y-63226240D01*
X163848557Y-63219721D01*
X163782373Y-63213203D01*
X163669147Y-63178856D01*
X163612533Y-63161683D01*
X163456011Y-63078019D01*
X163456009Y-63078018D01*
X163410943Y-63041033D01*
X163318814Y-62965426D01*
X163206699Y-62828812D01*
X163206222Y-62828231D01*
X163131762Y-62688928D01*
X163122557Y-62671707D01*
X163094277Y-62578480D01*
X163071037Y-62501867D01*
X163053641Y-62325240D01*
X163071037Y-62148613D01*
X163122557Y-61978774D01*
X163122557Y-61978773D01*
X163206221Y-61822251D01*
X163206222Y-61822249D01*
X163235552Y-61786511D01*
X163318814Y-61685054D01*
X163420271Y-61601792D01*
X163456009Y-61572462D01*
X163473913Y-61562892D01*
X163612533Y-61488797D01*
X163669147Y-61471624D01*
X163782373Y-61437277D01*
X163848557Y-61430759D01*
X163914740Y-61424240D01*
X164253260Y-61424240D01*
X164319443Y-61430759D01*
X164319443Y-61430759D01*
G37*
G36*
X111508920Y-62771400D02*
X109206920Y-62771400D01*
X109206920Y-60469400D01*
X111508920Y-60469400D01*
X111508920Y-62771400D01*
X111508920Y-62771400D01*
G37*
G36*
X100322100Y-60476062D02*
X100423555Y-60486054D01*
X100640520Y-60551870D01*
X100640522Y-60551871D01*
X100640525Y-60551872D01*
X100840476Y-60658747D01*
X101015738Y-60802582D01*
X101159573Y-60977844D01*
X101266448Y-61177795D01*
X101266449Y-61177798D01*
X101266450Y-61177800D01*
X101332266Y-61394765D01*
X101354489Y-61620400D01*
X101332266Y-61846035D01*
X101266450Y-62063000D01*
X101266448Y-62063005D01*
X101159573Y-62262956D01*
X101015738Y-62438218D01*
X100840476Y-62582053D01*
X100640525Y-62688928D01*
X100640522Y-62688929D01*
X100640520Y-62688930D01*
X100423555Y-62754746D01*
X100322100Y-62764738D01*
X100254465Y-62771400D01*
X100141375Y-62771400D01*
X100073740Y-62764738D01*
X99972285Y-62754746D01*
X99755320Y-62688930D01*
X99755318Y-62688929D01*
X99755315Y-62688928D01*
X99555364Y-62582053D01*
X99380102Y-62438218D01*
X99236267Y-62262956D01*
X99129392Y-62063005D01*
X99129390Y-62063000D01*
X99063574Y-61846035D01*
X99041351Y-61620400D01*
X99063574Y-61394765D01*
X99129390Y-61177800D01*
X99129391Y-61177798D01*
X99129392Y-61177795D01*
X99236267Y-60977844D01*
X99380102Y-60802582D01*
X99555364Y-60658747D01*
X99755315Y-60551872D01*
X99755318Y-60551871D01*
X99755320Y-60551870D01*
X99972285Y-60486054D01*
X100073740Y-60476062D01*
X100141375Y-60469400D01*
X100254465Y-60469400D01*
X100322100Y-60476062D01*
X100322100Y-60476062D01*
G37*
G36*
X137560628Y-57327383D02*
X137715500Y-57391533D01*
X137854881Y-57484665D01*
X137973415Y-57603199D01*
X138066547Y-57742580D01*
X138130697Y-57897452D01*
X138163400Y-58061864D01*
X138163400Y-58229496D01*
X138130697Y-58393908D01*
X138066547Y-58548780D01*
X137973415Y-58688161D01*
X137854881Y-58806695D01*
X137715500Y-58899827D01*
X137560628Y-58963977D01*
X137396216Y-58996680D01*
X137228584Y-58996680D01*
X137064172Y-58963977D01*
X136909300Y-58899827D01*
X136769919Y-58806695D01*
X136651385Y-58688161D01*
X136558253Y-58548780D01*
X136494103Y-58393908D01*
X136461400Y-58229496D01*
X136461400Y-58061864D01*
X136494103Y-57897452D01*
X136558253Y-57742580D01*
X136651385Y-57603199D01*
X136769919Y-57484665D01*
X136909300Y-57391533D01*
X137064172Y-57327383D01*
X137228584Y-57294680D01*
X137396216Y-57294680D01*
X137560628Y-57327383D01*
X137560628Y-57327383D01*
G37*
G36*
X142559221Y-57306993D02*
X142559224Y-57306994D01*
X142559225Y-57306994D01*
X142719639Y-57355655D01*
X142719641Y-57355656D01*
X142719644Y-57355657D01*
X142867478Y-57434675D01*
X142997059Y-57541021D01*
X143103405Y-57670602D01*
X143182423Y-57818436D01*
X143182424Y-57818439D01*
X143182425Y-57818441D01*
X143231086Y-57978855D01*
X143231087Y-57978859D01*
X143247517Y-58145680D01*
X143231087Y-58312501D01*
X143231086Y-58312504D01*
X143231086Y-58312505D01*
X143206393Y-58393908D01*
X143182423Y-58472924D01*
X143103405Y-58620758D01*
X142997059Y-58750339D01*
X142867478Y-58856685D01*
X142719644Y-58935703D01*
X142719641Y-58935704D01*
X142719639Y-58935705D01*
X142559225Y-58984366D01*
X142559224Y-58984366D01*
X142559221Y-58984367D01*
X142434204Y-58996680D01*
X142350596Y-58996680D01*
X142225579Y-58984367D01*
X142225576Y-58984366D01*
X142225575Y-58984366D01*
X142065161Y-58935705D01*
X142065159Y-58935704D01*
X142065156Y-58935703D01*
X141917322Y-58856685D01*
X141787741Y-58750339D01*
X141681395Y-58620758D01*
X141602377Y-58472924D01*
X141578408Y-58393908D01*
X141553714Y-58312505D01*
X141553714Y-58312504D01*
X141553713Y-58312501D01*
X141537283Y-58145680D01*
X141553713Y-57978859D01*
X141553714Y-57978855D01*
X141602375Y-57818441D01*
X141602376Y-57818439D01*
X141602377Y-57818436D01*
X141681395Y-57670602D01*
X141787741Y-57541021D01*
X141917322Y-57434675D01*
X142065156Y-57355657D01*
X142065159Y-57355656D01*
X142065161Y-57355655D01*
X142225575Y-57306994D01*
X142225576Y-57306994D01*
X142225579Y-57306993D01*
X142350596Y-57294680D01*
X142434204Y-57294680D01*
X142559221Y-57306993D01*
X142559221Y-57306993D01*
G37*
G36*
X166631720Y-54572000D02*
X164929720Y-54572000D01*
X164929720Y-52870000D01*
X166631720Y-52870000D01*
X166631720Y-54572000D01*
X166631720Y-54572000D01*
G37*
G36*
X130763060Y-53651200D02*
X128261060Y-53651200D01*
X128261060Y-51149200D01*
X130763060Y-51149200D01*
X130763060Y-53651200D01*
X130763060Y-53651200D01*
G37*
G36*
X152076200Y-53651200D02*
X149574200Y-53651200D01*
X149574200Y-51149200D01*
X152076200Y-51149200D01*
X152076200Y-53651200D01*
X152076200Y-53651200D01*
G37*
G36*
X109449920Y-53651200D02*
X106947920Y-53651200D01*
X106947920Y-51149200D01*
X109449920Y-51149200D01*
X109449920Y-53651200D01*
X109449920Y-53651200D01*
G37*
G36*
X166028948Y-50402703D02*
X166183820Y-50466853D01*
X166323201Y-50559985D01*
X166441735Y-50678519D01*
X166534867Y-50817900D01*
X166599017Y-50972772D01*
X166631720Y-51137184D01*
X166631720Y-51304816D01*
X166599017Y-51469228D01*
X166534867Y-51624100D01*
X166441735Y-51763481D01*
X166323201Y-51882015D01*
X166183820Y-51975147D01*
X166028948Y-52039297D01*
X165864536Y-52072000D01*
X165696904Y-52072000D01*
X165532492Y-52039297D01*
X165377620Y-51975147D01*
X165238239Y-51882015D01*
X165119705Y-51763481D01*
X165026573Y-51624100D01*
X164962423Y-51469228D01*
X164929720Y-51304816D01*
X164929720Y-51137184D01*
X164962423Y-50972772D01*
X165026573Y-50817900D01*
X165119705Y-50678519D01*
X165238239Y-50559985D01*
X165377620Y-50466853D01*
X165532492Y-50402703D01*
X165696904Y-50370000D01*
X165864536Y-50370000D01*
X166028948Y-50402703D01*
X166028948Y-50402703D01*
G37*
G36*
X108382556Y-43661219D02*
X108563823Y-43697275D01*
X108791491Y-43791578D01*
X108995462Y-43927868D01*
X108996389Y-43928487D01*
X109170633Y-44102731D01*
X109170635Y-44102734D01*
X109307542Y-44307629D01*
X109401845Y-44535297D01*
X109449920Y-44776987D01*
X109449920Y-45023413D01*
X109401845Y-45265103D01*
X109307542Y-45492771D01*
X109171252Y-45696742D01*
X109170633Y-45697669D01*
X108996389Y-45871913D01*
X108996386Y-45871915D01*
X108791491Y-46008822D01*
X108563823Y-46103125D01*
X108382555Y-46139181D01*
X108322134Y-46151200D01*
X108075706Y-46151200D01*
X108015285Y-46139181D01*
X107834017Y-46103125D01*
X107606349Y-46008822D01*
X107401454Y-45871915D01*
X107401451Y-45871913D01*
X107227207Y-45697669D01*
X107226588Y-45696742D01*
X107090298Y-45492771D01*
X106995995Y-45265103D01*
X106947920Y-45023413D01*
X106947920Y-44776987D01*
X106995995Y-44535297D01*
X107090298Y-44307629D01*
X107227205Y-44102734D01*
X107227207Y-44102731D01*
X107401451Y-43928487D01*
X107402378Y-43927868D01*
X107606349Y-43791578D01*
X107834017Y-43697275D01*
X108015284Y-43661219D01*
X108075706Y-43649200D01*
X108322134Y-43649200D01*
X108382556Y-43661219D01*
X108382556Y-43661219D01*
G37*
G36*
X129695696Y-43661219D02*
X129876963Y-43697275D01*
X130104631Y-43791578D01*
X130308602Y-43927868D01*
X130309529Y-43928487D01*
X130483773Y-44102731D01*
X130483775Y-44102734D01*
X130620682Y-44307629D01*
X130714985Y-44535297D01*
X130763060Y-44776987D01*
X130763060Y-45023413D01*
X130714985Y-45265103D01*
X130620682Y-45492771D01*
X130484392Y-45696742D01*
X130483773Y-45697669D01*
X130309529Y-45871913D01*
X130309526Y-45871915D01*
X130104631Y-46008822D01*
X129876963Y-46103125D01*
X129695695Y-46139181D01*
X129635274Y-46151200D01*
X129388846Y-46151200D01*
X129328425Y-46139181D01*
X129147157Y-46103125D01*
X128919489Y-46008822D01*
X128714594Y-45871915D01*
X128714591Y-45871913D01*
X128540347Y-45697669D01*
X128539728Y-45696742D01*
X128403438Y-45492771D01*
X128309135Y-45265103D01*
X128261060Y-45023413D01*
X128261060Y-44776987D01*
X128309135Y-44535297D01*
X128403438Y-44307629D01*
X128540345Y-44102734D01*
X128540347Y-44102731D01*
X128714591Y-43928487D01*
X128715518Y-43927868D01*
X128919489Y-43791578D01*
X129147157Y-43697275D01*
X129328424Y-43661219D01*
X129388846Y-43649200D01*
X129635274Y-43649200D01*
X129695696Y-43661219D01*
X129695696Y-43661219D01*
G37*
G36*
X151008836Y-43661219D02*
X151190103Y-43697275D01*
X151417771Y-43791578D01*
X151621742Y-43927868D01*
X151622669Y-43928487D01*
X151796913Y-44102731D01*
X151796915Y-44102734D01*
X151933822Y-44307629D01*
X152028125Y-44535297D01*
X152076200Y-44776987D01*
X152076200Y-45023413D01*
X152028125Y-45265103D01*
X151933822Y-45492771D01*
X151797532Y-45696742D01*
X151796913Y-45697669D01*
X151622669Y-45871913D01*
X151622666Y-45871915D01*
X151417771Y-46008822D01*
X151190103Y-46103125D01*
X151008835Y-46139181D01*
X150948414Y-46151200D01*
X150701986Y-46151200D01*
X150641565Y-46139181D01*
X150460297Y-46103125D01*
X150232629Y-46008822D01*
X150027734Y-45871915D01*
X150027731Y-45871913D01*
X149853487Y-45697669D01*
X149852868Y-45696742D01*
X149716578Y-45492771D01*
X149622275Y-45265103D01*
X149574200Y-45023413D01*
X149574200Y-44776987D01*
X149622275Y-44535297D01*
X149716578Y-44307629D01*
X149853485Y-44102734D01*
X149853487Y-44102731D01*
X150027731Y-43928487D01*
X150028658Y-43927868D01*
X150232629Y-43791578D01*
X150460297Y-43697275D01*
X150641564Y-43661219D01*
X150701986Y-43649200D01*
X150948414Y-43649200D01*
X151008836Y-43661219D01*
X151008836Y-43661219D01*
G37*
G36*
X173755656Y-41312218D02*
X173861979Y-41333367D01*
X174162442Y-41457823D01*
X174429252Y-41636100D01*
X174432854Y-41638507D01*
X174662813Y-41868466D01*
X174662815Y-41868469D01*
X174843497Y-42138878D01*
X174967953Y-42439341D01*
X175031400Y-42758311D01*
X175031400Y-43083529D01*
X174967953Y-43402499D01*
X174843497Y-43702962D01*
X174784285Y-43791579D01*
X174662813Y-43973374D01*
X174432854Y-44203333D01*
X174432851Y-44203335D01*
X174162442Y-44384017D01*
X173861979Y-44508473D01*
X173755656Y-44529622D01*
X173543011Y-44571920D01*
X173217789Y-44571920D01*
X173005144Y-44529622D01*
X172898821Y-44508473D01*
X172598358Y-44384017D01*
X172327949Y-44203335D01*
X172327946Y-44203333D01*
X172097987Y-43973374D01*
X171976515Y-43791579D01*
X171917303Y-43702962D01*
X171792847Y-43402499D01*
X171729400Y-43083529D01*
X171729400Y-42758311D01*
X171792847Y-42439341D01*
X171917303Y-42138878D01*
X172097985Y-41868469D01*
X172097987Y-41868466D01*
X172327946Y-41638507D01*
X172331548Y-41636100D01*
X172598358Y-41457823D01*
X172898821Y-41333367D01*
X173005144Y-41312218D01*
X173217789Y-41269920D01*
X173543011Y-41269920D01*
X173755656Y-41312218D01*
X173755656Y-41312218D01*
G37*
G36*
X93278296Y-41312218D02*
X93384619Y-41333367D01*
X93685082Y-41457823D01*
X93951892Y-41636100D01*
X93955494Y-41638507D01*
X94185453Y-41868466D01*
X94185455Y-41868469D01*
X94366137Y-42138878D01*
X94490593Y-42439341D01*
X94554040Y-42758311D01*
X94554040Y-43083529D01*
X94490593Y-43402499D01*
X94366137Y-43702962D01*
X94306925Y-43791579D01*
X94185453Y-43973374D01*
X93955494Y-44203333D01*
X93955491Y-44203335D01*
X93685082Y-44384017D01*
X93384619Y-44508473D01*
X93278296Y-44529622D01*
X93065651Y-44571920D01*
X92740429Y-44571920D01*
X92527784Y-44529622D01*
X92421461Y-44508473D01*
X92120998Y-44384017D01*
X91850589Y-44203335D01*
X91850586Y-44203333D01*
X91620627Y-43973374D01*
X91499155Y-43791579D01*
X91439943Y-43702962D01*
X91315487Y-43402499D01*
X91252040Y-43083529D01*
X91252040Y-42758311D01*
X91315487Y-42439341D01*
X91439943Y-42138878D01*
X91620625Y-41868469D01*
X91620627Y-41868466D01*
X91850586Y-41638507D01*
X91854188Y-41636100D01*
X92120998Y-41457823D01*
X92421461Y-41333367D01*
X92527784Y-41312218D01*
X92740429Y-41269920D01*
X93065651Y-41269920D01*
X93278296Y-41312218D01*
X93278296Y-41312218D01*
G37*
M02*
