M48
INCH,TZ
T1C0.0157
T2C0.0295
T3C0.0315
T4C0.0630
%
G90
G05
T1
X45850Y-47650
X45850Y-51500
X45900Y-43700
X45950Y-39850
X45950Y-55300
X45950Y-59200
X56100Y-42300
X58050Y-46300
X58400Y-34150
X58400Y-59100
X60200Y-37550
X65350Y-41100
X66150Y-42750
X66300Y-46150
T2
X63150Y-43400
X63650Y-43400
X64150Y-43400
X62100Y-45525
X62100Y-46313
X62100Y-47100
X52000Y-40650
X52787Y-40650
X53575Y-40650
X64050Y-52425
X64050Y-53213
X64050Y-54000
X64250Y-55700
X64250Y-56200
X64250Y-56700
X62650Y-58400
X63437Y-58400
X64225Y-58400
X51600Y-43100
X52100Y-43100
X52600Y-43100
X52000Y-46900
X52787Y-46900
X53575Y-46900
X66100Y-56025
X66100Y-56813
X66100Y-57600
X54450Y-33900
X54450Y-34400
X54450Y-34900
X58975Y-58850
X59763Y-58850
X60550Y-58850
X52500Y-36450
X52500Y-37237
X52500Y-38025
X52350Y-57125
X52350Y-57913
X52350Y-58700
T3
X60450Y-52050
X62450Y-52050
X54850Y-58150
X56850Y-58150
X60550Y-39300
X60550Y-41300
X51650Y-50050
X51650Y-52050
X65400Y-43000
X65400Y-44969
X47050Y-36300
X49050Y-36300
X54100Y-52100
X56100Y-52100
X55000Y-60450
X57000Y-60450
X60550Y-42450
X60550Y-44450
X54250Y-59200
X57250Y-59200
X51750Y-53400
X51750Y-55400
X58100Y-60450
X60069Y-60450
X51450Y-45350
X53450Y-45350
X55050Y-47500
X55050Y-49500
X50400Y-34300
X50400Y-36300
X54950Y-39481
X54950Y-41450
X65150Y-48650
X65150Y-50650
X52000Y-60450
X54000Y-60450
X47100Y-35050
X49100Y-35050
X56200Y-34350
X56200Y-35350
X56200Y-36350
X56200Y-37350
X56200Y-38350
X56200Y-39350
X56200Y-40350
X56200Y-41350
X59200Y-34350
X59200Y-35350
X59200Y-36350
X59200Y-37350
X59200Y-38350
X59200Y-39350
X59200Y-40350
X59200Y-41350
X52900Y-50050
X52900Y-52019
X54300Y-50800
X56300Y-50800
X56250Y-43600
X56250Y-44600
X56250Y-45600
X56250Y-46600
X56250Y-47600
X56250Y-48600
X56250Y-49600
X59250Y-43600
X59250Y-44600
X59250Y-45600
X59250Y-46600
X59250Y-47600
X59250Y-48600
X59250Y-49600
X53050Y-53600
X53050Y-55600
X60650Y-49200
X62650Y-49200
X60981Y-60450
X62950Y-60450
X63250Y-38950
X63250Y-41950
X64250Y-38950
X64250Y-41950
X65250Y-38950
X65250Y-41950
X66250Y-38950
X66250Y-41950
X61900Y-38950
X61900Y-40950
X54450Y-53700
X54450Y-56700
X55450Y-53700
X55450Y-56700
X56450Y-53700
X56450Y-56700
X57450Y-53700
X57450Y-56700
X58450Y-53700
X58450Y-56700
X59450Y-53700
X59450Y-56700
X60450Y-53700
X60450Y-56700
X63850Y-48800
X63850Y-50800
X57300Y-50850
X59300Y-50850
X60550Y-36200
X60550Y-38200
X54750Y-36200
X54750Y-38200
X45900Y-34550
X45900Y-36519
X60500Y-50600
X62500Y-50600
X61900Y-42050
X61900Y-44050
X57450Y-52100
X59450Y-52100
X64150Y-45450
X64150Y-47450
X51450Y-48900
X53450Y-48900
X65400Y-45850
X65400Y-47819
X61900Y-53750
X61900Y-56750
X60550Y-45600
X60550Y-47600
X54700Y-42650
X54700Y-44650
T4
X62000Y-36250
X63181Y-34400
X64362Y-36250
T0
M30
