G04 #@! TF.GenerationSoftware,KiCad,Pcbnew,(5.0.1)-rc2*
G04 #@! TF.CreationDate,2018-11-16T12:43:18-05:00*
G04 #@! TF.ProjectId,ASDR,415344522E6B696361645F7063620000,rev?*
G04 #@! TF.SameCoordinates,Original*
G04 #@! TF.FileFunction,Legend,Bot*
G04 #@! TF.FilePolarity,Positive*
%FSLAX46Y46*%
G04 Gerber Fmt 4.6, Leading zero omitted, Abs format (unit mm)*
G04 Created by KiCad (PCBNEW (5.0.1)-rc2) date 11/16/2018 12:43:18 PM*
%MOMM*%
%LPD*%
G01*
G04 APERTURE LIST*
%ADD10C,0.300000*%
%ADD11C,0.010000*%
G04 APERTURE END LIST*
D10*
X124884285Y-128790000D02*
X125027142Y-128718571D01*
X125241428Y-128718571D01*
X125455714Y-128790000D01*
X125598571Y-128932857D01*
X125670000Y-129075714D01*
X125741428Y-129361428D01*
X125741428Y-129575714D01*
X125670000Y-129861428D01*
X125598571Y-130004285D01*
X125455714Y-130147142D01*
X125241428Y-130218571D01*
X125098571Y-130218571D01*
X124884285Y-130147142D01*
X124812857Y-130075714D01*
X124812857Y-129575714D01*
X125098571Y-129575714D01*
X123527142Y-130218571D02*
X123527142Y-129432857D01*
X123598571Y-129290000D01*
X123741428Y-129218571D01*
X124027142Y-129218571D01*
X124170000Y-129290000D01*
X123527142Y-130147142D02*
X123670000Y-130218571D01*
X124027142Y-130218571D01*
X124170000Y-130147142D01*
X124241428Y-130004285D01*
X124241428Y-129861428D01*
X124170000Y-129718571D01*
X124027142Y-129647142D01*
X123670000Y-129647142D01*
X123527142Y-129575714D01*
X123027142Y-129218571D02*
X122455714Y-129218571D01*
X122812857Y-128718571D02*
X122812857Y-130004285D01*
X122741428Y-130147142D01*
X122598571Y-130218571D01*
X122455714Y-130218571D01*
X121384285Y-130147142D02*
X121527142Y-130218571D01*
X121812857Y-130218571D01*
X121955714Y-130147142D01*
X122027142Y-130004285D01*
X122027142Y-129432857D01*
X121955714Y-129290000D01*
X121812857Y-129218571D01*
X121527142Y-129218571D01*
X121384285Y-129290000D01*
X121312857Y-129432857D01*
X121312857Y-129575714D01*
X122027142Y-129718571D01*
X119527142Y-130218571D02*
X119527142Y-128718571D01*
X118812857Y-129218571D02*
X118812857Y-130218571D01*
X118812857Y-129361428D02*
X118741428Y-129290000D01*
X118598571Y-129218571D01*
X118384285Y-129218571D01*
X118241428Y-129290000D01*
X118170000Y-129432857D01*
X118170000Y-130218571D01*
X126757142Y-147840000D02*
X126900000Y-147768571D01*
X127114285Y-147768571D01*
X127328571Y-147840000D01*
X127471428Y-147982857D01*
X127542857Y-148125714D01*
X127614285Y-148411428D01*
X127614285Y-148625714D01*
X127542857Y-148911428D01*
X127471428Y-149054285D01*
X127328571Y-149197142D01*
X127114285Y-149268571D01*
X126971428Y-149268571D01*
X126757142Y-149197142D01*
X126685714Y-149125714D01*
X126685714Y-148625714D01*
X126971428Y-148625714D01*
X125828571Y-149268571D02*
X125971428Y-149197142D01*
X126042857Y-149054285D01*
X126042857Y-147768571D01*
X125257142Y-149268571D02*
X125257142Y-148268571D01*
X125257142Y-147768571D02*
X125328571Y-147840000D01*
X125257142Y-147911428D01*
X125185714Y-147840000D01*
X125257142Y-147768571D01*
X125257142Y-147911428D01*
X123900000Y-149268571D02*
X123900000Y-147768571D01*
X123900000Y-149197142D02*
X124042857Y-149268571D01*
X124328571Y-149268571D01*
X124471428Y-149197142D01*
X124542857Y-149125714D01*
X124614285Y-148982857D01*
X124614285Y-148554285D01*
X124542857Y-148411428D01*
X124471428Y-148340000D01*
X124328571Y-148268571D01*
X124042857Y-148268571D01*
X123900000Y-148340000D01*
X122614285Y-149197142D02*
X122757142Y-149268571D01*
X123042857Y-149268571D01*
X123185714Y-149197142D01*
X123257142Y-149054285D01*
X123257142Y-148482857D01*
X123185714Y-148340000D01*
X123042857Y-148268571D01*
X122757142Y-148268571D01*
X122614285Y-148340000D01*
X122542857Y-148482857D01*
X122542857Y-148625714D01*
X123257142Y-148768571D01*
X119900000Y-149125714D02*
X119971428Y-149197142D01*
X120185714Y-149268571D01*
X120328571Y-149268571D01*
X120542857Y-149197142D01*
X120685714Y-149054285D01*
X120757142Y-148911428D01*
X120828571Y-148625714D01*
X120828571Y-148411428D01*
X120757142Y-148125714D01*
X120685714Y-147982857D01*
X120542857Y-147840000D01*
X120328571Y-147768571D01*
X120185714Y-147768571D01*
X119971428Y-147840000D01*
X119900000Y-147911428D01*
X119471428Y-147768571D02*
X118971428Y-149268571D01*
X118471428Y-147768571D01*
X116542857Y-147768571D02*
X116257142Y-147768571D01*
X116114285Y-147840000D01*
X115971428Y-147982857D01*
X115900000Y-148268571D01*
X115900000Y-148768571D01*
X115971428Y-149054285D01*
X116114285Y-149197142D01*
X116257142Y-149268571D01*
X116542857Y-149268571D01*
X116685714Y-149197142D01*
X116828571Y-149054285D01*
X116900000Y-148768571D01*
X116900000Y-148268571D01*
X116828571Y-147982857D01*
X116685714Y-147840000D01*
X116542857Y-147768571D01*
X114614285Y-148268571D02*
X114614285Y-149268571D01*
X115257142Y-148268571D02*
X115257142Y-149054285D01*
X115185714Y-149197142D01*
X115042857Y-149268571D01*
X114828571Y-149268571D01*
X114685714Y-149197142D01*
X114614285Y-149125714D01*
X114114285Y-148268571D02*
X113542857Y-148268571D01*
X113900000Y-147768571D02*
X113900000Y-149054285D01*
X113828571Y-149197142D01*
X113685714Y-149268571D01*
X113542857Y-149268571D01*
X128741285Y-137862571D02*
X128241285Y-139362571D01*
X127741285Y-137862571D01*
X126384142Y-139219714D02*
X126455571Y-139291142D01*
X126669857Y-139362571D01*
X126812714Y-139362571D01*
X127027000Y-139291142D01*
X127169857Y-139148285D01*
X127241285Y-139005428D01*
X127312714Y-138719714D01*
X127312714Y-138505428D01*
X127241285Y-138219714D01*
X127169857Y-138076857D01*
X127027000Y-137934000D01*
X126812714Y-137862571D01*
X126669857Y-137862571D01*
X126455571Y-137934000D01*
X126384142Y-138005428D01*
X125812714Y-138934000D02*
X125098428Y-138934000D01*
X125955571Y-139362571D02*
X125455571Y-137862571D01*
X124955571Y-139362571D01*
X123384142Y-138934000D02*
X122669857Y-138934000D01*
X123527000Y-139362571D02*
X123027000Y-137862571D01*
X122527000Y-139362571D01*
X121384142Y-138362571D02*
X121384142Y-139362571D01*
X122027000Y-138362571D02*
X122027000Y-139148285D01*
X121955571Y-139291142D01*
X121812714Y-139362571D01*
X121598428Y-139362571D01*
X121455571Y-139291142D01*
X121384142Y-139219714D01*
X120027000Y-139362571D02*
X120027000Y-137862571D01*
X120027000Y-139291142D02*
X120169857Y-139362571D01*
X120455571Y-139362571D01*
X120598428Y-139291142D01*
X120669857Y-139219714D01*
X120741285Y-139076857D01*
X120741285Y-138648285D01*
X120669857Y-138505428D01*
X120598428Y-138434000D01*
X120455571Y-138362571D01*
X120169857Y-138362571D01*
X120027000Y-138434000D01*
X119312714Y-139362571D02*
X119312714Y-138362571D01*
X119312714Y-137862571D02*
X119384142Y-137934000D01*
X119312714Y-138005428D01*
X119241285Y-137934000D01*
X119312714Y-137862571D01*
X119312714Y-138005428D01*
X118384142Y-139362571D02*
X118527000Y-139291142D01*
X118598428Y-139219714D01*
X118669857Y-139076857D01*
X118669857Y-138648285D01*
X118598428Y-138505428D01*
X118527000Y-138434000D01*
X118384142Y-138362571D01*
X118169857Y-138362571D01*
X118027000Y-138434000D01*
X117955571Y-138505428D01*
X117884142Y-138648285D01*
X117884142Y-139076857D01*
X117955571Y-139219714D01*
X118027000Y-139291142D01*
X118169857Y-139362571D01*
X118384142Y-139362571D01*
X115812714Y-137862571D02*
X115527000Y-137862571D01*
X115384142Y-137934000D01*
X115241285Y-138076857D01*
X115169857Y-138362571D01*
X115169857Y-138862571D01*
X115241285Y-139148285D01*
X115384142Y-139291142D01*
X115527000Y-139362571D01*
X115812714Y-139362571D01*
X115955571Y-139291142D01*
X116098428Y-139148285D01*
X116169857Y-138862571D01*
X116169857Y-138362571D01*
X116098428Y-138076857D01*
X115955571Y-137934000D01*
X115812714Y-137862571D01*
X113884142Y-138362571D02*
X113884142Y-139362571D01*
X114527000Y-138362571D02*
X114527000Y-139148285D01*
X114455571Y-139291142D01*
X114312714Y-139362571D01*
X114098428Y-139362571D01*
X113955571Y-139291142D01*
X113884142Y-139219714D01*
X113384142Y-138362571D02*
X112812714Y-138362571D01*
X113169857Y-137862571D02*
X113169857Y-139148285D01*
X113098428Y-139291142D01*
X112955571Y-139362571D01*
X112812714Y-139362571D01*
X127503142Y-118431571D02*
X127003142Y-119931571D01*
X126503142Y-118431571D01*
X125146000Y-119788714D02*
X125217428Y-119860142D01*
X125431714Y-119931571D01*
X125574571Y-119931571D01*
X125788857Y-119860142D01*
X125931714Y-119717285D01*
X126003142Y-119574428D01*
X126074571Y-119288714D01*
X126074571Y-119074428D01*
X126003142Y-118788714D01*
X125931714Y-118645857D01*
X125788857Y-118503000D01*
X125574571Y-118431571D01*
X125431714Y-118431571D01*
X125217428Y-118503000D01*
X125146000Y-118574428D01*
X124574571Y-119503000D02*
X123860285Y-119503000D01*
X124717428Y-119931571D02*
X124217428Y-118431571D01*
X123717428Y-119931571D01*
X122146000Y-119503000D02*
X121431714Y-119503000D01*
X122288857Y-119931571D02*
X121788857Y-118431571D01*
X121288857Y-119931571D01*
X120146000Y-118931571D02*
X120146000Y-119931571D01*
X120788857Y-118931571D02*
X120788857Y-119717285D01*
X120717428Y-119860142D01*
X120574571Y-119931571D01*
X120360285Y-119931571D01*
X120217428Y-119860142D01*
X120146000Y-119788714D01*
X118788857Y-119931571D02*
X118788857Y-118431571D01*
X118788857Y-119860142D02*
X118931714Y-119931571D01*
X119217428Y-119931571D01*
X119360285Y-119860142D01*
X119431714Y-119788714D01*
X119503142Y-119645857D01*
X119503142Y-119217285D01*
X119431714Y-119074428D01*
X119360285Y-119003000D01*
X119217428Y-118931571D01*
X118931714Y-118931571D01*
X118788857Y-119003000D01*
X118074571Y-119931571D02*
X118074571Y-118931571D01*
X118074571Y-118431571D02*
X118146000Y-118503000D01*
X118074571Y-118574428D01*
X118003142Y-118503000D01*
X118074571Y-118431571D01*
X118074571Y-118574428D01*
X117146000Y-119931571D02*
X117288857Y-119860142D01*
X117360285Y-119788714D01*
X117431714Y-119645857D01*
X117431714Y-119217285D01*
X117360285Y-119074428D01*
X117288857Y-119003000D01*
X117146000Y-118931571D01*
X116931714Y-118931571D01*
X116788857Y-119003000D01*
X116717428Y-119074428D01*
X116646000Y-119217285D01*
X116646000Y-119645857D01*
X116717428Y-119788714D01*
X116788857Y-119860142D01*
X116931714Y-119931571D01*
X117146000Y-119931571D01*
X114860285Y-119931571D02*
X114860285Y-118431571D01*
X114146000Y-118931571D02*
X114146000Y-119931571D01*
X114146000Y-119074428D02*
X114074571Y-119003000D01*
X113931714Y-118931571D01*
X113717428Y-118931571D01*
X113574571Y-119003000D01*
X113503142Y-119145857D01*
X113503142Y-119931571D01*
X127221571Y-109827142D02*
X127007285Y-109898571D01*
X126650142Y-109898571D01*
X126507285Y-109827142D01*
X126435857Y-109755714D01*
X126364428Y-109612857D01*
X126364428Y-109470000D01*
X126435857Y-109327142D01*
X126507285Y-109255714D01*
X126650142Y-109184285D01*
X126935857Y-109112857D01*
X127078714Y-109041428D01*
X127150142Y-108970000D01*
X127221571Y-108827142D01*
X127221571Y-108684285D01*
X127150142Y-108541428D01*
X127078714Y-108470000D01*
X126935857Y-108398571D01*
X126578714Y-108398571D01*
X126364428Y-108470000D01*
X125078714Y-109898571D02*
X125078714Y-109112857D01*
X125150142Y-108970000D01*
X125293000Y-108898571D01*
X125578714Y-108898571D01*
X125721571Y-108970000D01*
X125078714Y-109827142D02*
X125221571Y-109898571D01*
X125578714Y-109898571D01*
X125721571Y-109827142D01*
X125793000Y-109684285D01*
X125793000Y-109541428D01*
X125721571Y-109398571D01*
X125578714Y-109327142D01*
X125221571Y-109327142D01*
X125078714Y-109255714D01*
X124364428Y-109898571D02*
X124364428Y-108898571D01*
X124364428Y-109041428D02*
X124293000Y-108970000D01*
X124150142Y-108898571D01*
X123935857Y-108898571D01*
X123793000Y-108970000D01*
X123721571Y-109112857D01*
X123721571Y-109898571D01*
X123721571Y-109112857D02*
X123650142Y-108970000D01*
X123507285Y-108898571D01*
X123293000Y-108898571D01*
X123150142Y-108970000D01*
X123078714Y-109112857D01*
X123078714Y-109898571D01*
X122364428Y-108898571D02*
X122364428Y-110398571D01*
X122364428Y-108970000D02*
X122221571Y-108898571D01*
X121935857Y-108898571D01*
X121793000Y-108970000D01*
X121721571Y-109041428D01*
X121650142Y-109184285D01*
X121650142Y-109612857D01*
X121721571Y-109755714D01*
X121793000Y-109827142D01*
X121935857Y-109898571D01*
X122221571Y-109898571D01*
X122364428Y-109827142D01*
X120793000Y-109898571D02*
X120935857Y-109827142D01*
X121007285Y-109684285D01*
X121007285Y-108398571D01*
X119650142Y-109827142D02*
X119793000Y-109898571D01*
X120078714Y-109898571D01*
X120221571Y-109827142D01*
X120293000Y-109684285D01*
X120293000Y-109112857D01*
X120221571Y-108970000D01*
X120078714Y-108898571D01*
X119793000Y-108898571D01*
X119650142Y-108970000D01*
X119578714Y-109112857D01*
X119578714Y-109255714D01*
X120293000Y-109398571D01*
X117793000Y-109898571D02*
X117793000Y-108398571D01*
X117078714Y-108898571D02*
X117078714Y-109898571D01*
X117078714Y-109041428D02*
X117007285Y-108970000D01*
X116864428Y-108898571D01*
X116650142Y-108898571D01*
X116507285Y-108970000D01*
X116435857Y-109112857D01*
X116435857Y-109898571D01*
X126590428Y-98691000D02*
X126733285Y-98619571D01*
X126947571Y-98619571D01*
X127161857Y-98691000D01*
X127304714Y-98833857D01*
X127376142Y-98976714D01*
X127447571Y-99262428D01*
X127447571Y-99476714D01*
X127376142Y-99762428D01*
X127304714Y-99905285D01*
X127161857Y-100048142D01*
X126947571Y-100119571D01*
X126804714Y-100119571D01*
X126590428Y-100048142D01*
X126519000Y-99976714D01*
X126519000Y-99476714D01*
X126804714Y-99476714D01*
X125661857Y-100119571D02*
X125804714Y-100048142D01*
X125876142Y-99905285D01*
X125876142Y-98619571D01*
X125090428Y-100119571D02*
X125090428Y-99119571D01*
X125090428Y-98619571D02*
X125161857Y-98691000D01*
X125090428Y-98762428D01*
X125019000Y-98691000D01*
X125090428Y-98619571D01*
X125090428Y-98762428D01*
X123733285Y-100119571D02*
X123733285Y-98619571D01*
X123733285Y-100048142D02*
X123876142Y-100119571D01*
X124161857Y-100119571D01*
X124304714Y-100048142D01*
X124376142Y-99976714D01*
X124447571Y-99833857D01*
X124447571Y-99405285D01*
X124376142Y-99262428D01*
X124304714Y-99191000D01*
X124161857Y-99119571D01*
X123876142Y-99119571D01*
X123733285Y-99191000D01*
X122447571Y-100048142D02*
X122590428Y-100119571D01*
X122876142Y-100119571D01*
X123019000Y-100048142D01*
X123090428Y-99905285D01*
X123090428Y-99333857D01*
X123019000Y-99191000D01*
X122876142Y-99119571D01*
X122590428Y-99119571D01*
X122447571Y-99191000D01*
X122376142Y-99333857D01*
X122376142Y-99476714D01*
X123090428Y-99619571D01*
X119733285Y-99976714D02*
X119804714Y-100048142D01*
X120019000Y-100119571D01*
X120161857Y-100119571D01*
X120376142Y-100048142D01*
X120519000Y-99905285D01*
X120590428Y-99762428D01*
X120661857Y-99476714D01*
X120661857Y-99262428D01*
X120590428Y-98976714D01*
X120519000Y-98833857D01*
X120376142Y-98691000D01*
X120161857Y-98619571D01*
X120019000Y-98619571D01*
X119804714Y-98691000D01*
X119733285Y-98762428D01*
X118876142Y-100119571D02*
X119019000Y-100048142D01*
X119090428Y-99976714D01*
X119161857Y-99833857D01*
X119161857Y-99405285D01*
X119090428Y-99262428D01*
X119019000Y-99191000D01*
X118876142Y-99119571D01*
X118661857Y-99119571D01*
X118519000Y-99191000D01*
X118447571Y-99262428D01*
X118376142Y-99405285D01*
X118376142Y-99833857D01*
X118447571Y-99976714D01*
X118519000Y-100048142D01*
X118661857Y-100119571D01*
X118876142Y-100119571D01*
X117733285Y-99119571D02*
X117733285Y-100119571D01*
X117733285Y-99262428D02*
X117661857Y-99191000D01*
X117519000Y-99119571D01*
X117304714Y-99119571D01*
X117161857Y-99191000D01*
X117090428Y-99333857D01*
X117090428Y-100119571D01*
X116590428Y-99119571D02*
X116019000Y-99119571D01*
X116376142Y-98619571D02*
X116376142Y-99905285D01*
X116304714Y-100048142D01*
X116161857Y-100119571D01*
X116019000Y-100119571D01*
X115519000Y-100119571D02*
X115519000Y-99119571D01*
X115519000Y-99405285D02*
X115447571Y-99262428D01*
X115376142Y-99191000D01*
X115233285Y-99119571D01*
X115090428Y-99119571D01*
X114376142Y-100119571D02*
X114519000Y-100048142D01*
X114590428Y-99976714D01*
X114661857Y-99833857D01*
X114661857Y-99405285D01*
X114590428Y-99262428D01*
X114519000Y-99191000D01*
X114376142Y-99119571D01*
X114161857Y-99119571D01*
X114019000Y-99191000D01*
X113947571Y-99262428D01*
X113876142Y-99405285D01*
X113876142Y-99833857D01*
X113947571Y-99976714D01*
X114019000Y-100048142D01*
X114161857Y-100119571D01*
X114376142Y-100119571D01*
X113019000Y-100119571D02*
X113161857Y-100048142D01*
X113233285Y-99905285D01*
X113233285Y-98619571D01*
X142865714Y-82339571D02*
X142865714Y-80839571D01*
X142294285Y-80839571D01*
X142151428Y-80911000D01*
X142080000Y-80982428D01*
X142008571Y-81125285D01*
X142008571Y-81339571D01*
X142080000Y-81482428D01*
X142151428Y-81553857D01*
X142294285Y-81625285D01*
X142865714Y-81625285D01*
X140508571Y-82196714D02*
X140580000Y-82268142D01*
X140794285Y-82339571D01*
X140937142Y-82339571D01*
X141151428Y-82268142D01*
X141294285Y-82125285D01*
X141365714Y-81982428D01*
X141437142Y-81696714D01*
X141437142Y-81482428D01*
X141365714Y-81196714D01*
X141294285Y-81053857D01*
X141151428Y-80911000D01*
X140937142Y-80839571D01*
X140794285Y-80839571D01*
X140580000Y-80911000D01*
X140508571Y-80982428D01*
X139365714Y-81553857D02*
X139151428Y-81625285D01*
X139080000Y-81696714D01*
X139008571Y-81839571D01*
X139008571Y-82053857D01*
X139080000Y-82196714D01*
X139151428Y-82268142D01*
X139294285Y-82339571D01*
X139865714Y-82339571D01*
X139865714Y-80839571D01*
X139365714Y-80839571D01*
X139222857Y-80911000D01*
X139151428Y-80982428D01*
X139080000Y-81125285D01*
X139080000Y-81268142D01*
X139151428Y-81411000D01*
X139222857Y-81482428D01*
X139365714Y-81553857D01*
X139865714Y-81553857D01*
X137222857Y-82339571D02*
X137222857Y-80839571D01*
X136865714Y-80839571D01*
X136651428Y-80911000D01*
X136508571Y-81053857D01*
X136437142Y-81196714D01*
X136365714Y-81482428D01*
X136365714Y-81696714D01*
X136437142Y-81982428D01*
X136508571Y-82125285D01*
X136651428Y-82268142D01*
X136865714Y-82339571D01*
X137222857Y-82339571D01*
X135151428Y-82268142D02*
X135294285Y-82339571D01*
X135580000Y-82339571D01*
X135722857Y-82268142D01*
X135794285Y-82125285D01*
X135794285Y-81553857D01*
X135722857Y-81411000D01*
X135580000Y-81339571D01*
X135294285Y-81339571D01*
X135151428Y-81411000D01*
X135080000Y-81553857D01*
X135080000Y-81696714D01*
X135794285Y-81839571D01*
X134508571Y-82268142D02*
X134365714Y-82339571D01*
X134080000Y-82339571D01*
X133937142Y-82268142D01*
X133865714Y-82125285D01*
X133865714Y-82053857D01*
X133937142Y-81911000D01*
X134080000Y-81839571D01*
X134294285Y-81839571D01*
X134437142Y-81768142D01*
X134508571Y-81625285D01*
X134508571Y-81553857D01*
X134437142Y-81411000D01*
X134294285Y-81339571D01*
X134080000Y-81339571D01*
X133937142Y-81411000D01*
X133222857Y-82339571D02*
X133222857Y-81339571D01*
X133222857Y-80839571D02*
X133294285Y-80911000D01*
X133222857Y-80982428D01*
X133151428Y-80911000D01*
X133222857Y-80839571D01*
X133222857Y-80982428D01*
X131865714Y-81339571D02*
X131865714Y-82553857D01*
X131937142Y-82696714D01*
X132008571Y-82768142D01*
X132151428Y-82839571D01*
X132365714Y-82839571D01*
X132508571Y-82768142D01*
X131865714Y-82268142D02*
X132008571Y-82339571D01*
X132294285Y-82339571D01*
X132437142Y-82268142D01*
X132508571Y-82196714D01*
X132580000Y-82053857D01*
X132580000Y-81625285D01*
X132508571Y-81482428D01*
X132437142Y-81411000D01*
X132294285Y-81339571D01*
X132008571Y-81339571D01*
X131865714Y-81411000D01*
X131151428Y-81339571D02*
X131151428Y-82339571D01*
X131151428Y-81482428D02*
X131080000Y-81411000D01*
X130937142Y-81339571D01*
X130722857Y-81339571D01*
X130580000Y-81411000D01*
X130508571Y-81553857D01*
X130508571Y-82339571D01*
X128722857Y-80982428D02*
X128651428Y-80911000D01*
X128508571Y-80839571D01*
X128151428Y-80839571D01*
X128008571Y-80911000D01*
X127937142Y-80982428D01*
X127865714Y-81125285D01*
X127865714Y-81268142D01*
X127937142Y-81482428D01*
X128794285Y-82339571D01*
X127865714Y-82339571D01*
X126937142Y-80839571D02*
X126794285Y-80839571D01*
X126651428Y-80911000D01*
X126580000Y-80982428D01*
X126508571Y-81125285D01*
X126437142Y-81411000D01*
X126437142Y-81768142D01*
X126508571Y-82053857D01*
X126580000Y-82196714D01*
X126651428Y-82268142D01*
X126794285Y-82339571D01*
X126937142Y-82339571D01*
X127080000Y-82268142D01*
X127151428Y-82196714D01*
X127222857Y-82053857D01*
X127294285Y-81768142D01*
X127294285Y-81411000D01*
X127222857Y-81125285D01*
X127151428Y-80982428D01*
X127080000Y-80911000D01*
X126937142Y-80839571D01*
X125008571Y-82339571D02*
X125865714Y-82339571D01*
X125437142Y-82339571D02*
X125437142Y-80839571D01*
X125580000Y-81053857D01*
X125722857Y-81196714D01*
X125865714Y-81268142D01*
X124151428Y-81482428D02*
X124294285Y-81411000D01*
X124365714Y-81339571D01*
X124437142Y-81196714D01*
X124437142Y-81125285D01*
X124365714Y-80982428D01*
X124294285Y-80911000D01*
X124151428Y-80839571D01*
X123865714Y-80839571D01*
X123722857Y-80911000D01*
X123651428Y-80982428D01*
X123580000Y-81125285D01*
X123580000Y-81196714D01*
X123651428Y-81339571D01*
X123722857Y-81411000D01*
X123865714Y-81482428D01*
X124151428Y-81482428D01*
X124294285Y-81553857D01*
X124365714Y-81625285D01*
X124437142Y-81768142D01*
X124437142Y-82053857D01*
X124365714Y-82196714D01*
X124294285Y-82268142D01*
X124151428Y-82339571D01*
X123865714Y-82339571D01*
X123722857Y-82268142D01*
X123651428Y-82196714D01*
X123580000Y-82053857D01*
X123580000Y-81768142D01*
X123651428Y-81625285D01*
X123722857Y-81553857D01*
X123865714Y-81482428D01*
X122937142Y-82339571D02*
X122937142Y-81339571D01*
X122937142Y-81625285D02*
X122865714Y-81482428D01*
X122794285Y-81411000D01*
X122651428Y-81339571D01*
X122508571Y-81339571D01*
X122151428Y-80839571D02*
X121222857Y-80839571D01*
X121722857Y-81411000D01*
X121508571Y-81411000D01*
X121365714Y-81482428D01*
X121294285Y-81553857D01*
X121222857Y-81696714D01*
X121222857Y-82053857D01*
X121294285Y-82196714D01*
X121365714Y-82268142D01*
X121508571Y-82339571D01*
X121937142Y-82339571D01*
X122080000Y-82268142D01*
X122151428Y-82196714D01*
D11*
G04 #@! TO.C,G\002A\002A\002A*
G36*
X132290136Y-83197330D02*
X132171902Y-83324316D01*
X132014306Y-83581141D01*
X131793415Y-83972481D01*
X131711503Y-84116333D01*
X131532188Y-84435207D01*
X131431492Y-84637257D01*
X131400532Y-84750631D01*
X131430423Y-84803477D01*
X131489233Y-84820620D01*
X131566625Y-84847653D01*
X131576816Y-84914241D01*
X131509738Y-85051082D01*
X131355324Y-85288877D01*
X131317225Y-85345141D01*
X131151016Y-85594102D01*
X131030408Y-85782783D01*
X130979651Y-85873154D01*
X130979334Y-85875024D01*
X131052069Y-85886930D01*
X131227623Y-85870890D01*
X131233334Y-85870060D01*
X131419620Y-85869564D01*
X131487334Y-85925778D01*
X131438418Y-86030456D01*
X131307580Y-86231701D01*
X131118688Y-86493856D01*
X131021667Y-86621471D01*
X130816259Y-86888667D01*
X130657138Y-87098211D01*
X130567517Y-87219411D01*
X130556000Y-87237193D01*
X130631492Y-87238949D01*
X130822545Y-87228416D01*
X130937000Y-87219918D01*
X131163738Y-87213037D01*
X131300147Y-87230419D01*
X131318000Y-87246032D01*
X131269075Y-87332823D01*
X131137459Y-87520449D01*
X130945895Y-87777239D01*
X130810300Y-87953057D01*
X130302599Y-88603666D01*
X131212466Y-88646000D01*
X132122334Y-88688333D01*
X132122334Y-89175321D01*
X132127282Y-89449566D01*
X132153883Y-89595096D01*
X132219771Y-89652482D01*
X132334000Y-89662309D01*
X132453200Y-89650924D01*
X132516453Y-89589722D01*
X132541396Y-89438133D01*
X132545667Y-89175321D01*
X132545667Y-88688333D01*
X133496991Y-88664404D01*
X134448315Y-88640476D01*
X133941491Y-88002691D01*
X133723087Y-87719208D01*
X133551928Y-87480596D01*
X133451399Y-87320345D01*
X133434667Y-87276893D01*
X133510477Y-87226185D01*
X133709322Y-87216395D01*
X133773334Y-87221177D01*
X133984683Y-87231523D01*
X134102496Y-87218233D01*
X134111324Y-87208904D01*
X134062501Y-87126523D01*
X133932558Y-86944169D01*
X133745306Y-86694770D01*
X133652269Y-86574050D01*
X133452637Y-86302924D01*
X133308089Y-86079224D01*
X133239968Y-85937312D01*
X133239639Y-85909745D01*
X133347471Y-85867119D01*
X133524889Y-85870875D01*
X133648076Y-85885706D01*
X133705984Y-85868948D01*
X133690614Y-85796167D01*
X133593970Y-85642926D01*
X133408052Y-85384790D01*
X133331665Y-85280500D01*
X133162415Y-85042089D01*
X133087808Y-84907843D01*
X133097833Y-84848803D01*
X133177996Y-84836000D01*
X133317216Y-84816761D01*
X133350000Y-84789585D01*
X133309375Y-84702630D01*
X133198922Y-84500941D01*
X133035776Y-84215083D01*
X132848096Y-83894261D01*
X132647988Y-83548649D01*
X132504247Y-83314173D01*
X132392940Y-83195508D01*
X132290136Y-83197330D01*
X132290136Y-83197330D01*
G37*
X132290136Y-83197330D02*
X132171902Y-83324316D01*
X132014306Y-83581141D01*
X131793415Y-83972481D01*
X131711503Y-84116333D01*
X131532188Y-84435207D01*
X131431492Y-84637257D01*
X131400532Y-84750631D01*
X131430423Y-84803477D01*
X131489233Y-84820620D01*
X131566625Y-84847653D01*
X131576816Y-84914241D01*
X131509738Y-85051082D01*
X131355324Y-85288877D01*
X131317225Y-85345141D01*
X131151016Y-85594102D01*
X131030408Y-85782783D01*
X130979651Y-85873154D01*
X130979334Y-85875024D01*
X131052069Y-85886930D01*
X131227623Y-85870890D01*
X131233334Y-85870060D01*
X131419620Y-85869564D01*
X131487334Y-85925778D01*
X131438418Y-86030456D01*
X131307580Y-86231701D01*
X131118688Y-86493856D01*
X131021667Y-86621471D01*
X130816259Y-86888667D01*
X130657138Y-87098211D01*
X130567517Y-87219411D01*
X130556000Y-87237193D01*
X130631492Y-87238949D01*
X130822545Y-87228416D01*
X130937000Y-87219918D01*
X131163738Y-87213037D01*
X131300147Y-87230419D01*
X131318000Y-87246032D01*
X131269075Y-87332823D01*
X131137459Y-87520449D01*
X130945895Y-87777239D01*
X130810300Y-87953057D01*
X130302599Y-88603666D01*
X131212466Y-88646000D01*
X132122334Y-88688333D01*
X132122334Y-89175321D01*
X132127282Y-89449566D01*
X132153883Y-89595096D01*
X132219771Y-89652482D01*
X132334000Y-89662309D01*
X132453200Y-89650924D01*
X132516453Y-89589722D01*
X132541396Y-89438133D01*
X132545667Y-89175321D01*
X132545667Y-88688333D01*
X133496991Y-88664404D01*
X134448315Y-88640476D01*
X133941491Y-88002691D01*
X133723087Y-87719208D01*
X133551928Y-87480596D01*
X133451399Y-87320345D01*
X133434667Y-87276893D01*
X133510477Y-87226185D01*
X133709322Y-87216395D01*
X133773334Y-87221177D01*
X133984683Y-87231523D01*
X134102496Y-87218233D01*
X134111324Y-87208904D01*
X134062501Y-87126523D01*
X133932558Y-86944169D01*
X133745306Y-86694770D01*
X133652269Y-86574050D01*
X133452637Y-86302924D01*
X133308089Y-86079224D01*
X133239968Y-85937312D01*
X133239639Y-85909745D01*
X133347471Y-85867119D01*
X133524889Y-85870875D01*
X133648076Y-85885706D01*
X133705984Y-85868948D01*
X133690614Y-85796167D01*
X133593970Y-85642926D01*
X133408052Y-85384790D01*
X133331665Y-85280500D01*
X133162415Y-85042089D01*
X133087808Y-84907843D01*
X133097833Y-84848803D01*
X133177996Y-84836000D01*
X133317216Y-84816761D01*
X133350000Y-84789585D01*
X133309375Y-84702630D01*
X133198922Y-84500941D01*
X133035776Y-84215083D01*
X132848096Y-83894261D01*
X132647988Y-83548649D01*
X132504247Y-83314173D01*
X132392940Y-83195508D01*
X132290136Y-83197330D01*
G04 #@! TD*
M02*
