G04 #@! TF.GenerationSoftware,KiCad,Pcbnew,(5.1.0)-1*
G04 #@! TF.CreationDate,2019-04-22T00:29:16-04:00*
G04 #@! TF.ProjectId,delay,64656c61-792e-46b6-9963-61645f706362,rev?*
G04 #@! TF.SameCoordinates,Original*
G04 #@! TF.FileFunction,Legend,Top*
G04 #@! TF.FilePolarity,Positive*
%FSLAX46Y46*%
G04 Gerber Fmt 4.6, Leading zero omitted, Abs format (unit mm)*
G04 Created by KiCad (PCBNEW (5.1.0)-1) date 2019-04-22 00:29:16*
%MOMM*%
%LPD*%
G04 APERTURE LIST*
%ADD10C,0.300000*%
%ADD11C,0.120000*%
%ADD12C,0.150000*%
G04 APERTURE END LIST*
D10*
X79311428Y-145141142D02*
X78168571Y-145141142D01*
D11*
X56836000Y-147634000D02*
X56836000Y-146304000D01*
X58166000Y-147634000D02*
X56836000Y-147634000D01*
X56836000Y-145034000D02*
X56836000Y-142434000D01*
X59436000Y-145034000D02*
X56836000Y-145034000D01*
X59436000Y-147634000D02*
X59436000Y-145034000D01*
X56836000Y-142434000D02*
X77276000Y-142434000D01*
X59436000Y-147634000D02*
X77276000Y-147634000D01*
X77276000Y-147634000D02*
X77276000Y-142434000D01*
X55506000Y-68012000D02*
X55506000Y-78292000D01*
X73526000Y-68012000D02*
X55506000Y-68012000D01*
X73526000Y-78292000D02*
X73526000Y-68012000D01*
X55506000Y-78292000D02*
X73526000Y-78292000D01*
X55566000Y-70502000D02*
X55566000Y-72152000D01*
X73466000Y-70502000D02*
X55566000Y-70502000D01*
X73466000Y-75802000D02*
X73466000Y-70502000D01*
X55566000Y-75802000D02*
X73466000Y-75802000D01*
X55566000Y-74152000D02*
X55566000Y-75802000D01*
X55566000Y-72152000D02*
G75*
G02X55566000Y-74152000I0J-1000000D01*
G01*
X66354000Y-110116000D02*
X56074000Y-110116000D01*
X66354000Y-130676000D02*
X66354000Y-110116000D01*
X56074000Y-130676000D02*
X66354000Y-130676000D01*
X56074000Y-110116000D02*
X56074000Y-130676000D01*
X63864000Y-110176000D02*
X62214000Y-110176000D01*
X63864000Y-130616000D02*
X63864000Y-110176000D01*
X58564000Y-130616000D02*
X63864000Y-130616000D01*
X58564000Y-110176000D02*
X58564000Y-130616000D01*
X60214000Y-110176000D02*
X58564000Y-110176000D01*
X62214000Y-110176000D02*
G75*
G02X60214000Y-110176000I-1000000J0D01*
G01*
X78590000Y-63920000D02*
X68650000Y-63920000D01*
X70250000Y-51680000D02*
X68650000Y-51680000D01*
X72749000Y-51680000D02*
X71990000Y-51680000D01*
X75249000Y-51680000D02*
X74490000Y-51680000D01*
X78590000Y-51680000D02*
X76991000Y-51680000D01*
X68650000Y-60055000D02*
X68650000Y-63920000D01*
X68650000Y-51680000D02*
X68650000Y-55545000D01*
X78590000Y-60055000D02*
X78590000Y-63920000D01*
X78590000Y-51680000D02*
X78590000Y-55545000D01*
X78590000Y-129960000D02*
X68650000Y-129960000D01*
X70250000Y-117720000D02*
X68650000Y-117720000D01*
X72749000Y-117720000D02*
X71990000Y-117720000D01*
X75249000Y-117720000D02*
X74490000Y-117720000D01*
X78590000Y-117720000D02*
X76991000Y-117720000D01*
X68650000Y-126095000D02*
X68650000Y-129960000D01*
X68650000Y-117720000D02*
X68650000Y-121585000D01*
X78590000Y-126095000D02*
X78590000Y-129960000D01*
X78590000Y-117720000D02*
X78590000Y-121585000D01*
X78844000Y-97194000D02*
X68904000Y-97194000D01*
X70504000Y-84954000D02*
X68904000Y-84954000D01*
X73003000Y-84954000D02*
X72244000Y-84954000D01*
X75503000Y-84954000D02*
X74744000Y-84954000D01*
X78844000Y-84954000D02*
X77245000Y-84954000D01*
X68904000Y-93329000D02*
X68904000Y-97194000D01*
X68904000Y-84954000D02*
X68904000Y-88819000D01*
X78844000Y-93329000D02*
X78844000Y-97194000D01*
X78844000Y-84954000D02*
X78844000Y-88819000D01*
X74014000Y-80264000D02*
X76624000Y-80264000D01*
X74014000Y-80264000D02*
G75*
G03X74014000Y-80264000I-1370000J0D01*
G01*
X78740000Y-69242000D02*
X78740000Y-66632000D01*
X80110000Y-70612000D02*
G75*
G03X80110000Y-70612000I-1370000J0D01*
G01*
X75438000Y-67410000D02*
X75438000Y-70020000D01*
X76808000Y-66040000D02*
G75*
G03X76808000Y-66040000I-1370000J0D01*
G01*
X53594000Y-72798000D02*
X53594000Y-70188000D01*
X54964000Y-74168000D02*
G75*
G03X54964000Y-74168000I-1370000J0D01*
G01*
X53594000Y-80672000D02*
X53594000Y-78062000D01*
X54964000Y-82042000D02*
G75*
G03X54964000Y-82042000I-1370000J0D01*
G01*
X60352000Y-80264000D02*
X57742000Y-80264000D01*
X63092000Y-80264000D02*
G75*
G03X63092000Y-80264000I-1370000J0D01*
G01*
X60960000Y-64670000D02*
X60960000Y-62060000D01*
X62330000Y-66040000D02*
G75*
G03X62330000Y-66040000I-1370000J0D01*
G01*
X72644000Y-102516000D02*
X72644000Y-99906000D01*
X74014000Y-103886000D02*
G75*
G03X74014000Y-103886000I-1370000J0D01*
G01*
X68934000Y-66040000D02*
X71544000Y-66040000D01*
X68934000Y-66040000D02*
G75*
G03X68934000Y-66040000I-1370000J0D01*
G01*
X69088000Y-102516000D02*
X69088000Y-99906000D01*
X70458000Y-103886000D02*
G75*
G03X70458000Y-103886000I-1370000J0D01*
G01*
X72136000Y-110390000D02*
X72136000Y-107780000D01*
X73506000Y-111760000D02*
G75*
G03X73506000Y-111760000I-1370000J0D01*
G01*
X75946000Y-108050000D02*
X75946000Y-110660000D01*
X77316000Y-106680000D02*
G75*
G03X77316000Y-106680000I-1370000J0D01*
G01*
X60352000Y-92710000D02*
X57742000Y-92710000D01*
X63092000Y-92710000D02*
G75*
G03X63092000Y-92710000I-1370000J0D01*
G01*
X53594000Y-96166000D02*
X53594000Y-93556000D01*
X54964000Y-97536000D02*
G75*
G03X54964000Y-97536000I-1370000J0D01*
G01*
X65024000Y-95404000D02*
X65024000Y-92794000D01*
X66394000Y-96774000D02*
G75*
G03X66394000Y-96774000I-1370000J0D01*
G01*
X52594000Y-105200000D02*
X52594000Y-104340000D01*
X52594000Y-105200000D02*
X53394000Y-105200000D01*
X61874000Y-104140000D02*
G75*
G03X61874000Y-104140000I-1800000J0D01*
G01*
X55574000Y-104490000D02*
X55574000Y-108640000D01*
X55574000Y-99640000D02*
X55574000Y-103790000D01*
X66074000Y-104640000D02*
X66074000Y-108640000D01*
X66074000Y-99640000D02*
X66074000Y-103640000D01*
X55574000Y-99640000D02*
X66074000Y-99640000D01*
X55574000Y-108640000D02*
X66074000Y-108640000D01*
X52340000Y-55670000D02*
X52340000Y-54810000D01*
X52340000Y-55670000D02*
X53140000Y-55670000D01*
X61620000Y-54610000D02*
G75*
G03X61620000Y-54610000I-1800000J0D01*
G01*
X55320000Y-54960000D02*
X55320000Y-59110000D01*
X55320000Y-50110000D02*
X55320000Y-54260000D01*
X65820000Y-55110000D02*
X65820000Y-59110000D01*
X65820000Y-50110000D02*
X65820000Y-54110000D01*
X55320000Y-50110000D02*
X65820000Y-50110000D01*
X55320000Y-59110000D02*
X65820000Y-59110000D01*
X74891000Y-103926000D02*
X74576000Y-103926000D01*
X77316000Y-103926000D02*
X77001000Y-103926000D01*
X74891000Y-98686000D02*
X74576000Y-98686000D01*
X77316000Y-98686000D02*
X77001000Y-98686000D01*
X74576000Y-98686000D02*
X74576000Y-103926000D01*
X77316000Y-98686000D02*
X77316000Y-103926000D01*
X80303000Y-106132000D02*
X80618000Y-106132000D01*
X77878000Y-106132000D02*
X78193000Y-106132000D01*
X80303000Y-111372000D02*
X80618000Y-111372000D01*
X77878000Y-111372000D02*
X78193000Y-111372000D01*
X80618000Y-111372000D02*
X80618000Y-106132000D01*
X77878000Y-111372000D02*
X77878000Y-106132000D01*
X69889000Y-106640000D02*
X70204000Y-106640000D01*
X67464000Y-106640000D02*
X67779000Y-106640000D01*
X69889000Y-111880000D02*
X70204000Y-111880000D01*
X67464000Y-111880000D02*
X67779000Y-111880000D01*
X70204000Y-111880000D02*
X70204000Y-106640000D01*
X67464000Y-111880000D02*
X67464000Y-106640000D01*
X80303000Y-98766000D02*
X80618000Y-98766000D01*
X77878000Y-98766000D02*
X78193000Y-98766000D01*
X80303000Y-104006000D02*
X80618000Y-104006000D01*
X77878000Y-104006000D02*
X78193000Y-104006000D01*
X80618000Y-104006000D02*
X80618000Y-98766000D01*
X77878000Y-104006000D02*
X77878000Y-98766000D01*
X77119241Y-138298000D02*
X77119241Y-137668000D01*
X77434241Y-137983000D02*
X76804241Y-137983000D01*
X70693000Y-136546000D02*
X70693000Y-135742000D01*
X70733000Y-136777000D02*
X70733000Y-135511000D01*
X70773000Y-136946000D02*
X70773000Y-135342000D01*
X70813000Y-137084000D02*
X70813000Y-135204000D01*
X70853000Y-137203000D02*
X70853000Y-135085000D01*
X70893000Y-137309000D02*
X70893000Y-134979000D01*
X70933000Y-137406000D02*
X70933000Y-134882000D01*
X70973000Y-137494000D02*
X70973000Y-134794000D01*
X71013000Y-137576000D02*
X71013000Y-134712000D01*
X71053000Y-137653000D02*
X71053000Y-134635000D01*
X71093000Y-137725000D02*
X71093000Y-134563000D01*
X71133000Y-137794000D02*
X71133000Y-134494000D01*
X71173000Y-137858000D02*
X71173000Y-134430000D01*
X71213000Y-137920000D02*
X71213000Y-134368000D01*
X71253000Y-137978000D02*
X71253000Y-134310000D01*
X71293000Y-138034000D02*
X71293000Y-134254000D01*
X71333000Y-138088000D02*
X71333000Y-134200000D01*
X71373000Y-138139000D02*
X71373000Y-134149000D01*
X71413000Y-138188000D02*
X71413000Y-134100000D01*
X71453000Y-138236000D02*
X71453000Y-134052000D01*
X71493000Y-138281000D02*
X71493000Y-134007000D01*
X71533000Y-138326000D02*
X71533000Y-133962000D01*
X71573000Y-138368000D02*
X71573000Y-133920000D01*
X71613000Y-138409000D02*
X71613000Y-133879000D01*
X71653000Y-135104000D02*
X71653000Y-133839000D01*
X71653000Y-138449000D02*
X71653000Y-137184000D01*
X71693000Y-135104000D02*
X71693000Y-133801000D01*
X71693000Y-138487000D02*
X71693000Y-137184000D01*
X71733000Y-135104000D02*
X71733000Y-133764000D01*
X71733000Y-138524000D02*
X71733000Y-137184000D01*
X71773000Y-135104000D02*
X71773000Y-133728000D01*
X71773000Y-138560000D02*
X71773000Y-137184000D01*
X71813000Y-135104000D02*
X71813000Y-133694000D01*
X71813000Y-138594000D02*
X71813000Y-137184000D01*
X71853000Y-135104000D02*
X71853000Y-133660000D01*
X71853000Y-138628000D02*
X71853000Y-137184000D01*
X71893000Y-135104000D02*
X71893000Y-133628000D01*
X71893000Y-138660000D02*
X71893000Y-137184000D01*
X71933000Y-135104000D02*
X71933000Y-133596000D01*
X71933000Y-138692000D02*
X71933000Y-137184000D01*
X71973000Y-135104000D02*
X71973000Y-133566000D01*
X71973000Y-138722000D02*
X71973000Y-137184000D01*
X72013000Y-135104000D02*
X72013000Y-133537000D01*
X72013000Y-138751000D02*
X72013000Y-137184000D01*
X72053000Y-135104000D02*
X72053000Y-133508000D01*
X72053000Y-138780000D02*
X72053000Y-137184000D01*
X72093000Y-135104000D02*
X72093000Y-133480000D01*
X72093000Y-138808000D02*
X72093000Y-137184000D01*
X72133000Y-135104000D02*
X72133000Y-133454000D01*
X72133000Y-138834000D02*
X72133000Y-137184000D01*
X72173000Y-135104000D02*
X72173000Y-133428000D01*
X72173000Y-138860000D02*
X72173000Y-137184000D01*
X72213000Y-135104000D02*
X72213000Y-133402000D01*
X72213000Y-138886000D02*
X72213000Y-137184000D01*
X72253000Y-135104000D02*
X72253000Y-133378000D01*
X72253000Y-138910000D02*
X72253000Y-137184000D01*
X72293000Y-135104000D02*
X72293000Y-133354000D01*
X72293000Y-138934000D02*
X72293000Y-137184000D01*
X72333000Y-135104000D02*
X72333000Y-133332000D01*
X72333000Y-138956000D02*
X72333000Y-137184000D01*
X72373000Y-135104000D02*
X72373000Y-133310000D01*
X72373000Y-138978000D02*
X72373000Y-137184000D01*
X72413000Y-135104000D02*
X72413000Y-133288000D01*
X72413000Y-139000000D02*
X72413000Y-137184000D01*
X72453000Y-135104000D02*
X72453000Y-133268000D01*
X72453000Y-139020000D02*
X72453000Y-137184000D01*
X72493000Y-135104000D02*
X72493000Y-133248000D01*
X72493000Y-139040000D02*
X72493000Y-137184000D01*
X72533000Y-135104000D02*
X72533000Y-133228000D01*
X72533000Y-139060000D02*
X72533000Y-137184000D01*
X72573000Y-135104000D02*
X72573000Y-133210000D01*
X72573000Y-139078000D02*
X72573000Y-137184000D01*
X72613000Y-135104000D02*
X72613000Y-133192000D01*
X72613000Y-139096000D02*
X72613000Y-137184000D01*
X72653000Y-135104000D02*
X72653000Y-133174000D01*
X72653000Y-139114000D02*
X72653000Y-137184000D01*
X72693000Y-135104000D02*
X72693000Y-133158000D01*
X72693000Y-139130000D02*
X72693000Y-137184000D01*
X72733000Y-135104000D02*
X72733000Y-133142000D01*
X72733000Y-139146000D02*
X72733000Y-137184000D01*
X72773000Y-135104000D02*
X72773000Y-133126000D01*
X72773000Y-139162000D02*
X72773000Y-137184000D01*
X72813000Y-135104000D02*
X72813000Y-133111000D01*
X72813000Y-139177000D02*
X72813000Y-137184000D01*
X72853000Y-135104000D02*
X72853000Y-133097000D01*
X72853000Y-139191000D02*
X72853000Y-137184000D01*
X72893000Y-135104000D02*
X72893000Y-133083000D01*
X72893000Y-139205000D02*
X72893000Y-137184000D01*
X72933000Y-135104000D02*
X72933000Y-133070000D01*
X72933000Y-139218000D02*
X72933000Y-137184000D01*
X72973000Y-135104000D02*
X72973000Y-133058000D01*
X72973000Y-139230000D02*
X72973000Y-137184000D01*
X73013000Y-135104000D02*
X73013000Y-133046000D01*
X73013000Y-139242000D02*
X73013000Y-137184000D01*
X73053000Y-135104000D02*
X73053000Y-133034000D01*
X73053000Y-139254000D02*
X73053000Y-137184000D01*
X73093000Y-135104000D02*
X73093000Y-133023000D01*
X73093000Y-139265000D02*
X73093000Y-137184000D01*
X73133000Y-135104000D02*
X73133000Y-133013000D01*
X73133000Y-139275000D02*
X73133000Y-137184000D01*
X73173000Y-135104000D02*
X73173000Y-133003000D01*
X73173000Y-139285000D02*
X73173000Y-137184000D01*
X73213000Y-135104000D02*
X73213000Y-132994000D01*
X73213000Y-139294000D02*
X73213000Y-137184000D01*
X73254000Y-135104000D02*
X73254000Y-132985000D01*
X73254000Y-139303000D02*
X73254000Y-137184000D01*
X73294000Y-135104000D02*
X73294000Y-132977000D01*
X73294000Y-139311000D02*
X73294000Y-137184000D01*
X73334000Y-135104000D02*
X73334000Y-132969000D01*
X73334000Y-139319000D02*
X73334000Y-137184000D01*
X73374000Y-135104000D02*
X73374000Y-132962000D01*
X73374000Y-139326000D02*
X73374000Y-137184000D01*
X73414000Y-135104000D02*
X73414000Y-132955000D01*
X73414000Y-139333000D02*
X73414000Y-137184000D01*
X73454000Y-135104000D02*
X73454000Y-132949000D01*
X73454000Y-139339000D02*
X73454000Y-137184000D01*
X73494000Y-135104000D02*
X73494000Y-132943000D01*
X73494000Y-139345000D02*
X73494000Y-137184000D01*
X73534000Y-135104000D02*
X73534000Y-132938000D01*
X73534000Y-139350000D02*
X73534000Y-137184000D01*
X73574000Y-135104000D02*
X73574000Y-132933000D01*
X73574000Y-139355000D02*
X73574000Y-137184000D01*
X73614000Y-135104000D02*
X73614000Y-132929000D01*
X73614000Y-139359000D02*
X73614000Y-137184000D01*
X73654000Y-135104000D02*
X73654000Y-132926000D01*
X73654000Y-139362000D02*
X73654000Y-137184000D01*
X73694000Y-135104000D02*
X73694000Y-132922000D01*
X73694000Y-139366000D02*
X73694000Y-137184000D01*
X73734000Y-139368000D02*
X73734000Y-132920000D01*
X73774000Y-139371000D02*
X73774000Y-132917000D01*
X73814000Y-139372000D02*
X73814000Y-132916000D01*
X73854000Y-139374000D02*
X73854000Y-132914000D01*
X73894000Y-139374000D02*
X73894000Y-132914000D01*
X73934000Y-139374000D02*
X73934000Y-132914000D01*
X77204000Y-136144000D02*
G75*
G03X77204000Y-136144000I-3270000J0D01*
G01*
X63969000Y-137200000D02*
X63654000Y-137200000D01*
X66394000Y-137200000D02*
X66079000Y-137200000D01*
X63969000Y-131960000D02*
X63654000Y-131960000D01*
X66394000Y-131960000D02*
X66079000Y-131960000D01*
X63654000Y-131960000D02*
X63654000Y-137200000D01*
X66394000Y-131960000D02*
X66394000Y-137200000D01*
X61762000Y-97067000D02*
X61762000Y-97382000D01*
X61762000Y-94642000D02*
X61762000Y-94957000D01*
X56522000Y-97067000D02*
X56522000Y-97382000D01*
X56522000Y-94642000D02*
X56522000Y-94957000D01*
X56522000Y-97382000D02*
X61762000Y-97382000D01*
X56522000Y-94642000D02*
X61762000Y-94642000D01*
X54649000Y-84796000D02*
X54964000Y-84796000D01*
X52224000Y-84796000D02*
X52539000Y-84796000D01*
X54649000Y-90036000D02*
X54964000Y-90036000D01*
X52224000Y-90036000D02*
X52539000Y-90036000D01*
X54964000Y-90036000D02*
X54964000Y-84796000D01*
X52224000Y-90036000D02*
X52224000Y-84796000D01*
X52420759Y-61600000D02*
X52420759Y-62230000D01*
X52105759Y-61915000D02*
X52735759Y-61915000D01*
X58847000Y-63352000D02*
X58847000Y-64156000D01*
X58807000Y-63121000D02*
X58807000Y-64387000D01*
X58767000Y-62952000D02*
X58767000Y-64556000D01*
X58727000Y-62814000D02*
X58727000Y-64694000D01*
X58687000Y-62695000D02*
X58687000Y-64813000D01*
X58647000Y-62589000D02*
X58647000Y-64919000D01*
X58607000Y-62492000D02*
X58607000Y-65016000D01*
X58567000Y-62404000D02*
X58567000Y-65104000D01*
X58527000Y-62322000D02*
X58527000Y-65186000D01*
X58487000Y-62245000D02*
X58487000Y-65263000D01*
X58447000Y-62173000D02*
X58447000Y-65335000D01*
X58407000Y-62104000D02*
X58407000Y-65404000D01*
X58367000Y-62040000D02*
X58367000Y-65468000D01*
X58327000Y-61978000D02*
X58327000Y-65530000D01*
X58287000Y-61920000D02*
X58287000Y-65588000D01*
X58247000Y-61864000D02*
X58247000Y-65644000D01*
X58207000Y-61810000D02*
X58207000Y-65698000D01*
X58167000Y-61759000D02*
X58167000Y-65749000D01*
X58127000Y-61710000D02*
X58127000Y-65798000D01*
X58087000Y-61662000D02*
X58087000Y-65846000D01*
X58047000Y-61617000D02*
X58047000Y-65891000D01*
X58007000Y-61572000D02*
X58007000Y-65936000D01*
X57967000Y-61530000D02*
X57967000Y-65978000D01*
X57927000Y-61489000D02*
X57927000Y-66019000D01*
X57887000Y-64794000D02*
X57887000Y-66059000D01*
X57887000Y-61449000D02*
X57887000Y-62714000D01*
X57847000Y-64794000D02*
X57847000Y-66097000D01*
X57847000Y-61411000D02*
X57847000Y-62714000D01*
X57807000Y-64794000D02*
X57807000Y-66134000D01*
X57807000Y-61374000D02*
X57807000Y-62714000D01*
X57767000Y-64794000D02*
X57767000Y-66170000D01*
X57767000Y-61338000D02*
X57767000Y-62714000D01*
X57727000Y-64794000D02*
X57727000Y-66204000D01*
X57727000Y-61304000D02*
X57727000Y-62714000D01*
X57687000Y-64794000D02*
X57687000Y-66238000D01*
X57687000Y-61270000D02*
X57687000Y-62714000D01*
X57647000Y-64794000D02*
X57647000Y-66270000D01*
X57647000Y-61238000D02*
X57647000Y-62714000D01*
X57607000Y-64794000D02*
X57607000Y-66302000D01*
X57607000Y-61206000D02*
X57607000Y-62714000D01*
X57567000Y-64794000D02*
X57567000Y-66332000D01*
X57567000Y-61176000D02*
X57567000Y-62714000D01*
X57527000Y-64794000D02*
X57527000Y-66361000D01*
X57527000Y-61147000D02*
X57527000Y-62714000D01*
X57487000Y-64794000D02*
X57487000Y-66390000D01*
X57487000Y-61118000D02*
X57487000Y-62714000D01*
X57447000Y-64794000D02*
X57447000Y-66418000D01*
X57447000Y-61090000D02*
X57447000Y-62714000D01*
X57407000Y-64794000D02*
X57407000Y-66444000D01*
X57407000Y-61064000D02*
X57407000Y-62714000D01*
X57367000Y-64794000D02*
X57367000Y-66470000D01*
X57367000Y-61038000D02*
X57367000Y-62714000D01*
X57327000Y-64794000D02*
X57327000Y-66496000D01*
X57327000Y-61012000D02*
X57327000Y-62714000D01*
X57287000Y-64794000D02*
X57287000Y-66520000D01*
X57287000Y-60988000D02*
X57287000Y-62714000D01*
X57247000Y-64794000D02*
X57247000Y-66544000D01*
X57247000Y-60964000D02*
X57247000Y-62714000D01*
X57207000Y-64794000D02*
X57207000Y-66566000D01*
X57207000Y-60942000D02*
X57207000Y-62714000D01*
X57167000Y-64794000D02*
X57167000Y-66588000D01*
X57167000Y-60920000D02*
X57167000Y-62714000D01*
X57127000Y-64794000D02*
X57127000Y-66610000D01*
X57127000Y-60898000D02*
X57127000Y-62714000D01*
X57087000Y-64794000D02*
X57087000Y-66630000D01*
X57087000Y-60878000D02*
X57087000Y-62714000D01*
X57047000Y-64794000D02*
X57047000Y-66650000D01*
X57047000Y-60858000D02*
X57047000Y-62714000D01*
X57007000Y-64794000D02*
X57007000Y-66670000D01*
X57007000Y-60838000D02*
X57007000Y-62714000D01*
X56967000Y-64794000D02*
X56967000Y-66688000D01*
X56967000Y-60820000D02*
X56967000Y-62714000D01*
X56927000Y-64794000D02*
X56927000Y-66706000D01*
X56927000Y-60802000D02*
X56927000Y-62714000D01*
X56887000Y-64794000D02*
X56887000Y-66724000D01*
X56887000Y-60784000D02*
X56887000Y-62714000D01*
X56847000Y-64794000D02*
X56847000Y-66740000D01*
X56847000Y-60768000D02*
X56847000Y-62714000D01*
X56807000Y-64794000D02*
X56807000Y-66756000D01*
X56807000Y-60752000D02*
X56807000Y-62714000D01*
X56767000Y-64794000D02*
X56767000Y-66772000D01*
X56767000Y-60736000D02*
X56767000Y-62714000D01*
X56727000Y-64794000D02*
X56727000Y-66787000D01*
X56727000Y-60721000D02*
X56727000Y-62714000D01*
X56687000Y-64794000D02*
X56687000Y-66801000D01*
X56687000Y-60707000D02*
X56687000Y-62714000D01*
X56647000Y-64794000D02*
X56647000Y-66815000D01*
X56647000Y-60693000D02*
X56647000Y-62714000D01*
X56607000Y-64794000D02*
X56607000Y-66828000D01*
X56607000Y-60680000D02*
X56607000Y-62714000D01*
X56567000Y-64794000D02*
X56567000Y-66840000D01*
X56567000Y-60668000D02*
X56567000Y-62714000D01*
X56527000Y-64794000D02*
X56527000Y-66852000D01*
X56527000Y-60656000D02*
X56527000Y-62714000D01*
X56487000Y-64794000D02*
X56487000Y-66864000D01*
X56487000Y-60644000D02*
X56487000Y-62714000D01*
X56447000Y-64794000D02*
X56447000Y-66875000D01*
X56447000Y-60633000D02*
X56447000Y-62714000D01*
X56407000Y-64794000D02*
X56407000Y-66885000D01*
X56407000Y-60623000D02*
X56407000Y-62714000D01*
X56367000Y-64794000D02*
X56367000Y-66895000D01*
X56367000Y-60613000D02*
X56367000Y-62714000D01*
X56327000Y-64794000D02*
X56327000Y-66904000D01*
X56327000Y-60604000D02*
X56327000Y-62714000D01*
X56286000Y-64794000D02*
X56286000Y-66913000D01*
X56286000Y-60595000D02*
X56286000Y-62714000D01*
X56246000Y-64794000D02*
X56246000Y-66921000D01*
X56246000Y-60587000D02*
X56246000Y-62714000D01*
X56206000Y-64794000D02*
X56206000Y-66929000D01*
X56206000Y-60579000D02*
X56206000Y-62714000D01*
X56166000Y-64794000D02*
X56166000Y-66936000D01*
X56166000Y-60572000D02*
X56166000Y-62714000D01*
X56126000Y-64794000D02*
X56126000Y-66943000D01*
X56126000Y-60565000D02*
X56126000Y-62714000D01*
X56086000Y-64794000D02*
X56086000Y-66949000D01*
X56086000Y-60559000D02*
X56086000Y-62714000D01*
X56046000Y-64794000D02*
X56046000Y-66955000D01*
X56046000Y-60553000D02*
X56046000Y-62714000D01*
X56006000Y-64794000D02*
X56006000Y-66960000D01*
X56006000Y-60548000D02*
X56006000Y-62714000D01*
X55966000Y-64794000D02*
X55966000Y-66965000D01*
X55966000Y-60543000D02*
X55966000Y-62714000D01*
X55926000Y-64794000D02*
X55926000Y-66969000D01*
X55926000Y-60539000D02*
X55926000Y-62714000D01*
X55886000Y-64794000D02*
X55886000Y-66972000D01*
X55886000Y-60536000D02*
X55886000Y-62714000D01*
X55846000Y-64794000D02*
X55846000Y-66976000D01*
X55846000Y-60532000D02*
X55846000Y-62714000D01*
X55806000Y-60530000D02*
X55806000Y-66978000D01*
X55766000Y-60527000D02*
X55766000Y-66981000D01*
X55726000Y-60526000D02*
X55726000Y-66982000D01*
X55686000Y-60524000D02*
X55686000Y-66984000D01*
X55646000Y-60524000D02*
X55646000Y-66984000D01*
X55606000Y-60524000D02*
X55606000Y-66984000D01*
X58876000Y-63754000D02*
G75*
G03X58876000Y-63754000I-3270000J0D01*
G01*
X65317000Y-61174000D02*
X65632000Y-61174000D01*
X62892000Y-61174000D02*
X63207000Y-61174000D01*
X65317000Y-66414000D02*
X65632000Y-66414000D01*
X62892000Y-66414000D02*
X63207000Y-66414000D01*
X65632000Y-66414000D02*
X65632000Y-61174000D01*
X62892000Y-66414000D02*
X62892000Y-61174000D01*
X69890000Y-81319000D02*
X69890000Y-81634000D01*
X69890000Y-78894000D02*
X69890000Y-79209000D01*
X64650000Y-81319000D02*
X64650000Y-81634000D01*
X64650000Y-78894000D02*
X64650000Y-79209000D01*
X64650000Y-81634000D02*
X69890000Y-81634000D01*
X64650000Y-78894000D02*
X69890000Y-78894000D01*
X54649000Y-133564000D02*
X54964000Y-133564000D01*
X52224000Y-133564000D02*
X52539000Y-133564000D01*
X54649000Y-138804000D02*
X54964000Y-138804000D01*
X52224000Y-138804000D02*
X52539000Y-138804000D01*
X54964000Y-138804000D02*
X54964000Y-133564000D01*
X52224000Y-138804000D02*
X52224000Y-133564000D01*
X52539000Y-115864000D02*
X52224000Y-115864000D01*
X54964000Y-115864000D02*
X54649000Y-115864000D01*
X52539000Y-110624000D02*
X52224000Y-110624000D01*
X54964000Y-110624000D02*
X54649000Y-110624000D01*
X52224000Y-110624000D02*
X52224000Y-115864000D01*
X54964000Y-110624000D02*
X54964000Y-115864000D01*
X61590000Y-131414759D02*
X60960000Y-131414759D01*
X61275000Y-131099759D02*
X61275000Y-131729759D01*
X59838000Y-137841000D02*
X59034000Y-137841000D01*
X60069000Y-137801000D02*
X58803000Y-137801000D01*
X60238000Y-137761000D02*
X58634000Y-137761000D01*
X60376000Y-137721000D02*
X58496000Y-137721000D01*
X60495000Y-137681000D02*
X58377000Y-137681000D01*
X60601000Y-137641000D02*
X58271000Y-137641000D01*
X60698000Y-137601000D02*
X58174000Y-137601000D01*
X60786000Y-137561000D02*
X58086000Y-137561000D01*
X60868000Y-137521000D02*
X58004000Y-137521000D01*
X60945000Y-137481000D02*
X57927000Y-137481000D01*
X61017000Y-137441000D02*
X57855000Y-137441000D01*
X61086000Y-137401000D02*
X57786000Y-137401000D01*
X61150000Y-137361000D02*
X57722000Y-137361000D01*
X61212000Y-137321000D02*
X57660000Y-137321000D01*
X61270000Y-137281000D02*
X57602000Y-137281000D01*
X61326000Y-137241000D02*
X57546000Y-137241000D01*
X61380000Y-137201000D02*
X57492000Y-137201000D01*
X61431000Y-137161000D02*
X57441000Y-137161000D01*
X61480000Y-137121000D02*
X57392000Y-137121000D01*
X61528000Y-137081000D02*
X57344000Y-137081000D01*
X61573000Y-137041000D02*
X57299000Y-137041000D01*
X61618000Y-137001000D02*
X57254000Y-137001000D01*
X61660000Y-136961000D02*
X57212000Y-136961000D01*
X61701000Y-136921000D02*
X57171000Y-136921000D01*
X58396000Y-136881000D02*
X57131000Y-136881000D01*
X61741000Y-136881000D02*
X60476000Y-136881000D01*
X58396000Y-136841000D02*
X57093000Y-136841000D01*
X61779000Y-136841000D02*
X60476000Y-136841000D01*
X58396000Y-136801000D02*
X57056000Y-136801000D01*
X61816000Y-136801000D02*
X60476000Y-136801000D01*
X58396000Y-136761000D02*
X57020000Y-136761000D01*
X61852000Y-136761000D02*
X60476000Y-136761000D01*
X58396000Y-136721000D02*
X56986000Y-136721000D01*
X61886000Y-136721000D02*
X60476000Y-136721000D01*
X58396000Y-136681000D02*
X56952000Y-136681000D01*
X61920000Y-136681000D02*
X60476000Y-136681000D01*
X58396000Y-136641000D02*
X56920000Y-136641000D01*
X61952000Y-136641000D02*
X60476000Y-136641000D01*
X58396000Y-136601000D02*
X56888000Y-136601000D01*
X61984000Y-136601000D02*
X60476000Y-136601000D01*
X58396000Y-136561000D02*
X56858000Y-136561000D01*
X62014000Y-136561000D02*
X60476000Y-136561000D01*
X58396000Y-136521000D02*
X56829000Y-136521000D01*
X62043000Y-136521000D02*
X60476000Y-136521000D01*
X58396000Y-136481000D02*
X56800000Y-136481000D01*
X62072000Y-136481000D02*
X60476000Y-136481000D01*
X58396000Y-136441000D02*
X56772000Y-136441000D01*
X62100000Y-136441000D02*
X60476000Y-136441000D01*
X58396000Y-136401000D02*
X56746000Y-136401000D01*
X62126000Y-136401000D02*
X60476000Y-136401000D01*
X58396000Y-136361000D02*
X56720000Y-136361000D01*
X62152000Y-136361000D02*
X60476000Y-136361000D01*
X58396000Y-136321000D02*
X56694000Y-136321000D01*
X62178000Y-136321000D02*
X60476000Y-136321000D01*
X58396000Y-136281000D02*
X56670000Y-136281000D01*
X62202000Y-136281000D02*
X60476000Y-136281000D01*
X58396000Y-136241000D02*
X56646000Y-136241000D01*
X62226000Y-136241000D02*
X60476000Y-136241000D01*
X58396000Y-136201000D02*
X56624000Y-136201000D01*
X62248000Y-136201000D02*
X60476000Y-136201000D01*
X58396000Y-136161000D02*
X56602000Y-136161000D01*
X62270000Y-136161000D02*
X60476000Y-136161000D01*
X58396000Y-136121000D02*
X56580000Y-136121000D01*
X62292000Y-136121000D02*
X60476000Y-136121000D01*
X58396000Y-136081000D02*
X56560000Y-136081000D01*
X62312000Y-136081000D02*
X60476000Y-136081000D01*
X58396000Y-136041000D02*
X56540000Y-136041000D01*
X62332000Y-136041000D02*
X60476000Y-136041000D01*
X58396000Y-136001000D02*
X56520000Y-136001000D01*
X62352000Y-136001000D02*
X60476000Y-136001000D01*
X58396000Y-135961000D02*
X56502000Y-135961000D01*
X62370000Y-135961000D02*
X60476000Y-135961000D01*
X58396000Y-135921000D02*
X56484000Y-135921000D01*
X62388000Y-135921000D02*
X60476000Y-135921000D01*
X58396000Y-135881000D02*
X56466000Y-135881000D01*
X62406000Y-135881000D02*
X60476000Y-135881000D01*
X58396000Y-135841000D02*
X56450000Y-135841000D01*
X62422000Y-135841000D02*
X60476000Y-135841000D01*
X58396000Y-135801000D02*
X56434000Y-135801000D01*
X62438000Y-135801000D02*
X60476000Y-135801000D01*
X58396000Y-135761000D02*
X56418000Y-135761000D01*
X62454000Y-135761000D02*
X60476000Y-135761000D01*
X58396000Y-135721000D02*
X56403000Y-135721000D01*
X62469000Y-135721000D02*
X60476000Y-135721000D01*
X58396000Y-135681000D02*
X56389000Y-135681000D01*
X62483000Y-135681000D02*
X60476000Y-135681000D01*
X58396000Y-135641000D02*
X56375000Y-135641000D01*
X62497000Y-135641000D02*
X60476000Y-135641000D01*
X58396000Y-135601000D02*
X56362000Y-135601000D01*
X62510000Y-135601000D02*
X60476000Y-135601000D01*
X58396000Y-135561000D02*
X56350000Y-135561000D01*
X62522000Y-135561000D02*
X60476000Y-135561000D01*
X58396000Y-135521000D02*
X56338000Y-135521000D01*
X62534000Y-135521000D02*
X60476000Y-135521000D01*
X58396000Y-135481000D02*
X56326000Y-135481000D01*
X62546000Y-135481000D02*
X60476000Y-135481000D01*
X58396000Y-135441000D02*
X56315000Y-135441000D01*
X62557000Y-135441000D02*
X60476000Y-135441000D01*
X58396000Y-135401000D02*
X56305000Y-135401000D01*
X62567000Y-135401000D02*
X60476000Y-135401000D01*
X58396000Y-135361000D02*
X56295000Y-135361000D01*
X62577000Y-135361000D02*
X60476000Y-135361000D01*
X58396000Y-135321000D02*
X56286000Y-135321000D01*
X62586000Y-135321000D02*
X60476000Y-135321000D01*
X58396000Y-135280000D02*
X56277000Y-135280000D01*
X62595000Y-135280000D02*
X60476000Y-135280000D01*
X58396000Y-135240000D02*
X56269000Y-135240000D01*
X62603000Y-135240000D02*
X60476000Y-135240000D01*
X58396000Y-135200000D02*
X56261000Y-135200000D01*
X62611000Y-135200000D02*
X60476000Y-135200000D01*
X58396000Y-135160000D02*
X56254000Y-135160000D01*
X62618000Y-135160000D02*
X60476000Y-135160000D01*
X58396000Y-135120000D02*
X56247000Y-135120000D01*
X62625000Y-135120000D02*
X60476000Y-135120000D01*
X58396000Y-135080000D02*
X56241000Y-135080000D01*
X62631000Y-135080000D02*
X60476000Y-135080000D01*
X58396000Y-135040000D02*
X56235000Y-135040000D01*
X62637000Y-135040000D02*
X60476000Y-135040000D01*
X58396000Y-135000000D02*
X56230000Y-135000000D01*
X62642000Y-135000000D02*
X60476000Y-135000000D01*
X58396000Y-134960000D02*
X56225000Y-134960000D01*
X62647000Y-134960000D02*
X60476000Y-134960000D01*
X58396000Y-134920000D02*
X56221000Y-134920000D01*
X62651000Y-134920000D02*
X60476000Y-134920000D01*
X58396000Y-134880000D02*
X56218000Y-134880000D01*
X62654000Y-134880000D02*
X60476000Y-134880000D01*
X58396000Y-134840000D02*
X56214000Y-134840000D01*
X62658000Y-134840000D02*
X60476000Y-134840000D01*
X62660000Y-134800000D02*
X56212000Y-134800000D01*
X62663000Y-134760000D02*
X56209000Y-134760000D01*
X62664000Y-134720000D02*
X56208000Y-134720000D01*
X62666000Y-134680000D02*
X56206000Y-134680000D01*
X62666000Y-134640000D02*
X56206000Y-134640000D01*
X62666000Y-134600000D02*
X56206000Y-134600000D01*
X62706000Y-134600000D02*
G75*
G03X62706000Y-134600000I-3270000J0D01*
G01*
X54649000Y-125944000D02*
X54964000Y-125944000D01*
X52224000Y-125944000D02*
X52539000Y-125944000D01*
X54649000Y-131184000D02*
X54964000Y-131184000D01*
X52224000Y-131184000D02*
X52539000Y-131184000D01*
X54964000Y-131184000D02*
X54964000Y-125944000D01*
X52224000Y-131184000D02*
X52224000Y-125944000D01*
X59060000Y-89565241D02*
X59690000Y-89565241D01*
X59375000Y-89880241D02*
X59375000Y-89250241D01*
X60812000Y-83139000D02*
X61616000Y-83139000D01*
X60581000Y-83179000D02*
X61847000Y-83179000D01*
X60412000Y-83219000D02*
X62016000Y-83219000D01*
X60274000Y-83259000D02*
X62154000Y-83259000D01*
X60155000Y-83299000D02*
X62273000Y-83299000D01*
X60049000Y-83339000D02*
X62379000Y-83339000D01*
X59952000Y-83379000D02*
X62476000Y-83379000D01*
X59864000Y-83419000D02*
X62564000Y-83419000D01*
X59782000Y-83459000D02*
X62646000Y-83459000D01*
X59705000Y-83499000D02*
X62723000Y-83499000D01*
X59633000Y-83539000D02*
X62795000Y-83539000D01*
X59564000Y-83579000D02*
X62864000Y-83579000D01*
X59500000Y-83619000D02*
X62928000Y-83619000D01*
X59438000Y-83659000D02*
X62990000Y-83659000D01*
X59380000Y-83699000D02*
X63048000Y-83699000D01*
X59324000Y-83739000D02*
X63104000Y-83739000D01*
X59270000Y-83779000D02*
X63158000Y-83779000D01*
X59219000Y-83819000D02*
X63209000Y-83819000D01*
X59170000Y-83859000D02*
X63258000Y-83859000D01*
X59122000Y-83899000D02*
X63306000Y-83899000D01*
X59077000Y-83939000D02*
X63351000Y-83939000D01*
X59032000Y-83979000D02*
X63396000Y-83979000D01*
X58990000Y-84019000D02*
X63438000Y-84019000D01*
X58949000Y-84059000D02*
X63479000Y-84059000D01*
X62254000Y-84099000D02*
X63519000Y-84099000D01*
X58909000Y-84099000D02*
X60174000Y-84099000D01*
X62254000Y-84139000D02*
X63557000Y-84139000D01*
X58871000Y-84139000D02*
X60174000Y-84139000D01*
X62254000Y-84179000D02*
X63594000Y-84179000D01*
X58834000Y-84179000D02*
X60174000Y-84179000D01*
X62254000Y-84219000D02*
X63630000Y-84219000D01*
X58798000Y-84219000D02*
X60174000Y-84219000D01*
X62254000Y-84259000D02*
X63664000Y-84259000D01*
X58764000Y-84259000D02*
X60174000Y-84259000D01*
X62254000Y-84299000D02*
X63698000Y-84299000D01*
X58730000Y-84299000D02*
X60174000Y-84299000D01*
X62254000Y-84339000D02*
X63730000Y-84339000D01*
X58698000Y-84339000D02*
X60174000Y-84339000D01*
X62254000Y-84379000D02*
X63762000Y-84379000D01*
X58666000Y-84379000D02*
X60174000Y-84379000D01*
X62254000Y-84419000D02*
X63792000Y-84419000D01*
X58636000Y-84419000D02*
X60174000Y-84419000D01*
X62254000Y-84459000D02*
X63821000Y-84459000D01*
X58607000Y-84459000D02*
X60174000Y-84459000D01*
X62254000Y-84499000D02*
X63850000Y-84499000D01*
X58578000Y-84499000D02*
X60174000Y-84499000D01*
X62254000Y-84539000D02*
X63878000Y-84539000D01*
X58550000Y-84539000D02*
X60174000Y-84539000D01*
X62254000Y-84579000D02*
X63904000Y-84579000D01*
X58524000Y-84579000D02*
X60174000Y-84579000D01*
X62254000Y-84619000D02*
X63930000Y-84619000D01*
X58498000Y-84619000D02*
X60174000Y-84619000D01*
X62254000Y-84659000D02*
X63956000Y-84659000D01*
X58472000Y-84659000D02*
X60174000Y-84659000D01*
X62254000Y-84699000D02*
X63980000Y-84699000D01*
X58448000Y-84699000D02*
X60174000Y-84699000D01*
X62254000Y-84739000D02*
X64004000Y-84739000D01*
X58424000Y-84739000D02*
X60174000Y-84739000D01*
X62254000Y-84779000D02*
X64026000Y-84779000D01*
X58402000Y-84779000D02*
X60174000Y-84779000D01*
X62254000Y-84819000D02*
X64048000Y-84819000D01*
X58380000Y-84819000D02*
X60174000Y-84819000D01*
X62254000Y-84859000D02*
X64070000Y-84859000D01*
X58358000Y-84859000D02*
X60174000Y-84859000D01*
X62254000Y-84899000D02*
X64090000Y-84899000D01*
X58338000Y-84899000D02*
X60174000Y-84899000D01*
X62254000Y-84939000D02*
X64110000Y-84939000D01*
X58318000Y-84939000D02*
X60174000Y-84939000D01*
X62254000Y-84979000D02*
X64130000Y-84979000D01*
X58298000Y-84979000D02*
X60174000Y-84979000D01*
X62254000Y-85019000D02*
X64148000Y-85019000D01*
X58280000Y-85019000D02*
X60174000Y-85019000D01*
X62254000Y-85059000D02*
X64166000Y-85059000D01*
X58262000Y-85059000D02*
X60174000Y-85059000D01*
X62254000Y-85099000D02*
X64184000Y-85099000D01*
X58244000Y-85099000D02*
X60174000Y-85099000D01*
X62254000Y-85139000D02*
X64200000Y-85139000D01*
X58228000Y-85139000D02*
X60174000Y-85139000D01*
X62254000Y-85179000D02*
X64216000Y-85179000D01*
X58212000Y-85179000D02*
X60174000Y-85179000D01*
X62254000Y-85219000D02*
X64232000Y-85219000D01*
X58196000Y-85219000D02*
X60174000Y-85219000D01*
X62254000Y-85259000D02*
X64247000Y-85259000D01*
X58181000Y-85259000D02*
X60174000Y-85259000D01*
X62254000Y-85299000D02*
X64261000Y-85299000D01*
X58167000Y-85299000D02*
X60174000Y-85299000D01*
X62254000Y-85339000D02*
X64275000Y-85339000D01*
X58153000Y-85339000D02*
X60174000Y-85339000D01*
X62254000Y-85379000D02*
X64288000Y-85379000D01*
X58140000Y-85379000D02*
X60174000Y-85379000D01*
X62254000Y-85419000D02*
X64300000Y-85419000D01*
X58128000Y-85419000D02*
X60174000Y-85419000D01*
X62254000Y-85459000D02*
X64312000Y-85459000D01*
X58116000Y-85459000D02*
X60174000Y-85459000D01*
X62254000Y-85499000D02*
X64324000Y-85499000D01*
X58104000Y-85499000D02*
X60174000Y-85499000D01*
X62254000Y-85539000D02*
X64335000Y-85539000D01*
X58093000Y-85539000D02*
X60174000Y-85539000D01*
X62254000Y-85579000D02*
X64345000Y-85579000D01*
X58083000Y-85579000D02*
X60174000Y-85579000D01*
X62254000Y-85619000D02*
X64355000Y-85619000D01*
X58073000Y-85619000D02*
X60174000Y-85619000D01*
X62254000Y-85659000D02*
X64364000Y-85659000D01*
X58064000Y-85659000D02*
X60174000Y-85659000D01*
X62254000Y-85700000D02*
X64373000Y-85700000D01*
X58055000Y-85700000D02*
X60174000Y-85700000D01*
X62254000Y-85740000D02*
X64381000Y-85740000D01*
X58047000Y-85740000D02*
X60174000Y-85740000D01*
X62254000Y-85780000D02*
X64389000Y-85780000D01*
X58039000Y-85780000D02*
X60174000Y-85780000D01*
X62254000Y-85820000D02*
X64396000Y-85820000D01*
X58032000Y-85820000D02*
X60174000Y-85820000D01*
X62254000Y-85860000D02*
X64403000Y-85860000D01*
X58025000Y-85860000D02*
X60174000Y-85860000D01*
X62254000Y-85900000D02*
X64409000Y-85900000D01*
X58019000Y-85900000D02*
X60174000Y-85900000D01*
X62254000Y-85940000D02*
X64415000Y-85940000D01*
X58013000Y-85940000D02*
X60174000Y-85940000D01*
X62254000Y-85980000D02*
X64420000Y-85980000D01*
X58008000Y-85980000D02*
X60174000Y-85980000D01*
X62254000Y-86020000D02*
X64425000Y-86020000D01*
X58003000Y-86020000D02*
X60174000Y-86020000D01*
X62254000Y-86060000D02*
X64429000Y-86060000D01*
X57999000Y-86060000D02*
X60174000Y-86060000D01*
X62254000Y-86100000D02*
X64432000Y-86100000D01*
X57996000Y-86100000D02*
X60174000Y-86100000D01*
X62254000Y-86140000D02*
X64436000Y-86140000D01*
X57992000Y-86140000D02*
X60174000Y-86140000D01*
X57990000Y-86180000D02*
X64438000Y-86180000D01*
X57987000Y-86220000D02*
X64441000Y-86220000D01*
X57986000Y-86260000D02*
X64442000Y-86260000D01*
X57984000Y-86300000D02*
X64444000Y-86300000D01*
X57984000Y-86340000D02*
X64444000Y-86340000D01*
X57984000Y-86380000D02*
X64444000Y-86380000D01*
X64484000Y-86380000D02*
G75*
G03X64484000Y-86380000I-3270000J0D01*
G01*
D12*
X55288380Y-145367333D02*
X56002666Y-145367333D01*
X56145523Y-145414952D01*
X56240761Y-145510190D01*
X56288380Y-145653047D01*
X56288380Y-145748285D01*
X56288380Y-144367333D02*
X56288380Y-144938761D01*
X56288380Y-144653047D02*
X55288380Y-144653047D01*
X55431238Y-144748285D01*
X55526476Y-144843523D01*
X55574095Y-144938761D01*
X58634380Y-74421904D02*
X59443904Y-74421904D01*
X59539142Y-74374285D01*
X59586761Y-74326666D01*
X59634380Y-74231428D01*
X59634380Y-74040952D01*
X59586761Y-73945714D01*
X59539142Y-73898095D01*
X59443904Y-73850476D01*
X58634380Y-73850476D01*
X58634380Y-73469523D02*
X58634380Y-72850476D01*
X59015333Y-73183809D01*
X59015333Y-73040952D01*
X59062952Y-72945714D01*
X59110571Y-72898095D01*
X59205809Y-72850476D01*
X59443904Y-72850476D01*
X59539142Y-72898095D01*
X59586761Y-72945714D01*
X59634380Y-73040952D01*
X59634380Y-73326666D01*
X59586761Y-73421904D01*
X59539142Y-73469523D01*
X60452095Y-108628380D02*
X60452095Y-109437904D01*
X60499714Y-109533142D01*
X60547333Y-109580761D01*
X60642571Y-109628380D01*
X60833047Y-109628380D01*
X60928285Y-109580761D01*
X60975904Y-109533142D01*
X61023523Y-109437904D01*
X61023523Y-108628380D01*
X61452095Y-108723619D02*
X61499714Y-108676000D01*
X61594952Y-108628380D01*
X61833047Y-108628380D01*
X61928285Y-108676000D01*
X61975904Y-108723619D01*
X62023523Y-108818857D01*
X62023523Y-108914095D01*
X61975904Y-109056952D01*
X61404476Y-109628380D01*
X62023523Y-109628380D01*
X77287380Y-62825238D02*
X76811190Y-63158571D01*
X77287380Y-63396666D02*
X76287380Y-63396666D01*
X76287380Y-63015714D01*
X76335000Y-62920476D01*
X76382619Y-62872857D01*
X76477857Y-62825238D01*
X76620714Y-62825238D01*
X76715952Y-62872857D01*
X76763571Y-62920476D01*
X76811190Y-63015714D01*
X76811190Y-63396666D01*
X76287380Y-62539523D02*
X77287380Y-62206190D01*
X76287380Y-61872857D01*
X76287380Y-61634761D02*
X76287380Y-61015714D01*
X76668333Y-61349047D01*
X76668333Y-61206190D01*
X76715952Y-61110952D01*
X76763571Y-61063333D01*
X76858809Y-61015714D01*
X77096904Y-61015714D01*
X77192142Y-61063333D01*
X77239761Y-61110952D01*
X77287380Y-61206190D01*
X77287380Y-61491904D01*
X77239761Y-61587142D01*
X77192142Y-61634761D01*
X81722380Y-123485238D02*
X81246190Y-123818571D01*
X81722380Y-124056666D02*
X80722380Y-124056666D01*
X80722380Y-123675714D01*
X80770000Y-123580476D01*
X80817619Y-123532857D01*
X80912857Y-123485238D01*
X81055714Y-123485238D01*
X81150952Y-123532857D01*
X81198571Y-123580476D01*
X81246190Y-123675714D01*
X81246190Y-124056666D01*
X80722380Y-123199523D02*
X81722380Y-122866190D01*
X80722380Y-122532857D01*
X80817619Y-122247142D02*
X80770000Y-122199523D01*
X80722380Y-122104285D01*
X80722380Y-121866190D01*
X80770000Y-121770952D01*
X80817619Y-121723333D01*
X80912857Y-121675714D01*
X81008095Y-121675714D01*
X81150952Y-121723333D01*
X81722380Y-122294761D01*
X81722380Y-121675714D01*
X81976380Y-90719238D02*
X81500190Y-91052571D01*
X81976380Y-91290666D02*
X80976380Y-91290666D01*
X80976380Y-90909714D01*
X81024000Y-90814476D01*
X81071619Y-90766857D01*
X81166857Y-90719238D01*
X81309714Y-90719238D01*
X81404952Y-90766857D01*
X81452571Y-90814476D01*
X81500190Y-90909714D01*
X81500190Y-91290666D01*
X80976380Y-90433523D02*
X81976380Y-90100190D01*
X80976380Y-89766857D01*
X81976380Y-88909714D02*
X81976380Y-89481142D01*
X81976380Y-89195428D02*
X80976380Y-89195428D01*
X81119238Y-89290666D01*
X81214476Y-89385904D01*
X81262095Y-89481142D01*
X75890380Y-80906857D02*
X75414190Y-81240190D01*
X75890380Y-81478285D02*
X74890380Y-81478285D01*
X74890380Y-81097333D01*
X74938000Y-81002095D01*
X74985619Y-80954476D01*
X75080857Y-80906857D01*
X75223714Y-80906857D01*
X75318952Y-80954476D01*
X75366571Y-81002095D01*
X75414190Y-81097333D01*
X75414190Y-81478285D01*
X75890380Y-79954476D02*
X75890380Y-80525904D01*
X75890380Y-80240190D02*
X74890380Y-80240190D01*
X75033238Y-80335428D01*
X75128476Y-80430666D01*
X75176095Y-80525904D01*
X74890380Y-79097333D02*
X74890380Y-79287809D01*
X74938000Y-79383047D01*
X74985619Y-79430666D01*
X75128476Y-79525904D01*
X75318952Y-79573523D01*
X75699904Y-79573523D01*
X75795142Y-79525904D01*
X75842761Y-79478285D01*
X75890380Y-79383047D01*
X75890380Y-79192571D01*
X75842761Y-79097333D01*
X75795142Y-79049714D01*
X75699904Y-79002095D01*
X75461809Y-79002095D01*
X75366571Y-79049714D01*
X75318952Y-79097333D01*
X75271333Y-79192571D01*
X75271333Y-79383047D01*
X75318952Y-79478285D01*
X75366571Y-79525904D01*
X75461809Y-79573523D01*
X76822380Y-68714857D02*
X76346190Y-69048190D01*
X76822380Y-69286285D02*
X75822380Y-69286285D01*
X75822380Y-68905333D01*
X75870000Y-68810095D01*
X75917619Y-68762476D01*
X76012857Y-68714857D01*
X76155714Y-68714857D01*
X76250952Y-68762476D01*
X76298571Y-68810095D01*
X76346190Y-68905333D01*
X76346190Y-69286285D01*
X76822380Y-67762476D02*
X76822380Y-68333904D01*
X76822380Y-68048190D02*
X75822380Y-68048190D01*
X75965238Y-68143428D01*
X76060476Y-68238666D01*
X76108095Y-68333904D01*
X75822380Y-66857714D02*
X75822380Y-67333904D01*
X76298571Y-67381523D01*
X76250952Y-67333904D01*
X76203333Y-67238666D01*
X76203333Y-67000571D01*
X76250952Y-66905333D01*
X76298571Y-66857714D01*
X76393809Y-66810095D01*
X76631904Y-66810095D01*
X76727142Y-66857714D01*
X76774761Y-66905333D01*
X76822380Y-67000571D01*
X76822380Y-67238666D01*
X76774761Y-67333904D01*
X76727142Y-67381523D01*
X76398380Y-69349857D02*
X75922190Y-69683190D01*
X76398380Y-69921285D02*
X75398380Y-69921285D01*
X75398380Y-69540333D01*
X75446000Y-69445095D01*
X75493619Y-69397476D01*
X75588857Y-69349857D01*
X75731714Y-69349857D01*
X75826952Y-69397476D01*
X75874571Y-69445095D01*
X75922190Y-69540333D01*
X75922190Y-69921285D01*
X76398380Y-68397476D02*
X76398380Y-68968904D01*
X76398380Y-68683190D02*
X75398380Y-68683190D01*
X75541238Y-68778428D01*
X75636476Y-68873666D01*
X75684095Y-68968904D01*
X75731714Y-67540333D02*
X76398380Y-67540333D01*
X75350761Y-67778428D02*
X76065047Y-68016523D01*
X76065047Y-67397476D01*
X52951142Y-71445380D02*
X52617809Y-70969190D01*
X52379714Y-71445380D02*
X52379714Y-70445380D01*
X52760666Y-70445380D01*
X52855904Y-70493000D01*
X52903523Y-70540619D01*
X52951142Y-70635857D01*
X52951142Y-70778714D01*
X52903523Y-70873952D01*
X52855904Y-70921571D01*
X52760666Y-70969190D01*
X52379714Y-70969190D01*
X53903523Y-71445380D02*
X53332095Y-71445380D01*
X53617809Y-71445380D02*
X53617809Y-70445380D01*
X53522571Y-70588238D01*
X53427333Y-70683476D01*
X53332095Y-70731095D01*
X54236857Y-70445380D02*
X54855904Y-70445380D01*
X54522571Y-70826333D01*
X54665428Y-70826333D01*
X54760666Y-70873952D01*
X54808285Y-70921571D01*
X54855904Y-71016809D01*
X54855904Y-71254904D01*
X54808285Y-71350142D01*
X54760666Y-71397761D01*
X54665428Y-71445380D01*
X54379714Y-71445380D01*
X54284476Y-71397761D01*
X54236857Y-71350142D01*
X52951142Y-79700380D02*
X52617809Y-79224190D01*
X52379714Y-79700380D02*
X52379714Y-78700380D01*
X52760666Y-78700380D01*
X52855904Y-78748000D01*
X52903523Y-78795619D01*
X52951142Y-78890857D01*
X52951142Y-79033714D01*
X52903523Y-79128952D01*
X52855904Y-79176571D01*
X52760666Y-79224190D01*
X52379714Y-79224190D01*
X53903523Y-79700380D02*
X53332095Y-79700380D01*
X53617809Y-79700380D02*
X53617809Y-78700380D01*
X53522571Y-78843238D01*
X53427333Y-78938476D01*
X53332095Y-78986095D01*
X54284476Y-78795619D02*
X54332095Y-78748000D01*
X54427333Y-78700380D01*
X54665428Y-78700380D01*
X54760666Y-78748000D01*
X54808285Y-78795619D01*
X54855904Y-78890857D01*
X54855904Y-78986095D01*
X54808285Y-79128952D01*
X54236857Y-79700380D01*
X54855904Y-79700380D01*
X59380380Y-80906857D02*
X58904190Y-81240190D01*
X59380380Y-81478285D02*
X58380380Y-81478285D01*
X58380380Y-81097333D01*
X58428000Y-81002095D01*
X58475619Y-80954476D01*
X58570857Y-80906857D01*
X58713714Y-80906857D01*
X58808952Y-80954476D01*
X58856571Y-81002095D01*
X58904190Y-81097333D01*
X58904190Y-81478285D01*
X59380380Y-79954476D02*
X59380380Y-80525904D01*
X59380380Y-80240190D02*
X58380380Y-80240190D01*
X58523238Y-80335428D01*
X58618476Y-80430666D01*
X58666095Y-80525904D01*
X59380380Y-79002095D02*
X59380380Y-79573523D01*
X59380380Y-79287809D02*
X58380380Y-79287809D01*
X58523238Y-79383047D01*
X58618476Y-79478285D01*
X58666095Y-79573523D01*
X60317142Y-63952380D02*
X59983809Y-63476190D01*
X59745714Y-63952380D02*
X59745714Y-62952380D01*
X60126666Y-62952380D01*
X60221904Y-63000000D01*
X60269523Y-63047619D01*
X60317142Y-63142857D01*
X60317142Y-63285714D01*
X60269523Y-63380952D01*
X60221904Y-63428571D01*
X60126666Y-63476190D01*
X59745714Y-63476190D01*
X61269523Y-63952380D02*
X60698095Y-63952380D01*
X60983809Y-63952380D02*
X60983809Y-62952380D01*
X60888571Y-63095238D01*
X60793333Y-63190476D01*
X60698095Y-63238095D01*
X61888571Y-62952380D02*
X61983809Y-62952380D01*
X62079047Y-63000000D01*
X62126666Y-63047619D01*
X62174285Y-63142857D01*
X62221904Y-63333333D01*
X62221904Y-63571428D01*
X62174285Y-63761904D01*
X62126666Y-63857142D01*
X62079047Y-63904761D01*
X61983809Y-63952380D01*
X61888571Y-63952380D01*
X61793333Y-63904761D01*
X61745714Y-63857142D01*
X61698095Y-63761904D01*
X61650476Y-63571428D01*
X61650476Y-63333333D01*
X61698095Y-63142857D01*
X61745714Y-63047619D01*
X61793333Y-63000000D01*
X61888571Y-62952380D01*
X72223333Y-101544380D02*
X71890000Y-101068190D01*
X71651904Y-101544380D02*
X71651904Y-100544380D01*
X72032857Y-100544380D01*
X72128095Y-100592000D01*
X72175714Y-100639619D01*
X72223333Y-100734857D01*
X72223333Y-100877714D01*
X72175714Y-100972952D01*
X72128095Y-101020571D01*
X72032857Y-101068190D01*
X71651904Y-101068190D01*
X72699523Y-101544380D02*
X72890000Y-101544380D01*
X72985238Y-101496761D01*
X73032857Y-101449142D01*
X73128095Y-101306285D01*
X73175714Y-101115809D01*
X73175714Y-100734857D01*
X73128095Y-100639619D01*
X73080476Y-100592000D01*
X72985238Y-100544380D01*
X72794761Y-100544380D01*
X72699523Y-100592000D01*
X72651904Y-100639619D01*
X72604285Y-100734857D01*
X72604285Y-100972952D01*
X72651904Y-101068190D01*
X72699523Y-101115809D01*
X72794761Y-101163428D01*
X72985238Y-101163428D01*
X73080476Y-101115809D01*
X73128095Y-101068190D01*
X73175714Y-100972952D01*
X70191333Y-66492380D02*
X69858000Y-66016190D01*
X69619904Y-66492380D02*
X69619904Y-65492380D01*
X70000857Y-65492380D01*
X70096095Y-65540000D01*
X70143714Y-65587619D01*
X70191333Y-65682857D01*
X70191333Y-65825714D01*
X70143714Y-65920952D01*
X70096095Y-65968571D01*
X70000857Y-66016190D01*
X69619904Y-66016190D01*
X70762761Y-65920952D02*
X70667523Y-65873333D01*
X70619904Y-65825714D01*
X70572285Y-65730476D01*
X70572285Y-65682857D01*
X70619904Y-65587619D01*
X70667523Y-65540000D01*
X70762761Y-65492380D01*
X70953238Y-65492380D01*
X71048476Y-65540000D01*
X71096095Y-65587619D01*
X71143714Y-65682857D01*
X71143714Y-65730476D01*
X71096095Y-65825714D01*
X71048476Y-65873333D01*
X70953238Y-65920952D01*
X70762761Y-65920952D01*
X70667523Y-65968571D01*
X70619904Y-66016190D01*
X70572285Y-66111428D01*
X70572285Y-66301904D01*
X70619904Y-66397142D01*
X70667523Y-66444761D01*
X70762761Y-66492380D01*
X70953238Y-66492380D01*
X71048476Y-66444761D01*
X71096095Y-66397142D01*
X71143714Y-66301904D01*
X71143714Y-66111428D01*
X71096095Y-66016190D01*
X71048476Y-65968571D01*
X70953238Y-65920952D01*
X68921333Y-101798380D02*
X68588000Y-101322190D01*
X68349904Y-101798380D02*
X68349904Y-100798380D01*
X68730857Y-100798380D01*
X68826095Y-100846000D01*
X68873714Y-100893619D01*
X68921333Y-100988857D01*
X68921333Y-101131714D01*
X68873714Y-101226952D01*
X68826095Y-101274571D01*
X68730857Y-101322190D01*
X68349904Y-101322190D01*
X69254666Y-100798380D02*
X69921333Y-100798380D01*
X69492761Y-101798380D01*
X70218380Y-109386666D02*
X69742190Y-109720000D01*
X70218380Y-109958095D02*
X69218380Y-109958095D01*
X69218380Y-109577142D01*
X69266000Y-109481904D01*
X69313619Y-109434285D01*
X69408857Y-109386666D01*
X69551714Y-109386666D01*
X69646952Y-109434285D01*
X69694571Y-109481904D01*
X69742190Y-109577142D01*
X69742190Y-109958095D01*
X69218380Y-108481904D02*
X69218380Y-108958095D01*
X69694571Y-109005714D01*
X69646952Y-108958095D01*
X69599333Y-108862857D01*
X69599333Y-108624761D01*
X69646952Y-108529523D01*
X69694571Y-108481904D01*
X69789809Y-108434285D01*
X70027904Y-108434285D01*
X70123142Y-108481904D01*
X70170761Y-108529523D01*
X70218380Y-108624761D01*
X70218380Y-108862857D01*
X70170761Y-108958095D01*
X70123142Y-109005714D01*
X76906380Y-109386666D02*
X76430190Y-109720000D01*
X76906380Y-109958095D02*
X75906380Y-109958095D01*
X75906380Y-109577142D01*
X75954000Y-109481904D01*
X76001619Y-109434285D01*
X76096857Y-109386666D01*
X76239714Y-109386666D01*
X76334952Y-109434285D01*
X76382571Y-109481904D01*
X76430190Y-109577142D01*
X76430190Y-109958095D01*
X76239714Y-108529523D02*
X76906380Y-108529523D01*
X75858761Y-108767619D02*
X76573047Y-109005714D01*
X76573047Y-108386666D01*
X58761333Y-93924380D02*
X58428000Y-93448190D01*
X58189904Y-93924380D02*
X58189904Y-92924380D01*
X58570857Y-92924380D01*
X58666095Y-92972000D01*
X58713714Y-93019619D01*
X58761333Y-93114857D01*
X58761333Y-93257714D01*
X58713714Y-93352952D01*
X58666095Y-93400571D01*
X58570857Y-93448190D01*
X58189904Y-93448190D01*
X59094666Y-92924380D02*
X59713714Y-92924380D01*
X59380380Y-93305333D01*
X59523238Y-93305333D01*
X59618476Y-93352952D01*
X59666095Y-93400571D01*
X59713714Y-93495809D01*
X59713714Y-93733904D01*
X59666095Y-93829142D01*
X59618476Y-93876761D01*
X59523238Y-93924380D01*
X59237523Y-93924380D01*
X59142285Y-93876761D01*
X59094666Y-93829142D01*
X53538380Y-95162666D02*
X53062190Y-95496000D01*
X53538380Y-95734095D02*
X52538380Y-95734095D01*
X52538380Y-95353142D01*
X52586000Y-95257904D01*
X52633619Y-95210285D01*
X52728857Y-95162666D01*
X52871714Y-95162666D01*
X52966952Y-95210285D01*
X53014571Y-95257904D01*
X53062190Y-95353142D01*
X53062190Y-95734095D01*
X52633619Y-94781714D02*
X52586000Y-94734095D01*
X52538380Y-94638857D01*
X52538380Y-94400761D01*
X52586000Y-94305523D01*
X52633619Y-94257904D01*
X52728857Y-94210285D01*
X52824095Y-94210285D01*
X52966952Y-94257904D01*
X53538380Y-94829333D01*
X53538380Y-94210285D01*
X64968380Y-94400666D02*
X64492190Y-94734000D01*
X64968380Y-94972095D02*
X63968380Y-94972095D01*
X63968380Y-94591142D01*
X64016000Y-94495904D01*
X64063619Y-94448285D01*
X64158857Y-94400666D01*
X64301714Y-94400666D01*
X64396952Y-94448285D01*
X64444571Y-94495904D01*
X64492190Y-94591142D01*
X64492190Y-94972095D01*
X64968380Y-93448285D02*
X64968380Y-94019714D01*
X64968380Y-93734000D02*
X63968380Y-93734000D01*
X64111238Y-93829238D01*
X64206476Y-93924476D01*
X64254095Y-94019714D01*
X54126380Y-108503333D02*
X54840666Y-108503333D01*
X54983523Y-108550952D01*
X55078761Y-108646190D01*
X55126380Y-108789047D01*
X55126380Y-108884285D01*
X54126380Y-108122380D02*
X54126380Y-107503333D01*
X54507333Y-107836666D01*
X54507333Y-107693809D01*
X54554952Y-107598571D01*
X54602571Y-107550952D01*
X54697809Y-107503333D01*
X54935904Y-107503333D01*
X55031142Y-107550952D01*
X55078761Y-107598571D01*
X55126380Y-107693809D01*
X55126380Y-107979523D01*
X55078761Y-108074761D01*
X55031142Y-108122380D01*
X53872380Y-58973333D02*
X54586666Y-58973333D01*
X54729523Y-59020952D01*
X54824761Y-59116190D01*
X54872380Y-59259047D01*
X54872380Y-59354285D01*
X53967619Y-58544761D02*
X53920000Y-58497142D01*
X53872380Y-58401904D01*
X53872380Y-58163809D01*
X53920000Y-58068571D01*
X53967619Y-58020952D01*
X54062857Y-57973333D01*
X54158095Y-57973333D01*
X54300952Y-58020952D01*
X54872380Y-58592380D01*
X54872380Y-57973333D01*
X75303142Y-101703142D02*
X75255523Y-101750761D01*
X75112666Y-101798380D01*
X75017428Y-101798380D01*
X74874571Y-101750761D01*
X74779333Y-101655523D01*
X74731714Y-101560285D01*
X74684095Y-101369809D01*
X74684095Y-101226952D01*
X74731714Y-101036476D01*
X74779333Y-100941238D01*
X74874571Y-100846000D01*
X75017428Y-100798380D01*
X75112666Y-100798380D01*
X75255523Y-100846000D01*
X75303142Y-100893619D01*
X76255523Y-101798380D02*
X75684095Y-101798380D01*
X75969809Y-101798380D02*
X75969809Y-100798380D01*
X75874571Y-100941238D01*
X75779333Y-101036476D01*
X75684095Y-101084095D01*
X76826952Y-101226952D02*
X76731714Y-101179333D01*
X76684095Y-101131714D01*
X76636476Y-101036476D01*
X76636476Y-100988857D01*
X76684095Y-100893619D01*
X76731714Y-100846000D01*
X76826952Y-100798380D01*
X77017428Y-100798380D01*
X77112666Y-100846000D01*
X77160285Y-100893619D01*
X77207904Y-100988857D01*
X77207904Y-101036476D01*
X77160285Y-101131714D01*
X77112666Y-101179333D01*
X77017428Y-101226952D01*
X76826952Y-101226952D01*
X76731714Y-101274571D01*
X76684095Y-101322190D01*
X76636476Y-101417428D01*
X76636476Y-101607904D01*
X76684095Y-101703142D01*
X76731714Y-101750761D01*
X76826952Y-101798380D01*
X77017428Y-101798380D01*
X77112666Y-101750761D01*
X77160285Y-101703142D01*
X77207904Y-101607904D01*
X77207904Y-101417428D01*
X77160285Y-101322190D01*
X77112666Y-101274571D01*
X77017428Y-101226952D01*
X77105142Y-109394857D02*
X77152761Y-109442476D01*
X77200380Y-109585333D01*
X77200380Y-109680571D01*
X77152761Y-109823428D01*
X77057523Y-109918666D01*
X76962285Y-109966285D01*
X76771809Y-110013904D01*
X76628952Y-110013904D01*
X76438476Y-109966285D01*
X76343238Y-109918666D01*
X76248000Y-109823428D01*
X76200380Y-109680571D01*
X76200380Y-109585333D01*
X76248000Y-109442476D01*
X76295619Y-109394857D01*
X77200380Y-108442476D02*
X77200380Y-109013904D01*
X77200380Y-108728190D02*
X76200380Y-108728190D01*
X76343238Y-108823428D01*
X76438476Y-108918666D01*
X76486095Y-109013904D01*
X76200380Y-108109142D02*
X76200380Y-107442476D01*
X77200380Y-107871047D01*
X68683142Y-109862857D02*
X68730761Y-109910476D01*
X68778380Y-110053333D01*
X68778380Y-110148571D01*
X68730761Y-110291428D01*
X68635523Y-110386666D01*
X68540285Y-110434285D01*
X68349809Y-110481904D01*
X68206952Y-110481904D01*
X68016476Y-110434285D01*
X67921238Y-110386666D01*
X67826000Y-110291428D01*
X67778380Y-110148571D01*
X67778380Y-110053333D01*
X67826000Y-109910476D01*
X67873619Y-109862857D01*
X68778380Y-108910476D02*
X68778380Y-109481904D01*
X68778380Y-109196190D02*
X67778380Y-109196190D01*
X67921238Y-109291428D01*
X68016476Y-109386666D01*
X68064095Y-109481904D01*
X67778380Y-108053333D02*
X67778380Y-108243809D01*
X67826000Y-108339047D01*
X67873619Y-108386666D01*
X68016476Y-108481904D01*
X68206952Y-108529523D01*
X68587904Y-108529523D01*
X68683142Y-108481904D01*
X68730761Y-108434285D01*
X68778380Y-108339047D01*
X68778380Y-108148571D01*
X68730761Y-108053333D01*
X68683142Y-108005714D01*
X68587904Y-107958095D01*
X68349809Y-107958095D01*
X68254571Y-108005714D01*
X68206952Y-108053333D01*
X68159333Y-108148571D01*
X68159333Y-108339047D01*
X68206952Y-108434285D01*
X68254571Y-108481904D01*
X68349809Y-108529523D01*
X79859142Y-102028857D02*
X79906761Y-102076476D01*
X79954380Y-102219333D01*
X79954380Y-102314571D01*
X79906761Y-102457428D01*
X79811523Y-102552666D01*
X79716285Y-102600285D01*
X79525809Y-102647904D01*
X79382952Y-102647904D01*
X79192476Y-102600285D01*
X79097238Y-102552666D01*
X79002000Y-102457428D01*
X78954380Y-102314571D01*
X78954380Y-102219333D01*
X79002000Y-102076476D01*
X79049619Y-102028857D01*
X79954380Y-101076476D02*
X79954380Y-101647904D01*
X79954380Y-101362190D02*
X78954380Y-101362190D01*
X79097238Y-101457428D01*
X79192476Y-101552666D01*
X79240095Y-101647904D01*
X78954380Y-100171714D02*
X78954380Y-100647904D01*
X79430571Y-100695523D01*
X79382952Y-100647904D01*
X79335333Y-100552666D01*
X79335333Y-100314571D01*
X79382952Y-100219333D01*
X79430571Y-100171714D01*
X79525809Y-100124095D01*
X79763904Y-100124095D01*
X79859142Y-100171714D01*
X79906761Y-100219333D01*
X79954380Y-100314571D01*
X79954380Y-100552666D01*
X79906761Y-100647904D01*
X79859142Y-100695523D01*
X73291142Y-140901142D02*
X73243523Y-140948761D01*
X73100666Y-140996380D01*
X73005428Y-140996380D01*
X72862571Y-140948761D01*
X72767333Y-140853523D01*
X72719714Y-140758285D01*
X72672095Y-140567809D01*
X72672095Y-140424952D01*
X72719714Y-140234476D01*
X72767333Y-140139238D01*
X72862571Y-140044000D01*
X73005428Y-139996380D01*
X73100666Y-139996380D01*
X73243523Y-140044000D01*
X73291142Y-140091619D01*
X74243523Y-140996380D02*
X73672095Y-140996380D01*
X73957809Y-140996380D02*
X73957809Y-139996380D01*
X73862571Y-140139238D01*
X73767333Y-140234476D01*
X73672095Y-140282095D01*
X75100666Y-140329714D02*
X75100666Y-140996380D01*
X74862571Y-139948761D02*
X74624476Y-140663047D01*
X75243523Y-140663047D01*
X65635142Y-135262857D02*
X65682761Y-135310476D01*
X65730380Y-135453333D01*
X65730380Y-135548571D01*
X65682761Y-135691428D01*
X65587523Y-135786666D01*
X65492285Y-135834285D01*
X65301809Y-135881904D01*
X65158952Y-135881904D01*
X64968476Y-135834285D01*
X64873238Y-135786666D01*
X64778000Y-135691428D01*
X64730380Y-135548571D01*
X64730380Y-135453333D01*
X64778000Y-135310476D01*
X64825619Y-135262857D01*
X65730380Y-134310476D02*
X65730380Y-134881904D01*
X65730380Y-134596190D02*
X64730380Y-134596190D01*
X64873238Y-134691428D01*
X64968476Y-134786666D01*
X65016095Y-134881904D01*
X64730380Y-133977142D02*
X64730380Y-133358095D01*
X65111333Y-133691428D01*
X65111333Y-133548571D01*
X65158952Y-133453333D01*
X65206571Y-133405714D01*
X65301809Y-133358095D01*
X65539904Y-133358095D01*
X65635142Y-133405714D01*
X65682761Y-133453333D01*
X65730380Y-133548571D01*
X65730380Y-133834285D01*
X65682761Y-133929523D01*
X65635142Y-133977142D01*
X58499142Y-96877142D02*
X58451523Y-96924761D01*
X58308666Y-96972380D01*
X58213428Y-96972380D01*
X58070571Y-96924761D01*
X57975333Y-96829523D01*
X57927714Y-96734285D01*
X57880095Y-96543809D01*
X57880095Y-96400952D01*
X57927714Y-96210476D01*
X57975333Y-96115238D01*
X58070571Y-96020000D01*
X58213428Y-95972380D01*
X58308666Y-95972380D01*
X58451523Y-96020000D01*
X58499142Y-96067619D01*
X59451523Y-96972380D02*
X58880095Y-96972380D01*
X59165809Y-96972380D02*
X59165809Y-95972380D01*
X59070571Y-96115238D01*
X58975333Y-96210476D01*
X58880095Y-96258095D01*
X59832476Y-96067619D02*
X59880095Y-96020000D01*
X59975333Y-95972380D01*
X60213428Y-95972380D01*
X60308666Y-96020000D01*
X60356285Y-96067619D01*
X60403904Y-96162857D01*
X60403904Y-96258095D01*
X60356285Y-96400952D01*
X59784857Y-96972380D01*
X60403904Y-96972380D01*
X53443142Y-88058857D02*
X53490761Y-88106476D01*
X53538380Y-88249333D01*
X53538380Y-88344571D01*
X53490761Y-88487428D01*
X53395523Y-88582666D01*
X53300285Y-88630285D01*
X53109809Y-88677904D01*
X52966952Y-88677904D01*
X52776476Y-88630285D01*
X52681238Y-88582666D01*
X52586000Y-88487428D01*
X52538380Y-88344571D01*
X52538380Y-88249333D01*
X52586000Y-88106476D01*
X52633619Y-88058857D01*
X53538380Y-87106476D02*
X53538380Y-87677904D01*
X53538380Y-87392190D02*
X52538380Y-87392190D01*
X52681238Y-87487428D01*
X52776476Y-87582666D01*
X52824095Y-87677904D01*
X53538380Y-86154095D02*
X53538380Y-86725523D01*
X53538380Y-86439809D02*
X52538380Y-86439809D01*
X52681238Y-86535047D01*
X52776476Y-86630285D01*
X52824095Y-86725523D01*
X53205142Y-66143142D02*
X53157523Y-66190761D01*
X53014666Y-66238380D01*
X52919428Y-66238380D01*
X52776571Y-66190761D01*
X52681333Y-66095523D01*
X52633714Y-66000285D01*
X52586095Y-65809809D01*
X52586095Y-65666952D01*
X52633714Y-65476476D01*
X52681333Y-65381238D01*
X52776571Y-65286000D01*
X52919428Y-65238380D01*
X53014666Y-65238380D01*
X53157523Y-65286000D01*
X53205142Y-65333619D01*
X54157523Y-66238380D02*
X53586095Y-66238380D01*
X53871809Y-66238380D02*
X53871809Y-65238380D01*
X53776571Y-65381238D01*
X53681333Y-65476476D01*
X53586095Y-65524095D01*
X54776571Y-65238380D02*
X54871809Y-65238380D01*
X54967047Y-65286000D01*
X55014666Y-65333619D01*
X55062285Y-65428857D01*
X55109904Y-65619333D01*
X55109904Y-65857428D01*
X55062285Y-66047904D01*
X55014666Y-66143142D01*
X54967047Y-66190761D01*
X54871809Y-66238380D01*
X54776571Y-66238380D01*
X54681333Y-66190761D01*
X54633714Y-66143142D01*
X54586095Y-66047904D01*
X54538476Y-65857428D01*
X54538476Y-65619333D01*
X54586095Y-65428857D01*
X54633714Y-65333619D01*
X54681333Y-65286000D01*
X54776571Y-65238380D01*
X64619142Y-63960666D02*
X64666761Y-64008285D01*
X64714380Y-64151142D01*
X64714380Y-64246380D01*
X64666761Y-64389238D01*
X64571523Y-64484476D01*
X64476285Y-64532095D01*
X64285809Y-64579714D01*
X64142952Y-64579714D01*
X63952476Y-64532095D01*
X63857238Y-64484476D01*
X63762000Y-64389238D01*
X63714380Y-64246380D01*
X63714380Y-64151142D01*
X63762000Y-64008285D01*
X63809619Y-63960666D01*
X64714380Y-63484476D02*
X64714380Y-63294000D01*
X64666761Y-63198761D01*
X64619142Y-63151142D01*
X64476285Y-63055904D01*
X64285809Y-63008285D01*
X63904857Y-63008285D01*
X63809619Y-63055904D01*
X63762000Y-63103523D01*
X63714380Y-63198761D01*
X63714380Y-63389238D01*
X63762000Y-63484476D01*
X63809619Y-63532095D01*
X63904857Y-63579714D01*
X64142952Y-63579714D01*
X64238190Y-63532095D01*
X64285809Y-63484476D01*
X64333428Y-63389238D01*
X64333428Y-63198761D01*
X64285809Y-63103523D01*
X64238190Y-63055904D01*
X64142952Y-63008285D01*
X67103333Y-80621142D02*
X67055714Y-80668761D01*
X66912857Y-80716380D01*
X66817619Y-80716380D01*
X66674761Y-80668761D01*
X66579523Y-80573523D01*
X66531904Y-80478285D01*
X66484285Y-80287809D01*
X66484285Y-80144952D01*
X66531904Y-79954476D01*
X66579523Y-79859238D01*
X66674761Y-79764000D01*
X66817619Y-79716380D01*
X66912857Y-79716380D01*
X67055714Y-79764000D01*
X67103333Y-79811619D01*
X67674761Y-80144952D02*
X67579523Y-80097333D01*
X67531904Y-80049714D01*
X67484285Y-79954476D01*
X67484285Y-79906857D01*
X67531904Y-79811619D01*
X67579523Y-79764000D01*
X67674761Y-79716380D01*
X67865238Y-79716380D01*
X67960476Y-79764000D01*
X68008095Y-79811619D01*
X68055714Y-79906857D01*
X68055714Y-79954476D01*
X68008095Y-80049714D01*
X67960476Y-80097333D01*
X67865238Y-80144952D01*
X67674761Y-80144952D01*
X67579523Y-80192571D01*
X67531904Y-80240190D01*
X67484285Y-80335428D01*
X67484285Y-80525904D01*
X67531904Y-80621142D01*
X67579523Y-80668761D01*
X67674761Y-80716380D01*
X67865238Y-80716380D01*
X67960476Y-80668761D01*
X68008095Y-80621142D01*
X68055714Y-80525904D01*
X68055714Y-80335428D01*
X68008095Y-80240190D01*
X67960476Y-80192571D01*
X67865238Y-80144952D01*
X53951142Y-136350666D02*
X53998761Y-136398285D01*
X54046380Y-136541142D01*
X54046380Y-136636380D01*
X53998761Y-136779238D01*
X53903523Y-136874476D01*
X53808285Y-136922095D01*
X53617809Y-136969714D01*
X53474952Y-136969714D01*
X53284476Y-136922095D01*
X53189238Y-136874476D01*
X53094000Y-136779238D01*
X53046380Y-136636380D01*
X53046380Y-136541142D01*
X53094000Y-136398285D01*
X53141619Y-136350666D01*
X53046380Y-136017333D02*
X53046380Y-135350666D01*
X54046380Y-135779238D01*
X53951142Y-113450666D02*
X53998761Y-113498285D01*
X54046380Y-113641142D01*
X54046380Y-113736380D01*
X53998761Y-113879238D01*
X53903523Y-113974476D01*
X53808285Y-114022095D01*
X53617809Y-114069714D01*
X53474952Y-114069714D01*
X53284476Y-114022095D01*
X53189238Y-113974476D01*
X53094000Y-113879238D01*
X53046380Y-113736380D01*
X53046380Y-113641142D01*
X53094000Y-113498285D01*
X53141619Y-113450666D01*
X53046380Y-112593523D02*
X53046380Y-112784000D01*
X53094000Y-112879238D01*
X53141619Y-112926857D01*
X53284476Y-113022095D01*
X53474952Y-113069714D01*
X53855904Y-113069714D01*
X53951142Y-113022095D01*
X53998761Y-112974476D01*
X54046380Y-112879238D01*
X54046380Y-112688761D01*
X53998761Y-112593523D01*
X53951142Y-112545904D01*
X53855904Y-112498285D01*
X53617809Y-112498285D01*
X53522571Y-112545904D01*
X53474952Y-112593523D01*
X53427333Y-112688761D01*
X53427333Y-112879238D01*
X53474952Y-112974476D01*
X53522571Y-113022095D01*
X53617809Y-113069714D01*
X58015142Y-139358666D02*
X58062761Y-139406285D01*
X58110380Y-139549142D01*
X58110380Y-139644380D01*
X58062761Y-139787238D01*
X57967523Y-139882476D01*
X57872285Y-139930095D01*
X57681809Y-139977714D01*
X57538952Y-139977714D01*
X57348476Y-139930095D01*
X57253238Y-139882476D01*
X57158000Y-139787238D01*
X57110380Y-139644380D01*
X57110380Y-139549142D01*
X57158000Y-139406285D01*
X57205619Y-139358666D01*
X57110380Y-138453904D02*
X57110380Y-138930095D01*
X57586571Y-138977714D01*
X57538952Y-138930095D01*
X57491333Y-138834857D01*
X57491333Y-138596761D01*
X57538952Y-138501523D01*
X57586571Y-138453904D01*
X57681809Y-138406285D01*
X57919904Y-138406285D01*
X58015142Y-138453904D01*
X58062761Y-138501523D01*
X58110380Y-138596761D01*
X58110380Y-138834857D01*
X58062761Y-138930095D01*
X58015142Y-138977714D01*
X53697142Y-128730666D02*
X53744761Y-128778285D01*
X53792380Y-128921142D01*
X53792380Y-129016380D01*
X53744761Y-129159238D01*
X53649523Y-129254476D01*
X53554285Y-129302095D01*
X53363809Y-129349714D01*
X53220952Y-129349714D01*
X53030476Y-129302095D01*
X52935238Y-129254476D01*
X52840000Y-129159238D01*
X52792380Y-129016380D01*
X52792380Y-128921142D01*
X52840000Y-128778285D01*
X52887619Y-128730666D01*
X53125714Y-127873523D02*
X53792380Y-127873523D01*
X52744761Y-128111619D02*
X53459047Y-128349714D01*
X53459047Y-127730666D01*
X57171142Y-86546666D02*
X57218761Y-86594285D01*
X57266380Y-86737142D01*
X57266380Y-86832380D01*
X57218761Y-86975238D01*
X57123523Y-87070476D01*
X57028285Y-87118095D01*
X56837809Y-87165714D01*
X56694952Y-87165714D01*
X56504476Y-87118095D01*
X56409238Y-87070476D01*
X56314000Y-86975238D01*
X56266380Y-86832380D01*
X56266380Y-86737142D01*
X56314000Y-86594285D01*
X56361619Y-86546666D01*
X56266380Y-86213333D02*
X56266380Y-85594285D01*
X56647333Y-85927619D01*
X56647333Y-85784761D01*
X56694952Y-85689523D01*
X56742571Y-85641904D01*
X56837809Y-85594285D01*
X57075904Y-85594285D01*
X57171142Y-85641904D01*
X57218761Y-85689523D01*
X57266380Y-85784761D01*
X57266380Y-86070476D01*
X57218761Y-86165714D01*
X57171142Y-86213333D01*
M02*
