M48
INCH,TZ
T1C0.0157
T2C0.0315
T3C0.0394
T4C0.0480
T5C0.0559
T6C0.0563
%
G90
G05
T1
X21000Y-47000
X21216Y-53484
X21543Y-55643
X22000Y-50500
X23700Y-38600
X23700Y-44900
X23900Y-20000
X23985Y-39715
X24500Y-42100
X25100Y-19600
X25100Y-39600
X26400Y-32600
X26500Y-24600
X27400Y-28300
X29600Y-31100
X29650Y-47250
X31600Y-25300
T2
X21100Y-52631
X21100Y-54600
X29900Y-38900
X29900Y-40869
X28400Y-42000
X28400Y-44000
X21100Y-43600
X21100Y-45569
X22400Y-27300
X22400Y-30300
X23400Y-27300
X23400Y-30300
X24400Y-27300
X24400Y-30300
X25400Y-27300
X25400Y-30300
X26400Y-27300
X26400Y-30300
X27400Y-27300
X27400Y-30300
X28400Y-27300
X28400Y-30300
X31200Y-41831
X31200Y-43800
X25600Y-36100
X25600Y-38100
X29700Y-26000
X29700Y-28000
X28616Y-53600
X29600Y-53600
X22300Y-31600
X24300Y-31600
X25500Y-31600
X27469Y-31600
X29900Y-42000
X29900Y-44000
X31200Y-38931
X31200Y-40900
X28600Y-38900
X28600Y-40900
X21400Y-25100
X22384Y-25100
X24100Y-33516
X24100Y-34500
X21100Y-33431
X21100Y-35400
X21100Y-36400
X21100Y-38400
X25600Y-52000
X25600Y-53969
X21100Y-27200
X21100Y-29200
X26600Y-26000
X28600Y-26000
X28600Y-31600
X30600Y-31600
X21100Y-49631
X21100Y-51600
X22600Y-43900
X22600Y-44900
X22600Y-45900
X22600Y-46900
X22600Y-47900
X22600Y-48900
X22600Y-49900
X22600Y-50900
X25600Y-43900
X25600Y-44900
X25600Y-45900
X25600Y-46900
X25600Y-47900
X25600Y-48900
X25600Y-49900
X25600Y-50900
X21100Y-30300
X21100Y-32300
X22300Y-37800
X24269Y-37800
X27100Y-42031
X27100Y-44000
X25300Y-24131
X25300Y-26100
X23400Y-52500
X23400Y-53484
X24000Y-24000
X24000Y-26000
X22300Y-36500
X24300Y-36500
X27200Y-38900
X27200Y-40900
X31000Y-25800
X31000Y-27800
T3
X28000Y-46000
X28984Y-46000
X29969Y-46000
X22900Y-56600
X22900Y-57600
X23900Y-56600
X23900Y-57600
X24900Y-56600
X24900Y-57600
X25900Y-56600
X25900Y-57600
X26900Y-56600
X26900Y-57600
X27900Y-56600
X27900Y-57600
X28900Y-56600
X28900Y-57600
X29900Y-56600
X29900Y-57600
X28100Y-33100
X29084Y-33100
X30069Y-33100
X28000Y-20000
X28984Y-20000
X29969Y-20000
T4
X21000Y-21500
X21100Y-41000
T5
X22220Y-21500
X22320Y-41000
T6
X25488Y-21500
X25588Y-41000
T0
M30
