G04 #@! TF.GenerationSoftware,KiCad,Pcbnew,(5.0.1)-rc2*
G04 #@! TF.CreationDate,2019-03-03T17:53:11-05:00*
G04 #@! TF.ProjectId,delay,64656C61792E6B696361645F70636200,rev?*
G04 #@! TF.SameCoordinates,Original*
G04 #@! TF.FileFunction,Copper,L2,Bot,Signal*
G04 #@! TF.FilePolarity,Positive*
%FSLAX46Y46*%
G04 Gerber Fmt 4.6, Leading zero omitted, Abs format (unit mm)*
G04 Created by KiCad (PCBNEW (5.0.1)-rc2) date 3/3/2019 5:53:11 PM*
%MOMM*%
%LPD*%
G01*
G04 APERTURE LIST*
G04 #@! TA.AperFunction,ComponentPad*
%ADD10R,2.000000X1.905000*%
G04 #@! TD*
G04 #@! TA.AperFunction,ComponentPad*
%ADD11O,2.000000X1.905000*%
G04 #@! TD*
G04 #@! TA.AperFunction,ComponentPad*
%ADD12R,1.600000X1.600000*%
G04 #@! TD*
G04 #@! TA.AperFunction,ComponentPad*
%ADD13C,1.600000*%
G04 #@! TD*
G04 #@! TA.AperFunction,Conductor*
%ADD14C,0.100000*%
G04 #@! TD*
G04 #@! TA.AperFunction,ComponentPad*
%ADD15C,1.200000*%
G04 #@! TD*
G04 #@! TA.AperFunction,ComponentPad*
%ADD16O,1.750000X1.200000*%
G04 #@! TD*
G04 #@! TA.AperFunction,ComponentPad*
%ADD17O,1.600000X1.600000*%
G04 #@! TD*
G04 #@! TA.AperFunction,ComponentPad*
%ADD18C,1.800000*%
G04 #@! TD*
G04 #@! TA.AperFunction,WasherPad*
%ADD19C,4.000000*%
G04 #@! TD*
G04 #@! TA.AperFunction,Conductor*
%ADD20C,0.250000*%
G04 #@! TD*
G04 #@! TA.AperFunction,Conductor*
%ADD21C,0.254000*%
G04 #@! TD*
G04 APERTURE END LIST*
D10*
G04 #@! TO.P,U1,1*
G04 #@! TO.N,+12V*
X143764000Y-33782000D03*
D11*
G04 #@! TO.P,U1,2*
G04 #@! TO.N,GND*
X143764000Y-36322000D03*
G04 #@! TO.P,U1,3*
G04 #@! TO.N,+5V*
X143764000Y-38862000D03*
G04 #@! TD*
D12*
G04 #@! TO.P,C1,1*
G04 #@! TO.N,+12V*
X167640000Y-37338000D03*
D13*
G04 #@! TO.P,C1,2*
G04 #@! TO.N,GND*
X167640000Y-39838000D03*
G04 #@! TD*
G04 #@! TO.P,C2,2*
G04 #@! TO.N,GND*
X151210000Y-45720000D03*
G04 #@! TO.P,C2,1*
G04 #@! TO.N,+5V*
X156210000Y-45720000D03*
G04 #@! TD*
D12*
G04 #@! TO.P,C3,1*
G04 #@! TO.N,Net-(C3-Pad1)*
X143256000Y-80772000D03*
D13*
G04 #@! TO.P,C3,2*
G04 #@! TO.N,GND*
X140756000Y-80772000D03*
G04 #@! TD*
G04 #@! TO.P,C4,2*
G04 #@! TO.N,Net-(C4-Pad2)*
X145542000Y-86694000D03*
G04 #@! TO.P,C4,1*
G04 #@! TO.N,GND*
X145542000Y-91694000D03*
G04 #@! TD*
G04 #@! TO.P,C5,2*
G04 #@! TO.N,GND*
X151678000Y-53594000D03*
D12*
G04 #@! TO.P,C5,1*
G04 #@! TO.N,+5V*
X154178000Y-53594000D03*
G04 #@! TD*
D13*
G04 #@! TO.P,C6,2*
G04 #@! TO.N,GND*
X152654000Y-60532000D03*
G04 #@! TO.P,C6,1*
G04 #@! TO.N,+5V*
X152654000Y-65532000D03*
G04 #@! TD*
G04 #@! TO.P,C7,1*
G04 #@! TO.N,GND*
X149098000Y-91694000D03*
G04 #@! TO.P,C7,2*
G04 #@! TO.N,Net-(C7-Pad2)*
X149098000Y-86694000D03*
G04 #@! TD*
G04 #@! TO.P,C8,2*
G04 #@! TO.N,Net-(C8-Pad2)*
X168322000Y-65024000D03*
G04 #@! TO.P,C8,1*
G04 #@! TO.N,Net-(C8-Pad1)*
X163322000Y-65024000D03*
G04 #@! TD*
G04 #@! TO.P,C9,1*
G04 #@! TO.N,GND*
X156464000Y-65278000D03*
G04 #@! TO.P,C9,2*
G04 #@! TO.N,Net-(C9-Pad2)*
X156464000Y-60278000D03*
G04 #@! TD*
G04 #@! TO.P,C10,1*
G04 #@! TO.N,Net-(C10-Pad1)*
X157226000Y-90932000D03*
G04 #@! TO.P,C10,2*
G04 #@! TO.N,Net-(C10-Pad2)*
X152226000Y-90932000D03*
G04 #@! TD*
G04 #@! TO.P,C11,1*
G04 #@! TO.N,Net-(C11-Pad1)*
X164846000Y-90932000D03*
G04 #@! TO.P,C11,2*
G04 #@! TO.N,Net-(C11-Pad2)*
X159846000Y-90932000D03*
G04 #@! TD*
G04 #@! TO.P,C12,1*
G04 #@! TO.N,Net-(C12-Pad1)*
X168402000Y-78994000D03*
G04 #@! TO.P,C12,2*
G04 #@! TO.N,Net-(C12-Pad2)*
X163402000Y-78994000D03*
G04 #@! TD*
G04 #@! TO.P,C13,1*
G04 #@! TO.N,Net-(C13-Pad1)*
X168402000Y-68580000D03*
G04 #@! TO.P,C13,2*
G04 #@! TO.N,GND*
X163402000Y-68580000D03*
G04 #@! TD*
D12*
G04 #@! TO.P,C14,1*
G04 #@! TO.N,Net-(C13-Pad1)*
X169418000Y-58674000D03*
D13*
G04 #@! TO.P,C14,2*
G04 #@! TO.N,Output*
X169418000Y-56174000D03*
G04 #@! TD*
G04 #@! TO.P,C15,2*
G04 #@! TO.N,Input*
X135676000Y-56896000D03*
D12*
G04 #@! TO.P,C15,1*
G04 #@! TO.N,Net-(C15-Pad1)*
X138176000Y-56896000D03*
G04 #@! TD*
D13*
G04 #@! TO.P,C16,2*
G04 #@! TO.N,GND*
X163402000Y-72136000D03*
G04 #@! TO.P,C16,1*
G04 #@! TO.N,Net-(C16-Pad1)*
X168402000Y-72136000D03*
G04 #@! TD*
D14*
G04 #@! TO.N,-12V*
G04 #@! TO.C,J1*
G36*
X138063505Y-37755204D02*
X138087773Y-37758804D01*
X138111572Y-37764765D01*
X138134671Y-37773030D01*
X138156850Y-37783520D01*
X138177893Y-37796132D01*
X138197599Y-37810747D01*
X138215777Y-37827223D01*
X138232253Y-37845401D01*
X138246868Y-37865107D01*
X138259480Y-37886150D01*
X138269970Y-37908329D01*
X138278235Y-37931428D01*
X138284196Y-37955227D01*
X138287796Y-37979495D01*
X138289000Y-38003999D01*
X138289000Y-38704001D01*
X138287796Y-38728505D01*
X138284196Y-38752773D01*
X138278235Y-38776572D01*
X138269970Y-38799671D01*
X138259480Y-38821850D01*
X138246868Y-38842893D01*
X138232253Y-38862599D01*
X138215777Y-38880777D01*
X138197599Y-38897253D01*
X138177893Y-38911868D01*
X138156850Y-38924480D01*
X138134671Y-38934970D01*
X138111572Y-38943235D01*
X138087773Y-38949196D01*
X138063505Y-38952796D01*
X138039001Y-38954000D01*
X136788999Y-38954000D01*
X136764495Y-38952796D01*
X136740227Y-38949196D01*
X136716428Y-38943235D01*
X136693329Y-38934970D01*
X136671150Y-38924480D01*
X136650107Y-38911868D01*
X136630401Y-38897253D01*
X136612223Y-38880777D01*
X136595747Y-38862599D01*
X136581132Y-38842893D01*
X136568520Y-38821850D01*
X136558030Y-38799671D01*
X136549765Y-38776572D01*
X136543804Y-38752773D01*
X136540204Y-38728505D01*
X136539000Y-38704001D01*
X136539000Y-38003999D01*
X136540204Y-37979495D01*
X136543804Y-37955227D01*
X136549765Y-37931428D01*
X136558030Y-37908329D01*
X136568520Y-37886150D01*
X136581132Y-37865107D01*
X136595747Y-37845401D01*
X136612223Y-37827223D01*
X136630401Y-37810747D01*
X136650107Y-37796132D01*
X136671150Y-37783520D01*
X136693329Y-37773030D01*
X136716428Y-37764765D01*
X136740227Y-37758804D01*
X136764495Y-37755204D01*
X136788999Y-37754000D01*
X138039001Y-37754000D01*
X138063505Y-37755204D01*
X138063505Y-37755204D01*
G37*
D15*
G04 #@! TD*
G04 #@! TO.P,J1,1*
G04 #@! TO.N,-12V*
X137414000Y-38354000D03*
D16*
G04 #@! TO.P,J1,2*
G04 #@! TO.N,GND*
X137414000Y-36354000D03*
G04 #@! TO.P,J1,3*
G04 #@! TO.N,+12V*
X137414000Y-34354000D03*
G04 #@! TD*
D13*
G04 #@! TO.P,R1,1*
G04 #@! TO.N,Net-(R1-Pad1)*
X148844000Y-78740000D03*
D17*
G04 #@! TO.P,R1,2*
G04 #@! TO.N,Net-(R1-Pad2)*
X148844000Y-83820000D03*
G04 #@! TD*
G04 #@! TO.P,R2,2*
G04 #@! TO.N,Net-(C8-Pad1)*
X160274000Y-65532000D03*
D13*
G04 #@! TO.P,R2,1*
G04 #@! TO.N,Net-(C9-Pad2)*
X160274000Y-60452000D03*
G04 #@! TD*
G04 #@! TO.P,R3,1*
G04 #@! TO.N,Net-(C9-Pad2)*
X158242000Y-56642000D03*
D17*
G04 #@! TO.P,R3,2*
G04 #@! TO.N,Net-(C8-Pad2)*
X163322000Y-56642000D03*
G04 #@! TD*
G04 #@! TO.P,R4,2*
G04 #@! TO.N,Net-(C12-Pad1)*
X171958000Y-76708000D03*
D13*
G04 #@! TO.P,R4,1*
G04 #@! TO.N,Net-(C13-Pad1)*
X171958000Y-71628000D03*
G04 #@! TD*
D17*
G04 #@! TO.P,R5,2*
G04 #@! TO.N,Net-(C11-Pad2)*
X163322000Y-82550000D03*
D13*
G04 #@! TO.P,R5,1*
G04 #@! TO.N,Net-(C16-Pad1)*
X168402000Y-82550000D03*
G04 #@! TD*
G04 #@! TO.P,R6,1*
G04 #@! TO.N,Net-(C16-Pad1)*
X168402000Y-75438000D03*
D17*
G04 #@! TO.P,R6,2*
G04 #@! TO.N,Net-(C12-Pad1)*
X163322000Y-75438000D03*
G04 #@! TD*
D13*
G04 #@! TO.P,R7,1*
G04 #@! TO.N,Net-(C16-Pad1)*
X168402000Y-86106000D03*
D17*
G04 #@! TO.P,R7,2*
G04 #@! TO.N,Net-(C12-Pad2)*
X163322000Y-86106000D03*
G04 #@! TD*
G04 #@! TO.P,R8,2*
G04 #@! TO.N,Net-(C9-Pad2)*
X147320000Y-55372000D03*
D13*
G04 #@! TO.P,R8,1*
G04 #@! TO.N,Net-(C15-Pad1)*
X142240000Y-55372000D03*
G04 #@! TD*
G04 #@! TO.P,R9,1*
G04 #@! TO.N,GND*
X148844000Y-59436000D03*
D17*
G04 #@! TO.P,R9,2*
G04 #@! TO.N,Input*
X143764000Y-59436000D03*
G04 #@! TD*
D18*
G04 #@! TO.P,RV1,3*
G04 #@! TO.N,Net-(RV1-Pad3)*
X137240000Y-75184000D03*
G04 #@! TO.P,RV1,2*
G04 #@! TO.N,Net-(R1-Pad2)*
X139740000Y-75184000D03*
G04 #@! TO.P,RV1,1*
G04 #@! TO.N,GND*
X142240000Y-75184000D03*
D19*
G04 #@! TO.P,RV1,*
G04 #@! TO.N,*
X135340000Y-68184000D03*
X144140000Y-68184000D03*
G04 #@! TD*
D12*
G04 #@! TO.P,U2,1*
G04 #@! TO.N,+5V*
X152654000Y-69342000D03*
D17*
G04 #@! TO.P,U2,9*
G04 #@! TO.N,Net-(C10-Pad1)*
X160274000Y-87122000D03*
G04 #@! TO.P,U2,2*
G04 #@! TO.N,Net-(C3-Pad1)*
X152654000Y-71882000D03*
G04 #@! TO.P,U2,10*
G04 #@! TO.N,Net-(C10-Pad2)*
X160274000Y-84582000D03*
G04 #@! TO.P,U2,3*
G04 #@! TO.N,GND*
X152654000Y-74422000D03*
G04 #@! TO.P,U2,11*
G04 #@! TO.N,Net-(C11-Pad1)*
X160274000Y-82042000D03*
G04 #@! TO.P,U2,4*
G04 #@! TO.N,GND*
X152654000Y-76962000D03*
G04 #@! TO.P,U2,12*
G04 #@! TO.N,Net-(C11-Pad2)*
X160274000Y-79502000D03*
G04 #@! TO.P,U2,5*
G04 #@! TO.N,Net-(U2-Pad5)*
X152654000Y-79502000D03*
G04 #@! TO.P,U2,13*
G04 #@! TO.N,Net-(C12-Pad2)*
X160274000Y-76962000D03*
G04 #@! TO.P,U2,6*
G04 #@! TO.N,Net-(R1-Pad1)*
X152654000Y-82042000D03*
G04 #@! TO.P,U2,14*
G04 #@! TO.N,Net-(C12-Pad1)*
X160274000Y-74422000D03*
G04 #@! TO.P,U2,7*
G04 #@! TO.N,Net-(C4-Pad2)*
X152654000Y-84582000D03*
G04 #@! TO.P,U2,15*
G04 #@! TO.N,Net-(C8-Pad2)*
X160274000Y-71882000D03*
G04 #@! TO.P,U2,8*
G04 #@! TO.N,Net-(C7-Pad2)*
X152654000Y-87122000D03*
G04 #@! TO.P,U2,16*
G04 #@! TO.N,Net-(C8-Pad1)*
X160274000Y-69342000D03*
G04 #@! TD*
D20*
G04 #@! TO.N,GND*
X152654000Y-74422000D02*
X152654000Y-76962000D01*
G04 #@! TO.N,+5V*
X154178000Y-64008000D02*
X154178000Y-53594000D01*
X152654000Y-65532000D02*
X154178000Y-64008000D01*
G04 #@! TO.N,Net-(C11-Pad1)*
X164846000Y-89800630D02*
X164846000Y-90932000D01*
X164846000Y-85964998D02*
X164846000Y-89800630D01*
X161723001Y-82841999D02*
X164846000Y-85964998D01*
X161073999Y-82841999D02*
X161723001Y-82841999D01*
X160274000Y-82042000D02*
X161073999Y-82841999D01*
G04 #@! TD*
D21*
G04 #@! TO.N,GND*
G36*
X142165843Y-32581735D02*
X142116560Y-32829500D01*
X142116560Y-34734500D01*
X142165843Y-34982265D01*
X142306191Y-35192309D01*
X142511143Y-35329255D01*
X142388027Y-35455076D01*
X142173437Y-35949020D01*
X142293406Y-36195000D01*
X143637000Y-36195000D01*
X143637000Y-36175000D01*
X143891000Y-36175000D01*
X143891000Y-36195000D01*
X145234594Y-36195000D01*
X145354563Y-35949020D01*
X145139973Y-35455076D01*
X145016857Y-35329255D01*
X145221809Y-35192309D01*
X145362157Y-34982265D01*
X145411440Y-34734500D01*
X145411440Y-32829500D01*
X145362157Y-32581735D01*
X145230702Y-32385000D01*
X170310606Y-32385000D01*
X171402943Y-70304680D01*
X171145138Y-70411466D01*
X170741466Y-70815138D01*
X170523000Y-71342561D01*
X170523000Y-71913439D01*
X170741466Y-72440862D01*
X171145138Y-72844534D01*
X171480104Y-72983282D01*
X171547605Y-75326520D01*
X171398091Y-75356260D01*
X170923423Y-75673423D01*
X170606260Y-76148091D01*
X170494887Y-76708000D01*
X170606260Y-77267909D01*
X170923423Y-77742577D01*
X171398091Y-78059740D01*
X171627655Y-78105403D01*
X172009000Y-91343517D01*
X172009000Y-91630569D01*
X172017887Y-91652024D01*
X172081315Y-93853880D01*
X145719567Y-94032000D01*
X134747000Y-94032000D01*
X134747000Y-92701745D01*
X144713861Y-92701745D01*
X144787995Y-92947864D01*
X145325223Y-93140965D01*
X145895454Y-93113778D01*
X146296005Y-92947864D01*
X146370139Y-92701745D01*
X148269861Y-92701745D01*
X148343995Y-92947864D01*
X148881223Y-93140965D01*
X149451454Y-93113778D01*
X149852005Y-92947864D01*
X149926139Y-92701745D01*
X149098000Y-91873605D01*
X148269861Y-92701745D01*
X146370139Y-92701745D01*
X145542000Y-91873605D01*
X144713861Y-92701745D01*
X134747000Y-92701745D01*
X134747000Y-91477223D01*
X144095035Y-91477223D01*
X144122222Y-92047454D01*
X144288136Y-92448005D01*
X144534255Y-92522139D01*
X145362395Y-91694000D01*
X145721605Y-91694000D01*
X146549745Y-92522139D01*
X146795864Y-92448005D01*
X146988965Y-91910777D01*
X146968295Y-91477223D01*
X147651035Y-91477223D01*
X147678222Y-92047454D01*
X147844136Y-92448005D01*
X148090255Y-92522139D01*
X148918395Y-91694000D01*
X149277605Y-91694000D01*
X150105745Y-92522139D01*
X150351864Y-92448005D01*
X150544965Y-91910777D01*
X150517778Y-91340546D01*
X150351864Y-90939995D01*
X150105745Y-90865861D01*
X149277605Y-91694000D01*
X148918395Y-91694000D01*
X148090255Y-90865861D01*
X147844136Y-90939995D01*
X147651035Y-91477223D01*
X146968295Y-91477223D01*
X146961778Y-91340546D01*
X146795864Y-90939995D01*
X146549745Y-90865861D01*
X145721605Y-91694000D01*
X145362395Y-91694000D01*
X144534255Y-90865861D01*
X144288136Y-90939995D01*
X144095035Y-91477223D01*
X134747000Y-91477223D01*
X134747000Y-90686255D01*
X144713861Y-90686255D01*
X145542000Y-91514395D01*
X146370139Y-90686255D01*
X148269861Y-90686255D01*
X149098000Y-91514395D01*
X149926139Y-90686255D01*
X149914183Y-90646561D01*
X150791000Y-90646561D01*
X150791000Y-91217439D01*
X151009466Y-91744862D01*
X151413138Y-92148534D01*
X151940561Y-92367000D01*
X152511439Y-92367000D01*
X153038862Y-92148534D01*
X153442534Y-91744862D01*
X153661000Y-91217439D01*
X153661000Y-90646561D01*
X155791000Y-90646561D01*
X155791000Y-91217439D01*
X156009466Y-91744862D01*
X156413138Y-92148534D01*
X156940561Y-92367000D01*
X157511439Y-92367000D01*
X158038862Y-92148534D01*
X158442534Y-91744862D01*
X158536000Y-91519215D01*
X158629466Y-91744862D01*
X159033138Y-92148534D01*
X159560561Y-92367000D01*
X160131439Y-92367000D01*
X160658862Y-92148534D01*
X161062534Y-91744862D01*
X161281000Y-91217439D01*
X161281000Y-90646561D01*
X161062534Y-90119138D01*
X160658862Y-89715466D01*
X160131439Y-89497000D01*
X159560561Y-89497000D01*
X159033138Y-89715466D01*
X158629466Y-90119138D01*
X158536000Y-90344785D01*
X158442534Y-90119138D01*
X158038862Y-89715466D01*
X157511439Y-89497000D01*
X156940561Y-89497000D01*
X156413138Y-89715466D01*
X156009466Y-90119138D01*
X155791000Y-90646561D01*
X153661000Y-90646561D01*
X153442534Y-90119138D01*
X153038862Y-89715466D01*
X152511439Y-89497000D01*
X151940561Y-89497000D01*
X151413138Y-89715466D01*
X151009466Y-90119138D01*
X150791000Y-90646561D01*
X149914183Y-90646561D01*
X149852005Y-90440136D01*
X149314777Y-90247035D01*
X148744546Y-90274222D01*
X148343995Y-90440136D01*
X148269861Y-90686255D01*
X146370139Y-90686255D01*
X146296005Y-90440136D01*
X145758777Y-90247035D01*
X145188546Y-90274222D01*
X144787995Y-90440136D01*
X144713861Y-90686255D01*
X134747000Y-90686255D01*
X134747000Y-86408561D01*
X144107000Y-86408561D01*
X144107000Y-86979439D01*
X144325466Y-87506862D01*
X144729138Y-87910534D01*
X145256561Y-88129000D01*
X145827439Y-88129000D01*
X146354862Y-87910534D01*
X146758534Y-87506862D01*
X146977000Y-86979439D01*
X146977000Y-86408561D01*
X147663000Y-86408561D01*
X147663000Y-86979439D01*
X147881466Y-87506862D01*
X148285138Y-87910534D01*
X148812561Y-88129000D01*
X149383439Y-88129000D01*
X149910862Y-87910534D01*
X150314534Y-87506862D01*
X150533000Y-86979439D01*
X150533000Y-86408561D01*
X150314534Y-85881138D01*
X149910862Y-85477466D01*
X149383439Y-85259000D01*
X148812561Y-85259000D01*
X148285138Y-85477466D01*
X147881466Y-85881138D01*
X147663000Y-86408561D01*
X146977000Y-86408561D01*
X146758534Y-85881138D01*
X146354862Y-85477466D01*
X145827439Y-85259000D01*
X145256561Y-85259000D01*
X144729138Y-85477466D01*
X144325466Y-85881138D01*
X144107000Y-86408561D01*
X134747000Y-86408561D01*
X134747000Y-83820000D01*
X147380887Y-83820000D01*
X147492260Y-84379909D01*
X147809423Y-84854577D01*
X148284091Y-85171740D01*
X148702667Y-85255000D01*
X148985333Y-85255000D01*
X149403909Y-85171740D01*
X149878577Y-84854577D01*
X150195740Y-84379909D01*
X150307113Y-83820000D01*
X150195740Y-83260091D01*
X149878577Y-82785423D01*
X149403909Y-82468260D01*
X148985333Y-82385000D01*
X148702667Y-82385000D01*
X148284091Y-82468260D01*
X147809423Y-82785423D01*
X147492260Y-83260091D01*
X147380887Y-83820000D01*
X134747000Y-83820000D01*
X134747000Y-81779745D01*
X139927861Y-81779745D01*
X140001995Y-82025864D01*
X140539223Y-82218965D01*
X141109454Y-82191778D01*
X141510005Y-82025864D01*
X141584139Y-81779745D01*
X140756000Y-80951605D01*
X139927861Y-81779745D01*
X134747000Y-81779745D01*
X134747000Y-80555223D01*
X139309035Y-80555223D01*
X139336222Y-81125454D01*
X139502136Y-81526005D01*
X139748255Y-81600139D01*
X140576395Y-80772000D01*
X140935605Y-80772000D01*
X141763745Y-81600139D01*
X141811307Y-81585813D01*
X141857843Y-81819765D01*
X141998191Y-82029809D01*
X142208235Y-82170157D01*
X142456000Y-82219440D01*
X144056000Y-82219440D01*
X144303765Y-82170157D01*
X144513809Y-82029809D01*
X144654157Y-81819765D01*
X144703440Y-81572000D01*
X144703440Y-79972000D01*
X144654157Y-79724235D01*
X144513809Y-79514191D01*
X144303765Y-79373843D01*
X144056000Y-79324560D01*
X142456000Y-79324560D01*
X142208235Y-79373843D01*
X141998191Y-79514191D01*
X141857843Y-79724235D01*
X141811307Y-79958187D01*
X141763745Y-79943861D01*
X140935605Y-80772000D01*
X140576395Y-80772000D01*
X139748255Y-79943861D01*
X139502136Y-80017995D01*
X139309035Y-80555223D01*
X134747000Y-80555223D01*
X134747000Y-79764255D01*
X139927861Y-79764255D01*
X140756000Y-80592395D01*
X141584139Y-79764255D01*
X141510005Y-79518136D01*
X140972777Y-79325035D01*
X140402546Y-79352222D01*
X140001995Y-79518136D01*
X139927861Y-79764255D01*
X134747000Y-79764255D01*
X134747000Y-78454561D01*
X147409000Y-78454561D01*
X147409000Y-79025439D01*
X147627466Y-79552862D01*
X148031138Y-79956534D01*
X148558561Y-80175000D01*
X149129439Y-80175000D01*
X149656862Y-79956534D01*
X150060534Y-79552862D01*
X150081601Y-79502000D01*
X151190887Y-79502000D01*
X151302260Y-80061909D01*
X151619423Y-80536577D01*
X151971758Y-80772000D01*
X151619423Y-81007423D01*
X151302260Y-81482091D01*
X151190887Y-82042000D01*
X151302260Y-82601909D01*
X151619423Y-83076577D01*
X151971758Y-83312000D01*
X151619423Y-83547423D01*
X151302260Y-84022091D01*
X151190887Y-84582000D01*
X151302260Y-85141909D01*
X151619423Y-85616577D01*
X151971758Y-85852000D01*
X151619423Y-86087423D01*
X151302260Y-86562091D01*
X151190887Y-87122000D01*
X151302260Y-87681909D01*
X151619423Y-88156577D01*
X152094091Y-88473740D01*
X152512667Y-88557000D01*
X152795333Y-88557000D01*
X153213909Y-88473740D01*
X153688577Y-88156577D01*
X154005740Y-87681909D01*
X154117113Y-87122000D01*
X154005740Y-86562091D01*
X153688577Y-86087423D01*
X153336242Y-85852000D01*
X153688577Y-85616577D01*
X154005740Y-85141909D01*
X154117113Y-84582000D01*
X154005740Y-84022091D01*
X153688577Y-83547423D01*
X153336242Y-83312000D01*
X153688577Y-83076577D01*
X154005740Y-82601909D01*
X154117113Y-82042000D01*
X154005740Y-81482091D01*
X153688577Y-81007423D01*
X153336242Y-80772000D01*
X153688577Y-80536577D01*
X154005740Y-80061909D01*
X154117113Y-79502000D01*
X154005740Y-78942091D01*
X153688577Y-78467423D01*
X153304892Y-78211053D01*
X153509134Y-78114389D01*
X153885041Y-77699423D01*
X154045904Y-77311039D01*
X153923915Y-77089000D01*
X152781000Y-77089000D01*
X152781000Y-77109000D01*
X152527000Y-77109000D01*
X152527000Y-77089000D01*
X151384085Y-77089000D01*
X151262096Y-77311039D01*
X151422959Y-77699423D01*
X151798866Y-78114389D01*
X152003108Y-78211053D01*
X151619423Y-78467423D01*
X151302260Y-78942091D01*
X151190887Y-79502000D01*
X150081601Y-79502000D01*
X150279000Y-79025439D01*
X150279000Y-78454561D01*
X150060534Y-77927138D01*
X149656862Y-77523466D01*
X149129439Y-77305000D01*
X148558561Y-77305000D01*
X148031138Y-77523466D01*
X147627466Y-77927138D01*
X147409000Y-78454561D01*
X134747000Y-78454561D01*
X134747000Y-74878670D01*
X135705000Y-74878670D01*
X135705000Y-75489330D01*
X135938690Y-76053507D01*
X136370493Y-76485310D01*
X136934670Y-76719000D01*
X137545330Y-76719000D01*
X138109507Y-76485310D01*
X138490000Y-76104817D01*
X138870493Y-76485310D01*
X139434670Y-76719000D01*
X140045330Y-76719000D01*
X140609507Y-76485310D01*
X140830658Y-76264159D01*
X141339446Y-76264159D01*
X141425852Y-76520643D01*
X141999336Y-76730458D01*
X142609460Y-76704839D01*
X143054148Y-76520643D01*
X143140554Y-76264159D01*
X142240000Y-75363605D01*
X141339446Y-76264159D01*
X140830658Y-76264159D01*
X141041310Y-76053507D01*
X141044539Y-76045710D01*
X141159841Y-76084554D01*
X142060395Y-75184000D01*
X142419605Y-75184000D01*
X143320159Y-76084554D01*
X143576643Y-75998148D01*
X143786458Y-75424664D01*
X143760839Y-74814540D01*
X143742821Y-74771039D01*
X151262096Y-74771039D01*
X151422959Y-75159423D01*
X151798866Y-75574389D01*
X152047367Y-75692000D01*
X151798866Y-75809611D01*
X151422959Y-76224577D01*
X151262096Y-76612961D01*
X151384085Y-76835000D01*
X152527000Y-76835000D01*
X152527000Y-74549000D01*
X152781000Y-74549000D01*
X152781000Y-76835000D01*
X153923915Y-76835000D01*
X154045904Y-76612961D01*
X153885041Y-76224577D01*
X153509134Y-75809611D01*
X153260633Y-75692000D01*
X153509134Y-75574389D01*
X153885041Y-75159423D01*
X154045904Y-74771039D01*
X153923915Y-74549000D01*
X152781000Y-74549000D01*
X152527000Y-74549000D01*
X151384085Y-74549000D01*
X151262096Y-74771039D01*
X143742821Y-74771039D01*
X143576643Y-74369852D01*
X143320159Y-74283446D01*
X142419605Y-75184000D01*
X142060395Y-75184000D01*
X141159841Y-74283446D01*
X141044539Y-74322290D01*
X141041310Y-74314493D01*
X140830658Y-74103841D01*
X141339446Y-74103841D01*
X142240000Y-75004395D01*
X143140554Y-74103841D01*
X143054148Y-73847357D01*
X142480664Y-73637542D01*
X141870540Y-73663161D01*
X141425852Y-73847357D01*
X141339446Y-74103841D01*
X140830658Y-74103841D01*
X140609507Y-73882690D01*
X140045330Y-73649000D01*
X139434670Y-73649000D01*
X138870493Y-73882690D01*
X138490000Y-74263183D01*
X138109507Y-73882690D01*
X137545330Y-73649000D01*
X136934670Y-73649000D01*
X136370493Y-73882690D01*
X135938690Y-74314493D01*
X135705000Y-74878670D01*
X134747000Y-74878670D01*
X134747000Y-71882000D01*
X151190887Y-71882000D01*
X151302260Y-72441909D01*
X151619423Y-72916577D01*
X152003108Y-73172947D01*
X151798866Y-73269611D01*
X151422959Y-73684577D01*
X151262096Y-74072961D01*
X151384085Y-74295000D01*
X152527000Y-74295000D01*
X152527000Y-74275000D01*
X152781000Y-74275000D01*
X152781000Y-74295000D01*
X153923915Y-74295000D01*
X154045904Y-74072961D01*
X153885041Y-73684577D01*
X153509134Y-73269611D01*
X153304892Y-73172947D01*
X153688577Y-72916577D01*
X154005740Y-72441909D01*
X154117113Y-71882000D01*
X154005740Y-71322091D01*
X153688577Y-70847423D01*
X153567894Y-70766785D01*
X153701765Y-70740157D01*
X153911809Y-70599809D01*
X154052157Y-70389765D01*
X154101440Y-70142000D01*
X154101440Y-69342000D01*
X158810887Y-69342000D01*
X158922260Y-69901909D01*
X159239423Y-70376577D01*
X159591758Y-70612000D01*
X159239423Y-70847423D01*
X158922260Y-71322091D01*
X158810887Y-71882000D01*
X158922260Y-72441909D01*
X159239423Y-72916577D01*
X159591758Y-73152000D01*
X159239423Y-73387423D01*
X158922260Y-73862091D01*
X158810887Y-74422000D01*
X158922260Y-74981909D01*
X159239423Y-75456577D01*
X159591758Y-75692000D01*
X159239423Y-75927423D01*
X158922260Y-76402091D01*
X158810887Y-76962000D01*
X158922260Y-77521909D01*
X159239423Y-77996577D01*
X159591758Y-78232000D01*
X159239423Y-78467423D01*
X158922260Y-78942091D01*
X158810887Y-79502000D01*
X158922260Y-80061909D01*
X159239423Y-80536577D01*
X159591758Y-80772000D01*
X159239423Y-81007423D01*
X158922260Y-81482091D01*
X158810887Y-82042000D01*
X158922260Y-82601909D01*
X159239423Y-83076577D01*
X159591758Y-83312000D01*
X159239423Y-83547423D01*
X158922260Y-84022091D01*
X158810887Y-84582000D01*
X158922260Y-85141909D01*
X159239423Y-85616577D01*
X159591758Y-85852000D01*
X159239423Y-86087423D01*
X158922260Y-86562091D01*
X158810887Y-87122000D01*
X158922260Y-87681909D01*
X159239423Y-88156577D01*
X159714091Y-88473740D01*
X160132667Y-88557000D01*
X160415333Y-88557000D01*
X160833909Y-88473740D01*
X161308577Y-88156577D01*
X161625740Y-87681909D01*
X161737113Y-87122000D01*
X161625740Y-86562091D01*
X161308577Y-86087423D01*
X160956242Y-85852000D01*
X161308577Y-85616577D01*
X161625740Y-85141909D01*
X161737113Y-84582000D01*
X161625740Y-84022091D01*
X161345044Y-83601999D01*
X161408200Y-83601999D01*
X162641222Y-84835022D01*
X162287423Y-85071423D01*
X161970260Y-85546091D01*
X161858887Y-86106000D01*
X161970260Y-86665909D01*
X162287423Y-87140577D01*
X162762091Y-87457740D01*
X163180667Y-87541000D01*
X163463333Y-87541000D01*
X163881909Y-87457740D01*
X164086000Y-87321371D01*
X164086001Y-89693569D01*
X164033138Y-89715466D01*
X163629466Y-90119138D01*
X163411000Y-90646561D01*
X163411000Y-91217439D01*
X163629466Y-91744862D01*
X164033138Y-92148534D01*
X164560561Y-92367000D01*
X165131439Y-92367000D01*
X165658862Y-92148534D01*
X166062534Y-91744862D01*
X166281000Y-91217439D01*
X166281000Y-90646561D01*
X166062534Y-90119138D01*
X165658862Y-89715466D01*
X165606000Y-89693570D01*
X165606000Y-86039846D01*
X165620888Y-85964998D01*
X165606000Y-85890150D01*
X165606000Y-85890146D01*
X165592159Y-85820561D01*
X166967000Y-85820561D01*
X166967000Y-86391439D01*
X167185466Y-86918862D01*
X167589138Y-87322534D01*
X168116561Y-87541000D01*
X168687439Y-87541000D01*
X169214862Y-87322534D01*
X169618534Y-86918862D01*
X169837000Y-86391439D01*
X169837000Y-85820561D01*
X169618534Y-85293138D01*
X169214862Y-84889466D01*
X168687439Y-84671000D01*
X168116561Y-84671000D01*
X167589138Y-84889466D01*
X167185466Y-85293138D01*
X166967000Y-85820561D01*
X165592159Y-85820561D01*
X165561904Y-85668461D01*
X165393929Y-85417069D01*
X165330473Y-85374669D01*
X163861586Y-83905782D01*
X163881909Y-83901740D01*
X164356577Y-83584577D01*
X164673740Y-83109909D01*
X164785113Y-82550000D01*
X164728336Y-82264561D01*
X166967000Y-82264561D01*
X166967000Y-82835439D01*
X167185466Y-83362862D01*
X167589138Y-83766534D01*
X168116561Y-83985000D01*
X168687439Y-83985000D01*
X169214862Y-83766534D01*
X169618534Y-83362862D01*
X169837000Y-82835439D01*
X169837000Y-82264561D01*
X169618534Y-81737138D01*
X169214862Y-81333466D01*
X168687439Y-81115000D01*
X168116561Y-81115000D01*
X167589138Y-81333466D01*
X167185466Y-81737138D01*
X166967000Y-82264561D01*
X164728336Y-82264561D01*
X164673740Y-81990091D01*
X164356577Y-81515423D01*
X163881909Y-81198260D01*
X163463333Y-81115000D01*
X163180667Y-81115000D01*
X162762091Y-81198260D01*
X162287423Y-81515423D01*
X161970260Y-81990091D01*
X161946112Y-82111490D01*
X161797853Y-82081999D01*
X161797848Y-82081999D01*
X161731771Y-82068855D01*
X161737113Y-82042000D01*
X161625740Y-81482091D01*
X161308577Y-81007423D01*
X160956242Y-80772000D01*
X161308577Y-80536577D01*
X161625740Y-80061909D01*
X161737113Y-79502000D01*
X161625740Y-78942091D01*
X161469701Y-78708561D01*
X161967000Y-78708561D01*
X161967000Y-79279439D01*
X162185466Y-79806862D01*
X162589138Y-80210534D01*
X163116561Y-80429000D01*
X163687439Y-80429000D01*
X164214862Y-80210534D01*
X164618534Y-79806862D01*
X164837000Y-79279439D01*
X164837000Y-78708561D01*
X166967000Y-78708561D01*
X166967000Y-79279439D01*
X167185466Y-79806862D01*
X167589138Y-80210534D01*
X168116561Y-80429000D01*
X168687439Y-80429000D01*
X169214862Y-80210534D01*
X169618534Y-79806862D01*
X169837000Y-79279439D01*
X169837000Y-78708561D01*
X169618534Y-78181138D01*
X169214862Y-77777466D01*
X168687439Y-77559000D01*
X168116561Y-77559000D01*
X167589138Y-77777466D01*
X167185466Y-78181138D01*
X166967000Y-78708561D01*
X164837000Y-78708561D01*
X164618534Y-78181138D01*
X164214862Y-77777466D01*
X163687439Y-77559000D01*
X163116561Y-77559000D01*
X162589138Y-77777466D01*
X162185466Y-78181138D01*
X161967000Y-78708561D01*
X161469701Y-78708561D01*
X161308577Y-78467423D01*
X160956242Y-78232000D01*
X161308577Y-77996577D01*
X161625740Y-77521909D01*
X161737113Y-76962000D01*
X161625740Y-76402091D01*
X161308577Y-75927423D01*
X160956242Y-75692000D01*
X161308577Y-75456577D01*
X161320989Y-75438000D01*
X161858887Y-75438000D01*
X161970260Y-75997909D01*
X162287423Y-76472577D01*
X162762091Y-76789740D01*
X163180667Y-76873000D01*
X163463333Y-76873000D01*
X163881909Y-76789740D01*
X164356577Y-76472577D01*
X164673740Y-75997909D01*
X164785113Y-75438000D01*
X164728336Y-75152561D01*
X166967000Y-75152561D01*
X166967000Y-75723439D01*
X167185466Y-76250862D01*
X167589138Y-76654534D01*
X168116561Y-76873000D01*
X168687439Y-76873000D01*
X169214862Y-76654534D01*
X169618534Y-76250862D01*
X169837000Y-75723439D01*
X169837000Y-75152561D01*
X169618534Y-74625138D01*
X169214862Y-74221466D01*
X168687439Y-74003000D01*
X168116561Y-74003000D01*
X167589138Y-74221466D01*
X167185466Y-74625138D01*
X166967000Y-75152561D01*
X164728336Y-75152561D01*
X164673740Y-74878091D01*
X164356577Y-74403423D01*
X163881909Y-74086260D01*
X163463333Y-74003000D01*
X163180667Y-74003000D01*
X162762091Y-74086260D01*
X162287423Y-74403423D01*
X161970260Y-74878091D01*
X161858887Y-75438000D01*
X161320989Y-75438000D01*
X161625740Y-74981909D01*
X161737113Y-74422000D01*
X161625740Y-73862091D01*
X161308577Y-73387423D01*
X160956242Y-73152000D01*
X160968596Y-73143745D01*
X162573861Y-73143745D01*
X162647995Y-73389864D01*
X163185223Y-73582965D01*
X163755454Y-73555778D01*
X164156005Y-73389864D01*
X164230139Y-73143745D01*
X163402000Y-72315605D01*
X162573861Y-73143745D01*
X160968596Y-73143745D01*
X161308577Y-72916577D01*
X161625740Y-72441909D01*
X161729708Y-71919223D01*
X161955035Y-71919223D01*
X161982222Y-72489454D01*
X162148136Y-72890005D01*
X162394255Y-72964139D01*
X163222395Y-72136000D01*
X163581605Y-72136000D01*
X164409745Y-72964139D01*
X164655864Y-72890005D01*
X164848965Y-72352777D01*
X164825021Y-71850561D01*
X166967000Y-71850561D01*
X166967000Y-72421439D01*
X167185466Y-72948862D01*
X167589138Y-73352534D01*
X168116561Y-73571000D01*
X168687439Y-73571000D01*
X169214862Y-73352534D01*
X169618534Y-72948862D01*
X169837000Y-72421439D01*
X169837000Y-71850561D01*
X169618534Y-71323138D01*
X169214862Y-70919466D01*
X168687439Y-70701000D01*
X168116561Y-70701000D01*
X167589138Y-70919466D01*
X167185466Y-71323138D01*
X166967000Y-71850561D01*
X164825021Y-71850561D01*
X164821778Y-71782546D01*
X164655864Y-71381995D01*
X164409745Y-71307861D01*
X163581605Y-72136000D01*
X163222395Y-72136000D01*
X162394255Y-71307861D01*
X162148136Y-71381995D01*
X161955035Y-71919223D01*
X161729708Y-71919223D01*
X161737113Y-71882000D01*
X161625740Y-71322091D01*
X161496223Y-71128255D01*
X162573861Y-71128255D01*
X163402000Y-71956395D01*
X164230139Y-71128255D01*
X164156005Y-70882136D01*
X163618777Y-70689035D01*
X163048546Y-70716222D01*
X162647995Y-70882136D01*
X162573861Y-71128255D01*
X161496223Y-71128255D01*
X161308577Y-70847423D01*
X160956242Y-70612000D01*
X161308577Y-70376577D01*
X161625740Y-69901909D01*
X161688231Y-69587745D01*
X162573861Y-69587745D01*
X162647995Y-69833864D01*
X163185223Y-70026965D01*
X163755454Y-69999778D01*
X164156005Y-69833864D01*
X164230139Y-69587745D01*
X163402000Y-68759605D01*
X162573861Y-69587745D01*
X161688231Y-69587745D01*
X161737113Y-69342000D01*
X161625740Y-68782091D01*
X161345862Y-68363223D01*
X161955035Y-68363223D01*
X161982222Y-68933454D01*
X162148136Y-69334005D01*
X162394255Y-69408139D01*
X163222395Y-68580000D01*
X163581605Y-68580000D01*
X164409745Y-69408139D01*
X164655864Y-69334005D01*
X164848965Y-68796777D01*
X164825021Y-68294561D01*
X166967000Y-68294561D01*
X166967000Y-68865439D01*
X167185466Y-69392862D01*
X167589138Y-69796534D01*
X168116561Y-70015000D01*
X168687439Y-70015000D01*
X169214862Y-69796534D01*
X169618534Y-69392862D01*
X169837000Y-68865439D01*
X169837000Y-68294561D01*
X169618534Y-67767138D01*
X169214862Y-67363466D01*
X168687439Y-67145000D01*
X168116561Y-67145000D01*
X167589138Y-67363466D01*
X167185466Y-67767138D01*
X166967000Y-68294561D01*
X164825021Y-68294561D01*
X164821778Y-68226546D01*
X164655864Y-67825995D01*
X164409745Y-67751861D01*
X163581605Y-68580000D01*
X163222395Y-68580000D01*
X162394255Y-67751861D01*
X162148136Y-67825995D01*
X161955035Y-68363223D01*
X161345862Y-68363223D01*
X161308577Y-68307423D01*
X160833909Y-67990260D01*
X160415333Y-67907000D01*
X160132667Y-67907000D01*
X159714091Y-67990260D01*
X159239423Y-68307423D01*
X158922260Y-68782091D01*
X158810887Y-69342000D01*
X154101440Y-69342000D01*
X154101440Y-68542000D01*
X154052157Y-68294235D01*
X153911809Y-68084191D01*
X153701765Y-67943843D01*
X153454000Y-67894560D01*
X151854000Y-67894560D01*
X151606235Y-67943843D01*
X151396191Y-68084191D01*
X151255843Y-68294235D01*
X151206560Y-68542000D01*
X151206560Y-70142000D01*
X151255843Y-70389765D01*
X151396191Y-70599809D01*
X151606235Y-70740157D01*
X151740106Y-70766785D01*
X151619423Y-70847423D01*
X151302260Y-71322091D01*
X151190887Y-71882000D01*
X134747000Y-71882000D01*
X134747000Y-70790475D01*
X134815866Y-70819000D01*
X135864134Y-70819000D01*
X136832608Y-70417845D01*
X137573845Y-69676608D01*
X137975000Y-68708134D01*
X137975000Y-67659866D01*
X141505000Y-67659866D01*
X141505000Y-68708134D01*
X141906155Y-69676608D01*
X142647392Y-70417845D01*
X143615866Y-70819000D01*
X144664134Y-70819000D01*
X145632608Y-70417845D01*
X146373845Y-69676608D01*
X146775000Y-68708134D01*
X146775000Y-67659866D01*
X146738711Y-67572255D01*
X162573861Y-67572255D01*
X163402000Y-68400395D01*
X164230139Y-67572255D01*
X164156005Y-67326136D01*
X163618777Y-67133035D01*
X163048546Y-67160222D01*
X162647995Y-67326136D01*
X162573861Y-67572255D01*
X146738711Y-67572255D01*
X146373845Y-66691392D01*
X145632608Y-65950155D01*
X144664134Y-65549000D01*
X143615866Y-65549000D01*
X142647392Y-65950155D01*
X141906155Y-66691392D01*
X141505000Y-67659866D01*
X137975000Y-67659866D01*
X137573845Y-66691392D01*
X136832608Y-65950155D01*
X135864134Y-65549000D01*
X134815866Y-65549000D01*
X134747000Y-65577525D01*
X134747000Y-65246561D01*
X151219000Y-65246561D01*
X151219000Y-65817439D01*
X151437466Y-66344862D01*
X151841138Y-66748534D01*
X152368561Y-66967000D01*
X152939439Y-66967000D01*
X153466862Y-66748534D01*
X153870534Y-66344862D01*
X153895021Y-66285745D01*
X155635861Y-66285745D01*
X155709995Y-66531864D01*
X156247223Y-66724965D01*
X156817454Y-66697778D01*
X157218005Y-66531864D01*
X157292139Y-66285745D01*
X156464000Y-65457605D01*
X155635861Y-66285745D01*
X153895021Y-66285745D01*
X154089000Y-65817439D01*
X154089000Y-65246561D01*
X154067104Y-65193699D01*
X154199580Y-65061223D01*
X155017035Y-65061223D01*
X155044222Y-65631454D01*
X155210136Y-66032005D01*
X155456255Y-66106139D01*
X156284395Y-65278000D01*
X156643605Y-65278000D01*
X157471745Y-66106139D01*
X157717864Y-66032005D01*
X157897585Y-65532000D01*
X158810887Y-65532000D01*
X158922260Y-66091909D01*
X159239423Y-66566577D01*
X159714091Y-66883740D01*
X160132667Y-66967000D01*
X160415333Y-66967000D01*
X160833909Y-66883740D01*
X161308577Y-66566577D01*
X161625740Y-66091909D01*
X161737113Y-65532000D01*
X161625740Y-64972091D01*
X161469701Y-64738561D01*
X161887000Y-64738561D01*
X161887000Y-65309439D01*
X162105466Y-65836862D01*
X162509138Y-66240534D01*
X163036561Y-66459000D01*
X163607439Y-66459000D01*
X164134862Y-66240534D01*
X164538534Y-65836862D01*
X164757000Y-65309439D01*
X164757000Y-64738561D01*
X166887000Y-64738561D01*
X166887000Y-65309439D01*
X167105466Y-65836862D01*
X167509138Y-66240534D01*
X168036561Y-66459000D01*
X168607439Y-66459000D01*
X169134862Y-66240534D01*
X169538534Y-65836862D01*
X169757000Y-65309439D01*
X169757000Y-64738561D01*
X169538534Y-64211138D01*
X169134862Y-63807466D01*
X168607439Y-63589000D01*
X168036561Y-63589000D01*
X167509138Y-63807466D01*
X167105466Y-64211138D01*
X166887000Y-64738561D01*
X164757000Y-64738561D01*
X164538534Y-64211138D01*
X164134862Y-63807466D01*
X163607439Y-63589000D01*
X163036561Y-63589000D01*
X162509138Y-63807466D01*
X162105466Y-64211138D01*
X161887000Y-64738561D01*
X161469701Y-64738561D01*
X161308577Y-64497423D01*
X160833909Y-64180260D01*
X160415333Y-64097000D01*
X160132667Y-64097000D01*
X159714091Y-64180260D01*
X159239423Y-64497423D01*
X158922260Y-64972091D01*
X158810887Y-65532000D01*
X157897585Y-65532000D01*
X157910965Y-65494777D01*
X157883778Y-64924546D01*
X157717864Y-64523995D01*
X157471745Y-64449861D01*
X156643605Y-65278000D01*
X156284395Y-65278000D01*
X155456255Y-64449861D01*
X155210136Y-64523995D01*
X155017035Y-65061223D01*
X154199580Y-65061223D01*
X154662476Y-64598327D01*
X154725929Y-64555929D01*
X154768327Y-64492476D01*
X154768329Y-64492474D01*
X154893903Y-64304538D01*
X154893904Y-64304537D01*
X154900723Y-64270255D01*
X155635861Y-64270255D01*
X156464000Y-65098395D01*
X157292139Y-64270255D01*
X157218005Y-64024136D01*
X156680777Y-63831035D01*
X156110546Y-63858222D01*
X155709995Y-64024136D01*
X155635861Y-64270255D01*
X154900723Y-64270255D01*
X154938000Y-64082852D01*
X154938000Y-64082848D01*
X154952888Y-64008001D01*
X154938000Y-63933154D01*
X154938000Y-59992561D01*
X155029000Y-59992561D01*
X155029000Y-60563439D01*
X155247466Y-61090862D01*
X155651138Y-61494534D01*
X156178561Y-61713000D01*
X156749439Y-61713000D01*
X157276862Y-61494534D01*
X157680534Y-61090862D01*
X157899000Y-60563439D01*
X157899000Y-60166561D01*
X158839000Y-60166561D01*
X158839000Y-60737439D01*
X159057466Y-61264862D01*
X159461138Y-61668534D01*
X159988561Y-61887000D01*
X160559439Y-61887000D01*
X161086862Y-61668534D01*
X161490534Y-61264862D01*
X161709000Y-60737439D01*
X161709000Y-60166561D01*
X161490534Y-59639138D01*
X161086862Y-59235466D01*
X160559439Y-59017000D01*
X159988561Y-59017000D01*
X159461138Y-59235466D01*
X159057466Y-59639138D01*
X158839000Y-60166561D01*
X157899000Y-60166561D01*
X157899000Y-59992561D01*
X157680534Y-59465138D01*
X157276862Y-59061466D01*
X156749439Y-58843000D01*
X156178561Y-58843000D01*
X155651138Y-59061466D01*
X155247466Y-59465138D01*
X155029000Y-59992561D01*
X154938000Y-59992561D01*
X154938000Y-56356561D01*
X156807000Y-56356561D01*
X156807000Y-56927439D01*
X157025466Y-57454862D01*
X157429138Y-57858534D01*
X157956561Y-58077000D01*
X158527439Y-58077000D01*
X159054862Y-57858534D01*
X159458534Y-57454862D01*
X159677000Y-56927439D01*
X159677000Y-56642000D01*
X161858887Y-56642000D01*
X161970260Y-57201909D01*
X162287423Y-57676577D01*
X162762091Y-57993740D01*
X163180667Y-58077000D01*
X163463333Y-58077000D01*
X163881909Y-57993740D01*
X164061112Y-57874000D01*
X167970560Y-57874000D01*
X167970560Y-59474000D01*
X168019843Y-59721765D01*
X168160191Y-59931809D01*
X168370235Y-60072157D01*
X168618000Y-60121440D01*
X170218000Y-60121440D01*
X170465765Y-60072157D01*
X170675809Y-59931809D01*
X170816157Y-59721765D01*
X170865440Y-59474000D01*
X170865440Y-57874000D01*
X170816157Y-57626235D01*
X170675809Y-57416191D01*
X170465765Y-57275843D01*
X170365497Y-57255899D01*
X170634534Y-56986862D01*
X170853000Y-56459439D01*
X170853000Y-55888561D01*
X170634534Y-55361138D01*
X170230862Y-54957466D01*
X169703439Y-54739000D01*
X169132561Y-54739000D01*
X168605138Y-54957466D01*
X168201466Y-55361138D01*
X167983000Y-55888561D01*
X167983000Y-56459439D01*
X168201466Y-56986862D01*
X168470503Y-57255899D01*
X168370235Y-57275843D01*
X168160191Y-57416191D01*
X168019843Y-57626235D01*
X167970560Y-57874000D01*
X164061112Y-57874000D01*
X164356577Y-57676577D01*
X164673740Y-57201909D01*
X164785113Y-56642000D01*
X164673740Y-56082091D01*
X164356577Y-55607423D01*
X163881909Y-55290260D01*
X163463333Y-55207000D01*
X163180667Y-55207000D01*
X162762091Y-55290260D01*
X162287423Y-55607423D01*
X161970260Y-56082091D01*
X161858887Y-56642000D01*
X159677000Y-56642000D01*
X159677000Y-56356561D01*
X159458534Y-55829138D01*
X159054862Y-55425466D01*
X158527439Y-55207000D01*
X157956561Y-55207000D01*
X157429138Y-55425466D01*
X157025466Y-55829138D01*
X156807000Y-56356561D01*
X154938000Y-56356561D01*
X154938000Y-55041440D01*
X154978000Y-55041440D01*
X155225765Y-54992157D01*
X155435809Y-54851809D01*
X155576157Y-54641765D01*
X155625440Y-54394000D01*
X155625440Y-52794000D01*
X155576157Y-52546235D01*
X155435809Y-52336191D01*
X155225765Y-52195843D01*
X154978000Y-52146560D01*
X153378000Y-52146560D01*
X153130235Y-52195843D01*
X152920191Y-52336191D01*
X152779843Y-52546235D01*
X152733307Y-52780187D01*
X152685745Y-52765861D01*
X151857605Y-53594000D01*
X152685745Y-54422139D01*
X152733307Y-54407813D01*
X152779843Y-54641765D01*
X152920191Y-54851809D01*
X153130235Y-54992157D01*
X153378000Y-55041440D01*
X153418001Y-55041440D01*
X153418000Y-59311320D01*
X153408005Y-59278136D01*
X152870777Y-59085035D01*
X152300546Y-59112222D01*
X151899995Y-59278136D01*
X151825861Y-59524255D01*
X152654000Y-60352395D01*
X152668142Y-60338252D01*
X152847748Y-60517858D01*
X152833605Y-60532000D01*
X152847748Y-60546143D01*
X152668142Y-60725748D01*
X152654000Y-60711605D01*
X151825861Y-61539745D01*
X151899995Y-61785864D01*
X152437223Y-61978965D01*
X153007454Y-61951778D01*
X153408005Y-61785864D01*
X153418000Y-61752681D01*
X153418000Y-63693197D01*
X152992301Y-64118896D01*
X152939439Y-64097000D01*
X152368561Y-64097000D01*
X151841138Y-64315466D01*
X151437466Y-64719138D01*
X151219000Y-65246561D01*
X134747000Y-65246561D01*
X134747000Y-59436000D01*
X142300887Y-59436000D01*
X142412260Y-59995909D01*
X142729423Y-60470577D01*
X143204091Y-60787740D01*
X143622667Y-60871000D01*
X143905333Y-60871000D01*
X144323909Y-60787740D01*
X144798577Y-60470577D01*
X144816505Y-60443745D01*
X148015861Y-60443745D01*
X148089995Y-60689864D01*
X148627223Y-60882965D01*
X149197454Y-60855778D01*
X149598005Y-60689864D01*
X149672139Y-60443745D01*
X149543618Y-60315223D01*
X151207035Y-60315223D01*
X151234222Y-60885454D01*
X151400136Y-61286005D01*
X151646255Y-61360139D01*
X152474395Y-60532000D01*
X151646255Y-59703861D01*
X151400136Y-59777995D01*
X151207035Y-60315223D01*
X149543618Y-60315223D01*
X148844000Y-59615605D01*
X148015861Y-60443745D01*
X144816505Y-60443745D01*
X145115740Y-59995909D01*
X145227113Y-59436000D01*
X145183994Y-59219223D01*
X147397035Y-59219223D01*
X147424222Y-59789454D01*
X147590136Y-60190005D01*
X147836255Y-60264139D01*
X148664395Y-59436000D01*
X149023605Y-59436000D01*
X149851745Y-60264139D01*
X150097864Y-60190005D01*
X150290965Y-59652777D01*
X150263778Y-59082546D01*
X150097864Y-58681995D01*
X149851745Y-58607861D01*
X149023605Y-59436000D01*
X148664395Y-59436000D01*
X147836255Y-58607861D01*
X147590136Y-58681995D01*
X147397035Y-59219223D01*
X145183994Y-59219223D01*
X145115740Y-58876091D01*
X144816506Y-58428255D01*
X148015861Y-58428255D01*
X148844000Y-59256395D01*
X149672139Y-58428255D01*
X149598005Y-58182136D01*
X149060777Y-57989035D01*
X148490546Y-58016222D01*
X148089995Y-58182136D01*
X148015861Y-58428255D01*
X144816506Y-58428255D01*
X144798577Y-58401423D01*
X144323909Y-58084260D01*
X143905333Y-58001000D01*
X143622667Y-58001000D01*
X143204091Y-58084260D01*
X142729423Y-58401423D01*
X142412260Y-58876091D01*
X142300887Y-59436000D01*
X134747000Y-59436000D01*
X134747000Y-57996396D01*
X134863138Y-58112534D01*
X135390561Y-58331000D01*
X135961439Y-58331000D01*
X136488862Y-58112534D01*
X136757899Y-57843497D01*
X136777843Y-57943765D01*
X136918191Y-58153809D01*
X137128235Y-58294157D01*
X137376000Y-58343440D01*
X138976000Y-58343440D01*
X139223765Y-58294157D01*
X139433809Y-58153809D01*
X139574157Y-57943765D01*
X139623440Y-57696000D01*
X139623440Y-56096000D01*
X139574157Y-55848235D01*
X139433809Y-55638191D01*
X139223765Y-55497843D01*
X138976000Y-55448560D01*
X137376000Y-55448560D01*
X137128235Y-55497843D01*
X136918191Y-55638191D01*
X136777843Y-55848235D01*
X136757899Y-55948503D01*
X136488862Y-55679466D01*
X135961439Y-55461000D01*
X135390561Y-55461000D01*
X134863138Y-55679466D01*
X134747000Y-55795604D01*
X134747000Y-55086561D01*
X140805000Y-55086561D01*
X140805000Y-55657439D01*
X141023466Y-56184862D01*
X141427138Y-56588534D01*
X141954561Y-56807000D01*
X142525439Y-56807000D01*
X143052862Y-56588534D01*
X143456534Y-56184862D01*
X143675000Y-55657439D01*
X143675000Y-55372000D01*
X145856887Y-55372000D01*
X145968260Y-55931909D01*
X146285423Y-56406577D01*
X146760091Y-56723740D01*
X147178667Y-56807000D01*
X147461333Y-56807000D01*
X147879909Y-56723740D01*
X148354577Y-56406577D01*
X148671740Y-55931909D01*
X148783113Y-55372000D01*
X148671740Y-54812091D01*
X148531192Y-54601745D01*
X150849861Y-54601745D01*
X150923995Y-54847864D01*
X151461223Y-55040965D01*
X152031454Y-55013778D01*
X152432005Y-54847864D01*
X152506139Y-54601745D01*
X151678000Y-53773605D01*
X150849861Y-54601745D01*
X148531192Y-54601745D01*
X148354577Y-54337423D01*
X147879909Y-54020260D01*
X147461333Y-53937000D01*
X147178667Y-53937000D01*
X146760091Y-54020260D01*
X146285423Y-54337423D01*
X145968260Y-54812091D01*
X145856887Y-55372000D01*
X143675000Y-55372000D01*
X143675000Y-55086561D01*
X143456534Y-54559138D01*
X143052862Y-54155466D01*
X142525439Y-53937000D01*
X141954561Y-53937000D01*
X141427138Y-54155466D01*
X141023466Y-54559138D01*
X140805000Y-55086561D01*
X134747000Y-55086561D01*
X134747000Y-53377223D01*
X150231035Y-53377223D01*
X150258222Y-53947454D01*
X150424136Y-54348005D01*
X150670255Y-54422139D01*
X151498395Y-53594000D01*
X150670255Y-52765861D01*
X150424136Y-52839995D01*
X150231035Y-53377223D01*
X134747000Y-53377223D01*
X134747000Y-52586255D01*
X150849861Y-52586255D01*
X151678000Y-53414395D01*
X152506139Y-52586255D01*
X152432005Y-52340136D01*
X151894777Y-52147035D01*
X151324546Y-52174222D01*
X150923995Y-52340136D01*
X150849861Y-52586255D01*
X134747000Y-52586255D01*
X134747000Y-47964615D01*
X164683000Y-47964615D01*
X164683000Y-48555385D01*
X164909078Y-49101185D01*
X165326815Y-49518922D01*
X165872615Y-49745000D01*
X166463385Y-49745000D01*
X167009185Y-49518922D01*
X167426922Y-49101185D01*
X167653000Y-48555385D01*
X167653000Y-47964615D01*
X167426922Y-47418815D01*
X167009185Y-47001078D01*
X166463385Y-46775000D01*
X165872615Y-46775000D01*
X165326815Y-47001078D01*
X164909078Y-47418815D01*
X164683000Y-47964615D01*
X134747000Y-47964615D01*
X134747000Y-45424615D01*
X136385000Y-45424615D01*
X136385000Y-46015385D01*
X136611078Y-46561185D01*
X137028815Y-46978922D01*
X137574615Y-47205000D01*
X138165385Y-47205000D01*
X138711185Y-46978922D01*
X138962362Y-46727745D01*
X150381861Y-46727745D01*
X150455995Y-46973864D01*
X150993223Y-47166965D01*
X151563454Y-47139778D01*
X151964005Y-46973864D01*
X152038139Y-46727745D01*
X151210000Y-45899605D01*
X150381861Y-46727745D01*
X138962362Y-46727745D01*
X139128922Y-46561185D01*
X139355000Y-46015385D01*
X139355000Y-45503223D01*
X149763035Y-45503223D01*
X149790222Y-46073454D01*
X149956136Y-46474005D01*
X150202255Y-46548139D01*
X151030395Y-45720000D01*
X151389605Y-45720000D01*
X152217745Y-46548139D01*
X152463864Y-46474005D01*
X152656965Y-45936777D01*
X152633021Y-45434561D01*
X154775000Y-45434561D01*
X154775000Y-46005439D01*
X154993466Y-46532862D01*
X155397138Y-46936534D01*
X155924561Y-47155000D01*
X156495439Y-47155000D01*
X157022862Y-46936534D01*
X157426534Y-46532862D01*
X157645000Y-46005439D01*
X157645000Y-45434561D01*
X157426534Y-44907138D01*
X157022862Y-44503466D01*
X156495439Y-44285000D01*
X155924561Y-44285000D01*
X155397138Y-44503466D01*
X154993466Y-44907138D01*
X154775000Y-45434561D01*
X152633021Y-45434561D01*
X152629778Y-45366546D01*
X152463864Y-44965995D01*
X152217745Y-44891861D01*
X151389605Y-45720000D01*
X151030395Y-45720000D01*
X150202255Y-44891861D01*
X149956136Y-44965995D01*
X149763035Y-45503223D01*
X139355000Y-45503223D01*
X139355000Y-45424615D01*
X139128922Y-44878815D01*
X138962362Y-44712255D01*
X150381861Y-44712255D01*
X151210000Y-45540395D01*
X152038139Y-44712255D01*
X151964005Y-44466136D01*
X151426777Y-44273035D01*
X150856546Y-44300222D01*
X150455995Y-44466136D01*
X150381861Y-44712255D01*
X138962362Y-44712255D01*
X138711185Y-44461078D01*
X138165385Y-44235000D01*
X137574615Y-44235000D01*
X137028815Y-44461078D01*
X136611078Y-44878815D01*
X136385000Y-45424615D01*
X134747000Y-45424615D01*
X134747000Y-40845745D01*
X166811861Y-40845745D01*
X166885995Y-41091864D01*
X167423223Y-41284965D01*
X167993454Y-41257778D01*
X168394005Y-41091864D01*
X168468139Y-40845745D01*
X167640000Y-40017605D01*
X166811861Y-40845745D01*
X134747000Y-40845745D01*
X134747000Y-38003999D01*
X135891560Y-38003999D01*
X135891560Y-38704001D01*
X135959873Y-39047436D01*
X136154414Y-39338586D01*
X136445564Y-39533127D01*
X136788999Y-39601440D01*
X138039001Y-39601440D01*
X138382436Y-39533127D01*
X138673586Y-39338586D01*
X138868127Y-39047436D01*
X138905012Y-38862000D01*
X142097900Y-38862000D01*
X142221109Y-39481411D01*
X142571977Y-40006523D01*
X143097089Y-40357391D01*
X143560150Y-40449500D01*
X143967850Y-40449500D01*
X144430911Y-40357391D01*
X144956023Y-40006523D01*
X145213471Y-39621223D01*
X166193035Y-39621223D01*
X166220222Y-40191454D01*
X166386136Y-40592005D01*
X166632255Y-40666139D01*
X167460395Y-39838000D01*
X167819605Y-39838000D01*
X168647745Y-40666139D01*
X168893864Y-40592005D01*
X169086965Y-40054777D01*
X169059778Y-39484546D01*
X168893864Y-39083995D01*
X168647745Y-39009861D01*
X167819605Y-39838000D01*
X167460395Y-39838000D01*
X166632255Y-39009861D01*
X166386136Y-39083995D01*
X166193035Y-39621223D01*
X145213471Y-39621223D01*
X145306891Y-39481411D01*
X145430100Y-38862000D01*
X145306891Y-38242589D01*
X144956023Y-37717477D01*
X144754526Y-37582841D01*
X145139973Y-37188924D01*
X145354563Y-36694980D01*
X145234594Y-36449000D01*
X143891000Y-36449000D01*
X143891000Y-36469000D01*
X143637000Y-36469000D01*
X143637000Y-36449000D01*
X142293406Y-36449000D01*
X142173437Y-36694980D01*
X142388027Y-37188924D01*
X142773474Y-37582841D01*
X142571977Y-37717477D01*
X142221109Y-38242589D01*
X142097900Y-38862000D01*
X138905012Y-38862000D01*
X138936440Y-38704001D01*
X138936440Y-38003999D01*
X138868127Y-37660564D01*
X138673586Y-37369414D01*
X138506653Y-37257873D01*
X138652080Y-37137474D01*
X138878592Y-36709281D01*
X138882462Y-36671609D01*
X138757731Y-36481000D01*
X137541000Y-36481000D01*
X137541000Y-36501000D01*
X137287000Y-36501000D01*
X137287000Y-36481000D01*
X136070269Y-36481000D01*
X135945538Y-36671609D01*
X135949408Y-36709281D01*
X136175920Y-37137474D01*
X136321347Y-37257873D01*
X136154414Y-37369414D01*
X135959873Y-37660564D01*
X135891560Y-38003999D01*
X134747000Y-38003999D01*
X134747000Y-36322000D01*
X157992276Y-36322000D01*
X158177380Y-37252580D01*
X158704511Y-38041489D01*
X159493420Y-38568620D01*
X160189103Y-38707000D01*
X160658897Y-38707000D01*
X161354580Y-38568620D01*
X162143489Y-38041489D01*
X162670620Y-37252580D01*
X162812758Y-36538000D01*
X166192560Y-36538000D01*
X166192560Y-38138000D01*
X166241843Y-38385765D01*
X166382191Y-38595809D01*
X166592235Y-38736157D01*
X166826187Y-38782693D01*
X166811861Y-38830255D01*
X167640000Y-39658395D01*
X168468139Y-38830255D01*
X168453813Y-38782693D01*
X168687765Y-38736157D01*
X168897809Y-38595809D01*
X169038157Y-38385765D01*
X169087440Y-38138000D01*
X169087440Y-36538000D01*
X169038157Y-36290235D01*
X168897809Y-36080191D01*
X168687765Y-35939843D01*
X168440000Y-35890560D01*
X166840000Y-35890560D01*
X166592235Y-35939843D01*
X166382191Y-36080191D01*
X166241843Y-36290235D01*
X166192560Y-36538000D01*
X162812758Y-36538000D01*
X162855724Y-36322000D01*
X162670620Y-35391420D01*
X162143489Y-34602511D01*
X161354580Y-34075380D01*
X160658897Y-33937000D01*
X160189103Y-33937000D01*
X159493420Y-34075380D01*
X158704511Y-34602511D01*
X158177380Y-35391420D01*
X157992276Y-36322000D01*
X134747000Y-36322000D01*
X134747000Y-34354000D01*
X135879805Y-34354000D01*
X135975656Y-34835873D01*
X136248615Y-35244385D01*
X136426385Y-35363167D01*
X136175920Y-35570526D01*
X135949408Y-35998719D01*
X135945538Y-36036391D01*
X136070269Y-36227000D01*
X137287000Y-36227000D01*
X137287000Y-36207000D01*
X137541000Y-36207000D01*
X137541000Y-36227000D01*
X138757731Y-36227000D01*
X138882462Y-36036391D01*
X138878592Y-35998719D01*
X138652080Y-35570526D01*
X138401615Y-35363167D01*
X138579385Y-35244385D01*
X138852344Y-34835873D01*
X138948195Y-34354000D01*
X138852344Y-33872127D01*
X138579385Y-33463615D01*
X138170873Y-33190656D01*
X137810636Y-33119000D01*
X137017364Y-33119000D01*
X136657127Y-33190656D01*
X136248615Y-33463615D01*
X135975656Y-33872127D01*
X135879805Y-34354000D01*
X134747000Y-34354000D01*
X134747000Y-32385000D01*
X142297298Y-32385000D01*
X142165843Y-32581735D01*
X142165843Y-32581735D01*
G37*
X142165843Y-32581735D02*
X142116560Y-32829500D01*
X142116560Y-34734500D01*
X142165843Y-34982265D01*
X142306191Y-35192309D01*
X142511143Y-35329255D01*
X142388027Y-35455076D01*
X142173437Y-35949020D01*
X142293406Y-36195000D01*
X143637000Y-36195000D01*
X143637000Y-36175000D01*
X143891000Y-36175000D01*
X143891000Y-36195000D01*
X145234594Y-36195000D01*
X145354563Y-35949020D01*
X145139973Y-35455076D01*
X145016857Y-35329255D01*
X145221809Y-35192309D01*
X145362157Y-34982265D01*
X145411440Y-34734500D01*
X145411440Y-32829500D01*
X145362157Y-32581735D01*
X145230702Y-32385000D01*
X170310606Y-32385000D01*
X171402943Y-70304680D01*
X171145138Y-70411466D01*
X170741466Y-70815138D01*
X170523000Y-71342561D01*
X170523000Y-71913439D01*
X170741466Y-72440862D01*
X171145138Y-72844534D01*
X171480104Y-72983282D01*
X171547605Y-75326520D01*
X171398091Y-75356260D01*
X170923423Y-75673423D01*
X170606260Y-76148091D01*
X170494887Y-76708000D01*
X170606260Y-77267909D01*
X170923423Y-77742577D01*
X171398091Y-78059740D01*
X171627655Y-78105403D01*
X172009000Y-91343517D01*
X172009000Y-91630569D01*
X172017887Y-91652024D01*
X172081315Y-93853880D01*
X145719567Y-94032000D01*
X134747000Y-94032000D01*
X134747000Y-92701745D01*
X144713861Y-92701745D01*
X144787995Y-92947864D01*
X145325223Y-93140965D01*
X145895454Y-93113778D01*
X146296005Y-92947864D01*
X146370139Y-92701745D01*
X148269861Y-92701745D01*
X148343995Y-92947864D01*
X148881223Y-93140965D01*
X149451454Y-93113778D01*
X149852005Y-92947864D01*
X149926139Y-92701745D01*
X149098000Y-91873605D01*
X148269861Y-92701745D01*
X146370139Y-92701745D01*
X145542000Y-91873605D01*
X144713861Y-92701745D01*
X134747000Y-92701745D01*
X134747000Y-91477223D01*
X144095035Y-91477223D01*
X144122222Y-92047454D01*
X144288136Y-92448005D01*
X144534255Y-92522139D01*
X145362395Y-91694000D01*
X145721605Y-91694000D01*
X146549745Y-92522139D01*
X146795864Y-92448005D01*
X146988965Y-91910777D01*
X146968295Y-91477223D01*
X147651035Y-91477223D01*
X147678222Y-92047454D01*
X147844136Y-92448005D01*
X148090255Y-92522139D01*
X148918395Y-91694000D01*
X149277605Y-91694000D01*
X150105745Y-92522139D01*
X150351864Y-92448005D01*
X150544965Y-91910777D01*
X150517778Y-91340546D01*
X150351864Y-90939995D01*
X150105745Y-90865861D01*
X149277605Y-91694000D01*
X148918395Y-91694000D01*
X148090255Y-90865861D01*
X147844136Y-90939995D01*
X147651035Y-91477223D01*
X146968295Y-91477223D01*
X146961778Y-91340546D01*
X146795864Y-90939995D01*
X146549745Y-90865861D01*
X145721605Y-91694000D01*
X145362395Y-91694000D01*
X144534255Y-90865861D01*
X144288136Y-90939995D01*
X144095035Y-91477223D01*
X134747000Y-91477223D01*
X134747000Y-90686255D01*
X144713861Y-90686255D01*
X145542000Y-91514395D01*
X146370139Y-90686255D01*
X148269861Y-90686255D01*
X149098000Y-91514395D01*
X149926139Y-90686255D01*
X149914183Y-90646561D01*
X150791000Y-90646561D01*
X150791000Y-91217439D01*
X151009466Y-91744862D01*
X151413138Y-92148534D01*
X151940561Y-92367000D01*
X152511439Y-92367000D01*
X153038862Y-92148534D01*
X153442534Y-91744862D01*
X153661000Y-91217439D01*
X153661000Y-90646561D01*
X155791000Y-90646561D01*
X155791000Y-91217439D01*
X156009466Y-91744862D01*
X156413138Y-92148534D01*
X156940561Y-92367000D01*
X157511439Y-92367000D01*
X158038862Y-92148534D01*
X158442534Y-91744862D01*
X158536000Y-91519215D01*
X158629466Y-91744862D01*
X159033138Y-92148534D01*
X159560561Y-92367000D01*
X160131439Y-92367000D01*
X160658862Y-92148534D01*
X161062534Y-91744862D01*
X161281000Y-91217439D01*
X161281000Y-90646561D01*
X161062534Y-90119138D01*
X160658862Y-89715466D01*
X160131439Y-89497000D01*
X159560561Y-89497000D01*
X159033138Y-89715466D01*
X158629466Y-90119138D01*
X158536000Y-90344785D01*
X158442534Y-90119138D01*
X158038862Y-89715466D01*
X157511439Y-89497000D01*
X156940561Y-89497000D01*
X156413138Y-89715466D01*
X156009466Y-90119138D01*
X155791000Y-90646561D01*
X153661000Y-90646561D01*
X153442534Y-90119138D01*
X153038862Y-89715466D01*
X152511439Y-89497000D01*
X151940561Y-89497000D01*
X151413138Y-89715466D01*
X151009466Y-90119138D01*
X150791000Y-90646561D01*
X149914183Y-90646561D01*
X149852005Y-90440136D01*
X149314777Y-90247035D01*
X148744546Y-90274222D01*
X148343995Y-90440136D01*
X148269861Y-90686255D01*
X146370139Y-90686255D01*
X146296005Y-90440136D01*
X145758777Y-90247035D01*
X145188546Y-90274222D01*
X144787995Y-90440136D01*
X144713861Y-90686255D01*
X134747000Y-90686255D01*
X134747000Y-86408561D01*
X144107000Y-86408561D01*
X144107000Y-86979439D01*
X144325466Y-87506862D01*
X144729138Y-87910534D01*
X145256561Y-88129000D01*
X145827439Y-88129000D01*
X146354862Y-87910534D01*
X146758534Y-87506862D01*
X146977000Y-86979439D01*
X146977000Y-86408561D01*
X147663000Y-86408561D01*
X147663000Y-86979439D01*
X147881466Y-87506862D01*
X148285138Y-87910534D01*
X148812561Y-88129000D01*
X149383439Y-88129000D01*
X149910862Y-87910534D01*
X150314534Y-87506862D01*
X150533000Y-86979439D01*
X150533000Y-86408561D01*
X150314534Y-85881138D01*
X149910862Y-85477466D01*
X149383439Y-85259000D01*
X148812561Y-85259000D01*
X148285138Y-85477466D01*
X147881466Y-85881138D01*
X147663000Y-86408561D01*
X146977000Y-86408561D01*
X146758534Y-85881138D01*
X146354862Y-85477466D01*
X145827439Y-85259000D01*
X145256561Y-85259000D01*
X144729138Y-85477466D01*
X144325466Y-85881138D01*
X144107000Y-86408561D01*
X134747000Y-86408561D01*
X134747000Y-83820000D01*
X147380887Y-83820000D01*
X147492260Y-84379909D01*
X147809423Y-84854577D01*
X148284091Y-85171740D01*
X148702667Y-85255000D01*
X148985333Y-85255000D01*
X149403909Y-85171740D01*
X149878577Y-84854577D01*
X150195740Y-84379909D01*
X150307113Y-83820000D01*
X150195740Y-83260091D01*
X149878577Y-82785423D01*
X149403909Y-82468260D01*
X148985333Y-82385000D01*
X148702667Y-82385000D01*
X148284091Y-82468260D01*
X147809423Y-82785423D01*
X147492260Y-83260091D01*
X147380887Y-83820000D01*
X134747000Y-83820000D01*
X134747000Y-81779745D01*
X139927861Y-81779745D01*
X140001995Y-82025864D01*
X140539223Y-82218965D01*
X141109454Y-82191778D01*
X141510005Y-82025864D01*
X141584139Y-81779745D01*
X140756000Y-80951605D01*
X139927861Y-81779745D01*
X134747000Y-81779745D01*
X134747000Y-80555223D01*
X139309035Y-80555223D01*
X139336222Y-81125454D01*
X139502136Y-81526005D01*
X139748255Y-81600139D01*
X140576395Y-80772000D01*
X140935605Y-80772000D01*
X141763745Y-81600139D01*
X141811307Y-81585813D01*
X141857843Y-81819765D01*
X141998191Y-82029809D01*
X142208235Y-82170157D01*
X142456000Y-82219440D01*
X144056000Y-82219440D01*
X144303765Y-82170157D01*
X144513809Y-82029809D01*
X144654157Y-81819765D01*
X144703440Y-81572000D01*
X144703440Y-79972000D01*
X144654157Y-79724235D01*
X144513809Y-79514191D01*
X144303765Y-79373843D01*
X144056000Y-79324560D01*
X142456000Y-79324560D01*
X142208235Y-79373843D01*
X141998191Y-79514191D01*
X141857843Y-79724235D01*
X141811307Y-79958187D01*
X141763745Y-79943861D01*
X140935605Y-80772000D01*
X140576395Y-80772000D01*
X139748255Y-79943861D01*
X139502136Y-80017995D01*
X139309035Y-80555223D01*
X134747000Y-80555223D01*
X134747000Y-79764255D01*
X139927861Y-79764255D01*
X140756000Y-80592395D01*
X141584139Y-79764255D01*
X141510005Y-79518136D01*
X140972777Y-79325035D01*
X140402546Y-79352222D01*
X140001995Y-79518136D01*
X139927861Y-79764255D01*
X134747000Y-79764255D01*
X134747000Y-78454561D01*
X147409000Y-78454561D01*
X147409000Y-79025439D01*
X147627466Y-79552862D01*
X148031138Y-79956534D01*
X148558561Y-80175000D01*
X149129439Y-80175000D01*
X149656862Y-79956534D01*
X150060534Y-79552862D01*
X150081601Y-79502000D01*
X151190887Y-79502000D01*
X151302260Y-80061909D01*
X151619423Y-80536577D01*
X151971758Y-80772000D01*
X151619423Y-81007423D01*
X151302260Y-81482091D01*
X151190887Y-82042000D01*
X151302260Y-82601909D01*
X151619423Y-83076577D01*
X151971758Y-83312000D01*
X151619423Y-83547423D01*
X151302260Y-84022091D01*
X151190887Y-84582000D01*
X151302260Y-85141909D01*
X151619423Y-85616577D01*
X151971758Y-85852000D01*
X151619423Y-86087423D01*
X151302260Y-86562091D01*
X151190887Y-87122000D01*
X151302260Y-87681909D01*
X151619423Y-88156577D01*
X152094091Y-88473740D01*
X152512667Y-88557000D01*
X152795333Y-88557000D01*
X153213909Y-88473740D01*
X153688577Y-88156577D01*
X154005740Y-87681909D01*
X154117113Y-87122000D01*
X154005740Y-86562091D01*
X153688577Y-86087423D01*
X153336242Y-85852000D01*
X153688577Y-85616577D01*
X154005740Y-85141909D01*
X154117113Y-84582000D01*
X154005740Y-84022091D01*
X153688577Y-83547423D01*
X153336242Y-83312000D01*
X153688577Y-83076577D01*
X154005740Y-82601909D01*
X154117113Y-82042000D01*
X154005740Y-81482091D01*
X153688577Y-81007423D01*
X153336242Y-80772000D01*
X153688577Y-80536577D01*
X154005740Y-80061909D01*
X154117113Y-79502000D01*
X154005740Y-78942091D01*
X153688577Y-78467423D01*
X153304892Y-78211053D01*
X153509134Y-78114389D01*
X153885041Y-77699423D01*
X154045904Y-77311039D01*
X153923915Y-77089000D01*
X152781000Y-77089000D01*
X152781000Y-77109000D01*
X152527000Y-77109000D01*
X152527000Y-77089000D01*
X151384085Y-77089000D01*
X151262096Y-77311039D01*
X151422959Y-77699423D01*
X151798866Y-78114389D01*
X152003108Y-78211053D01*
X151619423Y-78467423D01*
X151302260Y-78942091D01*
X151190887Y-79502000D01*
X150081601Y-79502000D01*
X150279000Y-79025439D01*
X150279000Y-78454561D01*
X150060534Y-77927138D01*
X149656862Y-77523466D01*
X149129439Y-77305000D01*
X148558561Y-77305000D01*
X148031138Y-77523466D01*
X147627466Y-77927138D01*
X147409000Y-78454561D01*
X134747000Y-78454561D01*
X134747000Y-74878670D01*
X135705000Y-74878670D01*
X135705000Y-75489330D01*
X135938690Y-76053507D01*
X136370493Y-76485310D01*
X136934670Y-76719000D01*
X137545330Y-76719000D01*
X138109507Y-76485310D01*
X138490000Y-76104817D01*
X138870493Y-76485310D01*
X139434670Y-76719000D01*
X140045330Y-76719000D01*
X140609507Y-76485310D01*
X140830658Y-76264159D01*
X141339446Y-76264159D01*
X141425852Y-76520643D01*
X141999336Y-76730458D01*
X142609460Y-76704839D01*
X143054148Y-76520643D01*
X143140554Y-76264159D01*
X142240000Y-75363605D01*
X141339446Y-76264159D01*
X140830658Y-76264159D01*
X141041310Y-76053507D01*
X141044539Y-76045710D01*
X141159841Y-76084554D01*
X142060395Y-75184000D01*
X142419605Y-75184000D01*
X143320159Y-76084554D01*
X143576643Y-75998148D01*
X143786458Y-75424664D01*
X143760839Y-74814540D01*
X143742821Y-74771039D01*
X151262096Y-74771039D01*
X151422959Y-75159423D01*
X151798866Y-75574389D01*
X152047367Y-75692000D01*
X151798866Y-75809611D01*
X151422959Y-76224577D01*
X151262096Y-76612961D01*
X151384085Y-76835000D01*
X152527000Y-76835000D01*
X152527000Y-74549000D01*
X152781000Y-74549000D01*
X152781000Y-76835000D01*
X153923915Y-76835000D01*
X154045904Y-76612961D01*
X153885041Y-76224577D01*
X153509134Y-75809611D01*
X153260633Y-75692000D01*
X153509134Y-75574389D01*
X153885041Y-75159423D01*
X154045904Y-74771039D01*
X153923915Y-74549000D01*
X152781000Y-74549000D01*
X152527000Y-74549000D01*
X151384085Y-74549000D01*
X151262096Y-74771039D01*
X143742821Y-74771039D01*
X143576643Y-74369852D01*
X143320159Y-74283446D01*
X142419605Y-75184000D01*
X142060395Y-75184000D01*
X141159841Y-74283446D01*
X141044539Y-74322290D01*
X141041310Y-74314493D01*
X140830658Y-74103841D01*
X141339446Y-74103841D01*
X142240000Y-75004395D01*
X143140554Y-74103841D01*
X143054148Y-73847357D01*
X142480664Y-73637542D01*
X141870540Y-73663161D01*
X141425852Y-73847357D01*
X141339446Y-74103841D01*
X140830658Y-74103841D01*
X140609507Y-73882690D01*
X140045330Y-73649000D01*
X139434670Y-73649000D01*
X138870493Y-73882690D01*
X138490000Y-74263183D01*
X138109507Y-73882690D01*
X137545330Y-73649000D01*
X136934670Y-73649000D01*
X136370493Y-73882690D01*
X135938690Y-74314493D01*
X135705000Y-74878670D01*
X134747000Y-74878670D01*
X134747000Y-71882000D01*
X151190887Y-71882000D01*
X151302260Y-72441909D01*
X151619423Y-72916577D01*
X152003108Y-73172947D01*
X151798866Y-73269611D01*
X151422959Y-73684577D01*
X151262096Y-74072961D01*
X151384085Y-74295000D01*
X152527000Y-74295000D01*
X152527000Y-74275000D01*
X152781000Y-74275000D01*
X152781000Y-74295000D01*
X153923915Y-74295000D01*
X154045904Y-74072961D01*
X153885041Y-73684577D01*
X153509134Y-73269611D01*
X153304892Y-73172947D01*
X153688577Y-72916577D01*
X154005740Y-72441909D01*
X154117113Y-71882000D01*
X154005740Y-71322091D01*
X153688577Y-70847423D01*
X153567894Y-70766785D01*
X153701765Y-70740157D01*
X153911809Y-70599809D01*
X154052157Y-70389765D01*
X154101440Y-70142000D01*
X154101440Y-69342000D01*
X158810887Y-69342000D01*
X158922260Y-69901909D01*
X159239423Y-70376577D01*
X159591758Y-70612000D01*
X159239423Y-70847423D01*
X158922260Y-71322091D01*
X158810887Y-71882000D01*
X158922260Y-72441909D01*
X159239423Y-72916577D01*
X159591758Y-73152000D01*
X159239423Y-73387423D01*
X158922260Y-73862091D01*
X158810887Y-74422000D01*
X158922260Y-74981909D01*
X159239423Y-75456577D01*
X159591758Y-75692000D01*
X159239423Y-75927423D01*
X158922260Y-76402091D01*
X158810887Y-76962000D01*
X158922260Y-77521909D01*
X159239423Y-77996577D01*
X159591758Y-78232000D01*
X159239423Y-78467423D01*
X158922260Y-78942091D01*
X158810887Y-79502000D01*
X158922260Y-80061909D01*
X159239423Y-80536577D01*
X159591758Y-80772000D01*
X159239423Y-81007423D01*
X158922260Y-81482091D01*
X158810887Y-82042000D01*
X158922260Y-82601909D01*
X159239423Y-83076577D01*
X159591758Y-83312000D01*
X159239423Y-83547423D01*
X158922260Y-84022091D01*
X158810887Y-84582000D01*
X158922260Y-85141909D01*
X159239423Y-85616577D01*
X159591758Y-85852000D01*
X159239423Y-86087423D01*
X158922260Y-86562091D01*
X158810887Y-87122000D01*
X158922260Y-87681909D01*
X159239423Y-88156577D01*
X159714091Y-88473740D01*
X160132667Y-88557000D01*
X160415333Y-88557000D01*
X160833909Y-88473740D01*
X161308577Y-88156577D01*
X161625740Y-87681909D01*
X161737113Y-87122000D01*
X161625740Y-86562091D01*
X161308577Y-86087423D01*
X160956242Y-85852000D01*
X161308577Y-85616577D01*
X161625740Y-85141909D01*
X161737113Y-84582000D01*
X161625740Y-84022091D01*
X161345044Y-83601999D01*
X161408200Y-83601999D01*
X162641222Y-84835022D01*
X162287423Y-85071423D01*
X161970260Y-85546091D01*
X161858887Y-86106000D01*
X161970260Y-86665909D01*
X162287423Y-87140577D01*
X162762091Y-87457740D01*
X163180667Y-87541000D01*
X163463333Y-87541000D01*
X163881909Y-87457740D01*
X164086000Y-87321371D01*
X164086001Y-89693569D01*
X164033138Y-89715466D01*
X163629466Y-90119138D01*
X163411000Y-90646561D01*
X163411000Y-91217439D01*
X163629466Y-91744862D01*
X164033138Y-92148534D01*
X164560561Y-92367000D01*
X165131439Y-92367000D01*
X165658862Y-92148534D01*
X166062534Y-91744862D01*
X166281000Y-91217439D01*
X166281000Y-90646561D01*
X166062534Y-90119138D01*
X165658862Y-89715466D01*
X165606000Y-89693570D01*
X165606000Y-86039846D01*
X165620888Y-85964998D01*
X165606000Y-85890150D01*
X165606000Y-85890146D01*
X165592159Y-85820561D01*
X166967000Y-85820561D01*
X166967000Y-86391439D01*
X167185466Y-86918862D01*
X167589138Y-87322534D01*
X168116561Y-87541000D01*
X168687439Y-87541000D01*
X169214862Y-87322534D01*
X169618534Y-86918862D01*
X169837000Y-86391439D01*
X169837000Y-85820561D01*
X169618534Y-85293138D01*
X169214862Y-84889466D01*
X168687439Y-84671000D01*
X168116561Y-84671000D01*
X167589138Y-84889466D01*
X167185466Y-85293138D01*
X166967000Y-85820561D01*
X165592159Y-85820561D01*
X165561904Y-85668461D01*
X165393929Y-85417069D01*
X165330473Y-85374669D01*
X163861586Y-83905782D01*
X163881909Y-83901740D01*
X164356577Y-83584577D01*
X164673740Y-83109909D01*
X164785113Y-82550000D01*
X164728336Y-82264561D01*
X166967000Y-82264561D01*
X166967000Y-82835439D01*
X167185466Y-83362862D01*
X167589138Y-83766534D01*
X168116561Y-83985000D01*
X168687439Y-83985000D01*
X169214862Y-83766534D01*
X169618534Y-83362862D01*
X169837000Y-82835439D01*
X169837000Y-82264561D01*
X169618534Y-81737138D01*
X169214862Y-81333466D01*
X168687439Y-81115000D01*
X168116561Y-81115000D01*
X167589138Y-81333466D01*
X167185466Y-81737138D01*
X166967000Y-82264561D01*
X164728336Y-82264561D01*
X164673740Y-81990091D01*
X164356577Y-81515423D01*
X163881909Y-81198260D01*
X163463333Y-81115000D01*
X163180667Y-81115000D01*
X162762091Y-81198260D01*
X162287423Y-81515423D01*
X161970260Y-81990091D01*
X161946112Y-82111490D01*
X161797853Y-82081999D01*
X161797848Y-82081999D01*
X161731771Y-82068855D01*
X161737113Y-82042000D01*
X161625740Y-81482091D01*
X161308577Y-81007423D01*
X160956242Y-80772000D01*
X161308577Y-80536577D01*
X161625740Y-80061909D01*
X161737113Y-79502000D01*
X161625740Y-78942091D01*
X161469701Y-78708561D01*
X161967000Y-78708561D01*
X161967000Y-79279439D01*
X162185466Y-79806862D01*
X162589138Y-80210534D01*
X163116561Y-80429000D01*
X163687439Y-80429000D01*
X164214862Y-80210534D01*
X164618534Y-79806862D01*
X164837000Y-79279439D01*
X164837000Y-78708561D01*
X166967000Y-78708561D01*
X166967000Y-79279439D01*
X167185466Y-79806862D01*
X167589138Y-80210534D01*
X168116561Y-80429000D01*
X168687439Y-80429000D01*
X169214862Y-80210534D01*
X169618534Y-79806862D01*
X169837000Y-79279439D01*
X169837000Y-78708561D01*
X169618534Y-78181138D01*
X169214862Y-77777466D01*
X168687439Y-77559000D01*
X168116561Y-77559000D01*
X167589138Y-77777466D01*
X167185466Y-78181138D01*
X166967000Y-78708561D01*
X164837000Y-78708561D01*
X164618534Y-78181138D01*
X164214862Y-77777466D01*
X163687439Y-77559000D01*
X163116561Y-77559000D01*
X162589138Y-77777466D01*
X162185466Y-78181138D01*
X161967000Y-78708561D01*
X161469701Y-78708561D01*
X161308577Y-78467423D01*
X160956242Y-78232000D01*
X161308577Y-77996577D01*
X161625740Y-77521909D01*
X161737113Y-76962000D01*
X161625740Y-76402091D01*
X161308577Y-75927423D01*
X160956242Y-75692000D01*
X161308577Y-75456577D01*
X161320989Y-75438000D01*
X161858887Y-75438000D01*
X161970260Y-75997909D01*
X162287423Y-76472577D01*
X162762091Y-76789740D01*
X163180667Y-76873000D01*
X163463333Y-76873000D01*
X163881909Y-76789740D01*
X164356577Y-76472577D01*
X164673740Y-75997909D01*
X164785113Y-75438000D01*
X164728336Y-75152561D01*
X166967000Y-75152561D01*
X166967000Y-75723439D01*
X167185466Y-76250862D01*
X167589138Y-76654534D01*
X168116561Y-76873000D01*
X168687439Y-76873000D01*
X169214862Y-76654534D01*
X169618534Y-76250862D01*
X169837000Y-75723439D01*
X169837000Y-75152561D01*
X169618534Y-74625138D01*
X169214862Y-74221466D01*
X168687439Y-74003000D01*
X168116561Y-74003000D01*
X167589138Y-74221466D01*
X167185466Y-74625138D01*
X166967000Y-75152561D01*
X164728336Y-75152561D01*
X164673740Y-74878091D01*
X164356577Y-74403423D01*
X163881909Y-74086260D01*
X163463333Y-74003000D01*
X163180667Y-74003000D01*
X162762091Y-74086260D01*
X162287423Y-74403423D01*
X161970260Y-74878091D01*
X161858887Y-75438000D01*
X161320989Y-75438000D01*
X161625740Y-74981909D01*
X161737113Y-74422000D01*
X161625740Y-73862091D01*
X161308577Y-73387423D01*
X160956242Y-73152000D01*
X160968596Y-73143745D01*
X162573861Y-73143745D01*
X162647995Y-73389864D01*
X163185223Y-73582965D01*
X163755454Y-73555778D01*
X164156005Y-73389864D01*
X164230139Y-73143745D01*
X163402000Y-72315605D01*
X162573861Y-73143745D01*
X160968596Y-73143745D01*
X161308577Y-72916577D01*
X161625740Y-72441909D01*
X161729708Y-71919223D01*
X161955035Y-71919223D01*
X161982222Y-72489454D01*
X162148136Y-72890005D01*
X162394255Y-72964139D01*
X163222395Y-72136000D01*
X163581605Y-72136000D01*
X164409745Y-72964139D01*
X164655864Y-72890005D01*
X164848965Y-72352777D01*
X164825021Y-71850561D01*
X166967000Y-71850561D01*
X166967000Y-72421439D01*
X167185466Y-72948862D01*
X167589138Y-73352534D01*
X168116561Y-73571000D01*
X168687439Y-73571000D01*
X169214862Y-73352534D01*
X169618534Y-72948862D01*
X169837000Y-72421439D01*
X169837000Y-71850561D01*
X169618534Y-71323138D01*
X169214862Y-70919466D01*
X168687439Y-70701000D01*
X168116561Y-70701000D01*
X167589138Y-70919466D01*
X167185466Y-71323138D01*
X166967000Y-71850561D01*
X164825021Y-71850561D01*
X164821778Y-71782546D01*
X164655864Y-71381995D01*
X164409745Y-71307861D01*
X163581605Y-72136000D01*
X163222395Y-72136000D01*
X162394255Y-71307861D01*
X162148136Y-71381995D01*
X161955035Y-71919223D01*
X161729708Y-71919223D01*
X161737113Y-71882000D01*
X161625740Y-71322091D01*
X161496223Y-71128255D01*
X162573861Y-71128255D01*
X163402000Y-71956395D01*
X164230139Y-71128255D01*
X164156005Y-70882136D01*
X163618777Y-70689035D01*
X163048546Y-70716222D01*
X162647995Y-70882136D01*
X162573861Y-71128255D01*
X161496223Y-71128255D01*
X161308577Y-70847423D01*
X160956242Y-70612000D01*
X161308577Y-70376577D01*
X161625740Y-69901909D01*
X161688231Y-69587745D01*
X162573861Y-69587745D01*
X162647995Y-69833864D01*
X163185223Y-70026965D01*
X163755454Y-69999778D01*
X164156005Y-69833864D01*
X164230139Y-69587745D01*
X163402000Y-68759605D01*
X162573861Y-69587745D01*
X161688231Y-69587745D01*
X161737113Y-69342000D01*
X161625740Y-68782091D01*
X161345862Y-68363223D01*
X161955035Y-68363223D01*
X161982222Y-68933454D01*
X162148136Y-69334005D01*
X162394255Y-69408139D01*
X163222395Y-68580000D01*
X163581605Y-68580000D01*
X164409745Y-69408139D01*
X164655864Y-69334005D01*
X164848965Y-68796777D01*
X164825021Y-68294561D01*
X166967000Y-68294561D01*
X166967000Y-68865439D01*
X167185466Y-69392862D01*
X167589138Y-69796534D01*
X168116561Y-70015000D01*
X168687439Y-70015000D01*
X169214862Y-69796534D01*
X169618534Y-69392862D01*
X169837000Y-68865439D01*
X169837000Y-68294561D01*
X169618534Y-67767138D01*
X169214862Y-67363466D01*
X168687439Y-67145000D01*
X168116561Y-67145000D01*
X167589138Y-67363466D01*
X167185466Y-67767138D01*
X166967000Y-68294561D01*
X164825021Y-68294561D01*
X164821778Y-68226546D01*
X164655864Y-67825995D01*
X164409745Y-67751861D01*
X163581605Y-68580000D01*
X163222395Y-68580000D01*
X162394255Y-67751861D01*
X162148136Y-67825995D01*
X161955035Y-68363223D01*
X161345862Y-68363223D01*
X161308577Y-68307423D01*
X160833909Y-67990260D01*
X160415333Y-67907000D01*
X160132667Y-67907000D01*
X159714091Y-67990260D01*
X159239423Y-68307423D01*
X158922260Y-68782091D01*
X158810887Y-69342000D01*
X154101440Y-69342000D01*
X154101440Y-68542000D01*
X154052157Y-68294235D01*
X153911809Y-68084191D01*
X153701765Y-67943843D01*
X153454000Y-67894560D01*
X151854000Y-67894560D01*
X151606235Y-67943843D01*
X151396191Y-68084191D01*
X151255843Y-68294235D01*
X151206560Y-68542000D01*
X151206560Y-70142000D01*
X151255843Y-70389765D01*
X151396191Y-70599809D01*
X151606235Y-70740157D01*
X151740106Y-70766785D01*
X151619423Y-70847423D01*
X151302260Y-71322091D01*
X151190887Y-71882000D01*
X134747000Y-71882000D01*
X134747000Y-70790475D01*
X134815866Y-70819000D01*
X135864134Y-70819000D01*
X136832608Y-70417845D01*
X137573845Y-69676608D01*
X137975000Y-68708134D01*
X137975000Y-67659866D01*
X141505000Y-67659866D01*
X141505000Y-68708134D01*
X141906155Y-69676608D01*
X142647392Y-70417845D01*
X143615866Y-70819000D01*
X144664134Y-70819000D01*
X145632608Y-70417845D01*
X146373845Y-69676608D01*
X146775000Y-68708134D01*
X146775000Y-67659866D01*
X146738711Y-67572255D01*
X162573861Y-67572255D01*
X163402000Y-68400395D01*
X164230139Y-67572255D01*
X164156005Y-67326136D01*
X163618777Y-67133035D01*
X163048546Y-67160222D01*
X162647995Y-67326136D01*
X162573861Y-67572255D01*
X146738711Y-67572255D01*
X146373845Y-66691392D01*
X145632608Y-65950155D01*
X144664134Y-65549000D01*
X143615866Y-65549000D01*
X142647392Y-65950155D01*
X141906155Y-66691392D01*
X141505000Y-67659866D01*
X137975000Y-67659866D01*
X137573845Y-66691392D01*
X136832608Y-65950155D01*
X135864134Y-65549000D01*
X134815866Y-65549000D01*
X134747000Y-65577525D01*
X134747000Y-65246561D01*
X151219000Y-65246561D01*
X151219000Y-65817439D01*
X151437466Y-66344862D01*
X151841138Y-66748534D01*
X152368561Y-66967000D01*
X152939439Y-66967000D01*
X153466862Y-66748534D01*
X153870534Y-66344862D01*
X153895021Y-66285745D01*
X155635861Y-66285745D01*
X155709995Y-66531864D01*
X156247223Y-66724965D01*
X156817454Y-66697778D01*
X157218005Y-66531864D01*
X157292139Y-66285745D01*
X156464000Y-65457605D01*
X155635861Y-66285745D01*
X153895021Y-66285745D01*
X154089000Y-65817439D01*
X154089000Y-65246561D01*
X154067104Y-65193699D01*
X154199580Y-65061223D01*
X155017035Y-65061223D01*
X155044222Y-65631454D01*
X155210136Y-66032005D01*
X155456255Y-66106139D01*
X156284395Y-65278000D01*
X156643605Y-65278000D01*
X157471745Y-66106139D01*
X157717864Y-66032005D01*
X157897585Y-65532000D01*
X158810887Y-65532000D01*
X158922260Y-66091909D01*
X159239423Y-66566577D01*
X159714091Y-66883740D01*
X160132667Y-66967000D01*
X160415333Y-66967000D01*
X160833909Y-66883740D01*
X161308577Y-66566577D01*
X161625740Y-66091909D01*
X161737113Y-65532000D01*
X161625740Y-64972091D01*
X161469701Y-64738561D01*
X161887000Y-64738561D01*
X161887000Y-65309439D01*
X162105466Y-65836862D01*
X162509138Y-66240534D01*
X163036561Y-66459000D01*
X163607439Y-66459000D01*
X164134862Y-66240534D01*
X164538534Y-65836862D01*
X164757000Y-65309439D01*
X164757000Y-64738561D01*
X166887000Y-64738561D01*
X166887000Y-65309439D01*
X167105466Y-65836862D01*
X167509138Y-66240534D01*
X168036561Y-66459000D01*
X168607439Y-66459000D01*
X169134862Y-66240534D01*
X169538534Y-65836862D01*
X169757000Y-65309439D01*
X169757000Y-64738561D01*
X169538534Y-64211138D01*
X169134862Y-63807466D01*
X168607439Y-63589000D01*
X168036561Y-63589000D01*
X167509138Y-63807466D01*
X167105466Y-64211138D01*
X166887000Y-64738561D01*
X164757000Y-64738561D01*
X164538534Y-64211138D01*
X164134862Y-63807466D01*
X163607439Y-63589000D01*
X163036561Y-63589000D01*
X162509138Y-63807466D01*
X162105466Y-64211138D01*
X161887000Y-64738561D01*
X161469701Y-64738561D01*
X161308577Y-64497423D01*
X160833909Y-64180260D01*
X160415333Y-64097000D01*
X160132667Y-64097000D01*
X159714091Y-64180260D01*
X159239423Y-64497423D01*
X158922260Y-64972091D01*
X158810887Y-65532000D01*
X157897585Y-65532000D01*
X157910965Y-65494777D01*
X157883778Y-64924546D01*
X157717864Y-64523995D01*
X157471745Y-64449861D01*
X156643605Y-65278000D01*
X156284395Y-65278000D01*
X155456255Y-64449861D01*
X155210136Y-64523995D01*
X155017035Y-65061223D01*
X154199580Y-65061223D01*
X154662476Y-64598327D01*
X154725929Y-64555929D01*
X154768327Y-64492476D01*
X154768329Y-64492474D01*
X154893903Y-64304538D01*
X154893904Y-64304537D01*
X154900723Y-64270255D01*
X155635861Y-64270255D01*
X156464000Y-65098395D01*
X157292139Y-64270255D01*
X157218005Y-64024136D01*
X156680777Y-63831035D01*
X156110546Y-63858222D01*
X155709995Y-64024136D01*
X155635861Y-64270255D01*
X154900723Y-64270255D01*
X154938000Y-64082852D01*
X154938000Y-64082848D01*
X154952888Y-64008001D01*
X154938000Y-63933154D01*
X154938000Y-59992561D01*
X155029000Y-59992561D01*
X155029000Y-60563439D01*
X155247466Y-61090862D01*
X155651138Y-61494534D01*
X156178561Y-61713000D01*
X156749439Y-61713000D01*
X157276862Y-61494534D01*
X157680534Y-61090862D01*
X157899000Y-60563439D01*
X157899000Y-60166561D01*
X158839000Y-60166561D01*
X158839000Y-60737439D01*
X159057466Y-61264862D01*
X159461138Y-61668534D01*
X159988561Y-61887000D01*
X160559439Y-61887000D01*
X161086862Y-61668534D01*
X161490534Y-61264862D01*
X161709000Y-60737439D01*
X161709000Y-60166561D01*
X161490534Y-59639138D01*
X161086862Y-59235466D01*
X160559439Y-59017000D01*
X159988561Y-59017000D01*
X159461138Y-59235466D01*
X159057466Y-59639138D01*
X158839000Y-60166561D01*
X157899000Y-60166561D01*
X157899000Y-59992561D01*
X157680534Y-59465138D01*
X157276862Y-59061466D01*
X156749439Y-58843000D01*
X156178561Y-58843000D01*
X155651138Y-59061466D01*
X155247466Y-59465138D01*
X155029000Y-59992561D01*
X154938000Y-59992561D01*
X154938000Y-56356561D01*
X156807000Y-56356561D01*
X156807000Y-56927439D01*
X157025466Y-57454862D01*
X157429138Y-57858534D01*
X157956561Y-58077000D01*
X158527439Y-58077000D01*
X159054862Y-57858534D01*
X159458534Y-57454862D01*
X159677000Y-56927439D01*
X159677000Y-56642000D01*
X161858887Y-56642000D01*
X161970260Y-57201909D01*
X162287423Y-57676577D01*
X162762091Y-57993740D01*
X163180667Y-58077000D01*
X163463333Y-58077000D01*
X163881909Y-57993740D01*
X164061112Y-57874000D01*
X167970560Y-57874000D01*
X167970560Y-59474000D01*
X168019843Y-59721765D01*
X168160191Y-59931809D01*
X168370235Y-60072157D01*
X168618000Y-60121440D01*
X170218000Y-60121440D01*
X170465765Y-60072157D01*
X170675809Y-59931809D01*
X170816157Y-59721765D01*
X170865440Y-59474000D01*
X170865440Y-57874000D01*
X170816157Y-57626235D01*
X170675809Y-57416191D01*
X170465765Y-57275843D01*
X170365497Y-57255899D01*
X170634534Y-56986862D01*
X170853000Y-56459439D01*
X170853000Y-55888561D01*
X170634534Y-55361138D01*
X170230862Y-54957466D01*
X169703439Y-54739000D01*
X169132561Y-54739000D01*
X168605138Y-54957466D01*
X168201466Y-55361138D01*
X167983000Y-55888561D01*
X167983000Y-56459439D01*
X168201466Y-56986862D01*
X168470503Y-57255899D01*
X168370235Y-57275843D01*
X168160191Y-57416191D01*
X168019843Y-57626235D01*
X167970560Y-57874000D01*
X164061112Y-57874000D01*
X164356577Y-57676577D01*
X164673740Y-57201909D01*
X164785113Y-56642000D01*
X164673740Y-56082091D01*
X164356577Y-55607423D01*
X163881909Y-55290260D01*
X163463333Y-55207000D01*
X163180667Y-55207000D01*
X162762091Y-55290260D01*
X162287423Y-55607423D01*
X161970260Y-56082091D01*
X161858887Y-56642000D01*
X159677000Y-56642000D01*
X159677000Y-56356561D01*
X159458534Y-55829138D01*
X159054862Y-55425466D01*
X158527439Y-55207000D01*
X157956561Y-55207000D01*
X157429138Y-55425466D01*
X157025466Y-55829138D01*
X156807000Y-56356561D01*
X154938000Y-56356561D01*
X154938000Y-55041440D01*
X154978000Y-55041440D01*
X155225765Y-54992157D01*
X155435809Y-54851809D01*
X155576157Y-54641765D01*
X155625440Y-54394000D01*
X155625440Y-52794000D01*
X155576157Y-52546235D01*
X155435809Y-52336191D01*
X155225765Y-52195843D01*
X154978000Y-52146560D01*
X153378000Y-52146560D01*
X153130235Y-52195843D01*
X152920191Y-52336191D01*
X152779843Y-52546235D01*
X152733307Y-52780187D01*
X152685745Y-52765861D01*
X151857605Y-53594000D01*
X152685745Y-54422139D01*
X152733307Y-54407813D01*
X152779843Y-54641765D01*
X152920191Y-54851809D01*
X153130235Y-54992157D01*
X153378000Y-55041440D01*
X153418001Y-55041440D01*
X153418000Y-59311320D01*
X153408005Y-59278136D01*
X152870777Y-59085035D01*
X152300546Y-59112222D01*
X151899995Y-59278136D01*
X151825861Y-59524255D01*
X152654000Y-60352395D01*
X152668142Y-60338252D01*
X152847748Y-60517858D01*
X152833605Y-60532000D01*
X152847748Y-60546143D01*
X152668142Y-60725748D01*
X152654000Y-60711605D01*
X151825861Y-61539745D01*
X151899995Y-61785864D01*
X152437223Y-61978965D01*
X153007454Y-61951778D01*
X153408005Y-61785864D01*
X153418000Y-61752681D01*
X153418000Y-63693197D01*
X152992301Y-64118896D01*
X152939439Y-64097000D01*
X152368561Y-64097000D01*
X151841138Y-64315466D01*
X151437466Y-64719138D01*
X151219000Y-65246561D01*
X134747000Y-65246561D01*
X134747000Y-59436000D01*
X142300887Y-59436000D01*
X142412260Y-59995909D01*
X142729423Y-60470577D01*
X143204091Y-60787740D01*
X143622667Y-60871000D01*
X143905333Y-60871000D01*
X144323909Y-60787740D01*
X144798577Y-60470577D01*
X144816505Y-60443745D01*
X148015861Y-60443745D01*
X148089995Y-60689864D01*
X148627223Y-60882965D01*
X149197454Y-60855778D01*
X149598005Y-60689864D01*
X149672139Y-60443745D01*
X149543618Y-60315223D01*
X151207035Y-60315223D01*
X151234222Y-60885454D01*
X151400136Y-61286005D01*
X151646255Y-61360139D01*
X152474395Y-60532000D01*
X151646255Y-59703861D01*
X151400136Y-59777995D01*
X151207035Y-60315223D01*
X149543618Y-60315223D01*
X148844000Y-59615605D01*
X148015861Y-60443745D01*
X144816505Y-60443745D01*
X145115740Y-59995909D01*
X145227113Y-59436000D01*
X145183994Y-59219223D01*
X147397035Y-59219223D01*
X147424222Y-59789454D01*
X147590136Y-60190005D01*
X147836255Y-60264139D01*
X148664395Y-59436000D01*
X149023605Y-59436000D01*
X149851745Y-60264139D01*
X150097864Y-60190005D01*
X150290965Y-59652777D01*
X150263778Y-59082546D01*
X150097864Y-58681995D01*
X149851745Y-58607861D01*
X149023605Y-59436000D01*
X148664395Y-59436000D01*
X147836255Y-58607861D01*
X147590136Y-58681995D01*
X147397035Y-59219223D01*
X145183994Y-59219223D01*
X145115740Y-58876091D01*
X144816506Y-58428255D01*
X148015861Y-58428255D01*
X148844000Y-59256395D01*
X149672139Y-58428255D01*
X149598005Y-58182136D01*
X149060777Y-57989035D01*
X148490546Y-58016222D01*
X148089995Y-58182136D01*
X148015861Y-58428255D01*
X144816506Y-58428255D01*
X144798577Y-58401423D01*
X144323909Y-58084260D01*
X143905333Y-58001000D01*
X143622667Y-58001000D01*
X143204091Y-58084260D01*
X142729423Y-58401423D01*
X142412260Y-58876091D01*
X142300887Y-59436000D01*
X134747000Y-59436000D01*
X134747000Y-57996396D01*
X134863138Y-58112534D01*
X135390561Y-58331000D01*
X135961439Y-58331000D01*
X136488862Y-58112534D01*
X136757899Y-57843497D01*
X136777843Y-57943765D01*
X136918191Y-58153809D01*
X137128235Y-58294157D01*
X137376000Y-58343440D01*
X138976000Y-58343440D01*
X139223765Y-58294157D01*
X139433809Y-58153809D01*
X139574157Y-57943765D01*
X139623440Y-57696000D01*
X139623440Y-56096000D01*
X139574157Y-55848235D01*
X139433809Y-55638191D01*
X139223765Y-55497843D01*
X138976000Y-55448560D01*
X137376000Y-55448560D01*
X137128235Y-55497843D01*
X136918191Y-55638191D01*
X136777843Y-55848235D01*
X136757899Y-55948503D01*
X136488862Y-55679466D01*
X135961439Y-55461000D01*
X135390561Y-55461000D01*
X134863138Y-55679466D01*
X134747000Y-55795604D01*
X134747000Y-55086561D01*
X140805000Y-55086561D01*
X140805000Y-55657439D01*
X141023466Y-56184862D01*
X141427138Y-56588534D01*
X141954561Y-56807000D01*
X142525439Y-56807000D01*
X143052862Y-56588534D01*
X143456534Y-56184862D01*
X143675000Y-55657439D01*
X143675000Y-55372000D01*
X145856887Y-55372000D01*
X145968260Y-55931909D01*
X146285423Y-56406577D01*
X146760091Y-56723740D01*
X147178667Y-56807000D01*
X147461333Y-56807000D01*
X147879909Y-56723740D01*
X148354577Y-56406577D01*
X148671740Y-55931909D01*
X148783113Y-55372000D01*
X148671740Y-54812091D01*
X148531192Y-54601745D01*
X150849861Y-54601745D01*
X150923995Y-54847864D01*
X151461223Y-55040965D01*
X152031454Y-55013778D01*
X152432005Y-54847864D01*
X152506139Y-54601745D01*
X151678000Y-53773605D01*
X150849861Y-54601745D01*
X148531192Y-54601745D01*
X148354577Y-54337423D01*
X147879909Y-54020260D01*
X147461333Y-53937000D01*
X147178667Y-53937000D01*
X146760091Y-54020260D01*
X146285423Y-54337423D01*
X145968260Y-54812091D01*
X145856887Y-55372000D01*
X143675000Y-55372000D01*
X143675000Y-55086561D01*
X143456534Y-54559138D01*
X143052862Y-54155466D01*
X142525439Y-53937000D01*
X141954561Y-53937000D01*
X141427138Y-54155466D01*
X141023466Y-54559138D01*
X140805000Y-55086561D01*
X134747000Y-55086561D01*
X134747000Y-53377223D01*
X150231035Y-53377223D01*
X150258222Y-53947454D01*
X150424136Y-54348005D01*
X150670255Y-54422139D01*
X151498395Y-53594000D01*
X150670255Y-52765861D01*
X150424136Y-52839995D01*
X150231035Y-53377223D01*
X134747000Y-53377223D01*
X134747000Y-52586255D01*
X150849861Y-52586255D01*
X151678000Y-53414395D01*
X152506139Y-52586255D01*
X152432005Y-52340136D01*
X151894777Y-52147035D01*
X151324546Y-52174222D01*
X150923995Y-52340136D01*
X150849861Y-52586255D01*
X134747000Y-52586255D01*
X134747000Y-47964615D01*
X164683000Y-47964615D01*
X164683000Y-48555385D01*
X164909078Y-49101185D01*
X165326815Y-49518922D01*
X165872615Y-49745000D01*
X166463385Y-49745000D01*
X167009185Y-49518922D01*
X167426922Y-49101185D01*
X167653000Y-48555385D01*
X167653000Y-47964615D01*
X167426922Y-47418815D01*
X167009185Y-47001078D01*
X166463385Y-46775000D01*
X165872615Y-46775000D01*
X165326815Y-47001078D01*
X164909078Y-47418815D01*
X164683000Y-47964615D01*
X134747000Y-47964615D01*
X134747000Y-45424615D01*
X136385000Y-45424615D01*
X136385000Y-46015385D01*
X136611078Y-46561185D01*
X137028815Y-46978922D01*
X137574615Y-47205000D01*
X138165385Y-47205000D01*
X138711185Y-46978922D01*
X138962362Y-46727745D01*
X150381861Y-46727745D01*
X150455995Y-46973864D01*
X150993223Y-47166965D01*
X151563454Y-47139778D01*
X151964005Y-46973864D01*
X152038139Y-46727745D01*
X151210000Y-45899605D01*
X150381861Y-46727745D01*
X138962362Y-46727745D01*
X139128922Y-46561185D01*
X139355000Y-46015385D01*
X139355000Y-45503223D01*
X149763035Y-45503223D01*
X149790222Y-46073454D01*
X149956136Y-46474005D01*
X150202255Y-46548139D01*
X151030395Y-45720000D01*
X151389605Y-45720000D01*
X152217745Y-46548139D01*
X152463864Y-46474005D01*
X152656965Y-45936777D01*
X152633021Y-45434561D01*
X154775000Y-45434561D01*
X154775000Y-46005439D01*
X154993466Y-46532862D01*
X155397138Y-46936534D01*
X155924561Y-47155000D01*
X156495439Y-47155000D01*
X157022862Y-46936534D01*
X157426534Y-46532862D01*
X157645000Y-46005439D01*
X157645000Y-45434561D01*
X157426534Y-44907138D01*
X157022862Y-44503466D01*
X156495439Y-44285000D01*
X155924561Y-44285000D01*
X155397138Y-44503466D01*
X154993466Y-44907138D01*
X154775000Y-45434561D01*
X152633021Y-45434561D01*
X152629778Y-45366546D01*
X152463864Y-44965995D01*
X152217745Y-44891861D01*
X151389605Y-45720000D01*
X151030395Y-45720000D01*
X150202255Y-44891861D01*
X149956136Y-44965995D01*
X149763035Y-45503223D01*
X139355000Y-45503223D01*
X139355000Y-45424615D01*
X139128922Y-44878815D01*
X138962362Y-44712255D01*
X150381861Y-44712255D01*
X151210000Y-45540395D01*
X152038139Y-44712255D01*
X151964005Y-44466136D01*
X151426777Y-44273035D01*
X150856546Y-44300222D01*
X150455995Y-44466136D01*
X150381861Y-44712255D01*
X138962362Y-44712255D01*
X138711185Y-44461078D01*
X138165385Y-44235000D01*
X137574615Y-44235000D01*
X137028815Y-44461078D01*
X136611078Y-44878815D01*
X136385000Y-45424615D01*
X134747000Y-45424615D01*
X134747000Y-40845745D01*
X166811861Y-40845745D01*
X166885995Y-41091864D01*
X167423223Y-41284965D01*
X167993454Y-41257778D01*
X168394005Y-41091864D01*
X168468139Y-40845745D01*
X167640000Y-40017605D01*
X166811861Y-40845745D01*
X134747000Y-40845745D01*
X134747000Y-38003999D01*
X135891560Y-38003999D01*
X135891560Y-38704001D01*
X135959873Y-39047436D01*
X136154414Y-39338586D01*
X136445564Y-39533127D01*
X136788999Y-39601440D01*
X138039001Y-39601440D01*
X138382436Y-39533127D01*
X138673586Y-39338586D01*
X138868127Y-39047436D01*
X138905012Y-38862000D01*
X142097900Y-38862000D01*
X142221109Y-39481411D01*
X142571977Y-40006523D01*
X143097089Y-40357391D01*
X143560150Y-40449500D01*
X143967850Y-40449500D01*
X144430911Y-40357391D01*
X144956023Y-40006523D01*
X145213471Y-39621223D01*
X166193035Y-39621223D01*
X166220222Y-40191454D01*
X166386136Y-40592005D01*
X166632255Y-40666139D01*
X167460395Y-39838000D01*
X167819605Y-39838000D01*
X168647745Y-40666139D01*
X168893864Y-40592005D01*
X169086965Y-40054777D01*
X169059778Y-39484546D01*
X168893864Y-39083995D01*
X168647745Y-39009861D01*
X167819605Y-39838000D01*
X167460395Y-39838000D01*
X166632255Y-39009861D01*
X166386136Y-39083995D01*
X166193035Y-39621223D01*
X145213471Y-39621223D01*
X145306891Y-39481411D01*
X145430100Y-38862000D01*
X145306891Y-38242589D01*
X144956023Y-37717477D01*
X144754526Y-37582841D01*
X145139973Y-37188924D01*
X145354563Y-36694980D01*
X145234594Y-36449000D01*
X143891000Y-36449000D01*
X143891000Y-36469000D01*
X143637000Y-36469000D01*
X143637000Y-36449000D01*
X142293406Y-36449000D01*
X142173437Y-36694980D01*
X142388027Y-37188924D01*
X142773474Y-37582841D01*
X142571977Y-37717477D01*
X142221109Y-38242589D01*
X142097900Y-38862000D01*
X138905012Y-38862000D01*
X138936440Y-38704001D01*
X138936440Y-38003999D01*
X138868127Y-37660564D01*
X138673586Y-37369414D01*
X138506653Y-37257873D01*
X138652080Y-37137474D01*
X138878592Y-36709281D01*
X138882462Y-36671609D01*
X138757731Y-36481000D01*
X137541000Y-36481000D01*
X137541000Y-36501000D01*
X137287000Y-36501000D01*
X137287000Y-36481000D01*
X136070269Y-36481000D01*
X135945538Y-36671609D01*
X135949408Y-36709281D01*
X136175920Y-37137474D01*
X136321347Y-37257873D01*
X136154414Y-37369414D01*
X135959873Y-37660564D01*
X135891560Y-38003999D01*
X134747000Y-38003999D01*
X134747000Y-36322000D01*
X157992276Y-36322000D01*
X158177380Y-37252580D01*
X158704511Y-38041489D01*
X159493420Y-38568620D01*
X160189103Y-38707000D01*
X160658897Y-38707000D01*
X161354580Y-38568620D01*
X162143489Y-38041489D01*
X162670620Y-37252580D01*
X162812758Y-36538000D01*
X166192560Y-36538000D01*
X166192560Y-38138000D01*
X166241843Y-38385765D01*
X166382191Y-38595809D01*
X166592235Y-38736157D01*
X166826187Y-38782693D01*
X166811861Y-38830255D01*
X167640000Y-39658395D01*
X168468139Y-38830255D01*
X168453813Y-38782693D01*
X168687765Y-38736157D01*
X168897809Y-38595809D01*
X169038157Y-38385765D01*
X169087440Y-38138000D01*
X169087440Y-36538000D01*
X169038157Y-36290235D01*
X168897809Y-36080191D01*
X168687765Y-35939843D01*
X168440000Y-35890560D01*
X166840000Y-35890560D01*
X166592235Y-35939843D01*
X166382191Y-36080191D01*
X166241843Y-36290235D01*
X166192560Y-36538000D01*
X162812758Y-36538000D01*
X162855724Y-36322000D01*
X162670620Y-35391420D01*
X162143489Y-34602511D01*
X161354580Y-34075380D01*
X160658897Y-33937000D01*
X160189103Y-33937000D01*
X159493420Y-34075380D01*
X158704511Y-34602511D01*
X158177380Y-35391420D01*
X157992276Y-36322000D01*
X134747000Y-36322000D01*
X134747000Y-34354000D01*
X135879805Y-34354000D01*
X135975656Y-34835873D01*
X136248615Y-35244385D01*
X136426385Y-35363167D01*
X136175920Y-35570526D01*
X135949408Y-35998719D01*
X135945538Y-36036391D01*
X136070269Y-36227000D01*
X137287000Y-36227000D01*
X137287000Y-36207000D01*
X137541000Y-36207000D01*
X137541000Y-36227000D01*
X138757731Y-36227000D01*
X138882462Y-36036391D01*
X138878592Y-35998719D01*
X138652080Y-35570526D01*
X138401615Y-35363167D01*
X138579385Y-35244385D01*
X138852344Y-34835873D01*
X138948195Y-34354000D01*
X138852344Y-33872127D01*
X138579385Y-33463615D01*
X138170873Y-33190656D01*
X137810636Y-33119000D01*
X137017364Y-33119000D01*
X136657127Y-33190656D01*
X136248615Y-33463615D01*
X135975656Y-33872127D01*
X135879805Y-34354000D01*
X134747000Y-34354000D01*
X134747000Y-32385000D01*
X142297298Y-32385000D01*
X142165843Y-32581735D01*
G04 #@! TD*
M02*
