G04 #@! TF.GenerationSoftware,KiCad,Pcbnew,(5.0.1)-rc2*
G04 #@! TF.CreationDate,2019-03-03T17:53:11-05:00*
G04 #@! TF.ProjectId,delay,64656C61792E6B696361645F70636200,rev?*
G04 #@! TF.SameCoordinates,Original*
G04 #@! TF.FileFunction,Copper,L1,Top,Signal*
G04 #@! TF.FilePolarity,Positive*
%FSLAX46Y46*%
G04 Gerber Fmt 4.6, Leading zero omitted, Abs format (unit mm)*
G04 Created by KiCad (PCBNEW (5.0.1)-rc2) date 3/3/2019 5:53:11 PM*
%MOMM*%
%LPD*%
G01*
G04 APERTURE LIST*
G04 #@! TA.AperFunction,ComponentPad*
%ADD10R,2.000000X1.905000*%
G04 #@! TD*
G04 #@! TA.AperFunction,ComponentPad*
%ADD11O,2.000000X1.905000*%
G04 #@! TD*
G04 #@! TA.AperFunction,SMDPad,CuDef*
%ADD12R,2.600000X2.800000*%
G04 #@! TD*
G04 #@! TA.AperFunction,SMDPad,CuDef*
%ADD13R,2.800000X2.800000*%
G04 #@! TD*
G04 #@! TA.AperFunction,SMDPad,CuDef*
%ADD14R,2.200000X2.800000*%
G04 #@! TD*
G04 #@! TA.AperFunction,ComponentPad*
%ADD15R,1.600000X1.600000*%
G04 #@! TD*
G04 #@! TA.AperFunction,ComponentPad*
%ADD16C,1.600000*%
G04 #@! TD*
G04 #@! TA.AperFunction,Conductor*
%ADD17C,0.100000*%
G04 #@! TD*
G04 #@! TA.AperFunction,ComponentPad*
%ADD18C,1.200000*%
G04 #@! TD*
G04 #@! TA.AperFunction,ComponentPad*
%ADD19O,1.750000X1.200000*%
G04 #@! TD*
G04 #@! TA.AperFunction,ComponentPad*
%ADD20O,1.600000X1.600000*%
G04 #@! TD*
G04 #@! TA.AperFunction,ComponentPad*
%ADD21C,1.800000*%
G04 #@! TD*
G04 #@! TA.AperFunction,WasherPad*
%ADD22C,4.000000*%
G04 #@! TD*
G04 #@! TA.AperFunction,Conductor*
%ADD23C,0.250000*%
G04 #@! TD*
G04 #@! TA.AperFunction,Conductor*
%ADD24C,0.254000*%
G04 #@! TD*
G04 APERTURE END LIST*
D10*
G04 #@! TO.P,U1,1*
G04 #@! TO.N,+12V*
X143764000Y-33782000D03*
D11*
G04 #@! TO.P,U1,2*
G04 #@! TO.N,GND*
X143764000Y-36322000D03*
G04 #@! TO.P,U1,3*
G04 #@! TO.N,+5V*
X143764000Y-38862000D03*
G04 #@! TD*
D12*
G04 #@! TO.P,J3,TN*
G04 #@! TO.N,Net-(J3-PadTN)*
X143170000Y-44970000D03*
D13*
G04 #@! TO.P,J3,T*
G04 #@! TO.N,Input*
X139170000Y-49420000D03*
D14*
G04 #@! TO.P,J3,S*
G04 #@! TO.N,GND*
X129770000Y-49420000D03*
G04 #@! TD*
G04 #@! TO.P,J2,S*
G04 #@! TO.N,GND*
X174268000Y-44560000D03*
D13*
G04 #@! TO.P,J2,T*
G04 #@! TO.N,Output*
X164868000Y-44560000D03*
D12*
G04 #@! TO.P,J2,TN*
G04 #@! TO.N,Net-(J2-PadTN)*
X160868000Y-49010000D03*
G04 #@! TD*
D15*
G04 #@! TO.P,C1,1*
G04 #@! TO.N,+12V*
X167640000Y-37338000D03*
D16*
G04 #@! TO.P,C1,2*
G04 #@! TO.N,GND*
X167640000Y-39838000D03*
G04 #@! TD*
G04 #@! TO.P,C2,2*
G04 #@! TO.N,GND*
X151210000Y-45720000D03*
G04 #@! TO.P,C2,1*
G04 #@! TO.N,+5V*
X156210000Y-45720000D03*
G04 #@! TD*
D15*
G04 #@! TO.P,C3,1*
G04 #@! TO.N,Net-(C3-Pad1)*
X143256000Y-80772000D03*
D16*
G04 #@! TO.P,C3,2*
G04 #@! TO.N,GND*
X140756000Y-80772000D03*
G04 #@! TD*
G04 #@! TO.P,C4,2*
G04 #@! TO.N,Net-(C4-Pad2)*
X145542000Y-86694000D03*
G04 #@! TO.P,C4,1*
G04 #@! TO.N,GND*
X145542000Y-91694000D03*
G04 #@! TD*
G04 #@! TO.P,C5,2*
G04 #@! TO.N,GND*
X151678000Y-53594000D03*
D15*
G04 #@! TO.P,C5,1*
G04 #@! TO.N,+5V*
X154178000Y-53594000D03*
G04 #@! TD*
D16*
G04 #@! TO.P,C6,2*
G04 #@! TO.N,GND*
X152654000Y-60532000D03*
G04 #@! TO.P,C6,1*
G04 #@! TO.N,+5V*
X152654000Y-65532000D03*
G04 #@! TD*
G04 #@! TO.P,C7,1*
G04 #@! TO.N,GND*
X149098000Y-91694000D03*
G04 #@! TO.P,C7,2*
G04 #@! TO.N,Net-(C7-Pad2)*
X149098000Y-86694000D03*
G04 #@! TD*
G04 #@! TO.P,C8,2*
G04 #@! TO.N,Net-(C8-Pad2)*
X168322000Y-65024000D03*
G04 #@! TO.P,C8,1*
G04 #@! TO.N,Net-(C8-Pad1)*
X163322000Y-65024000D03*
G04 #@! TD*
G04 #@! TO.P,C9,1*
G04 #@! TO.N,GND*
X156464000Y-65278000D03*
G04 #@! TO.P,C9,2*
G04 #@! TO.N,Net-(C9-Pad2)*
X156464000Y-60278000D03*
G04 #@! TD*
G04 #@! TO.P,C10,1*
G04 #@! TO.N,Net-(C10-Pad1)*
X157226000Y-90932000D03*
G04 #@! TO.P,C10,2*
G04 #@! TO.N,Net-(C10-Pad2)*
X152226000Y-90932000D03*
G04 #@! TD*
G04 #@! TO.P,C11,1*
G04 #@! TO.N,Net-(C11-Pad1)*
X164846000Y-90932000D03*
G04 #@! TO.P,C11,2*
G04 #@! TO.N,Net-(C11-Pad2)*
X159846000Y-90932000D03*
G04 #@! TD*
G04 #@! TO.P,C12,1*
G04 #@! TO.N,Net-(C12-Pad1)*
X168402000Y-78994000D03*
G04 #@! TO.P,C12,2*
G04 #@! TO.N,Net-(C12-Pad2)*
X163402000Y-78994000D03*
G04 #@! TD*
G04 #@! TO.P,C13,1*
G04 #@! TO.N,Net-(C13-Pad1)*
X168402000Y-68580000D03*
G04 #@! TO.P,C13,2*
G04 #@! TO.N,GND*
X163402000Y-68580000D03*
G04 #@! TD*
D15*
G04 #@! TO.P,C14,1*
G04 #@! TO.N,Net-(C13-Pad1)*
X169418000Y-58674000D03*
D16*
G04 #@! TO.P,C14,2*
G04 #@! TO.N,Output*
X169418000Y-56174000D03*
G04 #@! TD*
G04 #@! TO.P,C15,2*
G04 #@! TO.N,Input*
X135676000Y-56896000D03*
D15*
G04 #@! TO.P,C15,1*
G04 #@! TO.N,Net-(C15-Pad1)*
X138176000Y-56896000D03*
G04 #@! TD*
D16*
G04 #@! TO.P,C16,2*
G04 #@! TO.N,GND*
X163402000Y-72136000D03*
G04 #@! TO.P,C16,1*
G04 #@! TO.N,Net-(C16-Pad1)*
X168402000Y-72136000D03*
G04 #@! TD*
D17*
G04 #@! TO.N,-12V*
G04 #@! TO.C,J1*
G36*
X138063505Y-37755204D02*
X138087773Y-37758804D01*
X138111572Y-37764765D01*
X138134671Y-37773030D01*
X138156850Y-37783520D01*
X138177893Y-37796132D01*
X138197599Y-37810747D01*
X138215777Y-37827223D01*
X138232253Y-37845401D01*
X138246868Y-37865107D01*
X138259480Y-37886150D01*
X138269970Y-37908329D01*
X138278235Y-37931428D01*
X138284196Y-37955227D01*
X138287796Y-37979495D01*
X138289000Y-38003999D01*
X138289000Y-38704001D01*
X138287796Y-38728505D01*
X138284196Y-38752773D01*
X138278235Y-38776572D01*
X138269970Y-38799671D01*
X138259480Y-38821850D01*
X138246868Y-38842893D01*
X138232253Y-38862599D01*
X138215777Y-38880777D01*
X138197599Y-38897253D01*
X138177893Y-38911868D01*
X138156850Y-38924480D01*
X138134671Y-38934970D01*
X138111572Y-38943235D01*
X138087773Y-38949196D01*
X138063505Y-38952796D01*
X138039001Y-38954000D01*
X136788999Y-38954000D01*
X136764495Y-38952796D01*
X136740227Y-38949196D01*
X136716428Y-38943235D01*
X136693329Y-38934970D01*
X136671150Y-38924480D01*
X136650107Y-38911868D01*
X136630401Y-38897253D01*
X136612223Y-38880777D01*
X136595747Y-38862599D01*
X136581132Y-38842893D01*
X136568520Y-38821850D01*
X136558030Y-38799671D01*
X136549765Y-38776572D01*
X136543804Y-38752773D01*
X136540204Y-38728505D01*
X136539000Y-38704001D01*
X136539000Y-38003999D01*
X136540204Y-37979495D01*
X136543804Y-37955227D01*
X136549765Y-37931428D01*
X136558030Y-37908329D01*
X136568520Y-37886150D01*
X136581132Y-37865107D01*
X136595747Y-37845401D01*
X136612223Y-37827223D01*
X136630401Y-37810747D01*
X136650107Y-37796132D01*
X136671150Y-37783520D01*
X136693329Y-37773030D01*
X136716428Y-37764765D01*
X136740227Y-37758804D01*
X136764495Y-37755204D01*
X136788999Y-37754000D01*
X138039001Y-37754000D01*
X138063505Y-37755204D01*
X138063505Y-37755204D01*
G37*
D18*
G04 #@! TD*
G04 #@! TO.P,J1,1*
G04 #@! TO.N,-12V*
X137414000Y-38354000D03*
D19*
G04 #@! TO.P,J1,2*
G04 #@! TO.N,GND*
X137414000Y-36354000D03*
G04 #@! TO.P,J1,3*
G04 #@! TO.N,+12V*
X137414000Y-34354000D03*
G04 #@! TD*
D16*
G04 #@! TO.P,R1,1*
G04 #@! TO.N,Net-(R1-Pad1)*
X148844000Y-78740000D03*
D20*
G04 #@! TO.P,R1,2*
G04 #@! TO.N,Net-(R1-Pad2)*
X148844000Y-83820000D03*
G04 #@! TD*
G04 #@! TO.P,R2,2*
G04 #@! TO.N,Net-(C8-Pad1)*
X160274000Y-65532000D03*
D16*
G04 #@! TO.P,R2,1*
G04 #@! TO.N,Net-(C9-Pad2)*
X160274000Y-60452000D03*
G04 #@! TD*
G04 #@! TO.P,R3,1*
G04 #@! TO.N,Net-(C9-Pad2)*
X158242000Y-56642000D03*
D20*
G04 #@! TO.P,R3,2*
G04 #@! TO.N,Net-(C8-Pad2)*
X163322000Y-56642000D03*
G04 #@! TD*
G04 #@! TO.P,R4,2*
G04 #@! TO.N,Net-(C12-Pad1)*
X171958000Y-76708000D03*
D16*
G04 #@! TO.P,R4,1*
G04 #@! TO.N,Net-(C13-Pad1)*
X171958000Y-71628000D03*
G04 #@! TD*
D20*
G04 #@! TO.P,R5,2*
G04 #@! TO.N,Net-(C11-Pad2)*
X163322000Y-82550000D03*
D16*
G04 #@! TO.P,R5,1*
G04 #@! TO.N,Net-(C16-Pad1)*
X168402000Y-82550000D03*
G04 #@! TD*
G04 #@! TO.P,R6,1*
G04 #@! TO.N,Net-(C16-Pad1)*
X168402000Y-75438000D03*
D20*
G04 #@! TO.P,R6,2*
G04 #@! TO.N,Net-(C12-Pad1)*
X163322000Y-75438000D03*
G04 #@! TD*
D16*
G04 #@! TO.P,R7,1*
G04 #@! TO.N,Net-(C16-Pad1)*
X168402000Y-86106000D03*
D20*
G04 #@! TO.P,R7,2*
G04 #@! TO.N,Net-(C12-Pad2)*
X163322000Y-86106000D03*
G04 #@! TD*
G04 #@! TO.P,R8,2*
G04 #@! TO.N,Net-(C9-Pad2)*
X147320000Y-55372000D03*
D16*
G04 #@! TO.P,R8,1*
G04 #@! TO.N,Net-(C15-Pad1)*
X142240000Y-55372000D03*
G04 #@! TD*
G04 #@! TO.P,R9,1*
G04 #@! TO.N,GND*
X148844000Y-59436000D03*
D20*
G04 #@! TO.P,R9,2*
G04 #@! TO.N,Input*
X143764000Y-59436000D03*
G04 #@! TD*
D21*
G04 #@! TO.P,RV1,3*
G04 #@! TO.N,Net-(RV1-Pad3)*
X137240000Y-75184000D03*
G04 #@! TO.P,RV1,2*
G04 #@! TO.N,Net-(R1-Pad2)*
X139740000Y-75184000D03*
G04 #@! TO.P,RV1,1*
G04 #@! TO.N,GND*
X142240000Y-75184000D03*
D22*
G04 #@! TO.P,RV1,*
G04 #@! TO.N,*
X135340000Y-68184000D03*
X144140000Y-68184000D03*
G04 #@! TD*
D15*
G04 #@! TO.P,U2,1*
G04 #@! TO.N,+5V*
X152654000Y-69342000D03*
D20*
G04 #@! TO.P,U2,9*
G04 #@! TO.N,Net-(C10-Pad1)*
X160274000Y-87122000D03*
G04 #@! TO.P,U2,2*
G04 #@! TO.N,Net-(C3-Pad1)*
X152654000Y-71882000D03*
G04 #@! TO.P,U2,10*
G04 #@! TO.N,Net-(C10-Pad2)*
X160274000Y-84582000D03*
G04 #@! TO.P,U2,3*
G04 #@! TO.N,GND*
X152654000Y-74422000D03*
G04 #@! TO.P,U2,11*
G04 #@! TO.N,Net-(C11-Pad1)*
X160274000Y-82042000D03*
G04 #@! TO.P,U2,4*
G04 #@! TO.N,GND*
X152654000Y-76962000D03*
G04 #@! TO.P,U2,12*
G04 #@! TO.N,Net-(C11-Pad2)*
X160274000Y-79502000D03*
G04 #@! TO.P,U2,5*
G04 #@! TO.N,Net-(U2-Pad5)*
X152654000Y-79502000D03*
G04 #@! TO.P,U2,13*
G04 #@! TO.N,Net-(C12-Pad2)*
X160274000Y-76962000D03*
G04 #@! TO.P,U2,6*
G04 #@! TO.N,Net-(R1-Pad1)*
X152654000Y-82042000D03*
G04 #@! TO.P,U2,14*
G04 #@! TO.N,Net-(C12-Pad1)*
X160274000Y-74422000D03*
G04 #@! TO.P,U2,7*
G04 #@! TO.N,Net-(C4-Pad2)*
X152654000Y-84582000D03*
G04 #@! TO.P,U2,15*
G04 #@! TO.N,Net-(C8-Pad2)*
X160274000Y-71882000D03*
G04 #@! TO.P,U2,8*
G04 #@! TO.N,Net-(C7-Pad2)*
X152654000Y-87122000D03*
G04 #@! TO.P,U2,16*
G04 #@! TO.N,Net-(C8-Pad1)*
X160274000Y-69342000D03*
G04 #@! TD*
D23*
G04 #@! TO.N,+12V*
X143192000Y-34354000D02*
X143764000Y-33782000D01*
X137414000Y-34354000D02*
X143192000Y-34354000D01*
X145014000Y-33782000D02*
X143764000Y-33782000D01*
X165134000Y-33782000D02*
X145014000Y-33782000D01*
X167640000Y-36288000D02*
X165134000Y-33782000D01*
X167640000Y-37338000D02*
X167640000Y-36288000D01*
G04 #@! TO.N,GND*
X143732000Y-36354000D02*
X143764000Y-36322000D01*
X137414000Y-36354000D02*
X143732000Y-36354000D01*
X129770000Y-47770000D02*
X129770000Y-49420000D01*
X129694999Y-47694999D02*
X129770000Y-47770000D01*
X129694999Y-43798001D02*
X129694999Y-47694999D01*
X137139000Y-36354000D02*
X129694999Y-43798001D01*
X137414000Y-36354000D02*
X137139000Y-36354000D01*
X150078630Y-45720000D02*
X151210000Y-45720000D01*
X147905000Y-45720000D02*
X150078630Y-45720000D01*
X138539000Y-36354000D02*
X147905000Y-45720000D01*
X137414000Y-36354000D02*
X138539000Y-36354000D01*
X172362000Y-44560000D02*
X167640000Y-39838000D01*
X174268000Y-44560000D02*
X172362000Y-44560000D01*
X143811500Y-36322000D02*
X143764000Y-36322000D01*
X145901491Y-38411991D02*
X143811500Y-36322000D01*
X166213991Y-38411991D02*
X145901491Y-38411991D01*
X167640000Y-39838000D02*
X166213991Y-38411991D01*
X151678000Y-46188000D02*
X151210000Y-45720000D01*
X151678000Y-53594000D02*
X151678000Y-46188000D01*
G04 #@! TO.N,+5V*
X149352000Y-38862000D02*
X156210000Y-45720000D01*
X143764000Y-38862000D02*
X149352000Y-38862000D01*
X154178000Y-47752000D02*
X156210000Y-45720000D01*
X154178000Y-53594000D02*
X154178000Y-47752000D01*
X152654000Y-65532000D02*
X152654000Y-69342000D01*
G04 #@! TO.N,Net-(C3-Pad1)*
X143764000Y-80772000D02*
X143256000Y-80772000D01*
X152654000Y-71882000D02*
X143764000Y-80772000D01*
G04 #@! TO.N,Net-(C4-Pad2)*
X151522630Y-84582000D02*
X152654000Y-84582000D01*
X151159629Y-84945001D02*
X151522630Y-84582000D01*
X147290999Y-84945001D02*
X151159629Y-84945001D01*
X145542000Y-86694000D02*
X147290999Y-84945001D01*
G04 #@! TO.N,Net-(C7-Pad2)*
X152226000Y-86694000D02*
X152654000Y-87122000D01*
X149098000Y-86694000D02*
X152226000Y-86694000D01*
G04 #@! TO.N,Net-(C8-Pad2)*
X168322000Y-61642000D02*
X163322000Y-56642000D01*
X168322000Y-65024000D02*
X168322000Y-61642000D01*
X167522001Y-65823999D02*
X168322000Y-65024000D01*
X167522001Y-66125001D02*
X167522001Y-65823999D01*
X161765002Y-71882000D02*
X167522001Y-66125001D01*
X160274000Y-71882000D02*
X161765002Y-71882000D01*
G04 #@! TO.N,Net-(C8-Pad1)*
X160274000Y-65532000D02*
X160274000Y-69342000D01*
X162814000Y-65532000D02*
X163322000Y-65024000D01*
X160274000Y-65532000D02*
X162814000Y-65532000D01*
G04 #@! TO.N,Net-(C9-Pad2)*
X158242000Y-58500000D02*
X158242000Y-56642000D01*
X156464000Y-60278000D02*
X158242000Y-58500000D01*
X158242000Y-58420000D02*
X158242000Y-56642000D01*
X160274000Y-60452000D02*
X158242000Y-58420000D01*
X155664001Y-59478001D02*
X156464000Y-60278000D01*
X152357999Y-56171999D02*
X155664001Y-59478001D01*
X148119999Y-56171999D02*
X152357999Y-56171999D01*
X147320000Y-55372000D02*
X148119999Y-56171999D01*
G04 #@! TO.N,Net-(C10-Pad1)*
X157226000Y-90170000D02*
X157226000Y-90932000D01*
X160274000Y-87122000D02*
X157226000Y-90170000D01*
G04 #@! TO.N,Net-(C10-Pad2)*
X158576000Y-84582000D02*
X160274000Y-84582000D01*
X152226000Y-90932000D02*
X158576000Y-84582000D01*
G04 #@! TO.N,Net-(C11-Pad2)*
X160645999Y-90132001D02*
X159846000Y-90932000D01*
X161399001Y-89378999D02*
X160645999Y-90132001D01*
X161399001Y-84472999D02*
X161399001Y-89378999D01*
X163322000Y-82550000D02*
X161399001Y-84472999D01*
X161073999Y-80301999D02*
X163322000Y-82550000D01*
X160274000Y-79502000D02*
X161073999Y-80301999D01*
G04 #@! TO.N,Net-(C12-Pad1)*
X169672000Y-78994000D02*
X168402000Y-78994000D01*
X171958000Y-76708000D02*
X169672000Y-78994000D01*
X164846000Y-75438000D02*
X168402000Y-78994000D01*
X163322000Y-75438000D02*
X164846000Y-75438000D01*
X161290000Y-75438000D02*
X163322000Y-75438000D01*
X160274000Y-74422000D02*
X161290000Y-75438000D01*
G04 #@! TO.N,Net-(C12-Pad2)*
X164121999Y-85306001D02*
X163322000Y-86106000D01*
X164447001Y-84980999D02*
X164121999Y-85306001D01*
X164447001Y-80039001D02*
X164447001Y-84980999D01*
X163402000Y-78994000D02*
X164447001Y-80039001D01*
X162306000Y-78994000D02*
X163402000Y-78994000D01*
X160274000Y-76962000D02*
X162306000Y-78994000D01*
G04 #@! TO.N,Net-(C13-Pad1)*
X169201999Y-67780001D02*
X168402000Y-68580000D01*
X169447001Y-67534999D02*
X169201999Y-67780001D01*
X169447001Y-59753001D02*
X169447001Y-67534999D01*
X169418000Y-59724000D02*
X169447001Y-59753001D01*
X169418000Y-58674000D02*
X169418000Y-59724000D01*
X168910000Y-68580000D02*
X168402000Y-68580000D01*
X171958000Y-71628000D02*
X168910000Y-68580000D01*
G04 #@! TO.N,Output*
X164868000Y-51624000D02*
X169418000Y-56174000D01*
X164868000Y-44560000D02*
X164868000Y-51624000D01*
G04 #@! TO.N,Input*
X137520000Y-49420000D02*
X139170000Y-49420000D01*
X135676000Y-51264000D02*
X137520000Y-49420000D01*
X135676000Y-56896000D02*
X135676000Y-51264000D01*
X142632630Y-59436000D02*
X143764000Y-59436000D01*
X137084630Y-59436000D02*
X142632630Y-59436000D01*
X135676000Y-58027370D02*
X137084630Y-59436000D01*
X135676000Y-56896000D02*
X135676000Y-58027370D01*
G04 #@! TO.N,Net-(C15-Pad1)*
X140716000Y-56896000D02*
X142240000Y-55372000D01*
X138176000Y-56896000D02*
X140716000Y-56896000D01*
G04 #@! TO.N,Net-(C16-Pad1)*
X168402000Y-72136000D02*
X168402000Y-75438000D01*
X168402000Y-86106000D02*
X168402000Y-82550000D01*
X169201999Y-72935999D02*
X168402000Y-72136000D01*
X169851001Y-72935999D02*
X169201999Y-72935999D01*
X173083001Y-76167999D02*
X169851001Y-72935999D01*
X173083001Y-77868999D02*
X173083001Y-76167999D01*
X168402000Y-82550000D02*
X173083001Y-77868999D01*
G04 #@! TO.N,Net-(R1-Pad1)*
X152146000Y-82042000D02*
X152654000Y-82042000D01*
X148844000Y-78740000D02*
X152146000Y-82042000D01*
G04 #@! TO.N,Net-(R1-Pad2)*
X140639999Y-76083999D02*
X139740000Y-75184000D01*
X141881001Y-77325001D02*
X140639999Y-76083999D01*
X141881001Y-81582003D02*
X141881001Y-77325001D01*
X144118998Y-83820000D02*
X141881001Y-81582003D01*
X148844000Y-83820000D02*
X144118998Y-83820000D01*
G04 #@! TD*
D24*
G04 #@! TO.N,+5V*
G36*
X143596510Y-42486312D02*
X144032758Y-42922560D01*
X141870000Y-42922560D01*
X141622235Y-42971843D01*
X141412191Y-43112191D01*
X141271843Y-43322235D01*
X141222560Y-43570000D01*
X141222560Y-46370000D01*
X141271843Y-46617765D01*
X141412191Y-46827809D01*
X141622235Y-46968157D01*
X141870000Y-47017440D01*
X144470000Y-47017440D01*
X144717765Y-46968157D01*
X144927809Y-46827809D01*
X145068157Y-46617765D01*
X145117440Y-46370000D01*
X145117440Y-44007242D01*
X147314670Y-46204472D01*
X147357071Y-46267929D01*
X147608463Y-46435904D01*
X147830148Y-46480000D01*
X147830152Y-46480000D01*
X147904999Y-46494888D01*
X147979846Y-46480000D01*
X149971570Y-46480000D01*
X149993466Y-46532862D01*
X150397138Y-46936534D01*
X150918001Y-47152283D01*
X150918000Y-52355570D01*
X150865138Y-52377466D01*
X150461466Y-52781138D01*
X150243000Y-53308561D01*
X150243000Y-53879439D01*
X150461466Y-54406862D01*
X150865138Y-54810534D01*
X151392561Y-55029000D01*
X151963439Y-55029000D01*
X152490862Y-54810534D01*
X152754155Y-54547241D01*
X152839673Y-54753699D01*
X153018302Y-54932327D01*
X153251691Y-55029000D01*
X153892250Y-55029000D01*
X154051000Y-54870250D01*
X154051000Y-53721000D01*
X154305000Y-53721000D01*
X154305000Y-54870250D01*
X154463750Y-55029000D01*
X155104309Y-55029000D01*
X155337698Y-54932327D01*
X155516327Y-54753699D01*
X155613000Y-54520310D01*
X155613000Y-53879750D01*
X155454250Y-53721000D01*
X154305000Y-53721000D01*
X154051000Y-53721000D01*
X154031000Y-53721000D01*
X154031000Y-53467000D01*
X154051000Y-53467000D01*
X154051000Y-52317750D01*
X154305000Y-52317750D01*
X154305000Y-53467000D01*
X155454250Y-53467000D01*
X155613000Y-53308250D01*
X155613000Y-52667690D01*
X155516327Y-52434301D01*
X155337698Y-52255673D01*
X155104309Y-52159000D01*
X154463750Y-52159000D01*
X154305000Y-52317750D01*
X154051000Y-52317750D01*
X153892250Y-52159000D01*
X153251691Y-52159000D01*
X153018302Y-52255673D01*
X152839673Y-52434301D01*
X152754155Y-52640759D01*
X152490862Y-52377466D01*
X152438000Y-52355570D01*
X152438000Y-47610000D01*
X158920560Y-47610000D01*
X158920560Y-50410000D01*
X158969843Y-50657765D01*
X159110191Y-50867809D01*
X159320235Y-51008157D01*
X159568000Y-51057440D01*
X162168000Y-51057440D01*
X162415765Y-51008157D01*
X162625809Y-50867809D01*
X162766157Y-50657765D01*
X162815440Y-50410000D01*
X162815440Y-47610000D01*
X162766157Y-47362235D01*
X162625809Y-47152191D01*
X162415765Y-47011843D01*
X162168000Y-46962560D01*
X159568000Y-46962560D01*
X159320235Y-47011843D01*
X159110191Y-47152191D01*
X158969843Y-47362235D01*
X158920560Y-47610000D01*
X152438000Y-47610000D01*
X152438000Y-46727745D01*
X155381861Y-46727745D01*
X155455995Y-46973864D01*
X155993223Y-47166965D01*
X156563454Y-47139778D01*
X156964005Y-46973864D01*
X157038139Y-46727745D01*
X156210000Y-45899605D01*
X155381861Y-46727745D01*
X152438000Y-46727745D01*
X152438000Y-46505181D01*
X152645000Y-46005439D01*
X152645000Y-45503223D01*
X154763035Y-45503223D01*
X154790222Y-46073454D01*
X154956136Y-46474005D01*
X155202255Y-46548139D01*
X156030395Y-45720000D01*
X156389605Y-45720000D01*
X157217745Y-46548139D01*
X157463864Y-46474005D01*
X157656965Y-45936777D01*
X157629778Y-45366546D01*
X157463864Y-44965995D01*
X157217745Y-44891861D01*
X156389605Y-45720000D01*
X156030395Y-45720000D01*
X155202255Y-44891861D01*
X154956136Y-44965995D01*
X154763035Y-45503223D01*
X152645000Y-45503223D01*
X152645000Y-45434561D01*
X152426534Y-44907138D01*
X152231651Y-44712255D01*
X155381861Y-44712255D01*
X156210000Y-45540395D01*
X157038139Y-44712255D01*
X156964005Y-44466136D01*
X156426777Y-44273035D01*
X155856546Y-44300222D01*
X155455995Y-44466136D01*
X155381861Y-44712255D01*
X152231651Y-44712255D01*
X152022862Y-44503466D01*
X151495439Y-44285000D01*
X150924561Y-44285000D01*
X150397138Y-44503466D01*
X149993466Y-44907138D01*
X149971570Y-44960000D01*
X148219802Y-44960000D01*
X145795341Y-42535539D01*
X162868740Y-42917780D01*
X162820560Y-43160000D01*
X162820560Y-45960000D01*
X162869843Y-46207765D01*
X163010191Y-46417809D01*
X163220235Y-46558157D01*
X163468000Y-46607440D01*
X164108000Y-46607440D01*
X164108001Y-51549148D01*
X164093112Y-51624000D01*
X164108001Y-51698852D01*
X164152097Y-51920537D01*
X164320072Y-52171929D01*
X164383528Y-52214329D01*
X168004896Y-55835698D01*
X167983000Y-55888561D01*
X167983000Y-56459439D01*
X168201466Y-56986862D01*
X168470503Y-57255899D01*
X168370235Y-57275843D01*
X168160191Y-57416191D01*
X168019843Y-57626235D01*
X167970560Y-57874000D01*
X167970560Y-59474000D01*
X168019843Y-59721765D01*
X168160191Y-59931809D01*
X168370235Y-60072157D01*
X168618000Y-60121440D01*
X168687001Y-60121440D01*
X168687001Y-60932199D01*
X164720688Y-56965887D01*
X164785113Y-56642000D01*
X164673740Y-56082091D01*
X164356577Y-55607423D01*
X163881909Y-55290260D01*
X163463333Y-55207000D01*
X163180667Y-55207000D01*
X162762091Y-55290260D01*
X162287423Y-55607423D01*
X161970260Y-56082091D01*
X161858887Y-56642000D01*
X161970260Y-57201909D01*
X162287423Y-57676577D01*
X162762091Y-57993740D01*
X163180667Y-58077000D01*
X163463333Y-58077000D01*
X163645887Y-58040688D01*
X167562001Y-61956803D01*
X167562000Y-63785570D01*
X167509138Y-63807466D01*
X167105466Y-64211138D01*
X166887000Y-64738561D01*
X166887000Y-65309439D01*
X166911789Y-65369284D01*
X166806097Y-65527462D01*
X166762001Y-65749147D01*
X166762001Y-65749152D01*
X166747113Y-65823999D01*
X166747294Y-65824907D01*
X164673167Y-67899033D01*
X164618534Y-67767138D01*
X164214862Y-67363466D01*
X163687439Y-67145000D01*
X163116561Y-67145000D01*
X162589138Y-67363466D01*
X162185466Y-67767138D01*
X161967000Y-68294561D01*
X161967000Y-68865439D01*
X162185466Y-69392862D01*
X162589138Y-69796534D01*
X162721034Y-69851167D01*
X161475284Y-71096917D01*
X161308577Y-70847423D01*
X160956242Y-70612000D01*
X161308577Y-70376577D01*
X161625740Y-69901909D01*
X161737113Y-69342000D01*
X161625740Y-68782091D01*
X161308577Y-68307423D01*
X161034000Y-68123957D01*
X161034000Y-66750043D01*
X161308577Y-66566577D01*
X161492043Y-66292000D01*
X162633388Y-66292000D01*
X163036561Y-66459000D01*
X163607439Y-66459000D01*
X164134862Y-66240534D01*
X164538534Y-65836862D01*
X164757000Y-65309439D01*
X164757000Y-64738561D01*
X164538534Y-64211138D01*
X164134862Y-63807466D01*
X163607439Y-63589000D01*
X163036561Y-63589000D01*
X162509138Y-63807466D01*
X162105466Y-64211138D01*
X161887000Y-64738561D01*
X161887000Y-64772000D01*
X161492043Y-64772000D01*
X161308577Y-64497423D01*
X160833909Y-64180260D01*
X160415333Y-64097000D01*
X160132667Y-64097000D01*
X159714091Y-64180260D01*
X159239423Y-64497423D01*
X158922260Y-64972091D01*
X158810887Y-65532000D01*
X158922260Y-66091909D01*
X159239423Y-66566577D01*
X159514000Y-66750044D01*
X159514001Y-68123956D01*
X159239423Y-68307423D01*
X158922260Y-68782091D01*
X158810887Y-69342000D01*
X158922260Y-69901909D01*
X159239423Y-70376577D01*
X159591758Y-70612000D01*
X159239423Y-70847423D01*
X158922260Y-71322091D01*
X158810887Y-71882000D01*
X158922260Y-72441909D01*
X159239423Y-72916577D01*
X159591758Y-73152000D01*
X159239423Y-73387423D01*
X158922260Y-73862091D01*
X158810887Y-74422000D01*
X158922260Y-74981909D01*
X159239423Y-75456577D01*
X159591758Y-75692000D01*
X159239423Y-75927423D01*
X158922260Y-76402091D01*
X158810887Y-76962000D01*
X158922260Y-77521909D01*
X159239423Y-77996577D01*
X159591758Y-78232000D01*
X159239423Y-78467423D01*
X158922260Y-78942091D01*
X158810887Y-79502000D01*
X158922260Y-80061909D01*
X159239423Y-80536577D01*
X159591758Y-80772000D01*
X159239423Y-81007423D01*
X158922260Y-81482091D01*
X158810887Y-82042000D01*
X158922260Y-82601909D01*
X159239423Y-83076577D01*
X159591758Y-83312000D01*
X159239423Y-83547423D01*
X159055957Y-83822000D01*
X158650846Y-83822000D01*
X158575999Y-83807112D01*
X158501152Y-83822000D01*
X158501148Y-83822000D01*
X158279463Y-83866096D01*
X158028071Y-84034071D01*
X157985671Y-84097527D01*
X152564302Y-89518897D01*
X152511439Y-89497000D01*
X151940561Y-89497000D01*
X151413138Y-89715466D01*
X151009466Y-90119138D01*
X150791000Y-90646561D01*
X150791000Y-91217439D01*
X151009466Y-91744862D01*
X151413138Y-92148534D01*
X151940561Y-92367000D01*
X152511439Y-92367000D01*
X153038862Y-92148534D01*
X153442534Y-91744862D01*
X153661000Y-91217439D01*
X153661000Y-90646561D01*
X153639103Y-90593698D01*
X158890802Y-85342000D01*
X159055957Y-85342000D01*
X159239423Y-85616577D01*
X159591758Y-85852000D01*
X159239423Y-86087423D01*
X158922260Y-86562091D01*
X158810887Y-87122000D01*
X158875312Y-87445886D01*
X156741918Y-89579281D01*
X156413138Y-89715466D01*
X156009466Y-90119138D01*
X155791000Y-90646561D01*
X155791000Y-91217439D01*
X156009466Y-91744862D01*
X156413138Y-92148534D01*
X156940561Y-92367000D01*
X157511439Y-92367000D01*
X158038862Y-92148534D01*
X158442534Y-91744862D01*
X158536000Y-91519215D01*
X158629466Y-91744862D01*
X159033138Y-92148534D01*
X159560561Y-92367000D01*
X160131439Y-92367000D01*
X160658862Y-92148534D01*
X161062534Y-91744862D01*
X161281000Y-91217439D01*
X161281000Y-90646561D01*
X163411000Y-90646561D01*
X163411000Y-91217439D01*
X163629466Y-91744862D01*
X164033138Y-92148534D01*
X164560561Y-92367000D01*
X165131439Y-92367000D01*
X165658862Y-92148534D01*
X166062534Y-91744862D01*
X166281000Y-91217439D01*
X166281000Y-90646561D01*
X166062534Y-90119138D01*
X165658862Y-89715466D01*
X165131439Y-89497000D01*
X164560561Y-89497000D01*
X164033138Y-89715466D01*
X163629466Y-90119138D01*
X163411000Y-90646561D01*
X161281000Y-90646561D01*
X161259103Y-90593698D01*
X161883474Y-89969328D01*
X161946930Y-89926928D01*
X162114905Y-89675536D01*
X162159001Y-89453851D01*
X162159001Y-89453847D01*
X162173889Y-89378999D01*
X162159001Y-89304151D01*
X162159001Y-86948380D01*
X162287423Y-87140577D01*
X162762091Y-87457740D01*
X163180667Y-87541000D01*
X163463333Y-87541000D01*
X163881909Y-87457740D01*
X164356577Y-87140577D01*
X164673740Y-86665909D01*
X164785113Y-86106000D01*
X164720688Y-85782113D01*
X164931471Y-85571330D01*
X164994930Y-85528928D01*
X165162905Y-85277536D01*
X165207001Y-85055851D01*
X165207001Y-85055847D01*
X165221889Y-84981000D01*
X165207001Y-84906153D01*
X165207001Y-80113849D01*
X165221889Y-80039001D01*
X165207001Y-79964153D01*
X165207001Y-79964149D01*
X165162905Y-79742464D01*
X164994930Y-79491072D01*
X164931474Y-79448672D01*
X164815104Y-79332302D01*
X164837000Y-79279439D01*
X164837000Y-78708561D01*
X164618534Y-78181138D01*
X164214862Y-77777466D01*
X163687439Y-77559000D01*
X163116561Y-77559000D01*
X162589138Y-77777466D01*
X162376703Y-77989901D01*
X161672688Y-77285886D01*
X161737113Y-76962000D01*
X161625740Y-76402091D01*
X161489371Y-76198000D01*
X162103957Y-76198000D01*
X162287423Y-76472577D01*
X162762091Y-76789740D01*
X163180667Y-76873000D01*
X163463333Y-76873000D01*
X163881909Y-76789740D01*
X164356577Y-76472577D01*
X164536501Y-76203302D01*
X166988896Y-78655699D01*
X166967000Y-78708561D01*
X166967000Y-79279439D01*
X167185466Y-79806862D01*
X167589138Y-80210534D01*
X168116561Y-80429000D01*
X168687439Y-80429000D01*
X169214862Y-80210534D01*
X169618534Y-79806862D01*
X169637136Y-79761953D01*
X169672000Y-79768888D01*
X169746847Y-79754000D01*
X169746852Y-79754000D01*
X169968537Y-79709904D01*
X170219929Y-79541929D01*
X170262331Y-79478470D01*
X170420610Y-79320191D01*
X170426483Y-79450716D01*
X168740302Y-81136897D01*
X168687439Y-81115000D01*
X168116561Y-81115000D01*
X167589138Y-81333466D01*
X167185466Y-81737138D01*
X166967000Y-82264561D01*
X166967000Y-82835439D01*
X167185466Y-83362862D01*
X167589138Y-83766534D01*
X167642001Y-83788430D01*
X167642000Y-84867570D01*
X167589138Y-84889466D01*
X167185466Y-85293138D01*
X166967000Y-85820561D01*
X166967000Y-86391439D01*
X167185466Y-86918862D01*
X167589138Y-87322534D01*
X168116561Y-87541000D01*
X168687439Y-87541000D01*
X169214862Y-87322534D01*
X169618534Y-86918862D01*
X169837000Y-86391439D01*
X169837000Y-85820561D01*
X169618534Y-85293138D01*
X169214862Y-84889466D01*
X169162000Y-84867570D01*
X169162000Y-83788430D01*
X169214862Y-83766534D01*
X169618534Y-83362862D01*
X169837000Y-82835439D01*
X169837000Y-82264561D01*
X169815103Y-82211698D01*
X170519050Y-81507751D01*
X171063069Y-93597060D01*
X136267925Y-93092782D01*
X136226029Y-91408561D01*
X144107000Y-91408561D01*
X144107000Y-91979439D01*
X144325466Y-92506862D01*
X144729138Y-92910534D01*
X145256561Y-93129000D01*
X145827439Y-93129000D01*
X146354862Y-92910534D01*
X146758534Y-92506862D01*
X146977000Y-91979439D01*
X146977000Y-91408561D01*
X147663000Y-91408561D01*
X147663000Y-91979439D01*
X147881466Y-92506862D01*
X148285138Y-92910534D01*
X148812561Y-93129000D01*
X149383439Y-93129000D01*
X149910862Y-92910534D01*
X150314534Y-92506862D01*
X150533000Y-91979439D01*
X150533000Y-91408561D01*
X150314534Y-90881138D01*
X149910862Y-90477466D01*
X149383439Y-90259000D01*
X148812561Y-90259000D01*
X148285138Y-90477466D01*
X147881466Y-90881138D01*
X147663000Y-91408561D01*
X146977000Y-91408561D01*
X146758534Y-90881138D01*
X146354862Y-90477466D01*
X145827439Y-90259000D01*
X145256561Y-90259000D01*
X144729138Y-90477466D01*
X144325466Y-90881138D01*
X144107000Y-91408561D01*
X136226029Y-91408561D01*
X135838016Y-75810460D01*
X135938690Y-76053507D01*
X136370493Y-76485310D01*
X136934670Y-76719000D01*
X137545330Y-76719000D01*
X138109507Y-76485310D01*
X138490000Y-76104817D01*
X138870493Y-76485310D01*
X139434670Y-76719000D01*
X140045330Y-76719000D01*
X140154838Y-76673640D01*
X140155526Y-76674328D01*
X140155529Y-76674330D01*
X141121002Y-77639804D01*
X141121002Y-79369956D01*
X141041439Y-79337000D01*
X140470561Y-79337000D01*
X139943138Y-79555466D01*
X139539466Y-79959138D01*
X139321000Y-80486561D01*
X139321000Y-81057439D01*
X139539466Y-81584862D01*
X139943138Y-81988534D01*
X140470561Y-82207000D01*
X141041439Y-82207000D01*
X141310186Y-82095681D01*
X141333072Y-82129932D01*
X141396531Y-82172334D01*
X143528669Y-84304473D01*
X143571069Y-84367929D01*
X143634525Y-84410329D01*
X143822460Y-84535904D01*
X143870603Y-84545480D01*
X144044146Y-84580000D01*
X144044150Y-84580000D01*
X144118998Y-84594888D01*
X144193846Y-84580000D01*
X146581198Y-84580000D01*
X145880302Y-85280897D01*
X145827439Y-85259000D01*
X145256561Y-85259000D01*
X144729138Y-85477466D01*
X144325466Y-85881138D01*
X144107000Y-86408561D01*
X144107000Y-86979439D01*
X144325466Y-87506862D01*
X144729138Y-87910534D01*
X145256561Y-88129000D01*
X145827439Y-88129000D01*
X146354862Y-87910534D01*
X146758534Y-87506862D01*
X146977000Y-86979439D01*
X146977000Y-86408561D01*
X146955103Y-86355698D01*
X147605801Y-85705001D01*
X148057603Y-85705001D01*
X147881466Y-85881138D01*
X147663000Y-86408561D01*
X147663000Y-86979439D01*
X147881466Y-87506862D01*
X148285138Y-87910534D01*
X148812561Y-88129000D01*
X149383439Y-88129000D01*
X149910862Y-87910534D01*
X150314534Y-87506862D01*
X150336430Y-87454000D01*
X151256926Y-87454000D01*
X151302260Y-87681909D01*
X151619423Y-88156577D01*
X152094091Y-88473740D01*
X152512667Y-88557000D01*
X152795333Y-88557000D01*
X153213909Y-88473740D01*
X153688577Y-88156577D01*
X154005740Y-87681909D01*
X154117113Y-87122000D01*
X154005740Y-86562091D01*
X153688577Y-86087423D01*
X153336242Y-85852000D01*
X153688577Y-85616577D01*
X154005740Y-85141909D01*
X154117113Y-84582000D01*
X154005740Y-84022091D01*
X153688577Y-83547423D01*
X153336242Y-83312000D01*
X153688577Y-83076577D01*
X154005740Y-82601909D01*
X154117113Y-82042000D01*
X154005740Y-81482091D01*
X153688577Y-81007423D01*
X153336242Y-80772000D01*
X153688577Y-80536577D01*
X154005740Y-80061909D01*
X154117113Y-79502000D01*
X154005740Y-78942091D01*
X153688577Y-78467423D01*
X153336242Y-78232000D01*
X153688577Y-77996577D01*
X154005740Y-77521909D01*
X154117113Y-76962000D01*
X154005740Y-76402091D01*
X153688577Y-75927423D01*
X153336242Y-75692000D01*
X153688577Y-75456577D01*
X154005740Y-74981909D01*
X154117113Y-74422000D01*
X154005740Y-73862091D01*
X153688577Y-73387423D01*
X153336242Y-73152000D01*
X153688577Y-72916577D01*
X154005740Y-72441909D01*
X154117113Y-71882000D01*
X154005740Y-71322091D01*
X153688577Y-70847423D01*
X153582082Y-70776265D01*
X153813698Y-70680327D01*
X153992327Y-70501699D01*
X154089000Y-70268310D01*
X154089000Y-69627750D01*
X153930250Y-69469000D01*
X152781000Y-69469000D01*
X152781000Y-69489000D01*
X152527000Y-69489000D01*
X152527000Y-69469000D01*
X151377750Y-69469000D01*
X151219000Y-69627750D01*
X151219000Y-70268310D01*
X151315673Y-70501699D01*
X151494302Y-70680327D01*
X151725918Y-70776265D01*
X151619423Y-70847423D01*
X151302260Y-71322091D01*
X151190887Y-71882000D01*
X151255312Y-72205886D01*
X144123260Y-79337939D01*
X144056000Y-79324560D01*
X142641001Y-79324560D01*
X142641001Y-77399848D01*
X142655889Y-77325001D01*
X142641001Y-77250154D01*
X142641001Y-77250149D01*
X142596905Y-77028464D01*
X142428930Y-76777072D01*
X142365474Y-76734672D01*
X142349802Y-76719000D01*
X142545330Y-76719000D01*
X143109507Y-76485310D01*
X143541310Y-76053507D01*
X143775000Y-75489330D01*
X143775000Y-74878670D01*
X143541310Y-74314493D01*
X143109507Y-73882690D01*
X142545330Y-73649000D01*
X141934670Y-73649000D01*
X141370493Y-73882690D01*
X140990000Y-74263183D01*
X140609507Y-73882690D01*
X140045330Y-73649000D01*
X139434670Y-73649000D01*
X138870493Y-73882690D01*
X138490000Y-74263183D01*
X138109507Y-73882690D01*
X137545330Y-73649000D01*
X136934670Y-73649000D01*
X136370493Y-73882690D01*
X135938690Y-74314493D01*
X135808615Y-74628522D01*
X135713851Y-70819000D01*
X135864134Y-70819000D01*
X136832608Y-70417845D01*
X137573845Y-69676608D01*
X137975000Y-68708134D01*
X137975000Y-67659866D01*
X141505000Y-67659866D01*
X141505000Y-68708134D01*
X141906155Y-69676608D01*
X142647392Y-70417845D01*
X143615866Y-70819000D01*
X144664134Y-70819000D01*
X145632608Y-70417845D01*
X146373845Y-69676608D01*
X146775000Y-68708134D01*
X146775000Y-68415690D01*
X151219000Y-68415690D01*
X151219000Y-69056250D01*
X151377750Y-69215000D01*
X152527000Y-69215000D01*
X152527000Y-68065750D01*
X152781000Y-68065750D01*
X152781000Y-69215000D01*
X153930250Y-69215000D01*
X154089000Y-69056250D01*
X154089000Y-68415690D01*
X153992327Y-68182301D01*
X153813698Y-68003673D01*
X153580309Y-67907000D01*
X152939750Y-67907000D01*
X152781000Y-68065750D01*
X152527000Y-68065750D01*
X152368250Y-67907000D01*
X151727691Y-67907000D01*
X151494302Y-68003673D01*
X151315673Y-68182301D01*
X151219000Y-68415690D01*
X146775000Y-68415690D01*
X146775000Y-67659866D01*
X146373845Y-66691392D01*
X146222198Y-66539745D01*
X151825861Y-66539745D01*
X151899995Y-66785864D01*
X152437223Y-66978965D01*
X153007454Y-66951778D01*
X153408005Y-66785864D01*
X153482139Y-66539745D01*
X152654000Y-65711605D01*
X151825861Y-66539745D01*
X146222198Y-66539745D01*
X145632608Y-65950155D01*
X144664134Y-65549000D01*
X143615866Y-65549000D01*
X142647392Y-65950155D01*
X141906155Y-66691392D01*
X141505000Y-67659866D01*
X137975000Y-67659866D01*
X137573845Y-66691392D01*
X136832608Y-65950155D01*
X135864134Y-65549000D01*
X135582756Y-65549000D01*
X135576941Y-65315223D01*
X151207035Y-65315223D01*
X151234222Y-65885454D01*
X151400136Y-66286005D01*
X151646255Y-66360139D01*
X152474395Y-65532000D01*
X152833605Y-65532000D01*
X153661745Y-66360139D01*
X153907864Y-66286005D01*
X154100965Y-65748777D01*
X154073778Y-65178546D01*
X153996741Y-64992561D01*
X155029000Y-64992561D01*
X155029000Y-65563439D01*
X155247466Y-66090862D01*
X155651138Y-66494534D01*
X156178561Y-66713000D01*
X156749439Y-66713000D01*
X157276862Y-66494534D01*
X157680534Y-66090862D01*
X157899000Y-65563439D01*
X157899000Y-64992561D01*
X157680534Y-64465138D01*
X157276862Y-64061466D01*
X156749439Y-63843000D01*
X156178561Y-63843000D01*
X155651138Y-64061466D01*
X155247466Y-64465138D01*
X155029000Y-64992561D01*
X153996741Y-64992561D01*
X153907864Y-64777995D01*
X153661745Y-64703861D01*
X152833605Y-65532000D01*
X152474395Y-65532000D01*
X151646255Y-64703861D01*
X151400136Y-64777995D01*
X151207035Y-65315223D01*
X135576941Y-65315223D01*
X135557266Y-64524255D01*
X151825861Y-64524255D01*
X152654000Y-65352395D01*
X153482139Y-64524255D01*
X153408005Y-64278136D01*
X152870777Y-64085035D01*
X152300546Y-64112222D01*
X151899995Y-64278136D01*
X151825861Y-64524255D01*
X135557266Y-64524255D01*
X135415917Y-58842089D01*
X136494301Y-59920473D01*
X136536701Y-59983929D01*
X136600157Y-60026329D01*
X136788092Y-60151904D01*
X136805980Y-60155462D01*
X137009778Y-60196000D01*
X137009782Y-60196000D01*
X137084630Y-60210888D01*
X137159478Y-60196000D01*
X142545957Y-60196000D01*
X142729423Y-60470577D01*
X143204091Y-60787740D01*
X143622667Y-60871000D01*
X143905333Y-60871000D01*
X144323909Y-60787740D01*
X144798577Y-60470577D01*
X145115740Y-59995909D01*
X145227113Y-59436000D01*
X145170336Y-59150561D01*
X147409000Y-59150561D01*
X147409000Y-59721439D01*
X147627466Y-60248862D01*
X148031138Y-60652534D01*
X148558561Y-60871000D01*
X149129439Y-60871000D01*
X149656862Y-60652534D01*
X150060534Y-60248862D01*
X150061487Y-60246561D01*
X151219000Y-60246561D01*
X151219000Y-60817439D01*
X151437466Y-61344862D01*
X151841138Y-61748534D01*
X152368561Y-61967000D01*
X152939439Y-61967000D01*
X153466862Y-61748534D01*
X153870534Y-61344862D01*
X154089000Y-60817439D01*
X154089000Y-60246561D01*
X153870534Y-59719138D01*
X153466862Y-59315466D01*
X152939439Y-59097000D01*
X152368561Y-59097000D01*
X151841138Y-59315466D01*
X151437466Y-59719138D01*
X151219000Y-60246561D01*
X150061487Y-60246561D01*
X150279000Y-59721439D01*
X150279000Y-59150561D01*
X150060534Y-58623138D01*
X149656862Y-58219466D01*
X149129439Y-58001000D01*
X148558561Y-58001000D01*
X148031138Y-58219466D01*
X147627466Y-58623138D01*
X147409000Y-59150561D01*
X145170336Y-59150561D01*
X145115740Y-58876091D01*
X144798577Y-58401423D01*
X144323909Y-58084260D01*
X143905333Y-58001000D01*
X143622667Y-58001000D01*
X143204091Y-58084260D01*
X142729423Y-58401423D01*
X142545957Y-58676000D01*
X137399432Y-58676000D01*
X136662414Y-57938982D01*
X136757899Y-57843497D01*
X136777843Y-57943765D01*
X136918191Y-58153809D01*
X137128235Y-58294157D01*
X137376000Y-58343440D01*
X138976000Y-58343440D01*
X139223765Y-58294157D01*
X139433809Y-58153809D01*
X139574157Y-57943765D01*
X139623440Y-57696000D01*
X139623440Y-57656000D01*
X140641153Y-57656000D01*
X140716000Y-57670888D01*
X140790847Y-57656000D01*
X140790852Y-57656000D01*
X141012537Y-57611904D01*
X141263929Y-57443929D01*
X141306331Y-57380470D01*
X141901698Y-56785104D01*
X141954561Y-56807000D01*
X142525439Y-56807000D01*
X143052862Y-56588534D01*
X143456534Y-56184862D01*
X143675000Y-55657439D01*
X143675000Y-55372000D01*
X145856887Y-55372000D01*
X145968260Y-55931909D01*
X146285423Y-56406577D01*
X146760091Y-56723740D01*
X147178667Y-56807000D01*
X147461333Y-56807000D01*
X147647084Y-56770052D01*
X147760901Y-56846101D01*
X147823462Y-56887903D01*
X148045147Y-56931999D01*
X148045151Y-56931999D01*
X148119998Y-56946887D01*
X148194845Y-56931999D01*
X152043198Y-56931999D01*
X155050896Y-59939698D01*
X155029000Y-59992561D01*
X155029000Y-60563439D01*
X155247466Y-61090862D01*
X155651138Y-61494534D01*
X156178561Y-61713000D01*
X156749439Y-61713000D01*
X157276862Y-61494534D01*
X157680534Y-61090862D01*
X157899000Y-60563439D01*
X157899000Y-59992561D01*
X157877103Y-59939698D01*
X158282000Y-59534802D01*
X158860897Y-60113698D01*
X158839000Y-60166561D01*
X158839000Y-60737439D01*
X159057466Y-61264862D01*
X159461138Y-61668534D01*
X159988561Y-61887000D01*
X160559439Y-61887000D01*
X161086862Y-61668534D01*
X161490534Y-61264862D01*
X161709000Y-60737439D01*
X161709000Y-60166561D01*
X161490534Y-59639138D01*
X161086862Y-59235466D01*
X160559439Y-59017000D01*
X159988561Y-59017000D01*
X159935698Y-59038897D01*
X159002000Y-58105199D01*
X159002000Y-57880430D01*
X159054862Y-57858534D01*
X159458534Y-57454862D01*
X159677000Y-56927439D01*
X159677000Y-56356561D01*
X159458534Y-55829138D01*
X159054862Y-55425466D01*
X158527439Y-55207000D01*
X157956561Y-55207000D01*
X157429138Y-55425466D01*
X157025466Y-55829138D01*
X156807000Y-56356561D01*
X156807000Y-56927439D01*
X157025466Y-57454862D01*
X157429138Y-57858534D01*
X157482000Y-57880430D01*
X157482000Y-58185198D01*
X156802302Y-58864897D01*
X156749439Y-58843000D01*
X156178561Y-58843000D01*
X156125698Y-58864896D01*
X152948330Y-55687529D01*
X152905928Y-55624070D01*
X152654536Y-55456095D01*
X152432851Y-55411999D01*
X152432846Y-55411999D01*
X152357999Y-55397111D01*
X152283152Y-55411999D01*
X148775157Y-55411999D01*
X148783113Y-55372000D01*
X148671740Y-54812091D01*
X148354577Y-54337423D01*
X147879909Y-54020260D01*
X147461333Y-53937000D01*
X147178667Y-53937000D01*
X146760091Y-54020260D01*
X146285423Y-54337423D01*
X145968260Y-54812091D01*
X145856887Y-55372000D01*
X143675000Y-55372000D01*
X143675000Y-55086561D01*
X143456534Y-54559138D01*
X143052862Y-54155466D01*
X142525439Y-53937000D01*
X141954561Y-53937000D01*
X141427138Y-54155466D01*
X141023466Y-54559138D01*
X140805000Y-55086561D01*
X140805000Y-55657439D01*
X140826896Y-55710302D01*
X140401199Y-56136000D01*
X139623440Y-56136000D01*
X139623440Y-56096000D01*
X139574157Y-55848235D01*
X139433809Y-55638191D01*
X139223765Y-55497843D01*
X138976000Y-55448560D01*
X137376000Y-55448560D01*
X137128235Y-55497843D01*
X136918191Y-55638191D01*
X136777843Y-55848235D01*
X136757899Y-55948503D01*
X136488862Y-55679466D01*
X136436000Y-55657570D01*
X136436000Y-51578801D01*
X137134546Y-50880256D01*
X137171843Y-51067765D01*
X137312191Y-51277809D01*
X137522235Y-51418157D01*
X137770000Y-51467440D01*
X140570000Y-51467440D01*
X140817765Y-51418157D01*
X141027809Y-51277809D01*
X141168157Y-51067765D01*
X141217440Y-50820000D01*
X141217440Y-48020000D01*
X141168157Y-47772235D01*
X141027809Y-47562191D01*
X140817765Y-47421843D01*
X140570000Y-47372560D01*
X137770000Y-47372560D01*
X137522235Y-47421843D01*
X137312191Y-47562191D01*
X137171843Y-47772235D01*
X137122560Y-48020000D01*
X137122560Y-48771517D01*
X137036418Y-48829076D01*
X136972071Y-48872071D01*
X136929671Y-48935527D01*
X135212208Y-50652991D01*
X135082150Y-45424615D01*
X136385000Y-45424615D01*
X136385000Y-46015385D01*
X136611078Y-46561185D01*
X137028815Y-46978922D01*
X137574615Y-47205000D01*
X138165385Y-47205000D01*
X138711185Y-46978922D01*
X139128922Y-46561185D01*
X139355000Y-46015385D01*
X139355000Y-45424615D01*
X139128922Y-44878815D01*
X138711185Y-44461078D01*
X138165385Y-44235000D01*
X137574615Y-44235000D01*
X137028815Y-44461078D01*
X136611078Y-44878815D01*
X136385000Y-45424615D01*
X135082150Y-45424615D01*
X135004272Y-42293948D01*
X143596510Y-42486312D01*
X143596510Y-42486312D01*
G37*
X143596510Y-42486312D02*
X144032758Y-42922560D01*
X141870000Y-42922560D01*
X141622235Y-42971843D01*
X141412191Y-43112191D01*
X141271843Y-43322235D01*
X141222560Y-43570000D01*
X141222560Y-46370000D01*
X141271843Y-46617765D01*
X141412191Y-46827809D01*
X141622235Y-46968157D01*
X141870000Y-47017440D01*
X144470000Y-47017440D01*
X144717765Y-46968157D01*
X144927809Y-46827809D01*
X145068157Y-46617765D01*
X145117440Y-46370000D01*
X145117440Y-44007242D01*
X147314670Y-46204472D01*
X147357071Y-46267929D01*
X147608463Y-46435904D01*
X147830148Y-46480000D01*
X147830152Y-46480000D01*
X147904999Y-46494888D01*
X147979846Y-46480000D01*
X149971570Y-46480000D01*
X149993466Y-46532862D01*
X150397138Y-46936534D01*
X150918001Y-47152283D01*
X150918000Y-52355570D01*
X150865138Y-52377466D01*
X150461466Y-52781138D01*
X150243000Y-53308561D01*
X150243000Y-53879439D01*
X150461466Y-54406862D01*
X150865138Y-54810534D01*
X151392561Y-55029000D01*
X151963439Y-55029000D01*
X152490862Y-54810534D01*
X152754155Y-54547241D01*
X152839673Y-54753699D01*
X153018302Y-54932327D01*
X153251691Y-55029000D01*
X153892250Y-55029000D01*
X154051000Y-54870250D01*
X154051000Y-53721000D01*
X154305000Y-53721000D01*
X154305000Y-54870250D01*
X154463750Y-55029000D01*
X155104309Y-55029000D01*
X155337698Y-54932327D01*
X155516327Y-54753699D01*
X155613000Y-54520310D01*
X155613000Y-53879750D01*
X155454250Y-53721000D01*
X154305000Y-53721000D01*
X154051000Y-53721000D01*
X154031000Y-53721000D01*
X154031000Y-53467000D01*
X154051000Y-53467000D01*
X154051000Y-52317750D01*
X154305000Y-52317750D01*
X154305000Y-53467000D01*
X155454250Y-53467000D01*
X155613000Y-53308250D01*
X155613000Y-52667690D01*
X155516327Y-52434301D01*
X155337698Y-52255673D01*
X155104309Y-52159000D01*
X154463750Y-52159000D01*
X154305000Y-52317750D01*
X154051000Y-52317750D01*
X153892250Y-52159000D01*
X153251691Y-52159000D01*
X153018302Y-52255673D01*
X152839673Y-52434301D01*
X152754155Y-52640759D01*
X152490862Y-52377466D01*
X152438000Y-52355570D01*
X152438000Y-47610000D01*
X158920560Y-47610000D01*
X158920560Y-50410000D01*
X158969843Y-50657765D01*
X159110191Y-50867809D01*
X159320235Y-51008157D01*
X159568000Y-51057440D01*
X162168000Y-51057440D01*
X162415765Y-51008157D01*
X162625809Y-50867809D01*
X162766157Y-50657765D01*
X162815440Y-50410000D01*
X162815440Y-47610000D01*
X162766157Y-47362235D01*
X162625809Y-47152191D01*
X162415765Y-47011843D01*
X162168000Y-46962560D01*
X159568000Y-46962560D01*
X159320235Y-47011843D01*
X159110191Y-47152191D01*
X158969843Y-47362235D01*
X158920560Y-47610000D01*
X152438000Y-47610000D01*
X152438000Y-46727745D01*
X155381861Y-46727745D01*
X155455995Y-46973864D01*
X155993223Y-47166965D01*
X156563454Y-47139778D01*
X156964005Y-46973864D01*
X157038139Y-46727745D01*
X156210000Y-45899605D01*
X155381861Y-46727745D01*
X152438000Y-46727745D01*
X152438000Y-46505181D01*
X152645000Y-46005439D01*
X152645000Y-45503223D01*
X154763035Y-45503223D01*
X154790222Y-46073454D01*
X154956136Y-46474005D01*
X155202255Y-46548139D01*
X156030395Y-45720000D01*
X156389605Y-45720000D01*
X157217745Y-46548139D01*
X157463864Y-46474005D01*
X157656965Y-45936777D01*
X157629778Y-45366546D01*
X157463864Y-44965995D01*
X157217745Y-44891861D01*
X156389605Y-45720000D01*
X156030395Y-45720000D01*
X155202255Y-44891861D01*
X154956136Y-44965995D01*
X154763035Y-45503223D01*
X152645000Y-45503223D01*
X152645000Y-45434561D01*
X152426534Y-44907138D01*
X152231651Y-44712255D01*
X155381861Y-44712255D01*
X156210000Y-45540395D01*
X157038139Y-44712255D01*
X156964005Y-44466136D01*
X156426777Y-44273035D01*
X155856546Y-44300222D01*
X155455995Y-44466136D01*
X155381861Y-44712255D01*
X152231651Y-44712255D01*
X152022862Y-44503466D01*
X151495439Y-44285000D01*
X150924561Y-44285000D01*
X150397138Y-44503466D01*
X149993466Y-44907138D01*
X149971570Y-44960000D01*
X148219802Y-44960000D01*
X145795341Y-42535539D01*
X162868740Y-42917780D01*
X162820560Y-43160000D01*
X162820560Y-45960000D01*
X162869843Y-46207765D01*
X163010191Y-46417809D01*
X163220235Y-46558157D01*
X163468000Y-46607440D01*
X164108000Y-46607440D01*
X164108001Y-51549148D01*
X164093112Y-51624000D01*
X164108001Y-51698852D01*
X164152097Y-51920537D01*
X164320072Y-52171929D01*
X164383528Y-52214329D01*
X168004896Y-55835698D01*
X167983000Y-55888561D01*
X167983000Y-56459439D01*
X168201466Y-56986862D01*
X168470503Y-57255899D01*
X168370235Y-57275843D01*
X168160191Y-57416191D01*
X168019843Y-57626235D01*
X167970560Y-57874000D01*
X167970560Y-59474000D01*
X168019843Y-59721765D01*
X168160191Y-59931809D01*
X168370235Y-60072157D01*
X168618000Y-60121440D01*
X168687001Y-60121440D01*
X168687001Y-60932199D01*
X164720688Y-56965887D01*
X164785113Y-56642000D01*
X164673740Y-56082091D01*
X164356577Y-55607423D01*
X163881909Y-55290260D01*
X163463333Y-55207000D01*
X163180667Y-55207000D01*
X162762091Y-55290260D01*
X162287423Y-55607423D01*
X161970260Y-56082091D01*
X161858887Y-56642000D01*
X161970260Y-57201909D01*
X162287423Y-57676577D01*
X162762091Y-57993740D01*
X163180667Y-58077000D01*
X163463333Y-58077000D01*
X163645887Y-58040688D01*
X167562001Y-61956803D01*
X167562000Y-63785570D01*
X167509138Y-63807466D01*
X167105466Y-64211138D01*
X166887000Y-64738561D01*
X166887000Y-65309439D01*
X166911789Y-65369284D01*
X166806097Y-65527462D01*
X166762001Y-65749147D01*
X166762001Y-65749152D01*
X166747113Y-65823999D01*
X166747294Y-65824907D01*
X164673167Y-67899033D01*
X164618534Y-67767138D01*
X164214862Y-67363466D01*
X163687439Y-67145000D01*
X163116561Y-67145000D01*
X162589138Y-67363466D01*
X162185466Y-67767138D01*
X161967000Y-68294561D01*
X161967000Y-68865439D01*
X162185466Y-69392862D01*
X162589138Y-69796534D01*
X162721034Y-69851167D01*
X161475284Y-71096917D01*
X161308577Y-70847423D01*
X160956242Y-70612000D01*
X161308577Y-70376577D01*
X161625740Y-69901909D01*
X161737113Y-69342000D01*
X161625740Y-68782091D01*
X161308577Y-68307423D01*
X161034000Y-68123957D01*
X161034000Y-66750043D01*
X161308577Y-66566577D01*
X161492043Y-66292000D01*
X162633388Y-66292000D01*
X163036561Y-66459000D01*
X163607439Y-66459000D01*
X164134862Y-66240534D01*
X164538534Y-65836862D01*
X164757000Y-65309439D01*
X164757000Y-64738561D01*
X164538534Y-64211138D01*
X164134862Y-63807466D01*
X163607439Y-63589000D01*
X163036561Y-63589000D01*
X162509138Y-63807466D01*
X162105466Y-64211138D01*
X161887000Y-64738561D01*
X161887000Y-64772000D01*
X161492043Y-64772000D01*
X161308577Y-64497423D01*
X160833909Y-64180260D01*
X160415333Y-64097000D01*
X160132667Y-64097000D01*
X159714091Y-64180260D01*
X159239423Y-64497423D01*
X158922260Y-64972091D01*
X158810887Y-65532000D01*
X158922260Y-66091909D01*
X159239423Y-66566577D01*
X159514000Y-66750044D01*
X159514001Y-68123956D01*
X159239423Y-68307423D01*
X158922260Y-68782091D01*
X158810887Y-69342000D01*
X158922260Y-69901909D01*
X159239423Y-70376577D01*
X159591758Y-70612000D01*
X159239423Y-70847423D01*
X158922260Y-71322091D01*
X158810887Y-71882000D01*
X158922260Y-72441909D01*
X159239423Y-72916577D01*
X159591758Y-73152000D01*
X159239423Y-73387423D01*
X158922260Y-73862091D01*
X158810887Y-74422000D01*
X158922260Y-74981909D01*
X159239423Y-75456577D01*
X159591758Y-75692000D01*
X159239423Y-75927423D01*
X158922260Y-76402091D01*
X158810887Y-76962000D01*
X158922260Y-77521909D01*
X159239423Y-77996577D01*
X159591758Y-78232000D01*
X159239423Y-78467423D01*
X158922260Y-78942091D01*
X158810887Y-79502000D01*
X158922260Y-80061909D01*
X159239423Y-80536577D01*
X159591758Y-80772000D01*
X159239423Y-81007423D01*
X158922260Y-81482091D01*
X158810887Y-82042000D01*
X158922260Y-82601909D01*
X159239423Y-83076577D01*
X159591758Y-83312000D01*
X159239423Y-83547423D01*
X159055957Y-83822000D01*
X158650846Y-83822000D01*
X158575999Y-83807112D01*
X158501152Y-83822000D01*
X158501148Y-83822000D01*
X158279463Y-83866096D01*
X158028071Y-84034071D01*
X157985671Y-84097527D01*
X152564302Y-89518897D01*
X152511439Y-89497000D01*
X151940561Y-89497000D01*
X151413138Y-89715466D01*
X151009466Y-90119138D01*
X150791000Y-90646561D01*
X150791000Y-91217439D01*
X151009466Y-91744862D01*
X151413138Y-92148534D01*
X151940561Y-92367000D01*
X152511439Y-92367000D01*
X153038862Y-92148534D01*
X153442534Y-91744862D01*
X153661000Y-91217439D01*
X153661000Y-90646561D01*
X153639103Y-90593698D01*
X158890802Y-85342000D01*
X159055957Y-85342000D01*
X159239423Y-85616577D01*
X159591758Y-85852000D01*
X159239423Y-86087423D01*
X158922260Y-86562091D01*
X158810887Y-87122000D01*
X158875312Y-87445886D01*
X156741918Y-89579281D01*
X156413138Y-89715466D01*
X156009466Y-90119138D01*
X155791000Y-90646561D01*
X155791000Y-91217439D01*
X156009466Y-91744862D01*
X156413138Y-92148534D01*
X156940561Y-92367000D01*
X157511439Y-92367000D01*
X158038862Y-92148534D01*
X158442534Y-91744862D01*
X158536000Y-91519215D01*
X158629466Y-91744862D01*
X159033138Y-92148534D01*
X159560561Y-92367000D01*
X160131439Y-92367000D01*
X160658862Y-92148534D01*
X161062534Y-91744862D01*
X161281000Y-91217439D01*
X161281000Y-90646561D01*
X163411000Y-90646561D01*
X163411000Y-91217439D01*
X163629466Y-91744862D01*
X164033138Y-92148534D01*
X164560561Y-92367000D01*
X165131439Y-92367000D01*
X165658862Y-92148534D01*
X166062534Y-91744862D01*
X166281000Y-91217439D01*
X166281000Y-90646561D01*
X166062534Y-90119138D01*
X165658862Y-89715466D01*
X165131439Y-89497000D01*
X164560561Y-89497000D01*
X164033138Y-89715466D01*
X163629466Y-90119138D01*
X163411000Y-90646561D01*
X161281000Y-90646561D01*
X161259103Y-90593698D01*
X161883474Y-89969328D01*
X161946930Y-89926928D01*
X162114905Y-89675536D01*
X162159001Y-89453851D01*
X162159001Y-89453847D01*
X162173889Y-89378999D01*
X162159001Y-89304151D01*
X162159001Y-86948380D01*
X162287423Y-87140577D01*
X162762091Y-87457740D01*
X163180667Y-87541000D01*
X163463333Y-87541000D01*
X163881909Y-87457740D01*
X164356577Y-87140577D01*
X164673740Y-86665909D01*
X164785113Y-86106000D01*
X164720688Y-85782113D01*
X164931471Y-85571330D01*
X164994930Y-85528928D01*
X165162905Y-85277536D01*
X165207001Y-85055851D01*
X165207001Y-85055847D01*
X165221889Y-84981000D01*
X165207001Y-84906153D01*
X165207001Y-80113849D01*
X165221889Y-80039001D01*
X165207001Y-79964153D01*
X165207001Y-79964149D01*
X165162905Y-79742464D01*
X164994930Y-79491072D01*
X164931474Y-79448672D01*
X164815104Y-79332302D01*
X164837000Y-79279439D01*
X164837000Y-78708561D01*
X164618534Y-78181138D01*
X164214862Y-77777466D01*
X163687439Y-77559000D01*
X163116561Y-77559000D01*
X162589138Y-77777466D01*
X162376703Y-77989901D01*
X161672688Y-77285886D01*
X161737113Y-76962000D01*
X161625740Y-76402091D01*
X161489371Y-76198000D01*
X162103957Y-76198000D01*
X162287423Y-76472577D01*
X162762091Y-76789740D01*
X163180667Y-76873000D01*
X163463333Y-76873000D01*
X163881909Y-76789740D01*
X164356577Y-76472577D01*
X164536501Y-76203302D01*
X166988896Y-78655699D01*
X166967000Y-78708561D01*
X166967000Y-79279439D01*
X167185466Y-79806862D01*
X167589138Y-80210534D01*
X168116561Y-80429000D01*
X168687439Y-80429000D01*
X169214862Y-80210534D01*
X169618534Y-79806862D01*
X169637136Y-79761953D01*
X169672000Y-79768888D01*
X169746847Y-79754000D01*
X169746852Y-79754000D01*
X169968537Y-79709904D01*
X170219929Y-79541929D01*
X170262331Y-79478470D01*
X170420610Y-79320191D01*
X170426483Y-79450716D01*
X168740302Y-81136897D01*
X168687439Y-81115000D01*
X168116561Y-81115000D01*
X167589138Y-81333466D01*
X167185466Y-81737138D01*
X166967000Y-82264561D01*
X166967000Y-82835439D01*
X167185466Y-83362862D01*
X167589138Y-83766534D01*
X167642001Y-83788430D01*
X167642000Y-84867570D01*
X167589138Y-84889466D01*
X167185466Y-85293138D01*
X166967000Y-85820561D01*
X166967000Y-86391439D01*
X167185466Y-86918862D01*
X167589138Y-87322534D01*
X168116561Y-87541000D01*
X168687439Y-87541000D01*
X169214862Y-87322534D01*
X169618534Y-86918862D01*
X169837000Y-86391439D01*
X169837000Y-85820561D01*
X169618534Y-85293138D01*
X169214862Y-84889466D01*
X169162000Y-84867570D01*
X169162000Y-83788430D01*
X169214862Y-83766534D01*
X169618534Y-83362862D01*
X169837000Y-82835439D01*
X169837000Y-82264561D01*
X169815103Y-82211698D01*
X170519050Y-81507751D01*
X171063069Y-93597060D01*
X136267925Y-93092782D01*
X136226029Y-91408561D01*
X144107000Y-91408561D01*
X144107000Y-91979439D01*
X144325466Y-92506862D01*
X144729138Y-92910534D01*
X145256561Y-93129000D01*
X145827439Y-93129000D01*
X146354862Y-92910534D01*
X146758534Y-92506862D01*
X146977000Y-91979439D01*
X146977000Y-91408561D01*
X147663000Y-91408561D01*
X147663000Y-91979439D01*
X147881466Y-92506862D01*
X148285138Y-92910534D01*
X148812561Y-93129000D01*
X149383439Y-93129000D01*
X149910862Y-92910534D01*
X150314534Y-92506862D01*
X150533000Y-91979439D01*
X150533000Y-91408561D01*
X150314534Y-90881138D01*
X149910862Y-90477466D01*
X149383439Y-90259000D01*
X148812561Y-90259000D01*
X148285138Y-90477466D01*
X147881466Y-90881138D01*
X147663000Y-91408561D01*
X146977000Y-91408561D01*
X146758534Y-90881138D01*
X146354862Y-90477466D01*
X145827439Y-90259000D01*
X145256561Y-90259000D01*
X144729138Y-90477466D01*
X144325466Y-90881138D01*
X144107000Y-91408561D01*
X136226029Y-91408561D01*
X135838016Y-75810460D01*
X135938690Y-76053507D01*
X136370493Y-76485310D01*
X136934670Y-76719000D01*
X137545330Y-76719000D01*
X138109507Y-76485310D01*
X138490000Y-76104817D01*
X138870493Y-76485310D01*
X139434670Y-76719000D01*
X140045330Y-76719000D01*
X140154838Y-76673640D01*
X140155526Y-76674328D01*
X140155529Y-76674330D01*
X141121002Y-77639804D01*
X141121002Y-79369956D01*
X141041439Y-79337000D01*
X140470561Y-79337000D01*
X139943138Y-79555466D01*
X139539466Y-79959138D01*
X139321000Y-80486561D01*
X139321000Y-81057439D01*
X139539466Y-81584862D01*
X139943138Y-81988534D01*
X140470561Y-82207000D01*
X141041439Y-82207000D01*
X141310186Y-82095681D01*
X141333072Y-82129932D01*
X141396531Y-82172334D01*
X143528669Y-84304473D01*
X143571069Y-84367929D01*
X143634525Y-84410329D01*
X143822460Y-84535904D01*
X143870603Y-84545480D01*
X144044146Y-84580000D01*
X144044150Y-84580000D01*
X144118998Y-84594888D01*
X144193846Y-84580000D01*
X146581198Y-84580000D01*
X145880302Y-85280897D01*
X145827439Y-85259000D01*
X145256561Y-85259000D01*
X144729138Y-85477466D01*
X144325466Y-85881138D01*
X144107000Y-86408561D01*
X144107000Y-86979439D01*
X144325466Y-87506862D01*
X144729138Y-87910534D01*
X145256561Y-88129000D01*
X145827439Y-88129000D01*
X146354862Y-87910534D01*
X146758534Y-87506862D01*
X146977000Y-86979439D01*
X146977000Y-86408561D01*
X146955103Y-86355698D01*
X147605801Y-85705001D01*
X148057603Y-85705001D01*
X147881466Y-85881138D01*
X147663000Y-86408561D01*
X147663000Y-86979439D01*
X147881466Y-87506862D01*
X148285138Y-87910534D01*
X148812561Y-88129000D01*
X149383439Y-88129000D01*
X149910862Y-87910534D01*
X150314534Y-87506862D01*
X150336430Y-87454000D01*
X151256926Y-87454000D01*
X151302260Y-87681909D01*
X151619423Y-88156577D01*
X152094091Y-88473740D01*
X152512667Y-88557000D01*
X152795333Y-88557000D01*
X153213909Y-88473740D01*
X153688577Y-88156577D01*
X154005740Y-87681909D01*
X154117113Y-87122000D01*
X154005740Y-86562091D01*
X153688577Y-86087423D01*
X153336242Y-85852000D01*
X153688577Y-85616577D01*
X154005740Y-85141909D01*
X154117113Y-84582000D01*
X154005740Y-84022091D01*
X153688577Y-83547423D01*
X153336242Y-83312000D01*
X153688577Y-83076577D01*
X154005740Y-82601909D01*
X154117113Y-82042000D01*
X154005740Y-81482091D01*
X153688577Y-81007423D01*
X153336242Y-80772000D01*
X153688577Y-80536577D01*
X154005740Y-80061909D01*
X154117113Y-79502000D01*
X154005740Y-78942091D01*
X153688577Y-78467423D01*
X153336242Y-78232000D01*
X153688577Y-77996577D01*
X154005740Y-77521909D01*
X154117113Y-76962000D01*
X154005740Y-76402091D01*
X153688577Y-75927423D01*
X153336242Y-75692000D01*
X153688577Y-75456577D01*
X154005740Y-74981909D01*
X154117113Y-74422000D01*
X154005740Y-73862091D01*
X153688577Y-73387423D01*
X153336242Y-73152000D01*
X153688577Y-72916577D01*
X154005740Y-72441909D01*
X154117113Y-71882000D01*
X154005740Y-71322091D01*
X153688577Y-70847423D01*
X153582082Y-70776265D01*
X153813698Y-70680327D01*
X153992327Y-70501699D01*
X154089000Y-70268310D01*
X154089000Y-69627750D01*
X153930250Y-69469000D01*
X152781000Y-69469000D01*
X152781000Y-69489000D01*
X152527000Y-69489000D01*
X152527000Y-69469000D01*
X151377750Y-69469000D01*
X151219000Y-69627750D01*
X151219000Y-70268310D01*
X151315673Y-70501699D01*
X151494302Y-70680327D01*
X151725918Y-70776265D01*
X151619423Y-70847423D01*
X151302260Y-71322091D01*
X151190887Y-71882000D01*
X151255312Y-72205886D01*
X144123260Y-79337939D01*
X144056000Y-79324560D01*
X142641001Y-79324560D01*
X142641001Y-77399848D01*
X142655889Y-77325001D01*
X142641001Y-77250154D01*
X142641001Y-77250149D01*
X142596905Y-77028464D01*
X142428930Y-76777072D01*
X142365474Y-76734672D01*
X142349802Y-76719000D01*
X142545330Y-76719000D01*
X143109507Y-76485310D01*
X143541310Y-76053507D01*
X143775000Y-75489330D01*
X143775000Y-74878670D01*
X143541310Y-74314493D01*
X143109507Y-73882690D01*
X142545330Y-73649000D01*
X141934670Y-73649000D01*
X141370493Y-73882690D01*
X140990000Y-74263183D01*
X140609507Y-73882690D01*
X140045330Y-73649000D01*
X139434670Y-73649000D01*
X138870493Y-73882690D01*
X138490000Y-74263183D01*
X138109507Y-73882690D01*
X137545330Y-73649000D01*
X136934670Y-73649000D01*
X136370493Y-73882690D01*
X135938690Y-74314493D01*
X135808615Y-74628522D01*
X135713851Y-70819000D01*
X135864134Y-70819000D01*
X136832608Y-70417845D01*
X137573845Y-69676608D01*
X137975000Y-68708134D01*
X137975000Y-67659866D01*
X141505000Y-67659866D01*
X141505000Y-68708134D01*
X141906155Y-69676608D01*
X142647392Y-70417845D01*
X143615866Y-70819000D01*
X144664134Y-70819000D01*
X145632608Y-70417845D01*
X146373845Y-69676608D01*
X146775000Y-68708134D01*
X146775000Y-68415690D01*
X151219000Y-68415690D01*
X151219000Y-69056250D01*
X151377750Y-69215000D01*
X152527000Y-69215000D01*
X152527000Y-68065750D01*
X152781000Y-68065750D01*
X152781000Y-69215000D01*
X153930250Y-69215000D01*
X154089000Y-69056250D01*
X154089000Y-68415690D01*
X153992327Y-68182301D01*
X153813698Y-68003673D01*
X153580309Y-67907000D01*
X152939750Y-67907000D01*
X152781000Y-68065750D01*
X152527000Y-68065750D01*
X152368250Y-67907000D01*
X151727691Y-67907000D01*
X151494302Y-68003673D01*
X151315673Y-68182301D01*
X151219000Y-68415690D01*
X146775000Y-68415690D01*
X146775000Y-67659866D01*
X146373845Y-66691392D01*
X146222198Y-66539745D01*
X151825861Y-66539745D01*
X151899995Y-66785864D01*
X152437223Y-66978965D01*
X153007454Y-66951778D01*
X153408005Y-66785864D01*
X153482139Y-66539745D01*
X152654000Y-65711605D01*
X151825861Y-66539745D01*
X146222198Y-66539745D01*
X145632608Y-65950155D01*
X144664134Y-65549000D01*
X143615866Y-65549000D01*
X142647392Y-65950155D01*
X141906155Y-66691392D01*
X141505000Y-67659866D01*
X137975000Y-67659866D01*
X137573845Y-66691392D01*
X136832608Y-65950155D01*
X135864134Y-65549000D01*
X135582756Y-65549000D01*
X135576941Y-65315223D01*
X151207035Y-65315223D01*
X151234222Y-65885454D01*
X151400136Y-66286005D01*
X151646255Y-66360139D01*
X152474395Y-65532000D01*
X152833605Y-65532000D01*
X153661745Y-66360139D01*
X153907864Y-66286005D01*
X154100965Y-65748777D01*
X154073778Y-65178546D01*
X153996741Y-64992561D01*
X155029000Y-64992561D01*
X155029000Y-65563439D01*
X155247466Y-66090862D01*
X155651138Y-66494534D01*
X156178561Y-66713000D01*
X156749439Y-66713000D01*
X157276862Y-66494534D01*
X157680534Y-66090862D01*
X157899000Y-65563439D01*
X157899000Y-64992561D01*
X157680534Y-64465138D01*
X157276862Y-64061466D01*
X156749439Y-63843000D01*
X156178561Y-63843000D01*
X155651138Y-64061466D01*
X155247466Y-64465138D01*
X155029000Y-64992561D01*
X153996741Y-64992561D01*
X153907864Y-64777995D01*
X153661745Y-64703861D01*
X152833605Y-65532000D01*
X152474395Y-65532000D01*
X151646255Y-64703861D01*
X151400136Y-64777995D01*
X151207035Y-65315223D01*
X135576941Y-65315223D01*
X135557266Y-64524255D01*
X151825861Y-64524255D01*
X152654000Y-65352395D01*
X153482139Y-64524255D01*
X153408005Y-64278136D01*
X152870777Y-64085035D01*
X152300546Y-64112222D01*
X151899995Y-64278136D01*
X151825861Y-64524255D01*
X135557266Y-64524255D01*
X135415917Y-58842089D01*
X136494301Y-59920473D01*
X136536701Y-59983929D01*
X136600157Y-60026329D01*
X136788092Y-60151904D01*
X136805980Y-60155462D01*
X137009778Y-60196000D01*
X137009782Y-60196000D01*
X137084630Y-60210888D01*
X137159478Y-60196000D01*
X142545957Y-60196000D01*
X142729423Y-60470577D01*
X143204091Y-60787740D01*
X143622667Y-60871000D01*
X143905333Y-60871000D01*
X144323909Y-60787740D01*
X144798577Y-60470577D01*
X145115740Y-59995909D01*
X145227113Y-59436000D01*
X145170336Y-59150561D01*
X147409000Y-59150561D01*
X147409000Y-59721439D01*
X147627466Y-60248862D01*
X148031138Y-60652534D01*
X148558561Y-60871000D01*
X149129439Y-60871000D01*
X149656862Y-60652534D01*
X150060534Y-60248862D01*
X150061487Y-60246561D01*
X151219000Y-60246561D01*
X151219000Y-60817439D01*
X151437466Y-61344862D01*
X151841138Y-61748534D01*
X152368561Y-61967000D01*
X152939439Y-61967000D01*
X153466862Y-61748534D01*
X153870534Y-61344862D01*
X154089000Y-60817439D01*
X154089000Y-60246561D01*
X153870534Y-59719138D01*
X153466862Y-59315466D01*
X152939439Y-59097000D01*
X152368561Y-59097000D01*
X151841138Y-59315466D01*
X151437466Y-59719138D01*
X151219000Y-60246561D01*
X150061487Y-60246561D01*
X150279000Y-59721439D01*
X150279000Y-59150561D01*
X150060534Y-58623138D01*
X149656862Y-58219466D01*
X149129439Y-58001000D01*
X148558561Y-58001000D01*
X148031138Y-58219466D01*
X147627466Y-58623138D01*
X147409000Y-59150561D01*
X145170336Y-59150561D01*
X145115740Y-58876091D01*
X144798577Y-58401423D01*
X144323909Y-58084260D01*
X143905333Y-58001000D01*
X143622667Y-58001000D01*
X143204091Y-58084260D01*
X142729423Y-58401423D01*
X142545957Y-58676000D01*
X137399432Y-58676000D01*
X136662414Y-57938982D01*
X136757899Y-57843497D01*
X136777843Y-57943765D01*
X136918191Y-58153809D01*
X137128235Y-58294157D01*
X137376000Y-58343440D01*
X138976000Y-58343440D01*
X139223765Y-58294157D01*
X139433809Y-58153809D01*
X139574157Y-57943765D01*
X139623440Y-57696000D01*
X139623440Y-57656000D01*
X140641153Y-57656000D01*
X140716000Y-57670888D01*
X140790847Y-57656000D01*
X140790852Y-57656000D01*
X141012537Y-57611904D01*
X141263929Y-57443929D01*
X141306331Y-57380470D01*
X141901698Y-56785104D01*
X141954561Y-56807000D01*
X142525439Y-56807000D01*
X143052862Y-56588534D01*
X143456534Y-56184862D01*
X143675000Y-55657439D01*
X143675000Y-55372000D01*
X145856887Y-55372000D01*
X145968260Y-55931909D01*
X146285423Y-56406577D01*
X146760091Y-56723740D01*
X147178667Y-56807000D01*
X147461333Y-56807000D01*
X147647084Y-56770052D01*
X147760901Y-56846101D01*
X147823462Y-56887903D01*
X148045147Y-56931999D01*
X148045151Y-56931999D01*
X148119998Y-56946887D01*
X148194845Y-56931999D01*
X152043198Y-56931999D01*
X155050896Y-59939698D01*
X155029000Y-59992561D01*
X155029000Y-60563439D01*
X155247466Y-61090862D01*
X155651138Y-61494534D01*
X156178561Y-61713000D01*
X156749439Y-61713000D01*
X157276862Y-61494534D01*
X157680534Y-61090862D01*
X157899000Y-60563439D01*
X157899000Y-59992561D01*
X157877103Y-59939698D01*
X158282000Y-59534802D01*
X158860897Y-60113698D01*
X158839000Y-60166561D01*
X158839000Y-60737439D01*
X159057466Y-61264862D01*
X159461138Y-61668534D01*
X159988561Y-61887000D01*
X160559439Y-61887000D01*
X161086862Y-61668534D01*
X161490534Y-61264862D01*
X161709000Y-60737439D01*
X161709000Y-60166561D01*
X161490534Y-59639138D01*
X161086862Y-59235466D01*
X160559439Y-59017000D01*
X159988561Y-59017000D01*
X159935698Y-59038897D01*
X159002000Y-58105199D01*
X159002000Y-57880430D01*
X159054862Y-57858534D01*
X159458534Y-57454862D01*
X159677000Y-56927439D01*
X159677000Y-56356561D01*
X159458534Y-55829138D01*
X159054862Y-55425466D01*
X158527439Y-55207000D01*
X157956561Y-55207000D01*
X157429138Y-55425466D01*
X157025466Y-55829138D01*
X156807000Y-56356561D01*
X156807000Y-56927439D01*
X157025466Y-57454862D01*
X157429138Y-57858534D01*
X157482000Y-57880430D01*
X157482000Y-58185198D01*
X156802302Y-58864897D01*
X156749439Y-58843000D01*
X156178561Y-58843000D01*
X156125698Y-58864896D01*
X152948330Y-55687529D01*
X152905928Y-55624070D01*
X152654536Y-55456095D01*
X152432851Y-55411999D01*
X152432846Y-55411999D01*
X152357999Y-55397111D01*
X152283152Y-55411999D01*
X148775157Y-55411999D01*
X148783113Y-55372000D01*
X148671740Y-54812091D01*
X148354577Y-54337423D01*
X147879909Y-54020260D01*
X147461333Y-53937000D01*
X147178667Y-53937000D01*
X146760091Y-54020260D01*
X146285423Y-54337423D01*
X145968260Y-54812091D01*
X145856887Y-55372000D01*
X143675000Y-55372000D01*
X143675000Y-55086561D01*
X143456534Y-54559138D01*
X143052862Y-54155466D01*
X142525439Y-53937000D01*
X141954561Y-53937000D01*
X141427138Y-54155466D01*
X141023466Y-54559138D01*
X140805000Y-55086561D01*
X140805000Y-55657439D01*
X140826896Y-55710302D01*
X140401199Y-56136000D01*
X139623440Y-56136000D01*
X139623440Y-56096000D01*
X139574157Y-55848235D01*
X139433809Y-55638191D01*
X139223765Y-55497843D01*
X138976000Y-55448560D01*
X137376000Y-55448560D01*
X137128235Y-55497843D01*
X136918191Y-55638191D01*
X136777843Y-55848235D01*
X136757899Y-55948503D01*
X136488862Y-55679466D01*
X136436000Y-55657570D01*
X136436000Y-51578801D01*
X137134546Y-50880256D01*
X137171843Y-51067765D01*
X137312191Y-51277809D01*
X137522235Y-51418157D01*
X137770000Y-51467440D01*
X140570000Y-51467440D01*
X140817765Y-51418157D01*
X141027809Y-51277809D01*
X141168157Y-51067765D01*
X141217440Y-50820000D01*
X141217440Y-48020000D01*
X141168157Y-47772235D01*
X141027809Y-47562191D01*
X140817765Y-47421843D01*
X140570000Y-47372560D01*
X137770000Y-47372560D01*
X137522235Y-47421843D01*
X137312191Y-47562191D01*
X137171843Y-47772235D01*
X137122560Y-48020000D01*
X137122560Y-48771517D01*
X137036418Y-48829076D01*
X136972071Y-48872071D01*
X136929671Y-48935527D01*
X135212208Y-50652991D01*
X135082150Y-45424615D01*
X136385000Y-45424615D01*
X136385000Y-46015385D01*
X136611078Y-46561185D01*
X137028815Y-46978922D01*
X137574615Y-47205000D01*
X138165385Y-47205000D01*
X138711185Y-46978922D01*
X139128922Y-46561185D01*
X139355000Y-46015385D01*
X139355000Y-45424615D01*
X139128922Y-44878815D01*
X138711185Y-44461078D01*
X138165385Y-44235000D01*
X137574615Y-44235000D01*
X137028815Y-44461078D01*
X136611078Y-44878815D01*
X136385000Y-45424615D01*
X135082150Y-45424615D01*
X135004272Y-42293948D01*
X143596510Y-42486312D01*
G04 #@! TD*
M02*
