M48
INCH,TZ
T1C0.0295
T2C0.0315
T3C0.0394
T4C0.0433
%
G90
G05
T1
X54100Y-13525
X54100Y-14313
X54100Y-15100
T2
X62300Y-22300
X64300Y-22300
X53416Y-22400
X54400Y-22400
X64300Y-25600
X66269Y-25600
X64331Y-28400
X66300Y-28400
X63100Y-23800
X63100Y-25800
X66700Y-22116
X66700Y-23100
X59716Y-21100
X60700Y-21100
X58700Y-34131
X58700Y-36100
X59531Y-18000
X61500Y-18000
X58600Y-31000
X58600Y-33000
X60100Y-27300
X60100Y-28300
X60100Y-29300
X60100Y-30300
X60100Y-31300
X60100Y-32300
X60100Y-33300
X60100Y-34300
X63100Y-27300
X63100Y-28300
X63100Y-29300
X63100Y-30300
X63100Y-31300
X63100Y-32300
X63100Y-33300
X63100Y-34300
X59931Y-35800
X61900Y-35800
X64300Y-33900
X66300Y-33900
X55416Y-31800
X56400Y-31800
X64331Y-27000
X66300Y-27000
X62931Y-35800
X64900Y-35800
X64300Y-32500
X66300Y-32500
X56000Y-21800
X58000Y-21800
X66000Y-14700
X66000Y-15684
X64331Y-31100
X66300Y-31100
X57300Y-34131
X57300Y-36100
X56600Y-23400
X58600Y-23400
X67700Y-28200
X67700Y-30200
X60100Y-23831
X60100Y-25800
X61600Y-23731
X61600Y-25700
X64300Y-29700
X66300Y-29700
T3
X54031Y-29600
X55016Y-29600
X56000Y-29600
T4
X56600Y-13300
X56600Y-14300
X56600Y-15300
T0
M30
