G04 #@! TF.GenerationSoftware,KiCad,Pcbnew,(5.0.1)-rc2*
G04 #@! TF.CreationDate,2019-01-13T20:35:23-05:00*
G04 #@! TF.ProjectId,cem3340-module,63656D333334302D6D6F64756C652E6B,rev?*
G04 #@! TF.SameCoordinates,Original*
G04 #@! TF.FileFunction,Copper,L1,Top,Signal*
G04 #@! TF.FilePolarity,Positive*
%FSLAX46Y46*%
G04 Gerber Fmt 4.6, Leading zero omitted, Abs format (unit mm)*
G04 Created by KiCad (PCBNEW (5.0.1)-rc2) date 1/13/2019 8:35:23 PM*
%MOMM*%
%LPD*%
G01*
G04 APERTURE LIST*
G04 #@! TA.AperFunction,ComponentPad*
%ADD10R,1.700000X1.700000*%
G04 #@! TD*
G04 #@! TA.AperFunction,ComponentPad*
%ADD11O,1.700000X1.700000*%
G04 #@! TD*
G04 #@! TA.AperFunction,Conductor*
%ADD12C,0.100000*%
G04 #@! TD*
G04 #@! TA.AperFunction,ComponentPad*
%ADD13C,1.200000*%
G04 #@! TD*
G04 #@! TA.AperFunction,ComponentPad*
%ADD14O,1.200000X1.750000*%
G04 #@! TD*
G04 #@! TA.AperFunction,ComponentPad*
%ADD15O,1.600000X1.600000*%
G04 #@! TD*
G04 #@! TA.AperFunction,ComponentPad*
%ADD16C,1.600000*%
G04 #@! TD*
G04 #@! TA.AperFunction,ComponentPad*
%ADD17C,1.440000*%
G04 #@! TD*
G04 #@! TA.AperFunction,ComponentPad*
%ADD18R,3.200000X3.200000*%
G04 #@! TD*
G04 #@! TA.AperFunction,ComponentPad*
%ADD19O,3.200000X3.200000*%
G04 #@! TD*
G04 #@! TA.AperFunction,ComponentPad*
%ADD20O,1.905000X2.000000*%
G04 #@! TD*
G04 #@! TA.AperFunction,ComponentPad*
%ADD21R,1.905000X2.000000*%
G04 #@! TD*
G04 #@! TA.AperFunction,ComponentPad*
%ADD22R,1.600000X1.600000*%
G04 #@! TD*
G04 #@! TA.AperFunction,ComponentPad*
%ADD23O,1.750000X1.200000*%
G04 #@! TD*
G04 #@! TA.AperFunction,WasherPad*
%ADD24C,4.000000*%
G04 #@! TD*
G04 #@! TA.AperFunction,ComponentPad*
%ADD25C,1.800000*%
G04 #@! TD*
G04 #@! TA.AperFunction,Conductor*
%ADD26C,0.203000*%
G04 #@! TD*
G04 #@! TA.AperFunction,Conductor*
%ADD27C,0.203200*%
G04 #@! TD*
G04 #@! TA.AperFunction,Conductor*
%ADD28C,0.381000*%
G04 #@! TD*
G04 #@! TA.AperFunction,Conductor*
%ADD29C,0.508000*%
G04 #@! TD*
G04 #@! TA.AperFunction,Conductor*
%ADD30C,0.254000*%
G04 #@! TD*
G04 APERTURE END LIST*
D10*
G04 #@! TO.P,J11,1*
G04 #@! TO.N,Saw*
X158305500Y-123380500D03*
D11*
G04 #@! TO.P,J11,2*
G04 #@! TO.N,GND*
X158305500Y-125920500D03*
G04 #@! TD*
G04 #@! TO.P,J12,2*
G04 #@! TO.N,GND*
X159639000Y-84582000D03*
D10*
G04 #@! TO.P,J12,1*
G04 #@! TO.N,Tri*
X159639000Y-82042000D03*
G04 #@! TD*
G04 #@! TO.P,J13,1*
G04 #@! TO.N,Sqr*
X158496000Y-115316000D03*
D11*
G04 #@! TO.P,J13,2*
G04 #@! TO.N,GND*
X158496000Y-117856000D03*
G04 #@! TD*
D10*
G04 #@! TO.P,J10,1*
G04 #@! TO.N,Sqr*
X162052000Y-109855000D03*
D11*
G04 #@! TO.P,J10,2*
G04 #@! TO.N,Saw*
X162052000Y-107315000D03*
G04 #@! TO.P,J10,3*
G04 #@! TO.N,Tri*
X162052000Y-104775000D03*
G04 #@! TO.P,J10,4*
G04 #@! TO.N,1V-Oct*
X162052000Y-102235000D03*
G04 #@! TO.P,J10,5*
G04 #@! TO.N,GND*
X162052000Y-99695000D03*
G04 #@! TO.P,J10,6*
X162052000Y-97155000D03*
G04 #@! TO.P,J10,7*
X162052000Y-94615000D03*
G04 #@! TO.P,J10,8*
X162052000Y-92075000D03*
G04 #@! TD*
D12*
G04 #@! TO.N,+12V*
G04 #@! TO.C,J9*
G36*
X72891505Y-127904204D02*
X72915773Y-127907804D01*
X72939572Y-127913765D01*
X72962671Y-127922030D01*
X72984850Y-127932520D01*
X73005893Y-127945132D01*
X73025599Y-127959747D01*
X73043777Y-127976223D01*
X73060253Y-127994401D01*
X73074868Y-128014107D01*
X73087480Y-128035150D01*
X73097970Y-128057329D01*
X73106235Y-128080428D01*
X73112196Y-128104227D01*
X73115796Y-128128495D01*
X73117000Y-128152999D01*
X73117000Y-129403001D01*
X73115796Y-129427505D01*
X73112196Y-129451773D01*
X73106235Y-129475572D01*
X73097970Y-129498671D01*
X73087480Y-129520850D01*
X73074868Y-129541893D01*
X73060253Y-129561599D01*
X73043777Y-129579777D01*
X73025599Y-129596253D01*
X73005893Y-129610868D01*
X72984850Y-129623480D01*
X72962671Y-129633970D01*
X72939572Y-129642235D01*
X72915773Y-129648196D01*
X72891505Y-129651796D01*
X72867001Y-129653000D01*
X72166999Y-129653000D01*
X72142495Y-129651796D01*
X72118227Y-129648196D01*
X72094428Y-129642235D01*
X72071329Y-129633970D01*
X72049150Y-129623480D01*
X72028107Y-129610868D01*
X72008401Y-129596253D01*
X71990223Y-129579777D01*
X71973747Y-129561599D01*
X71959132Y-129541893D01*
X71946520Y-129520850D01*
X71936030Y-129498671D01*
X71927765Y-129475572D01*
X71921804Y-129451773D01*
X71918204Y-129427505D01*
X71917000Y-129403001D01*
X71917000Y-128152999D01*
X71918204Y-128128495D01*
X71921804Y-128104227D01*
X71927765Y-128080428D01*
X71936030Y-128057329D01*
X71946520Y-128035150D01*
X71959132Y-128014107D01*
X71973747Y-127994401D01*
X71990223Y-127976223D01*
X72008401Y-127959747D01*
X72028107Y-127945132D01*
X72049150Y-127932520D01*
X72071329Y-127922030D01*
X72094428Y-127913765D01*
X72118227Y-127907804D01*
X72142495Y-127904204D01*
X72166999Y-127903000D01*
X72867001Y-127903000D01*
X72891505Y-127904204D01*
X72891505Y-127904204D01*
G37*
D13*
G04 #@! TD*
G04 #@! TO.P,J9,1*
G04 #@! TO.N,+12V*
X72517000Y-128778000D03*
D14*
G04 #@! TO.P,J9,2*
G04 #@! TO.N,GND*
X74517000Y-128778000D03*
G04 #@! TO.P,J9,3*
G04 #@! TO.N,-12V*
X76517000Y-128778000D03*
G04 #@! TD*
D10*
G04 #@! TO.P,J8,1*
G04 #@! TO.N,PWM_CV*
X95885000Y-128270000D03*
D11*
G04 #@! TO.P,J8,2*
G04 #@! TO.N,+2.5V*
X93345000Y-128270000D03*
G04 #@! TD*
D15*
G04 #@! TO.P,R23,2*
G04 #@! TO.N,-5V*
X93980000Y-133794500D03*
D16*
G04 #@! TO.P,R23,1*
G04 #@! TO.N,Net-(R22-Pad2)*
X99060000Y-133794500D03*
G04 #@! TD*
G04 #@! TO.P,R22,1*
G04 #@! TO.N,+2.5V*
X109156500Y-133731000D03*
D15*
G04 #@! TO.P,R22,2*
G04 #@! TO.N,Net-(R22-Pad2)*
X104076500Y-133731000D03*
G04 #@! TD*
D17*
G04 #@! TO.P,RV1,1*
G04 #@! TO.N,Net-(RV1-Pad1)*
X137287000Y-78740000D03*
G04 #@! TO.P,RV1,2*
G04 #@! TO.N,Net-(R8-Pad1)*
X134747000Y-78740000D03*
G04 #@! TO.P,RV1,3*
G04 #@! TO.N,GND*
X132207000Y-78740000D03*
G04 #@! TD*
D18*
G04 #@! TO.P,D1,1*
G04 #@! TO.N,+12V*
X102743000Y-114046000D03*
D19*
G04 #@! TO.P,D1,2*
G04 #@! TO.N,-12V*
X102743000Y-126746000D03*
G04 #@! TD*
D20*
G04 #@! TO.P,U4,3*
G04 #@! TO.N,+12V*
X93027500Y-101600000D03*
G04 #@! TO.P,U4,2*
G04 #@! TO.N,+10V*
X90487500Y-101600000D03*
D21*
G04 #@! TO.P,U4,1*
G04 #@! TO.N,Net-(R20-Pad1)*
X87947500Y-101600000D03*
G04 #@! TD*
G04 #@! TO.P,U3,1*
G04 #@! TO.N,Net-(R17-Pad1)*
X71755000Y-101409500D03*
D20*
G04 #@! TO.P,U3,2*
G04 #@! TO.N,Net-(C7-Pad1)*
X74295000Y-101409500D03*
G04 #@! TO.P,U3,3*
G04 #@! TO.N,-5V*
X76835000Y-101409500D03*
G04 #@! TD*
D16*
G04 #@! TO.P,C6,1*
G04 #@! TO.N,Net-(C6-Pad1)*
X125666500Y-117538500D03*
D15*
G04 #@! TO.P,C6,2*
G04 #@! TO.N,GND*
X110666500Y-117538500D03*
G04 #@! TD*
D16*
G04 #@! TO.P,C1,2*
G04 #@! TO.N,Net-(C1-Pad2)*
X110443000Y-106362500D03*
G04 #@! TO.P,C1,1*
G04 #@! TO.N,Net-(C1-Pad1)*
X115443000Y-106362500D03*
G04 #@! TD*
G04 #@! TO.P,C2,1*
G04 #@! TO.N,Net-(C2-Pad1)*
X132582500Y-117602000D03*
G04 #@! TO.P,C2,2*
G04 #@! TO.N,Net-(C2-Pad2)*
X137582500Y-117602000D03*
G04 #@! TD*
G04 #@! TO.P,C3,1*
G04 #@! TO.N,Net-(C3-Pad1)*
X145605500Y-104013000D03*
G04 #@! TO.P,C3,2*
G04 #@! TO.N,Net-(C3-Pad2)*
X145605500Y-99013000D03*
G04 #@! TD*
G04 #@! TO.P,C4,2*
G04 #@! TO.N,GND*
X145732500Y-90186500D03*
G04 #@! TO.P,C4,1*
G04 #@! TO.N,Net-(C4-Pad1)*
X145732500Y-95186500D03*
G04 #@! TD*
G04 #@! TO.P,C5,2*
G04 #@! TO.N,GND*
X145605500Y-107839500D03*
G04 #@! TO.P,C5,1*
G04 #@! TO.N,Net-(C5-Pad1)*
X145605500Y-112839500D03*
G04 #@! TD*
G04 #@! TO.P,C7,1*
G04 #@! TO.N,Net-(C7-Pad1)*
X73596500Y-106299000D03*
G04 #@! TO.P,C7,2*
G04 #@! TO.N,GND*
X73596500Y-111299000D03*
G04 #@! TD*
D22*
G04 #@! TO.P,C8,1*
G04 #@! TO.N,GND*
X76581000Y-74358500D03*
D16*
G04 #@! TO.P,C8,2*
G04 #@! TO.N,-5V*
X76581000Y-76858500D03*
G04 #@! TD*
G04 #@! TO.P,C9,1*
G04 #@! TO.N,GND*
X95567500Y-110998000D03*
G04 #@! TO.P,C9,2*
G04 #@! TO.N,+12V*
X95567500Y-105998000D03*
G04 #@! TD*
G04 #@! TO.P,C10,2*
G04 #@! TO.N,GND*
X102449000Y-85598000D03*
D22*
G04 #@! TO.P,C10,1*
G04 #@! TO.N,+10V*
X99949000Y-85598000D03*
G04 #@! TD*
D16*
G04 #@! TO.P,C11,1*
G04 #@! TO.N,GND*
X110426500Y-94869000D03*
G04 #@! TO.P,C11,2*
G04 #@! TO.N,-5V*
X115426500Y-94869000D03*
G04 #@! TD*
G04 #@! TO.P,C12,2*
G04 #@! TO.N,GND*
X132571500Y-132143500D03*
G04 #@! TO.P,C12,1*
G04 #@! TO.N,+12V*
X127571500Y-132143500D03*
G04 #@! TD*
G04 #@! TO.P,C13,1*
G04 #@! TO.N,-12V*
X110490000Y-124968000D03*
G04 #@! TO.P,C13,2*
G04 #@! TO.N,GND*
X110490000Y-129968000D03*
G04 #@! TD*
G04 #@! TO.P,C14,2*
G04 #@! TO.N,GND*
X122444500Y-87630000D03*
G04 #@! TO.P,C14,1*
G04 #@! TO.N,+10V*
X127444500Y-87630000D03*
G04 #@! TD*
G04 #@! TO.P,C15,2*
G04 #@! TO.N,-12V*
X86002500Y-133667500D03*
D22*
G04 #@! TO.P,C15,1*
G04 #@! TO.N,GND*
X83502500Y-133667500D03*
G04 #@! TD*
G04 #@! TO.P,C16,1*
G04 #@! TO.N,Net-(C16-Pad1)*
X70802500Y-119443500D03*
D16*
G04 #@! TO.P,C16,2*
G04 #@! TO.N,Net-(C16-Pad2)*
X70802500Y-121943500D03*
G04 #@! TD*
D10*
G04 #@! TO.P,J1,1*
G04 #@! TO.N,1V-Oct*
X152019000Y-99187000D03*
D11*
G04 #@! TO.P,J1,2*
G04 #@! TO.N,GND*
X152019000Y-101727000D03*
G04 #@! TD*
D10*
G04 #@! TO.P,J2,1*
G04 #@! TO.N,ExpoCV*
X152082500Y-88328500D03*
D11*
G04 #@! TO.P,J2,2*
G04 #@! TO.N,GND*
X152082500Y-90868500D03*
G04 #@! TD*
G04 #@! TO.P,J3,2*
G04 #@! TO.N,GND*
X152146000Y-114300000D03*
D10*
G04 #@! TO.P,J3,1*
G04 #@! TO.N,Net-(C3-Pad2)*
X152146000Y-111760000D03*
G04 #@! TD*
D11*
G04 #@! TO.P,J4,2*
G04 #@! TO.N,GND*
X152209500Y-124777500D03*
D10*
G04 #@! TO.P,J4,1*
G04 #@! TO.N,Net-(C2-Pad2)*
X152209500Y-122237500D03*
G04 #@! TD*
D11*
G04 #@! TO.P,J5,2*
G04 #@! TO.N,GND*
X102108000Y-105791000D03*
D10*
G04 #@! TO.P,J5,1*
G04 #@! TO.N,Net-(C1-Pad2)*
X102108000Y-108331000D03*
G04 #@! TD*
G04 #@! TO.P,J6,1*
G04 #@! TO.N,PWM_CV*
X101981000Y-98425000D03*
D11*
G04 #@! TO.P,J6,2*
G04 #@! TO.N,GND*
X101981000Y-95885000D03*
G04 #@! TD*
D12*
G04 #@! TO.N,+12V*
G04 #@! TO.C,J7*
G36*
X95264505Y-117384204D02*
X95288773Y-117387804D01*
X95312572Y-117393765D01*
X95335671Y-117402030D01*
X95357850Y-117412520D01*
X95378893Y-117425132D01*
X95398599Y-117439747D01*
X95416777Y-117456223D01*
X95433253Y-117474401D01*
X95447868Y-117494107D01*
X95460480Y-117515150D01*
X95470970Y-117537329D01*
X95479235Y-117560428D01*
X95485196Y-117584227D01*
X95488796Y-117608495D01*
X95490000Y-117632999D01*
X95490000Y-118333001D01*
X95488796Y-118357505D01*
X95485196Y-118381773D01*
X95479235Y-118405572D01*
X95470970Y-118428671D01*
X95460480Y-118450850D01*
X95447868Y-118471893D01*
X95433253Y-118491599D01*
X95416777Y-118509777D01*
X95398599Y-118526253D01*
X95378893Y-118540868D01*
X95357850Y-118553480D01*
X95335671Y-118563970D01*
X95312572Y-118572235D01*
X95288773Y-118578196D01*
X95264505Y-118581796D01*
X95240001Y-118583000D01*
X93989999Y-118583000D01*
X93965495Y-118581796D01*
X93941227Y-118578196D01*
X93917428Y-118572235D01*
X93894329Y-118563970D01*
X93872150Y-118553480D01*
X93851107Y-118540868D01*
X93831401Y-118526253D01*
X93813223Y-118509777D01*
X93796747Y-118491599D01*
X93782132Y-118471893D01*
X93769520Y-118450850D01*
X93759030Y-118428671D01*
X93750765Y-118405572D01*
X93744804Y-118381773D01*
X93741204Y-118357505D01*
X93740000Y-118333001D01*
X93740000Y-117632999D01*
X93741204Y-117608495D01*
X93744804Y-117584227D01*
X93750765Y-117560428D01*
X93759030Y-117537329D01*
X93769520Y-117515150D01*
X93782132Y-117494107D01*
X93796747Y-117474401D01*
X93813223Y-117456223D01*
X93831401Y-117439747D01*
X93851107Y-117425132D01*
X93872150Y-117412520D01*
X93894329Y-117402030D01*
X93917428Y-117393765D01*
X93941227Y-117387804D01*
X93965495Y-117384204D01*
X93989999Y-117383000D01*
X95240001Y-117383000D01*
X95264505Y-117384204D01*
X95264505Y-117384204D01*
G37*
D13*
G04 #@! TD*
G04 #@! TO.P,J7,1*
G04 #@! TO.N,+12V*
X94615000Y-117983000D03*
D23*
G04 #@! TO.P,J7,2*
G04 #@! TO.N,GND*
X94615000Y-119983000D03*
G04 #@! TO.P,J7,3*
G04 #@! TO.N,-12V*
X94615000Y-121983000D03*
G04 #@! TD*
D15*
G04 #@! TO.P,R1,2*
G04 #@! TO.N,PWM_CV*
X109982000Y-102552500D03*
D16*
G04 #@! TO.P,R1,1*
G04 #@! TO.N,Net-(R1-Pad1)*
X115062000Y-102552500D03*
G04 #@! TD*
G04 #@! TO.P,R2,1*
G04 #@! TO.N,Net-(R12-Pad1)*
X133032500Y-94996000D03*
D15*
G04 #@! TO.P,R2,2*
G04 #@! TO.N,1V-Oct*
X138112500Y-94996000D03*
G04 #@! TD*
D16*
G04 #@! TO.P,R3,1*
G04 #@! TO.N,Sqr*
X114998500Y-98679000D03*
D15*
G04 #@! TO.P,R3,2*
G04 #@! TO.N,GND*
X109918500Y-98679000D03*
G04 #@! TD*
D16*
G04 #@! TO.P,R4,1*
G04 #@! TO.N,Net-(R12-Pad1)*
X133032500Y-98869500D03*
D15*
G04 #@! TO.P,R4,2*
G04 #@! TO.N,Net-(C4-Pad1)*
X138112500Y-98869500D03*
G04 #@! TD*
G04 #@! TO.P,R5,2*
G04 #@! TO.N,Net-(C3-Pad1)*
X138112500Y-110236000D03*
D16*
G04 #@! TO.P,R5,1*
G04 #@! TO.N,Net-(R5-Pad1)*
X133032500Y-110236000D03*
G04 #@! TD*
G04 #@! TO.P,R6,1*
G04 #@! TO.N,Net-(R5-Pad1)*
X133032500Y-106299000D03*
D15*
G04 #@! TO.P,R6,2*
G04 #@! TO.N,+10V*
X138112500Y-106299000D03*
G04 #@! TD*
D16*
G04 #@! TO.P,R7,1*
G04 #@! TO.N,Net-(R5-Pad1)*
X133032500Y-113855500D03*
D15*
G04 #@! TO.P,R7,2*
G04 #@! TO.N,Net-(C5-Pad1)*
X138112500Y-113855500D03*
G04 #@! TD*
G04 #@! TO.P,R8,2*
G04 #@! TO.N,Net-(R12-Pad1)*
X132582500Y-87820500D03*
D16*
G04 #@! TO.P,R8,1*
G04 #@! TO.N,Net-(R8-Pad1)*
X137662500Y-87820500D03*
G04 #@! TD*
D15*
G04 #@! TO.P,R9,2*
G04 #@! TO.N,Net-(R9-Pad2)*
X115443000Y-90614500D03*
D16*
G04 #@! TO.P,R9,1*
G04 #@! TO.N,-5V*
X110363000Y-90614500D03*
G04 #@! TD*
D15*
G04 #@! TO.P,R10,2*
G04 #@! TO.N,GND*
X138112500Y-102362000D03*
D16*
G04 #@! TO.P,R10,1*
G04 #@! TO.N,Net-(R10-Pad1)*
X133032500Y-102362000D03*
G04 #@! TD*
G04 #@! TO.P,R11,1*
G04 #@! TO.N,Net-(R11-Pad1)*
X110236000Y-86550500D03*
D15*
G04 #@! TO.P,R11,2*
G04 #@! TO.N,Net-(R11-Pad2)*
X115316000Y-86550500D03*
G04 #@! TD*
D16*
G04 #@! TO.P,R12,1*
G04 #@! TO.N,Net-(R12-Pad1)*
X133032500Y-91567000D03*
D15*
G04 #@! TO.P,R12,2*
G04 #@! TO.N,ExpoCV*
X138112500Y-91567000D03*
G04 #@! TD*
G04 #@! TO.P,R13,2*
G04 #@! TO.N,Net-(R13-Pad2)*
X109918500Y-82423000D03*
D16*
G04 #@! TO.P,R13,1*
G04 #@! TO.N,Net-(R12-Pad1)*
X114998500Y-82423000D03*
G04 #@! TD*
G04 #@! TO.P,R14,1*
G04 #@! TO.N,Net-(R14-Pad1)*
X137662500Y-84010500D03*
D15*
G04 #@! TO.P,R14,2*
G04 #@! TO.N,Net-(R12-Pad1)*
X132582500Y-84010500D03*
G04 #@! TD*
G04 #@! TO.P,R15,2*
G04 #@! TO.N,Net-(R15-Pad2)*
X90297000Y-76390500D03*
D16*
G04 #@! TO.P,R15,1*
G04 #@! TO.N,-5V*
X85217000Y-76390500D03*
G04 #@! TD*
D15*
G04 #@! TO.P,R16,2*
G04 #@! TO.N,GND*
X78359000Y-111569500D03*
D16*
G04 #@! TO.P,R16,1*
G04 #@! TO.N,-5V*
X78359000Y-106489500D03*
G04 #@! TD*
G04 #@! TO.P,R17,1*
G04 #@! TO.N,Net-(R17-Pad1)*
X68643500Y-106426000D03*
D15*
G04 #@! TO.P,R17,2*
G04 #@! TO.N,-5V*
X68643500Y-111506000D03*
G04 #@! TD*
D16*
G04 #@! TO.P,R18,1*
G04 #@! TO.N,Net-(R18-Pad1)*
X132588000Y-121856500D03*
D15*
G04 #@! TO.P,R18,2*
G04 #@! TO.N,GND*
X137668000Y-121856500D03*
G04 #@! TD*
G04 #@! TO.P,R19,2*
G04 #@! TO.N,Net-(R18-Pad1)*
X137604500Y-126428500D03*
D16*
G04 #@! TO.P,R19,1*
G04 #@! TO.N,Tri*
X132524500Y-126428500D03*
G04 #@! TD*
D15*
G04 #@! TO.P,R20,2*
G04 #@! TO.N,GND*
X85661500Y-111506000D03*
D16*
G04 #@! TO.P,R20,1*
G04 #@! TO.N,Net-(R20-Pad1)*
X85661500Y-106426000D03*
G04 #@! TD*
G04 #@! TO.P,R21,1*
G04 #@! TO.N,Net-(R20-Pad1)*
X90741500Y-110934500D03*
D15*
G04 #@! TO.P,R21,2*
G04 #@! TO.N,+10V*
X90741500Y-105854500D03*
G04 #@! TD*
D17*
G04 #@! TO.P,RV2,3*
G04 #@! TO.N,Net-(R15-Pad2)*
X97917000Y-69405500D03*
G04 #@! TO.P,RV2,2*
X100457000Y-71945500D03*
G04 #@! TO.P,RV2,1*
G04 #@! TO.N,Net-(R11-Pad1)*
X97917000Y-74485500D03*
G04 #@! TD*
D24*
G04 #@! TO.P,RV3,*
G04 #@! TO.N,*
X119248000Y-70597000D03*
X110448000Y-70597000D03*
D25*
G04 #@! TO.P,RV3,1*
G04 #@! TO.N,+10V*
X117348000Y-77597000D03*
G04 #@! TO.P,RV3,2*
G04 #@! TO.N,Net-(R13-Pad2)*
X114848000Y-77597000D03*
G04 #@! TO.P,RV3,3*
G04 #@! TO.N,GND*
X112348000Y-77597000D03*
G04 #@! TD*
D17*
G04 #@! TO.P,RV4,1*
G04 #@! TO.N,Net-(R14-Pad1)*
X145732500Y-78041500D03*
G04 #@! TO.P,RV4,2*
X145732500Y-80581500D03*
G04 #@! TO.P,RV4,3*
G04 #@! TO.N,+10V*
X145732500Y-83121500D03*
G04 #@! TD*
D22*
G04 #@! TO.P,U1,1*
G04 #@! TO.N,Tri*
X124523500Y-124523500D03*
D15*
G04 #@! TO.P,U1,5*
G04 #@! TO.N,GND*
X116903500Y-132143500D03*
G04 #@! TO.P,U1,2*
G04 #@! TO.N,Net-(R18-Pad1)*
X121983500Y-124523500D03*
G04 #@! TO.P,U1,6*
G04 #@! TO.N,Net-(R22-Pad2)*
X119443500Y-132143500D03*
G04 #@! TO.P,U1,3*
G04 #@! TO.N,Net-(U1-Pad3)*
X119443500Y-124523500D03*
G04 #@! TO.P,U1,7*
G04 #@! TO.N,+2.5V*
X121983500Y-132143500D03*
G04 #@! TO.P,U1,4*
G04 #@! TO.N,-12V*
X116903500Y-124523500D03*
G04 #@! TO.P,U1,8*
G04 #@! TO.N,+12V*
X124523500Y-132143500D03*
G04 #@! TD*
D22*
G04 #@! TO.P,U2,1*
G04 #@! TO.N,Net-(R11-Pad2)*
X121348500Y-93853000D03*
D15*
G04 #@! TO.P,U2,9*
G04 #@! TO.N,Net-(C2-Pad1)*
X128968500Y-111633000D03*
G04 #@! TO.P,U2,2*
G04 #@! TO.N,Net-(R9-Pad2)*
X121348500Y-96393000D03*
G04 #@! TO.P,U2,10*
G04 #@! TO.N,Net-(U1-Pad3)*
X128968500Y-109093000D03*
G04 #@! TO.P,U2,3*
G04 #@! TO.N,-5V*
X121348500Y-98933000D03*
G04 #@! TO.P,U2,11*
G04 #@! TO.N,Net-(C6-Pad1)*
X128968500Y-106553000D03*
G04 #@! TO.P,U2,4*
G04 #@! TO.N,Sqr*
X121348500Y-101473000D03*
G04 #@! TO.P,U2,12*
G04 #@! TO.N,GND*
X128968500Y-104013000D03*
G04 #@! TO.P,U2,5*
G04 #@! TO.N,Net-(R1-Pad1)*
X121348500Y-104013000D03*
G04 #@! TO.P,U2,13*
G04 #@! TO.N,Net-(R5-Pad1)*
X128968500Y-101473000D03*
G04 #@! TO.P,U2,6*
G04 #@! TO.N,Net-(C1-Pad1)*
X121348500Y-106553000D03*
G04 #@! TO.P,U2,14*
G04 #@! TO.N,Net-(R10-Pad1)*
X128968500Y-98933000D03*
G04 #@! TO.P,U2,7*
G04 #@! TO.N,Net-(RV1-Pad1)*
X121348500Y-109093000D03*
G04 #@! TO.P,U2,15*
G04 #@! TO.N,Net-(R12-Pad1)*
X128968500Y-96393000D03*
G04 #@! TO.P,U2,8*
G04 #@! TO.N,Saw*
X121348500Y-111633000D03*
G04 #@! TO.P,U2,16*
G04 #@! TO.N,+10V*
X128968500Y-93853000D03*
G04 #@! TD*
G04 #@! TO.P,U5,8*
G04 #@! TO.N,+12V*
X88709500Y-116586000D03*
G04 #@! TO.P,U5,4*
G04 #@! TO.N,Net-(C16-Pad2)*
X81089500Y-124206000D03*
G04 #@! TO.P,U5,7*
G04 #@! TO.N,Net-(U5-Pad7)*
X88709500Y-119126000D03*
G04 #@! TO.P,U5,3*
G04 #@! TO.N,GND*
X81089500Y-121666000D03*
G04 #@! TO.P,U5,6*
G04 #@! TO.N,Net-(U5-Pad6)*
X88709500Y-121666000D03*
G04 #@! TO.P,U5,2*
G04 #@! TO.N,Net-(C16-Pad1)*
X81089500Y-119126000D03*
G04 #@! TO.P,U5,5*
G04 #@! TO.N,-12V*
X88709500Y-124206000D03*
D22*
G04 #@! TO.P,U5,1*
G04 #@! TO.N,+12V*
X81089500Y-116586000D03*
G04 #@! TD*
D26*
G04 #@! TO.N,Net-(C1-Pad2)*
X108474500Y-108331000D02*
X110443000Y-106362500D01*
X102108000Y-108331000D02*
X108474500Y-108331000D01*
G04 #@! TO.N,Net-(C1-Pad1)*
X121158000Y-106362500D02*
X121348500Y-106553000D01*
X115443000Y-106362500D02*
X121158000Y-106362500D01*
G04 #@! TO.N,Net-(C2-Pad1)*
X132582500Y-115247000D02*
X128968500Y-111633000D01*
X132582500Y-117602000D02*
X132582500Y-115247000D01*
G04 #@! TO.N,Net-(C2-Pad2)*
X142218000Y-122237500D02*
X152209500Y-122237500D01*
X137582500Y-117602000D02*
X142218000Y-122237500D01*
G04 #@! TO.N,Net-(C3-Pad1)*
X144335500Y-104013000D02*
X145605500Y-104013000D01*
X138112500Y-110236000D02*
X144335500Y-104013000D01*
G04 #@! TO.N,Net-(C3-Pad2)*
X152146000Y-105553500D02*
X145605500Y-99013000D01*
X152146000Y-111760000D02*
X152146000Y-105553500D01*
G04 #@! TO.N,Net-(C4-Pad1)*
X141795500Y-95186500D02*
X145732500Y-95186500D01*
X138112500Y-98869500D02*
X141795500Y-95186500D01*
D27*
G04 #@! TO.N,GND*
X83502500Y-124079000D02*
X83502500Y-133667500D01*
X81089500Y-121666000D02*
X83502500Y-124079000D01*
D28*
X112665500Y-132143500D02*
X116903500Y-132143500D01*
X110490000Y-129968000D02*
X112665500Y-132143500D01*
D26*
X162052000Y-93277081D02*
X162052000Y-94615000D01*
X162052000Y-92075000D02*
X162052000Y-93277081D01*
X162052000Y-94615000D02*
X162052000Y-97155000D01*
X162052000Y-97155000D02*
X162052000Y-99695000D01*
G04 #@! TO.N,Net-(C5-Pad1)*
X139128500Y-112839500D02*
X145605500Y-112839500D01*
X138112500Y-113855500D02*
X139128500Y-112839500D01*
G04 #@! TO.N,Net-(C6-Pad1)*
X125666500Y-109855000D02*
X128968500Y-106553000D01*
X125666500Y-117538500D02*
X125666500Y-109855000D01*
G04 #@! TO.N,Net-(R1-Pad1)*
X119888000Y-102552500D02*
X121348500Y-104013000D01*
X115062000Y-102552500D02*
X119888000Y-102552500D01*
G04 #@! TO.N,Net-(R10-Pad1)*
X132397500Y-102362000D02*
X133032500Y-102362000D01*
X128968500Y-98933000D02*
X132397500Y-102362000D01*
G04 #@! TO.N,Net-(R9-Pad2)*
X121221500Y-96393000D02*
X121348500Y-96393000D01*
X115443000Y-90614500D02*
X121221500Y-96393000D01*
G04 #@! TO.N,Net-(R11-Pad2)*
X120345500Y-93853000D02*
X121348500Y-93853000D01*
X115316000Y-88823500D02*
X120345500Y-93853000D01*
X115316000Y-86550500D02*
X115316000Y-88823500D01*
D27*
G04 #@! TO.N,-5V*
X77990700Y-101409500D02*
X76835000Y-101409500D01*
X78359000Y-101777800D02*
X77990700Y-101409500D01*
X78359000Y-106489500D02*
X78359000Y-101777800D01*
X77559001Y-107289499D02*
X78359000Y-106489500D01*
X74603501Y-110244999D02*
X77559001Y-107289499D01*
X69904501Y-110244999D02*
X74603501Y-110244999D01*
X68643500Y-111506000D02*
X69904501Y-110244999D01*
D26*
X117284500Y-94869000D02*
X115426500Y-94869000D01*
X121348500Y-98933000D02*
X117284500Y-94869000D01*
D29*
X114617500Y-94869000D02*
X115426500Y-94869000D01*
X110363000Y-90614500D02*
X114617500Y-94869000D01*
X76581000Y-101155500D02*
X76835000Y-101409500D01*
X76581000Y-76858500D02*
X76581000Y-101155500D01*
X84749000Y-76858500D02*
X85217000Y-76390500D01*
X76581000Y-76858500D02*
X84749000Y-76858500D01*
X93180001Y-134594499D02*
X93980000Y-133794500D01*
X92900599Y-134873901D02*
X93180001Y-134594499D01*
X76709595Y-134873901D02*
X92900599Y-134873901D01*
X68643500Y-126807806D02*
X76709595Y-134873901D01*
X68643500Y-111506000D02*
X68643500Y-126807806D01*
D27*
G04 #@! TO.N,+10V*
X90741500Y-101854000D02*
X90487500Y-101600000D01*
X90741500Y-105854500D02*
X90741500Y-101854000D01*
D29*
X98641000Y-85598000D02*
X99949000Y-85598000D01*
X90487500Y-93751500D02*
X98641000Y-85598000D01*
X90487500Y-101600000D02*
X90487500Y-93751500D01*
X116448001Y-76697001D02*
X117348000Y-77597000D01*
X116041599Y-76290599D02*
X116448001Y-76697001D01*
X107948401Y-76290599D02*
X116041599Y-76290599D01*
X99949000Y-84290000D02*
X107948401Y-76290599D01*
X99949000Y-85598000D02*
X99949000Y-84290000D01*
X127381000Y-87630000D02*
X127444500Y-87630000D01*
X117348000Y-77597000D02*
X127381000Y-87630000D01*
D28*
X127444500Y-92329000D02*
X128968500Y-93853000D01*
X127444500Y-87630000D02*
X127444500Y-92329000D01*
X128244499Y-88429999D02*
X127444500Y-87630000D01*
X128777901Y-88963401D02*
X128244499Y-88429999D01*
X139890599Y-88963401D02*
X128777901Y-88963401D01*
X145732500Y-83121500D02*
X139890599Y-88963401D01*
D26*
G04 #@! TO.N,Net-(R5-Pad1)*
X133032500Y-105537000D02*
X133032500Y-106299000D01*
X128968500Y-101473000D02*
X133032500Y-105537000D01*
X133032500Y-107430370D02*
X133032500Y-110236000D01*
X133032500Y-106299000D02*
X133032500Y-107430370D01*
X133032500Y-111367370D02*
X133032500Y-113855500D01*
X133032500Y-110236000D02*
X133032500Y-111367370D01*
D27*
G04 #@! TO.N,Net-(C7-Pad1)*
X73596500Y-102108000D02*
X74295000Y-101409500D01*
X73596500Y-106299000D02*
X73596500Y-102108000D01*
G04 #@! TO.N,+12V*
X81089500Y-116586000D02*
X88709500Y-116586000D01*
X93027500Y-103458000D02*
X95567500Y-105998000D01*
X93027500Y-101600000D02*
X93027500Y-103458000D01*
X90106500Y-117983000D02*
X94615000Y-117983000D01*
X88709500Y-116586000D02*
X90106500Y-117983000D01*
D28*
X94767501Y-106797999D02*
X95567500Y-105998000D01*
X94424599Y-107140901D02*
X94767501Y-106797999D01*
X94424599Y-117092599D02*
X94424599Y-107140901D01*
X94615000Y-117283000D02*
X94424599Y-117092599D01*
X94615000Y-117983000D02*
X94615000Y-117283000D01*
X124523500Y-132143500D02*
X127571500Y-132143500D01*
D29*
X102743000Y-116154000D02*
X102743000Y-114046000D01*
X100914000Y-117983000D02*
X102743000Y-116154000D01*
X94615000Y-117983000D02*
X100914000Y-117983000D01*
X123723501Y-131343501D02*
X124523500Y-132143500D01*
X118109901Y-125729901D02*
X123723501Y-131343501D01*
X114426901Y-125729901D02*
X118109901Y-125729901D01*
X102743000Y-114046000D02*
X114426901Y-125729901D01*
D27*
G04 #@! TO.N,-12V*
X88709500Y-130960500D02*
X86002500Y-133667500D01*
X88709500Y-124206000D02*
X88709500Y-130960500D01*
D28*
X94615000Y-122964000D02*
X94615000Y-121983000D01*
X93373000Y-124206000D02*
X94615000Y-122964000D01*
X88709500Y-124206000D02*
X93373000Y-124206000D01*
D29*
X97980000Y-121983000D02*
X102743000Y-126746000D01*
X94615000Y-121983000D02*
X97980000Y-121983000D01*
X108712000Y-126746000D02*
X110490000Y-124968000D01*
X102743000Y-126746000D02*
X108712000Y-126746000D01*
D27*
G04 #@! TO.N,Net-(C16-Pad1)*
X80772000Y-119443500D02*
X81089500Y-119126000D01*
X70802500Y-119443500D02*
X80772000Y-119443500D01*
G04 #@! TO.N,Net-(C16-Pad2)*
X80289501Y-123406001D02*
X81089500Y-124206000D01*
X78027001Y-121143501D02*
X80289501Y-123406001D01*
X71602499Y-121143501D02*
X78027001Y-121143501D01*
X70802500Y-121943500D02*
X71602499Y-121143501D01*
D26*
G04 #@! TO.N,1V-Oct*
X152019000Y-98134000D02*
X152019000Y-99187000D01*
X148017599Y-94132599D02*
X152019000Y-98134000D01*
X140107271Y-94132599D02*
X148017599Y-94132599D01*
X139243870Y-94996000D02*
X140107271Y-94132599D01*
X138112500Y-94996000D02*
X139243870Y-94996000D01*
X159004000Y-99187000D02*
X152019000Y-99187000D01*
X162052000Y-102235000D02*
X159004000Y-99187000D01*
G04 #@! TO.N,ExpoCV*
X148844000Y-91567000D02*
X152082500Y-88328500D01*
X138112500Y-91567000D02*
X148844000Y-91567000D01*
G04 #@! TO.N,PWM_CV*
X105854500Y-98425000D02*
X109982000Y-102552500D01*
X101981000Y-98425000D02*
X105854500Y-98425000D01*
G04 #@! TO.N,Net-(R12-Pad1)*
X132582500Y-85141870D02*
X132582500Y-87820500D01*
X132582500Y-84010500D02*
X132582500Y-85141870D01*
X133032500Y-91567000D02*
X133032500Y-94996000D01*
X133032500Y-96127370D02*
X133032500Y-98869500D01*
X133032500Y-94996000D02*
X133032500Y-96127370D01*
X131635500Y-96393000D02*
X128968500Y-96393000D01*
X133032500Y-94996000D02*
X131635500Y-96393000D01*
G04 #@! TO.N,Sqr*
X118554500Y-98679000D02*
X121348500Y-101473000D01*
X114998500Y-98679000D02*
X118554500Y-98679000D01*
X158513226Y-109855000D02*
X160999000Y-109855000D01*
X146617325Y-97959099D02*
X158513226Y-109855000D01*
X145099627Y-97959099D02*
X146617325Y-97959099D01*
X143135325Y-99923401D02*
X145099627Y-97959099D01*
X132526627Y-99923401D02*
X143135325Y-99923401D01*
X124942401Y-97879099D02*
X130482325Y-97879099D01*
X130482325Y-97879099D02*
X132526627Y-99923401D01*
X121348500Y-101473000D02*
X124942401Y-97879099D01*
X160999000Y-109855000D02*
X162052000Y-109855000D01*
X158496000Y-112358000D02*
X160999000Y-109855000D01*
X158496000Y-115316000D02*
X158496000Y-112358000D01*
G04 #@! TO.N,Net-(R8-Pad1)*
X136862501Y-87020501D02*
X137662500Y-87820500D01*
X134027001Y-84185001D02*
X136862501Y-87020501D01*
X134027001Y-79459999D02*
X134027001Y-84185001D01*
X134747000Y-78740000D02*
X134027001Y-79459999D01*
G04 #@! TO.N,Net-(R13-Pad2)*
X114744500Y-77597000D02*
X114848000Y-77597000D01*
X109918500Y-82423000D02*
X114744500Y-77597000D01*
G04 #@! TO.N,Net-(R14-Pad1)*
X141091500Y-80581500D02*
X145732500Y-80581500D01*
X137662500Y-84010500D02*
X141091500Y-80581500D01*
X145732500Y-79059733D02*
X145732500Y-80581500D01*
X145732500Y-78041500D02*
X145732500Y-79059733D01*
G04 #@! TO.N,Net-(R15-Pad2)*
X98636999Y-70125499D02*
X100457000Y-71945500D01*
X97917000Y-69405500D02*
X98636999Y-70125499D01*
X97282000Y-69405500D02*
X97917000Y-69405500D01*
X90297000Y-76390500D02*
X97282000Y-69405500D01*
D27*
G04 #@! TO.N,Net-(R17-Pad1)*
X70599300Y-101409500D02*
X71755000Y-101409500D01*
X68643500Y-103365300D02*
X70599300Y-101409500D01*
X68643500Y-106426000D02*
X68643500Y-103365300D01*
D26*
G04 #@! TO.N,Net-(R18-Pad1)*
X124650500Y-121856500D02*
X132588000Y-121856500D01*
X121983500Y-124523500D02*
X124650500Y-121856500D01*
X133032500Y-121856500D02*
X132588000Y-121856500D01*
X137604500Y-126428500D02*
X133032500Y-121856500D01*
G04 #@! TO.N,Tri*
X130619500Y-124523500D02*
X132524500Y-126428500D01*
X124523500Y-124523500D02*
X130619500Y-124523500D01*
X133324499Y-127228499D02*
X132524500Y-126428500D01*
X133578401Y-127482401D02*
X133324499Y-127228499D01*
X160678621Y-127482401D02*
X133578401Y-127482401D01*
X165100000Y-123061022D02*
X160678621Y-127482401D01*
X165100000Y-107823000D02*
X165100000Y-123061022D01*
X162052000Y-104775000D02*
X165100000Y-107823000D01*
X163155901Y-103671099D02*
X162052000Y-104775000D01*
X163155901Y-84505901D02*
X163155901Y-103671099D01*
X160692000Y-82042000D02*
X163155901Y-84505901D01*
X159639000Y-82042000D02*
X160692000Y-82042000D01*
D27*
G04 #@! TO.N,Net-(R20-Pad1)*
X87947500Y-104140000D02*
X87947500Y-101600000D01*
X85661500Y-106426000D02*
X87947500Y-104140000D01*
X90170000Y-110934500D02*
X90741500Y-110934500D01*
X85661500Y-106426000D02*
X90170000Y-110934500D01*
D26*
G04 #@! TO.N,Net-(U1-Pad3)*
X128168501Y-109892999D02*
X128968500Y-109093000D01*
X127914599Y-110146901D02*
X128168501Y-109892999D01*
X127914599Y-116850175D02*
X127914599Y-110146901D01*
X121041273Y-123723501D02*
X127914599Y-116850175D01*
X120243499Y-123723501D02*
X121041273Y-123723501D01*
X119443500Y-124523500D02*
X120243499Y-123723501D01*
G04 #@! TO.N,Saw*
X162901999Y-108164999D02*
X162052000Y-107315000D01*
X163219401Y-108482401D02*
X162901999Y-108164999D01*
X163219401Y-121731599D02*
X163219401Y-108482401D01*
X161798000Y-123153000D02*
X163219401Y-121731599D01*
X159586000Y-123153000D02*
X161798000Y-123153000D01*
X159358500Y-123380500D02*
X159586000Y-123153000D01*
X158305500Y-123380500D02*
X159358500Y-123380500D01*
G04 #@! TO.N,+2.5V*
X120396000Y-133731000D02*
X121983500Y-132143500D01*
X109156500Y-133731000D02*
X120396000Y-133731000D01*
G04 #@! TO.N,Net-(R22-Pad2)*
X104876499Y-132931001D02*
X104076500Y-133731000D01*
X105130401Y-132677099D02*
X104876499Y-132931001D01*
X109662373Y-132677099D02*
X105130401Y-132677099D01*
X110182675Y-133197401D02*
X109662373Y-132677099D01*
X118389599Y-133197401D02*
X110182675Y-133197401D01*
X119443500Y-132143500D02*
X118389599Y-133197401D01*
X104013000Y-133794500D02*
X104076500Y-133731000D01*
X99060000Y-133794500D02*
X104013000Y-133794500D01*
G04 #@! TD*
D30*
G04 #@! TO.N,+10V*
G36*
X155325649Y-98653700D02*
X153309259Y-98653700D01*
X153309259Y-98337000D01*
X153275746Y-98168520D01*
X153180310Y-98025690D01*
X153037480Y-97930254D01*
X152869000Y-97896741D01*
X152501862Y-97896741D01*
X152433238Y-97794038D01*
X152433237Y-97794037D01*
X152403487Y-97749513D01*
X152358963Y-97719763D01*
X148431836Y-93792636D01*
X148402086Y-93748112D01*
X148225682Y-93630242D01*
X148070120Y-93599299D01*
X148070115Y-93599299D01*
X148017599Y-93588853D01*
X147965083Y-93599299D01*
X140159786Y-93599299D01*
X140107270Y-93588853D01*
X140054754Y-93599299D01*
X140054750Y-93599299D01*
X139899188Y-93630242D01*
X139722784Y-93748112D01*
X139693034Y-93792636D01*
X139151651Y-94334019D01*
X139000578Y-94107922D01*
X138593124Y-93835670D01*
X138233820Y-93764200D01*
X137991180Y-93764200D01*
X137631876Y-93835670D01*
X137224422Y-94107922D01*
X136952170Y-94515376D01*
X136856568Y-94996000D01*
X136952170Y-95476624D01*
X137224422Y-95884078D01*
X137631876Y-96156330D01*
X137991180Y-96227800D01*
X138233820Y-96227800D01*
X138593124Y-96156330D01*
X139000578Y-95884078D01*
X139232204Y-95537425D01*
X139243870Y-95539746D01*
X139296386Y-95529300D01*
X139296391Y-95529300D01*
X139451953Y-95498357D01*
X139628357Y-95380487D01*
X139658107Y-95335963D01*
X140328171Y-94665899D01*
X141679136Y-94665899D01*
X141587417Y-94684143D01*
X141411013Y-94802013D01*
X141381263Y-94846537D01*
X138530989Y-97696811D01*
X138233820Y-97637700D01*
X137991180Y-97637700D01*
X137631876Y-97709170D01*
X137224422Y-97981422D01*
X136952170Y-98388876D01*
X136856568Y-98869500D01*
X136952170Y-99350124D01*
X136978882Y-99390101D01*
X134150150Y-99390101D01*
X134264300Y-99114520D01*
X134264300Y-98624480D01*
X134076769Y-98171742D01*
X133730258Y-97825231D01*
X133565800Y-97757110D01*
X133565800Y-96108390D01*
X133730258Y-96040269D01*
X134076769Y-95693758D01*
X134264300Y-95241020D01*
X134264300Y-94750980D01*
X134076769Y-94298242D01*
X133730258Y-93951731D01*
X133565800Y-93883610D01*
X133565800Y-92679390D01*
X133730258Y-92611269D01*
X134076769Y-92264758D01*
X134264300Y-91812020D01*
X134264300Y-91567000D01*
X136856568Y-91567000D01*
X136952170Y-92047624D01*
X137224422Y-92455078D01*
X137631876Y-92727330D01*
X137991180Y-92798800D01*
X138233820Y-92798800D01*
X138593124Y-92727330D01*
X139000578Y-92455078D01*
X139237633Y-92100300D01*
X148791484Y-92100300D01*
X148844000Y-92110746D01*
X148896516Y-92100300D01*
X148896521Y-92100300D01*
X149052083Y-92069357D01*
X149228487Y-91951487D01*
X149258237Y-91906963D01*
X151032618Y-90132582D01*
X150875072Y-90368367D01*
X150775589Y-90868500D01*
X150875072Y-91368633D01*
X151158374Y-91792626D01*
X151582367Y-92075928D01*
X151956259Y-92150300D01*
X152208741Y-92150300D01*
X152582633Y-92075928D01*
X153006626Y-91792626D01*
X153289928Y-91368633D01*
X153389411Y-90868500D01*
X153289928Y-90368367D01*
X153006626Y-89944374D01*
X152582633Y-89661072D01*
X152369912Y-89618759D01*
X152932500Y-89618759D01*
X153100980Y-89585246D01*
X153243810Y-89489810D01*
X153339246Y-89346980D01*
X153372759Y-89178500D01*
X153372759Y-87478500D01*
X153339246Y-87310020D01*
X153243810Y-87167190D01*
X153100980Y-87071754D01*
X152932500Y-87038241D01*
X151232500Y-87038241D01*
X151064020Y-87071754D01*
X150921190Y-87167190D01*
X150825754Y-87310020D01*
X150792241Y-87478500D01*
X150792241Y-88864559D01*
X148623100Y-91033700D01*
X146627327Y-91033700D01*
X146776769Y-90884258D01*
X146964300Y-90431520D01*
X146964300Y-89941480D01*
X146776769Y-89488742D01*
X146430258Y-89142231D01*
X145977520Y-88954700D01*
X145487480Y-88954700D01*
X145034742Y-89142231D01*
X144688231Y-89488742D01*
X144500700Y-89941480D01*
X144500700Y-90431520D01*
X144688231Y-90884258D01*
X144837673Y-91033700D01*
X139237633Y-91033700D01*
X139000578Y-90678922D01*
X138593124Y-90406670D01*
X138233820Y-90335200D01*
X137991180Y-90335200D01*
X137631876Y-90406670D01*
X137224422Y-90678922D01*
X136952170Y-91086376D01*
X136856568Y-91567000D01*
X134264300Y-91567000D01*
X134264300Y-91321980D01*
X134076769Y-90869242D01*
X133730258Y-90522731D01*
X133277520Y-90335200D01*
X132787480Y-90335200D01*
X132334742Y-90522731D01*
X131988231Y-90869242D01*
X131800700Y-91321980D01*
X131800700Y-91812020D01*
X131988231Y-92264758D01*
X132334742Y-92611269D01*
X132499200Y-92679390D01*
X132499201Y-93883610D01*
X132334742Y-93951731D01*
X131988231Y-94298242D01*
X131800700Y-94750980D01*
X131800700Y-95241020D01*
X131868821Y-95405479D01*
X131414600Y-95859700D01*
X130093633Y-95859700D01*
X129856578Y-95504922D01*
X129449124Y-95232670D01*
X129374693Y-95217865D01*
X129823634Y-95005389D01*
X130199541Y-94590423D01*
X130360404Y-94202039D01*
X130238415Y-93980000D01*
X129095500Y-93980000D01*
X129095500Y-94000000D01*
X128841500Y-94000000D01*
X128841500Y-93980000D01*
X127698585Y-93980000D01*
X127576596Y-94202039D01*
X127737459Y-94590423D01*
X128113366Y-95005389D01*
X128562307Y-95217865D01*
X128487876Y-95232670D01*
X128080422Y-95504922D01*
X127808170Y-95912376D01*
X127712568Y-96393000D01*
X127808170Y-96873624D01*
X128080422Y-97281078D01*
X128177284Y-97345799D01*
X124994922Y-97345799D01*
X124942401Y-97335352D01*
X124734318Y-97376742D01*
X124614589Y-97456743D01*
X124557914Y-97494612D01*
X124528164Y-97539136D01*
X121766989Y-100300311D01*
X121469820Y-100241200D01*
X121227180Y-100241200D01*
X120930011Y-100300311D01*
X118968737Y-98339037D01*
X118938987Y-98294513D01*
X118762583Y-98176643D01*
X118607021Y-98145700D01*
X118607016Y-98145700D01*
X118554500Y-98135254D01*
X118501984Y-98145700D01*
X116110890Y-98145700D01*
X116042769Y-97981242D01*
X115696258Y-97634731D01*
X115243520Y-97447200D01*
X114753480Y-97447200D01*
X114300742Y-97634731D01*
X113954231Y-97981242D01*
X113766700Y-98433980D01*
X113766700Y-98924020D01*
X113954231Y-99376758D01*
X114300742Y-99723269D01*
X114753480Y-99910800D01*
X115243520Y-99910800D01*
X115696258Y-99723269D01*
X116042769Y-99376758D01*
X116110890Y-99212300D01*
X118333600Y-99212300D01*
X120175811Y-101054511D01*
X120092568Y-101473000D01*
X120188170Y-101953624D01*
X120460422Y-102361078D01*
X120867876Y-102633330D01*
X121227180Y-102704800D01*
X121469820Y-102704800D01*
X121829124Y-102633330D01*
X122236578Y-102361078D01*
X122508830Y-101953624D01*
X122604432Y-101473000D01*
X122521189Y-101054511D01*
X125163301Y-98412399D01*
X127834882Y-98412399D01*
X127808170Y-98452376D01*
X127712568Y-98933000D01*
X127808170Y-99413624D01*
X128080422Y-99821078D01*
X128487876Y-100093330D01*
X128847180Y-100164800D01*
X129089820Y-100164800D01*
X129386989Y-100105689D01*
X131800700Y-102519400D01*
X131800700Y-102607020D01*
X131988231Y-103059758D01*
X132334742Y-103406269D01*
X132787480Y-103593800D01*
X133277520Y-103593800D01*
X133730258Y-103406269D01*
X134076769Y-103059758D01*
X134264300Y-102607020D01*
X134264300Y-102362000D01*
X136856568Y-102362000D01*
X136952170Y-102842624D01*
X137224422Y-103250078D01*
X137631876Y-103522330D01*
X137991180Y-103593800D01*
X138233820Y-103593800D01*
X138593124Y-103522330D01*
X139000578Y-103250078D01*
X139272830Y-102842624D01*
X139368432Y-102362000D01*
X139272830Y-101881376D01*
X139000578Y-101473922D01*
X138593124Y-101201670D01*
X138233820Y-101130200D01*
X137991180Y-101130200D01*
X137631876Y-101201670D01*
X137224422Y-101473922D01*
X136952170Y-101881376D01*
X136856568Y-102362000D01*
X134264300Y-102362000D01*
X134264300Y-102116980D01*
X134076769Y-101664242D01*
X133730258Y-101317731D01*
X133277520Y-101130200D01*
X132787480Y-101130200D01*
X132334742Y-101317731D01*
X132221087Y-101431387D01*
X130141189Y-99351489D01*
X130224432Y-98933000D01*
X130128830Y-98452376D01*
X130102118Y-98412399D01*
X130261425Y-98412399D01*
X132112390Y-100263364D01*
X132142140Y-100307888D01*
X132186664Y-100337638D01*
X132186665Y-100337639D01*
X132318544Y-100425758D01*
X132526627Y-100467148D01*
X132579148Y-100456701D01*
X143082809Y-100456701D01*
X143135325Y-100467147D01*
X143187841Y-100456701D01*
X143187846Y-100456701D01*
X143343408Y-100425758D01*
X143519812Y-100307888D01*
X143549562Y-100263364D01*
X144426774Y-99386152D01*
X144561231Y-99710758D01*
X144907742Y-100057269D01*
X145360480Y-100244800D01*
X145850520Y-100244800D01*
X146014979Y-100176679D01*
X151612701Y-105774401D01*
X151612700Y-110469741D01*
X151296000Y-110469741D01*
X151127520Y-110503254D01*
X150984690Y-110598690D01*
X150889254Y-110741520D01*
X150855741Y-110910000D01*
X150855741Y-112610000D01*
X150889254Y-112778480D01*
X150984690Y-112921310D01*
X151127520Y-113016746D01*
X151296000Y-113050259D01*
X151858588Y-113050259D01*
X151645867Y-113092572D01*
X151221874Y-113375874D01*
X150938572Y-113799867D01*
X150839089Y-114300000D01*
X150938572Y-114800133D01*
X151221874Y-115224126D01*
X151645867Y-115507428D01*
X152019759Y-115581800D01*
X152272241Y-115581800D01*
X152646133Y-115507428D01*
X153070126Y-115224126D01*
X153353428Y-114800133D01*
X153452911Y-114300000D01*
X153353428Y-113799867D01*
X153070126Y-113375874D01*
X152646133Y-113092572D01*
X152433412Y-113050259D01*
X152996000Y-113050259D01*
X153164480Y-113016746D01*
X153307310Y-112921310D01*
X153402746Y-112778480D01*
X153436259Y-112610000D01*
X153436259Y-110910000D01*
X153402746Y-110741520D01*
X153307310Y-110598690D01*
X153164480Y-110503254D01*
X152996000Y-110469741D01*
X152679300Y-110469741D01*
X152679300Y-105606017D01*
X152689746Y-105553500D01*
X152679300Y-105500983D01*
X152679300Y-105500979D01*
X152648357Y-105345417D01*
X152648357Y-105345416D01*
X152560238Y-105213538D01*
X152560237Y-105213537D01*
X152530487Y-105169013D01*
X152485963Y-105139263D01*
X146769179Y-99422479D01*
X146837300Y-99258020D01*
X146837300Y-98933274D01*
X155293503Y-107389477D01*
X155221526Y-126949101D01*
X138738118Y-126949101D01*
X138764830Y-126909124D01*
X138860432Y-126428500D01*
X138764830Y-125947876D01*
X138492578Y-125540422D01*
X138085124Y-125268170D01*
X137725820Y-125196700D01*
X137483180Y-125196700D01*
X137186011Y-125255811D01*
X133819800Y-121889600D01*
X133819800Y-121856500D01*
X136412068Y-121856500D01*
X136507670Y-122337124D01*
X136779922Y-122744578D01*
X137187376Y-123016830D01*
X137546680Y-123088300D01*
X137789320Y-123088300D01*
X138148624Y-123016830D01*
X138556078Y-122744578D01*
X138828330Y-122337124D01*
X138923932Y-121856500D01*
X138828330Y-121375876D01*
X138556078Y-120968422D01*
X138148624Y-120696170D01*
X137789320Y-120624700D01*
X137546680Y-120624700D01*
X137187376Y-120696170D01*
X136779922Y-120968422D01*
X136507670Y-121375876D01*
X136412068Y-121856500D01*
X133819800Y-121856500D01*
X133819800Y-121611480D01*
X133632269Y-121158742D01*
X133285758Y-120812231D01*
X132833020Y-120624700D01*
X132342980Y-120624700D01*
X131890242Y-120812231D01*
X131543731Y-121158742D01*
X131475610Y-121323200D01*
X124703021Y-121323200D01*
X124650500Y-121312753D01*
X124597979Y-121323200D01*
X124442417Y-121354143D01*
X124266013Y-121472013D01*
X124236263Y-121516537D01*
X122401989Y-123350811D01*
X122206958Y-123312016D01*
X128254562Y-117264412D01*
X128299086Y-117234662D01*
X128330424Y-117187762D01*
X128416956Y-117058259D01*
X128434400Y-116970559D01*
X128447899Y-116902696D01*
X128447899Y-116902692D01*
X128458345Y-116850175D01*
X128447899Y-116797658D01*
X128447899Y-112766618D01*
X128487876Y-112793330D01*
X128847180Y-112864800D01*
X129089820Y-112864800D01*
X129386989Y-112805689D01*
X132049201Y-115467901D01*
X132049200Y-116489610D01*
X131884742Y-116557731D01*
X131538231Y-116904242D01*
X131350700Y-117356980D01*
X131350700Y-117847020D01*
X131538231Y-118299758D01*
X131884742Y-118646269D01*
X132337480Y-118833800D01*
X132827520Y-118833800D01*
X133280258Y-118646269D01*
X133626769Y-118299758D01*
X133814300Y-117847020D01*
X133814300Y-117356980D01*
X136350700Y-117356980D01*
X136350700Y-117847020D01*
X136538231Y-118299758D01*
X136884742Y-118646269D01*
X137337480Y-118833800D01*
X137827520Y-118833800D01*
X137991979Y-118765679D01*
X141803765Y-122577466D01*
X141833513Y-122621987D01*
X141878034Y-122651735D01*
X141878037Y-122651738D01*
X141973167Y-122715301D01*
X142009917Y-122739857D01*
X142165479Y-122770800D01*
X142165484Y-122770800D01*
X142218000Y-122781246D01*
X142270516Y-122770800D01*
X150919241Y-122770800D01*
X150919241Y-123087500D01*
X150952754Y-123255980D01*
X151048190Y-123398810D01*
X151191020Y-123494246D01*
X151359500Y-123527759D01*
X151922088Y-123527759D01*
X151709367Y-123570072D01*
X151285374Y-123853374D01*
X151002072Y-124277367D01*
X150902589Y-124777500D01*
X151002072Y-125277633D01*
X151285374Y-125701626D01*
X151709367Y-125984928D01*
X152083259Y-126059300D01*
X152335741Y-126059300D01*
X152709633Y-125984928D01*
X153133626Y-125701626D01*
X153416928Y-125277633D01*
X153516411Y-124777500D01*
X153416928Y-124277367D01*
X153133626Y-123853374D01*
X152709633Y-123570072D01*
X152496912Y-123527759D01*
X153059500Y-123527759D01*
X153227980Y-123494246D01*
X153370810Y-123398810D01*
X153466246Y-123255980D01*
X153499759Y-123087500D01*
X153499759Y-121387500D01*
X153466246Y-121219020D01*
X153370810Y-121076190D01*
X153227980Y-120980754D01*
X153059500Y-120947241D01*
X151359500Y-120947241D01*
X151191020Y-120980754D01*
X151048190Y-121076190D01*
X150952754Y-121219020D01*
X150919241Y-121387500D01*
X150919241Y-121704200D01*
X142438901Y-121704200D01*
X138746179Y-118011479D01*
X138814300Y-117847020D01*
X138814300Y-117356980D01*
X138626769Y-116904242D01*
X138280258Y-116557731D01*
X137827520Y-116370200D01*
X137337480Y-116370200D01*
X136884742Y-116557731D01*
X136538231Y-116904242D01*
X136350700Y-117356980D01*
X133814300Y-117356980D01*
X133626769Y-116904242D01*
X133280258Y-116557731D01*
X133115800Y-116489610D01*
X133115800Y-115299517D01*
X133126246Y-115247000D01*
X133115800Y-115194483D01*
X133115800Y-115194479D01*
X133094481Y-115087300D01*
X133277520Y-115087300D01*
X133730258Y-114899769D01*
X134076769Y-114553258D01*
X134264300Y-114100520D01*
X134264300Y-113855500D01*
X136856568Y-113855500D01*
X136952170Y-114336124D01*
X137224422Y-114743578D01*
X137631876Y-115015830D01*
X137991180Y-115087300D01*
X138233820Y-115087300D01*
X138593124Y-115015830D01*
X139000578Y-114743578D01*
X139272830Y-114336124D01*
X139368432Y-113855500D01*
X139285189Y-113437011D01*
X139349401Y-113372800D01*
X144493110Y-113372800D01*
X144561231Y-113537258D01*
X144907742Y-113883769D01*
X145360480Y-114071300D01*
X145850520Y-114071300D01*
X146303258Y-113883769D01*
X146649769Y-113537258D01*
X146837300Y-113084520D01*
X146837300Y-112594480D01*
X146649769Y-112141742D01*
X146303258Y-111795231D01*
X145850520Y-111607700D01*
X145360480Y-111607700D01*
X144907742Y-111795231D01*
X144561231Y-112141742D01*
X144493110Y-112306200D01*
X139181016Y-112306200D01*
X139128500Y-112295754D01*
X139075984Y-112306200D01*
X139075979Y-112306200D01*
X138920417Y-112337143D01*
X138920415Y-112337144D01*
X138920416Y-112337144D01*
X138788537Y-112425262D01*
X138788534Y-112425265D01*
X138744013Y-112455013D01*
X138714264Y-112499535D01*
X138530989Y-112682811D01*
X138233820Y-112623700D01*
X137991180Y-112623700D01*
X137631876Y-112695170D01*
X137224422Y-112967422D01*
X136952170Y-113374876D01*
X136856568Y-113855500D01*
X134264300Y-113855500D01*
X134264300Y-113610480D01*
X134076769Y-113157742D01*
X133730258Y-112811231D01*
X133565800Y-112743110D01*
X133565800Y-111348390D01*
X133730258Y-111280269D01*
X134076769Y-110933758D01*
X134264300Y-110481020D01*
X134264300Y-110236000D01*
X136856568Y-110236000D01*
X136952170Y-110716624D01*
X137224422Y-111124078D01*
X137631876Y-111396330D01*
X137991180Y-111467800D01*
X138233820Y-111467800D01*
X138593124Y-111396330D01*
X139000578Y-111124078D01*
X139272830Y-110716624D01*
X139368432Y-110236000D01*
X139285189Y-109817511D01*
X141508220Y-107594480D01*
X144373700Y-107594480D01*
X144373700Y-108084520D01*
X144561231Y-108537258D01*
X144907742Y-108883769D01*
X145360480Y-109071300D01*
X145850520Y-109071300D01*
X146303258Y-108883769D01*
X146649769Y-108537258D01*
X146837300Y-108084520D01*
X146837300Y-107594480D01*
X146649769Y-107141742D01*
X146303258Y-106795231D01*
X145850520Y-106607700D01*
X145360480Y-106607700D01*
X144907742Y-106795231D01*
X144561231Y-107141742D01*
X144373700Y-107594480D01*
X141508220Y-107594480D01*
X144511648Y-104591053D01*
X144561231Y-104710758D01*
X144907742Y-105057269D01*
X145360480Y-105244800D01*
X145850520Y-105244800D01*
X146303258Y-105057269D01*
X146649769Y-104710758D01*
X146837300Y-104258020D01*
X146837300Y-103767980D01*
X146649769Y-103315242D01*
X146303258Y-102968731D01*
X145850520Y-102781200D01*
X145360480Y-102781200D01*
X144907742Y-102968731D01*
X144561231Y-103315242D01*
X144493110Y-103479700D01*
X144388016Y-103479700D01*
X144335500Y-103469254D01*
X144282984Y-103479700D01*
X144282979Y-103479700D01*
X144127417Y-103510643D01*
X144094891Y-103532376D01*
X143995537Y-103598762D01*
X143995534Y-103598765D01*
X143951013Y-103628513D01*
X143921265Y-103673034D01*
X138530989Y-109063311D01*
X138233820Y-109004200D01*
X137991180Y-109004200D01*
X137631876Y-109075670D01*
X137224422Y-109347922D01*
X136952170Y-109755376D01*
X136856568Y-110236000D01*
X134264300Y-110236000D01*
X134264300Y-109990980D01*
X134076769Y-109538242D01*
X133730258Y-109191731D01*
X133565800Y-109123610D01*
X133565800Y-107411390D01*
X133730258Y-107343269D01*
X134076769Y-106996758D01*
X134221213Y-106648039D01*
X136720596Y-106648039D01*
X136881459Y-107036423D01*
X137257366Y-107451389D01*
X137763459Y-107690914D01*
X137985500Y-107569629D01*
X137985500Y-106426000D01*
X138239500Y-106426000D01*
X138239500Y-107569629D01*
X138461541Y-107690914D01*
X138967634Y-107451389D01*
X139343541Y-107036423D01*
X139504404Y-106648039D01*
X139382415Y-106426000D01*
X138239500Y-106426000D01*
X137985500Y-106426000D01*
X136842585Y-106426000D01*
X136720596Y-106648039D01*
X134221213Y-106648039D01*
X134264300Y-106544020D01*
X134264300Y-106053980D01*
X134221214Y-105949961D01*
X136720596Y-105949961D01*
X136842585Y-106172000D01*
X137985500Y-106172000D01*
X137985500Y-105028371D01*
X138239500Y-105028371D01*
X138239500Y-106172000D01*
X139382415Y-106172000D01*
X139504404Y-105949961D01*
X139343541Y-105561577D01*
X138967634Y-105146611D01*
X138461541Y-104907086D01*
X138239500Y-105028371D01*
X137985500Y-105028371D01*
X137763459Y-104907086D01*
X137257366Y-105146611D01*
X136881459Y-105561577D01*
X136720596Y-105949961D01*
X134221214Y-105949961D01*
X134076769Y-105601242D01*
X133730258Y-105254731D01*
X133344748Y-105095047D01*
X130141189Y-101891489D01*
X130224432Y-101473000D01*
X130128830Y-100992376D01*
X129856578Y-100584922D01*
X129449124Y-100312670D01*
X129089820Y-100241200D01*
X128847180Y-100241200D01*
X128487876Y-100312670D01*
X128080422Y-100584922D01*
X127808170Y-100992376D01*
X127712568Y-101473000D01*
X127808170Y-101953624D01*
X128080422Y-102361078D01*
X128487876Y-102633330D01*
X128847180Y-102704800D01*
X129089820Y-102704800D01*
X129386989Y-102645689D01*
X132165386Y-105424087D01*
X131988231Y-105601242D01*
X131800700Y-106053980D01*
X131800700Y-106544020D01*
X131988231Y-106996758D01*
X132334742Y-107343269D01*
X132499200Y-107411390D01*
X132499201Y-109123610D01*
X132334742Y-109191731D01*
X131988231Y-109538242D01*
X131800700Y-109990980D01*
X131800700Y-110481020D01*
X131988231Y-110933758D01*
X132334742Y-111280269D01*
X132499200Y-111348390D01*
X132499201Y-112743110D01*
X132334742Y-112811231D01*
X131988231Y-113157742D01*
X131800700Y-113610480D01*
X131800700Y-113711000D01*
X130141189Y-112051489D01*
X130224432Y-111633000D01*
X130128830Y-111152376D01*
X129856578Y-110744922D01*
X129449124Y-110472670D01*
X129089820Y-110401200D01*
X128847180Y-110401200D01*
X128487876Y-110472670D01*
X128447899Y-110499382D01*
X128447899Y-110367800D01*
X128508461Y-110307239D01*
X128550011Y-110265689D01*
X128847180Y-110324800D01*
X129089820Y-110324800D01*
X129449124Y-110253330D01*
X129856578Y-109981078D01*
X130128830Y-109573624D01*
X130224432Y-109093000D01*
X130128830Y-108612376D01*
X129856578Y-108204922D01*
X129449124Y-107932670D01*
X129089820Y-107861200D01*
X128847180Y-107861200D01*
X128487876Y-107932670D01*
X128080422Y-108204922D01*
X127808170Y-108612376D01*
X127712568Y-109093000D01*
X127795811Y-109511489D01*
X127574635Y-109732665D01*
X127530113Y-109762414D01*
X127500365Y-109806935D01*
X127500361Y-109806939D01*
X127412243Y-109938818D01*
X127370853Y-110146901D01*
X127381300Y-110199422D01*
X127381299Y-116629275D01*
X126845226Y-117165348D01*
X126710769Y-116840742D01*
X126364258Y-116494231D01*
X126199800Y-116426110D01*
X126199800Y-110075900D01*
X128550011Y-107725689D01*
X128847180Y-107784800D01*
X129089820Y-107784800D01*
X129449124Y-107713330D01*
X129856578Y-107441078D01*
X130128830Y-107033624D01*
X130224432Y-106553000D01*
X130128830Y-106072376D01*
X129856578Y-105664922D01*
X129449124Y-105392670D01*
X129089820Y-105321200D01*
X128847180Y-105321200D01*
X128487876Y-105392670D01*
X128080422Y-105664922D01*
X127808170Y-106072376D01*
X127712568Y-106553000D01*
X127795811Y-106971489D01*
X125326535Y-109440765D01*
X125282014Y-109470513D01*
X125252266Y-109515034D01*
X125252262Y-109515038D01*
X125164144Y-109646917D01*
X125122754Y-109855000D01*
X125133201Y-109907521D01*
X125133200Y-116426110D01*
X124968742Y-116494231D01*
X124622231Y-116840742D01*
X124434700Y-117293480D01*
X124434700Y-117783520D01*
X124622231Y-118236258D01*
X124968742Y-118582769D01*
X125293348Y-118717226D01*
X120820373Y-123190201D01*
X120296014Y-123190201D01*
X120243498Y-123179755D01*
X120190982Y-123190201D01*
X120190978Y-123190201D01*
X120035416Y-123221144D01*
X119859012Y-123339014D01*
X119852404Y-123348904D01*
X119564820Y-123291700D01*
X119322180Y-123291700D01*
X118962876Y-123363170D01*
X118555422Y-123635422D01*
X118283170Y-124042876D01*
X118187568Y-124523500D01*
X118283170Y-125004124D01*
X118330182Y-125074482D01*
X118177444Y-125044101D01*
X118177443Y-125044101D01*
X118109901Y-125030666D01*
X118042359Y-125044101D01*
X118037118Y-125044101D01*
X118063830Y-125004124D01*
X118159432Y-124523500D01*
X118063830Y-124042876D01*
X117791578Y-123635422D01*
X117384124Y-123363170D01*
X117024820Y-123291700D01*
X116782180Y-123291700D01*
X116422876Y-123363170D01*
X116015422Y-123635422D01*
X115743170Y-124042876D01*
X115647568Y-124523500D01*
X115743170Y-125004124D01*
X115769882Y-125044101D01*
X114710968Y-125044101D01*
X107205367Y-117538500D01*
X109410568Y-117538500D01*
X109506170Y-118019124D01*
X109778422Y-118426578D01*
X110185876Y-118698830D01*
X110545180Y-118770300D01*
X110787820Y-118770300D01*
X111147124Y-118698830D01*
X111554578Y-118426578D01*
X111826830Y-118019124D01*
X111922432Y-117538500D01*
X111826830Y-117057876D01*
X111554578Y-116650422D01*
X111147124Y-116378170D01*
X110787820Y-116306700D01*
X110545180Y-116306700D01*
X110185876Y-116378170D01*
X109778422Y-116650422D01*
X109506170Y-117057876D01*
X109410568Y-117538500D01*
X107205367Y-117538500D01*
X104783259Y-115116393D01*
X104783259Y-112446000D01*
X104749746Y-112277520D01*
X104654310Y-112134690D01*
X104511480Y-112039254D01*
X104343000Y-112005741D01*
X101143000Y-112005741D01*
X100974520Y-112039254D01*
X100831690Y-112134690D01*
X100736254Y-112277520D01*
X100702741Y-112446000D01*
X100702741Y-115646000D01*
X100736254Y-115814480D01*
X100831690Y-115957310D01*
X100974520Y-116052746D01*
X101143000Y-116086259D01*
X101840873Y-116086259D01*
X100629934Y-117297200D01*
X95829842Y-117297200D01*
X95728087Y-117144913D01*
X95504151Y-116995284D01*
X95240001Y-116942741D01*
X95136079Y-116942741D01*
X95063653Y-116834347D01*
X95046899Y-116823152D01*
X95046899Y-112115650D01*
X95322480Y-112229800D01*
X95812520Y-112229800D01*
X96265258Y-112042269D01*
X96611769Y-111695758D01*
X96637764Y-111633000D01*
X120092568Y-111633000D01*
X120188170Y-112113624D01*
X120460422Y-112521078D01*
X120867876Y-112793330D01*
X121227180Y-112864800D01*
X121469820Y-112864800D01*
X121829124Y-112793330D01*
X122236578Y-112521078D01*
X122508830Y-112113624D01*
X122604432Y-111633000D01*
X122508830Y-111152376D01*
X122236578Y-110744922D01*
X121829124Y-110472670D01*
X121469820Y-110401200D01*
X121227180Y-110401200D01*
X120867876Y-110472670D01*
X120460422Y-110744922D01*
X120188170Y-111152376D01*
X120092568Y-111633000D01*
X96637764Y-111633000D01*
X96799300Y-111243020D01*
X96799300Y-110752980D01*
X96611769Y-110300242D01*
X96265258Y-109953731D01*
X95812520Y-109766200D01*
X95322480Y-109766200D01*
X95046899Y-109880350D01*
X95046899Y-107398665D01*
X95247020Y-107198544D01*
X95322480Y-107229800D01*
X95812520Y-107229800D01*
X96265258Y-107042269D01*
X96611769Y-106695758D01*
X96799300Y-106243020D01*
X96799300Y-105791000D01*
X100801089Y-105791000D01*
X100900572Y-106291133D01*
X101183874Y-106715126D01*
X101607867Y-106998428D01*
X101820588Y-107040741D01*
X101258000Y-107040741D01*
X101089520Y-107074254D01*
X100946690Y-107169690D01*
X100851254Y-107312520D01*
X100817741Y-107481000D01*
X100817741Y-109181000D01*
X100851254Y-109349480D01*
X100946690Y-109492310D01*
X101089520Y-109587746D01*
X101258000Y-109621259D01*
X102958000Y-109621259D01*
X103126480Y-109587746D01*
X103269310Y-109492310D01*
X103364746Y-109349480D01*
X103398259Y-109181000D01*
X103398259Y-109093000D01*
X120092568Y-109093000D01*
X120188170Y-109573624D01*
X120460422Y-109981078D01*
X120867876Y-110253330D01*
X121227180Y-110324800D01*
X121469820Y-110324800D01*
X121829124Y-110253330D01*
X122236578Y-109981078D01*
X122508830Y-109573624D01*
X122604432Y-109093000D01*
X122508830Y-108612376D01*
X122236578Y-108204922D01*
X121829124Y-107932670D01*
X121469820Y-107861200D01*
X121227180Y-107861200D01*
X120867876Y-107932670D01*
X120460422Y-108204922D01*
X120188170Y-108612376D01*
X120092568Y-109093000D01*
X103398259Y-109093000D01*
X103398259Y-108864300D01*
X108421984Y-108864300D01*
X108474500Y-108874746D01*
X108527016Y-108864300D01*
X108527021Y-108864300D01*
X108682583Y-108833357D01*
X108858987Y-108715487D01*
X108888737Y-108670963D01*
X110033521Y-107526179D01*
X110197980Y-107594300D01*
X110688020Y-107594300D01*
X111140758Y-107406769D01*
X111487269Y-107060258D01*
X111674800Y-106607520D01*
X111674800Y-106117480D01*
X114211200Y-106117480D01*
X114211200Y-106607520D01*
X114398731Y-107060258D01*
X114745242Y-107406769D01*
X115197980Y-107594300D01*
X115688020Y-107594300D01*
X116140758Y-107406769D01*
X116487269Y-107060258D01*
X116555390Y-106895800D01*
X120160755Y-106895800D01*
X120188170Y-107033624D01*
X120460422Y-107441078D01*
X120867876Y-107713330D01*
X121227180Y-107784800D01*
X121469820Y-107784800D01*
X121829124Y-107713330D01*
X122236578Y-107441078D01*
X122508830Y-107033624D01*
X122604432Y-106553000D01*
X122508830Y-106072376D01*
X122236578Y-105664922D01*
X121829124Y-105392670D01*
X121469820Y-105321200D01*
X121227180Y-105321200D01*
X120867876Y-105392670D01*
X120460422Y-105664922D01*
X120350655Y-105829200D01*
X116555390Y-105829200D01*
X116487269Y-105664742D01*
X116140758Y-105318231D01*
X115688020Y-105130700D01*
X115197980Y-105130700D01*
X114745242Y-105318231D01*
X114398731Y-105664742D01*
X114211200Y-106117480D01*
X111674800Y-106117480D01*
X111487269Y-105664742D01*
X111140758Y-105318231D01*
X110688020Y-105130700D01*
X110197980Y-105130700D01*
X109745242Y-105318231D01*
X109398731Y-105664742D01*
X109211200Y-106117480D01*
X109211200Y-106607520D01*
X109279321Y-106771979D01*
X108253600Y-107797700D01*
X103398259Y-107797700D01*
X103398259Y-107481000D01*
X103364746Y-107312520D01*
X103269310Y-107169690D01*
X103126480Y-107074254D01*
X102958000Y-107040741D01*
X102395412Y-107040741D01*
X102608133Y-106998428D01*
X103032126Y-106715126D01*
X103315428Y-106291133D01*
X103414911Y-105791000D01*
X103315428Y-105290867D01*
X103032126Y-104866874D01*
X102608133Y-104583572D01*
X102234241Y-104509200D01*
X101981759Y-104509200D01*
X101607867Y-104583572D01*
X101183874Y-104866874D01*
X100900572Y-105290867D01*
X100801089Y-105791000D01*
X96799300Y-105791000D01*
X96799300Y-105752980D01*
X96611769Y-105300242D01*
X96265258Y-104953731D01*
X95812520Y-104766200D01*
X95322480Y-104766200D01*
X95158121Y-104834280D01*
X93560900Y-103237060D01*
X93560900Y-102952820D01*
X93567627Y-102951482D01*
X94025525Y-102645525D01*
X94331482Y-102187626D01*
X94411800Y-101783840D01*
X94411800Y-101416159D01*
X94331482Y-101012373D01*
X94025524Y-100554475D01*
X93567626Y-100248518D01*
X93027500Y-100141080D01*
X92487373Y-100248518D01*
X92029475Y-100554476D01*
X91860844Y-100806851D01*
X91796818Y-100656909D01*
X91354424Y-100224027D01*
X90860480Y-100009437D01*
X90614500Y-100129406D01*
X90614500Y-101473000D01*
X90634500Y-101473000D01*
X90634500Y-101727000D01*
X90614500Y-101727000D01*
X90614500Y-103070594D01*
X90860480Y-103190563D01*
X91354424Y-102975973D01*
X91796818Y-102543091D01*
X91860844Y-102393149D01*
X92029476Y-102645525D01*
X92487374Y-102951482D01*
X92494101Y-102952820D01*
X92494101Y-103405470D01*
X92483652Y-103458000D01*
X92494101Y-103510531D01*
X92496448Y-103522330D01*
X92525050Y-103666122D01*
X92581002Y-103749859D01*
X92642942Y-103842559D01*
X92687475Y-103872315D01*
X94403780Y-105588621D01*
X94335700Y-105752980D01*
X94335700Y-106243020D01*
X94366956Y-106318480D01*
X94027905Y-106657531D01*
X93975947Y-106692248D01*
X93877012Y-106840315D01*
X93838407Y-106898092D01*
X93790108Y-107140901D01*
X93802300Y-107202193D01*
X93802299Y-116980077D01*
X93725849Y-116995284D01*
X93501913Y-117144913D01*
X93352284Y-117368849D01*
X93336222Y-117449600D01*
X90327441Y-117449600D01*
X89882213Y-117004372D01*
X89965432Y-116586000D01*
X89869830Y-116105376D01*
X89597578Y-115697922D01*
X89190124Y-115425670D01*
X88830820Y-115354200D01*
X88588180Y-115354200D01*
X88228876Y-115425670D01*
X87821422Y-115697922D01*
X87584434Y-116052600D01*
X82329759Y-116052600D01*
X82329759Y-115786000D01*
X82296246Y-115617520D01*
X82200810Y-115474690D01*
X82057980Y-115379254D01*
X81889500Y-115345741D01*
X80289500Y-115345741D01*
X80121020Y-115379254D01*
X79978190Y-115474690D01*
X79882754Y-115617520D01*
X79849241Y-115786000D01*
X79849241Y-117386000D01*
X79882754Y-117554480D01*
X79978190Y-117697310D01*
X80121020Y-117792746D01*
X80289500Y-117826259D01*
X81889500Y-117826259D01*
X82057980Y-117792746D01*
X82200810Y-117697310D01*
X82296246Y-117554480D01*
X82329759Y-117386000D01*
X82329759Y-117119400D01*
X87584434Y-117119400D01*
X87821422Y-117474078D01*
X88228876Y-117746330D01*
X88588180Y-117817800D01*
X88830820Y-117817800D01*
X89127872Y-117758713D01*
X89692184Y-118323025D01*
X89721941Y-118367559D01*
X89898378Y-118485451D01*
X90053969Y-118516400D01*
X90053973Y-118516400D01*
X90106499Y-118526848D01*
X90159025Y-118516400D01*
X93336222Y-118516400D01*
X93352284Y-118597151D01*
X93501913Y-118821087D01*
X93725849Y-118970716D01*
X93935414Y-119012401D01*
X93596114Y-119239114D01*
X93368066Y-119580412D01*
X93287986Y-119983000D01*
X93368066Y-120385588D01*
X93596114Y-120726886D01*
X93937412Y-120954934D01*
X94078509Y-120983000D01*
X93937412Y-121011066D01*
X93596114Y-121239114D01*
X93368066Y-121580412D01*
X93287986Y-121983000D01*
X93368066Y-122385588D01*
X93596114Y-122726886D01*
X93821471Y-122877465D01*
X93115236Y-123583700D01*
X89775165Y-123583700D01*
X89597578Y-123317922D01*
X89190124Y-123045670D01*
X88830820Y-122974200D01*
X88588180Y-122974200D01*
X88228876Y-123045670D01*
X87821422Y-123317922D01*
X87549170Y-123725376D01*
X87453568Y-124206000D01*
X87549170Y-124686624D01*
X87821422Y-125094078D01*
X88176100Y-125331066D01*
X88176101Y-130739558D01*
X86411879Y-132503780D01*
X86247520Y-132435700D01*
X85757480Y-132435700D01*
X85304742Y-132623231D01*
X84958231Y-132969742D01*
X84770700Y-133422480D01*
X84770700Y-133912520D01*
X84884850Y-134188101D01*
X84742759Y-134188101D01*
X84742759Y-132867500D01*
X84709246Y-132699020D01*
X84613810Y-132556190D01*
X84470980Y-132460754D01*
X84302500Y-132427241D01*
X84035900Y-132427241D01*
X84035900Y-124131525D01*
X84046348Y-124078999D01*
X84035900Y-124026473D01*
X84035900Y-124026469D01*
X84004951Y-123870878D01*
X83887059Y-123694441D01*
X83842526Y-123664685D01*
X82262213Y-122084372D01*
X82345432Y-121666000D01*
X87453568Y-121666000D01*
X87549170Y-122146624D01*
X87821422Y-122554078D01*
X88228876Y-122826330D01*
X88588180Y-122897800D01*
X88830820Y-122897800D01*
X89190124Y-122826330D01*
X89597578Y-122554078D01*
X89869830Y-122146624D01*
X89965432Y-121666000D01*
X89869830Y-121185376D01*
X89597578Y-120777922D01*
X89190124Y-120505670D01*
X88830820Y-120434200D01*
X88588180Y-120434200D01*
X88228876Y-120505670D01*
X87821422Y-120777922D01*
X87549170Y-121185376D01*
X87453568Y-121666000D01*
X82345432Y-121666000D01*
X82249830Y-121185376D01*
X81977578Y-120777922D01*
X81570124Y-120505670D01*
X81210820Y-120434200D01*
X80968180Y-120434200D01*
X80608876Y-120505670D01*
X80201422Y-120777922D01*
X79929170Y-121185376D01*
X79833568Y-121666000D01*
X79929170Y-122146624D01*
X80201422Y-122554078D01*
X80608876Y-122826330D01*
X80968180Y-122897800D01*
X81210820Y-122897800D01*
X81507872Y-122838713D01*
X82969100Y-124299941D01*
X82969101Y-132427241D01*
X82702500Y-132427241D01*
X82534020Y-132460754D01*
X82391190Y-132556190D01*
X82295754Y-132699020D01*
X82262241Y-132867500D01*
X82262241Y-134188101D01*
X76993662Y-134188101D01*
X72893540Y-130087980D01*
X73131151Y-130040716D01*
X73355087Y-129891087D01*
X73504716Y-129667151D01*
X73546401Y-129457585D01*
X73773115Y-129796886D01*
X74114413Y-130024934D01*
X74517000Y-130105014D01*
X74919588Y-130024934D01*
X75260886Y-129796886D01*
X75488934Y-129455587D01*
X75517000Y-129314489D01*
X75545067Y-129455588D01*
X75773115Y-129796886D01*
X76114413Y-130024934D01*
X76517000Y-130105014D01*
X76919588Y-130024934D01*
X77260886Y-129796886D01*
X77488934Y-129455587D01*
X77548800Y-129154621D01*
X77548800Y-128401378D01*
X77488934Y-128100412D01*
X77260886Y-127759114D01*
X76919587Y-127531066D01*
X76517000Y-127450986D01*
X76114412Y-127531066D01*
X75773114Y-127759114D01*
X75545066Y-128100413D01*
X75517000Y-128241509D01*
X75488934Y-128100412D01*
X75260886Y-127759114D01*
X74919587Y-127531066D01*
X74517000Y-127450986D01*
X74114412Y-127531066D01*
X73773114Y-127759114D01*
X73546401Y-128098414D01*
X73504716Y-127888849D01*
X73355087Y-127664913D01*
X73131151Y-127515284D01*
X72867001Y-127462741D01*
X72166999Y-127462741D01*
X71902849Y-127515284D01*
X71678913Y-127664913D01*
X71529284Y-127888849D01*
X71476741Y-128152999D01*
X71476741Y-128671181D01*
X69329300Y-126523740D01*
X69329300Y-118643500D01*
X69562241Y-118643500D01*
X69562241Y-120243500D01*
X69595754Y-120411980D01*
X69691190Y-120554810D01*
X69834020Y-120650246D01*
X70002500Y-120683759D01*
X71330459Y-120683759D01*
X71262472Y-120729186D01*
X71262470Y-120729188D01*
X71217940Y-120758942D01*
X71205721Y-120777229D01*
X71047520Y-120711700D01*
X70557480Y-120711700D01*
X70104742Y-120899231D01*
X69758231Y-121245742D01*
X69570700Y-121698480D01*
X69570700Y-122188520D01*
X69758231Y-122641258D01*
X70104742Y-122987769D01*
X70557480Y-123175300D01*
X71047520Y-123175300D01*
X71500258Y-122987769D01*
X71846769Y-122641258D01*
X72034300Y-122188520D01*
X72034300Y-121698480D01*
X72025362Y-121676901D01*
X77806061Y-121676901D01*
X79916787Y-123787628D01*
X79833568Y-124206000D01*
X79929170Y-124686624D01*
X80201422Y-125094078D01*
X80608876Y-125366330D01*
X80968180Y-125437800D01*
X81210820Y-125437800D01*
X81570124Y-125366330D01*
X81977578Y-125094078D01*
X82249830Y-124686624D01*
X82345432Y-124206000D01*
X82249830Y-123725376D01*
X81977578Y-123317922D01*
X81570124Y-123045670D01*
X81210820Y-122974200D01*
X80968180Y-122974200D01*
X80671128Y-123033287D01*
X78441318Y-120803478D01*
X78411560Y-120758942D01*
X78235123Y-120641050D01*
X78079532Y-120610101D01*
X78079527Y-120610101D01*
X78027001Y-120599653D01*
X77974475Y-120610101D01*
X71831061Y-120610101D01*
X71913810Y-120554810D01*
X72009246Y-120411980D01*
X72042759Y-120243500D01*
X72042759Y-119976900D01*
X80176580Y-119976900D01*
X80201422Y-120014078D01*
X80608876Y-120286330D01*
X80968180Y-120357800D01*
X81210820Y-120357800D01*
X81570124Y-120286330D01*
X81977578Y-120014078D01*
X82249830Y-119606624D01*
X82345432Y-119126000D01*
X87453568Y-119126000D01*
X87549170Y-119606624D01*
X87821422Y-120014078D01*
X88228876Y-120286330D01*
X88588180Y-120357800D01*
X88830820Y-120357800D01*
X89190124Y-120286330D01*
X89597578Y-120014078D01*
X89869830Y-119606624D01*
X89965432Y-119126000D01*
X89869830Y-118645376D01*
X89597578Y-118237922D01*
X89190124Y-117965670D01*
X88830820Y-117894200D01*
X88588180Y-117894200D01*
X88228876Y-117965670D01*
X87821422Y-118237922D01*
X87549170Y-118645376D01*
X87453568Y-119126000D01*
X82345432Y-119126000D01*
X82249830Y-118645376D01*
X81977578Y-118237922D01*
X81570124Y-117965670D01*
X81210820Y-117894200D01*
X80968180Y-117894200D01*
X80608876Y-117965670D01*
X80201422Y-118237922D01*
X79929170Y-118645376D01*
X79876513Y-118910100D01*
X72042759Y-118910100D01*
X72042759Y-118643500D01*
X72009246Y-118475020D01*
X71913810Y-118332190D01*
X71770980Y-118236754D01*
X71602500Y-118203241D01*
X70002500Y-118203241D01*
X69834020Y-118236754D01*
X69691190Y-118332190D01*
X69595754Y-118475020D01*
X69562241Y-118643500D01*
X69329300Y-118643500D01*
X69329300Y-112529236D01*
X69531578Y-112394078D01*
X69803830Y-111986624D01*
X69899432Y-111506000D01*
X69816213Y-111087628D01*
X70125442Y-110778399D01*
X72478850Y-110778399D01*
X72364700Y-111053980D01*
X72364700Y-111544020D01*
X72552231Y-111996758D01*
X72898742Y-112343269D01*
X73351480Y-112530800D01*
X73841520Y-112530800D01*
X74294258Y-112343269D01*
X74640769Y-111996758D01*
X74817745Y-111569500D01*
X77103068Y-111569500D01*
X77198670Y-112050124D01*
X77470922Y-112457578D01*
X77878376Y-112729830D01*
X78237680Y-112801300D01*
X78480320Y-112801300D01*
X78839624Y-112729830D01*
X79247078Y-112457578D01*
X79519330Y-112050124D01*
X79614932Y-111569500D01*
X79602302Y-111506000D01*
X84405568Y-111506000D01*
X84501170Y-111986624D01*
X84773422Y-112394078D01*
X85180876Y-112666330D01*
X85540180Y-112737800D01*
X85782820Y-112737800D01*
X86142124Y-112666330D01*
X86549578Y-112394078D01*
X86821830Y-111986624D01*
X86917432Y-111506000D01*
X86821830Y-111025376D01*
X86549578Y-110617922D01*
X86142124Y-110345670D01*
X85782820Y-110274200D01*
X85540180Y-110274200D01*
X85180876Y-110345670D01*
X84773422Y-110617922D01*
X84501170Y-111025376D01*
X84405568Y-111506000D01*
X79602302Y-111506000D01*
X79519330Y-111088876D01*
X79247078Y-110681422D01*
X78839624Y-110409170D01*
X78480320Y-110337700D01*
X78237680Y-110337700D01*
X77878376Y-110409170D01*
X77470922Y-110681422D01*
X77198670Y-111088876D01*
X77103068Y-111569500D01*
X74817745Y-111569500D01*
X74828300Y-111544020D01*
X74828300Y-111053980D01*
X74709726Y-110767719D01*
X74811623Y-110747450D01*
X74988060Y-110629558D01*
X75017818Y-110585022D01*
X77949621Y-107653220D01*
X78113980Y-107721300D01*
X78604020Y-107721300D01*
X79056758Y-107533769D01*
X79403269Y-107187258D01*
X79590800Y-106734520D01*
X79590800Y-106244480D01*
X79564498Y-106180980D01*
X84429700Y-106180980D01*
X84429700Y-106671020D01*
X84617231Y-107123758D01*
X84963742Y-107470269D01*
X85416480Y-107657800D01*
X85906520Y-107657800D01*
X86070880Y-107589720D01*
X89509700Y-111028541D01*
X89509700Y-111179520D01*
X89697231Y-111632258D01*
X90043742Y-111978769D01*
X90496480Y-112166300D01*
X90986520Y-112166300D01*
X91439258Y-111978769D01*
X91785769Y-111632258D01*
X91973300Y-111179520D01*
X91973300Y-110689480D01*
X91785769Y-110236742D01*
X91439258Y-109890231D01*
X90986520Y-109702700D01*
X90496480Y-109702700D01*
X90043742Y-109890231D01*
X89961907Y-109972066D01*
X86825220Y-106835380D01*
X86893300Y-106671020D01*
X86893300Y-106203541D01*
X89349586Y-106203541D01*
X89589111Y-106709634D01*
X90004077Y-107085541D01*
X90392461Y-107246404D01*
X90614500Y-107124415D01*
X90614500Y-105981500D01*
X90868500Y-105981500D01*
X90868500Y-107124415D01*
X91090539Y-107246404D01*
X91478923Y-107085541D01*
X91893889Y-106709634D01*
X92133414Y-106203541D01*
X92012129Y-105981500D01*
X90868500Y-105981500D01*
X90614500Y-105981500D01*
X89470871Y-105981500D01*
X89349586Y-106203541D01*
X86893300Y-106203541D01*
X86893300Y-106180980D01*
X86825220Y-106016621D01*
X87336382Y-105505459D01*
X89349586Y-105505459D01*
X89470871Y-105727500D01*
X90614500Y-105727500D01*
X90614500Y-104584585D01*
X90868500Y-104584585D01*
X90868500Y-105727500D01*
X92012129Y-105727500D01*
X92133414Y-105505459D01*
X91893889Y-104999366D01*
X91478923Y-104623459D01*
X91090539Y-104462596D01*
X90868500Y-104584585D01*
X90614500Y-104584585D01*
X90392461Y-104462596D01*
X90004077Y-104623459D01*
X89589111Y-104999366D01*
X89349586Y-105505459D01*
X87336382Y-105505459D01*
X88287526Y-104554315D01*
X88332059Y-104524559D01*
X88449951Y-104348122D01*
X88480900Y-104192531D01*
X88480900Y-104192527D01*
X88491348Y-104140001D01*
X88480900Y-104087475D01*
X88480900Y-103040259D01*
X88900000Y-103040259D01*
X89068480Y-103006746D01*
X89211310Y-102911310D01*
X89306746Y-102768480D01*
X89323328Y-102685116D01*
X89620576Y-102975973D01*
X90114520Y-103190563D01*
X90360500Y-103070594D01*
X90360500Y-101727000D01*
X90340500Y-101727000D01*
X90340500Y-101473000D01*
X90360500Y-101473000D01*
X90360500Y-100129406D01*
X90114520Y-100009437D01*
X89620576Y-100224027D01*
X89323328Y-100514884D01*
X89306746Y-100431520D01*
X89211310Y-100288690D01*
X89068480Y-100193254D01*
X88900000Y-100159741D01*
X86995000Y-100159741D01*
X86826520Y-100193254D01*
X86683690Y-100288690D01*
X86588254Y-100431520D01*
X86554741Y-100600000D01*
X86554741Y-102600000D01*
X86588254Y-102768480D01*
X86683690Y-102911310D01*
X86826520Y-103006746D01*
X86995000Y-103040259D01*
X87414100Y-103040259D01*
X87414100Y-103919059D01*
X86070879Y-105262280D01*
X85906520Y-105194200D01*
X85416480Y-105194200D01*
X84963742Y-105381731D01*
X84617231Y-105728242D01*
X84429700Y-106180980D01*
X79564498Y-106180980D01*
X79403269Y-105791742D01*
X79056758Y-105445231D01*
X78892400Y-105377151D01*
X78892400Y-101830327D01*
X78902848Y-101777800D01*
X78892400Y-101725273D01*
X78892400Y-101725269D01*
X78861451Y-101569678D01*
X78743559Y-101393241D01*
X78699025Y-101363484D01*
X78405017Y-101069477D01*
X78375259Y-101024941D01*
X78198822Y-100907049D01*
X78154157Y-100898165D01*
X78138982Y-100821873D01*
X77833024Y-100363975D01*
X77375126Y-100058018D01*
X77266800Y-100036471D01*
X77266800Y-95885000D01*
X100674089Y-95885000D01*
X100773572Y-96385133D01*
X101056874Y-96809126D01*
X101480867Y-97092428D01*
X101693588Y-97134741D01*
X101131000Y-97134741D01*
X100962520Y-97168254D01*
X100819690Y-97263690D01*
X100724254Y-97406520D01*
X100690741Y-97575000D01*
X100690741Y-99275000D01*
X100724254Y-99443480D01*
X100819690Y-99586310D01*
X100962520Y-99681746D01*
X101131000Y-99715259D01*
X102831000Y-99715259D01*
X102999480Y-99681746D01*
X103142310Y-99586310D01*
X103237746Y-99443480D01*
X103271259Y-99275000D01*
X103271259Y-98958300D01*
X105633600Y-98958300D01*
X108809311Y-102134011D01*
X108726068Y-102552500D01*
X108821670Y-103033124D01*
X109093922Y-103440578D01*
X109501376Y-103712830D01*
X109860680Y-103784300D01*
X110103320Y-103784300D01*
X110462624Y-103712830D01*
X110870078Y-103440578D01*
X111142330Y-103033124D01*
X111237932Y-102552500D01*
X111189195Y-102307480D01*
X113830200Y-102307480D01*
X113830200Y-102797520D01*
X114017731Y-103250258D01*
X114364242Y-103596769D01*
X114816980Y-103784300D01*
X115307020Y-103784300D01*
X115759758Y-103596769D01*
X116106269Y-103250258D01*
X116174390Y-103085800D01*
X119667100Y-103085800D01*
X120175811Y-103594511D01*
X120092568Y-104013000D01*
X120188170Y-104493624D01*
X120460422Y-104901078D01*
X120867876Y-105173330D01*
X121227180Y-105244800D01*
X121469820Y-105244800D01*
X121829124Y-105173330D01*
X122236578Y-104901078D01*
X122508830Y-104493624D01*
X122604432Y-104013000D01*
X127712568Y-104013000D01*
X127808170Y-104493624D01*
X128080422Y-104901078D01*
X128487876Y-105173330D01*
X128847180Y-105244800D01*
X129089820Y-105244800D01*
X129449124Y-105173330D01*
X129856578Y-104901078D01*
X130128830Y-104493624D01*
X130224432Y-104013000D01*
X130128830Y-103532376D01*
X129856578Y-103124922D01*
X129449124Y-102852670D01*
X129089820Y-102781200D01*
X128847180Y-102781200D01*
X128487876Y-102852670D01*
X128080422Y-103124922D01*
X127808170Y-103532376D01*
X127712568Y-104013000D01*
X122604432Y-104013000D01*
X122508830Y-103532376D01*
X122236578Y-103124922D01*
X121829124Y-102852670D01*
X121469820Y-102781200D01*
X121227180Y-102781200D01*
X120930011Y-102840311D01*
X120302237Y-102212537D01*
X120272487Y-102168013D01*
X120096083Y-102050143D01*
X119940521Y-102019200D01*
X119940516Y-102019200D01*
X119888000Y-102008754D01*
X119835484Y-102019200D01*
X116174390Y-102019200D01*
X116106269Y-101854742D01*
X115759758Y-101508231D01*
X115307020Y-101320700D01*
X114816980Y-101320700D01*
X114364242Y-101508231D01*
X114017731Y-101854742D01*
X113830200Y-102307480D01*
X111189195Y-102307480D01*
X111142330Y-102071876D01*
X110870078Y-101664422D01*
X110462624Y-101392170D01*
X110103320Y-101320700D01*
X109860680Y-101320700D01*
X109563511Y-101379811D01*
X106862700Y-98679000D01*
X108662568Y-98679000D01*
X108758170Y-99159624D01*
X109030422Y-99567078D01*
X109437876Y-99839330D01*
X109797180Y-99910800D01*
X110039820Y-99910800D01*
X110399124Y-99839330D01*
X110806578Y-99567078D01*
X111078830Y-99159624D01*
X111174432Y-98679000D01*
X111078830Y-98198376D01*
X110806578Y-97790922D01*
X110399124Y-97518670D01*
X110039820Y-97447200D01*
X109797180Y-97447200D01*
X109437876Y-97518670D01*
X109030422Y-97790922D01*
X108758170Y-98198376D01*
X108662568Y-98679000D01*
X106862700Y-98679000D01*
X106268737Y-98085037D01*
X106238987Y-98040513D01*
X106062583Y-97922643D01*
X105907021Y-97891700D01*
X105907016Y-97891700D01*
X105854500Y-97881254D01*
X105801984Y-97891700D01*
X103271259Y-97891700D01*
X103271259Y-97575000D01*
X103237746Y-97406520D01*
X103142310Y-97263690D01*
X102999480Y-97168254D01*
X102831000Y-97134741D01*
X102268412Y-97134741D01*
X102481133Y-97092428D01*
X102905126Y-96809126D01*
X103188428Y-96385133D01*
X103287911Y-95885000D01*
X103188428Y-95384867D01*
X102905126Y-94960874D01*
X102481133Y-94677572D01*
X102211709Y-94623980D01*
X109194700Y-94623980D01*
X109194700Y-95114020D01*
X109382231Y-95566758D01*
X109728742Y-95913269D01*
X110181480Y-96100800D01*
X110671520Y-96100800D01*
X111124258Y-95913269D01*
X111470769Y-95566758D01*
X111658300Y-95114020D01*
X111658300Y-94623980D01*
X111470769Y-94171242D01*
X111124258Y-93824731D01*
X110671520Y-93637200D01*
X110181480Y-93637200D01*
X109728742Y-93824731D01*
X109382231Y-94171242D01*
X109194700Y-94623980D01*
X102211709Y-94623980D01*
X102107241Y-94603200D01*
X101854759Y-94603200D01*
X101480867Y-94677572D01*
X101056874Y-94960874D01*
X100773572Y-95384867D01*
X100674089Y-95885000D01*
X77266800Y-95885000D01*
X77266800Y-90369480D01*
X109131200Y-90369480D01*
X109131200Y-90859520D01*
X109318731Y-91312258D01*
X109665242Y-91658769D01*
X110117980Y-91846300D01*
X110608020Y-91846300D01*
X110619980Y-91841346D01*
X114084806Y-95306174D01*
X114123066Y-95363434D01*
X114349914Y-95515009D01*
X114361773Y-95517368D01*
X114382231Y-95566758D01*
X114728742Y-95913269D01*
X115181480Y-96100800D01*
X115671520Y-96100800D01*
X116124258Y-95913269D01*
X116470769Y-95566758D01*
X116538890Y-95402300D01*
X117063600Y-95402300D01*
X120175811Y-98514511D01*
X120092568Y-98933000D01*
X120188170Y-99413624D01*
X120460422Y-99821078D01*
X120867876Y-100093330D01*
X121227180Y-100164800D01*
X121469820Y-100164800D01*
X121829124Y-100093330D01*
X122236578Y-99821078D01*
X122508830Y-99413624D01*
X122604432Y-98933000D01*
X122508830Y-98452376D01*
X122236578Y-98044922D01*
X121829124Y-97772670D01*
X121469820Y-97701200D01*
X121227180Y-97701200D01*
X120930011Y-97760311D01*
X117698737Y-94529037D01*
X117668987Y-94484513D01*
X117492583Y-94366643D01*
X117337021Y-94335700D01*
X117337016Y-94335700D01*
X117284500Y-94325254D01*
X117231984Y-94335700D01*
X116538890Y-94335700D01*
X116470769Y-94171242D01*
X116124258Y-93824731D01*
X115671520Y-93637200D01*
X115181480Y-93637200D01*
X114728742Y-93824731D01*
X114635920Y-93917553D01*
X111589846Y-90871480D01*
X111594800Y-90859520D01*
X111594800Y-90369480D01*
X111407269Y-89916742D01*
X111060758Y-89570231D01*
X110608020Y-89382700D01*
X110117980Y-89382700D01*
X109665242Y-89570231D01*
X109318731Y-89916742D01*
X109131200Y-90369480D01*
X77266800Y-90369480D01*
X77266800Y-84940000D01*
X88262957Y-84940000D01*
X88432290Y-85791296D01*
X88914511Y-86512989D01*
X89636204Y-86995210D01*
X90272616Y-87121800D01*
X90702384Y-87121800D01*
X91338796Y-86995210D01*
X92060489Y-86512989D01*
X92480934Y-85883750D01*
X98514000Y-85883750D01*
X98514000Y-86524310D01*
X98610673Y-86757699D01*
X98789302Y-86936327D01*
X99022691Y-87033000D01*
X99663250Y-87033000D01*
X99822000Y-86874250D01*
X99822000Y-85725000D01*
X98672750Y-85725000D01*
X98514000Y-85883750D01*
X92480934Y-85883750D01*
X92542710Y-85791296D01*
X92712043Y-84940000D01*
X92658673Y-84671690D01*
X98514000Y-84671690D01*
X98514000Y-85312250D01*
X98672750Y-85471000D01*
X99822000Y-85471000D01*
X99822000Y-84321750D01*
X100076000Y-84321750D01*
X100076000Y-85471000D01*
X100096000Y-85471000D01*
X100096000Y-85725000D01*
X100076000Y-85725000D01*
X100076000Y-86874250D01*
X100234750Y-87033000D01*
X100875309Y-87033000D01*
X101108698Y-86936327D01*
X101287327Y-86757699D01*
X101384000Y-86524310D01*
X101384000Y-86245709D01*
X101404731Y-86295758D01*
X101751242Y-86642269D01*
X102203980Y-86829800D01*
X102694020Y-86829800D01*
X103146758Y-86642269D01*
X103483547Y-86305480D01*
X109004200Y-86305480D01*
X109004200Y-86795520D01*
X109191731Y-87248258D01*
X109538242Y-87594769D01*
X109990980Y-87782300D01*
X110481020Y-87782300D01*
X110933758Y-87594769D01*
X111280269Y-87248258D01*
X111467800Y-86795520D01*
X111467800Y-86550500D01*
X114060068Y-86550500D01*
X114155670Y-87031124D01*
X114427922Y-87438578D01*
X114782700Y-87675633D01*
X114782701Y-88770979D01*
X114772254Y-88823500D01*
X114813644Y-89031583D01*
X114901762Y-89163462D01*
X114901766Y-89163466D01*
X114931514Y-89207987D01*
X114976035Y-89237735D01*
X115154295Y-89415995D01*
X114962376Y-89454170D01*
X114554922Y-89726422D01*
X114282670Y-90133876D01*
X114187068Y-90614500D01*
X114282670Y-91095124D01*
X114554922Y-91502578D01*
X114962376Y-91774830D01*
X115321680Y-91846300D01*
X115564320Y-91846300D01*
X115861489Y-91787189D01*
X120154740Y-96080440D01*
X120092568Y-96393000D01*
X120188170Y-96873624D01*
X120460422Y-97281078D01*
X120867876Y-97553330D01*
X121227180Y-97624800D01*
X121469820Y-97624800D01*
X121829124Y-97553330D01*
X122236578Y-97281078D01*
X122508830Y-96873624D01*
X122604432Y-96393000D01*
X122508830Y-95912376D01*
X122236578Y-95504922D01*
X121829124Y-95232670D01*
X121469820Y-95161200D01*
X121227180Y-95161200D01*
X120867876Y-95232670D01*
X120836401Y-95253701D01*
X120675959Y-95093259D01*
X122148500Y-95093259D01*
X122316980Y-95059746D01*
X122459810Y-94964310D01*
X122555246Y-94821480D01*
X122588759Y-94653000D01*
X122588759Y-93503961D01*
X127576596Y-93503961D01*
X127698585Y-93726000D01*
X128841500Y-93726000D01*
X128841500Y-92582371D01*
X129095500Y-92582371D01*
X129095500Y-93726000D01*
X130238415Y-93726000D01*
X130360404Y-93503961D01*
X130199541Y-93115577D01*
X129823634Y-92700611D01*
X129317541Y-92461086D01*
X129095500Y-92582371D01*
X128841500Y-92582371D01*
X128619459Y-92461086D01*
X128113366Y-92700611D01*
X127737459Y-93115577D01*
X127576596Y-93503961D01*
X122588759Y-93503961D01*
X122588759Y-93053000D01*
X122555246Y-92884520D01*
X122459810Y-92741690D01*
X122316980Y-92646254D01*
X122148500Y-92612741D01*
X120548500Y-92612741D01*
X120380020Y-92646254D01*
X120237190Y-92741690D01*
X120141754Y-92884520D01*
X120140006Y-92893306D01*
X115849300Y-88602600D01*
X115849300Y-87675633D01*
X116204078Y-87438578D01*
X116239891Y-87384980D01*
X121212700Y-87384980D01*
X121212700Y-87875020D01*
X121400231Y-88327758D01*
X121746742Y-88674269D01*
X122199480Y-88861800D01*
X122689520Y-88861800D01*
X123142258Y-88674269D01*
X123178782Y-88637745D01*
X126616361Y-88637745D01*
X126690495Y-88883864D01*
X127227723Y-89076965D01*
X127797954Y-89049778D01*
X128198505Y-88883864D01*
X128272639Y-88637745D01*
X127444500Y-87809605D01*
X126616361Y-88637745D01*
X123178782Y-88637745D01*
X123488769Y-88327758D01*
X123676300Y-87875020D01*
X123676300Y-87413223D01*
X125997535Y-87413223D01*
X126024722Y-87983454D01*
X126190636Y-88384005D01*
X126436755Y-88458139D01*
X127264895Y-87630000D01*
X127624105Y-87630000D01*
X128452245Y-88458139D01*
X128698364Y-88384005D01*
X128891465Y-87846777D01*
X128864278Y-87276546D01*
X128698364Y-86875995D01*
X128452245Y-86801861D01*
X127624105Y-87630000D01*
X127264895Y-87630000D01*
X126436755Y-86801861D01*
X126190636Y-86875995D01*
X125997535Y-87413223D01*
X123676300Y-87413223D01*
X123676300Y-87384980D01*
X123488769Y-86932242D01*
X123178782Y-86622255D01*
X126616361Y-86622255D01*
X127444500Y-87450395D01*
X128272639Y-86622255D01*
X128198505Y-86376136D01*
X127661277Y-86183035D01*
X127091046Y-86210222D01*
X126690495Y-86376136D01*
X126616361Y-86622255D01*
X123178782Y-86622255D01*
X123142258Y-86585731D01*
X122689520Y-86398200D01*
X122199480Y-86398200D01*
X121746742Y-86585731D01*
X121400231Y-86932242D01*
X121212700Y-87384980D01*
X116239891Y-87384980D01*
X116476330Y-87031124D01*
X116571932Y-86550500D01*
X116476330Y-86069876D01*
X116204078Y-85662422D01*
X115796624Y-85390170D01*
X115437320Y-85318700D01*
X115194680Y-85318700D01*
X114835376Y-85390170D01*
X114427922Y-85662422D01*
X114155670Y-86069876D01*
X114060068Y-86550500D01*
X111467800Y-86550500D01*
X111467800Y-86305480D01*
X111280269Y-85852742D01*
X110933758Y-85506231D01*
X110481020Y-85318700D01*
X109990980Y-85318700D01*
X109538242Y-85506231D01*
X109191731Y-85852742D01*
X109004200Y-86305480D01*
X103483547Y-86305480D01*
X103493269Y-86295758D01*
X103680800Y-85843020D01*
X103680800Y-85352980D01*
X103493269Y-84900242D01*
X103146758Y-84553731D01*
X102694020Y-84366200D01*
X102203980Y-84366200D01*
X101751242Y-84553731D01*
X101404731Y-84900242D01*
X101384000Y-84950291D01*
X101384000Y-84671690D01*
X101287327Y-84438301D01*
X101108698Y-84259673D01*
X100875309Y-84163000D01*
X100234750Y-84163000D01*
X100076000Y-84321750D01*
X99822000Y-84321750D01*
X99663250Y-84163000D01*
X99022691Y-84163000D01*
X98789302Y-84259673D01*
X98610673Y-84438301D01*
X98514000Y-84671690D01*
X92658673Y-84671690D01*
X92542710Y-84088704D01*
X92490456Y-84010500D01*
X131326568Y-84010500D01*
X131422170Y-84491124D01*
X131694422Y-84898578D01*
X132049200Y-85135633D01*
X132049201Y-86695367D01*
X131694422Y-86932422D01*
X131422170Y-87339876D01*
X131326568Y-87820500D01*
X131422170Y-88301124D01*
X131694422Y-88708578D01*
X132101876Y-88980830D01*
X132461180Y-89052300D01*
X132703820Y-89052300D01*
X133063124Y-88980830D01*
X133470578Y-88708578D01*
X133742830Y-88301124D01*
X133838432Y-87820500D01*
X133742830Y-87339876D01*
X133470578Y-86932422D01*
X133115800Y-86695367D01*
X133115800Y-85135633D01*
X133470578Y-84898578D01*
X133675667Y-84591640D01*
X133687036Y-84599236D01*
X136498821Y-87411021D01*
X136430700Y-87575480D01*
X136430700Y-88065520D01*
X136618231Y-88518258D01*
X136964742Y-88864769D01*
X137417480Y-89052300D01*
X137907520Y-89052300D01*
X138360258Y-88864769D01*
X138706769Y-88518258D01*
X138894300Y-88065520D01*
X138894300Y-87575480D01*
X138706769Y-87122742D01*
X138360258Y-86776231D01*
X137907520Y-86588700D01*
X137417480Y-86588700D01*
X137253021Y-86656821D01*
X134560301Y-83964101D01*
X134560301Y-83765480D01*
X136430700Y-83765480D01*
X136430700Y-84255520D01*
X136618231Y-84708258D01*
X136964742Y-85054769D01*
X137417480Y-85242300D01*
X137907520Y-85242300D01*
X138360258Y-85054769D01*
X138706769Y-84708258D01*
X138894300Y-84255520D01*
X138894300Y-84071274D01*
X144962331Y-84071274D01*
X145026631Y-84309111D01*
X145534842Y-84488833D01*
X146073144Y-84460392D01*
X146438369Y-84309111D01*
X146502669Y-84071274D01*
X145732500Y-83301105D01*
X144962331Y-84071274D01*
X138894300Y-84071274D01*
X138894300Y-83765480D01*
X138826179Y-83601021D01*
X139503358Y-82923842D01*
X144365167Y-82923842D01*
X144393608Y-83462144D01*
X144544889Y-83827369D01*
X144782726Y-83891669D01*
X145552895Y-83121500D01*
X145912105Y-83121500D01*
X146682274Y-83891669D01*
X146920111Y-83827369D01*
X147099833Y-83319158D01*
X147071392Y-82780856D01*
X146920111Y-82415631D01*
X146682274Y-82351331D01*
X145912105Y-83121500D01*
X145552895Y-83121500D01*
X144782726Y-82351331D01*
X144544889Y-82415631D01*
X144365167Y-82923842D01*
X139503358Y-82923842D01*
X140255474Y-82171726D01*
X144962331Y-82171726D01*
X145732500Y-82941895D01*
X146502669Y-82171726D01*
X146438369Y-81933889D01*
X145930158Y-81754167D01*
X145391856Y-81782608D01*
X145026631Y-81933889D01*
X144962331Y-82171726D01*
X140255474Y-82171726D01*
X141312400Y-81114800D01*
X144706701Y-81114800D01*
X144756051Y-81233942D01*
X145080058Y-81557949D01*
X145503393Y-81733300D01*
X145961607Y-81733300D01*
X146384942Y-81557949D01*
X146708949Y-81233942D01*
X146884300Y-80810607D01*
X146884300Y-80352393D01*
X146708949Y-79929058D01*
X146384942Y-79605051D01*
X146265800Y-79555701D01*
X146265800Y-79067299D01*
X146384942Y-79017949D01*
X146708949Y-78693942D01*
X146884300Y-78270607D01*
X146884300Y-77812393D01*
X146708949Y-77389058D01*
X146384942Y-77065051D01*
X145961607Y-76889700D01*
X145503393Y-76889700D01*
X145080058Y-77065051D01*
X144756051Y-77389058D01*
X144580700Y-77812393D01*
X144580700Y-78270607D01*
X144756051Y-78693942D01*
X145080058Y-79017949D01*
X145199200Y-79067299D01*
X145199200Y-79555701D01*
X145080058Y-79605051D01*
X144756051Y-79929058D01*
X144706701Y-80048200D01*
X141144015Y-80048200D01*
X141091499Y-80037754D01*
X141038983Y-80048200D01*
X141038979Y-80048200D01*
X140883417Y-80079143D01*
X140707013Y-80197013D01*
X140677263Y-80241537D01*
X138071979Y-82846821D01*
X137907520Y-82778700D01*
X137417480Y-82778700D01*
X136964742Y-82966231D01*
X136618231Y-83312742D01*
X136430700Y-83765480D01*
X134560301Y-83765480D01*
X134560301Y-79891800D01*
X134976107Y-79891800D01*
X135399442Y-79716449D01*
X135723449Y-79392442D01*
X135898800Y-78969107D01*
X135898800Y-78510893D01*
X136135200Y-78510893D01*
X136135200Y-78969107D01*
X136310551Y-79392442D01*
X136634558Y-79716449D01*
X137057893Y-79891800D01*
X137516107Y-79891800D01*
X137939442Y-79716449D01*
X138263449Y-79392442D01*
X138438800Y-78969107D01*
X138438800Y-78510893D01*
X138263449Y-78087558D01*
X137939442Y-77763551D01*
X137516107Y-77588200D01*
X137057893Y-77588200D01*
X136634558Y-77763551D01*
X136310551Y-78087558D01*
X136135200Y-78510893D01*
X135898800Y-78510893D01*
X135723449Y-78087558D01*
X135399442Y-77763551D01*
X134976107Y-77588200D01*
X134517893Y-77588200D01*
X134094558Y-77763551D01*
X133770551Y-78087558D01*
X133595200Y-78510893D01*
X133595200Y-78969107D01*
X133640514Y-79078505D01*
X133524644Y-79251917D01*
X133493701Y-79407479D01*
X133493701Y-79407483D01*
X133483255Y-79459999D01*
X133493701Y-79512515D01*
X133493702Y-83157029D01*
X133470578Y-83122422D01*
X133063124Y-82850170D01*
X132703820Y-82778700D01*
X132461180Y-82778700D01*
X132101876Y-82850170D01*
X131694422Y-83122422D01*
X131422170Y-83529876D01*
X131326568Y-84010500D01*
X92490456Y-84010500D01*
X92060489Y-83367011D01*
X91338796Y-82884790D01*
X90702384Y-82758200D01*
X90272616Y-82758200D01*
X89636204Y-82884790D01*
X88914511Y-83367011D01*
X88432290Y-84088704D01*
X88262957Y-84940000D01*
X77266800Y-84940000D01*
X77266800Y-82423000D01*
X108662568Y-82423000D01*
X108758170Y-82903624D01*
X109030422Y-83311078D01*
X109437876Y-83583330D01*
X109797180Y-83654800D01*
X110039820Y-83654800D01*
X110399124Y-83583330D01*
X110806578Y-83311078D01*
X111078830Y-82903624D01*
X111174432Y-82423000D01*
X111125695Y-82177980D01*
X113766700Y-82177980D01*
X113766700Y-82668020D01*
X113954231Y-83120758D01*
X114300742Y-83467269D01*
X114753480Y-83654800D01*
X115243520Y-83654800D01*
X115696258Y-83467269D01*
X116042769Y-83120758D01*
X116230300Y-82668020D01*
X116230300Y-82177980D01*
X116042769Y-81725242D01*
X115696258Y-81378731D01*
X115243520Y-81191200D01*
X114753480Y-81191200D01*
X114300742Y-81378731D01*
X113954231Y-81725242D01*
X113766700Y-82177980D01*
X111125695Y-82177980D01*
X111091189Y-82004511D01*
X114288799Y-78806901D01*
X114583088Y-78928800D01*
X115112912Y-78928800D01*
X115602404Y-78726046D01*
X115651291Y-78677159D01*
X116447446Y-78677159D01*
X116533852Y-78933643D01*
X117107336Y-79143458D01*
X117717460Y-79117839D01*
X118162148Y-78933643D01*
X118248554Y-78677159D01*
X118082288Y-78510893D01*
X131055200Y-78510893D01*
X131055200Y-78969107D01*
X131230551Y-79392442D01*
X131554558Y-79716449D01*
X131977893Y-79891800D01*
X132436107Y-79891800D01*
X132859442Y-79716449D01*
X133183449Y-79392442D01*
X133358800Y-78969107D01*
X133358800Y-78510893D01*
X133183449Y-78087558D01*
X132859442Y-77763551D01*
X132436107Y-77588200D01*
X131977893Y-77588200D01*
X131554558Y-77763551D01*
X131230551Y-78087558D01*
X131055200Y-78510893D01*
X118082288Y-78510893D01*
X117348000Y-77776605D01*
X116447446Y-78677159D01*
X115651291Y-78677159D01*
X115977046Y-78351404D01*
X115981828Y-78339859D01*
X116011357Y-78411148D01*
X116267841Y-78497554D01*
X117168395Y-77597000D01*
X117527605Y-77597000D01*
X118428159Y-78497554D01*
X118684643Y-78411148D01*
X118894458Y-77837664D01*
X118868839Y-77227540D01*
X118684643Y-76782852D01*
X118428159Y-76696446D01*
X117527605Y-77597000D01*
X117168395Y-77597000D01*
X116267841Y-76696446D01*
X116011357Y-76782852D01*
X115983658Y-76858560D01*
X115977046Y-76842596D01*
X115651291Y-76516841D01*
X116447446Y-76516841D01*
X117348000Y-77417395D01*
X118248554Y-76516841D01*
X118162148Y-76260357D01*
X117588664Y-76050542D01*
X116978540Y-76076161D01*
X116533852Y-76260357D01*
X116447446Y-76516841D01*
X115651291Y-76516841D01*
X115602404Y-76467954D01*
X115112912Y-76265200D01*
X114583088Y-76265200D01*
X114093596Y-76467954D01*
X113718954Y-76842596D01*
X113598000Y-77134605D01*
X113477046Y-76842596D01*
X113102404Y-76467954D01*
X112612912Y-76265200D01*
X112083088Y-76265200D01*
X111593596Y-76467954D01*
X111218954Y-76842596D01*
X111016200Y-77332088D01*
X111016200Y-77861912D01*
X111218954Y-78351404D01*
X111593596Y-78726046D01*
X112083088Y-78928800D01*
X112612912Y-78928800D01*
X112690736Y-78896564D01*
X110336989Y-81250311D01*
X110039820Y-81191200D01*
X109797180Y-81191200D01*
X109437876Y-81262670D01*
X109030422Y-81534922D01*
X108758170Y-81942376D01*
X108662568Y-82423000D01*
X77266800Y-82423000D01*
X77266800Y-77907722D01*
X77278758Y-77902769D01*
X77625269Y-77556258D01*
X77630222Y-77544300D01*
X84681458Y-77544300D01*
X84749000Y-77557735D01*
X84794336Y-77548717D01*
X84971980Y-77622300D01*
X85462020Y-77622300D01*
X85914758Y-77434769D01*
X86261269Y-77088258D01*
X86448800Y-76635520D01*
X86448800Y-76145480D01*
X86261269Y-75692742D01*
X85914758Y-75346231D01*
X85462020Y-75158700D01*
X84971980Y-75158700D01*
X84519242Y-75346231D01*
X84172731Y-75692742D01*
X83985200Y-76145480D01*
X83985200Y-76172700D01*
X77630222Y-76172700D01*
X77625269Y-76160742D01*
X77278758Y-75814231D01*
X76826020Y-75626700D01*
X76335980Y-75626700D01*
X75883242Y-75814231D01*
X75536731Y-76160742D01*
X75349200Y-76613480D01*
X75349200Y-77103520D01*
X75536731Y-77556258D01*
X75883242Y-77902769D01*
X75895200Y-77907722D01*
X75895200Y-83217235D01*
X75867989Y-83176511D01*
X75146296Y-82694290D01*
X74509884Y-82567700D01*
X74080116Y-82567700D01*
X73443704Y-82694290D01*
X72722011Y-83176511D01*
X72239790Y-83898204D01*
X72070457Y-84749500D01*
X72239790Y-85600796D01*
X72722011Y-86322489D01*
X73443704Y-86804710D01*
X74080116Y-86931300D01*
X74509884Y-86931300D01*
X75146296Y-86804710D01*
X75867989Y-86322489D01*
X75895200Y-86281764D01*
X75895201Y-100325071D01*
X75836975Y-100363976D01*
X75565000Y-100771016D01*
X75293024Y-100363975D01*
X74835126Y-100058018D01*
X74295000Y-99950580D01*
X73754873Y-100058018D01*
X73296975Y-100363976D01*
X73147759Y-100587294D01*
X73147759Y-100409500D01*
X73114246Y-100241020D01*
X73018810Y-100098190D01*
X72875980Y-100002754D01*
X72707500Y-99969241D01*
X70802500Y-99969241D01*
X70634020Y-100002754D01*
X70491190Y-100098190D01*
X70395754Y-100241020D01*
X70362241Y-100409500D01*
X70362241Y-100926384D01*
X70214741Y-101024941D01*
X70184984Y-101069475D01*
X68303475Y-102950985D01*
X68258942Y-102980741D01*
X68229186Y-103025274D01*
X68229185Y-103025275D01*
X68141050Y-103157178D01*
X68099652Y-103365300D01*
X68110101Y-103417831D01*
X68110100Y-105313651D01*
X67945742Y-105381731D01*
X67599231Y-105728242D01*
X67411700Y-106180980D01*
X67411700Y-106671020D01*
X67599231Y-107123758D01*
X67945742Y-107470269D01*
X68398480Y-107657800D01*
X68888520Y-107657800D01*
X69341258Y-107470269D01*
X69687769Y-107123758D01*
X69875300Y-106671020D01*
X69875300Y-106180980D01*
X69687769Y-105728242D01*
X69341258Y-105381731D01*
X69176900Y-105313651D01*
X69176900Y-103586240D01*
X70362241Y-102400900D01*
X70362241Y-102409500D01*
X70395754Y-102577980D01*
X70491190Y-102720810D01*
X70634020Y-102816246D01*
X70802500Y-102849759D01*
X72707500Y-102849759D01*
X72875980Y-102816246D01*
X73018810Y-102720810D01*
X73063101Y-102654524D01*
X73063100Y-105186651D01*
X72898742Y-105254731D01*
X72552231Y-105601242D01*
X72364700Y-106053980D01*
X72364700Y-106544020D01*
X72552231Y-106996758D01*
X72898742Y-107343269D01*
X73351480Y-107530800D01*
X73841520Y-107530800D01*
X74294258Y-107343269D01*
X74640769Y-106996758D01*
X74828300Y-106544020D01*
X74828300Y-106053980D01*
X74640769Y-105601242D01*
X74294258Y-105254731D01*
X74129900Y-105186651D01*
X74129900Y-102835579D01*
X74295000Y-102868420D01*
X74835127Y-102760982D01*
X75293025Y-102455025D01*
X75565000Y-102047984D01*
X75836976Y-102455025D01*
X76294874Y-102760982D01*
X76835000Y-102868420D01*
X77375127Y-102760982D01*
X77825601Y-102459986D01*
X77825600Y-105377151D01*
X77661242Y-105445231D01*
X77314731Y-105791742D01*
X77127200Y-106244480D01*
X77127200Y-106734520D01*
X77195280Y-106898879D01*
X74382561Y-109711599D01*
X69957028Y-109711599D01*
X69904501Y-109701151D01*
X69851974Y-109711599D01*
X69851970Y-109711599D01*
X69696379Y-109742548D01*
X69519942Y-109860440D01*
X69490185Y-109904974D01*
X69061872Y-110333287D01*
X68764820Y-110274200D01*
X68522180Y-110274200D01*
X68162876Y-110345670D01*
X67755422Y-110617922D01*
X67483170Y-111025376D01*
X67387568Y-111506000D01*
X67483170Y-111986624D01*
X67755422Y-112394078D01*
X67957700Y-112529236D01*
X67957701Y-126740259D01*
X67944265Y-126807806D01*
X67997491Y-127075391D01*
X67997492Y-127075392D01*
X68149067Y-127302240D01*
X68206330Y-127340502D01*
X75680301Y-134814474D01*
X68960571Y-134857672D01*
X68841922Y-134739023D01*
X68095150Y-134429700D01*
X67286850Y-134429700D01*
X66548259Y-134735634D01*
X66608002Y-73558500D01*
X75340741Y-73558500D01*
X75340741Y-75158500D01*
X75374254Y-75326980D01*
X75469690Y-75469810D01*
X75612520Y-75565246D01*
X75781000Y-75598759D01*
X77381000Y-75598759D01*
X77549480Y-75565246D01*
X77692310Y-75469810D01*
X77787746Y-75326980D01*
X77821259Y-75158500D01*
X77821259Y-73558500D01*
X77787746Y-73390020D01*
X77692310Y-73247190D01*
X77549480Y-73151754D01*
X77381000Y-73118241D01*
X75781000Y-73118241D01*
X75612520Y-73151754D01*
X75469690Y-73247190D01*
X75374254Y-73390020D01*
X75340741Y-73558500D01*
X66608002Y-73558500D01*
X66611382Y-70097656D01*
X97163864Y-68529745D01*
X96940551Y-68753058D01*
X96771064Y-69162236D01*
X90715489Y-75217811D01*
X90418320Y-75158700D01*
X90175680Y-75158700D01*
X89816376Y-75230170D01*
X89408922Y-75502422D01*
X89136670Y-75909876D01*
X89041068Y-76390500D01*
X89136670Y-76871124D01*
X89408922Y-77278578D01*
X89816376Y-77550830D01*
X90175680Y-77622300D01*
X90418320Y-77622300D01*
X90777624Y-77550830D01*
X91185078Y-77278578D01*
X91457330Y-76871124D01*
X91552932Y-76390500D01*
X91469689Y-75972011D01*
X93185307Y-74256393D01*
X96765200Y-74256393D01*
X96765200Y-74714607D01*
X96940551Y-75137942D01*
X97264558Y-75461949D01*
X97687893Y-75637300D01*
X98146107Y-75637300D01*
X98569442Y-75461949D01*
X98893449Y-75137942D01*
X99068800Y-74714607D01*
X99068800Y-74256393D01*
X98893449Y-73833058D01*
X98569442Y-73509051D01*
X98146107Y-73333700D01*
X97687893Y-73333700D01*
X97264558Y-73509051D01*
X96940551Y-73833058D01*
X96765200Y-74256393D01*
X93185307Y-74256393D01*
X97162155Y-70279546D01*
X97264558Y-70381949D01*
X97687893Y-70557300D01*
X98146107Y-70557300D01*
X98265250Y-70507950D01*
X99354550Y-71597250D01*
X99305200Y-71716393D01*
X99305200Y-72174607D01*
X99480551Y-72597942D01*
X99804558Y-72921949D01*
X100227893Y-73097300D01*
X100686107Y-73097300D01*
X101109442Y-72921949D01*
X101433449Y-72597942D01*
X101608800Y-72174607D01*
X101608800Y-71716393D01*
X101433449Y-71293058D01*
X101109442Y-70969051D01*
X100686107Y-70793700D01*
X100227893Y-70793700D01*
X100108750Y-70843050D01*
X99378985Y-70113285D01*
X108016200Y-70113285D01*
X108016200Y-71080715D01*
X108386419Y-71974504D01*
X109070496Y-72658581D01*
X109964285Y-73028800D01*
X110931715Y-73028800D01*
X111825504Y-72658581D01*
X112509581Y-71974504D01*
X112879800Y-71080715D01*
X112879800Y-70113285D01*
X116816200Y-70113285D01*
X116816200Y-71080715D01*
X117186419Y-71974504D01*
X117870496Y-72658581D01*
X118764285Y-73028800D01*
X119731715Y-73028800D01*
X120625504Y-72658581D01*
X121309581Y-71974504D01*
X121679800Y-71080715D01*
X121679800Y-70113285D01*
X121309581Y-69219496D01*
X120625504Y-68535419D01*
X119731715Y-68165200D01*
X118764285Y-68165200D01*
X117870496Y-68535419D01*
X117186419Y-69219496D01*
X116816200Y-70113285D01*
X112879800Y-70113285D01*
X112509581Y-69219496D01*
X111825504Y-68535419D01*
X110931715Y-68165200D01*
X109964285Y-68165200D01*
X109070496Y-68535419D01*
X108386419Y-69219496D01*
X108016200Y-70113285D01*
X99378985Y-70113285D01*
X99019450Y-69753750D01*
X99068800Y-69634607D01*
X99068800Y-69176393D01*
X98893449Y-68753058D01*
X98596610Y-68456219D01*
X155447507Y-65538710D01*
X155325649Y-98653700D01*
X155325649Y-98653700D01*
G37*
X155325649Y-98653700D02*
X153309259Y-98653700D01*
X153309259Y-98337000D01*
X153275746Y-98168520D01*
X153180310Y-98025690D01*
X153037480Y-97930254D01*
X152869000Y-97896741D01*
X152501862Y-97896741D01*
X152433238Y-97794038D01*
X152433237Y-97794037D01*
X152403487Y-97749513D01*
X152358963Y-97719763D01*
X148431836Y-93792636D01*
X148402086Y-93748112D01*
X148225682Y-93630242D01*
X148070120Y-93599299D01*
X148070115Y-93599299D01*
X148017599Y-93588853D01*
X147965083Y-93599299D01*
X140159786Y-93599299D01*
X140107270Y-93588853D01*
X140054754Y-93599299D01*
X140054750Y-93599299D01*
X139899188Y-93630242D01*
X139722784Y-93748112D01*
X139693034Y-93792636D01*
X139151651Y-94334019D01*
X139000578Y-94107922D01*
X138593124Y-93835670D01*
X138233820Y-93764200D01*
X137991180Y-93764200D01*
X137631876Y-93835670D01*
X137224422Y-94107922D01*
X136952170Y-94515376D01*
X136856568Y-94996000D01*
X136952170Y-95476624D01*
X137224422Y-95884078D01*
X137631876Y-96156330D01*
X137991180Y-96227800D01*
X138233820Y-96227800D01*
X138593124Y-96156330D01*
X139000578Y-95884078D01*
X139232204Y-95537425D01*
X139243870Y-95539746D01*
X139296386Y-95529300D01*
X139296391Y-95529300D01*
X139451953Y-95498357D01*
X139628357Y-95380487D01*
X139658107Y-95335963D01*
X140328171Y-94665899D01*
X141679136Y-94665899D01*
X141587417Y-94684143D01*
X141411013Y-94802013D01*
X141381263Y-94846537D01*
X138530989Y-97696811D01*
X138233820Y-97637700D01*
X137991180Y-97637700D01*
X137631876Y-97709170D01*
X137224422Y-97981422D01*
X136952170Y-98388876D01*
X136856568Y-98869500D01*
X136952170Y-99350124D01*
X136978882Y-99390101D01*
X134150150Y-99390101D01*
X134264300Y-99114520D01*
X134264300Y-98624480D01*
X134076769Y-98171742D01*
X133730258Y-97825231D01*
X133565800Y-97757110D01*
X133565800Y-96108390D01*
X133730258Y-96040269D01*
X134076769Y-95693758D01*
X134264300Y-95241020D01*
X134264300Y-94750980D01*
X134076769Y-94298242D01*
X133730258Y-93951731D01*
X133565800Y-93883610D01*
X133565800Y-92679390D01*
X133730258Y-92611269D01*
X134076769Y-92264758D01*
X134264300Y-91812020D01*
X134264300Y-91567000D01*
X136856568Y-91567000D01*
X136952170Y-92047624D01*
X137224422Y-92455078D01*
X137631876Y-92727330D01*
X137991180Y-92798800D01*
X138233820Y-92798800D01*
X138593124Y-92727330D01*
X139000578Y-92455078D01*
X139237633Y-92100300D01*
X148791484Y-92100300D01*
X148844000Y-92110746D01*
X148896516Y-92100300D01*
X148896521Y-92100300D01*
X149052083Y-92069357D01*
X149228487Y-91951487D01*
X149258237Y-91906963D01*
X151032618Y-90132582D01*
X150875072Y-90368367D01*
X150775589Y-90868500D01*
X150875072Y-91368633D01*
X151158374Y-91792626D01*
X151582367Y-92075928D01*
X151956259Y-92150300D01*
X152208741Y-92150300D01*
X152582633Y-92075928D01*
X153006626Y-91792626D01*
X153289928Y-91368633D01*
X153389411Y-90868500D01*
X153289928Y-90368367D01*
X153006626Y-89944374D01*
X152582633Y-89661072D01*
X152369912Y-89618759D01*
X152932500Y-89618759D01*
X153100980Y-89585246D01*
X153243810Y-89489810D01*
X153339246Y-89346980D01*
X153372759Y-89178500D01*
X153372759Y-87478500D01*
X153339246Y-87310020D01*
X153243810Y-87167190D01*
X153100980Y-87071754D01*
X152932500Y-87038241D01*
X151232500Y-87038241D01*
X151064020Y-87071754D01*
X150921190Y-87167190D01*
X150825754Y-87310020D01*
X150792241Y-87478500D01*
X150792241Y-88864559D01*
X148623100Y-91033700D01*
X146627327Y-91033700D01*
X146776769Y-90884258D01*
X146964300Y-90431520D01*
X146964300Y-89941480D01*
X146776769Y-89488742D01*
X146430258Y-89142231D01*
X145977520Y-88954700D01*
X145487480Y-88954700D01*
X145034742Y-89142231D01*
X144688231Y-89488742D01*
X144500700Y-89941480D01*
X144500700Y-90431520D01*
X144688231Y-90884258D01*
X144837673Y-91033700D01*
X139237633Y-91033700D01*
X139000578Y-90678922D01*
X138593124Y-90406670D01*
X138233820Y-90335200D01*
X137991180Y-90335200D01*
X137631876Y-90406670D01*
X137224422Y-90678922D01*
X136952170Y-91086376D01*
X136856568Y-91567000D01*
X134264300Y-91567000D01*
X134264300Y-91321980D01*
X134076769Y-90869242D01*
X133730258Y-90522731D01*
X133277520Y-90335200D01*
X132787480Y-90335200D01*
X132334742Y-90522731D01*
X131988231Y-90869242D01*
X131800700Y-91321980D01*
X131800700Y-91812020D01*
X131988231Y-92264758D01*
X132334742Y-92611269D01*
X132499200Y-92679390D01*
X132499201Y-93883610D01*
X132334742Y-93951731D01*
X131988231Y-94298242D01*
X131800700Y-94750980D01*
X131800700Y-95241020D01*
X131868821Y-95405479D01*
X131414600Y-95859700D01*
X130093633Y-95859700D01*
X129856578Y-95504922D01*
X129449124Y-95232670D01*
X129374693Y-95217865D01*
X129823634Y-95005389D01*
X130199541Y-94590423D01*
X130360404Y-94202039D01*
X130238415Y-93980000D01*
X129095500Y-93980000D01*
X129095500Y-94000000D01*
X128841500Y-94000000D01*
X128841500Y-93980000D01*
X127698585Y-93980000D01*
X127576596Y-94202039D01*
X127737459Y-94590423D01*
X128113366Y-95005389D01*
X128562307Y-95217865D01*
X128487876Y-95232670D01*
X128080422Y-95504922D01*
X127808170Y-95912376D01*
X127712568Y-96393000D01*
X127808170Y-96873624D01*
X128080422Y-97281078D01*
X128177284Y-97345799D01*
X124994922Y-97345799D01*
X124942401Y-97335352D01*
X124734318Y-97376742D01*
X124614589Y-97456743D01*
X124557914Y-97494612D01*
X124528164Y-97539136D01*
X121766989Y-100300311D01*
X121469820Y-100241200D01*
X121227180Y-100241200D01*
X120930011Y-100300311D01*
X118968737Y-98339037D01*
X118938987Y-98294513D01*
X118762583Y-98176643D01*
X118607021Y-98145700D01*
X118607016Y-98145700D01*
X118554500Y-98135254D01*
X118501984Y-98145700D01*
X116110890Y-98145700D01*
X116042769Y-97981242D01*
X115696258Y-97634731D01*
X115243520Y-97447200D01*
X114753480Y-97447200D01*
X114300742Y-97634731D01*
X113954231Y-97981242D01*
X113766700Y-98433980D01*
X113766700Y-98924020D01*
X113954231Y-99376758D01*
X114300742Y-99723269D01*
X114753480Y-99910800D01*
X115243520Y-99910800D01*
X115696258Y-99723269D01*
X116042769Y-99376758D01*
X116110890Y-99212300D01*
X118333600Y-99212300D01*
X120175811Y-101054511D01*
X120092568Y-101473000D01*
X120188170Y-101953624D01*
X120460422Y-102361078D01*
X120867876Y-102633330D01*
X121227180Y-102704800D01*
X121469820Y-102704800D01*
X121829124Y-102633330D01*
X122236578Y-102361078D01*
X122508830Y-101953624D01*
X122604432Y-101473000D01*
X122521189Y-101054511D01*
X125163301Y-98412399D01*
X127834882Y-98412399D01*
X127808170Y-98452376D01*
X127712568Y-98933000D01*
X127808170Y-99413624D01*
X128080422Y-99821078D01*
X128487876Y-100093330D01*
X128847180Y-100164800D01*
X129089820Y-100164800D01*
X129386989Y-100105689D01*
X131800700Y-102519400D01*
X131800700Y-102607020D01*
X131988231Y-103059758D01*
X132334742Y-103406269D01*
X132787480Y-103593800D01*
X133277520Y-103593800D01*
X133730258Y-103406269D01*
X134076769Y-103059758D01*
X134264300Y-102607020D01*
X134264300Y-102362000D01*
X136856568Y-102362000D01*
X136952170Y-102842624D01*
X137224422Y-103250078D01*
X137631876Y-103522330D01*
X137991180Y-103593800D01*
X138233820Y-103593800D01*
X138593124Y-103522330D01*
X139000578Y-103250078D01*
X139272830Y-102842624D01*
X139368432Y-102362000D01*
X139272830Y-101881376D01*
X139000578Y-101473922D01*
X138593124Y-101201670D01*
X138233820Y-101130200D01*
X137991180Y-101130200D01*
X137631876Y-101201670D01*
X137224422Y-101473922D01*
X136952170Y-101881376D01*
X136856568Y-102362000D01*
X134264300Y-102362000D01*
X134264300Y-102116980D01*
X134076769Y-101664242D01*
X133730258Y-101317731D01*
X133277520Y-101130200D01*
X132787480Y-101130200D01*
X132334742Y-101317731D01*
X132221087Y-101431387D01*
X130141189Y-99351489D01*
X130224432Y-98933000D01*
X130128830Y-98452376D01*
X130102118Y-98412399D01*
X130261425Y-98412399D01*
X132112390Y-100263364D01*
X132142140Y-100307888D01*
X132186664Y-100337638D01*
X132186665Y-100337639D01*
X132318544Y-100425758D01*
X132526627Y-100467148D01*
X132579148Y-100456701D01*
X143082809Y-100456701D01*
X143135325Y-100467147D01*
X143187841Y-100456701D01*
X143187846Y-100456701D01*
X143343408Y-100425758D01*
X143519812Y-100307888D01*
X143549562Y-100263364D01*
X144426774Y-99386152D01*
X144561231Y-99710758D01*
X144907742Y-100057269D01*
X145360480Y-100244800D01*
X145850520Y-100244800D01*
X146014979Y-100176679D01*
X151612701Y-105774401D01*
X151612700Y-110469741D01*
X151296000Y-110469741D01*
X151127520Y-110503254D01*
X150984690Y-110598690D01*
X150889254Y-110741520D01*
X150855741Y-110910000D01*
X150855741Y-112610000D01*
X150889254Y-112778480D01*
X150984690Y-112921310D01*
X151127520Y-113016746D01*
X151296000Y-113050259D01*
X151858588Y-113050259D01*
X151645867Y-113092572D01*
X151221874Y-113375874D01*
X150938572Y-113799867D01*
X150839089Y-114300000D01*
X150938572Y-114800133D01*
X151221874Y-115224126D01*
X151645867Y-115507428D01*
X152019759Y-115581800D01*
X152272241Y-115581800D01*
X152646133Y-115507428D01*
X153070126Y-115224126D01*
X153353428Y-114800133D01*
X153452911Y-114300000D01*
X153353428Y-113799867D01*
X153070126Y-113375874D01*
X152646133Y-113092572D01*
X152433412Y-113050259D01*
X152996000Y-113050259D01*
X153164480Y-113016746D01*
X153307310Y-112921310D01*
X153402746Y-112778480D01*
X153436259Y-112610000D01*
X153436259Y-110910000D01*
X153402746Y-110741520D01*
X153307310Y-110598690D01*
X153164480Y-110503254D01*
X152996000Y-110469741D01*
X152679300Y-110469741D01*
X152679300Y-105606017D01*
X152689746Y-105553500D01*
X152679300Y-105500983D01*
X152679300Y-105500979D01*
X152648357Y-105345417D01*
X152648357Y-105345416D01*
X152560238Y-105213538D01*
X152560237Y-105213537D01*
X152530487Y-105169013D01*
X152485963Y-105139263D01*
X146769179Y-99422479D01*
X146837300Y-99258020D01*
X146837300Y-98933274D01*
X155293503Y-107389477D01*
X155221526Y-126949101D01*
X138738118Y-126949101D01*
X138764830Y-126909124D01*
X138860432Y-126428500D01*
X138764830Y-125947876D01*
X138492578Y-125540422D01*
X138085124Y-125268170D01*
X137725820Y-125196700D01*
X137483180Y-125196700D01*
X137186011Y-125255811D01*
X133819800Y-121889600D01*
X133819800Y-121856500D01*
X136412068Y-121856500D01*
X136507670Y-122337124D01*
X136779922Y-122744578D01*
X137187376Y-123016830D01*
X137546680Y-123088300D01*
X137789320Y-123088300D01*
X138148624Y-123016830D01*
X138556078Y-122744578D01*
X138828330Y-122337124D01*
X138923932Y-121856500D01*
X138828330Y-121375876D01*
X138556078Y-120968422D01*
X138148624Y-120696170D01*
X137789320Y-120624700D01*
X137546680Y-120624700D01*
X137187376Y-120696170D01*
X136779922Y-120968422D01*
X136507670Y-121375876D01*
X136412068Y-121856500D01*
X133819800Y-121856500D01*
X133819800Y-121611480D01*
X133632269Y-121158742D01*
X133285758Y-120812231D01*
X132833020Y-120624700D01*
X132342980Y-120624700D01*
X131890242Y-120812231D01*
X131543731Y-121158742D01*
X131475610Y-121323200D01*
X124703021Y-121323200D01*
X124650500Y-121312753D01*
X124597979Y-121323200D01*
X124442417Y-121354143D01*
X124266013Y-121472013D01*
X124236263Y-121516537D01*
X122401989Y-123350811D01*
X122206958Y-123312016D01*
X128254562Y-117264412D01*
X128299086Y-117234662D01*
X128330424Y-117187762D01*
X128416956Y-117058259D01*
X128434400Y-116970559D01*
X128447899Y-116902696D01*
X128447899Y-116902692D01*
X128458345Y-116850175D01*
X128447899Y-116797658D01*
X128447899Y-112766618D01*
X128487876Y-112793330D01*
X128847180Y-112864800D01*
X129089820Y-112864800D01*
X129386989Y-112805689D01*
X132049201Y-115467901D01*
X132049200Y-116489610D01*
X131884742Y-116557731D01*
X131538231Y-116904242D01*
X131350700Y-117356980D01*
X131350700Y-117847020D01*
X131538231Y-118299758D01*
X131884742Y-118646269D01*
X132337480Y-118833800D01*
X132827520Y-118833800D01*
X133280258Y-118646269D01*
X133626769Y-118299758D01*
X133814300Y-117847020D01*
X133814300Y-117356980D01*
X136350700Y-117356980D01*
X136350700Y-117847020D01*
X136538231Y-118299758D01*
X136884742Y-118646269D01*
X137337480Y-118833800D01*
X137827520Y-118833800D01*
X137991979Y-118765679D01*
X141803765Y-122577466D01*
X141833513Y-122621987D01*
X141878034Y-122651735D01*
X141878037Y-122651738D01*
X141973167Y-122715301D01*
X142009917Y-122739857D01*
X142165479Y-122770800D01*
X142165484Y-122770800D01*
X142218000Y-122781246D01*
X142270516Y-122770800D01*
X150919241Y-122770800D01*
X150919241Y-123087500D01*
X150952754Y-123255980D01*
X151048190Y-123398810D01*
X151191020Y-123494246D01*
X151359500Y-123527759D01*
X151922088Y-123527759D01*
X151709367Y-123570072D01*
X151285374Y-123853374D01*
X151002072Y-124277367D01*
X150902589Y-124777500D01*
X151002072Y-125277633D01*
X151285374Y-125701626D01*
X151709367Y-125984928D01*
X152083259Y-126059300D01*
X152335741Y-126059300D01*
X152709633Y-125984928D01*
X153133626Y-125701626D01*
X153416928Y-125277633D01*
X153516411Y-124777500D01*
X153416928Y-124277367D01*
X153133626Y-123853374D01*
X152709633Y-123570072D01*
X152496912Y-123527759D01*
X153059500Y-123527759D01*
X153227980Y-123494246D01*
X153370810Y-123398810D01*
X153466246Y-123255980D01*
X153499759Y-123087500D01*
X153499759Y-121387500D01*
X153466246Y-121219020D01*
X153370810Y-121076190D01*
X153227980Y-120980754D01*
X153059500Y-120947241D01*
X151359500Y-120947241D01*
X151191020Y-120980754D01*
X151048190Y-121076190D01*
X150952754Y-121219020D01*
X150919241Y-121387500D01*
X150919241Y-121704200D01*
X142438901Y-121704200D01*
X138746179Y-118011479D01*
X138814300Y-117847020D01*
X138814300Y-117356980D01*
X138626769Y-116904242D01*
X138280258Y-116557731D01*
X137827520Y-116370200D01*
X137337480Y-116370200D01*
X136884742Y-116557731D01*
X136538231Y-116904242D01*
X136350700Y-117356980D01*
X133814300Y-117356980D01*
X133626769Y-116904242D01*
X133280258Y-116557731D01*
X133115800Y-116489610D01*
X133115800Y-115299517D01*
X133126246Y-115247000D01*
X133115800Y-115194483D01*
X133115800Y-115194479D01*
X133094481Y-115087300D01*
X133277520Y-115087300D01*
X133730258Y-114899769D01*
X134076769Y-114553258D01*
X134264300Y-114100520D01*
X134264300Y-113855500D01*
X136856568Y-113855500D01*
X136952170Y-114336124D01*
X137224422Y-114743578D01*
X137631876Y-115015830D01*
X137991180Y-115087300D01*
X138233820Y-115087300D01*
X138593124Y-115015830D01*
X139000578Y-114743578D01*
X139272830Y-114336124D01*
X139368432Y-113855500D01*
X139285189Y-113437011D01*
X139349401Y-113372800D01*
X144493110Y-113372800D01*
X144561231Y-113537258D01*
X144907742Y-113883769D01*
X145360480Y-114071300D01*
X145850520Y-114071300D01*
X146303258Y-113883769D01*
X146649769Y-113537258D01*
X146837300Y-113084520D01*
X146837300Y-112594480D01*
X146649769Y-112141742D01*
X146303258Y-111795231D01*
X145850520Y-111607700D01*
X145360480Y-111607700D01*
X144907742Y-111795231D01*
X144561231Y-112141742D01*
X144493110Y-112306200D01*
X139181016Y-112306200D01*
X139128500Y-112295754D01*
X139075984Y-112306200D01*
X139075979Y-112306200D01*
X138920417Y-112337143D01*
X138920415Y-112337144D01*
X138920416Y-112337144D01*
X138788537Y-112425262D01*
X138788534Y-112425265D01*
X138744013Y-112455013D01*
X138714264Y-112499535D01*
X138530989Y-112682811D01*
X138233820Y-112623700D01*
X137991180Y-112623700D01*
X137631876Y-112695170D01*
X137224422Y-112967422D01*
X136952170Y-113374876D01*
X136856568Y-113855500D01*
X134264300Y-113855500D01*
X134264300Y-113610480D01*
X134076769Y-113157742D01*
X133730258Y-112811231D01*
X133565800Y-112743110D01*
X133565800Y-111348390D01*
X133730258Y-111280269D01*
X134076769Y-110933758D01*
X134264300Y-110481020D01*
X134264300Y-110236000D01*
X136856568Y-110236000D01*
X136952170Y-110716624D01*
X137224422Y-111124078D01*
X137631876Y-111396330D01*
X137991180Y-111467800D01*
X138233820Y-111467800D01*
X138593124Y-111396330D01*
X139000578Y-111124078D01*
X139272830Y-110716624D01*
X139368432Y-110236000D01*
X139285189Y-109817511D01*
X141508220Y-107594480D01*
X144373700Y-107594480D01*
X144373700Y-108084520D01*
X144561231Y-108537258D01*
X144907742Y-108883769D01*
X145360480Y-109071300D01*
X145850520Y-109071300D01*
X146303258Y-108883769D01*
X146649769Y-108537258D01*
X146837300Y-108084520D01*
X146837300Y-107594480D01*
X146649769Y-107141742D01*
X146303258Y-106795231D01*
X145850520Y-106607700D01*
X145360480Y-106607700D01*
X144907742Y-106795231D01*
X144561231Y-107141742D01*
X144373700Y-107594480D01*
X141508220Y-107594480D01*
X144511648Y-104591053D01*
X144561231Y-104710758D01*
X144907742Y-105057269D01*
X145360480Y-105244800D01*
X145850520Y-105244800D01*
X146303258Y-105057269D01*
X146649769Y-104710758D01*
X146837300Y-104258020D01*
X146837300Y-103767980D01*
X146649769Y-103315242D01*
X146303258Y-102968731D01*
X145850520Y-102781200D01*
X145360480Y-102781200D01*
X144907742Y-102968731D01*
X144561231Y-103315242D01*
X144493110Y-103479700D01*
X144388016Y-103479700D01*
X144335500Y-103469254D01*
X144282984Y-103479700D01*
X144282979Y-103479700D01*
X144127417Y-103510643D01*
X144094891Y-103532376D01*
X143995537Y-103598762D01*
X143995534Y-103598765D01*
X143951013Y-103628513D01*
X143921265Y-103673034D01*
X138530989Y-109063311D01*
X138233820Y-109004200D01*
X137991180Y-109004200D01*
X137631876Y-109075670D01*
X137224422Y-109347922D01*
X136952170Y-109755376D01*
X136856568Y-110236000D01*
X134264300Y-110236000D01*
X134264300Y-109990980D01*
X134076769Y-109538242D01*
X133730258Y-109191731D01*
X133565800Y-109123610D01*
X133565800Y-107411390D01*
X133730258Y-107343269D01*
X134076769Y-106996758D01*
X134221213Y-106648039D01*
X136720596Y-106648039D01*
X136881459Y-107036423D01*
X137257366Y-107451389D01*
X137763459Y-107690914D01*
X137985500Y-107569629D01*
X137985500Y-106426000D01*
X138239500Y-106426000D01*
X138239500Y-107569629D01*
X138461541Y-107690914D01*
X138967634Y-107451389D01*
X139343541Y-107036423D01*
X139504404Y-106648039D01*
X139382415Y-106426000D01*
X138239500Y-106426000D01*
X137985500Y-106426000D01*
X136842585Y-106426000D01*
X136720596Y-106648039D01*
X134221213Y-106648039D01*
X134264300Y-106544020D01*
X134264300Y-106053980D01*
X134221214Y-105949961D01*
X136720596Y-105949961D01*
X136842585Y-106172000D01*
X137985500Y-106172000D01*
X137985500Y-105028371D01*
X138239500Y-105028371D01*
X138239500Y-106172000D01*
X139382415Y-106172000D01*
X139504404Y-105949961D01*
X139343541Y-105561577D01*
X138967634Y-105146611D01*
X138461541Y-104907086D01*
X138239500Y-105028371D01*
X137985500Y-105028371D01*
X137763459Y-104907086D01*
X137257366Y-105146611D01*
X136881459Y-105561577D01*
X136720596Y-105949961D01*
X134221214Y-105949961D01*
X134076769Y-105601242D01*
X133730258Y-105254731D01*
X133344748Y-105095047D01*
X130141189Y-101891489D01*
X130224432Y-101473000D01*
X130128830Y-100992376D01*
X129856578Y-100584922D01*
X129449124Y-100312670D01*
X129089820Y-100241200D01*
X128847180Y-100241200D01*
X128487876Y-100312670D01*
X128080422Y-100584922D01*
X127808170Y-100992376D01*
X127712568Y-101473000D01*
X127808170Y-101953624D01*
X128080422Y-102361078D01*
X128487876Y-102633330D01*
X128847180Y-102704800D01*
X129089820Y-102704800D01*
X129386989Y-102645689D01*
X132165386Y-105424087D01*
X131988231Y-105601242D01*
X131800700Y-106053980D01*
X131800700Y-106544020D01*
X131988231Y-106996758D01*
X132334742Y-107343269D01*
X132499200Y-107411390D01*
X132499201Y-109123610D01*
X132334742Y-109191731D01*
X131988231Y-109538242D01*
X131800700Y-109990980D01*
X131800700Y-110481020D01*
X131988231Y-110933758D01*
X132334742Y-111280269D01*
X132499200Y-111348390D01*
X132499201Y-112743110D01*
X132334742Y-112811231D01*
X131988231Y-113157742D01*
X131800700Y-113610480D01*
X131800700Y-113711000D01*
X130141189Y-112051489D01*
X130224432Y-111633000D01*
X130128830Y-111152376D01*
X129856578Y-110744922D01*
X129449124Y-110472670D01*
X129089820Y-110401200D01*
X128847180Y-110401200D01*
X128487876Y-110472670D01*
X128447899Y-110499382D01*
X128447899Y-110367800D01*
X128508461Y-110307239D01*
X128550011Y-110265689D01*
X128847180Y-110324800D01*
X129089820Y-110324800D01*
X129449124Y-110253330D01*
X129856578Y-109981078D01*
X130128830Y-109573624D01*
X130224432Y-109093000D01*
X130128830Y-108612376D01*
X129856578Y-108204922D01*
X129449124Y-107932670D01*
X129089820Y-107861200D01*
X128847180Y-107861200D01*
X128487876Y-107932670D01*
X128080422Y-108204922D01*
X127808170Y-108612376D01*
X127712568Y-109093000D01*
X127795811Y-109511489D01*
X127574635Y-109732665D01*
X127530113Y-109762414D01*
X127500365Y-109806935D01*
X127500361Y-109806939D01*
X127412243Y-109938818D01*
X127370853Y-110146901D01*
X127381300Y-110199422D01*
X127381299Y-116629275D01*
X126845226Y-117165348D01*
X126710769Y-116840742D01*
X126364258Y-116494231D01*
X126199800Y-116426110D01*
X126199800Y-110075900D01*
X128550011Y-107725689D01*
X128847180Y-107784800D01*
X129089820Y-107784800D01*
X129449124Y-107713330D01*
X129856578Y-107441078D01*
X130128830Y-107033624D01*
X130224432Y-106553000D01*
X130128830Y-106072376D01*
X129856578Y-105664922D01*
X129449124Y-105392670D01*
X129089820Y-105321200D01*
X128847180Y-105321200D01*
X128487876Y-105392670D01*
X128080422Y-105664922D01*
X127808170Y-106072376D01*
X127712568Y-106553000D01*
X127795811Y-106971489D01*
X125326535Y-109440765D01*
X125282014Y-109470513D01*
X125252266Y-109515034D01*
X125252262Y-109515038D01*
X125164144Y-109646917D01*
X125122754Y-109855000D01*
X125133201Y-109907521D01*
X125133200Y-116426110D01*
X124968742Y-116494231D01*
X124622231Y-116840742D01*
X124434700Y-117293480D01*
X124434700Y-117783520D01*
X124622231Y-118236258D01*
X124968742Y-118582769D01*
X125293348Y-118717226D01*
X120820373Y-123190201D01*
X120296014Y-123190201D01*
X120243498Y-123179755D01*
X120190982Y-123190201D01*
X120190978Y-123190201D01*
X120035416Y-123221144D01*
X119859012Y-123339014D01*
X119852404Y-123348904D01*
X119564820Y-123291700D01*
X119322180Y-123291700D01*
X118962876Y-123363170D01*
X118555422Y-123635422D01*
X118283170Y-124042876D01*
X118187568Y-124523500D01*
X118283170Y-125004124D01*
X118330182Y-125074482D01*
X118177444Y-125044101D01*
X118177443Y-125044101D01*
X118109901Y-125030666D01*
X118042359Y-125044101D01*
X118037118Y-125044101D01*
X118063830Y-125004124D01*
X118159432Y-124523500D01*
X118063830Y-124042876D01*
X117791578Y-123635422D01*
X117384124Y-123363170D01*
X117024820Y-123291700D01*
X116782180Y-123291700D01*
X116422876Y-123363170D01*
X116015422Y-123635422D01*
X115743170Y-124042876D01*
X115647568Y-124523500D01*
X115743170Y-125004124D01*
X115769882Y-125044101D01*
X114710968Y-125044101D01*
X107205367Y-117538500D01*
X109410568Y-117538500D01*
X109506170Y-118019124D01*
X109778422Y-118426578D01*
X110185876Y-118698830D01*
X110545180Y-118770300D01*
X110787820Y-118770300D01*
X111147124Y-118698830D01*
X111554578Y-118426578D01*
X111826830Y-118019124D01*
X111922432Y-117538500D01*
X111826830Y-117057876D01*
X111554578Y-116650422D01*
X111147124Y-116378170D01*
X110787820Y-116306700D01*
X110545180Y-116306700D01*
X110185876Y-116378170D01*
X109778422Y-116650422D01*
X109506170Y-117057876D01*
X109410568Y-117538500D01*
X107205367Y-117538500D01*
X104783259Y-115116393D01*
X104783259Y-112446000D01*
X104749746Y-112277520D01*
X104654310Y-112134690D01*
X104511480Y-112039254D01*
X104343000Y-112005741D01*
X101143000Y-112005741D01*
X100974520Y-112039254D01*
X100831690Y-112134690D01*
X100736254Y-112277520D01*
X100702741Y-112446000D01*
X100702741Y-115646000D01*
X100736254Y-115814480D01*
X100831690Y-115957310D01*
X100974520Y-116052746D01*
X101143000Y-116086259D01*
X101840873Y-116086259D01*
X100629934Y-117297200D01*
X95829842Y-117297200D01*
X95728087Y-117144913D01*
X95504151Y-116995284D01*
X95240001Y-116942741D01*
X95136079Y-116942741D01*
X95063653Y-116834347D01*
X95046899Y-116823152D01*
X95046899Y-112115650D01*
X95322480Y-112229800D01*
X95812520Y-112229800D01*
X96265258Y-112042269D01*
X96611769Y-111695758D01*
X96637764Y-111633000D01*
X120092568Y-111633000D01*
X120188170Y-112113624D01*
X120460422Y-112521078D01*
X120867876Y-112793330D01*
X121227180Y-112864800D01*
X121469820Y-112864800D01*
X121829124Y-112793330D01*
X122236578Y-112521078D01*
X122508830Y-112113624D01*
X122604432Y-111633000D01*
X122508830Y-111152376D01*
X122236578Y-110744922D01*
X121829124Y-110472670D01*
X121469820Y-110401200D01*
X121227180Y-110401200D01*
X120867876Y-110472670D01*
X120460422Y-110744922D01*
X120188170Y-111152376D01*
X120092568Y-111633000D01*
X96637764Y-111633000D01*
X96799300Y-111243020D01*
X96799300Y-110752980D01*
X96611769Y-110300242D01*
X96265258Y-109953731D01*
X95812520Y-109766200D01*
X95322480Y-109766200D01*
X95046899Y-109880350D01*
X95046899Y-107398665D01*
X95247020Y-107198544D01*
X95322480Y-107229800D01*
X95812520Y-107229800D01*
X96265258Y-107042269D01*
X96611769Y-106695758D01*
X96799300Y-106243020D01*
X96799300Y-105791000D01*
X100801089Y-105791000D01*
X100900572Y-106291133D01*
X101183874Y-106715126D01*
X101607867Y-106998428D01*
X101820588Y-107040741D01*
X101258000Y-107040741D01*
X101089520Y-107074254D01*
X100946690Y-107169690D01*
X100851254Y-107312520D01*
X100817741Y-107481000D01*
X100817741Y-109181000D01*
X100851254Y-109349480D01*
X100946690Y-109492310D01*
X101089520Y-109587746D01*
X101258000Y-109621259D01*
X102958000Y-109621259D01*
X103126480Y-109587746D01*
X103269310Y-109492310D01*
X103364746Y-109349480D01*
X103398259Y-109181000D01*
X103398259Y-109093000D01*
X120092568Y-109093000D01*
X120188170Y-109573624D01*
X120460422Y-109981078D01*
X120867876Y-110253330D01*
X121227180Y-110324800D01*
X121469820Y-110324800D01*
X121829124Y-110253330D01*
X122236578Y-109981078D01*
X122508830Y-109573624D01*
X122604432Y-109093000D01*
X122508830Y-108612376D01*
X122236578Y-108204922D01*
X121829124Y-107932670D01*
X121469820Y-107861200D01*
X121227180Y-107861200D01*
X120867876Y-107932670D01*
X120460422Y-108204922D01*
X120188170Y-108612376D01*
X120092568Y-109093000D01*
X103398259Y-109093000D01*
X103398259Y-108864300D01*
X108421984Y-108864300D01*
X108474500Y-108874746D01*
X108527016Y-108864300D01*
X108527021Y-108864300D01*
X108682583Y-108833357D01*
X108858987Y-108715487D01*
X108888737Y-108670963D01*
X110033521Y-107526179D01*
X110197980Y-107594300D01*
X110688020Y-107594300D01*
X111140758Y-107406769D01*
X111487269Y-107060258D01*
X111674800Y-106607520D01*
X111674800Y-106117480D01*
X114211200Y-106117480D01*
X114211200Y-106607520D01*
X114398731Y-107060258D01*
X114745242Y-107406769D01*
X115197980Y-107594300D01*
X115688020Y-107594300D01*
X116140758Y-107406769D01*
X116487269Y-107060258D01*
X116555390Y-106895800D01*
X120160755Y-106895800D01*
X120188170Y-107033624D01*
X120460422Y-107441078D01*
X120867876Y-107713330D01*
X121227180Y-107784800D01*
X121469820Y-107784800D01*
X121829124Y-107713330D01*
X122236578Y-107441078D01*
X122508830Y-107033624D01*
X122604432Y-106553000D01*
X122508830Y-106072376D01*
X122236578Y-105664922D01*
X121829124Y-105392670D01*
X121469820Y-105321200D01*
X121227180Y-105321200D01*
X120867876Y-105392670D01*
X120460422Y-105664922D01*
X120350655Y-105829200D01*
X116555390Y-105829200D01*
X116487269Y-105664742D01*
X116140758Y-105318231D01*
X115688020Y-105130700D01*
X115197980Y-105130700D01*
X114745242Y-105318231D01*
X114398731Y-105664742D01*
X114211200Y-106117480D01*
X111674800Y-106117480D01*
X111487269Y-105664742D01*
X111140758Y-105318231D01*
X110688020Y-105130700D01*
X110197980Y-105130700D01*
X109745242Y-105318231D01*
X109398731Y-105664742D01*
X109211200Y-106117480D01*
X109211200Y-106607520D01*
X109279321Y-106771979D01*
X108253600Y-107797700D01*
X103398259Y-107797700D01*
X103398259Y-107481000D01*
X103364746Y-107312520D01*
X103269310Y-107169690D01*
X103126480Y-107074254D01*
X102958000Y-107040741D01*
X102395412Y-107040741D01*
X102608133Y-106998428D01*
X103032126Y-106715126D01*
X103315428Y-106291133D01*
X103414911Y-105791000D01*
X103315428Y-105290867D01*
X103032126Y-104866874D01*
X102608133Y-104583572D01*
X102234241Y-104509200D01*
X101981759Y-104509200D01*
X101607867Y-104583572D01*
X101183874Y-104866874D01*
X100900572Y-105290867D01*
X100801089Y-105791000D01*
X96799300Y-105791000D01*
X96799300Y-105752980D01*
X96611769Y-105300242D01*
X96265258Y-104953731D01*
X95812520Y-104766200D01*
X95322480Y-104766200D01*
X95158121Y-104834280D01*
X93560900Y-103237060D01*
X93560900Y-102952820D01*
X93567627Y-102951482D01*
X94025525Y-102645525D01*
X94331482Y-102187626D01*
X94411800Y-101783840D01*
X94411800Y-101416159D01*
X94331482Y-101012373D01*
X94025524Y-100554475D01*
X93567626Y-100248518D01*
X93027500Y-100141080D01*
X92487373Y-100248518D01*
X92029475Y-100554476D01*
X91860844Y-100806851D01*
X91796818Y-100656909D01*
X91354424Y-100224027D01*
X90860480Y-100009437D01*
X90614500Y-100129406D01*
X90614500Y-101473000D01*
X90634500Y-101473000D01*
X90634500Y-101727000D01*
X90614500Y-101727000D01*
X90614500Y-103070594D01*
X90860480Y-103190563D01*
X91354424Y-102975973D01*
X91796818Y-102543091D01*
X91860844Y-102393149D01*
X92029476Y-102645525D01*
X92487374Y-102951482D01*
X92494101Y-102952820D01*
X92494101Y-103405470D01*
X92483652Y-103458000D01*
X92494101Y-103510531D01*
X92496448Y-103522330D01*
X92525050Y-103666122D01*
X92581002Y-103749859D01*
X92642942Y-103842559D01*
X92687475Y-103872315D01*
X94403780Y-105588621D01*
X94335700Y-105752980D01*
X94335700Y-106243020D01*
X94366956Y-106318480D01*
X94027905Y-106657531D01*
X93975947Y-106692248D01*
X93877012Y-106840315D01*
X93838407Y-106898092D01*
X93790108Y-107140901D01*
X93802300Y-107202193D01*
X93802299Y-116980077D01*
X93725849Y-116995284D01*
X93501913Y-117144913D01*
X93352284Y-117368849D01*
X93336222Y-117449600D01*
X90327441Y-117449600D01*
X89882213Y-117004372D01*
X89965432Y-116586000D01*
X89869830Y-116105376D01*
X89597578Y-115697922D01*
X89190124Y-115425670D01*
X88830820Y-115354200D01*
X88588180Y-115354200D01*
X88228876Y-115425670D01*
X87821422Y-115697922D01*
X87584434Y-116052600D01*
X82329759Y-116052600D01*
X82329759Y-115786000D01*
X82296246Y-115617520D01*
X82200810Y-115474690D01*
X82057980Y-115379254D01*
X81889500Y-115345741D01*
X80289500Y-115345741D01*
X80121020Y-115379254D01*
X79978190Y-115474690D01*
X79882754Y-115617520D01*
X79849241Y-115786000D01*
X79849241Y-117386000D01*
X79882754Y-117554480D01*
X79978190Y-117697310D01*
X80121020Y-117792746D01*
X80289500Y-117826259D01*
X81889500Y-117826259D01*
X82057980Y-117792746D01*
X82200810Y-117697310D01*
X82296246Y-117554480D01*
X82329759Y-117386000D01*
X82329759Y-117119400D01*
X87584434Y-117119400D01*
X87821422Y-117474078D01*
X88228876Y-117746330D01*
X88588180Y-117817800D01*
X88830820Y-117817800D01*
X89127872Y-117758713D01*
X89692184Y-118323025D01*
X89721941Y-118367559D01*
X89898378Y-118485451D01*
X90053969Y-118516400D01*
X90053973Y-118516400D01*
X90106499Y-118526848D01*
X90159025Y-118516400D01*
X93336222Y-118516400D01*
X93352284Y-118597151D01*
X93501913Y-118821087D01*
X93725849Y-118970716D01*
X93935414Y-119012401D01*
X93596114Y-119239114D01*
X93368066Y-119580412D01*
X93287986Y-119983000D01*
X93368066Y-120385588D01*
X93596114Y-120726886D01*
X93937412Y-120954934D01*
X94078509Y-120983000D01*
X93937412Y-121011066D01*
X93596114Y-121239114D01*
X93368066Y-121580412D01*
X93287986Y-121983000D01*
X93368066Y-122385588D01*
X93596114Y-122726886D01*
X93821471Y-122877465D01*
X93115236Y-123583700D01*
X89775165Y-123583700D01*
X89597578Y-123317922D01*
X89190124Y-123045670D01*
X88830820Y-122974200D01*
X88588180Y-122974200D01*
X88228876Y-123045670D01*
X87821422Y-123317922D01*
X87549170Y-123725376D01*
X87453568Y-124206000D01*
X87549170Y-124686624D01*
X87821422Y-125094078D01*
X88176100Y-125331066D01*
X88176101Y-130739558D01*
X86411879Y-132503780D01*
X86247520Y-132435700D01*
X85757480Y-132435700D01*
X85304742Y-132623231D01*
X84958231Y-132969742D01*
X84770700Y-133422480D01*
X84770700Y-133912520D01*
X84884850Y-134188101D01*
X84742759Y-134188101D01*
X84742759Y-132867500D01*
X84709246Y-132699020D01*
X84613810Y-132556190D01*
X84470980Y-132460754D01*
X84302500Y-132427241D01*
X84035900Y-132427241D01*
X84035900Y-124131525D01*
X84046348Y-124078999D01*
X84035900Y-124026473D01*
X84035900Y-124026469D01*
X84004951Y-123870878D01*
X83887059Y-123694441D01*
X83842526Y-123664685D01*
X82262213Y-122084372D01*
X82345432Y-121666000D01*
X87453568Y-121666000D01*
X87549170Y-122146624D01*
X87821422Y-122554078D01*
X88228876Y-122826330D01*
X88588180Y-122897800D01*
X88830820Y-122897800D01*
X89190124Y-122826330D01*
X89597578Y-122554078D01*
X89869830Y-122146624D01*
X89965432Y-121666000D01*
X89869830Y-121185376D01*
X89597578Y-120777922D01*
X89190124Y-120505670D01*
X88830820Y-120434200D01*
X88588180Y-120434200D01*
X88228876Y-120505670D01*
X87821422Y-120777922D01*
X87549170Y-121185376D01*
X87453568Y-121666000D01*
X82345432Y-121666000D01*
X82249830Y-121185376D01*
X81977578Y-120777922D01*
X81570124Y-120505670D01*
X81210820Y-120434200D01*
X80968180Y-120434200D01*
X80608876Y-120505670D01*
X80201422Y-120777922D01*
X79929170Y-121185376D01*
X79833568Y-121666000D01*
X79929170Y-122146624D01*
X80201422Y-122554078D01*
X80608876Y-122826330D01*
X80968180Y-122897800D01*
X81210820Y-122897800D01*
X81507872Y-122838713D01*
X82969100Y-124299941D01*
X82969101Y-132427241D01*
X82702500Y-132427241D01*
X82534020Y-132460754D01*
X82391190Y-132556190D01*
X82295754Y-132699020D01*
X82262241Y-132867500D01*
X82262241Y-134188101D01*
X76993662Y-134188101D01*
X72893540Y-130087980D01*
X73131151Y-130040716D01*
X73355087Y-129891087D01*
X73504716Y-129667151D01*
X73546401Y-129457585D01*
X73773115Y-129796886D01*
X74114413Y-130024934D01*
X74517000Y-130105014D01*
X74919588Y-130024934D01*
X75260886Y-129796886D01*
X75488934Y-129455587D01*
X75517000Y-129314489D01*
X75545067Y-129455588D01*
X75773115Y-129796886D01*
X76114413Y-130024934D01*
X76517000Y-130105014D01*
X76919588Y-130024934D01*
X77260886Y-129796886D01*
X77488934Y-129455587D01*
X77548800Y-129154621D01*
X77548800Y-128401378D01*
X77488934Y-128100412D01*
X77260886Y-127759114D01*
X76919587Y-127531066D01*
X76517000Y-127450986D01*
X76114412Y-127531066D01*
X75773114Y-127759114D01*
X75545066Y-128100413D01*
X75517000Y-128241509D01*
X75488934Y-128100412D01*
X75260886Y-127759114D01*
X74919587Y-127531066D01*
X74517000Y-127450986D01*
X74114412Y-127531066D01*
X73773114Y-127759114D01*
X73546401Y-128098414D01*
X73504716Y-127888849D01*
X73355087Y-127664913D01*
X73131151Y-127515284D01*
X72867001Y-127462741D01*
X72166999Y-127462741D01*
X71902849Y-127515284D01*
X71678913Y-127664913D01*
X71529284Y-127888849D01*
X71476741Y-128152999D01*
X71476741Y-128671181D01*
X69329300Y-126523740D01*
X69329300Y-118643500D01*
X69562241Y-118643500D01*
X69562241Y-120243500D01*
X69595754Y-120411980D01*
X69691190Y-120554810D01*
X69834020Y-120650246D01*
X70002500Y-120683759D01*
X71330459Y-120683759D01*
X71262472Y-120729186D01*
X71262470Y-120729188D01*
X71217940Y-120758942D01*
X71205721Y-120777229D01*
X71047520Y-120711700D01*
X70557480Y-120711700D01*
X70104742Y-120899231D01*
X69758231Y-121245742D01*
X69570700Y-121698480D01*
X69570700Y-122188520D01*
X69758231Y-122641258D01*
X70104742Y-122987769D01*
X70557480Y-123175300D01*
X71047520Y-123175300D01*
X71500258Y-122987769D01*
X71846769Y-122641258D01*
X72034300Y-122188520D01*
X72034300Y-121698480D01*
X72025362Y-121676901D01*
X77806061Y-121676901D01*
X79916787Y-123787628D01*
X79833568Y-124206000D01*
X79929170Y-124686624D01*
X80201422Y-125094078D01*
X80608876Y-125366330D01*
X80968180Y-125437800D01*
X81210820Y-125437800D01*
X81570124Y-125366330D01*
X81977578Y-125094078D01*
X82249830Y-124686624D01*
X82345432Y-124206000D01*
X82249830Y-123725376D01*
X81977578Y-123317922D01*
X81570124Y-123045670D01*
X81210820Y-122974200D01*
X80968180Y-122974200D01*
X80671128Y-123033287D01*
X78441318Y-120803478D01*
X78411560Y-120758942D01*
X78235123Y-120641050D01*
X78079532Y-120610101D01*
X78079527Y-120610101D01*
X78027001Y-120599653D01*
X77974475Y-120610101D01*
X71831061Y-120610101D01*
X71913810Y-120554810D01*
X72009246Y-120411980D01*
X72042759Y-120243500D01*
X72042759Y-119976900D01*
X80176580Y-119976900D01*
X80201422Y-120014078D01*
X80608876Y-120286330D01*
X80968180Y-120357800D01*
X81210820Y-120357800D01*
X81570124Y-120286330D01*
X81977578Y-120014078D01*
X82249830Y-119606624D01*
X82345432Y-119126000D01*
X87453568Y-119126000D01*
X87549170Y-119606624D01*
X87821422Y-120014078D01*
X88228876Y-120286330D01*
X88588180Y-120357800D01*
X88830820Y-120357800D01*
X89190124Y-120286330D01*
X89597578Y-120014078D01*
X89869830Y-119606624D01*
X89965432Y-119126000D01*
X89869830Y-118645376D01*
X89597578Y-118237922D01*
X89190124Y-117965670D01*
X88830820Y-117894200D01*
X88588180Y-117894200D01*
X88228876Y-117965670D01*
X87821422Y-118237922D01*
X87549170Y-118645376D01*
X87453568Y-119126000D01*
X82345432Y-119126000D01*
X82249830Y-118645376D01*
X81977578Y-118237922D01*
X81570124Y-117965670D01*
X81210820Y-117894200D01*
X80968180Y-117894200D01*
X80608876Y-117965670D01*
X80201422Y-118237922D01*
X79929170Y-118645376D01*
X79876513Y-118910100D01*
X72042759Y-118910100D01*
X72042759Y-118643500D01*
X72009246Y-118475020D01*
X71913810Y-118332190D01*
X71770980Y-118236754D01*
X71602500Y-118203241D01*
X70002500Y-118203241D01*
X69834020Y-118236754D01*
X69691190Y-118332190D01*
X69595754Y-118475020D01*
X69562241Y-118643500D01*
X69329300Y-118643500D01*
X69329300Y-112529236D01*
X69531578Y-112394078D01*
X69803830Y-111986624D01*
X69899432Y-111506000D01*
X69816213Y-111087628D01*
X70125442Y-110778399D01*
X72478850Y-110778399D01*
X72364700Y-111053980D01*
X72364700Y-111544020D01*
X72552231Y-111996758D01*
X72898742Y-112343269D01*
X73351480Y-112530800D01*
X73841520Y-112530800D01*
X74294258Y-112343269D01*
X74640769Y-111996758D01*
X74817745Y-111569500D01*
X77103068Y-111569500D01*
X77198670Y-112050124D01*
X77470922Y-112457578D01*
X77878376Y-112729830D01*
X78237680Y-112801300D01*
X78480320Y-112801300D01*
X78839624Y-112729830D01*
X79247078Y-112457578D01*
X79519330Y-112050124D01*
X79614932Y-111569500D01*
X79602302Y-111506000D01*
X84405568Y-111506000D01*
X84501170Y-111986624D01*
X84773422Y-112394078D01*
X85180876Y-112666330D01*
X85540180Y-112737800D01*
X85782820Y-112737800D01*
X86142124Y-112666330D01*
X86549578Y-112394078D01*
X86821830Y-111986624D01*
X86917432Y-111506000D01*
X86821830Y-111025376D01*
X86549578Y-110617922D01*
X86142124Y-110345670D01*
X85782820Y-110274200D01*
X85540180Y-110274200D01*
X85180876Y-110345670D01*
X84773422Y-110617922D01*
X84501170Y-111025376D01*
X84405568Y-111506000D01*
X79602302Y-111506000D01*
X79519330Y-111088876D01*
X79247078Y-110681422D01*
X78839624Y-110409170D01*
X78480320Y-110337700D01*
X78237680Y-110337700D01*
X77878376Y-110409170D01*
X77470922Y-110681422D01*
X77198670Y-111088876D01*
X77103068Y-111569500D01*
X74817745Y-111569500D01*
X74828300Y-111544020D01*
X74828300Y-111053980D01*
X74709726Y-110767719D01*
X74811623Y-110747450D01*
X74988060Y-110629558D01*
X75017818Y-110585022D01*
X77949621Y-107653220D01*
X78113980Y-107721300D01*
X78604020Y-107721300D01*
X79056758Y-107533769D01*
X79403269Y-107187258D01*
X79590800Y-106734520D01*
X79590800Y-106244480D01*
X79564498Y-106180980D01*
X84429700Y-106180980D01*
X84429700Y-106671020D01*
X84617231Y-107123758D01*
X84963742Y-107470269D01*
X85416480Y-107657800D01*
X85906520Y-107657800D01*
X86070880Y-107589720D01*
X89509700Y-111028541D01*
X89509700Y-111179520D01*
X89697231Y-111632258D01*
X90043742Y-111978769D01*
X90496480Y-112166300D01*
X90986520Y-112166300D01*
X91439258Y-111978769D01*
X91785769Y-111632258D01*
X91973300Y-111179520D01*
X91973300Y-110689480D01*
X91785769Y-110236742D01*
X91439258Y-109890231D01*
X90986520Y-109702700D01*
X90496480Y-109702700D01*
X90043742Y-109890231D01*
X89961907Y-109972066D01*
X86825220Y-106835380D01*
X86893300Y-106671020D01*
X86893300Y-106203541D01*
X89349586Y-106203541D01*
X89589111Y-106709634D01*
X90004077Y-107085541D01*
X90392461Y-107246404D01*
X90614500Y-107124415D01*
X90614500Y-105981500D01*
X90868500Y-105981500D01*
X90868500Y-107124415D01*
X91090539Y-107246404D01*
X91478923Y-107085541D01*
X91893889Y-106709634D01*
X92133414Y-106203541D01*
X92012129Y-105981500D01*
X90868500Y-105981500D01*
X90614500Y-105981500D01*
X89470871Y-105981500D01*
X89349586Y-106203541D01*
X86893300Y-106203541D01*
X86893300Y-106180980D01*
X86825220Y-106016621D01*
X87336382Y-105505459D01*
X89349586Y-105505459D01*
X89470871Y-105727500D01*
X90614500Y-105727500D01*
X90614500Y-104584585D01*
X90868500Y-104584585D01*
X90868500Y-105727500D01*
X92012129Y-105727500D01*
X92133414Y-105505459D01*
X91893889Y-104999366D01*
X91478923Y-104623459D01*
X91090539Y-104462596D01*
X90868500Y-104584585D01*
X90614500Y-104584585D01*
X90392461Y-104462596D01*
X90004077Y-104623459D01*
X89589111Y-104999366D01*
X89349586Y-105505459D01*
X87336382Y-105505459D01*
X88287526Y-104554315D01*
X88332059Y-104524559D01*
X88449951Y-104348122D01*
X88480900Y-104192531D01*
X88480900Y-104192527D01*
X88491348Y-104140001D01*
X88480900Y-104087475D01*
X88480900Y-103040259D01*
X88900000Y-103040259D01*
X89068480Y-103006746D01*
X89211310Y-102911310D01*
X89306746Y-102768480D01*
X89323328Y-102685116D01*
X89620576Y-102975973D01*
X90114520Y-103190563D01*
X90360500Y-103070594D01*
X90360500Y-101727000D01*
X90340500Y-101727000D01*
X90340500Y-101473000D01*
X90360500Y-101473000D01*
X90360500Y-100129406D01*
X90114520Y-100009437D01*
X89620576Y-100224027D01*
X89323328Y-100514884D01*
X89306746Y-100431520D01*
X89211310Y-100288690D01*
X89068480Y-100193254D01*
X88900000Y-100159741D01*
X86995000Y-100159741D01*
X86826520Y-100193254D01*
X86683690Y-100288690D01*
X86588254Y-100431520D01*
X86554741Y-100600000D01*
X86554741Y-102600000D01*
X86588254Y-102768480D01*
X86683690Y-102911310D01*
X86826520Y-103006746D01*
X86995000Y-103040259D01*
X87414100Y-103040259D01*
X87414100Y-103919059D01*
X86070879Y-105262280D01*
X85906520Y-105194200D01*
X85416480Y-105194200D01*
X84963742Y-105381731D01*
X84617231Y-105728242D01*
X84429700Y-106180980D01*
X79564498Y-106180980D01*
X79403269Y-105791742D01*
X79056758Y-105445231D01*
X78892400Y-105377151D01*
X78892400Y-101830327D01*
X78902848Y-101777800D01*
X78892400Y-101725273D01*
X78892400Y-101725269D01*
X78861451Y-101569678D01*
X78743559Y-101393241D01*
X78699025Y-101363484D01*
X78405017Y-101069477D01*
X78375259Y-101024941D01*
X78198822Y-100907049D01*
X78154157Y-100898165D01*
X78138982Y-100821873D01*
X77833024Y-100363975D01*
X77375126Y-100058018D01*
X77266800Y-100036471D01*
X77266800Y-95885000D01*
X100674089Y-95885000D01*
X100773572Y-96385133D01*
X101056874Y-96809126D01*
X101480867Y-97092428D01*
X101693588Y-97134741D01*
X101131000Y-97134741D01*
X100962520Y-97168254D01*
X100819690Y-97263690D01*
X100724254Y-97406520D01*
X100690741Y-97575000D01*
X100690741Y-99275000D01*
X100724254Y-99443480D01*
X100819690Y-99586310D01*
X100962520Y-99681746D01*
X101131000Y-99715259D01*
X102831000Y-99715259D01*
X102999480Y-99681746D01*
X103142310Y-99586310D01*
X103237746Y-99443480D01*
X103271259Y-99275000D01*
X103271259Y-98958300D01*
X105633600Y-98958300D01*
X108809311Y-102134011D01*
X108726068Y-102552500D01*
X108821670Y-103033124D01*
X109093922Y-103440578D01*
X109501376Y-103712830D01*
X109860680Y-103784300D01*
X110103320Y-103784300D01*
X110462624Y-103712830D01*
X110870078Y-103440578D01*
X111142330Y-103033124D01*
X111237932Y-102552500D01*
X111189195Y-102307480D01*
X113830200Y-102307480D01*
X113830200Y-102797520D01*
X114017731Y-103250258D01*
X114364242Y-103596769D01*
X114816980Y-103784300D01*
X115307020Y-103784300D01*
X115759758Y-103596769D01*
X116106269Y-103250258D01*
X116174390Y-103085800D01*
X119667100Y-103085800D01*
X120175811Y-103594511D01*
X120092568Y-104013000D01*
X120188170Y-104493624D01*
X120460422Y-104901078D01*
X120867876Y-105173330D01*
X121227180Y-105244800D01*
X121469820Y-105244800D01*
X121829124Y-105173330D01*
X122236578Y-104901078D01*
X122508830Y-104493624D01*
X122604432Y-104013000D01*
X127712568Y-104013000D01*
X127808170Y-104493624D01*
X128080422Y-104901078D01*
X128487876Y-105173330D01*
X128847180Y-105244800D01*
X129089820Y-105244800D01*
X129449124Y-105173330D01*
X129856578Y-104901078D01*
X130128830Y-104493624D01*
X130224432Y-104013000D01*
X130128830Y-103532376D01*
X129856578Y-103124922D01*
X129449124Y-102852670D01*
X129089820Y-102781200D01*
X128847180Y-102781200D01*
X128487876Y-102852670D01*
X128080422Y-103124922D01*
X127808170Y-103532376D01*
X127712568Y-104013000D01*
X122604432Y-104013000D01*
X122508830Y-103532376D01*
X122236578Y-103124922D01*
X121829124Y-102852670D01*
X121469820Y-102781200D01*
X121227180Y-102781200D01*
X120930011Y-102840311D01*
X120302237Y-102212537D01*
X120272487Y-102168013D01*
X120096083Y-102050143D01*
X119940521Y-102019200D01*
X119940516Y-102019200D01*
X119888000Y-102008754D01*
X119835484Y-102019200D01*
X116174390Y-102019200D01*
X116106269Y-101854742D01*
X115759758Y-101508231D01*
X115307020Y-101320700D01*
X114816980Y-101320700D01*
X114364242Y-101508231D01*
X114017731Y-101854742D01*
X113830200Y-102307480D01*
X111189195Y-102307480D01*
X111142330Y-102071876D01*
X110870078Y-101664422D01*
X110462624Y-101392170D01*
X110103320Y-101320700D01*
X109860680Y-101320700D01*
X109563511Y-101379811D01*
X106862700Y-98679000D01*
X108662568Y-98679000D01*
X108758170Y-99159624D01*
X109030422Y-99567078D01*
X109437876Y-99839330D01*
X109797180Y-99910800D01*
X110039820Y-99910800D01*
X110399124Y-99839330D01*
X110806578Y-99567078D01*
X111078830Y-99159624D01*
X111174432Y-98679000D01*
X111078830Y-98198376D01*
X110806578Y-97790922D01*
X110399124Y-97518670D01*
X110039820Y-97447200D01*
X109797180Y-97447200D01*
X109437876Y-97518670D01*
X109030422Y-97790922D01*
X108758170Y-98198376D01*
X108662568Y-98679000D01*
X106862700Y-98679000D01*
X106268737Y-98085037D01*
X106238987Y-98040513D01*
X106062583Y-97922643D01*
X105907021Y-97891700D01*
X105907016Y-97891700D01*
X105854500Y-97881254D01*
X105801984Y-97891700D01*
X103271259Y-97891700D01*
X103271259Y-97575000D01*
X103237746Y-97406520D01*
X103142310Y-97263690D01*
X102999480Y-97168254D01*
X102831000Y-97134741D01*
X102268412Y-97134741D01*
X102481133Y-97092428D01*
X102905126Y-96809126D01*
X103188428Y-96385133D01*
X103287911Y-95885000D01*
X103188428Y-95384867D01*
X102905126Y-94960874D01*
X102481133Y-94677572D01*
X102211709Y-94623980D01*
X109194700Y-94623980D01*
X109194700Y-95114020D01*
X109382231Y-95566758D01*
X109728742Y-95913269D01*
X110181480Y-96100800D01*
X110671520Y-96100800D01*
X111124258Y-95913269D01*
X111470769Y-95566758D01*
X111658300Y-95114020D01*
X111658300Y-94623980D01*
X111470769Y-94171242D01*
X111124258Y-93824731D01*
X110671520Y-93637200D01*
X110181480Y-93637200D01*
X109728742Y-93824731D01*
X109382231Y-94171242D01*
X109194700Y-94623980D01*
X102211709Y-94623980D01*
X102107241Y-94603200D01*
X101854759Y-94603200D01*
X101480867Y-94677572D01*
X101056874Y-94960874D01*
X100773572Y-95384867D01*
X100674089Y-95885000D01*
X77266800Y-95885000D01*
X77266800Y-90369480D01*
X109131200Y-90369480D01*
X109131200Y-90859520D01*
X109318731Y-91312258D01*
X109665242Y-91658769D01*
X110117980Y-91846300D01*
X110608020Y-91846300D01*
X110619980Y-91841346D01*
X114084806Y-95306174D01*
X114123066Y-95363434D01*
X114349914Y-95515009D01*
X114361773Y-95517368D01*
X114382231Y-95566758D01*
X114728742Y-95913269D01*
X115181480Y-96100800D01*
X115671520Y-96100800D01*
X116124258Y-95913269D01*
X116470769Y-95566758D01*
X116538890Y-95402300D01*
X117063600Y-95402300D01*
X120175811Y-98514511D01*
X120092568Y-98933000D01*
X120188170Y-99413624D01*
X120460422Y-99821078D01*
X120867876Y-100093330D01*
X121227180Y-100164800D01*
X121469820Y-100164800D01*
X121829124Y-100093330D01*
X122236578Y-99821078D01*
X122508830Y-99413624D01*
X122604432Y-98933000D01*
X122508830Y-98452376D01*
X122236578Y-98044922D01*
X121829124Y-97772670D01*
X121469820Y-97701200D01*
X121227180Y-97701200D01*
X120930011Y-97760311D01*
X117698737Y-94529037D01*
X117668987Y-94484513D01*
X117492583Y-94366643D01*
X117337021Y-94335700D01*
X117337016Y-94335700D01*
X117284500Y-94325254D01*
X117231984Y-94335700D01*
X116538890Y-94335700D01*
X116470769Y-94171242D01*
X116124258Y-93824731D01*
X115671520Y-93637200D01*
X115181480Y-93637200D01*
X114728742Y-93824731D01*
X114635920Y-93917553D01*
X111589846Y-90871480D01*
X111594800Y-90859520D01*
X111594800Y-90369480D01*
X111407269Y-89916742D01*
X111060758Y-89570231D01*
X110608020Y-89382700D01*
X110117980Y-89382700D01*
X109665242Y-89570231D01*
X109318731Y-89916742D01*
X109131200Y-90369480D01*
X77266800Y-90369480D01*
X77266800Y-84940000D01*
X88262957Y-84940000D01*
X88432290Y-85791296D01*
X88914511Y-86512989D01*
X89636204Y-86995210D01*
X90272616Y-87121800D01*
X90702384Y-87121800D01*
X91338796Y-86995210D01*
X92060489Y-86512989D01*
X92480934Y-85883750D01*
X98514000Y-85883750D01*
X98514000Y-86524310D01*
X98610673Y-86757699D01*
X98789302Y-86936327D01*
X99022691Y-87033000D01*
X99663250Y-87033000D01*
X99822000Y-86874250D01*
X99822000Y-85725000D01*
X98672750Y-85725000D01*
X98514000Y-85883750D01*
X92480934Y-85883750D01*
X92542710Y-85791296D01*
X92712043Y-84940000D01*
X92658673Y-84671690D01*
X98514000Y-84671690D01*
X98514000Y-85312250D01*
X98672750Y-85471000D01*
X99822000Y-85471000D01*
X99822000Y-84321750D01*
X100076000Y-84321750D01*
X100076000Y-85471000D01*
X100096000Y-85471000D01*
X100096000Y-85725000D01*
X100076000Y-85725000D01*
X100076000Y-86874250D01*
X100234750Y-87033000D01*
X100875309Y-87033000D01*
X101108698Y-86936327D01*
X101287327Y-86757699D01*
X101384000Y-86524310D01*
X101384000Y-86245709D01*
X101404731Y-86295758D01*
X101751242Y-86642269D01*
X102203980Y-86829800D01*
X102694020Y-86829800D01*
X103146758Y-86642269D01*
X103483547Y-86305480D01*
X109004200Y-86305480D01*
X109004200Y-86795520D01*
X109191731Y-87248258D01*
X109538242Y-87594769D01*
X109990980Y-87782300D01*
X110481020Y-87782300D01*
X110933758Y-87594769D01*
X111280269Y-87248258D01*
X111467800Y-86795520D01*
X111467800Y-86550500D01*
X114060068Y-86550500D01*
X114155670Y-87031124D01*
X114427922Y-87438578D01*
X114782700Y-87675633D01*
X114782701Y-88770979D01*
X114772254Y-88823500D01*
X114813644Y-89031583D01*
X114901762Y-89163462D01*
X114901766Y-89163466D01*
X114931514Y-89207987D01*
X114976035Y-89237735D01*
X115154295Y-89415995D01*
X114962376Y-89454170D01*
X114554922Y-89726422D01*
X114282670Y-90133876D01*
X114187068Y-90614500D01*
X114282670Y-91095124D01*
X114554922Y-91502578D01*
X114962376Y-91774830D01*
X115321680Y-91846300D01*
X115564320Y-91846300D01*
X115861489Y-91787189D01*
X120154740Y-96080440D01*
X120092568Y-96393000D01*
X120188170Y-96873624D01*
X120460422Y-97281078D01*
X120867876Y-97553330D01*
X121227180Y-97624800D01*
X121469820Y-97624800D01*
X121829124Y-97553330D01*
X122236578Y-97281078D01*
X122508830Y-96873624D01*
X122604432Y-96393000D01*
X122508830Y-95912376D01*
X122236578Y-95504922D01*
X121829124Y-95232670D01*
X121469820Y-95161200D01*
X121227180Y-95161200D01*
X120867876Y-95232670D01*
X120836401Y-95253701D01*
X120675959Y-95093259D01*
X122148500Y-95093259D01*
X122316980Y-95059746D01*
X122459810Y-94964310D01*
X122555246Y-94821480D01*
X122588759Y-94653000D01*
X122588759Y-93503961D01*
X127576596Y-93503961D01*
X127698585Y-93726000D01*
X128841500Y-93726000D01*
X128841500Y-92582371D01*
X129095500Y-92582371D01*
X129095500Y-93726000D01*
X130238415Y-93726000D01*
X130360404Y-93503961D01*
X130199541Y-93115577D01*
X129823634Y-92700611D01*
X129317541Y-92461086D01*
X129095500Y-92582371D01*
X128841500Y-92582371D01*
X128619459Y-92461086D01*
X128113366Y-92700611D01*
X127737459Y-93115577D01*
X127576596Y-93503961D01*
X122588759Y-93503961D01*
X122588759Y-93053000D01*
X122555246Y-92884520D01*
X122459810Y-92741690D01*
X122316980Y-92646254D01*
X122148500Y-92612741D01*
X120548500Y-92612741D01*
X120380020Y-92646254D01*
X120237190Y-92741690D01*
X120141754Y-92884520D01*
X120140006Y-92893306D01*
X115849300Y-88602600D01*
X115849300Y-87675633D01*
X116204078Y-87438578D01*
X116239891Y-87384980D01*
X121212700Y-87384980D01*
X121212700Y-87875020D01*
X121400231Y-88327758D01*
X121746742Y-88674269D01*
X122199480Y-88861800D01*
X122689520Y-88861800D01*
X123142258Y-88674269D01*
X123178782Y-88637745D01*
X126616361Y-88637745D01*
X126690495Y-88883864D01*
X127227723Y-89076965D01*
X127797954Y-89049778D01*
X128198505Y-88883864D01*
X128272639Y-88637745D01*
X127444500Y-87809605D01*
X126616361Y-88637745D01*
X123178782Y-88637745D01*
X123488769Y-88327758D01*
X123676300Y-87875020D01*
X123676300Y-87413223D01*
X125997535Y-87413223D01*
X126024722Y-87983454D01*
X126190636Y-88384005D01*
X126436755Y-88458139D01*
X127264895Y-87630000D01*
X127624105Y-87630000D01*
X128452245Y-88458139D01*
X128698364Y-88384005D01*
X128891465Y-87846777D01*
X128864278Y-87276546D01*
X128698364Y-86875995D01*
X128452245Y-86801861D01*
X127624105Y-87630000D01*
X127264895Y-87630000D01*
X126436755Y-86801861D01*
X126190636Y-86875995D01*
X125997535Y-87413223D01*
X123676300Y-87413223D01*
X123676300Y-87384980D01*
X123488769Y-86932242D01*
X123178782Y-86622255D01*
X126616361Y-86622255D01*
X127444500Y-87450395D01*
X128272639Y-86622255D01*
X128198505Y-86376136D01*
X127661277Y-86183035D01*
X127091046Y-86210222D01*
X126690495Y-86376136D01*
X126616361Y-86622255D01*
X123178782Y-86622255D01*
X123142258Y-86585731D01*
X122689520Y-86398200D01*
X122199480Y-86398200D01*
X121746742Y-86585731D01*
X121400231Y-86932242D01*
X121212700Y-87384980D01*
X116239891Y-87384980D01*
X116476330Y-87031124D01*
X116571932Y-86550500D01*
X116476330Y-86069876D01*
X116204078Y-85662422D01*
X115796624Y-85390170D01*
X115437320Y-85318700D01*
X115194680Y-85318700D01*
X114835376Y-85390170D01*
X114427922Y-85662422D01*
X114155670Y-86069876D01*
X114060068Y-86550500D01*
X111467800Y-86550500D01*
X111467800Y-86305480D01*
X111280269Y-85852742D01*
X110933758Y-85506231D01*
X110481020Y-85318700D01*
X109990980Y-85318700D01*
X109538242Y-85506231D01*
X109191731Y-85852742D01*
X109004200Y-86305480D01*
X103483547Y-86305480D01*
X103493269Y-86295758D01*
X103680800Y-85843020D01*
X103680800Y-85352980D01*
X103493269Y-84900242D01*
X103146758Y-84553731D01*
X102694020Y-84366200D01*
X102203980Y-84366200D01*
X101751242Y-84553731D01*
X101404731Y-84900242D01*
X101384000Y-84950291D01*
X101384000Y-84671690D01*
X101287327Y-84438301D01*
X101108698Y-84259673D01*
X100875309Y-84163000D01*
X100234750Y-84163000D01*
X100076000Y-84321750D01*
X99822000Y-84321750D01*
X99663250Y-84163000D01*
X99022691Y-84163000D01*
X98789302Y-84259673D01*
X98610673Y-84438301D01*
X98514000Y-84671690D01*
X92658673Y-84671690D01*
X92542710Y-84088704D01*
X92490456Y-84010500D01*
X131326568Y-84010500D01*
X131422170Y-84491124D01*
X131694422Y-84898578D01*
X132049200Y-85135633D01*
X132049201Y-86695367D01*
X131694422Y-86932422D01*
X131422170Y-87339876D01*
X131326568Y-87820500D01*
X131422170Y-88301124D01*
X131694422Y-88708578D01*
X132101876Y-88980830D01*
X132461180Y-89052300D01*
X132703820Y-89052300D01*
X133063124Y-88980830D01*
X133470578Y-88708578D01*
X133742830Y-88301124D01*
X133838432Y-87820500D01*
X133742830Y-87339876D01*
X133470578Y-86932422D01*
X133115800Y-86695367D01*
X133115800Y-85135633D01*
X133470578Y-84898578D01*
X133675667Y-84591640D01*
X133687036Y-84599236D01*
X136498821Y-87411021D01*
X136430700Y-87575480D01*
X136430700Y-88065520D01*
X136618231Y-88518258D01*
X136964742Y-88864769D01*
X137417480Y-89052300D01*
X137907520Y-89052300D01*
X138360258Y-88864769D01*
X138706769Y-88518258D01*
X138894300Y-88065520D01*
X138894300Y-87575480D01*
X138706769Y-87122742D01*
X138360258Y-86776231D01*
X137907520Y-86588700D01*
X137417480Y-86588700D01*
X137253021Y-86656821D01*
X134560301Y-83964101D01*
X134560301Y-83765480D01*
X136430700Y-83765480D01*
X136430700Y-84255520D01*
X136618231Y-84708258D01*
X136964742Y-85054769D01*
X137417480Y-85242300D01*
X137907520Y-85242300D01*
X138360258Y-85054769D01*
X138706769Y-84708258D01*
X138894300Y-84255520D01*
X138894300Y-84071274D01*
X144962331Y-84071274D01*
X145026631Y-84309111D01*
X145534842Y-84488833D01*
X146073144Y-84460392D01*
X146438369Y-84309111D01*
X146502669Y-84071274D01*
X145732500Y-83301105D01*
X144962331Y-84071274D01*
X138894300Y-84071274D01*
X138894300Y-83765480D01*
X138826179Y-83601021D01*
X139503358Y-82923842D01*
X144365167Y-82923842D01*
X144393608Y-83462144D01*
X144544889Y-83827369D01*
X144782726Y-83891669D01*
X145552895Y-83121500D01*
X145912105Y-83121500D01*
X146682274Y-83891669D01*
X146920111Y-83827369D01*
X147099833Y-83319158D01*
X147071392Y-82780856D01*
X146920111Y-82415631D01*
X146682274Y-82351331D01*
X145912105Y-83121500D01*
X145552895Y-83121500D01*
X144782726Y-82351331D01*
X144544889Y-82415631D01*
X144365167Y-82923842D01*
X139503358Y-82923842D01*
X140255474Y-82171726D01*
X144962331Y-82171726D01*
X145732500Y-82941895D01*
X146502669Y-82171726D01*
X146438369Y-81933889D01*
X145930158Y-81754167D01*
X145391856Y-81782608D01*
X145026631Y-81933889D01*
X144962331Y-82171726D01*
X140255474Y-82171726D01*
X141312400Y-81114800D01*
X144706701Y-81114800D01*
X144756051Y-81233942D01*
X145080058Y-81557949D01*
X145503393Y-81733300D01*
X145961607Y-81733300D01*
X146384942Y-81557949D01*
X146708949Y-81233942D01*
X146884300Y-80810607D01*
X146884300Y-80352393D01*
X146708949Y-79929058D01*
X146384942Y-79605051D01*
X146265800Y-79555701D01*
X146265800Y-79067299D01*
X146384942Y-79017949D01*
X146708949Y-78693942D01*
X146884300Y-78270607D01*
X146884300Y-77812393D01*
X146708949Y-77389058D01*
X146384942Y-77065051D01*
X145961607Y-76889700D01*
X145503393Y-76889700D01*
X145080058Y-77065051D01*
X144756051Y-77389058D01*
X144580700Y-77812393D01*
X144580700Y-78270607D01*
X144756051Y-78693942D01*
X145080058Y-79017949D01*
X145199200Y-79067299D01*
X145199200Y-79555701D01*
X145080058Y-79605051D01*
X144756051Y-79929058D01*
X144706701Y-80048200D01*
X141144015Y-80048200D01*
X141091499Y-80037754D01*
X141038983Y-80048200D01*
X141038979Y-80048200D01*
X140883417Y-80079143D01*
X140707013Y-80197013D01*
X140677263Y-80241537D01*
X138071979Y-82846821D01*
X137907520Y-82778700D01*
X137417480Y-82778700D01*
X136964742Y-82966231D01*
X136618231Y-83312742D01*
X136430700Y-83765480D01*
X134560301Y-83765480D01*
X134560301Y-79891800D01*
X134976107Y-79891800D01*
X135399442Y-79716449D01*
X135723449Y-79392442D01*
X135898800Y-78969107D01*
X135898800Y-78510893D01*
X136135200Y-78510893D01*
X136135200Y-78969107D01*
X136310551Y-79392442D01*
X136634558Y-79716449D01*
X137057893Y-79891800D01*
X137516107Y-79891800D01*
X137939442Y-79716449D01*
X138263449Y-79392442D01*
X138438800Y-78969107D01*
X138438800Y-78510893D01*
X138263449Y-78087558D01*
X137939442Y-77763551D01*
X137516107Y-77588200D01*
X137057893Y-77588200D01*
X136634558Y-77763551D01*
X136310551Y-78087558D01*
X136135200Y-78510893D01*
X135898800Y-78510893D01*
X135723449Y-78087558D01*
X135399442Y-77763551D01*
X134976107Y-77588200D01*
X134517893Y-77588200D01*
X134094558Y-77763551D01*
X133770551Y-78087558D01*
X133595200Y-78510893D01*
X133595200Y-78969107D01*
X133640514Y-79078505D01*
X133524644Y-79251917D01*
X133493701Y-79407479D01*
X133493701Y-79407483D01*
X133483255Y-79459999D01*
X133493701Y-79512515D01*
X133493702Y-83157029D01*
X133470578Y-83122422D01*
X133063124Y-82850170D01*
X132703820Y-82778700D01*
X132461180Y-82778700D01*
X132101876Y-82850170D01*
X131694422Y-83122422D01*
X131422170Y-83529876D01*
X131326568Y-84010500D01*
X92490456Y-84010500D01*
X92060489Y-83367011D01*
X91338796Y-82884790D01*
X90702384Y-82758200D01*
X90272616Y-82758200D01*
X89636204Y-82884790D01*
X88914511Y-83367011D01*
X88432290Y-84088704D01*
X88262957Y-84940000D01*
X77266800Y-84940000D01*
X77266800Y-82423000D01*
X108662568Y-82423000D01*
X108758170Y-82903624D01*
X109030422Y-83311078D01*
X109437876Y-83583330D01*
X109797180Y-83654800D01*
X110039820Y-83654800D01*
X110399124Y-83583330D01*
X110806578Y-83311078D01*
X111078830Y-82903624D01*
X111174432Y-82423000D01*
X111125695Y-82177980D01*
X113766700Y-82177980D01*
X113766700Y-82668020D01*
X113954231Y-83120758D01*
X114300742Y-83467269D01*
X114753480Y-83654800D01*
X115243520Y-83654800D01*
X115696258Y-83467269D01*
X116042769Y-83120758D01*
X116230300Y-82668020D01*
X116230300Y-82177980D01*
X116042769Y-81725242D01*
X115696258Y-81378731D01*
X115243520Y-81191200D01*
X114753480Y-81191200D01*
X114300742Y-81378731D01*
X113954231Y-81725242D01*
X113766700Y-82177980D01*
X111125695Y-82177980D01*
X111091189Y-82004511D01*
X114288799Y-78806901D01*
X114583088Y-78928800D01*
X115112912Y-78928800D01*
X115602404Y-78726046D01*
X115651291Y-78677159D01*
X116447446Y-78677159D01*
X116533852Y-78933643D01*
X117107336Y-79143458D01*
X117717460Y-79117839D01*
X118162148Y-78933643D01*
X118248554Y-78677159D01*
X118082288Y-78510893D01*
X131055200Y-78510893D01*
X131055200Y-78969107D01*
X131230551Y-79392442D01*
X131554558Y-79716449D01*
X131977893Y-79891800D01*
X132436107Y-79891800D01*
X132859442Y-79716449D01*
X133183449Y-79392442D01*
X133358800Y-78969107D01*
X133358800Y-78510893D01*
X133183449Y-78087558D01*
X132859442Y-77763551D01*
X132436107Y-77588200D01*
X131977893Y-77588200D01*
X131554558Y-77763551D01*
X131230551Y-78087558D01*
X131055200Y-78510893D01*
X118082288Y-78510893D01*
X117348000Y-77776605D01*
X116447446Y-78677159D01*
X115651291Y-78677159D01*
X115977046Y-78351404D01*
X115981828Y-78339859D01*
X116011357Y-78411148D01*
X116267841Y-78497554D01*
X117168395Y-77597000D01*
X117527605Y-77597000D01*
X118428159Y-78497554D01*
X118684643Y-78411148D01*
X118894458Y-77837664D01*
X118868839Y-77227540D01*
X118684643Y-76782852D01*
X118428159Y-76696446D01*
X117527605Y-77597000D01*
X117168395Y-77597000D01*
X116267841Y-76696446D01*
X116011357Y-76782852D01*
X115983658Y-76858560D01*
X115977046Y-76842596D01*
X115651291Y-76516841D01*
X116447446Y-76516841D01*
X117348000Y-77417395D01*
X118248554Y-76516841D01*
X118162148Y-76260357D01*
X117588664Y-76050542D01*
X116978540Y-76076161D01*
X116533852Y-76260357D01*
X116447446Y-76516841D01*
X115651291Y-76516841D01*
X115602404Y-76467954D01*
X115112912Y-76265200D01*
X114583088Y-76265200D01*
X114093596Y-76467954D01*
X113718954Y-76842596D01*
X113598000Y-77134605D01*
X113477046Y-76842596D01*
X113102404Y-76467954D01*
X112612912Y-76265200D01*
X112083088Y-76265200D01*
X111593596Y-76467954D01*
X111218954Y-76842596D01*
X111016200Y-77332088D01*
X111016200Y-77861912D01*
X111218954Y-78351404D01*
X111593596Y-78726046D01*
X112083088Y-78928800D01*
X112612912Y-78928800D01*
X112690736Y-78896564D01*
X110336989Y-81250311D01*
X110039820Y-81191200D01*
X109797180Y-81191200D01*
X109437876Y-81262670D01*
X109030422Y-81534922D01*
X108758170Y-81942376D01*
X108662568Y-82423000D01*
X77266800Y-82423000D01*
X77266800Y-77907722D01*
X77278758Y-77902769D01*
X77625269Y-77556258D01*
X77630222Y-77544300D01*
X84681458Y-77544300D01*
X84749000Y-77557735D01*
X84794336Y-77548717D01*
X84971980Y-77622300D01*
X85462020Y-77622300D01*
X85914758Y-77434769D01*
X86261269Y-77088258D01*
X86448800Y-76635520D01*
X86448800Y-76145480D01*
X86261269Y-75692742D01*
X85914758Y-75346231D01*
X85462020Y-75158700D01*
X84971980Y-75158700D01*
X84519242Y-75346231D01*
X84172731Y-75692742D01*
X83985200Y-76145480D01*
X83985200Y-76172700D01*
X77630222Y-76172700D01*
X77625269Y-76160742D01*
X77278758Y-75814231D01*
X76826020Y-75626700D01*
X76335980Y-75626700D01*
X75883242Y-75814231D01*
X75536731Y-76160742D01*
X75349200Y-76613480D01*
X75349200Y-77103520D01*
X75536731Y-77556258D01*
X75883242Y-77902769D01*
X75895200Y-77907722D01*
X75895200Y-83217235D01*
X75867989Y-83176511D01*
X75146296Y-82694290D01*
X74509884Y-82567700D01*
X74080116Y-82567700D01*
X73443704Y-82694290D01*
X72722011Y-83176511D01*
X72239790Y-83898204D01*
X72070457Y-84749500D01*
X72239790Y-85600796D01*
X72722011Y-86322489D01*
X73443704Y-86804710D01*
X74080116Y-86931300D01*
X74509884Y-86931300D01*
X75146296Y-86804710D01*
X75867989Y-86322489D01*
X75895200Y-86281764D01*
X75895201Y-100325071D01*
X75836975Y-100363976D01*
X75565000Y-100771016D01*
X75293024Y-100363975D01*
X74835126Y-100058018D01*
X74295000Y-99950580D01*
X73754873Y-100058018D01*
X73296975Y-100363976D01*
X73147759Y-100587294D01*
X73147759Y-100409500D01*
X73114246Y-100241020D01*
X73018810Y-100098190D01*
X72875980Y-100002754D01*
X72707500Y-99969241D01*
X70802500Y-99969241D01*
X70634020Y-100002754D01*
X70491190Y-100098190D01*
X70395754Y-100241020D01*
X70362241Y-100409500D01*
X70362241Y-100926384D01*
X70214741Y-101024941D01*
X70184984Y-101069475D01*
X68303475Y-102950985D01*
X68258942Y-102980741D01*
X68229186Y-103025274D01*
X68229185Y-103025275D01*
X68141050Y-103157178D01*
X68099652Y-103365300D01*
X68110101Y-103417831D01*
X68110100Y-105313651D01*
X67945742Y-105381731D01*
X67599231Y-105728242D01*
X67411700Y-106180980D01*
X67411700Y-106671020D01*
X67599231Y-107123758D01*
X67945742Y-107470269D01*
X68398480Y-107657800D01*
X68888520Y-107657800D01*
X69341258Y-107470269D01*
X69687769Y-107123758D01*
X69875300Y-106671020D01*
X69875300Y-106180980D01*
X69687769Y-105728242D01*
X69341258Y-105381731D01*
X69176900Y-105313651D01*
X69176900Y-103586240D01*
X70362241Y-102400900D01*
X70362241Y-102409500D01*
X70395754Y-102577980D01*
X70491190Y-102720810D01*
X70634020Y-102816246D01*
X70802500Y-102849759D01*
X72707500Y-102849759D01*
X72875980Y-102816246D01*
X73018810Y-102720810D01*
X73063101Y-102654524D01*
X73063100Y-105186651D01*
X72898742Y-105254731D01*
X72552231Y-105601242D01*
X72364700Y-106053980D01*
X72364700Y-106544020D01*
X72552231Y-106996758D01*
X72898742Y-107343269D01*
X73351480Y-107530800D01*
X73841520Y-107530800D01*
X74294258Y-107343269D01*
X74640769Y-106996758D01*
X74828300Y-106544020D01*
X74828300Y-106053980D01*
X74640769Y-105601242D01*
X74294258Y-105254731D01*
X74129900Y-105186651D01*
X74129900Y-102835579D01*
X74295000Y-102868420D01*
X74835127Y-102760982D01*
X75293025Y-102455025D01*
X75565000Y-102047984D01*
X75836976Y-102455025D01*
X76294874Y-102760982D01*
X76835000Y-102868420D01*
X77375127Y-102760982D01*
X77825601Y-102459986D01*
X77825600Y-105377151D01*
X77661242Y-105445231D01*
X77314731Y-105791742D01*
X77127200Y-106244480D01*
X77127200Y-106734520D01*
X77195280Y-106898879D01*
X74382561Y-109711599D01*
X69957028Y-109711599D01*
X69904501Y-109701151D01*
X69851974Y-109711599D01*
X69851970Y-109711599D01*
X69696379Y-109742548D01*
X69519942Y-109860440D01*
X69490185Y-109904974D01*
X69061872Y-110333287D01*
X68764820Y-110274200D01*
X68522180Y-110274200D01*
X68162876Y-110345670D01*
X67755422Y-110617922D01*
X67483170Y-111025376D01*
X67387568Y-111506000D01*
X67483170Y-111986624D01*
X67755422Y-112394078D01*
X67957700Y-112529236D01*
X67957701Y-126740259D01*
X67944265Y-126807806D01*
X67997491Y-127075391D01*
X67997492Y-127075392D01*
X68149067Y-127302240D01*
X68206330Y-127340502D01*
X75680301Y-134814474D01*
X68960571Y-134857672D01*
X68841922Y-134739023D01*
X68095150Y-134429700D01*
X67286850Y-134429700D01*
X66548259Y-134735634D01*
X66608002Y-73558500D01*
X75340741Y-73558500D01*
X75340741Y-75158500D01*
X75374254Y-75326980D01*
X75469690Y-75469810D01*
X75612520Y-75565246D01*
X75781000Y-75598759D01*
X77381000Y-75598759D01*
X77549480Y-75565246D01*
X77692310Y-75469810D01*
X77787746Y-75326980D01*
X77821259Y-75158500D01*
X77821259Y-73558500D01*
X77787746Y-73390020D01*
X77692310Y-73247190D01*
X77549480Y-73151754D01*
X77381000Y-73118241D01*
X75781000Y-73118241D01*
X75612520Y-73151754D01*
X75469690Y-73247190D01*
X75374254Y-73390020D01*
X75340741Y-73558500D01*
X66608002Y-73558500D01*
X66611382Y-70097656D01*
X97163864Y-68529745D01*
X96940551Y-68753058D01*
X96771064Y-69162236D01*
X90715489Y-75217811D01*
X90418320Y-75158700D01*
X90175680Y-75158700D01*
X89816376Y-75230170D01*
X89408922Y-75502422D01*
X89136670Y-75909876D01*
X89041068Y-76390500D01*
X89136670Y-76871124D01*
X89408922Y-77278578D01*
X89816376Y-77550830D01*
X90175680Y-77622300D01*
X90418320Y-77622300D01*
X90777624Y-77550830D01*
X91185078Y-77278578D01*
X91457330Y-76871124D01*
X91552932Y-76390500D01*
X91469689Y-75972011D01*
X93185307Y-74256393D01*
X96765200Y-74256393D01*
X96765200Y-74714607D01*
X96940551Y-75137942D01*
X97264558Y-75461949D01*
X97687893Y-75637300D01*
X98146107Y-75637300D01*
X98569442Y-75461949D01*
X98893449Y-75137942D01*
X99068800Y-74714607D01*
X99068800Y-74256393D01*
X98893449Y-73833058D01*
X98569442Y-73509051D01*
X98146107Y-73333700D01*
X97687893Y-73333700D01*
X97264558Y-73509051D01*
X96940551Y-73833058D01*
X96765200Y-74256393D01*
X93185307Y-74256393D01*
X97162155Y-70279546D01*
X97264558Y-70381949D01*
X97687893Y-70557300D01*
X98146107Y-70557300D01*
X98265250Y-70507950D01*
X99354550Y-71597250D01*
X99305200Y-71716393D01*
X99305200Y-72174607D01*
X99480551Y-72597942D01*
X99804558Y-72921949D01*
X100227893Y-73097300D01*
X100686107Y-73097300D01*
X101109442Y-72921949D01*
X101433449Y-72597942D01*
X101608800Y-72174607D01*
X101608800Y-71716393D01*
X101433449Y-71293058D01*
X101109442Y-70969051D01*
X100686107Y-70793700D01*
X100227893Y-70793700D01*
X100108750Y-70843050D01*
X99378985Y-70113285D01*
X108016200Y-70113285D01*
X108016200Y-71080715D01*
X108386419Y-71974504D01*
X109070496Y-72658581D01*
X109964285Y-73028800D01*
X110931715Y-73028800D01*
X111825504Y-72658581D01*
X112509581Y-71974504D01*
X112879800Y-71080715D01*
X112879800Y-70113285D01*
X116816200Y-70113285D01*
X116816200Y-71080715D01*
X117186419Y-71974504D01*
X117870496Y-72658581D01*
X118764285Y-73028800D01*
X119731715Y-73028800D01*
X120625504Y-72658581D01*
X121309581Y-71974504D01*
X121679800Y-71080715D01*
X121679800Y-70113285D01*
X121309581Y-69219496D01*
X120625504Y-68535419D01*
X119731715Y-68165200D01*
X118764285Y-68165200D01*
X117870496Y-68535419D01*
X117186419Y-69219496D01*
X116816200Y-70113285D01*
X112879800Y-70113285D01*
X112509581Y-69219496D01*
X111825504Y-68535419D01*
X110931715Y-68165200D01*
X109964285Y-68165200D01*
X109070496Y-68535419D01*
X108386419Y-69219496D01*
X108016200Y-70113285D01*
X99378985Y-70113285D01*
X99019450Y-69753750D01*
X99068800Y-69634607D01*
X99068800Y-69176393D01*
X98893449Y-68753058D01*
X98596610Y-68456219D01*
X155447507Y-65538710D01*
X155325649Y-98653700D01*
G04 #@! TD*
M02*
