G04 #@! TF.GenerationSoftware,KiCad,Pcbnew,(5.0.1)-rc2*
G04 #@! TF.CreationDate,2019-01-13T20:35:24-05:00*
G04 #@! TF.ProjectId,cem3340-module,63656D333334302D6D6F64756C652E6B,rev?*
G04 #@! TF.SameCoordinates,Original*
G04 #@! TF.FileFunction,Soldermask,Bot*
G04 #@! TF.FilePolarity,Negative*
%FSLAX46Y46*%
G04 Gerber Fmt 4.6, Leading zero omitted, Abs format (unit mm)*
G04 Created by KiCad (PCBNEW (5.0.1)-rc2) date 1/13/2019 8:35:24 PM*
%MOMM*%
%LPD*%
G01*
G04 APERTURE LIST*
%ADD10C,0.100000*%
G04 APERTURE END LIST*
D10*
G36*
X68024489Y-134692571D02*
X68216041Y-134730673D01*
X68543620Y-134866361D01*
X68834511Y-135060728D01*
X68838436Y-135063351D01*
X69089149Y-135314064D01*
X69286140Y-135608882D01*
X69421827Y-135936460D01*
X69491000Y-136284214D01*
X69491000Y-136638786D01*
X69421827Y-136986540D01*
X69286140Y-137314118D01*
X69089149Y-137608936D01*
X68838436Y-137859649D01*
X68838433Y-137859651D01*
X68543620Y-138056639D01*
X68216041Y-138192327D01*
X68100122Y-138215385D01*
X67868286Y-138261500D01*
X67513714Y-138261500D01*
X67281878Y-138215385D01*
X67165959Y-138192327D01*
X66838380Y-138056639D01*
X66543567Y-137859651D01*
X66543564Y-137859649D01*
X66292851Y-137608936D01*
X66095860Y-137314118D01*
X65960173Y-136986540D01*
X65891000Y-136638786D01*
X65891000Y-136284214D01*
X65960173Y-135936460D01*
X66095860Y-135608882D01*
X66292851Y-135314064D01*
X66543564Y-135063351D01*
X66547489Y-135060728D01*
X66838380Y-134866361D01*
X67165959Y-134730673D01*
X67357511Y-134692571D01*
X67513714Y-134661500D01*
X67868286Y-134661500D01*
X68024489Y-134692571D01*
X68024489Y-134692571D01*
G37*
G36*
X162766489Y-134692571D02*
X162958041Y-134730673D01*
X163285620Y-134866361D01*
X163576511Y-135060728D01*
X163580436Y-135063351D01*
X163831149Y-135314064D01*
X164028140Y-135608882D01*
X164163827Y-135936460D01*
X164233000Y-136284214D01*
X164233000Y-136638786D01*
X164163827Y-136986540D01*
X164028140Y-137314118D01*
X163831149Y-137608936D01*
X163580436Y-137859649D01*
X163580433Y-137859651D01*
X163285620Y-138056639D01*
X162958041Y-138192327D01*
X162842122Y-138215385D01*
X162610286Y-138261500D01*
X162255714Y-138261500D01*
X162023878Y-138215385D01*
X161907959Y-138192327D01*
X161580380Y-138056639D01*
X161285567Y-137859651D01*
X161285564Y-137859649D01*
X161034851Y-137608936D01*
X160837860Y-137314118D01*
X160702173Y-136986540D01*
X160633000Y-136638786D01*
X160633000Y-136284214D01*
X160702173Y-135936460D01*
X160837860Y-135608882D01*
X161034851Y-135314064D01*
X161285564Y-135063351D01*
X161289489Y-135060728D01*
X161580380Y-134866361D01*
X161907959Y-134730673D01*
X162099511Y-134692571D01*
X162255714Y-134661500D01*
X162610286Y-134661500D01*
X162766489Y-134692571D01*
X162766489Y-134692571D01*
G37*
G36*
X99235770Y-132809872D02*
X99351689Y-132832929D01*
X99533678Y-132908311D01*
X99697463Y-133017749D01*
X99836751Y-133157037D01*
X99946189Y-133320822D01*
X100021571Y-133502811D01*
X100044628Y-133618730D01*
X100060000Y-133696007D01*
X100060000Y-133892993D01*
X100053229Y-133927034D01*
X100021571Y-134086189D01*
X99946189Y-134268178D01*
X99836751Y-134431963D01*
X99697463Y-134571251D01*
X99533678Y-134680689D01*
X99351689Y-134756071D01*
X99235770Y-134779128D01*
X99158493Y-134794500D01*
X98961507Y-134794500D01*
X98884230Y-134779128D01*
X98768311Y-134756071D01*
X98586322Y-134680689D01*
X98422537Y-134571251D01*
X98283249Y-134431963D01*
X98173811Y-134268178D01*
X98098429Y-134086189D01*
X98066771Y-133927034D01*
X98060000Y-133892993D01*
X98060000Y-133696007D01*
X98075372Y-133618730D01*
X98098429Y-133502811D01*
X98173811Y-133320822D01*
X98283249Y-133157037D01*
X98422537Y-133017749D01*
X98586322Y-132908311D01*
X98768311Y-132832929D01*
X98884230Y-132809872D01*
X98961507Y-132794500D01*
X99158493Y-132794500D01*
X99235770Y-132809872D01*
X99235770Y-132809872D01*
G37*
G36*
X94176030Y-132808969D02*
X94176033Y-132808970D01*
X94176034Y-132808970D01*
X94364535Y-132866151D01*
X94364537Y-132866152D01*
X94538260Y-132959009D01*
X94690528Y-133083972D01*
X94815491Y-133236240D01*
X94890093Y-133375811D01*
X94908349Y-133409965D01*
X94956594Y-133569009D01*
X94965531Y-133598470D01*
X94984838Y-133794500D01*
X94965531Y-133990530D01*
X94965530Y-133990533D01*
X94965530Y-133990534D01*
X94919833Y-134141178D01*
X94908348Y-134179037D01*
X94815491Y-134352760D01*
X94690528Y-134505028D01*
X94538260Y-134629991D01*
X94538258Y-134629992D01*
X94364535Y-134722849D01*
X94176034Y-134780030D01*
X94176033Y-134780030D01*
X94176030Y-134780031D01*
X94029124Y-134794500D01*
X93930876Y-134794500D01*
X93783970Y-134780031D01*
X93783967Y-134780030D01*
X93783966Y-134780030D01*
X93595465Y-134722849D01*
X93421742Y-134629992D01*
X93421740Y-134629991D01*
X93269472Y-134505028D01*
X93144509Y-134352760D01*
X93051652Y-134179037D01*
X93040168Y-134141178D01*
X92994470Y-133990534D01*
X92994470Y-133990533D01*
X92994469Y-133990530D01*
X92975162Y-133794500D01*
X92994469Y-133598470D01*
X93003406Y-133569009D01*
X93051651Y-133409965D01*
X93069907Y-133375811D01*
X93144509Y-133236240D01*
X93269472Y-133083972D01*
X93421740Y-132959009D01*
X93595463Y-132866152D01*
X93595465Y-132866151D01*
X93783966Y-132808970D01*
X93783967Y-132808970D01*
X93783970Y-132808969D01*
X93930876Y-132794500D01*
X94029124Y-132794500D01*
X94176030Y-132808969D01*
X94176030Y-132808969D01*
G37*
G36*
X104272530Y-132745469D02*
X104272533Y-132745470D01*
X104272534Y-132745470D01*
X104461035Y-132802651D01*
X104461037Y-132802652D01*
X104634760Y-132895509D01*
X104787028Y-133020472D01*
X104911991Y-133172740D01*
X105004848Y-133346463D01*
X105062031Y-133534970D01*
X105081338Y-133731000D01*
X105062031Y-133927030D01*
X105062030Y-133927033D01*
X105062030Y-133927034D01*
X105042768Y-133990534D01*
X105004848Y-134115537D01*
X104911991Y-134289260D01*
X104787028Y-134441528D01*
X104634760Y-134566491D01*
X104634758Y-134566492D01*
X104461035Y-134659349D01*
X104272534Y-134716530D01*
X104272533Y-134716530D01*
X104272530Y-134716531D01*
X104125624Y-134731000D01*
X104027376Y-134731000D01*
X103880470Y-134716531D01*
X103880467Y-134716530D01*
X103880466Y-134716530D01*
X103691965Y-134659349D01*
X103518242Y-134566492D01*
X103518240Y-134566491D01*
X103365972Y-134441528D01*
X103241009Y-134289260D01*
X103148152Y-134115537D01*
X103110233Y-133990534D01*
X103090970Y-133927034D01*
X103090970Y-133927033D01*
X103090969Y-133927030D01*
X103071662Y-133731000D01*
X103090969Y-133534970D01*
X103148152Y-133346463D01*
X103241009Y-133172740D01*
X103365972Y-133020472D01*
X103518240Y-132895509D01*
X103691963Y-132802652D01*
X103691965Y-132802651D01*
X103880466Y-132745470D01*
X103880467Y-132745470D01*
X103880470Y-132745469D01*
X104027376Y-132731000D01*
X104125624Y-132731000D01*
X104272530Y-132745469D01*
X104272530Y-132745469D01*
G37*
G36*
X109332270Y-132746372D02*
X109448189Y-132769429D01*
X109630178Y-132844811D01*
X109793963Y-132954249D01*
X109933251Y-133093537D01*
X110042689Y-133257322D01*
X110118071Y-133439311D01*
X110141128Y-133555230D01*
X110149730Y-133598470D01*
X110156500Y-133632509D01*
X110156500Y-133829491D01*
X110118071Y-134022689D01*
X110042689Y-134204678D01*
X109933251Y-134368463D01*
X109793963Y-134507751D01*
X109630178Y-134617189D01*
X109448189Y-134692571D01*
X109332270Y-134715628D01*
X109254993Y-134731000D01*
X109058007Y-134731000D01*
X108980730Y-134715628D01*
X108864811Y-134692571D01*
X108682822Y-134617189D01*
X108519037Y-134507751D01*
X108379749Y-134368463D01*
X108270311Y-134204678D01*
X108194929Y-134022689D01*
X108156500Y-133829491D01*
X108156500Y-133632509D01*
X108163271Y-133598470D01*
X108171872Y-133555230D01*
X108194929Y-133439311D01*
X108270311Y-133257322D01*
X108379749Y-133093537D01*
X108519037Y-132954249D01*
X108682822Y-132844811D01*
X108864811Y-132769429D01*
X108980730Y-132746372D01*
X109058007Y-132731000D01*
X109254993Y-132731000D01*
X109332270Y-132746372D01*
X109332270Y-132746372D01*
G37*
G36*
X86178270Y-132682872D02*
X86294189Y-132705929D01*
X86476178Y-132781311D01*
X86639963Y-132890749D01*
X86779251Y-133030037D01*
X86888689Y-133193822D01*
X86964071Y-133375811D01*
X86976702Y-133439311D01*
X87002500Y-133569007D01*
X87002500Y-133765993D01*
X86989869Y-133829491D01*
X86964071Y-133959189D01*
X86888689Y-134141178D01*
X86779251Y-134304963D01*
X86639963Y-134444251D01*
X86476178Y-134553689D01*
X86294189Y-134629071D01*
X86178270Y-134652128D01*
X86100993Y-134667500D01*
X85904007Y-134667500D01*
X85826730Y-134652128D01*
X85710811Y-134629071D01*
X85528822Y-134553689D01*
X85365037Y-134444251D01*
X85225749Y-134304963D01*
X85116311Y-134141178D01*
X85040929Y-133959189D01*
X85015131Y-133829491D01*
X85002500Y-133765993D01*
X85002500Y-133569007D01*
X85028298Y-133439311D01*
X85040929Y-133375811D01*
X85116311Y-133193822D01*
X85225749Y-133030037D01*
X85365037Y-132890749D01*
X85528822Y-132781311D01*
X85710811Y-132705929D01*
X85826730Y-132682872D01*
X85904007Y-132667500D01*
X86100993Y-132667500D01*
X86178270Y-132682872D01*
X86178270Y-132682872D01*
G37*
G36*
X84502500Y-134667500D02*
X82502500Y-134667500D01*
X82502500Y-132667500D01*
X84502500Y-132667500D01*
X84502500Y-134667500D01*
X84502500Y-134667500D01*
G37*
G36*
X122179530Y-131157969D02*
X122179533Y-131157970D01*
X122179534Y-131157970D01*
X122368035Y-131215151D01*
X122368037Y-131215152D01*
X122541760Y-131308009D01*
X122694028Y-131432972D01*
X122818991Y-131585240D01*
X122911848Y-131758963D01*
X122969031Y-131947470D01*
X122988338Y-132143500D01*
X122969031Y-132339530D01*
X122911848Y-132528037D01*
X122818991Y-132701760D01*
X122694028Y-132854028D01*
X122541760Y-132978991D01*
X122446911Y-133029689D01*
X122368035Y-133071849D01*
X122179534Y-133129030D01*
X122179533Y-133129030D01*
X122179530Y-133129031D01*
X122032624Y-133143500D01*
X121934376Y-133143500D01*
X121787470Y-133129031D01*
X121787467Y-133129030D01*
X121787466Y-133129030D01*
X121598965Y-133071849D01*
X121520089Y-133029689D01*
X121425240Y-132978991D01*
X121272972Y-132854028D01*
X121148009Y-132701760D01*
X121055152Y-132528037D01*
X120997969Y-132339530D01*
X120978662Y-132143500D01*
X120997969Y-131947470D01*
X121055152Y-131758963D01*
X121148009Y-131585240D01*
X121272972Y-131432972D01*
X121425240Y-131308009D01*
X121598963Y-131215152D01*
X121598965Y-131215151D01*
X121787466Y-131157970D01*
X121787467Y-131157970D01*
X121787470Y-131157969D01*
X121934376Y-131143500D01*
X122032624Y-131143500D01*
X122179530Y-131157969D01*
X122179530Y-131157969D01*
G37*
G36*
X127747270Y-131158872D02*
X127863189Y-131181929D01*
X128045178Y-131257311D01*
X128208963Y-131366749D01*
X128348251Y-131506037D01*
X128457689Y-131669822D01*
X128533071Y-131851811D01*
X128571500Y-132045009D01*
X128571500Y-132241991D01*
X128533071Y-132435189D01*
X128457689Y-132617178D01*
X128348251Y-132780963D01*
X128208963Y-132920251D01*
X128045178Y-133029689D01*
X127863189Y-133105071D01*
X127747270Y-133128128D01*
X127669993Y-133143500D01*
X127473007Y-133143500D01*
X127395730Y-133128128D01*
X127279811Y-133105071D01*
X127097822Y-133029689D01*
X126934037Y-132920251D01*
X126794749Y-132780963D01*
X126685311Y-132617178D01*
X126609929Y-132435189D01*
X126571500Y-132241991D01*
X126571500Y-132045009D01*
X126609929Y-131851811D01*
X126685311Y-131669822D01*
X126794749Y-131506037D01*
X126934037Y-131366749D01*
X127097822Y-131257311D01*
X127279811Y-131181929D01*
X127395730Y-131158872D01*
X127473007Y-131143500D01*
X127669993Y-131143500D01*
X127747270Y-131158872D01*
X127747270Y-131158872D01*
G37*
G36*
X132747270Y-131158872D02*
X132863189Y-131181929D01*
X133045178Y-131257311D01*
X133208963Y-131366749D01*
X133348251Y-131506037D01*
X133457689Y-131669822D01*
X133533071Y-131851811D01*
X133571500Y-132045009D01*
X133571500Y-132241991D01*
X133533071Y-132435189D01*
X133457689Y-132617178D01*
X133348251Y-132780963D01*
X133208963Y-132920251D01*
X133045178Y-133029689D01*
X132863189Y-133105071D01*
X132747270Y-133128128D01*
X132669993Y-133143500D01*
X132473007Y-133143500D01*
X132395730Y-133128128D01*
X132279811Y-133105071D01*
X132097822Y-133029689D01*
X131934037Y-132920251D01*
X131794749Y-132780963D01*
X131685311Y-132617178D01*
X131609929Y-132435189D01*
X131571500Y-132241991D01*
X131571500Y-132045009D01*
X131609929Y-131851811D01*
X131685311Y-131669822D01*
X131794749Y-131506037D01*
X131934037Y-131366749D01*
X132097822Y-131257311D01*
X132279811Y-131181929D01*
X132395730Y-131158872D01*
X132473007Y-131143500D01*
X132669993Y-131143500D01*
X132747270Y-131158872D01*
X132747270Y-131158872D01*
G37*
G36*
X117099530Y-131157969D02*
X117099533Y-131157970D01*
X117099534Y-131157970D01*
X117288035Y-131215151D01*
X117288037Y-131215152D01*
X117461760Y-131308009D01*
X117614028Y-131432972D01*
X117738991Y-131585240D01*
X117831848Y-131758963D01*
X117889031Y-131947470D01*
X117908338Y-132143500D01*
X117889031Y-132339530D01*
X117831848Y-132528037D01*
X117738991Y-132701760D01*
X117614028Y-132854028D01*
X117461760Y-132978991D01*
X117366911Y-133029689D01*
X117288035Y-133071849D01*
X117099534Y-133129030D01*
X117099533Y-133129030D01*
X117099530Y-133129031D01*
X116952624Y-133143500D01*
X116854376Y-133143500D01*
X116707470Y-133129031D01*
X116707467Y-133129030D01*
X116707466Y-133129030D01*
X116518965Y-133071849D01*
X116440089Y-133029689D01*
X116345240Y-132978991D01*
X116192972Y-132854028D01*
X116068009Y-132701760D01*
X115975152Y-132528037D01*
X115917969Y-132339530D01*
X115898662Y-132143500D01*
X115917969Y-131947470D01*
X115975152Y-131758963D01*
X116068009Y-131585240D01*
X116192972Y-131432972D01*
X116345240Y-131308009D01*
X116518963Y-131215152D01*
X116518965Y-131215151D01*
X116707466Y-131157970D01*
X116707467Y-131157970D01*
X116707470Y-131157969D01*
X116854376Y-131143500D01*
X116952624Y-131143500D01*
X117099530Y-131157969D01*
X117099530Y-131157969D01*
G37*
G36*
X119639530Y-131157969D02*
X119639533Y-131157970D01*
X119639534Y-131157970D01*
X119828035Y-131215151D01*
X119828037Y-131215152D01*
X120001760Y-131308009D01*
X120154028Y-131432972D01*
X120278991Y-131585240D01*
X120371848Y-131758963D01*
X120429031Y-131947470D01*
X120448338Y-132143500D01*
X120429031Y-132339530D01*
X120371848Y-132528037D01*
X120278991Y-132701760D01*
X120154028Y-132854028D01*
X120001760Y-132978991D01*
X119906911Y-133029689D01*
X119828035Y-133071849D01*
X119639534Y-133129030D01*
X119639533Y-133129030D01*
X119639530Y-133129031D01*
X119492624Y-133143500D01*
X119394376Y-133143500D01*
X119247470Y-133129031D01*
X119247467Y-133129030D01*
X119247466Y-133129030D01*
X119058965Y-133071849D01*
X118980089Y-133029689D01*
X118885240Y-132978991D01*
X118732972Y-132854028D01*
X118608009Y-132701760D01*
X118515152Y-132528037D01*
X118457969Y-132339530D01*
X118438662Y-132143500D01*
X118457969Y-131947470D01*
X118515152Y-131758963D01*
X118608009Y-131585240D01*
X118732972Y-131432972D01*
X118885240Y-131308009D01*
X119058963Y-131215152D01*
X119058965Y-131215151D01*
X119247466Y-131157970D01*
X119247467Y-131157970D01*
X119247470Y-131157969D01*
X119394376Y-131143500D01*
X119492624Y-131143500D01*
X119639530Y-131157969D01*
X119639530Y-131157969D01*
G37*
G36*
X124719530Y-131157969D02*
X124719533Y-131157970D01*
X124719534Y-131157970D01*
X124908035Y-131215151D01*
X124908037Y-131215152D01*
X125081760Y-131308009D01*
X125234028Y-131432972D01*
X125358991Y-131585240D01*
X125451848Y-131758963D01*
X125509031Y-131947470D01*
X125528338Y-132143500D01*
X125509031Y-132339530D01*
X125451848Y-132528037D01*
X125358991Y-132701760D01*
X125234028Y-132854028D01*
X125081760Y-132978991D01*
X124986911Y-133029689D01*
X124908035Y-133071849D01*
X124719534Y-133129030D01*
X124719533Y-133129030D01*
X124719530Y-133129031D01*
X124572624Y-133143500D01*
X124474376Y-133143500D01*
X124327470Y-133129031D01*
X124327467Y-133129030D01*
X124327466Y-133129030D01*
X124138965Y-133071849D01*
X124060089Y-133029689D01*
X123965240Y-132978991D01*
X123812972Y-132854028D01*
X123688009Y-132701760D01*
X123595152Y-132528037D01*
X123537969Y-132339530D01*
X123518662Y-132143500D01*
X123537969Y-131947470D01*
X123595152Y-131758963D01*
X123688009Y-131585240D01*
X123812972Y-131432972D01*
X123965240Y-131308009D01*
X124138963Y-131215152D01*
X124138965Y-131215151D01*
X124327466Y-131157970D01*
X124327467Y-131157970D01*
X124327470Y-131157969D01*
X124474376Y-131143500D01*
X124572624Y-131143500D01*
X124719530Y-131157969D01*
X124719530Y-131157969D01*
G37*
G36*
X110665770Y-128983372D02*
X110781689Y-129006429D01*
X110963678Y-129081811D01*
X111127463Y-129191249D01*
X111266751Y-129330537D01*
X111376189Y-129494322D01*
X111451571Y-129676311D01*
X111454693Y-129692009D01*
X111486717Y-129853000D01*
X111490000Y-129869509D01*
X111490000Y-130066491D01*
X111451571Y-130259689D01*
X111376189Y-130441678D01*
X111266751Y-130605463D01*
X111127463Y-130744751D01*
X110963678Y-130854189D01*
X110781689Y-130929571D01*
X110665770Y-130952628D01*
X110588493Y-130968000D01*
X110391507Y-130968000D01*
X110314230Y-130952628D01*
X110198311Y-130929571D01*
X110016322Y-130854189D01*
X109852537Y-130744751D01*
X109713249Y-130605463D01*
X109603811Y-130441678D01*
X109528429Y-130259689D01*
X109490000Y-130066491D01*
X109490000Y-129869509D01*
X109493284Y-129853000D01*
X109525307Y-129692009D01*
X109528429Y-129676311D01*
X109603811Y-129494322D01*
X109713249Y-129330537D01*
X109852537Y-129191249D01*
X110016322Y-129081811D01*
X110198311Y-129006429D01*
X110314230Y-128983372D01*
X110391507Y-128968000D01*
X110588493Y-128968000D01*
X110665770Y-128983372D01*
X110665770Y-128983372D01*
G37*
G36*
X76673826Y-127714576D02*
X76749227Y-127737449D01*
X76824628Y-127760321D01*
X76963604Y-127834606D01*
X76963606Y-127834607D01*
X76963605Y-127834607D01*
X77085422Y-127934578D01*
X77085423Y-127934580D01*
X77085425Y-127934581D01*
X77185392Y-128056392D01*
X77259679Y-128195371D01*
X77305424Y-128346174D01*
X77317000Y-128463705D01*
X77317000Y-129092295D01*
X77305424Y-129209826D01*
X77259679Y-129360629D01*
X77185392Y-129499608D01*
X77085422Y-129621422D01*
X76963608Y-129721392D01*
X76824629Y-129795679D01*
X76749228Y-129818551D01*
X76673827Y-129841424D01*
X76517000Y-129856870D01*
X76360174Y-129841424D01*
X76284773Y-129818551D01*
X76209372Y-129795679D01*
X76070393Y-129721392D01*
X75948579Y-129621422D01*
X75848608Y-129499608D01*
X75774321Y-129360629D01*
X75728576Y-129209826D01*
X75717000Y-129092295D01*
X75717000Y-128463706D01*
X75728576Y-128346175D01*
X75728577Y-128346173D01*
X75774321Y-128195373D01*
X75774321Y-128195372D01*
X75848606Y-128056396D01*
X75948576Y-127934581D01*
X75948578Y-127934578D01*
X75948580Y-127934577D01*
X75948581Y-127934575D01*
X76070392Y-127834608D01*
X76209371Y-127760321D01*
X76284772Y-127737449D01*
X76360173Y-127714576D01*
X76517000Y-127699130D01*
X76673826Y-127714576D01*
X76673826Y-127714576D01*
G37*
G36*
X74673826Y-127714576D02*
X74749227Y-127737449D01*
X74824628Y-127760321D01*
X74963604Y-127834606D01*
X74963606Y-127834607D01*
X74963605Y-127834607D01*
X75085422Y-127934578D01*
X75085423Y-127934580D01*
X75085425Y-127934581D01*
X75185392Y-128056392D01*
X75259679Y-128195371D01*
X75305424Y-128346174D01*
X75317000Y-128463705D01*
X75317000Y-129092295D01*
X75305424Y-129209826D01*
X75259679Y-129360629D01*
X75185392Y-129499608D01*
X75085422Y-129621422D01*
X74963608Y-129721392D01*
X74824629Y-129795679D01*
X74749228Y-129818551D01*
X74673827Y-129841424D01*
X74517000Y-129856870D01*
X74360174Y-129841424D01*
X74284773Y-129818551D01*
X74209372Y-129795679D01*
X74070393Y-129721392D01*
X73948579Y-129621422D01*
X73848608Y-129499608D01*
X73774321Y-129360629D01*
X73728576Y-129209826D01*
X73717000Y-129092295D01*
X73717000Y-128463706D01*
X73728576Y-128346175D01*
X73728577Y-128346173D01*
X73774321Y-128195373D01*
X73774321Y-128195372D01*
X73848606Y-128056396D01*
X73948576Y-127934581D01*
X73948578Y-127934578D01*
X73948580Y-127934577D01*
X73948581Y-127934575D01*
X74070392Y-127834608D01*
X74209371Y-127760321D01*
X74284772Y-127737449D01*
X74360173Y-127714576D01*
X74517000Y-127699130D01*
X74673826Y-127714576D01*
X74673826Y-127714576D01*
G37*
G36*
X73107269Y-127708597D02*
X73156009Y-127723382D01*
X73200931Y-127747393D01*
X73240298Y-127779702D01*
X73272607Y-127819069D01*
X73296618Y-127863991D01*
X73311403Y-127912731D01*
X73317000Y-127969557D01*
X73317000Y-129586443D01*
X73311403Y-129643269D01*
X73296618Y-129692009D01*
X73272607Y-129736931D01*
X73240298Y-129776298D01*
X73200931Y-129808607D01*
X73156009Y-129832618D01*
X73107269Y-129847403D01*
X73050443Y-129853000D01*
X71983557Y-129853000D01*
X71926731Y-129847403D01*
X71877991Y-129832618D01*
X71833069Y-129808607D01*
X71793702Y-129776298D01*
X71761393Y-129736931D01*
X71737382Y-129692009D01*
X71722597Y-129643269D01*
X71717000Y-129586443D01*
X71717000Y-127969557D01*
X71722597Y-127912731D01*
X71737382Y-127863991D01*
X71761393Y-127819069D01*
X71793702Y-127779702D01*
X71833069Y-127747393D01*
X71877991Y-127723382D01*
X71926731Y-127708597D01*
X71983557Y-127703000D01*
X73050443Y-127703000D01*
X73107269Y-127708597D01*
X73107269Y-127708597D01*
G37*
G36*
X96935000Y-129320000D02*
X94835000Y-129320000D01*
X94835000Y-127220000D01*
X96935000Y-127220000D01*
X96935000Y-129320000D01*
X96935000Y-129320000D01*
G37*
G36*
X93473707Y-127227597D02*
X93550836Y-127235193D01*
X93682787Y-127275220D01*
X93748763Y-127295233D01*
X93931172Y-127392733D01*
X94091054Y-127523946D01*
X94222267Y-127683828D01*
X94319767Y-127866237D01*
X94339780Y-127932213D01*
X94379807Y-128064164D01*
X94400080Y-128270000D01*
X94379807Y-128475836D01*
X94366423Y-128519956D01*
X94319767Y-128673763D01*
X94222267Y-128856172D01*
X94091054Y-129016054D01*
X93931172Y-129147267D01*
X93748763Y-129244767D01*
X93682787Y-129264780D01*
X93550836Y-129304807D01*
X93473707Y-129312403D01*
X93396580Y-129320000D01*
X93293420Y-129320000D01*
X93216293Y-129312403D01*
X93139164Y-129304807D01*
X93007213Y-129264780D01*
X92941237Y-129244767D01*
X92758828Y-129147267D01*
X92598946Y-129016054D01*
X92467733Y-128856172D01*
X92370233Y-128673763D01*
X92323577Y-128519956D01*
X92310193Y-128475836D01*
X92289920Y-128270000D01*
X92310193Y-128064164D01*
X92350220Y-127932213D01*
X92370233Y-127866237D01*
X92467733Y-127683828D01*
X92598946Y-127523946D01*
X92758828Y-127392733D01*
X92941237Y-127295233D01*
X93007213Y-127275220D01*
X93139164Y-127235193D01*
X93216293Y-127227597D01*
X93293420Y-127220000D01*
X93396580Y-127220000D01*
X93473707Y-127227597D01*
X93473707Y-127227597D01*
G37*
G36*
X103095858Y-124972044D02*
X103095861Y-124972045D01*
X103095862Y-124972045D01*
X103435163Y-125074971D01*
X103747865Y-125242113D01*
X103860230Y-125334329D01*
X104021951Y-125467049D01*
X104135543Y-125605463D01*
X104246887Y-125741135D01*
X104414029Y-126053837D01*
X104496062Y-126324263D01*
X104516956Y-126393142D01*
X104551709Y-126746000D01*
X104516956Y-127098858D01*
X104516955Y-127098861D01*
X104516955Y-127098862D01*
X104414029Y-127438163D01*
X104246887Y-127750865D01*
X104154046Y-127863991D01*
X104021951Y-128024951D01*
X103877809Y-128143244D01*
X103747865Y-128249887D01*
X103435163Y-128417029D01*
X103095862Y-128519955D01*
X103095861Y-128519955D01*
X103095858Y-128519956D01*
X102831427Y-128546000D01*
X102654573Y-128546000D01*
X102390142Y-128519956D01*
X102390139Y-128519955D01*
X102390138Y-128519955D01*
X102050837Y-128417029D01*
X101738135Y-128249887D01*
X101608191Y-128143244D01*
X101464049Y-128024951D01*
X101331954Y-127863991D01*
X101239113Y-127750865D01*
X101071971Y-127438163D01*
X100969045Y-127098862D01*
X100969045Y-127098861D01*
X100969044Y-127098858D01*
X100934291Y-126746000D01*
X100969044Y-126393142D01*
X100989938Y-126324263D01*
X101071971Y-126053837D01*
X101239113Y-125741135D01*
X101350457Y-125605463D01*
X101464049Y-125467049D01*
X101625770Y-125334329D01*
X101738135Y-125242113D01*
X102050837Y-125074971D01*
X102390138Y-124972045D01*
X102390139Y-124972045D01*
X102390142Y-124972044D01*
X102654573Y-124946000D01*
X102831427Y-124946000D01*
X103095858Y-124972044D01*
X103095858Y-124972044D01*
G37*
G36*
X137800530Y-125442969D02*
X137800533Y-125442970D01*
X137800534Y-125442970D01*
X137989035Y-125500151D01*
X137989037Y-125500152D01*
X138162760Y-125593009D01*
X138315028Y-125717972D01*
X138439991Y-125870240D01*
X138471704Y-125929571D01*
X138532849Y-126043965D01*
X138557835Y-126126334D01*
X138590031Y-126232470D01*
X138609338Y-126428500D01*
X138590031Y-126624530D01*
X138590030Y-126624533D01*
X138590030Y-126624534D01*
X138553184Y-126746000D01*
X138532848Y-126813037D01*
X138439991Y-126986760D01*
X138315028Y-127139028D01*
X138162760Y-127263991D01*
X138162758Y-127263992D01*
X137989035Y-127356849D01*
X137800534Y-127414030D01*
X137800533Y-127414030D01*
X137800530Y-127414031D01*
X137653624Y-127428500D01*
X137555376Y-127428500D01*
X137408470Y-127414031D01*
X137408467Y-127414030D01*
X137408466Y-127414030D01*
X137219965Y-127356849D01*
X137046242Y-127263992D01*
X137046240Y-127263991D01*
X136893972Y-127139028D01*
X136769009Y-126986760D01*
X136676152Y-126813037D01*
X136655817Y-126746000D01*
X136618970Y-126624534D01*
X136618970Y-126624533D01*
X136618969Y-126624530D01*
X136599662Y-126428500D01*
X136618969Y-126232470D01*
X136651165Y-126126334D01*
X136676151Y-126043965D01*
X136737296Y-125929571D01*
X136769009Y-125870240D01*
X136893972Y-125717972D01*
X137046240Y-125593009D01*
X137219963Y-125500152D01*
X137219965Y-125500151D01*
X137408466Y-125442970D01*
X137408467Y-125442970D01*
X137408470Y-125442969D01*
X137555376Y-125428500D01*
X137653624Y-125428500D01*
X137800530Y-125442969D01*
X137800530Y-125442969D01*
G37*
G36*
X132700270Y-125443872D02*
X132816189Y-125466929D01*
X132998178Y-125542311D01*
X133161963Y-125651749D01*
X133301251Y-125791037D01*
X133410689Y-125954822D01*
X133486071Y-126136811D01*
X133524500Y-126330009D01*
X133524500Y-126526991D01*
X133486071Y-126720189D01*
X133410689Y-126902178D01*
X133301251Y-127065963D01*
X133161963Y-127205251D01*
X132998178Y-127314689D01*
X132816189Y-127390071D01*
X132700270Y-127413128D01*
X132622993Y-127428500D01*
X132426007Y-127428500D01*
X132348730Y-127413128D01*
X132232811Y-127390071D01*
X132050822Y-127314689D01*
X131887037Y-127205251D01*
X131747749Y-127065963D01*
X131638311Y-126902178D01*
X131562929Y-126720189D01*
X131524500Y-126526991D01*
X131524500Y-126330009D01*
X131562929Y-126136811D01*
X131638311Y-125954822D01*
X131747749Y-125791037D01*
X131887037Y-125651749D01*
X132050822Y-125542311D01*
X132232811Y-125466929D01*
X132348730Y-125443872D01*
X132426007Y-125428500D01*
X132622993Y-125428500D01*
X132700270Y-125443872D01*
X132700270Y-125443872D01*
G37*
G36*
X158434207Y-124878096D02*
X158511336Y-124885693D01*
X158643287Y-124925720D01*
X158709263Y-124945733D01*
X158891672Y-125043233D01*
X159051554Y-125174446D01*
X159182767Y-125334328D01*
X159280267Y-125516737D01*
X159300280Y-125582713D01*
X159340307Y-125714664D01*
X159360580Y-125920500D01*
X159340307Y-126126336D01*
X159308113Y-126232466D01*
X159280267Y-126324263D01*
X159182767Y-126506672D01*
X159051554Y-126666554D01*
X158891672Y-126797767D01*
X158709263Y-126895267D01*
X158643287Y-126915280D01*
X158511336Y-126955307D01*
X158434207Y-126962904D01*
X158357080Y-126970500D01*
X158253920Y-126970500D01*
X158176793Y-126962904D01*
X158099664Y-126955307D01*
X157967713Y-126915280D01*
X157901737Y-126895267D01*
X157719328Y-126797767D01*
X157559446Y-126666554D01*
X157428233Y-126506672D01*
X157330733Y-126324263D01*
X157302887Y-126232466D01*
X157270693Y-126126336D01*
X157250420Y-125920500D01*
X157270693Y-125714664D01*
X157310720Y-125582713D01*
X157330733Y-125516737D01*
X157428233Y-125334328D01*
X157559446Y-125174446D01*
X157719328Y-125043233D01*
X157901737Y-124945733D01*
X157967713Y-124925720D01*
X158099664Y-124885693D01*
X158176793Y-124878096D01*
X158253920Y-124870500D01*
X158357080Y-124870500D01*
X158434207Y-124878096D01*
X158434207Y-124878096D01*
G37*
G36*
X110665770Y-123983372D02*
X110781689Y-124006429D01*
X110963678Y-124081811D01*
X111127463Y-124191249D01*
X111266751Y-124330537D01*
X111376189Y-124494322D01*
X111451571Y-124676311D01*
X111469065Y-124764260D01*
X111490000Y-124869507D01*
X111490000Y-125066493D01*
X111486963Y-125081760D01*
X111451571Y-125259689D01*
X111376189Y-125441678D01*
X111266751Y-125605463D01*
X111127463Y-125744751D01*
X110963678Y-125854189D01*
X110781689Y-125929571D01*
X110665770Y-125952628D01*
X110588493Y-125968000D01*
X110391507Y-125968000D01*
X110314230Y-125952628D01*
X110198311Y-125929571D01*
X110016322Y-125854189D01*
X109852537Y-125744751D01*
X109713249Y-125605463D01*
X109603811Y-125441678D01*
X109528429Y-125259689D01*
X109493037Y-125081760D01*
X109490000Y-125066493D01*
X109490000Y-124869507D01*
X109510935Y-124764260D01*
X109528429Y-124676311D01*
X109603811Y-124494322D01*
X109713249Y-124330537D01*
X109852537Y-124191249D01*
X110016322Y-124081811D01*
X110198311Y-124006429D01*
X110314230Y-123983372D01*
X110391507Y-123968000D01*
X110588493Y-123968000D01*
X110665770Y-123983372D01*
X110665770Y-123983372D01*
G37*
G36*
X152338207Y-123735097D02*
X152415336Y-123742693D01*
X152547287Y-123782720D01*
X152613263Y-123802733D01*
X152795672Y-123900233D01*
X152955554Y-124031446D01*
X153086767Y-124191328D01*
X153184267Y-124373737D01*
X153201486Y-124430500D01*
X153244307Y-124571664D01*
X153264580Y-124777500D01*
X153244307Y-124983336D01*
X153204280Y-125115287D01*
X153184267Y-125181263D01*
X153086767Y-125363672D01*
X152955554Y-125523554D01*
X152795672Y-125654767D01*
X152613263Y-125752267D01*
X152547287Y-125772280D01*
X152415336Y-125812307D01*
X152338207Y-125819904D01*
X152261080Y-125827500D01*
X152157920Y-125827500D01*
X152080793Y-125819904D01*
X152003664Y-125812307D01*
X151871713Y-125772280D01*
X151805737Y-125752267D01*
X151623328Y-125654767D01*
X151463446Y-125523554D01*
X151332233Y-125363672D01*
X151234733Y-125181263D01*
X151214720Y-125115287D01*
X151174693Y-124983336D01*
X151154420Y-124777500D01*
X151174693Y-124571664D01*
X151217514Y-124430500D01*
X151234733Y-124373737D01*
X151332233Y-124191328D01*
X151463446Y-124031446D01*
X151623328Y-123900233D01*
X151805737Y-123802733D01*
X151871713Y-123782720D01*
X152003664Y-123742693D01*
X152080793Y-123735097D01*
X152157920Y-123727500D01*
X152261080Y-123727500D01*
X152338207Y-123735097D01*
X152338207Y-123735097D01*
G37*
G36*
X119639530Y-123537969D02*
X119639533Y-123537970D01*
X119639534Y-123537970D01*
X119828035Y-123595151D01*
X119828037Y-123595152D01*
X120001760Y-123688009D01*
X120154028Y-123812972D01*
X120278991Y-123965240D01*
X120278992Y-123965242D01*
X120371849Y-124138965D01*
X120429030Y-124327466D01*
X120429031Y-124327470D01*
X120448338Y-124523500D01*
X120429031Y-124719530D01*
X120429030Y-124719533D01*
X120429030Y-124719534D01*
X120383536Y-124869509D01*
X120371848Y-124908037D01*
X120278991Y-125081760D01*
X120154028Y-125234028D01*
X120001760Y-125358991D01*
X119828037Y-125451848D01*
X119828035Y-125451849D01*
X119639534Y-125509030D01*
X119639533Y-125509030D01*
X119639530Y-125509031D01*
X119492624Y-125523500D01*
X119394376Y-125523500D01*
X119247470Y-125509031D01*
X119247467Y-125509030D01*
X119247466Y-125509030D01*
X119058965Y-125451849D01*
X119058963Y-125451848D01*
X118885240Y-125358991D01*
X118732972Y-125234028D01*
X118608009Y-125081760D01*
X118515152Y-124908037D01*
X118503465Y-124869509D01*
X118457970Y-124719534D01*
X118457970Y-124719533D01*
X118457969Y-124719530D01*
X118438662Y-124523500D01*
X118457969Y-124327470D01*
X118457970Y-124327466D01*
X118515151Y-124138965D01*
X118608008Y-123965242D01*
X118608009Y-123965240D01*
X118732972Y-123812972D01*
X118885240Y-123688009D01*
X119058963Y-123595152D01*
X119058965Y-123595151D01*
X119247466Y-123537970D01*
X119247467Y-123537970D01*
X119247470Y-123537969D01*
X119394376Y-123523500D01*
X119492624Y-123523500D01*
X119639530Y-123537969D01*
X119639530Y-123537969D01*
G37*
G36*
X122179530Y-123537969D02*
X122179533Y-123537970D01*
X122179534Y-123537970D01*
X122368035Y-123595151D01*
X122368037Y-123595152D01*
X122541760Y-123688009D01*
X122694028Y-123812972D01*
X122818991Y-123965240D01*
X122818992Y-123965242D01*
X122911849Y-124138965D01*
X122969030Y-124327466D01*
X122969031Y-124327470D01*
X122988338Y-124523500D01*
X122969031Y-124719530D01*
X122969030Y-124719533D01*
X122969030Y-124719534D01*
X122923536Y-124869509D01*
X122911848Y-124908037D01*
X122818991Y-125081760D01*
X122694028Y-125234028D01*
X122541760Y-125358991D01*
X122368037Y-125451848D01*
X122368035Y-125451849D01*
X122179534Y-125509030D01*
X122179533Y-125509030D01*
X122179530Y-125509031D01*
X122032624Y-125523500D01*
X121934376Y-125523500D01*
X121787470Y-125509031D01*
X121787467Y-125509030D01*
X121787466Y-125509030D01*
X121598965Y-125451849D01*
X121598963Y-125451848D01*
X121425240Y-125358991D01*
X121272972Y-125234028D01*
X121148009Y-125081760D01*
X121055152Y-124908037D01*
X121043465Y-124869509D01*
X120997970Y-124719534D01*
X120997970Y-124719533D01*
X120997969Y-124719530D01*
X120978662Y-124523500D01*
X120997969Y-124327470D01*
X120997970Y-124327466D01*
X121055151Y-124138965D01*
X121148008Y-123965242D01*
X121148009Y-123965240D01*
X121272972Y-123812972D01*
X121425240Y-123688009D01*
X121598963Y-123595152D01*
X121598965Y-123595151D01*
X121787466Y-123537970D01*
X121787467Y-123537970D01*
X121787470Y-123537969D01*
X121934376Y-123523500D01*
X122032624Y-123523500D01*
X122179530Y-123537969D01*
X122179530Y-123537969D01*
G37*
G36*
X125523500Y-125523500D02*
X123523500Y-125523500D01*
X123523500Y-123523500D01*
X125523500Y-123523500D01*
X125523500Y-125523500D01*
X125523500Y-125523500D01*
G37*
G36*
X117099530Y-123537969D02*
X117099533Y-123537970D01*
X117099534Y-123537970D01*
X117288035Y-123595151D01*
X117288037Y-123595152D01*
X117461760Y-123688009D01*
X117614028Y-123812972D01*
X117738991Y-123965240D01*
X117738992Y-123965242D01*
X117831849Y-124138965D01*
X117889030Y-124327466D01*
X117889031Y-124327470D01*
X117908338Y-124523500D01*
X117889031Y-124719530D01*
X117889030Y-124719533D01*
X117889030Y-124719534D01*
X117843536Y-124869509D01*
X117831848Y-124908037D01*
X117738991Y-125081760D01*
X117614028Y-125234028D01*
X117461760Y-125358991D01*
X117288037Y-125451848D01*
X117288035Y-125451849D01*
X117099534Y-125509030D01*
X117099533Y-125509030D01*
X117099530Y-125509031D01*
X116952624Y-125523500D01*
X116854376Y-125523500D01*
X116707470Y-125509031D01*
X116707467Y-125509030D01*
X116707466Y-125509030D01*
X116518965Y-125451849D01*
X116518963Y-125451848D01*
X116345240Y-125358991D01*
X116192972Y-125234028D01*
X116068009Y-125081760D01*
X115975152Y-124908037D01*
X115963465Y-124869509D01*
X115917970Y-124719534D01*
X115917970Y-124719533D01*
X115917969Y-124719530D01*
X115898662Y-124523500D01*
X115917969Y-124327470D01*
X115917970Y-124327466D01*
X115975151Y-124138965D01*
X116068008Y-123965242D01*
X116068009Y-123965240D01*
X116192972Y-123812972D01*
X116345240Y-123688009D01*
X116518963Y-123595152D01*
X116518965Y-123595151D01*
X116707466Y-123537970D01*
X116707467Y-123537970D01*
X116707470Y-123537969D01*
X116854376Y-123523500D01*
X116952624Y-123523500D01*
X117099530Y-123537969D01*
X117099530Y-123537969D01*
G37*
G36*
X88905530Y-123220469D02*
X88905533Y-123220470D01*
X88905534Y-123220470D01*
X89094035Y-123277651D01*
X89094037Y-123277652D01*
X89267760Y-123370509D01*
X89420028Y-123495472D01*
X89544991Y-123647740D01*
X89627837Y-123802733D01*
X89637849Y-123821465D01*
X89681463Y-123965242D01*
X89695031Y-124009970D01*
X89714338Y-124206000D01*
X89695031Y-124402030D01*
X89695030Y-124402033D01*
X89695030Y-124402034D01*
X89643573Y-124571666D01*
X89637848Y-124590537D01*
X89544991Y-124764260D01*
X89420028Y-124916528D01*
X89267760Y-125041491D01*
X89192426Y-125081758D01*
X89094035Y-125134349D01*
X88905534Y-125191530D01*
X88905533Y-125191530D01*
X88905530Y-125191531D01*
X88758624Y-125206000D01*
X88660376Y-125206000D01*
X88513470Y-125191531D01*
X88513467Y-125191530D01*
X88513466Y-125191530D01*
X88324965Y-125134349D01*
X88226574Y-125081758D01*
X88151240Y-125041491D01*
X87998972Y-124916528D01*
X87874009Y-124764260D01*
X87781152Y-124590537D01*
X87775428Y-124571666D01*
X87723970Y-124402034D01*
X87723970Y-124402033D01*
X87723969Y-124402030D01*
X87704662Y-124206000D01*
X87723969Y-124009970D01*
X87737537Y-123965242D01*
X87781151Y-123821465D01*
X87791163Y-123802733D01*
X87874009Y-123647740D01*
X87998972Y-123495472D01*
X88151240Y-123370509D01*
X88324963Y-123277652D01*
X88324965Y-123277651D01*
X88513466Y-123220470D01*
X88513467Y-123220470D01*
X88513470Y-123220469D01*
X88660376Y-123206000D01*
X88758624Y-123206000D01*
X88905530Y-123220469D01*
X88905530Y-123220469D01*
G37*
G36*
X81285530Y-123220469D02*
X81285533Y-123220470D01*
X81285534Y-123220470D01*
X81474035Y-123277651D01*
X81474037Y-123277652D01*
X81647760Y-123370509D01*
X81800028Y-123495472D01*
X81924991Y-123647740D01*
X82007837Y-123802733D01*
X82017849Y-123821465D01*
X82061463Y-123965242D01*
X82075031Y-124009970D01*
X82094338Y-124206000D01*
X82075031Y-124402030D01*
X82075030Y-124402033D01*
X82075030Y-124402034D01*
X82023573Y-124571666D01*
X82017848Y-124590537D01*
X81924991Y-124764260D01*
X81800028Y-124916528D01*
X81647760Y-125041491D01*
X81572426Y-125081758D01*
X81474035Y-125134349D01*
X81285534Y-125191530D01*
X81285533Y-125191530D01*
X81285530Y-125191531D01*
X81138624Y-125206000D01*
X81040376Y-125206000D01*
X80893470Y-125191531D01*
X80893467Y-125191530D01*
X80893466Y-125191530D01*
X80704965Y-125134349D01*
X80606574Y-125081758D01*
X80531240Y-125041491D01*
X80378972Y-124916528D01*
X80254009Y-124764260D01*
X80161152Y-124590537D01*
X80155428Y-124571666D01*
X80103970Y-124402034D01*
X80103970Y-124402033D01*
X80103969Y-124402030D01*
X80084662Y-124206000D01*
X80103969Y-124009970D01*
X80117537Y-123965242D01*
X80161151Y-123821465D01*
X80171163Y-123802733D01*
X80254009Y-123647740D01*
X80378972Y-123495472D01*
X80531240Y-123370509D01*
X80704963Y-123277652D01*
X80704965Y-123277651D01*
X80893466Y-123220470D01*
X80893467Y-123220470D01*
X80893470Y-123220469D01*
X81040376Y-123206000D01*
X81138624Y-123206000D01*
X81285530Y-123220469D01*
X81285530Y-123220469D01*
G37*
G36*
X159355500Y-124430500D02*
X157255500Y-124430500D01*
X157255500Y-122330500D01*
X159355500Y-122330500D01*
X159355500Y-124430500D01*
X159355500Y-124430500D01*
G37*
G36*
X153259500Y-123287500D02*
X151159500Y-123287500D01*
X151159500Y-121187500D01*
X153259500Y-121187500D01*
X153259500Y-123287500D01*
X153259500Y-123287500D01*
G37*
G36*
X70961179Y-120955472D02*
X71094189Y-120981929D01*
X71276178Y-121057311D01*
X71439963Y-121166749D01*
X71579251Y-121306037D01*
X71688689Y-121469822D01*
X71764071Y-121651811D01*
X71785194Y-121758007D01*
X71798754Y-121826173D01*
X71802500Y-121845009D01*
X71802500Y-122041991D01*
X71764071Y-122235189D01*
X71688689Y-122417178D01*
X71579251Y-122580963D01*
X71439963Y-122720251D01*
X71276178Y-122829689D01*
X71094189Y-122905071D01*
X70978270Y-122928128D01*
X70900993Y-122943500D01*
X70704007Y-122943500D01*
X70626730Y-122928128D01*
X70510811Y-122905071D01*
X70328822Y-122829689D01*
X70165037Y-122720251D01*
X70025749Y-122580963D01*
X69916311Y-122417178D01*
X69840929Y-122235189D01*
X69802500Y-122041991D01*
X69802500Y-121845009D01*
X69806247Y-121826173D01*
X69819806Y-121758007D01*
X69840929Y-121651811D01*
X69916311Y-121469822D01*
X70025749Y-121306037D01*
X70165037Y-121166749D01*
X70328822Y-121057311D01*
X70510811Y-120981929D01*
X70643821Y-120955472D01*
X70704007Y-120943500D01*
X70900993Y-120943500D01*
X70961179Y-120955472D01*
X70961179Y-120955472D01*
G37*
G36*
X132763770Y-120871872D02*
X132879689Y-120894929D01*
X133061678Y-120970311D01*
X133225463Y-121079749D01*
X133364751Y-121219037D01*
X133474189Y-121382822D01*
X133549571Y-121564811D01*
X133588000Y-121758009D01*
X133588000Y-121954991D01*
X133549571Y-122148189D01*
X133474189Y-122330178D01*
X133364751Y-122493963D01*
X133225463Y-122633251D01*
X133061678Y-122742689D01*
X132879689Y-122818071D01*
X132763770Y-122841128D01*
X132686493Y-122856500D01*
X132489507Y-122856500D01*
X132412230Y-122841128D01*
X132296311Y-122818071D01*
X132114322Y-122742689D01*
X131950537Y-122633251D01*
X131811249Y-122493963D01*
X131701811Y-122330178D01*
X131626429Y-122148189D01*
X131588000Y-121954991D01*
X131588000Y-121758009D01*
X131626429Y-121564811D01*
X131701811Y-121382822D01*
X131811249Y-121219037D01*
X131950537Y-121079749D01*
X132114322Y-120970311D01*
X132296311Y-120894929D01*
X132412230Y-120871872D01*
X132489507Y-120856500D01*
X132686493Y-120856500D01*
X132763770Y-120871872D01*
X132763770Y-120871872D01*
G37*
G36*
X137864030Y-120870969D02*
X137864033Y-120870970D01*
X137864034Y-120870970D01*
X138052535Y-120928151D01*
X138052537Y-120928152D01*
X138226260Y-121021009D01*
X138378528Y-121145972D01*
X138503491Y-121298240D01*
X138503492Y-121298242D01*
X138596349Y-121471965D01*
X138650905Y-121651814D01*
X138653531Y-121660470D01*
X138672838Y-121856500D01*
X138653531Y-122052530D01*
X138653530Y-122052533D01*
X138653530Y-122052534D01*
X138601438Y-122224260D01*
X138596348Y-122241037D01*
X138503491Y-122414760D01*
X138378528Y-122567028D01*
X138226260Y-122691991D01*
X138055994Y-122783000D01*
X138052535Y-122784849D01*
X137864034Y-122842030D01*
X137864033Y-122842030D01*
X137864030Y-122842031D01*
X137717124Y-122856500D01*
X137618876Y-122856500D01*
X137471970Y-122842031D01*
X137471967Y-122842030D01*
X137471966Y-122842030D01*
X137283465Y-122784849D01*
X137280006Y-122783000D01*
X137109740Y-122691991D01*
X136957472Y-122567028D01*
X136832509Y-122414760D01*
X136739652Y-122241037D01*
X136734563Y-122224260D01*
X136682470Y-122052534D01*
X136682470Y-122052533D01*
X136682469Y-122052530D01*
X136663162Y-121856500D01*
X136682469Y-121660470D01*
X136685095Y-121651814D01*
X136739651Y-121471965D01*
X136832508Y-121298242D01*
X136832509Y-121298240D01*
X136957472Y-121145972D01*
X137109740Y-121021009D01*
X137283463Y-120928152D01*
X137283465Y-120928151D01*
X137471966Y-120870970D01*
X137471967Y-120870970D01*
X137471970Y-120870969D01*
X137618876Y-120856500D01*
X137717124Y-120856500D01*
X137864030Y-120870969D01*
X137864030Y-120870969D01*
G37*
G36*
X94974983Y-121187500D02*
X95046827Y-121194576D01*
X95122227Y-121217448D01*
X95197629Y-121240321D01*
X95336608Y-121314608D01*
X95458422Y-121414578D01*
X95558392Y-121536392D01*
X95632679Y-121675371D01*
X95678424Y-121826174D01*
X95693870Y-121983000D01*
X95678424Y-122139826D01*
X95632679Y-122290629D01*
X95558392Y-122429608D01*
X95458422Y-122551422D01*
X95336608Y-122651392D01*
X95197629Y-122725679D01*
X95141554Y-122742689D01*
X95046827Y-122771424D01*
X95007649Y-122775283D01*
X94929295Y-122783000D01*
X94300705Y-122783000D01*
X94222351Y-122775283D01*
X94183173Y-122771424D01*
X94088446Y-122742689D01*
X94032371Y-122725679D01*
X93893392Y-122651392D01*
X93771578Y-122551422D01*
X93671608Y-122429608D01*
X93597321Y-122290629D01*
X93551576Y-122139826D01*
X93536130Y-121983000D01*
X93551576Y-121826174D01*
X93597321Y-121675371D01*
X93671608Y-121536392D01*
X93771578Y-121414578D01*
X93893392Y-121314608D01*
X94032371Y-121240321D01*
X94107773Y-121217448D01*
X94183173Y-121194576D01*
X94255017Y-121187500D01*
X94300705Y-121183000D01*
X94929295Y-121183000D01*
X94974983Y-121187500D01*
X94974983Y-121187500D01*
G37*
G36*
X81285530Y-120680469D02*
X81285533Y-120680470D01*
X81285534Y-120680470D01*
X81474035Y-120737651D01*
X81474037Y-120737652D01*
X81647760Y-120830509D01*
X81800028Y-120955472D01*
X81924991Y-121107740D01*
X81995857Y-121240321D01*
X82017849Y-121281465D01*
X82048595Y-121382822D01*
X82075031Y-121469970D01*
X82094338Y-121666000D01*
X82075031Y-121862030D01*
X82075030Y-121862033D01*
X82075030Y-121862034D01*
X82020441Y-122041991D01*
X82017848Y-122050537D01*
X81924991Y-122224260D01*
X81800028Y-122376528D01*
X81647760Y-122501491D01*
X81499073Y-122580966D01*
X81474035Y-122594349D01*
X81285534Y-122651530D01*
X81285533Y-122651530D01*
X81285530Y-122651531D01*
X81138624Y-122666000D01*
X81040376Y-122666000D01*
X80893470Y-122651531D01*
X80893467Y-122651530D01*
X80893466Y-122651530D01*
X80704965Y-122594349D01*
X80679927Y-122580966D01*
X80531240Y-122501491D01*
X80378972Y-122376528D01*
X80254009Y-122224260D01*
X80161152Y-122050537D01*
X80158560Y-122041991D01*
X80103970Y-121862034D01*
X80103970Y-121862033D01*
X80103969Y-121862030D01*
X80084662Y-121666000D01*
X80103969Y-121469970D01*
X80130405Y-121382822D01*
X80161151Y-121281465D01*
X80183143Y-121240321D01*
X80254009Y-121107740D01*
X80378972Y-120955472D01*
X80531240Y-120830509D01*
X80704963Y-120737652D01*
X80704965Y-120737651D01*
X80893466Y-120680470D01*
X80893467Y-120680470D01*
X80893470Y-120680469D01*
X81040376Y-120666000D01*
X81138624Y-120666000D01*
X81285530Y-120680469D01*
X81285530Y-120680469D01*
G37*
G36*
X88905530Y-120680469D02*
X88905533Y-120680470D01*
X88905534Y-120680470D01*
X89094035Y-120737651D01*
X89094037Y-120737652D01*
X89267760Y-120830509D01*
X89420028Y-120955472D01*
X89544991Y-121107740D01*
X89615857Y-121240321D01*
X89637849Y-121281465D01*
X89668595Y-121382822D01*
X89695031Y-121469970D01*
X89714338Y-121666000D01*
X89695031Y-121862030D01*
X89695030Y-121862033D01*
X89695030Y-121862034D01*
X89640441Y-122041991D01*
X89637848Y-122050537D01*
X89544991Y-122224260D01*
X89420028Y-122376528D01*
X89267760Y-122501491D01*
X89119073Y-122580966D01*
X89094035Y-122594349D01*
X88905534Y-122651530D01*
X88905533Y-122651530D01*
X88905530Y-122651531D01*
X88758624Y-122666000D01*
X88660376Y-122666000D01*
X88513470Y-122651531D01*
X88513467Y-122651530D01*
X88513466Y-122651530D01*
X88324965Y-122594349D01*
X88299927Y-122580966D01*
X88151240Y-122501491D01*
X87998972Y-122376528D01*
X87874009Y-122224260D01*
X87781152Y-122050537D01*
X87778560Y-122041991D01*
X87723970Y-121862034D01*
X87723970Y-121862033D01*
X87723969Y-121862030D01*
X87704662Y-121666000D01*
X87723969Y-121469970D01*
X87750405Y-121382822D01*
X87781151Y-121281465D01*
X87803143Y-121240321D01*
X87874009Y-121107740D01*
X87998972Y-120955472D01*
X88151240Y-120830509D01*
X88324963Y-120737652D01*
X88324965Y-120737651D01*
X88513466Y-120680470D01*
X88513467Y-120680470D01*
X88513470Y-120680469D01*
X88660376Y-120666000D01*
X88758624Y-120666000D01*
X88905530Y-120680469D01*
X88905530Y-120680469D01*
G37*
G36*
X95007649Y-119190717D02*
X95046827Y-119194576D01*
X95122227Y-119217448D01*
X95197629Y-119240321D01*
X95336608Y-119314608D01*
X95458422Y-119414578D01*
X95558392Y-119536392D01*
X95632679Y-119675371D01*
X95678424Y-119826174D01*
X95693870Y-119983000D01*
X95678424Y-120139826D01*
X95632679Y-120290629D01*
X95558392Y-120429608D01*
X95458422Y-120551422D01*
X95336608Y-120651392D01*
X95197629Y-120725679D01*
X95122227Y-120748552D01*
X95046827Y-120771424D01*
X95007649Y-120775283D01*
X94929295Y-120783000D01*
X94300705Y-120783000D01*
X94222351Y-120775283D01*
X94183173Y-120771424D01*
X94107773Y-120748552D01*
X94032371Y-120725679D01*
X93893392Y-120651392D01*
X93771578Y-120551422D01*
X93671608Y-120429608D01*
X93597321Y-120290629D01*
X93551576Y-120139826D01*
X93536130Y-119983000D01*
X93551576Y-119826174D01*
X93597321Y-119675371D01*
X93671608Y-119536392D01*
X93771578Y-119414578D01*
X93893392Y-119314608D01*
X94032371Y-119240321D01*
X94107773Y-119217448D01*
X94183173Y-119194576D01*
X94222351Y-119190717D01*
X94300705Y-119183000D01*
X94929295Y-119183000D01*
X95007649Y-119190717D01*
X95007649Y-119190717D01*
G37*
G36*
X71802500Y-120443500D02*
X69802500Y-120443500D01*
X69802500Y-118443500D01*
X71802500Y-118443500D01*
X71802500Y-120443500D01*
X71802500Y-120443500D01*
G37*
G36*
X88905530Y-118140469D02*
X88905533Y-118140470D01*
X88905534Y-118140470D01*
X89094035Y-118197651D01*
X89094037Y-118197652D01*
X89267760Y-118290509D01*
X89420028Y-118415472D01*
X89544991Y-118567740D01*
X89544992Y-118567742D01*
X89637849Y-118741465D01*
X89650448Y-118783000D01*
X89695031Y-118929970D01*
X89714338Y-119126000D01*
X89695031Y-119322030D01*
X89637848Y-119510537D01*
X89544991Y-119684260D01*
X89420028Y-119836528D01*
X89267760Y-119961491D01*
X89094037Y-120054348D01*
X89094035Y-120054349D01*
X88905534Y-120111530D01*
X88905533Y-120111530D01*
X88905530Y-120111531D01*
X88758624Y-120126000D01*
X88660376Y-120126000D01*
X88513470Y-120111531D01*
X88513467Y-120111530D01*
X88513466Y-120111530D01*
X88324965Y-120054349D01*
X88324963Y-120054348D01*
X88151240Y-119961491D01*
X87998972Y-119836528D01*
X87874009Y-119684260D01*
X87781152Y-119510537D01*
X87723969Y-119322030D01*
X87704662Y-119126000D01*
X87723969Y-118929970D01*
X87768552Y-118783000D01*
X87781151Y-118741465D01*
X87874008Y-118567742D01*
X87874009Y-118567740D01*
X87998972Y-118415472D01*
X88151240Y-118290509D01*
X88324963Y-118197652D01*
X88324965Y-118197651D01*
X88513466Y-118140470D01*
X88513467Y-118140470D01*
X88513470Y-118140469D01*
X88660376Y-118126000D01*
X88758624Y-118126000D01*
X88905530Y-118140469D01*
X88905530Y-118140469D01*
G37*
G36*
X81285530Y-118140469D02*
X81285533Y-118140470D01*
X81285534Y-118140470D01*
X81474035Y-118197651D01*
X81474037Y-118197652D01*
X81647760Y-118290509D01*
X81800028Y-118415472D01*
X81924991Y-118567740D01*
X81924992Y-118567742D01*
X82017849Y-118741465D01*
X82030448Y-118783000D01*
X82075031Y-118929970D01*
X82094338Y-119126000D01*
X82075031Y-119322030D01*
X82017848Y-119510537D01*
X81924991Y-119684260D01*
X81800028Y-119836528D01*
X81647760Y-119961491D01*
X81474037Y-120054348D01*
X81474035Y-120054349D01*
X81285534Y-120111530D01*
X81285533Y-120111530D01*
X81285530Y-120111531D01*
X81138624Y-120126000D01*
X81040376Y-120126000D01*
X80893470Y-120111531D01*
X80893467Y-120111530D01*
X80893466Y-120111530D01*
X80704965Y-120054349D01*
X80704963Y-120054348D01*
X80531240Y-119961491D01*
X80378972Y-119836528D01*
X80254009Y-119684260D01*
X80161152Y-119510537D01*
X80103969Y-119322030D01*
X80084662Y-119126000D01*
X80103969Y-118929970D01*
X80148552Y-118783000D01*
X80161151Y-118741465D01*
X80254008Y-118567742D01*
X80254009Y-118567740D01*
X80378972Y-118415472D01*
X80531240Y-118290509D01*
X80704963Y-118197652D01*
X80704965Y-118197651D01*
X80893466Y-118140470D01*
X80893467Y-118140470D01*
X80893470Y-118140469D01*
X81040376Y-118126000D01*
X81138624Y-118126000D01*
X81285530Y-118140469D01*
X81285530Y-118140469D01*
G37*
G36*
X158624707Y-116813597D02*
X158701836Y-116821193D01*
X158833787Y-116861220D01*
X158899763Y-116881233D01*
X159082172Y-116978733D01*
X159242054Y-117109946D01*
X159373267Y-117269828D01*
X159470767Y-117452237D01*
X159470767Y-117452238D01*
X159530807Y-117650164D01*
X159551080Y-117856000D01*
X159530807Y-118061836D01*
X159496187Y-118175963D01*
X159470767Y-118259763D01*
X159373267Y-118442172D01*
X159242054Y-118602054D01*
X159082172Y-118733267D01*
X158899763Y-118830767D01*
X158833787Y-118850780D01*
X158701836Y-118890807D01*
X158624707Y-118898403D01*
X158547580Y-118906000D01*
X158444420Y-118906000D01*
X158367293Y-118898403D01*
X158290164Y-118890807D01*
X158158213Y-118850780D01*
X158092237Y-118830767D01*
X157909828Y-118733267D01*
X157749946Y-118602054D01*
X157618733Y-118442172D01*
X157521233Y-118259763D01*
X157495813Y-118175963D01*
X157461193Y-118061836D01*
X157440920Y-117856000D01*
X157461193Y-117650164D01*
X157521233Y-117452238D01*
X157521233Y-117452237D01*
X157618733Y-117269828D01*
X157749946Y-117109946D01*
X157909828Y-116978733D01*
X158092237Y-116881233D01*
X158158213Y-116861220D01*
X158290164Y-116821193D01*
X158367293Y-116813597D01*
X158444420Y-116806000D01*
X158547580Y-116806000D01*
X158624707Y-116813597D01*
X158624707Y-116813597D01*
G37*
G36*
X95480269Y-117188597D02*
X95529009Y-117203382D01*
X95573931Y-117227393D01*
X95613298Y-117259702D01*
X95645607Y-117299069D01*
X95669618Y-117343991D01*
X95684403Y-117392731D01*
X95690000Y-117449557D01*
X95690000Y-118516443D01*
X95684403Y-118573269D01*
X95669618Y-118622009D01*
X95645607Y-118666931D01*
X95613298Y-118706298D01*
X95573931Y-118738607D01*
X95529009Y-118762618D01*
X95480269Y-118777403D01*
X95423443Y-118783000D01*
X93806557Y-118783000D01*
X93749731Y-118777403D01*
X93700991Y-118762618D01*
X93656069Y-118738607D01*
X93616702Y-118706298D01*
X93584393Y-118666931D01*
X93560382Y-118622009D01*
X93545597Y-118573269D01*
X93540000Y-118516443D01*
X93540000Y-117449557D01*
X93545597Y-117392731D01*
X93560382Y-117343991D01*
X93584393Y-117299069D01*
X93616702Y-117259702D01*
X93656069Y-117227393D01*
X93700991Y-117203382D01*
X93749731Y-117188597D01*
X93806557Y-117183000D01*
X95423443Y-117183000D01*
X95480269Y-117188597D01*
X95480269Y-117188597D01*
G37*
G36*
X137758270Y-116617372D02*
X137874189Y-116640429D01*
X138056178Y-116715811D01*
X138219963Y-116825249D01*
X138359251Y-116964537D01*
X138468689Y-117128322D01*
X138544071Y-117310311D01*
X138550770Y-117343991D01*
X138582500Y-117503507D01*
X138582500Y-117700493D01*
X138575729Y-117734534D01*
X138544071Y-117893689D01*
X138468689Y-118075678D01*
X138359251Y-118239463D01*
X138219963Y-118378751D01*
X138056178Y-118488189D01*
X137874189Y-118563571D01*
X137758270Y-118586628D01*
X137680993Y-118602000D01*
X137484007Y-118602000D01*
X137406730Y-118586628D01*
X137290811Y-118563571D01*
X137108822Y-118488189D01*
X136945037Y-118378751D01*
X136805749Y-118239463D01*
X136696311Y-118075678D01*
X136620929Y-117893689D01*
X136589271Y-117734534D01*
X136582500Y-117700493D01*
X136582500Y-117503507D01*
X136614230Y-117343991D01*
X136620929Y-117310311D01*
X136696311Y-117128322D01*
X136805749Y-116964537D01*
X136945037Y-116825249D01*
X137108822Y-116715811D01*
X137290811Y-116640429D01*
X137406730Y-116617372D01*
X137484007Y-116602000D01*
X137680993Y-116602000D01*
X137758270Y-116617372D01*
X137758270Y-116617372D01*
G37*
G36*
X132758270Y-116617372D02*
X132874189Y-116640429D01*
X133056178Y-116715811D01*
X133219963Y-116825249D01*
X133359251Y-116964537D01*
X133468689Y-117128322D01*
X133544071Y-117310311D01*
X133550770Y-117343991D01*
X133582500Y-117503507D01*
X133582500Y-117700493D01*
X133575729Y-117734534D01*
X133544071Y-117893689D01*
X133468689Y-118075678D01*
X133359251Y-118239463D01*
X133219963Y-118378751D01*
X133056178Y-118488189D01*
X132874189Y-118563571D01*
X132758270Y-118586628D01*
X132680993Y-118602000D01*
X132484007Y-118602000D01*
X132406730Y-118586628D01*
X132290811Y-118563571D01*
X132108822Y-118488189D01*
X131945037Y-118378751D01*
X131805749Y-118239463D01*
X131696311Y-118075678D01*
X131620929Y-117893689D01*
X131589271Y-117734534D01*
X131582500Y-117700493D01*
X131582500Y-117503507D01*
X131614230Y-117343991D01*
X131620929Y-117310311D01*
X131696311Y-117128322D01*
X131805749Y-116964537D01*
X131945037Y-116825249D01*
X132108822Y-116715811D01*
X132290811Y-116640429D01*
X132406730Y-116617372D01*
X132484007Y-116602000D01*
X132680993Y-116602000D01*
X132758270Y-116617372D01*
X132758270Y-116617372D01*
G37*
G36*
X110862530Y-116552969D02*
X110862533Y-116552970D01*
X110862534Y-116552970D01*
X111051035Y-116610151D01*
X111051037Y-116610152D01*
X111224760Y-116703009D01*
X111377028Y-116827972D01*
X111501991Y-116980240D01*
X111589662Y-117144260D01*
X111594849Y-117153965D01*
X111642276Y-117310311D01*
X111652031Y-117342470D01*
X111671338Y-117538500D01*
X111652031Y-117734530D01*
X111652030Y-117734533D01*
X111652030Y-117734534D01*
X111615184Y-117856000D01*
X111594848Y-117923037D01*
X111501991Y-118096760D01*
X111377028Y-118249028D01*
X111224760Y-118373991D01*
X111129911Y-118424689D01*
X111051035Y-118466849D01*
X110862534Y-118524030D01*
X110862533Y-118524030D01*
X110862530Y-118524031D01*
X110715624Y-118538500D01*
X110617376Y-118538500D01*
X110470470Y-118524031D01*
X110470467Y-118524030D01*
X110470466Y-118524030D01*
X110281965Y-118466849D01*
X110203089Y-118424689D01*
X110108240Y-118373991D01*
X109955972Y-118249028D01*
X109831009Y-118096760D01*
X109738152Y-117923037D01*
X109717817Y-117856000D01*
X109680970Y-117734534D01*
X109680970Y-117734533D01*
X109680969Y-117734530D01*
X109661662Y-117538500D01*
X109680969Y-117342470D01*
X109690724Y-117310311D01*
X109738151Y-117153965D01*
X109743338Y-117144260D01*
X109831009Y-116980240D01*
X109955972Y-116827972D01*
X110108240Y-116703009D01*
X110281963Y-116610152D01*
X110281965Y-116610151D01*
X110470466Y-116552970D01*
X110470467Y-116552970D01*
X110470470Y-116552969D01*
X110617376Y-116538500D01*
X110715624Y-116538500D01*
X110862530Y-116552969D01*
X110862530Y-116552969D01*
G37*
G36*
X125842270Y-116553872D02*
X125958189Y-116576929D01*
X126140178Y-116652311D01*
X126303963Y-116761749D01*
X126443251Y-116901037D01*
X126552689Y-117064822D01*
X126628071Y-117246811D01*
X126647401Y-117343991D01*
X126666500Y-117440007D01*
X126666500Y-117636993D01*
X126653869Y-117700491D01*
X126628071Y-117830189D01*
X126552689Y-118012178D01*
X126443251Y-118175963D01*
X126303963Y-118315251D01*
X126140178Y-118424689D01*
X125958189Y-118500071D01*
X125875880Y-118516443D01*
X125764993Y-118538500D01*
X125568007Y-118538500D01*
X125457120Y-118516443D01*
X125374811Y-118500071D01*
X125192822Y-118424689D01*
X125029037Y-118315251D01*
X124889749Y-118175963D01*
X124780311Y-118012178D01*
X124704929Y-117830189D01*
X124679131Y-117700491D01*
X124666500Y-117636993D01*
X124666500Y-117440007D01*
X124685599Y-117343991D01*
X124704929Y-117246811D01*
X124780311Y-117064822D01*
X124889749Y-116901037D01*
X125029037Y-116761749D01*
X125192822Y-116652311D01*
X125374811Y-116576929D01*
X125490730Y-116553872D01*
X125568007Y-116538500D01*
X125764993Y-116538500D01*
X125842270Y-116553872D01*
X125842270Y-116553872D01*
G37*
G36*
X88905530Y-115600469D02*
X88905533Y-115600470D01*
X88905534Y-115600470D01*
X89094035Y-115657651D01*
X89094037Y-115657652D01*
X89267760Y-115750509D01*
X89420028Y-115875472D01*
X89544991Y-116027740D01*
X89637848Y-116201463D01*
X89695031Y-116389970D01*
X89714338Y-116586000D01*
X89695031Y-116782030D01*
X89695030Y-116782033D01*
X89695030Y-116782034D01*
X89681920Y-116825253D01*
X89637848Y-116970537D01*
X89544991Y-117144260D01*
X89420028Y-117296528D01*
X89267760Y-117421491D01*
X89210238Y-117452237D01*
X89094035Y-117514349D01*
X88905534Y-117571530D01*
X88905533Y-117571530D01*
X88905530Y-117571531D01*
X88758624Y-117586000D01*
X88660376Y-117586000D01*
X88513470Y-117571531D01*
X88513467Y-117571530D01*
X88513466Y-117571530D01*
X88324965Y-117514349D01*
X88208762Y-117452237D01*
X88151240Y-117421491D01*
X87998972Y-117296528D01*
X87874009Y-117144260D01*
X87781152Y-116970537D01*
X87737081Y-116825253D01*
X87723970Y-116782034D01*
X87723970Y-116782033D01*
X87723969Y-116782030D01*
X87704662Y-116586000D01*
X87723969Y-116389970D01*
X87781152Y-116201463D01*
X87874009Y-116027740D01*
X87998972Y-115875472D01*
X88151240Y-115750509D01*
X88324963Y-115657652D01*
X88324965Y-115657651D01*
X88513466Y-115600470D01*
X88513467Y-115600470D01*
X88513470Y-115600469D01*
X88660376Y-115586000D01*
X88758624Y-115586000D01*
X88905530Y-115600469D01*
X88905530Y-115600469D01*
G37*
G36*
X82089500Y-117586000D02*
X80089500Y-117586000D01*
X80089500Y-115586000D01*
X82089500Y-115586000D01*
X82089500Y-117586000D01*
X82089500Y-117586000D01*
G37*
G36*
X159546000Y-116366000D02*
X157446000Y-116366000D01*
X157446000Y-114266000D01*
X159546000Y-114266000D01*
X159546000Y-116366000D01*
X159546000Y-116366000D01*
G37*
G36*
X104543000Y-115846000D02*
X100943000Y-115846000D01*
X100943000Y-112246000D01*
X104543000Y-112246000D01*
X104543000Y-115846000D01*
X104543000Y-115846000D01*
G37*
G36*
X152274707Y-113257596D02*
X152351836Y-113265193D01*
X152483787Y-113305220D01*
X152549763Y-113325233D01*
X152732172Y-113422733D01*
X152892054Y-113553946D01*
X153023267Y-113713828D01*
X153120767Y-113896237D01*
X153120767Y-113896238D01*
X153180807Y-114094164D01*
X153201080Y-114300000D01*
X153180807Y-114505836D01*
X153162548Y-114566028D01*
X153120767Y-114703763D01*
X153023267Y-114886172D01*
X152892054Y-115046054D01*
X152732172Y-115177267D01*
X152549763Y-115274767D01*
X152483787Y-115294780D01*
X152351836Y-115334807D01*
X152274707Y-115342403D01*
X152197580Y-115350000D01*
X152094420Y-115350000D01*
X152017293Y-115342403D01*
X151940164Y-115334807D01*
X151808213Y-115294780D01*
X151742237Y-115274767D01*
X151559828Y-115177267D01*
X151399946Y-115046054D01*
X151268733Y-114886172D01*
X151171233Y-114703763D01*
X151129452Y-114566028D01*
X151111193Y-114505836D01*
X151090920Y-114300000D01*
X151111193Y-114094164D01*
X151171233Y-113896238D01*
X151171233Y-113896237D01*
X151268733Y-113713828D01*
X151399946Y-113553946D01*
X151559828Y-113422733D01*
X151742237Y-113325233D01*
X151808213Y-113305220D01*
X151940164Y-113265193D01*
X152017293Y-113257596D01*
X152094420Y-113250000D01*
X152197580Y-113250000D01*
X152274707Y-113257596D01*
X152274707Y-113257596D01*
G37*
G36*
X133208270Y-112870872D02*
X133324189Y-112893929D01*
X133506178Y-112969311D01*
X133669963Y-113078749D01*
X133809251Y-113218037D01*
X133918689Y-113381822D01*
X133994071Y-113563811D01*
X134032500Y-113757009D01*
X134032500Y-113953991D01*
X133994071Y-114147189D01*
X133918689Y-114329178D01*
X133809251Y-114492963D01*
X133669963Y-114632251D01*
X133506178Y-114741689D01*
X133324189Y-114817071D01*
X133208270Y-114840128D01*
X133130993Y-114855500D01*
X132934007Y-114855500D01*
X132856730Y-114840128D01*
X132740811Y-114817071D01*
X132558822Y-114741689D01*
X132395037Y-114632251D01*
X132255749Y-114492963D01*
X132146311Y-114329178D01*
X132070929Y-114147189D01*
X132032500Y-113953991D01*
X132032500Y-113757009D01*
X132070929Y-113563811D01*
X132146311Y-113381822D01*
X132255749Y-113218037D01*
X132395037Y-113078749D01*
X132558822Y-112969311D01*
X132740811Y-112893929D01*
X132856730Y-112870872D01*
X132934007Y-112855500D01*
X133130993Y-112855500D01*
X133208270Y-112870872D01*
X133208270Y-112870872D01*
G37*
G36*
X138308530Y-112869969D02*
X138308533Y-112869970D01*
X138308534Y-112869970D01*
X138497035Y-112927151D01*
X138497037Y-112927152D01*
X138670760Y-113020009D01*
X138823028Y-113144972D01*
X138947991Y-113297240D01*
X138947992Y-113297242D01*
X139040849Y-113470965D01*
X139084921Y-113616251D01*
X139098031Y-113659470D01*
X139117338Y-113855500D01*
X139098031Y-114051530D01*
X139040848Y-114240037D01*
X138947991Y-114413760D01*
X138823028Y-114566028D01*
X138670760Y-114690991D01*
X138670758Y-114690992D01*
X138497035Y-114783849D01*
X138308534Y-114841030D01*
X138308533Y-114841030D01*
X138308530Y-114841031D01*
X138161624Y-114855500D01*
X138063376Y-114855500D01*
X137916470Y-114841031D01*
X137916467Y-114841030D01*
X137916466Y-114841030D01*
X137727965Y-114783849D01*
X137554242Y-114690992D01*
X137554240Y-114690991D01*
X137401972Y-114566028D01*
X137277009Y-114413760D01*
X137184152Y-114240037D01*
X137126969Y-114051530D01*
X137107662Y-113855500D01*
X137126969Y-113659470D01*
X137140079Y-113616251D01*
X137184151Y-113470965D01*
X137277008Y-113297242D01*
X137277009Y-113297240D01*
X137401972Y-113144972D01*
X137554240Y-113020009D01*
X137727963Y-112927152D01*
X137727965Y-112927151D01*
X137916466Y-112869970D01*
X137916467Y-112869970D01*
X137916470Y-112869969D01*
X138063376Y-112855500D01*
X138161624Y-112855500D01*
X138308530Y-112869969D01*
X138308530Y-112869969D01*
G37*
G36*
X145781270Y-111854872D02*
X145897189Y-111877929D01*
X146079178Y-111953311D01*
X146242963Y-112062749D01*
X146382251Y-112202037D01*
X146491689Y-112365822D01*
X146567071Y-112547811D01*
X146605500Y-112741009D01*
X146605500Y-112937991D01*
X146567071Y-113131189D01*
X146491689Y-113313178D01*
X146382251Y-113476963D01*
X146242963Y-113616251D01*
X146079178Y-113725689D01*
X145897189Y-113801071D01*
X145781270Y-113824128D01*
X145703993Y-113839500D01*
X145507007Y-113839500D01*
X145429730Y-113824128D01*
X145313811Y-113801071D01*
X145131822Y-113725689D01*
X144968037Y-113616251D01*
X144828749Y-113476963D01*
X144719311Y-113313178D01*
X144643929Y-113131189D01*
X144605500Y-112937991D01*
X144605500Y-112741009D01*
X144643929Y-112547811D01*
X144719311Y-112365822D01*
X144828749Y-112202037D01*
X144968037Y-112062749D01*
X145131822Y-111953311D01*
X145313811Y-111877929D01*
X145429730Y-111854872D01*
X145507007Y-111839500D01*
X145703993Y-111839500D01*
X145781270Y-111854872D01*
X145781270Y-111854872D01*
G37*
G36*
X153196000Y-112810000D02*
X151096000Y-112810000D01*
X151096000Y-110710000D01*
X153196000Y-110710000D01*
X153196000Y-112810000D01*
X153196000Y-112810000D01*
G37*
G36*
X129164530Y-110647469D02*
X129164533Y-110647470D01*
X129164534Y-110647470D01*
X129353035Y-110704651D01*
X129353037Y-110704652D01*
X129526760Y-110797509D01*
X129679028Y-110922472D01*
X129803991Y-111074740D01*
X129884941Y-111226186D01*
X129896849Y-111248465D01*
X129942055Y-111397491D01*
X129954031Y-111436970D01*
X129973338Y-111633000D01*
X129954031Y-111829030D01*
X129954030Y-111829033D01*
X129954030Y-111829034D01*
X129902775Y-111998000D01*
X129896848Y-112017537D01*
X129803991Y-112191260D01*
X129679028Y-112343528D01*
X129526760Y-112468491D01*
X129526758Y-112468492D01*
X129353035Y-112561349D01*
X129164534Y-112618530D01*
X129164533Y-112618530D01*
X129164530Y-112618531D01*
X129017624Y-112633000D01*
X128919376Y-112633000D01*
X128772470Y-112618531D01*
X128772467Y-112618530D01*
X128772466Y-112618530D01*
X128583965Y-112561349D01*
X128410242Y-112468492D01*
X128410240Y-112468491D01*
X128257972Y-112343528D01*
X128133009Y-112191260D01*
X128040152Y-112017537D01*
X128034226Y-111998000D01*
X127982970Y-111829034D01*
X127982970Y-111829033D01*
X127982969Y-111829030D01*
X127963662Y-111633000D01*
X127982969Y-111436970D01*
X127994945Y-111397491D01*
X128040151Y-111248465D01*
X128052059Y-111226186D01*
X128133009Y-111074740D01*
X128257972Y-110922472D01*
X128410240Y-110797509D01*
X128583963Y-110704652D01*
X128583965Y-110704651D01*
X128772466Y-110647470D01*
X128772467Y-110647470D01*
X128772470Y-110647469D01*
X128919376Y-110633000D01*
X129017624Y-110633000D01*
X129164530Y-110647469D01*
X129164530Y-110647469D01*
G37*
G36*
X121544530Y-110647469D02*
X121544533Y-110647470D01*
X121544534Y-110647470D01*
X121733035Y-110704651D01*
X121733037Y-110704652D01*
X121906760Y-110797509D01*
X122059028Y-110922472D01*
X122183991Y-111074740D01*
X122264941Y-111226186D01*
X122276849Y-111248465D01*
X122322055Y-111397491D01*
X122334031Y-111436970D01*
X122353338Y-111633000D01*
X122334031Y-111829030D01*
X122334030Y-111829033D01*
X122334030Y-111829034D01*
X122282775Y-111998000D01*
X122276848Y-112017537D01*
X122183991Y-112191260D01*
X122059028Y-112343528D01*
X121906760Y-112468491D01*
X121906758Y-112468492D01*
X121733035Y-112561349D01*
X121544534Y-112618530D01*
X121544533Y-112618530D01*
X121544530Y-112618531D01*
X121397624Y-112633000D01*
X121299376Y-112633000D01*
X121152470Y-112618531D01*
X121152467Y-112618530D01*
X121152466Y-112618530D01*
X120963965Y-112561349D01*
X120790242Y-112468492D01*
X120790240Y-112468491D01*
X120637972Y-112343528D01*
X120513009Y-112191260D01*
X120420152Y-112017537D01*
X120414226Y-111998000D01*
X120362970Y-111829034D01*
X120362970Y-111829033D01*
X120362969Y-111829030D01*
X120343662Y-111633000D01*
X120362969Y-111436970D01*
X120374945Y-111397491D01*
X120420151Y-111248465D01*
X120432059Y-111226186D01*
X120513009Y-111074740D01*
X120637972Y-110922472D01*
X120790240Y-110797509D01*
X120963963Y-110704652D01*
X120963965Y-110704651D01*
X121152466Y-110647470D01*
X121152467Y-110647470D01*
X121152470Y-110647469D01*
X121299376Y-110633000D01*
X121397624Y-110633000D01*
X121544530Y-110647469D01*
X121544530Y-110647469D01*
G37*
G36*
X78555030Y-110583969D02*
X78555033Y-110583970D01*
X78555034Y-110583970D01*
X78743535Y-110641151D01*
X78743537Y-110641152D01*
X78917260Y-110734009D01*
X79069528Y-110858972D01*
X79194491Y-111011240D01*
X79276329Y-111164348D01*
X79287349Y-111184965D01*
X79344530Y-111373466D01*
X79344531Y-111373470D01*
X79363838Y-111569500D01*
X79344531Y-111765530D01*
X79344530Y-111765533D01*
X79344530Y-111765534D01*
X79287569Y-111953311D01*
X79287348Y-111954037D01*
X79194491Y-112127760D01*
X79069528Y-112280028D01*
X78917260Y-112404991D01*
X78917258Y-112404992D01*
X78743535Y-112497849D01*
X78555034Y-112555030D01*
X78555033Y-112555030D01*
X78555030Y-112555031D01*
X78408124Y-112569500D01*
X78309876Y-112569500D01*
X78162970Y-112555031D01*
X78162967Y-112555030D01*
X78162966Y-112555030D01*
X77974465Y-112497849D01*
X77800742Y-112404992D01*
X77800740Y-112404991D01*
X77648472Y-112280028D01*
X77523509Y-112127760D01*
X77430652Y-111954037D01*
X77430432Y-111953311D01*
X77373470Y-111765534D01*
X77373470Y-111765533D01*
X77373469Y-111765530D01*
X77354162Y-111569500D01*
X77373469Y-111373470D01*
X77373470Y-111373466D01*
X77430651Y-111184965D01*
X77441671Y-111164348D01*
X77523509Y-111011240D01*
X77648472Y-110858972D01*
X77800740Y-110734009D01*
X77974463Y-110641152D01*
X77974465Y-110641151D01*
X78162966Y-110583970D01*
X78162967Y-110583970D01*
X78162970Y-110583969D01*
X78309876Y-110569500D01*
X78408124Y-110569500D01*
X78555030Y-110583969D01*
X78555030Y-110583969D01*
G37*
G36*
X68839530Y-110520469D02*
X68839533Y-110520470D01*
X68839534Y-110520470D01*
X69028035Y-110577651D01*
X69028037Y-110577652D01*
X69201760Y-110670509D01*
X69354028Y-110795472D01*
X69478991Y-110947740D01*
X69512934Y-111011242D01*
X69571849Y-111121465D01*
X69610373Y-111248463D01*
X69629031Y-111309970D01*
X69648338Y-111506000D01*
X69629031Y-111702030D01*
X69629030Y-111702033D01*
X69629030Y-111702034D01*
X69606972Y-111774751D01*
X69571848Y-111890537D01*
X69478991Y-112064260D01*
X69354028Y-112216528D01*
X69201760Y-112341491D01*
X69201758Y-112341492D01*
X69028035Y-112434349D01*
X68839534Y-112491530D01*
X68839533Y-112491530D01*
X68839530Y-112491531D01*
X68692624Y-112506000D01*
X68594376Y-112506000D01*
X68447470Y-112491531D01*
X68447467Y-112491530D01*
X68447466Y-112491530D01*
X68258965Y-112434349D01*
X68085242Y-112341492D01*
X68085240Y-112341491D01*
X67932972Y-112216528D01*
X67808009Y-112064260D01*
X67715152Y-111890537D01*
X67680029Y-111774751D01*
X67657970Y-111702034D01*
X67657970Y-111702033D01*
X67657969Y-111702030D01*
X67638662Y-111506000D01*
X67657969Y-111309970D01*
X67676627Y-111248463D01*
X67715151Y-111121465D01*
X67774066Y-111011242D01*
X67808009Y-110947740D01*
X67932972Y-110795472D01*
X68085240Y-110670509D01*
X68258963Y-110577652D01*
X68258965Y-110577651D01*
X68447466Y-110520470D01*
X68447467Y-110520470D01*
X68447470Y-110520469D01*
X68594376Y-110506000D01*
X68692624Y-110506000D01*
X68839530Y-110520469D01*
X68839530Y-110520469D01*
G37*
G36*
X85857530Y-110520469D02*
X85857533Y-110520470D01*
X85857534Y-110520470D01*
X86046035Y-110577651D01*
X86046037Y-110577652D01*
X86219760Y-110670509D01*
X86372028Y-110795472D01*
X86496991Y-110947740D01*
X86530934Y-111011242D01*
X86589849Y-111121465D01*
X86628373Y-111248463D01*
X86647031Y-111309970D01*
X86666338Y-111506000D01*
X86647031Y-111702030D01*
X86647030Y-111702033D01*
X86647030Y-111702034D01*
X86624972Y-111774751D01*
X86589848Y-111890537D01*
X86496991Y-112064260D01*
X86372028Y-112216528D01*
X86219760Y-112341491D01*
X86219758Y-112341492D01*
X86046035Y-112434349D01*
X85857534Y-112491530D01*
X85857533Y-112491530D01*
X85857530Y-112491531D01*
X85710624Y-112506000D01*
X85612376Y-112506000D01*
X85465470Y-112491531D01*
X85465467Y-112491530D01*
X85465466Y-112491530D01*
X85276965Y-112434349D01*
X85103242Y-112341492D01*
X85103240Y-112341491D01*
X84950972Y-112216528D01*
X84826009Y-112064260D01*
X84733152Y-111890537D01*
X84698029Y-111774751D01*
X84675970Y-111702034D01*
X84675970Y-111702033D01*
X84675969Y-111702030D01*
X84656662Y-111506000D01*
X84675969Y-111309970D01*
X84694627Y-111248463D01*
X84733151Y-111121465D01*
X84792066Y-111011242D01*
X84826009Y-110947740D01*
X84950972Y-110795472D01*
X85103240Y-110670509D01*
X85276963Y-110577652D01*
X85276965Y-110577651D01*
X85465466Y-110520470D01*
X85465467Y-110520470D01*
X85465470Y-110520469D01*
X85612376Y-110506000D01*
X85710624Y-110506000D01*
X85857530Y-110520469D01*
X85857530Y-110520469D01*
G37*
G36*
X73772270Y-110314372D02*
X73888189Y-110337429D01*
X74070178Y-110412811D01*
X74233963Y-110522249D01*
X74373251Y-110661537D01*
X74482689Y-110825322D01*
X74558071Y-111007311D01*
X74575810Y-111096491D01*
X74596500Y-111200507D01*
X74596500Y-111397493D01*
X74588648Y-111436966D01*
X74558071Y-111590689D01*
X74482689Y-111772678D01*
X74373251Y-111936463D01*
X74233963Y-112075751D01*
X74070178Y-112185189D01*
X73888189Y-112260571D01*
X73772270Y-112283628D01*
X73694993Y-112299000D01*
X73498007Y-112299000D01*
X73420730Y-112283628D01*
X73304811Y-112260571D01*
X73122822Y-112185189D01*
X72959037Y-112075751D01*
X72819749Y-111936463D01*
X72710311Y-111772678D01*
X72634929Y-111590689D01*
X72604352Y-111436966D01*
X72596500Y-111397493D01*
X72596500Y-111200507D01*
X72617190Y-111096491D01*
X72634929Y-111007311D01*
X72710311Y-110825322D01*
X72819749Y-110661537D01*
X72959037Y-110522249D01*
X73122822Y-110412811D01*
X73304811Y-110337429D01*
X73420730Y-110314372D01*
X73498007Y-110299000D01*
X73694993Y-110299000D01*
X73772270Y-110314372D01*
X73772270Y-110314372D01*
G37*
G36*
X95743270Y-110013372D02*
X95859189Y-110036429D01*
X96041178Y-110111811D01*
X96204963Y-110221249D01*
X96344251Y-110360537D01*
X96453689Y-110524322D01*
X96529071Y-110706311D01*
X96546565Y-110794260D01*
X96567500Y-110899507D01*
X96567500Y-111096493D01*
X96554003Y-111164348D01*
X96529071Y-111289689D01*
X96453689Y-111471678D01*
X96344251Y-111635463D01*
X96204963Y-111774751D01*
X96041178Y-111884189D01*
X95859189Y-111959571D01*
X95743270Y-111982628D01*
X95665993Y-111998000D01*
X95469007Y-111998000D01*
X95391730Y-111982628D01*
X95275811Y-111959571D01*
X95093822Y-111884189D01*
X94930037Y-111774751D01*
X94790749Y-111635463D01*
X94681311Y-111471678D01*
X94605929Y-111289689D01*
X94580997Y-111164348D01*
X94567500Y-111096493D01*
X94567500Y-110899507D01*
X94588435Y-110794260D01*
X94605929Y-110706311D01*
X94681311Y-110524322D01*
X94790749Y-110360537D01*
X94930037Y-110221249D01*
X95093822Y-110111811D01*
X95275811Y-110036429D01*
X95391730Y-110013372D01*
X95469007Y-109998000D01*
X95665993Y-109998000D01*
X95743270Y-110013372D01*
X95743270Y-110013372D01*
G37*
G36*
X90917270Y-109949872D02*
X91033189Y-109972929D01*
X91215178Y-110048311D01*
X91378963Y-110157749D01*
X91518251Y-110297037D01*
X91627689Y-110460822D01*
X91703071Y-110642811D01*
X91721211Y-110734008D01*
X91739375Y-110825322D01*
X91741500Y-110836009D01*
X91741500Y-111032991D01*
X91703071Y-111226189D01*
X91627689Y-111408178D01*
X91518251Y-111571963D01*
X91378963Y-111711251D01*
X91215178Y-111820689D01*
X91033189Y-111896071D01*
X90917270Y-111919128D01*
X90839993Y-111934500D01*
X90643007Y-111934500D01*
X90565730Y-111919128D01*
X90449811Y-111896071D01*
X90267822Y-111820689D01*
X90104037Y-111711251D01*
X89964749Y-111571963D01*
X89855311Y-111408178D01*
X89779929Y-111226189D01*
X89741500Y-111032991D01*
X89741500Y-110836009D01*
X89743626Y-110825322D01*
X89761789Y-110734008D01*
X89779929Y-110642811D01*
X89855311Y-110460822D01*
X89964749Y-110297037D01*
X90104037Y-110157749D01*
X90267822Y-110048311D01*
X90449811Y-109972929D01*
X90565730Y-109949872D01*
X90643007Y-109934500D01*
X90839993Y-109934500D01*
X90917270Y-109949872D01*
X90917270Y-109949872D01*
G37*
G36*
X133208270Y-109251372D02*
X133324189Y-109274429D01*
X133506178Y-109349811D01*
X133669963Y-109459249D01*
X133809251Y-109598537D01*
X133918689Y-109762322D01*
X133994071Y-109944311D01*
X134014758Y-110048311D01*
X134027389Y-110111811D01*
X134032500Y-110137509D01*
X134032500Y-110334491D01*
X133994071Y-110527689D01*
X133918689Y-110709678D01*
X133809251Y-110873463D01*
X133669963Y-111012751D01*
X133506178Y-111122189D01*
X133324189Y-111197571D01*
X133208270Y-111220628D01*
X133130993Y-111236000D01*
X132934007Y-111236000D01*
X132856730Y-111220628D01*
X132740811Y-111197571D01*
X132558822Y-111122189D01*
X132395037Y-111012751D01*
X132255749Y-110873463D01*
X132146311Y-110709678D01*
X132070929Y-110527689D01*
X132032500Y-110334491D01*
X132032500Y-110137509D01*
X132037612Y-110111811D01*
X132050242Y-110048311D01*
X132070929Y-109944311D01*
X132146311Y-109762322D01*
X132255749Y-109598537D01*
X132395037Y-109459249D01*
X132558822Y-109349811D01*
X132740811Y-109274429D01*
X132856730Y-109251372D01*
X132934007Y-109236000D01*
X133130993Y-109236000D01*
X133208270Y-109251372D01*
X133208270Y-109251372D01*
G37*
G36*
X138308530Y-109250469D02*
X138308533Y-109250470D01*
X138308534Y-109250470D01*
X138497035Y-109307651D01*
X138497037Y-109307652D01*
X138670760Y-109400509D01*
X138823028Y-109525472D01*
X138947991Y-109677740D01*
X138947992Y-109677742D01*
X139040849Y-109851465D01*
X139096957Y-110036429D01*
X139098031Y-110039970D01*
X139117338Y-110236000D01*
X139098031Y-110432030D01*
X139098030Y-110432033D01*
X139098030Y-110432034D01*
X139051941Y-110583970D01*
X139040848Y-110620537D01*
X138947991Y-110794260D01*
X138823028Y-110946528D01*
X138670760Y-111071491D01*
X138577269Y-111121463D01*
X138497035Y-111164349D01*
X138308534Y-111221530D01*
X138308533Y-111221530D01*
X138308530Y-111221531D01*
X138161624Y-111236000D01*
X138063376Y-111236000D01*
X137916470Y-111221531D01*
X137916467Y-111221530D01*
X137916466Y-111221530D01*
X137727965Y-111164349D01*
X137647731Y-111121463D01*
X137554240Y-111071491D01*
X137401972Y-110946528D01*
X137277009Y-110794260D01*
X137184152Y-110620537D01*
X137173060Y-110583970D01*
X137126970Y-110432034D01*
X137126970Y-110432033D01*
X137126969Y-110432030D01*
X137107662Y-110236000D01*
X137126969Y-110039970D01*
X137128043Y-110036429D01*
X137184151Y-109851465D01*
X137277008Y-109677742D01*
X137277009Y-109677740D01*
X137401972Y-109525472D01*
X137554240Y-109400509D01*
X137727963Y-109307652D01*
X137727965Y-109307651D01*
X137916466Y-109250470D01*
X137916467Y-109250470D01*
X137916470Y-109250469D01*
X138063376Y-109236000D01*
X138161624Y-109236000D01*
X138308530Y-109250469D01*
X138308530Y-109250469D01*
G37*
G36*
X163102000Y-110905000D02*
X161002000Y-110905000D01*
X161002000Y-108805000D01*
X163102000Y-108805000D01*
X163102000Y-110905000D01*
X163102000Y-110905000D01*
G37*
G36*
X129164530Y-108107469D02*
X129164533Y-108107470D01*
X129164534Y-108107470D01*
X129353035Y-108164651D01*
X129353037Y-108164652D01*
X129526760Y-108257509D01*
X129679028Y-108382472D01*
X129803991Y-108534740D01*
X129803992Y-108534742D01*
X129896849Y-108708465D01*
X129926132Y-108805000D01*
X129954031Y-108896970D01*
X129973338Y-109093000D01*
X129954031Y-109289030D01*
X129954030Y-109289033D01*
X129954030Y-109289034D01*
X129902395Y-109459253D01*
X129896848Y-109477537D01*
X129803991Y-109651260D01*
X129679028Y-109803528D01*
X129526760Y-109928491D01*
X129526758Y-109928492D01*
X129353035Y-110021349D01*
X129164534Y-110078530D01*
X129164533Y-110078530D01*
X129164530Y-110078531D01*
X129017624Y-110093000D01*
X128919376Y-110093000D01*
X128772470Y-110078531D01*
X128772467Y-110078530D01*
X128772466Y-110078530D01*
X128583965Y-110021349D01*
X128410242Y-109928492D01*
X128410240Y-109928491D01*
X128257972Y-109803528D01*
X128133009Y-109651260D01*
X128040152Y-109477537D01*
X128034606Y-109459253D01*
X127982970Y-109289034D01*
X127982970Y-109289033D01*
X127982969Y-109289030D01*
X127963662Y-109093000D01*
X127982969Y-108896970D01*
X128010868Y-108805000D01*
X128040151Y-108708465D01*
X128133008Y-108534742D01*
X128133009Y-108534740D01*
X128257972Y-108382472D01*
X128410240Y-108257509D01*
X128583963Y-108164652D01*
X128583965Y-108164651D01*
X128772466Y-108107470D01*
X128772467Y-108107470D01*
X128772470Y-108107469D01*
X128919376Y-108093000D01*
X129017624Y-108093000D01*
X129164530Y-108107469D01*
X129164530Y-108107469D01*
G37*
G36*
X121544530Y-108107469D02*
X121544533Y-108107470D01*
X121544534Y-108107470D01*
X121733035Y-108164651D01*
X121733037Y-108164652D01*
X121906760Y-108257509D01*
X122059028Y-108382472D01*
X122183991Y-108534740D01*
X122183992Y-108534742D01*
X122276849Y-108708465D01*
X122306132Y-108805000D01*
X122334031Y-108896970D01*
X122353338Y-109093000D01*
X122334031Y-109289030D01*
X122334030Y-109289033D01*
X122334030Y-109289034D01*
X122282395Y-109459253D01*
X122276848Y-109477537D01*
X122183991Y-109651260D01*
X122059028Y-109803528D01*
X121906760Y-109928491D01*
X121906758Y-109928492D01*
X121733035Y-110021349D01*
X121544534Y-110078530D01*
X121544533Y-110078530D01*
X121544530Y-110078531D01*
X121397624Y-110093000D01*
X121299376Y-110093000D01*
X121152470Y-110078531D01*
X121152467Y-110078530D01*
X121152466Y-110078530D01*
X120963965Y-110021349D01*
X120790242Y-109928492D01*
X120790240Y-109928491D01*
X120637972Y-109803528D01*
X120513009Y-109651260D01*
X120420152Y-109477537D01*
X120414606Y-109459253D01*
X120362970Y-109289034D01*
X120362970Y-109289033D01*
X120362969Y-109289030D01*
X120343662Y-109093000D01*
X120362969Y-108896970D01*
X120390868Y-108805000D01*
X120420151Y-108708465D01*
X120513008Y-108534742D01*
X120513009Y-108534740D01*
X120637972Y-108382472D01*
X120790240Y-108257509D01*
X120963963Y-108164652D01*
X120963965Y-108164651D01*
X121152466Y-108107470D01*
X121152467Y-108107470D01*
X121152470Y-108107469D01*
X121299376Y-108093000D01*
X121397624Y-108093000D01*
X121544530Y-108107469D01*
X121544530Y-108107469D01*
G37*
G36*
X103158000Y-109381000D02*
X101058000Y-109381000D01*
X101058000Y-107281000D01*
X103158000Y-107281000D01*
X103158000Y-109381000D01*
X103158000Y-109381000D01*
G37*
G36*
X145779402Y-106854500D02*
X145897189Y-106877929D01*
X146079178Y-106953311D01*
X146242963Y-107062749D01*
X146382251Y-107202037D01*
X146491689Y-107365822D01*
X146567071Y-107547811D01*
X146605500Y-107741009D01*
X146605500Y-107937991D01*
X146567071Y-108131189D01*
X146491689Y-108313178D01*
X146382251Y-108476963D01*
X146242963Y-108616251D01*
X146079178Y-108725689D01*
X145897189Y-108801071D01*
X145781270Y-108824128D01*
X145703993Y-108839500D01*
X145507007Y-108839500D01*
X145429730Y-108824128D01*
X145313811Y-108801071D01*
X145131822Y-108725689D01*
X144968037Y-108616251D01*
X144828749Y-108476963D01*
X144719311Y-108313178D01*
X144643929Y-108131189D01*
X144605500Y-107937991D01*
X144605500Y-107741009D01*
X144643929Y-107547811D01*
X144719311Y-107365822D01*
X144828749Y-107202037D01*
X144968037Y-107062749D01*
X145131822Y-106953311D01*
X145313811Y-106877929D01*
X145431598Y-106854500D01*
X145507007Y-106839500D01*
X145703993Y-106839500D01*
X145779402Y-106854500D01*
X145779402Y-106854500D01*
G37*
G36*
X162180707Y-106272596D02*
X162257836Y-106280193D01*
X162389787Y-106320220D01*
X162455763Y-106340233D01*
X162638172Y-106437733D01*
X162798054Y-106568946D01*
X162929267Y-106728828D01*
X163026767Y-106911237D01*
X163026767Y-106911238D01*
X163086807Y-107109164D01*
X163107080Y-107315000D01*
X163086807Y-107520836D01*
X163081439Y-107538531D01*
X163026767Y-107718763D01*
X162929267Y-107901172D01*
X162798054Y-108061054D01*
X162638172Y-108192267D01*
X162455763Y-108289767D01*
X162389787Y-108309780D01*
X162257836Y-108349807D01*
X162180707Y-108357404D01*
X162103580Y-108365000D01*
X162000420Y-108365000D01*
X161923293Y-108357404D01*
X161846164Y-108349807D01*
X161714213Y-108309780D01*
X161648237Y-108289767D01*
X161465828Y-108192267D01*
X161305946Y-108061054D01*
X161174733Y-107901172D01*
X161077233Y-107718763D01*
X161022561Y-107538531D01*
X161017193Y-107520836D01*
X160996920Y-107315000D01*
X161017193Y-107109164D01*
X161077233Y-106911238D01*
X161077233Y-106911237D01*
X161174733Y-106728828D01*
X161305946Y-106568946D01*
X161465828Y-106437733D01*
X161648237Y-106340233D01*
X161714213Y-106320220D01*
X161846164Y-106280193D01*
X161923293Y-106272596D01*
X162000420Y-106265000D01*
X162103580Y-106265000D01*
X162180707Y-106272596D01*
X162180707Y-106272596D01*
G37*
G36*
X129164530Y-105567469D02*
X129164533Y-105567470D01*
X129164534Y-105567470D01*
X129353035Y-105624651D01*
X129353037Y-105624652D01*
X129526760Y-105717509D01*
X129679028Y-105842472D01*
X129803991Y-105994740D01*
X129844652Y-106070811D01*
X129896849Y-106168465D01*
X129945094Y-106327509D01*
X129954031Y-106356970D01*
X129973338Y-106553000D01*
X129954031Y-106749030D01*
X129954030Y-106749033D01*
X129954030Y-106749034D01*
X129908333Y-106899678D01*
X129896848Y-106937537D01*
X129803991Y-107111260D01*
X129679028Y-107263528D01*
X129526760Y-107388491D01*
X129526758Y-107388492D01*
X129353035Y-107481349D01*
X129164534Y-107538530D01*
X129164533Y-107538530D01*
X129164530Y-107538531D01*
X129017624Y-107553000D01*
X128919376Y-107553000D01*
X128772470Y-107538531D01*
X128772467Y-107538530D01*
X128772466Y-107538530D01*
X128583965Y-107481349D01*
X128410242Y-107388492D01*
X128410240Y-107388491D01*
X128257972Y-107263528D01*
X128133009Y-107111260D01*
X128040152Y-106937537D01*
X128028668Y-106899678D01*
X127982970Y-106749034D01*
X127982970Y-106749033D01*
X127982969Y-106749030D01*
X127963662Y-106553000D01*
X127982969Y-106356970D01*
X127991906Y-106327509D01*
X128040151Y-106168465D01*
X128092348Y-106070811D01*
X128133009Y-105994740D01*
X128257972Y-105842472D01*
X128410240Y-105717509D01*
X128583963Y-105624652D01*
X128583965Y-105624651D01*
X128772466Y-105567470D01*
X128772467Y-105567470D01*
X128772470Y-105567469D01*
X128919376Y-105553000D01*
X129017624Y-105553000D01*
X129164530Y-105567469D01*
X129164530Y-105567469D01*
G37*
G36*
X121544530Y-105567469D02*
X121544533Y-105567470D01*
X121544534Y-105567470D01*
X121733035Y-105624651D01*
X121733037Y-105624652D01*
X121906760Y-105717509D01*
X122059028Y-105842472D01*
X122183991Y-105994740D01*
X122224652Y-106070811D01*
X122276849Y-106168465D01*
X122325094Y-106327509D01*
X122334031Y-106356970D01*
X122353338Y-106553000D01*
X122334031Y-106749030D01*
X122334030Y-106749033D01*
X122334030Y-106749034D01*
X122288333Y-106899678D01*
X122276848Y-106937537D01*
X122183991Y-107111260D01*
X122059028Y-107263528D01*
X121906760Y-107388491D01*
X121906758Y-107388492D01*
X121733035Y-107481349D01*
X121544534Y-107538530D01*
X121544533Y-107538530D01*
X121544530Y-107538531D01*
X121397624Y-107553000D01*
X121299376Y-107553000D01*
X121152470Y-107538531D01*
X121152467Y-107538530D01*
X121152466Y-107538530D01*
X120963965Y-107481349D01*
X120790242Y-107388492D01*
X120790240Y-107388491D01*
X120637972Y-107263528D01*
X120513009Y-107111260D01*
X120420152Y-106937537D01*
X120408668Y-106899678D01*
X120362970Y-106749034D01*
X120362970Y-106749033D01*
X120362969Y-106749030D01*
X120343662Y-106553000D01*
X120362969Y-106356970D01*
X120371906Y-106327509D01*
X120420151Y-106168465D01*
X120472348Y-106070811D01*
X120513009Y-105994740D01*
X120637972Y-105842472D01*
X120790240Y-105717509D01*
X120963963Y-105624652D01*
X120963965Y-105624651D01*
X121152466Y-105567470D01*
X121152467Y-105567470D01*
X121152470Y-105567469D01*
X121299376Y-105553000D01*
X121397624Y-105553000D01*
X121544530Y-105567469D01*
X121544530Y-105567469D01*
G37*
G36*
X78534770Y-105504872D02*
X78650689Y-105527929D01*
X78832678Y-105603311D01*
X78996463Y-105712749D01*
X79135751Y-105852037D01*
X79245189Y-106015822D01*
X79320571Y-106197811D01*
X79338846Y-106289686D01*
X79359000Y-106391007D01*
X79359000Y-106587993D01*
X79349557Y-106635466D01*
X79320571Y-106781189D01*
X79245189Y-106963178D01*
X79135751Y-107126963D01*
X78996463Y-107266251D01*
X78832678Y-107375689D01*
X78650689Y-107451071D01*
X78534770Y-107474128D01*
X78457493Y-107489500D01*
X78260507Y-107489500D01*
X78183230Y-107474128D01*
X78067311Y-107451071D01*
X77885322Y-107375689D01*
X77721537Y-107266251D01*
X77582249Y-107126963D01*
X77472811Y-106963178D01*
X77397429Y-106781189D01*
X77368443Y-106635466D01*
X77359000Y-106587993D01*
X77359000Y-106391007D01*
X77379154Y-106289686D01*
X77397429Y-106197811D01*
X77472811Y-106015822D01*
X77582249Y-105852037D01*
X77721537Y-105712749D01*
X77885322Y-105603311D01*
X78067311Y-105527929D01*
X78183230Y-105504872D01*
X78260507Y-105489500D01*
X78457493Y-105489500D01*
X78534770Y-105504872D01*
X78534770Y-105504872D01*
G37*
G36*
X68819270Y-105441372D02*
X68935189Y-105464429D01*
X69117178Y-105539811D01*
X69280963Y-105649249D01*
X69420251Y-105788537D01*
X69529689Y-105952322D01*
X69605071Y-106134311D01*
X69617702Y-106197811D01*
X69643500Y-106327507D01*
X69643500Y-106524493D01*
X69630869Y-106587991D01*
X69605071Y-106717689D01*
X69529689Y-106899678D01*
X69420251Y-107063463D01*
X69280963Y-107202751D01*
X69117178Y-107312189D01*
X68935189Y-107387571D01*
X68819270Y-107410628D01*
X68741993Y-107426000D01*
X68545007Y-107426000D01*
X68467730Y-107410628D01*
X68351811Y-107387571D01*
X68169822Y-107312189D01*
X68006037Y-107202751D01*
X67866749Y-107063463D01*
X67757311Y-106899678D01*
X67681929Y-106717689D01*
X67656131Y-106587991D01*
X67643500Y-106524493D01*
X67643500Y-106327507D01*
X67669298Y-106197811D01*
X67681929Y-106134311D01*
X67757311Y-105952322D01*
X67866749Y-105788537D01*
X68006037Y-105649249D01*
X68169822Y-105539811D01*
X68351811Y-105464429D01*
X68467730Y-105441372D01*
X68545007Y-105426000D01*
X68741993Y-105426000D01*
X68819270Y-105441372D01*
X68819270Y-105441372D01*
G37*
G36*
X85837270Y-105441372D02*
X85953189Y-105464429D01*
X86135178Y-105539811D01*
X86298963Y-105649249D01*
X86438251Y-105788537D01*
X86547689Y-105952322D01*
X86623071Y-106134311D01*
X86635702Y-106197811D01*
X86661500Y-106327507D01*
X86661500Y-106524493D01*
X86648869Y-106587991D01*
X86623071Y-106717689D01*
X86547689Y-106899678D01*
X86438251Y-107063463D01*
X86298963Y-107202751D01*
X86135178Y-107312189D01*
X85953189Y-107387571D01*
X85837270Y-107410628D01*
X85759993Y-107426000D01*
X85563007Y-107426000D01*
X85485730Y-107410628D01*
X85369811Y-107387571D01*
X85187822Y-107312189D01*
X85024037Y-107202751D01*
X84884749Y-107063463D01*
X84775311Y-106899678D01*
X84699929Y-106717689D01*
X84674131Y-106587991D01*
X84661500Y-106524493D01*
X84661500Y-106327507D01*
X84687298Y-106197811D01*
X84699929Y-106134311D01*
X84775311Y-105952322D01*
X84884749Y-105788537D01*
X85024037Y-105649249D01*
X85187822Y-105539811D01*
X85369811Y-105464429D01*
X85485730Y-105441372D01*
X85563007Y-105426000D01*
X85759993Y-105426000D01*
X85837270Y-105441372D01*
X85837270Y-105441372D01*
G37*
G36*
X115618770Y-105377872D02*
X115734689Y-105400929D01*
X115916678Y-105476311D01*
X116080463Y-105585749D01*
X116219751Y-105725037D01*
X116329189Y-105888822D01*
X116404571Y-106070811D01*
X116417202Y-106134311D01*
X116443000Y-106264007D01*
X116443000Y-106460993D01*
X116436229Y-106495034D01*
X116404571Y-106654189D01*
X116329189Y-106836178D01*
X116219751Y-106999963D01*
X116080463Y-107139251D01*
X115916678Y-107248689D01*
X115734689Y-107324071D01*
X115618770Y-107347128D01*
X115541493Y-107362500D01*
X115344507Y-107362500D01*
X115267230Y-107347128D01*
X115151311Y-107324071D01*
X114969322Y-107248689D01*
X114805537Y-107139251D01*
X114666249Y-106999963D01*
X114556811Y-106836178D01*
X114481429Y-106654189D01*
X114449771Y-106495034D01*
X114443000Y-106460993D01*
X114443000Y-106264007D01*
X114468798Y-106134311D01*
X114481429Y-106070811D01*
X114556811Y-105888822D01*
X114666249Y-105725037D01*
X114805537Y-105585749D01*
X114969322Y-105476311D01*
X115151311Y-105400929D01*
X115267230Y-105377872D01*
X115344507Y-105362500D01*
X115541493Y-105362500D01*
X115618770Y-105377872D01*
X115618770Y-105377872D01*
G37*
G36*
X110618770Y-105377872D02*
X110734689Y-105400929D01*
X110916678Y-105476311D01*
X111080463Y-105585749D01*
X111219751Y-105725037D01*
X111329189Y-105888822D01*
X111404571Y-106070811D01*
X111417202Y-106134311D01*
X111443000Y-106264007D01*
X111443000Y-106460993D01*
X111436229Y-106495034D01*
X111404571Y-106654189D01*
X111329189Y-106836178D01*
X111219751Y-106999963D01*
X111080463Y-107139251D01*
X110916678Y-107248689D01*
X110734689Y-107324071D01*
X110618770Y-107347128D01*
X110541493Y-107362500D01*
X110344507Y-107362500D01*
X110267230Y-107347128D01*
X110151311Y-107324071D01*
X109969322Y-107248689D01*
X109805537Y-107139251D01*
X109666249Y-106999963D01*
X109556811Y-106836178D01*
X109481429Y-106654189D01*
X109449771Y-106495034D01*
X109443000Y-106460993D01*
X109443000Y-106264007D01*
X109468798Y-106134311D01*
X109481429Y-106070811D01*
X109556811Y-105888822D01*
X109666249Y-105725037D01*
X109805537Y-105585749D01*
X109969322Y-105476311D01*
X110151311Y-105400929D01*
X110267230Y-105377872D01*
X110344507Y-105362500D01*
X110541493Y-105362500D01*
X110618770Y-105377872D01*
X110618770Y-105377872D01*
G37*
G36*
X133208270Y-105314372D02*
X133324189Y-105337429D01*
X133506178Y-105412811D01*
X133669963Y-105522249D01*
X133809251Y-105661537D01*
X133918689Y-105825322D01*
X133994071Y-106007311D01*
X134017128Y-106123230D01*
X134032500Y-106200507D01*
X134032500Y-106397493D01*
X134019869Y-106460991D01*
X133994071Y-106590689D01*
X133918689Y-106772678D01*
X133809251Y-106936463D01*
X133669963Y-107075751D01*
X133506178Y-107185189D01*
X133324189Y-107260571D01*
X133221484Y-107281000D01*
X133130993Y-107299000D01*
X132934007Y-107299000D01*
X132843516Y-107281000D01*
X132740811Y-107260571D01*
X132558822Y-107185189D01*
X132395037Y-107075751D01*
X132255749Y-106936463D01*
X132146311Y-106772678D01*
X132070929Y-106590689D01*
X132045131Y-106460991D01*
X132032500Y-106397493D01*
X132032500Y-106200507D01*
X132047872Y-106123230D01*
X132070929Y-106007311D01*
X132146311Y-105825322D01*
X132255749Y-105661537D01*
X132395037Y-105522249D01*
X132558822Y-105412811D01*
X132740811Y-105337429D01*
X132856730Y-105314372D01*
X132934007Y-105299000D01*
X133130993Y-105299000D01*
X133208270Y-105314372D01*
X133208270Y-105314372D01*
G37*
G36*
X73772270Y-105314372D02*
X73888189Y-105337429D01*
X74070178Y-105412811D01*
X74233963Y-105522249D01*
X74373251Y-105661537D01*
X74482689Y-105825322D01*
X74558071Y-106007311D01*
X74581128Y-106123230D01*
X74596500Y-106200507D01*
X74596500Y-106397493D01*
X74583869Y-106460991D01*
X74558071Y-106590689D01*
X74482689Y-106772678D01*
X74373251Y-106936463D01*
X74233963Y-107075751D01*
X74070178Y-107185189D01*
X73888189Y-107260571D01*
X73785484Y-107281000D01*
X73694993Y-107299000D01*
X73498007Y-107299000D01*
X73407516Y-107281000D01*
X73304811Y-107260571D01*
X73122822Y-107185189D01*
X72959037Y-107075751D01*
X72819749Y-106936463D01*
X72710311Y-106772678D01*
X72634929Y-106590689D01*
X72609131Y-106460991D01*
X72596500Y-106397493D01*
X72596500Y-106200507D01*
X72611872Y-106123230D01*
X72634929Y-106007311D01*
X72710311Y-105825322D01*
X72819749Y-105661537D01*
X72959037Y-105522249D01*
X73122822Y-105412811D01*
X73304811Y-105337429D01*
X73420730Y-105314372D01*
X73498007Y-105299000D01*
X73694993Y-105299000D01*
X73772270Y-105314372D01*
X73772270Y-105314372D01*
G37*
G36*
X138308530Y-105313469D02*
X138308533Y-105313470D01*
X138308534Y-105313470D01*
X138497035Y-105370651D01*
X138497037Y-105370652D01*
X138670760Y-105463509D01*
X138823028Y-105588472D01*
X138947991Y-105740740D01*
X139008797Y-105854500D01*
X139040849Y-105914465D01*
X139082125Y-106050534D01*
X139098031Y-106102970D01*
X139117338Y-106299000D01*
X139098031Y-106495030D01*
X139098030Y-106495033D01*
X139098030Y-106495034D01*
X139055431Y-106635466D01*
X139040848Y-106683537D01*
X138947991Y-106857260D01*
X138823028Y-107009528D01*
X138670760Y-107134491D01*
X138670758Y-107134492D01*
X138497035Y-107227349D01*
X138308534Y-107284530D01*
X138308533Y-107284530D01*
X138308530Y-107284531D01*
X138161624Y-107299000D01*
X138063376Y-107299000D01*
X137916470Y-107284531D01*
X137916467Y-107284530D01*
X137916466Y-107284530D01*
X137727965Y-107227349D01*
X137554242Y-107134492D01*
X137554240Y-107134491D01*
X137401972Y-107009528D01*
X137277009Y-106857260D01*
X137184152Y-106683537D01*
X137169570Y-106635466D01*
X137126970Y-106495034D01*
X137126970Y-106495033D01*
X137126969Y-106495030D01*
X137107662Y-106299000D01*
X137126969Y-106102970D01*
X137142875Y-106050534D01*
X137184151Y-105914465D01*
X137216203Y-105854500D01*
X137277009Y-105740740D01*
X137401972Y-105588472D01*
X137554240Y-105463509D01*
X137727963Y-105370652D01*
X137727965Y-105370651D01*
X137916466Y-105313470D01*
X137916467Y-105313470D01*
X137916470Y-105313469D01*
X138063376Y-105299000D01*
X138161624Y-105299000D01*
X138308530Y-105313469D01*
X138308530Y-105313469D01*
G37*
G36*
X95741402Y-105013000D02*
X95859189Y-105036429D01*
X96041178Y-105111811D01*
X96204963Y-105221249D01*
X96344251Y-105360537D01*
X96453689Y-105524322D01*
X96529071Y-105706311D01*
X96545916Y-105791000D01*
X96567500Y-105899507D01*
X96567500Y-106096493D01*
X96559977Y-106134311D01*
X96529071Y-106289689D01*
X96453689Y-106471678D01*
X96344251Y-106635463D01*
X96204963Y-106774751D01*
X96041178Y-106884189D01*
X95859189Y-106959571D01*
X95743270Y-106982628D01*
X95665993Y-106998000D01*
X95469007Y-106998000D01*
X95391730Y-106982628D01*
X95275811Y-106959571D01*
X95093822Y-106884189D01*
X94930037Y-106774751D01*
X94790749Y-106635463D01*
X94681311Y-106471678D01*
X94605929Y-106289689D01*
X94575023Y-106134311D01*
X94567500Y-106096493D01*
X94567500Y-105899507D01*
X94589084Y-105791000D01*
X94605929Y-105706311D01*
X94681311Y-105524322D01*
X94790749Y-105360537D01*
X94930037Y-105221249D01*
X95093822Y-105111811D01*
X95275811Y-105036429D01*
X95393598Y-105013000D01*
X95469007Y-104998000D01*
X95665993Y-104998000D01*
X95741402Y-105013000D01*
X95741402Y-105013000D01*
G37*
G36*
X90937530Y-104868969D02*
X90937533Y-104868970D01*
X90937534Y-104868970D01*
X91126035Y-104926151D01*
X91126037Y-104926152D01*
X91299760Y-105019009D01*
X91452028Y-105143972D01*
X91576991Y-105296240D01*
X91639300Y-105412811D01*
X91669849Y-105469965D01*
X91727030Y-105658466D01*
X91727031Y-105658470D01*
X91746338Y-105854500D01*
X91727031Y-106050530D01*
X91727030Y-106050533D01*
X91727030Y-106050534D01*
X91681536Y-106200509D01*
X91669848Y-106239037D01*
X91576991Y-106412760D01*
X91452028Y-106565028D01*
X91299760Y-106689991D01*
X91299758Y-106689992D01*
X91126035Y-106782849D01*
X90937534Y-106840030D01*
X90937533Y-106840030D01*
X90937530Y-106840031D01*
X90790624Y-106854500D01*
X90692376Y-106854500D01*
X90545470Y-106840031D01*
X90545467Y-106840030D01*
X90545466Y-106840030D01*
X90356965Y-106782849D01*
X90183242Y-106689992D01*
X90183240Y-106689991D01*
X90030972Y-106565028D01*
X89906009Y-106412760D01*
X89813152Y-106239037D01*
X89801465Y-106200509D01*
X89755970Y-106050534D01*
X89755970Y-106050533D01*
X89755969Y-106050530D01*
X89736662Y-105854500D01*
X89755969Y-105658470D01*
X89755970Y-105658466D01*
X89813151Y-105469965D01*
X89843700Y-105412811D01*
X89906009Y-105296240D01*
X90030972Y-105143972D01*
X90183240Y-105019009D01*
X90356963Y-104926152D01*
X90356965Y-104926151D01*
X90545466Y-104868970D01*
X90545467Y-104868970D01*
X90545470Y-104868969D01*
X90692376Y-104854500D01*
X90790624Y-104854500D01*
X90937530Y-104868969D01*
X90937530Y-104868969D01*
G37*
G36*
X102236707Y-104748596D02*
X102313836Y-104756193D01*
X102424449Y-104789747D01*
X102511763Y-104816233D01*
X102694172Y-104913733D01*
X102854054Y-105044946D01*
X102985267Y-105204828D01*
X103082767Y-105387237D01*
X103094525Y-105426000D01*
X103142807Y-105585164D01*
X103163080Y-105791000D01*
X103142807Y-105996836D01*
X103126519Y-106050530D01*
X103082767Y-106194763D01*
X102985267Y-106377172D01*
X102854054Y-106537054D01*
X102694172Y-106668267D01*
X102511763Y-106765767D01*
X102455453Y-106782848D01*
X102313836Y-106825807D01*
X102236707Y-106833404D01*
X102159580Y-106841000D01*
X102056420Y-106841000D01*
X101979293Y-106833404D01*
X101902164Y-106825807D01*
X101760547Y-106782848D01*
X101704237Y-106765767D01*
X101521828Y-106668267D01*
X101361946Y-106537054D01*
X101230733Y-106377172D01*
X101133233Y-106194763D01*
X101089481Y-106050530D01*
X101073193Y-105996836D01*
X101052920Y-105791000D01*
X101073193Y-105585164D01*
X101121475Y-105426000D01*
X101133233Y-105387237D01*
X101230733Y-105204828D01*
X101361946Y-105044946D01*
X101521828Y-104913733D01*
X101704237Y-104816233D01*
X101791551Y-104789747D01*
X101902164Y-104756193D01*
X101979293Y-104748596D01*
X102056420Y-104741000D01*
X102159580Y-104741000D01*
X102236707Y-104748596D01*
X102236707Y-104748596D01*
G37*
G36*
X162180707Y-103732596D02*
X162257836Y-103740193D01*
X162389787Y-103780220D01*
X162455763Y-103800233D01*
X162638172Y-103897733D01*
X162798054Y-104028946D01*
X162929267Y-104188828D01*
X163026767Y-104371237D01*
X163026767Y-104371238D01*
X163086807Y-104569164D01*
X163107080Y-104775000D01*
X163086807Y-104980836D01*
X163047076Y-105111811D01*
X163026767Y-105178763D01*
X162929267Y-105361172D01*
X162798054Y-105521054D01*
X162638172Y-105652267D01*
X162455763Y-105749767D01*
X162389787Y-105769780D01*
X162257836Y-105809807D01*
X162180707Y-105817403D01*
X162103580Y-105825000D01*
X162000420Y-105825000D01*
X161923293Y-105817403D01*
X161846164Y-105809807D01*
X161714213Y-105769780D01*
X161648237Y-105749767D01*
X161465828Y-105652267D01*
X161305946Y-105521054D01*
X161174733Y-105361172D01*
X161077233Y-105178763D01*
X161056924Y-105111811D01*
X161017193Y-104980836D01*
X160996920Y-104775000D01*
X161017193Y-104569164D01*
X161077233Y-104371238D01*
X161077233Y-104371237D01*
X161174733Y-104188828D01*
X161305946Y-104028946D01*
X161465828Y-103897733D01*
X161648237Y-103800233D01*
X161714213Y-103780220D01*
X161846164Y-103740193D01*
X161923293Y-103732596D01*
X162000420Y-103725000D01*
X162103580Y-103725000D01*
X162180707Y-103732596D01*
X162180707Y-103732596D01*
G37*
G36*
X129164530Y-103027469D02*
X129164533Y-103027470D01*
X129164534Y-103027470D01*
X129353035Y-103084651D01*
X129353037Y-103084652D01*
X129526760Y-103177509D01*
X129679028Y-103302472D01*
X129803991Y-103454740D01*
X129896848Y-103628463D01*
X129954031Y-103816970D01*
X129973338Y-104013000D01*
X129954031Y-104209030D01*
X129896848Y-104397537D01*
X129803991Y-104571260D01*
X129679028Y-104723528D01*
X129526760Y-104848491D01*
X129381467Y-104926152D01*
X129353035Y-104941349D01*
X129164534Y-104998530D01*
X129164533Y-104998530D01*
X129164530Y-104998531D01*
X129017624Y-105013000D01*
X128919376Y-105013000D01*
X128772470Y-104998531D01*
X128772467Y-104998530D01*
X128772466Y-104998530D01*
X128583965Y-104941349D01*
X128555533Y-104926152D01*
X128410240Y-104848491D01*
X128257972Y-104723528D01*
X128133009Y-104571260D01*
X128040152Y-104397537D01*
X127982969Y-104209030D01*
X127963662Y-104013000D01*
X127982969Y-103816970D01*
X128040152Y-103628463D01*
X128133009Y-103454740D01*
X128257972Y-103302472D01*
X128410240Y-103177509D01*
X128583963Y-103084652D01*
X128583965Y-103084651D01*
X128772466Y-103027470D01*
X128772467Y-103027470D01*
X128772470Y-103027469D01*
X128919376Y-103013000D01*
X129017624Y-103013000D01*
X129164530Y-103027469D01*
X129164530Y-103027469D01*
G37*
G36*
X145781270Y-103028372D02*
X145897189Y-103051429D01*
X146079178Y-103126811D01*
X146242963Y-103236249D01*
X146382251Y-103375537D01*
X146491689Y-103539322D01*
X146567071Y-103721311D01*
X146605500Y-103914509D01*
X146605500Y-104111491D01*
X146567071Y-104304689D01*
X146491689Y-104486678D01*
X146382251Y-104650463D01*
X146242963Y-104789751D01*
X146079178Y-104899189D01*
X145897189Y-104974571D01*
X145781270Y-104997628D01*
X145703993Y-105013000D01*
X145507007Y-105013000D01*
X145429730Y-104997628D01*
X145313811Y-104974571D01*
X145131822Y-104899189D01*
X144968037Y-104789751D01*
X144828749Y-104650463D01*
X144719311Y-104486678D01*
X144643929Y-104304689D01*
X144605500Y-104111491D01*
X144605500Y-103914509D01*
X144643929Y-103721311D01*
X144719311Y-103539322D01*
X144828749Y-103375537D01*
X144968037Y-103236249D01*
X145131822Y-103126811D01*
X145313811Y-103051429D01*
X145429730Y-103028372D01*
X145507007Y-103013000D01*
X145703993Y-103013000D01*
X145781270Y-103028372D01*
X145781270Y-103028372D01*
G37*
G36*
X121544530Y-103027469D02*
X121544533Y-103027470D01*
X121544534Y-103027470D01*
X121733035Y-103084651D01*
X121733037Y-103084652D01*
X121906760Y-103177509D01*
X122059028Y-103302472D01*
X122183991Y-103454740D01*
X122276848Y-103628463D01*
X122334031Y-103816970D01*
X122353338Y-104013000D01*
X122334031Y-104209030D01*
X122276848Y-104397537D01*
X122183991Y-104571260D01*
X122059028Y-104723528D01*
X121906760Y-104848491D01*
X121761467Y-104926152D01*
X121733035Y-104941349D01*
X121544534Y-104998530D01*
X121544533Y-104998530D01*
X121544530Y-104998531D01*
X121397624Y-105013000D01*
X121299376Y-105013000D01*
X121152470Y-104998531D01*
X121152467Y-104998530D01*
X121152466Y-104998530D01*
X120963965Y-104941349D01*
X120935533Y-104926152D01*
X120790240Y-104848491D01*
X120637972Y-104723528D01*
X120513009Y-104571260D01*
X120420152Y-104397537D01*
X120362969Y-104209030D01*
X120343662Y-104013000D01*
X120362969Y-103816970D01*
X120420152Y-103628463D01*
X120513009Y-103454740D01*
X120637972Y-103302472D01*
X120790240Y-103177509D01*
X120963963Y-103084652D01*
X120963965Y-103084651D01*
X121152466Y-103027470D01*
X121152467Y-103027470D01*
X121152470Y-103027469D01*
X121299376Y-103013000D01*
X121397624Y-103013000D01*
X121544530Y-103027469D01*
X121544530Y-103027469D01*
G37*
G36*
X115237770Y-101567872D02*
X115353689Y-101590929D01*
X115535678Y-101666311D01*
X115699463Y-101775749D01*
X115838751Y-101915037D01*
X115948189Y-102078822D01*
X116023571Y-102260811D01*
X116043698Y-102362000D01*
X116062000Y-102454007D01*
X116062000Y-102650993D01*
X116051900Y-102701767D01*
X116023571Y-102844189D01*
X115948189Y-103026178D01*
X115838751Y-103189963D01*
X115699463Y-103329251D01*
X115535678Y-103438689D01*
X115353689Y-103514071D01*
X115237770Y-103537128D01*
X115160493Y-103552500D01*
X114963507Y-103552500D01*
X114886230Y-103537128D01*
X114770311Y-103514071D01*
X114588322Y-103438689D01*
X114424537Y-103329251D01*
X114285249Y-103189963D01*
X114175811Y-103026178D01*
X114100429Y-102844189D01*
X114072100Y-102701767D01*
X114062000Y-102650993D01*
X114062000Y-102454007D01*
X114080302Y-102362000D01*
X114100429Y-102260811D01*
X114175811Y-102078822D01*
X114285249Y-101915037D01*
X114424537Y-101775749D01*
X114588322Y-101666311D01*
X114770311Y-101590929D01*
X114886230Y-101567872D01*
X114963507Y-101552500D01*
X115160493Y-101552500D01*
X115237770Y-101567872D01*
X115237770Y-101567872D01*
G37*
G36*
X110178030Y-101566969D02*
X110178033Y-101566970D01*
X110178034Y-101566970D01*
X110366535Y-101624151D01*
X110366537Y-101624152D01*
X110540260Y-101717009D01*
X110692528Y-101841972D01*
X110817491Y-101994240D01*
X110874231Y-102100393D01*
X110910349Y-102167965D01*
X110954397Y-102313172D01*
X110967531Y-102356470D01*
X110986838Y-102552500D01*
X110967531Y-102748530D01*
X110967530Y-102748533D01*
X110967530Y-102748534D01*
X110915438Y-102920260D01*
X110910348Y-102937037D01*
X110817491Y-103110760D01*
X110692528Y-103263028D01*
X110540260Y-103387991D01*
X110415378Y-103454742D01*
X110366535Y-103480849D01*
X110178034Y-103538030D01*
X110178033Y-103538030D01*
X110178030Y-103538031D01*
X110031124Y-103552500D01*
X109932876Y-103552500D01*
X109785970Y-103538031D01*
X109785967Y-103538030D01*
X109785966Y-103538030D01*
X109597465Y-103480849D01*
X109548622Y-103454742D01*
X109423740Y-103387991D01*
X109271472Y-103263028D01*
X109146509Y-103110760D01*
X109053652Y-102937037D01*
X109048563Y-102920260D01*
X108996470Y-102748534D01*
X108996470Y-102748533D01*
X108996469Y-102748530D01*
X108977162Y-102552500D01*
X108996469Y-102356470D01*
X109009603Y-102313172D01*
X109053651Y-102167965D01*
X109089769Y-102100393D01*
X109146509Y-101994240D01*
X109271472Y-101841972D01*
X109423740Y-101717009D01*
X109597463Y-101624152D01*
X109597465Y-101624151D01*
X109785966Y-101566970D01*
X109785967Y-101566970D01*
X109785970Y-101566969D01*
X109932876Y-101552500D01*
X110031124Y-101552500D01*
X110178030Y-101566969D01*
X110178030Y-101566969D01*
G37*
G36*
X133208270Y-101377372D02*
X133324189Y-101400429D01*
X133506178Y-101475811D01*
X133669963Y-101585249D01*
X133809251Y-101724537D01*
X133918689Y-101888322D01*
X133994071Y-102070311D01*
X134013495Y-102167963D01*
X134032500Y-102263507D01*
X134032500Y-102460493D01*
X134030012Y-102473000D01*
X133994071Y-102653689D01*
X133918689Y-102835678D01*
X133809251Y-102999463D01*
X133669963Y-103138751D01*
X133506178Y-103248189D01*
X133324189Y-103323571D01*
X133208270Y-103346628D01*
X133130993Y-103362000D01*
X132934007Y-103362000D01*
X132856730Y-103346628D01*
X132740811Y-103323571D01*
X132558822Y-103248189D01*
X132395037Y-103138751D01*
X132255749Y-102999463D01*
X132146311Y-102835678D01*
X132070929Y-102653689D01*
X132034988Y-102473000D01*
X132032500Y-102460493D01*
X132032500Y-102263507D01*
X132051505Y-102167963D01*
X132070929Y-102070311D01*
X132146311Y-101888322D01*
X132255749Y-101724537D01*
X132395037Y-101585249D01*
X132558822Y-101475811D01*
X132740811Y-101400429D01*
X132856730Y-101377372D01*
X132934007Y-101362000D01*
X133130993Y-101362000D01*
X133208270Y-101377372D01*
X133208270Y-101377372D01*
G37*
G36*
X138308530Y-101376469D02*
X138308533Y-101376470D01*
X138308534Y-101376470D01*
X138497035Y-101433651D01*
X138497037Y-101433652D01*
X138670760Y-101526509D01*
X138823028Y-101651472D01*
X138947991Y-101803740D01*
X139016993Y-101932834D01*
X139040849Y-101977465D01*
X139078139Y-102100394D01*
X139098031Y-102165970D01*
X139117338Y-102362000D01*
X139098031Y-102558030D01*
X139098030Y-102558033D01*
X139098030Y-102558034D01*
X139080727Y-102615076D01*
X139040848Y-102746537D01*
X138947991Y-102920260D01*
X138823028Y-103072528D01*
X138670760Y-103197491D01*
X138670758Y-103197492D01*
X138497035Y-103290349D01*
X138308534Y-103347530D01*
X138308533Y-103347530D01*
X138308530Y-103347531D01*
X138161624Y-103362000D01*
X138063376Y-103362000D01*
X137916470Y-103347531D01*
X137916467Y-103347530D01*
X137916466Y-103347530D01*
X137727965Y-103290349D01*
X137554242Y-103197492D01*
X137554240Y-103197491D01*
X137401972Y-103072528D01*
X137277009Y-102920260D01*
X137184152Y-102746537D01*
X137144274Y-102615076D01*
X137126970Y-102558034D01*
X137126970Y-102558033D01*
X137126969Y-102558030D01*
X137107662Y-102362000D01*
X137126969Y-102165970D01*
X137146861Y-102100394D01*
X137184151Y-101977465D01*
X137208007Y-101932834D01*
X137277009Y-101803740D01*
X137401972Y-101651472D01*
X137554240Y-101526509D01*
X137727963Y-101433652D01*
X137727965Y-101433651D01*
X137916466Y-101376470D01*
X137916467Y-101376470D01*
X137916470Y-101376469D01*
X138063376Y-101362000D01*
X138161624Y-101362000D01*
X138308530Y-101376469D01*
X138308530Y-101376469D01*
G37*
G36*
X162180707Y-101192596D02*
X162257836Y-101200193D01*
X162373694Y-101235338D01*
X162455763Y-101260233D01*
X162638172Y-101357733D01*
X162798054Y-101488946D01*
X162929267Y-101648828D01*
X163026767Y-101831237D01*
X163044083Y-101888322D01*
X163086807Y-102029164D01*
X163107080Y-102235000D01*
X163086807Y-102440836D01*
X163060693Y-102526923D01*
X163026767Y-102638763D01*
X162929267Y-102821172D01*
X162798054Y-102981054D01*
X162638172Y-103112267D01*
X162455763Y-103209767D01*
X162389787Y-103229780D01*
X162257836Y-103269807D01*
X162180707Y-103277404D01*
X162103580Y-103285000D01*
X162000420Y-103285000D01*
X161923293Y-103277404D01*
X161846164Y-103269807D01*
X161714213Y-103229780D01*
X161648237Y-103209767D01*
X161465828Y-103112267D01*
X161305946Y-102981054D01*
X161174733Y-102821172D01*
X161077233Y-102638763D01*
X161043307Y-102526923D01*
X161017193Y-102440836D01*
X160996920Y-102235000D01*
X161017193Y-102029164D01*
X161059917Y-101888322D01*
X161077233Y-101831237D01*
X161174733Y-101648828D01*
X161305946Y-101488946D01*
X161465828Y-101357733D01*
X161648237Y-101260233D01*
X161730306Y-101235338D01*
X161846164Y-101200193D01*
X161923293Y-101192597D01*
X162000420Y-101185000D01*
X162103580Y-101185000D01*
X162180707Y-101192596D01*
X162180707Y-101192596D01*
G37*
G36*
X93253428Y-100416676D02*
X93362051Y-100449626D01*
X93470676Y-100482577D01*
X93638474Y-100572267D01*
X93670892Y-100589595D01*
X93729274Y-100637508D01*
X93846387Y-100733619D01*
X93990404Y-100909105D01*
X94097423Y-101109323D01*
X94105537Y-101136071D01*
X94163324Y-101326571D01*
X94168239Y-101376470D01*
X94180000Y-101495884D01*
X94180000Y-101704115D01*
X94175469Y-101750117D01*
X94163324Y-101873428D01*
X94158806Y-101888322D01*
X94097423Y-102090676D01*
X94002645Y-102267993D01*
X93990405Y-102290892D01*
X93975961Y-102308492D01*
X93846381Y-102466387D01*
X93670895Y-102610404D01*
X93470677Y-102717423D01*
X93374706Y-102746535D01*
X93253429Y-102783324D01*
X93027500Y-102805576D01*
X92801572Y-102783324D01*
X92680295Y-102746535D01*
X92584324Y-102717423D01*
X92384106Y-102610404D01*
X92208617Y-102466384D01*
X92064596Y-102290894D01*
X92064595Y-102290892D01*
X91962771Y-102100394D01*
X91957577Y-102090677D01*
X91899790Y-101900176D01*
X91891676Y-101873429D01*
X91881898Y-101774151D01*
X91877117Y-101750117D01*
X91867740Y-101727478D01*
X91854126Y-101707104D01*
X91836799Y-101689777D01*
X91816424Y-101676163D01*
X91793785Y-101666785D01*
X91769752Y-101662005D01*
X91745248Y-101662005D01*
X91721214Y-101666786D01*
X91698575Y-101676163D01*
X91678201Y-101689777D01*
X91660874Y-101707104D01*
X91647260Y-101727479D01*
X91637882Y-101750118D01*
X91633102Y-101774151D01*
X91623324Y-101873428D01*
X91618806Y-101888322D01*
X91557423Y-102090676D01*
X91462645Y-102267993D01*
X91450405Y-102290892D01*
X91435961Y-102308492D01*
X91306381Y-102466387D01*
X91130895Y-102610404D01*
X90930677Y-102717423D01*
X90834706Y-102746535D01*
X90713429Y-102783324D01*
X90487500Y-102805576D01*
X90261572Y-102783324D01*
X90140295Y-102746535D01*
X90044324Y-102717423D01*
X89844106Y-102610404D01*
X89668617Y-102466384D01*
X89524596Y-102290894D01*
X89524595Y-102290892D01*
X89422771Y-102100394D01*
X89417577Y-102090677D01*
X89359790Y-101900176D01*
X89351676Y-101873429D01*
X89349398Y-101850298D01*
X89344617Y-101826265D01*
X89335240Y-101803626D01*
X89321626Y-101783252D01*
X89304299Y-101765925D01*
X89283924Y-101752311D01*
X89261285Y-101742933D01*
X89237252Y-101738153D01*
X89212748Y-101738153D01*
X89188714Y-101742934D01*
X89166075Y-101752311D01*
X89145701Y-101765925D01*
X89128374Y-101783252D01*
X89114760Y-101803627D01*
X89105382Y-101826266D01*
X89100000Y-101862551D01*
X89100000Y-102800000D01*
X86795000Y-102800000D01*
X86795000Y-100400000D01*
X89100000Y-100400000D01*
X89100000Y-101337450D01*
X89102402Y-101361836D01*
X89109515Y-101385285D01*
X89121066Y-101406896D01*
X89136612Y-101425838D01*
X89155554Y-101441384D01*
X89177165Y-101452935D01*
X89200614Y-101460048D01*
X89225000Y-101462450D01*
X89249386Y-101460048D01*
X89272835Y-101452935D01*
X89294446Y-101441384D01*
X89313388Y-101425838D01*
X89328934Y-101406896D01*
X89340485Y-101385285D01*
X89349398Y-101349702D01*
X89351676Y-101326573D01*
X89351677Y-101326571D01*
X89402447Y-101159202D01*
X89417577Y-101109324D01*
X89524594Y-100909110D01*
X89524595Y-100909108D01*
X89573323Y-100849733D01*
X89668619Y-100733613D01*
X89844105Y-100589596D01*
X90044323Y-100482577D01*
X90152948Y-100449626D01*
X90261571Y-100416676D01*
X90487500Y-100394424D01*
X90713428Y-100416676D01*
X90822051Y-100449626D01*
X90930676Y-100482577D01*
X91098474Y-100572267D01*
X91130892Y-100589595D01*
X91189274Y-100637508D01*
X91306387Y-100733619D01*
X91450404Y-100909105D01*
X91557423Y-101109323D01*
X91565537Y-101136071D01*
X91623324Y-101326571D01*
X91628239Y-101376470D01*
X91633102Y-101425849D01*
X91637883Y-101449883D01*
X91647260Y-101472522D01*
X91660874Y-101492896D01*
X91678201Y-101510223D01*
X91698576Y-101523837D01*
X91721215Y-101533215D01*
X91745248Y-101537995D01*
X91769752Y-101537995D01*
X91793786Y-101533214D01*
X91816425Y-101523837D01*
X91836799Y-101510223D01*
X91854126Y-101492896D01*
X91867740Y-101472521D01*
X91877118Y-101449882D01*
X91881898Y-101425849D01*
X91891676Y-101326573D01*
X91891677Y-101326571D01*
X91942447Y-101159202D01*
X91957577Y-101109324D01*
X92064594Y-100909110D01*
X92064595Y-100909108D01*
X92113323Y-100849733D01*
X92208619Y-100733613D01*
X92384105Y-100589596D01*
X92584323Y-100482577D01*
X92692948Y-100449626D01*
X92801571Y-100416676D01*
X93027500Y-100394424D01*
X93253428Y-100416676D01*
X93253428Y-100416676D01*
G37*
G36*
X152147707Y-100684596D02*
X152224836Y-100692193D01*
X152311921Y-100718610D01*
X152422763Y-100752233D01*
X152605172Y-100849733D01*
X152765054Y-100980946D01*
X152896267Y-101140828D01*
X152993767Y-101323237D01*
X152998078Y-101337450D01*
X153053807Y-101521164D01*
X153074080Y-101727000D01*
X153053807Y-101932836D01*
X153013780Y-102064787D01*
X152993767Y-102130763D01*
X152896267Y-102313172D01*
X152765054Y-102473054D01*
X152605172Y-102604267D01*
X152422763Y-102701767D01*
X152371151Y-102717423D01*
X152224836Y-102761807D01*
X152147707Y-102769403D01*
X152070580Y-102777000D01*
X151967420Y-102777000D01*
X151890293Y-102769404D01*
X151813164Y-102761807D01*
X151666849Y-102717423D01*
X151615237Y-102701767D01*
X151432828Y-102604267D01*
X151272946Y-102473054D01*
X151141733Y-102313172D01*
X151044233Y-102130763D01*
X151024220Y-102064787D01*
X150984193Y-101932836D01*
X150963920Y-101727000D01*
X150984193Y-101521164D01*
X151039922Y-101337450D01*
X151044233Y-101323237D01*
X151141733Y-101140828D01*
X151272946Y-100980946D01*
X151432828Y-100849733D01*
X151615237Y-100752233D01*
X151726079Y-100718610D01*
X151813164Y-100692193D01*
X151890293Y-100684596D01*
X151967420Y-100677000D01*
X152070580Y-100677000D01*
X152147707Y-100684596D01*
X152147707Y-100684596D01*
G37*
G36*
X77060928Y-100226176D02*
X77169551Y-100259126D01*
X77278176Y-100292077D01*
X77455493Y-100386855D01*
X77478392Y-100399095D01*
X77499814Y-100416676D01*
X77653887Y-100543119D01*
X77797904Y-100718605D01*
X77904923Y-100918823D01*
X77937873Y-101027447D01*
X77970824Y-101136071D01*
X77971293Y-101140829D01*
X77987500Y-101305384D01*
X77987500Y-101513615D01*
X77983670Y-101552500D01*
X77970824Y-101682928D01*
X77954072Y-101738153D01*
X77904923Y-101900176D01*
X77854643Y-101994242D01*
X77797905Y-102100392D01*
X77797904Y-102100393D01*
X77653881Y-102275887D01*
X77478395Y-102419904D01*
X77278177Y-102526923D01*
X77193860Y-102552500D01*
X77060929Y-102592824D01*
X76835000Y-102615076D01*
X76609072Y-102592824D01*
X76476141Y-102552500D01*
X76391824Y-102526923D01*
X76191606Y-102419904D01*
X76016117Y-102275884D01*
X75872096Y-102100394D01*
X75872095Y-102100392D01*
X75773020Y-101915037D01*
X75765077Y-101900177D01*
X75709514Y-101717008D01*
X75699176Y-101682929D01*
X75689398Y-101583651D01*
X75684617Y-101559617D01*
X75675240Y-101536978D01*
X75661626Y-101516604D01*
X75644299Y-101499277D01*
X75623924Y-101485663D01*
X75601285Y-101476285D01*
X75577252Y-101471505D01*
X75552748Y-101471505D01*
X75528714Y-101476286D01*
X75506075Y-101485663D01*
X75485701Y-101499277D01*
X75468374Y-101516604D01*
X75454760Y-101536979D01*
X75445382Y-101559618D01*
X75440602Y-101583651D01*
X75430824Y-101682928D01*
X75414072Y-101738153D01*
X75364923Y-101900176D01*
X75314643Y-101994242D01*
X75257905Y-102100392D01*
X75257904Y-102100393D01*
X75113881Y-102275887D01*
X74938395Y-102419904D01*
X74738177Y-102526923D01*
X74653860Y-102552500D01*
X74520929Y-102592824D01*
X74295000Y-102615076D01*
X74069072Y-102592824D01*
X73936141Y-102552500D01*
X73851824Y-102526923D01*
X73651606Y-102419904D01*
X73476117Y-102275884D01*
X73332096Y-102100394D01*
X73332095Y-102100392D01*
X73233020Y-101915037D01*
X73225077Y-101900177D01*
X73169514Y-101717008D01*
X73159176Y-101682929D01*
X73156898Y-101659798D01*
X73152117Y-101635765D01*
X73142740Y-101613126D01*
X73129126Y-101592752D01*
X73111799Y-101575425D01*
X73091424Y-101561811D01*
X73068785Y-101552433D01*
X73044752Y-101547653D01*
X73020248Y-101547653D01*
X72996214Y-101552434D01*
X72973575Y-101561811D01*
X72953201Y-101575425D01*
X72935874Y-101592752D01*
X72922260Y-101613127D01*
X72912882Y-101635766D01*
X72907500Y-101672051D01*
X72907500Y-102609500D01*
X70602500Y-102609500D01*
X70602500Y-100209500D01*
X72907500Y-100209500D01*
X72907500Y-101146950D01*
X72909902Y-101171336D01*
X72917015Y-101194785D01*
X72928566Y-101216396D01*
X72944112Y-101235338D01*
X72963054Y-101250884D01*
X72984665Y-101262435D01*
X73008114Y-101269548D01*
X73032500Y-101271950D01*
X73056886Y-101269548D01*
X73080335Y-101262435D01*
X73101946Y-101250884D01*
X73120888Y-101235338D01*
X73136434Y-101216396D01*
X73147985Y-101194785D01*
X73156898Y-101159202D01*
X73158105Y-101146950D01*
X73159176Y-101136072D01*
X73225077Y-100918825D01*
X73225077Y-100918824D01*
X73332094Y-100718610D01*
X73332095Y-100718608D01*
X73398652Y-100637508D01*
X73476119Y-100543113D01*
X73651605Y-100399096D01*
X73851823Y-100292077D01*
X73960448Y-100259126D01*
X74069071Y-100226176D01*
X74295000Y-100203924D01*
X74520928Y-100226176D01*
X74629551Y-100259126D01*
X74738176Y-100292077D01*
X74915493Y-100386855D01*
X74938392Y-100399095D01*
X74959814Y-100416676D01*
X75113887Y-100543119D01*
X75257904Y-100718605D01*
X75364923Y-100918823D01*
X75397873Y-101027447D01*
X75430824Y-101136071D01*
X75431293Y-101140829D01*
X75440602Y-101235349D01*
X75445383Y-101259383D01*
X75454760Y-101282022D01*
X75468374Y-101302396D01*
X75485701Y-101319723D01*
X75506076Y-101333337D01*
X75528715Y-101342715D01*
X75552748Y-101347495D01*
X75577252Y-101347495D01*
X75601286Y-101342714D01*
X75623925Y-101333337D01*
X75644299Y-101319723D01*
X75661626Y-101302396D01*
X75675240Y-101282021D01*
X75684618Y-101259382D01*
X75689398Y-101235349D01*
X75698105Y-101146950D01*
X75699176Y-101136072D01*
X75765077Y-100918825D01*
X75765077Y-100918824D01*
X75872094Y-100718610D01*
X75872095Y-100718608D01*
X75938652Y-100637508D01*
X76016119Y-100543113D01*
X76191605Y-100399096D01*
X76391823Y-100292077D01*
X76500448Y-100259126D01*
X76609071Y-100226176D01*
X76835000Y-100203924D01*
X77060928Y-100226176D01*
X77060928Y-100226176D01*
G37*
G36*
X121544530Y-100487469D02*
X121544533Y-100487470D01*
X121544534Y-100487470D01*
X121733035Y-100544651D01*
X121733037Y-100544652D01*
X121906760Y-100637509D01*
X122059028Y-100762472D01*
X122183991Y-100914740D01*
X122183992Y-100914742D01*
X122276849Y-101088465D01*
X122326118Y-101250884D01*
X122334031Y-101276970D01*
X122353338Y-101473000D01*
X122334031Y-101669030D01*
X122334030Y-101669033D01*
X122334030Y-101669034D01*
X122286335Y-101826265D01*
X122276848Y-101857537D01*
X122183991Y-102031260D01*
X122059028Y-102183528D01*
X121906760Y-102308491D01*
X121906758Y-102308492D01*
X121733035Y-102401349D01*
X121544534Y-102458530D01*
X121544533Y-102458530D01*
X121544530Y-102458531D01*
X121397624Y-102473000D01*
X121299376Y-102473000D01*
X121152470Y-102458531D01*
X121152467Y-102458530D01*
X121152466Y-102458530D01*
X120963965Y-102401349D01*
X120790242Y-102308492D01*
X120790240Y-102308491D01*
X120637972Y-102183528D01*
X120513009Y-102031260D01*
X120420152Y-101857537D01*
X120410666Y-101826265D01*
X120362970Y-101669034D01*
X120362970Y-101669033D01*
X120362969Y-101669030D01*
X120343662Y-101473000D01*
X120362969Y-101276970D01*
X120370882Y-101250884D01*
X120420151Y-101088465D01*
X120513008Y-100914742D01*
X120513009Y-100914740D01*
X120637972Y-100762472D01*
X120790240Y-100637509D01*
X120963963Y-100544652D01*
X120963965Y-100544651D01*
X121152466Y-100487470D01*
X121152467Y-100487470D01*
X121152470Y-100487469D01*
X121299376Y-100473000D01*
X121397624Y-100473000D01*
X121544530Y-100487469D01*
X121544530Y-100487469D01*
G37*
G36*
X129164530Y-100487469D02*
X129164533Y-100487470D01*
X129164534Y-100487470D01*
X129353035Y-100544651D01*
X129353037Y-100544652D01*
X129526760Y-100637509D01*
X129679028Y-100762472D01*
X129803991Y-100914740D01*
X129803992Y-100914742D01*
X129896849Y-101088465D01*
X129946118Y-101250884D01*
X129954031Y-101276970D01*
X129973338Y-101473000D01*
X129954031Y-101669030D01*
X129954030Y-101669033D01*
X129954030Y-101669034D01*
X129906335Y-101826265D01*
X129896848Y-101857537D01*
X129803991Y-102031260D01*
X129679028Y-102183528D01*
X129526760Y-102308491D01*
X129526758Y-102308492D01*
X129353035Y-102401349D01*
X129164534Y-102458530D01*
X129164533Y-102458530D01*
X129164530Y-102458531D01*
X129017624Y-102473000D01*
X128919376Y-102473000D01*
X128772470Y-102458531D01*
X128772467Y-102458530D01*
X128772466Y-102458530D01*
X128583965Y-102401349D01*
X128410242Y-102308492D01*
X128410240Y-102308491D01*
X128257972Y-102183528D01*
X128133009Y-102031260D01*
X128040152Y-101857537D01*
X128030666Y-101826265D01*
X127982970Y-101669034D01*
X127982970Y-101669033D01*
X127982969Y-101669030D01*
X127963662Y-101473000D01*
X127982969Y-101276970D01*
X127990882Y-101250884D01*
X128040151Y-101088465D01*
X128133008Y-100914742D01*
X128133009Y-100914740D01*
X128257972Y-100762472D01*
X128410240Y-100637509D01*
X128583963Y-100544652D01*
X128583965Y-100544651D01*
X128772466Y-100487470D01*
X128772467Y-100487470D01*
X128772470Y-100487469D01*
X128919376Y-100473000D01*
X129017624Y-100473000D01*
X129164530Y-100487469D01*
X129164530Y-100487469D01*
G37*
G36*
X162180707Y-98652597D02*
X162257836Y-98660193D01*
X162389787Y-98700220D01*
X162455763Y-98720233D01*
X162638172Y-98817733D01*
X162798054Y-98948946D01*
X162929267Y-99108828D01*
X163026767Y-99291237D01*
X163034419Y-99316463D01*
X163086807Y-99489164D01*
X163107080Y-99695000D01*
X163086807Y-99900836D01*
X163046780Y-100032787D01*
X163026767Y-100098763D01*
X162929267Y-100281172D01*
X162798054Y-100441054D01*
X162638172Y-100572267D01*
X162455763Y-100669767D01*
X162389787Y-100689780D01*
X162257836Y-100729807D01*
X162180707Y-100737404D01*
X162103580Y-100745000D01*
X162000420Y-100745000D01*
X161923293Y-100737403D01*
X161846164Y-100729807D01*
X161714213Y-100689780D01*
X161648237Y-100669767D01*
X161465828Y-100572267D01*
X161305946Y-100441054D01*
X161174733Y-100281172D01*
X161077233Y-100098763D01*
X161057220Y-100032787D01*
X161017193Y-99900836D01*
X160996920Y-99695000D01*
X161017193Y-99489164D01*
X161069581Y-99316463D01*
X161077233Y-99291237D01*
X161174733Y-99108828D01*
X161305946Y-98948946D01*
X161465828Y-98817733D01*
X161648237Y-98720233D01*
X161714213Y-98700220D01*
X161846164Y-98660193D01*
X161923293Y-98652596D01*
X162000420Y-98645000D01*
X162103580Y-98645000D01*
X162180707Y-98652597D01*
X162180707Y-98652597D01*
G37*
G36*
X153069000Y-100237000D02*
X150969000Y-100237000D01*
X150969000Y-98137000D01*
X153069000Y-98137000D01*
X153069000Y-100237000D01*
X153069000Y-100237000D01*
G37*
G36*
X145781270Y-98028372D02*
X145897189Y-98051429D01*
X146079178Y-98126811D01*
X146242963Y-98236249D01*
X146382251Y-98375537D01*
X146491689Y-98539322D01*
X146567071Y-98721311D01*
X146578246Y-98777493D01*
X146605500Y-98914507D01*
X146605500Y-99111493D01*
X146595615Y-99161186D01*
X146567071Y-99304689D01*
X146491689Y-99486678D01*
X146382251Y-99650463D01*
X146242963Y-99789751D01*
X146079178Y-99899189D01*
X145897189Y-99974571D01*
X145781270Y-99997628D01*
X145703993Y-100013000D01*
X145507007Y-100013000D01*
X145429730Y-99997628D01*
X145313811Y-99974571D01*
X145131822Y-99899189D01*
X144968037Y-99789751D01*
X144828749Y-99650463D01*
X144719311Y-99486678D01*
X144643929Y-99304689D01*
X144615385Y-99161186D01*
X144605500Y-99111493D01*
X144605500Y-98914507D01*
X144632754Y-98777493D01*
X144643929Y-98721311D01*
X144719311Y-98539322D01*
X144828749Y-98375537D01*
X144968037Y-98236249D01*
X145131822Y-98126811D01*
X145313811Y-98051429D01*
X145429730Y-98028372D01*
X145507007Y-98013000D01*
X145703993Y-98013000D01*
X145781270Y-98028372D01*
X145781270Y-98028372D01*
G37*
G36*
X129164530Y-97947469D02*
X129164533Y-97947470D01*
X129164534Y-97947470D01*
X129353035Y-98004651D01*
X129353037Y-98004652D01*
X129526760Y-98097509D01*
X129679028Y-98222472D01*
X129803991Y-98374740D01*
X129891962Y-98539322D01*
X129896849Y-98548465D01*
X129936446Y-98679000D01*
X129954031Y-98736970D01*
X129973338Y-98933000D01*
X129954031Y-99129030D01*
X129954030Y-99129033D01*
X129954030Y-99129034D01*
X129900746Y-99304689D01*
X129896848Y-99317537D01*
X129803991Y-99491260D01*
X129679028Y-99643528D01*
X129526760Y-99768491D01*
X129526758Y-99768492D01*
X129353035Y-99861349D01*
X129164534Y-99918530D01*
X129164533Y-99918530D01*
X129164530Y-99918531D01*
X129017624Y-99933000D01*
X128919376Y-99933000D01*
X128772470Y-99918531D01*
X128772467Y-99918530D01*
X128772466Y-99918530D01*
X128583965Y-99861349D01*
X128410242Y-99768492D01*
X128410240Y-99768491D01*
X128257972Y-99643528D01*
X128133009Y-99491260D01*
X128040152Y-99317537D01*
X128036255Y-99304689D01*
X127982970Y-99129034D01*
X127982970Y-99129033D01*
X127982969Y-99129030D01*
X127963662Y-98933000D01*
X127982969Y-98736970D01*
X128000554Y-98679000D01*
X128040151Y-98548465D01*
X128045038Y-98539322D01*
X128133009Y-98374740D01*
X128257972Y-98222472D01*
X128410240Y-98097509D01*
X128583963Y-98004652D01*
X128583965Y-98004651D01*
X128772466Y-97947470D01*
X128772467Y-97947470D01*
X128772470Y-97947469D01*
X128919376Y-97933000D01*
X129017624Y-97933000D01*
X129164530Y-97947469D01*
X129164530Y-97947469D01*
G37*
G36*
X121544530Y-97947469D02*
X121544533Y-97947470D01*
X121544534Y-97947470D01*
X121733035Y-98004651D01*
X121733037Y-98004652D01*
X121906760Y-98097509D01*
X122059028Y-98222472D01*
X122183991Y-98374740D01*
X122271962Y-98539322D01*
X122276849Y-98548465D01*
X122316446Y-98679000D01*
X122334031Y-98736970D01*
X122353338Y-98933000D01*
X122334031Y-99129030D01*
X122334030Y-99129033D01*
X122334030Y-99129034D01*
X122280746Y-99304689D01*
X122276848Y-99317537D01*
X122183991Y-99491260D01*
X122059028Y-99643528D01*
X121906760Y-99768491D01*
X121906758Y-99768492D01*
X121733035Y-99861349D01*
X121544534Y-99918530D01*
X121544533Y-99918530D01*
X121544530Y-99918531D01*
X121397624Y-99933000D01*
X121299376Y-99933000D01*
X121152470Y-99918531D01*
X121152467Y-99918530D01*
X121152466Y-99918530D01*
X120963965Y-99861349D01*
X120790242Y-99768492D01*
X120790240Y-99768491D01*
X120637972Y-99643528D01*
X120513009Y-99491260D01*
X120420152Y-99317537D01*
X120416255Y-99304689D01*
X120362970Y-99129034D01*
X120362970Y-99129033D01*
X120362969Y-99129030D01*
X120343662Y-98933000D01*
X120362969Y-98736970D01*
X120380554Y-98679000D01*
X120420151Y-98548465D01*
X120425038Y-98539322D01*
X120513009Y-98374740D01*
X120637972Y-98222472D01*
X120790240Y-98097509D01*
X120963963Y-98004652D01*
X120963965Y-98004651D01*
X121152466Y-97947470D01*
X121152467Y-97947470D01*
X121152470Y-97947469D01*
X121299376Y-97933000D01*
X121397624Y-97933000D01*
X121544530Y-97947469D01*
X121544530Y-97947469D01*
G37*
G36*
X138308530Y-97883969D02*
X138308533Y-97883970D01*
X138308534Y-97883970D01*
X138497035Y-97941151D01*
X138497037Y-97941152D01*
X138670760Y-98034009D01*
X138823028Y-98158972D01*
X138947991Y-98311240D01*
X138988652Y-98387311D01*
X139040849Y-98484965D01*
X139098030Y-98673466D01*
X139098031Y-98673470D01*
X139117338Y-98869500D01*
X139098031Y-99065530D01*
X139098030Y-99065533D01*
X139098030Y-99065534D01*
X139045938Y-99237260D01*
X139040848Y-99254037D01*
X138947991Y-99427760D01*
X138823028Y-99580028D01*
X138670760Y-99704991D01*
X138670758Y-99704992D01*
X138497035Y-99797849D01*
X138308534Y-99855030D01*
X138308533Y-99855030D01*
X138308530Y-99855031D01*
X138161624Y-99869500D01*
X138063376Y-99869500D01*
X137916470Y-99855031D01*
X137916467Y-99855030D01*
X137916466Y-99855030D01*
X137727965Y-99797849D01*
X137554242Y-99704992D01*
X137554240Y-99704991D01*
X137401972Y-99580028D01*
X137277009Y-99427760D01*
X137184152Y-99254037D01*
X137179063Y-99237260D01*
X137126970Y-99065534D01*
X137126970Y-99065533D01*
X137126969Y-99065530D01*
X137107662Y-98869500D01*
X137126969Y-98673470D01*
X137126970Y-98673466D01*
X137184151Y-98484965D01*
X137236348Y-98387311D01*
X137277009Y-98311240D01*
X137401972Y-98158972D01*
X137554240Y-98034009D01*
X137727963Y-97941152D01*
X137727965Y-97941151D01*
X137916466Y-97883970D01*
X137916467Y-97883970D01*
X137916470Y-97883969D01*
X138063376Y-97869500D01*
X138161624Y-97869500D01*
X138308530Y-97883969D01*
X138308530Y-97883969D01*
G37*
G36*
X133208270Y-97884872D02*
X133324189Y-97907929D01*
X133506178Y-97983311D01*
X133669963Y-98092749D01*
X133809251Y-98232037D01*
X133918689Y-98395822D01*
X133994071Y-98577811D01*
X134014198Y-98679000D01*
X134032500Y-98771007D01*
X134032500Y-98967993D01*
X134017128Y-99045270D01*
X133994071Y-99161189D01*
X133918689Y-99343178D01*
X133809251Y-99506963D01*
X133669963Y-99646251D01*
X133506178Y-99755689D01*
X133324189Y-99831071D01*
X133208270Y-99854128D01*
X133130993Y-99869500D01*
X132934007Y-99869500D01*
X132856730Y-99854128D01*
X132740811Y-99831071D01*
X132558822Y-99755689D01*
X132395037Y-99646251D01*
X132255749Y-99506963D01*
X132146311Y-99343178D01*
X132070929Y-99161189D01*
X132047872Y-99045270D01*
X132032500Y-98967993D01*
X132032500Y-98771007D01*
X132050802Y-98679000D01*
X132070929Y-98577811D01*
X132146311Y-98395822D01*
X132255749Y-98232037D01*
X132395037Y-98092749D01*
X132558822Y-97983311D01*
X132740811Y-97907929D01*
X132856730Y-97884872D01*
X132934007Y-97869500D01*
X133130993Y-97869500D01*
X133208270Y-97884872D01*
X133208270Y-97884872D01*
G37*
G36*
X110114530Y-97693469D02*
X110114533Y-97693470D01*
X110114534Y-97693470D01*
X110303035Y-97750651D01*
X110303037Y-97750652D01*
X110476760Y-97843509D01*
X110629028Y-97968472D01*
X110753991Y-98120740D01*
X110815732Y-98236249D01*
X110846849Y-98294465D01*
X110871441Y-98375534D01*
X110904031Y-98482970D01*
X110923338Y-98679000D01*
X110904031Y-98875030D01*
X110846848Y-99063537D01*
X110753991Y-99237260D01*
X110629028Y-99389528D01*
X110476760Y-99514491D01*
X110476758Y-99514492D01*
X110303035Y-99607349D01*
X110114534Y-99664530D01*
X110114533Y-99664530D01*
X110114530Y-99664531D01*
X109967624Y-99679000D01*
X109869376Y-99679000D01*
X109722470Y-99664531D01*
X109722467Y-99664530D01*
X109722466Y-99664530D01*
X109533965Y-99607349D01*
X109360242Y-99514492D01*
X109360240Y-99514491D01*
X109207972Y-99389528D01*
X109083009Y-99237260D01*
X108990152Y-99063537D01*
X108932969Y-98875030D01*
X108913662Y-98679000D01*
X108932969Y-98482970D01*
X108965559Y-98375534D01*
X108990151Y-98294465D01*
X109021268Y-98236249D01*
X109083009Y-98120740D01*
X109207972Y-97968472D01*
X109360240Y-97843509D01*
X109533963Y-97750652D01*
X109533965Y-97750651D01*
X109722466Y-97693470D01*
X109722467Y-97693470D01*
X109722470Y-97693469D01*
X109869376Y-97679000D01*
X109967624Y-97679000D01*
X110114530Y-97693469D01*
X110114530Y-97693469D01*
G37*
G36*
X115174270Y-97694372D02*
X115290189Y-97717429D01*
X115472178Y-97792811D01*
X115635963Y-97902249D01*
X115775251Y-98041537D01*
X115884689Y-98205322D01*
X115960071Y-98387311D01*
X115979495Y-98484963D01*
X115998500Y-98580507D01*
X115998500Y-98777493D01*
X115983128Y-98854770D01*
X115960071Y-98970689D01*
X115884689Y-99152678D01*
X115775251Y-99316463D01*
X115635963Y-99455751D01*
X115472178Y-99565189D01*
X115290189Y-99640571D01*
X115174270Y-99663628D01*
X115096993Y-99679000D01*
X114900007Y-99679000D01*
X114822730Y-99663628D01*
X114706811Y-99640571D01*
X114524822Y-99565189D01*
X114361037Y-99455751D01*
X114221749Y-99316463D01*
X114112311Y-99152678D01*
X114036929Y-98970689D01*
X114013872Y-98854770D01*
X113998500Y-98777493D01*
X113998500Y-98580507D01*
X114017505Y-98484963D01*
X114036929Y-98387311D01*
X114112311Y-98205322D01*
X114221749Y-98041537D01*
X114361037Y-97902249D01*
X114524822Y-97792811D01*
X114706811Y-97717429D01*
X114822730Y-97694372D01*
X114900007Y-97679000D01*
X115096993Y-97679000D01*
X115174270Y-97694372D01*
X115174270Y-97694372D01*
G37*
G36*
X103031000Y-99475000D02*
X100931000Y-99475000D01*
X100931000Y-97375000D01*
X103031000Y-97375000D01*
X103031000Y-99475000D01*
X103031000Y-99475000D01*
G37*
G36*
X162180707Y-96112596D02*
X162257836Y-96120193D01*
X162389787Y-96160220D01*
X162455763Y-96180233D01*
X162638172Y-96277733D01*
X162798054Y-96408946D01*
X162929267Y-96568828D01*
X163026767Y-96751237D01*
X163026767Y-96751238D01*
X163086807Y-96949164D01*
X163107080Y-97155000D01*
X163086807Y-97360836D01*
X163081439Y-97378531D01*
X163026767Y-97558763D01*
X162929267Y-97741172D01*
X162798054Y-97901054D01*
X162638172Y-98032267D01*
X162455763Y-98129767D01*
X162389787Y-98149780D01*
X162257836Y-98189807D01*
X162180707Y-98197403D01*
X162103580Y-98205000D01*
X162000420Y-98205000D01*
X161923293Y-98197403D01*
X161846164Y-98189807D01*
X161714213Y-98149780D01*
X161648237Y-98129767D01*
X161465828Y-98032267D01*
X161305946Y-97901054D01*
X161174733Y-97741172D01*
X161077233Y-97558763D01*
X161022561Y-97378531D01*
X161017193Y-97360836D01*
X160996920Y-97155000D01*
X161017193Y-96949164D01*
X161077233Y-96751238D01*
X161077233Y-96751237D01*
X161174733Y-96568828D01*
X161305946Y-96408946D01*
X161465828Y-96277733D01*
X161648237Y-96180233D01*
X161714213Y-96160220D01*
X161846164Y-96120193D01*
X161923293Y-96112596D01*
X162000420Y-96105000D01*
X162103580Y-96105000D01*
X162180707Y-96112596D01*
X162180707Y-96112596D01*
G37*
G36*
X121544530Y-95407469D02*
X121544533Y-95407470D01*
X121544534Y-95407470D01*
X121733035Y-95464651D01*
X121733037Y-95464652D01*
X121906760Y-95557509D01*
X122059028Y-95682472D01*
X122183991Y-95834740D01*
X122276848Y-96008463D01*
X122334031Y-96196970D01*
X122353338Y-96393000D01*
X122334031Y-96589030D01*
X122276848Y-96777537D01*
X122183991Y-96951260D01*
X122059028Y-97103528D01*
X121906760Y-97228491D01*
X121906758Y-97228492D01*
X121733035Y-97321349D01*
X121544534Y-97378530D01*
X121544533Y-97378530D01*
X121544530Y-97378531D01*
X121397624Y-97393000D01*
X121299376Y-97393000D01*
X121152470Y-97378531D01*
X121152467Y-97378530D01*
X121152466Y-97378530D01*
X120963965Y-97321349D01*
X120790242Y-97228492D01*
X120790240Y-97228491D01*
X120637972Y-97103528D01*
X120513009Y-96951260D01*
X120420152Y-96777537D01*
X120362969Y-96589030D01*
X120343662Y-96393000D01*
X120362969Y-96196970D01*
X120420152Y-96008463D01*
X120513009Y-95834740D01*
X120637972Y-95682472D01*
X120790240Y-95557509D01*
X120963963Y-95464652D01*
X120963965Y-95464651D01*
X121152466Y-95407470D01*
X121152467Y-95407470D01*
X121152470Y-95407469D01*
X121299376Y-95393000D01*
X121397624Y-95393000D01*
X121544530Y-95407469D01*
X121544530Y-95407469D01*
G37*
G36*
X129164530Y-95407469D02*
X129164533Y-95407470D01*
X129164534Y-95407470D01*
X129353035Y-95464651D01*
X129353037Y-95464652D01*
X129526760Y-95557509D01*
X129679028Y-95682472D01*
X129803991Y-95834740D01*
X129896848Y-96008463D01*
X129954031Y-96196970D01*
X129973338Y-96393000D01*
X129954031Y-96589030D01*
X129896848Y-96777537D01*
X129803991Y-96951260D01*
X129679028Y-97103528D01*
X129526760Y-97228491D01*
X129526758Y-97228492D01*
X129353035Y-97321349D01*
X129164534Y-97378530D01*
X129164533Y-97378530D01*
X129164530Y-97378531D01*
X129017624Y-97393000D01*
X128919376Y-97393000D01*
X128772470Y-97378531D01*
X128772467Y-97378530D01*
X128772466Y-97378530D01*
X128583965Y-97321349D01*
X128410242Y-97228492D01*
X128410240Y-97228491D01*
X128257972Y-97103528D01*
X128133009Y-96951260D01*
X128040152Y-96777537D01*
X127982969Y-96589030D01*
X127963662Y-96393000D01*
X127982969Y-96196970D01*
X128040152Y-96008463D01*
X128133009Y-95834740D01*
X128257972Y-95682472D01*
X128410240Y-95557509D01*
X128583963Y-95464652D01*
X128583965Y-95464651D01*
X128772466Y-95407470D01*
X128772467Y-95407470D01*
X128772470Y-95407469D01*
X128919376Y-95393000D01*
X129017624Y-95393000D01*
X129164530Y-95407469D01*
X129164530Y-95407469D01*
G37*
G36*
X102109707Y-94842596D02*
X102186836Y-94850193D01*
X102318787Y-94890220D01*
X102384763Y-94910233D01*
X102567172Y-95007733D01*
X102727054Y-95138946D01*
X102858267Y-95298828D01*
X102955767Y-95481237D01*
X102955767Y-95481238D01*
X103015807Y-95679164D01*
X103036080Y-95885000D01*
X103015807Y-96090836D01*
X102998445Y-96148071D01*
X102955767Y-96288763D01*
X102858267Y-96471172D01*
X102727054Y-96631054D01*
X102567172Y-96762267D01*
X102384763Y-96859767D01*
X102318787Y-96879780D01*
X102186836Y-96919807D01*
X102109707Y-96927404D01*
X102032580Y-96935000D01*
X101929420Y-96935000D01*
X101852293Y-96927403D01*
X101775164Y-96919807D01*
X101643213Y-96879780D01*
X101577237Y-96859767D01*
X101394828Y-96762267D01*
X101234946Y-96631054D01*
X101103733Y-96471172D01*
X101006233Y-96288763D01*
X100963555Y-96148071D01*
X100946193Y-96090836D01*
X100925920Y-95885000D01*
X100946193Y-95679164D01*
X101006233Y-95481238D01*
X101006233Y-95481237D01*
X101103733Y-95298828D01*
X101234946Y-95138946D01*
X101394828Y-95007733D01*
X101577237Y-94910233D01*
X101643213Y-94890220D01*
X101775164Y-94850193D01*
X101852293Y-94842596D01*
X101929420Y-94835000D01*
X102032580Y-94835000D01*
X102109707Y-94842596D01*
X102109707Y-94842596D01*
G37*
G36*
X145908270Y-94201872D02*
X146024189Y-94224929D01*
X146206178Y-94300311D01*
X146369963Y-94409749D01*
X146509251Y-94549037D01*
X146618689Y-94712822D01*
X146694071Y-94894811D01*
X146708528Y-94967491D01*
X146732500Y-95088007D01*
X146732500Y-95284993D01*
X146717370Y-95361054D01*
X146694071Y-95478189D01*
X146618689Y-95660178D01*
X146509251Y-95823963D01*
X146369963Y-95963251D01*
X146206178Y-96072689D01*
X146024189Y-96148071D01*
X145908270Y-96171128D01*
X145830993Y-96186500D01*
X145634007Y-96186500D01*
X145556730Y-96171128D01*
X145440811Y-96148071D01*
X145258822Y-96072689D01*
X145095037Y-95963251D01*
X144955749Y-95823963D01*
X144846311Y-95660178D01*
X144770929Y-95478189D01*
X144747630Y-95361054D01*
X144732500Y-95284993D01*
X144732500Y-95088007D01*
X144756472Y-94967491D01*
X144770929Y-94894811D01*
X144846311Y-94712822D01*
X144955749Y-94549037D01*
X145095037Y-94409749D01*
X145258822Y-94300311D01*
X145440811Y-94224929D01*
X145556730Y-94201872D01*
X145634007Y-94186500D01*
X145830993Y-94186500D01*
X145908270Y-94201872D01*
X145908270Y-94201872D01*
G37*
G36*
X133208270Y-94011372D02*
X133324189Y-94034429D01*
X133506178Y-94109811D01*
X133669963Y-94219249D01*
X133809251Y-94358537D01*
X133918689Y-94522322D01*
X133994071Y-94704311D01*
X134017128Y-94820230D01*
X134032500Y-94897507D01*
X134032500Y-95094493D01*
X134019333Y-95160686D01*
X133994071Y-95287689D01*
X133918689Y-95469678D01*
X133809251Y-95633463D01*
X133669963Y-95772751D01*
X133506178Y-95882189D01*
X133324189Y-95957571D01*
X133208270Y-95980628D01*
X133130993Y-95996000D01*
X132934007Y-95996000D01*
X132856730Y-95980628D01*
X132740811Y-95957571D01*
X132558822Y-95882189D01*
X132395037Y-95772751D01*
X132255749Y-95633463D01*
X132146311Y-95469678D01*
X132070929Y-95287689D01*
X132045667Y-95160686D01*
X132032500Y-95094493D01*
X132032500Y-94897507D01*
X132047872Y-94820230D01*
X132070929Y-94704311D01*
X132146311Y-94522322D01*
X132255749Y-94358537D01*
X132395037Y-94219249D01*
X132558822Y-94109811D01*
X132740811Y-94034429D01*
X132856730Y-94011372D01*
X132934007Y-93996000D01*
X133130993Y-93996000D01*
X133208270Y-94011372D01*
X133208270Y-94011372D01*
G37*
G36*
X138308530Y-94010469D02*
X138308533Y-94010470D01*
X138308534Y-94010470D01*
X138497035Y-94067651D01*
X138497037Y-94067652D01*
X138670760Y-94160509D01*
X138823028Y-94285472D01*
X138947991Y-94437740D01*
X139015226Y-94563528D01*
X139040849Y-94611465D01*
X139098030Y-94799966D01*
X139098031Y-94799970D01*
X139117338Y-94996000D01*
X139098031Y-95192030D01*
X139098030Y-95192033D01*
X139098030Y-95192034D01*
X139052333Y-95342678D01*
X139040848Y-95380537D01*
X138947991Y-95554260D01*
X138823028Y-95706528D01*
X138670760Y-95831491D01*
X138664678Y-95834742D01*
X138497035Y-95924349D01*
X138308534Y-95981530D01*
X138308533Y-95981530D01*
X138308530Y-95981531D01*
X138161624Y-95996000D01*
X138063376Y-95996000D01*
X137916470Y-95981531D01*
X137916467Y-95981530D01*
X137916466Y-95981530D01*
X137727965Y-95924349D01*
X137560322Y-95834742D01*
X137554240Y-95831491D01*
X137401972Y-95706528D01*
X137277009Y-95554260D01*
X137184152Y-95380537D01*
X137172668Y-95342678D01*
X137126970Y-95192034D01*
X137126970Y-95192033D01*
X137126969Y-95192030D01*
X137107662Y-94996000D01*
X137126969Y-94799970D01*
X137126970Y-94799966D01*
X137184151Y-94611465D01*
X137209774Y-94563528D01*
X137277009Y-94437740D01*
X137401972Y-94285472D01*
X137554240Y-94160509D01*
X137727963Y-94067652D01*
X137727965Y-94067651D01*
X137916466Y-94010470D01*
X137916467Y-94010470D01*
X137916470Y-94010469D01*
X138063376Y-93996000D01*
X138161624Y-93996000D01*
X138308530Y-94010469D01*
X138308530Y-94010469D01*
G37*
G36*
X115602270Y-93884372D02*
X115718189Y-93907429D01*
X115900178Y-93982811D01*
X116063963Y-94092249D01*
X116203251Y-94231537D01*
X116312689Y-94395322D01*
X116388071Y-94577311D01*
X116410186Y-94688491D01*
X116426500Y-94770507D01*
X116426500Y-94967493D01*
X116411128Y-95044770D01*
X116388071Y-95160689D01*
X116312689Y-95342678D01*
X116203251Y-95506463D01*
X116063963Y-95645751D01*
X115900178Y-95755189D01*
X115718189Y-95830571D01*
X115602270Y-95853628D01*
X115524993Y-95869000D01*
X115328007Y-95869000D01*
X115250730Y-95853628D01*
X115134811Y-95830571D01*
X114952822Y-95755189D01*
X114789037Y-95645751D01*
X114649749Y-95506463D01*
X114540311Y-95342678D01*
X114464929Y-95160689D01*
X114441872Y-95044770D01*
X114426500Y-94967493D01*
X114426500Y-94770507D01*
X114442814Y-94688491D01*
X114464929Y-94577311D01*
X114540311Y-94395322D01*
X114649749Y-94231537D01*
X114789037Y-94092249D01*
X114952822Y-93982811D01*
X115134811Y-93907429D01*
X115250730Y-93884372D01*
X115328007Y-93869000D01*
X115524993Y-93869000D01*
X115602270Y-93884372D01*
X115602270Y-93884372D01*
G37*
G36*
X110602270Y-93884372D02*
X110718189Y-93907429D01*
X110900178Y-93982811D01*
X111063963Y-94092249D01*
X111203251Y-94231537D01*
X111312689Y-94395322D01*
X111388071Y-94577311D01*
X111410186Y-94688491D01*
X111426500Y-94770507D01*
X111426500Y-94967493D01*
X111411128Y-95044770D01*
X111388071Y-95160689D01*
X111312689Y-95342678D01*
X111203251Y-95506463D01*
X111063963Y-95645751D01*
X110900178Y-95755189D01*
X110718189Y-95830571D01*
X110602270Y-95853628D01*
X110524993Y-95869000D01*
X110328007Y-95869000D01*
X110250730Y-95853628D01*
X110134811Y-95830571D01*
X109952822Y-95755189D01*
X109789037Y-95645751D01*
X109649749Y-95506463D01*
X109540311Y-95342678D01*
X109464929Y-95160689D01*
X109441872Y-95044770D01*
X109426500Y-94967493D01*
X109426500Y-94770507D01*
X109442814Y-94688491D01*
X109464929Y-94577311D01*
X109540311Y-94395322D01*
X109649749Y-94231537D01*
X109789037Y-94092249D01*
X109952822Y-93982811D01*
X110134811Y-93907429D01*
X110250730Y-93884372D01*
X110328007Y-93869000D01*
X110524993Y-93869000D01*
X110602270Y-93884372D01*
X110602270Y-93884372D01*
G37*
G36*
X162180707Y-93572597D02*
X162257836Y-93580193D01*
X162389787Y-93620220D01*
X162455763Y-93640233D01*
X162638172Y-93737733D01*
X162798054Y-93868946D01*
X162929267Y-94028828D01*
X163026767Y-94211237D01*
X163030920Y-94224929D01*
X163086807Y-94409164D01*
X163107080Y-94615000D01*
X163086807Y-94820836D01*
X163059689Y-94910233D01*
X163026767Y-95018763D01*
X162929267Y-95201172D01*
X162798054Y-95361054D01*
X162638172Y-95492267D01*
X162455763Y-95589767D01*
X162389787Y-95609780D01*
X162257836Y-95649807D01*
X162180707Y-95657404D01*
X162103580Y-95665000D01*
X162000420Y-95665000D01*
X161923293Y-95657403D01*
X161846164Y-95649807D01*
X161714213Y-95609780D01*
X161648237Y-95589767D01*
X161465828Y-95492267D01*
X161305946Y-95361054D01*
X161174733Y-95201172D01*
X161077233Y-95018763D01*
X161044311Y-94910233D01*
X161017193Y-94820836D01*
X160996920Y-94615000D01*
X161017193Y-94409164D01*
X161073080Y-94224929D01*
X161077233Y-94211237D01*
X161174733Y-94028828D01*
X161305946Y-93868946D01*
X161465828Y-93737733D01*
X161648237Y-93640233D01*
X161714213Y-93620220D01*
X161846164Y-93580193D01*
X161923293Y-93572597D01*
X162000420Y-93565000D01*
X162103580Y-93565000D01*
X162180707Y-93572597D01*
X162180707Y-93572597D01*
G37*
G36*
X129164530Y-92867469D02*
X129164533Y-92867470D01*
X129164534Y-92867470D01*
X129353035Y-92924651D01*
X129353037Y-92924652D01*
X129526760Y-93017509D01*
X129679028Y-93142472D01*
X129803991Y-93294740D01*
X129896848Y-93468463D01*
X129954031Y-93656970D01*
X129973338Y-93853000D01*
X129954031Y-94049030D01*
X129954030Y-94049033D01*
X129954030Y-94049034D01*
X129902395Y-94219253D01*
X129896848Y-94237537D01*
X129803991Y-94411260D01*
X129679028Y-94563528D01*
X129526760Y-94688491D01*
X129526758Y-94688492D01*
X129353035Y-94781349D01*
X129164534Y-94838530D01*
X129164533Y-94838530D01*
X129164530Y-94838531D01*
X129017624Y-94853000D01*
X128919376Y-94853000D01*
X128772470Y-94838531D01*
X128772467Y-94838530D01*
X128772466Y-94838530D01*
X128583965Y-94781349D01*
X128410242Y-94688492D01*
X128410240Y-94688491D01*
X128257972Y-94563528D01*
X128133009Y-94411260D01*
X128040152Y-94237537D01*
X128034606Y-94219253D01*
X127982970Y-94049034D01*
X127982970Y-94049033D01*
X127982969Y-94049030D01*
X127963662Y-93853000D01*
X127982969Y-93656970D01*
X128040152Y-93468463D01*
X128133009Y-93294740D01*
X128257972Y-93142472D01*
X128410240Y-93017509D01*
X128583963Y-92924652D01*
X128583965Y-92924651D01*
X128772466Y-92867470D01*
X128772467Y-92867470D01*
X128772470Y-92867469D01*
X128919376Y-92853000D01*
X129017624Y-92853000D01*
X129164530Y-92867469D01*
X129164530Y-92867469D01*
G37*
G36*
X122348500Y-94853000D02*
X120348500Y-94853000D01*
X120348500Y-92853000D01*
X122348500Y-92853000D01*
X122348500Y-94853000D01*
X122348500Y-94853000D01*
G37*
G36*
X162180707Y-91032596D02*
X162257836Y-91040193D01*
X162389787Y-91080220D01*
X162455763Y-91100233D01*
X162638172Y-91197733D01*
X162798054Y-91328946D01*
X162929267Y-91488828D01*
X163026767Y-91671237D01*
X163026767Y-91671238D01*
X163086807Y-91869164D01*
X163107080Y-92075000D01*
X163086807Y-92280836D01*
X163067723Y-92343747D01*
X163026767Y-92478763D01*
X162929267Y-92661172D01*
X162798054Y-92821054D01*
X162638172Y-92952267D01*
X162455763Y-93049767D01*
X162389787Y-93069780D01*
X162257836Y-93109807D01*
X162180707Y-93117404D01*
X162103580Y-93125000D01*
X162000420Y-93125000D01*
X161923293Y-93117403D01*
X161846164Y-93109807D01*
X161714213Y-93069780D01*
X161648237Y-93049767D01*
X161465828Y-92952267D01*
X161305946Y-92821054D01*
X161174733Y-92661172D01*
X161077233Y-92478763D01*
X161036277Y-92343747D01*
X161017193Y-92280836D01*
X160996920Y-92075000D01*
X161017193Y-91869164D01*
X161077233Y-91671238D01*
X161077233Y-91671237D01*
X161174733Y-91488828D01*
X161305946Y-91328946D01*
X161465828Y-91197733D01*
X161648237Y-91100233D01*
X161714213Y-91080220D01*
X161846164Y-91040193D01*
X161923293Y-91032596D01*
X162000420Y-91025000D01*
X162103580Y-91025000D01*
X162180707Y-91032596D01*
X162180707Y-91032596D01*
G37*
G36*
X133208270Y-90582372D02*
X133324189Y-90605429D01*
X133506178Y-90680811D01*
X133669963Y-90790249D01*
X133809251Y-90929537D01*
X133918689Y-91093322D01*
X133994071Y-91275311D01*
X134017128Y-91391230D01*
X134029748Y-91454671D01*
X134032500Y-91468509D01*
X134032500Y-91665491D01*
X133994071Y-91858689D01*
X133918689Y-92040678D01*
X133809251Y-92204463D01*
X133669963Y-92343751D01*
X133506178Y-92453189D01*
X133324189Y-92528571D01*
X133208270Y-92551628D01*
X133130993Y-92567000D01*
X132934007Y-92567000D01*
X132856730Y-92551628D01*
X132740811Y-92528571D01*
X132558822Y-92453189D01*
X132395037Y-92343751D01*
X132255749Y-92204463D01*
X132146311Y-92040678D01*
X132070929Y-91858689D01*
X132032500Y-91665491D01*
X132032500Y-91468509D01*
X132035253Y-91454671D01*
X132047872Y-91391230D01*
X132070929Y-91275311D01*
X132146311Y-91093322D01*
X132255749Y-90929537D01*
X132395037Y-90790249D01*
X132558822Y-90680811D01*
X132740811Y-90605429D01*
X132856730Y-90582372D01*
X132934007Y-90567000D01*
X133130993Y-90567000D01*
X133208270Y-90582372D01*
X133208270Y-90582372D01*
G37*
G36*
X138308530Y-90581469D02*
X138308533Y-90581470D01*
X138308534Y-90581470D01*
X138497035Y-90638651D01*
X138497037Y-90638652D01*
X138670760Y-90731509D01*
X138823028Y-90856472D01*
X138947991Y-91008740D01*
X139035662Y-91172760D01*
X139040849Y-91182465D01*
X139068089Y-91272263D01*
X139098031Y-91370970D01*
X139117338Y-91567000D01*
X139098031Y-91763030D01*
X139098030Y-91763033D01*
X139098030Y-91763034D01*
X139055479Y-91903307D01*
X139040848Y-91951537D01*
X138947991Y-92125260D01*
X138823028Y-92277528D01*
X138670760Y-92402491D01*
X138670758Y-92402492D01*
X138497035Y-92495349D01*
X138308534Y-92552530D01*
X138308533Y-92552530D01*
X138308530Y-92552531D01*
X138161624Y-92567000D01*
X138063376Y-92567000D01*
X137916470Y-92552531D01*
X137916467Y-92552530D01*
X137916466Y-92552530D01*
X137727965Y-92495349D01*
X137554242Y-92402492D01*
X137554240Y-92402491D01*
X137401972Y-92277528D01*
X137277009Y-92125260D01*
X137184152Y-91951537D01*
X137169522Y-91903307D01*
X137126970Y-91763034D01*
X137126970Y-91763033D01*
X137126969Y-91763030D01*
X137107662Y-91567000D01*
X137126969Y-91370970D01*
X137156911Y-91272263D01*
X137184151Y-91182465D01*
X137189338Y-91172760D01*
X137277009Y-91008740D01*
X137401972Y-90856472D01*
X137554240Y-90731509D01*
X137727963Y-90638652D01*
X137727965Y-90638651D01*
X137916466Y-90581470D01*
X137916467Y-90581470D01*
X137916470Y-90581469D01*
X138063376Y-90567000D01*
X138161624Y-90567000D01*
X138308530Y-90581469D01*
X138308530Y-90581469D01*
G37*
G36*
X152211207Y-89826096D02*
X152288336Y-89833693D01*
X152420287Y-89873720D01*
X152486263Y-89893733D01*
X152668672Y-89991233D01*
X152828554Y-90122446D01*
X152959767Y-90282328D01*
X153057267Y-90464737D01*
X153072819Y-90516007D01*
X153117307Y-90662664D01*
X153137580Y-90868500D01*
X153117307Y-91074336D01*
X153079875Y-91197733D01*
X153057267Y-91272263D01*
X152959767Y-91454672D01*
X152828554Y-91614554D01*
X152668672Y-91745767D01*
X152486263Y-91843267D01*
X152420287Y-91863280D01*
X152288336Y-91903307D01*
X152211207Y-91910903D01*
X152134080Y-91918500D01*
X152030920Y-91918500D01*
X151953793Y-91910903D01*
X151876664Y-91903307D01*
X151744713Y-91863280D01*
X151678737Y-91843267D01*
X151496328Y-91745767D01*
X151336446Y-91614554D01*
X151205233Y-91454672D01*
X151107733Y-91272263D01*
X151085125Y-91197733D01*
X151047693Y-91074336D01*
X151027420Y-90868500D01*
X151047693Y-90662664D01*
X151092181Y-90516007D01*
X151107733Y-90464737D01*
X151205233Y-90282328D01*
X151336446Y-90122446D01*
X151496328Y-89991233D01*
X151678737Y-89893733D01*
X151744713Y-89873720D01*
X151876664Y-89833693D01*
X151953793Y-89826096D01*
X152030920Y-89818500D01*
X152134080Y-89818500D01*
X152211207Y-89826096D01*
X152211207Y-89826096D01*
G37*
G36*
X110538770Y-89629872D02*
X110654689Y-89652929D01*
X110836678Y-89728311D01*
X111000463Y-89837749D01*
X111139751Y-89977037D01*
X111249189Y-90140822D01*
X111324571Y-90322811D01*
X111347628Y-90438730D01*
X111352802Y-90464737D01*
X111363000Y-90516009D01*
X111363000Y-90712991D01*
X111324571Y-90906189D01*
X111249189Y-91088178D01*
X111139751Y-91251963D01*
X111000463Y-91391251D01*
X110836678Y-91500689D01*
X110654689Y-91576071D01*
X110538770Y-91599128D01*
X110461493Y-91614500D01*
X110264507Y-91614500D01*
X110187230Y-91599128D01*
X110071311Y-91576071D01*
X109889322Y-91500689D01*
X109725537Y-91391251D01*
X109586249Y-91251963D01*
X109476811Y-91088178D01*
X109401429Y-90906189D01*
X109363000Y-90712991D01*
X109363000Y-90516009D01*
X109373199Y-90464737D01*
X109378372Y-90438730D01*
X109401429Y-90322811D01*
X109476811Y-90140822D01*
X109586249Y-89977037D01*
X109725537Y-89837749D01*
X109889322Y-89728311D01*
X110071311Y-89652929D01*
X110187230Y-89629872D01*
X110264507Y-89614500D01*
X110461493Y-89614500D01*
X110538770Y-89629872D01*
X110538770Y-89629872D01*
G37*
G36*
X115639030Y-89628969D02*
X115639033Y-89628970D01*
X115639034Y-89628970D01*
X115827535Y-89686151D01*
X115827537Y-89686152D01*
X116001260Y-89779009D01*
X116153528Y-89903972D01*
X116278491Y-90056240D01*
X116278492Y-90056242D01*
X116371349Y-90229965D01*
X116399513Y-90322811D01*
X116428531Y-90418470D01*
X116447838Y-90614500D01*
X116428531Y-90810530D01*
X116371348Y-90999037D01*
X116278491Y-91172760D01*
X116153528Y-91325028D01*
X116001260Y-91449991D01*
X116001258Y-91449992D01*
X115827535Y-91542849D01*
X115639034Y-91600030D01*
X115639033Y-91600030D01*
X115639030Y-91600031D01*
X115492124Y-91614500D01*
X115393876Y-91614500D01*
X115246970Y-91600031D01*
X115246967Y-91600030D01*
X115246966Y-91600030D01*
X115058465Y-91542849D01*
X114884742Y-91449992D01*
X114884740Y-91449991D01*
X114732472Y-91325028D01*
X114607509Y-91172760D01*
X114514652Y-90999037D01*
X114457469Y-90810530D01*
X114438162Y-90614500D01*
X114457469Y-90418470D01*
X114486487Y-90322811D01*
X114514651Y-90229965D01*
X114607508Y-90056242D01*
X114607509Y-90056240D01*
X114732472Y-89903972D01*
X114884740Y-89779009D01*
X115058463Y-89686152D01*
X115058465Y-89686151D01*
X115246966Y-89628970D01*
X115246967Y-89628970D01*
X115246970Y-89628969D01*
X115393876Y-89614500D01*
X115492124Y-89614500D01*
X115639030Y-89628969D01*
X115639030Y-89628969D01*
G37*
G36*
X145908270Y-89201872D02*
X146024189Y-89224929D01*
X146206178Y-89300311D01*
X146369963Y-89409749D01*
X146509251Y-89549037D01*
X146618689Y-89712822D01*
X146694071Y-89894811D01*
X146732500Y-90088009D01*
X146732500Y-90284991D01*
X146694071Y-90478189D01*
X146618689Y-90660178D01*
X146509251Y-90823963D01*
X146369963Y-90963251D01*
X146206178Y-91072689D01*
X146024189Y-91148071D01*
X145908270Y-91171128D01*
X145830993Y-91186500D01*
X145634007Y-91186500D01*
X145556730Y-91171128D01*
X145440811Y-91148071D01*
X145258822Y-91072689D01*
X145095037Y-90963251D01*
X144955749Y-90823963D01*
X144846311Y-90660178D01*
X144770929Y-90478189D01*
X144732500Y-90284991D01*
X144732500Y-90088009D01*
X144770929Y-89894811D01*
X144846311Y-89712822D01*
X144955749Y-89549037D01*
X145095037Y-89409749D01*
X145258822Y-89300311D01*
X145440811Y-89224929D01*
X145556730Y-89201872D01*
X145634007Y-89186500D01*
X145830993Y-89186500D01*
X145908270Y-89201872D01*
X145908270Y-89201872D01*
G37*
G36*
X153132500Y-89378500D02*
X151032500Y-89378500D01*
X151032500Y-87278500D01*
X153132500Y-87278500D01*
X153132500Y-89378500D01*
X153132500Y-89378500D01*
G37*
G36*
X137838270Y-86835872D02*
X137954189Y-86858929D01*
X138136178Y-86934311D01*
X138299963Y-87043749D01*
X138439251Y-87183037D01*
X138548689Y-87346822D01*
X138624071Y-87528811D01*
X138647128Y-87644730D01*
X138662500Y-87722007D01*
X138662500Y-87918993D01*
X138647128Y-87996270D01*
X138624071Y-88112189D01*
X138548689Y-88294178D01*
X138439251Y-88457963D01*
X138299963Y-88597251D01*
X138136178Y-88706689D01*
X137954189Y-88782071D01*
X137838270Y-88805128D01*
X137760993Y-88820500D01*
X137564007Y-88820500D01*
X137486730Y-88805128D01*
X137370811Y-88782071D01*
X137188822Y-88706689D01*
X137025037Y-88597251D01*
X136885749Y-88457963D01*
X136776311Y-88294178D01*
X136700929Y-88112189D01*
X136677872Y-87996270D01*
X136662500Y-87918993D01*
X136662500Y-87722007D01*
X136677872Y-87644730D01*
X136700929Y-87528811D01*
X136776311Y-87346822D01*
X136885749Y-87183037D01*
X137025037Y-87043749D01*
X137188822Y-86934311D01*
X137370811Y-86858929D01*
X137486730Y-86835872D01*
X137564007Y-86820500D01*
X137760993Y-86820500D01*
X137838270Y-86835872D01*
X137838270Y-86835872D01*
G37*
G36*
X132778530Y-86834969D02*
X132778533Y-86834970D01*
X132778534Y-86834970D01*
X132967035Y-86892151D01*
X132967037Y-86892152D01*
X133140760Y-86985009D01*
X133293028Y-87109972D01*
X133417991Y-87262240D01*
X133417992Y-87262242D01*
X133510849Y-87435965D01*
X133568030Y-87624466D01*
X133568031Y-87624470D01*
X133587338Y-87820500D01*
X133568031Y-88016530D01*
X133510848Y-88205037D01*
X133417991Y-88378760D01*
X133293028Y-88531028D01*
X133140760Y-88655991D01*
X133140758Y-88655992D01*
X132967035Y-88748849D01*
X132778534Y-88806030D01*
X132778533Y-88806030D01*
X132778530Y-88806031D01*
X132631624Y-88820500D01*
X132533376Y-88820500D01*
X132386470Y-88806031D01*
X132386467Y-88806030D01*
X132386466Y-88806030D01*
X132197965Y-88748849D01*
X132024242Y-88655992D01*
X132024240Y-88655991D01*
X131871972Y-88531028D01*
X131747009Y-88378760D01*
X131654152Y-88205037D01*
X131596969Y-88016530D01*
X131577662Y-87820500D01*
X131596969Y-87624470D01*
X131596970Y-87624466D01*
X131654151Y-87435965D01*
X131747008Y-87262242D01*
X131747009Y-87262240D01*
X131871972Y-87109972D01*
X132024240Y-86985009D01*
X132197963Y-86892152D01*
X132197965Y-86892151D01*
X132386466Y-86834970D01*
X132386467Y-86834970D01*
X132386470Y-86834969D01*
X132533376Y-86820500D01*
X132631624Y-86820500D01*
X132778530Y-86834969D01*
X132778530Y-86834969D01*
G37*
G36*
X127620270Y-86645372D02*
X127736189Y-86668429D01*
X127918178Y-86743811D01*
X128081963Y-86853249D01*
X128221251Y-86992537D01*
X128330689Y-87156322D01*
X128406071Y-87338311D01*
X128415555Y-87385991D01*
X128443964Y-87528811D01*
X128444500Y-87531509D01*
X128444500Y-87728491D01*
X128406071Y-87921689D01*
X128330689Y-88103678D01*
X128221251Y-88267463D01*
X128081963Y-88406751D01*
X127918178Y-88516189D01*
X127736189Y-88591571D01*
X127620270Y-88614628D01*
X127542993Y-88630000D01*
X127346007Y-88630000D01*
X127268730Y-88614628D01*
X127152811Y-88591571D01*
X126970822Y-88516189D01*
X126807037Y-88406751D01*
X126667749Y-88267463D01*
X126558311Y-88103678D01*
X126482929Y-87921689D01*
X126444500Y-87728491D01*
X126444500Y-87531509D01*
X126445037Y-87528811D01*
X126473445Y-87385991D01*
X126482929Y-87338311D01*
X126558311Y-87156322D01*
X126667749Y-86992537D01*
X126807037Y-86853249D01*
X126970822Y-86743811D01*
X127152811Y-86668429D01*
X127268730Y-86645372D01*
X127346007Y-86630000D01*
X127542993Y-86630000D01*
X127620270Y-86645372D01*
X127620270Y-86645372D01*
G37*
G36*
X122620270Y-86645372D02*
X122736189Y-86668429D01*
X122918178Y-86743811D01*
X123081963Y-86853249D01*
X123221251Y-86992537D01*
X123330689Y-87156322D01*
X123406071Y-87338311D01*
X123415555Y-87385991D01*
X123443964Y-87528811D01*
X123444500Y-87531509D01*
X123444500Y-87728491D01*
X123406071Y-87921689D01*
X123330689Y-88103678D01*
X123221251Y-88267463D01*
X123081963Y-88406751D01*
X122918178Y-88516189D01*
X122736189Y-88591571D01*
X122620270Y-88614628D01*
X122542993Y-88630000D01*
X122346007Y-88630000D01*
X122268730Y-88614628D01*
X122152811Y-88591571D01*
X121970822Y-88516189D01*
X121807037Y-88406751D01*
X121667749Y-88267463D01*
X121558311Y-88103678D01*
X121482929Y-87921689D01*
X121444500Y-87728491D01*
X121444500Y-87531509D01*
X121445037Y-87528811D01*
X121473445Y-87385991D01*
X121482929Y-87338311D01*
X121558311Y-87156322D01*
X121667749Y-86992537D01*
X121807037Y-86853249D01*
X121970822Y-86743811D01*
X122152811Y-86668429D01*
X122268730Y-86645372D01*
X122346007Y-86630000D01*
X122542993Y-86630000D01*
X122620270Y-86645372D01*
X122620270Y-86645372D01*
G37*
G36*
X115512030Y-85564969D02*
X115512033Y-85564970D01*
X115512034Y-85564970D01*
X115700535Y-85622151D01*
X115700537Y-85622152D01*
X115874260Y-85715009D01*
X116026528Y-85839972D01*
X116151491Y-85992240D01*
X116244348Y-86165963D01*
X116301531Y-86354470D01*
X116320838Y-86550500D01*
X116301531Y-86746530D01*
X116301530Y-86746533D01*
X116301530Y-86746534D01*
X116244569Y-86934311D01*
X116244348Y-86935037D01*
X116151491Y-87108760D01*
X116026528Y-87261028D01*
X115874260Y-87385991D01*
X115874258Y-87385992D01*
X115700535Y-87478849D01*
X115512034Y-87536030D01*
X115512033Y-87536030D01*
X115512030Y-87536031D01*
X115365124Y-87550500D01*
X115266876Y-87550500D01*
X115119970Y-87536031D01*
X115119967Y-87536030D01*
X115119966Y-87536030D01*
X114931465Y-87478849D01*
X114757742Y-87385992D01*
X114757740Y-87385991D01*
X114605472Y-87261028D01*
X114480509Y-87108760D01*
X114387652Y-86935037D01*
X114387432Y-86934311D01*
X114330470Y-86746534D01*
X114330470Y-86746533D01*
X114330469Y-86746530D01*
X114311162Y-86550500D01*
X114330469Y-86354470D01*
X114387652Y-86165963D01*
X114480509Y-85992240D01*
X114605472Y-85839972D01*
X114757740Y-85715009D01*
X114931463Y-85622152D01*
X114931465Y-85622151D01*
X115119966Y-85564970D01*
X115119967Y-85564970D01*
X115119970Y-85564969D01*
X115266876Y-85550500D01*
X115365124Y-85550500D01*
X115512030Y-85564969D01*
X115512030Y-85564969D01*
G37*
G36*
X110411770Y-85565872D02*
X110527689Y-85588929D01*
X110709678Y-85664311D01*
X110873463Y-85773749D01*
X111012751Y-85913037D01*
X111122189Y-86076822D01*
X111197571Y-86258811D01*
X111220628Y-86374730D01*
X111236000Y-86452007D01*
X111236000Y-86648993D01*
X111225953Y-86699500D01*
X111197571Y-86842189D01*
X111122189Y-87024178D01*
X111012751Y-87187963D01*
X110873463Y-87327251D01*
X110709678Y-87436689D01*
X110527689Y-87512071D01*
X110429976Y-87531507D01*
X110334493Y-87550500D01*
X110137507Y-87550500D01*
X110042024Y-87531507D01*
X109944311Y-87512071D01*
X109762322Y-87436689D01*
X109598537Y-87327251D01*
X109459249Y-87187963D01*
X109349811Y-87024178D01*
X109274429Y-86842189D01*
X109246047Y-86699500D01*
X109236000Y-86648993D01*
X109236000Y-86452007D01*
X109251372Y-86374730D01*
X109274429Y-86258811D01*
X109349811Y-86076822D01*
X109459249Y-85913037D01*
X109598537Y-85773749D01*
X109762322Y-85664311D01*
X109944311Y-85588929D01*
X110060230Y-85565872D01*
X110137507Y-85550500D01*
X110334493Y-85550500D01*
X110411770Y-85565872D01*
X110411770Y-85565872D01*
G37*
G36*
X90869763Y-83018214D02*
X90869766Y-83018215D01*
X90869767Y-83018215D01*
X91237343Y-83129718D01*
X91576104Y-83310789D01*
X91873030Y-83554470D01*
X92116711Y-83851396D01*
X92297782Y-84190157D01*
X92386971Y-84484175D01*
X92409286Y-84557737D01*
X92446935Y-84940000D01*
X92409286Y-85322263D01*
X92409285Y-85322266D01*
X92409285Y-85322267D01*
X92297782Y-85689843D01*
X92116711Y-86028604D01*
X91873030Y-86325530D01*
X91576104Y-86569211D01*
X91237343Y-86750282D01*
X90869767Y-86861785D01*
X90869766Y-86861785D01*
X90869763Y-86861786D01*
X90583299Y-86890000D01*
X90391701Y-86890000D01*
X90105237Y-86861786D01*
X90105234Y-86861785D01*
X90105233Y-86861785D01*
X89737657Y-86750282D01*
X89398896Y-86569211D01*
X89101970Y-86325530D01*
X88858289Y-86028604D01*
X88677218Y-85689843D01*
X88565715Y-85322267D01*
X88565715Y-85322266D01*
X88565714Y-85322263D01*
X88528065Y-84940000D01*
X88565714Y-84557737D01*
X88588029Y-84484175D01*
X88677218Y-84190157D01*
X88858289Y-83851396D01*
X89101970Y-83554470D01*
X89398896Y-83310789D01*
X89737657Y-83129718D01*
X90105233Y-83018215D01*
X90105234Y-83018215D01*
X90105237Y-83018214D01*
X90391701Y-82990000D01*
X90583299Y-82990000D01*
X90869763Y-83018214D01*
X90869763Y-83018214D01*
G37*
G36*
X74677263Y-82827714D02*
X74677266Y-82827715D01*
X74677267Y-82827715D01*
X75044843Y-82939218D01*
X75383604Y-83120289D01*
X75680530Y-83363970D01*
X75924211Y-83660896D01*
X76105282Y-83999657D01*
X76168036Y-84206530D01*
X76216786Y-84367237D01*
X76254435Y-84749500D01*
X76216786Y-85131763D01*
X76216785Y-85131766D01*
X76216785Y-85131767D01*
X76105282Y-85499343D01*
X75924211Y-85838104D01*
X75680530Y-86135030D01*
X75383604Y-86378711D01*
X75044843Y-86559782D01*
X74677267Y-86671285D01*
X74677266Y-86671285D01*
X74677263Y-86671286D01*
X74390799Y-86699500D01*
X74199201Y-86699500D01*
X73912737Y-86671286D01*
X73912734Y-86671285D01*
X73912733Y-86671285D01*
X73545157Y-86559782D01*
X73206396Y-86378711D01*
X72909470Y-86135030D01*
X72665789Y-85838104D01*
X72484718Y-85499343D01*
X72373215Y-85131767D01*
X72373215Y-85131766D01*
X72373214Y-85131763D01*
X72335565Y-84749500D01*
X72373214Y-84367237D01*
X72421964Y-84206530D01*
X72484718Y-83999657D01*
X72665789Y-83660896D01*
X72909470Y-83363970D01*
X73206396Y-83120289D01*
X73545157Y-82939218D01*
X73912733Y-82827715D01*
X73912734Y-82827715D01*
X73912737Y-82827714D01*
X74199201Y-82799500D01*
X74390799Y-82799500D01*
X74677263Y-82827714D01*
X74677263Y-82827714D01*
G37*
G36*
X100949000Y-86598000D02*
X98949000Y-86598000D01*
X98949000Y-84598000D01*
X100949000Y-84598000D01*
X100949000Y-86598000D01*
X100949000Y-86598000D01*
G37*
G36*
X102624770Y-84613372D02*
X102740689Y-84636429D01*
X102922678Y-84711811D01*
X103086463Y-84821249D01*
X103225751Y-84960537D01*
X103335189Y-85124322D01*
X103410571Y-85306311D01*
X103433628Y-85422230D01*
X103448968Y-85499345D01*
X103449000Y-85499509D01*
X103449000Y-85696491D01*
X103410571Y-85889689D01*
X103335189Y-86071678D01*
X103225751Y-86235463D01*
X103086463Y-86374751D01*
X102922678Y-86484189D01*
X102740689Y-86559571D01*
X102624770Y-86582628D01*
X102547493Y-86598000D01*
X102350507Y-86598000D01*
X102273230Y-86582628D01*
X102157311Y-86559571D01*
X101975322Y-86484189D01*
X101811537Y-86374751D01*
X101672249Y-86235463D01*
X101562811Y-86071678D01*
X101487429Y-85889689D01*
X101449000Y-85696491D01*
X101449000Y-85499509D01*
X101449033Y-85499345D01*
X101464372Y-85422230D01*
X101487429Y-85306311D01*
X101562811Y-85124322D01*
X101672249Y-84960537D01*
X101811537Y-84821249D01*
X101975322Y-84711811D01*
X102157311Y-84636429D01*
X102273230Y-84613372D01*
X102350507Y-84598000D01*
X102547493Y-84598000D01*
X102624770Y-84613372D01*
X102624770Y-84613372D01*
G37*
G36*
X159767707Y-83539596D02*
X159844836Y-83547193D01*
X159976787Y-83587220D01*
X160042763Y-83607233D01*
X160225172Y-83704733D01*
X160385054Y-83835946D01*
X160516267Y-83995828D01*
X160613767Y-84178237D01*
X160633780Y-84244213D01*
X160673807Y-84376164D01*
X160694080Y-84582000D01*
X160673807Y-84787836D01*
X160640787Y-84896689D01*
X160613767Y-84985763D01*
X160516267Y-85168172D01*
X160385054Y-85328054D01*
X160225172Y-85459267D01*
X160042763Y-85556767D01*
X159976787Y-85576780D01*
X159844836Y-85616807D01*
X159767707Y-85624403D01*
X159690580Y-85632000D01*
X159587420Y-85632000D01*
X159510293Y-85624403D01*
X159433164Y-85616807D01*
X159301213Y-85576780D01*
X159235237Y-85556767D01*
X159052828Y-85459267D01*
X158892946Y-85328054D01*
X158761733Y-85168172D01*
X158664233Y-84985763D01*
X158637213Y-84896689D01*
X158604193Y-84787836D01*
X158583920Y-84582000D01*
X158604193Y-84376164D01*
X158644220Y-84244213D01*
X158664233Y-84178237D01*
X158761733Y-83995828D01*
X158892946Y-83835946D01*
X159052828Y-83704733D01*
X159235237Y-83607233D01*
X159301213Y-83587220D01*
X159433164Y-83547193D01*
X159510293Y-83539596D01*
X159587420Y-83532000D01*
X159690580Y-83532000D01*
X159767707Y-83539596D01*
X159767707Y-83539596D01*
G37*
G36*
X137838270Y-83025872D02*
X137954189Y-83048929D01*
X138136178Y-83124311D01*
X138299963Y-83233749D01*
X138439251Y-83373037D01*
X138548689Y-83536822D01*
X138624071Y-83718811D01*
X138647128Y-83834730D01*
X138650444Y-83851396D01*
X138662500Y-83912009D01*
X138662500Y-84108991D01*
X138624071Y-84302189D01*
X138548689Y-84484178D01*
X138439251Y-84647963D01*
X138299963Y-84787251D01*
X138136178Y-84896689D01*
X137954189Y-84972071D01*
X137838270Y-84995128D01*
X137760993Y-85010500D01*
X137564007Y-85010500D01*
X137486730Y-84995128D01*
X137370811Y-84972071D01*
X137188822Y-84896689D01*
X137025037Y-84787251D01*
X136885749Y-84647963D01*
X136776311Y-84484178D01*
X136700929Y-84302189D01*
X136662500Y-84108991D01*
X136662500Y-83912009D01*
X136674557Y-83851396D01*
X136677872Y-83834730D01*
X136700929Y-83718811D01*
X136776311Y-83536822D01*
X136885749Y-83373037D01*
X137025037Y-83233749D01*
X137188822Y-83124311D01*
X137370811Y-83048929D01*
X137486730Y-83025872D01*
X137564007Y-83010500D01*
X137760993Y-83010500D01*
X137838270Y-83025872D01*
X137838270Y-83025872D01*
G37*
G36*
X132778530Y-83024969D02*
X132778533Y-83024970D01*
X132778534Y-83024970D01*
X132967035Y-83082151D01*
X132967037Y-83082152D01*
X133140760Y-83175009D01*
X133293028Y-83299972D01*
X133417991Y-83452240D01*
X133472634Y-83554470D01*
X133510849Y-83625965D01*
X133539013Y-83718811D01*
X133568031Y-83814470D01*
X133587338Y-84010500D01*
X133568031Y-84206530D01*
X133568030Y-84206533D01*
X133568030Y-84206534D01*
X133516573Y-84376166D01*
X133510848Y-84395037D01*
X133417991Y-84568760D01*
X133293028Y-84721028D01*
X133140760Y-84845991D01*
X133140758Y-84845992D01*
X132967035Y-84938849D01*
X132778534Y-84996030D01*
X132778533Y-84996030D01*
X132778530Y-84996031D01*
X132631624Y-85010500D01*
X132533376Y-85010500D01*
X132386470Y-84996031D01*
X132386467Y-84996030D01*
X132386466Y-84996030D01*
X132197965Y-84938849D01*
X132024242Y-84845992D01*
X132024240Y-84845991D01*
X131871972Y-84721028D01*
X131747009Y-84568760D01*
X131654152Y-84395037D01*
X131648428Y-84376166D01*
X131596970Y-84206534D01*
X131596970Y-84206533D01*
X131596969Y-84206530D01*
X131577662Y-84010500D01*
X131596969Y-83814470D01*
X131625987Y-83718811D01*
X131654151Y-83625965D01*
X131692366Y-83554470D01*
X131747009Y-83452240D01*
X131871972Y-83299972D01*
X132024240Y-83175009D01*
X132197963Y-83082152D01*
X132197965Y-83082151D01*
X132386466Y-83024970D01*
X132386467Y-83024970D01*
X132386470Y-83024969D01*
X132533376Y-83010500D01*
X132631624Y-83010500D01*
X132778530Y-83024969D01*
X132778530Y-83024969D01*
G37*
G36*
X146000853Y-82236855D02*
X146168284Y-82306207D01*
X146318966Y-82406890D01*
X146447110Y-82535034D01*
X146547793Y-82685716D01*
X146617145Y-82853147D01*
X146652500Y-83030887D01*
X146652500Y-83212113D01*
X146617145Y-83389853D01*
X146547793Y-83557284D01*
X146447110Y-83707966D01*
X146318966Y-83836110D01*
X146168284Y-83936793D01*
X146000853Y-84006145D01*
X145823113Y-84041500D01*
X145641887Y-84041500D01*
X145464147Y-84006145D01*
X145296716Y-83936793D01*
X145146034Y-83836110D01*
X145017890Y-83707966D01*
X144917207Y-83557284D01*
X144847855Y-83389853D01*
X144812500Y-83212113D01*
X144812500Y-83030887D01*
X144847855Y-82853147D01*
X144917207Y-82685716D01*
X145017890Y-82535034D01*
X145146034Y-82406890D01*
X145296716Y-82306207D01*
X145464147Y-82236855D01*
X145641887Y-82201500D01*
X145823113Y-82201500D01*
X146000853Y-82236855D01*
X146000853Y-82236855D01*
G37*
G36*
X115174270Y-81438372D02*
X115290189Y-81461429D01*
X115472178Y-81536811D01*
X115635963Y-81646249D01*
X115775251Y-81785537D01*
X115884689Y-81949322D01*
X115960071Y-82131311D01*
X115998500Y-82324509D01*
X115998500Y-82521491D01*
X115960071Y-82714689D01*
X115884689Y-82896678D01*
X115775251Y-83060463D01*
X115635963Y-83199751D01*
X115472178Y-83309189D01*
X115290189Y-83384571D01*
X115174270Y-83407628D01*
X115096993Y-83423000D01*
X114900007Y-83423000D01*
X114822730Y-83407628D01*
X114706811Y-83384571D01*
X114524822Y-83309189D01*
X114361037Y-83199751D01*
X114221749Y-83060463D01*
X114112311Y-82896678D01*
X114036929Y-82714689D01*
X113998500Y-82521491D01*
X113998500Y-82324509D01*
X114036929Y-82131311D01*
X114112311Y-81949322D01*
X114221749Y-81785537D01*
X114361037Y-81646249D01*
X114524822Y-81536811D01*
X114706811Y-81461429D01*
X114822730Y-81438372D01*
X114900007Y-81423000D01*
X115096993Y-81423000D01*
X115174270Y-81438372D01*
X115174270Y-81438372D01*
G37*
G36*
X110114530Y-81437469D02*
X110114533Y-81437470D01*
X110114534Y-81437470D01*
X110303035Y-81494651D01*
X110303037Y-81494652D01*
X110476760Y-81587509D01*
X110629028Y-81712472D01*
X110753991Y-81864740D01*
X110846848Y-82038463D01*
X110904031Y-82226970D01*
X110923338Y-82423000D01*
X110904031Y-82619030D01*
X110846848Y-82807537D01*
X110753991Y-82981260D01*
X110629028Y-83133528D01*
X110476760Y-83258491D01*
X110381911Y-83309189D01*
X110303035Y-83351349D01*
X110114534Y-83408530D01*
X110114533Y-83408530D01*
X110114530Y-83408531D01*
X109967624Y-83423000D01*
X109869376Y-83423000D01*
X109722470Y-83408531D01*
X109722467Y-83408530D01*
X109722466Y-83408530D01*
X109533965Y-83351349D01*
X109455089Y-83309189D01*
X109360240Y-83258491D01*
X109207972Y-83133528D01*
X109083009Y-82981260D01*
X108990152Y-82807537D01*
X108932969Y-82619030D01*
X108913662Y-82423000D01*
X108932969Y-82226970D01*
X108990152Y-82038463D01*
X109083009Y-81864740D01*
X109207972Y-81712472D01*
X109360240Y-81587509D01*
X109533963Y-81494652D01*
X109533965Y-81494651D01*
X109722466Y-81437470D01*
X109722467Y-81437470D01*
X109722470Y-81437469D01*
X109869376Y-81423000D01*
X109967624Y-81423000D01*
X110114530Y-81437469D01*
X110114530Y-81437469D01*
G37*
G36*
X160689000Y-83092000D02*
X158589000Y-83092000D01*
X158589000Y-80992000D01*
X160689000Y-80992000D01*
X160689000Y-83092000D01*
X160689000Y-83092000D01*
G37*
G36*
X146000853Y-79696855D02*
X146168284Y-79766207D01*
X146318966Y-79866890D01*
X146447110Y-79995034D01*
X146547793Y-80145716D01*
X146617145Y-80313147D01*
X146652500Y-80490887D01*
X146652500Y-80672113D01*
X146617145Y-80849853D01*
X146547793Y-81017284D01*
X146447110Y-81167966D01*
X146318966Y-81296110D01*
X146168284Y-81396793D01*
X146000853Y-81466145D01*
X145823113Y-81501500D01*
X145641887Y-81501500D01*
X145464147Y-81466145D01*
X145296716Y-81396793D01*
X145146034Y-81296110D01*
X145017890Y-81167966D01*
X144917207Y-81017284D01*
X144847855Y-80849853D01*
X144812500Y-80672113D01*
X144812500Y-80490887D01*
X144847855Y-80313147D01*
X144917207Y-80145716D01*
X145017890Y-79995034D01*
X145146034Y-79866890D01*
X145296716Y-79766207D01*
X145464147Y-79696855D01*
X145641887Y-79661500D01*
X145823113Y-79661500D01*
X146000853Y-79696855D01*
X146000853Y-79696855D01*
G37*
G36*
X135015353Y-77855355D02*
X135182784Y-77924707D01*
X135333466Y-78025390D01*
X135461610Y-78153534D01*
X135562293Y-78304216D01*
X135631645Y-78471647D01*
X135667000Y-78649387D01*
X135667000Y-78830613D01*
X135631645Y-79008353D01*
X135562293Y-79175784D01*
X135461610Y-79326466D01*
X135333466Y-79454610D01*
X135182784Y-79555293D01*
X135015353Y-79624645D01*
X134837613Y-79660000D01*
X134656387Y-79660000D01*
X134478647Y-79624645D01*
X134311216Y-79555293D01*
X134160534Y-79454610D01*
X134032390Y-79326466D01*
X133931707Y-79175784D01*
X133862355Y-79008353D01*
X133827000Y-78830613D01*
X133827000Y-78649387D01*
X133862355Y-78471647D01*
X133931707Y-78304216D01*
X134032390Y-78153534D01*
X134160534Y-78025390D01*
X134311216Y-77924707D01*
X134478647Y-77855355D01*
X134656387Y-77820000D01*
X134837613Y-77820000D01*
X135015353Y-77855355D01*
X135015353Y-77855355D01*
G37*
G36*
X132475353Y-77855355D02*
X132642784Y-77924707D01*
X132793466Y-78025390D01*
X132921610Y-78153534D01*
X133022293Y-78304216D01*
X133091645Y-78471647D01*
X133127000Y-78649387D01*
X133127000Y-78830613D01*
X133091645Y-79008353D01*
X133022293Y-79175784D01*
X132921610Y-79326466D01*
X132793466Y-79454610D01*
X132642784Y-79555293D01*
X132475353Y-79624645D01*
X132297613Y-79660000D01*
X132116387Y-79660000D01*
X131938647Y-79624645D01*
X131771216Y-79555293D01*
X131620534Y-79454610D01*
X131492390Y-79326466D01*
X131391707Y-79175784D01*
X131322355Y-79008353D01*
X131287000Y-78830613D01*
X131287000Y-78649387D01*
X131322355Y-78471647D01*
X131391707Y-78304216D01*
X131492390Y-78153534D01*
X131620534Y-78025390D01*
X131771216Y-77924707D01*
X131938647Y-77855355D01*
X132116387Y-77820000D01*
X132297613Y-77820000D01*
X132475353Y-77855355D01*
X132475353Y-77855355D01*
G37*
G36*
X137555353Y-77855355D02*
X137722784Y-77924707D01*
X137873466Y-78025390D01*
X138001610Y-78153534D01*
X138102293Y-78304216D01*
X138171645Y-78471647D01*
X138207000Y-78649387D01*
X138207000Y-78830613D01*
X138171645Y-79008353D01*
X138102293Y-79175784D01*
X138001610Y-79326466D01*
X137873466Y-79454610D01*
X137722784Y-79555293D01*
X137555353Y-79624645D01*
X137377613Y-79660000D01*
X137196387Y-79660000D01*
X137018647Y-79624645D01*
X136851216Y-79555293D01*
X136700534Y-79454610D01*
X136572390Y-79326466D01*
X136471707Y-79175784D01*
X136402355Y-79008353D01*
X136367000Y-78830613D01*
X136367000Y-78649387D01*
X136402355Y-78471647D01*
X136471707Y-78304216D01*
X136572390Y-78153534D01*
X136700534Y-78025390D01*
X136851216Y-77924707D01*
X137018647Y-77855355D01*
X137196387Y-77820000D01*
X137377613Y-77820000D01*
X137555353Y-77855355D01*
X137555353Y-77855355D01*
G37*
G36*
X146000853Y-77156855D02*
X146168284Y-77226207D01*
X146318966Y-77326890D01*
X146447110Y-77455034D01*
X146547793Y-77605716D01*
X146617145Y-77773147D01*
X146652500Y-77950887D01*
X146652500Y-78132113D01*
X146617145Y-78309853D01*
X146547793Y-78477284D01*
X146447110Y-78627966D01*
X146318966Y-78756110D01*
X146168284Y-78856793D01*
X146000853Y-78926145D01*
X145823113Y-78961500D01*
X145641887Y-78961500D01*
X145464147Y-78926145D01*
X145296716Y-78856793D01*
X145146034Y-78756110D01*
X145017890Y-78627966D01*
X144917207Y-78477284D01*
X144847855Y-78309853D01*
X144812500Y-78132113D01*
X144812500Y-77950887D01*
X144847855Y-77773147D01*
X144917207Y-77605716D01*
X145017890Y-77455034D01*
X145146034Y-77326890D01*
X145296716Y-77226207D01*
X145464147Y-77156855D01*
X145641887Y-77121500D01*
X145823113Y-77121500D01*
X146000853Y-77156855D01*
X146000853Y-77156855D01*
G37*
G36*
X112668857Y-76539272D02*
X112869042Y-76622191D01*
X112869045Y-76622193D01*
X112958831Y-76682186D01*
X113049213Y-76742578D01*
X113202422Y-76895787D01*
X113202424Y-76895790D01*
X113202425Y-76895791D01*
X113243319Y-76956993D01*
X113322809Y-77075958D01*
X113405728Y-77276143D01*
X113448000Y-77488658D01*
X113448000Y-77705342D01*
X113405728Y-77917857D01*
X113322809Y-78118042D01*
X113202422Y-78298213D01*
X113049213Y-78451422D01*
X113049210Y-78451424D01*
X113049209Y-78451425D01*
X113010508Y-78477284D01*
X112869042Y-78571809D01*
X112668857Y-78654728D01*
X112456342Y-78697000D01*
X112239658Y-78697000D01*
X112027143Y-78654728D01*
X111826958Y-78571809D01*
X111685492Y-78477284D01*
X111646791Y-78451425D01*
X111646790Y-78451424D01*
X111646787Y-78451422D01*
X111493578Y-78298213D01*
X111373191Y-78118042D01*
X111290272Y-77917857D01*
X111248000Y-77705342D01*
X111248000Y-77488658D01*
X111290272Y-77276143D01*
X111373191Y-77075958D01*
X111452681Y-76956993D01*
X111493575Y-76895791D01*
X111493576Y-76895790D01*
X111493578Y-76895787D01*
X111646787Y-76742578D01*
X111737170Y-76682186D01*
X111826955Y-76622193D01*
X111826958Y-76622191D01*
X112027143Y-76539272D01*
X112239658Y-76497000D01*
X112456342Y-76497000D01*
X112668857Y-76539272D01*
X112668857Y-76539272D01*
G37*
G36*
X115168857Y-76539272D02*
X115369042Y-76622191D01*
X115369045Y-76622193D01*
X115458831Y-76682186D01*
X115549213Y-76742578D01*
X115702422Y-76895787D01*
X115702424Y-76895790D01*
X115702425Y-76895791D01*
X115743319Y-76956993D01*
X115822809Y-77075958D01*
X115905728Y-77276143D01*
X115948000Y-77488658D01*
X115948000Y-77705342D01*
X115905728Y-77917857D01*
X115822809Y-78118042D01*
X115702422Y-78298213D01*
X115549213Y-78451422D01*
X115549210Y-78451424D01*
X115549209Y-78451425D01*
X115510508Y-78477284D01*
X115369042Y-78571809D01*
X115168857Y-78654728D01*
X114956342Y-78697000D01*
X114739658Y-78697000D01*
X114527143Y-78654728D01*
X114326958Y-78571809D01*
X114185492Y-78477284D01*
X114146791Y-78451425D01*
X114146790Y-78451424D01*
X114146787Y-78451422D01*
X113993578Y-78298213D01*
X113873191Y-78118042D01*
X113790272Y-77917857D01*
X113748000Y-77705342D01*
X113748000Y-77488658D01*
X113790272Y-77276143D01*
X113873191Y-77075958D01*
X113952681Y-76956993D01*
X113993575Y-76895791D01*
X113993576Y-76895790D01*
X113993578Y-76895787D01*
X114146787Y-76742578D01*
X114237170Y-76682186D01*
X114326955Y-76622193D01*
X114326958Y-76622191D01*
X114527143Y-76539272D01*
X114739658Y-76497000D01*
X114956342Y-76497000D01*
X115168857Y-76539272D01*
X115168857Y-76539272D01*
G37*
G36*
X117668857Y-76539272D02*
X117869042Y-76622191D01*
X117869045Y-76622193D01*
X117958831Y-76682186D01*
X118049213Y-76742578D01*
X118202422Y-76895787D01*
X118202424Y-76895790D01*
X118202425Y-76895791D01*
X118243319Y-76956993D01*
X118322809Y-77075958D01*
X118405728Y-77276143D01*
X118448000Y-77488658D01*
X118448000Y-77705342D01*
X118405728Y-77917857D01*
X118322809Y-78118042D01*
X118202422Y-78298213D01*
X118049213Y-78451422D01*
X118049210Y-78451424D01*
X118049209Y-78451425D01*
X118010508Y-78477284D01*
X117869042Y-78571809D01*
X117668857Y-78654728D01*
X117456342Y-78697000D01*
X117239658Y-78697000D01*
X117027143Y-78654728D01*
X116826958Y-78571809D01*
X116685492Y-78477284D01*
X116646791Y-78451425D01*
X116646790Y-78451424D01*
X116646787Y-78451422D01*
X116493578Y-78298213D01*
X116373191Y-78118042D01*
X116290272Y-77917857D01*
X116248000Y-77705342D01*
X116248000Y-77488658D01*
X116290272Y-77276143D01*
X116373191Y-77075958D01*
X116452681Y-76956993D01*
X116493575Y-76895791D01*
X116493576Y-76895790D01*
X116493578Y-76895787D01*
X116646787Y-76742578D01*
X116737170Y-76682186D01*
X116826955Y-76622193D01*
X116826958Y-76622191D01*
X117027143Y-76539272D01*
X117239658Y-76497000D01*
X117456342Y-76497000D01*
X117668857Y-76539272D01*
X117668857Y-76539272D01*
G37*
G36*
X76756770Y-75873872D02*
X76872689Y-75896929D01*
X77054678Y-75972311D01*
X77218463Y-76081749D01*
X77357751Y-76221037D01*
X77467189Y-76384822D01*
X77542571Y-76566811D01*
X77553587Y-76622193D01*
X77577533Y-76742575D01*
X77581000Y-76760009D01*
X77581000Y-76956991D01*
X77542571Y-77150189D01*
X77467189Y-77332178D01*
X77357751Y-77495963D01*
X77218463Y-77635251D01*
X77054678Y-77744689D01*
X76872689Y-77820071D01*
X76756770Y-77843128D01*
X76679493Y-77858500D01*
X76482507Y-77858500D01*
X76405230Y-77843128D01*
X76289311Y-77820071D01*
X76107322Y-77744689D01*
X75943537Y-77635251D01*
X75804249Y-77495963D01*
X75694811Y-77332178D01*
X75619429Y-77150189D01*
X75581000Y-76956991D01*
X75581000Y-76760009D01*
X75584468Y-76742575D01*
X75608413Y-76622193D01*
X75619429Y-76566811D01*
X75694811Y-76384822D01*
X75804249Y-76221037D01*
X75943537Y-76081749D01*
X76107322Y-75972311D01*
X76289311Y-75896929D01*
X76405230Y-75873872D01*
X76482507Y-75858500D01*
X76679493Y-75858500D01*
X76756770Y-75873872D01*
X76756770Y-75873872D01*
G37*
G36*
X90493030Y-75404969D02*
X90493033Y-75404970D01*
X90493034Y-75404970D01*
X90681535Y-75462151D01*
X90681537Y-75462152D01*
X90855260Y-75555009D01*
X91007528Y-75679972D01*
X91132491Y-75832240D01*
X91132492Y-75832242D01*
X91225349Y-76005965D01*
X91248339Y-76081753D01*
X91282531Y-76194470D01*
X91301838Y-76390500D01*
X91282531Y-76586530D01*
X91282530Y-76586533D01*
X91282530Y-76586534D01*
X91229908Y-76760007D01*
X91225348Y-76775037D01*
X91132491Y-76948760D01*
X91007528Y-77101028D01*
X90855260Y-77225991D01*
X90855258Y-77225992D01*
X90681535Y-77318849D01*
X90493034Y-77376030D01*
X90493033Y-77376030D01*
X90493030Y-77376031D01*
X90346124Y-77390500D01*
X90247876Y-77390500D01*
X90100970Y-77376031D01*
X90100967Y-77376030D01*
X90100966Y-77376030D01*
X89912465Y-77318849D01*
X89738742Y-77225992D01*
X89738740Y-77225991D01*
X89586472Y-77101028D01*
X89461509Y-76948760D01*
X89368652Y-76775037D01*
X89364093Y-76760007D01*
X89311470Y-76586534D01*
X89311470Y-76586533D01*
X89311469Y-76586530D01*
X89292162Y-76390500D01*
X89311469Y-76194470D01*
X89345661Y-76081753D01*
X89368651Y-76005965D01*
X89461508Y-75832242D01*
X89461509Y-75832240D01*
X89586472Y-75679972D01*
X89738740Y-75555009D01*
X89912463Y-75462152D01*
X89912465Y-75462151D01*
X90100966Y-75404970D01*
X90100967Y-75404970D01*
X90100970Y-75404969D01*
X90247876Y-75390500D01*
X90346124Y-75390500D01*
X90493030Y-75404969D01*
X90493030Y-75404969D01*
G37*
G36*
X85390902Y-75405500D02*
X85508689Y-75428929D01*
X85690678Y-75504311D01*
X85854463Y-75613749D01*
X85993751Y-75753037D01*
X86103189Y-75916822D01*
X86178571Y-76098811D01*
X86201628Y-76214730D01*
X86217000Y-76292007D01*
X86217000Y-76488993D01*
X86201628Y-76566270D01*
X86178571Y-76682189D01*
X86103189Y-76864178D01*
X85993751Y-77027963D01*
X85854463Y-77167251D01*
X85690678Y-77276689D01*
X85508689Y-77352071D01*
X85392770Y-77375128D01*
X85315493Y-77390500D01*
X85118507Y-77390500D01*
X85041230Y-77375128D01*
X84925311Y-77352071D01*
X84743322Y-77276689D01*
X84579537Y-77167251D01*
X84440249Y-77027963D01*
X84330811Y-76864178D01*
X84255429Y-76682189D01*
X84232372Y-76566270D01*
X84217000Y-76488993D01*
X84217000Y-76292007D01*
X84232372Y-76214730D01*
X84255429Y-76098811D01*
X84330811Y-75916822D01*
X84440249Y-75753037D01*
X84579537Y-75613749D01*
X84743322Y-75504311D01*
X84925311Y-75428929D01*
X85043098Y-75405500D01*
X85118507Y-75390500D01*
X85315493Y-75390500D01*
X85390902Y-75405500D01*
X85390902Y-75405500D01*
G37*
G36*
X98185353Y-73600855D02*
X98352784Y-73670207D01*
X98503466Y-73770890D01*
X98631610Y-73899034D01*
X98732293Y-74049716D01*
X98801645Y-74217147D01*
X98837000Y-74394887D01*
X98837000Y-74576113D01*
X98801645Y-74753853D01*
X98732293Y-74921284D01*
X98631610Y-75071966D01*
X98503466Y-75200110D01*
X98352784Y-75300793D01*
X98185353Y-75370145D01*
X98007613Y-75405500D01*
X97826387Y-75405500D01*
X97648647Y-75370145D01*
X97481216Y-75300793D01*
X97330534Y-75200110D01*
X97202390Y-75071966D01*
X97101707Y-74921284D01*
X97032355Y-74753853D01*
X96997000Y-74576113D01*
X96997000Y-74394887D01*
X97032355Y-74217147D01*
X97101707Y-74049716D01*
X97202390Y-73899034D01*
X97330534Y-73770890D01*
X97481216Y-73670207D01*
X97648647Y-73600855D01*
X97826387Y-73565500D01*
X98007613Y-73565500D01*
X98185353Y-73600855D01*
X98185353Y-73600855D01*
G37*
G36*
X77581000Y-75358500D02*
X75581000Y-75358500D01*
X75581000Y-73358500D01*
X77581000Y-73358500D01*
X77581000Y-75358500D01*
X77581000Y-75358500D01*
G37*
G36*
X100725353Y-71060855D02*
X100892784Y-71130207D01*
X101043466Y-71230890D01*
X101171610Y-71359034D01*
X101272293Y-71509716D01*
X101341645Y-71677147D01*
X101377000Y-71854887D01*
X101377000Y-72036113D01*
X101341645Y-72213853D01*
X101272293Y-72381284D01*
X101171610Y-72531966D01*
X101043466Y-72660110D01*
X100892784Y-72760793D01*
X100725353Y-72830145D01*
X100547613Y-72865500D01*
X100366387Y-72865500D01*
X100188647Y-72830145D01*
X100021216Y-72760793D01*
X99870534Y-72660110D01*
X99742390Y-72531966D01*
X99641707Y-72381284D01*
X99572355Y-72213853D01*
X99537000Y-72036113D01*
X99537000Y-71854887D01*
X99572355Y-71677147D01*
X99641707Y-71509716D01*
X99742390Y-71359034D01*
X99870534Y-71230890D01*
X100021216Y-71130207D01*
X100188647Y-71060855D01*
X100366387Y-71025500D01*
X100547613Y-71025500D01*
X100725353Y-71060855D01*
X100725353Y-71060855D01*
G37*
G36*
X119889716Y-68481544D02*
X120290090Y-68647384D01*
X120650421Y-68888150D01*
X120956850Y-69194579D01*
X121197616Y-69554910D01*
X121363456Y-69955284D01*
X121448000Y-70380317D01*
X121448000Y-70813683D01*
X121363456Y-71238716D01*
X121197616Y-71639090D01*
X120956850Y-71999421D01*
X120650421Y-72305850D01*
X120290090Y-72546616D01*
X119889716Y-72712456D01*
X119464683Y-72797000D01*
X119031317Y-72797000D01*
X118606284Y-72712456D01*
X118205910Y-72546616D01*
X117845579Y-72305850D01*
X117539150Y-71999421D01*
X117298384Y-71639090D01*
X117132544Y-71238716D01*
X117048000Y-70813683D01*
X117048000Y-70380317D01*
X117132544Y-69955284D01*
X117298384Y-69554910D01*
X117539150Y-69194579D01*
X117845579Y-68888150D01*
X118205910Y-68647384D01*
X118606284Y-68481544D01*
X119031317Y-68397000D01*
X119464683Y-68397000D01*
X119889716Y-68481544D01*
X119889716Y-68481544D01*
G37*
G36*
X111089716Y-68481544D02*
X111490090Y-68647384D01*
X111850421Y-68888150D01*
X112156850Y-69194579D01*
X112397616Y-69554910D01*
X112563456Y-69955284D01*
X112648000Y-70380317D01*
X112648000Y-70813683D01*
X112563456Y-71238716D01*
X112397616Y-71639090D01*
X112156850Y-71999421D01*
X111850421Y-72305850D01*
X111490090Y-72546616D01*
X111089716Y-72712456D01*
X110664683Y-72797000D01*
X110231317Y-72797000D01*
X109806284Y-72712456D01*
X109405910Y-72546616D01*
X109045579Y-72305850D01*
X108739150Y-71999421D01*
X108498384Y-71639090D01*
X108332544Y-71238716D01*
X108248000Y-70813683D01*
X108248000Y-70380317D01*
X108332544Y-69955284D01*
X108498384Y-69554910D01*
X108739150Y-69194579D01*
X109045579Y-68888150D01*
X109405910Y-68647384D01*
X109806284Y-68481544D01*
X110231317Y-68397000D01*
X110664683Y-68397000D01*
X111089716Y-68481544D01*
X111089716Y-68481544D01*
G37*
G36*
X98185353Y-68520855D02*
X98352784Y-68590207D01*
X98503466Y-68690890D01*
X98631610Y-68819034D01*
X98732293Y-68969716D01*
X98801645Y-69137147D01*
X98837000Y-69314887D01*
X98837000Y-69496113D01*
X98801645Y-69673853D01*
X98732293Y-69841284D01*
X98631610Y-69991966D01*
X98503466Y-70120110D01*
X98352784Y-70220793D01*
X98185353Y-70290145D01*
X98007613Y-70325500D01*
X97826387Y-70325500D01*
X97648647Y-70290145D01*
X97481216Y-70220793D01*
X97330534Y-70120110D01*
X97202390Y-69991966D01*
X97101707Y-69841284D01*
X97032355Y-69673853D01*
X96997000Y-69496113D01*
X96997000Y-69314887D01*
X97032355Y-69137147D01*
X97101707Y-68969716D01*
X97202390Y-68819034D01*
X97330534Y-68690890D01*
X97481216Y-68590207D01*
X97648647Y-68520855D01*
X97826387Y-68485500D01*
X98007613Y-68485500D01*
X98185353Y-68520855D01*
X98185353Y-68520855D01*
G37*
G36*
X68100122Y-64476615D02*
X68216041Y-64499673D01*
X68543620Y-64635361D01*
X68834511Y-64829728D01*
X68838436Y-64832351D01*
X69089149Y-65083064D01*
X69286140Y-65377882D01*
X69421827Y-65705460D01*
X69491000Y-66053214D01*
X69491000Y-66407786D01*
X69421827Y-66755540D01*
X69286140Y-67083118D01*
X69089149Y-67377936D01*
X68838436Y-67628649D01*
X68838433Y-67628651D01*
X68543620Y-67825639D01*
X68216041Y-67961327D01*
X68100122Y-67984385D01*
X67868286Y-68030500D01*
X67513714Y-68030500D01*
X67281878Y-67984385D01*
X67165959Y-67961327D01*
X66838380Y-67825639D01*
X66543567Y-67628651D01*
X66543564Y-67628649D01*
X66292851Y-67377936D01*
X66095860Y-67083118D01*
X65960173Y-66755540D01*
X65891000Y-66407786D01*
X65891000Y-66053214D01*
X65960173Y-65705460D01*
X66095860Y-65377882D01*
X66292851Y-65083064D01*
X66543564Y-64832351D01*
X66547489Y-64829728D01*
X66838380Y-64635361D01*
X67165959Y-64499673D01*
X67281878Y-64476615D01*
X67513714Y-64430500D01*
X67868286Y-64430500D01*
X68100122Y-64476615D01*
X68100122Y-64476615D01*
G37*
G36*
X162842122Y-64476615D02*
X162958041Y-64499673D01*
X163285620Y-64635361D01*
X163576511Y-64829728D01*
X163580436Y-64832351D01*
X163831149Y-65083064D01*
X164028140Y-65377882D01*
X164163827Y-65705460D01*
X164233000Y-66053214D01*
X164233000Y-66407786D01*
X164163827Y-66755540D01*
X164028140Y-67083118D01*
X163831149Y-67377936D01*
X163580436Y-67628649D01*
X163580433Y-67628651D01*
X163285620Y-67825639D01*
X162958041Y-67961327D01*
X162842122Y-67984385D01*
X162610286Y-68030500D01*
X162255714Y-68030500D01*
X162023878Y-67984385D01*
X161907959Y-67961327D01*
X161580380Y-67825639D01*
X161285567Y-67628651D01*
X161285564Y-67628649D01*
X161034851Y-67377936D01*
X160837860Y-67083118D01*
X160702173Y-66755540D01*
X160633000Y-66407786D01*
X160633000Y-66053214D01*
X160702173Y-65705460D01*
X160837860Y-65377882D01*
X161034851Y-65083064D01*
X161285564Y-64832351D01*
X161289489Y-64829728D01*
X161580380Y-64635361D01*
X161907959Y-64499673D01*
X162023878Y-64476615D01*
X162255714Y-64430500D01*
X162610286Y-64430500D01*
X162842122Y-64476615D01*
X162842122Y-64476615D01*
G37*
M02*
