M48
;DRILL file {KiCad (5.0.1-dev-36-g831978293)} date Sun Sep 30 23:52:21 2018
;FORMAT={2:4/ absolute / inch / suppress leading zeros}
FMAT,2
INCH,TZ
T1C0.0157
T2C0.0315
T3C0.0394
%
G90
G05
M72
T1
X52350Y-43100
X52750Y-41000
X52750Y-44100
X52950Y-36050
X53318Y-43182
X53458Y-42593
X53500Y-40300
X54500Y-36450
X54650Y-37550
X54700Y-42600
X55387Y-40115
X56304Y-38843
X57600Y-37550
X57950Y-42700
X58500Y-38250
T2
X52000Y-36750
X52000Y-39750
X53000Y-36750
X53000Y-39750
X54000Y-36750
X54000Y-39750
X55000Y-36750
X55000Y-39750
X56000Y-36750
X56000Y-39750
X57000Y-36750
X57000Y-39750
X58000Y-36750
X58000Y-39750
X59000Y-36750
X59000Y-39750
T3
X60500Y-36300
X60500Y-38662
X61000Y-35000
X56000Y-35000
X54000Y-35000
X54000Y-41000
X57000Y-42000
X59000Y-41000
X54000Y-43000
X57000Y-44000
X59000Y-43000
X58000Y-35000
X53000Y-35000
X55000Y-35000
X52000Y-41000
X60000Y-35000
X60000Y-40000
X59000Y-35000
X52000Y-35000
X61000Y-40000
X57000Y-35000
T0
M30
