M48
INCH,TZ
T1C0.0157
T2C0.0295
T3C0.0315
T4C0.0394
%
G90
G05
T1
X52900Y-44100
T2
X55550Y-47375
X55550Y-48163
X55550Y-48950
X52800Y-35975
X52800Y-36763
X52800Y-37550
X51700Y-44150
X51700Y-44650
X51700Y-45150
X39750Y-40225
X39750Y-41013
X39750Y-41800
X39450Y-46575
X39450Y-47363
X39450Y-48150
T3
X39000Y-37950
X41000Y-37950
X43000Y-35300
X45000Y-35300
X53800Y-41650
X53800Y-43650
X52850Y-32450
X52850Y-34419
X42350Y-38100
X42350Y-40100
X42450Y-47350
X42450Y-49350
X52750Y-46850
X52750Y-49850
X50550Y-46850
X50550Y-49850
X46270Y-28090
X46270Y-29090
X46270Y-30090
X46270Y-31090
X46270Y-32090
X46270Y-33090
X46270Y-34090
X46270Y-35090
X49270Y-28090
X49270Y-29090
X49270Y-30090
X49270Y-31090
X49270Y-32090
X49270Y-33090
X49270Y-34090
X49270Y-35090
X44350Y-28750
X44350Y-30750
X39600Y-33450
X39600Y-35450
X43900Y-40081
X43900Y-42050
X38700Y-28300
X40700Y-28300
X44900Y-47250
X44900Y-49250
X51150Y-39600
X51150Y-41569
X39750Y-51000
X41750Y-51000
X38550Y-31600
X40550Y-31600
X46500Y-47050
X48500Y-47050
X52450Y-39750
X52450Y-41750
X51200Y-32481
X51200Y-34450
X43350Y-32150
X43350Y-34119
X47700Y-36400
X49700Y-36400
X42500Y-28750
X42500Y-30750
X41950Y-33000
X41950Y-34969
X43950Y-36750
X43950Y-38750
X51200Y-29150
X51200Y-31150
X45900Y-38550
X45900Y-39550
X45900Y-40550
X45900Y-41550
X45900Y-42550
X45900Y-43550
X45900Y-44550
X48900Y-38550
X48900Y-39550
X48900Y-40550
X48900Y-41550
X48900Y-42550
X48900Y-43550
X48900Y-44550
X38550Y-29800
X40550Y-29800
X55200Y-40500
X55200Y-42500
X53700Y-39350
X55700Y-39350
X46450Y-49500
X48450Y-49500
T4
X45050Y-52400
X46050Y-52400
X47050Y-52400
X48050Y-52400
X49050Y-52400
X50050Y-52400
X51050Y-52400
X52050Y-52400
T0
M30
