G04 #@! TF.GenerationSoftware,KiCad,Pcbnew,(5.0.1)-rc2*
G04 #@! TF.CreationDate,2018-12-07T18:39:02-05:00*
G04 #@! TF.ProjectId,vcf,7663662E6B696361645F706362000000,rev?*
G04 #@! TF.SameCoordinates,Original*
G04 #@! TF.FileFunction,Soldermask,Top*
G04 #@! TF.FilePolarity,Negative*
%FSLAX46Y46*%
G04 Gerber Fmt 4.6, Leading zero omitted, Abs format (unit mm)*
G04 Created by KiCad (PCBNEW (5.0.1)-rc2) date 12/7/2018 6:39:02 PM*
%MOMM*%
%LPD*%
G01*
G04 APERTURE LIST*
%ADD10C,0.100000*%
G04 APERTURE END LIST*
D10*
G36*
X142685433Y-138461893D02*
X142775657Y-138479839D01*
X142881267Y-138523585D01*
X143030621Y-138585449D01*
X143260089Y-138738774D01*
X143455226Y-138933911D01*
X143608551Y-139163379D01*
X143714161Y-139418344D01*
X143768000Y-139689012D01*
X143768000Y-139964988D01*
X143714161Y-140235656D01*
X143608551Y-140490621D01*
X143455226Y-140720089D01*
X143260089Y-140915226D01*
X143030621Y-141068551D01*
X142881267Y-141130415D01*
X142775657Y-141174161D01*
X142685433Y-141192107D01*
X142504988Y-141228000D01*
X142229012Y-141228000D01*
X142048567Y-141192107D01*
X141958343Y-141174161D01*
X141852733Y-141130415D01*
X141703379Y-141068551D01*
X141473911Y-140915226D01*
X141278774Y-140720089D01*
X141125449Y-140490621D01*
X141019839Y-140235656D01*
X140966000Y-139964988D01*
X140966000Y-139689012D01*
X141019839Y-139418344D01*
X141125449Y-139163379D01*
X141278774Y-138933911D01*
X141473911Y-138738774D01*
X141703379Y-138585449D01*
X141852733Y-138523585D01*
X141958343Y-138479839D01*
X142048567Y-138461893D01*
X142229012Y-138426000D01*
X142504988Y-138426000D01*
X142685433Y-138461893D01*
X142685433Y-138461893D01*
G37*
G36*
X82741433Y-138461893D02*
X82831657Y-138479839D01*
X82937267Y-138523585D01*
X83086621Y-138585449D01*
X83316089Y-138738774D01*
X83511226Y-138933911D01*
X83664551Y-139163379D01*
X83770161Y-139418344D01*
X83824000Y-139689012D01*
X83824000Y-139964988D01*
X83770161Y-140235656D01*
X83664551Y-140490621D01*
X83511226Y-140720089D01*
X83316089Y-140915226D01*
X83086621Y-141068551D01*
X82937267Y-141130415D01*
X82831657Y-141174161D01*
X82741433Y-141192107D01*
X82560988Y-141228000D01*
X82285012Y-141228000D01*
X82104567Y-141192107D01*
X82014343Y-141174161D01*
X81908733Y-141130415D01*
X81759379Y-141068551D01*
X81529911Y-140915226D01*
X81334774Y-140720089D01*
X81181449Y-140490621D01*
X81075839Y-140235656D01*
X81022000Y-139964988D01*
X81022000Y-139689012D01*
X81075839Y-139418344D01*
X81181449Y-139163379D01*
X81334774Y-138933911D01*
X81529911Y-138738774D01*
X81759379Y-138585449D01*
X81908733Y-138523585D01*
X82014343Y-138479839D01*
X82104567Y-138461893D01*
X82285012Y-138426000D01*
X82560988Y-138426000D01*
X82741433Y-138461893D01*
X82741433Y-138461893D01*
G37*
G36*
X82026000Y-134183000D02*
X79724000Y-134183000D01*
X79724000Y-131281000D01*
X82026000Y-131281000D01*
X82026000Y-134183000D01*
X82026000Y-134183000D01*
G37*
G36*
X91726000Y-134183000D02*
X88824000Y-134183000D01*
X88824000Y-131281000D01*
X91726000Y-131281000D01*
X91726000Y-134183000D01*
X91726000Y-134183000D01*
G37*
G36*
X132317442Y-132201518D02*
X132383627Y-132208037D01*
X132496853Y-132242384D01*
X132553467Y-132259557D01*
X132692087Y-132333652D01*
X132709991Y-132343222D01*
X132745729Y-132372552D01*
X132847186Y-132455814D01*
X132930448Y-132557271D01*
X132959778Y-132593009D01*
X132959779Y-132593011D01*
X133043443Y-132749533D01*
X133043443Y-132749534D01*
X133094963Y-132919373D01*
X133112359Y-133096000D01*
X133094963Y-133272627D01*
X133060616Y-133385853D01*
X133043443Y-133442467D01*
X132969348Y-133581087D01*
X132959778Y-133598991D01*
X132930448Y-133634729D01*
X132847186Y-133736186D01*
X132745729Y-133819448D01*
X132709991Y-133848778D01*
X132709989Y-133848779D01*
X132553467Y-133932443D01*
X132496853Y-133949616D01*
X132383627Y-133983963D01*
X132317443Y-133990481D01*
X132251260Y-133997000D01*
X132162740Y-133997000D01*
X132096557Y-133990481D01*
X132030373Y-133983963D01*
X131917147Y-133949616D01*
X131860533Y-133932443D01*
X131704011Y-133848779D01*
X131704009Y-133848778D01*
X131668271Y-133819448D01*
X131566814Y-133736186D01*
X131483552Y-133634729D01*
X131454222Y-133598991D01*
X131444652Y-133581087D01*
X131370557Y-133442467D01*
X131353384Y-133385853D01*
X131319037Y-133272627D01*
X131301641Y-133096000D01*
X131319037Y-132919373D01*
X131370557Y-132749534D01*
X131370557Y-132749533D01*
X131454221Y-132593011D01*
X131454222Y-132593009D01*
X131483552Y-132557271D01*
X131566814Y-132455814D01*
X131668271Y-132372552D01*
X131704009Y-132343222D01*
X131721913Y-132333652D01*
X131860533Y-132259557D01*
X131917147Y-132242384D01*
X132030373Y-132208037D01*
X132096558Y-132201518D01*
X132162740Y-132195000D01*
X132251260Y-132195000D01*
X132317442Y-132201518D01*
X132317442Y-132201518D01*
G37*
G36*
X129777442Y-132201518D02*
X129843627Y-132208037D01*
X129956853Y-132242384D01*
X130013467Y-132259557D01*
X130152087Y-132333652D01*
X130169991Y-132343222D01*
X130205729Y-132372552D01*
X130307186Y-132455814D01*
X130390448Y-132557271D01*
X130419778Y-132593009D01*
X130419779Y-132593011D01*
X130503443Y-132749533D01*
X130503443Y-132749534D01*
X130554963Y-132919373D01*
X130572359Y-133096000D01*
X130554963Y-133272627D01*
X130520616Y-133385853D01*
X130503443Y-133442467D01*
X130429348Y-133581087D01*
X130419778Y-133598991D01*
X130390448Y-133634729D01*
X130307186Y-133736186D01*
X130205729Y-133819448D01*
X130169991Y-133848778D01*
X130169989Y-133848779D01*
X130013467Y-133932443D01*
X129956853Y-133949616D01*
X129843627Y-133983963D01*
X129777443Y-133990481D01*
X129711260Y-133997000D01*
X129622740Y-133997000D01*
X129556557Y-133990481D01*
X129490373Y-133983963D01*
X129377147Y-133949616D01*
X129320533Y-133932443D01*
X129164011Y-133848779D01*
X129164009Y-133848778D01*
X129128271Y-133819448D01*
X129026814Y-133736186D01*
X128943552Y-133634729D01*
X128914222Y-133598991D01*
X128904652Y-133581087D01*
X128830557Y-133442467D01*
X128813384Y-133385853D01*
X128779037Y-133272627D01*
X128761641Y-133096000D01*
X128779037Y-132919373D01*
X128830557Y-132749534D01*
X128830557Y-132749533D01*
X128914221Y-132593011D01*
X128914222Y-132593009D01*
X128943552Y-132557271D01*
X129026814Y-132455814D01*
X129128271Y-132372552D01*
X129164009Y-132343222D01*
X129181913Y-132333652D01*
X129320533Y-132259557D01*
X129377147Y-132242384D01*
X129490373Y-132208037D01*
X129556558Y-132201518D01*
X129622740Y-132195000D01*
X129711260Y-132195000D01*
X129777442Y-132201518D01*
X129777442Y-132201518D01*
G37*
G36*
X127237442Y-132201518D02*
X127303627Y-132208037D01*
X127416853Y-132242384D01*
X127473467Y-132259557D01*
X127612087Y-132333652D01*
X127629991Y-132343222D01*
X127665729Y-132372552D01*
X127767186Y-132455814D01*
X127850448Y-132557271D01*
X127879778Y-132593009D01*
X127879779Y-132593011D01*
X127963443Y-132749533D01*
X127963443Y-132749534D01*
X128014963Y-132919373D01*
X128032359Y-133096000D01*
X128014963Y-133272627D01*
X127980616Y-133385853D01*
X127963443Y-133442467D01*
X127889348Y-133581087D01*
X127879778Y-133598991D01*
X127850448Y-133634729D01*
X127767186Y-133736186D01*
X127665729Y-133819448D01*
X127629991Y-133848778D01*
X127629989Y-133848779D01*
X127473467Y-133932443D01*
X127416853Y-133949616D01*
X127303627Y-133983963D01*
X127237443Y-133990481D01*
X127171260Y-133997000D01*
X127082740Y-133997000D01*
X127016557Y-133990481D01*
X126950373Y-133983963D01*
X126837147Y-133949616D01*
X126780533Y-133932443D01*
X126624011Y-133848779D01*
X126624009Y-133848778D01*
X126588271Y-133819448D01*
X126486814Y-133736186D01*
X126403552Y-133634729D01*
X126374222Y-133598991D01*
X126364652Y-133581087D01*
X126290557Y-133442467D01*
X126273384Y-133385853D01*
X126239037Y-133272627D01*
X126221641Y-133096000D01*
X126239037Y-132919373D01*
X126290557Y-132749534D01*
X126290557Y-132749533D01*
X126374221Y-132593011D01*
X126374222Y-132593009D01*
X126403552Y-132557271D01*
X126486814Y-132455814D01*
X126588271Y-132372552D01*
X126624009Y-132343222D01*
X126641913Y-132333652D01*
X126780533Y-132259557D01*
X126837147Y-132242384D01*
X126950373Y-132208037D01*
X127016558Y-132201518D01*
X127082740Y-132195000D01*
X127171260Y-132195000D01*
X127237442Y-132201518D01*
X127237442Y-132201518D01*
G37*
G36*
X124697442Y-132201518D02*
X124763627Y-132208037D01*
X124876853Y-132242384D01*
X124933467Y-132259557D01*
X125072087Y-132333652D01*
X125089991Y-132343222D01*
X125125729Y-132372552D01*
X125227186Y-132455814D01*
X125310448Y-132557271D01*
X125339778Y-132593009D01*
X125339779Y-132593011D01*
X125423443Y-132749533D01*
X125423443Y-132749534D01*
X125474963Y-132919373D01*
X125492359Y-133096000D01*
X125474963Y-133272627D01*
X125440616Y-133385853D01*
X125423443Y-133442467D01*
X125349348Y-133581087D01*
X125339778Y-133598991D01*
X125310448Y-133634729D01*
X125227186Y-133736186D01*
X125125729Y-133819448D01*
X125089991Y-133848778D01*
X125089989Y-133848779D01*
X124933467Y-133932443D01*
X124876853Y-133949616D01*
X124763627Y-133983963D01*
X124697443Y-133990481D01*
X124631260Y-133997000D01*
X124542740Y-133997000D01*
X124476557Y-133990481D01*
X124410373Y-133983963D01*
X124297147Y-133949616D01*
X124240533Y-133932443D01*
X124084011Y-133848779D01*
X124084009Y-133848778D01*
X124048271Y-133819448D01*
X123946814Y-133736186D01*
X123863552Y-133634729D01*
X123834222Y-133598991D01*
X123824652Y-133581087D01*
X123750557Y-133442467D01*
X123733384Y-133385853D01*
X123699037Y-133272627D01*
X123681641Y-133096000D01*
X123699037Y-132919373D01*
X123750557Y-132749534D01*
X123750557Y-132749533D01*
X123834221Y-132593011D01*
X123834222Y-132593009D01*
X123863552Y-132557271D01*
X123946814Y-132455814D01*
X124048271Y-132372552D01*
X124084009Y-132343222D01*
X124101913Y-132333652D01*
X124240533Y-132259557D01*
X124297147Y-132242384D01*
X124410373Y-132208037D01*
X124476558Y-132201518D01*
X124542740Y-132195000D01*
X124631260Y-132195000D01*
X124697442Y-132201518D01*
X124697442Y-132201518D01*
G37*
G36*
X122157442Y-132201518D02*
X122223627Y-132208037D01*
X122336853Y-132242384D01*
X122393467Y-132259557D01*
X122532087Y-132333652D01*
X122549991Y-132343222D01*
X122585729Y-132372552D01*
X122687186Y-132455814D01*
X122770448Y-132557271D01*
X122799778Y-132593009D01*
X122799779Y-132593011D01*
X122883443Y-132749533D01*
X122883443Y-132749534D01*
X122934963Y-132919373D01*
X122952359Y-133096000D01*
X122934963Y-133272627D01*
X122900616Y-133385853D01*
X122883443Y-133442467D01*
X122809348Y-133581087D01*
X122799778Y-133598991D01*
X122770448Y-133634729D01*
X122687186Y-133736186D01*
X122585729Y-133819448D01*
X122549991Y-133848778D01*
X122549989Y-133848779D01*
X122393467Y-133932443D01*
X122336853Y-133949616D01*
X122223627Y-133983963D01*
X122157443Y-133990481D01*
X122091260Y-133997000D01*
X122002740Y-133997000D01*
X121936557Y-133990481D01*
X121870373Y-133983963D01*
X121757147Y-133949616D01*
X121700533Y-133932443D01*
X121544011Y-133848779D01*
X121544009Y-133848778D01*
X121508271Y-133819448D01*
X121406814Y-133736186D01*
X121323552Y-133634729D01*
X121294222Y-133598991D01*
X121284652Y-133581087D01*
X121210557Y-133442467D01*
X121193384Y-133385853D01*
X121159037Y-133272627D01*
X121141641Y-133096000D01*
X121159037Y-132919373D01*
X121210557Y-132749534D01*
X121210557Y-132749533D01*
X121294221Y-132593011D01*
X121294222Y-132593009D01*
X121323552Y-132557271D01*
X121406814Y-132455814D01*
X121508271Y-132372552D01*
X121544009Y-132343222D01*
X121561913Y-132333652D01*
X121700533Y-132259557D01*
X121757147Y-132242384D01*
X121870373Y-132208037D01*
X121936558Y-132201518D01*
X122002740Y-132195000D01*
X122091260Y-132195000D01*
X122157442Y-132201518D01*
X122157442Y-132201518D01*
G37*
G36*
X117077442Y-132201518D02*
X117143627Y-132208037D01*
X117256853Y-132242384D01*
X117313467Y-132259557D01*
X117452087Y-132333652D01*
X117469991Y-132343222D01*
X117505729Y-132372552D01*
X117607186Y-132455814D01*
X117690448Y-132557271D01*
X117719778Y-132593009D01*
X117719779Y-132593011D01*
X117803443Y-132749533D01*
X117803443Y-132749534D01*
X117854963Y-132919373D01*
X117872359Y-133096000D01*
X117854963Y-133272627D01*
X117820616Y-133385853D01*
X117803443Y-133442467D01*
X117729348Y-133581087D01*
X117719778Y-133598991D01*
X117690448Y-133634729D01*
X117607186Y-133736186D01*
X117505729Y-133819448D01*
X117469991Y-133848778D01*
X117469989Y-133848779D01*
X117313467Y-133932443D01*
X117256853Y-133949616D01*
X117143627Y-133983963D01*
X117077443Y-133990481D01*
X117011260Y-133997000D01*
X116922740Y-133997000D01*
X116856557Y-133990481D01*
X116790373Y-133983963D01*
X116677147Y-133949616D01*
X116620533Y-133932443D01*
X116464011Y-133848779D01*
X116464009Y-133848778D01*
X116428271Y-133819448D01*
X116326814Y-133736186D01*
X116243552Y-133634729D01*
X116214222Y-133598991D01*
X116204652Y-133581087D01*
X116130557Y-133442467D01*
X116113384Y-133385853D01*
X116079037Y-133272627D01*
X116061641Y-133096000D01*
X116079037Y-132919373D01*
X116130557Y-132749534D01*
X116130557Y-132749533D01*
X116214221Y-132593011D01*
X116214222Y-132593009D01*
X116243552Y-132557271D01*
X116326814Y-132455814D01*
X116428271Y-132372552D01*
X116464009Y-132343222D01*
X116481913Y-132333652D01*
X116620533Y-132259557D01*
X116677147Y-132242384D01*
X116790373Y-132208037D01*
X116856558Y-132201518D01*
X116922740Y-132195000D01*
X117011260Y-132195000D01*
X117077442Y-132201518D01*
X117077442Y-132201518D01*
G37*
G36*
X115328000Y-133997000D02*
X113526000Y-133997000D01*
X113526000Y-132195000D01*
X115328000Y-132195000D01*
X115328000Y-133997000D01*
X115328000Y-133997000D01*
G37*
G36*
X119617442Y-132201518D02*
X119683627Y-132208037D01*
X119796853Y-132242384D01*
X119853467Y-132259557D01*
X119992087Y-132333652D01*
X120009991Y-132343222D01*
X120045729Y-132372552D01*
X120147186Y-132455814D01*
X120230448Y-132557271D01*
X120259778Y-132593009D01*
X120259779Y-132593011D01*
X120343443Y-132749533D01*
X120343443Y-132749534D01*
X120394963Y-132919373D01*
X120412359Y-133096000D01*
X120394963Y-133272627D01*
X120360616Y-133385853D01*
X120343443Y-133442467D01*
X120269348Y-133581087D01*
X120259778Y-133598991D01*
X120230448Y-133634729D01*
X120147186Y-133736186D01*
X120045729Y-133819448D01*
X120009991Y-133848778D01*
X120009989Y-133848779D01*
X119853467Y-133932443D01*
X119796853Y-133949616D01*
X119683627Y-133983963D01*
X119617443Y-133990481D01*
X119551260Y-133997000D01*
X119462740Y-133997000D01*
X119396557Y-133990481D01*
X119330373Y-133983963D01*
X119217147Y-133949616D01*
X119160533Y-133932443D01*
X119004011Y-133848779D01*
X119004009Y-133848778D01*
X118968271Y-133819448D01*
X118866814Y-133736186D01*
X118783552Y-133634729D01*
X118754222Y-133598991D01*
X118744652Y-133581087D01*
X118670557Y-133442467D01*
X118653384Y-133385853D01*
X118619037Y-133272627D01*
X118601641Y-133096000D01*
X118619037Y-132919373D01*
X118670557Y-132749534D01*
X118670557Y-132749533D01*
X118754221Y-132593011D01*
X118754222Y-132593009D01*
X118783552Y-132557271D01*
X118866814Y-132455814D01*
X118968271Y-132372552D01*
X119004009Y-132343222D01*
X119021913Y-132333652D01*
X119160533Y-132259557D01*
X119217147Y-132242384D01*
X119330373Y-132208037D01*
X119396558Y-132201518D01*
X119462740Y-132195000D01*
X119551260Y-132195000D01*
X119617442Y-132201518D01*
X119617442Y-132201518D01*
G37*
G36*
X106211821Y-128701313D02*
X106211824Y-128701314D01*
X106211825Y-128701314D01*
X106372239Y-128749975D01*
X106372241Y-128749976D01*
X106372244Y-128749977D01*
X106520078Y-128828995D01*
X106649659Y-128935341D01*
X106756005Y-129064922D01*
X106835023Y-129212756D01*
X106835024Y-129212759D01*
X106835025Y-129212761D01*
X106859915Y-129294812D01*
X106883687Y-129373179D01*
X106900117Y-129540000D01*
X106883687Y-129706821D01*
X106883686Y-129706824D01*
X106883686Y-129706825D01*
X106858993Y-129788228D01*
X106835023Y-129867244D01*
X106756005Y-130015078D01*
X106649659Y-130144659D01*
X106520078Y-130251005D01*
X106372244Y-130330023D01*
X106372241Y-130330024D01*
X106372239Y-130330025D01*
X106211825Y-130378686D01*
X106211824Y-130378686D01*
X106211821Y-130378687D01*
X106086804Y-130391000D01*
X106003196Y-130391000D01*
X105878179Y-130378687D01*
X105878176Y-130378686D01*
X105878175Y-130378686D01*
X105717761Y-130330025D01*
X105717759Y-130330024D01*
X105717756Y-130330023D01*
X105569922Y-130251005D01*
X105440341Y-130144659D01*
X105333995Y-130015078D01*
X105254977Y-129867244D01*
X105231008Y-129788228D01*
X105206314Y-129706825D01*
X105206314Y-129706824D01*
X105206313Y-129706821D01*
X105189883Y-129540000D01*
X105206313Y-129373179D01*
X105230085Y-129294812D01*
X105254975Y-129212761D01*
X105254976Y-129212759D01*
X105254977Y-129212756D01*
X105333995Y-129064922D01*
X105440341Y-128935341D01*
X105569922Y-128828995D01*
X105717756Y-128749977D01*
X105717759Y-128749976D01*
X105717761Y-128749975D01*
X105878175Y-128701314D01*
X105878176Y-128701314D01*
X105878179Y-128701313D01*
X106003196Y-128689000D01*
X106086804Y-128689000D01*
X106211821Y-128701313D01*
X106211821Y-128701313D01*
G37*
G36*
X101213228Y-128721703D02*
X101368100Y-128785853D01*
X101507481Y-128878985D01*
X101626015Y-128997519D01*
X101719147Y-129136900D01*
X101783297Y-129291772D01*
X101816000Y-129456184D01*
X101816000Y-129623816D01*
X101783297Y-129788228D01*
X101719147Y-129943100D01*
X101626015Y-130082481D01*
X101507481Y-130201015D01*
X101368100Y-130294147D01*
X101213228Y-130358297D01*
X101048816Y-130391000D01*
X100881184Y-130391000D01*
X100716772Y-130358297D01*
X100561900Y-130294147D01*
X100422519Y-130201015D01*
X100303985Y-130082481D01*
X100210853Y-129943100D01*
X100146703Y-129788228D01*
X100114000Y-129623816D01*
X100114000Y-129456184D01*
X100146703Y-129291772D01*
X100210853Y-129136900D01*
X100303985Y-128997519D01*
X100422519Y-128878985D01*
X100561900Y-128785853D01*
X100716772Y-128721703D01*
X100881184Y-128689000D01*
X101048816Y-128689000D01*
X101213228Y-128721703D01*
X101213228Y-128721703D01*
G37*
G36*
X89237812Y-128165624D02*
X89401784Y-128233544D01*
X89549354Y-128332147D01*
X89674853Y-128457646D01*
X89773456Y-128605216D01*
X89841376Y-128769188D01*
X89876000Y-128943259D01*
X89876000Y-129120741D01*
X89841376Y-129294812D01*
X89773456Y-129458784D01*
X89674853Y-129606354D01*
X89549354Y-129731853D01*
X89401784Y-129830456D01*
X89237812Y-129898376D01*
X89063741Y-129933000D01*
X88886259Y-129933000D01*
X88712188Y-129898376D01*
X88548216Y-129830456D01*
X88400646Y-129731853D01*
X88275147Y-129606354D01*
X88176544Y-129458784D01*
X88108624Y-129294812D01*
X88074000Y-129120741D01*
X88074000Y-128943259D01*
X88108624Y-128769188D01*
X88176544Y-128605216D01*
X88275147Y-128457646D01*
X88400646Y-128332147D01*
X88548216Y-128233544D01*
X88712188Y-128165624D01*
X88886259Y-128131000D01*
X89063741Y-128131000D01*
X89237812Y-128165624D01*
X89237812Y-128165624D01*
G37*
G36*
X82237812Y-128165624D02*
X82401784Y-128233544D01*
X82549354Y-128332147D01*
X82674853Y-128457646D01*
X82773456Y-128605216D01*
X82841376Y-128769188D01*
X82876000Y-128943259D01*
X82876000Y-129120741D01*
X82841376Y-129294812D01*
X82773456Y-129458784D01*
X82674853Y-129606354D01*
X82549354Y-129731853D01*
X82401784Y-129830456D01*
X82237812Y-129898376D01*
X82063741Y-129933000D01*
X81886259Y-129933000D01*
X81712188Y-129898376D01*
X81548216Y-129830456D01*
X81400646Y-129731853D01*
X81275147Y-129606354D01*
X81176544Y-129458784D01*
X81108624Y-129294812D01*
X81074000Y-129120741D01*
X81074000Y-128943259D01*
X81108624Y-128769188D01*
X81176544Y-128605216D01*
X81275147Y-128457646D01*
X81400646Y-128332147D01*
X81548216Y-128233544D01*
X81712188Y-128165624D01*
X81886259Y-128131000D01*
X82063741Y-128131000D01*
X82237812Y-128165624D01*
X82237812Y-128165624D01*
G37*
G36*
X95626000Y-129733000D02*
X92924000Y-129733000D01*
X92924000Y-126831000D01*
X95626000Y-126831000D01*
X95626000Y-129733000D01*
X95626000Y-129733000D01*
G37*
G36*
X128563821Y-125780313D02*
X128563824Y-125780314D01*
X128563825Y-125780314D01*
X128724239Y-125828975D01*
X128724241Y-125828976D01*
X128724244Y-125828977D01*
X128872078Y-125907995D01*
X129001659Y-126014341D01*
X129108005Y-126143922D01*
X129187023Y-126291756D01*
X129187024Y-126291759D01*
X129187025Y-126291761D01*
X129235686Y-126452175D01*
X129235687Y-126452179D01*
X129252117Y-126619000D01*
X129235687Y-126785821D01*
X129187023Y-126946244D01*
X129108005Y-127094078D01*
X129001659Y-127223659D01*
X128872078Y-127330005D01*
X128724244Y-127409023D01*
X128724241Y-127409024D01*
X128724239Y-127409025D01*
X128563825Y-127457686D01*
X128563824Y-127457686D01*
X128563821Y-127457687D01*
X128438804Y-127470000D01*
X128355196Y-127470000D01*
X128230179Y-127457687D01*
X128230176Y-127457686D01*
X128230175Y-127457686D01*
X128069761Y-127409025D01*
X128069759Y-127409024D01*
X128069756Y-127409023D01*
X127921922Y-127330005D01*
X127792341Y-127223659D01*
X127685995Y-127094078D01*
X127606977Y-126946244D01*
X127558313Y-126785821D01*
X127541883Y-126619000D01*
X127558313Y-126452179D01*
X127558314Y-126452175D01*
X127606975Y-126291761D01*
X127606976Y-126291759D01*
X127606977Y-126291756D01*
X127685995Y-126143922D01*
X127792341Y-126014341D01*
X127921922Y-125907995D01*
X128069756Y-125828977D01*
X128069759Y-125828976D01*
X128069761Y-125828975D01*
X128230175Y-125780314D01*
X128230176Y-125780314D01*
X128230179Y-125780313D01*
X128355196Y-125768000D01*
X128438804Y-125768000D01*
X128563821Y-125780313D01*
X128563821Y-125780313D01*
G37*
G36*
X134836000Y-127470000D02*
X133134000Y-127470000D01*
X133134000Y-125768000D01*
X134836000Y-125768000D01*
X134836000Y-127470000D01*
X134836000Y-127470000D01*
G37*
G36*
X118149821Y-124891313D02*
X118149824Y-124891314D01*
X118149825Y-124891314D01*
X118310239Y-124939975D01*
X118310241Y-124939976D01*
X118310244Y-124939977D01*
X118458078Y-125018995D01*
X118587659Y-125125341D01*
X118694005Y-125254922D01*
X118773023Y-125402756D01*
X118773024Y-125402759D01*
X118773025Y-125402761D01*
X118821686Y-125563175D01*
X118821687Y-125563179D01*
X118838117Y-125730000D01*
X118821687Y-125896821D01*
X118821686Y-125896824D01*
X118821686Y-125896825D01*
X118787351Y-126010014D01*
X118773023Y-126057244D01*
X118694005Y-126205078D01*
X118587659Y-126334659D01*
X118458078Y-126441005D01*
X118310244Y-126520023D01*
X118310241Y-126520024D01*
X118310239Y-126520025D01*
X118149825Y-126568686D01*
X118149824Y-126568686D01*
X118149821Y-126568687D01*
X118024804Y-126581000D01*
X117941196Y-126581000D01*
X117816179Y-126568687D01*
X117816176Y-126568686D01*
X117816175Y-126568686D01*
X117655761Y-126520025D01*
X117655759Y-126520024D01*
X117655756Y-126520023D01*
X117507922Y-126441005D01*
X117378341Y-126334659D01*
X117271995Y-126205078D01*
X117192977Y-126057244D01*
X117178650Y-126010014D01*
X117144314Y-125896825D01*
X117144314Y-125896824D01*
X117144313Y-125896821D01*
X117127883Y-125730000D01*
X117144313Y-125563179D01*
X117144314Y-125563175D01*
X117192975Y-125402761D01*
X117192976Y-125402759D01*
X117192977Y-125402756D01*
X117271995Y-125254922D01*
X117378341Y-125125341D01*
X117507922Y-125018995D01*
X117655756Y-124939977D01*
X117655759Y-124939976D01*
X117655761Y-124939975D01*
X117816175Y-124891314D01*
X117816176Y-124891314D01*
X117816179Y-124891313D01*
X117941196Y-124879000D01*
X118024804Y-124879000D01*
X118149821Y-124891313D01*
X118149821Y-124891313D01*
G37*
G36*
X123311228Y-124911703D02*
X123466100Y-124975853D01*
X123605481Y-125068985D01*
X123724015Y-125187519D01*
X123817147Y-125326900D01*
X123881297Y-125481772D01*
X123914000Y-125646184D01*
X123914000Y-125813816D01*
X123881297Y-125978228D01*
X123817147Y-126133100D01*
X123724015Y-126272481D01*
X123605481Y-126391015D01*
X123466100Y-126484147D01*
X123311228Y-126548297D01*
X123146816Y-126581000D01*
X122979184Y-126581000D01*
X122814772Y-126548297D01*
X122659900Y-126484147D01*
X122520519Y-126391015D01*
X122401985Y-126272481D01*
X122308853Y-126133100D01*
X122244703Y-125978228D01*
X122212000Y-125813816D01*
X122212000Y-125646184D01*
X122244703Y-125481772D01*
X122308853Y-125326900D01*
X122401985Y-125187519D01*
X122520519Y-125068985D01*
X122659900Y-124975853D01*
X122814772Y-124911703D01*
X122979184Y-124879000D01*
X123146816Y-124879000D01*
X123311228Y-124911703D01*
X123311228Y-124911703D01*
G37*
G36*
X108071228Y-124530703D02*
X108226100Y-124594853D01*
X108365481Y-124687985D01*
X108484015Y-124806519D01*
X108577147Y-124945900D01*
X108641297Y-125100772D01*
X108674000Y-125265184D01*
X108674000Y-125432816D01*
X108641297Y-125597228D01*
X108577147Y-125752100D01*
X108484015Y-125891481D01*
X108365481Y-126010015D01*
X108226100Y-126103147D01*
X108071228Y-126167297D01*
X107906816Y-126200000D01*
X107739184Y-126200000D01*
X107574772Y-126167297D01*
X107419900Y-126103147D01*
X107280519Y-126010015D01*
X107161985Y-125891481D01*
X107068853Y-125752100D01*
X107004703Y-125597228D01*
X106972000Y-125432816D01*
X106972000Y-125265184D01*
X107004703Y-125100772D01*
X107068853Y-124945900D01*
X107161985Y-124806519D01*
X107280519Y-124687985D01*
X107419900Y-124594853D01*
X107574772Y-124530703D01*
X107739184Y-124498000D01*
X107906816Y-124498000D01*
X108071228Y-124530703D01*
X108071228Y-124530703D01*
G37*
G36*
X114294228Y-124276703D02*
X114449100Y-124340853D01*
X114588481Y-124433985D01*
X114707015Y-124552519D01*
X114800147Y-124691900D01*
X114864297Y-124846772D01*
X114897000Y-125011184D01*
X114897000Y-125178816D01*
X114864297Y-125343228D01*
X114800147Y-125498100D01*
X114707015Y-125637481D01*
X114588481Y-125756015D01*
X114449100Y-125849147D01*
X114294228Y-125913297D01*
X114129816Y-125946000D01*
X113962184Y-125946000D01*
X113797772Y-125913297D01*
X113642900Y-125849147D01*
X113503519Y-125756015D01*
X113384985Y-125637481D01*
X113291853Y-125498100D01*
X113227703Y-125343228D01*
X113195000Y-125178816D01*
X113195000Y-125011184D01*
X113227703Y-124846772D01*
X113291853Y-124691900D01*
X113384985Y-124552519D01*
X113503519Y-124433985D01*
X113642900Y-124340853D01*
X113797772Y-124276703D01*
X113962184Y-124244000D01*
X114129816Y-124244000D01*
X114294228Y-124276703D01*
X114294228Y-124276703D01*
G37*
G36*
X141863242Y-123686404D02*
X141900339Y-123697657D01*
X141934520Y-123715927D01*
X141964482Y-123740518D01*
X141989073Y-123770480D01*
X142007343Y-123804661D01*
X142018596Y-123841758D01*
X142023000Y-123886473D01*
X142023000Y-124779527D01*
X142018596Y-124824242D01*
X142007343Y-124861339D01*
X141989073Y-124895520D01*
X141964482Y-124925482D01*
X141934520Y-124950073D01*
X141900339Y-124968343D01*
X141863242Y-124979596D01*
X141818527Y-124984000D01*
X140375473Y-124984000D01*
X140330758Y-124979596D01*
X140293661Y-124968343D01*
X140259480Y-124950073D01*
X140229518Y-124925482D01*
X140204927Y-124895520D01*
X140186657Y-124861339D01*
X140175404Y-124824242D01*
X140171000Y-124779527D01*
X140171000Y-123886473D01*
X140175404Y-123841758D01*
X140186657Y-123804661D01*
X140204927Y-123770480D01*
X140229518Y-123740518D01*
X140259480Y-123715927D01*
X140293661Y-123697657D01*
X140330758Y-123686404D01*
X140375473Y-123682000D01*
X141818527Y-123682000D01*
X141863242Y-123686404D01*
X141863242Y-123686404D01*
G37*
G36*
X141423539Y-121683927D02*
X141499618Y-121691420D01*
X141555982Y-121708518D01*
X141622333Y-121728645D01*
X141700733Y-121770551D01*
X141735426Y-121789095D01*
X141834553Y-121870447D01*
X141915905Y-121969574D01*
X141915906Y-121969576D01*
X141976355Y-122082667D01*
X141976355Y-122082668D01*
X142013580Y-122205382D01*
X142026149Y-122333000D01*
X142013580Y-122460618D01*
X141988763Y-122542427D01*
X141976355Y-122583333D01*
X141924283Y-122680751D01*
X141915905Y-122696426D01*
X141834553Y-122795553D01*
X141735426Y-122876905D01*
X141735424Y-122876906D01*
X141622333Y-122937355D01*
X141591236Y-122946788D01*
X141499618Y-122974580D01*
X141435855Y-122980860D01*
X141403974Y-122984000D01*
X140790026Y-122984000D01*
X140758145Y-122980860D01*
X140694382Y-122974580D01*
X140602764Y-122946788D01*
X140571667Y-122937355D01*
X140458576Y-122876906D01*
X140458574Y-122876905D01*
X140359447Y-122795553D01*
X140278095Y-122696426D01*
X140269717Y-122680751D01*
X140217645Y-122583333D01*
X140205237Y-122542427D01*
X140180420Y-122460618D01*
X140167851Y-122333000D01*
X140180420Y-122205382D01*
X140217645Y-122082668D01*
X140217645Y-122082667D01*
X140278094Y-121969576D01*
X140278095Y-121969574D01*
X140359447Y-121870447D01*
X140458574Y-121789095D01*
X140493267Y-121770551D01*
X140571667Y-121728645D01*
X140638018Y-121708518D01*
X140694382Y-121691420D01*
X140770461Y-121683927D01*
X140790026Y-121682000D01*
X141403974Y-121682000D01*
X141423539Y-121683927D01*
X141423539Y-121683927D01*
G37*
G36*
X100969242Y-121654404D02*
X101006339Y-121665657D01*
X101040520Y-121683927D01*
X101070482Y-121708518D01*
X101095073Y-121738480D01*
X101113343Y-121772661D01*
X101124596Y-121809758D01*
X101129000Y-121854473D01*
X101129000Y-122747527D01*
X101124596Y-122792242D01*
X101113343Y-122829339D01*
X101095073Y-122863520D01*
X101070482Y-122893482D01*
X101040520Y-122918073D01*
X101006339Y-122936343D01*
X100969242Y-122947596D01*
X100924527Y-122952000D01*
X99481473Y-122952000D01*
X99436758Y-122947596D01*
X99399661Y-122936343D01*
X99365480Y-122918073D01*
X99335518Y-122893482D01*
X99310927Y-122863520D01*
X99292657Y-122829339D01*
X99281404Y-122792242D01*
X99277000Y-122747527D01*
X99277000Y-121854473D01*
X99281404Y-121809758D01*
X99292657Y-121772661D01*
X99310927Y-121738480D01*
X99335518Y-121708518D01*
X99365480Y-121683927D01*
X99399661Y-121665657D01*
X99436758Y-121654404D01*
X99481473Y-121650000D01*
X100924527Y-121650000D01*
X100969242Y-121654404D01*
X100969242Y-121654404D01*
G37*
G36*
X107989821Y-119430313D02*
X107989824Y-119430314D01*
X107989825Y-119430314D01*
X108150239Y-119478975D01*
X108150241Y-119478976D01*
X108150244Y-119478977D01*
X108298078Y-119557995D01*
X108427659Y-119664341D01*
X108534005Y-119793922D01*
X108613023Y-119941756D01*
X108613024Y-119941759D01*
X108613025Y-119941761D01*
X108656779Y-120086000D01*
X108661687Y-120102179D01*
X108678117Y-120269000D01*
X108661687Y-120435821D01*
X108661686Y-120435824D01*
X108661686Y-120435825D01*
X108645229Y-120490078D01*
X108613023Y-120596244D01*
X108534005Y-120744078D01*
X108427659Y-120873659D01*
X108298078Y-120980005D01*
X108150244Y-121059023D01*
X108150241Y-121059024D01*
X108150239Y-121059025D01*
X107989825Y-121107686D01*
X107989824Y-121107686D01*
X107989821Y-121107687D01*
X107864804Y-121120000D01*
X107781196Y-121120000D01*
X107656179Y-121107687D01*
X107656176Y-121107686D01*
X107656175Y-121107686D01*
X107495761Y-121059025D01*
X107495759Y-121059024D01*
X107495756Y-121059023D01*
X107347922Y-120980005D01*
X107218341Y-120873659D01*
X107111995Y-120744078D01*
X107032977Y-120596244D01*
X107000772Y-120490078D01*
X106984314Y-120435825D01*
X106984314Y-120435824D01*
X106984313Y-120435821D01*
X106967883Y-120269000D01*
X106984313Y-120102179D01*
X106989221Y-120086000D01*
X107032975Y-119941761D01*
X107032976Y-119941759D01*
X107032977Y-119941756D01*
X107111995Y-119793922D01*
X107218341Y-119664341D01*
X107347922Y-119557995D01*
X107495756Y-119478977D01*
X107495759Y-119478976D01*
X107495761Y-119478975D01*
X107656175Y-119430314D01*
X107656176Y-119430314D01*
X107656179Y-119430313D01*
X107781196Y-119418000D01*
X107864804Y-119418000D01*
X107989821Y-119430313D01*
X107989821Y-119430313D01*
G37*
G36*
X141435855Y-119685140D02*
X141499618Y-119691420D01*
X141560881Y-119710004D01*
X141622333Y-119728645D01*
X141722491Y-119782181D01*
X141735426Y-119789095D01*
X141834553Y-119870447D01*
X141915905Y-119969574D01*
X141915906Y-119969576D01*
X141976355Y-120082667D01*
X141982274Y-120102179D01*
X142013580Y-120205382D01*
X142026149Y-120333000D01*
X142013580Y-120460618D01*
X142004643Y-120490078D01*
X141976355Y-120583333D01*
X141933009Y-120664426D01*
X141915905Y-120696426D01*
X141834553Y-120795553D01*
X141735426Y-120876905D01*
X141735424Y-120876906D01*
X141622333Y-120937355D01*
X141605108Y-120942580D01*
X141499618Y-120974580D01*
X141444546Y-120980004D01*
X141403974Y-120984000D01*
X140790026Y-120984000D01*
X140749454Y-120980004D01*
X140694382Y-120974580D01*
X140588892Y-120942580D01*
X140571667Y-120937355D01*
X140458576Y-120876906D01*
X140458574Y-120876905D01*
X140359447Y-120795553D01*
X140278095Y-120696426D01*
X140260991Y-120664426D01*
X140217645Y-120583333D01*
X140189357Y-120490078D01*
X140180420Y-120460618D01*
X140167851Y-120333000D01*
X140180420Y-120205382D01*
X140211726Y-120102179D01*
X140217645Y-120082667D01*
X140278094Y-119969576D01*
X140278095Y-119969574D01*
X140359447Y-119870447D01*
X140458574Y-119789095D01*
X140471509Y-119782181D01*
X140571667Y-119728645D01*
X140633119Y-119710004D01*
X140694382Y-119691420D01*
X140758145Y-119685140D01*
X140790026Y-119682000D01*
X141403974Y-119682000D01*
X141435855Y-119685140D01*
X141435855Y-119685140D01*
G37*
G36*
X100541855Y-119653140D02*
X100605618Y-119659420D01*
X100680054Y-119682000D01*
X100728333Y-119696645D01*
X100788200Y-119728645D01*
X100841426Y-119757095D01*
X100940553Y-119838447D01*
X101021905Y-119937574D01*
X101021906Y-119937576D01*
X101082355Y-120050667D01*
X101082355Y-120050668D01*
X101119580Y-120173382D01*
X101132149Y-120301000D01*
X101119580Y-120428618D01*
X101109873Y-120460616D01*
X101082355Y-120551333D01*
X101028819Y-120651491D01*
X101021905Y-120664426D01*
X100940553Y-120763553D01*
X100841426Y-120844905D01*
X100841424Y-120844906D01*
X100728333Y-120905355D01*
X100687427Y-120917763D01*
X100605618Y-120942580D01*
X100541855Y-120948860D01*
X100509974Y-120952000D01*
X99896026Y-120952000D01*
X99864145Y-120948860D01*
X99800382Y-120942580D01*
X99718573Y-120917763D01*
X99677667Y-120905355D01*
X99564576Y-120844906D01*
X99564574Y-120844905D01*
X99465447Y-120763553D01*
X99384095Y-120664426D01*
X99377181Y-120651491D01*
X99323645Y-120551333D01*
X99296127Y-120460616D01*
X99286420Y-120428618D01*
X99273851Y-120301000D01*
X99286420Y-120173382D01*
X99323645Y-120050668D01*
X99323645Y-120050667D01*
X99384094Y-119937576D01*
X99384095Y-119937574D01*
X99465447Y-119838447D01*
X99564574Y-119757095D01*
X99617800Y-119728645D01*
X99677667Y-119696645D01*
X99725946Y-119682000D01*
X99800382Y-119659420D01*
X99864145Y-119653140D01*
X99896026Y-119650000D01*
X100509974Y-119650000D01*
X100541855Y-119653140D01*
X100541855Y-119653140D01*
G37*
G36*
X114212821Y-119176313D02*
X114212824Y-119176314D01*
X114212825Y-119176314D01*
X114373239Y-119224975D01*
X114373241Y-119224976D01*
X114373244Y-119224977D01*
X114521078Y-119303995D01*
X114650659Y-119410341D01*
X114757005Y-119539922D01*
X114836023Y-119687756D01*
X114836024Y-119687759D01*
X114836025Y-119687761D01*
X114881735Y-119838447D01*
X114884687Y-119848179D01*
X114901117Y-120015000D01*
X114884687Y-120181821D01*
X114884686Y-120181824D01*
X114884686Y-120181825D01*
X114838828Y-120333000D01*
X114836023Y-120342244D01*
X114757005Y-120490078D01*
X114650659Y-120619659D01*
X114521078Y-120726005D01*
X114373244Y-120805023D01*
X114373241Y-120805024D01*
X114373239Y-120805025D01*
X114212825Y-120853686D01*
X114212824Y-120853686D01*
X114212821Y-120853687D01*
X114087804Y-120866000D01*
X114004196Y-120866000D01*
X113879179Y-120853687D01*
X113879176Y-120853686D01*
X113879175Y-120853686D01*
X113718761Y-120805025D01*
X113718759Y-120805024D01*
X113718756Y-120805023D01*
X113570922Y-120726005D01*
X113441341Y-120619659D01*
X113334995Y-120490078D01*
X113255977Y-120342244D01*
X113253173Y-120333000D01*
X113207314Y-120181825D01*
X113207314Y-120181824D01*
X113207313Y-120181821D01*
X113190883Y-120015000D01*
X113207313Y-119848179D01*
X113210265Y-119838447D01*
X113255975Y-119687761D01*
X113255976Y-119687759D01*
X113255977Y-119687756D01*
X113334995Y-119539922D01*
X113441341Y-119410341D01*
X113570922Y-119303995D01*
X113718756Y-119224977D01*
X113718759Y-119224976D01*
X113718761Y-119224975D01*
X113879175Y-119176314D01*
X113879176Y-119176314D01*
X113879179Y-119176313D01*
X114004196Y-119164000D01*
X114087804Y-119164000D01*
X114212821Y-119176313D01*
X114212821Y-119176313D01*
G37*
G36*
X123438228Y-118688703D02*
X123593100Y-118752853D01*
X123732481Y-118845985D01*
X123851015Y-118964519D01*
X123944147Y-119103900D01*
X124008297Y-119258772D01*
X124041000Y-119423184D01*
X124041000Y-119590816D01*
X124008297Y-119755228D01*
X123944147Y-119910100D01*
X123851015Y-120049481D01*
X123732481Y-120168015D01*
X123593100Y-120261147D01*
X123438228Y-120325297D01*
X123273816Y-120358000D01*
X123106184Y-120358000D01*
X122941772Y-120325297D01*
X122786900Y-120261147D01*
X122647519Y-120168015D01*
X122528985Y-120049481D01*
X122435853Y-119910100D01*
X122371703Y-119755228D01*
X122339000Y-119590816D01*
X122339000Y-119423184D01*
X122371703Y-119258772D01*
X122435853Y-119103900D01*
X122528985Y-118964519D01*
X122647519Y-118845985D01*
X122786900Y-118752853D01*
X122941772Y-118688703D01*
X123106184Y-118656000D01*
X123273816Y-118656000D01*
X123438228Y-118688703D01*
X123438228Y-118688703D01*
G37*
G36*
X118276821Y-118668313D02*
X118276824Y-118668314D01*
X118276825Y-118668314D01*
X118437239Y-118716975D01*
X118437241Y-118716976D01*
X118437244Y-118716977D01*
X118585078Y-118795995D01*
X118714659Y-118902341D01*
X118821005Y-119031922D01*
X118900023Y-119179756D01*
X118900024Y-119179759D01*
X118900025Y-119179761D01*
X118944460Y-119326244D01*
X118948687Y-119340179D01*
X118965117Y-119507000D01*
X118948687Y-119673821D01*
X118948686Y-119673824D01*
X118948686Y-119673825D01*
X118913720Y-119789094D01*
X118900023Y-119834244D01*
X118821005Y-119982078D01*
X118714659Y-120111659D01*
X118585078Y-120218005D01*
X118437244Y-120297023D01*
X118437241Y-120297024D01*
X118437239Y-120297025D01*
X118276825Y-120345686D01*
X118276824Y-120345686D01*
X118276821Y-120345687D01*
X118151804Y-120358000D01*
X118068196Y-120358000D01*
X117943179Y-120345687D01*
X117943176Y-120345686D01*
X117943175Y-120345686D01*
X117782761Y-120297025D01*
X117782759Y-120297024D01*
X117782756Y-120297023D01*
X117634922Y-120218005D01*
X117505341Y-120111659D01*
X117398995Y-119982078D01*
X117319977Y-119834244D01*
X117306281Y-119789094D01*
X117271314Y-119673825D01*
X117271314Y-119673824D01*
X117271313Y-119673821D01*
X117254883Y-119507000D01*
X117271313Y-119340179D01*
X117275540Y-119326244D01*
X117319975Y-119179761D01*
X117319976Y-119179759D01*
X117319977Y-119179756D01*
X117398995Y-119031922D01*
X117505341Y-118902341D01*
X117634922Y-118795995D01*
X117782756Y-118716977D01*
X117782759Y-118716976D01*
X117782761Y-118716975D01*
X117943175Y-118668314D01*
X117943176Y-118668314D01*
X117943179Y-118668313D01*
X118068196Y-118656000D01*
X118151804Y-118656000D01*
X118276821Y-118668313D01*
X118276821Y-118668313D01*
G37*
G36*
X91726000Y-120086000D02*
X88824000Y-120086000D01*
X88824000Y-117184000D01*
X91726000Y-117184000D01*
X91726000Y-120086000D01*
X91726000Y-120086000D01*
G37*
G36*
X82026000Y-120086000D02*
X79724000Y-120086000D01*
X79724000Y-117184000D01*
X82026000Y-117184000D01*
X82026000Y-120086000D01*
X82026000Y-120086000D01*
G37*
G36*
X129248000Y-119850000D02*
X127546000Y-119850000D01*
X127546000Y-118148000D01*
X129248000Y-118148000D01*
X129248000Y-119850000D01*
X129248000Y-119850000D01*
G37*
G36*
X134151821Y-118160313D02*
X134151824Y-118160314D01*
X134151825Y-118160314D01*
X134312239Y-118208975D01*
X134312241Y-118208976D01*
X134312244Y-118208977D01*
X134460078Y-118287995D01*
X134589659Y-118394341D01*
X134696005Y-118523922D01*
X134775023Y-118671756D01*
X134775024Y-118671759D01*
X134775025Y-118671761D01*
X134812711Y-118795995D01*
X134823687Y-118832179D01*
X134840117Y-118999000D01*
X134823687Y-119165821D01*
X134823686Y-119165824D01*
X134823686Y-119165825D01*
X134781773Y-119303995D01*
X134775023Y-119326244D01*
X134696005Y-119474078D01*
X134589659Y-119603659D01*
X134460078Y-119710005D01*
X134312244Y-119789023D01*
X134312241Y-119789024D01*
X134312239Y-119789025D01*
X134151825Y-119837686D01*
X134151824Y-119837686D01*
X134151821Y-119837687D01*
X134026804Y-119850000D01*
X133943196Y-119850000D01*
X133818179Y-119837687D01*
X133818176Y-119837686D01*
X133818175Y-119837686D01*
X133657761Y-119789025D01*
X133657759Y-119789024D01*
X133657756Y-119789023D01*
X133509922Y-119710005D01*
X133380341Y-119603659D01*
X133273995Y-119474078D01*
X133194977Y-119326244D01*
X133188228Y-119303995D01*
X133146314Y-119165825D01*
X133146314Y-119165824D01*
X133146313Y-119165821D01*
X133129883Y-118999000D01*
X133146313Y-118832179D01*
X133157289Y-118795995D01*
X133194975Y-118671761D01*
X133194976Y-118671759D01*
X133194977Y-118671756D01*
X133273995Y-118523922D01*
X133380341Y-118394341D01*
X133509922Y-118287995D01*
X133657756Y-118208977D01*
X133657759Y-118208976D01*
X133657761Y-118208975D01*
X133818175Y-118160314D01*
X133818176Y-118160314D01*
X133818179Y-118160313D01*
X133943196Y-118148000D01*
X134026804Y-118148000D01*
X134151821Y-118160313D01*
X134151821Y-118160313D01*
G37*
G36*
X100541855Y-117653140D02*
X100605618Y-117659420D01*
X100687427Y-117684237D01*
X100728333Y-117696645D01*
X100828491Y-117750181D01*
X100841426Y-117757095D01*
X100940553Y-117838447D01*
X101021905Y-117937574D01*
X101021906Y-117937576D01*
X101082355Y-118050667D01*
X101082355Y-118050668D01*
X101119580Y-118173382D01*
X101132149Y-118301000D01*
X101119580Y-118428618D01*
X101094763Y-118510427D01*
X101082355Y-118551333D01*
X101028819Y-118651491D01*
X101021905Y-118664426D01*
X100940553Y-118763553D01*
X100841426Y-118844905D01*
X100828491Y-118851819D01*
X100728333Y-118905355D01*
X100687427Y-118917763D01*
X100605618Y-118942580D01*
X100541855Y-118948860D01*
X100509974Y-118952000D01*
X99896026Y-118952000D01*
X99864145Y-118948860D01*
X99800382Y-118942580D01*
X99718573Y-118917763D01*
X99677667Y-118905355D01*
X99577509Y-118851819D01*
X99564574Y-118844905D01*
X99465447Y-118763553D01*
X99384095Y-118664426D01*
X99377181Y-118651491D01*
X99323645Y-118551333D01*
X99311237Y-118510427D01*
X99286420Y-118428618D01*
X99273851Y-118301000D01*
X99286420Y-118173382D01*
X99323645Y-118050668D01*
X99323645Y-118050667D01*
X99384094Y-117937576D01*
X99384095Y-117937574D01*
X99465447Y-117838447D01*
X99564574Y-117757095D01*
X99577509Y-117750181D01*
X99677667Y-117696645D01*
X99718573Y-117684237D01*
X99800382Y-117659420D01*
X99864145Y-117653140D01*
X99896026Y-117650000D01*
X100509974Y-117650000D01*
X100541855Y-117653140D01*
X100541855Y-117653140D01*
G37*
G36*
X82237812Y-114068624D02*
X82401784Y-114136544D01*
X82549354Y-114235147D01*
X82674853Y-114360646D01*
X82773456Y-114508216D01*
X82841376Y-114672188D01*
X82876000Y-114846259D01*
X82876000Y-115023741D01*
X82841376Y-115197812D01*
X82773456Y-115361784D01*
X82674853Y-115509354D01*
X82549354Y-115634853D01*
X82401784Y-115733456D01*
X82237812Y-115801376D01*
X82063741Y-115836000D01*
X81886259Y-115836000D01*
X81712188Y-115801376D01*
X81548216Y-115733456D01*
X81400646Y-115634853D01*
X81275147Y-115509354D01*
X81176544Y-115361784D01*
X81108624Y-115197812D01*
X81074000Y-115023741D01*
X81074000Y-114846259D01*
X81108624Y-114672188D01*
X81176544Y-114508216D01*
X81275147Y-114360646D01*
X81400646Y-114235147D01*
X81548216Y-114136544D01*
X81712188Y-114068624D01*
X81886259Y-114034000D01*
X82063741Y-114034000D01*
X82237812Y-114068624D01*
X82237812Y-114068624D01*
G37*
G36*
X89237812Y-114068624D02*
X89401784Y-114136544D01*
X89549354Y-114235147D01*
X89674853Y-114360646D01*
X89773456Y-114508216D01*
X89841376Y-114672188D01*
X89876000Y-114846259D01*
X89876000Y-115023741D01*
X89841376Y-115197812D01*
X89773456Y-115361784D01*
X89674853Y-115509354D01*
X89549354Y-115634853D01*
X89401784Y-115733456D01*
X89237812Y-115801376D01*
X89063741Y-115836000D01*
X88886259Y-115836000D01*
X88712188Y-115801376D01*
X88548216Y-115733456D01*
X88400646Y-115634853D01*
X88275147Y-115509354D01*
X88176544Y-115361784D01*
X88108624Y-115197812D01*
X88074000Y-115023741D01*
X88074000Y-114846259D01*
X88108624Y-114672188D01*
X88176544Y-114508216D01*
X88275147Y-114360646D01*
X88400646Y-114235147D01*
X88548216Y-114136544D01*
X88712188Y-114068624D01*
X88886259Y-114034000D01*
X89063741Y-114034000D01*
X89237812Y-114068624D01*
X89237812Y-114068624D01*
G37*
G36*
X95626000Y-115636000D02*
X92924000Y-115636000D01*
X92924000Y-112734000D01*
X95626000Y-112734000D01*
X95626000Y-115636000D01*
X95626000Y-115636000D01*
G37*
G36*
X131655916Y-111573334D02*
X131764492Y-111606271D01*
X131864557Y-111659756D01*
X131952264Y-111731736D01*
X132024244Y-111819443D01*
X132077729Y-111919508D01*
X132110666Y-112028084D01*
X132121787Y-112141000D01*
X132110666Y-112253916D01*
X132077729Y-112362492D01*
X132033096Y-112445995D01*
X132024244Y-112462557D01*
X131952264Y-112550264D01*
X131864557Y-112622244D01*
X131783143Y-112665760D01*
X131762768Y-112679373D01*
X131745441Y-112696701D01*
X131731827Y-112717075D01*
X131722450Y-112739714D01*
X131717669Y-112763747D01*
X131717669Y-112788252D01*
X131722449Y-112812285D01*
X131731827Y-112834924D01*
X131745440Y-112855299D01*
X131762768Y-112872626D01*
X131783143Y-112886240D01*
X131864557Y-112929756D01*
X131952264Y-113001736D01*
X132024244Y-113089443D01*
X132077729Y-113189508D01*
X132110666Y-113298084D01*
X132121787Y-113411000D01*
X132110666Y-113523916D01*
X132077729Y-113632492D01*
X132077726Y-113632497D01*
X132024244Y-113732557D01*
X131952264Y-113820264D01*
X131875365Y-113883374D01*
X131858038Y-113900701D01*
X131844424Y-113921076D01*
X131835046Y-113943715D01*
X131830266Y-113967748D01*
X131830266Y-113992252D01*
X131835047Y-114016286D01*
X131844424Y-114038925D01*
X131858038Y-114059299D01*
X131875365Y-114076626D01*
X131895740Y-114090240D01*
X131918379Y-114099618D01*
X131954664Y-114105000D01*
X132119000Y-114105000D01*
X132119000Y-115257000D01*
X130517000Y-115257000D01*
X130517000Y-114105000D01*
X130681336Y-114105000D01*
X130705722Y-114102598D01*
X130729171Y-114095485D01*
X130750782Y-114083934D01*
X130769724Y-114068388D01*
X130785270Y-114049446D01*
X130796821Y-114027835D01*
X130803934Y-114004386D01*
X130806336Y-113980000D01*
X130803934Y-113955614D01*
X130796821Y-113932165D01*
X130785270Y-113910554D01*
X130760635Y-113883374D01*
X130683736Y-113820264D01*
X130611756Y-113732557D01*
X130558274Y-113632497D01*
X130558271Y-113632492D01*
X130525334Y-113523916D01*
X130514213Y-113411000D01*
X130525334Y-113298084D01*
X130558271Y-113189508D01*
X130611756Y-113089443D01*
X130683736Y-113001736D01*
X130771443Y-112929756D01*
X130852857Y-112886240D01*
X130873232Y-112872627D01*
X130890559Y-112855299D01*
X130904173Y-112834925D01*
X130913550Y-112812286D01*
X130918331Y-112788253D01*
X130918331Y-112763748D01*
X130913551Y-112739715D01*
X130904173Y-112717076D01*
X130890560Y-112696701D01*
X130873232Y-112679374D01*
X130852857Y-112665760D01*
X130771443Y-112622244D01*
X130683736Y-112550264D01*
X130611756Y-112462557D01*
X130602904Y-112445995D01*
X130558271Y-112362492D01*
X130525334Y-112253916D01*
X130514213Y-112141000D01*
X130525334Y-112028084D01*
X130558271Y-111919508D01*
X130611756Y-111819443D01*
X130683736Y-111731736D01*
X130771443Y-111659756D01*
X130871508Y-111606271D01*
X130980084Y-111573334D01*
X131064702Y-111565000D01*
X131571298Y-111565000D01*
X131655916Y-111573334D01*
X131655916Y-111573334D01*
G37*
G36*
X124372821Y-112318313D02*
X124372824Y-112318314D01*
X124372825Y-112318314D01*
X124533239Y-112366975D01*
X124533241Y-112366976D01*
X124533244Y-112366977D01*
X124681078Y-112445995D01*
X124810659Y-112552341D01*
X124917005Y-112681922D01*
X124996023Y-112829756D01*
X124996024Y-112829759D01*
X124996025Y-112829761D01*
X125026358Y-112929756D01*
X125044687Y-112990179D01*
X125061117Y-113157000D01*
X125044687Y-113323821D01*
X125044686Y-113323824D01*
X125044686Y-113323825D01*
X125018242Y-113411000D01*
X124996023Y-113484244D01*
X124917005Y-113632078D01*
X124810659Y-113761659D01*
X124681078Y-113868005D01*
X124533244Y-113947023D01*
X124533241Y-113947024D01*
X124533239Y-113947025D01*
X124372825Y-113995686D01*
X124372824Y-113995686D01*
X124372821Y-113995687D01*
X124247804Y-114008000D01*
X124164196Y-114008000D01*
X124039179Y-113995687D01*
X124039176Y-113995686D01*
X124039175Y-113995686D01*
X123878761Y-113947025D01*
X123878759Y-113947024D01*
X123878756Y-113947023D01*
X123730922Y-113868005D01*
X123601341Y-113761659D01*
X123494995Y-113632078D01*
X123415977Y-113484244D01*
X123393759Y-113411000D01*
X123367314Y-113323825D01*
X123367314Y-113323824D01*
X123367313Y-113323821D01*
X123350883Y-113157000D01*
X123367313Y-112990179D01*
X123385642Y-112929756D01*
X123415975Y-112829761D01*
X123415976Y-112829759D01*
X123415977Y-112829756D01*
X123494995Y-112681922D01*
X123601341Y-112552341D01*
X123730922Y-112445995D01*
X123878756Y-112366977D01*
X123878759Y-112366976D01*
X123878761Y-112366975D01*
X124039175Y-112318314D01*
X124039176Y-112318314D01*
X124039179Y-112318313D01*
X124164196Y-112306000D01*
X124247804Y-112306000D01*
X124372821Y-112318313D01*
X124372821Y-112318313D01*
G37*
G36*
X116752821Y-112318313D02*
X116752824Y-112318314D01*
X116752825Y-112318314D01*
X116913239Y-112366975D01*
X116913241Y-112366976D01*
X116913244Y-112366977D01*
X117061078Y-112445995D01*
X117190659Y-112552341D01*
X117297005Y-112681922D01*
X117376023Y-112829756D01*
X117376024Y-112829759D01*
X117376025Y-112829761D01*
X117406358Y-112929756D01*
X117424687Y-112990179D01*
X117441117Y-113157000D01*
X117424687Y-113323821D01*
X117424686Y-113323824D01*
X117424686Y-113323825D01*
X117398242Y-113411000D01*
X117376023Y-113484244D01*
X117297005Y-113632078D01*
X117190659Y-113761659D01*
X117061078Y-113868005D01*
X116913244Y-113947023D01*
X116913241Y-113947024D01*
X116913239Y-113947025D01*
X116752825Y-113995686D01*
X116752824Y-113995686D01*
X116752821Y-113995687D01*
X116627804Y-114008000D01*
X116544196Y-114008000D01*
X116419179Y-113995687D01*
X116419176Y-113995686D01*
X116419175Y-113995686D01*
X116258761Y-113947025D01*
X116258759Y-113947024D01*
X116258756Y-113947023D01*
X116110922Y-113868005D01*
X115981341Y-113761659D01*
X115874995Y-113632078D01*
X115795977Y-113484244D01*
X115773759Y-113411000D01*
X115747314Y-113323825D01*
X115747314Y-113323824D01*
X115747313Y-113323821D01*
X115730883Y-113157000D01*
X115747313Y-112990179D01*
X115765642Y-112929756D01*
X115795975Y-112829761D01*
X115795976Y-112829759D01*
X115795977Y-112829756D01*
X115874995Y-112681922D01*
X115981341Y-112552341D01*
X116110922Y-112445995D01*
X116258756Y-112366977D01*
X116258759Y-112366976D01*
X116258761Y-112366975D01*
X116419175Y-112318314D01*
X116419176Y-112318314D01*
X116419179Y-112318313D01*
X116544196Y-112306000D01*
X116627804Y-112306000D01*
X116752821Y-112318313D01*
X116752821Y-112318313D01*
G37*
G36*
X136818821Y-110032313D02*
X136818824Y-110032314D01*
X136818825Y-110032314D01*
X136979239Y-110080975D01*
X136979241Y-110080976D01*
X136979244Y-110080977D01*
X137127078Y-110159995D01*
X137256659Y-110266341D01*
X137363005Y-110395922D01*
X137442023Y-110543756D01*
X137442024Y-110543759D01*
X137442025Y-110543761D01*
X137490686Y-110704175D01*
X137490687Y-110704179D01*
X137507117Y-110871000D01*
X137490687Y-111037821D01*
X137490686Y-111037824D01*
X137490686Y-111037825D01*
X137474229Y-111092078D01*
X137442023Y-111198244D01*
X137363005Y-111346078D01*
X137256659Y-111475659D01*
X137127078Y-111582005D01*
X136979244Y-111661023D01*
X136979241Y-111661024D01*
X136979239Y-111661025D01*
X136818825Y-111709686D01*
X136818824Y-111709686D01*
X136818821Y-111709687D01*
X136693804Y-111722000D01*
X136610196Y-111722000D01*
X136485179Y-111709687D01*
X136485176Y-111709686D01*
X136485175Y-111709686D01*
X136324761Y-111661025D01*
X136324759Y-111661024D01*
X136324756Y-111661023D01*
X136176922Y-111582005D01*
X136047341Y-111475659D01*
X135940995Y-111346078D01*
X135861977Y-111198244D01*
X135829772Y-111092078D01*
X135813314Y-111037825D01*
X135813314Y-111037824D01*
X135813313Y-111037821D01*
X135796883Y-110871000D01*
X135813313Y-110704179D01*
X135813314Y-110704175D01*
X135861975Y-110543761D01*
X135861976Y-110543759D01*
X135861977Y-110543756D01*
X135940995Y-110395922D01*
X136047341Y-110266341D01*
X136176922Y-110159995D01*
X136324756Y-110080977D01*
X136324759Y-110080976D01*
X136324761Y-110080975D01*
X136485175Y-110032314D01*
X136485176Y-110032314D01*
X136485179Y-110032313D01*
X136610196Y-110020000D01*
X136693804Y-110020000D01*
X136818821Y-110032313D01*
X136818821Y-110032313D01*
G37*
G36*
X124372821Y-109778313D02*
X124372824Y-109778314D01*
X124372825Y-109778314D01*
X124533239Y-109826975D01*
X124533241Y-109826976D01*
X124533244Y-109826977D01*
X124681078Y-109905995D01*
X124810659Y-110012341D01*
X124917005Y-110141922D01*
X124996023Y-110289756D01*
X124996024Y-110289759D01*
X124996025Y-110289761D01*
X125044686Y-110450175D01*
X125044687Y-110450179D01*
X125061117Y-110617000D01*
X125044687Y-110783821D01*
X125044686Y-110783824D01*
X125044686Y-110783825D01*
X125018242Y-110871000D01*
X124996023Y-110944244D01*
X124917005Y-111092078D01*
X124810659Y-111221659D01*
X124681078Y-111328005D01*
X124533244Y-111407023D01*
X124533241Y-111407024D01*
X124533239Y-111407025D01*
X124372825Y-111455686D01*
X124372824Y-111455686D01*
X124372821Y-111455687D01*
X124247804Y-111468000D01*
X124164196Y-111468000D01*
X124039179Y-111455687D01*
X124039176Y-111455686D01*
X124039175Y-111455686D01*
X123878761Y-111407025D01*
X123878759Y-111407024D01*
X123878756Y-111407023D01*
X123730922Y-111328005D01*
X123601341Y-111221659D01*
X123494995Y-111092078D01*
X123415977Y-110944244D01*
X123393759Y-110871000D01*
X123367314Y-110783825D01*
X123367314Y-110783824D01*
X123367313Y-110783821D01*
X123350883Y-110617000D01*
X123367313Y-110450179D01*
X123367314Y-110450175D01*
X123415975Y-110289761D01*
X123415976Y-110289759D01*
X123415977Y-110289756D01*
X123494995Y-110141922D01*
X123601341Y-110012341D01*
X123730922Y-109905995D01*
X123878756Y-109826977D01*
X123878759Y-109826976D01*
X123878761Y-109826975D01*
X124039175Y-109778314D01*
X124039176Y-109778314D01*
X124039179Y-109778313D01*
X124164196Y-109766000D01*
X124247804Y-109766000D01*
X124372821Y-109778313D01*
X124372821Y-109778313D01*
G37*
G36*
X116752821Y-109778313D02*
X116752824Y-109778314D01*
X116752825Y-109778314D01*
X116913239Y-109826975D01*
X116913241Y-109826976D01*
X116913244Y-109826977D01*
X117061078Y-109905995D01*
X117190659Y-110012341D01*
X117297005Y-110141922D01*
X117376023Y-110289756D01*
X117376024Y-110289759D01*
X117376025Y-110289761D01*
X117424686Y-110450175D01*
X117424687Y-110450179D01*
X117441117Y-110617000D01*
X117424687Y-110783821D01*
X117424686Y-110783824D01*
X117424686Y-110783825D01*
X117398242Y-110871000D01*
X117376023Y-110944244D01*
X117297005Y-111092078D01*
X117190659Y-111221659D01*
X117061078Y-111328005D01*
X116913244Y-111407023D01*
X116913241Y-111407024D01*
X116913239Y-111407025D01*
X116752825Y-111455686D01*
X116752824Y-111455686D01*
X116752821Y-111455687D01*
X116627804Y-111468000D01*
X116544196Y-111468000D01*
X116419179Y-111455687D01*
X116419176Y-111455686D01*
X116419175Y-111455686D01*
X116258761Y-111407025D01*
X116258759Y-111407024D01*
X116258756Y-111407023D01*
X116110922Y-111328005D01*
X115981341Y-111221659D01*
X115874995Y-111092078D01*
X115795977Y-110944244D01*
X115773759Y-110871000D01*
X115747314Y-110783825D01*
X115747314Y-110783824D01*
X115747313Y-110783821D01*
X115730883Y-110617000D01*
X115747313Y-110450179D01*
X115747314Y-110450175D01*
X115795975Y-110289761D01*
X115795976Y-110289759D01*
X115795977Y-110289756D01*
X115874995Y-110141922D01*
X115981341Y-110012341D01*
X116110922Y-109905995D01*
X116258756Y-109826977D01*
X116258759Y-109826976D01*
X116258761Y-109826975D01*
X116419175Y-109778314D01*
X116419176Y-109778314D01*
X116419179Y-109778313D01*
X116544196Y-109766000D01*
X116627804Y-109766000D01*
X116752821Y-109778313D01*
X116752821Y-109778313D01*
G37*
G36*
X116752821Y-107238313D02*
X116752824Y-107238314D01*
X116752825Y-107238314D01*
X116913239Y-107286975D01*
X116913241Y-107286976D01*
X116913244Y-107286977D01*
X117061078Y-107365995D01*
X117190659Y-107472341D01*
X117297005Y-107601922D01*
X117376023Y-107749756D01*
X117424687Y-107910179D01*
X117441117Y-108077000D01*
X117424687Y-108243821D01*
X117424686Y-108243824D01*
X117424686Y-108243825D01*
X117391538Y-108353100D01*
X117376023Y-108404244D01*
X117297005Y-108552078D01*
X117190659Y-108681659D01*
X117061078Y-108788005D01*
X116913244Y-108867023D01*
X116913241Y-108867024D01*
X116913239Y-108867025D01*
X116752825Y-108915686D01*
X116752824Y-108915686D01*
X116752821Y-108915687D01*
X116627804Y-108928000D01*
X116544196Y-108928000D01*
X116419179Y-108915687D01*
X116419176Y-108915686D01*
X116419175Y-108915686D01*
X116258761Y-108867025D01*
X116258759Y-108867024D01*
X116258756Y-108867023D01*
X116110922Y-108788005D01*
X115981341Y-108681659D01*
X115874995Y-108552078D01*
X115795977Y-108404244D01*
X115780463Y-108353100D01*
X115747314Y-108243825D01*
X115747314Y-108243824D01*
X115747313Y-108243821D01*
X115730883Y-108077000D01*
X115747313Y-107910179D01*
X115795977Y-107749756D01*
X115874995Y-107601922D01*
X115981341Y-107472341D01*
X116110922Y-107365995D01*
X116258756Y-107286977D01*
X116258759Y-107286976D01*
X116258761Y-107286975D01*
X116419175Y-107238314D01*
X116419176Y-107238314D01*
X116419179Y-107238313D01*
X116544196Y-107226000D01*
X116627804Y-107226000D01*
X116752821Y-107238313D01*
X116752821Y-107238313D01*
G37*
G36*
X124372821Y-107238313D02*
X124372824Y-107238314D01*
X124372825Y-107238314D01*
X124533239Y-107286975D01*
X124533241Y-107286976D01*
X124533244Y-107286977D01*
X124681078Y-107365995D01*
X124810659Y-107472341D01*
X124917005Y-107601922D01*
X124996023Y-107749756D01*
X125044687Y-107910179D01*
X125061117Y-108077000D01*
X125044687Y-108243821D01*
X125044686Y-108243824D01*
X125044686Y-108243825D01*
X125011538Y-108353100D01*
X124996023Y-108404244D01*
X124917005Y-108552078D01*
X124810659Y-108681659D01*
X124681078Y-108788005D01*
X124533244Y-108867023D01*
X124533241Y-108867024D01*
X124533239Y-108867025D01*
X124372825Y-108915686D01*
X124372824Y-108915686D01*
X124372821Y-108915687D01*
X124247804Y-108928000D01*
X124164196Y-108928000D01*
X124039179Y-108915687D01*
X124039176Y-108915686D01*
X124039175Y-108915686D01*
X123878761Y-108867025D01*
X123878759Y-108867024D01*
X123878756Y-108867023D01*
X123730922Y-108788005D01*
X123601341Y-108681659D01*
X123494995Y-108552078D01*
X123415977Y-108404244D01*
X123400463Y-108353100D01*
X123367314Y-108243825D01*
X123367314Y-108243824D01*
X123367313Y-108243821D01*
X123350883Y-108077000D01*
X123367313Y-107910179D01*
X123415977Y-107749756D01*
X123494995Y-107601922D01*
X123601341Y-107472341D01*
X123730922Y-107365995D01*
X123878756Y-107286977D01*
X123878759Y-107286976D01*
X123878761Y-107286975D01*
X124039175Y-107238314D01*
X124039176Y-107238314D01*
X124039179Y-107238313D01*
X124164196Y-107226000D01*
X124247804Y-107226000D01*
X124372821Y-107238313D01*
X124372821Y-107238313D01*
G37*
G36*
X140456228Y-107131703D02*
X140611100Y-107195853D01*
X140750481Y-107288985D01*
X140869015Y-107407519D01*
X140962147Y-107546900D01*
X141026297Y-107701772D01*
X141059000Y-107866184D01*
X141059000Y-108033816D01*
X141026297Y-108198228D01*
X140962147Y-108353100D01*
X140869015Y-108492481D01*
X140750481Y-108611015D01*
X140611100Y-108704147D01*
X140456228Y-108768297D01*
X140291816Y-108801000D01*
X140124184Y-108801000D01*
X139959772Y-108768297D01*
X139804900Y-108704147D01*
X139665519Y-108611015D01*
X139546985Y-108492481D01*
X139453853Y-108353100D01*
X139389703Y-108198228D01*
X139357000Y-108033816D01*
X139357000Y-107866184D01*
X139389703Y-107701772D01*
X139453853Y-107546900D01*
X139546985Y-107407519D01*
X139665519Y-107288985D01*
X139804900Y-107195853D01*
X139959772Y-107131703D01*
X140124184Y-107099000D01*
X140291816Y-107099000D01*
X140456228Y-107131703D01*
X140456228Y-107131703D01*
G37*
G36*
X111754228Y-105988703D02*
X111909100Y-106052853D01*
X112048481Y-106145985D01*
X112167015Y-106264519D01*
X112260147Y-106403900D01*
X112324297Y-106558772D01*
X112357000Y-106723184D01*
X112357000Y-106890816D01*
X112324297Y-107055228D01*
X112260147Y-107210100D01*
X112167015Y-107349481D01*
X112048481Y-107468015D01*
X111909100Y-107561147D01*
X111754228Y-107625297D01*
X111589816Y-107658000D01*
X111422184Y-107658000D01*
X111257772Y-107625297D01*
X111102900Y-107561147D01*
X110963519Y-107468015D01*
X110844985Y-107349481D01*
X110751853Y-107210100D01*
X110687703Y-107055228D01*
X110655000Y-106890816D01*
X110655000Y-106723184D01*
X110687703Y-106558772D01*
X110751853Y-106403900D01*
X110844985Y-106264519D01*
X110963519Y-106145985D01*
X111102900Y-106052853D01*
X111257772Y-105988703D01*
X111422184Y-105956000D01*
X111589816Y-105956000D01*
X111754228Y-105988703D01*
X111754228Y-105988703D01*
G37*
G36*
X133471228Y-105226703D02*
X133626100Y-105290853D01*
X133765481Y-105383985D01*
X133884015Y-105502519D01*
X133977147Y-105641900D01*
X134041297Y-105796772D01*
X134074000Y-105961184D01*
X134074000Y-106128816D01*
X134041297Y-106293228D01*
X133977147Y-106448100D01*
X133884015Y-106587481D01*
X133765481Y-106706015D01*
X133626100Y-106799147D01*
X133471228Y-106863297D01*
X133306816Y-106896000D01*
X133139184Y-106896000D01*
X132974772Y-106863297D01*
X132819900Y-106799147D01*
X132680519Y-106706015D01*
X132561985Y-106587481D01*
X132468853Y-106448100D01*
X132404703Y-106293228D01*
X132372000Y-106128816D01*
X132372000Y-105961184D01*
X132404703Y-105796772D01*
X132468853Y-105641900D01*
X132561985Y-105502519D01*
X132680519Y-105383985D01*
X132819900Y-105290853D01*
X132974772Y-105226703D01*
X133139184Y-105194000D01*
X133306816Y-105194000D01*
X133471228Y-105226703D01*
X133471228Y-105226703D01*
G37*
G36*
X101731242Y-105525404D02*
X101768339Y-105536657D01*
X101802520Y-105554927D01*
X101832482Y-105579518D01*
X101857073Y-105609480D01*
X101875343Y-105643661D01*
X101886596Y-105680758D01*
X101891000Y-105725473D01*
X101891000Y-106618527D01*
X101886596Y-106663242D01*
X101875343Y-106700339D01*
X101857073Y-106734520D01*
X101832482Y-106764482D01*
X101802520Y-106789073D01*
X101768339Y-106807343D01*
X101731242Y-106818596D01*
X101686527Y-106823000D01*
X100243473Y-106823000D01*
X100198758Y-106818596D01*
X100161661Y-106807343D01*
X100127480Y-106789073D01*
X100097518Y-106764482D01*
X100072927Y-106734520D01*
X100054657Y-106700339D01*
X100043404Y-106663242D01*
X100039000Y-106618527D01*
X100039000Y-105725473D01*
X100043404Y-105680758D01*
X100054657Y-105643661D01*
X100072927Y-105609480D01*
X100097518Y-105579518D01*
X100127480Y-105554927D01*
X100161661Y-105536657D01*
X100198758Y-105525404D01*
X100243473Y-105521000D01*
X101686527Y-105521000D01*
X101731242Y-105525404D01*
X101731242Y-105525404D01*
G37*
G36*
X136900228Y-104972703D02*
X137055100Y-105036853D01*
X137194481Y-105129985D01*
X137313015Y-105248519D01*
X137406147Y-105387900D01*
X137470297Y-105542772D01*
X137503000Y-105707184D01*
X137503000Y-105874816D01*
X137470297Y-106039228D01*
X137406147Y-106194100D01*
X137313015Y-106333481D01*
X137194481Y-106452015D01*
X137055100Y-106545147D01*
X136900228Y-106609297D01*
X136735816Y-106642000D01*
X136568184Y-106642000D01*
X136403772Y-106609297D01*
X136248900Y-106545147D01*
X136109519Y-106452015D01*
X135990985Y-106333481D01*
X135897853Y-106194100D01*
X135833703Y-106039228D01*
X135801000Y-105874816D01*
X135801000Y-105707184D01*
X135833703Y-105542772D01*
X135897853Y-105387900D01*
X135990985Y-105248519D01*
X136109519Y-105129985D01*
X136248900Y-105036853D01*
X136403772Y-104972703D01*
X136568184Y-104940000D01*
X136735816Y-104940000D01*
X136900228Y-104972703D01*
X136900228Y-104972703D01*
G37*
G36*
X91726000Y-106624000D02*
X88824000Y-106624000D01*
X88824000Y-103722000D01*
X91726000Y-103722000D01*
X91726000Y-106624000D01*
X91726000Y-106624000D01*
G37*
G36*
X82026000Y-106624000D02*
X79724000Y-106624000D01*
X79724000Y-103722000D01*
X82026000Y-103722000D01*
X82026000Y-106624000D01*
X82026000Y-106624000D01*
G37*
G36*
X130169228Y-104765703D02*
X130324100Y-104829853D01*
X130463481Y-104922985D01*
X130582015Y-105041519D01*
X130675147Y-105180900D01*
X130739297Y-105335772D01*
X130772000Y-105500184D01*
X130772000Y-105667816D01*
X130739297Y-105832228D01*
X130675147Y-105987100D01*
X130582015Y-106126481D01*
X130463481Y-106245015D01*
X130324100Y-106338147D01*
X130169228Y-106402297D01*
X130004816Y-106435000D01*
X129837184Y-106435000D01*
X129672772Y-106402297D01*
X129517900Y-106338147D01*
X129378519Y-106245015D01*
X129259985Y-106126481D01*
X129166853Y-105987100D01*
X129102703Y-105832228D01*
X129070000Y-105667816D01*
X129070000Y-105500184D01*
X129102703Y-105335772D01*
X129166853Y-105180900D01*
X129259985Y-105041519D01*
X129378519Y-104922985D01*
X129517900Y-104829853D01*
X129672772Y-104765703D01*
X129837184Y-104733000D01*
X130004816Y-104733000D01*
X130169228Y-104765703D01*
X130169228Y-104765703D01*
G37*
G36*
X124372821Y-104698313D02*
X124372824Y-104698314D01*
X124372825Y-104698314D01*
X124533239Y-104746975D01*
X124533241Y-104746976D01*
X124533244Y-104746977D01*
X124681078Y-104825995D01*
X124810659Y-104932341D01*
X124917005Y-105061922D01*
X124996023Y-105209756D01*
X124996024Y-105209759D01*
X124996025Y-105209761D01*
X125007782Y-105248519D01*
X125044687Y-105370179D01*
X125061117Y-105537000D01*
X125044687Y-105703821D01*
X125044686Y-105703824D01*
X125044686Y-105703825D01*
X125016491Y-105796772D01*
X124996023Y-105864244D01*
X124917005Y-106012078D01*
X124810659Y-106141659D01*
X124681078Y-106248005D01*
X124533244Y-106327023D01*
X124533241Y-106327024D01*
X124533239Y-106327025D01*
X124372825Y-106375686D01*
X124372824Y-106375686D01*
X124372821Y-106375687D01*
X124247804Y-106388000D01*
X124164196Y-106388000D01*
X124039179Y-106375687D01*
X124039176Y-106375686D01*
X124039175Y-106375686D01*
X123878761Y-106327025D01*
X123878759Y-106327024D01*
X123878756Y-106327023D01*
X123730922Y-106248005D01*
X123601341Y-106141659D01*
X123494995Y-106012078D01*
X123415977Y-105864244D01*
X123395510Y-105796772D01*
X123367314Y-105703825D01*
X123367314Y-105703824D01*
X123367313Y-105703821D01*
X123350883Y-105537000D01*
X123367313Y-105370179D01*
X123404218Y-105248519D01*
X123415975Y-105209761D01*
X123415976Y-105209759D01*
X123415977Y-105209756D01*
X123494995Y-105061922D01*
X123601341Y-104932341D01*
X123730922Y-104825995D01*
X123878756Y-104746977D01*
X123878759Y-104746976D01*
X123878761Y-104746975D01*
X124039175Y-104698314D01*
X124039176Y-104698314D01*
X124039179Y-104698313D01*
X124164196Y-104686000D01*
X124247804Y-104686000D01*
X124372821Y-104698313D01*
X124372821Y-104698313D01*
G37*
G36*
X116752821Y-104698313D02*
X116752824Y-104698314D01*
X116752825Y-104698314D01*
X116913239Y-104746975D01*
X116913241Y-104746976D01*
X116913244Y-104746977D01*
X117061078Y-104825995D01*
X117190659Y-104932341D01*
X117297005Y-105061922D01*
X117376023Y-105209756D01*
X117376024Y-105209759D01*
X117376025Y-105209761D01*
X117387782Y-105248519D01*
X117424687Y-105370179D01*
X117441117Y-105537000D01*
X117424687Y-105703821D01*
X117424686Y-105703824D01*
X117424686Y-105703825D01*
X117396491Y-105796772D01*
X117376023Y-105864244D01*
X117297005Y-106012078D01*
X117190659Y-106141659D01*
X117061078Y-106248005D01*
X116913244Y-106327023D01*
X116913241Y-106327024D01*
X116913239Y-106327025D01*
X116752825Y-106375686D01*
X116752824Y-106375686D01*
X116752821Y-106375687D01*
X116627804Y-106388000D01*
X116544196Y-106388000D01*
X116419179Y-106375687D01*
X116419176Y-106375686D01*
X116419175Y-106375686D01*
X116258761Y-106327025D01*
X116258759Y-106327024D01*
X116258756Y-106327023D01*
X116110922Y-106248005D01*
X115981341Y-106141659D01*
X115874995Y-106012078D01*
X115795977Y-105864244D01*
X115775510Y-105796772D01*
X115747314Y-105703825D01*
X115747314Y-105703824D01*
X115747313Y-105703821D01*
X115730883Y-105537000D01*
X115747313Y-105370179D01*
X115784218Y-105248519D01*
X115795975Y-105209761D01*
X115795976Y-105209759D01*
X115795977Y-105209756D01*
X115874995Y-105061922D01*
X115981341Y-104932341D01*
X116110922Y-104825995D01*
X116258756Y-104746977D01*
X116258759Y-104746976D01*
X116258761Y-104746975D01*
X116419175Y-104698314D01*
X116419176Y-104698314D01*
X116419179Y-104698313D01*
X116544196Y-104686000D01*
X116627804Y-104686000D01*
X116752821Y-104698313D01*
X116752821Y-104698313D01*
G37*
G36*
X101303855Y-103524140D02*
X101367618Y-103530420D01*
X101449427Y-103555237D01*
X101490333Y-103567645D01*
X101553968Y-103601659D01*
X101603426Y-103628095D01*
X101702553Y-103709447D01*
X101783905Y-103808574D01*
X101783906Y-103808576D01*
X101844355Y-103921667D01*
X101844355Y-103921668D01*
X101881580Y-104044382D01*
X101894149Y-104172000D01*
X101881580Y-104299618D01*
X101856763Y-104381427D01*
X101844355Y-104422333D01*
X101790819Y-104522491D01*
X101783905Y-104535426D01*
X101702553Y-104634553D01*
X101603426Y-104715905D01*
X101603424Y-104715906D01*
X101490333Y-104776355D01*
X101449427Y-104788763D01*
X101367618Y-104813580D01*
X101303855Y-104819860D01*
X101271974Y-104823000D01*
X100658026Y-104823000D01*
X100626145Y-104819860D01*
X100562382Y-104813580D01*
X100480573Y-104788763D01*
X100439667Y-104776355D01*
X100326576Y-104715906D01*
X100326574Y-104715905D01*
X100227447Y-104634553D01*
X100146095Y-104535426D01*
X100139181Y-104522491D01*
X100085645Y-104422333D01*
X100073237Y-104381427D01*
X100048420Y-104299618D01*
X100035851Y-104172000D01*
X100048420Y-104044382D01*
X100085645Y-103921668D01*
X100085645Y-103921667D01*
X100146094Y-103808576D01*
X100146095Y-103808574D01*
X100227447Y-103709447D01*
X100326574Y-103628095D01*
X100376032Y-103601659D01*
X100439667Y-103567645D01*
X100480573Y-103555237D01*
X100562382Y-103530420D01*
X100626145Y-103524140D01*
X100658026Y-103521000D01*
X101271974Y-103521000D01*
X101303855Y-103524140D01*
X101303855Y-103524140D01*
G37*
G36*
X116752821Y-102158313D02*
X116752824Y-102158314D01*
X116752825Y-102158314D01*
X116913239Y-102206975D01*
X116913241Y-102206976D01*
X116913244Y-102206977D01*
X117061078Y-102285995D01*
X117190659Y-102392341D01*
X117297005Y-102521922D01*
X117376023Y-102669756D01*
X117376024Y-102669759D01*
X117376025Y-102669761D01*
X117390023Y-102715906D01*
X117424687Y-102830179D01*
X117441117Y-102997000D01*
X117424687Y-103163821D01*
X117376023Y-103324244D01*
X117297005Y-103472078D01*
X117190659Y-103601659D01*
X117061078Y-103708005D01*
X116913244Y-103787023D01*
X116913241Y-103787024D01*
X116913239Y-103787025D01*
X116752825Y-103835686D01*
X116752824Y-103835686D01*
X116752821Y-103835687D01*
X116627804Y-103848000D01*
X116544196Y-103848000D01*
X116419179Y-103835687D01*
X116419176Y-103835686D01*
X116419175Y-103835686D01*
X116258761Y-103787025D01*
X116258759Y-103787024D01*
X116258756Y-103787023D01*
X116110922Y-103708005D01*
X115981341Y-103601659D01*
X115874995Y-103472078D01*
X115795977Y-103324244D01*
X115747313Y-103163821D01*
X115730883Y-102997000D01*
X115747313Y-102830179D01*
X115781977Y-102715906D01*
X115795975Y-102669761D01*
X115795976Y-102669759D01*
X115795977Y-102669756D01*
X115874995Y-102521922D01*
X115981341Y-102392341D01*
X116110922Y-102285995D01*
X116258756Y-102206977D01*
X116258759Y-102206976D01*
X116258761Y-102206975D01*
X116419175Y-102158314D01*
X116419176Y-102158314D01*
X116419179Y-102158313D01*
X116544196Y-102146000D01*
X116627804Y-102146000D01*
X116752821Y-102158313D01*
X116752821Y-102158313D01*
G37*
G36*
X124372821Y-102158313D02*
X124372824Y-102158314D01*
X124372825Y-102158314D01*
X124533239Y-102206975D01*
X124533241Y-102206976D01*
X124533244Y-102206977D01*
X124681078Y-102285995D01*
X124810659Y-102392341D01*
X124917005Y-102521922D01*
X124996023Y-102669756D01*
X124996024Y-102669759D01*
X124996025Y-102669761D01*
X125010023Y-102715906D01*
X125044687Y-102830179D01*
X125061117Y-102997000D01*
X125044687Y-103163821D01*
X124996023Y-103324244D01*
X124917005Y-103472078D01*
X124810659Y-103601659D01*
X124681078Y-103708005D01*
X124533244Y-103787023D01*
X124533241Y-103787024D01*
X124533239Y-103787025D01*
X124372825Y-103835686D01*
X124372824Y-103835686D01*
X124372821Y-103835687D01*
X124247804Y-103848000D01*
X124164196Y-103848000D01*
X124039179Y-103835687D01*
X124039176Y-103835686D01*
X124039175Y-103835686D01*
X123878761Y-103787025D01*
X123878759Y-103787024D01*
X123878756Y-103787023D01*
X123730922Y-103708005D01*
X123601341Y-103601659D01*
X123494995Y-103472078D01*
X123415977Y-103324244D01*
X123367313Y-103163821D01*
X123350883Y-102997000D01*
X123367313Y-102830179D01*
X123401977Y-102715906D01*
X123415975Y-102669761D01*
X123415976Y-102669759D01*
X123415977Y-102669756D01*
X123494995Y-102521922D01*
X123601341Y-102392341D01*
X123730922Y-102285995D01*
X123878756Y-102206977D01*
X123878759Y-102206976D01*
X123878761Y-102206975D01*
X124039175Y-102158314D01*
X124039176Y-102158314D01*
X124039179Y-102158313D01*
X124164196Y-102146000D01*
X124247804Y-102146000D01*
X124372821Y-102158313D01*
X124372821Y-102158313D01*
G37*
G36*
X140374821Y-102031313D02*
X140374824Y-102031314D01*
X140374825Y-102031314D01*
X140535239Y-102079975D01*
X140535241Y-102079976D01*
X140535244Y-102079977D01*
X140683078Y-102158995D01*
X140812659Y-102265341D01*
X140919005Y-102394922D01*
X140998023Y-102542756D01*
X140998024Y-102542759D01*
X140998025Y-102542761D01*
X141046686Y-102703175D01*
X141046687Y-102703179D01*
X141063117Y-102870000D01*
X141046687Y-103036821D01*
X140998023Y-103197244D01*
X140919005Y-103345078D01*
X140812659Y-103474659D01*
X140683078Y-103581005D01*
X140535244Y-103660023D01*
X140535241Y-103660024D01*
X140535239Y-103660025D01*
X140374825Y-103708686D01*
X140374824Y-103708686D01*
X140374821Y-103708687D01*
X140249804Y-103721000D01*
X140166196Y-103721000D01*
X140041179Y-103708687D01*
X140041176Y-103708686D01*
X140041175Y-103708686D01*
X139880761Y-103660025D01*
X139880759Y-103660024D01*
X139880756Y-103660023D01*
X139732922Y-103581005D01*
X139603341Y-103474659D01*
X139496995Y-103345078D01*
X139417977Y-103197244D01*
X139369313Y-103036821D01*
X139352883Y-102870000D01*
X139369313Y-102703179D01*
X139369314Y-102703175D01*
X139417975Y-102542761D01*
X139417976Y-102542759D01*
X139417977Y-102542756D01*
X139496995Y-102394922D01*
X139603341Y-102265341D01*
X139732922Y-102158995D01*
X139880756Y-102079977D01*
X139880759Y-102079976D01*
X139880761Y-102079975D01*
X140041175Y-102031314D01*
X140041176Y-102031314D01*
X140041179Y-102031313D01*
X140166196Y-102019000D01*
X140249804Y-102019000D01*
X140374821Y-102031313D01*
X140374821Y-102031313D01*
G37*
G36*
X101303855Y-101524140D02*
X101367618Y-101530420D01*
X101449427Y-101555237D01*
X101490333Y-101567645D01*
X101590491Y-101621181D01*
X101603426Y-101628095D01*
X101702553Y-101709447D01*
X101783905Y-101808574D01*
X101783906Y-101808576D01*
X101844355Y-101921667D01*
X101844355Y-101921668D01*
X101881580Y-102044382D01*
X101894149Y-102172000D01*
X101881580Y-102299618D01*
X101866454Y-102349481D01*
X101844355Y-102422333D01*
X101819937Y-102468015D01*
X101783905Y-102535426D01*
X101702553Y-102634553D01*
X101603426Y-102715905D01*
X101603424Y-102715906D01*
X101490333Y-102776355D01*
X101449427Y-102788763D01*
X101367618Y-102813580D01*
X101303855Y-102819860D01*
X101271974Y-102823000D01*
X100658026Y-102823000D01*
X100626145Y-102819860D01*
X100562382Y-102813580D01*
X100480573Y-102788763D01*
X100439667Y-102776355D01*
X100326576Y-102715906D01*
X100326574Y-102715905D01*
X100227447Y-102634553D01*
X100146095Y-102535426D01*
X100110063Y-102468015D01*
X100085645Y-102422333D01*
X100063546Y-102349481D01*
X100048420Y-102299618D01*
X100035851Y-102172000D01*
X100048420Y-102044382D01*
X100085645Y-101921668D01*
X100085645Y-101921667D01*
X100146094Y-101808576D01*
X100146095Y-101808574D01*
X100227447Y-101709447D01*
X100326574Y-101628095D01*
X100339509Y-101621181D01*
X100439667Y-101567645D01*
X100480573Y-101555237D01*
X100562382Y-101530420D01*
X100626145Y-101524140D01*
X100658026Y-101521000D01*
X101271974Y-101521000D01*
X101303855Y-101524140D01*
X101303855Y-101524140D01*
G37*
G36*
X107735821Y-101015313D02*
X107735824Y-101015314D01*
X107735825Y-101015314D01*
X107896239Y-101063975D01*
X107896241Y-101063976D01*
X107896244Y-101063977D01*
X108044078Y-101142995D01*
X108173659Y-101249341D01*
X108280005Y-101378922D01*
X108359023Y-101526756D01*
X108359024Y-101526759D01*
X108359025Y-101526761D01*
X108407686Y-101687175D01*
X108407687Y-101687179D01*
X108424117Y-101854000D01*
X108407687Y-102020821D01*
X108407686Y-102020824D01*
X108407686Y-102020825D01*
X108361221Y-102174000D01*
X108359023Y-102181244D01*
X108280005Y-102329078D01*
X108173659Y-102458659D01*
X108044078Y-102565005D01*
X107896244Y-102644023D01*
X107896241Y-102644024D01*
X107896239Y-102644025D01*
X107735825Y-102692686D01*
X107735824Y-102692686D01*
X107735821Y-102692687D01*
X107610804Y-102705000D01*
X107527196Y-102705000D01*
X107402179Y-102692687D01*
X107402176Y-102692686D01*
X107402175Y-102692686D01*
X107241761Y-102644025D01*
X107241759Y-102644024D01*
X107241756Y-102644023D01*
X107093922Y-102565005D01*
X106964341Y-102458659D01*
X106857995Y-102329078D01*
X106778977Y-102181244D01*
X106776780Y-102174000D01*
X106730314Y-102020825D01*
X106730314Y-102020824D01*
X106730313Y-102020821D01*
X106713883Y-101854000D01*
X106730313Y-101687179D01*
X106730314Y-101687175D01*
X106778975Y-101526761D01*
X106778976Y-101526759D01*
X106778977Y-101526756D01*
X106857995Y-101378922D01*
X106964341Y-101249341D01*
X107093922Y-101142995D01*
X107241756Y-101063977D01*
X107241759Y-101063976D01*
X107241761Y-101063975D01*
X107402175Y-101015314D01*
X107402176Y-101015314D01*
X107402179Y-101015313D01*
X107527196Y-101003000D01*
X107610804Y-101003000D01*
X107735821Y-101015313D01*
X107735821Y-101015313D01*
G37*
G36*
X111754228Y-100988703D02*
X111909100Y-101052853D01*
X112048481Y-101145985D01*
X112167015Y-101264519D01*
X112260147Y-101403900D01*
X112324297Y-101558772D01*
X112357000Y-101723184D01*
X112357000Y-101890816D01*
X112324297Y-102055228D01*
X112260147Y-102210100D01*
X112167015Y-102349481D01*
X112048481Y-102468015D01*
X111909100Y-102561147D01*
X111754228Y-102625297D01*
X111589816Y-102658000D01*
X111422184Y-102658000D01*
X111257772Y-102625297D01*
X111102900Y-102561147D01*
X110963519Y-102468015D01*
X110844985Y-102349481D01*
X110751853Y-102210100D01*
X110687703Y-102055228D01*
X110655000Y-101890816D01*
X110655000Y-101723184D01*
X110687703Y-101558772D01*
X110751853Y-101403900D01*
X110844985Y-101264519D01*
X110963519Y-101145985D01*
X111102900Y-101052853D01*
X111257772Y-100988703D01*
X111422184Y-100956000D01*
X111589816Y-100956000D01*
X111754228Y-100988703D01*
X111754228Y-100988703D01*
G37*
G36*
X89237812Y-100606624D02*
X89401784Y-100674544D01*
X89549354Y-100773147D01*
X89674853Y-100898646D01*
X89773456Y-101046216D01*
X89841376Y-101210188D01*
X89876000Y-101384259D01*
X89876000Y-101561741D01*
X89841376Y-101735812D01*
X89773456Y-101899784D01*
X89674853Y-102047354D01*
X89549354Y-102172853D01*
X89401784Y-102271456D01*
X89237812Y-102339376D01*
X89063741Y-102374000D01*
X88886259Y-102374000D01*
X88712188Y-102339376D01*
X88548216Y-102271456D01*
X88400646Y-102172853D01*
X88275147Y-102047354D01*
X88176544Y-101899784D01*
X88108624Y-101735812D01*
X88074000Y-101561741D01*
X88074000Y-101384259D01*
X88108624Y-101210188D01*
X88176544Y-101046216D01*
X88275147Y-100898646D01*
X88400646Y-100773147D01*
X88548216Y-100674544D01*
X88712188Y-100606624D01*
X88886259Y-100572000D01*
X89063741Y-100572000D01*
X89237812Y-100606624D01*
X89237812Y-100606624D01*
G37*
G36*
X82237812Y-100606624D02*
X82401784Y-100674544D01*
X82549354Y-100773147D01*
X82674853Y-100898646D01*
X82773456Y-101046216D01*
X82841376Y-101210188D01*
X82876000Y-101384259D01*
X82876000Y-101561741D01*
X82841376Y-101735812D01*
X82773456Y-101899784D01*
X82674853Y-102047354D01*
X82549354Y-102172853D01*
X82401784Y-102271456D01*
X82237812Y-102339376D01*
X82063741Y-102374000D01*
X81886259Y-102374000D01*
X81712188Y-102339376D01*
X81548216Y-102271456D01*
X81400646Y-102172853D01*
X81275147Y-102047354D01*
X81176544Y-101899784D01*
X81108624Y-101735812D01*
X81074000Y-101561741D01*
X81074000Y-101384259D01*
X81108624Y-101210188D01*
X81176544Y-101046216D01*
X81275147Y-100898646D01*
X81400646Y-100773147D01*
X81548216Y-100674544D01*
X81712188Y-100606624D01*
X81886259Y-100572000D01*
X82063741Y-100572000D01*
X82237812Y-100606624D01*
X82237812Y-100606624D01*
G37*
G36*
X95626000Y-102174000D02*
X92924000Y-102174000D01*
X92924000Y-99272000D01*
X95626000Y-99272000D01*
X95626000Y-102174000D01*
X95626000Y-102174000D01*
G37*
G36*
X133389821Y-100126313D02*
X133389824Y-100126314D01*
X133389825Y-100126314D01*
X133550239Y-100174975D01*
X133550241Y-100174976D01*
X133550244Y-100174977D01*
X133698078Y-100253995D01*
X133827659Y-100360341D01*
X133934005Y-100489922D01*
X134013023Y-100637756D01*
X134013024Y-100637759D01*
X134013025Y-100637761D01*
X134061686Y-100798175D01*
X134061687Y-100798179D01*
X134078117Y-100965000D01*
X134061687Y-101131821D01*
X134061686Y-101131824D01*
X134061686Y-101131825D01*
X134021434Y-101264519D01*
X134013023Y-101292244D01*
X133934005Y-101440078D01*
X133827659Y-101569659D01*
X133698078Y-101676005D01*
X133550244Y-101755023D01*
X133550241Y-101755024D01*
X133550239Y-101755025D01*
X133389825Y-101803686D01*
X133389824Y-101803686D01*
X133389821Y-101803687D01*
X133264804Y-101816000D01*
X133181196Y-101816000D01*
X133056179Y-101803687D01*
X133056176Y-101803686D01*
X133056175Y-101803686D01*
X132895761Y-101755025D01*
X132895759Y-101755024D01*
X132895756Y-101755023D01*
X132747922Y-101676005D01*
X132618341Y-101569659D01*
X132511995Y-101440078D01*
X132432977Y-101292244D01*
X132424567Y-101264519D01*
X132384314Y-101131825D01*
X132384314Y-101131824D01*
X132384313Y-101131821D01*
X132367883Y-100965000D01*
X132384313Y-100798179D01*
X132384314Y-100798175D01*
X132432975Y-100637761D01*
X132432976Y-100637759D01*
X132432977Y-100637756D01*
X132511995Y-100489922D01*
X132618341Y-100360341D01*
X132747922Y-100253995D01*
X132895756Y-100174977D01*
X132895759Y-100174976D01*
X132895761Y-100174975D01*
X133056175Y-100126314D01*
X133056176Y-100126314D01*
X133056179Y-100126313D01*
X133181196Y-100114000D01*
X133264804Y-100114000D01*
X133389821Y-100126313D01*
X133389821Y-100126313D01*
G37*
G36*
X130169228Y-99765703D02*
X130324100Y-99829853D01*
X130463481Y-99922985D01*
X130582015Y-100041519D01*
X130675147Y-100180900D01*
X130739297Y-100335772D01*
X130772000Y-100500184D01*
X130772000Y-100667816D01*
X130739297Y-100832228D01*
X130675147Y-100987100D01*
X130582015Y-101126481D01*
X130463481Y-101245015D01*
X130324100Y-101338147D01*
X130169228Y-101402297D01*
X130004816Y-101435000D01*
X129837184Y-101435000D01*
X129672772Y-101402297D01*
X129517900Y-101338147D01*
X129378519Y-101245015D01*
X129259985Y-101126481D01*
X129166853Y-100987100D01*
X129102703Y-100832228D01*
X129070000Y-100667816D01*
X129070000Y-100500184D01*
X129102703Y-100335772D01*
X129166853Y-100180900D01*
X129259985Y-100041519D01*
X129378519Y-99922985D01*
X129517900Y-99829853D01*
X129672772Y-99765703D01*
X129837184Y-99733000D01*
X130004816Y-99733000D01*
X130169228Y-99765703D01*
X130169228Y-99765703D01*
G37*
G36*
X124372821Y-99618313D02*
X124372824Y-99618314D01*
X124372825Y-99618314D01*
X124533239Y-99666975D01*
X124533241Y-99666976D01*
X124533244Y-99666977D01*
X124681078Y-99745995D01*
X124810659Y-99852341D01*
X124917005Y-99981922D01*
X124996023Y-100129756D01*
X124996024Y-100129759D01*
X124996025Y-100129761D01*
X125040460Y-100276244D01*
X125044687Y-100290179D01*
X125061117Y-100457000D01*
X125044687Y-100623821D01*
X125044686Y-100623824D01*
X125044686Y-100623825D01*
X124999389Y-100773150D01*
X124996023Y-100784244D01*
X124917005Y-100932078D01*
X124810659Y-101061659D01*
X124681078Y-101168005D01*
X124533244Y-101247023D01*
X124533241Y-101247024D01*
X124533239Y-101247025D01*
X124372825Y-101295686D01*
X124372824Y-101295686D01*
X124372821Y-101295687D01*
X124247804Y-101308000D01*
X124164196Y-101308000D01*
X124039179Y-101295687D01*
X124039176Y-101295686D01*
X124039175Y-101295686D01*
X123878761Y-101247025D01*
X123878759Y-101247024D01*
X123878756Y-101247023D01*
X123730922Y-101168005D01*
X123601341Y-101061659D01*
X123494995Y-100932078D01*
X123415977Y-100784244D01*
X123412612Y-100773150D01*
X123367314Y-100623825D01*
X123367314Y-100623824D01*
X123367313Y-100623821D01*
X123350883Y-100457000D01*
X123367313Y-100290179D01*
X123371540Y-100276244D01*
X123415975Y-100129761D01*
X123415976Y-100129759D01*
X123415977Y-100129756D01*
X123494995Y-99981922D01*
X123601341Y-99852341D01*
X123730922Y-99745995D01*
X123878756Y-99666977D01*
X123878759Y-99666976D01*
X123878761Y-99666975D01*
X124039175Y-99618314D01*
X124039176Y-99618314D01*
X124039179Y-99618313D01*
X124164196Y-99606000D01*
X124247804Y-99606000D01*
X124372821Y-99618313D01*
X124372821Y-99618313D01*
G37*
G36*
X116752821Y-99618313D02*
X116752824Y-99618314D01*
X116752825Y-99618314D01*
X116913239Y-99666975D01*
X116913241Y-99666976D01*
X116913244Y-99666977D01*
X117061078Y-99745995D01*
X117190659Y-99852341D01*
X117297005Y-99981922D01*
X117376023Y-100129756D01*
X117376024Y-100129759D01*
X117376025Y-100129761D01*
X117420460Y-100276244D01*
X117424687Y-100290179D01*
X117441117Y-100457000D01*
X117424687Y-100623821D01*
X117424686Y-100623824D01*
X117424686Y-100623825D01*
X117379389Y-100773150D01*
X117376023Y-100784244D01*
X117297005Y-100932078D01*
X117190659Y-101061659D01*
X117061078Y-101168005D01*
X116913244Y-101247023D01*
X116913241Y-101247024D01*
X116913239Y-101247025D01*
X116752825Y-101295686D01*
X116752824Y-101295686D01*
X116752821Y-101295687D01*
X116627804Y-101308000D01*
X116544196Y-101308000D01*
X116419179Y-101295687D01*
X116419176Y-101295686D01*
X116419175Y-101295686D01*
X116258761Y-101247025D01*
X116258759Y-101247024D01*
X116258756Y-101247023D01*
X116110922Y-101168005D01*
X115981341Y-101061659D01*
X115874995Y-100932078D01*
X115795977Y-100784244D01*
X115792612Y-100773150D01*
X115747314Y-100623825D01*
X115747314Y-100623824D01*
X115747313Y-100623821D01*
X115730883Y-100457000D01*
X115747313Y-100290179D01*
X115751540Y-100276244D01*
X115795975Y-100129761D01*
X115795976Y-100129759D01*
X115795977Y-100129756D01*
X115874995Y-99981922D01*
X115981341Y-99852341D01*
X116110922Y-99745995D01*
X116258756Y-99666977D01*
X116258759Y-99666976D01*
X116258761Y-99666975D01*
X116419175Y-99618314D01*
X116419176Y-99618314D01*
X116419179Y-99618313D01*
X116544196Y-99606000D01*
X116627804Y-99606000D01*
X116752821Y-99618313D01*
X116752821Y-99618313D01*
G37*
G36*
X141644821Y-99110313D02*
X141644824Y-99110314D01*
X141644825Y-99110314D01*
X141805239Y-99158975D01*
X141805241Y-99158976D01*
X141805244Y-99158977D01*
X141953078Y-99237995D01*
X142082659Y-99344341D01*
X142189005Y-99473922D01*
X142268023Y-99621756D01*
X142268024Y-99621759D01*
X142268025Y-99621761D01*
X142316686Y-99782175D01*
X142316687Y-99782179D01*
X142333117Y-99949000D01*
X142316687Y-100115821D01*
X142316686Y-100115824D01*
X142316686Y-100115825D01*
X142274773Y-100253995D01*
X142268023Y-100276244D01*
X142189005Y-100424078D01*
X142082659Y-100553659D01*
X141953078Y-100660005D01*
X141805244Y-100739023D01*
X141805241Y-100739024D01*
X141805239Y-100739025D01*
X141644825Y-100787686D01*
X141644824Y-100787686D01*
X141644821Y-100787687D01*
X141519804Y-100800000D01*
X141436196Y-100800000D01*
X141311179Y-100787687D01*
X141311176Y-100787686D01*
X141311175Y-100787686D01*
X141150761Y-100739025D01*
X141150759Y-100739024D01*
X141150756Y-100739023D01*
X141002922Y-100660005D01*
X140873341Y-100553659D01*
X140766995Y-100424078D01*
X140687977Y-100276244D01*
X140681228Y-100253995D01*
X140639314Y-100115825D01*
X140639314Y-100115824D01*
X140639313Y-100115821D01*
X140622883Y-99949000D01*
X140639313Y-99782179D01*
X140639314Y-99782175D01*
X140687975Y-99621761D01*
X140687976Y-99621759D01*
X140687977Y-99621756D01*
X140766995Y-99473922D01*
X140873341Y-99344341D01*
X141002922Y-99237995D01*
X141150756Y-99158977D01*
X141150759Y-99158976D01*
X141150761Y-99158975D01*
X141311175Y-99110314D01*
X141311176Y-99110314D01*
X141311179Y-99110313D01*
X141436196Y-99098000D01*
X141519804Y-99098000D01*
X141644821Y-99110313D01*
X141644821Y-99110313D01*
G37*
G36*
X136646228Y-99130703D02*
X136801100Y-99194853D01*
X136940481Y-99287985D01*
X137059015Y-99406519D01*
X137152147Y-99545900D01*
X137216297Y-99700772D01*
X137249000Y-99865184D01*
X137249000Y-100032816D01*
X137216297Y-100197228D01*
X137152147Y-100352100D01*
X137059015Y-100491481D01*
X136940481Y-100610015D01*
X136801100Y-100703147D01*
X136646228Y-100767297D01*
X136481816Y-100800000D01*
X136314184Y-100800000D01*
X136149772Y-100767297D01*
X135994900Y-100703147D01*
X135855519Y-100610015D01*
X135736985Y-100491481D01*
X135643853Y-100352100D01*
X135579703Y-100197228D01*
X135547000Y-100032816D01*
X135547000Y-99865184D01*
X135579703Y-99700772D01*
X135643853Y-99545900D01*
X135736985Y-99406519D01*
X135855519Y-99287985D01*
X135994900Y-99194853D01*
X136149772Y-99130703D01*
X136314184Y-99098000D01*
X136481816Y-99098000D01*
X136646228Y-99130703D01*
X136646228Y-99130703D01*
G37*
G36*
X111799821Y-97586313D02*
X111799824Y-97586314D01*
X111799825Y-97586314D01*
X111960239Y-97634975D01*
X111960241Y-97634976D01*
X111960244Y-97634977D01*
X112108078Y-97713995D01*
X112237659Y-97820341D01*
X112344005Y-97949922D01*
X112423023Y-98097756D01*
X112423024Y-98097759D01*
X112423025Y-98097761D01*
X112467460Y-98244244D01*
X112471687Y-98258179D01*
X112488117Y-98425000D01*
X112471687Y-98591821D01*
X112471686Y-98591824D01*
X112471686Y-98591825D01*
X112436741Y-98707025D01*
X112423023Y-98752244D01*
X112344005Y-98900078D01*
X112237659Y-99029659D01*
X112108078Y-99136005D01*
X111960244Y-99215023D01*
X111960241Y-99215024D01*
X111960239Y-99215025D01*
X111799825Y-99263686D01*
X111799824Y-99263686D01*
X111799821Y-99263687D01*
X111674804Y-99276000D01*
X111591196Y-99276000D01*
X111466179Y-99263687D01*
X111466176Y-99263686D01*
X111466175Y-99263686D01*
X111305761Y-99215025D01*
X111305759Y-99215024D01*
X111305756Y-99215023D01*
X111157922Y-99136005D01*
X111028341Y-99029659D01*
X110921995Y-98900078D01*
X110842977Y-98752244D01*
X110829260Y-98707025D01*
X110794314Y-98591825D01*
X110794314Y-98591824D01*
X110794313Y-98591821D01*
X110777883Y-98425000D01*
X110794313Y-98258179D01*
X110798540Y-98244244D01*
X110842975Y-98097761D01*
X110842976Y-98097759D01*
X110842977Y-98097756D01*
X110921995Y-97949922D01*
X111028341Y-97820341D01*
X111157922Y-97713995D01*
X111305756Y-97634977D01*
X111305759Y-97634976D01*
X111305761Y-97634975D01*
X111466175Y-97586314D01*
X111466176Y-97586314D01*
X111466179Y-97586313D01*
X111591196Y-97574000D01*
X111674804Y-97574000D01*
X111799821Y-97586313D01*
X111799821Y-97586313D01*
G37*
G36*
X124372821Y-97078313D02*
X124372824Y-97078314D01*
X124372825Y-97078314D01*
X124533239Y-97126975D01*
X124533241Y-97126976D01*
X124533244Y-97126977D01*
X124681078Y-97205995D01*
X124810659Y-97312341D01*
X124917005Y-97441922D01*
X124996023Y-97589756D01*
X124996024Y-97589759D01*
X124996025Y-97589761D01*
X125009741Y-97634977D01*
X125044687Y-97750179D01*
X125061117Y-97917000D01*
X125044687Y-98083821D01*
X125044686Y-98083824D01*
X125044686Y-98083825D01*
X125040459Y-98097761D01*
X124996023Y-98244244D01*
X124917005Y-98392078D01*
X124810659Y-98521659D01*
X124681078Y-98628005D01*
X124533244Y-98707023D01*
X124533241Y-98707024D01*
X124533239Y-98707025D01*
X124372825Y-98755686D01*
X124372824Y-98755686D01*
X124372821Y-98755687D01*
X124247804Y-98768000D01*
X124164196Y-98768000D01*
X124039179Y-98755687D01*
X124039176Y-98755686D01*
X124039175Y-98755686D01*
X123878761Y-98707025D01*
X123878759Y-98707024D01*
X123878756Y-98707023D01*
X123730922Y-98628005D01*
X123601341Y-98521659D01*
X123494995Y-98392078D01*
X123415977Y-98244244D01*
X123371542Y-98097761D01*
X123367314Y-98083825D01*
X123367314Y-98083824D01*
X123367313Y-98083821D01*
X123350883Y-97917000D01*
X123367313Y-97750179D01*
X123402259Y-97634977D01*
X123415975Y-97589761D01*
X123415976Y-97589759D01*
X123415977Y-97589756D01*
X123494995Y-97441922D01*
X123601341Y-97312341D01*
X123730922Y-97205995D01*
X123878756Y-97126977D01*
X123878759Y-97126976D01*
X123878761Y-97126975D01*
X124039175Y-97078314D01*
X124039176Y-97078314D01*
X124039179Y-97078313D01*
X124164196Y-97066000D01*
X124247804Y-97066000D01*
X124372821Y-97078313D01*
X124372821Y-97078313D01*
G37*
G36*
X117437000Y-98768000D02*
X115735000Y-98768000D01*
X115735000Y-97066000D01*
X117437000Y-97066000D01*
X117437000Y-98768000D01*
X117437000Y-98768000D01*
G37*
G36*
X107817228Y-95955703D02*
X107972100Y-96019853D01*
X108111481Y-96112985D01*
X108230015Y-96231519D01*
X108323147Y-96370900D01*
X108387297Y-96525772D01*
X108420000Y-96690184D01*
X108420000Y-96857816D01*
X108387297Y-97022228D01*
X108323147Y-97177100D01*
X108230015Y-97316481D01*
X108111481Y-97435015D01*
X107972100Y-97528147D01*
X107817228Y-97592297D01*
X107652816Y-97625000D01*
X107485184Y-97625000D01*
X107320772Y-97592297D01*
X107165900Y-97528147D01*
X107026519Y-97435015D01*
X106907985Y-97316481D01*
X106814853Y-97177100D01*
X106750703Y-97022228D01*
X106718000Y-96857816D01*
X106718000Y-96690184D01*
X106750703Y-96525772D01*
X106814853Y-96370900D01*
X106907985Y-96231519D01*
X107026519Y-96112985D01*
X107165900Y-96019853D01*
X107320772Y-95955703D01*
X107485184Y-95923000D01*
X107652816Y-95923000D01*
X107817228Y-95955703D01*
X107817228Y-95955703D01*
G37*
G36*
X99226821Y-95554313D02*
X99226824Y-95554314D01*
X99226825Y-95554314D01*
X99387239Y-95602975D01*
X99387241Y-95602976D01*
X99387244Y-95602977D01*
X99535078Y-95681995D01*
X99664659Y-95788341D01*
X99771005Y-95917922D01*
X99850023Y-96065756D01*
X99850024Y-96065759D01*
X99850025Y-96065761D01*
X99898686Y-96226175D01*
X99898687Y-96226179D01*
X99915117Y-96393000D01*
X99898687Y-96559821D01*
X99898686Y-96559824D01*
X99898686Y-96559825D01*
X99873993Y-96641228D01*
X99850023Y-96720244D01*
X99771005Y-96868078D01*
X99664659Y-96997659D01*
X99535078Y-97104005D01*
X99387244Y-97183023D01*
X99387241Y-97183024D01*
X99387239Y-97183025D01*
X99226825Y-97231686D01*
X99226824Y-97231686D01*
X99226821Y-97231687D01*
X99101804Y-97244000D01*
X99018196Y-97244000D01*
X98893179Y-97231687D01*
X98893176Y-97231686D01*
X98893175Y-97231686D01*
X98732761Y-97183025D01*
X98732759Y-97183024D01*
X98732756Y-97183023D01*
X98584922Y-97104005D01*
X98455341Y-96997659D01*
X98348995Y-96868078D01*
X98269977Y-96720244D01*
X98246008Y-96641228D01*
X98221314Y-96559825D01*
X98221314Y-96559824D01*
X98221313Y-96559821D01*
X98204883Y-96393000D01*
X98221313Y-96226179D01*
X98221314Y-96226175D01*
X98269975Y-96065761D01*
X98269976Y-96065759D01*
X98269977Y-96065756D01*
X98348995Y-95917922D01*
X98455341Y-95788341D01*
X98584922Y-95681995D01*
X98732756Y-95602977D01*
X98732759Y-95602976D01*
X98732761Y-95602975D01*
X98893175Y-95554314D01*
X98893176Y-95554314D01*
X98893179Y-95554313D01*
X99018196Y-95542000D01*
X99101804Y-95542000D01*
X99226821Y-95554313D01*
X99226821Y-95554313D01*
G37*
G36*
X104388228Y-95574703D02*
X104543100Y-95638853D01*
X104682481Y-95731985D01*
X104801015Y-95850519D01*
X104894147Y-95989900D01*
X104958297Y-96144772D01*
X104991000Y-96309184D01*
X104991000Y-96476816D01*
X104958297Y-96641228D01*
X104894147Y-96796100D01*
X104801015Y-96935481D01*
X104682481Y-97054015D01*
X104543100Y-97147147D01*
X104388228Y-97211297D01*
X104223816Y-97244000D01*
X104056184Y-97244000D01*
X103891772Y-97211297D01*
X103736900Y-97147147D01*
X103597519Y-97054015D01*
X103478985Y-96935481D01*
X103385853Y-96796100D01*
X103321703Y-96641228D01*
X103289000Y-96476816D01*
X103289000Y-96309184D01*
X103321703Y-96144772D01*
X103385853Y-95989900D01*
X103478985Y-95850519D01*
X103597519Y-95731985D01*
X103736900Y-95638853D01*
X103891772Y-95574703D01*
X104056184Y-95542000D01*
X104223816Y-95542000D01*
X104388228Y-95574703D01*
X104388228Y-95574703D01*
G37*
G36*
X134878242Y-94730404D02*
X134915339Y-94741657D01*
X134949520Y-94759927D01*
X134979482Y-94784518D01*
X135004073Y-94814480D01*
X135022343Y-94848661D01*
X135033596Y-94885758D01*
X135038000Y-94930473D01*
X135038000Y-95823527D01*
X135033596Y-95868242D01*
X135022343Y-95905339D01*
X135004073Y-95939520D01*
X134979482Y-95969482D01*
X134949520Y-95994073D01*
X134915339Y-96012343D01*
X134878242Y-96023596D01*
X134833527Y-96028000D01*
X133390473Y-96028000D01*
X133345758Y-96023596D01*
X133308661Y-96012343D01*
X133274480Y-95994073D01*
X133244518Y-95969482D01*
X133219927Y-95939520D01*
X133201657Y-95905339D01*
X133190404Y-95868242D01*
X133186000Y-95823527D01*
X133186000Y-94930473D01*
X133190404Y-94885758D01*
X133201657Y-94848661D01*
X133219927Y-94814480D01*
X133244518Y-94784518D01*
X133274480Y-94759927D01*
X133308661Y-94741657D01*
X133345758Y-94730404D01*
X133390473Y-94726000D01*
X134833527Y-94726000D01*
X134878242Y-94730404D01*
X134878242Y-94730404D01*
G37*
G36*
X111881228Y-92526703D02*
X112036100Y-92590853D01*
X112175481Y-92683985D01*
X112294015Y-92802519D01*
X112387147Y-92941900D01*
X112451297Y-93096772D01*
X112484000Y-93261184D01*
X112484000Y-93428816D01*
X112451297Y-93593228D01*
X112387147Y-93748100D01*
X112294015Y-93887481D01*
X112175481Y-94006015D01*
X112036100Y-94099147D01*
X111881228Y-94163297D01*
X111716816Y-94196000D01*
X111549184Y-94196000D01*
X111384772Y-94163297D01*
X111229900Y-94099147D01*
X111090519Y-94006015D01*
X110971985Y-93887481D01*
X110878853Y-93748100D01*
X110814703Y-93593228D01*
X110782000Y-93428816D01*
X110782000Y-93261184D01*
X110814703Y-93096772D01*
X110878853Y-92941900D01*
X110971985Y-92802519D01*
X111090519Y-92683985D01*
X111229900Y-92590853D01*
X111384772Y-92526703D01*
X111549184Y-92494000D01*
X111716816Y-92494000D01*
X111881228Y-92526703D01*
X111881228Y-92526703D01*
G37*
G36*
X134450855Y-92729140D02*
X134514618Y-92735420D01*
X134596427Y-92760237D01*
X134637333Y-92772645D01*
X134737491Y-92826181D01*
X134750426Y-92833095D01*
X134849553Y-92914447D01*
X134930905Y-93013574D01*
X134930906Y-93013576D01*
X134991355Y-93126667D01*
X134991355Y-93126668D01*
X135028580Y-93249382D01*
X135041149Y-93377000D01*
X135028580Y-93504618D01*
X135003763Y-93586427D01*
X134991355Y-93627333D01*
X134937819Y-93727491D01*
X134930905Y-93740426D01*
X134849553Y-93839553D01*
X134750426Y-93920905D01*
X134750424Y-93920906D01*
X134637333Y-93981355D01*
X134596427Y-93993763D01*
X134514618Y-94018580D01*
X134450855Y-94024860D01*
X134418974Y-94028000D01*
X133805026Y-94028000D01*
X133773145Y-94024860D01*
X133709382Y-94018580D01*
X133627573Y-93993763D01*
X133586667Y-93981355D01*
X133473576Y-93920906D01*
X133473574Y-93920905D01*
X133374447Y-93839553D01*
X133293095Y-93740426D01*
X133286181Y-93727491D01*
X133232645Y-93627333D01*
X133220237Y-93586427D01*
X133195420Y-93504618D01*
X133182851Y-93377000D01*
X133195420Y-93249382D01*
X133232645Y-93126668D01*
X133232645Y-93126667D01*
X133293094Y-93013576D01*
X133293095Y-93013574D01*
X133374447Y-92914447D01*
X133473574Y-92833095D01*
X133486509Y-92826181D01*
X133586667Y-92772645D01*
X133627573Y-92760237D01*
X133709382Y-92735420D01*
X133773145Y-92729140D01*
X133805026Y-92726000D01*
X134418974Y-92726000D01*
X134450855Y-92729140D01*
X134450855Y-92729140D01*
G37*
G36*
X126404821Y-91617313D02*
X126404824Y-91617314D01*
X126404825Y-91617314D01*
X126565239Y-91665975D01*
X126565241Y-91665976D01*
X126565244Y-91665977D01*
X126713078Y-91744995D01*
X126842659Y-91851341D01*
X126949005Y-91980922D01*
X127028023Y-92128756D01*
X127028024Y-92128759D01*
X127028025Y-92128761D01*
X127076686Y-92289175D01*
X127076687Y-92289179D01*
X127093117Y-92456000D01*
X127076687Y-92622821D01*
X127076686Y-92622824D01*
X127076686Y-92622825D01*
X127031239Y-92772645D01*
X127028023Y-92783244D01*
X126949005Y-92931078D01*
X126842659Y-93060659D01*
X126713078Y-93167005D01*
X126565244Y-93246023D01*
X126565241Y-93246024D01*
X126565239Y-93246025D01*
X126404825Y-93294686D01*
X126404824Y-93294686D01*
X126404821Y-93294687D01*
X126279804Y-93307000D01*
X126196196Y-93307000D01*
X126071179Y-93294687D01*
X126071176Y-93294686D01*
X126071175Y-93294686D01*
X125910761Y-93246025D01*
X125910759Y-93246024D01*
X125910756Y-93246023D01*
X125762922Y-93167005D01*
X125633341Y-93060659D01*
X125526995Y-92931078D01*
X125447977Y-92783244D01*
X125444762Y-92772645D01*
X125399314Y-92622825D01*
X125399314Y-92622824D01*
X125399313Y-92622821D01*
X125382883Y-92456000D01*
X125399313Y-92289179D01*
X125399314Y-92289175D01*
X125447975Y-92128761D01*
X125447976Y-92128759D01*
X125447977Y-92128756D01*
X125526995Y-91980922D01*
X125633341Y-91851341D01*
X125762922Y-91744995D01*
X125910756Y-91665977D01*
X125910759Y-91665976D01*
X125910761Y-91665975D01*
X126071175Y-91617314D01*
X126071176Y-91617314D01*
X126071179Y-91617313D01*
X126196196Y-91605000D01*
X126279804Y-91605000D01*
X126404821Y-91617313D01*
X126404821Y-91617313D01*
G37*
G36*
X121406228Y-91637703D02*
X121561100Y-91701853D01*
X121700481Y-91794985D01*
X121819015Y-91913519D01*
X121912147Y-92052900D01*
X121976297Y-92207772D01*
X122009000Y-92372184D01*
X122009000Y-92539816D01*
X121976297Y-92704228D01*
X121912147Y-92859100D01*
X121819015Y-92998481D01*
X121700481Y-93117015D01*
X121561100Y-93210147D01*
X121406228Y-93274297D01*
X121241816Y-93307000D01*
X121074184Y-93307000D01*
X120909772Y-93274297D01*
X120754900Y-93210147D01*
X120615519Y-93117015D01*
X120496985Y-92998481D01*
X120403853Y-92859100D01*
X120339703Y-92704228D01*
X120307000Y-92539816D01*
X120307000Y-92372184D01*
X120339703Y-92207772D01*
X120403853Y-92052900D01*
X120496985Y-91913519D01*
X120615519Y-91794985D01*
X120754900Y-91701853D01*
X120909772Y-91637703D01*
X121074184Y-91605000D01*
X121241816Y-91605000D01*
X121406228Y-91637703D01*
X121406228Y-91637703D01*
G37*
G36*
X91726000Y-93162000D02*
X88824000Y-93162000D01*
X88824000Y-90260000D01*
X91726000Y-90260000D01*
X91726000Y-93162000D01*
X91726000Y-93162000D01*
G37*
G36*
X82026000Y-93162000D02*
X79724000Y-93162000D01*
X79724000Y-90260000D01*
X82026000Y-90260000D01*
X82026000Y-93162000D01*
X82026000Y-93162000D01*
G37*
G36*
X134450855Y-90729140D02*
X134514618Y-90735420D01*
X134596427Y-90760237D01*
X134637333Y-90772645D01*
X134737491Y-90826181D01*
X134750426Y-90833095D01*
X134849553Y-90914447D01*
X134930905Y-91013574D01*
X134930906Y-91013576D01*
X134991355Y-91126667D01*
X134991355Y-91126668D01*
X135028580Y-91249382D01*
X135041149Y-91377000D01*
X135028580Y-91504618D01*
X135003763Y-91586427D01*
X134991355Y-91627333D01*
X134970700Y-91665975D01*
X134930905Y-91740426D01*
X134849553Y-91839553D01*
X134750426Y-91920905D01*
X134750424Y-91920906D01*
X134637333Y-91981355D01*
X134596427Y-91993763D01*
X134514618Y-92018580D01*
X134450855Y-92024860D01*
X134418974Y-92028000D01*
X133805026Y-92028000D01*
X133773145Y-92024860D01*
X133709382Y-92018580D01*
X133627573Y-91993763D01*
X133586667Y-91981355D01*
X133473576Y-91920906D01*
X133473574Y-91920905D01*
X133374447Y-91839553D01*
X133293095Y-91740426D01*
X133253300Y-91665975D01*
X133232645Y-91627333D01*
X133220237Y-91586427D01*
X133195420Y-91504618D01*
X133182851Y-91377000D01*
X133195420Y-91249382D01*
X133232645Y-91126668D01*
X133232645Y-91126667D01*
X133293094Y-91013576D01*
X133293095Y-91013574D01*
X133374447Y-90914447D01*
X133473574Y-90833095D01*
X133486509Y-90826181D01*
X133586667Y-90772645D01*
X133627573Y-90760237D01*
X133709382Y-90735420D01*
X133773145Y-90729140D01*
X133805026Y-90726000D01*
X134418974Y-90726000D01*
X134450855Y-90729140D01*
X134450855Y-90729140D01*
G37*
G36*
X100832228Y-89224703D02*
X100987100Y-89288853D01*
X101126481Y-89381985D01*
X101245015Y-89500519D01*
X101338147Y-89639900D01*
X101402297Y-89794772D01*
X101435000Y-89959184D01*
X101435000Y-90126816D01*
X101402297Y-90291228D01*
X101338147Y-90446100D01*
X101245015Y-90585481D01*
X101126481Y-90704015D01*
X100987100Y-90797147D01*
X100832228Y-90861297D01*
X100667816Y-90894000D01*
X100500184Y-90894000D01*
X100335772Y-90861297D01*
X100180900Y-90797147D01*
X100041519Y-90704015D01*
X99922985Y-90585481D01*
X99829853Y-90446100D01*
X99765703Y-90291228D01*
X99733000Y-90126816D01*
X99733000Y-89959184D01*
X99765703Y-89794772D01*
X99829853Y-89639900D01*
X99922985Y-89500519D01*
X100041519Y-89381985D01*
X100180900Y-89288853D01*
X100335772Y-89224703D01*
X100500184Y-89192000D01*
X100667816Y-89192000D01*
X100832228Y-89224703D01*
X100832228Y-89224703D01*
G37*
G36*
X109386821Y-88823313D02*
X109386824Y-88823314D01*
X109386825Y-88823314D01*
X109547239Y-88871975D01*
X109547241Y-88871976D01*
X109547244Y-88871977D01*
X109695078Y-88950995D01*
X109824659Y-89057341D01*
X109931005Y-89186922D01*
X110010023Y-89334756D01*
X110010024Y-89334759D01*
X110010025Y-89334761D01*
X110058686Y-89495175D01*
X110058687Y-89495179D01*
X110075117Y-89662000D01*
X110058687Y-89828821D01*
X110058686Y-89828824D01*
X110058686Y-89828825D01*
X110013131Y-89979001D01*
X110010023Y-89989244D01*
X109931005Y-90137078D01*
X109824659Y-90266659D01*
X109695078Y-90373005D01*
X109547244Y-90452023D01*
X109547241Y-90452024D01*
X109547239Y-90452025D01*
X109386825Y-90500686D01*
X109386824Y-90500686D01*
X109386821Y-90500687D01*
X109261804Y-90513000D01*
X109178196Y-90513000D01*
X109053179Y-90500687D01*
X109053176Y-90500686D01*
X109053175Y-90500686D01*
X108892761Y-90452025D01*
X108892759Y-90452024D01*
X108892756Y-90452023D01*
X108744922Y-90373005D01*
X108615341Y-90266659D01*
X108508995Y-90137078D01*
X108429977Y-89989244D01*
X108426870Y-89979001D01*
X108381314Y-89828825D01*
X108381314Y-89828824D01*
X108381313Y-89828821D01*
X108364883Y-89662000D01*
X108381313Y-89495179D01*
X108381314Y-89495175D01*
X108429975Y-89334761D01*
X108429976Y-89334759D01*
X108429977Y-89334756D01*
X108508995Y-89186922D01*
X108615341Y-89057341D01*
X108744922Y-88950995D01*
X108892756Y-88871977D01*
X108892759Y-88871976D01*
X108892761Y-88871975D01*
X109053175Y-88823314D01*
X109053176Y-88823314D01*
X109053179Y-88823313D01*
X109178196Y-88811000D01*
X109261804Y-88811000D01*
X109386821Y-88823313D01*
X109386821Y-88823313D01*
G37*
G36*
X114548228Y-88843703D02*
X114703100Y-88907853D01*
X114842481Y-89000985D01*
X114961015Y-89119519D01*
X115054147Y-89258900D01*
X115118297Y-89413772D01*
X115151000Y-89578184D01*
X115151000Y-89745816D01*
X115118297Y-89910228D01*
X115054147Y-90065100D01*
X114961015Y-90204481D01*
X114842481Y-90323015D01*
X114703100Y-90416147D01*
X114548228Y-90480297D01*
X114383816Y-90513000D01*
X114216184Y-90513000D01*
X114051772Y-90480297D01*
X113896900Y-90416147D01*
X113757519Y-90323015D01*
X113638985Y-90204481D01*
X113545853Y-90065100D01*
X113481703Y-89910228D01*
X113449000Y-89745816D01*
X113449000Y-89578184D01*
X113481703Y-89413772D01*
X113545853Y-89258900D01*
X113638985Y-89119519D01*
X113757519Y-89000985D01*
X113896900Y-88907853D01*
X114051772Y-88843703D01*
X114216184Y-88811000D01*
X114383816Y-88811000D01*
X114548228Y-88843703D01*
X114548228Y-88843703D01*
G37*
G36*
X117692822Y-88289314D02*
X117692825Y-88289315D01*
X117692826Y-88289315D01*
X117853240Y-88337976D01*
X117853242Y-88337977D01*
X117853245Y-88337978D01*
X118001079Y-88416996D01*
X118130660Y-88523342D01*
X118237006Y-88652923D01*
X118316024Y-88800757D01*
X118316025Y-88800760D01*
X118316026Y-88800762D01*
X118361599Y-88950996D01*
X118364688Y-88961180D01*
X118381118Y-89128001D01*
X118364688Y-89294822D01*
X118364687Y-89294825D01*
X118364687Y-89294826D01*
X118338248Y-89381985D01*
X118316024Y-89455245D01*
X118237006Y-89603079D01*
X118130660Y-89732660D01*
X118001079Y-89839006D01*
X117853245Y-89918024D01*
X117853242Y-89918025D01*
X117853240Y-89918026D01*
X117692826Y-89966687D01*
X117692825Y-89966687D01*
X117692822Y-89966688D01*
X117567805Y-89979001D01*
X117484197Y-89979001D01*
X117359180Y-89966688D01*
X117359177Y-89966687D01*
X117359176Y-89966687D01*
X117198762Y-89918026D01*
X117198760Y-89918025D01*
X117198757Y-89918024D01*
X117050923Y-89839006D01*
X116921342Y-89732660D01*
X116814996Y-89603079D01*
X116735978Y-89455245D01*
X116713755Y-89381985D01*
X116687315Y-89294826D01*
X116687315Y-89294825D01*
X116687314Y-89294822D01*
X116670884Y-89128001D01*
X116687314Y-88961180D01*
X116690403Y-88950996D01*
X116735976Y-88800762D01*
X116735977Y-88800760D01*
X116735978Y-88800757D01*
X116814996Y-88652923D01*
X116921342Y-88523342D01*
X117050923Y-88416996D01*
X117198757Y-88337978D01*
X117198760Y-88337977D01*
X117198762Y-88337976D01*
X117359176Y-88289315D01*
X117359177Y-88289315D01*
X117359180Y-88289314D01*
X117484197Y-88277001D01*
X117567805Y-88277001D01*
X117692822Y-88289314D01*
X117692822Y-88289314D01*
G37*
G36*
X125312822Y-88289314D02*
X125312825Y-88289315D01*
X125312826Y-88289315D01*
X125473240Y-88337976D01*
X125473242Y-88337977D01*
X125473245Y-88337978D01*
X125621079Y-88416996D01*
X125750660Y-88523342D01*
X125857006Y-88652923D01*
X125936024Y-88800757D01*
X125936025Y-88800760D01*
X125936026Y-88800762D01*
X125981599Y-88950996D01*
X125984688Y-88961180D01*
X126001118Y-89128001D01*
X125984688Y-89294822D01*
X125984687Y-89294825D01*
X125984687Y-89294826D01*
X125958248Y-89381985D01*
X125936024Y-89455245D01*
X125857006Y-89603079D01*
X125750660Y-89732660D01*
X125621079Y-89839006D01*
X125473245Y-89918024D01*
X125473242Y-89918025D01*
X125473240Y-89918026D01*
X125312826Y-89966687D01*
X125312825Y-89966687D01*
X125312822Y-89966688D01*
X125187805Y-89979001D01*
X125104197Y-89979001D01*
X124979180Y-89966688D01*
X124979177Y-89966687D01*
X124979176Y-89966687D01*
X124818762Y-89918026D01*
X124818760Y-89918025D01*
X124818757Y-89918024D01*
X124670923Y-89839006D01*
X124541342Y-89732660D01*
X124434996Y-89603079D01*
X124355978Y-89455245D01*
X124333755Y-89381985D01*
X124307315Y-89294826D01*
X124307315Y-89294825D01*
X124307314Y-89294822D01*
X124290884Y-89128001D01*
X124307314Y-88961180D01*
X124310403Y-88950996D01*
X124355976Y-88800762D01*
X124355977Y-88800760D01*
X124355978Y-88800757D01*
X124434996Y-88652923D01*
X124541342Y-88523342D01*
X124670923Y-88416996D01*
X124818757Y-88337978D01*
X124818760Y-88337977D01*
X124818762Y-88337976D01*
X124979176Y-88289315D01*
X124979177Y-88289315D01*
X124979180Y-88289314D01*
X125104197Y-88277001D01*
X125187805Y-88277001D01*
X125312822Y-88289314D01*
X125312822Y-88289314D01*
G37*
G36*
X106801228Y-88001703D02*
X106956100Y-88065853D01*
X107095481Y-88158985D01*
X107214015Y-88277519D01*
X107307147Y-88416900D01*
X107371297Y-88571772D01*
X107404000Y-88736184D01*
X107404000Y-88903816D01*
X107371297Y-89068228D01*
X107307147Y-89223100D01*
X107214015Y-89362481D01*
X107095481Y-89481015D01*
X106956100Y-89574147D01*
X106801228Y-89638297D01*
X106636816Y-89671000D01*
X106469184Y-89671000D01*
X106304772Y-89638297D01*
X106149900Y-89574147D01*
X106010519Y-89481015D01*
X105891985Y-89362481D01*
X105798853Y-89223100D01*
X105734703Y-89068228D01*
X105702000Y-88903816D01*
X105702000Y-88736184D01*
X105734703Y-88571772D01*
X105798853Y-88416900D01*
X105891985Y-88277519D01*
X106010519Y-88158985D01*
X106149900Y-88065853D01*
X106304772Y-88001703D01*
X106469184Y-87969000D01*
X106636816Y-87969000D01*
X106801228Y-88001703D01*
X106801228Y-88001703D01*
G37*
G36*
X82237812Y-87144624D02*
X82401784Y-87212544D01*
X82549354Y-87311147D01*
X82674853Y-87436646D01*
X82773456Y-87584216D01*
X82841376Y-87748188D01*
X82876000Y-87922259D01*
X82876000Y-88099741D01*
X82841376Y-88273812D01*
X82773456Y-88437784D01*
X82674853Y-88585354D01*
X82549354Y-88710853D01*
X82401784Y-88809456D01*
X82237812Y-88877376D01*
X82063741Y-88912000D01*
X81886259Y-88912000D01*
X81712188Y-88877376D01*
X81548216Y-88809456D01*
X81400646Y-88710853D01*
X81275147Y-88585354D01*
X81176544Y-88437784D01*
X81108624Y-88273812D01*
X81074000Y-88099741D01*
X81074000Y-87922259D01*
X81108624Y-87748188D01*
X81176544Y-87584216D01*
X81275147Y-87436646D01*
X81400646Y-87311147D01*
X81548216Y-87212544D01*
X81712188Y-87144624D01*
X81886259Y-87110000D01*
X82063741Y-87110000D01*
X82237812Y-87144624D01*
X82237812Y-87144624D01*
G37*
G36*
X89237812Y-87144624D02*
X89401784Y-87212544D01*
X89549354Y-87311147D01*
X89674853Y-87436646D01*
X89773456Y-87584216D01*
X89841376Y-87748188D01*
X89876000Y-87922259D01*
X89876000Y-88099741D01*
X89841376Y-88273812D01*
X89773456Y-88437784D01*
X89674853Y-88585354D01*
X89549354Y-88710853D01*
X89401784Y-88809456D01*
X89237812Y-88877376D01*
X89063741Y-88912000D01*
X88886259Y-88912000D01*
X88712188Y-88877376D01*
X88548216Y-88809456D01*
X88400646Y-88710853D01*
X88275147Y-88585354D01*
X88176544Y-88437784D01*
X88108624Y-88273812D01*
X88074000Y-88099741D01*
X88074000Y-87922259D01*
X88108624Y-87748188D01*
X88176544Y-87584216D01*
X88275147Y-87436646D01*
X88400646Y-87311147D01*
X88548216Y-87212544D01*
X88712188Y-87144624D01*
X88886259Y-87110000D01*
X89063741Y-87110000D01*
X89237812Y-87144624D01*
X89237812Y-87144624D01*
G37*
G36*
X95626000Y-88712000D02*
X92924000Y-88712000D01*
X92924000Y-85810000D01*
X95626000Y-85810000D01*
X95626000Y-88712000D01*
X95626000Y-88712000D01*
G37*
G36*
X130296228Y-86684703D02*
X130451100Y-86748853D01*
X130590481Y-86841985D01*
X130709015Y-86960519D01*
X130802147Y-87099900D01*
X130866297Y-87254772D01*
X130899000Y-87419184D01*
X130899000Y-87586816D01*
X130866297Y-87751228D01*
X130802147Y-87906100D01*
X130709015Y-88045481D01*
X130590481Y-88164015D01*
X130451100Y-88257147D01*
X130296228Y-88321297D01*
X130131816Y-88354000D01*
X129964184Y-88354000D01*
X129799772Y-88321297D01*
X129644900Y-88257147D01*
X129505519Y-88164015D01*
X129386985Y-88045481D01*
X129293853Y-87906100D01*
X129229703Y-87751228D01*
X129197000Y-87586816D01*
X129197000Y-87419184D01*
X129229703Y-87254772D01*
X129293853Y-87099900D01*
X129386985Y-86960519D01*
X129505519Y-86841985D01*
X129644900Y-86748853D01*
X129799772Y-86684703D01*
X129964184Y-86652000D01*
X130131816Y-86652000D01*
X130296228Y-86684703D01*
X130296228Y-86684703D01*
G37*
G36*
X134487228Y-86604703D02*
X134642100Y-86668853D01*
X134781481Y-86761985D01*
X134900015Y-86880519D01*
X134993147Y-87019900D01*
X135057297Y-87174772D01*
X135090000Y-87339184D01*
X135090000Y-87506816D01*
X135057297Y-87671228D01*
X134993147Y-87826100D01*
X134900015Y-87965481D01*
X134781481Y-88084015D01*
X134642100Y-88177147D01*
X134487228Y-88241297D01*
X134322816Y-88274000D01*
X134155184Y-88274000D01*
X133990772Y-88241297D01*
X133835900Y-88177147D01*
X133696519Y-88084015D01*
X133577985Y-87965481D01*
X133484853Y-87826100D01*
X133420703Y-87671228D01*
X133388000Y-87506816D01*
X133388000Y-87339184D01*
X133420703Y-87174772D01*
X133484853Y-87019900D01*
X133577985Y-86880519D01*
X133696519Y-86761985D01*
X133835900Y-86668853D01*
X133990772Y-86604703D01*
X134155184Y-86572000D01*
X134322816Y-86572000D01*
X134487228Y-86604703D01*
X134487228Y-86604703D01*
G37*
G36*
X110357228Y-85842703D02*
X110512100Y-85906853D01*
X110651481Y-85999985D01*
X110770015Y-86118519D01*
X110863147Y-86257900D01*
X110927297Y-86412772D01*
X110960000Y-86577184D01*
X110960000Y-86744816D01*
X110927297Y-86909228D01*
X110863147Y-87064100D01*
X110770015Y-87203481D01*
X110651481Y-87322015D01*
X110512100Y-87415147D01*
X110357228Y-87479297D01*
X110192816Y-87512000D01*
X110025184Y-87512000D01*
X109860772Y-87479297D01*
X109705900Y-87415147D01*
X109566519Y-87322015D01*
X109447985Y-87203481D01*
X109354853Y-87064100D01*
X109290703Y-86909228D01*
X109258000Y-86744816D01*
X109258000Y-86577184D01*
X109290703Y-86412772D01*
X109354853Y-86257900D01*
X109447985Y-86118519D01*
X109566519Y-85999985D01*
X109705900Y-85906853D01*
X109860772Y-85842703D01*
X110025184Y-85810000D01*
X110192816Y-85810000D01*
X110357228Y-85842703D01*
X110357228Y-85842703D01*
G37*
G36*
X117692822Y-85749314D02*
X117692825Y-85749315D01*
X117692826Y-85749315D01*
X117853240Y-85797976D01*
X117853242Y-85797977D01*
X117853245Y-85797978D01*
X118001079Y-85876996D01*
X118130660Y-85983342D01*
X118237006Y-86112923D01*
X118316024Y-86260757D01*
X118316025Y-86260760D01*
X118316026Y-86260762D01*
X118364687Y-86421176D01*
X118364688Y-86421180D01*
X118381118Y-86588001D01*
X118364688Y-86754822D01*
X118364687Y-86754825D01*
X118364687Y-86754826D01*
X118317850Y-86909228D01*
X118316024Y-86915245D01*
X118237006Y-87063079D01*
X118130660Y-87192660D01*
X118001079Y-87299006D01*
X117853245Y-87378024D01*
X117853242Y-87378025D01*
X117853240Y-87378026D01*
X117692826Y-87426687D01*
X117692825Y-87426687D01*
X117692822Y-87426688D01*
X117567805Y-87439001D01*
X117484197Y-87439001D01*
X117359180Y-87426688D01*
X117359177Y-87426687D01*
X117359176Y-87426687D01*
X117198762Y-87378026D01*
X117198760Y-87378025D01*
X117198757Y-87378024D01*
X117050923Y-87299006D01*
X116921342Y-87192660D01*
X116814996Y-87063079D01*
X116735978Y-86915245D01*
X116734153Y-86909228D01*
X116687315Y-86754826D01*
X116687315Y-86754825D01*
X116687314Y-86754822D01*
X116670884Y-86588001D01*
X116687314Y-86421180D01*
X116687315Y-86421176D01*
X116735976Y-86260762D01*
X116735977Y-86260760D01*
X116735978Y-86260757D01*
X116814996Y-86112923D01*
X116921342Y-85983342D01*
X117050923Y-85876996D01*
X117198757Y-85797978D01*
X117198760Y-85797977D01*
X117198762Y-85797976D01*
X117359176Y-85749315D01*
X117359177Y-85749315D01*
X117359180Y-85749314D01*
X117484197Y-85737001D01*
X117567805Y-85737001D01*
X117692822Y-85749314D01*
X117692822Y-85749314D01*
G37*
G36*
X125312822Y-85749314D02*
X125312825Y-85749315D01*
X125312826Y-85749315D01*
X125473240Y-85797976D01*
X125473242Y-85797977D01*
X125473245Y-85797978D01*
X125621079Y-85876996D01*
X125750660Y-85983342D01*
X125857006Y-86112923D01*
X125936024Y-86260757D01*
X125936025Y-86260760D01*
X125936026Y-86260762D01*
X125984687Y-86421176D01*
X125984688Y-86421180D01*
X126001118Y-86588001D01*
X125984688Y-86754822D01*
X125984687Y-86754825D01*
X125984687Y-86754826D01*
X125937850Y-86909228D01*
X125936024Y-86915245D01*
X125857006Y-87063079D01*
X125750660Y-87192660D01*
X125621079Y-87299006D01*
X125473245Y-87378024D01*
X125473242Y-87378025D01*
X125473240Y-87378026D01*
X125312826Y-87426687D01*
X125312825Y-87426687D01*
X125312822Y-87426688D01*
X125187805Y-87439001D01*
X125104197Y-87439001D01*
X124979180Y-87426688D01*
X124979177Y-87426687D01*
X124979176Y-87426687D01*
X124818762Y-87378026D01*
X124818760Y-87378025D01*
X124818757Y-87378024D01*
X124670923Y-87299006D01*
X124541342Y-87192660D01*
X124434996Y-87063079D01*
X124355978Y-86915245D01*
X124354153Y-86909228D01*
X124307315Y-86754826D01*
X124307315Y-86754825D01*
X124307314Y-86754822D01*
X124290884Y-86588001D01*
X124307314Y-86421180D01*
X124307315Y-86421176D01*
X124355976Y-86260762D01*
X124355977Y-86260760D01*
X124355978Y-86260757D01*
X124434996Y-86112923D01*
X124541342Y-85983342D01*
X124670923Y-85876996D01*
X124818757Y-85797978D01*
X124818760Y-85797977D01*
X124818762Y-85797976D01*
X124979176Y-85749315D01*
X124979177Y-85749315D01*
X124979180Y-85749314D01*
X125104197Y-85737001D01*
X125187805Y-85737001D01*
X125312822Y-85749314D01*
X125312822Y-85749314D01*
G37*
G36*
X100750821Y-84124313D02*
X100750824Y-84124314D01*
X100750825Y-84124314D01*
X100911239Y-84172975D01*
X100911241Y-84172976D01*
X100911244Y-84172977D01*
X101059078Y-84251995D01*
X101188659Y-84358341D01*
X101295005Y-84487922D01*
X101374023Y-84635756D01*
X101374024Y-84635759D01*
X101374025Y-84635761D01*
X101411411Y-84759006D01*
X101422687Y-84796179D01*
X101439117Y-84963000D01*
X101422687Y-85129821D01*
X101374023Y-85290244D01*
X101295005Y-85438078D01*
X101188659Y-85567659D01*
X101059078Y-85674005D01*
X100911244Y-85753023D01*
X100911241Y-85753024D01*
X100911239Y-85753025D01*
X100750825Y-85801686D01*
X100750824Y-85801686D01*
X100750821Y-85801687D01*
X100625804Y-85814000D01*
X100542196Y-85814000D01*
X100417179Y-85801687D01*
X100417176Y-85801686D01*
X100417175Y-85801686D01*
X100256761Y-85753025D01*
X100256759Y-85753024D01*
X100256756Y-85753023D01*
X100108922Y-85674005D01*
X99979341Y-85567659D01*
X99872995Y-85438078D01*
X99793977Y-85290244D01*
X99745313Y-85129821D01*
X99728883Y-84963000D01*
X99745313Y-84796179D01*
X99756589Y-84759006D01*
X99793975Y-84635761D01*
X99793976Y-84635759D01*
X99793977Y-84635756D01*
X99872995Y-84487922D01*
X99979341Y-84358341D01*
X100108922Y-84251995D01*
X100256756Y-84172977D01*
X100256759Y-84172976D01*
X100256761Y-84172975D01*
X100417175Y-84124314D01*
X100417176Y-84124314D01*
X100417179Y-84124313D01*
X100542196Y-84112000D01*
X100625804Y-84112000D01*
X100750821Y-84124313D01*
X100750821Y-84124313D01*
G37*
G36*
X117692822Y-83209314D02*
X117692825Y-83209315D01*
X117692826Y-83209315D01*
X117853240Y-83257976D01*
X117853242Y-83257977D01*
X117853245Y-83257978D01*
X118001079Y-83336996D01*
X118130660Y-83443342D01*
X118237006Y-83572923D01*
X118316024Y-83720757D01*
X118364688Y-83881180D01*
X118381118Y-84048001D01*
X118364688Y-84214822D01*
X118364687Y-84214825D01*
X118364687Y-84214826D01*
X118353412Y-84251996D01*
X118316024Y-84375245D01*
X118237006Y-84523079D01*
X118130660Y-84652660D01*
X118001079Y-84759006D01*
X117853245Y-84838024D01*
X117853242Y-84838025D01*
X117853240Y-84838026D01*
X117692826Y-84886687D01*
X117692825Y-84886687D01*
X117692822Y-84886688D01*
X117567805Y-84899001D01*
X117484197Y-84899001D01*
X117359180Y-84886688D01*
X117359177Y-84886687D01*
X117359176Y-84886687D01*
X117198762Y-84838026D01*
X117198760Y-84838025D01*
X117198757Y-84838024D01*
X117050923Y-84759006D01*
X116921342Y-84652660D01*
X116814996Y-84523079D01*
X116735978Y-84375245D01*
X116698591Y-84251996D01*
X116687315Y-84214826D01*
X116687315Y-84214825D01*
X116687314Y-84214822D01*
X116670884Y-84048001D01*
X116687314Y-83881180D01*
X116735978Y-83720757D01*
X116814996Y-83572923D01*
X116921342Y-83443342D01*
X117050923Y-83336996D01*
X117198757Y-83257978D01*
X117198760Y-83257977D01*
X117198762Y-83257976D01*
X117359176Y-83209315D01*
X117359177Y-83209315D01*
X117359180Y-83209314D01*
X117484197Y-83197001D01*
X117567805Y-83197001D01*
X117692822Y-83209314D01*
X117692822Y-83209314D01*
G37*
G36*
X125312822Y-83209314D02*
X125312825Y-83209315D01*
X125312826Y-83209315D01*
X125473240Y-83257976D01*
X125473242Y-83257977D01*
X125473245Y-83257978D01*
X125621079Y-83336996D01*
X125750660Y-83443342D01*
X125857006Y-83572923D01*
X125936024Y-83720757D01*
X125984688Y-83881180D01*
X126001118Y-84048001D01*
X125984688Y-84214822D01*
X125984687Y-84214825D01*
X125984687Y-84214826D01*
X125973412Y-84251996D01*
X125936024Y-84375245D01*
X125857006Y-84523079D01*
X125750660Y-84652660D01*
X125621079Y-84759006D01*
X125473245Y-84838024D01*
X125473242Y-84838025D01*
X125473240Y-84838026D01*
X125312826Y-84886687D01*
X125312825Y-84886687D01*
X125312822Y-84886688D01*
X125187805Y-84899001D01*
X125104197Y-84899001D01*
X124979180Y-84886688D01*
X124979177Y-84886687D01*
X124979176Y-84886687D01*
X124818762Y-84838026D01*
X124818760Y-84838025D01*
X124818757Y-84838024D01*
X124670923Y-84759006D01*
X124541342Y-84652660D01*
X124434996Y-84523079D01*
X124355978Y-84375245D01*
X124318591Y-84251996D01*
X124307315Y-84214826D01*
X124307315Y-84214825D01*
X124307314Y-84214822D01*
X124290884Y-84048001D01*
X124307314Y-83881180D01*
X124355978Y-83720757D01*
X124434996Y-83572923D01*
X124541342Y-83443342D01*
X124670923Y-83336996D01*
X124818757Y-83257978D01*
X124818760Y-83257977D01*
X124818762Y-83257976D01*
X124979176Y-83209315D01*
X124979177Y-83209315D01*
X124979180Y-83209314D01*
X125104197Y-83197001D01*
X125187805Y-83197001D01*
X125312822Y-83209314D01*
X125312822Y-83209314D01*
G37*
G36*
X106801228Y-83001703D02*
X106956100Y-83065853D01*
X107095481Y-83158985D01*
X107214015Y-83277519D01*
X107307147Y-83416900D01*
X107371297Y-83571772D01*
X107404000Y-83736184D01*
X107404000Y-83903816D01*
X107371297Y-84068228D01*
X107307147Y-84223100D01*
X107214015Y-84362481D01*
X107095481Y-84481015D01*
X106956100Y-84574147D01*
X106801228Y-84638297D01*
X106636816Y-84671000D01*
X106469184Y-84671000D01*
X106304772Y-84638297D01*
X106149900Y-84574147D01*
X106010519Y-84481015D01*
X105891985Y-84362481D01*
X105798853Y-84223100D01*
X105734703Y-84068228D01*
X105702000Y-83903816D01*
X105702000Y-83736184D01*
X105734703Y-83571772D01*
X105798853Y-83416900D01*
X105891985Y-83277519D01*
X106010519Y-83158985D01*
X106149900Y-83065853D01*
X106304772Y-83001703D01*
X106469184Y-82969000D01*
X106636816Y-82969000D01*
X106801228Y-83001703D01*
X106801228Y-83001703D01*
G37*
G36*
X130296228Y-81684703D02*
X130451100Y-81748853D01*
X130590481Y-81841985D01*
X130709015Y-81960519D01*
X130802147Y-82099900D01*
X130866297Y-82254772D01*
X130899000Y-82419184D01*
X130899000Y-82586816D01*
X130866297Y-82751228D01*
X130802147Y-82906100D01*
X130709015Y-83045481D01*
X130590481Y-83164015D01*
X130451100Y-83257147D01*
X130296228Y-83321297D01*
X130131816Y-83354000D01*
X129964184Y-83354000D01*
X129799772Y-83321297D01*
X129644900Y-83257147D01*
X129505519Y-83164015D01*
X129386985Y-83045481D01*
X129293853Y-82906100D01*
X129229703Y-82751228D01*
X129197000Y-82586816D01*
X129197000Y-82419184D01*
X129229703Y-82254772D01*
X129293853Y-82099900D01*
X129386985Y-81960519D01*
X129505519Y-81841985D01*
X129644900Y-81748853D01*
X129799772Y-81684703D01*
X129964184Y-81652000D01*
X130131816Y-81652000D01*
X130296228Y-81684703D01*
X130296228Y-81684703D01*
G37*
G36*
X134487228Y-81604703D02*
X134642100Y-81668853D01*
X134781481Y-81761985D01*
X134900015Y-81880519D01*
X134993147Y-82019900D01*
X135057297Y-82174772D01*
X135090000Y-82339184D01*
X135090000Y-82506816D01*
X135057297Y-82671228D01*
X134993147Y-82826100D01*
X134900015Y-82965481D01*
X134781481Y-83084015D01*
X134642100Y-83177147D01*
X134487228Y-83241297D01*
X134322816Y-83274000D01*
X134155184Y-83274000D01*
X133990772Y-83241297D01*
X133835900Y-83177147D01*
X133696519Y-83084015D01*
X133577985Y-82965481D01*
X133484853Y-82826100D01*
X133420703Y-82671228D01*
X133388000Y-82506816D01*
X133388000Y-82339184D01*
X133420703Y-82174772D01*
X133484853Y-82019900D01*
X133577985Y-81880519D01*
X133696519Y-81761985D01*
X133835900Y-81668853D01*
X133990772Y-81604703D01*
X134155184Y-81572000D01*
X134322816Y-81572000D01*
X134487228Y-81604703D01*
X134487228Y-81604703D01*
G37*
G36*
X110357228Y-80842703D02*
X110512100Y-80906853D01*
X110651481Y-80999985D01*
X110770015Y-81118519D01*
X110863147Y-81257900D01*
X110927297Y-81412772D01*
X110960000Y-81577184D01*
X110960000Y-81744816D01*
X110927297Y-81909228D01*
X110863147Y-82064100D01*
X110770015Y-82203481D01*
X110651481Y-82322015D01*
X110512100Y-82415147D01*
X110357228Y-82479297D01*
X110192816Y-82512000D01*
X110025184Y-82512000D01*
X109860772Y-82479297D01*
X109705900Y-82415147D01*
X109566519Y-82322015D01*
X109447985Y-82203481D01*
X109354853Y-82064100D01*
X109290703Y-81909228D01*
X109258000Y-81744816D01*
X109258000Y-81577184D01*
X109290703Y-81412772D01*
X109354853Y-81257900D01*
X109447985Y-81118519D01*
X109566519Y-80999985D01*
X109705900Y-80906853D01*
X109860772Y-80842703D01*
X110025184Y-80810000D01*
X110192816Y-80810000D01*
X110357228Y-80842703D01*
X110357228Y-80842703D01*
G37*
G36*
X117692822Y-80669314D02*
X117692825Y-80669315D01*
X117692826Y-80669315D01*
X117853240Y-80717976D01*
X117853242Y-80717977D01*
X117853245Y-80717978D01*
X118001079Y-80796996D01*
X118130660Y-80903342D01*
X118237006Y-81032923D01*
X118316024Y-81180757D01*
X118316025Y-81180760D01*
X118316026Y-81180762D01*
X118364687Y-81341176D01*
X118364688Y-81341180D01*
X118381118Y-81508001D01*
X118364688Y-81674822D01*
X118364687Y-81674825D01*
X118364687Y-81674826D01*
X118338248Y-81761985D01*
X118316024Y-81835245D01*
X118237006Y-81983079D01*
X118130660Y-82112660D01*
X118001079Y-82219006D01*
X117853245Y-82298024D01*
X117853242Y-82298025D01*
X117853240Y-82298026D01*
X117692826Y-82346687D01*
X117692825Y-82346687D01*
X117692822Y-82346688D01*
X117567805Y-82359001D01*
X117484197Y-82359001D01*
X117359180Y-82346688D01*
X117359177Y-82346687D01*
X117359176Y-82346687D01*
X117198762Y-82298026D01*
X117198760Y-82298025D01*
X117198757Y-82298024D01*
X117050923Y-82219006D01*
X116921342Y-82112660D01*
X116814996Y-81983079D01*
X116735978Y-81835245D01*
X116713755Y-81761985D01*
X116687315Y-81674826D01*
X116687315Y-81674825D01*
X116687314Y-81674822D01*
X116670884Y-81508001D01*
X116687314Y-81341180D01*
X116687315Y-81341176D01*
X116735976Y-81180762D01*
X116735977Y-81180760D01*
X116735978Y-81180757D01*
X116814996Y-81032923D01*
X116921342Y-80903342D01*
X117050923Y-80796996D01*
X117198757Y-80717978D01*
X117198760Y-80717977D01*
X117198762Y-80717976D01*
X117359176Y-80669315D01*
X117359177Y-80669315D01*
X117359180Y-80669314D01*
X117484197Y-80657001D01*
X117567805Y-80657001D01*
X117692822Y-80669314D01*
X117692822Y-80669314D01*
G37*
G36*
X125312822Y-80669314D02*
X125312825Y-80669315D01*
X125312826Y-80669315D01*
X125473240Y-80717976D01*
X125473242Y-80717977D01*
X125473245Y-80717978D01*
X125621079Y-80796996D01*
X125750660Y-80903342D01*
X125857006Y-81032923D01*
X125936024Y-81180757D01*
X125936025Y-81180760D01*
X125936026Y-81180762D01*
X125984687Y-81341176D01*
X125984688Y-81341180D01*
X126001118Y-81508001D01*
X125984688Y-81674822D01*
X125984687Y-81674825D01*
X125984687Y-81674826D01*
X125958248Y-81761985D01*
X125936024Y-81835245D01*
X125857006Y-81983079D01*
X125750660Y-82112660D01*
X125621079Y-82219006D01*
X125473245Y-82298024D01*
X125473242Y-82298025D01*
X125473240Y-82298026D01*
X125312826Y-82346687D01*
X125312825Y-82346687D01*
X125312822Y-82346688D01*
X125187805Y-82359001D01*
X125104197Y-82359001D01*
X124979180Y-82346688D01*
X124979177Y-82346687D01*
X124979176Y-82346687D01*
X124818762Y-82298026D01*
X124818760Y-82298025D01*
X124818757Y-82298024D01*
X124670923Y-82219006D01*
X124541342Y-82112660D01*
X124434996Y-81983079D01*
X124355978Y-81835245D01*
X124333755Y-81761985D01*
X124307315Y-81674826D01*
X124307315Y-81674825D01*
X124307314Y-81674822D01*
X124290884Y-81508001D01*
X124307314Y-81341180D01*
X124307315Y-81341176D01*
X124355976Y-81180762D01*
X124355977Y-81180760D01*
X124355978Y-81180757D01*
X124434996Y-81032923D01*
X124541342Y-80903342D01*
X124670923Y-80796996D01*
X124818757Y-80717978D01*
X124818760Y-80717977D01*
X124818762Y-80717976D01*
X124979176Y-80669315D01*
X124979177Y-80669315D01*
X124979180Y-80669314D01*
X125104197Y-80657001D01*
X125187805Y-80657001D01*
X125312822Y-80669314D01*
X125312822Y-80669314D01*
G37*
G36*
X98083821Y-79425313D02*
X98083824Y-79425314D01*
X98083825Y-79425314D01*
X98244239Y-79473975D01*
X98244241Y-79473976D01*
X98244244Y-79473977D01*
X98392078Y-79552995D01*
X98521659Y-79659341D01*
X98628005Y-79788922D01*
X98707023Y-79936756D01*
X98707024Y-79936759D01*
X98707025Y-79936761D01*
X98755686Y-80097175D01*
X98755687Y-80097179D01*
X98772117Y-80264000D01*
X98755687Y-80430821D01*
X98755686Y-80430824D01*
X98755686Y-80430825D01*
X98730993Y-80512228D01*
X98707023Y-80591244D01*
X98628005Y-80739078D01*
X98521659Y-80868659D01*
X98392078Y-80975005D01*
X98244244Y-81054023D01*
X98244241Y-81054024D01*
X98244239Y-81054025D01*
X98083825Y-81102686D01*
X98083824Y-81102686D01*
X98083821Y-81102687D01*
X97958804Y-81115000D01*
X97875196Y-81115000D01*
X97750179Y-81102687D01*
X97750176Y-81102686D01*
X97750175Y-81102686D01*
X97589761Y-81054025D01*
X97589759Y-81054024D01*
X97589756Y-81054023D01*
X97441922Y-80975005D01*
X97312341Y-80868659D01*
X97205995Y-80739078D01*
X97126977Y-80591244D01*
X97103008Y-80512228D01*
X97078314Y-80430825D01*
X97078314Y-80430824D01*
X97078313Y-80430821D01*
X97061883Y-80264000D01*
X97078313Y-80097179D01*
X97078314Y-80097175D01*
X97126975Y-79936761D01*
X97126976Y-79936759D01*
X97126977Y-79936756D01*
X97205995Y-79788922D01*
X97312341Y-79659341D01*
X97441922Y-79552995D01*
X97589756Y-79473977D01*
X97589759Y-79473976D01*
X97589761Y-79473975D01*
X97750175Y-79425314D01*
X97750176Y-79425314D01*
X97750179Y-79425313D01*
X97875196Y-79413000D01*
X97958804Y-79413000D01*
X98083821Y-79425313D01*
X98083821Y-79425313D01*
G37*
G36*
X103245228Y-79445703D02*
X103400100Y-79509853D01*
X103539481Y-79602985D01*
X103658015Y-79721519D01*
X103751147Y-79860900D01*
X103815297Y-80015772D01*
X103848000Y-80180184D01*
X103848000Y-80347816D01*
X103815297Y-80512228D01*
X103751147Y-80667100D01*
X103658015Y-80806481D01*
X103539481Y-80925015D01*
X103400100Y-81018147D01*
X103245228Y-81082297D01*
X103080816Y-81115000D01*
X102913184Y-81115000D01*
X102748772Y-81082297D01*
X102593900Y-81018147D01*
X102454519Y-80925015D01*
X102335985Y-80806481D01*
X102242853Y-80667100D01*
X102178703Y-80512228D01*
X102146000Y-80347816D01*
X102146000Y-80180184D01*
X102178703Y-80015772D01*
X102242853Y-79860900D01*
X102335985Y-79721519D01*
X102454519Y-79602985D01*
X102593900Y-79509853D01*
X102748772Y-79445703D01*
X102913184Y-79413000D01*
X103080816Y-79413000D01*
X103245228Y-79445703D01*
X103245228Y-79445703D01*
G37*
G36*
X130296228Y-78302703D02*
X130451100Y-78366853D01*
X130590481Y-78459985D01*
X130709015Y-78578519D01*
X130802147Y-78717900D01*
X130866297Y-78872772D01*
X130899000Y-79037184D01*
X130899000Y-79204816D01*
X130866297Y-79369228D01*
X130802147Y-79524100D01*
X130709015Y-79663481D01*
X130590481Y-79782015D01*
X130451100Y-79875147D01*
X130296228Y-79939297D01*
X130131816Y-79972000D01*
X129964184Y-79972000D01*
X129799772Y-79939297D01*
X129644900Y-79875147D01*
X129505519Y-79782015D01*
X129386985Y-79663481D01*
X129293853Y-79524100D01*
X129229703Y-79369228D01*
X129197000Y-79204816D01*
X129197000Y-79037184D01*
X129229703Y-78872772D01*
X129293853Y-78717900D01*
X129386985Y-78578519D01*
X129505519Y-78459985D01*
X129644900Y-78366853D01*
X129799772Y-78302703D01*
X129964184Y-78270000D01*
X130131816Y-78270000D01*
X130296228Y-78302703D01*
X130296228Y-78302703D01*
G37*
G36*
X117692822Y-78129314D02*
X117692825Y-78129315D01*
X117692826Y-78129315D01*
X117853240Y-78177976D01*
X117853242Y-78177977D01*
X117853245Y-78177978D01*
X118001079Y-78256996D01*
X118130660Y-78363342D01*
X118237006Y-78492923D01*
X118316024Y-78640757D01*
X118316025Y-78640760D01*
X118316026Y-78640762D01*
X118354021Y-78766015D01*
X118364688Y-78801180D01*
X118381118Y-78968001D01*
X118364688Y-79134822D01*
X118364687Y-79134825D01*
X118364687Y-79134826D01*
X118343456Y-79204816D01*
X118316024Y-79295245D01*
X118237006Y-79443079D01*
X118130660Y-79572660D01*
X118001079Y-79679006D01*
X117853245Y-79758024D01*
X117853242Y-79758025D01*
X117853240Y-79758026D01*
X117692826Y-79806687D01*
X117692825Y-79806687D01*
X117692822Y-79806688D01*
X117567805Y-79819001D01*
X117484197Y-79819001D01*
X117359180Y-79806688D01*
X117359177Y-79806687D01*
X117359176Y-79806687D01*
X117198762Y-79758026D01*
X117198760Y-79758025D01*
X117198757Y-79758024D01*
X117050923Y-79679006D01*
X116921342Y-79572660D01*
X116814996Y-79443079D01*
X116735978Y-79295245D01*
X116708547Y-79204816D01*
X116687315Y-79134826D01*
X116687315Y-79134825D01*
X116687314Y-79134822D01*
X116670884Y-78968001D01*
X116687314Y-78801180D01*
X116697981Y-78766015D01*
X116735976Y-78640762D01*
X116735977Y-78640760D01*
X116735978Y-78640757D01*
X116814996Y-78492923D01*
X116921342Y-78363342D01*
X117050923Y-78256996D01*
X117198757Y-78177978D01*
X117198760Y-78177977D01*
X117198762Y-78177976D01*
X117359176Y-78129315D01*
X117359177Y-78129315D01*
X117359180Y-78129314D01*
X117484197Y-78117001D01*
X117567805Y-78117001D01*
X117692822Y-78129314D01*
X117692822Y-78129314D01*
G37*
G36*
X125312822Y-78129314D02*
X125312825Y-78129315D01*
X125312826Y-78129315D01*
X125473240Y-78177976D01*
X125473242Y-78177977D01*
X125473245Y-78177978D01*
X125621079Y-78256996D01*
X125750660Y-78363342D01*
X125857006Y-78492923D01*
X125936024Y-78640757D01*
X125936025Y-78640760D01*
X125936026Y-78640762D01*
X125974021Y-78766015D01*
X125984688Y-78801180D01*
X126001118Y-78968001D01*
X125984688Y-79134822D01*
X125984687Y-79134825D01*
X125984687Y-79134826D01*
X125963456Y-79204816D01*
X125936024Y-79295245D01*
X125857006Y-79443079D01*
X125750660Y-79572660D01*
X125621079Y-79679006D01*
X125473245Y-79758024D01*
X125473242Y-79758025D01*
X125473240Y-79758026D01*
X125312826Y-79806687D01*
X125312825Y-79806687D01*
X125312822Y-79806688D01*
X125187805Y-79819001D01*
X125104197Y-79819001D01*
X124979180Y-79806688D01*
X124979177Y-79806687D01*
X124979176Y-79806687D01*
X124818762Y-79758026D01*
X124818760Y-79758025D01*
X124818757Y-79758024D01*
X124670923Y-79679006D01*
X124541342Y-79572660D01*
X124434996Y-79443079D01*
X124355978Y-79295245D01*
X124328547Y-79204816D01*
X124307315Y-79134826D01*
X124307315Y-79134825D01*
X124307314Y-79134822D01*
X124290884Y-78968001D01*
X124307314Y-78801180D01*
X124317981Y-78766015D01*
X124355976Y-78640762D01*
X124355977Y-78640760D01*
X124355978Y-78640757D01*
X124434996Y-78492923D01*
X124541342Y-78363342D01*
X124670923Y-78256996D01*
X124818757Y-78177978D01*
X124818760Y-78177977D01*
X124818762Y-78177976D01*
X124979176Y-78129315D01*
X124979177Y-78129315D01*
X124979180Y-78129314D01*
X125104197Y-78117001D01*
X125187805Y-78117001D01*
X125312822Y-78129314D01*
X125312822Y-78129314D01*
G37*
G36*
X112897228Y-77286703D02*
X113052100Y-77350853D01*
X113191481Y-77443985D01*
X113310015Y-77562519D01*
X113403147Y-77701900D01*
X113467297Y-77856772D01*
X113500000Y-78021184D01*
X113500000Y-78188816D01*
X113467297Y-78353228D01*
X113403147Y-78508100D01*
X113310015Y-78647481D01*
X113191481Y-78766015D01*
X113052100Y-78859147D01*
X112897228Y-78923297D01*
X112732816Y-78956000D01*
X112565184Y-78956000D01*
X112400772Y-78923297D01*
X112245900Y-78859147D01*
X112106519Y-78766015D01*
X111987985Y-78647481D01*
X111894853Y-78508100D01*
X111830703Y-78353228D01*
X111798000Y-78188816D01*
X111798000Y-78021184D01*
X111830703Y-77856772D01*
X111894853Y-77701900D01*
X111987985Y-77562519D01*
X112106519Y-77443985D01*
X112245900Y-77350853D01*
X112400772Y-77286703D01*
X112565184Y-77254000D01*
X112732816Y-77254000D01*
X112897228Y-77286703D01*
X112897228Y-77286703D01*
G37*
G36*
X108198228Y-77286703D02*
X108353100Y-77350853D01*
X108492481Y-77443985D01*
X108611015Y-77562519D01*
X108704147Y-77701900D01*
X108768297Y-77856772D01*
X108801000Y-78021184D01*
X108801000Y-78188816D01*
X108768297Y-78353228D01*
X108704147Y-78508100D01*
X108611015Y-78647481D01*
X108492481Y-78766015D01*
X108353100Y-78859147D01*
X108198228Y-78923297D01*
X108033816Y-78956000D01*
X107866184Y-78956000D01*
X107701772Y-78923297D01*
X107546900Y-78859147D01*
X107407519Y-78766015D01*
X107288985Y-78647481D01*
X107195853Y-78508100D01*
X107131703Y-78353228D01*
X107099000Y-78188816D01*
X107099000Y-78021184D01*
X107131703Y-77856772D01*
X107195853Y-77701900D01*
X107288985Y-77562519D01*
X107407519Y-77443985D01*
X107546900Y-77350853D01*
X107701772Y-77286703D01*
X107866184Y-77254000D01*
X108033816Y-77254000D01*
X108198228Y-77286703D01*
X108198228Y-77286703D01*
G37*
G36*
X117692822Y-75589314D02*
X117692825Y-75589315D01*
X117692826Y-75589315D01*
X117853240Y-75637976D01*
X117853242Y-75637977D01*
X117853245Y-75637978D01*
X118001079Y-75716996D01*
X118130660Y-75823342D01*
X118237006Y-75952923D01*
X118316024Y-76100757D01*
X118316025Y-76100760D01*
X118316026Y-76100762D01*
X118356589Y-76234481D01*
X118364688Y-76261180D01*
X118381118Y-76428001D01*
X118364688Y-76594822D01*
X118316024Y-76755245D01*
X118237006Y-76903079D01*
X118130660Y-77032660D01*
X118001079Y-77139006D01*
X117853245Y-77218024D01*
X117853242Y-77218025D01*
X117853240Y-77218026D01*
X117692826Y-77266687D01*
X117692825Y-77266687D01*
X117692822Y-77266688D01*
X117567805Y-77279001D01*
X117484197Y-77279001D01*
X117359180Y-77266688D01*
X117359177Y-77266687D01*
X117359176Y-77266687D01*
X117198762Y-77218026D01*
X117198760Y-77218025D01*
X117198757Y-77218024D01*
X117050923Y-77139006D01*
X116921342Y-77032660D01*
X116814996Y-76903079D01*
X116735978Y-76755245D01*
X116687314Y-76594822D01*
X116670884Y-76428001D01*
X116687314Y-76261180D01*
X116695413Y-76234481D01*
X116735976Y-76100762D01*
X116735977Y-76100760D01*
X116735978Y-76100757D01*
X116814996Y-75952923D01*
X116921342Y-75823342D01*
X117050923Y-75716996D01*
X117198757Y-75637978D01*
X117198760Y-75637977D01*
X117198762Y-75637976D01*
X117359176Y-75589315D01*
X117359177Y-75589315D01*
X117359180Y-75589314D01*
X117484197Y-75577001D01*
X117567805Y-75577001D01*
X117692822Y-75589314D01*
X117692822Y-75589314D01*
G37*
G36*
X125312822Y-75589314D02*
X125312825Y-75589315D01*
X125312826Y-75589315D01*
X125473240Y-75637976D01*
X125473242Y-75637977D01*
X125473245Y-75637978D01*
X125621079Y-75716996D01*
X125750660Y-75823342D01*
X125857006Y-75952923D01*
X125936024Y-76100757D01*
X125936025Y-76100760D01*
X125936026Y-76100762D01*
X125976589Y-76234481D01*
X125984688Y-76261180D01*
X126001118Y-76428001D01*
X125984688Y-76594822D01*
X125936024Y-76755245D01*
X125857006Y-76903079D01*
X125750660Y-77032660D01*
X125621079Y-77139006D01*
X125473245Y-77218024D01*
X125473242Y-77218025D01*
X125473240Y-77218026D01*
X125312826Y-77266687D01*
X125312825Y-77266687D01*
X125312822Y-77266688D01*
X125187805Y-77279001D01*
X125104197Y-77279001D01*
X124979180Y-77266688D01*
X124979177Y-77266687D01*
X124979176Y-77266687D01*
X124818762Y-77218026D01*
X124818760Y-77218025D01*
X124818757Y-77218024D01*
X124670923Y-77139006D01*
X124541342Y-77032660D01*
X124434996Y-76903079D01*
X124355978Y-76755245D01*
X124307314Y-76594822D01*
X124290884Y-76428001D01*
X124307314Y-76261180D01*
X124315413Y-76234481D01*
X124355976Y-76100762D01*
X124355977Y-76100760D01*
X124355978Y-76100757D01*
X124434996Y-75952923D01*
X124541342Y-75823342D01*
X124670923Y-75716996D01*
X124818757Y-75637978D01*
X124818760Y-75637977D01*
X124818762Y-75637976D01*
X124979176Y-75589315D01*
X124979177Y-75589315D01*
X124979180Y-75589314D01*
X125104197Y-75577001D01*
X125187805Y-75577001D01*
X125312822Y-75589314D01*
X125312822Y-75589314D01*
G37*
G36*
X103245228Y-74873703D02*
X103400100Y-74937853D01*
X103539481Y-75030985D01*
X103658015Y-75149519D01*
X103751147Y-75288900D01*
X103815297Y-75443772D01*
X103848000Y-75608184D01*
X103848000Y-75775816D01*
X103815297Y-75940228D01*
X103751147Y-76095100D01*
X103658015Y-76234481D01*
X103539481Y-76353015D01*
X103400100Y-76446147D01*
X103245228Y-76510297D01*
X103080816Y-76543000D01*
X102913184Y-76543000D01*
X102748772Y-76510297D01*
X102593900Y-76446147D01*
X102454519Y-76353015D01*
X102335985Y-76234481D01*
X102242853Y-76095100D01*
X102178703Y-75940228D01*
X102146000Y-75775816D01*
X102146000Y-75608184D01*
X102178703Y-75443772D01*
X102242853Y-75288900D01*
X102335985Y-75149519D01*
X102454519Y-75030985D01*
X102593900Y-74937853D01*
X102748772Y-74873703D01*
X102913184Y-74841000D01*
X103080816Y-74841000D01*
X103245228Y-74873703D01*
X103245228Y-74873703D01*
G37*
G36*
X98083821Y-74853313D02*
X98083824Y-74853314D01*
X98083825Y-74853314D01*
X98244239Y-74901975D01*
X98244241Y-74901976D01*
X98244244Y-74901977D01*
X98392078Y-74980995D01*
X98521659Y-75087341D01*
X98628005Y-75216922D01*
X98707023Y-75364756D01*
X98707024Y-75364759D01*
X98707025Y-75364761D01*
X98755686Y-75525175D01*
X98755687Y-75525179D01*
X98772117Y-75692000D01*
X98755687Y-75858821D01*
X98755686Y-75858824D01*
X98755686Y-75858825D01*
X98727142Y-75952923D01*
X98707023Y-76019244D01*
X98628005Y-76167078D01*
X98521659Y-76296659D01*
X98392078Y-76403005D01*
X98244244Y-76482023D01*
X98244241Y-76482024D01*
X98244239Y-76482025D01*
X98083825Y-76530686D01*
X98083824Y-76530686D01*
X98083821Y-76530687D01*
X97958804Y-76543000D01*
X97875196Y-76543000D01*
X97750179Y-76530687D01*
X97750176Y-76530686D01*
X97750175Y-76530686D01*
X97589761Y-76482025D01*
X97589759Y-76482024D01*
X97589756Y-76482023D01*
X97441922Y-76403005D01*
X97312341Y-76296659D01*
X97205995Y-76167078D01*
X97126977Y-76019244D01*
X97106859Y-75952923D01*
X97078314Y-75858825D01*
X97078314Y-75858824D01*
X97078313Y-75858821D01*
X97061883Y-75692000D01*
X97078313Y-75525179D01*
X97078314Y-75525175D01*
X97126975Y-75364761D01*
X97126976Y-75364759D01*
X97126977Y-75364756D01*
X97205995Y-75216922D01*
X97312341Y-75087341D01*
X97441922Y-74980995D01*
X97589756Y-74901977D01*
X97589759Y-74901976D01*
X97589761Y-74901975D01*
X97750175Y-74853314D01*
X97750176Y-74853314D01*
X97750179Y-74853313D01*
X97875196Y-74841000D01*
X97958804Y-74841000D01*
X98083821Y-74853313D01*
X98083821Y-74853313D01*
G37*
G36*
X130214821Y-73202313D02*
X130214824Y-73202314D01*
X130214825Y-73202314D01*
X130375239Y-73250975D01*
X130375241Y-73250976D01*
X130375244Y-73250977D01*
X130523078Y-73329995D01*
X130652659Y-73436341D01*
X130759005Y-73565922D01*
X130838023Y-73713756D01*
X130838024Y-73713759D01*
X130838025Y-73713761D01*
X130886686Y-73874175D01*
X130886687Y-73874179D01*
X130903117Y-74041000D01*
X130886687Y-74207821D01*
X130886686Y-74207824D01*
X130886686Y-74207825D01*
X130884437Y-74215240D01*
X130838023Y-74368244D01*
X130759005Y-74516078D01*
X130652659Y-74645659D01*
X130523078Y-74752005D01*
X130375244Y-74831023D01*
X130375241Y-74831024D01*
X130375239Y-74831025D01*
X130214825Y-74879686D01*
X130214824Y-74879686D01*
X130214821Y-74879687D01*
X130089804Y-74892000D01*
X130006196Y-74892000D01*
X129881179Y-74879687D01*
X129881176Y-74879686D01*
X129881175Y-74879686D01*
X129720761Y-74831025D01*
X129720759Y-74831024D01*
X129720756Y-74831023D01*
X129572922Y-74752005D01*
X129443341Y-74645659D01*
X129336995Y-74516078D01*
X129257977Y-74368244D01*
X129211564Y-74215240D01*
X129209314Y-74207825D01*
X129209314Y-74207824D01*
X129209313Y-74207821D01*
X129192883Y-74041000D01*
X129209313Y-73874179D01*
X129209314Y-73874175D01*
X129257975Y-73713761D01*
X129257976Y-73713759D01*
X129257977Y-73713756D01*
X129336995Y-73565922D01*
X129443341Y-73436341D01*
X129572922Y-73329995D01*
X129720756Y-73250977D01*
X129720759Y-73250976D01*
X129720761Y-73250975D01*
X129881175Y-73202314D01*
X129881176Y-73202314D01*
X129881179Y-73202313D01*
X130006196Y-73190000D01*
X130089804Y-73190000D01*
X130214821Y-73202313D01*
X130214821Y-73202313D01*
G37*
G36*
X117692822Y-73049314D02*
X117692825Y-73049315D01*
X117692826Y-73049315D01*
X117853240Y-73097976D01*
X117853242Y-73097977D01*
X117853245Y-73097978D01*
X118001079Y-73176996D01*
X118130660Y-73283342D01*
X118237006Y-73412923D01*
X118316024Y-73560757D01*
X118316025Y-73560760D01*
X118316026Y-73560762D01*
X118364687Y-73721176D01*
X118364688Y-73721180D01*
X118381118Y-73888001D01*
X118364688Y-74054822D01*
X118364687Y-74054825D01*
X118364687Y-74054826D01*
X118318277Y-74207821D01*
X118316024Y-74215245D01*
X118237006Y-74363079D01*
X118130660Y-74492660D01*
X118001079Y-74599006D01*
X117853245Y-74678024D01*
X117853242Y-74678025D01*
X117853240Y-74678026D01*
X117692826Y-74726687D01*
X117692825Y-74726687D01*
X117692822Y-74726688D01*
X117567805Y-74739001D01*
X117484197Y-74739001D01*
X117359180Y-74726688D01*
X117359177Y-74726687D01*
X117359176Y-74726687D01*
X117198762Y-74678026D01*
X117198760Y-74678025D01*
X117198757Y-74678024D01*
X117050923Y-74599006D01*
X116921342Y-74492660D01*
X116814996Y-74363079D01*
X116735978Y-74215245D01*
X116733726Y-74207821D01*
X116687315Y-74054826D01*
X116687315Y-74054825D01*
X116687314Y-74054822D01*
X116670884Y-73888001D01*
X116687314Y-73721180D01*
X116687315Y-73721176D01*
X116735976Y-73560762D01*
X116735977Y-73560760D01*
X116735978Y-73560757D01*
X116814996Y-73412923D01*
X116921342Y-73283342D01*
X117050923Y-73176996D01*
X117198757Y-73097978D01*
X117198760Y-73097977D01*
X117198762Y-73097976D01*
X117359176Y-73049315D01*
X117359177Y-73049315D01*
X117359180Y-73049314D01*
X117484197Y-73037001D01*
X117567805Y-73037001D01*
X117692822Y-73049314D01*
X117692822Y-73049314D01*
G37*
G36*
X125312822Y-73049314D02*
X125312825Y-73049315D01*
X125312826Y-73049315D01*
X125473240Y-73097976D01*
X125473242Y-73097977D01*
X125473245Y-73097978D01*
X125621079Y-73176996D01*
X125750660Y-73283342D01*
X125857006Y-73412923D01*
X125936024Y-73560757D01*
X125936025Y-73560760D01*
X125936026Y-73560762D01*
X125984687Y-73721176D01*
X125984688Y-73721180D01*
X126001118Y-73888001D01*
X125984688Y-74054822D01*
X125984687Y-74054825D01*
X125984687Y-74054826D01*
X125938277Y-74207821D01*
X125936024Y-74215245D01*
X125857006Y-74363079D01*
X125750660Y-74492660D01*
X125621079Y-74599006D01*
X125473245Y-74678024D01*
X125473242Y-74678025D01*
X125473240Y-74678026D01*
X125312826Y-74726687D01*
X125312825Y-74726687D01*
X125312822Y-74726688D01*
X125187805Y-74739001D01*
X125104197Y-74739001D01*
X124979180Y-74726688D01*
X124979177Y-74726687D01*
X124979176Y-74726687D01*
X124818762Y-74678026D01*
X124818760Y-74678025D01*
X124818757Y-74678024D01*
X124670923Y-74599006D01*
X124541342Y-74492660D01*
X124434996Y-74363079D01*
X124355978Y-74215245D01*
X124353726Y-74207821D01*
X124307315Y-74054826D01*
X124307315Y-74054825D01*
X124307314Y-74054822D01*
X124290884Y-73888001D01*
X124307314Y-73721180D01*
X124307315Y-73721176D01*
X124355976Y-73560762D01*
X124355977Y-73560760D01*
X124355978Y-73560757D01*
X124434996Y-73412923D01*
X124541342Y-73283342D01*
X124670923Y-73176996D01*
X124818757Y-73097978D01*
X124818760Y-73097977D01*
X124818762Y-73097976D01*
X124979176Y-73049315D01*
X124979177Y-73049315D01*
X124979180Y-73049314D01*
X125104197Y-73037001D01*
X125187805Y-73037001D01*
X125312822Y-73049314D01*
X125312822Y-73049314D01*
G37*
G36*
X108116821Y-72186313D02*
X108116824Y-72186314D01*
X108116825Y-72186314D01*
X108277239Y-72234975D01*
X108277241Y-72234976D01*
X108277244Y-72234977D01*
X108425078Y-72313995D01*
X108554659Y-72420341D01*
X108661005Y-72549922D01*
X108740023Y-72697756D01*
X108740024Y-72697759D01*
X108740025Y-72697761D01*
X108788686Y-72858175D01*
X108788687Y-72858179D01*
X108805117Y-73025000D01*
X108788687Y-73191821D01*
X108788686Y-73191824D01*
X108788686Y-73191825D01*
X108746773Y-73329995D01*
X108740023Y-73352244D01*
X108661005Y-73500078D01*
X108554659Y-73629659D01*
X108425078Y-73736005D01*
X108277244Y-73815023D01*
X108277241Y-73815024D01*
X108277239Y-73815025D01*
X108116825Y-73863686D01*
X108116824Y-73863686D01*
X108116821Y-73863687D01*
X107991804Y-73876000D01*
X107908196Y-73876000D01*
X107783179Y-73863687D01*
X107783176Y-73863686D01*
X107783175Y-73863686D01*
X107622761Y-73815025D01*
X107622759Y-73815024D01*
X107622756Y-73815023D01*
X107474922Y-73736005D01*
X107345341Y-73629659D01*
X107238995Y-73500078D01*
X107159977Y-73352244D01*
X107153228Y-73329995D01*
X107111314Y-73191825D01*
X107111314Y-73191824D01*
X107111313Y-73191821D01*
X107094883Y-73025000D01*
X107111313Y-72858179D01*
X107111314Y-72858175D01*
X107159975Y-72697761D01*
X107159976Y-72697759D01*
X107159977Y-72697756D01*
X107238995Y-72549922D01*
X107345341Y-72420341D01*
X107474922Y-72313995D01*
X107622756Y-72234977D01*
X107622759Y-72234976D01*
X107622761Y-72234975D01*
X107783175Y-72186314D01*
X107783176Y-72186314D01*
X107783179Y-72186313D01*
X107908196Y-72174000D01*
X107991804Y-72174000D01*
X108116821Y-72186313D01*
X108116821Y-72186313D01*
G37*
G36*
X112815821Y-72186313D02*
X112815824Y-72186314D01*
X112815825Y-72186314D01*
X112976239Y-72234975D01*
X112976241Y-72234976D01*
X112976244Y-72234977D01*
X113124078Y-72313995D01*
X113253659Y-72420341D01*
X113360005Y-72549922D01*
X113439023Y-72697756D01*
X113439024Y-72697759D01*
X113439025Y-72697761D01*
X113487686Y-72858175D01*
X113487687Y-72858179D01*
X113504117Y-73025000D01*
X113487687Y-73191821D01*
X113487686Y-73191824D01*
X113487686Y-73191825D01*
X113445773Y-73329995D01*
X113439023Y-73352244D01*
X113360005Y-73500078D01*
X113253659Y-73629659D01*
X113124078Y-73736005D01*
X112976244Y-73815023D01*
X112976241Y-73815024D01*
X112976239Y-73815025D01*
X112815825Y-73863686D01*
X112815824Y-73863686D01*
X112815821Y-73863687D01*
X112690804Y-73876000D01*
X112607196Y-73876000D01*
X112482179Y-73863687D01*
X112482176Y-73863686D01*
X112482175Y-73863686D01*
X112321761Y-73815025D01*
X112321759Y-73815024D01*
X112321756Y-73815023D01*
X112173922Y-73736005D01*
X112044341Y-73629659D01*
X111937995Y-73500078D01*
X111858977Y-73352244D01*
X111852228Y-73329995D01*
X111810314Y-73191825D01*
X111810314Y-73191824D01*
X111810313Y-73191821D01*
X111793883Y-73025000D01*
X111810313Y-72858179D01*
X111810314Y-72858175D01*
X111858975Y-72697761D01*
X111858976Y-72697759D01*
X111858977Y-72697756D01*
X111937995Y-72549922D01*
X112044341Y-72420341D01*
X112173922Y-72313995D01*
X112321756Y-72234977D01*
X112321759Y-72234976D01*
X112321761Y-72234975D01*
X112482175Y-72186314D01*
X112482176Y-72186314D01*
X112482179Y-72186313D01*
X112607196Y-72174000D01*
X112690804Y-72174000D01*
X112815821Y-72186313D01*
X112815821Y-72186313D01*
G37*
G36*
X98546228Y-71063703D02*
X98701100Y-71127853D01*
X98840481Y-71220985D01*
X98959015Y-71339519D01*
X99052147Y-71478900D01*
X99116297Y-71633772D01*
X99149000Y-71798184D01*
X99149000Y-71965816D01*
X99116297Y-72130228D01*
X99052147Y-72285100D01*
X98959015Y-72424481D01*
X98840481Y-72543015D01*
X98701100Y-72636147D01*
X98546228Y-72700297D01*
X98381816Y-72733000D01*
X98214184Y-72733000D01*
X98049772Y-72700297D01*
X97894900Y-72636147D01*
X97755519Y-72543015D01*
X97636985Y-72424481D01*
X97543853Y-72285100D01*
X97479703Y-72130228D01*
X97447000Y-71965816D01*
X97447000Y-71798184D01*
X97479703Y-71633772D01*
X97543853Y-71478900D01*
X97636985Y-71339519D01*
X97755519Y-71220985D01*
X97894900Y-71127853D01*
X98049772Y-71063703D01*
X98214184Y-71031000D01*
X98381816Y-71031000D01*
X98546228Y-71063703D01*
X98546228Y-71063703D01*
G37*
G36*
X103544821Y-71043313D02*
X103544824Y-71043314D01*
X103544825Y-71043314D01*
X103705239Y-71091975D01*
X103705241Y-71091976D01*
X103705244Y-71091977D01*
X103853078Y-71170995D01*
X103982659Y-71277341D01*
X104089005Y-71406922D01*
X104168023Y-71554756D01*
X104168024Y-71554759D01*
X104168025Y-71554761D01*
X104204572Y-71675240D01*
X104216687Y-71715179D01*
X104233117Y-71882000D01*
X104216687Y-72048821D01*
X104216686Y-72048824D01*
X104216686Y-72048825D01*
X104171131Y-72199001D01*
X104168023Y-72209244D01*
X104089005Y-72357078D01*
X103982659Y-72486659D01*
X103853078Y-72593005D01*
X103705244Y-72672023D01*
X103705241Y-72672024D01*
X103705239Y-72672025D01*
X103544825Y-72720686D01*
X103544824Y-72720686D01*
X103544821Y-72720687D01*
X103419804Y-72733000D01*
X103336196Y-72733000D01*
X103211179Y-72720687D01*
X103211176Y-72720686D01*
X103211175Y-72720686D01*
X103050761Y-72672025D01*
X103050759Y-72672024D01*
X103050756Y-72672023D01*
X102902922Y-72593005D01*
X102773341Y-72486659D01*
X102666995Y-72357078D01*
X102587977Y-72209244D01*
X102584870Y-72199001D01*
X102539314Y-72048825D01*
X102539314Y-72048824D01*
X102539313Y-72048821D01*
X102522883Y-71882000D01*
X102539313Y-71715179D01*
X102551428Y-71675240D01*
X102587975Y-71554761D01*
X102587976Y-71554759D01*
X102587977Y-71554756D01*
X102666995Y-71406922D01*
X102773341Y-71277341D01*
X102902922Y-71170995D01*
X103050756Y-71091977D01*
X103050759Y-71091976D01*
X103050761Y-71091975D01*
X103211175Y-71043314D01*
X103211176Y-71043314D01*
X103211179Y-71043313D01*
X103336196Y-71031000D01*
X103419804Y-71031000D01*
X103544821Y-71043313D01*
X103544821Y-71043313D01*
G37*
G36*
X118377001Y-72199001D02*
X116675001Y-72199001D01*
X116675001Y-70497001D01*
X118377001Y-70497001D01*
X118377001Y-72199001D01*
X118377001Y-72199001D01*
G37*
G36*
X125312822Y-70509314D02*
X125312825Y-70509315D01*
X125312826Y-70509315D01*
X125473240Y-70557976D01*
X125473242Y-70557977D01*
X125473245Y-70557978D01*
X125621079Y-70636996D01*
X125750660Y-70743342D01*
X125857006Y-70872923D01*
X125936024Y-71020757D01*
X125936025Y-71020760D01*
X125936026Y-71020762D01*
X125981599Y-71170996D01*
X125984688Y-71181180D01*
X126001118Y-71348001D01*
X125984688Y-71514822D01*
X125936024Y-71675245D01*
X125857006Y-71823079D01*
X125750660Y-71952660D01*
X125621079Y-72059006D01*
X125473245Y-72138024D01*
X125473242Y-72138025D01*
X125473240Y-72138026D01*
X125312826Y-72186687D01*
X125312825Y-72186687D01*
X125312822Y-72186688D01*
X125187805Y-72199001D01*
X125104197Y-72199001D01*
X124979180Y-72186688D01*
X124979177Y-72186687D01*
X124979176Y-72186687D01*
X124818762Y-72138026D01*
X124818760Y-72138025D01*
X124818757Y-72138024D01*
X124670923Y-72059006D01*
X124541342Y-71952660D01*
X124434996Y-71823079D01*
X124355978Y-71675245D01*
X124307314Y-71514822D01*
X124290884Y-71348001D01*
X124307314Y-71181180D01*
X124310403Y-71170996D01*
X124355976Y-71020762D01*
X124355977Y-71020760D01*
X124355978Y-71020757D01*
X124434996Y-70872923D01*
X124541342Y-70743342D01*
X124670923Y-70636996D01*
X124818757Y-70557978D01*
X124818760Y-70557977D01*
X124818762Y-70557976D01*
X124979176Y-70509315D01*
X124979177Y-70509315D01*
X124979180Y-70509314D01*
X125104197Y-70497001D01*
X125187805Y-70497001D01*
X125312822Y-70509314D01*
X125312822Y-70509314D01*
G37*
G36*
X142812433Y-68357893D02*
X142902657Y-68375839D01*
X143008267Y-68419585D01*
X143157621Y-68481449D01*
X143387089Y-68634774D01*
X143582226Y-68829911D01*
X143735551Y-69059379D01*
X143841161Y-69314344D01*
X143895000Y-69585012D01*
X143895000Y-69860988D01*
X143841161Y-70131656D01*
X143735551Y-70386621D01*
X143582226Y-70616089D01*
X143387089Y-70811226D01*
X143157621Y-70964551D01*
X143021928Y-71020757D01*
X142902657Y-71070161D01*
X142812433Y-71088107D01*
X142631988Y-71124000D01*
X142356012Y-71124000D01*
X142175567Y-71088107D01*
X142085343Y-71070161D01*
X141966072Y-71020757D01*
X141830379Y-70964551D01*
X141600911Y-70811226D01*
X141405774Y-70616089D01*
X141252449Y-70386621D01*
X141146839Y-70131656D01*
X141093000Y-69860988D01*
X141093000Y-69585012D01*
X141146839Y-69314344D01*
X141252449Y-69059379D01*
X141405774Y-68829911D01*
X141600911Y-68634774D01*
X141830379Y-68481449D01*
X141979733Y-68419585D01*
X142085343Y-68375839D01*
X142175567Y-68357893D01*
X142356012Y-68322000D01*
X142631988Y-68322000D01*
X142812433Y-68357893D01*
X142812433Y-68357893D01*
G37*
G36*
X82741433Y-68357893D02*
X82831657Y-68375839D01*
X82937267Y-68419585D01*
X83086621Y-68481449D01*
X83316089Y-68634774D01*
X83511226Y-68829911D01*
X83664551Y-69059379D01*
X83770161Y-69314344D01*
X83824000Y-69585012D01*
X83824000Y-69860988D01*
X83770161Y-70131656D01*
X83664551Y-70386621D01*
X83511226Y-70616089D01*
X83316089Y-70811226D01*
X83086621Y-70964551D01*
X82950928Y-71020757D01*
X82831657Y-71070161D01*
X82741433Y-71088107D01*
X82560988Y-71124000D01*
X82285012Y-71124000D01*
X82104567Y-71088107D01*
X82014343Y-71070161D01*
X81895072Y-71020757D01*
X81759379Y-70964551D01*
X81529911Y-70811226D01*
X81334774Y-70616089D01*
X81181449Y-70386621D01*
X81075839Y-70131656D01*
X81022000Y-69860988D01*
X81022000Y-69585012D01*
X81075839Y-69314344D01*
X81181449Y-69059379D01*
X81334774Y-68829911D01*
X81529911Y-68634774D01*
X81759379Y-68481449D01*
X81908733Y-68419585D01*
X82014343Y-68375839D01*
X82104567Y-68357893D01*
X82285012Y-68322000D01*
X82560988Y-68322000D01*
X82741433Y-68357893D01*
X82741433Y-68357893D01*
G37*
M02*
