G04 #@! TF.GenerationSoftware,KiCad,Pcbnew,(5.1.0)-1*
G04 #@! TF.CreationDate,2019-04-05T00:52:50-04:00*
G04 #@! TF.ProjectId,noize,6e6f697a-652e-46b6-9963-61645f706362,rev?*
G04 #@! TF.SameCoordinates,Original*
G04 #@! TF.FileFunction,Copper,L2,Bot*
G04 #@! TF.FilePolarity,Positive*
%FSLAX46Y46*%
G04 Gerber Fmt 4.6, Leading zero omitted, Abs format (unit mm)*
G04 Created by KiCad (PCBNEW (5.1.0)-1) date 2019-04-05 00:52:50*
%MOMM*%
%LPD*%
G04 APERTURE LIST*
%ADD10O,1.600000X1.600000*%
%ADD11R,1.600000X1.600000*%
%ADD12C,1.600000*%
%ADD13R,1.500000X1.050000*%
%ADD14O,1.500000X1.050000*%
%ADD15C,2.130000*%
%ADD16R,1.930000X1.830000*%
%ADD17O,1.700000X1.700000*%
%ADD18R,1.700000X1.700000*%
%ADD19C,0.800000*%
%ADD20C,0.250000*%
%ADD21C,0.254000*%
G04 APERTURE END LIST*
D10*
X148590000Y-131064000D03*
X156210000Y-123444000D03*
X148590000Y-128524000D03*
X156210000Y-125984000D03*
X148590000Y-125984000D03*
X156210000Y-128524000D03*
X148590000Y-123444000D03*
D11*
X156210000Y-131064000D03*
D10*
X157988000Y-149987000D03*
D12*
X157988000Y-155067000D03*
D10*
X159639000Y-139446000D03*
D12*
X159639000Y-134366000D03*
D10*
X147955000Y-120015000D03*
D12*
X153035000Y-120015000D03*
D10*
X151384000Y-138938000D03*
D12*
X156464000Y-138938000D03*
D10*
X148590000Y-143002000D03*
D12*
X148590000Y-137922000D03*
D10*
X156210000Y-120396000D03*
D12*
X156210000Y-115316000D03*
D10*
X159385000Y-106680000D03*
D12*
X159385000Y-111760000D03*
D10*
X159639000Y-125984000D03*
D12*
X159639000Y-131064000D03*
D10*
X157988000Y-141859000D03*
D12*
X157988000Y-146939000D03*
D13*
X158242000Y-101219000D03*
D14*
X158242000Y-103759000D03*
X158242000Y-102489000D03*
D15*
X153924000Y-166146000D03*
D16*
X153924000Y-177546000D03*
D15*
X153924000Y-174446000D03*
D17*
X151638000Y-161925000D03*
X149098000Y-161925000D03*
X151638000Y-159385000D03*
X149098000Y-159385000D03*
X151638000Y-156845000D03*
X149098000Y-156845000D03*
X151638000Y-154305000D03*
X149098000Y-154305000D03*
X151638000Y-151765000D03*
D18*
X149098000Y-151765000D03*
D15*
X153924000Y-192502000D03*
D16*
X153924000Y-181102000D03*
D15*
X153924000Y-184202000D03*
D10*
X154559000Y-100838000D03*
D11*
X154559000Y-108458000D03*
D12*
X150963000Y-108331000D03*
D11*
X148463000Y-108331000D03*
D12*
X149733000Y-112943000D03*
D11*
X149733000Y-115443000D03*
D12*
X149733000Y-103084000D03*
D11*
X149733000Y-100584000D03*
D12*
X153543000Y-145201000D03*
D11*
X153543000Y-147701000D03*
D12*
X159639000Y-123618000D03*
X159639000Y-118618000D03*
X148162000Y-134620000D03*
X153162000Y-134620000D03*
D19*
X150622000Y-133731000D03*
X156591000Y-117983000D03*
X153580999Y-124295001D03*
D20*
X151638000Y-155507081D02*
X151638000Y-156845000D01*
X151638000Y-154305000D02*
X151638000Y-155507081D01*
X149098000Y-158047081D02*
X149098000Y-159385000D01*
X149098000Y-156845000D02*
X149098000Y-158047081D01*
X152273000Y-133731000D02*
X153162000Y-134620000D01*
X150622000Y-133731000D02*
X152273000Y-133731000D01*
X159004000Y-117983000D02*
X159639000Y-118618000D01*
X156591000Y-117983000D02*
X159004000Y-117983000D01*
X156464000Y-146939000D02*
X157988000Y-146939000D01*
X151638000Y-151765000D02*
X156464000Y-146939000D01*
X158839001Y-122818001D02*
X159639000Y-123618000D01*
X158665001Y-122644001D02*
X158839001Y-122818001D01*
X157009999Y-122644001D02*
X158665001Y-122644001D01*
X156210000Y-123444000D02*
X157009999Y-122644001D01*
X149389999Y-142202001D02*
X148590000Y-143002000D01*
X149715001Y-141876999D02*
X149389999Y-142202001D01*
X149715001Y-129938999D02*
X149715001Y-141876999D01*
X156210000Y-123444000D02*
X149715001Y-129938999D01*
X148248001Y-161075001D02*
X149098000Y-161925000D01*
X147922999Y-160749999D02*
X148248001Y-161075001D01*
X147922999Y-144800371D02*
X147922999Y-160749999D01*
X148590000Y-144133370D02*
X147922999Y-144800371D01*
X148590000Y-143002000D02*
X148590000Y-144133370D01*
X150300081Y-161925000D02*
X151638000Y-161925000D01*
X149098000Y-161925000D02*
X150300081Y-161925000D01*
X157988000Y-142990370D02*
X157988000Y-141859000D01*
X157988000Y-144306000D02*
X157988000Y-142990370D01*
X154593000Y-147701000D02*
X157988000Y-144306000D01*
X153543000Y-147701000D02*
X154593000Y-147701000D01*
X157607000Y-108458000D02*
X159385000Y-106680000D01*
X154559000Y-108458000D02*
X157607000Y-108458000D01*
X156210000Y-119264630D02*
X156210000Y-120396000D01*
X150688369Y-113742999D02*
X156210000Y-119264630D01*
X150532999Y-113742999D02*
X150688369Y-113742999D01*
X149733000Y-112943000D02*
X150532999Y-113742999D01*
X153580999Y-124295001D02*
X153580999Y-124295001D01*
X153580999Y-120560999D02*
X153035000Y-120015000D01*
X153580999Y-124295001D02*
X153580999Y-120560999D01*
X158253630Y-111760000D02*
X159385000Y-111760000D01*
X152726998Y-111760000D02*
X158253630Y-111760000D01*
X149297998Y-108331000D02*
X152726998Y-111760000D01*
X148463000Y-108331000D02*
X149297998Y-108331000D01*
X156210000Y-102489000D02*
X158242000Y-102489000D01*
X154559000Y-100838000D02*
X156210000Y-102489000D01*
X159131000Y-138938000D02*
X159639000Y-139446000D01*
X156464000Y-138938000D02*
X159131000Y-138938000D01*
D21*
G36*
X158204000Y-123476665D02*
G01*
X158204000Y-123759335D01*
X158259147Y-124036574D01*
X158367320Y-124297727D01*
X158524363Y-124532759D01*
X158724241Y-124732637D01*
X158822107Y-124798029D01*
X158619392Y-124964392D01*
X158440068Y-125182899D01*
X158306818Y-125432192D01*
X158224764Y-125702691D01*
X158197057Y-125984000D01*
X158224764Y-126265309D01*
X158306818Y-126535808D01*
X158440068Y-126785101D01*
X158619392Y-127003608D01*
X158837899Y-127182932D01*
X159087192Y-127316182D01*
X159357691Y-127398236D01*
X159568508Y-127419000D01*
X159709492Y-127419000D01*
X159920309Y-127398236D01*
X160190808Y-127316182D01*
X160440101Y-127182932D01*
X160658608Y-127003608D01*
X160707001Y-126944641D01*
X160707001Y-130102605D01*
X160553759Y-129949363D01*
X160318727Y-129792320D01*
X160057574Y-129684147D01*
X159780335Y-129629000D01*
X159497665Y-129629000D01*
X159220426Y-129684147D01*
X158959273Y-129792320D01*
X158724241Y-129949363D01*
X158524363Y-130149241D01*
X158367320Y-130384273D01*
X158259147Y-130645426D01*
X158204000Y-130922665D01*
X158204000Y-131205335D01*
X158259147Y-131482574D01*
X158367320Y-131743727D01*
X158524363Y-131978759D01*
X158724241Y-132178637D01*
X158959273Y-132335680D01*
X159220426Y-132443853D01*
X159497665Y-132499000D01*
X159780335Y-132499000D01*
X160057574Y-132443853D01*
X160318727Y-132335680D01*
X160553759Y-132178637D01*
X160707001Y-132025395D01*
X160707001Y-133404605D01*
X160553759Y-133251363D01*
X160318727Y-133094320D01*
X160057574Y-132986147D01*
X159780335Y-132931000D01*
X159497665Y-132931000D01*
X159220426Y-132986147D01*
X158959273Y-133094320D01*
X158724241Y-133251363D01*
X158524363Y-133451241D01*
X158367320Y-133686273D01*
X158259147Y-133947426D01*
X158204000Y-134224665D01*
X158204000Y-134507335D01*
X158259147Y-134784574D01*
X158367320Y-135045727D01*
X158524363Y-135280759D01*
X158724241Y-135480637D01*
X158959273Y-135637680D01*
X159220426Y-135745853D01*
X159497665Y-135801000D01*
X159780335Y-135801000D01*
X160057574Y-135745853D01*
X160318727Y-135637680D01*
X160553759Y-135480637D01*
X160707001Y-135327395D01*
X160707001Y-138485359D01*
X160658608Y-138426392D01*
X160440101Y-138247068D01*
X160190808Y-138113818D01*
X159920309Y-138031764D01*
X159709492Y-138011000D01*
X159568508Y-138011000D01*
X159357691Y-138031764D01*
X159087192Y-138113818D01*
X158967116Y-138178000D01*
X157682043Y-138178000D01*
X157578637Y-138023241D01*
X157378759Y-137823363D01*
X157143727Y-137666320D01*
X156882574Y-137558147D01*
X156605335Y-137503000D01*
X156322665Y-137503000D01*
X156045426Y-137558147D01*
X155784273Y-137666320D01*
X155549241Y-137823363D01*
X155349363Y-138023241D01*
X155192320Y-138258273D01*
X155084147Y-138519426D01*
X155029000Y-138796665D01*
X155029000Y-139079335D01*
X155084147Y-139356574D01*
X155192320Y-139617727D01*
X155349363Y-139852759D01*
X155549241Y-140052637D01*
X155784273Y-140209680D01*
X156045426Y-140317853D01*
X156322665Y-140373000D01*
X156605335Y-140373000D01*
X156882574Y-140317853D01*
X157143727Y-140209680D01*
X157378759Y-140052637D01*
X157578637Y-139852759D01*
X157682043Y-139698000D01*
X158221877Y-139698000D01*
X158224764Y-139727309D01*
X158306818Y-139997808D01*
X158440068Y-140247101D01*
X158619392Y-140465608D01*
X158837899Y-140644932D01*
X159087192Y-140778182D01*
X159357691Y-140860236D01*
X159568508Y-140881000D01*
X159709492Y-140881000D01*
X159920309Y-140860236D01*
X160190808Y-140778182D01*
X160440101Y-140644932D01*
X160658608Y-140465608D01*
X160707001Y-140406641D01*
X160707001Y-164333811D01*
X147446755Y-164212157D01*
X147441151Y-161342952D01*
X147657203Y-161559004D01*
X147634487Y-161633889D01*
X147605815Y-161925000D01*
X147634487Y-162216111D01*
X147719401Y-162496034D01*
X147857294Y-162754014D01*
X148042866Y-162980134D01*
X148268986Y-163165706D01*
X148526966Y-163303599D01*
X148806889Y-163388513D01*
X149025050Y-163410000D01*
X149170950Y-163410000D01*
X149389111Y-163388513D01*
X149669034Y-163303599D01*
X149927014Y-163165706D01*
X150153134Y-162980134D01*
X150338706Y-162754014D01*
X150368000Y-162699209D01*
X150397294Y-162754014D01*
X150582866Y-162980134D01*
X150808986Y-163165706D01*
X151066966Y-163303599D01*
X151346889Y-163388513D01*
X151565050Y-163410000D01*
X151710950Y-163410000D01*
X151929111Y-163388513D01*
X152209034Y-163303599D01*
X152467014Y-163165706D01*
X152693134Y-162980134D01*
X152878706Y-162754014D01*
X153016599Y-162496034D01*
X153101513Y-162216111D01*
X153130185Y-161925000D01*
X153101513Y-161633889D01*
X153016599Y-161353966D01*
X152878706Y-161095986D01*
X152693134Y-160869866D01*
X152467014Y-160684294D01*
X152412209Y-160655000D01*
X152467014Y-160625706D01*
X152693134Y-160440134D01*
X152878706Y-160214014D01*
X153016599Y-159956034D01*
X153101513Y-159676111D01*
X153130185Y-159385000D01*
X153101513Y-159093889D01*
X153016599Y-158813966D01*
X152878706Y-158555986D01*
X152693134Y-158329866D01*
X152467014Y-158144294D01*
X152412209Y-158115000D01*
X152467014Y-158085706D01*
X152693134Y-157900134D01*
X152878706Y-157674014D01*
X153016599Y-157416034D01*
X153101513Y-157136111D01*
X153130185Y-156845000D01*
X153101513Y-156553889D01*
X153016599Y-156273966D01*
X152878706Y-156015986D01*
X152693134Y-155789866D01*
X152467014Y-155604294D01*
X152412209Y-155575000D01*
X152467014Y-155545706D01*
X152693134Y-155360134D01*
X152878706Y-155134014D01*
X152990070Y-154925665D01*
X156553000Y-154925665D01*
X156553000Y-155208335D01*
X156608147Y-155485574D01*
X156716320Y-155746727D01*
X156873363Y-155981759D01*
X157073241Y-156181637D01*
X157308273Y-156338680D01*
X157569426Y-156446853D01*
X157846665Y-156502000D01*
X158129335Y-156502000D01*
X158406574Y-156446853D01*
X158667727Y-156338680D01*
X158902759Y-156181637D01*
X159102637Y-155981759D01*
X159259680Y-155746727D01*
X159367853Y-155485574D01*
X159423000Y-155208335D01*
X159423000Y-154925665D01*
X159367853Y-154648426D01*
X159259680Y-154387273D01*
X159102637Y-154152241D01*
X158902759Y-153952363D01*
X158667727Y-153795320D01*
X158406574Y-153687147D01*
X158129335Y-153632000D01*
X157846665Y-153632000D01*
X157569426Y-153687147D01*
X157308273Y-153795320D01*
X157073241Y-153952363D01*
X156873363Y-154152241D01*
X156716320Y-154387273D01*
X156608147Y-154648426D01*
X156553000Y-154925665D01*
X152990070Y-154925665D01*
X153016599Y-154876034D01*
X153101513Y-154596111D01*
X153130185Y-154305000D01*
X153101513Y-154013889D01*
X153016599Y-153733966D01*
X152878706Y-153475986D01*
X152693134Y-153249866D01*
X152467014Y-153064294D01*
X152402477Y-153029799D01*
X152519355Y-152960178D01*
X152735588Y-152765269D01*
X152909641Y-152531920D01*
X153034825Y-152269099D01*
X153079476Y-152121890D01*
X152958155Y-151892000D01*
X151765000Y-151892000D01*
X151765000Y-151912000D01*
X151511000Y-151912000D01*
X151511000Y-151892000D01*
X149225000Y-151892000D01*
X149225000Y-151912000D01*
X148971000Y-151912000D01*
X148971000Y-151892000D01*
X148951000Y-151892000D01*
X148951000Y-151638000D01*
X148971000Y-151638000D01*
X148971000Y-150438750D01*
X149225000Y-150438750D01*
X149225000Y-151638000D01*
X151511000Y-151638000D01*
X151511000Y-150444186D01*
X151765000Y-150444186D01*
X151765000Y-151638000D01*
X152958155Y-151638000D01*
X153079476Y-151408110D01*
X153034825Y-151260901D01*
X152909641Y-150998080D01*
X152735588Y-150764731D01*
X152519355Y-150569822D01*
X152269252Y-150420843D01*
X151994891Y-150323519D01*
X151765000Y-150444186D01*
X151511000Y-150444186D01*
X151281109Y-150323519D01*
X151006748Y-150420843D01*
X150756645Y-150569822D01*
X150560498Y-150746626D01*
X150537502Y-150670820D01*
X150478537Y-150560506D01*
X150399185Y-150463815D01*
X150302494Y-150384463D01*
X150192180Y-150325498D01*
X150072482Y-150289188D01*
X149948000Y-150276928D01*
X149383750Y-150280000D01*
X149225000Y-150438750D01*
X148971000Y-150438750D01*
X148812250Y-150280000D01*
X148682999Y-150279296D01*
X148682999Y-149987000D01*
X156546057Y-149987000D01*
X156573764Y-150268309D01*
X156655818Y-150538808D01*
X156789068Y-150788101D01*
X156968392Y-151006608D01*
X157186899Y-151185932D01*
X157436192Y-151319182D01*
X157706691Y-151401236D01*
X157917508Y-151422000D01*
X158058492Y-151422000D01*
X158269309Y-151401236D01*
X158539808Y-151319182D01*
X158789101Y-151185932D01*
X159007608Y-151006608D01*
X159186932Y-150788101D01*
X159320182Y-150538808D01*
X159402236Y-150268309D01*
X159429943Y-149987000D01*
X159402236Y-149705691D01*
X159320182Y-149435192D01*
X159186932Y-149185899D01*
X159007608Y-148967392D01*
X158789101Y-148788068D01*
X158539808Y-148654818D01*
X158269309Y-148572764D01*
X158058492Y-148552000D01*
X157917508Y-148552000D01*
X157706691Y-148572764D01*
X157436192Y-148654818D01*
X157186899Y-148788068D01*
X156968392Y-148967392D01*
X156789068Y-149185899D01*
X156655818Y-149435192D01*
X156573764Y-149705691D01*
X156546057Y-149987000D01*
X148682999Y-149987000D01*
X148682999Y-146901000D01*
X152104928Y-146901000D01*
X152104928Y-148501000D01*
X152117188Y-148625482D01*
X152153498Y-148745180D01*
X152212463Y-148855494D01*
X152291815Y-148952185D01*
X152388506Y-149031537D01*
X152498820Y-149090502D01*
X152618518Y-149126812D01*
X152743000Y-149139072D01*
X154343000Y-149139072D01*
X154467482Y-149126812D01*
X154587180Y-149090502D01*
X154697494Y-149031537D01*
X154794185Y-148952185D01*
X154873537Y-148855494D01*
X154932502Y-148745180D01*
X154968812Y-148625482D01*
X154981072Y-148501000D01*
X154981072Y-148355326D01*
X155017276Y-148335974D01*
X155133001Y-148241001D01*
X155156804Y-148211997D01*
X155437099Y-147931702D01*
X157174903Y-147931702D01*
X157246486Y-148175671D01*
X157501996Y-148296571D01*
X157776184Y-148365300D01*
X158058512Y-148379217D01*
X158338130Y-148337787D01*
X158604292Y-148242603D01*
X158729514Y-148175671D01*
X158801097Y-147931702D01*
X157988000Y-147118605D01*
X157174903Y-147931702D01*
X155437099Y-147931702D01*
X156557556Y-146811245D01*
X156547783Y-147009512D01*
X156589213Y-147289130D01*
X156684397Y-147555292D01*
X156751329Y-147680514D01*
X156995298Y-147752097D01*
X157808395Y-146939000D01*
X158167605Y-146939000D01*
X158980702Y-147752097D01*
X159224671Y-147680514D01*
X159345571Y-147425004D01*
X159414300Y-147150816D01*
X159428217Y-146868488D01*
X159386787Y-146588870D01*
X159291603Y-146322708D01*
X159224671Y-146197486D01*
X158980702Y-146125903D01*
X158167605Y-146939000D01*
X157808395Y-146939000D01*
X157794253Y-146924858D01*
X157973858Y-146745253D01*
X157988000Y-146759395D01*
X158801097Y-145946298D01*
X158729514Y-145702329D01*
X158474004Y-145581429D01*
X158199816Y-145512700D01*
X157917488Y-145498783D01*
X157861762Y-145507040D01*
X158499004Y-144869798D01*
X158528001Y-144846001D01*
X158580176Y-144782426D01*
X158622974Y-144730277D01*
X158693546Y-144598247D01*
X158716895Y-144521273D01*
X158737003Y-144454986D01*
X158748000Y-144343333D01*
X158748000Y-144343324D01*
X158751676Y-144306001D01*
X158748000Y-144268678D01*
X158748000Y-143079901D01*
X158789101Y-143057932D01*
X159007608Y-142878608D01*
X159186932Y-142660101D01*
X159320182Y-142410808D01*
X159402236Y-142140309D01*
X159429943Y-141859000D01*
X159402236Y-141577691D01*
X159320182Y-141307192D01*
X159186932Y-141057899D01*
X159007608Y-140839392D01*
X158789101Y-140660068D01*
X158539808Y-140526818D01*
X158269309Y-140444764D01*
X158058492Y-140424000D01*
X157917508Y-140424000D01*
X157706691Y-140444764D01*
X157436192Y-140526818D01*
X157186899Y-140660068D01*
X156968392Y-140839392D01*
X156789068Y-141057899D01*
X156655818Y-141307192D01*
X156573764Y-141577691D01*
X156546057Y-141859000D01*
X156573764Y-142140309D01*
X156655818Y-142410808D01*
X156789068Y-142660101D01*
X156968392Y-142878608D01*
X157186899Y-143057932D01*
X157228001Y-143079901D01*
X157228000Y-143991198D01*
X154780563Y-146438636D01*
X154697494Y-146370463D01*
X154587180Y-146311498D01*
X154491057Y-146282339D01*
X154657637Y-146115759D01*
X154814680Y-145880727D01*
X154922853Y-145619574D01*
X154978000Y-145342335D01*
X154978000Y-145059665D01*
X154922853Y-144782426D01*
X154814680Y-144521273D01*
X154657637Y-144286241D01*
X154457759Y-144086363D01*
X154222727Y-143929320D01*
X153961574Y-143821147D01*
X153684335Y-143766000D01*
X153401665Y-143766000D01*
X153124426Y-143821147D01*
X152863273Y-143929320D01*
X152628241Y-144086363D01*
X152428363Y-144286241D01*
X152271320Y-144521273D01*
X152163147Y-144782426D01*
X152108000Y-145059665D01*
X152108000Y-145342335D01*
X152163147Y-145619574D01*
X152271320Y-145880727D01*
X152428363Y-146115759D01*
X152594943Y-146282339D01*
X152498820Y-146311498D01*
X152388506Y-146370463D01*
X152291815Y-146449815D01*
X152212463Y-146546506D01*
X152153498Y-146656820D01*
X152117188Y-146776518D01*
X152104928Y-146901000D01*
X148682999Y-146901000D01*
X148682999Y-145115172D01*
X149101002Y-144697170D01*
X149130001Y-144673371D01*
X149224974Y-144557646D01*
X149295546Y-144425617D01*
X149339003Y-144282356D01*
X149344573Y-144225802D01*
X149391101Y-144200932D01*
X149609608Y-144021608D01*
X149788932Y-143803101D01*
X149922182Y-143553808D01*
X150004236Y-143283309D01*
X150031943Y-143002000D01*
X150004236Y-142720691D01*
X149990708Y-142676093D01*
X150225998Y-142440803D01*
X150255002Y-142417000D01*
X150349975Y-142301275D01*
X150420547Y-142169246D01*
X150464004Y-142025985D01*
X150475001Y-141914332D01*
X150475001Y-141914323D01*
X150478677Y-141877000D01*
X150475001Y-141839677D01*
X150475001Y-140048382D01*
X150582899Y-140136932D01*
X150832192Y-140270182D01*
X151102691Y-140352236D01*
X151313508Y-140373000D01*
X151454492Y-140373000D01*
X151665309Y-140352236D01*
X151935808Y-140270182D01*
X152185101Y-140136932D01*
X152403608Y-139957608D01*
X152582932Y-139739101D01*
X152716182Y-139489808D01*
X152798236Y-139219309D01*
X152825943Y-138938000D01*
X152798236Y-138656691D01*
X152716182Y-138386192D01*
X152582932Y-138136899D01*
X152403608Y-137918392D01*
X152185101Y-137739068D01*
X151935808Y-137605818D01*
X151665309Y-137523764D01*
X151454492Y-137503000D01*
X151313508Y-137503000D01*
X151102691Y-137523764D01*
X150832192Y-137605818D01*
X150582899Y-137739068D01*
X150475001Y-137827618D01*
X150475001Y-134757037D01*
X150520061Y-134766000D01*
X150723939Y-134766000D01*
X150923898Y-134726226D01*
X151112256Y-134648205D01*
X151281774Y-134534937D01*
X151325711Y-134491000D01*
X151727000Y-134491000D01*
X151727000Y-134761335D01*
X151782147Y-135038574D01*
X151890320Y-135299727D01*
X152047363Y-135534759D01*
X152247241Y-135734637D01*
X152482273Y-135891680D01*
X152743426Y-135999853D01*
X153020665Y-136055000D01*
X153303335Y-136055000D01*
X153580574Y-135999853D01*
X153841727Y-135891680D01*
X154076759Y-135734637D01*
X154276637Y-135534759D01*
X154433680Y-135299727D01*
X154541853Y-135038574D01*
X154597000Y-134761335D01*
X154597000Y-134478665D01*
X154541853Y-134201426D01*
X154433680Y-133940273D01*
X154276637Y-133705241D01*
X154076759Y-133505363D01*
X153841727Y-133348320D01*
X153580574Y-133240147D01*
X153303335Y-133185000D01*
X153020665Y-133185000D01*
X152838113Y-133221312D01*
X152836803Y-133220002D01*
X152813001Y-133190999D01*
X152697276Y-133096026D01*
X152565247Y-133025454D01*
X152421986Y-132981997D01*
X152310333Y-132971000D01*
X152310322Y-132971000D01*
X152273000Y-132967324D01*
X152235678Y-132971000D01*
X151325711Y-132971000D01*
X151281774Y-132927063D01*
X151112256Y-132813795D01*
X150923898Y-132735774D01*
X150723939Y-132696000D01*
X150520061Y-132696000D01*
X150475001Y-132704963D01*
X150475001Y-130253800D01*
X154770598Y-125958204D01*
X154768057Y-125984000D01*
X154795764Y-126265309D01*
X154877818Y-126535808D01*
X155011068Y-126785101D01*
X155190392Y-127003608D01*
X155408899Y-127182932D01*
X155541858Y-127254000D01*
X155408899Y-127325068D01*
X155190392Y-127504392D01*
X155011068Y-127722899D01*
X154877818Y-127972192D01*
X154795764Y-128242691D01*
X154768057Y-128524000D01*
X154795764Y-128805309D01*
X154877818Y-129075808D01*
X155011068Y-129325101D01*
X155190392Y-129543608D01*
X155303482Y-129636419D01*
X155285518Y-129638188D01*
X155165820Y-129674498D01*
X155055506Y-129733463D01*
X154958815Y-129812815D01*
X154879463Y-129909506D01*
X154820498Y-130019820D01*
X154784188Y-130139518D01*
X154771928Y-130264000D01*
X154771928Y-131864000D01*
X154784188Y-131988482D01*
X154820498Y-132108180D01*
X154879463Y-132218494D01*
X154958815Y-132315185D01*
X155055506Y-132394537D01*
X155165820Y-132453502D01*
X155285518Y-132489812D01*
X155410000Y-132502072D01*
X157010000Y-132502072D01*
X157134482Y-132489812D01*
X157254180Y-132453502D01*
X157364494Y-132394537D01*
X157461185Y-132315185D01*
X157540537Y-132218494D01*
X157599502Y-132108180D01*
X157635812Y-131988482D01*
X157648072Y-131864000D01*
X157648072Y-130264000D01*
X157635812Y-130139518D01*
X157599502Y-130019820D01*
X157540537Y-129909506D01*
X157461185Y-129812815D01*
X157364494Y-129733463D01*
X157254180Y-129674498D01*
X157134482Y-129638188D01*
X157116518Y-129636419D01*
X157229608Y-129543608D01*
X157408932Y-129325101D01*
X157542182Y-129075808D01*
X157624236Y-128805309D01*
X157651943Y-128524000D01*
X157624236Y-128242691D01*
X157542182Y-127972192D01*
X157408932Y-127722899D01*
X157229608Y-127504392D01*
X157011101Y-127325068D01*
X156878142Y-127254000D01*
X157011101Y-127182932D01*
X157229608Y-127003608D01*
X157408932Y-126785101D01*
X157542182Y-126535808D01*
X157624236Y-126265309D01*
X157651943Y-125984000D01*
X157624236Y-125702691D01*
X157542182Y-125432192D01*
X157408932Y-125182899D01*
X157229608Y-124964392D01*
X157011101Y-124785068D01*
X156878142Y-124714000D01*
X157011101Y-124642932D01*
X157229608Y-124463608D01*
X157408932Y-124245101D01*
X157542182Y-123995808D01*
X157624236Y-123725309D01*
X157651943Y-123444000D01*
X157648003Y-123404001D01*
X158218454Y-123404001D01*
X158204000Y-123476665D01*
X158204000Y-123476665D01*
G37*
X158204000Y-123476665D02*
X158204000Y-123759335D01*
X158259147Y-124036574D01*
X158367320Y-124297727D01*
X158524363Y-124532759D01*
X158724241Y-124732637D01*
X158822107Y-124798029D01*
X158619392Y-124964392D01*
X158440068Y-125182899D01*
X158306818Y-125432192D01*
X158224764Y-125702691D01*
X158197057Y-125984000D01*
X158224764Y-126265309D01*
X158306818Y-126535808D01*
X158440068Y-126785101D01*
X158619392Y-127003608D01*
X158837899Y-127182932D01*
X159087192Y-127316182D01*
X159357691Y-127398236D01*
X159568508Y-127419000D01*
X159709492Y-127419000D01*
X159920309Y-127398236D01*
X160190808Y-127316182D01*
X160440101Y-127182932D01*
X160658608Y-127003608D01*
X160707001Y-126944641D01*
X160707001Y-130102605D01*
X160553759Y-129949363D01*
X160318727Y-129792320D01*
X160057574Y-129684147D01*
X159780335Y-129629000D01*
X159497665Y-129629000D01*
X159220426Y-129684147D01*
X158959273Y-129792320D01*
X158724241Y-129949363D01*
X158524363Y-130149241D01*
X158367320Y-130384273D01*
X158259147Y-130645426D01*
X158204000Y-130922665D01*
X158204000Y-131205335D01*
X158259147Y-131482574D01*
X158367320Y-131743727D01*
X158524363Y-131978759D01*
X158724241Y-132178637D01*
X158959273Y-132335680D01*
X159220426Y-132443853D01*
X159497665Y-132499000D01*
X159780335Y-132499000D01*
X160057574Y-132443853D01*
X160318727Y-132335680D01*
X160553759Y-132178637D01*
X160707001Y-132025395D01*
X160707001Y-133404605D01*
X160553759Y-133251363D01*
X160318727Y-133094320D01*
X160057574Y-132986147D01*
X159780335Y-132931000D01*
X159497665Y-132931000D01*
X159220426Y-132986147D01*
X158959273Y-133094320D01*
X158724241Y-133251363D01*
X158524363Y-133451241D01*
X158367320Y-133686273D01*
X158259147Y-133947426D01*
X158204000Y-134224665D01*
X158204000Y-134507335D01*
X158259147Y-134784574D01*
X158367320Y-135045727D01*
X158524363Y-135280759D01*
X158724241Y-135480637D01*
X158959273Y-135637680D01*
X159220426Y-135745853D01*
X159497665Y-135801000D01*
X159780335Y-135801000D01*
X160057574Y-135745853D01*
X160318727Y-135637680D01*
X160553759Y-135480637D01*
X160707001Y-135327395D01*
X160707001Y-138485359D01*
X160658608Y-138426392D01*
X160440101Y-138247068D01*
X160190808Y-138113818D01*
X159920309Y-138031764D01*
X159709492Y-138011000D01*
X159568508Y-138011000D01*
X159357691Y-138031764D01*
X159087192Y-138113818D01*
X158967116Y-138178000D01*
X157682043Y-138178000D01*
X157578637Y-138023241D01*
X157378759Y-137823363D01*
X157143727Y-137666320D01*
X156882574Y-137558147D01*
X156605335Y-137503000D01*
X156322665Y-137503000D01*
X156045426Y-137558147D01*
X155784273Y-137666320D01*
X155549241Y-137823363D01*
X155349363Y-138023241D01*
X155192320Y-138258273D01*
X155084147Y-138519426D01*
X155029000Y-138796665D01*
X155029000Y-139079335D01*
X155084147Y-139356574D01*
X155192320Y-139617727D01*
X155349363Y-139852759D01*
X155549241Y-140052637D01*
X155784273Y-140209680D01*
X156045426Y-140317853D01*
X156322665Y-140373000D01*
X156605335Y-140373000D01*
X156882574Y-140317853D01*
X157143727Y-140209680D01*
X157378759Y-140052637D01*
X157578637Y-139852759D01*
X157682043Y-139698000D01*
X158221877Y-139698000D01*
X158224764Y-139727309D01*
X158306818Y-139997808D01*
X158440068Y-140247101D01*
X158619392Y-140465608D01*
X158837899Y-140644932D01*
X159087192Y-140778182D01*
X159357691Y-140860236D01*
X159568508Y-140881000D01*
X159709492Y-140881000D01*
X159920309Y-140860236D01*
X160190808Y-140778182D01*
X160440101Y-140644932D01*
X160658608Y-140465608D01*
X160707001Y-140406641D01*
X160707001Y-164333811D01*
X147446755Y-164212157D01*
X147441151Y-161342952D01*
X147657203Y-161559004D01*
X147634487Y-161633889D01*
X147605815Y-161925000D01*
X147634487Y-162216111D01*
X147719401Y-162496034D01*
X147857294Y-162754014D01*
X148042866Y-162980134D01*
X148268986Y-163165706D01*
X148526966Y-163303599D01*
X148806889Y-163388513D01*
X149025050Y-163410000D01*
X149170950Y-163410000D01*
X149389111Y-163388513D01*
X149669034Y-163303599D01*
X149927014Y-163165706D01*
X150153134Y-162980134D01*
X150338706Y-162754014D01*
X150368000Y-162699209D01*
X150397294Y-162754014D01*
X150582866Y-162980134D01*
X150808986Y-163165706D01*
X151066966Y-163303599D01*
X151346889Y-163388513D01*
X151565050Y-163410000D01*
X151710950Y-163410000D01*
X151929111Y-163388513D01*
X152209034Y-163303599D01*
X152467014Y-163165706D01*
X152693134Y-162980134D01*
X152878706Y-162754014D01*
X153016599Y-162496034D01*
X153101513Y-162216111D01*
X153130185Y-161925000D01*
X153101513Y-161633889D01*
X153016599Y-161353966D01*
X152878706Y-161095986D01*
X152693134Y-160869866D01*
X152467014Y-160684294D01*
X152412209Y-160655000D01*
X152467014Y-160625706D01*
X152693134Y-160440134D01*
X152878706Y-160214014D01*
X153016599Y-159956034D01*
X153101513Y-159676111D01*
X153130185Y-159385000D01*
X153101513Y-159093889D01*
X153016599Y-158813966D01*
X152878706Y-158555986D01*
X152693134Y-158329866D01*
X152467014Y-158144294D01*
X152412209Y-158115000D01*
X152467014Y-158085706D01*
X152693134Y-157900134D01*
X152878706Y-157674014D01*
X153016599Y-157416034D01*
X153101513Y-157136111D01*
X153130185Y-156845000D01*
X153101513Y-156553889D01*
X153016599Y-156273966D01*
X152878706Y-156015986D01*
X152693134Y-155789866D01*
X152467014Y-155604294D01*
X152412209Y-155575000D01*
X152467014Y-155545706D01*
X152693134Y-155360134D01*
X152878706Y-155134014D01*
X152990070Y-154925665D01*
X156553000Y-154925665D01*
X156553000Y-155208335D01*
X156608147Y-155485574D01*
X156716320Y-155746727D01*
X156873363Y-155981759D01*
X157073241Y-156181637D01*
X157308273Y-156338680D01*
X157569426Y-156446853D01*
X157846665Y-156502000D01*
X158129335Y-156502000D01*
X158406574Y-156446853D01*
X158667727Y-156338680D01*
X158902759Y-156181637D01*
X159102637Y-155981759D01*
X159259680Y-155746727D01*
X159367853Y-155485574D01*
X159423000Y-155208335D01*
X159423000Y-154925665D01*
X159367853Y-154648426D01*
X159259680Y-154387273D01*
X159102637Y-154152241D01*
X158902759Y-153952363D01*
X158667727Y-153795320D01*
X158406574Y-153687147D01*
X158129335Y-153632000D01*
X157846665Y-153632000D01*
X157569426Y-153687147D01*
X157308273Y-153795320D01*
X157073241Y-153952363D01*
X156873363Y-154152241D01*
X156716320Y-154387273D01*
X156608147Y-154648426D01*
X156553000Y-154925665D01*
X152990070Y-154925665D01*
X153016599Y-154876034D01*
X153101513Y-154596111D01*
X153130185Y-154305000D01*
X153101513Y-154013889D01*
X153016599Y-153733966D01*
X152878706Y-153475986D01*
X152693134Y-153249866D01*
X152467014Y-153064294D01*
X152402477Y-153029799D01*
X152519355Y-152960178D01*
X152735588Y-152765269D01*
X152909641Y-152531920D01*
X153034825Y-152269099D01*
X153079476Y-152121890D01*
X152958155Y-151892000D01*
X151765000Y-151892000D01*
X151765000Y-151912000D01*
X151511000Y-151912000D01*
X151511000Y-151892000D01*
X149225000Y-151892000D01*
X149225000Y-151912000D01*
X148971000Y-151912000D01*
X148971000Y-151892000D01*
X148951000Y-151892000D01*
X148951000Y-151638000D01*
X148971000Y-151638000D01*
X148971000Y-150438750D01*
X149225000Y-150438750D01*
X149225000Y-151638000D01*
X151511000Y-151638000D01*
X151511000Y-150444186D01*
X151765000Y-150444186D01*
X151765000Y-151638000D01*
X152958155Y-151638000D01*
X153079476Y-151408110D01*
X153034825Y-151260901D01*
X152909641Y-150998080D01*
X152735588Y-150764731D01*
X152519355Y-150569822D01*
X152269252Y-150420843D01*
X151994891Y-150323519D01*
X151765000Y-150444186D01*
X151511000Y-150444186D01*
X151281109Y-150323519D01*
X151006748Y-150420843D01*
X150756645Y-150569822D01*
X150560498Y-150746626D01*
X150537502Y-150670820D01*
X150478537Y-150560506D01*
X150399185Y-150463815D01*
X150302494Y-150384463D01*
X150192180Y-150325498D01*
X150072482Y-150289188D01*
X149948000Y-150276928D01*
X149383750Y-150280000D01*
X149225000Y-150438750D01*
X148971000Y-150438750D01*
X148812250Y-150280000D01*
X148682999Y-150279296D01*
X148682999Y-149987000D01*
X156546057Y-149987000D01*
X156573764Y-150268309D01*
X156655818Y-150538808D01*
X156789068Y-150788101D01*
X156968392Y-151006608D01*
X157186899Y-151185932D01*
X157436192Y-151319182D01*
X157706691Y-151401236D01*
X157917508Y-151422000D01*
X158058492Y-151422000D01*
X158269309Y-151401236D01*
X158539808Y-151319182D01*
X158789101Y-151185932D01*
X159007608Y-151006608D01*
X159186932Y-150788101D01*
X159320182Y-150538808D01*
X159402236Y-150268309D01*
X159429943Y-149987000D01*
X159402236Y-149705691D01*
X159320182Y-149435192D01*
X159186932Y-149185899D01*
X159007608Y-148967392D01*
X158789101Y-148788068D01*
X158539808Y-148654818D01*
X158269309Y-148572764D01*
X158058492Y-148552000D01*
X157917508Y-148552000D01*
X157706691Y-148572764D01*
X157436192Y-148654818D01*
X157186899Y-148788068D01*
X156968392Y-148967392D01*
X156789068Y-149185899D01*
X156655818Y-149435192D01*
X156573764Y-149705691D01*
X156546057Y-149987000D01*
X148682999Y-149987000D01*
X148682999Y-146901000D01*
X152104928Y-146901000D01*
X152104928Y-148501000D01*
X152117188Y-148625482D01*
X152153498Y-148745180D01*
X152212463Y-148855494D01*
X152291815Y-148952185D01*
X152388506Y-149031537D01*
X152498820Y-149090502D01*
X152618518Y-149126812D01*
X152743000Y-149139072D01*
X154343000Y-149139072D01*
X154467482Y-149126812D01*
X154587180Y-149090502D01*
X154697494Y-149031537D01*
X154794185Y-148952185D01*
X154873537Y-148855494D01*
X154932502Y-148745180D01*
X154968812Y-148625482D01*
X154981072Y-148501000D01*
X154981072Y-148355326D01*
X155017276Y-148335974D01*
X155133001Y-148241001D01*
X155156804Y-148211997D01*
X155437099Y-147931702D01*
X157174903Y-147931702D01*
X157246486Y-148175671D01*
X157501996Y-148296571D01*
X157776184Y-148365300D01*
X158058512Y-148379217D01*
X158338130Y-148337787D01*
X158604292Y-148242603D01*
X158729514Y-148175671D01*
X158801097Y-147931702D01*
X157988000Y-147118605D01*
X157174903Y-147931702D01*
X155437099Y-147931702D01*
X156557556Y-146811245D01*
X156547783Y-147009512D01*
X156589213Y-147289130D01*
X156684397Y-147555292D01*
X156751329Y-147680514D01*
X156995298Y-147752097D01*
X157808395Y-146939000D01*
X158167605Y-146939000D01*
X158980702Y-147752097D01*
X159224671Y-147680514D01*
X159345571Y-147425004D01*
X159414300Y-147150816D01*
X159428217Y-146868488D01*
X159386787Y-146588870D01*
X159291603Y-146322708D01*
X159224671Y-146197486D01*
X158980702Y-146125903D01*
X158167605Y-146939000D01*
X157808395Y-146939000D01*
X157794253Y-146924858D01*
X157973858Y-146745253D01*
X157988000Y-146759395D01*
X158801097Y-145946298D01*
X158729514Y-145702329D01*
X158474004Y-145581429D01*
X158199816Y-145512700D01*
X157917488Y-145498783D01*
X157861762Y-145507040D01*
X158499004Y-144869798D01*
X158528001Y-144846001D01*
X158580176Y-144782426D01*
X158622974Y-144730277D01*
X158693546Y-144598247D01*
X158716895Y-144521273D01*
X158737003Y-144454986D01*
X158748000Y-144343333D01*
X158748000Y-144343324D01*
X158751676Y-144306001D01*
X158748000Y-144268678D01*
X158748000Y-143079901D01*
X158789101Y-143057932D01*
X159007608Y-142878608D01*
X159186932Y-142660101D01*
X159320182Y-142410808D01*
X159402236Y-142140309D01*
X159429943Y-141859000D01*
X159402236Y-141577691D01*
X159320182Y-141307192D01*
X159186932Y-141057899D01*
X159007608Y-140839392D01*
X158789101Y-140660068D01*
X158539808Y-140526818D01*
X158269309Y-140444764D01*
X158058492Y-140424000D01*
X157917508Y-140424000D01*
X157706691Y-140444764D01*
X157436192Y-140526818D01*
X157186899Y-140660068D01*
X156968392Y-140839392D01*
X156789068Y-141057899D01*
X156655818Y-141307192D01*
X156573764Y-141577691D01*
X156546057Y-141859000D01*
X156573764Y-142140309D01*
X156655818Y-142410808D01*
X156789068Y-142660101D01*
X156968392Y-142878608D01*
X157186899Y-143057932D01*
X157228001Y-143079901D01*
X157228000Y-143991198D01*
X154780563Y-146438636D01*
X154697494Y-146370463D01*
X154587180Y-146311498D01*
X154491057Y-146282339D01*
X154657637Y-146115759D01*
X154814680Y-145880727D01*
X154922853Y-145619574D01*
X154978000Y-145342335D01*
X154978000Y-145059665D01*
X154922853Y-144782426D01*
X154814680Y-144521273D01*
X154657637Y-144286241D01*
X154457759Y-144086363D01*
X154222727Y-143929320D01*
X153961574Y-143821147D01*
X153684335Y-143766000D01*
X153401665Y-143766000D01*
X153124426Y-143821147D01*
X152863273Y-143929320D01*
X152628241Y-144086363D01*
X152428363Y-144286241D01*
X152271320Y-144521273D01*
X152163147Y-144782426D01*
X152108000Y-145059665D01*
X152108000Y-145342335D01*
X152163147Y-145619574D01*
X152271320Y-145880727D01*
X152428363Y-146115759D01*
X152594943Y-146282339D01*
X152498820Y-146311498D01*
X152388506Y-146370463D01*
X152291815Y-146449815D01*
X152212463Y-146546506D01*
X152153498Y-146656820D01*
X152117188Y-146776518D01*
X152104928Y-146901000D01*
X148682999Y-146901000D01*
X148682999Y-145115172D01*
X149101002Y-144697170D01*
X149130001Y-144673371D01*
X149224974Y-144557646D01*
X149295546Y-144425617D01*
X149339003Y-144282356D01*
X149344573Y-144225802D01*
X149391101Y-144200932D01*
X149609608Y-144021608D01*
X149788932Y-143803101D01*
X149922182Y-143553808D01*
X150004236Y-143283309D01*
X150031943Y-143002000D01*
X150004236Y-142720691D01*
X149990708Y-142676093D01*
X150225998Y-142440803D01*
X150255002Y-142417000D01*
X150349975Y-142301275D01*
X150420547Y-142169246D01*
X150464004Y-142025985D01*
X150475001Y-141914332D01*
X150475001Y-141914323D01*
X150478677Y-141877000D01*
X150475001Y-141839677D01*
X150475001Y-140048382D01*
X150582899Y-140136932D01*
X150832192Y-140270182D01*
X151102691Y-140352236D01*
X151313508Y-140373000D01*
X151454492Y-140373000D01*
X151665309Y-140352236D01*
X151935808Y-140270182D01*
X152185101Y-140136932D01*
X152403608Y-139957608D01*
X152582932Y-139739101D01*
X152716182Y-139489808D01*
X152798236Y-139219309D01*
X152825943Y-138938000D01*
X152798236Y-138656691D01*
X152716182Y-138386192D01*
X152582932Y-138136899D01*
X152403608Y-137918392D01*
X152185101Y-137739068D01*
X151935808Y-137605818D01*
X151665309Y-137523764D01*
X151454492Y-137503000D01*
X151313508Y-137503000D01*
X151102691Y-137523764D01*
X150832192Y-137605818D01*
X150582899Y-137739068D01*
X150475001Y-137827618D01*
X150475001Y-134757037D01*
X150520061Y-134766000D01*
X150723939Y-134766000D01*
X150923898Y-134726226D01*
X151112256Y-134648205D01*
X151281774Y-134534937D01*
X151325711Y-134491000D01*
X151727000Y-134491000D01*
X151727000Y-134761335D01*
X151782147Y-135038574D01*
X151890320Y-135299727D01*
X152047363Y-135534759D01*
X152247241Y-135734637D01*
X152482273Y-135891680D01*
X152743426Y-135999853D01*
X153020665Y-136055000D01*
X153303335Y-136055000D01*
X153580574Y-135999853D01*
X153841727Y-135891680D01*
X154076759Y-135734637D01*
X154276637Y-135534759D01*
X154433680Y-135299727D01*
X154541853Y-135038574D01*
X154597000Y-134761335D01*
X154597000Y-134478665D01*
X154541853Y-134201426D01*
X154433680Y-133940273D01*
X154276637Y-133705241D01*
X154076759Y-133505363D01*
X153841727Y-133348320D01*
X153580574Y-133240147D01*
X153303335Y-133185000D01*
X153020665Y-133185000D01*
X152838113Y-133221312D01*
X152836803Y-133220002D01*
X152813001Y-133190999D01*
X152697276Y-133096026D01*
X152565247Y-133025454D01*
X152421986Y-132981997D01*
X152310333Y-132971000D01*
X152310322Y-132971000D01*
X152273000Y-132967324D01*
X152235678Y-132971000D01*
X151325711Y-132971000D01*
X151281774Y-132927063D01*
X151112256Y-132813795D01*
X150923898Y-132735774D01*
X150723939Y-132696000D01*
X150520061Y-132696000D01*
X150475001Y-132704963D01*
X150475001Y-130253800D01*
X154770598Y-125958204D01*
X154768057Y-125984000D01*
X154795764Y-126265309D01*
X154877818Y-126535808D01*
X155011068Y-126785101D01*
X155190392Y-127003608D01*
X155408899Y-127182932D01*
X155541858Y-127254000D01*
X155408899Y-127325068D01*
X155190392Y-127504392D01*
X155011068Y-127722899D01*
X154877818Y-127972192D01*
X154795764Y-128242691D01*
X154768057Y-128524000D01*
X154795764Y-128805309D01*
X154877818Y-129075808D01*
X155011068Y-129325101D01*
X155190392Y-129543608D01*
X155303482Y-129636419D01*
X155285518Y-129638188D01*
X155165820Y-129674498D01*
X155055506Y-129733463D01*
X154958815Y-129812815D01*
X154879463Y-129909506D01*
X154820498Y-130019820D01*
X154784188Y-130139518D01*
X154771928Y-130264000D01*
X154771928Y-131864000D01*
X154784188Y-131988482D01*
X154820498Y-132108180D01*
X154879463Y-132218494D01*
X154958815Y-132315185D01*
X155055506Y-132394537D01*
X155165820Y-132453502D01*
X155285518Y-132489812D01*
X155410000Y-132502072D01*
X157010000Y-132502072D01*
X157134482Y-132489812D01*
X157254180Y-132453502D01*
X157364494Y-132394537D01*
X157461185Y-132315185D01*
X157540537Y-132218494D01*
X157599502Y-132108180D01*
X157635812Y-131988482D01*
X157648072Y-131864000D01*
X157648072Y-130264000D01*
X157635812Y-130139518D01*
X157599502Y-130019820D01*
X157540537Y-129909506D01*
X157461185Y-129812815D01*
X157364494Y-129733463D01*
X157254180Y-129674498D01*
X157134482Y-129638188D01*
X157116518Y-129636419D01*
X157229608Y-129543608D01*
X157408932Y-129325101D01*
X157542182Y-129075808D01*
X157624236Y-128805309D01*
X157651943Y-128524000D01*
X157624236Y-128242691D01*
X157542182Y-127972192D01*
X157408932Y-127722899D01*
X157229608Y-127504392D01*
X157011101Y-127325068D01*
X156878142Y-127254000D01*
X157011101Y-127182932D01*
X157229608Y-127003608D01*
X157408932Y-126785101D01*
X157542182Y-126535808D01*
X157624236Y-126265309D01*
X157651943Y-125984000D01*
X157624236Y-125702691D01*
X157542182Y-125432192D01*
X157408932Y-125182899D01*
X157229608Y-124964392D01*
X157011101Y-124785068D01*
X156878142Y-124714000D01*
X157011101Y-124642932D01*
X157229608Y-124463608D01*
X157408932Y-124245101D01*
X157542182Y-123995808D01*
X157624236Y-123725309D01*
X157651943Y-123444000D01*
X157648003Y-123404001D01*
X158218454Y-123404001D01*
X158204000Y-123476665D01*
G36*
X148355748Y-134605858D02*
G01*
X148341605Y-134620000D01*
X148355748Y-134634143D01*
X148176143Y-134813748D01*
X148162000Y-134799605D01*
X148147858Y-134813748D01*
X147968253Y-134634143D01*
X147982395Y-134620000D01*
X147968253Y-134605858D01*
X148147858Y-134426253D01*
X148162000Y-134440395D01*
X148176143Y-134426253D01*
X148355748Y-134605858D01*
X148355748Y-134605858D01*
G37*
X148355748Y-134605858D02*
X148341605Y-134620000D01*
X148355748Y-134634143D01*
X148176143Y-134813748D01*
X148162000Y-134799605D01*
X148147858Y-134813748D01*
X147968253Y-134634143D01*
X147982395Y-134620000D01*
X147968253Y-134605858D01*
X148147858Y-134426253D01*
X148162000Y-134440395D01*
X148176143Y-134426253D01*
X148355748Y-134605858D01*
G36*
X148717000Y-130937000D02*
G01*
X148737000Y-130937000D01*
X148737000Y-131191000D01*
X148717000Y-131191000D01*
X148717000Y-132334624D01*
X148939040Y-132455909D01*
X148955001Y-132450193D01*
X148955001Y-133558808D01*
X148903514Y-133383329D01*
X148648004Y-133262429D01*
X148373816Y-133193700D01*
X148091488Y-133179783D01*
X147811870Y-133221213D01*
X147545708Y-133316397D01*
X147420486Y-133383329D01*
X147395000Y-133470190D01*
X147395000Y-131850037D01*
X147526481Y-132027414D01*
X147734869Y-132216385D01*
X147976119Y-132361070D01*
X148240960Y-132455909D01*
X148463000Y-132334624D01*
X148463000Y-131191000D01*
X148443000Y-131191000D01*
X148443000Y-130937000D01*
X148463000Y-130937000D01*
X148463000Y-130917000D01*
X148717000Y-130917000D01*
X148717000Y-130937000D01*
X148717000Y-130937000D01*
G37*
X148717000Y-130937000D02*
X148737000Y-130937000D01*
X148737000Y-131191000D01*
X148717000Y-131191000D01*
X148717000Y-132334624D01*
X148939040Y-132455909D01*
X148955001Y-132450193D01*
X148955001Y-133558808D01*
X148903514Y-133383329D01*
X148648004Y-133262429D01*
X148373816Y-133193700D01*
X148091488Y-133179783D01*
X147811870Y-133221213D01*
X147545708Y-133316397D01*
X147420486Y-133383329D01*
X147395000Y-133470190D01*
X147395000Y-131850037D01*
X147526481Y-132027414D01*
X147734869Y-132216385D01*
X147976119Y-132361070D01*
X148240960Y-132455909D01*
X148463000Y-132334624D01*
X148463000Y-131191000D01*
X148443000Y-131191000D01*
X148443000Y-130937000D01*
X148463000Y-130937000D01*
X148463000Y-130917000D01*
X148717000Y-130917000D01*
X148717000Y-130937000D01*
M02*
