G04 #@! TF.GenerationSoftware,KiCad,Pcbnew,(5.1.0)-1*
G04 #@! TF.CreationDate,2019-04-05T00:52:50-04:00*
G04 #@! TF.ProjectId,noize,6e6f697a-652e-46b6-9963-61645f706362,rev?*
G04 #@! TF.SameCoordinates,Original*
G04 #@! TF.FileFunction,Soldermask,Bot*
G04 #@! TF.FilePolarity,Negative*
%FSLAX46Y46*%
G04 Gerber Fmt 4.6, Leading zero omitted, Abs format (unit mm)*
G04 Created by KiCad (PCBNEW (5.1.0)-1) date 2019-04-05 00:52:50*
%MOMM*%
%LPD*%
G04 APERTURE LIST*
%ADD10C,0.100000*%
G04 APERTURE END LIST*
D10*
G36*
X154177655Y-191414591D02*
G01*
X154249525Y-191428887D01*
X154452624Y-191513013D01*
X154635409Y-191635146D01*
X154790854Y-191790591D01*
X154912987Y-191973376D01*
X154997113Y-192176475D01*
X155040000Y-192392084D01*
X155040000Y-192611916D01*
X154997113Y-192827525D01*
X154912987Y-193030624D01*
X154790854Y-193213409D01*
X154635409Y-193368854D01*
X154452624Y-193490987D01*
X154249525Y-193575113D01*
X154177655Y-193589409D01*
X154033918Y-193618000D01*
X153814082Y-193618000D01*
X153670345Y-193589409D01*
X153598475Y-193575113D01*
X153395376Y-193490987D01*
X153212591Y-193368854D01*
X153057146Y-193213409D01*
X152935013Y-193030624D01*
X152850887Y-192827525D01*
X152808000Y-192611916D01*
X152808000Y-192392084D01*
X152850887Y-192176475D01*
X152935013Y-191973376D01*
X153057146Y-191790591D01*
X153212591Y-191635146D01*
X153395376Y-191513013D01*
X153598475Y-191428887D01*
X153670345Y-191414591D01*
X153814082Y-191386000D01*
X154033918Y-191386000D01*
X154177655Y-191414591D01*
X154177655Y-191414591D01*
G37*
G36*
X154177655Y-183114591D02*
G01*
X154249525Y-183128887D01*
X154452624Y-183213013D01*
X154635409Y-183335146D01*
X154790854Y-183490591D01*
X154912987Y-183673376D01*
X154997113Y-183876475D01*
X155040000Y-184092084D01*
X155040000Y-184311916D01*
X154997113Y-184527525D01*
X154912987Y-184730624D01*
X154790854Y-184913409D01*
X154635409Y-185068854D01*
X154452624Y-185190987D01*
X154249525Y-185275113D01*
X154177655Y-185289409D01*
X154033918Y-185318000D01*
X153814082Y-185318000D01*
X153670345Y-185289409D01*
X153598475Y-185275113D01*
X153395376Y-185190987D01*
X153212591Y-185068854D01*
X153057146Y-184913409D01*
X152935013Y-184730624D01*
X152850887Y-184527525D01*
X152808000Y-184311916D01*
X152808000Y-184092084D01*
X152850887Y-183876475D01*
X152935013Y-183673376D01*
X153057146Y-183490591D01*
X153212591Y-183335146D01*
X153395376Y-183213013D01*
X153598475Y-183128887D01*
X153670345Y-183114591D01*
X153814082Y-183086000D01*
X154033918Y-183086000D01*
X154177655Y-183114591D01*
X154177655Y-183114591D01*
G37*
G36*
X154940000Y-182068000D02*
G01*
X152908000Y-182068000D01*
X152908000Y-180136000D01*
X154940000Y-180136000D01*
X154940000Y-182068000D01*
X154940000Y-182068000D01*
G37*
G36*
X154940000Y-178512000D02*
G01*
X152908000Y-178512000D01*
X152908000Y-176580000D01*
X154940000Y-176580000D01*
X154940000Y-178512000D01*
X154940000Y-178512000D01*
G37*
G36*
X154177655Y-173358591D02*
G01*
X154249525Y-173372887D01*
X154452624Y-173457013D01*
X154635409Y-173579146D01*
X154790854Y-173734591D01*
X154912987Y-173917376D01*
X154997113Y-174120475D01*
X155040000Y-174336084D01*
X155040000Y-174555916D01*
X154997113Y-174771525D01*
X154912987Y-174974624D01*
X154790854Y-175157409D01*
X154635409Y-175312854D01*
X154452624Y-175434987D01*
X154249525Y-175519113D01*
X154177655Y-175533409D01*
X154033918Y-175562000D01*
X153814082Y-175562000D01*
X153670345Y-175533409D01*
X153598475Y-175519113D01*
X153395376Y-175434987D01*
X153212591Y-175312854D01*
X153057146Y-175157409D01*
X152935013Y-174974624D01*
X152850887Y-174771525D01*
X152808000Y-174555916D01*
X152808000Y-174336084D01*
X152850887Y-174120475D01*
X152935013Y-173917376D01*
X153057146Y-173734591D01*
X153212591Y-173579146D01*
X153395376Y-173457013D01*
X153598475Y-173372887D01*
X153670345Y-173358591D01*
X153814082Y-173330000D01*
X154033918Y-173330000D01*
X154177655Y-173358591D01*
X154177655Y-173358591D01*
G37*
G36*
X154177655Y-165058591D02*
G01*
X154249525Y-165072887D01*
X154452624Y-165157013D01*
X154635409Y-165279146D01*
X154790854Y-165434591D01*
X154912987Y-165617376D01*
X154997113Y-165820475D01*
X155040000Y-166036084D01*
X155040000Y-166255916D01*
X154997113Y-166471525D01*
X154912987Y-166674624D01*
X154790854Y-166857409D01*
X154635409Y-167012854D01*
X154452624Y-167134987D01*
X154249525Y-167219113D01*
X154177655Y-167233409D01*
X154033918Y-167262000D01*
X153814082Y-167262000D01*
X153670345Y-167233409D01*
X153598475Y-167219113D01*
X153395376Y-167134987D01*
X153212591Y-167012854D01*
X153057146Y-166857409D01*
X152935013Y-166674624D01*
X152850887Y-166471525D01*
X152808000Y-166255916D01*
X152808000Y-166036084D01*
X152850887Y-165820475D01*
X152935013Y-165617376D01*
X153057146Y-165434591D01*
X153212591Y-165279146D01*
X153395376Y-165157013D01*
X153598475Y-165072887D01*
X153670345Y-165058591D01*
X153814082Y-165030000D01*
X154033918Y-165030000D01*
X154177655Y-165058591D01*
X154177655Y-165058591D01*
G37*
G36*
X149208442Y-161030518D02*
G01*
X149274627Y-161037037D01*
X149444466Y-161088557D01*
X149600991Y-161172222D01*
X149636729Y-161201552D01*
X149738186Y-161284814D01*
X149821448Y-161386271D01*
X149850778Y-161422009D01*
X149934443Y-161578534D01*
X149985963Y-161748373D01*
X150003359Y-161925000D01*
X149985963Y-162101627D01*
X149934443Y-162271466D01*
X149850778Y-162427991D01*
X149821448Y-162463729D01*
X149738186Y-162565186D01*
X149636729Y-162648448D01*
X149600991Y-162677778D01*
X149444466Y-162761443D01*
X149274627Y-162812963D01*
X149208442Y-162819482D01*
X149142260Y-162826000D01*
X149053740Y-162826000D01*
X148987558Y-162819482D01*
X148921373Y-162812963D01*
X148751534Y-162761443D01*
X148595009Y-162677778D01*
X148559271Y-162648448D01*
X148457814Y-162565186D01*
X148374552Y-162463729D01*
X148345222Y-162427991D01*
X148261557Y-162271466D01*
X148210037Y-162101627D01*
X148192641Y-161925000D01*
X148210037Y-161748373D01*
X148261557Y-161578534D01*
X148345222Y-161422009D01*
X148374552Y-161386271D01*
X148457814Y-161284814D01*
X148559271Y-161201552D01*
X148595009Y-161172222D01*
X148751534Y-161088557D01*
X148921373Y-161037037D01*
X148987558Y-161030518D01*
X149053740Y-161024000D01*
X149142260Y-161024000D01*
X149208442Y-161030518D01*
X149208442Y-161030518D01*
G37*
G36*
X151748442Y-161030518D02*
G01*
X151814627Y-161037037D01*
X151984466Y-161088557D01*
X152140991Y-161172222D01*
X152176729Y-161201552D01*
X152278186Y-161284814D01*
X152361448Y-161386271D01*
X152390778Y-161422009D01*
X152474443Y-161578534D01*
X152525963Y-161748373D01*
X152543359Y-161925000D01*
X152525963Y-162101627D01*
X152474443Y-162271466D01*
X152390778Y-162427991D01*
X152361448Y-162463729D01*
X152278186Y-162565186D01*
X152176729Y-162648448D01*
X152140991Y-162677778D01*
X151984466Y-162761443D01*
X151814627Y-162812963D01*
X151748442Y-162819482D01*
X151682260Y-162826000D01*
X151593740Y-162826000D01*
X151527558Y-162819482D01*
X151461373Y-162812963D01*
X151291534Y-162761443D01*
X151135009Y-162677778D01*
X151099271Y-162648448D01*
X150997814Y-162565186D01*
X150914552Y-162463729D01*
X150885222Y-162427991D01*
X150801557Y-162271466D01*
X150750037Y-162101627D01*
X150732641Y-161925000D01*
X150750037Y-161748373D01*
X150801557Y-161578534D01*
X150885222Y-161422009D01*
X150914552Y-161386271D01*
X150997814Y-161284814D01*
X151099271Y-161201552D01*
X151135009Y-161172222D01*
X151291534Y-161088557D01*
X151461373Y-161037037D01*
X151527558Y-161030518D01*
X151593740Y-161024000D01*
X151682260Y-161024000D01*
X151748442Y-161030518D01*
X151748442Y-161030518D01*
G37*
G36*
X149208442Y-158490518D02*
G01*
X149274627Y-158497037D01*
X149444466Y-158548557D01*
X149600991Y-158632222D01*
X149636729Y-158661552D01*
X149738186Y-158744814D01*
X149821448Y-158846271D01*
X149850778Y-158882009D01*
X149934443Y-159038534D01*
X149985963Y-159208373D01*
X150003359Y-159385000D01*
X149985963Y-159561627D01*
X149934443Y-159731466D01*
X149850778Y-159887991D01*
X149821448Y-159923729D01*
X149738186Y-160025186D01*
X149636729Y-160108448D01*
X149600991Y-160137778D01*
X149444466Y-160221443D01*
X149274627Y-160272963D01*
X149208443Y-160279481D01*
X149142260Y-160286000D01*
X149053740Y-160286000D01*
X148987557Y-160279481D01*
X148921373Y-160272963D01*
X148751534Y-160221443D01*
X148595009Y-160137778D01*
X148559271Y-160108448D01*
X148457814Y-160025186D01*
X148374552Y-159923729D01*
X148345222Y-159887991D01*
X148261557Y-159731466D01*
X148210037Y-159561627D01*
X148192641Y-159385000D01*
X148210037Y-159208373D01*
X148261557Y-159038534D01*
X148345222Y-158882009D01*
X148374552Y-158846271D01*
X148457814Y-158744814D01*
X148559271Y-158661552D01*
X148595009Y-158632222D01*
X148751534Y-158548557D01*
X148921373Y-158497037D01*
X148987558Y-158490518D01*
X149053740Y-158484000D01*
X149142260Y-158484000D01*
X149208442Y-158490518D01*
X149208442Y-158490518D01*
G37*
G36*
X151748442Y-158490518D02*
G01*
X151814627Y-158497037D01*
X151984466Y-158548557D01*
X152140991Y-158632222D01*
X152176729Y-158661552D01*
X152278186Y-158744814D01*
X152361448Y-158846271D01*
X152390778Y-158882009D01*
X152474443Y-159038534D01*
X152525963Y-159208373D01*
X152543359Y-159385000D01*
X152525963Y-159561627D01*
X152474443Y-159731466D01*
X152390778Y-159887991D01*
X152361448Y-159923729D01*
X152278186Y-160025186D01*
X152176729Y-160108448D01*
X152140991Y-160137778D01*
X151984466Y-160221443D01*
X151814627Y-160272963D01*
X151748443Y-160279481D01*
X151682260Y-160286000D01*
X151593740Y-160286000D01*
X151527557Y-160279481D01*
X151461373Y-160272963D01*
X151291534Y-160221443D01*
X151135009Y-160137778D01*
X151099271Y-160108448D01*
X150997814Y-160025186D01*
X150914552Y-159923729D01*
X150885222Y-159887991D01*
X150801557Y-159731466D01*
X150750037Y-159561627D01*
X150732641Y-159385000D01*
X150750037Y-159208373D01*
X150801557Y-159038534D01*
X150885222Y-158882009D01*
X150914552Y-158846271D01*
X150997814Y-158744814D01*
X151099271Y-158661552D01*
X151135009Y-158632222D01*
X151291534Y-158548557D01*
X151461373Y-158497037D01*
X151527558Y-158490518D01*
X151593740Y-158484000D01*
X151682260Y-158484000D01*
X151748442Y-158490518D01*
X151748442Y-158490518D01*
G37*
G36*
X149208442Y-155950518D02*
G01*
X149274627Y-155957037D01*
X149444466Y-156008557D01*
X149600991Y-156092222D01*
X149636729Y-156121552D01*
X149738186Y-156204814D01*
X149821448Y-156306271D01*
X149850778Y-156342009D01*
X149934443Y-156498534D01*
X149985963Y-156668373D01*
X150003359Y-156845000D01*
X149985963Y-157021627D01*
X149934443Y-157191466D01*
X149850778Y-157347991D01*
X149821448Y-157383729D01*
X149738186Y-157485186D01*
X149636729Y-157568448D01*
X149600991Y-157597778D01*
X149444466Y-157681443D01*
X149274627Y-157732963D01*
X149208442Y-157739482D01*
X149142260Y-157746000D01*
X149053740Y-157746000D01*
X148987558Y-157739482D01*
X148921373Y-157732963D01*
X148751534Y-157681443D01*
X148595009Y-157597778D01*
X148559271Y-157568448D01*
X148457814Y-157485186D01*
X148374552Y-157383729D01*
X148345222Y-157347991D01*
X148261557Y-157191466D01*
X148210037Y-157021627D01*
X148192641Y-156845000D01*
X148210037Y-156668373D01*
X148261557Y-156498534D01*
X148345222Y-156342009D01*
X148374552Y-156306271D01*
X148457814Y-156204814D01*
X148559271Y-156121552D01*
X148595009Y-156092222D01*
X148751534Y-156008557D01*
X148921373Y-155957037D01*
X148987558Y-155950518D01*
X149053740Y-155944000D01*
X149142260Y-155944000D01*
X149208442Y-155950518D01*
X149208442Y-155950518D01*
G37*
G36*
X151748442Y-155950518D02*
G01*
X151814627Y-155957037D01*
X151984466Y-156008557D01*
X152140991Y-156092222D01*
X152176729Y-156121552D01*
X152278186Y-156204814D01*
X152361448Y-156306271D01*
X152390778Y-156342009D01*
X152474443Y-156498534D01*
X152525963Y-156668373D01*
X152543359Y-156845000D01*
X152525963Y-157021627D01*
X152474443Y-157191466D01*
X152390778Y-157347991D01*
X152361448Y-157383729D01*
X152278186Y-157485186D01*
X152176729Y-157568448D01*
X152140991Y-157597778D01*
X151984466Y-157681443D01*
X151814627Y-157732963D01*
X151748442Y-157739482D01*
X151682260Y-157746000D01*
X151593740Y-157746000D01*
X151527558Y-157739482D01*
X151461373Y-157732963D01*
X151291534Y-157681443D01*
X151135009Y-157597778D01*
X151099271Y-157568448D01*
X150997814Y-157485186D01*
X150914552Y-157383729D01*
X150885222Y-157347991D01*
X150801557Y-157191466D01*
X150750037Y-157021627D01*
X150732641Y-156845000D01*
X150750037Y-156668373D01*
X150801557Y-156498534D01*
X150885222Y-156342009D01*
X150914552Y-156306271D01*
X150997814Y-156204814D01*
X151099271Y-156121552D01*
X151135009Y-156092222D01*
X151291534Y-156008557D01*
X151461373Y-155957037D01*
X151527558Y-155950518D01*
X151593740Y-155944000D01*
X151682260Y-155944000D01*
X151748442Y-155950518D01*
X151748442Y-155950518D01*
G37*
G36*
X158236228Y-154248703D02*
G01*
X158391100Y-154312853D01*
X158530481Y-154405985D01*
X158649015Y-154524519D01*
X158742147Y-154663900D01*
X158806297Y-154818772D01*
X158839000Y-154983184D01*
X158839000Y-155150816D01*
X158806297Y-155315228D01*
X158742147Y-155470100D01*
X158649015Y-155609481D01*
X158530481Y-155728015D01*
X158391100Y-155821147D01*
X158236228Y-155885297D01*
X158071816Y-155918000D01*
X157904184Y-155918000D01*
X157739772Y-155885297D01*
X157584900Y-155821147D01*
X157445519Y-155728015D01*
X157326985Y-155609481D01*
X157233853Y-155470100D01*
X157169703Y-155315228D01*
X157137000Y-155150816D01*
X157137000Y-154983184D01*
X157169703Y-154818772D01*
X157233853Y-154663900D01*
X157326985Y-154524519D01*
X157445519Y-154405985D01*
X157584900Y-154312853D01*
X157739772Y-154248703D01*
X157904184Y-154216000D01*
X158071816Y-154216000D01*
X158236228Y-154248703D01*
X158236228Y-154248703D01*
G37*
G36*
X151748442Y-153410518D02*
G01*
X151814627Y-153417037D01*
X151984466Y-153468557D01*
X152140991Y-153552222D01*
X152176729Y-153581552D01*
X152278186Y-153664814D01*
X152361448Y-153766271D01*
X152390778Y-153802009D01*
X152474443Y-153958534D01*
X152525963Y-154128373D01*
X152543359Y-154305000D01*
X152525963Y-154481627D01*
X152474443Y-154651466D01*
X152390778Y-154807991D01*
X152381931Y-154818771D01*
X152278186Y-154945186D01*
X152176729Y-155028448D01*
X152140991Y-155057778D01*
X151984466Y-155141443D01*
X151814627Y-155192963D01*
X151748442Y-155199482D01*
X151682260Y-155206000D01*
X151593740Y-155206000D01*
X151527558Y-155199482D01*
X151461373Y-155192963D01*
X151291534Y-155141443D01*
X151135009Y-155057778D01*
X151099271Y-155028448D01*
X150997814Y-154945186D01*
X150894069Y-154818771D01*
X150885222Y-154807991D01*
X150801557Y-154651466D01*
X150750037Y-154481627D01*
X150732641Y-154305000D01*
X150750037Y-154128373D01*
X150801557Y-153958534D01*
X150885222Y-153802009D01*
X150914552Y-153766271D01*
X150997814Y-153664814D01*
X151099271Y-153581552D01*
X151135009Y-153552222D01*
X151291534Y-153468557D01*
X151461373Y-153417037D01*
X151527558Y-153410518D01*
X151593740Y-153404000D01*
X151682260Y-153404000D01*
X151748442Y-153410518D01*
X151748442Y-153410518D01*
G37*
G36*
X149208442Y-153410518D02*
G01*
X149274627Y-153417037D01*
X149444466Y-153468557D01*
X149600991Y-153552222D01*
X149636729Y-153581552D01*
X149738186Y-153664814D01*
X149821448Y-153766271D01*
X149850778Y-153802009D01*
X149934443Y-153958534D01*
X149985963Y-154128373D01*
X150003359Y-154305000D01*
X149985963Y-154481627D01*
X149934443Y-154651466D01*
X149850778Y-154807991D01*
X149841931Y-154818771D01*
X149738186Y-154945186D01*
X149636729Y-155028448D01*
X149600991Y-155057778D01*
X149444466Y-155141443D01*
X149274627Y-155192963D01*
X149208442Y-155199482D01*
X149142260Y-155206000D01*
X149053740Y-155206000D01*
X148987558Y-155199482D01*
X148921373Y-155192963D01*
X148751534Y-155141443D01*
X148595009Y-155057778D01*
X148559271Y-155028448D01*
X148457814Y-154945186D01*
X148354069Y-154818771D01*
X148345222Y-154807991D01*
X148261557Y-154651466D01*
X148210037Y-154481627D01*
X148192641Y-154305000D01*
X148210037Y-154128373D01*
X148261557Y-153958534D01*
X148345222Y-153802009D01*
X148374552Y-153766271D01*
X148457814Y-153664814D01*
X148559271Y-153581552D01*
X148595009Y-153552222D01*
X148751534Y-153468557D01*
X148921373Y-153417037D01*
X148987558Y-153410518D01*
X149053740Y-153404000D01*
X149142260Y-153404000D01*
X149208442Y-153410518D01*
X149208442Y-153410518D01*
G37*
G36*
X149999000Y-152666000D02*
G01*
X148197000Y-152666000D01*
X148197000Y-150864000D01*
X149999000Y-150864000D01*
X149999000Y-152666000D01*
X149999000Y-152666000D01*
G37*
G36*
X151748443Y-150870519D02*
G01*
X151814627Y-150877037D01*
X151984466Y-150928557D01*
X152140991Y-151012222D01*
X152176729Y-151041552D01*
X152278186Y-151124814D01*
X152361448Y-151226271D01*
X152390778Y-151262009D01*
X152474443Y-151418534D01*
X152525963Y-151588373D01*
X152543359Y-151765000D01*
X152525963Y-151941627D01*
X152474443Y-152111466D01*
X152390778Y-152267991D01*
X152361448Y-152303729D01*
X152278186Y-152405186D01*
X152176729Y-152488448D01*
X152140991Y-152517778D01*
X151984466Y-152601443D01*
X151814627Y-152652963D01*
X151748442Y-152659482D01*
X151682260Y-152666000D01*
X151593740Y-152666000D01*
X151527558Y-152659482D01*
X151461373Y-152652963D01*
X151291534Y-152601443D01*
X151135009Y-152517778D01*
X151099271Y-152488448D01*
X150997814Y-152405186D01*
X150914552Y-152303729D01*
X150885222Y-152267991D01*
X150801557Y-152111466D01*
X150750037Y-151941627D01*
X150732641Y-151765000D01*
X150750037Y-151588373D01*
X150801557Y-151418534D01*
X150885222Y-151262009D01*
X150914552Y-151226271D01*
X150997814Y-151124814D01*
X151099271Y-151041552D01*
X151135009Y-151012222D01*
X151291534Y-150928557D01*
X151461373Y-150877037D01*
X151527557Y-150870519D01*
X151593740Y-150864000D01*
X151682260Y-150864000D01*
X151748443Y-150870519D01*
X151748443Y-150870519D01*
G37*
G36*
X158154823Y-149148313D02*
G01*
X158315242Y-149196976D01*
X158447906Y-149267886D01*
X158463078Y-149275996D01*
X158592659Y-149382341D01*
X158699004Y-149511922D01*
X158699005Y-149511924D01*
X158778024Y-149659758D01*
X158826687Y-149820177D01*
X158843117Y-149987000D01*
X158826687Y-150153823D01*
X158778024Y-150314242D01*
X158707114Y-150446906D01*
X158699004Y-150462078D01*
X158592659Y-150591659D01*
X158463078Y-150698004D01*
X158463076Y-150698005D01*
X158315242Y-150777024D01*
X158154823Y-150825687D01*
X158029804Y-150838000D01*
X157946196Y-150838000D01*
X157821177Y-150825687D01*
X157660758Y-150777024D01*
X157512924Y-150698005D01*
X157512922Y-150698004D01*
X157383341Y-150591659D01*
X157276996Y-150462078D01*
X157268886Y-150446906D01*
X157197976Y-150314242D01*
X157149313Y-150153823D01*
X157132883Y-149987000D01*
X157149313Y-149820177D01*
X157197976Y-149659758D01*
X157276995Y-149511924D01*
X157276996Y-149511922D01*
X157383341Y-149382341D01*
X157512922Y-149275996D01*
X157528094Y-149267886D01*
X157660758Y-149196976D01*
X157821177Y-149148313D01*
X157946196Y-149136000D01*
X158029804Y-149136000D01*
X158154823Y-149148313D01*
X158154823Y-149148313D01*
G37*
G36*
X154394000Y-148552000D02*
G01*
X152692000Y-148552000D01*
X152692000Y-146850000D01*
X154394000Y-146850000D01*
X154394000Y-148552000D01*
X154394000Y-148552000D01*
G37*
G36*
X158236228Y-146120703D02*
G01*
X158391100Y-146184853D01*
X158530481Y-146277985D01*
X158649015Y-146396519D01*
X158742147Y-146535900D01*
X158806297Y-146690772D01*
X158839000Y-146855184D01*
X158839000Y-147022816D01*
X158806297Y-147187228D01*
X158742147Y-147342100D01*
X158649015Y-147481481D01*
X158530481Y-147600015D01*
X158391100Y-147693147D01*
X158236228Y-147757297D01*
X158071816Y-147790000D01*
X157904184Y-147790000D01*
X157739772Y-147757297D01*
X157584900Y-147693147D01*
X157445519Y-147600015D01*
X157326985Y-147481481D01*
X157233853Y-147342100D01*
X157169703Y-147187228D01*
X157137000Y-147022816D01*
X157137000Y-146855184D01*
X157169703Y-146690772D01*
X157233853Y-146535900D01*
X157326985Y-146396519D01*
X157445519Y-146277985D01*
X157584900Y-146184853D01*
X157739772Y-146120703D01*
X157904184Y-146088000D01*
X158071816Y-146088000D01*
X158236228Y-146120703D01*
X158236228Y-146120703D01*
G37*
G36*
X153791228Y-144382703D02*
G01*
X153946100Y-144446853D01*
X154085481Y-144539985D01*
X154204015Y-144658519D01*
X154297147Y-144797900D01*
X154361297Y-144952772D01*
X154394000Y-145117184D01*
X154394000Y-145284816D01*
X154361297Y-145449228D01*
X154297147Y-145604100D01*
X154204015Y-145743481D01*
X154085481Y-145862015D01*
X153946100Y-145955147D01*
X153791228Y-146019297D01*
X153626816Y-146052000D01*
X153459184Y-146052000D01*
X153294772Y-146019297D01*
X153139900Y-145955147D01*
X153000519Y-145862015D01*
X152881985Y-145743481D01*
X152788853Y-145604100D01*
X152724703Y-145449228D01*
X152692000Y-145284816D01*
X152692000Y-145117184D01*
X152724703Y-144952772D01*
X152788853Y-144797900D01*
X152881985Y-144658519D01*
X153000519Y-144539985D01*
X153139900Y-144446853D01*
X153294772Y-144382703D01*
X153459184Y-144350000D01*
X153626816Y-144350000D01*
X153791228Y-144382703D01*
X153791228Y-144382703D01*
G37*
G36*
X148756823Y-142163313D02*
G01*
X148917242Y-142211976D01*
X149049906Y-142282886D01*
X149065078Y-142290996D01*
X149194659Y-142397341D01*
X149301004Y-142526922D01*
X149301005Y-142526924D01*
X149380024Y-142674758D01*
X149380025Y-142674761D01*
X149389083Y-142704620D01*
X149428687Y-142835177D01*
X149445117Y-143002000D01*
X149428687Y-143168823D01*
X149380024Y-143329242D01*
X149309114Y-143461906D01*
X149301004Y-143477078D01*
X149194659Y-143606659D01*
X149065078Y-143713004D01*
X149065076Y-143713005D01*
X148917242Y-143792024D01*
X148756823Y-143840687D01*
X148631804Y-143853000D01*
X148548196Y-143853000D01*
X148423177Y-143840687D01*
X148262758Y-143792024D01*
X148114924Y-143713005D01*
X148114922Y-143713004D01*
X147985341Y-143606659D01*
X147878996Y-143477078D01*
X147870886Y-143461906D01*
X147799976Y-143329242D01*
X147751313Y-143168823D01*
X147734883Y-143002000D01*
X147751313Y-142835177D01*
X147790917Y-142704620D01*
X147799975Y-142674761D01*
X147799976Y-142674758D01*
X147878995Y-142526924D01*
X147878996Y-142526922D01*
X147985341Y-142397341D01*
X148114922Y-142290996D01*
X148130094Y-142282886D01*
X148262758Y-142211976D01*
X148423177Y-142163313D01*
X148548196Y-142151000D01*
X148631804Y-142151000D01*
X148756823Y-142163313D01*
X148756823Y-142163313D01*
G37*
G36*
X158154823Y-141020313D02*
G01*
X158315242Y-141068976D01*
X158447906Y-141139886D01*
X158463078Y-141147996D01*
X158592659Y-141254341D01*
X158699004Y-141383922D01*
X158699005Y-141383924D01*
X158778024Y-141531758D01*
X158826687Y-141692177D01*
X158843117Y-141859000D01*
X158826687Y-142025823D01*
X158826686Y-142025825D01*
X158784980Y-142163313D01*
X158778024Y-142186242D01*
X158722032Y-142290995D01*
X158699004Y-142334078D01*
X158592659Y-142463659D01*
X158463078Y-142570004D01*
X158463076Y-142570005D01*
X158315242Y-142649024D01*
X158154823Y-142697687D01*
X158029804Y-142710000D01*
X157946196Y-142710000D01*
X157821177Y-142697687D01*
X157660758Y-142649024D01*
X157512924Y-142570005D01*
X157512922Y-142570004D01*
X157383341Y-142463659D01*
X157276996Y-142334078D01*
X157253968Y-142290995D01*
X157197976Y-142186242D01*
X157191021Y-142163313D01*
X157149314Y-142025825D01*
X157149313Y-142025823D01*
X157132883Y-141859000D01*
X157149313Y-141692177D01*
X157197976Y-141531758D01*
X157276995Y-141383924D01*
X157276996Y-141383922D01*
X157383341Y-141254341D01*
X157512922Y-141147996D01*
X157528094Y-141139886D01*
X157660758Y-141068976D01*
X157821177Y-141020313D01*
X157946196Y-141008000D01*
X158029804Y-141008000D01*
X158154823Y-141020313D01*
X158154823Y-141020313D01*
G37*
G36*
X159805823Y-138607313D02*
G01*
X159966242Y-138655976D01*
X160098906Y-138726886D01*
X160114078Y-138734996D01*
X160243659Y-138841341D01*
X160350004Y-138970922D01*
X160350005Y-138970924D01*
X160429024Y-139118758D01*
X160477687Y-139279177D01*
X160494117Y-139446000D01*
X160477687Y-139612823D01*
X160429024Y-139773242D01*
X160420601Y-139789000D01*
X160350004Y-139921078D01*
X160243659Y-140050659D01*
X160114078Y-140157004D01*
X160114076Y-140157005D01*
X159966242Y-140236024D01*
X159805823Y-140284687D01*
X159680804Y-140297000D01*
X159597196Y-140297000D01*
X159472177Y-140284687D01*
X159311758Y-140236024D01*
X159163924Y-140157005D01*
X159163922Y-140157004D01*
X159034341Y-140050659D01*
X158927996Y-139921078D01*
X158857399Y-139789000D01*
X158848976Y-139773242D01*
X158800313Y-139612823D01*
X158783883Y-139446000D01*
X158800313Y-139279177D01*
X158848976Y-139118758D01*
X158927995Y-138970924D01*
X158927996Y-138970922D01*
X159034341Y-138841341D01*
X159163922Y-138734996D01*
X159179094Y-138726886D01*
X159311758Y-138655976D01*
X159472177Y-138607313D01*
X159597196Y-138595000D01*
X159680804Y-138595000D01*
X159805823Y-138607313D01*
X159805823Y-138607313D01*
G37*
G36*
X156712228Y-138119703D02*
G01*
X156867100Y-138183853D01*
X157006481Y-138276985D01*
X157125015Y-138395519D01*
X157218147Y-138534900D01*
X157282297Y-138689772D01*
X157315000Y-138854184D01*
X157315000Y-139021816D01*
X157282297Y-139186228D01*
X157218147Y-139341100D01*
X157125015Y-139480481D01*
X157006481Y-139599015D01*
X156867100Y-139692147D01*
X156712228Y-139756297D01*
X156547816Y-139789000D01*
X156380184Y-139789000D01*
X156215772Y-139756297D01*
X156060900Y-139692147D01*
X155921519Y-139599015D01*
X155802985Y-139480481D01*
X155709853Y-139341100D01*
X155645703Y-139186228D01*
X155613000Y-139021816D01*
X155613000Y-138854184D01*
X155645703Y-138689772D01*
X155709853Y-138534900D01*
X155802985Y-138395519D01*
X155921519Y-138276985D01*
X156060900Y-138183853D01*
X156215772Y-138119703D01*
X156380184Y-138087000D01*
X156547816Y-138087000D01*
X156712228Y-138119703D01*
X156712228Y-138119703D01*
G37*
G36*
X151550823Y-138099313D02*
G01*
X151711242Y-138147976D01*
X151752874Y-138170229D01*
X151859078Y-138226996D01*
X151988659Y-138333341D01*
X152095004Y-138462922D01*
X152095005Y-138462924D01*
X152174024Y-138610758D01*
X152222687Y-138771177D01*
X152239117Y-138938000D01*
X152222687Y-139104823D01*
X152174024Y-139265242D01*
X152133477Y-139341100D01*
X152095004Y-139413078D01*
X151988659Y-139542659D01*
X151859078Y-139649004D01*
X151859076Y-139649005D01*
X151711242Y-139728024D01*
X151550823Y-139776687D01*
X151425804Y-139789000D01*
X151342196Y-139789000D01*
X151217177Y-139776687D01*
X151056758Y-139728024D01*
X150908924Y-139649005D01*
X150908922Y-139649004D01*
X150779341Y-139542659D01*
X150672996Y-139413078D01*
X150634523Y-139341100D01*
X150593976Y-139265242D01*
X150545313Y-139104823D01*
X150528883Y-138938000D01*
X150545313Y-138771177D01*
X150593976Y-138610758D01*
X150672995Y-138462924D01*
X150672996Y-138462922D01*
X150779341Y-138333341D01*
X150908922Y-138226996D01*
X151015126Y-138170229D01*
X151056758Y-138147976D01*
X151217177Y-138099313D01*
X151342196Y-138087000D01*
X151425804Y-138087000D01*
X151550823Y-138099313D01*
X151550823Y-138099313D01*
G37*
G36*
X148838228Y-137103703D02*
G01*
X148993100Y-137167853D01*
X149132481Y-137260985D01*
X149251015Y-137379519D01*
X149344147Y-137518900D01*
X149408297Y-137673772D01*
X149441000Y-137838184D01*
X149441000Y-138005816D01*
X149408297Y-138170228D01*
X149344147Y-138325100D01*
X149251015Y-138464481D01*
X149132481Y-138583015D01*
X148993100Y-138676147D01*
X148838228Y-138740297D01*
X148673816Y-138773000D01*
X148506184Y-138773000D01*
X148341772Y-138740297D01*
X148186900Y-138676147D01*
X148047519Y-138583015D01*
X147928985Y-138464481D01*
X147835853Y-138325100D01*
X147771703Y-138170228D01*
X147739000Y-138005816D01*
X147739000Y-137838184D01*
X147771703Y-137673772D01*
X147835853Y-137518900D01*
X147928985Y-137379519D01*
X148047519Y-137260985D01*
X148186900Y-137167853D01*
X148341772Y-137103703D01*
X148506184Y-137071000D01*
X148673816Y-137071000D01*
X148838228Y-137103703D01*
X148838228Y-137103703D01*
G37*
G36*
X153410228Y-133801703D02*
G01*
X153565100Y-133865853D01*
X153704481Y-133958985D01*
X153823015Y-134077519D01*
X153916147Y-134216900D01*
X153980297Y-134371772D01*
X154013000Y-134536184D01*
X154013000Y-134703816D01*
X153980297Y-134868228D01*
X153916147Y-135023100D01*
X153823015Y-135162481D01*
X153704481Y-135281015D01*
X153565100Y-135374147D01*
X153410228Y-135438297D01*
X153245816Y-135471000D01*
X153078184Y-135471000D01*
X152913772Y-135438297D01*
X152758900Y-135374147D01*
X152619519Y-135281015D01*
X152500985Y-135162481D01*
X152407853Y-135023100D01*
X152343703Y-134868228D01*
X152311000Y-134703816D01*
X152311000Y-134536184D01*
X152343703Y-134371772D01*
X152407853Y-134216900D01*
X152500985Y-134077519D01*
X152619519Y-133958985D01*
X152758900Y-133865853D01*
X152913772Y-133801703D01*
X153078184Y-133769000D01*
X153245816Y-133769000D01*
X153410228Y-133801703D01*
X153410228Y-133801703D01*
G37*
G36*
X148410228Y-133801703D02*
G01*
X148565100Y-133865853D01*
X148704481Y-133958985D01*
X148823015Y-134077519D01*
X148916147Y-134216900D01*
X148980297Y-134371772D01*
X149013000Y-134536184D01*
X149013000Y-134703816D01*
X148980297Y-134868228D01*
X148916147Y-135023100D01*
X148823015Y-135162481D01*
X148704481Y-135281015D01*
X148565100Y-135374147D01*
X148410228Y-135438297D01*
X148245816Y-135471000D01*
X148078184Y-135471000D01*
X147913772Y-135438297D01*
X147758900Y-135374147D01*
X147619519Y-135281015D01*
X147500985Y-135162481D01*
X147407853Y-135023100D01*
X147343703Y-134868228D01*
X147311000Y-134703816D01*
X147311000Y-134536184D01*
X147343703Y-134371772D01*
X147407853Y-134216900D01*
X147500985Y-134077519D01*
X147619519Y-133958985D01*
X147758900Y-133865853D01*
X147913772Y-133801703D01*
X148078184Y-133769000D01*
X148245816Y-133769000D01*
X148410228Y-133801703D01*
X148410228Y-133801703D01*
G37*
G36*
X159887228Y-133547703D02*
G01*
X160042100Y-133611853D01*
X160181481Y-133704985D01*
X160300015Y-133823519D01*
X160393147Y-133962900D01*
X160457297Y-134117772D01*
X160490000Y-134282184D01*
X160490000Y-134449816D01*
X160457297Y-134614228D01*
X160393147Y-134769100D01*
X160300015Y-134908481D01*
X160181481Y-135027015D01*
X160042100Y-135120147D01*
X159887228Y-135184297D01*
X159722816Y-135217000D01*
X159555184Y-135217000D01*
X159390772Y-135184297D01*
X159235900Y-135120147D01*
X159096519Y-135027015D01*
X158977985Y-134908481D01*
X158884853Y-134769100D01*
X158820703Y-134614228D01*
X158788000Y-134449816D01*
X158788000Y-134282184D01*
X158820703Y-134117772D01*
X158884853Y-133962900D01*
X158977985Y-133823519D01*
X159096519Y-133704985D01*
X159235900Y-133611853D01*
X159390772Y-133547703D01*
X159555184Y-133515000D01*
X159722816Y-133515000D01*
X159887228Y-133547703D01*
X159887228Y-133547703D01*
G37*
G36*
X148756823Y-130225313D02*
G01*
X148917242Y-130273976D01*
X148984361Y-130309852D01*
X149065078Y-130352996D01*
X149194659Y-130459341D01*
X149301004Y-130588922D01*
X149301005Y-130588924D01*
X149380024Y-130736758D01*
X149428687Y-130897177D01*
X149445117Y-131064000D01*
X149428687Y-131230823D01*
X149380024Y-131391242D01*
X149339477Y-131467100D01*
X149301004Y-131539078D01*
X149194659Y-131668659D01*
X149065078Y-131775004D01*
X149065076Y-131775005D01*
X148917242Y-131854024D01*
X148756823Y-131902687D01*
X148631804Y-131915000D01*
X148548196Y-131915000D01*
X148423177Y-131902687D01*
X148262758Y-131854024D01*
X148114924Y-131775005D01*
X148114922Y-131775004D01*
X147985341Y-131668659D01*
X147878996Y-131539078D01*
X147840523Y-131467100D01*
X147799976Y-131391242D01*
X147751313Y-131230823D01*
X147734883Y-131064000D01*
X147751313Y-130897177D01*
X147799976Y-130736758D01*
X147878995Y-130588924D01*
X147878996Y-130588922D01*
X147985341Y-130459341D01*
X148114922Y-130352996D01*
X148195639Y-130309852D01*
X148262758Y-130273976D01*
X148423177Y-130225313D01*
X148548196Y-130213000D01*
X148631804Y-130213000D01*
X148756823Y-130225313D01*
X148756823Y-130225313D01*
G37*
G36*
X159887228Y-130245703D02*
G01*
X160042100Y-130309853D01*
X160181481Y-130402985D01*
X160300015Y-130521519D01*
X160393147Y-130660900D01*
X160457297Y-130815772D01*
X160490000Y-130980184D01*
X160490000Y-131147816D01*
X160457297Y-131312228D01*
X160393147Y-131467100D01*
X160300015Y-131606481D01*
X160181481Y-131725015D01*
X160042100Y-131818147D01*
X159887228Y-131882297D01*
X159722816Y-131915000D01*
X159555184Y-131915000D01*
X159390772Y-131882297D01*
X159235900Y-131818147D01*
X159096519Y-131725015D01*
X158977985Y-131606481D01*
X158884853Y-131467100D01*
X158820703Y-131312228D01*
X158788000Y-131147816D01*
X158788000Y-130980184D01*
X158820703Y-130815772D01*
X158884853Y-130660900D01*
X158977985Y-130521519D01*
X159096519Y-130402985D01*
X159235900Y-130309853D01*
X159390772Y-130245703D01*
X159555184Y-130213000D01*
X159722816Y-130213000D01*
X159887228Y-130245703D01*
X159887228Y-130245703D01*
G37*
G36*
X157061000Y-131915000D02*
G01*
X155359000Y-131915000D01*
X155359000Y-130213000D01*
X157061000Y-130213000D01*
X157061000Y-131915000D01*
X157061000Y-131915000D01*
G37*
G36*
X148756823Y-127685313D02*
G01*
X148917242Y-127733976D01*
X149049906Y-127804886D01*
X149065078Y-127812996D01*
X149194659Y-127919341D01*
X149301004Y-128048922D01*
X149301005Y-128048924D01*
X149380024Y-128196758D01*
X149428687Y-128357177D01*
X149445117Y-128524000D01*
X149428687Y-128690823D01*
X149380024Y-128851242D01*
X149309114Y-128983906D01*
X149301004Y-128999078D01*
X149194659Y-129128659D01*
X149065078Y-129235004D01*
X149065076Y-129235005D01*
X148917242Y-129314024D01*
X148756823Y-129362687D01*
X148631804Y-129375000D01*
X148548196Y-129375000D01*
X148423177Y-129362687D01*
X148262758Y-129314024D01*
X148114924Y-129235005D01*
X148114922Y-129235004D01*
X147985341Y-129128659D01*
X147878996Y-128999078D01*
X147870886Y-128983906D01*
X147799976Y-128851242D01*
X147751313Y-128690823D01*
X147734883Y-128524000D01*
X147751313Y-128357177D01*
X147799976Y-128196758D01*
X147878995Y-128048924D01*
X147878996Y-128048922D01*
X147985341Y-127919341D01*
X148114922Y-127812996D01*
X148130094Y-127804886D01*
X148262758Y-127733976D01*
X148423177Y-127685313D01*
X148548196Y-127673000D01*
X148631804Y-127673000D01*
X148756823Y-127685313D01*
X148756823Y-127685313D01*
G37*
G36*
X156376823Y-127685313D02*
G01*
X156537242Y-127733976D01*
X156669906Y-127804886D01*
X156685078Y-127812996D01*
X156814659Y-127919341D01*
X156921004Y-128048922D01*
X156921005Y-128048924D01*
X157000024Y-128196758D01*
X157048687Y-128357177D01*
X157065117Y-128524000D01*
X157048687Y-128690823D01*
X157000024Y-128851242D01*
X156929114Y-128983906D01*
X156921004Y-128999078D01*
X156814659Y-129128659D01*
X156685078Y-129235004D01*
X156685076Y-129235005D01*
X156537242Y-129314024D01*
X156376823Y-129362687D01*
X156251804Y-129375000D01*
X156168196Y-129375000D01*
X156043177Y-129362687D01*
X155882758Y-129314024D01*
X155734924Y-129235005D01*
X155734922Y-129235004D01*
X155605341Y-129128659D01*
X155498996Y-128999078D01*
X155490886Y-128983906D01*
X155419976Y-128851242D01*
X155371313Y-128690823D01*
X155354883Y-128524000D01*
X155371313Y-128357177D01*
X155419976Y-128196758D01*
X155498995Y-128048924D01*
X155498996Y-128048922D01*
X155605341Y-127919341D01*
X155734922Y-127812996D01*
X155750094Y-127804886D01*
X155882758Y-127733976D01*
X156043177Y-127685313D01*
X156168196Y-127673000D01*
X156251804Y-127673000D01*
X156376823Y-127685313D01*
X156376823Y-127685313D01*
G37*
G36*
X156376823Y-125145313D02*
G01*
X156537242Y-125193976D01*
X156669906Y-125264886D01*
X156685078Y-125272996D01*
X156814659Y-125379341D01*
X156921004Y-125508922D01*
X156921005Y-125508924D01*
X157000024Y-125656758D01*
X157048687Y-125817177D01*
X157065117Y-125984000D01*
X157048687Y-126150823D01*
X157000024Y-126311242D01*
X156929114Y-126443906D01*
X156921004Y-126459078D01*
X156814659Y-126588659D01*
X156685078Y-126695004D01*
X156685076Y-126695005D01*
X156537242Y-126774024D01*
X156376823Y-126822687D01*
X156251804Y-126835000D01*
X156168196Y-126835000D01*
X156043177Y-126822687D01*
X155882758Y-126774024D01*
X155734924Y-126695005D01*
X155734922Y-126695004D01*
X155605341Y-126588659D01*
X155498996Y-126459078D01*
X155490886Y-126443906D01*
X155419976Y-126311242D01*
X155371313Y-126150823D01*
X155354883Y-125984000D01*
X155371313Y-125817177D01*
X155419976Y-125656758D01*
X155498995Y-125508924D01*
X155498996Y-125508922D01*
X155605341Y-125379341D01*
X155734922Y-125272996D01*
X155750094Y-125264886D01*
X155882758Y-125193976D01*
X156043177Y-125145313D01*
X156168196Y-125133000D01*
X156251804Y-125133000D01*
X156376823Y-125145313D01*
X156376823Y-125145313D01*
G37*
G36*
X148756823Y-125145313D02*
G01*
X148917242Y-125193976D01*
X149049906Y-125264886D01*
X149065078Y-125272996D01*
X149194659Y-125379341D01*
X149301004Y-125508922D01*
X149301005Y-125508924D01*
X149380024Y-125656758D01*
X149428687Y-125817177D01*
X149445117Y-125984000D01*
X149428687Y-126150823D01*
X149380024Y-126311242D01*
X149309114Y-126443906D01*
X149301004Y-126459078D01*
X149194659Y-126588659D01*
X149065078Y-126695004D01*
X149065076Y-126695005D01*
X148917242Y-126774024D01*
X148756823Y-126822687D01*
X148631804Y-126835000D01*
X148548196Y-126835000D01*
X148423177Y-126822687D01*
X148262758Y-126774024D01*
X148114924Y-126695005D01*
X148114922Y-126695004D01*
X147985341Y-126588659D01*
X147878996Y-126459078D01*
X147870886Y-126443906D01*
X147799976Y-126311242D01*
X147751313Y-126150823D01*
X147734883Y-125984000D01*
X147751313Y-125817177D01*
X147799976Y-125656758D01*
X147878995Y-125508924D01*
X147878996Y-125508922D01*
X147985341Y-125379341D01*
X148114922Y-125272996D01*
X148130094Y-125264886D01*
X148262758Y-125193976D01*
X148423177Y-125145313D01*
X148548196Y-125133000D01*
X148631804Y-125133000D01*
X148756823Y-125145313D01*
X148756823Y-125145313D01*
G37*
G36*
X159805823Y-125145313D02*
G01*
X159966242Y-125193976D01*
X160098906Y-125264886D01*
X160114078Y-125272996D01*
X160243659Y-125379341D01*
X160350004Y-125508922D01*
X160350005Y-125508924D01*
X160429024Y-125656758D01*
X160477687Y-125817177D01*
X160494117Y-125984000D01*
X160477687Y-126150823D01*
X160429024Y-126311242D01*
X160358114Y-126443906D01*
X160350004Y-126459078D01*
X160243659Y-126588659D01*
X160114078Y-126695004D01*
X160114076Y-126695005D01*
X159966242Y-126774024D01*
X159805823Y-126822687D01*
X159680804Y-126835000D01*
X159597196Y-126835000D01*
X159472177Y-126822687D01*
X159311758Y-126774024D01*
X159163924Y-126695005D01*
X159163922Y-126695004D01*
X159034341Y-126588659D01*
X158927996Y-126459078D01*
X158919886Y-126443906D01*
X158848976Y-126311242D01*
X158800313Y-126150823D01*
X158783883Y-125984000D01*
X158800313Y-125817177D01*
X158848976Y-125656758D01*
X158927995Y-125508924D01*
X158927996Y-125508922D01*
X159034341Y-125379341D01*
X159163922Y-125272996D01*
X159179094Y-125264886D01*
X159311758Y-125193976D01*
X159472177Y-125145313D01*
X159597196Y-125133000D01*
X159680804Y-125133000D01*
X159805823Y-125145313D01*
X159805823Y-125145313D01*
G37*
G36*
X159887228Y-122799703D02*
G01*
X160042100Y-122863853D01*
X160181481Y-122956985D01*
X160300015Y-123075519D01*
X160393147Y-123214900D01*
X160457297Y-123369772D01*
X160490000Y-123534184D01*
X160490000Y-123701816D01*
X160457297Y-123866228D01*
X160393147Y-124021100D01*
X160300015Y-124160481D01*
X160181481Y-124279015D01*
X160042100Y-124372147D01*
X159887228Y-124436297D01*
X159722816Y-124469000D01*
X159555184Y-124469000D01*
X159390772Y-124436297D01*
X159235900Y-124372147D01*
X159096519Y-124279015D01*
X158977985Y-124160481D01*
X158884853Y-124021100D01*
X158820703Y-123866228D01*
X158788000Y-123701816D01*
X158788000Y-123534184D01*
X158820703Y-123369772D01*
X158884853Y-123214900D01*
X158977985Y-123075519D01*
X159096519Y-122956985D01*
X159235900Y-122863853D01*
X159390772Y-122799703D01*
X159555184Y-122767000D01*
X159722816Y-122767000D01*
X159887228Y-122799703D01*
X159887228Y-122799703D01*
G37*
G36*
X156376823Y-122605313D02*
G01*
X156537242Y-122653976D01*
X156669906Y-122724886D01*
X156685078Y-122732996D01*
X156814659Y-122839341D01*
X156921004Y-122968922D01*
X156921005Y-122968924D01*
X157000024Y-123116758D01*
X157048687Y-123277177D01*
X157065117Y-123444000D01*
X157048687Y-123610823D01*
X157000024Y-123771242D01*
X156949253Y-123866228D01*
X156921004Y-123919078D01*
X156814659Y-124048659D01*
X156685078Y-124155004D01*
X156685076Y-124155005D01*
X156537242Y-124234024D01*
X156376823Y-124282687D01*
X156251804Y-124295000D01*
X156168196Y-124295000D01*
X156043177Y-124282687D01*
X155882758Y-124234024D01*
X155734924Y-124155005D01*
X155734922Y-124155004D01*
X155605341Y-124048659D01*
X155498996Y-123919078D01*
X155470747Y-123866228D01*
X155419976Y-123771242D01*
X155371313Y-123610823D01*
X155354883Y-123444000D01*
X155371313Y-123277177D01*
X155419976Y-123116758D01*
X155498995Y-122968924D01*
X155498996Y-122968922D01*
X155605341Y-122839341D01*
X155734922Y-122732996D01*
X155750094Y-122724886D01*
X155882758Y-122653976D01*
X156043177Y-122605313D01*
X156168196Y-122593000D01*
X156251804Y-122593000D01*
X156376823Y-122605313D01*
X156376823Y-122605313D01*
G37*
G36*
X148756823Y-122605313D02*
G01*
X148917242Y-122653976D01*
X149049906Y-122724886D01*
X149065078Y-122732996D01*
X149194659Y-122839341D01*
X149301004Y-122968922D01*
X149301005Y-122968924D01*
X149380024Y-123116758D01*
X149428687Y-123277177D01*
X149445117Y-123444000D01*
X149428687Y-123610823D01*
X149380024Y-123771242D01*
X149329253Y-123866228D01*
X149301004Y-123919078D01*
X149194659Y-124048659D01*
X149065078Y-124155004D01*
X149065076Y-124155005D01*
X148917242Y-124234024D01*
X148756823Y-124282687D01*
X148631804Y-124295000D01*
X148548196Y-124295000D01*
X148423177Y-124282687D01*
X148262758Y-124234024D01*
X148114924Y-124155005D01*
X148114922Y-124155004D01*
X147985341Y-124048659D01*
X147878996Y-123919078D01*
X147850747Y-123866228D01*
X147799976Y-123771242D01*
X147751313Y-123610823D01*
X147734883Y-123444000D01*
X147751313Y-123277177D01*
X147799976Y-123116758D01*
X147878995Y-122968924D01*
X147878996Y-122968922D01*
X147985341Y-122839341D01*
X148114922Y-122732996D01*
X148130094Y-122724886D01*
X148262758Y-122653976D01*
X148423177Y-122605313D01*
X148548196Y-122593000D01*
X148631804Y-122593000D01*
X148756823Y-122605313D01*
X148756823Y-122605313D01*
G37*
G36*
X156376823Y-119557313D02*
G01*
X156537242Y-119605976D01*
X156669906Y-119676886D01*
X156685078Y-119684996D01*
X156814659Y-119791341D01*
X156921004Y-119920922D01*
X156921005Y-119920924D01*
X157000024Y-120068758D01*
X157048687Y-120229177D01*
X157065117Y-120396000D01*
X157048687Y-120562823D01*
X157000024Y-120723242D01*
X156956310Y-120805025D01*
X156921004Y-120871078D01*
X156814659Y-121000659D01*
X156685078Y-121107004D01*
X156685076Y-121107005D01*
X156537242Y-121186024D01*
X156376823Y-121234687D01*
X156251804Y-121247000D01*
X156168196Y-121247000D01*
X156043177Y-121234687D01*
X155882758Y-121186024D01*
X155734924Y-121107005D01*
X155734922Y-121107004D01*
X155605341Y-121000659D01*
X155498996Y-120871078D01*
X155463690Y-120805025D01*
X155419976Y-120723242D01*
X155371313Y-120562823D01*
X155354883Y-120396000D01*
X155371313Y-120229177D01*
X155419976Y-120068758D01*
X155498995Y-119920924D01*
X155498996Y-119920922D01*
X155605341Y-119791341D01*
X155734922Y-119684996D01*
X155750094Y-119676886D01*
X155882758Y-119605976D01*
X156043177Y-119557313D01*
X156168196Y-119545000D01*
X156251804Y-119545000D01*
X156376823Y-119557313D01*
X156376823Y-119557313D01*
G37*
G36*
X148121823Y-119176313D02*
G01*
X148282242Y-119224976D01*
X148414906Y-119295886D01*
X148430078Y-119303996D01*
X148559659Y-119410341D01*
X148666004Y-119539922D01*
X148666005Y-119539924D01*
X148745024Y-119687758D01*
X148793687Y-119848177D01*
X148810117Y-120015000D01*
X148793687Y-120181823D01*
X148745024Y-120342242D01*
X148704477Y-120418100D01*
X148666004Y-120490078D01*
X148559659Y-120619659D01*
X148430078Y-120726004D01*
X148430076Y-120726005D01*
X148282242Y-120805024D01*
X148121823Y-120853687D01*
X147996804Y-120866000D01*
X147913196Y-120866000D01*
X147788177Y-120853687D01*
X147627758Y-120805024D01*
X147479924Y-120726005D01*
X147479922Y-120726004D01*
X147350341Y-120619659D01*
X147243996Y-120490078D01*
X147205523Y-120418100D01*
X147164976Y-120342242D01*
X147116313Y-120181823D01*
X147099883Y-120015000D01*
X147116313Y-119848177D01*
X147164976Y-119687758D01*
X147243995Y-119539924D01*
X147243996Y-119539922D01*
X147350341Y-119410341D01*
X147479922Y-119303996D01*
X147495094Y-119295886D01*
X147627758Y-119224976D01*
X147788177Y-119176313D01*
X147913196Y-119164000D01*
X147996804Y-119164000D01*
X148121823Y-119176313D01*
X148121823Y-119176313D01*
G37*
G36*
X153283228Y-119196703D02*
G01*
X153438100Y-119260853D01*
X153577481Y-119353985D01*
X153696015Y-119472519D01*
X153789147Y-119611900D01*
X153853297Y-119766772D01*
X153886000Y-119931184D01*
X153886000Y-120098816D01*
X153853297Y-120263228D01*
X153789147Y-120418100D01*
X153696015Y-120557481D01*
X153577481Y-120676015D01*
X153438100Y-120769147D01*
X153283228Y-120833297D01*
X153118816Y-120866000D01*
X152951184Y-120866000D01*
X152786772Y-120833297D01*
X152631900Y-120769147D01*
X152492519Y-120676015D01*
X152373985Y-120557481D01*
X152280853Y-120418100D01*
X152216703Y-120263228D01*
X152184000Y-120098816D01*
X152184000Y-119931184D01*
X152216703Y-119766772D01*
X152280853Y-119611900D01*
X152373985Y-119472519D01*
X152492519Y-119353985D01*
X152631900Y-119260853D01*
X152786772Y-119196703D01*
X152951184Y-119164000D01*
X153118816Y-119164000D01*
X153283228Y-119196703D01*
X153283228Y-119196703D01*
G37*
G36*
X159887228Y-117799703D02*
G01*
X160042100Y-117863853D01*
X160181481Y-117956985D01*
X160300015Y-118075519D01*
X160393147Y-118214900D01*
X160457297Y-118369772D01*
X160490000Y-118534184D01*
X160490000Y-118701816D01*
X160457297Y-118866228D01*
X160393147Y-119021100D01*
X160300015Y-119160481D01*
X160181481Y-119279015D01*
X160042100Y-119372147D01*
X159887228Y-119436297D01*
X159722816Y-119469000D01*
X159555184Y-119469000D01*
X159390772Y-119436297D01*
X159235900Y-119372147D01*
X159096519Y-119279015D01*
X158977985Y-119160481D01*
X158884853Y-119021100D01*
X158820703Y-118866228D01*
X158788000Y-118701816D01*
X158788000Y-118534184D01*
X158820703Y-118369772D01*
X158884853Y-118214900D01*
X158977985Y-118075519D01*
X159096519Y-117956985D01*
X159235900Y-117863853D01*
X159390772Y-117799703D01*
X159555184Y-117767000D01*
X159722816Y-117767000D01*
X159887228Y-117799703D01*
X159887228Y-117799703D01*
G37*
G36*
X150584000Y-116294000D02*
G01*
X148882000Y-116294000D01*
X148882000Y-114592000D01*
X150584000Y-114592000D01*
X150584000Y-116294000D01*
X150584000Y-116294000D01*
G37*
G36*
X156458228Y-114497703D02*
G01*
X156613100Y-114561853D01*
X156752481Y-114654985D01*
X156871015Y-114773519D01*
X156964147Y-114912900D01*
X157028297Y-115067772D01*
X157061000Y-115232184D01*
X157061000Y-115399816D01*
X157028297Y-115564228D01*
X156964147Y-115719100D01*
X156871015Y-115858481D01*
X156752481Y-115977015D01*
X156613100Y-116070147D01*
X156458228Y-116134297D01*
X156293816Y-116167000D01*
X156126184Y-116167000D01*
X155961772Y-116134297D01*
X155806900Y-116070147D01*
X155667519Y-115977015D01*
X155548985Y-115858481D01*
X155455853Y-115719100D01*
X155391703Y-115564228D01*
X155359000Y-115399816D01*
X155359000Y-115232184D01*
X155391703Y-115067772D01*
X155455853Y-114912900D01*
X155548985Y-114773519D01*
X155667519Y-114654985D01*
X155806900Y-114561853D01*
X155961772Y-114497703D01*
X156126184Y-114465000D01*
X156293816Y-114465000D01*
X156458228Y-114497703D01*
X156458228Y-114497703D01*
G37*
G36*
X149981228Y-112124703D02*
G01*
X150136100Y-112188853D01*
X150275481Y-112281985D01*
X150394015Y-112400519D01*
X150487147Y-112539900D01*
X150551297Y-112694772D01*
X150584000Y-112859184D01*
X150584000Y-113026816D01*
X150551297Y-113191228D01*
X150487147Y-113346100D01*
X150394015Y-113485481D01*
X150275481Y-113604015D01*
X150136100Y-113697147D01*
X149981228Y-113761297D01*
X149816816Y-113794000D01*
X149649184Y-113794000D01*
X149484772Y-113761297D01*
X149329900Y-113697147D01*
X149190519Y-113604015D01*
X149071985Y-113485481D01*
X148978853Y-113346100D01*
X148914703Y-113191228D01*
X148882000Y-113026816D01*
X148882000Y-112859184D01*
X148914703Y-112694772D01*
X148978853Y-112539900D01*
X149071985Y-112400519D01*
X149190519Y-112281985D01*
X149329900Y-112188853D01*
X149484772Y-112124703D01*
X149649184Y-112092000D01*
X149816816Y-112092000D01*
X149981228Y-112124703D01*
X149981228Y-112124703D01*
G37*
G36*
X159633228Y-110941703D02*
G01*
X159788100Y-111005853D01*
X159927481Y-111098985D01*
X160046015Y-111217519D01*
X160139147Y-111356900D01*
X160203297Y-111511772D01*
X160236000Y-111676184D01*
X160236000Y-111843816D01*
X160203297Y-112008228D01*
X160139147Y-112163100D01*
X160046015Y-112302481D01*
X159927481Y-112421015D01*
X159788100Y-112514147D01*
X159633228Y-112578297D01*
X159468816Y-112611000D01*
X159301184Y-112611000D01*
X159136772Y-112578297D01*
X158981900Y-112514147D01*
X158842519Y-112421015D01*
X158723985Y-112302481D01*
X158630853Y-112163100D01*
X158566703Y-112008228D01*
X158534000Y-111843816D01*
X158534000Y-111676184D01*
X158566703Y-111511772D01*
X158630853Y-111356900D01*
X158723985Y-111217519D01*
X158842519Y-111098985D01*
X158981900Y-111005853D01*
X159136772Y-110941703D01*
X159301184Y-110909000D01*
X159468816Y-110909000D01*
X159633228Y-110941703D01*
X159633228Y-110941703D01*
G37*
G36*
X155410000Y-109309000D02*
G01*
X153708000Y-109309000D01*
X153708000Y-107607000D01*
X155410000Y-107607000D01*
X155410000Y-109309000D01*
X155410000Y-109309000D01*
G37*
G36*
X151211228Y-107512703D02*
G01*
X151366100Y-107576853D01*
X151505481Y-107669985D01*
X151624015Y-107788519D01*
X151717147Y-107927900D01*
X151781297Y-108082772D01*
X151814000Y-108247184D01*
X151814000Y-108414816D01*
X151781297Y-108579228D01*
X151717147Y-108734100D01*
X151624015Y-108873481D01*
X151505481Y-108992015D01*
X151366100Y-109085147D01*
X151211228Y-109149297D01*
X151046816Y-109182000D01*
X150879184Y-109182000D01*
X150714772Y-109149297D01*
X150559900Y-109085147D01*
X150420519Y-108992015D01*
X150301985Y-108873481D01*
X150208853Y-108734100D01*
X150144703Y-108579228D01*
X150112000Y-108414816D01*
X150112000Y-108247184D01*
X150144703Y-108082772D01*
X150208853Y-107927900D01*
X150301985Y-107788519D01*
X150420519Y-107669985D01*
X150559900Y-107576853D01*
X150714772Y-107512703D01*
X150879184Y-107480000D01*
X151046816Y-107480000D01*
X151211228Y-107512703D01*
X151211228Y-107512703D01*
G37*
G36*
X149314000Y-109182000D02*
G01*
X147612000Y-109182000D01*
X147612000Y-107480000D01*
X149314000Y-107480000D01*
X149314000Y-109182000D01*
X149314000Y-109182000D01*
G37*
G36*
X159551823Y-105841313D02*
G01*
X159712242Y-105889976D01*
X159844906Y-105960886D01*
X159860078Y-105968996D01*
X159989659Y-106075341D01*
X160096004Y-106204922D01*
X160096005Y-106204924D01*
X160175024Y-106352758D01*
X160223687Y-106513177D01*
X160240117Y-106680000D01*
X160223687Y-106846823D01*
X160175024Y-107007242D01*
X160104114Y-107139906D01*
X160096004Y-107155078D01*
X159989659Y-107284659D01*
X159860078Y-107391004D01*
X159860076Y-107391005D01*
X159712242Y-107470024D01*
X159551823Y-107518687D01*
X159426804Y-107531000D01*
X159343196Y-107531000D01*
X159218177Y-107518687D01*
X159057758Y-107470024D01*
X158909924Y-107391005D01*
X158909922Y-107391004D01*
X158780341Y-107284659D01*
X158673996Y-107155078D01*
X158665886Y-107139906D01*
X158594976Y-107007242D01*
X158546313Y-106846823D01*
X158529883Y-106680000D01*
X158546313Y-106513177D01*
X158594976Y-106352758D01*
X158673995Y-106204924D01*
X158673996Y-106204922D01*
X158780341Y-106075341D01*
X158909922Y-105968996D01*
X158925094Y-105960886D01*
X159057758Y-105889976D01*
X159218177Y-105841313D01*
X159343196Y-105829000D01*
X159426804Y-105829000D01*
X159551823Y-105841313D01*
X159551823Y-105841313D01*
G37*
G36*
X159043000Y-101795000D02*
G01*
X158878660Y-101795000D01*
X158854274Y-101797402D01*
X158830825Y-101804515D01*
X158809214Y-101816066D01*
X158790272Y-101831611D01*
X158774727Y-101850553D01*
X158763176Y-101872164D01*
X158756063Y-101895613D01*
X158753661Y-101919999D01*
X158756063Y-101944385D01*
X158763176Y-101967834D01*
X158774727Y-101989445D01*
X158790272Y-102008387D01*
X158799345Y-102016609D01*
X158876264Y-102079736D01*
X158948244Y-102167443D01*
X158982429Y-102231399D01*
X159001728Y-102267505D01*
X159001729Y-102267508D01*
X159034666Y-102376084D01*
X159045787Y-102489000D01*
X159034666Y-102601916D01*
X159001729Y-102710492D01*
X159001728Y-102710495D01*
X158982429Y-102746601D01*
X158948244Y-102810557D01*
X158876264Y-102898264D01*
X158788557Y-102970244D01*
X158732542Y-103000184D01*
X158707141Y-103013761D01*
X158686766Y-103027375D01*
X158669439Y-103044702D01*
X158655826Y-103065076D01*
X158646448Y-103087715D01*
X158641668Y-103111748D01*
X158641668Y-103136252D01*
X158646448Y-103160285D01*
X158655826Y-103182924D01*
X158669440Y-103203299D01*
X158686767Y-103220626D01*
X158707141Y-103234239D01*
X158788557Y-103277756D01*
X158876264Y-103349736D01*
X158948244Y-103437443D01*
X158974784Y-103487097D01*
X159001728Y-103537505D01*
X159001729Y-103537508D01*
X159034666Y-103646084D01*
X159045787Y-103759000D01*
X159034666Y-103871916D01*
X159001729Y-103980492D01*
X159001728Y-103980495D01*
X158982429Y-104016601D01*
X158948244Y-104080557D01*
X158876264Y-104168264D01*
X158788557Y-104240244D01*
X158724601Y-104274429D01*
X158688495Y-104293728D01*
X158688492Y-104293729D01*
X158579916Y-104326666D01*
X158495298Y-104335000D01*
X157988702Y-104335000D01*
X157904084Y-104326666D01*
X157795508Y-104293729D01*
X157795505Y-104293728D01*
X157759399Y-104274429D01*
X157695443Y-104240244D01*
X157607736Y-104168264D01*
X157535756Y-104080557D01*
X157501571Y-104016601D01*
X157482272Y-103980495D01*
X157482271Y-103980492D01*
X157449334Y-103871916D01*
X157438213Y-103759000D01*
X157449334Y-103646084D01*
X157482271Y-103537508D01*
X157482272Y-103537505D01*
X157509216Y-103487097D01*
X157535756Y-103437443D01*
X157607736Y-103349736D01*
X157695443Y-103277756D01*
X157776859Y-103234239D01*
X157797234Y-103220625D01*
X157814561Y-103203298D01*
X157828174Y-103182924D01*
X157837552Y-103160285D01*
X157842332Y-103136252D01*
X157842332Y-103111748D01*
X157837552Y-103087715D01*
X157828174Y-103065076D01*
X157814560Y-103044701D01*
X157797233Y-103027374D01*
X157776859Y-103013761D01*
X157751458Y-103000184D01*
X157695443Y-102970244D01*
X157607736Y-102898264D01*
X157535756Y-102810557D01*
X157501571Y-102746601D01*
X157482272Y-102710495D01*
X157482271Y-102710492D01*
X157449334Y-102601916D01*
X157438213Y-102489000D01*
X157449334Y-102376084D01*
X157482271Y-102267508D01*
X157482272Y-102267505D01*
X157501571Y-102231399D01*
X157535756Y-102167443D01*
X157607736Y-102079736D01*
X157684646Y-102016617D01*
X157701965Y-101999298D01*
X157715579Y-101978923D01*
X157724957Y-101956284D01*
X157729737Y-101932251D01*
X157729737Y-101907747D01*
X157724957Y-101883714D01*
X157715579Y-101861075D01*
X157701966Y-101840701D01*
X157684639Y-101823374D01*
X157664264Y-101809760D01*
X157641625Y-101800382D01*
X157617592Y-101795602D01*
X157605340Y-101795000D01*
X157441000Y-101795000D01*
X157441000Y-100643000D01*
X159043000Y-100643000D01*
X159043000Y-101795000D01*
X159043000Y-101795000D01*
G37*
G36*
X149981228Y-102265703D02*
G01*
X150136100Y-102329853D01*
X150275481Y-102422985D01*
X150394015Y-102541519D01*
X150487147Y-102680900D01*
X150551297Y-102835772D01*
X150584000Y-103000184D01*
X150584000Y-103167816D01*
X150551297Y-103332228D01*
X150487147Y-103487100D01*
X150394015Y-103626481D01*
X150275481Y-103745015D01*
X150136100Y-103838147D01*
X149981228Y-103902297D01*
X149816816Y-103935000D01*
X149649184Y-103935000D01*
X149484772Y-103902297D01*
X149329900Y-103838147D01*
X149190519Y-103745015D01*
X149071985Y-103626481D01*
X148978853Y-103487100D01*
X148914703Y-103332228D01*
X148882000Y-103167816D01*
X148882000Y-103000184D01*
X148914703Y-102835772D01*
X148978853Y-102680900D01*
X149071985Y-102541519D01*
X149190519Y-102422985D01*
X149329900Y-102329853D01*
X149484772Y-102265703D01*
X149649184Y-102233000D01*
X149816816Y-102233000D01*
X149981228Y-102265703D01*
X149981228Y-102265703D01*
G37*
G36*
X154725823Y-99999313D02*
G01*
X154886242Y-100047976D01*
X155018906Y-100118886D01*
X155034078Y-100126996D01*
X155163659Y-100233341D01*
X155270004Y-100362922D01*
X155270005Y-100362924D01*
X155349024Y-100510758D01*
X155397687Y-100671177D01*
X155414117Y-100838000D01*
X155397687Y-101004823D01*
X155349024Y-101165242D01*
X155278114Y-101297906D01*
X155270004Y-101313078D01*
X155163659Y-101442659D01*
X155034078Y-101549004D01*
X155034076Y-101549005D01*
X154886242Y-101628024D01*
X154725823Y-101676687D01*
X154600804Y-101689000D01*
X154517196Y-101689000D01*
X154392177Y-101676687D01*
X154231758Y-101628024D01*
X154083924Y-101549005D01*
X154083922Y-101549004D01*
X153954341Y-101442659D01*
X153847996Y-101313078D01*
X153839886Y-101297906D01*
X153768976Y-101165242D01*
X153720313Y-101004823D01*
X153703883Y-100838000D01*
X153720313Y-100671177D01*
X153768976Y-100510758D01*
X153847995Y-100362924D01*
X153847996Y-100362922D01*
X153954341Y-100233341D01*
X154083922Y-100126996D01*
X154099094Y-100118886D01*
X154231758Y-100047976D01*
X154392177Y-99999313D01*
X154517196Y-99987000D01*
X154600804Y-99987000D01*
X154725823Y-99999313D01*
X154725823Y-99999313D01*
G37*
G36*
X150584000Y-101435000D02*
G01*
X148882000Y-101435000D01*
X148882000Y-99733000D01*
X150584000Y-99733000D01*
X150584000Y-101435000D01*
X150584000Y-101435000D01*
G37*
M02*
