G04 #@! TF.GenerationSoftware,KiCad,Pcbnew,(5.0.1)-rc2*
G04 #@! TF.CreationDate,2018-12-01T03:13:38-05:00*
G04 #@! TF.ProjectId,vco4069,76636F343036392E6B696361645F7063,rev?*
G04 #@! TF.SameCoordinates,Original*
G04 #@! TF.FileFunction,Legend,Top*
G04 #@! TF.FilePolarity,Positive*
%FSLAX46Y46*%
G04 Gerber Fmt 4.6, Leading zero omitted, Abs format (unit mm)*
G04 Created by KiCad (PCBNEW (5.0.1)-rc2) date 12/1/2018 3:13:38 AM*
%MOMM*%
%LPD*%
G01*
G04 APERTURE LIST*
%ADD10C,0.300000*%
%ADD11C,0.200000*%
%ADD12C,0.120000*%
%ADD13C,0.150000*%
G04 APERTURE END LIST*
D10*
X170434142Y-146824000D02*
X170291285Y-146752571D01*
X170077000Y-146752571D01*
X169862714Y-146824000D01*
X169719857Y-146966857D01*
X169648428Y-147109714D01*
X169577000Y-147395428D01*
X169577000Y-147609714D01*
X169648428Y-147895428D01*
X169719857Y-148038285D01*
X169862714Y-148181142D01*
X170077000Y-148252571D01*
X170219857Y-148252571D01*
X170434142Y-148181142D01*
X170505571Y-148109714D01*
X170505571Y-147609714D01*
X170219857Y-147609714D01*
X171148428Y-148252571D02*
X171148428Y-146752571D01*
X172005571Y-148252571D01*
X172005571Y-146752571D01*
X172719857Y-148252571D02*
X172719857Y-146752571D01*
X173077000Y-146752571D01*
X173291285Y-146824000D01*
X173434142Y-146966857D01*
X173505571Y-147109714D01*
X173577000Y-147395428D01*
X173577000Y-147609714D01*
X173505571Y-147895428D01*
X173434142Y-148038285D01*
X173291285Y-148181142D01*
X173077000Y-148252571D01*
X172719857Y-148252571D01*
D11*
X169164000Y-148903765D02*
G75*
G02X168148000Y-147887765I-1J1015999D01*
G01*
X167132000Y-146871765D02*
G75*
G02X168148000Y-147887765I1J-1015999D01*
G01*
X165608000Y-146812000D02*
X166116000Y-146812000D01*
X165608000Y-148844000D02*
X165608000Y-146812000D01*
X165100000Y-148844000D02*
X165608000Y-148844000D01*
X165100000Y-146812000D02*
X165100000Y-148844000D01*
X164592000Y-146812000D02*
X165100000Y-146812000D01*
X163449000Y-146812000D02*
X163449000Y-148844000D01*
X161925000Y-146812000D02*
X163449000Y-146812000D01*
X161925000Y-148844000D02*
X161925000Y-146812000D01*
X160147000Y-146812000D02*
X161163000Y-148844000D01*
X159131000Y-148844000D02*
X160147000Y-146812000D01*
X158496000Y-146812000D02*
X158496000Y-148844000D01*
X156464000Y-148844000D02*
X158496000Y-146812000D01*
X153924000Y-146812000D02*
X155956000Y-148844000D01*
X153924000Y-148844000D02*
X153924000Y-146812000D01*
X128778095Y-60460000D02*
X128682857Y-60412380D01*
X128540000Y-60412380D01*
X128397142Y-60460000D01*
X128301904Y-60555238D01*
X128254285Y-60650476D01*
X128206666Y-60840952D01*
X128206666Y-60983809D01*
X128254285Y-61174285D01*
X128301904Y-61269523D01*
X128397142Y-61364761D01*
X128540000Y-61412380D01*
X128635238Y-61412380D01*
X128778095Y-61364761D01*
X128825714Y-61317142D01*
X128825714Y-60983809D01*
X128635238Y-60983809D01*
X129254285Y-61412380D02*
X129254285Y-60412380D01*
X129825714Y-61412380D01*
X129825714Y-60412380D01*
X130301904Y-61412380D02*
X130301904Y-60412380D01*
X130540000Y-60412380D01*
X130682857Y-60460000D01*
X130778095Y-60555238D01*
X130825714Y-60650476D01*
X130873333Y-60840952D01*
X130873333Y-60983809D01*
X130825714Y-61174285D01*
X130778095Y-61269523D01*
X130682857Y-61364761D01*
X130540000Y-61412380D01*
X130301904Y-61412380D01*
X124436380Y-66444761D02*
X124579238Y-66492380D01*
X124817333Y-66492380D01*
X124912571Y-66444761D01*
X124960190Y-66397142D01*
X125007809Y-66301904D01*
X125007809Y-66206666D01*
X124960190Y-66111428D01*
X124912571Y-66063809D01*
X124817333Y-66016190D01*
X124626857Y-65968571D01*
X124531619Y-65920952D01*
X124484000Y-65873333D01*
X124436380Y-65778095D01*
X124436380Y-65682857D01*
X124484000Y-65587619D01*
X124531619Y-65540000D01*
X124626857Y-65492380D01*
X124864952Y-65492380D01*
X125007809Y-65540000D01*
X125341142Y-65825714D02*
X125579238Y-66492380D01*
X125817333Y-65825714D02*
X125579238Y-66492380D01*
X125484000Y-66730476D01*
X125436380Y-66778095D01*
X125341142Y-66825714D01*
X126198285Y-65825714D02*
X126198285Y-66492380D01*
X126198285Y-65920952D02*
X126245904Y-65873333D01*
X126341142Y-65825714D01*
X126484000Y-65825714D01*
X126579238Y-65873333D01*
X126626857Y-65968571D01*
X126626857Y-66492380D01*
X127531619Y-66444761D02*
X127436380Y-66492380D01*
X127245904Y-66492380D01*
X127150666Y-66444761D01*
X127103047Y-66397142D01*
X127055428Y-66301904D01*
X127055428Y-66016190D01*
X127103047Y-65920952D01*
X127150666Y-65873333D01*
X127245904Y-65825714D01*
X127436380Y-65825714D01*
X127531619Y-65873333D01*
X122253523Y-60888571D02*
X122586857Y-60888571D01*
X122729714Y-61412380D02*
X122253523Y-61412380D01*
X122253523Y-60412380D01*
X122729714Y-60412380D01*
X123063047Y-60412380D02*
X123729714Y-61412380D01*
X123729714Y-60412380D02*
X123063047Y-61412380D01*
X124110666Y-61412380D02*
X124110666Y-60412380D01*
X124491619Y-60412380D01*
X124586857Y-60460000D01*
X124634476Y-60507619D01*
X124682095Y-60602857D01*
X124682095Y-60745714D01*
X124634476Y-60840952D01*
X124586857Y-60888571D01*
X124491619Y-60936190D01*
X124110666Y-60936190D01*
X120197619Y-61412380D02*
X119721428Y-61412380D01*
X119721428Y-60412380D01*
X120530952Y-61412380D02*
X120530952Y-60412380D01*
X121007142Y-61412380D02*
X121007142Y-60412380D01*
X121578571Y-61412380D01*
X121578571Y-60412380D01*
D10*
X121277142Y-58820857D02*
X120777142Y-58820857D01*
X120777142Y-59606571D02*
X120777142Y-58106571D01*
X121491428Y-58106571D01*
X122062857Y-59606571D02*
X122062857Y-58106571D01*
X122562857Y-59178000D01*
X123062857Y-58106571D01*
X123062857Y-59606571D01*
X113775517Y-63968127D02*
X113169425Y-64574219D01*
X113472471Y-64271173D02*
X112411811Y-63210513D01*
X112462319Y-63463051D01*
X112462319Y-63665081D01*
X112411811Y-63816604D01*
X113017902Y-62604421D02*
X114432116Y-63311528D01*
X113725009Y-61897314D01*
X114785669Y-60735639D02*
X115240238Y-63008482D01*
X115391761Y-60230563D02*
X115593791Y-60028532D01*
X115745314Y-59978024D01*
X115947345Y-59978024D01*
X116199883Y-60129547D01*
X116553436Y-60483101D01*
X116704959Y-60735639D01*
X116704959Y-60937669D01*
X116654452Y-61089192D01*
X116452421Y-61291223D01*
X116300898Y-61341730D01*
X116098868Y-61341730D01*
X115846330Y-61190208D01*
X115492776Y-60836654D01*
X115341253Y-60584116D01*
X115341253Y-60382086D01*
X115391761Y-60230563D01*
X117765619Y-59877009D02*
X117715112Y-60028532D01*
X117513081Y-60230563D01*
X117361558Y-60281070D01*
X117260543Y-60281070D01*
X117109020Y-60230563D01*
X116805975Y-59927517D01*
X116755467Y-59775994D01*
X116755467Y-59674979D01*
X116805975Y-59523456D01*
X117008005Y-59321425D01*
X117159528Y-59270918D01*
X117412066Y-58917364D02*
X117816127Y-58513303D01*
X117210036Y-58412288D02*
X118119173Y-59321425D01*
X118270696Y-59371933D01*
X118422219Y-59321425D01*
X118523234Y-59220410D01*
X108692142Y-110088571D02*
X108692142Y-108945714D01*
X109263571Y-109517142D02*
X108120714Y-109517142D01*
X107763571Y-108445714D02*
X109263571Y-107945714D01*
X107763571Y-107445714D01*
X107835000Y-105017142D02*
X107763571Y-105160000D01*
X107763571Y-105374285D01*
X107835000Y-105588571D01*
X107977857Y-105731428D01*
X108120714Y-105802857D01*
X108406428Y-105874285D01*
X108620714Y-105874285D01*
X108906428Y-105802857D01*
X109049285Y-105731428D01*
X109192142Y-105588571D01*
X109263571Y-105374285D01*
X109263571Y-105231428D01*
X109192142Y-105017142D01*
X109120714Y-104945714D01*
X108620714Y-104945714D01*
X108620714Y-105231428D01*
X108692142Y-103160000D02*
X108692142Y-102017142D01*
X107763571Y-101517142D02*
X109263571Y-101017142D01*
X107763571Y-100517142D01*
X128202857Y-140378571D02*
X128202857Y-139378571D01*
X128202857Y-139664285D02*
X128274285Y-139521428D01*
X128345714Y-139450000D01*
X128488571Y-139378571D01*
X128631428Y-139378571D01*
X129702857Y-140307142D02*
X129560000Y-140378571D01*
X129274285Y-140378571D01*
X129131428Y-140307142D01*
X129060000Y-140164285D01*
X129060000Y-139592857D01*
X129131428Y-139450000D01*
X129274285Y-139378571D01*
X129560000Y-139378571D01*
X129702857Y-139450000D01*
X129774285Y-139592857D01*
X129774285Y-139735714D01*
X129060000Y-139878571D01*
X130274285Y-139378571D02*
X130631428Y-140378571D01*
X130988571Y-139378571D01*
X133488571Y-140378571D02*
X132631428Y-140378571D01*
X133060000Y-140378571D02*
X133060000Y-138878571D01*
X132917142Y-139092857D01*
X132774285Y-139235714D01*
X132631428Y-139307142D01*
X128104285Y-136338571D02*
X129104285Y-137838571D01*
X129104285Y-136338571D02*
X128104285Y-137838571D01*
X130175714Y-137052857D02*
X130390000Y-137124285D01*
X130461428Y-137195714D01*
X130532857Y-137338571D01*
X130532857Y-137552857D01*
X130461428Y-137695714D01*
X130390000Y-137767142D01*
X130247142Y-137838571D01*
X129675714Y-137838571D01*
X129675714Y-136338571D01*
X130175714Y-136338571D01*
X130318571Y-136410000D01*
X130390000Y-136481428D01*
X130461428Y-136624285D01*
X130461428Y-136767142D01*
X130390000Y-136910000D01*
X130318571Y-136981428D01*
X130175714Y-137052857D01*
X129675714Y-137052857D01*
X131175714Y-137267142D02*
X132318571Y-137267142D01*
X133675714Y-136838571D02*
X133675714Y-137838571D01*
X133318571Y-136267142D02*
X132961428Y-137338571D01*
X133890000Y-137338571D01*
X134747142Y-136338571D02*
X134890000Y-136338571D01*
X135032857Y-136410000D01*
X135104285Y-136481428D01*
X135175714Y-136624285D01*
X135247142Y-136910000D01*
X135247142Y-137267142D01*
X135175714Y-137552857D01*
X135104285Y-137695714D01*
X135032857Y-137767142D01*
X134890000Y-137838571D01*
X134747142Y-137838571D01*
X134604285Y-137767142D01*
X134532857Y-137695714D01*
X134461428Y-137552857D01*
X134390000Y-137267142D01*
X134390000Y-136910000D01*
X134461428Y-136624285D01*
X134532857Y-136481428D01*
X134604285Y-136410000D01*
X134747142Y-136338571D01*
X136532857Y-136838571D02*
X136532857Y-137838571D01*
X136175714Y-136267142D02*
X135818571Y-137338571D01*
X136747142Y-137338571D01*
X137961428Y-136338571D02*
X137675714Y-136338571D01*
X137532857Y-136410000D01*
X137461428Y-136481428D01*
X137318571Y-136695714D01*
X137247142Y-136981428D01*
X137247142Y-137552857D01*
X137318571Y-137695714D01*
X137390000Y-137767142D01*
X137532857Y-137838571D01*
X137818571Y-137838571D01*
X137961428Y-137767142D01*
X138032857Y-137695714D01*
X138104285Y-137552857D01*
X138104285Y-137195714D01*
X138032857Y-137052857D01*
X137961428Y-136981428D01*
X137818571Y-136910000D01*
X137532857Y-136910000D01*
X137390000Y-136981428D01*
X137318571Y-137052857D01*
X137247142Y-137195714D01*
X139675714Y-136338571D02*
X140175714Y-137838571D01*
X140675714Y-136338571D01*
X142032857Y-137695714D02*
X141961428Y-137767142D01*
X141747142Y-137838571D01*
X141604285Y-137838571D01*
X141390000Y-137767142D01*
X141247142Y-137624285D01*
X141175714Y-137481428D01*
X141104285Y-137195714D01*
X141104285Y-136981428D01*
X141175714Y-136695714D01*
X141247142Y-136552857D01*
X141390000Y-136410000D01*
X141604285Y-136338571D01*
X141747142Y-136338571D01*
X141961428Y-136410000D01*
X142032857Y-136481428D01*
X142961428Y-136338571D02*
X143247142Y-136338571D01*
X143390000Y-136410000D01*
X143532857Y-136552857D01*
X143604285Y-136838571D01*
X143604285Y-137338571D01*
X143532857Y-137624285D01*
X143390000Y-137767142D01*
X143247142Y-137838571D01*
X142961428Y-137838571D01*
X142818571Y-137767142D01*
X142675714Y-137624285D01*
X142604285Y-137338571D01*
X142604285Y-136838571D01*
X142675714Y-136552857D01*
X142818571Y-136410000D01*
X142961428Y-136338571D01*
D12*
G04 #@! TO.C,R4*
X146150000Y-72390000D02*
G75*
G03X146150000Y-72390000I-1370000J0D01*
G01*
X144780000Y-71020000D02*
X144780000Y-68410000D01*
G04 #@! TO.C,U1*
X185540000Y-110550000D02*
X185540000Y-100270000D01*
X167520000Y-110550000D02*
X185540000Y-110550000D01*
X167520000Y-100270000D02*
X167520000Y-110550000D01*
X185540000Y-100270000D02*
X167520000Y-100270000D01*
X185480000Y-108060000D02*
X185480000Y-106410000D01*
X167580000Y-108060000D02*
X185480000Y-108060000D01*
X167580000Y-102760000D02*
X167580000Y-108060000D01*
X185480000Y-102760000D02*
X167580000Y-102760000D01*
X185480000Y-104410000D02*
X185480000Y-102760000D01*
X185480000Y-106410000D02*
G75*
G02X185480000Y-104410000I0J1000000D01*
G01*
G04 #@! TO.C,D3*
X119865000Y-89955000D02*
X117625000Y-89955000D01*
X117625000Y-89955000D02*
X117625000Y-94195000D01*
X117625000Y-94195000D02*
X119865000Y-94195000D01*
X119865000Y-94195000D02*
X119865000Y-89955000D01*
X118745000Y-89305000D02*
X118745000Y-89955000D01*
X118745000Y-94845000D02*
X118745000Y-94195000D01*
X119865000Y-90675000D02*
X117625000Y-90675000D01*
X119865000Y-90795000D02*
X117625000Y-90795000D01*
X119865000Y-90555000D02*
X117625000Y-90555000D01*
G04 #@! TO.C,R8*
X134720000Y-90170000D02*
X137330000Y-90170000D01*
X134720000Y-90170000D02*
G75*
G03X134720000Y-90170000I-1370000J0D01*
G01*
G04 #@! TO.C,R22*
X170280000Y-113030000D02*
G75*
G03X170280000Y-113030000I-1370000J0D01*
G01*
X170280000Y-113030000D02*
X172890000Y-113030000D01*
G04 #@! TO.C,R23*
X147420000Y-94615000D02*
X150030000Y-94615000D01*
X147420000Y-94615000D02*
G75*
G03X147420000Y-94615000I-1370000J0D01*
G01*
G04 #@! TO.C,R24*
X148690000Y-118110000D02*
G75*
G03X148690000Y-118110000I-1370000J0D01*
G01*
X147320000Y-116740000D02*
X147320000Y-114130000D01*
G04 #@! TO.C,R25*
X147420000Y-97790000D02*
X150030000Y-97790000D01*
X147420000Y-97790000D02*
G75*
G03X147420000Y-97790000I-1370000J0D01*
G01*
G04 #@! TO.C,R26*
X157580000Y-86995000D02*
G75*
G03X157580000Y-86995000I-1370000J0D01*
G01*
X157580000Y-86995000D02*
X160190000Y-86995000D01*
G04 #@! TO.C,R27*
X191235000Y-121285000D02*
X193845000Y-121285000D01*
X191235000Y-121285000D02*
G75*
G03X191235000Y-121285000I-1370000J0D01*
G01*
G04 #@! TO.C,R28*
X156310000Y-93345000D02*
G75*
G03X156310000Y-93345000I-1370000J0D01*
G01*
X154940000Y-94715000D02*
X154940000Y-97325000D01*
G04 #@! TO.C,R29*
X193040000Y-133250000D02*
X193040000Y-130640000D01*
X194410000Y-134620000D02*
G75*
G03X194410000Y-134620000I-1370000J0D01*
G01*
G04 #@! TO.C,R7*
X134720000Y-73660000D02*
G75*
G03X134720000Y-73660000I-1370000J0D01*
G01*
X133350000Y-72290000D02*
X133350000Y-69680000D01*
G04 #@! TO.C,R32*
X163730000Y-122555000D02*
X161120000Y-122555000D01*
X166470000Y-122555000D02*
G75*
G03X166470000Y-122555000I-1370000J0D01*
G01*
G04 #@! TO.C,R34*
X153770000Y-118110000D02*
G75*
G03X153770000Y-118110000I-1370000J0D01*
G01*
X152400000Y-116740000D02*
X152400000Y-114130000D01*
G04 #@! TO.C,R35*
X180340000Y-133250000D02*
X180340000Y-130640000D01*
X181710000Y-134620000D02*
G75*
G03X181710000Y-134620000I-1370000J0D01*
G01*
G04 #@! TO.C,R36*
X132180000Y-113030000D02*
G75*
G03X132180000Y-113030000I-1370000J0D01*
G01*
X132180000Y-113030000D02*
X134790000Y-113030000D01*
G04 #@! TO.C,R37*
X126465000Y-122555000D02*
X129075000Y-122555000D01*
X126465000Y-122555000D02*
G75*
G03X126465000Y-122555000I-1370000J0D01*
G01*
G04 #@! TO.C,R38*
X157580000Y-119380000D02*
G75*
G03X157580000Y-119380000I-1370000J0D01*
G01*
X157580000Y-119380000D02*
X160190000Y-119380000D01*
G04 #@! TO.C,R40*
X131545000Y-127635000D02*
X134155000Y-127635000D01*
X131545000Y-127635000D02*
G75*
G03X131545000Y-127635000I-1370000J0D01*
G01*
G04 #@! TO.C,R41*
X170280000Y-119380000D02*
G75*
G03X170280000Y-119380000I-1370000J0D01*
G01*
X167540000Y-119380000D02*
X164930000Y-119380000D01*
G04 #@! TO.C,R42*
X182980000Y-97790000D02*
X185590000Y-97790000D01*
X182980000Y-97790000D02*
G75*
G03X182980000Y-97790000I-1370000J0D01*
G01*
G04 #@! TO.C,R31*
X179170000Y-134620000D02*
G75*
G03X179170000Y-134620000I-1370000J0D01*
G01*
X177800000Y-133250000D02*
X177800000Y-130640000D01*
G04 #@! TO.C,R30*
X182880000Y-133250000D02*
X182880000Y-130640000D01*
X184250000Y-134620000D02*
G75*
G03X184250000Y-134620000I-1370000J0D01*
G01*
G04 #@! TO.C,R16*
X195680000Y-124460000D02*
G75*
G03X195680000Y-124460000I-1370000J0D01*
G01*
X192940000Y-124460000D02*
X190330000Y-124460000D01*
G04 #@! TO.C,R15*
X129540000Y-86260000D02*
X129540000Y-83650000D01*
X130910000Y-87630000D02*
G75*
G03X130910000Y-87630000I-1370000J0D01*
G01*
G04 #@! TO.C,R14*
X190600000Y-113030000D02*
G75*
G03X190600000Y-113030000I-1370000J0D01*
G01*
X187860000Y-113030000D02*
X185250000Y-113030000D01*
G04 #@! TO.C,R13*
X162560000Y-71020000D02*
X162560000Y-68410000D01*
X163930000Y-72390000D02*
G75*
G03X163930000Y-72390000I-1370000J0D01*
G01*
G04 #@! TO.C,R12*
X195680000Y-102870000D02*
G75*
G03X195680000Y-102870000I-1370000J0D01*
G01*
X194310000Y-104240000D02*
X194310000Y-106850000D01*
G04 #@! TO.C,R11*
X194310000Y-116740000D02*
X194310000Y-114130000D01*
X195680000Y-118110000D02*
G75*
G03X195680000Y-118110000I-1370000J0D01*
G01*
G04 #@! TO.C,R10*
X147420000Y-91440000D02*
G75*
G03X147420000Y-91440000I-1370000J0D01*
G01*
X146050000Y-90070000D02*
X146050000Y-87460000D01*
G04 #@! TO.C,R9*
X141605000Y-128370000D02*
X141605000Y-130980000D01*
X142975000Y-127000000D02*
G75*
G03X142975000Y-127000000I-1370000J0D01*
G01*
G04 #@! TO.C,R20*
X163930000Y-91440000D02*
G75*
G03X163930000Y-91440000I-1370000J0D01*
G01*
X163930000Y-91440000D02*
X166540000Y-91440000D01*
G04 #@! TO.C,R17*
X163930000Y-97790000D02*
X166540000Y-97790000D01*
X163930000Y-97790000D02*
G75*
G03X163930000Y-97790000I-1370000J0D01*
G01*
G04 #@! TO.C,R6*
X132180000Y-78740000D02*
G75*
G03X132180000Y-78740000I-1370000J0D01*
G01*
X132180000Y-78740000D02*
X134790000Y-78740000D01*
G04 #@! TO.C,R5*
X115670000Y-78740000D02*
X118280000Y-78740000D01*
X115670000Y-78740000D02*
G75*
G03X115670000Y-78740000I-1370000J0D01*
G01*
G04 #@! TO.C,R3*
X141070000Y-78740000D02*
X143680000Y-78740000D01*
X141070000Y-78740000D02*
G75*
G03X141070000Y-78740000I-1370000J0D01*
G01*
G04 #@! TO.C,R2*
X115670000Y-82550000D02*
G75*
G03X115670000Y-82550000I-1370000J0D01*
G01*
X115670000Y-82550000D02*
X118280000Y-82550000D01*
G04 #@! TO.C,R1*
X113030000Y-72290000D02*
X113030000Y-69680000D01*
X114400000Y-73660000D02*
G75*
G03X114400000Y-73660000I-1370000J0D01*
G01*
G04 #@! TO.C,R18*
X186790000Y-134620000D02*
G75*
G03X186790000Y-134620000I-1370000J0D01*
G01*
X185420000Y-133250000D02*
X185420000Y-130640000D01*
G04 #@! TO.C,R19*
X165635000Y-94615000D02*
X163025000Y-94615000D01*
X168375000Y-94615000D02*
G75*
G03X168375000Y-94615000I-1370000J0D01*
G01*
G04 #@! TO.C,R21*
X171550000Y-92710000D02*
G75*
G03X171550000Y-92710000I-1370000J0D01*
G01*
X170180000Y-94080000D02*
X170180000Y-96690000D01*
G04 #@! TO.C,C1*
X125620000Y-75985000D02*
X125620000Y-76300000D01*
X125620000Y-73560000D02*
X125620000Y-73875000D01*
X120680000Y-75985000D02*
X120680000Y-76300000D01*
X120680000Y-73560000D02*
X120680000Y-73875000D01*
X120680000Y-76300000D02*
X125620000Y-76300000D01*
X120680000Y-73560000D02*
X125620000Y-73560000D01*
G04 #@! TO.C,C2*
X129510000Y-92810000D02*
X124570000Y-92810000D01*
X129510000Y-90070000D02*
X124570000Y-90070000D01*
X129510000Y-92810000D02*
X129510000Y-92495000D01*
X129510000Y-90385000D02*
X129510000Y-90070000D01*
X124570000Y-92810000D02*
X124570000Y-92495000D01*
X124570000Y-90385000D02*
X124570000Y-90070000D01*
G04 #@! TO.C,C3*
X178960000Y-96305000D02*
X178960000Y-96620000D01*
X178960000Y-93880000D02*
X178960000Y-94195000D01*
X174020000Y-96305000D02*
X174020000Y-96620000D01*
X174020000Y-93880000D02*
X174020000Y-94195000D01*
X174020000Y-96620000D02*
X178960000Y-96620000D01*
X174020000Y-93880000D02*
X178960000Y-93880000D01*
G04 #@! TO.C,C4*
X187225000Y-80615000D02*
X187225000Y-75675000D01*
X189965000Y-80615000D02*
X189965000Y-75675000D01*
X187225000Y-80615000D02*
X187540000Y-80615000D01*
X189650000Y-80615000D02*
X189965000Y-80615000D01*
X187225000Y-75675000D02*
X187540000Y-75675000D01*
X189650000Y-75675000D02*
X189965000Y-75675000D01*
G04 #@! TO.C,C5*
X128485000Y-74820000D02*
X128170000Y-74820000D01*
X130910000Y-74820000D02*
X130595000Y-74820000D01*
X128485000Y-69880000D02*
X128170000Y-69880000D01*
X130910000Y-69880000D02*
X130595000Y-69880000D01*
X128170000Y-69880000D02*
X128170000Y-74820000D01*
X130910000Y-69880000D02*
X130910000Y-74820000D01*
G04 #@! TO.C,C6*
X119180000Y-136464646D02*
X120180000Y-136464646D01*
X119680000Y-136964646D02*
X119680000Y-135964646D01*
X121956000Y-126404000D02*
X123154000Y-126404000D01*
X121693000Y-126444000D02*
X123417000Y-126444000D01*
X121493000Y-126484000D02*
X123617000Y-126484000D01*
X121325000Y-126524000D02*
X123785000Y-126524000D01*
X121177000Y-126564000D02*
X123933000Y-126564000D01*
X121045000Y-126604000D02*
X124065000Y-126604000D01*
X120925000Y-126644000D02*
X124185000Y-126644000D01*
X120813000Y-126684000D02*
X124297000Y-126684000D01*
X120709000Y-126724000D02*
X124401000Y-126724000D01*
X120611000Y-126764000D02*
X124499000Y-126764000D01*
X120518000Y-126804000D02*
X124592000Y-126804000D01*
X120430000Y-126844000D02*
X124680000Y-126844000D01*
X120346000Y-126884000D02*
X124764000Y-126884000D01*
X120266000Y-126924000D02*
X124844000Y-126924000D01*
X120190000Y-126964000D02*
X124920000Y-126964000D01*
X120116000Y-127004000D02*
X124994000Y-127004000D01*
X120045000Y-127044000D02*
X125065000Y-127044000D01*
X119976000Y-127084000D02*
X125134000Y-127084000D01*
X119910000Y-127124000D02*
X125200000Y-127124000D01*
X119846000Y-127164000D02*
X125264000Y-127164000D01*
X119785000Y-127204000D02*
X125325000Y-127204000D01*
X119725000Y-127244000D02*
X125385000Y-127244000D01*
X119666000Y-127284000D02*
X125444000Y-127284000D01*
X119610000Y-127324000D02*
X125500000Y-127324000D01*
X119555000Y-127364000D02*
X125555000Y-127364000D01*
X119501000Y-127404000D02*
X125609000Y-127404000D01*
X119449000Y-127444000D02*
X125661000Y-127444000D01*
X119399000Y-127484000D02*
X125711000Y-127484000D01*
X119349000Y-127524000D02*
X125761000Y-127524000D01*
X119301000Y-127564000D02*
X125809000Y-127564000D01*
X119254000Y-127604000D02*
X125856000Y-127604000D01*
X119208000Y-127644000D02*
X125902000Y-127644000D01*
X119163000Y-127684000D02*
X125947000Y-127684000D01*
X119119000Y-127724000D02*
X125991000Y-127724000D01*
X123796000Y-127764000D02*
X126033000Y-127764000D01*
X119077000Y-127764000D02*
X121314000Y-127764000D01*
X123796000Y-127804000D02*
X126075000Y-127804000D01*
X119035000Y-127804000D02*
X121314000Y-127804000D01*
X123796000Y-127844000D02*
X126116000Y-127844000D01*
X118994000Y-127844000D02*
X121314000Y-127844000D01*
X123796000Y-127884000D02*
X126156000Y-127884000D01*
X118954000Y-127884000D02*
X121314000Y-127884000D01*
X123796000Y-127924000D02*
X126195000Y-127924000D01*
X118915000Y-127924000D02*
X121314000Y-127924000D01*
X123796000Y-127964000D02*
X126234000Y-127964000D01*
X118876000Y-127964000D02*
X121314000Y-127964000D01*
X123796000Y-128004000D02*
X126271000Y-128004000D01*
X118839000Y-128004000D02*
X121314000Y-128004000D01*
X123796000Y-128044000D02*
X126308000Y-128044000D01*
X118802000Y-128044000D02*
X121314000Y-128044000D01*
X123796000Y-128084000D02*
X126344000Y-128084000D01*
X118766000Y-128084000D02*
X121314000Y-128084000D01*
X123796000Y-128124000D02*
X126379000Y-128124000D01*
X118731000Y-128124000D02*
X121314000Y-128124000D01*
X123796000Y-128164000D02*
X126413000Y-128164000D01*
X118697000Y-128164000D02*
X121314000Y-128164000D01*
X123796000Y-128204000D02*
X126447000Y-128204000D01*
X118663000Y-128204000D02*
X121314000Y-128204000D01*
X123796000Y-128244000D02*
X126480000Y-128244000D01*
X118630000Y-128244000D02*
X121314000Y-128244000D01*
X123796000Y-128284000D02*
X126512000Y-128284000D01*
X118598000Y-128284000D02*
X121314000Y-128284000D01*
X123796000Y-128324000D02*
X126544000Y-128324000D01*
X118566000Y-128324000D02*
X121314000Y-128324000D01*
X123796000Y-128364000D02*
X126575000Y-128364000D01*
X118535000Y-128364000D02*
X121314000Y-128364000D01*
X123796000Y-128404000D02*
X126605000Y-128404000D01*
X118505000Y-128404000D02*
X121314000Y-128404000D01*
X123796000Y-128444000D02*
X126635000Y-128444000D01*
X118475000Y-128444000D02*
X121314000Y-128444000D01*
X123796000Y-128484000D02*
X126665000Y-128484000D01*
X118445000Y-128484000D02*
X121314000Y-128484000D01*
X123796000Y-128524000D02*
X126693000Y-128524000D01*
X118417000Y-128524000D02*
X121314000Y-128524000D01*
X123796000Y-128564000D02*
X126721000Y-128564000D01*
X118389000Y-128564000D02*
X121314000Y-128564000D01*
X123796000Y-128604000D02*
X126749000Y-128604000D01*
X118361000Y-128604000D02*
X121314000Y-128604000D01*
X123796000Y-128644000D02*
X126776000Y-128644000D01*
X118334000Y-128644000D02*
X121314000Y-128644000D01*
X123796000Y-128684000D02*
X126802000Y-128684000D01*
X118308000Y-128684000D02*
X121314000Y-128684000D01*
X123796000Y-128724000D02*
X126828000Y-128724000D01*
X118282000Y-128724000D02*
X121314000Y-128724000D01*
X123796000Y-128764000D02*
X126853000Y-128764000D01*
X118257000Y-128764000D02*
X121314000Y-128764000D01*
X123796000Y-128804000D02*
X126878000Y-128804000D01*
X118232000Y-128804000D02*
X121314000Y-128804000D01*
X123796000Y-128844000D02*
X126902000Y-128844000D01*
X118208000Y-128844000D02*
X121314000Y-128844000D01*
X123796000Y-128884000D02*
X126926000Y-128884000D01*
X118184000Y-128884000D02*
X121314000Y-128884000D01*
X123796000Y-128924000D02*
X126950000Y-128924000D01*
X118160000Y-128924000D02*
X121314000Y-128924000D01*
X123796000Y-128964000D02*
X126972000Y-128964000D01*
X118138000Y-128964000D02*
X121314000Y-128964000D01*
X123796000Y-129004000D02*
X126995000Y-129004000D01*
X118115000Y-129004000D02*
X121314000Y-129004000D01*
X123796000Y-129044000D02*
X127017000Y-129044000D01*
X118093000Y-129044000D02*
X121314000Y-129044000D01*
X123796000Y-129084000D02*
X127038000Y-129084000D01*
X118072000Y-129084000D02*
X121314000Y-129084000D01*
X123796000Y-129124000D02*
X127059000Y-129124000D01*
X118051000Y-129124000D02*
X121314000Y-129124000D01*
X123796000Y-129164000D02*
X127080000Y-129164000D01*
X118030000Y-129164000D02*
X121314000Y-129164000D01*
X123796000Y-129204000D02*
X127100000Y-129204000D01*
X118010000Y-129204000D02*
X121314000Y-129204000D01*
X123796000Y-129244000D02*
X127119000Y-129244000D01*
X117991000Y-129244000D02*
X121314000Y-129244000D01*
X123796000Y-129284000D02*
X127139000Y-129284000D01*
X117971000Y-129284000D02*
X121314000Y-129284000D01*
X123796000Y-129324000D02*
X127158000Y-129324000D01*
X117952000Y-129324000D02*
X121314000Y-129324000D01*
X123796000Y-129364000D02*
X127176000Y-129364000D01*
X117934000Y-129364000D02*
X121314000Y-129364000D01*
X123796000Y-129404000D02*
X127194000Y-129404000D01*
X117916000Y-129404000D02*
X121314000Y-129404000D01*
X123796000Y-129444000D02*
X127212000Y-129444000D01*
X117898000Y-129444000D02*
X121314000Y-129444000D01*
X123796000Y-129484000D02*
X127229000Y-129484000D01*
X117881000Y-129484000D02*
X121314000Y-129484000D01*
X123796000Y-129524000D02*
X127245000Y-129524000D01*
X117865000Y-129524000D02*
X121314000Y-129524000D01*
X123796000Y-129564000D02*
X127262000Y-129564000D01*
X117848000Y-129564000D02*
X121314000Y-129564000D01*
X123796000Y-129604000D02*
X127278000Y-129604000D01*
X117832000Y-129604000D02*
X121314000Y-129604000D01*
X123796000Y-129644000D02*
X127293000Y-129644000D01*
X117817000Y-129644000D02*
X121314000Y-129644000D01*
X123796000Y-129684000D02*
X127309000Y-129684000D01*
X117801000Y-129684000D02*
X121314000Y-129684000D01*
X123796000Y-129724000D02*
X127323000Y-129724000D01*
X117787000Y-129724000D02*
X121314000Y-129724000D01*
X123796000Y-129764000D02*
X127338000Y-129764000D01*
X117772000Y-129764000D02*
X121314000Y-129764000D01*
X123796000Y-129804000D02*
X127352000Y-129804000D01*
X117758000Y-129804000D02*
X121314000Y-129804000D01*
X123796000Y-129844000D02*
X127366000Y-129844000D01*
X117744000Y-129844000D02*
X121314000Y-129844000D01*
X123796000Y-129884000D02*
X127379000Y-129884000D01*
X117731000Y-129884000D02*
X121314000Y-129884000D01*
X123796000Y-129924000D02*
X127392000Y-129924000D01*
X117718000Y-129924000D02*
X121314000Y-129924000D01*
X123796000Y-129964000D02*
X127405000Y-129964000D01*
X117705000Y-129964000D02*
X121314000Y-129964000D01*
X123796000Y-130004000D02*
X127417000Y-130004000D01*
X117693000Y-130004000D02*
X121314000Y-130004000D01*
X123796000Y-130044000D02*
X127429000Y-130044000D01*
X117681000Y-130044000D02*
X121314000Y-130044000D01*
X123796000Y-130084000D02*
X127440000Y-130084000D01*
X117670000Y-130084000D02*
X121314000Y-130084000D01*
X123796000Y-130124000D02*
X127452000Y-130124000D01*
X117658000Y-130124000D02*
X121314000Y-130124000D01*
X123796000Y-130164000D02*
X127462000Y-130164000D01*
X117648000Y-130164000D02*
X121314000Y-130164000D01*
X123796000Y-130204000D02*
X127473000Y-130204000D01*
X117637000Y-130204000D02*
X121314000Y-130204000D01*
X117627000Y-130244000D02*
X127483000Y-130244000D01*
X117617000Y-130284000D02*
X127493000Y-130284000D01*
X117608000Y-130324000D02*
X127502000Y-130324000D01*
X117599000Y-130364000D02*
X127511000Y-130364000D01*
X117590000Y-130404000D02*
X127520000Y-130404000D01*
X117581000Y-130444000D02*
X127529000Y-130444000D01*
X117573000Y-130484000D02*
X127537000Y-130484000D01*
X117565000Y-130524000D02*
X127545000Y-130524000D01*
X117558000Y-130564000D02*
X127552000Y-130564000D01*
X117551000Y-130604000D02*
X127559000Y-130604000D01*
X117544000Y-130644000D02*
X127566000Y-130644000D01*
X117537000Y-130684000D02*
X127573000Y-130684000D01*
X117531000Y-130724000D02*
X127579000Y-130724000D01*
X117525000Y-130764000D02*
X127585000Y-130764000D01*
X117520000Y-130805000D02*
X127590000Y-130805000D01*
X117515000Y-130845000D02*
X127595000Y-130845000D01*
X117510000Y-130885000D02*
X127600000Y-130885000D01*
X117505000Y-130925000D02*
X127605000Y-130925000D01*
X117501000Y-130965000D02*
X127609000Y-130965000D01*
X117497000Y-131005000D02*
X127613000Y-131005000D01*
X117493000Y-131045000D02*
X127617000Y-131045000D01*
X117490000Y-131085000D02*
X127620000Y-131085000D01*
X117487000Y-131125000D02*
X127623000Y-131125000D01*
X117485000Y-131165000D02*
X127625000Y-131165000D01*
X117482000Y-131205000D02*
X127628000Y-131205000D01*
X117480000Y-131245000D02*
X127630000Y-131245000D01*
X117478000Y-131285000D02*
X127632000Y-131285000D01*
X117477000Y-131325000D02*
X127633000Y-131325000D01*
X117476000Y-131365000D02*
X127634000Y-131365000D01*
X117475000Y-131405000D02*
X127635000Y-131405000D01*
X117475000Y-131445000D02*
X127635000Y-131445000D01*
X117475000Y-131485000D02*
X127635000Y-131485000D01*
X127675000Y-131485000D02*
G75*
G03X127675000Y-131485000I-5120000J0D01*
G01*
G04 #@! TO.C,C7*
X196215000Y-90805000D02*
G75*
G03X196215000Y-90805000I-5120000J0D01*
G01*
X191095000Y-85725000D02*
X191095000Y-95885000D01*
X191135000Y-85725000D02*
X191135000Y-95885000D01*
X191175000Y-85725000D02*
X191175000Y-95885000D01*
X191215000Y-85726000D02*
X191215000Y-95884000D01*
X191255000Y-85727000D02*
X191255000Y-95883000D01*
X191295000Y-85728000D02*
X191295000Y-95882000D01*
X191335000Y-85730000D02*
X191335000Y-95880000D01*
X191375000Y-85732000D02*
X191375000Y-95878000D01*
X191415000Y-85735000D02*
X191415000Y-95875000D01*
X191455000Y-85737000D02*
X191455000Y-95873000D01*
X191495000Y-85740000D02*
X191495000Y-95870000D01*
X191535000Y-85743000D02*
X191535000Y-95867000D01*
X191575000Y-85747000D02*
X191575000Y-95863000D01*
X191615000Y-85751000D02*
X191615000Y-95859000D01*
X191655000Y-85755000D02*
X191655000Y-95855000D01*
X191695000Y-85760000D02*
X191695000Y-95850000D01*
X191735000Y-85765000D02*
X191735000Y-95845000D01*
X191775000Y-85770000D02*
X191775000Y-95840000D01*
X191816000Y-85775000D02*
X191816000Y-95835000D01*
X191856000Y-85781000D02*
X191856000Y-95829000D01*
X191896000Y-85787000D02*
X191896000Y-95823000D01*
X191936000Y-85794000D02*
X191936000Y-95816000D01*
X191976000Y-85801000D02*
X191976000Y-95809000D01*
X192016000Y-85808000D02*
X192016000Y-95802000D01*
X192056000Y-85815000D02*
X192056000Y-95795000D01*
X192096000Y-85823000D02*
X192096000Y-95787000D01*
X192136000Y-85831000D02*
X192136000Y-95779000D01*
X192176000Y-85840000D02*
X192176000Y-95770000D01*
X192216000Y-85849000D02*
X192216000Y-95761000D01*
X192256000Y-85858000D02*
X192256000Y-95752000D01*
X192296000Y-85867000D02*
X192296000Y-95743000D01*
X192336000Y-85877000D02*
X192336000Y-95733000D01*
X192376000Y-85887000D02*
X192376000Y-89564000D01*
X192376000Y-92046000D02*
X192376000Y-95723000D01*
X192416000Y-85898000D02*
X192416000Y-89564000D01*
X192416000Y-92046000D02*
X192416000Y-95712000D01*
X192456000Y-85908000D02*
X192456000Y-89564000D01*
X192456000Y-92046000D02*
X192456000Y-95702000D01*
X192496000Y-85920000D02*
X192496000Y-89564000D01*
X192496000Y-92046000D02*
X192496000Y-95690000D01*
X192536000Y-85931000D02*
X192536000Y-89564000D01*
X192536000Y-92046000D02*
X192536000Y-95679000D01*
X192576000Y-85943000D02*
X192576000Y-89564000D01*
X192576000Y-92046000D02*
X192576000Y-95667000D01*
X192616000Y-85955000D02*
X192616000Y-89564000D01*
X192616000Y-92046000D02*
X192616000Y-95655000D01*
X192656000Y-85968000D02*
X192656000Y-89564000D01*
X192656000Y-92046000D02*
X192656000Y-95642000D01*
X192696000Y-85981000D02*
X192696000Y-89564000D01*
X192696000Y-92046000D02*
X192696000Y-95629000D01*
X192736000Y-85994000D02*
X192736000Y-89564000D01*
X192736000Y-92046000D02*
X192736000Y-95616000D01*
X192776000Y-86008000D02*
X192776000Y-89564000D01*
X192776000Y-92046000D02*
X192776000Y-95602000D01*
X192816000Y-86022000D02*
X192816000Y-89564000D01*
X192816000Y-92046000D02*
X192816000Y-95588000D01*
X192856000Y-86037000D02*
X192856000Y-89564000D01*
X192856000Y-92046000D02*
X192856000Y-95573000D01*
X192896000Y-86051000D02*
X192896000Y-89564000D01*
X192896000Y-92046000D02*
X192896000Y-95559000D01*
X192936000Y-86067000D02*
X192936000Y-89564000D01*
X192936000Y-92046000D02*
X192936000Y-95543000D01*
X192976000Y-86082000D02*
X192976000Y-89564000D01*
X192976000Y-92046000D02*
X192976000Y-95528000D01*
X193016000Y-86098000D02*
X193016000Y-89564000D01*
X193016000Y-92046000D02*
X193016000Y-95512000D01*
X193056000Y-86115000D02*
X193056000Y-89564000D01*
X193056000Y-92046000D02*
X193056000Y-95495000D01*
X193096000Y-86131000D02*
X193096000Y-89564000D01*
X193096000Y-92046000D02*
X193096000Y-95479000D01*
X193136000Y-86148000D02*
X193136000Y-89564000D01*
X193136000Y-92046000D02*
X193136000Y-95462000D01*
X193176000Y-86166000D02*
X193176000Y-89564000D01*
X193176000Y-92046000D02*
X193176000Y-95444000D01*
X193216000Y-86184000D02*
X193216000Y-89564000D01*
X193216000Y-92046000D02*
X193216000Y-95426000D01*
X193256000Y-86202000D02*
X193256000Y-89564000D01*
X193256000Y-92046000D02*
X193256000Y-95408000D01*
X193296000Y-86221000D02*
X193296000Y-89564000D01*
X193296000Y-92046000D02*
X193296000Y-95389000D01*
X193336000Y-86241000D02*
X193336000Y-89564000D01*
X193336000Y-92046000D02*
X193336000Y-95369000D01*
X193376000Y-86260000D02*
X193376000Y-89564000D01*
X193376000Y-92046000D02*
X193376000Y-95350000D01*
X193416000Y-86280000D02*
X193416000Y-89564000D01*
X193416000Y-92046000D02*
X193416000Y-95330000D01*
X193456000Y-86301000D02*
X193456000Y-89564000D01*
X193456000Y-92046000D02*
X193456000Y-95309000D01*
X193496000Y-86322000D02*
X193496000Y-89564000D01*
X193496000Y-92046000D02*
X193496000Y-95288000D01*
X193536000Y-86343000D02*
X193536000Y-89564000D01*
X193536000Y-92046000D02*
X193536000Y-95267000D01*
X193576000Y-86365000D02*
X193576000Y-89564000D01*
X193576000Y-92046000D02*
X193576000Y-95245000D01*
X193616000Y-86388000D02*
X193616000Y-89564000D01*
X193616000Y-92046000D02*
X193616000Y-95222000D01*
X193656000Y-86410000D02*
X193656000Y-89564000D01*
X193656000Y-92046000D02*
X193656000Y-95200000D01*
X193696000Y-86434000D02*
X193696000Y-89564000D01*
X193696000Y-92046000D02*
X193696000Y-95176000D01*
X193736000Y-86458000D02*
X193736000Y-89564000D01*
X193736000Y-92046000D02*
X193736000Y-95152000D01*
X193776000Y-86482000D02*
X193776000Y-89564000D01*
X193776000Y-92046000D02*
X193776000Y-95128000D01*
X193816000Y-86507000D02*
X193816000Y-89564000D01*
X193816000Y-92046000D02*
X193816000Y-95103000D01*
X193856000Y-86532000D02*
X193856000Y-89564000D01*
X193856000Y-92046000D02*
X193856000Y-95078000D01*
X193896000Y-86558000D02*
X193896000Y-89564000D01*
X193896000Y-92046000D02*
X193896000Y-95052000D01*
X193936000Y-86584000D02*
X193936000Y-89564000D01*
X193936000Y-92046000D02*
X193936000Y-95026000D01*
X193976000Y-86611000D02*
X193976000Y-89564000D01*
X193976000Y-92046000D02*
X193976000Y-94999000D01*
X194016000Y-86639000D02*
X194016000Y-89564000D01*
X194016000Y-92046000D02*
X194016000Y-94971000D01*
X194056000Y-86667000D02*
X194056000Y-89564000D01*
X194056000Y-92046000D02*
X194056000Y-94943000D01*
X194096000Y-86695000D02*
X194096000Y-89564000D01*
X194096000Y-92046000D02*
X194096000Y-94915000D01*
X194136000Y-86725000D02*
X194136000Y-89564000D01*
X194136000Y-92046000D02*
X194136000Y-94885000D01*
X194176000Y-86755000D02*
X194176000Y-89564000D01*
X194176000Y-92046000D02*
X194176000Y-94855000D01*
X194216000Y-86785000D02*
X194216000Y-89564000D01*
X194216000Y-92046000D02*
X194216000Y-94825000D01*
X194256000Y-86816000D02*
X194256000Y-89564000D01*
X194256000Y-92046000D02*
X194256000Y-94794000D01*
X194296000Y-86848000D02*
X194296000Y-89564000D01*
X194296000Y-92046000D02*
X194296000Y-94762000D01*
X194336000Y-86880000D02*
X194336000Y-89564000D01*
X194336000Y-92046000D02*
X194336000Y-94730000D01*
X194376000Y-86913000D02*
X194376000Y-89564000D01*
X194376000Y-92046000D02*
X194376000Y-94697000D01*
X194416000Y-86947000D02*
X194416000Y-89564000D01*
X194416000Y-92046000D02*
X194416000Y-94663000D01*
X194456000Y-86981000D02*
X194456000Y-89564000D01*
X194456000Y-92046000D02*
X194456000Y-94629000D01*
X194496000Y-87016000D02*
X194496000Y-89564000D01*
X194496000Y-92046000D02*
X194496000Y-94594000D01*
X194536000Y-87052000D02*
X194536000Y-89564000D01*
X194536000Y-92046000D02*
X194536000Y-94558000D01*
X194576000Y-87089000D02*
X194576000Y-89564000D01*
X194576000Y-92046000D02*
X194576000Y-94521000D01*
X194616000Y-87126000D02*
X194616000Y-89564000D01*
X194616000Y-92046000D02*
X194616000Y-94484000D01*
X194656000Y-87165000D02*
X194656000Y-89564000D01*
X194656000Y-92046000D02*
X194656000Y-94445000D01*
X194696000Y-87204000D02*
X194696000Y-89564000D01*
X194696000Y-92046000D02*
X194696000Y-94406000D01*
X194736000Y-87244000D02*
X194736000Y-89564000D01*
X194736000Y-92046000D02*
X194736000Y-94366000D01*
X194776000Y-87285000D02*
X194776000Y-89564000D01*
X194776000Y-92046000D02*
X194776000Y-94325000D01*
X194816000Y-87327000D02*
X194816000Y-89564000D01*
X194816000Y-92046000D02*
X194816000Y-94283000D01*
X194856000Y-87369000D02*
X194856000Y-94241000D01*
X194896000Y-87413000D02*
X194896000Y-94197000D01*
X194936000Y-87458000D02*
X194936000Y-94152000D01*
X194976000Y-87504000D02*
X194976000Y-94106000D01*
X195016000Y-87551000D02*
X195016000Y-94059000D01*
X195056000Y-87599000D02*
X195056000Y-94011000D01*
X195096000Y-87649000D02*
X195096000Y-93961000D01*
X195136000Y-87699000D02*
X195136000Y-93911000D01*
X195176000Y-87751000D02*
X195176000Y-93859000D01*
X195216000Y-87805000D02*
X195216000Y-93805000D01*
X195256000Y-87860000D02*
X195256000Y-93750000D01*
X195296000Y-87916000D02*
X195296000Y-93694000D01*
X195336000Y-87975000D02*
X195336000Y-93635000D01*
X195376000Y-88035000D02*
X195376000Y-93575000D01*
X195416000Y-88096000D02*
X195416000Y-93514000D01*
X195456000Y-88160000D02*
X195456000Y-93450000D01*
X195496000Y-88226000D02*
X195496000Y-93384000D01*
X195536000Y-88295000D02*
X195536000Y-93315000D01*
X195576000Y-88366000D02*
X195576000Y-93244000D01*
X195616000Y-88440000D02*
X195616000Y-93170000D01*
X195656000Y-88516000D02*
X195656000Y-93094000D01*
X195696000Y-88596000D02*
X195696000Y-93014000D01*
X195736000Y-88680000D02*
X195736000Y-92930000D01*
X195776000Y-88768000D02*
X195776000Y-92842000D01*
X195816000Y-88861000D02*
X195816000Y-92749000D01*
X195856000Y-88959000D02*
X195856000Y-92651000D01*
X195896000Y-89063000D02*
X195896000Y-92547000D01*
X195936000Y-89175000D02*
X195936000Y-92435000D01*
X195976000Y-89295000D02*
X195976000Y-92315000D01*
X196016000Y-89427000D02*
X196016000Y-92183000D01*
X196056000Y-89575000D02*
X196056000Y-92035000D01*
X196096000Y-89743000D02*
X196096000Y-91867000D01*
X196136000Y-89943000D02*
X196136000Y-91667000D01*
X196176000Y-90206000D02*
X196176000Y-91404000D01*
X185615354Y-87930000D02*
X186615354Y-87930000D01*
X186115354Y-87430000D02*
X186115354Y-88430000D01*
G04 #@! TO.C,C8*
X179040000Y-99795000D02*
X174100000Y-99795000D01*
X179040000Y-97055000D02*
X174100000Y-97055000D01*
X179040000Y-99795000D02*
X179040000Y-99480000D01*
X179040000Y-97370000D02*
X179040000Y-97055000D01*
X174100000Y-99795000D02*
X174100000Y-99480000D01*
X174100000Y-97370000D02*
X174100000Y-97055000D01*
G04 #@! TO.C,C9*
X176560000Y-111660000D02*
X181500000Y-111660000D01*
X176560000Y-114400000D02*
X181500000Y-114400000D01*
X176560000Y-111660000D02*
X176560000Y-111975000D01*
X176560000Y-114085000D02*
X176560000Y-114400000D01*
X181500000Y-111660000D02*
X181500000Y-111975000D01*
X181500000Y-114085000D02*
X181500000Y-114400000D01*
G04 #@! TO.C,C10*
X164045000Y-109110000D02*
X163730000Y-109110000D01*
X166470000Y-109110000D02*
X166155000Y-109110000D01*
X164045000Y-104170000D02*
X163730000Y-104170000D01*
X166470000Y-104170000D02*
X166155000Y-104170000D01*
X163730000Y-104170000D02*
X163730000Y-109110000D01*
X166470000Y-104170000D02*
X166470000Y-109110000D01*
G04 #@! TO.C,C11*
X141820000Y-109110000D02*
X141505000Y-109110000D01*
X144245000Y-109110000D02*
X143930000Y-109110000D01*
X141820000Y-104170000D02*
X141505000Y-104170000D01*
X144245000Y-104170000D02*
X143930000Y-104170000D01*
X141505000Y-104170000D02*
X141505000Y-109110000D01*
X144245000Y-104170000D02*
X144245000Y-109110000D01*
G04 #@! TO.C,C12*
X128805000Y-100300000D02*
X128805000Y-95360000D01*
X131545000Y-100300000D02*
X131545000Y-95360000D01*
X128805000Y-100300000D02*
X129120000Y-100300000D01*
X131230000Y-100300000D02*
X131545000Y-100300000D01*
X128805000Y-95360000D02*
X129120000Y-95360000D01*
X131230000Y-95360000D02*
X131545000Y-95360000D01*
G04 #@! TO.C,C13*
X139800000Y-104170000D02*
X139800000Y-109110000D01*
X137060000Y-104170000D02*
X137060000Y-109110000D01*
X139800000Y-104170000D02*
X139485000Y-104170000D01*
X137375000Y-104170000D02*
X137060000Y-104170000D01*
X139800000Y-109110000D02*
X139485000Y-109110000D01*
X137375000Y-109110000D02*
X137060000Y-109110000D01*
G04 #@! TO.C,D1*
X153250000Y-78590000D02*
X153250000Y-76350000D01*
X153250000Y-76350000D02*
X149010000Y-76350000D01*
X149010000Y-76350000D02*
X149010000Y-78590000D01*
X149010000Y-78590000D02*
X153250000Y-78590000D01*
X153900000Y-77470000D02*
X153250000Y-77470000D01*
X148360000Y-77470000D02*
X149010000Y-77470000D01*
X152530000Y-78590000D02*
X152530000Y-76350000D01*
X152410000Y-78590000D02*
X152410000Y-76350000D01*
X152650000Y-78590000D02*
X152650000Y-76350000D01*
G04 #@! TO.C,D2*
X149610000Y-81430000D02*
X149610000Y-83670000D01*
X149850000Y-81430000D02*
X149850000Y-83670000D01*
X149730000Y-81430000D02*
X149730000Y-83670000D01*
X153900000Y-82550000D02*
X153250000Y-82550000D01*
X148360000Y-82550000D02*
X149010000Y-82550000D01*
X153250000Y-81430000D02*
X149010000Y-81430000D01*
X153250000Y-83670000D02*
X153250000Y-81430000D01*
X149010000Y-83670000D02*
X153250000Y-83670000D01*
X149010000Y-81430000D02*
X149010000Y-83670000D01*
G04 #@! TO.C,J1*
X132140000Y-64830000D02*
X132140000Y-62170000D01*
X119380000Y-64830000D02*
X132140000Y-64830000D01*
X119380000Y-62170000D02*
X132140000Y-62170000D01*
X119380000Y-64830000D02*
X119380000Y-62170000D01*
X118110000Y-64830000D02*
X116780000Y-64830000D01*
X116780000Y-64830000D02*
X116780000Y-63500000D01*
G04 #@! TO.C,J2*
X174050000Y-145475000D02*
X174050000Y-142815000D01*
X156210000Y-145475000D02*
X174050000Y-145475000D01*
X156210000Y-142815000D02*
X174050000Y-142815000D01*
X156210000Y-145475000D02*
X156210000Y-142815000D01*
X154940000Y-145475000D02*
X153610000Y-145475000D01*
X153610000Y-145475000D02*
X153610000Y-144145000D01*
G04 #@! TO.C,J11*
X110430000Y-109280000D02*
X113090000Y-109280000D01*
X110430000Y-104140000D02*
X110430000Y-109280000D01*
X113090000Y-104140000D02*
X113090000Y-109280000D01*
X110430000Y-104140000D02*
X113090000Y-104140000D01*
X110430000Y-102870000D02*
X110430000Y-101540000D01*
X110430000Y-101540000D02*
X111760000Y-101540000D01*
G04 #@! TO.C,Q1*
X139120000Y-83290000D02*
X139120000Y-86890000D01*
X139131522Y-83251522D02*
G75*
G02X143570000Y-85090000I1838478J-1838478D01*
G01*
X139131522Y-86928478D02*
G75*
G03X143570000Y-85090000I1838478J1838478D01*
G01*
G04 #@! TO.C,Q2*
X139010000Y-86890000D02*
X139010000Y-83290000D01*
X138998478Y-86928478D02*
G75*
G02X134560000Y-85090000I-1838478J1838478D01*
G01*
X138998478Y-83251522D02*
G75*
G03X134560000Y-85090000I-1838478J-1838478D01*
G01*
G04 #@! TO.C,Q3*
X152968478Y-89468478D02*
G75*
G03X151130000Y-85030000I-1838478J1838478D01*
G01*
X149291522Y-89468478D02*
G75*
G02X151130000Y-85030000I1838478J1838478D01*
G01*
X149330000Y-89480000D02*
X152930000Y-89480000D01*
G04 #@! TO.C,Q4*
X159318478Y-116138478D02*
G75*
G03X157480000Y-111700000I-1838478J1838478D01*
G01*
X155641522Y-116138478D02*
G75*
G02X157480000Y-111700000I1838478J1838478D01*
G01*
X155680000Y-116150000D02*
X159280000Y-116150000D01*
G04 #@! TO.C,Q5*
X165680000Y-116100000D02*
X165680000Y-112500000D01*
X165668478Y-116138478D02*
G75*
G02X161230000Y-114300000I-1838478J1838478D01*
G01*
X165668478Y-112461522D02*
G75*
G03X161230000Y-114300000I-1838478J-1838478D01*
G01*
G04 #@! TO.C,R_HFTRIM1*
X126355000Y-93540000D02*
X126355000Y-103310000D01*
X121285000Y-93540000D02*
X121285000Y-103310000D01*
X126355000Y-93540000D02*
X121285000Y-93540000D01*
X126355000Y-103310000D02*
X121285000Y-103310000D01*
G04 #@! TO.C,R_SIN_RND1*
X126990000Y-119185000D02*
X121920000Y-119185000D01*
X126990000Y-109415000D02*
X121920000Y-109415000D01*
X121920000Y-109415000D02*
X121920000Y-119185000D01*
X126990000Y-109415000D02*
X126990000Y-119185000D01*
G04 #@! TO.C,RV_COARSE1*
X147260000Y-73720000D02*
X149920000Y-73720000D01*
X147260000Y-68580000D02*
X147260000Y-73720000D01*
X149920000Y-68580000D02*
X149920000Y-73720000D01*
X147260000Y-68580000D02*
X149920000Y-68580000D01*
X147260000Y-67310000D02*
X147260000Y-65980000D01*
X147260000Y-65980000D02*
X148590000Y-65980000D01*
G04 #@! TO.C,RV_CVTRIM1*
X140970000Y-66235000D02*
X140970000Y-76005000D01*
X135900000Y-66235000D02*
X135900000Y-76005000D01*
X140970000Y-66235000D02*
X135900000Y-66235000D01*
X140970000Y-76005000D02*
X135900000Y-76005000D01*
X138505000Y-64715000D02*
X138505000Y-66234000D01*
X136075000Y-64715000D02*
X136075000Y-66234000D01*
X138505000Y-64715000D02*
X136075000Y-64715000D01*
X138505000Y-66234000D02*
X136075000Y-66234000D01*
X137290000Y-64715000D02*
X137290000Y-65474000D01*
G04 #@! TO.C,RV_EXPFM1*
X119320000Y-71180000D02*
X119320000Y-69850000D01*
X120650000Y-71180000D02*
X119320000Y-71180000D01*
X121920000Y-71180000D02*
X121920000Y-68520000D01*
X121920000Y-68520000D02*
X127060000Y-68520000D01*
X121920000Y-71180000D02*
X127060000Y-71180000D01*
X127060000Y-71180000D02*
X127060000Y-68520000D01*
G04 #@! TO.C,RV_FINE1*
X154880000Y-65980000D02*
X156210000Y-65980000D01*
X154880000Y-67310000D02*
X154880000Y-65980000D01*
X154880000Y-68580000D02*
X157540000Y-68580000D01*
X157540000Y-68580000D02*
X157540000Y-73720000D01*
X154880000Y-68580000D02*
X154880000Y-73720000D01*
X154880000Y-73720000D02*
X157540000Y-73720000D01*
G04 #@! TO.C,RV_LINFM_ATTN1*
X121860000Y-86420000D02*
X124520000Y-86420000D01*
X121860000Y-81280000D02*
X121860000Y-86420000D01*
X124520000Y-81280000D02*
X124520000Y-86420000D01*
X121860000Y-81280000D02*
X124520000Y-81280000D01*
X121860000Y-80010000D02*
X121860000Y-78680000D01*
X121860000Y-78680000D02*
X123190000Y-78680000D01*
G04 #@! TO.C,RV_PWM_ATTN1*
X187900000Y-128210000D02*
X189230000Y-128210000D01*
X187900000Y-129540000D02*
X187900000Y-128210000D01*
X187900000Y-130810000D02*
X190560000Y-130810000D01*
X190560000Y-130810000D02*
X190560000Y-135950000D01*
X187900000Y-130810000D02*
X187900000Y-135950000D01*
X187900000Y-135950000D02*
X190560000Y-135950000D01*
G04 #@! TO.C,RV_SAWOFFSET1*
X153095000Y-124520000D02*
X153095000Y-121860000D01*
X147955000Y-124520000D02*
X153095000Y-124520000D01*
X147955000Y-121860000D02*
X153095000Y-121860000D01*
X147955000Y-124520000D02*
X147955000Y-121860000D01*
X146685000Y-124520000D02*
X145355000Y-124520000D01*
X145355000Y-124520000D02*
X145355000Y-123190000D01*
G04 #@! TO.C,RV_SKEW1*
X157420000Y-90110000D02*
X158750000Y-90110000D01*
X157420000Y-91440000D02*
X157420000Y-90110000D01*
X157420000Y-92710000D02*
X160080000Y-92710000D01*
X160080000Y-92710000D02*
X160080000Y-97850000D01*
X157420000Y-92710000D02*
X157420000Y-97850000D01*
X157420000Y-97850000D02*
X160080000Y-97850000D01*
G04 #@! TO.C,RV_SYM1*
X163635000Y-135245000D02*
X153865000Y-135245000D01*
X163635000Y-130175000D02*
X153865000Y-130175000D01*
X163635000Y-135245000D02*
X163635000Y-130175000D01*
X153865000Y-135245000D02*
X153865000Y-130175000D01*
G04 #@! TO.C,RV_TRI_OFFSET1*
X134560000Y-124520000D02*
X134560000Y-123190000D01*
X135890000Y-124520000D02*
X134560000Y-124520000D01*
X137160000Y-124520000D02*
X137160000Y-121860000D01*
X137160000Y-121860000D02*
X142300000Y-121860000D01*
X137160000Y-124520000D02*
X142300000Y-124520000D01*
X142300000Y-124520000D02*
X142300000Y-121860000D01*
G04 #@! TO.C,RV_TRICON1*
X163770000Y-88960000D02*
X163770000Y-87630000D01*
X165100000Y-88960000D02*
X163770000Y-88960000D01*
X166370000Y-88960000D02*
X166370000Y-86300000D01*
X166370000Y-86300000D02*
X171510000Y-86300000D01*
X166370000Y-88960000D02*
X171510000Y-88960000D01*
X171510000Y-88960000D02*
X171510000Y-86300000D01*
G04 #@! TO.C,RV_TRICON2*
X158690000Y-84515000D02*
X161350000Y-84515000D01*
X158690000Y-79375000D02*
X158690000Y-84515000D01*
X161350000Y-79375000D02*
X161350000Y-84515000D01*
X158690000Y-79375000D02*
X161350000Y-79375000D01*
X158690000Y-78105000D02*
X158690000Y-76775000D01*
X158690000Y-76775000D02*
X160020000Y-76775000D01*
G04 #@! TO.C,SW1*
X115510000Y-73720000D02*
X118170000Y-73720000D01*
X115510000Y-71120000D02*
X115510000Y-73720000D01*
X118170000Y-71120000D02*
X118170000Y-73720000D01*
X115510000Y-71120000D02*
X118170000Y-71120000D01*
X115510000Y-69850000D02*
X115510000Y-68520000D01*
X115510000Y-68520000D02*
X116840000Y-68520000D01*
G04 #@! TO.C,U2*
X132020000Y-96790000D02*
G75*
G02X132020000Y-98790000I0J-1000000D01*
G01*
X132020000Y-98790000D02*
X132020000Y-100440000D01*
X132020000Y-100440000D02*
X142300000Y-100440000D01*
X142300000Y-100440000D02*
X142300000Y-95140000D01*
X142300000Y-95140000D02*
X132020000Y-95140000D01*
X132020000Y-95140000D02*
X132020000Y-96790000D01*
X131960000Y-102930000D02*
X142360000Y-102930000D01*
X142360000Y-102930000D02*
X142360000Y-92650000D01*
X142360000Y-92650000D02*
X131960000Y-92650000D01*
X131960000Y-92650000D02*
X131960000Y-102930000D01*
G04 #@! TO.C,U3*
X165675000Y-77105000D02*
G75*
G02X165675000Y-79105000I0J-1000000D01*
G01*
X165675000Y-79105000D02*
X165675000Y-80755000D01*
X165675000Y-80755000D02*
X186115000Y-80755000D01*
X186115000Y-80755000D02*
X186115000Y-75455000D01*
X186115000Y-75455000D02*
X165675000Y-75455000D01*
X165675000Y-75455000D02*
X165675000Y-77105000D01*
X165615000Y-83245000D02*
X186175000Y-83245000D01*
X186175000Y-83245000D02*
X186175000Y-72965000D01*
X186175000Y-72965000D02*
X165615000Y-72965000D01*
X165615000Y-72965000D02*
X165615000Y-83245000D01*
G04 #@! TO.C,U4*
X144720000Y-104410000D02*
G75*
G02X144720000Y-106410000I0J-1000000D01*
G01*
X144720000Y-106410000D02*
X144720000Y-108060000D01*
X144720000Y-108060000D02*
X162620000Y-108060000D01*
X162620000Y-108060000D02*
X162620000Y-102760000D01*
X162620000Y-102760000D02*
X144720000Y-102760000D01*
X144720000Y-102760000D02*
X144720000Y-104410000D01*
X144660000Y-110550000D02*
X162680000Y-110550000D01*
X162680000Y-110550000D02*
X162680000Y-100270000D01*
X162680000Y-100270000D02*
X144660000Y-100270000D01*
X144660000Y-100270000D02*
X144660000Y-110550000D01*
G04 #@! TO.C,WIDTH1*
X190560000Y-100270000D02*
X187900000Y-100270000D01*
X190560000Y-105410000D02*
X190560000Y-100270000D01*
X187900000Y-105410000D02*
X187900000Y-100270000D01*
X190560000Y-105410000D02*
X187900000Y-105410000D01*
X190560000Y-106680000D02*
X190560000Y-108010000D01*
X190560000Y-108010000D02*
X189230000Y-108010000D01*
G04 #@! TO.C,R4*
D13*
X144613333Y-70302380D02*
X144280000Y-69826190D01*
X144041904Y-70302380D02*
X144041904Y-69302380D01*
X144422857Y-69302380D01*
X144518095Y-69350000D01*
X144565714Y-69397619D01*
X144613333Y-69492857D01*
X144613333Y-69635714D01*
X144565714Y-69730952D01*
X144518095Y-69778571D01*
X144422857Y-69826190D01*
X144041904Y-69826190D01*
X145470476Y-69635714D02*
X145470476Y-70302380D01*
X145232380Y-69254761D02*
X144994285Y-69969047D01*
X145613333Y-69969047D01*
G04 #@! TO.C,U1*
X185932380Y-106171904D02*
X186741904Y-106171904D01*
X186837142Y-106124285D01*
X186884761Y-106076666D01*
X186932380Y-105981428D01*
X186932380Y-105790952D01*
X186884761Y-105695714D01*
X186837142Y-105648095D01*
X186741904Y-105600476D01*
X185932380Y-105600476D01*
X186932380Y-104600476D02*
X186932380Y-105171904D01*
X186932380Y-104886190D02*
X185932380Y-104886190D01*
X186075238Y-104981428D01*
X186170476Y-105076666D01*
X186218095Y-105171904D01*
G04 #@! TO.C,D3*
X121317380Y-92813095D02*
X120317380Y-92813095D01*
X120317380Y-92575000D01*
X120365000Y-92432142D01*
X120460238Y-92336904D01*
X120555476Y-92289285D01*
X120745952Y-92241666D01*
X120888809Y-92241666D01*
X121079285Y-92289285D01*
X121174523Y-92336904D01*
X121269761Y-92432142D01*
X121317380Y-92575000D01*
X121317380Y-92813095D01*
X120317380Y-91908333D02*
X120317380Y-91289285D01*
X120698333Y-91622619D01*
X120698333Y-91479761D01*
X120745952Y-91384523D01*
X120793571Y-91336904D01*
X120888809Y-91289285D01*
X121126904Y-91289285D01*
X121222142Y-91336904D01*
X121269761Y-91384523D01*
X121317380Y-91479761D01*
X121317380Y-91765476D01*
X121269761Y-91860714D01*
X121222142Y-91908333D01*
X120997380Y-88526904D02*
X119997380Y-88526904D01*
X120997380Y-87955476D02*
X120425952Y-88384047D01*
X119997380Y-87955476D02*
X120568809Y-88526904D01*
G04 #@! TO.C,R8*
X136342380Y-90336666D02*
X135866190Y-90670000D01*
X136342380Y-90908095D02*
X135342380Y-90908095D01*
X135342380Y-90527142D01*
X135390000Y-90431904D01*
X135437619Y-90384285D01*
X135532857Y-90336666D01*
X135675714Y-90336666D01*
X135770952Y-90384285D01*
X135818571Y-90431904D01*
X135866190Y-90527142D01*
X135866190Y-90908095D01*
X135770952Y-89765238D02*
X135723333Y-89860476D01*
X135675714Y-89908095D01*
X135580476Y-89955714D01*
X135532857Y-89955714D01*
X135437619Y-89908095D01*
X135390000Y-89860476D01*
X135342380Y-89765238D01*
X135342380Y-89574761D01*
X135390000Y-89479523D01*
X135437619Y-89431904D01*
X135532857Y-89384285D01*
X135580476Y-89384285D01*
X135675714Y-89431904D01*
X135723333Y-89479523D01*
X135770952Y-89574761D01*
X135770952Y-89765238D01*
X135818571Y-89860476D01*
X135866190Y-89908095D01*
X135961428Y-89955714D01*
X136151904Y-89955714D01*
X136247142Y-89908095D01*
X136294761Y-89860476D01*
X136342380Y-89765238D01*
X136342380Y-89574761D01*
X136294761Y-89479523D01*
X136247142Y-89431904D01*
X136151904Y-89384285D01*
X135961428Y-89384285D01*
X135866190Y-89431904D01*
X135818571Y-89479523D01*
X135770952Y-89574761D01*
G04 #@! TO.C,R22*
X171902380Y-113672857D02*
X171426190Y-114006190D01*
X171902380Y-114244285D02*
X170902380Y-114244285D01*
X170902380Y-113863333D01*
X170950000Y-113768095D01*
X170997619Y-113720476D01*
X171092857Y-113672857D01*
X171235714Y-113672857D01*
X171330952Y-113720476D01*
X171378571Y-113768095D01*
X171426190Y-113863333D01*
X171426190Y-114244285D01*
X170997619Y-113291904D02*
X170950000Y-113244285D01*
X170902380Y-113149047D01*
X170902380Y-112910952D01*
X170950000Y-112815714D01*
X170997619Y-112768095D01*
X171092857Y-112720476D01*
X171188095Y-112720476D01*
X171330952Y-112768095D01*
X171902380Y-113339523D01*
X171902380Y-112720476D01*
X170997619Y-112339523D02*
X170950000Y-112291904D01*
X170902380Y-112196666D01*
X170902380Y-111958571D01*
X170950000Y-111863333D01*
X170997619Y-111815714D01*
X171092857Y-111768095D01*
X171188095Y-111768095D01*
X171330952Y-111815714D01*
X171902380Y-112387142D01*
X171902380Y-111768095D01*
G04 #@! TO.C,R23*
X149042380Y-95257857D02*
X148566190Y-95591190D01*
X149042380Y-95829285D02*
X148042380Y-95829285D01*
X148042380Y-95448333D01*
X148090000Y-95353095D01*
X148137619Y-95305476D01*
X148232857Y-95257857D01*
X148375714Y-95257857D01*
X148470952Y-95305476D01*
X148518571Y-95353095D01*
X148566190Y-95448333D01*
X148566190Y-95829285D01*
X148137619Y-94876904D02*
X148090000Y-94829285D01*
X148042380Y-94734047D01*
X148042380Y-94495952D01*
X148090000Y-94400714D01*
X148137619Y-94353095D01*
X148232857Y-94305476D01*
X148328095Y-94305476D01*
X148470952Y-94353095D01*
X149042380Y-94924523D01*
X149042380Y-94305476D01*
X148042380Y-93972142D02*
X148042380Y-93353095D01*
X148423333Y-93686428D01*
X148423333Y-93543571D01*
X148470952Y-93448333D01*
X148518571Y-93400714D01*
X148613809Y-93353095D01*
X148851904Y-93353095D01*
X148947142Y-93400714D01*
X148994761Y-93448333D01*
X149042380Y-93543571D01*
X149042380Y-93829285D01*
X148994761Y-93924523D01*
X148947142Y-93972142D01*
G04 #@! TO.C,R24*
X146677142Y-116022380D02*
X146343809Y-115546190D01*
X146105714Y-116022380D02*
X146105714Y-115022380D01*
X146486666Y-115022380D01*
X146581904Y-115070000D01*
X146629523Y-115117619D01*
X146677142Y-115212857D01*
X146677142Y-115355714D01*
X146629523Y-115450952D01*
X146581904Y-115498571D01*
X146486666Y-115546190D01*
X146105714Y-115546190D01*
X147058095Y-115117619D02*
X147105714Y-115070000D01*
X147200952Y-115022380D01*
X147439047Y-115022380D01*
X147534285Y-115070000D01*
X147581904Y-115117619D01*
X147629523Y-115212857D01*
X147629523Y-115308095D01*
X147581904Y-115450952D01*
X147010476Y-116022380D01*
X147629523Y-116022380D01*
X148486666Y-115355714D02*
X148486666Y-116022380D01*
X148248571Y-114974761D02*
X148010476Y-115689047D01*
X148629523Y-115689047D01*
G04 #@! TO.C,R25*
X149042380Y-98432857D02*
X148566190Y-98766190D01*
X149042380Y-99004285D02*
X148042380Y-99004285D01*
X148042380Y-98623333D01*
X148090000Y-98528095D01*
X148137619Y-98480476D01*
X148232857Y-98432857D01*
X148375714Y-98432857D01*
X148470952Y-98480476D01*
X148518571Y-98528095D01*
X148566190Y-98623333D01*
X148566190Y-99004285D01*
X148137619Y-98051904D02*
X148090000Y-98004285D01*
X148042380Y-97909047D01*
X148042380Y-97670952D01*
X148090000Y-97575714D01*
X148137619Y-97528095D01*
X148232857Y-97480476D01*
X148328095Y-97480476D01*
X148470952Y-97528095D01*
X149042380Y-98099523D01*
X149042380Y-97480476D01*
X148042380Y-96575714D02*
X148042380Y-97051904D01*
X148518571Y-97099523D01*
X148470952Y-97051904D01*
X148423333Y-96956666D01*
X148423333Y-96718571D01*
X148470952Y-96623333D01*
X148518571Y-96575714D01*
X148613809Y-96528095D01*
X148851904Y-96528095D01*
X148947142Y-96575714D01*
X148994761Y-96623333D01*
X149042380Y-96718571D01*
X149042380Y-96956666D01*
X148994761Y-97051904D01*
X148947142Y-97099523D01*
G04 #@! TO.C,R26*
X159202380Y-87637857D02*
X158726190Y-87971190D01*
X159202380Y-88209285D02*
X158202380Y-88209285D01*
X158202380Y-87828333D01*
X158250000Y-87733095D01*
X158297619Y-87685476D01*
X158392857Y-87637857D01*
X158535714Y-87637857D01*
X158630952Y-87685476D01*
X158678571Y-87733095D01*
X158726190Y-87828333D01*
X158726190Y-88209285D01*
X158297619Y-87256904D02*
X158250000Y-87209285D01*
X158202380Y-87114047D01*
X158202380Y-86875952D01*
X158250000Y-86780714D01*
X158297619Y-86733095D01*
X158392857Y-86685476D01*
X158488095Y-86685476D01*
X158630952Y-86733095D01*
X159202380Y-87304523D01*
X159202380Y-86685476D01*
X158202380Y-85828333D02*
X158202380Y-86018809D01*
X158250000Y-86114047D01*
X158297619Y-86161666D01*
X158440476Y-86256904D01*
X158630952Y-86304523D01*
X159011904Y-86304523D01*
X159107142Y-86256904D01*
X159154761Y-86209285D01*
X159202380Y-86114047D01*
X159202380Y-85923571D01*
X159154761Y-85828333D01*
X159107142Y-85780714D01*
X159011904Y-85733095D01*
X158773809Y-85733095D01*
X158678571Y-85780714D01*
X158630952Y-85828333D01*
X158583333Y-85923571D01*
X158583333Y-86114047D01*
X158630952Y-86209285D01*
X158678571Y-86256904D01*
X158773809Y-86304523D01*
G04 #@! TO.C,R27*
X192857380Y-121927857D02*
X192381190Y-122261190D01*
X192857380Y-122499285D02*
X191857380Y-122499285D01*
X191857380Y-122118333D01*
X191905000Y-122023095D01*
X191952619Y-121975476D01*
X192047857Y-121927857D01*
X192190714Y-121927857D01*
X192285952Y-121975476D01*
X192333571Y-122023095D01*
X192381190Y-122118333D01*
X192381190Y-122499285D01*
X191952619Y-121546904D02*
X191905000Y-121499285D01*
X191857380Y-121404047D01*
X191857380Y-121165952D01*
X191905000Y-121070714D01*
X191952619Y-121023095D01*
X192047857Y-120975476D01*
X192143095Y-120975476D01*
X192285952Y-121023095D01*
X192857380Y-121594523D01*
X192857380Y-120975476D01*
X191857380Y-120642142D02*
X191857380Y-119975476D01*
X192857380Y-120404047D01*
G04 #@! TO.C,R28*
X154297142Y-96337380D02*
X153963809Y-95861190D01*
X153725714Y-96337380D02*
X153725714Y-95337380D01*
X154106666Y-95337380D01*
X154201904Y-95385000D01*
X154249523Y-95432619D01*
X154297142Y-95527857D01*
X154297142Y-95670714D01*
X154249523Y-95765952D01*
X154201904Y-95813571D01*
X154106666Y-95861190D01*
X153725714Y-95861190D01*
X154678095Y-95432619D02*
X154725714Y-95385000D01*
X154820952Y-95337380D01*
X155059047Y-95337380D01*
X155154285Y-95385000D01*
X155201904Y-95432619D01*
X155249523Y-95527857D01*
X155249523Y-95623095D01*
X155201904Y-95765952D01*
X154630476Y-96337380D01*
X155249523Y-96337380D01*
X155820952Y-95765952D02*
X155725714Y-95718333D01*
X155678095Y-95670714D01*
X155630476Y-95575476D01*
X155630476Y-95527857D01*
X155678095Y-95432619D01*
X155725714Y-95385000D01*
X155820952Y-95337380D01*
X156011428Y-95337380D01*
X156106666Y-95385000D01*
X156154285Y-95432619D01*
X156201904Y-95527857D01*
X156201904Y-95575476D01*
X156154285Y-95670714D01*
X156106666Y-95718333D01*
X156011428Y-95765952D01*
X155820952Y-95765952D01*
X155725714Y-95813571D01*
X155678095Y-95861190D01*
X155630476Y-95956428D01*
X155630476Y-96146904D01*
X155678095Y-96242142D01*
X155725714Y-96289761D01*
X155820952Y-96337380D01*
X156011428Y-96337380D01*
X156106666Y-96289761D01*
X156154285Y-96242142D01*
X156201904Y-96146904D01*
X156201904Y-95956428D01*
X156154285Y-95861190D01*
X156106666Y-95813571D01*
X156011428Y-95765952D01*
G04 #@! TO.C,R29*
X191122380Y-132722857D02*
X190646190Y-133056190D01*
X191122380Y-133294285D02*
X190122380Y-133294285D01*
X190122380Y-132913333D01*
X190170000Y-132818095D01*
X190217619Y-132770476D01*
X190312857Y-132722857D01*
X190455714Y-132722857D01*
X190550952Y-132770476D01*
X190598571Y-132818095D01*
X190646190Y-132913333D01*
X190646190Y-133294285D01*
X190217619Y-132341904D02*
X190170000Y-132294285D01*
X190122380Y-132199047D01*
X190122380Y-131960952D01*
X190170000Y-131865714D01*
X190217619Y-131818095D01*
X190312857Y-131770476D01*
X190408095Y-131770476D01*
X190550952Y-131818095D01*
X191122380Y-132389523D01*
X191122380Y-131770476D01*
X191122380Y-131294285D02*
X191122380Y-131103809D01*
X191074761Y-131008571D01*
X191027142Y-130960952D01*
X190884285Y-130865714D01*
X190693809Y-130818095D01*
X190312857Y-130818095D01*
X190217619Y-130865714D01*
X190170000Y-130913333D01*
X190122380Y-131008571D01*
X190122380Y-131199047D01*
X190170000Y-131294285D01*
X190217619Y-131341904D01*
X190312857Y-131389523D01*
X190550952Y-131389523D01*
X190646190Y-131341904D01*
X190693809Y-131294285D01*
X190741428Y-131199047D01*
X190741428Y-131008571D01*
X190693809Y-130913333D01*
X190646190Y-130865714D01*
X190550952Y-130818095D01*
G04 #@! TO.C,R7*
X133183333Y-71572380D02*
X132850000Y-71096190D01*
X132611904Y-71572380D02*
X132611904Y-70572380D01*
X132992857Y-70572380D01*
X133088095Y-70620000D01*
X133135714Y-70667619D01*
X133183333Y-70762857D01*
X133183333Y-70905714D01*
X133135714Y-71000952D01*
X133088095Y-71048571D01*
X132992857Y-71096190D01*
X132611904Y-71096190D01*
X133516666Y-70572380D02*
X134183333Y-70572380D01*
X133754761Y-71572380D01*
G04 #@! TO.C,R32*
X161917142Y-125377380D02*
X161583809Y-124901190D01*
X161345714Y-125377380D02*
X161345714Y-124377380D01*
X161726666Y-124377380D01*
X161821904Y-124425000D01*
X161869523Y-124472619D01*
X161917142Y-124567857D01*
X161917142Y-124710714D01*
X161869523Y-124805952D01*
X161821904Y-124853571D01*
X161726666Y-124901190D01*
X161345714Y-124901190D01*
X162250476Y-124377380D02*
X162869523Y-124377380D01*
X162536190Y-124758333D01*
X162679047Y-124758333D01*
X162774285Y-124805952D01*
X162821904Y-124853571D01*
X162869523Y-124948809D01*
X162869523Y-125186904D01*
X162821904Y-125282142D01*
X162774285Y-125329761D01*
X162679047Y-125377380D01*
X162393333Y-125377380D01*
X162298095Y-125329761D01*
X162250476Y-125282142D01*
X163250476Y-124472619D02*
X163298095Y-124425000D01*
X163393333Y-124377380D01*
X163631428Y-124377380D01*
X163726666Y-124425000D01*
X163774285Y-124472619D01*
X163821904Y-124567857D01*
X163821904Y-124663095D01*
X163774285Y-124805952D01*
X163202857Y-125377380D01*
X163821904Y-125377380D01*
G04 #@! TO.C,R34*
X151757142Y-116022380D02*
X151423809Y-115546190D01*
X151185714Y-116022380D02*
X151185714Y-115022380D01*
X151566666Y-115022380D01*
X151661904Y-115070000D01*
X151709523Y-115117619D01*
X151757142Y-115212857D01*
X151757142Y-115355714D01*
X151709523Y-115450952D01*
X151661904Y-115498571D01*
X151566666Y-115546190D01*
X151185714Y-115546190D01*
X152090476Y-115022380D02*
X152709523Y-115022380D01*
X152376190Y-115403333D01*
X152519047Y-115403333D01*
X152614285Y-115450952D01*
X152661904Y-115498571D01*
X152709523Y-115593809D01*
X152709523Y-115831904D01*
X152661904Y-115927142D01*
X152614285Y-115974761D01*
X152519047Y-116022380D01*
X152233333Y-116022380D01*
X152138095Y-115974761D01*
X152090476Y-115927142D01*
X153566666Y-115355714D02*
X153566666Y-116022380D01*
X153328571Y-114974761D02*
X153090476Y-115689047D01*
X153709523Y-115689047D01*
G04 #@! TO.C,R35*
X178422380Y-132722857D02*
X177946190Y-133056190D01*
X178422380Y-133294285D02*
X177422380Y-133294285D01*
X177422380Y-132913333D01*
X177470000Y-132818095D01*
X177517619Y-132770476D01*
X177612857Y-132722857D01*
X177755714Y-132722857D01*
X177850952Y-132770476D01*
X177898571Y-132818095D01*
X177946190Y-132913333D01*
X177946190Y-133294285D01*
X177422380Y-132389523D02*
X177422380Y-131770476D01*
X177803333Y-132103809D01*
X177803333Y-131960952D01*
X177850952Y-131865714D01*
X177898571Y-131818095D01*
X177993809Y-131770476D01*
X178231904Y-131770476D01*
X178327142Y-131818095D01*
X178374761Y-131865714D01*
X178422380Y-131960952D01*
X178422380Y-132246666D01*
X178374761Y-132341904D01*
X178327142Y-132389523D01*
X177422380Y-130865714D02*
X177422380Y-131341904D01*
X177898571Y-131389523D01*
X177850952Y-131341904D01*
X177803333Y-131246666D01*
X177803333Y-131008571D01*
X177850952Y-130913333D01*
X177898571Y-130865714D01*
X177993809Y-130818095D01*
X178231904Y-130818095D01*
X178327142Y-130865714D01*
X178374761Y-130913333D01*
X178422380Y-131008571D01*
X178422380Y-131246666D01*
X178374761Y-131341904D01*
X178327142Y-131389523D01*
G04 #@! TO.C,R36*
X132707142Y-111112380D02*
X132373809Y-110636190D01*
X132135714Y-111112380D02*
X132135714Y-110112380D01*
X132516666Y-110112380D01*
X132611904Y-110160000D01*
X132659523Y-110207619D01*
X132707142Y-110302857D01*
X132707142Y-110445714D01*
X132659523Y-110540952D01*
X132611904Y-110588571D01*
X132516666Y-110636190D01*
X132135714Y-110636190D01*
X133040476Y-110112380D02*
X133659523Y-110112380D01*
X133326190Y-110493333D01*
X133469047Y-110493333D01*
X133564285Y-110540952D01*
X133611904Y-110588571D01*
X133659523Y-110683809D01*
X133659523Y-110921904D01*
X133611904Y-111017142D01*
X133564285Y-111064761D01*
X133469047Y-111112380D01*
X133183333Y-111112380D01*
X133088095Y-111064761D01*
X133040476Y-111017142D01*
X134516666Y-110112380D02*
X134326190Y-110112380D01*
X134230952Y-110160000D01*
X134183333Y-110207619D01*
X134088095Y-110350476D01*
X134040476Y-110540952D01*
X134040476Y-110921904D01*
X134088095Y-111017142D01*
X134135714Y-111064761D01*
X134230952Y-111112380D01*
X134421428Y-111112380D01*
X134516666Y-111064761D01*
X134564285Y-111017142D01*
X134611904Y-110921904D01*
X134611904Y-110683809D01*
X134564285Y-110588571D01*
X134516666Y-110540952D01*
X134421428Y-110493333D01*
X134230952Y-110493333D01*
X134135714Y-110540952D01*
X134088095Y-110588571D01*
X134040476Y-110683809D01*
G04 #@! TO.C,R37*
X126992142Y-120637380D02*
X126658809Y-120161190D01*
X126420714Y-120637380D02*
X126420714Y-119637380D01*
X126801666Y-119637380D01*
X126896904Y-119685000D01*
X126944523Y-119732619D01*
X126992142Y-119827857D01*
X126992142Y-119970714D01*
X126944523Y-120065952D01*
X126896904Y-120113571D01*
X126801666Y-120161190D01*
X126420714Y-120161190D01*
X127325476Y-119637380D02*
X127944523Y-119637380D01*
X127611190Y-120018333D01*
X127754047Y-120018333D01*
X127849285Y-120065952D01*
X127896904Y-120113571D01*
X127944523Y-120208809D01*
X127944523Y-120446904D01*
X127896904Y-120542142D01*
X127849285Y-120589761D01*
X127754047Y-120637380D01*
X127468333Y-120637380D01*
X127373095Y-120589761D01*
X127325476Y-120542142D01*
X128277857Y-119637380D02*
X128944523Y-119637380D01*
X128515952Y-120637380D01*
G04 #@! TO.C,R38*
X158107142Y-117462380D02*
X157773809Y-116986190D01*
X157535714Y-117462380D02*
X157535714Y-116462380D01*
X157916666Y-116462380D01*
X158011904Y-116510000D01*
X158059523Y-116557619D01*
X158107142Y-116652857D01*
X158107142Y-116795714D01*
X158059523Y-116890952D01*
X158011904Y-116938571D01*
X157916666Y-116986190D01*
X157535714Y-116986190D01*
X158440476Y-116462380D02*
X159059523Y-116462380D01*
X158726190Y-116843333D01*
X158869047Y-116843333D01*
X158964285Y-116890952D01*
X159011904Y-116938571D01*
X159059523Y-117033809D01*
X159059523Y-117271904D01*
X159011904Y-117367142D01*
X158964285Y-117414761D01*
X158869047Y-117462380D01*
X158583333Y-117462380D01*
X158488095Y-117414761D01*
X158440476Y-117367142D01*
X159630952Y-116890952D02*
X159535714Y-116843333D01*
X159488095Y-116795714D01*
X159440476Y-116700476D01*
X159440476Y-116652857D01*
X159488095Y-116557619D01*
X159535714Y-116510000D01*
X159630952Y-116462380D01*
X159821428Y-116462380D01*
X159916666Y-116510000D01*
X159964285Y-116557619D01*
X160011904Y-116652857D01*
X160011904Y-116700476D01*
X159964285Y-116795714D01*
X159916666Y-116843333D01*
X159821428Y-116890952D01*
X159630952Y-116890952D01*
X159535714Y-116938571D01*
X159488095Y-116986190D01*
X159440476Y-117081428D01*
X159440476Y-117271904D01*
X159488095Y-117367142D01*
X159535714Y-117414761D01*
X159630952Y-117462380D01*
X159821428Y-117462380D01*
X159916666Y-117414761D01*
X159964285Y-117367142D01*
X160011904Y-117271904D01*
X160011904Y-117081428D01*
X159964285Y-116986190D01*
X159916666Y-116938571D01*
X159821428Y-116890952D01*
G04 #@! TO.C,R40*
X133167380Y-128277857D02*
X132691190Y-128611190D01*
X133167380Y-128849285D02*
X132167380Y-128849285D01*
X132167380Y-128468333D01*
X132215000Y-128373095D01*
X132262619Y-128325476D01*
X132357857Y-128277857D01*
X132500714Y-128277857D01*
X132595952Y-128325476D01*
X132643571Y-128373095D01*
X132691190Y-128468333D01*
X132691190Y-128849285D01*
X132500714Y-127420714D02*
X133167380Y-127420714D01*
X132119761Y-127658809D02*
X132834047Y-127896904D01*
X132834047Y-127277857D01*
X132167380Y-126706428D02*
X132167380Y-126611190D01*
X132215000Y-126515952D01*
X132262619Y-126468333D01*
X132357857Y-126420714D01*
X132548333Y-126373095D01*
X132786428Y-126373095D01*
X132976904Y-126420714D01*
X133072142Y-126468333D01*
X133119761Y-126515952D01*
X133167380Y-126611190D01*
X133167380Y-126706428D01*
X133119761Y-126801666D01*
X133072142Y-126849285D01*
X132976904Y-126896904D01*
X132786428Y-126944523D01*
X132548333Y-126944523D01*
X132357857Y-126896904D01*
X132262619Y-126849285D01*
X132215000Y-126801666D01*
X132167380Y-126706428D01*
G04 #@! TO.C,R41*
X165727142Y-122202380D02*
X165393809Y-121726190D01*
X165155714Y-122202380D02*
X165155714Y-121202380D01*
X165536666Y-121202380D01*
X165631904Y-121250000D01*
X165679523Y-121297619D01*
X165727142Y-121392857D01*
X165727142Y-121535714D01*
X165679523Y-121630952D01*
X165631904Y-121678571D01*
X165536666Y-121726190D01*
X165155714Y-121726190D01*
X166584285Y-121535714D02*
X166584285Y-122202380D01*
X166346190Y-121154761D02*
X166108095Y-121869047D01*
X166727142Y-121869047D01*
X167631904Y-122202380D02*
X167060476Y-122202380D01*
X167346190Y-122202380D02*
X167346190Y-121202380D01*
X167250952Y-121345238D01*
X167155714Y-121440476D01*
X167060476Y-121488095D01*
G04 #@! TO.C,R42*
X184602380Y-98432857D02*
X184126190Y-98766190D01*
X184602380Y-99004285D02*
X183602380Y-99004285D01*
X183602380Y-98623333D01*
X183650000Y-98528095D01*
X183697619Y-98480476D01*
X183792857Y-98432857D01*
X183935714Y-98432857D01*
X184030952Y-98480476D01*
X184078571Y-98528095D01*
X184126190Y-98623333D01*
X184126190Y-99004285D01*
X183935714Y-97575714D02*
X184602380Y-97575714D01*
X183554761Y-97813809D02*
X184269047Y-98051904D01*
X184269047Y-97432857D01*
X183697619Y-97099523D02*
X183650000Y-97051904D01*
X183602380Y-96956666D01*
X183602380Y-96718571D01*
X183650000Y-96623333D01*
X183697619Y-96575714D01*
X183792857Y-96528095D01*
X183888095Y-96528095D01*
X184030952Y-96575714D01*
X184602380Y-97147142D01*
X184602380Y-96528095D01*
G04 #@! TO.C,R31*
X175882380Y-132722857D02*
X175406190Y-133056190D01*
X175882380Y-133294285D02*
X174882380Y-133294285D01*
X174882380Y-132913333D01*
X174930000Y-132818095D01*
X174977619Y-132770476D01*
X175072857Y-132722857D01*
X175215714Y-132722857D01*
X175310952Y-132770476D01*
X175358571Y-132818095D01*
X175406190Y-132913333D01*
X175406190Y-133294285D01*
X174882380Y-132389523D02*
X174882380Y-131770476D01*
X175263333Y-132103809D01*
X175263333Y-131960952D01*
X175310952Y-131865714D01*
X175358571Y-131818095D01*
X175453809Y-131770476D01*
X175691904Y-131770476D01*
X175787142Y-131818095D01*
X175834761Y-131865714D01*
X175882380Y-131960952D01*
X175882380Y-132246666D01*
X175834761Y-132341904D01*
X175787142Y-132389523D01*
X175882380Y-130818095D02*
X175882380Y-131389523D01*
X175882380Y-131103809D02*
X174882380Y-131103809D01*
X175025238Y-131199047D01*
X175120476Y-131294285D01*
X175168095Y-131389523D01*
G04 #@! TO.C,R30*
X180962380Y-132722857D02*
X180486190Y-133056190D01*
X180962380Y-133294285D02*
X179962380Y-133294285D01*
X179962380Y-132913333D01*
X180010000Y-132818095D01*
X180057619Y-132770476D01*
X180152857Y-132722857D01*
X180295714Y-132722857D01*
X180390952Y-132770476D01*
X180438571Y-132818095D01*
X180486190Y-132913333D01*
X180486190Y-133294285D01*
X179962380Y-132389523D02*
X179962380Y-131770476D01*
X180343333Y-132103809D01*
X180343333Y-131960952D01*
X180390952Y-131865714D01*
X180438571Y-131818095D01*
X180533809Y-131770476D01*
X180771904Y-131770476D01*
X180867142Y-131818095D01*
X180914761Y-131865714D01*
X180962380Y-131960952D01*
X180962380Y-132246666D01*
X180914761Y-132341904D01*
X180867142Y-132389523D01*
X179962380Y-131151428D02*
X179962380Y-131056190D01*
X180010000Y-130960952D01*
X180057619Y-130913333D01*
X180152857Y-130865714D01*
X180343333Y-130818095D01*
X180581428Y-130818095D01*
X180771904Y-130865714D01*
X180867142Y-130913333D01*
X180914761Y-130960952D01*
X180962380Y-131056190D01*
X180962380Y-131151428D01*
X180914761Y-131246666D01*
X180867142Y-131294285D01*
X180771904Y-131341904D01*
X180581428Y-131389523D01*
X180343333Y-131389523D01*
X180152857Y-131341904D01*
X180057619Y-131294285D01*
X180010000Y-131246666D01*
X179962380Y-131151428D01*
G04 #@! TO.C,R16*
X192222380Y-125102857D02*
X191746190Y-125436190D01*
X192222380Y-125674285D02*
X191222380Y-125674285D01*
X191222380Y-125293333D01*
X191270000Y-125198095D01*
X191317619Y-125150476D01*
X191412857Y-125102857D01*
X191555714Y-125102857D01*
X191650952Y-125150476D01*
X191698571Y-125198095D01*
X191746190Y-125293333D01*
X191746190Y-125674285D01*
X192222380Y-124150476D02*
X192222380Y-124721904D01*
X192222380Y-124436190D02*
X191222380Y-124436190D01*
X191365238Y-124531428D01*
X191460476Y-124626666D01*
X191508095Y-124721904D01*
X191222380Y-123293333D02*
X191222380Y-123483809D01*
X191270000Y-123579047D01*
X191317619Y-123626666D01*
X191460476Y-123721904D01*
X191650952Y-123769523D01*
X192031904Y-123769523D01*
X192127142Y-123721904D01*
X192174761Y-123674285D01*
X192222380Y-123579047D01*
X192222380Y-123388571D01*
X192174761Y-123293333D01*
X192127142Y-123245714D01*
X192031904Y-123198095D01*
X191793809Y-123198095D01*
X191698571Y-123245714D01*
X191650952Y-123293333D01*
X191603333Y-123388571D01*
X191603333Y-123579047D01*
X191650952Y-123674285D01*
X191698571Y-123721904D01*
X191793809Y-123769523D01*
G04 #@! TO.C,R15*
X128897142Y-85542380D02*
X128563809Y-85066190D01*
X128325714Y-85542380D02*
X128325714Y-84542380D01*
X128706666Y-84542380D01*
X128801904Y-84590000D01*
X128849523Y-84637619D01*
X128897142Y-84732857D01*
X128897142Y-84875714D01*
X128849523Y-84970952D01*
X128801904Y-85018571D01*
X128706666Y-85066190D01*
X128325714Y-85066190D01*
X129849523Y-85542380D02*
X129278095Y-85542380D01*
X129563809Y-85542380D02*
X129563809Y-84542380D01*
X129468571Y-84685238D01*
X129373333Y-84780476D01*
X129278095Y-84828095D01*
X130754285Y-84542380D02*
X130278095Y-84542380D01*
X130230476Y-85018571D01*
X130278095Y-84970952D01*
X130373333Y-84923333D01*
X130611428Y-84923333D01*
X130706666Y-84970952D01*
X130754285Y-85018571D01*
X130801904Y-85113809D01*
X130801904Y-85351904D01*
X130754285Y-85447142D01*
X130706666Y-85494761D01*
X130611428Y-85542380D01*
X130373333Y-85542380D01*
X130278095Y-85494761D01*
X130230476Y-85447142D01*
G04 #@! TO.C,R14*
X187142380Y-113672857D02*
X186666190Y-114006190D01*
X187142380Y-114244285D02*
X186142380Y-114244285D01*
X186142380Y-113863333D01*
X186190000Y-113768095D01*
X186237619Y-113720476D01*
X186332857Y-113672857D01*
X186475714Y-113672857D01*
X186570952Y-113720476D01*
X186618571Y-113768095D01*
X186666190Y-113863333D01*
X186666190Y-114244285D01*
X187142380Y-112720476D02*
X187142380Y-113291904D01*
X187142380Y-113006190D02*
X186142380Y-113006190D01*
X186285238Y-113101428D01*
X186380476Y-113196666D01*
X186428095Y-113291904D01*
X186475714Y-111863333D02*
X187142380Y-111863333D01*
X186094761Y-112101428D02*
X186809047Y-112339523D01*
X186809047Y-111720476D01*
G04 #@! TO.C,R13*
X161917142Y-70302380D02*
X161583809Y-69826190D01*
X161345714Y-70302380D02*
X161345714Y-69302380D01*
X161726666Y-69302380D01*
X161821904Y-69350000D01*
X161869523Y-69397619D01*
X161917142Y-69492857D01*
X161917142Y-69635714D01*
X161869523Y-69730952D01*
X161821904Y-69778571D01*
X161726666Y-69826190D01*
X161345714Y-69826190D01*
X162869523Y-70302380D02*
X162298095Y-70302380D01*
X162583809Y-70302380D02*
X162583809Y-69302380D01*
X162488571Y-69445238D01*
X162393333Y-69540476D01*
X162298095Y-69588095D01*
X163202857Y-69302380D02*
X163821904Y-69302380D01*
X163488571Y-69683333D01*
X163631428Y-69683333D01*
X163726666Y-69730952D01*
X163774285Y-69778571D01*
X163821904Y-69873809D01*
X163821904Y-70111904D01*
X163774285Y-70207142D01*
X163726666Y-70254761D01*
X163631428Y-70302380D01*
X163345714Y-70302380D01*
X163250476Y-70254761D01*
X163202857Y-70207142D01*
G04 #@! TO.C,R12*
X197132380Y-106052857D02*
X196656190Y-106386190D01*
X197132380Y-106624285D02*
X196132380Y-106624285D01*
X196132380Y-106243333D01*
X196180000Y-106148095D01*
X196227619Y-106100476D01*
X196322857Y-106052857D01*
X196465714Y-106052857D01*
X196560952Y-106100476D01*
X196608571Y-106148095D01*
X196656190Y-106243333D01*
X196656190Y-106624285D01*
X197132380Y-105100476D02*
X197132380Y-105671904D01*
X197132380Y-105386190D02*
X196132380Y-105386190D01*
X196275238Y-105481428D01*
X196370476Y-105576666D01*
X196418095Y-105671904D01*
X196227619Y-104719523D02*
X196180000Y-104671904D01*
X196132380Y-104576666D01*
X196132380Y-104338571D01*
X196180000Y-104243333D01*
X196227619Y-104195714D01*
X196322857Y-104148095D01*
X196418095Y-104148095D01*
X196560952Y-104195714D01*
X197132380Y-104767142D01*
X197132380Y-104148095D01*
G04 #@! TO.C,R11*
X193667142Y-116022380D02*
X193333809Y-115546190D01*
X193095714Y-116022380D02*
X193095714Y-115022380D01*
X193476666Y-115022380D01*
X193571904Y-115070000D01*
X193619523Y-115117619D01*
X193667142Y-115212857D01*
X193667142Y-115355714D01*
X193619523Y-115450952D01*
X193571904Y-115498571D01*
X193476666Y-115546190D01*
X193095714Y-115546190D01*
X194619523Y-116022380D02*
X194048095Y-116022380D01*
X194333809Y-116022380D02*
X194333809Y-115022380D01*
X194238571Y-115165238D01*
X194143333Y-115260476D01*
X194048095Y-115308095D01*
X195571904Y-116022380D02*
X195000476Y-116022380D01*
X195286190Y-116022380D02*
X195286190Y-115022380D01*
X195190952Y-115165238D01*
X195095714Y-115260476D01*
X195000476Y-115308095D01*
G04 #@! TO.C,R10*
X144132380Y-89542857D02*
X143656190Y-89876190D01*
X144132380Y-90114285D02*
X143132380Y-90114285D01*
X143132380Y-89733333D01*
X143180000Y-89638095D01*
X143227619Y-89590476D01*
X143322857Y-89542857D01*
X143465714Y-89542857D01*
X143560952Y-89590476D01*
X143608571Y-89638095D01*
X143656190Y-89733333D01*
X143656190Y-90114285D01*
X144132380Y-88590476D02*
X144132380Y-89161904D01*
X144132380Y-88876190D02*
X143132380Y-88876190D01*
X143275238Y-88971428D01*
X143370476Y-89066666D01*
X143418095Y-89161904D01*
X143132380Y-87971428D02*
X143132380Y-87876190D01*
X143180000Y-87780952D01*
X143227619Y-87733333D01*
X143322857Y-87685714D01*
X143513333Y-87638095D01*
X143751428Y-87638095D01*
X143941904Y-87685714D01*
X144037142Y-87733333D01*
X144084761Y-87780952D01*
X144132380Y-87876190D01*
X144132380Y-87971428D01*
X144084761Y-88066666D01*
X144037142Y-88114285D01*
X143941904Y-88161904D01*
X143751428Y-88209523D01*
X143513333Y-88209523D01*
X143322857Y-88161904D01*
X143227619Y-88114285D01*
X143180000Y-88066666D01*
X143132380Y-87971428D01*
G04 #@! TO.C,R9*
X141438333Y-129992380D02*
X141105000Y-129516190D01*
X140866904Y-129992380D02*
X140866904Y-128992380D01*
X141247857Y-128992380D01*
X141343095Y-129040000D01*
X141390714Y-129087619D01*
X141438333Y-129182857D01*
X141438333Y-129325714D01*
X141390714Y-129420952D01*
X141343095Y-129468571D01*
X141247857Y-129516190D01*
X140866904Y-129516190D01*
X141914523Y-129992380D02*
X142105000Y-129992380D01*
X142200238Y-129944761D01*
X142247857Y-129897142D01*
X142343095Y-129754285D01*
X142390714Y-129563809D01*
X142390714Y-129182857D01*
X142343095Y-129087619D01*
X142295476Y-129040000D01*
X142200238Y-128992380D01*
X142009761Y-128992380D01*
X141914523Y-129040000D01*
X141866904Y-129087619D01*
X141819285Y-129182857D01*
X141819285Y-129420952D01*
X141866904Y-129516190D01*
X141914523Y-129563809D01*
X142009761Y-129611428D01*
X142200238Y-129611428D01*
X142295476Y-129563809D01*
X142343095Y-129516190D01*
X142390714Y-129420952D01*
G04 #@! TO.C,R20*
X165552380Y-92082857D02*
X165076190Y-92416190D01*
X165552380Y-92654285D02*
X164552380Y-92654285D01*
X164552380Y-92273333D01*
X164600000Y-92178095D01*
X164647619Y-92130476D01*
X164742857Y-92082857D01*
X164885714Y-92082857D01*
X164980952Y-92130476D01*
X165028571Y-92178095D01*
X165076190Y-92273333D01*
X165076190Y-92654285D01*
X164647619Y-91701904D02*
X164600000Y-91654285D01*
X164552380Y-91559047D01*
X164552380Y-91320952D01*
X164600000Y-91225714D01*
X164647619Y-91178095D01*
X164742857Y-91130476D01*
X164838095Y-91130476D01*
X164980952Y-91178095D01*
X165552380Y-91749523D01*
X165552380Y-91130476D01*
X164552380Y-90511428D02*
X164552380Y-90416190D01*
X164600000Y-90320952D01*
X164647619Y-90273333D01*
X164742857Y-90225714D01*
X164933333Y-90178095D01*
X165171428Y-90178095D01*
X165361904Y-90225714D01*
X165457142Y-90273333D01*
X165504761Y-90320952D01*
X165552380Y-90416190D01*
X165552380Y-90511428D01*
X165504761Y-90606666D01*
X165457142Y-90654285D01*
X165361904Y-90701904D01*
X165171428Y-90749523D01*
X164933333Y-90749523D01*
X164742857Y-90701904D01*
X164647619Y-90654285D01*
X164600000Y-90606666D01*
X164552380Y-90511428D01*
G04 #@! TO.C,R17*
X165552380Y-98432857D02*
X165076190Y-98766190D01*
X165552380Y-99004285D02*
X164552380Y-99004285D01*
X164552380Y-98623333D01*
X164600000Y-98528095D01*
X164647619Y-98480476D01*
X164742857Y-98432857D01*
X164885714Y-98432857D01*
X164980952Y-98480476D01*
X165028571Y-98528095D01*
X165076190Y-98623333D01*
X165076190Y-99004285D01*
X165552380Y-97480476D02*
X165552380Y-98051904D01*
X165552380Y-97766190D02*
X164552380Y-97766190D01*
X164695238Y-97861428D01*
X164790476Y-97956666D01*
X164838095Y-98051904D01*
X164552380Y-97147142D02*
X164552380Y-96480476D01*
X165552380Y-96909047D01*
G04 #@! TO.C,R6*
X133802380Y-78906666D02*
X133326190Y-79240000D01*
X133802380Y-79478095D02*
X132802380Y-79478095D01*
X132802380Y-79097142D01*
X132850000Y-79001904D01*
X132897619Y-78954285D01*
X132992857Y-78906666D01*
X133135714Y-78906666D01*
X133230952Y-78954285D01*
X133278571Y-79001904D01*
X133326190Y-79097142D01*
X133326190Y-79478095D01*
X132802380Y-78049523D02*
X132802380Y-78240000D01*
X132850000Y-78335238D01*
X132897619Y-78382857D01*
X133040476Y-78478095D01*
X133230952Y-78525714D01*
X133611904Y-78525714D01*
X133707142Y-78478095D01*
X133754761Y-78430476D01*
X133802380Y-78335238D01*
X133802380Y-78144761D01*
X133754761Y-78049523D01*
X133707142Y-78001904D01*
X133611904Y-77954285D01*
X133373809Y-77954285D01*
X133278571Y-78001904D01*
X133230952Y-78049523D01*
X133183333Y-78144761D01*
X133183333Y-78335238D01*
X133230952Y-78430476D01*
X133278571Y-78478095D01*
X133373809Y-78525714D01*
G04 #@! TO.C,R5*
X117292380Y-78906666D02*
X116816190Y-79240000D01*
X117292380Y-79478095D02*
X116292380Y-79478095D01*
X116292380Y-79097142D01*
X116340000Y-79001904D01*
X116387619Y-78954285D01*
X116482857Y-78906666D01*
X116625714Y-78906666D01*
X116720952Y-78954285D01*
X116768571Y-79001904D01*
X116816190Y-79097142D01*
X116816190Y-79478095D01*
X116292380Y-78001904D02*
X116292380Y-78478095D01*
X116768571Y-78525714D01*
X116720952Y-78478095D01*
X116673333Y-78382857D01*
X116673333Y-78144761D01*
X116720952Y-78049523D01*
X116768571Y-78001904D01*
X116863809Y-77954285D01*
X117101904Y-77954285D01*
X117197142Y-78001904D01*
X117244761Y-78049523D01*
X117292380Y-78144761D01*
X117292380Y-78382857D01*
X117244761Y-78478095D01*
X117197142Y-78525714D01*
G04 #@! TO.C,R3*
X142692380Y-78906666D02*
X142216190Y-79240000D01*
X142692380Y-79478095D02*
X141692380Y-79478095D01*
X141692380Y-79097142D01*
X141740000Y-79001904D01*
X141787619Y-78954285D01*
X141882857Y-78906666D01*
X142025714Y-78906666D01*
X142120952Y-78954285D01*
X142168571Y-79001904D01*
X142216190Y-79097142D01*
X142216190Y-79478095D01*
X141692380Y-78573333D02*
X141692380Y-77954285D01*
X142073333Y-78287619D01*
X142073333Y-78144761D01*
X142120952Y-78049523D01*
X142168571Y-78001904D01*
X142263809Y-77954285D01*
X142501904Y-77954285D01*
X142597142Y-78001904D01*
X142644761Y-78049523D01*
X142692380Y-78144761D01*
X142692380Y-78430476D01*
X142644761Y-78525714D01*
X142597142Y-78573333D01*
G04 #@! TO.C,R2*
X117292380Y-82716666D02*
X116816190Y-83050000D01*
X117292380Y-83288095D02*
X116292380Y-83288095D01*
X116292380Y-82907142D01*
X116340000Y-82811904D01*
X116387619Y-82764285D01*
X116482857Y-82716666D01*
X116625714Y-82716666D01*
X116720952Y-82764285D01*
X116768571Y-82811904D01*
X116816190Y-82907142D01*
X116816190Y-83288095D01*
X116387619Y-82335714D02*
X116340000Y-82288095D01*
X116292380Y-82192857D01*
X116292380Y-81954761D01*
X116340000Y-81859523D01*
X116387619Y-81811904D01*
X116482857Y-81764285D01*
X116578095Y-81764285D01*
X116720952Y-81811904D01*
X117292380Y-82383333D01*
X117292380Y-81764285D01*
G04 #@! TO.C,R1*
X112863333Y-71572380D02*
X112530000Y-71096190D01*
X112291904Y-71572380D02*
X112291904Y-70572380D01*
X112672857Y-70572380D01*
X112768095Y-70620000D01*
X112815714Y-70667619D01*
X112863333Y-70762857D01*
X112863333Y-70905714D01*
X112815714Y-71000952D01*
X112768095Y-71048571D01*
X112672857Y-71096190D01*
X112291904Y-71096190D01*
X113815714Y-71572380D02*
X113244285Y-71572380D01*
X113530000Y-71572380D02*
X113530000Y-70572380D01*
X113434761Y-70715238D01*
X113339523Y-70810476D01*
X113244285Y-70858095D01*
G04 #@! TO.C,R18*
X183502380Y-132722857D02*
X183026190Y-133056190D01*
X183502380Y-133294285D02*
X182502380Y-133294285D01*
X182502380Y-132913333D01*
X182550000Y-132818095D01*
X182597619Y-132770476D01*
X182692857Y-132722857D01*
X182835714Y-132722857D01*
X182930952Y-132770476D01*
X182978571Y-132818095D01*
X183026190Y-132913333D01*
X183026190Y-133294285D01*
X183502380Y-131770476D02*
X183502380Y-132341904D01*
X183502380Y-132056190D02*
X182502380Y-132056190D01*
X182645238Y-132151428D01*
X182740476Y-132246666D01*
X182788095Y-132341904D01*
X182930952Y-131199047D02*
X182883333Y-131294285D01*
X182835714Y-131341904D01*
X182740476Y-131389523D01*
X182692857Y-131389523D01*
X182597619Y-131341904D01*
X182550000Y-131294285D01*
X182502380Y-131199047D01*
X182502380Y-131008571D01*
X182550000Y-130913333D01*
X182597619Y-130865714D01*
X182692857Y-130818095D01*
X182740476Y-130818095D01*
X182835714Y-130865714D01*
X182883333Y-130913333D01*
X182930952Y-131008571D01*
X182930952Y-131199047D01*
X182978571Y-131294285D01*
X183026190Y-131341904D01*
X183121428Y-131389523D01*
X183311904Y-131389523D01*
X183407142Y-131341904D01*
X183454761Y-131294285D01*
X183502380Y-131199047D01*
X183502380Y-131008571D01*
X183454761Y-130913333D01*
X183407142Y-130865714D01*
X183311904Y-130818095D01*
X183121428Y-130818095D01*
X183026190Y-130865714D01*
X182978571Y-130913333D01*
X182930952Y-131008571D01*
G04 #@! TO.C,R19*
X164917380Y-95257857D02*
X164441190Y-95591190D01*
X164917380Y-95829285D02*
X163917380Y-95829285D01*
X163917380Y-95448333D01*
X163965000Y-95353095D01*
X164012619Y-95305476D01*
X164107857Y-95257857D01*
X164250714Y-95257857D01*
X164345952Y-95305476D01*
X164393571Y-95353095D01*
X164441190Y-95448333D01*
X164441190Y-95829285D01*
X164917380Y-94305476D02*
X164917380Y-94876904D01*
X164917380Y-94591190D02*
X163917380Y-94591190D01*
X164060238Y-94686428D01*
X164155476Y-94781666D01*
X164203095Y-94876904D01*
X164917380Y-93829285D02*
X164917380Y-93638809D01*
X164869761Y-93543571D01*
X164822142Y-93495952D01*
X164679285Y-93400714D01*
X164488809Y-93353095D01*
X164107857Y-93353095D01*
X164012619Y-93400714D01*
X163965000Y-93448333D01*
X163917380Y-93543571D01*
X163917380Y-93734047D01*
X163965000Y-93829285D01*
X164012619Y-93876904D01*
X164107857Y-93924523D01*
X164345952Y-93924523D01*
X164441190Y-93876904D01*
X164488809Y-93829285D01*
X164536428Y-93734047D01*
X164536428Y-93543571D01*
X164488809Y-93448333D01*
X164441190Y-93400714D01*
X164345952Y-93353095D01*
G04 #@! TO.C,R21*
X169537142Y-95702380D02*
X169203809Y-95226190D01*
X168965714Y-95702380D02*
X168965714Y-94702380D01*
X169346666Y-94702380D01*
X169441904Y-94750000D01*
X169489523Y-94797619D01*
X169537142Y-94892857D01*
X169537142Y-95035714D01*
X169489523Y-95130952D01*
X169441904Y-95178571D01*
X169346666Y-95226190D01*
X168965714Y-95226190D01*
X169918095Y-94797619D02*
X169965714Y-94750000D01*
X170060952Y-94702380D01*
X170299047Y-94702380D01*
X170394285Y-94750000D01*
X170441904Y-94797619D01*
X170489523Y-94892857D01*
X170489523Y-94988095D01*
X170441904Y-95130952D01*
X169870476Y-95702380D01*
X170489523Y-95702380D01*
X171441904Y-95702380D02*
X170870476Y-95702380D01*
X171156190Y-95702380D02*
X171156190Y-94702380D01*
X171060952Y-94845238D01*
X170965714Y-94940476D01*
X170870476Y-94988095D01*
G04 #@! TO.C,C1*
X122983333Y-75287142D02*
X122935714Y-75334761D01*
X122792857Y-75382380D01*
X122697619Y-75382380D01*
X122554761Y-75334761D01*
X122459523Y-75239523D01*
X122411904Y-75144285D01*
X122364285Y-74953809D01*
X122364285Y-74810952D01*
X122411904Y-74620476D01*
X122459523Y-74525238D01*
X122554761Y-74430000D01*
X122697619Y-74382380D01*
X122792857Y-74382380D01*
X122935714Y-74430000D01*
X122983333Y-74477619D01*
X123935714Y-75382380D02*
X123364285Y-75382380D01*
X123650000Y-75382380D02*
X123650000Y-74382380D01*
X123554761Y-74525238D01*
X123459523Y-74620476D01*
X123364285Y-74668095D01*
G04 #@! TO.C,C2*
X127397142Y-91606666D02*
X127444761Y-91654285D01*
X127492380Y-91797142D01*
X127492380Y-91892380D01*
X127444761Y-92035238D01*
X127349523Y-92130476D01*
X127254285Y-92178095D01*
X127063809Y-92225714D01*
X126920952Y-92225714D01*
X126730476Y-92178095D01*
X126635238Y-92130476D01*
X126540000Y-92035238D01*
X126492380Y-91892380D01*
X126492380Y-91797142D01*
X126540000Y-91654285D01*
X126587619Y-91606666D01*
X126587619Y-91225714D02*
X126540000Y-91178095D01*
X126492380Y-91082857D01*
X126492380Y-90844761D01*
X126540000Y-90749523D01*
X126587619Y-90701904D01*
X126682857Y-90654285D01*
X126778095Y-90654285D01*
X126920952Y-90701904D01*
X127492380Y-91273333D01*
X127492380Y-90654285D01*
G04 #@! TO.C,C3*
X176323333Y-93107142D02*
X176275714Y-93154761D01*
X176132857Y-93202380D01*
X176037619Y-93202380D01*
X175894761Y-93154761D01*
X175799523Y-93059523D01*
X175751904Y-92964285D01*
X175704285Y-92773809D01*
X175704285Y-92630952D01*
X175751904Y-92440476D01*
X175799523Y-92345238D01*
X175894761Y-92250000D01*
X176037619Y-92202380D01*
X176132857Y-92202380D01*
X176275714Y-92250000D01*
X176323333Y-92297619D01*
X176656666Y-92202380D02*
X177275714Y-92202380D01*
X176942380Y-92583333D01*
X177085238Y-92583333D01*
X177180476Y-92630952D01*
X177228095Y-92678571D01*
X177275714Y-92773809D01*
X177275714Y-93011904D01*
X177228095Y-93107142D01*
X177180476Y-93154761D01*
X177085238Y-93202380D01*
X176799523Y-93202380D01*
X176704285Y-93154761D01*
X176656666Y-93107142D01*
G04 #@! TO.C,C4*
X188952142Y-78271666D02*
X188999761Y-78319285D01*
X189047380Y-78462142D01*
X189047380Y-78557380D01*
X188999761Y-78700238D01*
X188904523Y-78795476D01*
X188809285Y-78843095D01*
X188618809Y-78890714D01*
X188475952Y-78890714D01*
X188285476Y-78843095D01*
X188190238Y-78795476D01*
X188095000Y-78700238D01*
X188047380Y-78557380D01*
X188047380Y-78462142D01*
X188095000Y-78319285D01*
X188142619Y-78271666D01*
X188380714Y-77414523D02*
X189047380Y-77414523D01*
X187999761Y-77652619D02*
X188714047Y-77890714D01*
X188714047Y-77271666D01*
G04 #@! TO.C,C5*
X129897142Y-72556666D02*
X129944761Y-72604285D01*
X129992380Y-72747142D01*
X129992380Y-72842380D01*
X129944761Y-72985238D01*
X129849523Y-73080476D01*
X129754285Y-73128095D01*
X129563809Y-73175714D01*
X129420952Y-73175714D01*
X129230476Y-73128095D01*
X129135238Y-73080476D01*
X129040000Y-72985238D01*
X128992380Y-72842380D01*
X128992380Y-72747142D01*
X129040000Y-72604285D01*
X129087619Y-72556666D01*
X128992380Y-71651904D02*
X128992380Y-72128095D01*
X129468571Y-72175714D01*
X129420952Y-72128095D01*
X129373333Y-72032857D01*
X129373333Y-71794761D01*
X129420952Y-71699523D01*
X129468571Y-71651904D01*
X129563809Y-71604285D01*
X129801904Y-71604285D01*
X129897142Y-71651904D01*
X129944761Y-71699523D01*
X129992380Y-71794761D01*
X129992380Y-72032857D01*
X129944761Y-72128095D01*
X129897142Y-72175714D01*
G04 #@! TO.C,C6*
X116662142Y-131651666D02*
X116709761Y-131699285D01*
X116757380Y-131842142D01*
X116757380Y-131937380D01*
X116709761Y-132080238D01*
X116614523Y-132175476D01*
X116519285Y-132223095D01*
X116328809Y-132270714D01*
X116185952Y-132270714D01*
X115995476Y-132223095D01*
X115900238Y-132175476D01*
X115805000Y-132080238D01*
X115757380Y-131937380D01*
X115757380Y-131842142D01*
X115805000Y-131699285D01*
X115852619Y-131651666D01*
X115757380Y-130794523D02*
X115757380Y-130985000D01*
X115805000Y-131080238D01*
X115852619Y-131127857D01*
X115995476Y-131223095D01*
X116185952Y-131270714D01*
X116566904Y-131270714D01*
X116662142Y-131223095D01*
X116709761Y-131175476D01*
X116757380Y-131080238D01*
X116757380Y-130889761D01*
X116709761Y-130794523D01*
X116662142Y-130746904D01*
X116566904Y-130699285D01*
X116328809Y-130699285D01*
X116233571Y-130746904D01*
X116185952Y-130794523D01*
X116138333Y-130889761D01*
X116138333Y-131080238D01*
X116185952Y-131175476D01*
X116233571Y-131223095D01*
X116328809Y-131270714D01*
G04 #@! TO.C,C7*
X190928333Y-84912142D02*
X190880714Y-84959761D01*
X190737857Y-85007380D01*
X190642619Y-85007380D01*
X190499761Y-84959761D01*
X190404523Y-84864523D01*
X190356904Y-84769285D01*
X190309285Y-84578809D01*
X190309285Y-84435952D01*
X190356904Y-84245476D01*
X190404523Y-84150238D01*
X190499761Y-84055000D01*
X190642619Y-84007380D01*
X190737857Y-84007380D01*
X190880714Y-84055000D01*
X190928333Y-84102619D01*
X191261666Y-84007380D02*
X191928333Y-84007380D01*
X191499761Y-85007380D01*
G04 #@! TO.C,C8*
X176403333Y-98782142D02*
X176355714Y-98829761D01*
X176212857Y-98877380D01*
X176117619Y-98877380D01*
X175974761Y-98829761D01*
X175879523Y-98734523D01*
X175831904Y-98639285D01*
X175784285Y-98448809D01*
X175784285Y-98305952D01*
X175831904Y-98115476D01*
X175879523Y-98020238D01*
X175974761Y-97925000D01*
X176117619Y-97877380D01*
X176212857Y-97877380D01*
X176355714Y-97925000D01*
X176403333Y-97972619D01*
X176974761Y-98305952D02*
X176879523Y-98258333D01*
X176831904Y-98210714D01*
X176784285Y-98115476D01*
X176784285Y-98067857D01*
X176831904Y-97972619D01*
X176879523Y-97925000D01*
X176974761Y-97877380D01*
X177165238Y-97877380D01*
X177260476Y-97925000D01*
X177308095Y-97972619D01*
X177355714Y-98067857D01*
X177355714Y-98115476D01*
X177308095Y-98210714D01*
X177260476Y-98258333D01*
X177165238Y-98305952D01*
X176974761Y-98305952D01*
X176879523Y-98353571D01*
X176831904Y-98401190D01*
X176784285Y-98496428D01*
X176784285Y-98686904D01*
X176831904Y-98782142D01*
X176879523Y-98829761D01*
X176974761Y-98877380D01*
X177165238Y-98877380D01*
X177260476Y-98829761D01*
X177308095Y-98782142D01*
X177355714Y-98686904D01*
X177355714Y-98496428D01*
X177308095Y-98401190D01*
X177260476Y-98353571D01*
X177165238Y-98305952D01*
G04 #@! TO.C,C9*
X178863333Y-110887142D02*
X178815714Y-110934761D01*
X178672857Y-110982380D01*
X178577619Y-110982380D01*
X178434761Y-110934761D01*
X178339523Y-110839523D01*
X178291904Y-110744285D01*
X178244285Y-110553809D01*
X178244285Y-110410952D01*
X178291904Y-110220476D01*
X178339523Y-110125238D01*
X178434761Y-110030000D01*
X178577619Y-109982380D01*
X178672857Y-109982380D01*
X178815714Y-110030000D01*
X178863333Y-110077619D01*
X179339523Y-110982380D02*
X179530000Y-110982380D01*
X179625238Y-110934761D01*
X179672857Y-110887142D01*
X179768095Y-110744285D01*
X179815714Y-110553809D01*
X179815714Y-110172857D01*
X179768095Y-110077619D01*
X179720476Y-110030000D01*
X179625238Y-109982380D01*
X179434761Y-109982380D01*
X179339523Y-110030000D01*
X179291904Y-110077619D01*
X179244285Y-110172857D01*
X179244285Y-110410952D01*
X179291904Y-110506190D01*
X179339523Y-110553809D01*
X179434761Y-110601428D01*
X179625238Y-110601428D01*
X179720476Y-110553809D01*
X179768095Y-110506190D01*
X179815714Y-110410952D01*
G04 #@! TO.C,C10*
X167957142Y-107282857D02*
X168004761Y-107330476D01*
X168052380Y-107473333D01*
X168052380Y-107568571D01*
X168004761Y-107711428D01*
X167909523Y-107806666D01*
X167814285Y-107854285D01*
X167623809Y-107901904D01*
X167480952Y-107901904D01*
X167290476Y-107854285D01*
X167195238Y-107806666D01*
X167100000Y-107711428D01*
X167052380Y-107568571D01*
X167052380Y-107473333D01*
X167100000Y-107330476D01*
X167147619Y-107282857D01*
X168052380Y-106330476D02*
X168052380Y-106901904D01*
X168052380Y-106616190D02*
X167052380Y-106616190D01*
X167195238Y-106711428D01*
X167290476Y-106806666D01*
X167338095Y-106901904D01*
X167052380Y-105711428D02*
X167052380Y-105616190D01*
X167100000Y-105520952D01*
X167147619Y-105473333D01*
X167242857Y-105425714D01*
X167433333Y-105378095D01*
X167671428Y-105378095D01*
X167861904Y-105425714D01*
X167957142Y-105473333D01*
X168004761Y-105520952D01*
X168052380Y-105616190D01*
X168052380Y-105711428D01*
X168004761Y-105806666D01*
X167957142Y-105854285D01*
X167861904Y-105901904D01*
X167671428Y-105949523D01*
X167433333Y-105949523D01*
X167242857Y-105901904D01*
X167147619Y-105854285D01*
X167100000Y-105806666D01*
X167052380Y-105711428D01*
G04 #@! TO.C,C11*
X145732142Y-107282857D02*
X145779761Y-107330476D01*
X145827380Y-107473333D01*
X145827380Y-107568571D01*
X145779761Y-107711428D01*
X145684523Y-107806666D01*
X145589285Y-107854285D01*
X145398809Y-107901904D01*
X145255952Y-107901904D01*
X145065476Y-107854285D01*
X144970238Y-107806666D01*
X144875000Y-107711428D01*
X144827380Y-107568571D01*
X144827380Y-107473333D01*
X144875000Y-107330476D01*
X144922619Y-107282857D01*
X145827380Y-106330476D02*
X145827380Y-106901904D01*
X145827380Y-106616190D02*
X144827380Y-106616190D01*
X144970238Y-106711428D01*
X145065476Y-106806666D01*
X145113095Y-106901904D01*
X145827380Y-105378095D02*
X145827380Y-105949523D01*
X145827380Y-105663809D02*
X144827380Y-105663809D01*
X144970238Y-105759047D01*
X145065476Y-105854285D01*
X145113095Y-105949523D01*
G04 #@! TO.C,C12*
X129532142Y-98187142D02*
X129484523Y-98234761D01*
X129341666Y-98282380D01*
X129246428Y-98282380D01*
X129103571Y-98234761D01*
X129008333Y-98139523D01*
X128960714Y-98044285D01*
X128913095Y-97853809D01*
X128913095Y-97710952D01*
X128960714Y-97520476D01*
X129008333Y-97425238D01*
X129103571Y-97330000D01*
X129246428Y-97282380D01*
X129341666Y-97282380D01*
X129484523Y-97330000D01*
X129532142Y-97377619D01*
X130484523Y-98282380D02*
X129913095Y-98282380D01*
X130198809Y-98282380D02*
X130198809Y-97282380D01*
X130103571Y-97425238D01*
X130008333Y-97520476D01*
X129913095Y-97568095D01*
X130865476Y-97377619D02*
X130913095Y-97330000D01*
X131008333Y-97282380D01*
X131246428Y-97282380D01*
X131341666Y-97330000D01*
X131389285Y-97377619D01*
X131436904Y-97472857D01*
X131436904Y-97568095D01*
X131389285Y-97710952D01*
X130817857Y-98282380D01*
X131436904Y-98282380D01*
G04 #@! TO.C,C13*
X137787142Y-107672142D02*
X137739523Y-107719761D01*
X137596666Y-107767380D01*
X137501428Y-107767380D01*
X137358571Y-107719761D01*
X137263333Y-107624523D01*
X137215714Y-107529285D01*
X137168095Y-107338809D01*
X137168095Y-107195952D01*
X137215714Y-107005476D01*
X137263333Y-106910238D01*
X137358571Y-106815000D01*
X137501428Y-106767380D01*
X137596666Y-106767380D01*
X137739523Y-106815000D01*
X137787142Y-106862619D01*
X138739523Y-107767380D02*
X138168095Y-107767380D01*
X138453809Y-107767380D02*
X138453809Y-106767380D01*
X138358571Y-106910238D01*
X138263333Y-107005476D01*
X138168095Y-107053095D01*
X139072857Y-106767380D02*
X139691904Y-106767380D01*
X139358571Y-107148333D01*
X139501428Y-107148333D01*
X139596666Y-107195952D01*
X139644285Y-107243571D01*
X139691904Y-107338809D01*
X139691904Y-107576904D01*
X139644285Y-107672142D01*
X139596666Y-107719761D01*
X139501428Y-107767380D01*
X139215714Y-107767380D01*
X139120476Y-107719761D01*
X139072857Y-107672142D01*
G04 #@! TO.C,D1*
X150391904Y-77922380D02*
X150391904Y-76922380D01*
X150630000Y-76922380D01*
X150772857Y-76970000D01*
X150868095Y-77065238D01*
X150915714Y-77160476D01*
X150963333Y-77350952D01*
X150963333Y-77493809D01*
X150915714Y-77684285D01*
X150868095Y-77779523D01*
X150772857Y-77874761D01*
X150630000Y-77922380D01*
X150391904Y-77922380D01*
X151915714Y-77922380D02*
X151344285Y-77922380D01*
X151630000Y-77922380D02*
X151630000Y-76922380D01*
X151534761Y-77065238D01*
X151439523Y-77160476D01*
X151344285Y-77208095D01*
X154678095Y-79722380D02*
X154678095Y-78722380D01*
X155249523Y-79722380D02*
X154820952Y-79150952D01*
X155249523Y-78722380D02*
X154678095Y-79293809D01*
G04 #@! TO.C,D2*
X150391904Y-83002380D02*
X150391904Y-82002380D01*
X150630000Y-82002380D01*
X150772857Y-82050000D01*
X150868095Y-82145238D01*
X150915714Y-82240476D01*
X150963333Y-82430952D01*
X150963333Y-82573809D01*
X150915714Y-82764285D01*
X150868095Y-82859523D01*
X150772857Y-82954761D01*
X150630000Y-83002380D01*
X150391904Y-83002380D01*
X151344285Y-82097619D02*
X151391904Y-82050000D01*
X151487142Y-82002380D01*
X151725238Y-82002380D01*
X151820476Y-82050000D01*
X151868095Y-82097619D01*
X151915714Y-82192857D01*
X151915714Y-82288095D01*
X151868095Y-82430952D01*
X151296666Y-83002380D01*
X151915714Y-83002380D01*
X147058095Y-81202380D02*
X147058095Y-80202380D01*
X147629523Y-81202380D02*
X147200952Y-80630952D01*
X147629523Y-80202380D02*
X147058095Y-80773809D01*
G04 #@! TO.C,J2*
X152062380Y-144478333D02*
X152776666Y-144478333D01*
X152919523Y-144525952D01*
X153014761Y-144621190D01*
X153062380Y-144764047D01*
X153062380Y-144859285D01*
X152157619Y-144049761D02*
X152110000Y-144002142D01*
X152062380Y-143906904D01*
X152062380Y-143668809D01*
X152110000Y-143573571D01*
X152157619Y-143525952D01*
X152252857Y-143478333D01*
X152348095Y-143478333D01*
X152490952Y-143525952D01*
X153062380Y-144097380D01*
X153062380Y-143478333D01*
G04 #@! TO.C,J11*
X110950476Y-99992380D02*
X110950476Y-100706666D01*
X110902857Y-100849523D01*
X110807619Y-100944761D01*
X110664761Y-100992380D01*
X110569523Y-100992380D01*
X111950476Y-100992380D02*
X111379047Y-100992380D01*
X111664761Y-100992380D02*
X111664761Y-99992380D01*
X111569523Y-100135238D01*
X111474285Y-100230476D01*
X111379047Y-100278095D01*
X112902857Y-100992380D02*
X112331428Y-100992380D01*
X112617142Y-100992380D02*
X112617142Y-99992380D01*
X112521904Y-100135238D01*
X112426666Y-100230476D01*
X112331428Y-100278095D01*
G04 #@! TO.C,Q1*
X144117619Y-85185238D02*
X144070000Y-85280476D01*
X143974761Y-85375714D01*
X143831904Y-85518571D01*
X143784285Y-85613809D01*
X143784285Y-85709047D01*
X144022380Y-85661428D02*
X143974761Y-85756666D01*
X143879523Y-85851904D01*
X143689047Y-85899523D01*
X143355714Y-85899523D01*
X143165238Y-85851904D01*
X143070000Y-85756666D01*
X143022380Y-85661428D01*
X143022380Y-85470952D01*
X143070000Y-85375714D01*
X143165238Y-85280476D01*
X143355714Y-85232857D01*
X143689047Y-85232857D01*
X143879523Y-85280476D01*
X143974761Y-85375714D01*
X144022380Y-85470952D01*
X144022380Y-85661428D01*
X144022380Y-84280476D02*
X144022380Y-84851904D01*
X144022380Y-84566190D02*
X143022380Y-84566190D01*
X143165238Y-84661428D01*
X143260476Y-84756666D01*
X143308095Y-84851904D01*
G04 #@! TO.C,Q2*
X135167619Y-85185238D02*
X135120000Y-85280476D01*
X135024761Y-85375714D01*
X134881904Y-85518571D01*
X134834285Y-85613809D01*
X134834285Y-85709047D01*
X135072380Y-85661428D02*
X135024761Y-85756666D01*
X134929523Y-85851904D01*
X134739047Y-85899523D01*
X134405714Y-85899523D01*
X134215238Y-85851904D01*
X134120000Y-85756666D01*
X134072380Y-85661428D01*
X134072380Y-85470952D01*
X134120000Y-85375714D01*
X134215238Y-85280476D01*
X134405714Y-85232857D01*
X134739047Y-85232857D01*
X134929523Y-85280476D01*
X135024761Y-85375714D01*
X135072380Y-85470952D01*
X135072380Y-85661428D01*
X134167619Y-84851904D02*
X134120000Y-84804285D01*
X134072380Y-84709047D01*
X134072380Y-84470952D01*
X134120000Y-84375714D01*
X134167619Y-84328095D01*
X134262857Y-84280476D01*
X134358095Y-84280476D01*
X134500952Y-84328095D01*
X135072380Y-84899523D01*
X135072380Y-84280476D01*
G04 #@! TO.C,Q3*
X151034761Y-85577619D02*
X150939523Y-85530000D01*
X150844285Y-85434761D01*
X150701428Y-85291904D01*
X150606190Y-85244285D01*
X150510952Y-85244285D01*
X150558571Y-85482380D02*
X150463333Y-85434761D01*
X150368095Y-85339523D01*
X150320476Y-85149047D01*
X150320476Y-84815714D01*
X150368095Y-84625238D01*
X150463333Y-84530000D01*
X150558571Y-84482380D01*
X150749047Y-84482380D01*
X150844285Y-84530000D01*
X150939523Y-84625238D01*
X150987142Y-84815714D01*
X150987142Y-85149047D01*
X150939523Y-85339523D01*
X150844285Y-85434761D01*
X150749047Y-85482380D01*
X150558571Y-85482380D01*
X151320476Y-84482380D02*
X151939523Y-84482380D01*
X151606190Y-84863333D01*
X151749047Y-84863333D01*
X151844285Y-84910952D01*
X151891904Y-84958571D01*
X151939523Y-85053809D01*
X151939523Y-85291904D01*
X151891904Y-85387142D01*
X151844285Y-85434761D01*
X151749047Y-85482380D01*
X151463333Y-85482380D01*
X151368095Y-85434761D01*
X151320476Y-85387142D01*
G04 #@! TO.C,Q4*
X157384761Y-112247619D02*
X157289523Y-112200000D01*
X157194285Y-112104761D01*
X157051428Y-111961904D01*
X156956190Y-111914285D01*
X156860952Y-111914285D01*
X156908571Y-112152380D02*
X156813333Y-112104761D01*
X156718095Y-112009523D01*
X156670476Y-111819047D01*
X156670476Y-111485714D01*
X156718095Y-111295238D01*
X156813333Y-111200000D01*
X156908571Y-111152380D01*
X157099047Y-111152380D01*
X157194285Y-111200000D01*
X157289523Y-111295238D01*
X157337142Y-111485714D01*
X157337142Y-111819047D01*
X157289523Y-112009523D01*
X157194285Y-112104761D01*
X157099047Y-112152380D01*
X156908571Y-112152380D01*
X158194285Y-111485714D02*
X158194285Y-112152380D01*
X157956190Y-111104761D02*
X157718095Y-111819047D01*
X158337142Y-111819047D01*
G04 #@! TO.C,Q5*
X161837619Y-114395238D02*
X161790000Y-114490476D01*
X161694761Y-114585714D01*
X161551904Y-114728571D01*
X161504285Y-114823809D01*
X161504285Y-114919047D01*
X161742380Y-114871428D02*
X161694761Y-114966666D01*
X161599523Y-115061904D01*
X161409047Y-115109523D01*
X161075714Y-115109523D01*
X160885238Y-115061904D01*
X160790000Y-114966666D01*
X160742380Y-114871428D01*
X160742380Y-114680952D01*
X160790000Y-114585714D01*
X160885238Y-114490476D01*
X161075714Y-114442857D01*
X161409047Y-114442857D01*
X161599523Y-114490476D01*
X161694761Y-114585714D01*
X161742380Y-114680952D01*
X161742380Y-114871428D01*
X160742380Y-113538095D02*
X160742380Y-114014285D01*
X161218571Y-114061904D01*
X161170952Y-114014285D01*
X161123333Y-113919047D01*
X161123333Y-113680952D01*
X161170952Y-113585714D01*
X161218571Y-113538095D01*
X161313809Y-113490476D01*
X161551904Y-113490476D01*
X161647142Y-113538095D01*
X161694761Y-113585714D01*
X161742380Y-113680952D01*
X161742380Y-113919047D01*
X161694761Y-114014285D01*
X161647142Y-114061904D01*
G04 #@! TO.C,R_HFTRIM1*
X127937380Y-101615476D02*
X127461190Y-101948809D01*
X127937380Y-102186904D02*
X126937380Y-102186904D01*
X126937380Y-101805952D01*
X126985000Y-101710714D01*
X127032619Y-101663095D01*
X127127857Y-101615476D01*
X127270714Y-101615476D01*
X127365952Y-101663095D01*
X127413571Y-101710714D01*
X127461190Y-101805952D01*
X127461190Y-102186904D01*
X128032619Y-101425000D02*
X128032619Y-100663095D01*
X127937380Y-100425000D02*
X126937380Y-100425000D01*
X127413571Y-100425000D02*
X127413571Y-99853571D01*
X127937380Y-99853571D02*
X126937380Y-99853571D01*
X127413571Y-99044047D02*
X127413571Y-99377380D01*
X127937380Y-99377380D02*
X126937380Y-99377380D01*
X126937380Y-98901190D01*
X126937380Y-98663095D02*
X126937380Y-98091666D01*
X127937380Y-98377380D02*
X126937380Y-98377380D01*
X127937380Y-97186904D02*
X127461190Y-97520238D01*
X127937380Y-97758333D02*
X126937380Y-97758333D01*
X126937380Y-97377380D01*
X126985000Y-97282142D01*
X127032619Y-97234523D01*
X127127857Y-97186904D01*
X127270714Y-97186904D01*
X127365952Y-97234523D01*
X127413571Y-97282142D01*
X127461190Y-97377380D01*
X127461190Y-97758333D01*
X127937380Y-96758333D02*
X126937380Y-96758333D01*
X127937380Y-96282142D02*
X126937380Y-96282142D01*
X127651666Y-95948809D01*
X126937380Y-95615476D01*
X127937380Y-95615476D01*
X127937380Y-94615476D02*
X127937380Y-95186904D01*
X127937380Y-94901190D02*
X126937380Y-94901190D01*
X127080238Y-94996428D01*
X127175476Y-95091666D01*
X127223095Y-95186904D01*
G04 #@! TO.C,R_SIN_RND1*
X128572380Y-117990476D02*
X128096190Y-118323809D01*
X128572380Y-118561904D02*
X127572380Y-118561904D01*
X127572380Y-118180952D01*
X127620000Y-118085714D01*
X127667619Y-118038095D01*
X127762857Y-117990476D01*
X127905714Y-117990476D01*
X128000952Y-118038095D01*
X128048571Y-118085714D01*
X128096190Y-118180952D01*
X128096190Y-118561904D01*
X128667619Y-117800000D02*
X128667619Y-117038095D01*
X128524761Y-116847619D02*
X128572380Y-116704761D01*
X128572380Y-116466666D01*
X128524761Y-116371428D01*
X128477142Y-116323809D01*
X128381904Y-116276190D01*
X128286666Y-116276190D01*
X128191428Y-116323809D01*
X128143809Y-116371428D01*
X128096190Y-116466666D01*
X128048571Y-116657142D01*
X128000952Y-116752380D01*
X127953333Y-116800000D01*
X127858095Y-116847619D01*
X127762857Y-116847619D01*
X127667619Y-116800000D01*
X127620000Y-116752380D01*
X127572380Y-116657142D01*
X127572380Y-116419047D01*
X127620000Y-116276190D01*
X128572380Y-115847619D02*
X127572380Y-115847619D01*
X128572380Y-115371428D02*
X127572380Y-115371428D01*
X128572380Y-114800000D01*
X127572380Y-114800000D01*
X128667619Y-114561904D02*
X128667619Y-113800000D01*
X128572380Y-112990476D02*
X128096190Y-113323809D01*
X128572380Y-113561904D02*
X127572380Y-113561904D01*
X127572380Y-113180952D01*
X127620000Y-113085714D01*
X127667619Y-113038095D01*
X127762857Y-112990476D01*
X127905714Y-112990476D01*
X128000952Y-113038095D01*
X128048571Y-113085714D01*
X128096190Y-113180952D01*
X128096190Y-113561904D01*
X128572380Y-112561904D02*
X127572380Y-112561904D01*
X128572380Y-111990476D01*
X127572380Y-111990476D01*
X128572380Y-111514285D02*
X127572380Y-111514285D01*
X127572380Y-111276190D01*
X127620000Y-111133333D01*
X127715238Y-111038095D01*
X127810476Y-110990476D01*
X128000952Y-110942857D01*
X128143809Y-110942857D01*
X128334285Y-110990476D01*
X128429523Y-111038095D01*
X128524761Y-111133333D01*
X128572380Y-111276190D01*
X128572380Y-111514285D01*
X128572380Y-109990476D02*
X128572380Y-110561904D01*
X128572380Y-110276190D02*
X127572380Y-110276190D01*
X127715238Y-110371428D01*
X127810476Y-110466666D01*
X127858095Y-110561904D01*
G04 #@! TO.C,RV_COARSE1*
X151582380Y-73707142D02*
X151106190Y-74040476D01*
X151582380Y-74278571D02*
X150582380Y-74278571D01*
X150582380Y-73897619D01*
X150630000Y-73802380D01*
X150677619Y-73754761D01*
X150772857Y-73707142D01*
X150915714Y-73707142D01*
X151010952Y-73754761D01*
X151058571Y-73802380D01*
X151106190Y-73897619D01*
X151106190Y-74278571D01*
X150582380Y-73421428D02*
X151582380Y-73088095D01*
X150582380Y-72754761D01*
X151677619Y-72659523D02*
X151677619Y-71897619D01*
X151487142Y-71088095D02*
X151534761Y-71135714D01*
X151582380Y-71278571D01*
X151582380Y-71373809D01*
X151534761Y-71516666D01*
X151439523Y-71611904D01*
X151344285Y-71659523D01*
X151153809Y-71707142D01*
X151010952Y-71707142D01*
X150820476Y-71659523D01*
X150725238Y-71611904D01*
X150630000Y-71516666D01*
X150582380Y-71373809D01*
X150582380Y-71278571D01*
X150630000Y-71135714D01*
X150677619Y-71088095D01*
X150582380Y-70469047D02*
X150582380Y-70278571D01*
X150630000Y-70183333D01*
X150725238Y-70088095D01*
X150915714Y-70040476D01*
X151249047Y-70040476D01*
X151439523Y-70088095D01*
X151534761Y-70183333D01*
X151582380Y-70278571D01*
X151582380Y-70469047D01*
X151534761Y-70564285D01*
X151439523Y-70659523D01*
X151249047Y-70707142D01*
X150915714Y-70707142D01*
X150725238Y-70659523D01*
X150630000Y-70564285D01*
X150582380Y-70469047D01*
X151296666Y-69659523D02*
X151296666Y-69183333D01*
X151582380Y-69754761D02*
X150582380Y-69421428D01*
X151582380Y-69088095D01*
X151582380Y-68183333D02*
X151106190Y-68516666D01*
X151582380Y-68754761D02*
X150582380Y-68754761D01*
X150582380Y-68373809D01*
X150630000Y-68278571D01*
X150677619Y-68230952D01*
X150772857Y-68183333D01*
X150915714Y-68183333D01*
X151010952Y-68230952D01*
X151058571Y-68278571D01*
X151106190Y-68373809D01*
X151106190Y-68754761D01*
X151534761Y-67802380D02*
X151582380Y-67659523D01*
X151582380Y-67421428D01*
X151534761Y-67326190D01*
X151487142Y-67278571D01*
X151391904Y-67230952D01*
X151296666Y-67230952D01*
X151201428Y-67278571D01*
X151153809Y-67326190D01*
X151106190Y-67421428D01*
X151058571Y-67611904D01*
X151010952Y-67707142D01*
X150963333Y-67754761D01*
X150868095Y-67802380D01*
X150772857Y-67802380D01*
X150677619Y-67754761D01*
X150630000Y-67707142D01*
X150582380Y-67611904D01*
X150582380Y-67373809D01*
X150630000Y-67230952D01*
X151058571Y-66802380D02*
X151058571Y-66469047D01*
X151582380Y-66326190D02*
X151582380Y-66802380D01*
X150582380Y-66802380D01*
X150582380Y-66326190D01*
X151582380Y-65373809D02*
X151582380Y-65945238D01*
X151582380Y-65659523D02*
X150582380Y-65659523D01*
X150725238Y-65754761D01*
X150820476Y-65850000D01*
X150868095Y-65945238D01*
G04 #@! TO.C,RV_CVTRIM1*
X142552380Y-73955238D02*
X142076190Y-74288571D01*
X142552380Y-74526666D02*
X141552380Y-74526666D01*
X141552380Y-74145714D01*
X141600000Y-74050476D01*
X141647619Y-74002857D01*
X141742857Y-73955238D01*
X141885714Y-73955238D01*
X141980952Y-74002857D01*
X142028571Y-74050476D01*
X142076190Y-74145714D01*
X142076190Y-74526666D01*
X141552380Y-73669523D02*
X142552380Y-73336190D01*
X141552380Y-73002857D01*
X142647619Y-72907619D02*
X142647619Y-72145714D01*
X142457142Y-71336190D02*
X142504761Y-71383809D01*
X142552380Y-71526666D01*
X142552380Y-71621904D01*
X142504761Y-71764761D01*
X142409523Y-71860000D01*
X142314285Y-71907619D01*
X142123809Y-71955238D01*
X141980952Y-71955238D01*
X141790476Y-71907619D01*
X141695238Y-71860000D01*
X141600000Y-71764761D01*
X141552380Y-71621904D01*
X141552380Y-71526666D01*
X141600000Y-71383809D01*
X141647619Y-71336190D01*
X141552380Y-71050476D02*
X142552380Y-70717142D01*
X141552380Y-70383809D01*
X141552380Y-70193333D02*
X141552380Y-69621904D01*
X142552380Y-69907619D02*
X141552380Y-69907619D01*
X142552380Y-68717142D02*
X142076190Y-69050476D01*
X142552380Y-69288571D02*
X141552380Y-69288571D01*
X141552380Y-68907619D01*
X141600000Y-68812380D01*
X141647619Y-68764761D01*
X141742857Y-68717142D01*
X141885714Y-68717142D01*
X141980952Y-68764761D01*
X142028571Y-68812380D01*
X142076190Y-68907619D01*
X142076190Y-69288571D01*
X142552380Y-68288571D02*
X141552380Y-68288571D01*
X142552380Y-67812380D02*
X141552380Y-67812380D01*
X142266666Y-67479047D01*
X141552380Y-67145714D01*
X142552380Y-67145714D01*
X142552380Y-66145714D02*
X142552380Y-66717142D01*
X142552380Y-66431428D02*
X141552380Y-66431428D01*
X141695238Y-66526666D01*
X141790476Y-66621904D01*
X141838095Y-66717142D01*
G04 #@! TO.C,RV_EXPFM1*
X119785238Y-72842380D02*
X119451904Y-72366190D01*
X119213809Y-72842380D02*
X119213809Y-71842380D01*
X119594761Y-71842380D01*
X119690000Y-71890000D01*
X119737619Y-71937619D01*
X119785238Y-72032857D01*
X119785238Y-72175714D01*
X119737619Y-72270952D01*
X119690000Y-72318571D01*
X119594761Y-72366190D01*
X119213809Y-72366190D01*
X120070952Y-71842380D02*
X120404285Y-72842380D01*
X120737619Y-71842380D01*
X120832857Y-72937619D02*
X121594761Y-72937619D01*
X121832857Y-72318571D02*
X122166190Y-72318571D01*
X122309047Y-72842380D02*
X121832857Y-72842380D01*
X121832857Y-71842380D01*
X122309047Y-71842380D01*
X122642380Y-71842380D02*
X123309047Y-72842380D01*
X123309047Y-71842380D02*
X122642380Y-72842380D01*
X123690000Y-72842380D02*
X123690000Y-71842380D01*
X124070952Y-71842380D01*
X124166190Y-71890000D01*
X124213809Y-71937619D01*
X124261428Y-72032857D01*
X124261428Y-72175714D01*
X124213809Y-72270952D01*
X124166190Y-72318571D01*
X124070952Y-72366190D01*
X123690000Y-72366190D01*
X125023333Y-72318571D02*
X124690000Y-72318571D01*
X124690000Y-72842380D02*
X124690000Y-71842380D01*
X125166190Y-71842380D01*
X125547142Y-72842380D02*
X125547142Y-71842380D01*
X125880476Y-72556666D01*
X126213809Y-71842380D01*
X126213809Y-72842380D01*
X127213809Y-72842380D02*
X126642380Y-72842380D01*
X126928095Y-72842380D02*
X126928095Y-71842380D01*
X126832857Y-71985238D01*
X126737619Y-72080476D01*
X126642380Y-72128095D01*
G04 #@! TO.C,RV_FINE1*
X159202380Y-72469047D02*
X158726190Y-72802380D01*
X159202380Y-73040476D02*
X158202380Y-73040476D01*
X158202380Y-72659523D01*
X158250000Y-72564285D01*
X158297619Y-72516666D01*
X158392857Y-72469047D01*
X158535714Y-72469047D01*
X158630952Y-72516666D01*
X158678571Y-72564285D01*
X158726190Y-72659523D01*
X158726190Y-73040476D01*
X158202380Y-72183333D02*
X159202380Y-71850000D01*
X158202380Y-71516666D01*
X159297619Y-71421428D02*
X159297619Y-70659523D01*
X158678571Y-70088095D02*
X158678571Y-70421428D01*
X159202380Y-70421428D02*
X158202380Y-70421428D01*
X158202380Y-69945238D01*
X159202380Y-69564285D02*
X158202380Y-69564285D01*
X159202380Y-69088095D02*
X158202380Y-69088095D01*
X159202380Y-68516666D01*
X158202380Y-68516666D01*
X158678571Y-68040476D02*
X158678571Y-67707142D01*
X159202380Y-67564285D02*
X159202380Y-68040476D01*
X158202380Y-68040476D01*
X158202380Y-67564285D01*
X159202380Y-66611904D02*
X159202380Y-67183333D01*
X159202380Y-66897619D02*
X158202380Y-66897619D01*
X158345238Y-66992857D01*
X158440476Y-67088095D01*
X158488095Y-67183333D01*
G04 #@! TO.C,RV_LINFM_ATTN1*
X126182380Y-87788095D02*
X125706190Y-88121428D01*
X126182380Y-88359523D02*
X125182380Y-88359523D01*
X125182380Y-87978571D01*
X125230000Y-87883333D01*
X125277619Y-87835714D01*
X125372857Y-87788095D01*
X125515714Y-87788095D01*
X125610952Y-87835714D01*
X125658571Y-87883333D01*
X125706190Y-87978571D01*
X125706190Y-88359523D01*
X125182380Y-87502380D02*
X126182380Y-87169047D01*
X125182380Y-86835714D01*
X126277619Y-86740476D02*
X126277619Y-85978571D01*
X126182380Y-85264285D02*
X126182380Y-85740476D01*
X125182380Y-85740476D01*
X126182380Y-84930952D02*
X125182380Y-84930952D01*
X126182380Y-84454761D02*
X125182380Y-84454761D01*
X126182380Y-83883333D01*
X125182380Y-83883333D01*
X125658571Y-83073809D02*
X125658571Y-83407142D01*
X126182380Y-83407142D02*
X125182380Y-83407142D01*
X125182380Y-82930952D01*
X126182380Y-82550000D02*
X125182380Y-82550000D01*
X125896666Y-82216666D01*
X125182380Y-81883333D01*
X126182380Y-81883333D01*
X126277619Y-81645238D02*
X126277619Y-80883333D01*
X125896666Y-80692857D02*
X125896666Y-80216666D01*
X126182380Y-80788095D02*
X125182380Y-80454761D01*
X126182380Y-80121428D01*
X125182380Y-79930952D02*
X125182380Y-79359523D01*
X126182380Y-79645238D02*
X125182380Y-79645238D01*
X125182380Y-79169047D02*
X125182380Y-78597619D01*
X126182380Y-78883333D02*
X125182380Y-78883333D01*
X126182380Y-78264285D02*
X125182380Y-78264285D01*
X126182380Y-77692857D01*
X125182380Y-77692857D01*
X126182380Y-76692857D02*
X126182380Y-77264285D01*
X126182380Y-76978571D02*
X125182380Y-76978571D01*
X125325238Y-77073809D01*
X125420476Y-77169047D01*
X125468095Y-77264285D01*
G04 #@! TO.C,RV_PWM_ATTN1*
X184515714Y-127662380D02*
X184182380Y-127186190D01*
X183944285Y-127662380D02*
X183944285Y-126662380D01*
X184325238Y-126662380D01*
X184420476Y-126710000D01*
X184468095Y-126757619D01*
X184515714Y-126852857D01*
X184515714Y-126995714D01*
X184468095Y-127090952D01*
X184420476Y-127138571D01*
X184325238Y-127186190D01*
X183944285Y-127186190D01*
X184801428Y-126662380D02*
X185134761Y-127662380D01*
X185468095Y-126662380D01*
X185563333Y-127757619D02*
X186325238Y-127757619D01*
X186563333Y-127662380D02*
X186563333Y-126662380D01*
X186944285Y-126662380D01*
X187039523Y-126710000D01*
X187087142Y-126757619D01*
X187134761Y-126852857D01*
X187134761Y-126995714D01*
X187087142Y-127090952D01*
X187039523Y-127138571D01*
X186944285Y-127186190D01*
X186563333Y-127186190D01*
X187468095Y-126662380D02*
X187706190Y-127662380D01*
X187896666Y-126948095D01*
X188087142Y-127662380D01*
X188325238Y-126662380D01*
X188706190Y-127662380D02*
X188706190Y-126662380D01*
X189039523Y-127376666D01*
X189372857Y-126662380D01*
X189372857Y-127662380D01*
X189610952Y-127757619D02*
X190372857Y-127757619D01*
X190563333Y-127376666D02*
X191039523Y-127376666D01*
X190468095Y-127662380D02*
X190801428Y-126662380D01*
X191134761Y-127662380D01*
X191325238Y-126662380D02*
X191896666Y-126662380D01*
X191610952Y-127662380D02*
X191610952Y-126662380D01*
X192087142Y-126662380D02*
X192658571Y-126662380D01*
X192372857Y-127662380D02*
X192372857Y-126662380D01*
X192991904Y-127662380D02*
X192991904Y-126662380D01*
X193563333Y-127662380D01*
X193563333Y-126662380D01*
X194563333Y-127662380D02*
X193991904Y-127662380D01*
X194277619Y-127662380D02*
X194277619Y-126662380D01*
X194182380Y-126805238D01*
X194087142Y-126900476D01*
X193991904Y-126948095D01*
G04 #@! TO.C,RV_SAWOFFSET1*
X145987142Y-126817380D02*
X145653809Y-126341190D01*
X145415714Y-126817380D02*
X145415714Y-125817380D01*
X145796666Y-125817380D01*
X145891904Y-125865000D01*
X145939523Y-125912619D01*
X145987142Y-126007857D01*
X145987142Y-126150714D01*
X145939523Y-126245952D01*
X145891904Y-126293571D01*
X145796666Y-126341190D01*
X145415714Y-126341190D01*
X146272857Y-125817380D02*
X146606190Y-126817380D01*
X146939523Y-125817380D01*
X147034761Y-126912619D02*
X147796666Y-126912619D01*
X147987142Y-126769761D02*
X148130000Y-126817380D01*
X148368095Y-126817380D01*
X148463333Y-126769761D01*
X148510952Y-126722142D01*
X148558571Y-126626904D01*
X148558571Y-126531666D01*
X148510952Y-126436428D01*
X148463333Y-126388809D01*
X148368095Y-126341190D01*
X148177619Y-126293571D01*
X148082380Y-126245952D01*
X148034761Y-126198333D01*
X147987142Y-126103095D01*
X147987142Y-126007857D01*
X148034761Y-125912619D01*
X148082380Y-125865000D01*
X148177619Y-125817380D01*
X148415714Y-125817380D01*
X148558571Y-125865000D01*
X148939523Y-126531666D02*
X149415714Y-126531666D01*
X148844285Y-126817380D02*
X149177619Y-125817380D01*
X149510952Y-126817380D01*
X149749047Y-125817380D02*
X149987142Y-126817380D01*
X150177619Y-126103095D01*
X150368095Y-126817380D01*
X150606190Y-125817380D01*
X151177619Y-125817380D02*
X151368095Y-125817380D01*
X151463333Y-125865000D01*
X151558571Y-125960238D01*
X151606190Y-126150714D01*
X151606190Y-126484047D01*
X151558571Y-126674523D01*
X151463333Y-126769761D01*
X151368095Y-126817380D01*
X151177619Y-126817380D01*
X151082380Y-126769761D01*
X150987142Y-126674523D01*
X150939523Y-126484047D01*
X150939523Y-126150714D01*
X150987142Y-125960238D01*
X151082380Y-125865000D01*
X151177619Y-125817380D01*
X152368095Y-126293571D02*
X152034761Y-126293571D01*
X152034761Y-126817380D02*
X152034761Y-125817380D01*
X152510952Y-125817380D01*
X153225238Y-126293571D02*
X152891904Y-126293571D01*
X152891904Y-126817380D02*
X152891904Y-125817380D01*
X153368095Y-125817380D01*
X153701428Y-126769761D02*
X153844285Y-126817380D01*
X154082380Y-126817380D01*
X154177619Y-126769761D01*
X154225238Y-126722142D01*
X154272857Y-126626904D01*
X154272857Y-126531666D01*
X154225238Y-126436428D01*
X154177619Y-126388809D01*
X154082380Y-126341190D01*
X153891904Y-126293571D01*
X153796666Y-126245952D01*
X153749047Y-126198333D01*
X153701428Y-126103095D01*
X153701428Y-126007857D01*
X153749047Y-125912619D01*
X153796666Y-125865000D01*
X153891904Y-125817380D01*
X154130000Y-125817380D01*
X154272857Y-125865000D01*
X154701428Y-126293571D02*
X155034761Y-126293571D01*
X155177619Y-126817380D02*
X154701428Y-126817380D01*
X154701428Y-125817380D01*
X155177619Y-125817380D01*
X155463333Y-125817380D02*
X156034761Y-125817380D01*
X155749047Y-126817380D02*
X155749047Y-125817380D01*
X156891904Y-126817380D02*
X156320476Y-126817380D01*
X156606190Y-126817380D02*
X156606190Y-125817380D01*
X156510952Y-125960238D01*
X156415714Y-126055476D01*
X156320476Y-126103095D01*
G04 #@! TO.C,RV_SKEW1*
X155773809Y-89562380D02*
X155440476Y-89086190D01*
X155202380Y-89562380D02*
X155202380Y-88562380D01*
X155583333Y-88562380D01*
X155678571Y-88610000D01*
X155726190Y-88657619D01*
X155773809Y-88752857D01*
X155773809Y-88895714D01*
X155726190Y-88990952D01*
X155678571Y-89038571D01*
X155583333Y-89086190D01*
X155202380Y-89086190D01*
X156059523Y-88562380D02*
X156392857Y-89562380D01*
X156726190Y-88562380D01*
X156821428Y-89657619D02*
X157583333Y-89657619D01*
X157773809Y-89514761D02*
X157916666Y-89562380D01*
X158154761Y-89562380D01*
X158250000Y-89514761D01*
X158297619Y-89467142D01*
X158345238Y-89371904D01*
X158345238Y-89276666D01*
X158297619Y-89181428D01*
X158250000Y-89133809D01*
X158154761Y-89086190D01*
X157964285Y-89038571D01*
X157869047Y-88990952D01*
X157821428Y-88943333D01*
X157773809Y-88848095D01*
X157773809Y-88752857D01*
X157821428Y-88657619D01*
X157869047Y-88610000D01*
X157964285Y-88562380D01*
X158202380Y-88562380D01*
X158345238Y-88610000D01*
X158773809Y-89562380D02*
X158773809Y-88562380D01*
X159345238Y-89562380D02*
X158916666Y-88990952D01*
X159345238Y-88562380D02*
X158773809Y-89133809D01*
X159773809Y-89038571D02*
X160107142Y-89038571D01*
X160250000Y-89562380D02*
X159773809Y-89562380D01*
X159773809Y-88562380D01*
X160250000Y-88562380D01*
X160583333Y-88562380D02*
X160821428Y-89562380D01*
X161011904Y-88848095D01*
X161202380Y-89562380D01*
X161440476Y-88562380D01*
X162345238Y-89562380D02*
X161773809Y-89562380D01*
X162059523Y-89562380D02*
X162059523Y-88562380D01*
X161964285Y-88705238D01*
X161869047Y-88800476D01*
X161773809Y-88848095D01*
G04 #@! TO.C,RV_SYM1*
X156297619Y-136827380D02*
X155964285Y-136351190D01*
X155726190Y-136827380D02*
X155726190Y-135827380D01*
X156107142Y-135827380D01*
X156202380Y-135875000D01*
X156250000Y-135922619D01*
X156297619Y-136017857D01*
X156297619Y-136160714D01*
X156250000Y-136255952D01*
X156202380Y-136303571D01*
X156107142Y-136351190D01*
X155726190Y-136351190D01*
X156583333Y-135827380D02*
X156916666Y-136827380D01*
X157250000Y-135827380D01*
X157345238Y-136922619D02*
X158107142Y-136922619D01*
X158297619Y-136779761D02*
X158440476Y-136827380D01*
X158678571Y-136827380D01*
X158773809Y-136779761D01*
X158821428Y-136732142D01*
X158869047Y-136636904D01*
X158869047Y-136541666D01*
X158821428Y-136446428D01*
X158773809Y-136398809D01*
X158678571Y-136351190D01*
X158488095Y-136303571D01*
X158392857Y-136255952D01*
X158345238Y-136208333D01*
X158297619Y-136113095D01*
X158297619Y-136017857D01*
X158345238Y-135922619D01*
X158392857Y-135875000D01*
X158488095Y-135827380D01*
X158726190Y-135827380D01*
X158869047Y-135875000D01*
X159488095Y-136351190D02*
X159488095Y-136827380D01*
X159154761Y-135827380D02*
X159488095Y-136351190D01*
X159821428Y-135827380D01*
X160154761Y-136827380D02*
X160154761Y-135827380D01*
X160488095Y-136541666D01*
X160821428Y-135827380D01*
X160821428Y-136827380D01*
X161821428Y-136827380D02*
X161250000Y-136827380D01*
X161535714Y-136827380D02*
X161535714Y-135827380D01*
X161440476Y-135970238D01*
X161345238Y-136065476D01*
X161250000Y-136113095D01*
G04 #@! TO.C,RV_TRI_OFFSET1*
X132628333Y-120467380D02*
X132295000Y-119991190D01*
X132056904Y-120467380D02*
X132056904Y-119467380D01*
X132437857Y-119467380D01*
X132533095Y-119515000D01*
X132580714Y-119562619D01*
X132628333Y-119657857D01*
X132628333Y-119800714D01*
X132580714Y-119895952D01*
X132533095Y-119943571D01*
X132437857Y-119991190D01*
X132056904Y-119991190D01*
X132914047Y-119467380D02*
X133247380Y-120467380D01*
X133580714Y-119467380D01*
X133675952Y-120562619D02*
X134437857Y-120562619D01*
X134533095Y-119467380D02*
X135104523Y-119467380D01*
X134818809Y-120467380D02*
X134818809Y-119467380D01*
X136009285Y-120467380D02*
X135675952Y-119991190D01*
X135437857Y-120467380D02*
X135437857Y-119467380D01*
X135818809Y-119467380D01*
X135914047Y-119515000D01*
X135961666Y-119562619D01*
X136009285Y-119657857D01*
X136009285Y-119800714D01*
X135961666Y-119895952D01*
X135914047Y-119943571D01*
X135818809Y-119991190D01*
X135437857Y-119991190D01*
X136437857Y-120467380D02*
X136437857Y-119467380D01*
X136675952Y-120562619D02*
X137437857Y-120562619D01*
X137866428Y-119467380D02*
X138056904Y-119467380D01*
X138152142Y-119515000D01*
X138247380Y-119610238D01*
X138295000Y-119800714D01*
X138295000Y-120134047D01*
X138247380Y-120324523D01*
X138152142Y-120419761D01*
X138056904Y-120467380D01*
X137866428Y-120467380D01*
X137771190Y-120419761D01*
X137675952Y-120324523D01*
X137628333Y-120134047D01*
X137628333Y-119800714D01*
X137675952Y-119610238D01*
X137771190Y-119515000D01*
X137866428Y-119467380D01*
X139056904Y-119943571D02*
X138723571Y-119943571D01*
X138723571Y-120467380D02*
X138723571Y-119467380D01*
X139199761Y-119467380D01*
X139914047Y-119943571D02*
X139580714Y-119943571D01*
X139580714Y-120467380D02*
X139580714Y-119467380D01*
X140056904Y-119467380D01*
X140390238Y-120419761D02*
X140533095Y-120467380D01*
X140771190Y-120467380D01*
X140866428Y-120419761D01*
X140914047Y-120372142D01*
X140961666Y-120276904D01*
X140961666Y-120181666D01*
X140914047Y-120086428D01*
X140866428Y-120038809D01*
X140771190Y-119991190D01*
X140580714Y-119943571D01*
X140485476Y-119895952D01*
X140437857Y-119848333D01*
X140390238Y-119753095D01*
X140390238Y-119657857D01*
X140437857Y-119562619D01*
X140485476Y-119515000D01*
X140580714Y-119467380D01*
X140818809Y-119467380D01*
X140961666Y-119515000D01*
X141390238Y-119943571D02*
X141723571Y-119943571D01*
X141866428Y-120467380D02*
X141390238Y-120467380D01*
X141390238Y-119467380D01*
X141866428Y-119467380D01*
X142152142Y-119467380D02*
X142723571Y-119467380D01*
X142437857Y-120467380D02*
X142437857Y-119467380D01*
X143580714Y-120467380D02*
X143009285Y-120467380D01*
X143295000Y-120467380D02*
X143295000Y-119467380D01*
X143199761Y-119610238D01*
X143104523Y-119705476D01*
X143009285Y-119753095D01*
G04 #@! TO.C,RV_TRICON1*
X163997142Y-85542380D02*
X163663809Y-85066190D01*
X163425714Y-85542380D02*
X163425714Y-84542380D01*
X163806666Y-84542380D01*
X163901904Y-84590000D01*
X163949523Y-84637619D01*
X163997142Y-84732857D01*
X163997142Y-84875714D01*
X163949523Y-84970952D01*
X163901904Y-85018571D01*
X163806666Y-85066190D01*
X163425714Y-85066190D01*
X164282857Y-84542380D02*
X164616190Y-85542380D01*
X164949523Y-84542380D01*
X165044761Y-85637619D02*
X165806666Y-85637619D01*
X165901904Y-84542380D02*
X166473333Y-84542380D01*
X166187619Y-85542380D02*
X166187619Y-84542380D01*
X167378095Y-85542380D02*
X167044761Y-85066190D01*
X166806666Y-85542380D02*
X166806666Y-84542380D01*
X167187619Y-84542380D01*
X167282857Y-84590000D01*
X167330476Y-84637619D01*
X167378095Y-84732857D01*
X167378095Y-84875714D01*
X167330476Y-84970952D01*
X167282857Y-85018571D01*
X167187619Y-85066190D01*
X166806666Y-85066190D01*
X167806666Y-85542380D02*
X167806666Y-84542380D01*
X168854285Y-85447142D02*
X168806666Y-85494761D01*
X168663809Y-85542380D01*
X168568571Y-85542380D01*
X168425714Y-85494761D01*
X168330476Y-85399523D01*
X168282857Y-85304285D01*
X168235238Y-85113809D01*
X168235238Y-84970952D01*
X168282857Y-84780476D01*
X168330476Y-84685238D01*
X168425714Y-84590000D01*
X168568571Y-84542380D01*
X168663809Y-84542380D01*
X168806666Y-84590000D01*
X168854285Y-84637619D01*
X169473333Y-84542380D02*
X169663809Y-84542380D01*
X169759047Y-84590000D01*
X169854285Y-84685238D01*
X169901904Y-84875714D01*
X169901904Y-85209047D01*
X169854285Y-85399523D01*
X169759047Y-85494761D01*
X169663809Y-85542380D01*
X169473333Y-85542380D01*
X169378095Y-85494761D01*
X169282857Y-85399523D01*
X169235238Y-85209047D01*
X169235238Y-84875714D01*
X169282857Y-84685238D01*
X169378095Y-84590000D01*
X169473333Y-84542380D01*
X170330476Y-85542380D02*
X170330476Y-84542380D01*
X170901904Y-85542380D01*
X170901904Y-84542380D01*
X171901904Y-85542380D02*
X171330476Y-85542380D01*
X171616190Y-85542380D02*
X171616190Y-84542380D01*
X171520952Y-84685238D01*
X171425714Y-84780476D01*
X171330476Y-84828095D01*
G04 #@! TO.C,RV_TRICON2*
X156377142Y-76227380D02*
X156043809Y-75751190D01*
X155805714Y-76227380D02*
X155805714Y-75227380D01*
X156186666Y-75227380D01*
X156281904Y-75275000D01*
X156329523Y-75322619D01*
X156377142Y-75417857D01*
X156377142Y-75560714D01*
X156329523Y-75655952D01*
X156281904Y-75703571D01*
X156186666Y-75751190D01*
X155805714Y-75751190D01*
X156662857Y-75227380D02*
X156996190Y-76227380D01*
X157329523Y-75227380D01*
X157424761Y-76322619D02*
X158186666Y-76322619D01*
X158281904Y-75227380D02*
X158853333Y-75227380D01*
X158567619Y-76227380D02*
X158567619Y-75227380D01*
X159758095Y-76227380D02*
X159424761Y-75751190D01*
X159186666Y-76227380D02*
X159186666Y-75227380D01*
X159567619Y-75227380D01*
X159662857Y-75275000D01*
X159710476Y-75322619D01*
X159758095Y-75417857D01*
X159758095Y-75560714D01*
X159710476Y-75655952D01*
X159662857Y-75703571D01*
X159567619Y-75751190D01*
X159186666Y-75751190D01*
X160186666Y-76227380D02*
X160186666Y-75227380D01*
X161234285Y-76132142D02*
X161186666Y-76179761D01*
X161043809Y-76227380D01*
X160948571Y-76227380D01*
X160805714Y-76179761D01*
X160710476Y-76084523D01*
X160662857Y-75989285D01*
X160615238Y-75798809D01*
X160615238Y-75655952D01*
X160662857Y-75465476D01*
X160710476Y-75370238D01*
X160805714Y-75275000D01*
X160948571Y-75227380D01*
X161043809Y-75227380D01*
X161186666Y-75275000D01*
X161234285Y-75322619D01*
X161853333Y-75227380D02*
X162043809Y-75227380D01*
X162139047Y-75275000D01*
X162234285Y-75370238D01*
X162281904Y-75560714D01*
X162281904Y-75894047D01*
X162234285Y-76084523D01*
X162139047Y-76179761D01*
X162043809Y-76227380D01*
X161853333Y-76227380D01*
X161758095Y-76179761D01*
X161662857Y-76084523D01*
X161615238Y-75894047D01*
X161615238Y-75560714D01*
X161662857Y-75370238D01*
X161758095Y-75275000D01*
X161853333Y-75227380D01*
X162710476Y-76227380D02*
X162710476Y-75227380D01*
X163281904Y-76227380D01*
X163281904Y-75227380D01*
X163710476Y-75322619D02*
X163758095Y-75275000D01*
X163853333Y-75227380D01*
X164091428Y-75227380D01*
X164186666Y-75275000D01*
X164234285Y-75322619D01*
X164281904Y-75417857D01*
X164281904Y-75513095D01*
X164234285Y-75655952D01*
X163662857Y-76227380D01*
X164281904Y-76227380D01*
G04 #@! TO.C,SW1*
X115506666Y-75334761D02*
X115649523Y-75382380D01*
X115887619Y-75382380D01*
X115982857Y-75334761D01*
X116030476Y-75287142D01*
X116078095Y-75191904D01*
X116078095Y-75096666D01*
X116030476Y-75001428D01*
X115982857Y-74953809D01*
X115887619Y-74906190D01*
X115697142Y-74858571D01*
X115601904Y-74810952D01*
X115554285Y-74763333D01*
X115506666Y-74668095D01*
X115506666Y-74572857D01*
X115554285Y-74477619D01*
X115601904Y-74430000D01*
X115697142Y-74382380D01*
X115935238Y-74382380D01*
X116078095Y-74430000D01*
X116411428Y-74382380D02*
X116649523Y-75382380D01*
X116840000Y-74668095D01*
X117030476Y-75382380D01*
X117268571Y-74382380D01*
X118173333Y-75382380D02*
X117601904Y-75382380D01*
X117887619Y-75382380D02*
X117887619Y-74382380D01*
X117792380Y-74525238D01*
X117697142Y-74620476D01*
X117601904Y-74668095D01*
G04 #@! TO.C,U2*
X135342380Y-98551904D02*
X136151904Y-98551904D01*
X136247142Y-98504285D01*
X136294761Y-98456666D01*
X136342380Y-98361428D01*
X136342380Y-98170952D01*
X136294761Y-98075714D01*
X136247142Y-98028095D01*
X136151904Y-97980476D01*
X135342380Y-97980476D01*
X135437619Y-97551904D02*
X135390000Y-97504285D01*
X135342380Y-97409047D01*
X135342380Y-97170952D01*
X135390000Y-97075714D01*
X135437619Y-97028095D01*
X135532857Y-96980476D01*
X135628095Y-96980476D01*
X135770952Y-97028095D01*
X136342380Y-97599523D01*
X136342380Y-96980476D01*
G04 #@! TO.C,U3*
X164127380Y-78866904D02*
X164936904Y-78866904D01*
X165032142Y-78819285D01*
X165079761Y-78771666D01*
X165127380Y-78676428D01*
X165127380Y-78485952D01*
X165079761Y-78390714D01*
X165032142Y-78343095D01*
X164936904Y-78295476D01*
X164127380Y-78295476D01*
X164127380Y-77914523D02*
X164127380Y-77295476D01*
X164508333Y-77628809D01*
X164508333Y-77485952D01*
X164555952Y-77390714D01*
X164603571Y-77343095D01*
X164698809Y-77295476D01*
X164936904Y-77295476D01*
X165032142Y-77343095D01*
X165079761Y-77390714D01*
X165127380Y-77485952D01*
X165127380Y-77771666D01*
X165079761Y-77866904D01*
X165032142Y-77914523D01*
G04 #@! TO.C,U4*
X146558095Y-103592380D02*
X146558095Y-104401904D01*
X146605714Y-104497142D01*
X146653333Y-104544761D01*
X146748571Y-104592380D01*
X146939047Y-104592380D01*
X147034285Y-104544761D01*
X147081904Y-104497142D01*
X147129523Y-104401904D01*
X147129523Y-103592380D01*
X148034285Y-103925714D02*
X148034285Y-104592380D01*
X147796190Y-103544761D02*
X147558095Y-104259047D01*
X148177142Y-104259047D01*
G04 #@! TO.C,WIDTH1*
X186682380Y-108462380D02*
X186920476Y-109462380D01*
X187110952Y-108748095D01*
X187301428Y-109462380D01*
X187539523Y-108462380D01*
X187920476Y-109462380D02*
X187920476Y-108462380D01*
X188396666Y-109462380D02*
X188396666Y-108462380D01*
X188634761Y-108462380D01*
X188777619Y-108510000D01*
X188872857Y-108605238D01*
X188920476Y-108700476D01*
X188968095Y-108890952D01*
X188968095Y-109033809D01*
X188920476Y-109224285D01*
X188872857Y-109319523D01*
X188777619Y-109414761D01*
X188634761Y-109462380D01*
X188396666Y-109462380D01*
X189253809Y-108462380D02*
X189825238Y-108462380D01*
X189539523Y-109462380D02*
X189539523Y-108462380D01*
X190158571Y-109462380D02*
X190158571Y-108462380D01*
X190158571Y-108938571D02*
X190730000Y-108938571D01*
X190730000Y-109462380D02*
X190730000Y-108462380D01*
X191730000Y-109462380D02*
X191158571Y-109462380D01*
X191444285Y-109462380D02*
X191444285Y-108462380D01*
X191349047Y-108605238D01*
X191253809Y-108700476D01*
X191158571Y-108748095D01*
G04 #@! TD*
M02*
