G04 #@! TF.GenerationSoftware,KiCad,Pcbnew,(5.0.1)-rc2*
G04 #@! TF.CreationDate,2018-12-18T19:29:48-05:00*
G04 #@! TF.ProjectId,midi2cv,6D6964693263762E6B696361645F7063,rev?*
G04 #@! TF.SameCoordinates,Original*
G04 #@! TF.FileFunction,Copper,L2,Bot,Signal*
G04 #@! TF.FilePolarity,Positive*
%FSLAX46Y46*%
G04 Gerber Fmt 4.6, Leading zero omitted, Abs format (unit mm)*
G04 Created by KiCad (PCBNEW (5.0.1)-rc2) date 12/18/2018 7:29:48 PM*
%MOMM*%
%LPD*%
G01*
G04 APERTURE LIST*
G04 #@! TA.AperFunction,ComponentPad*
%ADD10O,1.700000X1.700000*%
G04 #@! TD*
G04 #@! TA.AperFunction,ComponentPad*
%ADD11R,1.700000X1.700000*%
G04 #@! TD*
G04 #@! TA.AperFunction,ComponentPad*
%ADD12R,2.600000X2.600000*%
G04 #@! TD*
G04 #@! TA.AperFunction,ComponentPad*
%ADD13C,2.600000*%
G04 #@! TD*
G04 #@! TA.AperFunction,ComponentPad*
%ADD14C,2.300000*%
G04 #@! TD*
G04 #@! TA.AperFunction,ComponentPad*
%ADD15C,2.000000*%
G04 #@! TD*
G04 #@! TA.AperFunction,ComponentPad*
%ADD16R,1.600000X1.600000*%
G04 #@! TD*
G04 #@! TA.AperFunction,ComponentPad*
%ADD17O,1.600000X1.600000*%
G04 #@! TD*
G04 #@! TA.AperFunction,ComponentPad*
%ADD18C,1.600000*%
G04 #@! TD*
G04 #@! TA.AperFunction,ViaPad*
%ADD19C,0.800000*%
G04 #@! TD*
G04 #@! TA.AperFunction,Conductor*
%ADD20C,0.254000*%
G04 #@! TD*
G04 #@! TA.AperFunction,Conductor*
%ADD21C,0.508000*%
G04 #@! TD*
G04 APERTURE END LIST*
D10*
G04 #@! TO.P,J12,2*
G04 #@! TO.N,GND*
X160655000Y-100457000D03*
D11*
G04 #@! TO.P,J12,1*
G04 #@! TO.N,+5V*
X163195000Y-100457000D03*
G04 #@! TD*
G04 #@! TO.P,J11,1*
G04 #@! TO.N,+5V*
X152527000Y-94234000D03*
D10*
G04 #@! TO.P,J11,2*
G04 #@! TO.N,GND*
X149987000Y-94234000D03*
G04 #@! TD*
D11*
G04 #@! TO.P,J10,1*
G04 #@! TO.N,+9V*
X165100000Y-68834000D03*
D10*
G04 #@! TO.P,J10,2*
G04 #@! TO.N,GND*
X167640000Y-68834000D03*
G04 #@! TO.P,J10,3*
G04 #@! TO.N,-9V*
X170180000Y-68834000D03*
G04 #@! TD*
D12*
G04 #@! TO.P,J9,1*
G04 #@! TO.N,+9V*
X185166000Y-55118000D03*
D13*
G04 #@! TO.P,J9,2*
G04 #@! TO.N,GND*
X185166000Y-49118000D03*
G04 #@! TO.P,J9,3*
G04 #@! TO.N,N/C*
X180466000Y-52118000D03*
G04 #@! TD*
D14*
G04 #@! TO.P,J4,5*
G04 #@! TO.N,Net-(D1-Pad2)*
X141692000Y-104340000D03*
D15*
G04 #@! TO.P,J4,*
G04 #@! TO.N,*
X129192000Y-111840000D03*
D14*
G04 #@! TO.P,J4,3*
G04 #@! TO.N,Net-(J4-Pad3)*
X139192000Y-101840000D03*
G04 #@! TO.P,J4,2*
G04 #@! TO.N,Net-(J4-Pad2)*
X139192000Y-109340000D03*
G04 #@! TO.P,J4,1*
G04 #@! TO.N,Net-(J4-Pad1)*
X139192000Y-116840000D03*
G04 #@! TO.P,J4,4*
G04 #@! TO.N,Net-(J4-Pad4)*
X141692000Y-114340000D03*
D15*
G04 #@! TO.P,J4,*
G04 #@! TO.N,*
X129192000Y-106840000D03*
G04 #@! TD*
D16*
G04 #@! TO.P,A1,1*
G04 #@! TO.N,Net-(A1-Pad1)*
X176403000Y-78105000D03*
D17*
G04 #@! TO.P,A1,17*
G04 #@! TO.N,Net-(A1-Pad17)*
X191643000Y-111125000D03*
G04 #@! TO.P,A1,2*
G04 #@! TO.N,Midi_In*
X176403000Y-80645000D03*
G04 #@! TO.P,A1,18*
G04 #@! TO.N,Net-(A1-Pad18)*
X191643000Y-108585000D03*
G04 #@! TO.P,A1,3*
G04 #@! TO.N,Net-(A1-Pad3)*
X176403000Y-83185000D03*
G04 #@! TO.P,A1,19*
G04 #@! TO.N,Net-(A1-Pad19)*
X191643000Y-106045000D03*
G04 #@! TO.P,A1,4*
G04 #@! TO.N,GND*
X176403000Y-85725000D03*
G04 #@! TO.P,A1,20*
G04 #@! TO.N,Net-(A1-Pad20)*
X191643000Y-103505000D03*
G04 #@! TO.P,A1,5*
G04 #@! TO.N,Net-(A1-Pad5)*
X176403000Y-88265000D03*
G04 #@! TO.P,A1,21*
G04 #@! TO.N,Net-(A1-Pad21)*
X191643000Y-100965000D03*
G04 #@! TO.P,A1,6*
G04 #@! TO.N,Net-(A1-Pad6)*
X176403000Y-90805000D03*
G04 #@! TO.P,A1,22*
G04 #@! TO.N,Net-(A1-Pad22)*
X191643000Y-98425000D03*
G04 #@! TO.P,A1,7*
G04 #@! TO.N,Net-(A1-Pad7)*
X176403000Y-93345000D03*
G04 #@! TO.P,A1,23*
G04 #@! TO.N,SDA*
X191643000Y-95885000D03*
G04 #@! TO.P,A1,8*
G04 #@! TO.N,Net-(A1-Pad8)*
X176403000Y-95885000D03*
G04 #@! TO.P,A1,24*
G04 #@! TO.N,SCL*
X191643000Y-93345000D03*
G04 #@! TO.P,A1,9*
G04 #@! TO.N,Net-(A1-Pad9)*
X176403000Y-98425000D03*
G04 #@! TO.P,A1,25*
G04 #@! TO.N,Net-(A1-Pad25)*
X191643000Y-90805000D03*
G04 #@! TO.P,A1,10*
G04 #@! TO.N,Net-(A1-Pad10)*
X176403000Y-100965000D03*
G04 #@! TO.P,A1,26*
G04 #@! TO.N,Net-(A1-Pad26)*
X191643000Y-88265000D03*
G04 #@! TO.P,A1,11*
G04 #@! TO.N,Tune_In*
X176403000Y-103505000D03*
G04 #@! TO.P,A1,27*
G04 #@! TO.N,+5V*
X191643000Y-85725000D03*
G04 #@! TO.P,A1,12*
G04 #@! TO.N,Net-(A1-Pad12)*
X176403000Y-106045000D03*
G04 #@! TO.P,A1,28*
G04 #@! TO.N,Net-(A1-Pad28)*
X191643000Y-83185000D03*
G04 #@! TO.P,A1,13*
G04 #@! TO.N,Net-(A1-Pad13)*
X176403000Y-108585000D03*
G04 #@! TO.P,A1,29*
G04 #@! TO.N,GND*
X191643000Y-80645000D03*
G04 #@! TO.P,A1,14*
G04 #@! TO.N,Net-(A1-Pad14)*
X176403000Y-111125000D03*
G04 #@! TO.P,A1,30*
G04 #@! TO.N,+9V*
X191643000Y-78105000D03*
G04 #@! TO.P,A1,15*
G04 #@! TO.N,GateOut*
X176403000Y-113665000D03*
G04 #@! TO.P,A1,16*
G04 #@! TO.N,Net-(A1-Pad16)*
X191643000Y-113665000D03*
G04 #@! TD*
D16*
G04 #@! TO.P,C1,1*
G04 #@! TO.N,GND*
X166370000Y-61214000D03*
D18*
G04 #@! TO.P,C1,2*
G04 #@! TO.N,-9V*
X166370000Y-58714000D03*
G04 #@! TD*
G04 #@! TO.P,C2,2*
G04 #@! TO.N,Net-(C2-Pad2)*
X157567000Y-70612000D03*
D16*
G04 #@! TO.P,C2,1*
G04 #@! TO.N,Net-(C2-Pad1)*
X155067000Y-70612000D03*
G04 #@! TD*
D18*
G04 #@! TO.P,C3,1*
G04 #@! TO.N,+5V*
X151638000Y-88773000D03*
G04 #@! TO.P,C3,2*
G04 #@! TO.N,GND*
X151638000Y-83773000D03*
G04 #@! TD*
D16*
G04 #@! TO.P,D1,1*
G04 #@! TO.N,Net-(D1-Pad1)*
X146304000Y-110363000D03*
D17*
G04 #@! TO.P,D1,2*
G04 #@! TO.N,Net-(D1-Pad2)*
X146304000Y-117983000D03*
G04 #@! TD*
D10*
G04 #@! TO.P,J5,15*
G04 #@! TO.N,GateOut*
X168402000Y-113665000D03*
G04 #@! TO.P,J5,14*
G04 #@! TO.N,Net-(A1-Pad14)*
X168402000Y-111125000D03*
G04 #@! TO.P,J5,13*
G04 #@! TO.N,Net-(A1-Pad13)*
X168402000Y-108585000D03*
G04 #@! TO.P,J5,12*
G04 #@! TO.N,Net-(A1-Pad12)*
X168402000Y-106045000D03*
G04 #@! TO.P,J5,11*
G04 #@! TO.N,Tune_In*
X168402000Y-103505000D03*
G04 #@! TO.P,J5,10*
G04 #@! TO.N,Net-(A1-Pad10)*
X168402000Y-100965000D03*
G04 #@! TO.P,J5,9*
G04 #@! TO.N,Net-(A1-Pad9)*
X168402000Y-98425000D03*
G04 #@! TO.P,J5,8*
G04 #@! TO.N,Net-(A1-Pad8)*
X168402000Y-95885000D03*
G04 #@! TO.P,J5,7*
G04 #@! TO.N,Net-(A1-Pad7)*
X168402000Y-93345000D03*
G04 #@! TO.P,J5,6*
G04 #@! TO.N,Net-(A1-Pad6)*
X168402000Y-90805000D03*
G04 #@! TO.P,J5,5*
G04 #@! TO.N,Net-(A1-Pad5)*
X168402000Y-88265000D03*
G04 #@! TO.P,J5,4*
G04 #@! TO.N,GND*
X168402000Y-85725000D03*
G04 #@! TO.P,J5,3*
G04 #@! TO.N,Net-(A1-Pad3)*
X168402000Y-83185000D03*
G04 #@! TO.P,J5,2*
G04 #@! TO.N,Midi_In*
X168402000Y-80645000D03*
D11*
G04 #@! TO.P,J5,1*
G04 #@! TO.N,Net-(A1-Pad1)*
X168402000Y-78105000D03*
G04 #@! TD*
G04 #@! TO.P,J6,1*
G04 #@! TO.N,SCL*
X188087000Y-70231000D03*
D10*
G04 #@! TO.P,J6,2*
G04 #@! TO.N,SDA*
X185547000Y-70231000D03*
G04 #@! TO.P,J6,3*
G04 #@! TO.N,+5V*
X183007000Y-70231000D03*
G04 #@! TO.P,J6,4*
G04 #@! TO.N,GND*
X180467000Y-70231000D03*
G04 #@! TD*
D11*
G04 #@! TO.P,J7,1*
G04 #@! TO.N,Net-(A1-Pad16)*
X200025000Y-113665000D03*
D10*
G04 #@! TO.P,J7,2*
G04 #@! TO.N,Net-(A1-Pad17)*
X200025000Y-111125000D03*
G04 #@! TO.P,J7,3*
G04 #@! TO.N,Net-(A1-Pad18)*
X200025000Y-108585000D03*
G04 #@! TO.P,J7,4*
G04 #@! TO.N,Net-(A1-Pad19)*
X200025000Y-106045000D03*
G04 #@! TO.P,J7,5*
G04 #@! TO.N,Net-(A1-Pad20)*
X200025000Y-103505000D03*
G04 #@! TO.P,J7,6*
G04 #@! TO.N,Net-(A1-Pad21)*
X200025000Y-100965000D03*
G04 #@! TO.P,J7,7*
G04 #@! TO.N,Net-(A1-Pad22)*
X200025000Y-98425000D03*
G04 #@! TO.P,J7,8*
G04 #@! TO.N,SDA*
X200025000Y-95885000D03*
G04 #@! TO.P,J7,9*
G04 #@! TO.N,SCL*
X200025000Y-93345000D03*
G04 #@! TO.P,J7,10*
G04 #@! TO.N,Net-(A1-Pad25)*
X200025000Y-90805000D03*
G04 #@! TO.P,J7,11*
G04 #@! TO.N,Net-(A1-Pad26)*
X200025000Y-88265000D03*
G04 #@! TO.P,J7,12*
G04 #@! TO.N,+5V*
X200025000Y-85725000D03*
G04 #@! TO.P,J7,13*
G04 #@! TO.N,Net-(A1-Pad28)*
X200025000Y-83185000D03*
G04 #@! TO.P,J7,14*
G04 #@! TO.N,GND*
X200025000Y-80645000D03*
G04 #@! TO.P,J7,15*
G04 #@! TO.N,+9V*
X200025000Y-78105000D03*
G04 #@! TD*
D11*
G04 #@! TO.P,J8,1*
G04 #@! TO.N,+9V*
X197231000Y-66421000D03*
D10*
G04 #@! TO.P,J8,2*
G04 #@! TO.N,GND*
X197231000Y-68961000D03*
G04 #@! TO.P,J8,3*
G04 #@! TO.N,-9V*
X197231000Y-71501000D03*
G04 #@! TD*
D18*
G04 #@! TO.P,R1,1*
G04 #@! TO.N,Net-(D1-Pad1)*
X146304000Y-106172000D03*
D17*
G04 #@! TO.P,R1,2*
G04 #@! TO.N,Net-(J4-Pad4)*
X146304000Y-101092000D03*
G04 #@! TD*
D18*
G04 #@! TO.P,R2,1*
G04 #@! TO.N,Midi_In*
X151384000Y-101600000D03*
D17*
G04 #@! TO.P,R2,2*
G04 #@! TO.N,+5V*
X156464000Y-101600000D03*
G04 #@! TD*
D18*
G04 #@! TO.P,R3,1*
G04 #@! TO.N,+5V*
X162306000Y-84582000D03*
D17*
G04 #@! TO.P,R3,2*
G04 #@! TO.N,SDA*
X162306000Y-89662000D03*
G04 #@! TD*
G04 #@! TO.P,R4,2*
G04 #@! TO.N,Net-(R4-Pad2)*
X156972000Y-79248000D03*
D18*
G04 #@! TO.P,R4,1*
G04 #@! TO.N,GND*
X151892000Y-79248000D03*
G04 #@! TD*
D17*
G04 #@! TO.P,R5,2*
G04 #@! TO.N,SCL*
X162306000Y-74168000D03*
D18*
G04 #@! TO.P,R5,1*
G04 #@! TO.N,+5V*
X162306000Y-79248000D03*
G04 #@! TD*
D16*
G04 #@! TO.P,U2,1*
G04 #@! TO.N,Net-(U2-Pad1)*
X151511000Y-63881000D03*
D17*
G04 #@! TO.P,U2,5*
G04 #@! TO.N,-9V*
X159131000Y-56261000D03*
G04 #@! TO.P,U2,2*
G04 #@! TO.N,Net-(C2-Pad1)*
X154051000Y-63881000D03*
G04 #@! TO.P,U2,6*
G04 #@! TO.N,Net-(U2-Pad6)*
X156591000Y-56261000D03*
G04 #@! TO.P,U2,3*
G04 #@! TO.N,GND*
X156591000Y-63881000D03*
G04 #@! TO.P,U2,7*
G04 #@! TO.N,Net-(U2-Pad7)*
X154051000Y-56261000D03*
G04 #@! TO.P,U2,4*
G04 #@! TO.N,Net-(C2-Pad2)*
X159131000Y-63881000D03*
G04 #@! TO.P,U2,8*
G04 #@! TO.N,+9V*
X151511000Y-56261000D03*
G04 #@! TD*
D19*
G04 #@! TO.N,GND*
X164719000Y-115697000D03*
G04 #@! TO.N,Tune_In*
X147066000Y-62103000D03*
G04 #@! TO.N,GateOut*
X141351000Y-93726000D03*
G04 #@! TD*
D20*
G04 #@! TO.N,Midi_In*
X167552001Y-81494999D02*
X168402000Y-80645000D01*
X167224999Y-81822001D02*
X167552001Y-81494999D01*
X167224999Y-86410963D02*
X167224999Y-81822001D01*
X152835961Y-100800001D02*
X167224999Y-86410963D01*
X152183999Y-100800001D02*
X152835961Y-100800001D01*
X151384000Y-101600000D02*
X152183999Y-100800001D01*
D21*
G04 #@! TO.N,GND*
X175148999Y-108847923D02*
X168299922Y-115697000D01*
X176403000Y-85725000D02*
X175148999Y-86979001D01*
X168299922Y-115697000D02*
X164719000Y-115697000D01*
X164719000Y-115697000D02*
X164719000Y-115697000D01*
D20*
X151892000Y-68580000D02*
X151892000Y-79248000D01*
X156591000Y-63881000D02*
X151892000Y-68580000D01*
X168960000Y-97247999D02*
X175148999Y-91059000D01*
X163864001Y-97247999D02*
X168960000Y-97247999D01*
X160655000Y-100457000D02*
X163864001Y-97247999D01*
D21*
X175148999Y-86979001D02*
X175148999Y-91059000D01*
X175148999Y-91059000D02*
X175148999Y-108847923D01*
D20*
G04 #@! TO.N,SCL*
X188087000Y-69127000D02*
X188087000Y-70231000D01*
X185762000Y-66802000D02*
X188087000Y-69127000D01*
X178943000Y-66802000D02*
X185762000Y-66802000D01*
X171577000Y-74168000D02*
X178943000Y-66802000D01*
X162306000Y-74168000D02*
X171577000Y-74168000D01*
G04 #@! TO.N,Tune_In*
X151621038Y-103505000D02*
X147066000Y-98949962D01*
X168402000Y-103505000D02*
X151621038Y-103505000D01*
X147066000Y-98949962D02*
X147066000Y-62103000D01*
X147066000Y-62103000D02*
X147066000Y-62103000D01*
D21*
G04 #@! TO.N,+5V*
X183007000Y-77089000D02*
X183007000Y-70231000D01*
X191643000Y-85725000D02*
X183007000Y-77089000D01*
X182157001Y-71080999D02*
X183007000Y-70231000D01*
X178488990Y-74749010D02*
X182157001Y-71080999D01*
X165673620Y-74749010D02*
X178488990Y-74749010D01*
X162306000Y-78116630D02*
X165673620Y-74749010D01*
X162306000Y-79248000D02*
X162306000Y-78116630D01*
D20*
X161506001Y-85381999D02*
X162306000Y-84582000D01*
X157315001Y-89572999D02*
X161506001Y-85381999D01*
X152437999Y-89572999D02*
X157315001Y-89572999D01*
X151638000Y-88773000D02*
X152437999Y-89572999D01*
D21*
G04 #@! TO.N,+9V*
X152310999Y-57060999D02*
X151511000Y-56261000D01*
X152765001Y-57515001D02*
X152310999Y-57060999D01*
X155139001Y-57515001D02*
X152765001Y-57515001D01*
X165100000Y-67476000D02*
X155139001Y-57515001D01*
X165100000Y-68834000D02*
X165100000Y-67476000D01*
D20*
G04 #@! TO.N,GateOut*
X141351000Y-93726000D02*
X141224000Y-93599000D01*
X141351000Y-94291685D02*
X141351000Y-93726000D01*
X159874316Y-112815001D02*
X141351000Y-94291685D01*
X167552001Y-112815001D02*
X159874316Y-112815001D01*
X168402000Y-113665000D02*
X167552001Y-112815001D01*
D21*
G04 #@! TO.N,-9V*
X196381001Y-70651001D02*
X197231000Y-71501000D01*
X191950990Y-66220990D02*
X196381001Y-70651001D01*
X167501370Y-58714000D02*
X175008360Y-66220990D01*
X166370000Y-58714000D02*
X167501370Y-58714000D01*
X175020989Y-67984001D02*
X176784000Y-66220990D01*
X171029999Y-67984001D02*
X175020989Y-67984001D01*
X170180000Y-68834000D02*
X171029999Y-67984001D01*
X175008360Y-66220990D02*
X176784000Y-66220990D01*
X176784000Y-66220990D02*
X191950990Y-66220990D01*
G04 #@! TD*
D20*
G04 #@! TO.N,+9V*
G36*
X202402821Y-73664704D02*
X183896000Y-74207691D01*
X183896000Y-71422983D01*
X184077625Y-71301625D01*
X184277000Y-71003239D01*
X184476375Y-71301625D01*
X184967582Y-71629839D01*
X185400744Y-71716000D01*
X185693256Y-71716000D01*
X186126418Y-71629839D01*
X186617625Y-71301625D01*
X186629816Y-71283381D01*
X186638843Y-71328765D01*
X186779191Y-71538809D01*
X186989235Y-71679157D01*
X187237000Y-71728440D01*
X188937000Y-71728440D01*
X189184765Y-71679157D01*
X189394809Y-71538809D01*
X189535157Y-71328765D01*
X189584440Y-71081000D01*
X189584440Y-69381000D01*
X189535157Y-69133235D01*
X189394809Y-68923191D01*
X189184765Y-68782843D01*
X188937000Y-68733560D01*
X188740561Y-68733560D01*
X188636371Y-68577629D01*
X188572750Y-68535119D01*
X187147620Y-67109990D01*
X191582755Y-67109990D01*
X195759523Y-71286759D01*
X195716908Y-71501000D01*
X195832161Y-72080418D01*
X196160375Y-72571625D01*
X196651582Y-72899839D01*
X197084744Y-72986000D01*
X197377256Y-72986000D01*
X197810418Y-72899839D01*
X198301625Y-72571625D01*
X198629839Y-72080418D01*
X198745092Y-71501000D01*
X198629839Y-70921582D01*
X198301625Y-70430375D01*
X198003239Y-70231000D01*
X198301625Y-70031625D01*
X198629839Y-69540418D01*
X198745092Y-68961000D01*
X198629839Y-68381582D01*
X198301625Y-67890375D01*
X198279967Y-67875904D01*
X198440698Y-67809327D01*
X198619327Y-67630699D01*
X198716000Y-67397310D01*
X198716000Y-66706750D01*
X198557250Y-66548000D01*
X197358000Y-66548000D01*
X197358000Y-66568000D01*
X197104000Y-66568000D01*
X197104000Y-66548000D01*
X195904750Y-66548000D01*
X195746000Y-66706750D01*
X195746000Y-67397310D01*
X195842673Y-67630699D01*
X196021302Y-67809327D01*
X196182033Y-67875904D01*
X196160375Y-67890375D01*
X195832161Y-68381582D01*
X195755288Y-68768052D01*
X192641521Y-65654286D01*
X192591923Y-65580057D01*
X192389332Y-65444690D01*
X195746000Y-65444690D01*
X195746000Y-66135250D01*
X195904750Y-66294000D01*
X197104000Y-66294000D01*
X197104000Y-65094750D01*
X197358000Y-65094750D01*
X197358000Y-66294000D01*
X198557250Y-66294000D01*
X198716000Y-66135250D01*
X198716000Y-65444690D01*
X198619327Y-65211301D01*
X198440698Y-65032673D01*
X198207309Y-64936000D01*
X197516750Y-64936000D01*
X197358000Y-65094750D01*
X197104000Y-65094750D01*
X196945250Y-64936000D01*
X196254691Y-64936000D01*
X196021302Y-65032673D01*
X195842673Y-65211301D01*
X195746000Y-65444690D01*
X192389332Y-65444690D01*
X192297860Y-65383571D01*
X192038546Y-65331990D01*
X192038545Y-65331990D01*
X191950990Y-65314574D01*
X191863435Y-65331990D01*
X176871554Y-65331990D01*
X176783999Y-65314574D01*
X176696444Y-65331990D01*
X175376596Y-65331990D01*
X168191901Y-58147296D01*
X168142303Y-58073067D01*
X167848240Y-57876581D01*
X167588926Y-57825000D01*
X167588925Y-57825000D01*
X167501370Y-57807584D01*
X167494372Y-57808976D01*
X167182862Y-57497466D01*
X166655439Y-57279000D01*
X166084561Y-57279000D01*
X165557138Y-57497466D01*
X165153466Y-57901138D01*
X164935000Y-58428561D01*
X164935000Y-58999439D01*
X165153466Y-59526862D01*
X165422503Y-59795899D01*
X165322235Y-59815843D01*
X165112191Y-59956191D01*
X164971843Y-60166235D01*
X164922560Y-60414000D01*
X164922560Y-62014000D01*
X164971843Y-62261765D01*
X165112191Y-62471809D01*
X165322235Y-62612157D01*
X165570000Y-62661440D01*
X167170000Y-62661440D01*
X167417765Y-62612157D01*
X167627809Y-62471809D01*
X167768157Y-62261765D01*
X167817440Y-62014000D01*
X167817440Y-60414000D01*
X167785982Y-60255847D01*
X174317830Y-66787696D01*
X174367427Y-66861923D01*
X174661490Y-67058409D01*
X174684724Y-67063031D01*
X174652754Y-67095001D01*
X171117553Y-67095001D01*
X171029998Y-67077585D01*
X170942443Y-67095001D01*
X170683129Y-67146582D01*
X170389066Y-67343068D01*
X170378199Y-67359332D01*
X170326256Y-67349000D01*
X170033744Y-67349000D01*
X169600582Y-67435161D01*
X169109375Y-67763375D01*
X168910000Y-68061761D01*
X168710625Y-67763375D01*
X168219418Y-67435161D01*
X167786256Y-67349000D01*
X167493744Y-67349000D01*
X167060582Y-67435161D01*
X166569375Y-67763375D01*
X166554904Y-67785033D01*
X166488327Y-67624302D01*
X166309699Y-67445673D01*
X166076310Y-67349000D01*
X165385750Y-67349000D01*
X165227000Y-67507750D01*
X165227000Y-68707000D01*
X165247000Y-68707000D01*
X165247000Y-68961000D01*
X165227000Y-68961000D01*
X165227000Y-70160250D01*
X165385750Y-70319000D01*
X166076310Y-70319000D01*
X166309699Y-70222327D01*
X166488327Y-70043698D01*
X166554904Y-69882967D01*
X166569375Y-69904625D01*
X167060582Y-70232839D01*
X167493744Y-70319000D01*
X167786256Y-70319000D01*
X168219418Y-70232839D01*
X168710625Y-69904625D01*
X168910000Y-69606239D01*
X169109375Y-69904625D01*
X169600582Y-70232839D01*
X170033744Y-70319000D01*
X170326256Y-70319000D01*
X170759418Y-70232839D01*
X171250625Y-69904625D01*
X171578839Y-69413418D01*
X171686334Y-68873001D01*
X174933434Y-68873001D01*
X175020989Y-68890417D01*
X175108544Y-68873001D01*
X175108545Y-68873001D01*
X175367859Y-68821420D01*
X175661922Y-68624934D01*
X175711520Y-68550705D01*
X177152236Y-67109990D01*
X177557379Y-67109990D01*
X171261370Y-73406000D01*
X163522707Y-73406000D01*
X163340577Y-73133423D01*
X162865909Y-72816260D01*
X162447333Y-72733000D01*
X162164667Y-72733000D01*
X161746091Y-72816260D01*
X161271423Y-73133423D01*
X160954260Y-73608091D01*
X160842887Y-74168000D01*
X160954260Y-74727909D01*
X161054453Y-74877859D01*
X152654000Y-75124327D01*
X152654000Y-69812000D01*
X153619560Y-69812000D01*
X153619560Y-71412000D01*
X153668843Y-71659765D01*
X153809191Y-71869809D01*
X154019235Y-72010157D01*
X154267000Y-72059440D01*
X155867000Y-72059440D01*
X156114765Y-72010157D01*
X156324809Y-71869809D01*
X156465157Y-71659765D01*
X156485101Y-71559497D01*
X156754138Y-71828534D01*
X157281561Y-72047000D01*
X157852439Y-72047000D01*
X158379862Y-71828534D01*
X158783534Y-71424862D01*
X159002000Y-70897439D01*
X159002000Y-70326561D01*
X158783534Y-69799138D01*
X158379862Y-69395466D01*
X157852439Y-69177000D01*
X157281561Y-69177000D01*
X156754138Y-69395466D01*
X156485101Y-69664503D01*
X156465157Y-69564235D01*
X156324809Y-69354191D01*
X156114765Y-69213843D01*
X155867000Y-69164560D01*
X154267000Y-69164560D01*
X154019235Y-69213843D01*
X153809191Y-69354191D01*
X153668843Y-69564235D01*
X153619560Y-69812000D01*
X152654000Y-69812000D01*
X152654000Y-69119750D01*
X163615000Y-69119750D01*
X163615000Y-69810309D01*
X163711673Y-70043698D01*
X163890301Y-70222327D01*
X164123690Y-70319000D01*
X164814250Y-70319000D01*
X164973000Y-70160250D01*
X164973000Y-68961000D01*
X163773750Y-68961000D01*
X163615000Y-69119750D01*
X152654000Y-69119750D01*
X152654000Y-68895630D01*
X153691939Y-67857691D01*
X163615000Y-67857691D01*
X163615000Y-68548250D01*
X163773750Y-68707000D01*
X164973000Y-68707000D01*
X164973000Y-67507750D01*
X164814250Y-67349000D01*
X164123690Y-67349000D01*
X163890301Y-67445673D01*
X163711673Y-67624302D01*
X163615000Y-67857691D01*
X153691939Y-67857691D01*
X156269474Y-65280157D01*
X156449667Y-65316000D01*
X156732333Y-65316000D01*
X157150909Y-65232740D01*
X157625577Y-64915577D01*
X157861000Y-64563242D01*
X158096423Y-64915577D01*
X158571091Y-65232740D01*
X158989667Y-65316000D01*
X159272333Y-65316000D01*
X159690909Y-65232740D01*
X160165577Y-64915577D01*
X160482740Y-64440909D01*
X160594113Y-63881000D01*
X160482740Y-63321091D01*
X160165577Y-62846423D01*
X159690909Y-62529260D01*
X159272333Y-62446000D01*
X158989667Y-62446000D01*
X158571091Y-62529260D01*
X158096423Y-62846423D01*
X157861000Y-63198758D01*
X157625577Y-62846423D01*
X157150909Y-62529260D01*
X156732333Y-62446000D01*
X156449667Y-62446000D01*
X156031091Y-62529260D01*
X155556423Y-62846423D01*
X155321000Y-63198758D01*
X155085577Y-62846423D01*
X154610909Y-62529260D01*
X154192333Y-62446000D01*
X153909667Y-62446000D01*
X153491091Y-62529260D01*
X153016423Y-62846423D01*
X152935785Y-62967106D01*
X152909157Y-62833235D01*
X152768809Y-62623191D01*
X152558765Y-62482843D01*
X152311000Y-62433560D01*
X150711000Y-62433560D01*
X150463235Y-62482843D01*
X150253191Y-62623191D01*
X150112843Y-62833235D01*
X150063560Y-63081000D01*
X150063560Y-64681000D01*
X150112843Y-64928765D01*
X150253191Y-65138809D01*
X150463235Y-65279157D01*
X150711000Y-65328440D01*
X152311000Y-65328440D01*
X152558765Y-65279157D01*
X152768809Y-65138809D01*
X152909157Y-64928765D01*
X152935785Y-64794894D01*
X153016423Y-64915577D01*
X153491091Y-65232740D01*
X153909667Y-65316000D01*
X154078369Y-65316000D01*
X151406253Y-67988117D01*
X151342629Y-68030629D01*
X151174212Y-68282684D01*
X151130000Y-68504953D01*
X151130000Y-68504957D01*
X151115073Y-68580000D01*
X151130000Y-68655043D01*
X151130001Y-75169041D01*
X150723204Y-75180976D01*
X149983976Y-71854450D01*
X149977179Y-71833030D01*
X147828000Y-66690352D01*
X147828000Y-62804711D01*
X147943431Y-62689280D01*
X148101000Y-62308874D01*
X148101000Y-61897126D01*
X147943431Y-61516720D01*
X147652280Y-61225569D01*
X147271874Y-61068000D01*
X146860126Y-61068000D01*
X146479720Y-61225569D01*
X146188569Y-61516720D01*
X146031000Y-61897126D01*
X146031000Y-62308874D01*
X146188569Y-62689280D01*
X146304001Y-62804712D01*
X146304001Y-63043640D01*
X143615333Y-56610041D01*
X150119086Y-56610041D01*
X150358611Y-57116134D01*
X150773577Y-57492041D01*
X151161961Y-57652904D01*
X151384000Y-57530915D01*
X151384000Y-56388000D01*
X150240371Y-56388000D01*
X150119086Y-56610041D01*
X143615333Y-56610041D01*
X143323598Y-55911959D01*
X150119086Y-55911959D01*
X150240371Y-56134000D01*
X151384000Y-56134000D01*
X151384000Y-54991085D01*
X151638000Y-54991085D01*
X151638000Y-56134000D01*
X151658000Y-56134000D01*
X151658000Y-56388000D01*
X151638000Y-56388000D01*
X151638000Y-57530915D01*
X151860039Y-57652904D01*
X152248423Y-57492041D01*
X152663389Y-57116134D01*
X152760053Y-56911892D01*
X153016423Y-57295577D01*
X153491091Y-57612740D01*
X153909667Y-57696000D01*
X154192333Y-57696000D01*
X154610909Y-57612740D01*
X155085577Y-57295577D01*
X155321000Y-56943242D01*
X155556423Y-57295577D01*
X156031091Y-57612740D01*
X156449667Y-57696000D01*
X156732333Y-57696000D01*
X157150909Y-57612740D01*
X157625577Y-57295577D01*
X157861000Y-56943242D01*
X158096423Y-57295577D01*
X158571091Y-57612740D01*
X158989667Y-57696000D01*
X159272333Y-57696000D01*
X159690909Y-57612740D01*
X160165577Y-57295577D01*
X160482740Y-56820909D01*
X160594113Y-56261000D01*
X160482740Y-55701091D01*
X160284064Y-55403750D01*
X183231000Y-55403750D01*
X183231000Y-56544310D01*
X183327673Y-56777699D01*
X183506302Y-56956327D01*
X183739691Y-57053000D01*
X184880250Y-57053000D01*
X185039000Y-56894250D01*
X185039000Y-55245000D01*
X185293000Y-55245000D01*
X185293000Y-56894250D01*
X185451750Y-57053000D01*
X186592309Y-57053000D01*
X186825698Y-56956327D01*
X187004327Y-56777699D01*
X187101000Y-56544310D01*
X187101000Y-55403750D01*
X186942250Y-55245000D01*
X185293000Y-55245000D01*
X185039000Y-55245000D01*
X183389750Y-55245000D01*
X183231000Y-55403750D01*
X160284064Y-55403750D01*
X160165577Y-55226423D01*
X159690909Y-54909260D01*
X159272333Y-54826000D01*
X158989667Y-54826000D01*
X158571091Y-54909260D01*
X158096423Y-55226423D01*
X157861000Y-55578758D01*
X157625577Y-55226423D01*
X157150909Y-54909260D01*
X156732333Y-54826000D01*
X156449667Y-54826000D01*
X156031091Y-54909260D01*
X155556423Y-55226423D01*
X155321000Y-55578758D01*
X155085577Y-55226423D01*
X154610909Y-54909260D01*
X154192333Y-54826000D01*
X153909667Y-54826000D01*
X153491091Y-54909260D01*
X153016423Y-55226423D01*
X152760053Y-55610108D01*
X152663389Y-55405866D01*
X152248423Y-55029959D01*
X151860039Y-54869096D01*
X151638000Y-54991085D01*
X151384000Y-54991085D01*
X151161961Y-54869096D01*
X150773577Y-55029959D01*
X150358611Y-55405866D01*
X150119086Y-55911959D01*
X143323598Y-55911959D01*
X141577211Y-51733105D01*
X178531000Y-51733105D01*
X178531000Y-52502895D01*
X178825586Y-53214090D01*
X179369910Y-53758414D01*
X180081105Y-54053000D01*
X180850895Y-54053000D01*
X181562090Y-53758414D01*
X181628814Y-53691690D01*
X183231000Y-53691690D01*
X183231000Y-54832250D01*
X183389750Y-54991000D01*
X185039000Y-54991000D01*
X185039000Y-53341750D01*
X185293000Y-53341750D01*
X185293000Y-54991000D01*
X186942250Y-54991000D01*
X187101000Y-54832250D01*
X187101000Y-53691690D01*
X187004327Y-53458301D01*
X186825698Y-53279673D01*
X186592309Y-53183000D01*
X185451750Y-53183000D01*
X185293000Y-53341750D01*
X185039000Y-53341750D01*
X184880250Y-53183000D01*
X183739691Y-53183000D01*
X183506302Y-53279673D01*
X183327673Y-53458301D01*
X183231000Y-53691690D01*
X181628814Y-53691690D01*
X182106414Y-53214090D01*
X182401000Y-52502895D01*
X182401000Y-51733105D01*
X182106414Y-51021910D01*
X181562090Y-50477586D01*
X180850895Y-50183000D01*
X180081105Y-50183000D01*
X179369910Y-50477586D01*
X178825586Y-51021910D01*
X178531000Y-51733105D01*
X141577211Y-51733105D01*
X140323480Y-48733105D01*
X183231000Y-48733105D01*
X183231000Y-49502895D01*
X183525586Y-50214090D01*
X184069910Y-50758414D01*
X184781105Y-51053000D01*
X185550895Y-51053000D01*
X186262090Y-50758414D01*
X186806414Y-50214090D01*
X187101000Y-49502895D01*
X187101000Y-48733105D01*
X186806414Y-48021910D01*
X186262090Y-47477586D01*
X185550895Y-47183000D01*
X184781105Y-47183000D01*
X184069910Y-47477586D01*
X183525586Y-48021910D01*
X183231000Y-48733105D01*
X140323480Y-48733105D01*
X139382004Y-46480290D01*
X195354506Y-45974895D01*
X202402821Y-73664704D01*
X202402821Y-73664704D01*
G37*
X202402821Y-73664704D02*
X183896000Y-74207691D01*
X183896000Y-71422983D01*
X184077625Y-71301625D01*
X184277000Y-71003239D01*
X184476375Y-71301625D01*
X184967582Y-71629839D01*
X185400744Y-71716000D01*
X185693256Y-71716000D01*
X186126418Y-71629839D01*
X186617625Y-71301625D01*
X186629816Y-71283381D01*
X186638843Y-71328765D01*
X186779191Y-71538809D01*
X186989235Y-71679157D01*
X187237000Y-71728440D01*
X188937000Y-71728440D01*
X189184765Y-71679157D01*
X189394809Y-71538809D01*
X189535157Y-71328765D01*
X189584440Y-71081000D01*
X189584440Y-69381000D01*
X189535157Y-69133235D01*
X189394809Y-68923191D01*
X189184765Y-68782843D01*
X188937000Y-68733560D01*
X188740561Y-68733560D01*
X188636371Y-68577629D01*
X188572750Y-68535119D01*
X187147620Y-67109990D01*
X191582755Y-67109990D01*
X195759523Y-71286759D01*
X195716908Y-71501000D01*
X195832161Y-72080418D01*
X196160375Y-72571625D01*
X196651582Y-72899839D01*
X197084744Y-72986000D01*
X197377256Y-72986000D01*
X197810418Y-72899839D01*
X198301625Y-72571625D01*
X198629839Y-72080418D01*
X198745092Y-71501000D01*
X198629839Y-70921582D01*
X198301625Y-70430375D01*
X198003239Y-70231000D01*
X198301625Y-70031625D01*
X198629839Y-69540418D01*
X198745092Y-68961000D01*
X198629839Y-68381582D01*
X198301625Y-67890375D01*
X198279967Y-67875904D01*
X198440698Y-67809327D01*
X198619327Y-67630699D01*
X198716000Y-67397310D01*
X198716000Y-66706750D01*
X198557250Y-66548000D01*
X197358000Y-66548000D01*
X197358000Y-66568000D01*
X197104000Y-66568000D01*
X197104000Y-66548000D01*
X195904750Y-66548000D01*
X195746000Y-66706750D01*
X195746000Y-67397310D01*
X195842673Y-67630699D01*
X196021302Y-67809327D01*
X196182033Y-67875904D01*
X196160375Y-67890375D01*
X195832161Y-68381582D01*
X195755288Y-68768052D01*
X192641521Y-65654286D01*
X192591923Y-65580057D01*
X192389332Y-65444690D01*
X195746000Y-65444690D01*
X195746000Y-66135250D01*
X195904750Y-66294000D01*
X197104000Y-66294000D01*
X197104000Y-65094750D01*
X197358000Y-65094750D01*
X197358000Y-66294000D01*
X198557250Y-66294000D01*
X198716000Y-66135250D01*
X198716000Y-65444690D01*
X198619327Y-65211301D01*
X198440698Y-65032673D01*
X198207309Y-64936000D01*
X197516750Y-64936000D01*
X197358000Y-65094750D01*
X197104000Y-65094750D01*
X196945250Y-64936000D01*
X196254691Y-64936000D01*
X196021302Y-65032673D01*
X195842673Y-65211301D01*
X195746000Y-65444690D01*
X192389332Y-65444690D01*
X192297860Y-65383571D01*
X192038546Y-65331990D01*
X192038545Y-65331990D01*
X191950990Y-65314574D01*
X191863435Y-65331990D01*
X176871554Y-65331990D01*
X176783999Y-65314574D01*
X176696444Y-65331990D01*
X175376596Y-65331990D01*
X168191901Y-58147296D01*
X168142303Y-58073067D01*
X167848240Y-57876581D01*
X167588926Y-57825000D01*
X167588925Y-57825000D01*
X167501370Y-57807584D01*
X167494372Y-57808976D01*
X167182862Y-57497466D01*
X166655439Y-57279000D01*
X166084561Y-57279000D01*
X165557138Y-57497466D01*
X165153466Y-57901138D01*
X164935000Y-58428561D01*
X164935000Y-58999439D01*
X165153466Y-59526862D01*
X165422503Y-59795899D01*
X165322235Y-59815843D01*
X165112191Y-59956191D01*
X164971843Y-60166235D01*
X164922560Y-60414000D01*
X164922560Y-62014000D01*
X164971843Y-62261765D01*
X165112191Y-62471809D01*
X165322235Y-62612157D01*
X165570000Y-62661440D01*
X167170000Y-62661440D01*
X167417765Y-62612157D01*
X167627809Y-62471809D01*
X167768157Y-62261765D01*
X167817440Y-62014000D01*
X167817440Y-60414000D01*
X167785982Y-60255847D01*
X174317830Y-66787696D01*
X174367427Y-66861923D01*
X174661490Y-67058409D01*
X174684724Y-67063031D01*
X174652754Y-67095001D01*
X171117553Y-67095001D01*
X171029998Y-67077585D01*
X170942443Y-67095001D01*
X170683129Y-67146582D01*
X170389066Y-67343068D01*
X170378199Y-67359332D01*
X170326256Y-67349000D01*
X170033744Y-67349000D01*
X169600582Y-67435161D01*
X169109375Y-67763375D01*
X168910000Y-68061761D01*
X168710625Y-67763375D01*
X168219418Y-67435161D01*
X167786256Y-67349000D01*
X167493744Y-67349000D01*
X167060582Y-67435161D01*
X166569375Y-67763375D01*
X166554904Y-67785033D01*
X166488327Y-67624302D01*
X166309699Y-67445673D01*
X166076310Y-67349000D01*
X165385750Y-67349000D01*
X165227000Y-67507750D01*
X165227000Y-68707000D01*
X165247000Y-68707000D01*
X165247000Y-68961000D01*
X165227000Y-68961000D01*
X165227000Y-70160250D01*
X165385750Y-70319000D01*
X166076310Y-70319000D01*
X166309699Y-70222327D01*
X166488327Y-70043698D01*
X166554904Y-69882967D01*
X166569375Y-69904625D01*
X167060582Y-70232839D01*
X167493744Y-70319000D01*
X167786256Y-70319000D01*
X168219418Y-70232839D01*
X168710625Y-69904625D01*
X168910000Y-69606239D01*
X169109375Y-69904625D01*
X169600582Y-70232839D01*
X170033744Y-70319000D01*
X170326256Y-70319000D01*
X170759418Y-70232839D01*
X171250625Y-69904625D01*
X171578839Y-69413418D01*
X171686334Y-68873001D01*
X174933434Y-68873001D01*
X175020989Y-68890417D01*
X175108544Y-68873001D01*
X175108545Y-68873001D01*
X175367859Y-68821420D01*
X175661922Y-68624934D01*
X175711520Y-68550705D01*
X177152236Y-67109990D01*
X177557379Y-67109990D01*
X171261370Y-73406000D01*
X163522707Y-73406000D01*
X163340577Y-73133423D01*
X162865909Y-72816260D01*
X162447333Y-72733000D01*
X162164667Y-72733000D01*
X161746091Y-72816260D01*
X161271423Y-73133423D01*
X160954260Y-73608091D01*
X160842887Y-74168000D01*
X160954260Y-74727909D01*
X161054453Y-74877859D01*
X152654000Y-75124327D01*
X152654000Y-69812000D01*
X153619560Y-69812000D01*
X153619560Y-71412000D01*
X153668843Y-71659765D01*
X153809191Y-71869809D01*
X154019235Y-72010157D01*
X154267000Y-72059440D01*
X155867000Y-72059440D01*
X156114765Y-72010157D01*
X156324809Y-71869809D01*
X156465157Y-71659765D01*
X156485101Y-71559497D01*
X156754138Y-71828534D01*
X157281561Y-72047000D01*
X157852439Y-72047000D01*
X158379862Y-71828534D01*
X158783534Y-71424862D01*
X159002000Y-70897439D01*
X159002000Y-70326561D01*
X158783534Y-69799138D01*
X158379862Y-69395466D01*
X157852439Y-69177000D01*
X157281561Y-69177000D01*
X156754138Y-69395466D01*
X156485101Y-69664503D01*
X156465157Y-69564235D01*
X156324809Y-69354191D01*
X156114765Y-69213843D01*
X155867000Y-69164560D01*
X154267000Y-69164560D01*
X154019235Y-69213843D01*
X153809191Y-69354191D01*
X153668843Y-69564235D01*
X153619560Y-69812000D01*
X152654000Y-69812000D01*
X152654000Y-69119750D01*
X163615000Y-69119750D01*
X163615000Y-69810309D01*
X163711673Y-70043698D01*
X163890301Y-70222327D01*
X164123690Y-70319000D01*
X164814250Y-70319000D01*
X164973000Y-70160250D01*
X164973000Y-68961000D01*
X163773750Y-68961000D01*
X163615000Y-69119750D01*
X152654000Y-69119750D01*
X152654000Y-68895630D01*
X153691939Y-67857691D01*
X163615000Y-67857691D01*
X163615000Y-68548250D01*
X163773750Y-68707000D01*
X164973000Y-68707000D01*
X164973000Y-67507750D01*
X164814250Y-67349000D01*
X164123690Y-67349000D01*
X163890301Y-67445673D01*
X163711673Y-67624302D01*
X163615000Y-67857691D01*
X153691939Y-67857691D01*
X156269474Y-65280157D01*
X156449667Y-65316000D01*
X156732333Y-65316000D01*
X157150909Y-65232740D01*
X157625577Y-64915577D01*
X157861000Y-64563242D01*
X158096423Y-64915577D01*
X158571091Y-65232740D01*
X158989667Y-65316000D01*
X159272333Y-65316000D01*
X159690909Y-65232740D01*
X160165577Y-64915577D01*
X160482740Y-64440909D01*
X160594113Y-63881000D01*
X160482740Y-63321091D01*
X160165577Y-62846423D01*
X159690909Y-62529260D01*
X159272333Y-62446000D01*
X158989667Y-62446000D01*
X158571091Y-62529260D01*
X158096423Y-62846423D01*
X157861000Y-63198758D01*
X157625577Y-62846423D01*
X157150909Y-62529260D01*
X156732333Y-62446000D01*
X156449667Y-62446000D01*
X156031091Y-62529260D01*
X155556423Y-62846423D01*
X155321000Y-63198758D01*
X155085577Y-62846423D01*
X154610909Y-62529260D01*
X154192333Y-62446000D01*
X153909667Y-62446000D01*
X153491091Y-62529260D01*
X153016423Y-62846423D01*
X152935785Y-62967106D01*
X152909157Y-62833235D01*
X152768809Y-62623191D01*
X152558765Y-62482843D01*
X152311000Y-62433560D01*
X150711000Y-62433560D01*
X150463235Y-62482843D01*
X150253191Y-62623191D01*
X150112843Y-62833235D01*
X150063560Y-63081000D01*
X150063560Y-64681000D01*
X150112843Y-64928765D01*
X150253191Y-65138809D01*
X150463235Y-65279157D01*
X150711000Y-65328440D01*
X152311000Y-65328440D01*
X152558765Y-65279157D01*
X152768809Y-65138809D01*
X152909157Y-64928765D01*
X152935785Y-64794894D01*
X153016423Y-64915577D01*
X153491091Y-65232740D01*
X153909667Y-65316000D01*
X154078369Y-65316000D01*
X151406253Y-67988117D01*
X151342629Y-68030629D01*
X151174212Y-68282684D01*
X151130000Y-68504953D01*
X151130000Y-68504957D01*
X151115073Y-68580000D01*
X151130000Y-68655043D01*
X151130001Y-75169041D01*
X150723204Y-75180976D01*
X149983976Y-71854450D01*
X149977179Y-71833030D01*
X147828000Y-66690352D01*
X147828000Y-62804711D01*
X147943431Y-62689280D01*
X148101000Y-62308874D01*
X148101000Y-61897126D01*
X147943431Y-61516720D01*
X147652280Y-61225569D01*
X147271874Y-61068000D01*
X146860126Y-61068000D01*
X146479720Y-61225569D01*
X146188569Y-61516720D01*
X146031000Y-61897126D01*
X146031000Y-62308874D01*
X146188569Y-62689280D01*
X146304001Y-62804712D01*
X146304001Y-63043640D01*
X143615333Y-56610041D01*
X150119086Y-56610041D01*
X150358611Y-57116134D01*
X150773577Y-57492041D01*
X151161961Y-57652904D01*
X151384000Y-57530915D01*
X151384000Y-56388000D01*
X150240371Y-56388000D01*
X150119086Y-56610041D01*
X143615333Y-56610041D01*
X143323598Y-55911959D01*
X150119086Y-55911959D01*
X150240371Y-56134000D01*
X151384000Y-56134000D01*
X151384000Y-54991085D01*
X151638000Y-54991085D01*
X151638000Y-56134000D01*
X151658000Y-56134000D01*
X151658000Y-56388000D01*
X151638000Y-56388000D01*
X151638000Y-57530915D01*
X151860039Y-57652904D01*
X152248423Y-57492041D01*
X152663389Y-57116134D01*
X152760053Y-56911892D01*
X153016423Y-57295577D01*
X153491091Y-57612740D01*
X153909667Y-57696000D01*
X154192333Y-57696000D01*
X154610909Y-57612740D01*
X155085577Y-57295577D01*
X155321000Y-56943242D01*
X155556423Y-57295577D01*
X156031091Y-57612740D01*
X156449667Y-57696000D01*
X156732333Y-57696000D01*
X157150909Y-57612740D01*
X157625577Y-57295577D01*
X157861000Y-56943242D01*
X158096423Y-57295577D01*
X158571091Y-57612740D01*
X158989667Y-57696000D01*
X159272333Y-57696000D01*
X159690909Y-57612740D01*
X160165577Y-57295577D01*
X160482740Y-56820909D01*
X160594113Y-56261000D01*
X160482740Y-55701091D01*
X160284064Y-55403750D01*
X183231000Y-55403750D01*
X183231000Y-56544310D01*
X183327673Y-56777699D01*
X183506302Y-56956327D01*
X183739691Y-57053000D01*
X184880250Y-57053000D01*
X185039000Y-56894250D01*
X185039000Y-55245000D01*
X185293000Y-55245000D01*
X185293000Y-56894250D01*
X185451750Y-57053000D01*
X186592309Y-57053000D01*
X186825698Y-56956327D01*
X187004327Y-56777699D01*
X187101000Y-56544310D01*
X187101000Y-55403750D01*
X186942250Y-55245000D01*
X185293000Y-55245000D01*
X185039000Y-55245000D01*
X183389750Y-55245000D01*
X183231000Y-55403750D01*
X160284064Y-55403750D01*
X160165577Y-55226423D01*
X159690909Y-54909260D01*
X159272333Y-54826000D01*
X158989667Y-54826000D01*
X158571091Y-54909260D01*
X158096423Y-55226423D01*
X157861000Y-55578758D01*
X157625577Y-55226423D01*
X157150909Y-54909260D01*
X156732333Y-54826000D01*
X156449667Y-54826000D01*
X156031091Y-54909260D01*
X155556423Y-55226423D01*
X155321000Y-55578758D01*
X155085577Y-55226423D01*
X154610909Y-54909260D01*
X154192333Y-54826000D01*
X153909667Y-54826000D01*
X153491091Y-54909260D01*
X153016423Y-55226423D01*
X152760053Y-55610108D01*
X152663389Y-55405866D01*
X152248423Y-55029959D01*
X151860039Y-54869096D01*
X151638000Y-54991085D01*
X151384000Y-54991085D01*
X151161961Y-54869096D01*
X150773577Y-55029959D01*
X150358611Y-55405866D01*
X150119086Y-55911959D01*
X143323598Y-55911959D01*
X141577211Y-51733105D01*
X178531000Y-51733105D01*
X178531000Y-52502895D01*
X178825586Y-53214090D01*
X179369910Y-53758414D01*
X180081105Y-54053000D01*
X180850895Y-54053000D01*
X181562090Y-53758414D01*
X181628814Y-53691690D01*
X183231000Y-53691690D01*
X183231000Y-54832250D01*
X183389750Y-54991000D01*
X185039000Y-54991000D01*
X185039000Y-53341750D01*
X185293000Y-53341750D01*
X185293000Y-54991000D01*
X186942250Y-54991000D01*
X187101000Y-54832250D01*
X187101000Y-53691690D01*
X187004327Y-53458301D01*
X186825698Y-53279673D01*
X186592309Y-53183000D01*
X185451750Y-53183000D01*
X185293000Y-53341750D01*
X185039000Y-53341750D01*
X184880250Y-53183000D01*
X183739691Y-53183000D01*
X183506302Y-53279673D01*
X183327673Y-53458301D01*
X183231000Y-53691690D01*
X181628814Y-53691690D01*
X182106414Y-53214090D01*
X182401000Y-52502895D01*
X182401000Y-51733105D01*
X182106414Y-51021910D01*
X181562090Y-50477586D01*
X180850895Y-50183000D01*
X180081105Y-50183000D01*
X179369910Y-50477586D01*
X178825586Y-51021910D01*
X178531000Y-51733105D01*
X141577211Y-51733105D01*
X140323480Y-48733105D01*
X183231000Y-48733105D01*
X183231000Y-49502895D01*
X183525586Y-50214090D01*
X184069910Y-50758414D01*
X184781105Y-51053000D01*
X185550895Y-51053000D01*
X186262090Y-50758414D01*
X186806414Y-50214090D01*
X187101000Y-49502895D01*
X187101000Y-48733105D01*
X186806414Y-48021910D01*
X186262090Y-47477586D01*
X185550895Y-47183000D01*
X184781105Y-47183000D01*
X184069910Y-47477586D01*
X183525586Y-48021910D01*
X183231000Y-48733105D01*
X140323480Y-48733105D01*
X139382004Y-46480290D01*
X195354506Y-45974895D01*
X202402821Y-73664704D01*
G04 #@! TO.N,+5V*
G36*
X190522974Y-77198306D02*
X190291260Y-77545091D01*
X190179887Y-78105000D01*
X190291260Y-78664909D01*
X190608423Y-79139577D01*
X190960758Y-79375000D01*
X190608423Y-79610423D01*
X190291260Y-80085091D01*
X190179887Y-80645000D01*
X190291260Y-81204909D01*
X190608423Y-81679577D01*
X190960758Y-81915000D01*
X190608423Y-82150423D01*
X190291260Y-82625091D01*
X190179887Y-83185000D01*
X190291260Y-83744909D01*
X190608423Y-84219577D01*
X190992108Y-84475947D01*
X190787866Y-84572611D01*
X190411959Y-84987577D01*
X190251096Y-85375961D01*
X190373085Y-85598000D01*
X191516000Y-85598000D01*
X191516000Y-85578000D01*
X191770000Y-85578000D01*
X191770000Y-85598000D01*
X192912915Y-85598000D01*
X193034904Y-85375961D01*
X192874041Y-84987577D01*
X192498134Y-84572611D01*
X192293892Y-84475947D01*
X192677577Y-84219577D01*
X192994740Y-83744909D01*
X193106113Y-83185000D01*
X192994740Y-82625091D01*
X192677577Y-82150423D01*
X192325242Y-81915000D01*
X192677577Y-81679577D01*
X192994740Y-81204909D01*
X193106113Y-80645000D01*
X192994740Y-80085091D01*
X192677577Y-79610423D01*
X192325242Y-79375000D01*
X192677577Y-79139577D01*
X192994740Y-78664909D01*
X193106113Y-78105000D01*
X192994740Y-77545091D01*
X192779166Y-77222462D01*
X198785728Y-77286772D01*
X198626161Y-77525582D01*
X198510908Y-78105000D01*
X198626161Y-78684418D01*
X198954375Y-79175625D01*
X199252761Y-79375000D01*
X198954375Y-79574375D01*
X198626161Y-80065582D01*
X198510908Y-80645000D01*
X198626161Y-81224418D01*
X198954375Y-81715625D01*
X199252761Y-81915000D01*
X198954375Y-82114375D01*
X198626161Y-82605582D01*
X198510908Y-83185000D01*
X198626161Y-83764418D01*
X198954375Y-84255625D01*
X199273478Y-84468843D01*
X199143642Y-84529817D01*
X198753355Y-84958076D01*
X198583524Y-85368110D01*
X198704845Y-85598000D01*
X199898000Y-85598000D01*
X199898000Y-85578000D01*
X200152000Y-85578000D01*
X200152000Y-85598000D01*
X201345155Y-85598000D01*
X201466476Y-85368110D01*
X201296645Y-84958076D01*
X200906358Y-84529817D01*
X200776522Y-84468843D01*
X201095625Y-84255625D01*
X201423839Y-83764418D01*
X201539092Y-83185000D01*
X201423839Y-82605582D01*
X201095625Y-82114375D01*
X200797239Y-81915000D01*
X201095625Y-81715625D01*
X201423839Y-81224418D01*
X201539092Y-80645000D01*
X201423839Y-80065582D01*
X201095625Y-79574375D01*
X200797239Y-79375000D01*
X201095625Y-79175625D01*
X201423839Y-78684418D01*
X201539092Y-78105000D01*
X201423839Y-77525582D01*
X201282131Y-77313501D01*
X202778347Y-77329520D01*
X201507319Y-105885268D01*
X201423839Y-105465582D01*
X201095625Y-104974375D01*
X200797239Y-104775000D01*
X201095625Y-104575625D01*
X201423839Y-104084418D01*
X201539092Y-103505000D01*
X201423839Y-102925582D01*
X201095625Y-102434375D01*
X200797239Y-102235000D01*
X201095625Y-102035625D01*
X201423839Y-101544418D01*
X201539092Y-100965000D01*
X201423839Y-100385582D01*
X201095625Y-99894375D01*
X200797239Y-99695000D01*
X201095625Y-99495625D01*
X201423839Y-99004418D01*
X201539092Y-98425000D01*
X201423839Y-97845582D01*
X201095625Y-97354375D01*
X200797239Y-97155000D01*
X201095625Y-96955625D01*
X201423839Y-96464418D01*
X201539092Y-95885000D01*
X201423839Y-95305582D01*
X201095625Y-94814375D01*
X200797239Y-94615000D01*
X201095625Y-94415625D01*
X201423839Y-93924418D01*
X201539092Y-93345000D01*
X201423839Y-92765582D01*
X201095625Y-92274375D01*
X200797239Y-92075000D01*
X201095625Y-91875625D01*
X201423839Y-91384418D01*
X201539092Y-90805000D01*
X201423839Y-90225582D01*
X201095625Y-89734375D01*
X200797239Y-89535000D01*
X201095625Y-89335625D01*
X201423839Y-88844418D01*
X201539092Y-88265000D01*
X201423839Y-87685582D01*
X201095625Y-87194375D01*
X200776522Y-86981157D01*
X200906358Y-86920183D01*
X201296645Y-86491924D01*
X201466476Y-86081890D01*
X201345155Y-85852000D01*
X200152000Y-85852000D01*
X200152000Y-85872000D01*
X199898000Y-85872000D01*
X199898000Y-85852000D01*
X198704845Y-85852000D01*
X198583524Y-86081890D01*
X198753355Y-86491924D01*
X199143642Y-86920183D01*
X199273478Y-86981157D01*
X198954375Y-87194375D01*
X198626161Y-87685582D01*
X198510908Y-88265000D01*
X198626161Y-88844418D01*
X198954375Y-89335625D01*
X199252761Y-89535000D01*
X198954375Y-89734375D01*
X198626161Y-90225582D01*
X198510908Y-90805000D01*
X198626161Y-91384418D01*
X198954375Y-91875625D01*
X199252761Y-92075000D01*
X198954375Y-92274375D01*
X198626161Y-92765582D01*
X198510908Y-93345000D01*
X198626161Y-93924418D01*
X198954375Y-94415625D01*
X199252761Y-94615000D01*
X198954375Y-94814375D01*
X198626161Y-95305582D01*
X198510908Y-95885000D01*
X198626161Y-96464418D01*
X198954375Y-96955625D01*
X199252761Y-97155000D01*
X198954375Y-97354375D01*
X198626161Y-97845582D01*
X198510908Y-98425000D01*
X198626161Y-99004418D01*
X198954375Y-99495625D01*
X199252761Y-99695000D01*
X198954375Y-99894375D01*
X198626161Y-100385582D01*
X198510908Y-100965000D01*
X198626161Y-101544418D01*
X198954375Y-102035625D01*
X199252761Y-102235000D01*
X198954375Y-102434375D01*
X198626161Y-102925582D01*
X198510908Y-103505000D01*
X198626161Y-104084418D01*
X198954375Y-104575625D01*
X199252761Y-104775000D01*
X198954375Y-104974375D01*
X198626161Y-105465582D01*
X198510908Y-106045000D01*
X198626161Y-106624418D01*
X198954375Y-107115625D01*
X199252761Y-107315000D01*
X198954375Y-107514375D01*
X198626161Y-108005582D01*
X198510908Y-108585000D01*
X198626161Y-109164418D01*
X198954375Y-109655625D01*
X199252761Y-109855000D01*
X198954375Y-110054375D01*
X198626161Y-110545582D01*
X198510908Y-111125000D01*
X198626161Y-111704418D01*
X198954375Y-112195625D01*
X198972619Y-112207816D01*
X198927235Y-112216843D01*
X198717191Y-112357191D01*
X198576843Y-112567235D01*
X198527560Y-112815000D01*
X198527560Y-114515000D01*
X198576843Y-114762765D01*
X198717191Y-114972809D01*
X198927235Y-115113157D01*
X199175000Y-115162440D01*
X200875000Y-115162440D01*
X201096349Y-115118412D01*
X200884507Y-119877784D01*
X143222549Y-120762946D01*
X143254410Y-117983000D01*
X144840887Y-117983000D01*
X144952260Y-118542909D01*
X145269423Y-119017577D01*
X145744091Y-119334740D01*
X146162667Y-119418000D01*
X146445333Y-119418000D01*
X146863909Y-119334740D01*
X147338577Y-119017577D01*
X147655740Y-118542909D01*
X147767113Y-117983000D01*
X147655740Y-117423091D01*
X147338577Y-116948423D01*
X146863909Y-116631260D01*
X146445333Y-116548000D01*
X146162667Y-116548000D01*
X145744091Y-116631260D01*
X145269423Y-116948423D01*
X144952260Y-117423091D01*
X144840887Y-117983000D01*
X143254410Y-117983000D01*
X143286833Y-115154162D01*
X143477000Y-114695059D01*
X143477000Y-113984941D01*
X143304993Y-113569681D01*
X143350915Y-109563000D01*
X144856560Y-109563000D01*
X144856560Y-111163000D01*
X144905843Y-111410765D01*
X145046191Y-111620809D01*
X145256235Y-111761157D01*
X145504000Y-111810440D01*
X147104000Y-111810440D01*
X147351765Y-111761157D01*
X147561809Y-111620809D01*
X147702157Y-111410765D01*
X147751440Y-111163000D01*
X147751440Y-109563000D01*
X147702157Y-109315235D01*
X147561809Y-109105191D01*
X147351765Y-108964843D01*
X147104000Y-108915560D01*
X145504000Y-108915560D01*
X145256235Y-108964843D01*
X145046191Y-109105191D01*
X144905843Y-109315235D01*
X144856560Y-109563000D01*
X143350915Y-109563000D01*
X143393052Y-105886561D01*
X144869000Y-105886561D01*
X144869000Y-106457439D01*
X145087466Y-106984862D01*
X145491138Y-107388534D01*
X146018561Y-107607000D01*
X146589439Y-107607000D01*
X147116862Y-107388534D01*
X147520534Y-106984862D01*
X147739000Y-106457439D01*
X147739000Y-105886561D01*
X147520534Y-105359138D01*
X147116862Y-104955466D01*
X146589439Y-104737000D01*
X146018561Y-104737000D01*
X145491138Y-104955466D01*
X145087466Y-105359138D01*
X144869000Y-105886561D01*
X143393052Y-105886561D01*
X143404708Y-104869587D01*
X143477000Y-104695059D01*
X143477000Y-103984941D01*
X143416521Y-103838931D01*
X143489088Y-97507404D01*
X145730815Y-99749131D01*
X145269423Y-100057423D01*
X144952260Y-100532091D01*
X144840887Y-101092000D01*
X144952260Y-101651909D01*
X145269423Y-102126577D01*
X145744091Y-102443740D01*
X146162667Y-102527000D01*
X146445333Y-102527000D01*
X146863909Y-102443740D01*
X147338577Y-102126577D01*
X147646869Y-101665185D01*
X159282433Y-113300749D01*
X159324945Y-113364372D01*
X159576999Y-113532789D01*
X159799268Y-113577001D01*
X159799269Y-113577001D01*
X159874316Y-113591929D01*
X159949363Y-113577001D01*
X166905412Y-113577001D01*
X166887908Y-113665000D01*
X167003161Y-114244418D01*
X167331375Y-114735625D01*
X167439692Y-114808000D01*
X165277350Y-114808000D01*
X164924874Y-114662000D01*
X164513126Y-114662000D01*
X164132720Y-114819569D01*
X163841569Y-115110720D01*
X163684000Y-115491126D01*
X163684000Y-115902874D01*
X163841569Y-116283280D01*
X164132720Y-116574431D01*
X164513126Y-116732000D01*
X164924874Y-116732000D01*
X165277350Y-116586000D01*
X168212367Y-116586000D01*
X168299922Y-116603416D01*
X168387477Y-116586000D01*
X168387478Y-116586000D01*
X168646792Y-116534419D01*
X168940855Y-116337933D01*
X168990453Y-116263704D01*
X175527973Y-109726185D01*
X175720758Y-109855000D01*
X175368423Y-110090423D01*
X175051260Y-110565091D01*
X174939887Y-111125000D01*
X175051260Y-111684909D01*
X175368423Y-112159577D01*
X175720758Y-112395000D01*
X175368423Y-112630423D01*
X175051260Y-113105091D01*
X174939887Y-113665000D01*
X175051260Y-114224909D01*
X175368423Y-114699577D01*
X175843091Y-115016740D01*
X176261667Y-115100000D01*
X176544333Y-115100000D01*
X176962909Y-115016740D01*
X177437577Y-114699577D01*
X177754740Y-114224909D01*
X177866113Y-113665000D01*
X177754740Y-113105091D01*
X177437577Y-112630423D01*
X177085242Y-112395000D01*
X177437577Y-112159577D01*
X177754740Y-111684909D01*
X177866113Y-111125000D01*
X177754740Y-110565091D01*
X177437577Y-110090423D01*
X177085242Y-109855000D01*
X177437577Y-109619577D01*
X177754740Y-109144909D01*
X177866113Y-108585000D01*
X177754740Y-108025091D01*
X177437577Y-107550423D01*
X177085242Y-107315000D01*
X177437577Y-107079577D01*
X177754740Y-106604909D01*
X177866113Y-106045000D01*
X177754740Y-105485091D01*
X177437577Y-105010423D01*
X177085242Y-104775000D01*
X177437577Y-104539577D01*
X177754740Y-104064909D01*
X177866113Y-103505000D01*
X177754740Y-102945091D01*
X177437577Y-102470423D01*
X177085242Y-102235000D01*
X177437577Y-101999577D01*
X177754740Y-101524909D01*
X177866113Y-100965000D01*
X177754740Y-100405091D01*
X177437577Y-99930423D01*
X177085242Y-99695000D01*
X177437577Y-99459577D01*
X177754740Y-98984909D01*
X177866113Y-98425000D01*
X177754740Y-97865091D01*
X177437577Y-97390423D01*
X177085242Y-97155000D01*
X177437577Y-96919577D01*
X177754740Y-96444909D01*
X177866113Y-95885000D01*
X177754740Y-95325091D01*
X177437577Y-94850423D01*
X177085242Y-94615000D01*
X177437577Y-94379577D01*
X177754740Y-93904909D01*
X177866113Y-93345000D01*
X177754740Y-92785091D01*
X177437577Y-92310423D01*
X177085242Y-92075000D01*
X177437577Y-91839577D01*
X177754740Y-91364909D01*
X177866113Y-90805000D01*
X177754740Y-90245091D01*
X177437577Y-89770423D01*
X177085242Y-89535000D01*
X177437577Y-89299577D01*
X177754740Y-88824909D01*
X177866113Y-88265000D01*
X190179887Y-88265000D01*
X190291260Y-88824909D01*
X190608423Y-89299577D01*
X190960758Y-89535000D01*
X190608423Y-89770423D01*
X190291260Y-90245091D01*
X190179887Y-90805000D01*
X190291260Y-91364909D01*
X190608423Y-91839577D01*
X190960758Y-92075000D01*
X190608423Y-92310423D01*
X190291260Y-92785091D01*
X190179887Y-93345000D01*
X190291260Y-93904909D01*
X190608423Y-94379577D01*
X190960758Y-94615000D01*
X190608423Y-94850423D01*
X190291260Y-95325091D01*
X190179887Y-95885000D01*
X190291260Y-96444909D01*
X190608423Y-96919577D01*
X190960758Y-97155000D01*
X190608423Y-97390423D01*
X190291260Y-97865091D01*
X190179887Y-98425000D01*
X190291260Y-98984909D01*
X190608423Y-99459577D01*
X190960758Y-99695000D01*
X190608423Y-99930423D01*
X190291260Y-100405091D01*
X190179887Y-100965000D01*
X190291260Y-101524909D01*
X190608423Y-101999577D01*
X190960758Y-102235000D01*
X190608423Y-102470423D01*
X190291260Y-102945091D01*
X190179887Y-103505000D01*
X190291260Y-104064909D01*
X190608423Y-104539577D01*
X190960758Y-104775000D01*
X190608423Y-105010423D01*
X190291260Y-105485091D01*
X190179887Y-106045000D01*
X190291260Y-106604909D01*
X190608423Y-107079577D01*
X190960758Y-107315000D01*
X190608423Y-107550423D01*
X190291260Y-108025091D01*
X190179887Y-108585000D01*
X190291260Y-109144909D01*
X190608423Y-109619577D01*
X190960758Y-109855000D01*
X190608423Y-110090423D01*
X190291260Y-110565091D01*
X190179887Y-111125000D01*
X190291260Y-111684909D01*
X190608423Y-112159577D01*
X190960758Y-112395000D01*
X190608423Y-112630423D01*
X190291260Y-113105091D01*
X190179887Y-113665000D01*
X190291260Y-114224909D01*
X190608423Y-114699577D01*
X191083091Y-115016740D01*
X191501667Y-115100000D01*
X191784333Y-115100000D01*
X192202909Y-115016740D01*
X192677577Y-114699577D01*
X192994740Y-114224909D01*
X193106113Y-113665000D01*
X192994740Y-113105091D01*
X192677577Y-112630423D01*
X192325242Y-112395000D01*
X192677577Y-112159577D01*
X192994740Y-111684909D01*
X193106113Y-111125000D01*
X192994740Y-110565091D01*
X192677577Y-110090423D01*
X192325242Y-109855000D01*
X192677577Y-109619577D01*
X192994740Y-109144909D01*
X193106113Y-108585000D01*
X192994740Y-108025091D01*
X192677577Y-107550423D01*
X192325242Y-107315000D01*
X192677577Y-107079577D01*
X192994740Y-106604909D01*
X193106113Y-106045000D01*
X192994740Y-105485091D01*
X192677577Y-105010423D01*
X192325242Y-104775000D01*
X192677577Y-104539577D01*
X192994740Y-104064909D01*
X193106113Y-103505000D01*
X192994740Y-102945091D01*
X192677577Y-102470423D01*
X192325242Y-102235000D01*
X192677577Y-101999577D01*
X192994740Y-101524909D01*
X193106113Y-100965000D01*
X192994740Y-100405091D01*
X192677577Y-99930423D01*
X192325242Y-99695000D01*
X192677577Y-99459577D01*
X192994740Y-98984909D01*
X193106113Y-98425000D01*
X192994740Y-97865091D01*
X192677577Y-97390423D01*
X192325242Y-97155000D01*
X192677577Y-96919577D01*
X192994740Y-96444909D01*
X193106113Y-95885000D01*
X192994740Y-95325091D01*
X192677577Y-94850423D01*
X192325242Y-94615000D01*
X192677577Y-94379577D01*
X192994740Y-93904909D01*
X193106113Y-93345000D01*
X192994740Y-92785091D01*
X192677577Y-92310423D01*
X192325242Y-92075000D01*
X192677577Y-91839577D01*
X192994740Y-91364909D01*
X193106113Y-90805000D01*
X192994740Y-90245091D01*
X192677577Y-89770423D01*
X192325242Y-89535000D01*
X192677577Y-89299577D01*
X192994740Y-88824909D01*
X193106113Y-88265000D01*
X192994740Y-87705091D01*
X192677577Y-87230423D01*
X192293892Y-86974053D01*
X192498134Y-86877389D01*
X192874041Y-86462423D01*
X193034904Y-86074039D01*
X192912915Y-85852000D01*
X191770000Y-85852000D01*
X191770000Y-85872000D01*
X191516000Y-85872000D01*
X191516000Y-85852000D01*
X190373085Y-85852000D01*
X190251096Y-86074039D01*
X190411959Y-86462423D01*
X190787866Y-86877389D01*
X190992108Y-86974053D01*
X190608423Y-87230423D01*
X190291260Y-87705091D01*
X190179887Y-88265000D01*
X177866113Y-88265000D01*
X177754740Y-87705091D01*
X177437577Y-87230423D01*
X177085242Y-86995000D01*
X177437577Y-86759577D01*
X177754740Y-86284909D01*
X177866113Y-85725000D01*
X177754740Y-85165091D01*
X177437577Y-84690423D01*
X177085242Y-84455000D01*
X177437577Y-84219577D01*
X177754740Y-83744909D01*
X177866113Y-83185000D01*
X177754740Y-82625091D01*
X177437577Y-82150423D01*
X177085242Y-81915000D01*
X177437577Y-81679577D01*
X177754740Y-81204909D01*
X177866113Y-80645000D01*
X177754740Y-80085091D01*
X177437577Y-79610423D01*
X177316894Y-79529785D01*
X177450765Y-79503157D01*
X177660809Y-79362809D01*
X177801157Y-79152765D01*
X177850440Y-78905000D01*
X177850440Y-77305000D01*
X177802126Y-77062109D01*
X190522974Y-77198306D01*
X190522974Y-77198306D01*
G37*
X190522974Y-77198306D02*
X190291260Y-77545091D01*
X190179887Y-78105000D01*
X190291260Y-78664909D01*
X190608423Y-79139577D01*
X190960758Y-79375000D01*
X190608423Y-79610423D01*
X190291260Y-80085091D01*
X190179887Y-80645000D01*
X190291260Y-81204909D01*
X190608423Y-81679577D01*
X190960758Y-81915000D01*
X190608423Y-82150423D01*
X190291260Y-82625091D01*
X190179887Y-83185000D01*
X190291260Y-83744909D01*
X190608423Y-84219577D01*
X190992108Y-84475947D01*
X190787866Y-84572611D01*
X190411959Y-84987577D01*
X190251096Y-85375961D01*
X190373085Y-85598000D01*
X191516000Y-85598000D01*
X191516000Y-85578000D01*
X191770000Y-85578000D01*
X191770000Y-85598000D01*
X192912915Y-85598000D01*
X193034904Y-85375961D01*
X192874041Y-84987577D01*
X192498134Y-84572611D01*
X192293892Y-84475947D01*
X192677577Y-84219577D01*
X192994740Y-83744909D01*
X193106113Y-83185000D01*
X192994740Y-82625091D01*
X192677577Y-82150423D01*
X192325242Y-81915000D01*
X192677577Y-81679577D01*
X192994740Y-81204909D01*
X193106113Y-80645000D01*
X192994740Y-80085091D01*
X192677577Y-79610423D01*
X192325242Y-79375000D01*
X192677577Y-79139577D01*
X192994740Y-78664909D01*
X193106113Y-78105000D01*
X192994740Y-77545091D01*
X192779166Y-77222462D01*
X198785728Y-77286772D01*
X198626161Y-77525582D01*
X198510908Y-78105000D01*
X198626161Y-78684418D01*
X198954375Y-79175625D01*
X199252761Y-79375000D01*
X198954375Y-79574375D01*
X198626161Y-80065582D01*
X198510908Y-80645000D01*
X198626161Y-81224418D01*
X198954375Y-81715625D01*
X199252761Y-81915000D01*
X198954375Y-82114375D01*
X198626161Y-82605582D01*
X198510908Y-83185000D01*
X198626161Y-83764418D01*
X198954375Y-84255625D01*
X199273478Y-84468843D01*
X199143642Y-84529817D01*
X198753355Y-84958076D01*
X198583524Y-85368110D01*
X198704845Y-85598000D01*
X199898000Y-85598000D01*
X199898000Y-85578000D01*
X200152000Y-85578000D01*
X200152000Y-85598000D01*
X201345155Y-85598000D01*
X201466476Y-85368110D01*
X201296645Y-84958076D01*
X200906358Y-84529817D01*
X200776522Y-84468843D01*
X201095625Y-84255625D01*
X201423839Y-83764418D01*
X201539092Y-83185000D01*
X201423839Y-82605582D01*
X201095625Y-82114375D01*
X200797239Y-81915000D01*
X201095625Y-81715625D01*
X201423839Y-81224418D01*
X201539092Y-80645000D01*
X201423839Y-80065582D01*
X201095625Y-79574375D01*
X200797239Y-79375000D01*
X201095625Y-79175625D01*
X201423839Y-78684418D01*
X201539092Y-78105000D01*
X201423839Y-77525582D01*
X201282131Y-77313501D01*
X202778347Y-77329520D01*
X201507319Y-105885268D01*
X201423839Y-105465582D01*
X201095625Y-104974375D01*
X200797239Y-104775000D01*
X201095625Y-104575625D01*
X201423839Y-104084418D01*
X201539092Y-103505000D01*
X201423839Y-102925582D01*
X201095625Y-102434375D01*
X200797239Y-102235000D01*
X201095625Y-102035625D01*
X201423839Y-101544418D01*
X201539092Y-100965000D01*
X201423839Y-100385582D01*
X201095625Y-99894375D01*
X200797239Y-99695000D01*
X201095625Y-99495625D01*
X201423839Y-99004418D01*
X201539092Y-98425000D01*
X201423839Y-97845582D01*
X201095625Y-97354375D01*
X200797239Y-97155000D01*
X201095625Y-96955625D01*
X201423839Y-96464418D01*
X201539092Y-95885000D01*
X201423839Y-95305582D01*
X201095625Y-94814375D01*
X200797239Y-94615000D01*
X201095625Y-94415625D01*
X201423839Y-93924418D01*
X201539092Y-93345000D01*
X201423839Y-92765582D01*
X201095625Y-92274375D01*
X200797239Y-92075000D01*
X201095625Y-91875625D01*
X201423839Y-91384418D01*
X201539092Y-90805000D01*
X201423839Y-90225582D01*
X201095625Y-89734375D01*
X200797239Y-89535000D01*
X201095625Y-89335625D01*
X201423839Y-88844418D01*
X201539092Y-88265000D01*
X201423839Y-87685582D01*
X201095625Y-87194375D01*
X200776522Y-86981157D01*
X200906358Y-86920183D01*
X201296645Y-86491924D01*
X201466476Y-86081890D01*
X201345155Y-85852000D01*
X200152000Y-85852000D01*
X200152000Y-85872000D01*
X199898000Y-85872000D01*
X199898000Y-85852000D01*
X198704845Y-85852000D01*
X198583524Y-86081890D01*
X198753355Y-86491924D01*
X199143642Y-86920183D01*
X199273478Y-86981157D01*
X198954375Y-87194375D01*
X198626161Y-87685582D01*
X198510908Y-88265000D01*
X198626161Y-88844418D01*
X198954375Y-89335625D01*
X199252761Y-89535000D01*
X198954375Y-89734375D01*
X198626161Y-90225582D01*
X198510908Y-90805000D01*
X198626161Y-91384418D01*
X198954375Y-91875625D01*
X199252761Y-92075000D01*
X198954375Y-92274375D01*
X198626161Y-92765582D01*
X198510908Y-93345000D01*
X198626161Y-93924418D01*
X198954375Y-94415625D01*
X199252761Y-94615000D01*
X198954375Y-94814375D01*
X198626161Y-95305582D01*
X198510908Y-95885000D01*
X198626161Y-96464418D01*
X198954375Y-96955625D01*
X199252761Y-97155000D01*
X198954375Y-97354375D01*
X198626161Y-97845582D01*
X198510908Y-98425000D01*
X198626161Y-99004418D01*
X198954375Y-99495625D01*
X199252761Y-99695000D01*
X198954375Y-99894375D01*
X198626161Y-100385582D01*
X198510908Y-100965000D01*
X198626161Y-101544418D01*
X198954375Y-102035625D01*
X199252761Y-102235000D01*
X198954375Y-102434375D01*
X198626161Y-102925582D01*
X198510908Y-103505000D01*
X198626161Y-104084418D01*
X198954375Y-104575625D01*
X199252761Y-104775000D01*
X198954375Y-104974375D01*
X198626161Y-105465582D01*
X198510908Y-106045000D01*
X198626161Y-106624418D01*
X198954375Y-107115625D01*
X199252761Y-107315000D01*
X198954375Y-107514375D01*
X198626161Y-108005582D01*
X198510908Y-108585000D01*
X198626161Y-109164418D01*
X198954375Y-109655625D01*
X199252761Y-109855000D01*
X198954375Y-110054375D01*
X198626161Y-110545582D01*
X198510908Y-111125000D01*
X198626161Y-111704418D01*
X198954375Y-112195625D01*
X198972619Y-112207816D01*
X198927235Y-112216843D01*
X198717191Y-112357191D01*
X198576843Y-112567235D01*
X198527560Y-112815000D01*
X198527560Y-114515000D01*
X198576843Y-114762765D01*
X198717191Y-114972809D01*
X198927235Y-115113157D01*
X199175000Y-115162440D01*
X200875000Y-115162440D01*
X201096349Y-115118412D01*
X200884507Y-119877784D01*
X143222549Y-120762946D01*
X143254410Y-117983000D01*
X144840887Y-117983000D01*
X144952260Y-118542909D01*
X145269423Y-119017577D01*
X145744091Y-119334740D01*
X146162667Y-119418000D01*
X146445333Y-119418000D01*
X146863909Y-119334740D01*
X147338577Y-119017577D01*
X147655740Y-118542909D01*
X147767113Y-117983000D01*
X147655740Y-117423091D01*
X147338577Y-116948423D01*
X146863909Y-116631260D01*
X146445333Y-116548000D01*
X146162667Y-116548000D01*
X145744091Y-116631260D01*
X145269423Y-116948423D01*
X144952260Y-117423091D01*
X144840887Y-117983000D01*
X143254410Y-117983000D01*
X143286833Y-115154162D01*
X143477000Y-114695059D01*
X143477000Y-113984941D01*
X143304993Y-113569681D01*
X143350915Y-109563000D01*
X144856560Y-109563000D01*
X144856560Y-111163000D01*
X144905843Y-111410765D01*
X145046191Y-111620809D01*
X145256235Y-111761157D01*
X145504000Y-111810440D01*
X147104000Y-111810440D01*
X147351765Y-111761157D01*
X147561809Y-111620809D01*
X147702157Y-111410765D01*
X147751440Y-111163000D01*
X147751440Y-109563000D01*
X147702157Y-109315235D01*
X147561809Y-109105191D01*
X147351765Y-108964843D01*
X147104000Y-108915560D01*
X145504000Y-108915560D01*
X145256235Y-108964843D01*
X145046191Y-109105191D01*
X144905843Y-109315235D01*
X144856560Y-109563000D01*
X143350915Y-109563000D01*
X143393052Y-105886561D01*
X144869000Y-105886561D01*
X144869000Y-106457439D01*
X145087466Y-106984862D01*
X145491138Y-107388534D01*
X146018561Y-107607000D01*
X146589439Y-107607000D01*
X147116862Y-107388534D01*
X147520534Y-106984862D01*
X147739000Y-106457439D01*
X147739000Y-105886561D01*
X147520534Y-105359138D01*
X147116862Y-104955466D01*
X146589439Y-104737000D01*
X146018561Y-104737000D01*
X145491138Y-104955466D01*
X145087466Y-105359138D01*
X144869000Y-105886561D01*
X143393052Y-105886561D01*
X143404708Y-104869587D01*
X143477000Y-104695059D01*
X143477000Y-103984941D01*
X143416521Y-103838931D01*
X143489088Y-97507404D01*
X145730815Y-99749131D01*
X145269423Y-100057423D01*
X144952260Y-100532091D01*
X144840887Y-101092000D01*
X144952260Y-101651909D01*
X145269423Y-102126577D01*
X145744091Y-102443740D01*
X146162667Y-102527000D01*
X146445333Y-102527000D01*
X146863909Y-102443740D01*
X147338577Y-102126577D01*
X147646869Y-101665185D01*
X159282433Y-113300749D01*
X159324945Y-113364372D01*
X159576999Y-113532789D01*
X159799268Y-113577001D01*
X159799269Y-113577001D01*
X159874316Y-113591929D01*
X159949363Y-113577001D01*
X166905412Y-113577001D01*
X166887908Y-113665000D01*
X167003161Y-114244418D01*
X167331375Y-114735625D01*
X167439692Y-114808000D01*
X165277350Y-114808000D01*
X164924874Y-114662000D01*
X164513126Y-114662000D01*
X164132720Y-114819569D01*
X163841569Y-115110720D01*
X163684000Y-115491126D01*
X163684000Y-115902874D01*
X163841569Y-116283280D01*
X164132720Y-116574431D01*
X164513126Y-116732000D01*
X164924874Y-116732000D01*
X165277350Y-116586000D01*
X168212367Y-116586000D01*
X168299922Y-116603416D01*
X168387477Y-116586000D01*
X168387478Y-116586000D01*
X168646792Y-116534419D01*
X168940855Y-116337933D01*
X168990453Y-116263704D01*
X175527973Y-109726185D01*
X175720758Y-109855000D01*
X175368423Y-110090423D01*
X175051260Y-110565091D01*
X174939887Y-111125000D01*
X175051260Y-111684909D01*
X175368423Y-112159577D01*
X175720758Y-112395000D01*
X175368423Y-112630423D01*
X175051260Y-113105091D01*
X174939887Y-113665000D01*
X175051260Y-114224909D01*
X175368423Y-114699577D01*
X175843091Y-115016740D01*
X176261667Y-115100000D01*
X176544333Y-115100000D01*
X176962909Y-115016740D01*
X177437577Y-114699577D01*
X177754740Y-114224909D01*
X177866113Y-113665000D01*
X177754740Y-113105091D01*
X177437577Y-112630423D01*
X177085242Y-112395000D01*
X177437577Y-112159577D01*
X177754740Y-111684909D01*
X177866113Y-111125000D01*
X177754740Y-110565091D01*
X177437577Y-110090423D01*
X177085242Y-109855000D01*
X177437577Y-109619577D01*
X177754740Y-109144909D01*
X177866113Y-108585000D01*
X177754740Y-108025091D01*
X177437577Y-107550423D01*
X177085242Y-107315000D01*
X177437577Y-107079577D01*
X177754740Y-106604909D01*
X177866113Y-106045000D01*
X177754740Y-105485091D01*
X177437577Y-105010423D01*
X177085242Y-104775000D01*
X177437577Y-104539577D01*
X177754740Y-104064909D01*
X177866113Y-103505000D01*
X177754740Y-102945091D01*
X177437577Y-102470423D01*
X177085242Y-102235000D01*
X177437577Y-101999577D01*
X177754740Y-101524909D01*
X177866113Y-100965000D01*
X177754740Y-100405091D01*
X177437577Y-99930423D01*
X177085242Y-99695000D01*
X177437577Y-99459577D01*
X177754740Y-98984909D01*
X177866113Y-98425000D01*
X177754740Y-97865091D01*
X177437577Y-97390423D01*
X177085242Y-97155000D01*
X177437577Y-96919577D01*
X177754740Y-96444909D01*
X177866113Y-95885000D01*
X177754740Y-95325091D01*
X177437577Y-94850423D01*
X177085242Y-94615000D01*
X177437577Y-94379577D01*
X177754740Y-93904909D01*
X177866113Y-93345000D01*
X177754740Y-92785091D01*
X177437577Y-92310423D01*
X177085242Y-92075000D01*
X177437577Y-91839577D01*
X177754740Y-91364909D01*
X177866113Y-90805000D01*
X177754740Y-90245091D01*
X177437577Y-89770423D01*
X177085242Y-89535000D01*
X177437577Y-89299577D01*
X177754740Y-88824909D01*
X177866113Y-88265000D01*
X190179887Y-88265000D01*
X190291260Y-88824909D01*
X190608423Y-89299577D01*
X190960758Y-89535000D01*
X190608423Y-89770423D01*
X190291260Y-90245091D01*
X190179887Y-90805000D01*
X190291260Y-91364909D01*
X190608423Y-91839577D01*
X190960758Y-92075000D01*
X190608423Y-92310423D01*
X190291260Y-92785091D01*
X190179887Y-93345000D01*
X190291260Y-93904909D01*
X190608423Y-94379577D01*
X190960758Y-94615000D01*
X190608423Y-94850423D01*
X190291260Y-95325091D01*
X190179887Y-95885000D01*
X190291260Y-96444909D01*
X190608423Y-96919577D01*
X190960758Y-97155000D01*
X190608423Y-97390423D01*
X190291260Y-97865091D01*
X190179887Y-98425000D01*
X190291260Y-98984909D01*
X190608423Y-99459577D01*
X190960758Y-99695000D01*
X190608423Y-99930423D01*
X190291260Y-100405091D01*
X190179887Y-100965000D01*
X190291260Y-101524909D01*
X190608423Y-101999577D01*
X190960758Y-102235000D01*
X190608423Y-102470423D01*
X190291260Y-102945091D01*
X190179887Y-103505000D01*
X190291260Y-104064909D01*
X190608423Y-104539577D01*
X190960758Y-104775000D01*
X190608423Y-105010423D01*
X190291260Y-105485091D01*
X190179887Y-106045000D01*
X190291260Y-106604909D01*
X190608423Y-107079577D01*
X190960758Y-107315000D01*
X190608423Y-107550423D01*
X190291260Y-108025091D01*
X190179887Y-108585000D01*
X190291260Y-109144909D01*
X190608423Y-109619577D01*
X190960758Y-109855000D01*
X190608423Y-110090423D01*
X190291260Y-110565091D01*
X190179887Y-111125000D01*
X190291260Y-111684909D01*
X190608423Y-112159577D01*
X190960758Y-112395000D01*
X190608423Y-112630423D01*
X190291260Y-113105091D01*
X190179887Y-113665000D01*
X190291260Y-114224909D01*
X190608423Y-114699577D01*
X191083091Y-115016740D01*
X191501667Y-115100000D01*
X191784333Y-115100000D01*
X192202909Y-115016740D01*
X192677577Y-114699577D01*
X192994740Y-114224909D01*
X193106113Y-113665000D01*
X192994740Y-113105091D01*
X192677577Y-112630423D01*
X192325242Y-112395000D01*
X192677577Y-112159577D01*
X192994740Y-111684909D01*
X193106113Y-111125000D01*
X192994740Y-110565091D01*
X192677577Y-110090423D01*
X192325242Y-109855000D01*
X192677577Y-109619577D01*
X192994740Y-109144909D01*
X193106113Y-108585000D01*
X192994740Y-108025091D01*
X192677577Y-107550423D01*
X192325242Y-107315000D01*
X192677577Y-107079577D01*
X192994740Y-106604909D01*
X193106113Y-106045000D01*
X192994740Y-105485091D01*
X192677577Y-105010423D01*
X192325242Y-104775000D01*
X192677577Y-104539577D01*
X192994740Y-104064909D01*
X193106113Y-103505000D01*
X192994740Y-102945091D01*
X192677577Y-102470423D01*
X192325242Y-102235000D01*
X192677577Y-101999577D01*
X192994740Y-101524909D01*
X193106113Y-100965000D01*
X192994740Y-100405091D01*
X192677577Y-99930423D01*
X192325242Y-99695000D01*
X192677577Y-99459577D01*
X192994740Y-98984909D01*
X193106113Y-98425000D01*
X192994740Y-97865091D01*
X192677577Y-97390423D01*
X192325242Y-97155000D01*
X192677577Y-96919577D01*
X192994740Y-96444909D01*
X193106113Y-95885000D01*
X192994740Y-95325091D01*
X192677577Y-94850423D01*
X192325242Y-94615000D01*
X192677577Y-94379577D01*
X192994740Y-93904909D01*
X193106113Y-93345000D01*
X192994740Y-92785091D01*
X192677577Y-92310423D01*
X192325242Y-92075000D01*
X192677577Y-91839577D01*
X192994740Y-91364909D01*
X193106113Y-90805000D01*
X192994740Y-90245091D01*
X192677577Y-89770423D01*
X192325242Y-89535000D01*
X192677577Y-89299577D01*
X192994740Y-88824909D01*
X193106113Y-88265000D01*
X192994740Y-87705091D01*
X192677577Y-87230423D01*
X192293892Y-86974053D01*
X192498134Y-86877389D01*
X192874041Y-86462423D01*
X193034904Y-86074039D01*
X192912915Y-85852000D01*
X191770000Y-85852000D01*
X191770000Y-85872000D01*
X191516000Y-85872000D01*
X191516000Y-85852000D01*
X190373085Y-85852000D01*
X190251096Y-86074039D01*
X190411959Y-86462423D01*
X190787866Y-86877389D01*
X190992108Y-86974053D01*
X190608423Y-87230423D01*
X190291260Y-87705091D01*
X190179887Y-88265000D01*
X177866113Y-88265000D01*
X177754740Y-87705091D01*
X177437577Y-87230423D01*
X177085242Y-86995000D01*
X177437577Y-86759577D01*
X177754740Y-86284909D01*
X177866113Y-85725000D01*
X177754740Y-85165091D01*
X177437577Y-84690423D01*
X177085242Y-84455000D01*
X177437577Y-84219577D01*
X177754740Y-83744909D01*
X177866113Y-83185000D01*
X177754740Y-82625091D01*
X177437577Y-82150423D01*
X177085242Y-81915000D01*
X177437577Y-81679577D01*
X177754740Y-81204909D01*
X177866113Y-80645000D01*
X177754740Y-80085091D01*
X177437577Y-79610423D01*
X177316894Y-79529785D01*
X177450765Y-79503157D01*
X177660809Y-79362809D01*
X177801157Y-79152765D01*
X177850440Y-78905000D01*
X177850440Y-77305000D01*
X177802126Y-77062109D01*
X190522974Y-77198306D01*
G36*
X166887908Y-88265000D02*
X167003161Y-88844418D01*
X167331375Y-89335625D01*
X167629761Y-89535000D01*
X167331375Y-89734375D01*
X167003161Y-90225582D01*
X166887908Y-90805000D01*
X167003161Y-91384418D01*
X167331375Y-91875625D01*
X167629761Y-92075000D01*
X167331375Y-92274375D01*
X167003161Y-92765582D01*
X166887908Y-93345000D01*
X167003161Y-93924418D01*
X167331375Y-94415625D01*
X167629761Y-94615000D01*
X167331375Y-94814375D01*
X167003161Y-95305582D01*
X166887908Y-95885000D01*
X167003161Y-96464418D01*
X167017581Y-96485999D01*
X163939048Y-96485999D01*
X163864001Y-96471071D01*
X163788954Y-96485999D01*
X163788953Y-96485999D01*
X163566684Y-96530211D01*
X163314630Y-96698628D01*
X163272119Y-96762250D01*
X161019048Y-99015321D01*
X160801256Y-98972000D01*
X160508744Y-98972000D01*
X160075582Y-99058161D01*
X159584375Y-99386375D01*
X159256161Y-99877582D01*
X159140908Y-100457000D01*
X159256161Y-101036418D01*
X159584375Y-101527625D01*
X160075582Y-101855839D01*
X160508744Y-101942000D01*
X160801256Y-101942000D01*
X161234418Y-101855839D01*
X161725625Y-101527625D01*
X161740096Y-101505967D01*
X161806673Y-101666698D01*
X161985301Y-101845327D01*
X162218690Y-101942000D01*
X162909250Y-101942000D01*
X163068000Y-101783250D01*
X163068000Y-100584000D01*
X163322000Y-100584000D01*
X163322000Y-101783250D01*
X163480750Y-101942000D01*
X164171310Y-101942000D01*
X164404699Y-101845327D01*
X164583327Y-101666698D01*
X164680000Y-101433309D01*
X164680000Y-100742750D01*
X164521250Y-100584000D01*
X163322000Y-100584000D01*
X163068000Y-100584000D01*
X163048000Y-100584000D01*
X163048000Y-100330000D01*
X163068000Y-100330000D01*
X163068000Y-100310000D01*
X163322000Y-100310000D01*
X163322000Y-100330000D01*
X164521250Y-100330000D01*
X164680000Y-100171250D01*
X164680000Y-99480691D01*
X164583327Y-99247302D01*
X164404699Y-99068673D01*
X164171310Y-98972000D01*
X163480750Y-98972000D01*
X163322002Y-99130748D01*
X163322002Y-98972000D01*
X163217630Y-98972000D01*
X164179632Y-98009999D01*
X166970457Y-98009999D01*
X166887908Y-98425000D01*
X167003161Y-99004418D01*
X167331375Y-99495625D01*
X167629761Y-99695000D01*
X167331375Y-99894375D01*
X167003161Y-100385582D01*
X166887908Y-100965000D01*
X167003161Y-101544418D01*
X167331375Y-102035625D01*
X167629761Y-102235000D01*
X167331375Y-102434375D01*
X167125158Y-102743000D01*
X157327639Y-102743000D01*
X157695041Y-102337423D01*
X157855904Y-101949039D01*
X157733915Y-101727000D01*
X156591000Y-101727000D01*
X156591000Y-101747000D01*
X156337000Y-101747000D01*
X156337000Y-101727000D01*
X155194085Y-101727000D01*
X155072096Y-101949039D01*
X155232959Y-102337423D01*
X155600361Y-102743000D01*
X152270396Y-102743000D01*
X152600534Y-102412862D01*
X152819000Y-101885439D01*
X152819000Y-101573554D01*
X152835961Y-101576928D01*
X152911004Y-101562001D01*
X152911009Y-101562001D01*
X153133278Y-101517789D01*
X153385332Y-101349372D01*
X153427845Y-101285748D01*
X153462632Y-101250961D01*
X155072096Y-101250961D01*
X155194085Y-101473000D01*
X156337000Y-101473000D01*
X156337000Y-100329371D01*
X156591000Y-100329371D01*
X156591000Y-101473000D01*
X157733915Y-101473000D01*
X157855904Y-101250961D01*
X157695041Y-100862577D01*
X157319134Y-100447611D01*
X156813041Y-100208086D01*
X156591000Y-100329371D01*
X156337000Y-100329371D01*
X156114959Y-100208086D01*
X155608866Y-100447611D01*
X155232959Y-100862577D01*
X155072096Y-101250961D01*
X153462632Y-101250961D01*
X166996991Y-87716602D01*
X166887908Y-88265000D01*
X166887908Y-88265000D01*
G37*
X166887908Y-88265000D02*
X167003161Y-88844418D01*
X167331375Y-89335625D01*
X167629761Y-89535000D01*
X167331375Y-89734375D01*
X167003161Y-90225582D01*
X166887908Y-90805000D01*
X167003161Y-91384418D01*
X167331375Y-91875625D01*
X167629761Y-92075000D01*
X167331375Y-92274375D01*
X167003161Y-92765582D01*
X166887908Y-93345000D01*
X167003161Y-93924418D01*
X167331375Y-94415625D01*
X167629761Y-94615000D01*
X167331375Y-94814375D01*
X167003161Y-95305582D01*
X166887908Y-95885000D01*
X167003161Y-96464418D01*
X167017581Y-96485999D01*
X163939048Y-96485999D01*
X163864001Y-96471071D01*
X163788954Y-96485999D01*
X163788953Y-96485999D01*
X163566684Y-96530211D01*
X163314630Y-96698628D01*
X163272119Y-96762250D01*
X161019048Y-99015321D01*
X160801256Y-98972000D01*
X160508744Y-98972000D01*
X160075582Y-99058161D01*
X159584375Y-99386375D01*
X159256161Y-99877582D01*
X159140908Y-100457000D01*
X159256161Y-101036418D01*
X159584375Y-101527625D01*
X160075582Y-101855839D01*
X160508744Y-101942000D01*
X160801256Y-101942000D01*
X161234418Y-101855839D01*
X161725625Y-101527625D01*
X161740096Y-101505967D01*
X161806673Y-101666698D01*
X161985301Y-101845327D01*
X162218690Y-101942000D01*
X162909250Y-101942000D01*
X163068000Y-101783250D01*
X163068000Y-100584000D01*
X163322000Y-100584000D01*
X163322000Y-101783250D01*
X163480750Y-101942000D01*
X164171310Y-101942000D01*
X164404699Y-101845327D01*
X164583327Y-101666698D01*
X164680000Y-101433309D01*
X164680000Y-100742750D01*
X164521250Y-100584000D01*
X163322000Y-100584000D01*
X163068000Y-100584000D01*
X163048000Y-100584000D01*
X163048000Y-100330000D01*
X163068000Y-100330000D01*
X163068000Y-100310000D01*
X163322000Y-100310000D01*
X163322000Y-100330000D01*
X164521250Y-100330000D01*
X164680000Y-100171250D01*
X164680000Y-99480691D01*
X164583327Y-99247302D01*
X164404699Y-99068673D01*
X164171310Y-98972000D01*
X163480750Y-98972000D01*
X163322002Y-99130748D01*
X163322002Y-98972000D01*
X163217630Y-98972000D01*
X164179632Y-98009999D01*
X166970457Y-98009999D01*
X166887908Y-98425000D01*
X167003161Y-99004418D01*
X167331375Y-99495625D01*
X167629761Y-99695000D01*
X167331375Y-99894375D01*
X167003161Y-100385582D01*
X166887908Y-100965000D01*
X167003161Y-101544418D01*
X167331375Y-102035625D01*
X167629761Y-102235000D01*
X167331375Y-102434375D01*
X167125158Y-102743000D01*
X157327639Y-102743000D01*
X157695041Y-102337423D01*
X157855904Y-101949039D01*
X157733915Y-101727000D01*
X156591000Y-101727000D01*
X156591000Y-101747000D01*
X156337000Y-101747000D01*
X156337000Y-101727000D01*
X155194085Y-101727000D01*
X155072096Y-101949039D01*
X155232959Y-102337423D01*
X155600361Y-102743000D01*
X152270396Y-102743000D01*
X152600534Y-102412862D01*
X152819000Y-101885439D01*
X152819000Y-101573554D01*
X152835961Y-101576928D01*
X152911004Y-101562001D01*
X152911009Y-101562001D01*
X153133278Y-101517789D01*
X153385332Y-101349372D01*
X153427845Y-101285748D01*
X153462632Y-101250961D01*
X155072096Y-101250961D01*
X155194085Y-101473000D01*
X156337000Y-101473000D01*
X156337000Y-100329371D01*
X156591000Y-100329371D01*
X156591000Y-101473000D01*
X157733915Y-101473000D01*
X157855904Y-101250961D01*
X157695041Y-100862577D01*
X157319134Y-100447611D01*
X156813041Y-100208086D01*
X156591000Y-100329371D01*
X156337000Y-100329371D01*
X156114959Y-100208086D01*
X155608866Y-100447611D01*
X155232959Y-100862577D01*
X155072096Y-101250961D01*
X153462632Y-101250961D01*
X166996991Y-87716602D01*
X166887908Y-88265000D01*
G36*
X151130001Y-76776540D02*
X151130001Y-78010398D01*
X151079138Y-78031466D01*
X150675466Y-78435138D01*
X150457000Y-78962561D01*
X150457000Y-79533439D01*
X150675466Y-80060862D01*
X151079138Y-80464534D01*
X151606561Y-80683000D01*
X152177439Y-80683000D01*
X152704862Y-80464534D01*
X153108534Y-80060862D01*
X153327000Y-79533439D01*
X153327000Y-79248000D01*
X155508887Y-79248000D01*
X155620260Y-79807909D01*
X155937423Y-80282577D01*
X156412091Y-80599740D01*
X156830667Y-80683000D01*
X157113333Y-80683000D01*
X157531909Y-80599740D01*
X158006577Y-80282577D01*
X158024505Y-80255745D01*
X161477861Y-80255745D01*
X161551995Y-80501864D01*
X162089223Y-80694965D01*
X162659454Y-80667778D01*
X163060005Y-80501864D01*
X163134139Y-80255745D01*
X162306000Y-79427605D01*
X161477861Y-80255745D01*
X158024505Y-80255745D01*
X158323740Y-79807909D01*
X158435113Y-79248000D01*
X158391994Y-79031223D01*
X160859035Y-79031223D01*
X160886222Y-79601454D01*
X161052136Y-80002005D01*
X161298255Y-80076139D01*
X162126395Y-79248000D01*
X162485605Y-79248000D01*
X163313745Y-80076139D01*
X163559864Y-80002005D01*
X163752965Y-79464777D01*
X163725778Y-78894546D01*
X163559864Y-78493995D01*
X163313745Y-78419861D01*
X162485605Y-79248000D01*
X162126395Y-79248000D01*
X161298255Y-78419861D01*
X161052136Y-78493995D01*
X160859035Y-79031223D01*
X158391994Y-79031223D01*
X158323740Y-78688091D01*
X158024506Y-78240255D01*
X161477861Y-78240255D01*
X162306000Y-79068395D01*
X163134139Y-78240255D01*
X163060005Y-77994136D01*
X162522777Y-77801035D01*
X161952546Y-77828222D01*
X161551995Y-77994136D01*
X161477861Y-78240255D01*
X158024506Y-78240255D01*
X158006577Y-78213423D01*
X157531909Y-77896260D01*
X157113333Y-77813000D01*
X156830667Y-77813000D01*
X156412091Y-77896260D01*
X155937423Y-78213423D01*
X155620260Y-78688091D01*
X155508887Y-79248000D01*
X153327000Y-79248000D01*
X153327000Y-78962561D01*
X153108534Y-78435138D01*
X152704862Y-78031466D01*
X152654000Y-78010398D01*
X152654000Y-76792857D01*
X166994495Y-76946395D01*
X166953843Y-77007235D01*
X166904560Y-77255000D01*
X166904560Y-78955000D01*
X166953843Y-79202765D01*
X167094191Y-79412809D01*
X167304235Y-79553157D01*
X167349619Y-79562184D01*
X167331375Y-79574375D01*
X167003161Y-80065582D01*
X166887908Y-80645000D01*
X166960321Y-81009049D01*
X166739251Y-81230119D01*
X166675629Y-81272630D01*
X166633118Y-81336252D01*
X166633117Y-81336253D01*
X166507212Y-81524684D01*
X166448072Y-81822001D01*
X166463000Y-81897049D01*
X166462999Y-86095332D01*
X163577031Y-88981301D01*
X163340577Y-88627423D01*
X162865909Y-88310260D01*
X162447333Y-88227000D01*
X162164667Y-88227000D01*
X161746091Y-88310260D01*
X161271423Y-88627423D01*
X160954260Y-89102091D01*
X160842887Y-89662000D01*
X160954260Y-90221909D01*
X161271423Y-90696577D01*
X161625301Y-90933031D01*
X152520331Y-100038001D01*
X152259041Y-100038001D01*
X152183998Y-100023074D01*
X152108955Y-100038001D01*
X152108951Y-100038001D01*
X151886682Y-100082213D01*
X151886681Y-100082214D01*
X151886680Y-100082214D01*
X151727061Y-100188868D01*
X151669439Y-100165000D01*
X151098561Y-100165000D01*
X150571138Y-100383466D01*
X150167466Y-100787138D01*
X150112795Y-100919126D01*
X147828000Y-98634332D01*
X147828000Y-94234000D01*
X148472908Y-94234000D01*
X148588161Y-94813418D01*
X148916375Y-95304625D01*
X149407582Y-95632839D01*
X149840744Y-95719000D01*
X150133256Y-95719000D01*
X150566418Y-95632839D01*
X151057625Y-95304625D01*
X151072096Y-95282967D01*
X151138673Y-95443698D01*
X151317301Y-95622327D01*
X151550690Y-95719000D01*
X152241250Y-95719000D01*
X152400000Y-95560250D01*
X152400000Y-94361000D01*
X152654000Y-94361000D01*
X152654000Y-95560250D01*
X152812750Y-95719000D01*
X153503310Y-95719000D01*
X153736699Y-95622327D01*
X153915327Y-95443698D01*
X154012000Y-95210309D01*
X154012000Y-94519750D01*
X153853250Y-94361000D01*
X152654000Y-94361000D01*
X152400000Y-94361000D01*
X152380000Y-94361000D01*
X152380000Y-94107000D01*
X152400000Y-94107000D01*
X152400000Y-92907750D01*
X152654000Y-92907750D01*
X152654000Y-94107000D01*
X153853250Y-94107000D01*
X154012000Y-93948250D01*
X154012000Y-93257691D01*
X153915327Y-93024302D01*
X153736699Y-92845673D01*
X153503310Y-92749000D01*
X152812750Y-92749000D01*
X152654000Y-92907750D01*
X152400000Y-92907750D01*
X152241250Y-92749000D01*
X151550690Y-92749000D01*
X151317301Y-92845673D01*
X151138673Y-93024302D01*
X151072096Y-93185033D01*
X151057625Y-93163375D01*
X150566418Y-92835161D01*
X150133256Y-92749000D01*
X149840744Y-92749000D01*
X149407582Y-92835161D01*
X148916375Y-93163375D01*
X148588161Y-93654582D01*
X148472908Y-94234000D01*
X147828000Y-94234000D01*
X147828000Y-89780745D01*
X150809861Y-89780745D01*
X150883995Y-90026864D01*
X151421223Y-90219965D01*
X151991454Y-90192778D01*
X152392005Y-90026864D01*
X152466139Y-89780745D01*
X151638000Y-88952605D01*
X150809861Y-89780745D01*
X147828000Y-89780745D01*
X147828000Y-88556223D01*
X150191035Y-88556223D01*
X150218222Y-89126454D01*
X150384136Y-89527005D01*
X150630255Y-89601139D01*
X151458395Y-88773000D01*
X151817605Y-88773000D01*
X152645745Y-89601139D01*
X152891864Y-89527005D01*
X153084965Y-88989777D01*
X153057778Y-88419546D01*
X152891864Y-88018995D01*
X152645745Y-87944861D01*
X151817605Y-88773000D01*
X151458395Y-88773000D01*
X150630255Y-87944861D01*
X150384136Y-88018995D01*
X150191035Y-88556223D01*
X147828000Y-88556223D01*
X147828000Y-87765255D01*
X150809861Y-87765255D01*
X151638000Y-88593395D01*
X152466139Y-87765255D01*
X152392005Y-87519136D01*
X151854777Y-87326035D01*
X151284546Y-87353222D01*
X150883995Y-87519136D01*
X150809861Y-87765255D01*
X147828000Y-87765255D01*
X147828000Y-85589745D01*
X161477861Y-85589745D01*
X161551995Y-85835864D01*
X162089223Y-86028965D01*
X162659454Y-86001778D01*
X163060005Y-85835864D01*
X163134139Y-85589745D01*
X162306000Y-84761605D01*
X161477861Y-85589745D01*
X147828000Y-85589745D01*
X147828000Y-83487561D01*
X150203000Y-83487561D01*
X150203000Y-84058439D01*
X150421466Y-84585862D01*
X150825138Y-84989534D01*
X151352561Y-85208000D01*
X151923439Y-85208000D01*
X152450862Y-84989534D01*
X152854534Y-84585862D01*
X152945925Y-84365223D01*
X160859035Y-84365223D01*
X160886222Y-84935454D01*
X161052136Y-85336005D01*
X161298255Y-85410139D01*
X162126395Y-84582000D01*
X162485605Y-84582000D01*
X163313745Y-85410139D01*
X163559864Y-85336005D01*
X163752965Y-84798777D01*
X163725778Y-84228546D01*
X163559864Y-83827995D01*
X163313745Y-83753861D01*
X162485605Y-84582000D01*
X162126395Y-84582000D01*
X161298255Y-83753861D01*
X161052136Y-83827995D01*
X160859035Y-84365223D01*
X152945925Y-84365223D01*
X153073000Y-84058439D01*
X153073000Y-83574255D01*
X161477861Y-83574255D01*
X162306000Y-84402395D01*
X163134139Y-83574255D01*
X163060005Y-83328136D01*
X162522777Y-83135035D01*
X161952546Y-83162222D01*
X161551995Y-83328136D01*
X161477861Y-83574255D01*
X153073000Y-83574255D01*
X153073000Y-83487561D01*
X152854534Y-82960138D01*
X152450862Y-82556466D01*
X151923439Y-82338000D01*
X151352561Y-82338000D01*
X150825138Y-82556466D01*
X150421466Y-82960138D01*
X150203000Y-83487561D01*
X147828000Y-83487561D01*
X147828000Y-76741187D01*
X151130001Y-76776540D01*
X151130001Y-76776540D01*
G37*
X151130001Y-76776540D02*
X151130001Y-78010398D01*
X151079138Y-78031466D01*
X150675466Y-78435138D01*
X150457000Y-78962561D01*
X150457000Y-79533439D01*
X150675466Y-80060862D01*
X151079138Y-80464534D01*
X151606561Y-80683000D01*
X152177439Y-80683000D01*
X152704862Y-80464534D01*
X153108534Y-80060862D01*
X153327000Y-79533439D01*
X153327000Y-79248000D01*
X155508887Y-79248000D01*
X155620260Y-79807909D01*
X155937423Y-80282577D01*
X156412091Y-80599740D01*
X156830667Y-80683000D01*
X157113333Y-80683000D01*
X157531909Y-80599740D01*
X158006577Y-80282577D01*
X158024505Y-80255745D01*
X161477861Y-80255745D01*
X161551995Y-80501864D01*
X162089223Y-80694965D01*
X162659454Y-80667778D01*
X163060005Y-80501864D01*
X163134139Y-80255745D01*
X162306000Y-79427605D01*
X161477861Y-80255745D01*
X158024505Y-80255745D01*
X158323740Y-79807909D01*
X158435113Y-79248000D01*
X158391994Y-79031223D01*
X160859035Y-79031223D01*
X160886222Y-79601454D01*
X161052136Y-80002005D01*
X161298255Y-80076139D01*
X162126395Y-79248000D01*
X162485605Y-79248000D01*
X163313745Y-80076139D01*
X163559864Y-80002005D01*
X163752965Y-79464777D01*
X163725778Y-78894546D01*
X163559864Y-78493995D01*
X163313745Y-78419861D01*
X162485605Y-79248000D01*
X162126395Y-79248000D01*
X161298255Y-78419861D01*
X161052136Y-78493995D01*
X160859035Y-79031223D01*
X158391994Y-79031223D01*
X158323740Y-78688091D01*
X158024506Y-78240255D01*
X161477861Y-78240255D01*
X162306000Y-79068395D01*
X163134139Y-78240255D01*
X163060005Y-77994136D01*
X162522777Y-77801035D01*
X161952546Y-77828222D01*
X161551995Y-77994136D01*
X161477861Y-78240255D01*
X158024506Y-78240255D01*
X158006577Y-78213423D01*
X157531909Y-77896260D01*
X157113333Y-77813000D01*
X156830667Y-77813000D01*
X156412091Y-77896260D01*
X155937423Y-78213423D01*
X155620260Y-78688091D01*
X155508887Y-79248000D01*
X153327000Y-79248000D01*
X153327000Y-78962561D01*
X153108534Y-78435138D01*
X152704862Y-78031466D01*
X152654000Y-78010398D01*
X152654000Y-76792857D01*
X166994495Y-76946395D01*
X166953843Y-77007235D01*
X166904560Y-77255000D01*
X166904560Y-78955000D01*
X166953843Y-79202765D01*
X167094191Y-79412809D01*
X167304235Y-79553157D01*
X167349619Y-79562184D01*
X167331375Y-79574375D01*
X167003161Y-80065582D01*
X166887908Y-80645000D01*
X166960321Y-81009049D01*
X166739251Y-81230119D01*
X166675629Y-81272630D01*
X166633118Y-81336252D01*
X166633117Y-81336253D01*
X166507212Y-81524684D01*
X166448072Y-81822001D01*
X166463000Y-81897049D01*
X166462999Y-86095332D01*
X163577031Y-88981301D01*
X163340577Y-88627423D01*
X162865909Y-88310260D01*
X162447333Y-88227000D01*
X162164667Y-88227000D01*
X161746091Y-88310260D01*
X161271423Y-88627423D01*
X160954260Y-89102091D01*
X160842887Y-89662000D01*
X160954260Y-90221909D01*
X161271423Y-90696577D01*
X161625301Y-90933031D01*
X152520331Y-100038001D01*
X152259041Y-100038001D01*
X152183998Y-100023074D01*
X152108955Y-100038001D01*
X152108951Y-100038001D01*
X151886682Y-100082213D01*
X151886681Y-100082214D01*
X151886680Y-100082214D01*
X151727061Y-100188868D01*
X151669439Y-100165000D01*
X151098561Y-100165000D01*
X150571138Y-100383466D01*
X150167466Y-100787138D01*
X150112795Y-100919126D01*
X147828000Y-98634332D01*
X147828000Y-94234000D01*
X148472908Y-94234000D01*
X148588161Y-94813418D01*
X148916375Y-95304625D01*
X149407582Y-95632839D01*
X149840744Y-95719000D01*
X150133256Y-95719000D01*
X150566418Y-95632839D01*
X151057625Y-95304625D01*
X151072096Y-95282967D01*
X151138673Y-95443698D01*
X151317301Y-95622327D01*
X151550690Y-95719000D01*
X152241250Y-95719000D01*
X152400000Y-95560250D01*
X152400000Y-94361000D01*
X152654000Y-94361000D01*
X152654000Y-95560250D01*
X152812750Y-95719000D01*
X153503310Y-95719000D01*
X153736699Y-95622327D01*
X153915327Y-95443698D01*
X154012000Y-95210309D01*
X154012000Y-94519750D01*
X153853250Y-94361000D01*
X152654000Y-94361000D01*
X152400000Y-94361000D01*
X152380000Y-94361000D01*
X152380000Y-94107000D01*
X152400000Y-94107000D01*
X152400000Y-92907750D01*
X152654000Y-92907750D01*
X152654000Y-94107000D01*
X153853250Y-94107000D01*
X154012000Y-93948250D01*
X154012000Y-93257691D01*
X153915327Y-93024302D01*
X153736699Y-92845673D01*
X153503310Y-92749000D01*
X152812750Y-92749000D01*
X152654000Y-92907750D01*
X152400000Y-92907750D01*
X152241250Y-92749000D01*
X151550690Y-92749000D01*
X151317301Y-92845673D01*
X151138673Y-93024302D01*
X151072096Y-93185033D01*
X151057625Y-93163375D01*
X150566418Y-92835161D01*
X150133256Y-92749000D01*
X149840744Y-92749000D01*
X149407582Y-92835161D01*
X148916375Y-93163375D01*
X148588161Y-93654582D01*
X148472908Y-94234000D01*
X147828000Y-94234000D01*
X147828000Y-89780745D01*
X150809861Y-89780745D01*
X150883995Y-90026864D01*
X151421223Y-90219965D01*
X151991454Y-90192778D01*
X152392005Y-90026864D01*
X152466139Y-89780745D01*
X151638000Y-88952605D01*
X150809861Y-89780745D01*
X147828000Y-89780745D01*
X147828000Y-88556223D01*
X150191035Y-88556223D01*
X150218222Y-89126454D01*
X150384136Y-89527005D01*
X150630255Y-89601139D01*
X151458395Y-88773000D01*
X151817605Y-88773000D01*
X152645745Y-89601139D01*
X152891864Y-89527005D01*
X153084965Y-88989777D01*
X153057778Y-88419546D01*
X152891864Y-88018995D01*
X152645745Y-87944861D01*
X151817605Y-88773000D01*
X151458395Y-88773000D01*
X150630255Y-87944861D01*
X150384136Y-88018995D01*
X150191035Y-88556223D01*
X147828000Y-88556223D01*
X147828000Y-87765255D01*
X150809861Y-87765255D01*
X151638000Y-88593395D01*
X152466139Y-87765255D01*
X152392005Y-87519136D01*
X151854777Y-87326035D01*
X151284546Y-87353222D01*
X150883995Y-87519136D01*
X150809861Y-87765255D01*
X147828000Y-87765255D01*
X147828000Y-85589745D01*
X161477861Y-85589745D01*
X161551995Y-85835864D01*
X162089223Y-86028965D01*
X162659454Y-86001778D01*
X163060005Y-85835864D01*
X163134139Y-85589745D01*
X162306000Y-84761605D01*
X161477861Y-85589745D01*
X147828000Y-85589745D01*
X147828000Y-83487561D01*
X150203000Y-83487561D01*
X150203000Y-84058439D01*
X150421466Y-84585862D01*
X150825138Y-84989534D01*
X151352561Y-85208000D01*
X151923439Y-85208000D01*
X152450862Y-84989534D01*
X152854534Y-84585862D01*
X152945925Y-84365223D01*
X160859035Y-84365223D01*
X160886222Y-84935454D01*
X161052136Y-85336005D01*
X161298255Y-85410139D01*
X162126395Y-84582000D01*
X162485605Y-84582000D01*
X163313745Y-85410139D01*
X163559864Y-85336005D01*
X163752965Y-84798777D01*
X163725778Y-84228546D01*
X163559864Y-83827995D01*
X163313745Y-83753861D01*
X162485605Y-84582000D01*
X162126395Y-84582000D01*
X161298255Y-83753861D01*
X161052136Y-83827995D01*
X160859035Y-84365223D01*
X152945925Y-84365223D01*
X153073000Y-84058439D01*
X153073000Y-83574255D01*
X161477861Y-83574255D01*
X162306000Y-84402395D01*
X163134139Y-83574255D01*
X163060005Y-83328136D01*
X162522777Y-83135035D01*
X161952546Y-83162222D01*
X161551995Y-83328136D01*
X161477861Y-83574255D01*
X153073000Y-83574255D01*
X153073000Y-83487561D01*
X152854534Y-82960138D01*
X152450862Y-82556466D01*
X151923439Y-82338000D01*
X151352561Y-82338000D01*
X150825138Y-82556466D01*
X150421466Y-82960138D01*
X150203000Y-83487561D01*
X147828000Y-83487561D01*
X147828000Y-76741187D01*
X151130001Y-76776540D01*
G04 #@! TD*
M02*
