M48
INCH,TZ
T1C0.0157
T2C0.0295
T3C0.0315
T4C0.0394
T5C0.1260
%
G90
G05
T1
X57840Y-14460
X62560Y-31100
X63820Y-30860
X64380Y-29200
X64840Y-27560
X65260Y-25860
X65920Y-29760
X72880Y-15140
T2
X63820Y-17167
X63820Y-17667
X63820Y-18167
X68220Y-26000
X68220Y-26500
X68220Y-27000
X63760Y-22980
X63760Y-23480
X63760Y-23980
X63740Y-20073
X63740Y-20573
X63740Y-21073
X68300Y-14260
X68300Y-14760
X68300Y-15260
X68200Y-22980
X68200Y-23480
X68200Y-23980
X63720Y-26000
X63720Y-26500
X63720Y-27000
X68260Y-20073
X68260Y-20573
X68260Y-21073
X65020Y-29320
X65020Y-29820
X65020Y-30320
X66640Y-29320
X66640Y-29820
X66640Y-30320
X63800Y-14260
X63800Y-14760
X63800Y-15260
X77940Y-28565
X77940Y-29353
X77940Y-30140
X68300Y-17167
X68300Y-17667
X68300Y-18167
T3
X63280Y-31640
X63280Y-33640
X76811Y-26860
X78780Y-26860
X72300Y-20640
X72300Y-22640
X70200Y-25980
X70200Y-27980
X70000Y-32740
X72000Y-32740
X63240Y-28231
X63240Y-30200
X71880Y-29220
X71880Y-31189
X76560Y-20980
X78560Y-20980
X58820Y-20880
X58820Y-22880
X70180Y-29360
X70180Y-31360
X70440Y-23940
X72440Y-23940
X73620Y-20980
X75589Y-20980
X65900Y-25980
X65900Y-27980
X70700Y-20660
X70700Y-22660
X60700Y-20680
X60700Y-22680
X61340Y-27540
X61340Y-29540
X65960Y-16600
X65960Y-18569
X68420Y-28200
X68420Y-30169
X65940Y-13540
X65940Y-15509
X61320Y-30960
X61320Y-32960
X73800Y-22460
X73800Y-25460
X74800Y-22460
X74800Y-25460
X75800Y-22460
X75800Y-25460
X76800Y-22460
X76800Y-25460
X68420Y-31620
X68420Y-33620
X64960Y-32880
X66929Y-32880
X65900Y-22720
X65900Y-24689
X71920Y-25960
X71920Y-27960
X55460Y-30820
X55460Y-31820
X55460Y-32820
X78760Y-17120
X78760Y-19120
X59480Y-27560
X59480Y-29560
X57620Y-32196
X57620Y-33180
X65920Y-19660
X65920Y-21629
X60700Y-24100
X60700Y-26100
X59440Y-30940
X59440Y-32940
X64840Y-31580
X66840Y-31580
X78600Y-22800
X78600Y-24800
X73580Y-26840
X75580Y-26840
T4
X54140Y-23660
X55124Y-23660
X56109Y-23660
X54140Y-16760
X55124Y-16760
X56109Y-16760
T5
X55580Y-14200
X78620Y-32940
X79420Y-14200
T0
M30
