G04 #@! TF.GenerationSoftware,KiCad,Pcbnew,(5.0.1)-rc2*
G04 #@! TF.CreationDate,2019-02-04T01:37:49-05:00*
G04 #@! TF.ProjectId,ladder_filter,6C61646465725F66696C7465722E6B69,rev?*
G04 #@! TF.SameCoordinates,Original*
G04 #@! TF.FileFunction,Legend,Top*
G04 #@! TF.FilePolarity,Positive*
%FSLAX46Y46*%
G04 Gerber Fmt 4.6, Leading zero omitted, Abs format (unit mm)*
G04 Created by KiCad (PCBNEW (5.0.1)-rc2) date 2/4/2019 1:37:49 AM*
%MOMM*%
%LPD*%
G01*
G04 APERTURE LIST*
%ADD10C,0.300000*%
%ADD11C,0.120000*%
%ADD12C,0.127000*%
%ADD13C,0.150000*%
%ADD14C,0.050000*%
G04 APERTURE END LIST*
D10*
X197035028Y-83288342D02*
X196963600Y-83216914D01*
X196892171Y-83074057D01*
X196892171Y-82716914D01*
X196963600Y-82574057D01*
X197035028Y-82502628D01*
X197177885Y-82431200D01*
X197320742Y-82431200D01*
X197535028Y-82502628D01*
X198392171Y-83359771D01*
X198392171Y-82431200D01*
X197392171Y-81145485D02*
X198392171Y-81145485D01*
X196820742Y-81502628D02*
X197892171Y-81859771D01*
X197892171Y-80931200D01*
X198392171Y-79716914D02*
X196892171Y-79716914D01*
X198320742Y-79716914D02*
X198392171Y-79859771D01*
X198392171Y-80145485D01*
X198320742Y-80288342D01*
X198249314Y-80359771D01*
X198106457Y-80431200D01*
X197677885Y-80431200D01*
X197535028Y-80359771D01*
X197463600Y-80288342D01*
X197392171Y-80145485D01*
X197392171Y-79859771D01*
X197463600Y-79716914D01*
X198392171Y-79002628D02*
X196892171Y-79002628D01*
X197463600Y-79002628D02*
X197392171Y-78859771D01*
X197392171Y-78574057D01*
X197463600Y-78431200D01*
X197535028Y-78359771D01*
X197677885Y-78288342D01*
X198106457Y-78288342D01*
X198249314Y-78359771D01*
X198320742Y-78431200D01*
X198392171Y-78574057D01*
X198392171Y-78859771D01*
X198320742Y-79002628D01*
X196892171Y-76716914D02*
X198392171Y-76216914D01*
X196892171Y-75716914D01*
X198249314Y-74359771D02*
X198320742Y-74431200D01*
X198392171Y-74645485D01*
X198392171Y-74788342D01*
X198320742Y-75002628D01*
X198177885Y-75145485D01*
X198035028Y-75216914D01*
X197749314Y-75288342D01*
X197535028Y-75288342D01*
X197249314Y-75216914D01*
X197106457Y-75145485D01*
X196963600Y-75002628D01*
X196892171Y-74788342D01*
X196892171Y-74645485D01*
X196963600Y-74431200D01*
X197035028Y-74359771D01*
X197606457Y-73216914D02*
X197606457Y-73716914D01*
X198392171Y-73716914D02*
X196892171Y-73716914D01*
X196892171Y-73002628D01*
D11*
G04 #@! TO.C,C1*
X161684600Y-71738000D02*
X161999600Y-71738000D01*
X159259600Y-71738000D02*
X159574600Y-71738000D01*
X161684600Y-76678000D02*
X161999600Y-76678000D01*
X159259600Y-76678000D02*
X159574600Y-76678000D01*
X161999600Y-76678000D02*
X161999600Y-71738000D01*
X159259600Y-76678000D02*
X159259600Y-71738000D01*
G04 #@! TO.C,C2*
X148974800Y-83027200D02*
G75*
G03X148974800Y-83027200I-2620000J0D01*
G01*
X143774800Y-83027200D02*
X148934800Y-83027200D01*
X143774800Y-82987200D02*
X148934800Y-82987200D01*
X143775800Y-82947200D02*
X148933800Y-82947200D01*
X143776800Y-82907200D02*
X148932800Y-82907200D01*
X143778800Y-82867200D02*
X148930800Y-82867200D01*
X143781800Y-82827200D02*
X148927800Y-82827200D01*
X143785800Y-82787200D02*
X145314800Y-82787200D01*
X147394800Y-82787200D02*
X148923800Y-82787200D01*
X143789800Y-82747200D02*
X145314800Y-82747200D01*
X147394800Y-82747200D02*
X148919800Y-82747200D01*
X143793800Y-82707200D02*
X145314800Y-82707200D01*
X147394800Y-82707200D02*
X148915800Y-82707200D01*
X143798800Y-82667200D02*
X145314800Y-82667200D01*
X147394800Y-82667200D02*
X148910800Y-82667200D01*
X143804800Y-82627200D02*
X145314800Y-82627200D01*
X147394800Y-82627200D02*
X148904800Y-82627200D01*
X143811800Y-82587200D02*
X145314800Y-82587200D01*
X147394800Y-82587200D02*
X148897800Y-82587200D01*
X143818800Y-82547200D02*
X145314800Y-82547200D01*
X147394800Y-82547200D02*
X148890800Y-82547200D01*
X143826800Y-82507200D02*
X145314800Y-82507200D01*
X147394800Y-82507200D02*
X148882800Y-82507200D01*
X143834800Y-82467200D02*
X145314800Y-82467200D01*
X147394800Y-82467200D02*
X148874800Y-82467200D01*
X143843800Y-82427200D02*
X145314800Y-82427200D01*
X147394800Y-82427200D02*
X148865800Y-82427200D01*
X143853800Y-82387200D02*
X145314800Y-82387200D01*
X147394800Y-82387200D02*
X148855800Y-82387200D01*
X143863800Y-82347200D02*
X145314800Y-82347200D01*
X147394800Y-82347200D02*
X148845800Y-82347200D01*
X143874800Y-82306200D02*
X145314800Y-82306200D01*
X147394800Y-82306200D02*
X148834800Y-82306200D01*
X143886800Y-82266200D02*
X145314800Y-82266200D01*
X147394800Y-82266200D02*
X148822800Y-82266200D01*
X143899800Y-82226200D02*
X145314800Y-82226200D01*
X147394800Y-82226200D02*
X148809800Y-82226200D01*
X143912800Y-82186200D02*
X145314800Y-82186200D01*
X147394800Y-82186200D02*
X148796800Y-82186200D01*
X143926800Y-82146200D02*
X145314800Y-82146200D01*
X147394800Y-82146200D02*
X148782800Y-82146200D01*
X143940800Y-82106200D02*
X145314800Y-82106200D01*
X147394800Y-82106200D02*
X148768800Y-82106200D01*
X143956800Y-82066200D02*
X145314800Y-82066200D01*
X147394800Y-82066200D02*
X148752800Y-82066200D01*
X143972800Y-82026200D02*
X145314800Y-82026200D01*
X147394800Y-82026200D02*
X148736800Y-82026200D01*
X143989800Y-81986200D02*
X145314800Y-81986200D01*
X147394800Y-81986200D02*
X148719800Y-81986200D01*
X144006800Y-81946200D02*
X145314800Y-81946200D01*
X147394800Y-81946200D02*
X148702800Y-81946200D01*
X144025800Y-81906200D02*
X145314800Y-81906200D01*
X147394800Y-81906200D02*
X148683800Y-81906200D01*
X144044800Y-81866200D02*
X145314800Y-81866200D01*
X147394800Y-81866200D02*
X148664800Y-81866200D01*
X144064800Y-81826200D02*
X145314800Y-81826200D01*
X147394800Y-81826200D02*
X148644800Y-81826200D01*
X144086800Y-81786200D02*
X145314800Y-81786200D01*
X147394800Y-81786200D02*
X148622800Y-81786200D01*
X144107800Y-81746200D02*
X145314800Y-81746200D01*
X147394800Y-81746200D02*
X148601800Y-81746200D01*
X144130800Y-81706200D02*
X145314800Y-81706200D01*
X147394800Y-81706200D02*
X148578800Y-81706200D01*
X144154800Y-81666200D02*
X145314800Y-81666200D01*
X147394800Y-81666200D02*
X148554800Y-81666200D01*
X144179800Y-81626200D02*
X145314800Y-81626200D01*
X147394800Y-81626200D02*
X148529800Y-81626200D01*
X144205800Y-81586200D02*
X145314800Y-81586200D01*
X147394800Y-81586200D02*
X148503800Y-81586200D01*
X144232800Y-81546200D02*
X145314800Y-81546200D01*
X147394800Y-81546200D02*
X148476800Y-81546200D01*
X144259800Y-81506200D02*
X145314800Y-81506200D01*
X147394800Y-81506200D02*
X148449800Y-81506200D01*
X144289800Y-81466200D02*
X145314800Y-81466200D01*
X147394800Y-81466200D02*
X148419800Y-81466200D01*
X144319800Y-81426200D02*
X145314800Y-81426200D01*
X147394800Y-81426200D02*
X148389800Y-81426200D01*
X144350800Y-81386200D02*
X145314800Y-81386200D01*
X147394800Y-81386200D02*
X148358800Y-81386200D01*
X144383800Y-81346200D02*
X145314800Y-81346200D01*
X147394800Y-81346200D02*
X148325800Y-81346200D01*
X144417800Y-81306200D02*
X145314800Y-81306200D01*
X147394800Y-81306200D02*
X148291800Y-81306200D01*
X144453800Y-81266200D02*
X145314800Y-81266200D01*
X147394800Y-81266200D02*
X148255800Y-81266200D01*
X144490800Y-81226200D02*
X145314800Y-81226200D01*
X147394800Y-81226200D02*
X148218800Y-81226200D01*
X144528800Y-81186200D02*
X145314800Y-81186200D01*
X147394800Y-81186200D02*
X148180800Y-81186200D01*
X144569800Y-81146200D02*
X145314800Y-81146200D01*
X147394800Y-81146200D02*
X148139800Y-81146200D01*
X144611800Y-81106200D02*
X145314800Y-81106200D01*
X147394800Y-81106200D02*
X148097800Y-81106200D01*
X144655800Y-81066200D02*
X145314800Y-81066200D01*
X147394800Y-81066200D02*
X148053800Y-81066200D01*
X144701800Y-81026200D02*
X145314800Y-81026200D01*
X147394800Y-81026200D02*
X148007800Y-81026200D01*
X144749800Y-80986200D02*
X145314800Y-80986200D01*
X147394800Y-80986200D02*
X147959800Y-80986200D01*
X144800800Y-80946200D02*
X145314800Y-80946200D01*
X147394800Y-80946200D02*
X147908800Y-80946200D01*
X144854800Y-80906200D02*
X145314800Y-80906200D01*
X147394800Y-80906200D02*
X147854800Y-80906200D01*
X144911800Y-80866200D02*
X145314800Y-80866200D01*
X147394800Y-80866200D02*
X147797800Y-80866200D01*
X144971800Y-80826200D02*
X145314800Y-80826200D01*
X147394800Y-80826200D02*
X147737800Y-80826200D01*
X145035800Y-80786200D02*
X145314800Y-80786200D01*
X147394800Y-80786200D02*
X147673800Y-80786200D01*
X145103800Y-80746200D02*
X145314800Y-80746200D01*
X147394800Y-80746200D02*
X147605800Y-80746200D01*
X145176800Y-80706200D02*
X147532800Y-80706200D01*
X145256800Y-80666200D02*
X147452800Y-80666200D01*
X145343800Y-80626200D02*
X147365800Y-80626200D01*
X145439800Y-80586200D02*
X147269800Y-80586200D01*
X145549800Y-80546200D02*
X147159800Y-80546200D01*
X145677800Y-80506200D02*
X147031800Y-80506200D01*
X145836800Y-80466200D02*
X146872800Y-80466200D01*
X146070800Y-80426200D02*
X146638800Y-80426200D01*
X144879800Y-85831975D02*
X144879800Y-85331975D01*
X144629800Y-85581975D02*
X145129800Y-85581975D01*
G04 #@! TO.C,C3*
X165028400Y-82145200D02*
X169968400Y-82145200D01*
X165028400Y-84885200D02*
X169968400Y-84885200D01*
X165028400Y-82145200D02*
X165028400Y-82460200D01*
X165028400Y-84570200D02*
X165028400Y-84885200D01*
X169968400Y-82145200D02*
X169968400Y-82460200D01*
X169968400Y-84570200D02*
X169968400Y-84885200D01*
G04 #@! TO.C,C4*
X168857600Y-34421600D02*
X168857600Y-39361600D01*
X166117600Y-34421600D02*
X166117600Y-39361600D01*
X168857600Y-34421600D02*
X168542600Y-34421600D01*
X166432600Y-34421600D02*
X166117600Y-34421600D01*
X168857600Y-39361600D02*
X168542600Y-39361600D01*
X166432600Y-39361600D02*
X166117600Y-39361600D01*
G04 #@! TO.C,C5*
X168908400Y-42194000D02*
X168908400Y-47134000D01*
X166168400Y-42194000D02*
X166168400Y-47134000D01*
X168908400Y-42194000D02*
X168593400Y-42194000D01*
X166483400Y-42194000D02*
X166168400Y-42194000D01*
X168908400Y-47134000D02*
X168593400Y-47134000D01*
X166483400Y-47134000D02*
X166168400Y-47134000D01*
G04 #@! TO.C,C6*
X166381800Y-54906400D02*
X166066800Y-54906400D01*
X168806800Y-54906400D02*
X168491800Y-54906400D01*
X166381800Y-49966400D02*
X166066800Y-49966400D01*
X168806800Y-49966400D02*
X168491800Y-49966400D01*
X166066800Y-49966400D02*
X166066800Y-54906400D01*
X168806800Y-49966400D02*
X168806800Y-54906400D01*
G04 #@! TO.C,C7*
X166331000Y-62678800D02*
X166016000Y-62678800D01*
X168756000Y-62678800D02*
X168441000Y-62678800D01*
X166331000Y-57738800D02*
X166016000Y-57738800D01*
X168756000Y-57738800D02*
X168441000Y-57738800D01*
X166016000Y-57738800D02*
X166016000Y-62678800D01*
X168756000Y-57738800D02*
X168756000Y-62678800D01*
G04 #@! TO.C,C8*
X200071200Y-69594400D02*
X195131200Y-69594400D01*
X200071200Y-66854400D02*
X195131200Y-66854400D01*
X200071200Y-69594400D02*
X200071200Y-69279400D01*
X200071200Y-67169400D02*
X200071200Y-66854400D01*
X195131200Y-69594400D02*
X195131200Y-69279400D01*
X195131200Y-67169400D02*
X195131200Y-66854400D01*
G04 #@! TO.C,C9*
X191964800Y-54344200D02*
X191964800Y-54659200D01*
X191964800Y-51919200D02*
X191964800Y-52234200D01*
X187024800Y-54344200D02*
X187024800Y-54659200D01*
X187024800Y-51919200D02*
X187024800Y-52234200D01*
X187024800Y-54659200D02*
X191964800Y-54659200D01*
X187024800Y-51919200D02*
X191964800Y-51919200D01*
G04 #@! TO.C,C10*
X172731800Y-76598000D02*
X172416800Y-76598000D01*
X175156800Y-76598000D02*
X174841800Y-76598000D01*
X172731800Y-71658000D02*
X172416800Y-71658000D01*
X175156800Y-71658000D02*
X174841800Y-71658000D01*
X172416800Y-71658000D02*
X172416800Y-76598000D01*
X175156800Y-71658000D02*
X175156800Y-76598000D01*
G04 #@! TO.C,C11*
X183945200Y-74248800D02*
X183945200Y-79188800D01*
X181205200Y-74248800D02*
X181205200Y-79188800D01*
X183945200Y-74248800D02*
X183630200Y-74248800D01*
X181520200Y-74248800D02*
X181205200Y-74248800D01*
X183945200Y-79188800D02*
X183630200Y-79188800D01*
X181520200Y-79188800D02*
X181205200Y-79188800D01*
D12*
G04 #@! TO.C,J1*
X151279600Y-36327200D02*
X151279600Y-42577200D01*
X151279600Y-47077200D02*
X151279600Y-46077200D01*
X153279600Y-47077200D02*
X151279600Y-47077200D01*
X157279600Y-47077200D02*
X156779600Y-47077200D01*
X157279600Y-32577200D02*
X157279600Y-47077200D01*
X151779600Y-32577200D02*
X157279600Y-32577200D01*
X151279600Y-32577200D02*
X151279600Y-33577200D01*
X151779600Y-32577200D02*
X151279600Y-32577200D01*
X151779600Y-30077200D02*
X151779600Y-32577200D01*
X156779600Y-30077200D02*
X151779600Y-30077200D01*
X156779600Y-32577200D02*
X156779600Y-30077200D01*
D10*
X148429600Y-35077200D02*
G75*
G03X148429600Y-35077200I-150000J0D01*
G01*
G04 #@! TO.C,J2*
X177588800Y-35077200D02*
G75*
G03X177588800Y-35077200I-150000J0D01*
G01*
D12*
X185938800Y-32577200D02*
X185938800Y-30077200D01*
X185938800Y-30077200D02*
X180938800Y-30077200D01*
X180938800Y-30077200D02*
X180938800Y-32577200D01*
X180938800Y-32577200D02*
X180438800Y-32577200D01*
X180438800Y-32577200D02*
X180438800Y-33577200D01*
X180938800Y-32577200D02*
X186438800Y-32577200D01*
X186438800Y-32577200D02*
X186438800Y-47077200D01*
X186438800Y-47077200D02*
X185938800Y-47077200D01*
X182438800Y-47077200D02*
X180438800Y-47077200D01*
X180438800Y-47077200D02*
X180438800Y-46077200D01*
X180438800Y-36327200D02*
X180438800Y-42577200D01*
G04 #@! TO.C,J3*
X192230000Y-88844000D02*
X192230000Y-82594000D01*
X192230000Y-78094000D02*
X192230000Y-79094000D01*
X190230000Y-78094000D02*
X192230000Y-78094000D01*
X186230000Y-78094000D02*
X186730000Y-78094000D01*
X186230000Y-92594000D02*
X186230000Y-78094000D01*
X191730000Y-92594000D02*
X186230000Y-92594000D01*
X192230000Y-92594000D02*
X192230000Y-91594000D01*
X191730000Y-92594000D02*
X192230000Y-92594000D01*
X191730000Y-95094000D02*
X191730000Y-92594000D01*
X186730000Y-95094000D02*
X191730000Y-95094000D01*
X186730000Y-92594000D02*
X186730000Y-95094000D01*
D10*
X195380000Y-90094000D02*
G75*
G03X195380000Y-90094000I-150000J0D01*
G01*
G04 #@! TO.C,J4*
X188917200Y-35077200D02*
G75*
G03X188917200Y-35077200I-150000J0D01*
G01*
D12*
X197267200Y-32577200D02*
X197267200Y-30077200D01*
X197267200Y-30077200D02*
X192267200Y-30077200D01*
X192267200Y-30077200D02*
X192267200Y-32577200D01*
X192267200Y-32577200D02*
X191767200Y-32577200D01*
X191767200Y-32577200D02*
X191767200Y-33577200D01*
X192267200Y-32577200D02*
X197767200Y-32577200D01*
X197767200Y-32577200D02*
X197767200Y-47077200D01*
X197767200Y-47077200D02*
X197267200Y-47077200D01*
X193767200Y-47077200D02*
X191767200Y-47077200D01*
X191767200Y-47077200D02*
X191767200Y-46077200D01*
X191767200Y-36327200D02*
X191767200Y-42577200D01*
D11*
G04 #@! TO.C,J5*
X163344800Y-87547200D02*
X163344800Y-92267200D01*
X163344800Y-92267200D02*
X171464800Y-92267200D01*
X171464800Y-92267200D02*
X171464800Y-87547200D01*
X171464800Y-87547200D02*
X163344800Y-87547200D01*
X165104800Y-87547200D02*
X165104800Y-87347200D01*
X165104800Y-87347200D02*
X164804800Y-87347200D01*
X164804800Y-87347200D02*
X164804800Y-87547200D01*
X165104800Y-87447200D02*
X164804800Y-87447200D01*
X165904800Y-87547200D02*
X165904800Y-88157200D01*
X165904800Y-88157200D02*
X163954800Y-88157200D01*
X163954800Y-88157200D02*
X163954800Y-91657200D01*
X163954800Y-91657200D02*
X170854800Y-91657200D01*
X170854800Y-91657200D02*
X170854800Y-88157200D01*
X170854800Y-88157200D02*
X168904800Y-88157200D01*
X168904800Y-88157200D02*
X168904800Y-87547200D01*
X163344800Y-88857200D02*
X163954800Y-88857200D01*
X163344800Y-90157200D02*
X163954800Y-90157200D01*
X171464800Y-88857200D02*
X170854800Y-88857200D01*
X171464800Y-90157200D02*
X170854800Y-90157200D01*
X166304800Y-91657200D02*
X166304800Y-91157200D01*
X166304800Y-91157200D02*
X166504800Y-91157200D01*
X166504800Y-91157200D02*
X166504800Y-91657200D01*
X166404800Y-91657200D02*
X166404800Y-91157200D01*
X168304800Y-91657200D02*
X168304800Y-91157200D01*
X168304800Y-91157200D02*
X168504800Y-91157200D01*
X168504800Y-91157200D02*
X168504800Y-91657200D01*
X168404800Y-91657200D02*
X168404800Y-91157200D01*
X164294800Y-87247200D02*
X163044800Y-87247200D01*
X163044800Y-87247200D02*
X163044800Y-88497200D01*
G04 #@! TO.C,Q1*
X167415600Y-73942800D02*
X167415600Y-77542800D01*
X167427122Y-73904322D02*
G75*
G02X171865600Y-75742800I1838478J-1838478D01*
G01*
X167427122Y-77581278D02*
G75*
G03X171865600Y-75742800I1838478J1838478D01*
G01*
G04 #@! TO.C,Q2*
X163698800Y-69110000D02*
X163698800Y-65510000D01*
X163687278Y-69148478D02*
G75*
G02X159248800Y-67310000I-1838478J1838478D01*
G01*
X163687278Y-65471522D02*
G75*
G03X159248800Y-67310000I-1838478J-1838478D01*
G01*
G04 #@! TO.C,Q3*
X163890478Y-35651922D02*
G75*
G03X159452000Y-37490400I-1838478J-1838478D01*
G01*
X163890478Y-39328878D02*
G75*
G02X159452000Y-37490400I-1838478J1838478D01*
G01*
X163902000Y-39290400D02*
X163902000Y-35690400D01*
G04 #@! TO.C,Q4*
X163952800Y-46673333D02*
X163952800Y-43073333D01*
X163941278Y-46711811D02*
G75*
G02X159502800Y-44873333I-1838478J1838478D01*
G01*
X163941278Y-43034855D02*
G75*
G03X159502800Y-44873333I-1838478J-1838478D01*
G01*
G04 #@! TO.C,Q5*
X163749600Y-54056266D02*
X163749600Y-50456266D01*
X163738078Y-54094744D02*
G75*
G02X159299600Y-52256266I-1838478J1838478D01*
G01*
X163738078Y-50417788D02*
G75*
G03X159299600Y-52256266I-1838478J-1838478D01*
G01*
G04 #@! TO.C,Q6*
X163788878Y-57800722D02*
G75*
G03X159350400Y-59639200I-1838478J-1838478D01*
G01*
X163788878Y-61477678D02*
G75*
G02X159350400Y-59639200I-1838478J1838478D01*
G01*
X163800400Y-61439200D02*
X163800400Y-57839200D01*
G04 #@! TO.C,Q7*
X166989278Y-73904322D02*
G75*
G03X162550800Y-75742800I-1838478J-1838478D01*
G01*
X166989278Y-77581278D02*
G75*
G02X162550800Y-75742800I-1838478J1838478D01*
G01*
X167000800Y-77542800D02*
X167000800Y-73942800D01*
G04 #@! TO.C,Q8*
X175332000Y-39290400D02*
X175332000Y-35690400D01*
X175320478Y-39328878D02*
G75*
G02X170882000Y-37490400I-1838478J1838478D01*
G01*
X175320478Y-35651922D02*
G75*
G03X170882000Y-37490400I-1838478J-1838478D01*
G01*
G04 #@! TO.C,Q9*
X175320478Y-43034855D02*
G75*
G03X170882000Y-44873333I-1838478J-1838478D01*
G01*
X175320478Y-46711811D02*
G75*
G02X170882000Y-44873333I-1838478J1838478D01*
G01*
X175332000Y-46673333D02*
X175332000Y-43073333D01*
G04 #@! TO.C,Q10*
X175218878Y-50417788D02*
G75*
G03X170780400Y-52256266I-1838478J-1838478D01*
G01*
X175218878Y-54094744D02*
G75*
G02X170780400Y-52256266I-1838478J1838478D01*
G01*
X175230400Y-54056266D02*
X175230400Y-50456266D01*
G04 #@! TO.C,Q11*
X175078000Y-61439200D02*
X175078000Y-57839200D01*
X175066478Y-61477678D02*
G75*
G02X170628000Y-59639200I-1838478J1838478D01*
G01*
X175066478Y-57800722D02*
G75*
G03X170628000Y-59639200I-1838478J-1838478D01*
G01*
G04 #@! TO.C,Q12*
X175117278Y-65471522D02*
G75*
G03X170678800Y-67310000I-1838478J-1838478D01*
G01*
X175117278Y-69148478D02*
G75*
G02X170678800Y-67310000I-1838478J1838478D01*
G01*
X175128800Y-69110000D02*
X175128800Y-65510000D01*
G04 #@! TO.C,R1*
X150977600Y-79957600D02*
X150977600Y-82567600D01*
X152347600Y-78587600D02*
G75*
G03X152347600Y-78587600I-1370000J0D01*
G01*
G04 #@! TO.C,R2*
X152449200Y-70002400D02*
G75*
G03X152449200Y-70002400I-1370000J0D01*
G01*
X151079200Y-71372400D02*
X151079200Y-73982400D01*
G04 #@! TO.C,R3*
X157173600Y-69951600D02*
G75*
G03X157173600Y-69951600I-1370000J0D01*
G01*
X155803600Y-71321600D02*
X155803600Y-73931600D01*
G04 #@! TO.C,R4*
X180287600Y-60807600D02*
X182897600Y-60807600D01*
X180287600Y-60807600D02*
G75*
G03X180287600Y-60807600I-1370000J0D01*
G01*
G04 #@! TO.C,R5*
X160731200Y-81735600D02*
X160731200Y-84345600D01*
X162101200Y-80365600D02*
G75*
G03X162101200Y-80365600I-1370000J0D01*
G01*
G04 #@! TO.C,R6*
X201420400Y-48564800D02*
G75*
G03X201420400Y-48564800I-1370000J0D01*
G01*
X200050400Y-47194800D02*
X200050400Y-44584800D01*
G04 #@! TO.C,R7*
X154178000Y-56237200D02*
X154178000Y-53627200D01*
X155548000Y-57607200D02*
G75*
G03X155548000Y-57607200I-1370000J0D01*
G01*
G04 #@! TO.C,R8*
X171143600Y-80213200D02*
G75*
G03X171143600Y-80213200I-1370000J0D01*
G01*
X168403600Y-80213200D02*
X165793600Y-80213200D01*
G04 #@! TO.C,R9*
X178308000Y-67359200D02*
X178308000Y-69969200D01*
X179678000Y-65989200D02*
G75*
G03X179678000Y-65989200I-1370000J0D01*
G01*
G04 #@! TO.C,R10*
X198172400Y-53289200D02*
X195562400Y-53289200D01*
X200912400Y-53289200D02*
G75*
G03X200912400Y-53289200I-1370000J0D01*
G01*
G04 #@! TO.C,R11*
X185012000Y-52425600D02*
G75*
G03X185012000Y-52425600I-1370000J0D01*
G01*
X183642000Y-53795600D02*
X183642000Y-56405600D01*
G04 #@! TO.C,R12*
X179578000Y-53846400D02*
X179578000Y-56456400D01*
X180948000Y-52476400D02*
G75*
G03X180948000Y-52476400I-1370000J0D01*
G01*
G04 #@! TO.C,R13*
X150772800Y-53035200D02*
G75*
G03X150772800Y-53035200I-1370000J0D01*
G01*
X149402800Y-54405200D02*
X149402800Y-57015200D01*
G04 #@! TO.C,R14*
X154178000Y-62584000D02*
X154178000Y-65194000D01*
X155548000Y-61214000D02*
G75*
G03X155548000Y-61214000I-1370000J0D01*
G01*
G04 #@! TO.C,R15*
X175156800Y-80314800D02*
G75*
G03X175156800Y-80314800I-1370000J0D01*
G01*
X173786800Y-81684800D02*
X173786800Y-84294800D01*
G04 #@! TO.C,R16*
X155752800Y-80008400D02*
X155752800Y-82618400D01*
X157122800Y-78638400D02*
G75*
G03X157122800Y-78638400I-1370000J0D01*
G01*
G04 #@! TO.C,R17*
X168756000Y-65989200D02*
G75*
G03X168756000Y-65989200I-1370000J0D01*
G01*
X167386000Y-67359200D02*
X167386000Y-69969200D01*
G04 #@! TO.C,R18*
X178257200Y-75944400D02*
X178257200Y-78554400D01*
X179627200Y-74574400D02*
G75*
G03X179627200Y-74574400I-1370000J0D01*
G01*
G04 #@! TO.C,R19*
X201014000Y-62992000D02*
G75*
G03X201014000Y-62992000I-1370000J0D01*
G01*
X199644000Y-61622000D02*
X199644000Y-59012000D01*
G04 #@! TO.C,R20*
X190603200Y-68173600D02*
X187993200Y-68173600D01*
X193343200Y-68173600D02*
G75*
G03X193343200Y-68173600I-1370000J0D01*
G01*
G04 #@! TO.C,R21*
X184046800Y-65938400D02*
G75*
G03X184046800Y-65938400I-1370000J0D01*
G01*
X182676800Y-67308400D02*
X182676800Y-69918400D01*
G04 #@! TO.C,R22*
X184250000Y-83159600D02*
G75*
G03X184250000Y-83159600I-1370000J0D01*
G01*
X181510000Y-83159600D02*
X178900000Y-83159600D01*
G04 #@! TO.C,RV1*
X144985600Y-43450400D02*
X144985600Y-47315400D01*
X144985600Y-51825400D02*
X144985600Y-55690400D01*
X135045600Y-43450400D02*
X135045600Y-47315400D01*
X135045600Y-51825400D02*
X135045600Y-55690400D01*
X144985600Y-43450400D02*
X143386600Y-43450400D01*
X141644600Y-43450400D02*
X140885600Y-43450400D01*
X139144600Y-43450400D02*
X138385600Y-43450400D01*
X136645600Y-43450400D02*
X135045600Y-43450400D01*
X144985600Y-55690400D02*
X135045600Y-55690400D01*
G04 #@! TO.C,RV2*
X142898400Y-75937800D02*
X142898400Y-85707800D01*
X136558400Y-75937800D02*
X136558400Y-85707800D01*
X142898400Y-75937800D02*
X136558400Y-75937800D01*
X142898400Y-85707800D02*
X136558400Y-85707800D01*
G04 #@! TO.C,RV3*
X144985600Y-73216400D02*
X135045600Y-73216400D01*
X136645600Y-60976400D02*
X135045600Y-60976400D01*
X139144600Y-60976400D02*
X138385600Y-60976400D01*
X141644600Y-60976400D02*
X140885600Y-60976400D01*
X144985600Y-60976400D02*
X143386600Y-60976400D01*
X135045600Y-69351400D02*
X135045600Y-73216400D01*
X135045600Y-60976400D02*
X135045600Y-64841400D01*
X144985600Y-69351400D02*
X144985600Y-73216400D01*
X144985600Y-60976400D02*
X144985600Y-64841400D01*
G04 #@! TO.C,U1*
X196402000Y-61858400D02*
G75*
G02X196402000Y-59858400I0J1000000D01*
G01*
X196402000Y-59858400D02*
X196402000Y-58208400D01*
X196402000Y-58208400D02*
X186122000Y-58208400D01*
X186122000Y-58208400D02*
X186122000Y-63508400D01*
X186122000Y-63508400D02*
X196402000Y-63508400D01*
X196402000Y-63508400D02*
X196402000Y-61858400D01*
X196462000Y-55718400D02*
X186062000Y-55718400D01*
X186062000Y-55718400D02*
X186062000Y-65998400D01*
X186062000Y-65998400D02*
X196462000Y-65998400D01*
X196462000Y-65998400D02*
X196462000Y-55718400D01*
G04 #@! TO.C,C1*
D13*
X160986742Y-74487066D02*
X161034361Y-74534685D01*
X161081980Y-74677542D01*
X161081980Y-74772780D01*
X161034361Y-74915638D01*
X160939123Y-75010876D01*
X160843885Y-75058495D01*
X160653409Y-75106114D01*
X160510552Y-75106114D01*
X160320076Y-75058495D01*
X160224838Y-75010876D01*
X160129600Y-74915638D01*
X160081980Y-74772780D01*
X160081980Y-74677542D01*
X160129600Y-74534685D01*
X160177219Y-74487066D01*
X161081980Y-73534685D02*
X161081980Y-74106114D01*
X161081980Y-73820400D02*
X160081980Y-73820400D01*
X160224838Y-73915638D01*
X160320076Y-74010876D01*
X160367695Y-74106114D01*
G04 #@! TO.C,C2*
X144781542Y-84291466D02*
X144829161Y-84339085D01*
X144876780Y-84481942D01*
X144876780Y-84577180D01*
X144829161Y-84720038D01*
X144733923Y-84815276D01*
X144638685Y-84862895D01*
X144448209Y-84910514D01*
X144305352Y-84910514D01*
X144114876Y-84862895D01*
X144019638Y-84815276D01*
X143924400Y-84720038D01*
X143876780Y-84577180D01*
X143876780Y-84481942D01*
X143924400Y-84339085D01*
X143972019Y-84291466D01*
X143972019Y-83910514D02*
X143924400Y-83862895D01*
X143876780Y-83767657D01*
X143876780Y-83529561D01*
X143924400Y-83434323D01*
X143972019Y-83386704D01*
X144067257Y-83339085D01*
X144162495Y-83339085D01*
X144305352Y-83386704D01*
X144876780Y-83958133D01*
X144876780Y-83339085D01*
G04 #@! TO.C,C3*
X167270133Y-83872342D02*
X167222514Y-83919961D01*
X167079657Y-83967580D01*
X166984419Y-83967580D01*
X166841561Y-83919961D01*
X166746323Y-83824723D01*
X166698704Y-83729485D01*
X166651085Y-83539009D01*
X166651085Y-83396152D01*
X166698704Y-83205676D01*
X166746323Y-83110438D01*
X166841561Y-83015200D01*
X166984419Y-82967580D01*
X167079657Y-82967580D01*
X167222514Y-83015200D01*
X167270133Y-83062819D01*
X167603466Y-82967580D02*
X168222514Y-82967580D01*
X167889180Y-83348533D01*
X168032038Y-83348533D01*
X168127276Y-83396152D01*
X168174895Y-83443771D01*
X168222514Y-83539009D01*
X168222514Y-83777104D01*
X168174895Y-83872342D01*
X168127276Y-83919961D01*
X168032038Y-83967580D01*
X167746323Y-83967580D01*
X167651085Y-83919961D01*
X167603466Y-83872342D01*
G04 #@! TO.C,C4*
X170344742Y-37058266D02*
X170392361Y-37105885D01*
X170439980Y-37248742D01*
X170439980Y-37343980D01*
X170392361Y-37486838D01*
X170297123Y-37582076D01*
X170201885Y-37629695D01*
X170011409Y-37677314D01*
X169868552Y-37677314D01*
X169678076Y-37629695D01*
X169582838Y-37582076D01*
X169487600Y-37486838D01*
X169439980Y-37343980D01*
X169439980Y-37248742D01*
X169487600Y-37105885D01*
X169535219Y-37058266D01*
X169773314Y-36201123D02*
X170439980Y-36201123D01*
X169392361Y-36439219D02*
X170106647Y-36677314D01*
X170106647Y-36058266D01*
G04 #@! TO.C,C5*
X170395542Y-44830666D02*
X170443161Y-44878285D01*
X170490780Y-45021142D01*
X170490780Y-45116380D01*
X170443161Y-45259238D01*
X170347923Y-45354476D01*
X170252685Y-45402095D01*
X170062209Y-45449714D01*
X169919352Y-45449714D01*
X169728876Y-45402095D01*
X169633638Y-45354476D01*
X169538400Y-45259238D01*
X169490780Y-45116380D01*
X169490780Y-45021142D01*
X169538400Y-44878285D01*
X169586019Y-44830666D01*
X169490780Y-43925904D02*
X169490780Y-44402095D01*
X169966971Y-44449714D01*
X169919352Y-44402095D01*
X169871733Y-44306857D01*
X169871733Y-44068761D01*
X169919352Y-43973523D01*
X169966971Y-43925904D01*
X170062209Y-43878285D01*
X170300304Y-43878285D01*
X170395542Y-43925904D01*
X170443161Y-43973523D01*
X170490780Y-44068761D01*
X170490780Y-44306857D01*
X170443161Y-44402095D01*
X170395542Y-44449714D01*
G04 #@! TO.C,C6*
X170293942Y-52603066D02*
X170341561Y-52650685D01*
X170389180Y-52793542D01*
X170389180Y-52888780D01*
X170341561Y-53031638D01*
X170246323Y-53126876D01*
X170151085Y-53174495D01*
X169960609Y-53222114D01*
X169817752Y-53222114D01*
X169627276Y-53174495D01*
X169532038Y-53126876D01*
X169436800Y-53031638D01*
X169389180Y-52888780D01*
X169389180Y-52793542D01*
X169436800Y-52650685D01*
X169484419Y-52603066D01*
X169389180Y-51745923D02*
X169389180Y-51936400D01*
X169436800Y-52031638D01*
X169484419Y-52079257D01*
X169627276Y-52174495D01*
X169817752Y-52222114D01*
X170198704Y-52222114D01*
X170293942Y-52174495D01*
X170341561Y-52126876D01*
X170389180Y-52031638D01*
X170389180Y-51841161D01*
X170341561Y-51745923D01*
X170293942Y-51698304D01*
X170198704Y-51650685D01*
X169960609Y-51650685D01*
X169865371Y-51698304D01*
X169817752Y-51745923D01*
X169770133Y-51841161D01*
X169770133Y-52031638D01*
X169817752Y-52126876D01*
X169865371Y-52174495D01*
X169960609Y-52222114D01*
G04 #@! TO.C,C7*
X170243142Y-60375466D02*
X170290761Y-60423085D01*
X170338380Y-60565942D01*
X170338380Y-60661180D01*
X170290761Y-60804038D01*
X170195523Y-60899276D01*
X170100285Y-60946895D01*
X169909809Y-60994514D01*
X169766952Y-60994514D01*
X169576476Y-60946895D01*
X169481238Y-60899276D01*
X169386000Y-60804038D01*
X169338380Y-60661180D01*
X169338380Y-60565942D01*
X169386000Y-60423085D01*
X169433619Y-60375466D01*
X169338380Y-60042133D02*
X169338380Y-59375466D01*
X170338380Y-59804038D01*
G04 #@! TO.C,C8*
X197434533Y-71081542D02*
X197386914Y-71129161D01*
X197244057Y-71176780D01*
X197148819Y-71176780D01*
X197005961Y-71129161D01*
X196910723Y-71033923D01*
X196863104Y-70938685D01*
X196815485Y-70748209D01*
X196815485Y-70605352D01*
X196863104Y-70414876D01*
X196910723Y-70319638D01*
X197005961Y-70224400D01*
X197148819Y-70176780D01*
X197244057Y-70176780D01*
X197386914Y-70224400D01*
X197434533Y-70272019D01*
X198005961Y-70605352D02*
X197910723Y-70557733D01*
X197863104Y-70510114D01*
X197815485Y-70414876D01*
X197815485Y-70367257D01*
X197863104Y-70272019D01*
X197910723Y-70224400D01*
X198005961Y-70176780D01*
X198196438Y-70176780D01*
X198291676Y-70224400D01*
X198339295Y-70272019D01*
X198386914Y-70367257D01*
X198386914Y-70414876D01*
X198339295Y-70510114D01*
X198291676Y-70557733D01*
X198196438Y-70605352D01*
X198005961Y-70605352D01*
X197910723Y-70652971D01*
X197863104Y-70700590D01*
X197815485Y-70795828D01*
X197815485Y-70986304D01*
X197863104Y-71081542D01*
X197910723Y-71129161D01*
X198005961Y-71176780D01*
X198196438Y-71176780D01*
X198291676Y-71129161D01*
X198339295Y-71081542D01*
X198386914Y-70986304D01*
X198386914Y-70795828D01*
X198339295Y-70700590D01*
X198291676Y-70652971D01*
X198196438Y-70605352D01*
G04 #@! TO.C,C9*
X189328133Y-51146342D02*
X189280514Y-51193961D01*
X189137657Y-51241580D01*
X189042419Y-51241580D01*
X188899561Y-51193961D01*
X188804323Y-51098723D01*
X188756704Y-51003485D01*
X188709085Y-50813009D01*
X188709085Y-50670152D01*
X188756704Y-50479676D01*
X188804323Y-50384438D01*
X188899561Y-50289200D01*
X189042419Y-50241580D01*
X189137657Y-50241580D01*
X189280514Y-50289200D01*
X189328133Y-50336819D01*
X189804323Y-51241580D02*
X189994800Y-51241580D01*
X190090038Y-51193961D01*
X190137657Y-51146342D01*
X190232895Y-51003485D01*
X190280514Y-50813009D01*
X190280514Y-50432057D01*
X190232895Y-50336819D01*
X190185276Y-50289200D01*
X190090038Y-50241580D01*
X189899561Y-50241580D01*
X189804323Y-50289200D01*
X189756704Y-50336819D01*
X189709085Y-50432057D01*
X189709085Y-50670152D01*
X189756704Y-50765390D01*
X189804323Y-50813009D01*
X189899561Y-50860628D01*
X190090038Y-50860628D01*
X190185276Y-50813009D01*
X190232895Y-50765390D01*
X190280514Y-50670152D01*
G04 #@! TO.C,C10*
X176643942Y-74770857D02*
X176691561Y-74818476D01*
X176739180Y-74961333D01*
X176739180Y-75056571D01*
X176691561Y-75199428D01*
X176596323Y-75294666D01*
X176501085Y-75342285D01*
X176310609Y-75389904D01*
X176167752Y-75389904D01*
X175977276Y-75342285D01*
X175882038Y-75294666D01*
X175786800Y-75199428D01*
X175739180Y-75056571D01*
X175739180Y-74961333D01*
X175786800Y-74818476D01*
X175834419Y-74770857D01*
X176739180Y-73818476D02*
X176739180Y-74389904D01*
X176739180Y-74104190D02*
X175739180Y-74104190D01*
X175882038Y-74199428D01*
X175977276Y-74294666D01*
X176024895Y-74389904D01*
X175739180Y-73199428D02*
X175739180Y-73104190D01*
X175786800Y-73008952D01*
X175834419Y-72961333D01*
X175929657Y-72913714D01*
X176120133Y-72866095D01*
X176358228Y-72866095D01*
X176548704Y-72913714D01*
X176643942Y-72961333D01*
X176691561Y-73008952D01*
X176739180Y-73104190D01*
X176739180Y-73199428D01*
X176691561Y-73294666D01*
X176643942Y-73342285D01*
X176548704Y-73389904D01*
X176358228Y-73437523D01*
X176120133Y-73437523D01*
X175929657Y-73389904D01*
X175834419Y-73342285D01*
X175786800Y-73294666D01*
X175739180Y-73199428D01*
G04 #@! TO.C,C11*
X185432342Y-77361657D02*
X185479961Y-77409276D01*
X185527580Y-77552133D01*
X185527580Y-77647371D01*
X185479961Y-77790228D01*
X185384723Y-77885466D01*
X185289485Y-77933085D01*
X185099009Y-77980704D01*
X184956152Y-77980704D01*
X184765676Y-77933085D01*
X184670438Y-77885466D01*
X184575200Y-77790228D01*
X184527580Y-77647371D01*
X184527580Y-77552133D01*
X184575200Y-77409276D01*
X184622819Y-77361657D01*
X185527580Y-76409276D02*
X185527580Y-76980704D01*
X185527580Y-76694990D02*
X184527580Y-76694990D01*
X184670438Y-76790228D01*
X184765676Y-76885466D01*
X184813295Y-76980704D01*
X185527580Y-75456895D02*
X185527580Y-76028323D01*
X185527580Y-75742609D02*
X184527580Y-75742609D01*
X184670438Y-75837847D01*
X184765676Y-75933085D01*
X184813295Y-76028323D01*
G04 #@! TO.C,H1*
X155803695Y-90165180D02*
X155803695Y-89165180D01*
X155803695Y-89641371D02*
X156375123Y-89641371D01*
X156375123Y-90165180D02*
X156375123Y-89165180D01*
X157375123Y-90165180D02*
X156803695Y-90165180D01*
X157089409Y-90165180D02*
X157089409Y-89165180D01*
X156994171Y-89308038D01*
X156898933Y-89403276D01*
X156803695Y-89450895D01*
G04 #@! TO.C,H2*
X140411295Y-32670380D02*
X140411295Y-31670380D01*
X140411295Y-32146571D02*
X140982723Y-32146571D01*
X140982723Y-32670380D02*
X140982723Y-31670380D01*
X141411295Y-31765619D02*
X141458914Y-31718000D01*
X141554152Y-31670380D01*
X141792247Y-31670380D01*
X141887485Y-31718000D01*
X141935104Y-31765619D01*
X141982723Y-31860857D01*
X141982723Y-31956095D01*
X141935104Y-32098952D01*
X141363676Y-32670380D01*
X141982723Y-32670380D01*
G04 #@! TO.C,H3*
X199999695Y-85146780D02*
X199999695Y-84146780D01*
X199999695Y-84622971D02*
X200571123Y-84622971D01*
X200571123Y-85146780D02*
X200571123Y-84146780D01*
X200952076Y-84146780D02*
X201571123Y-84146780D01*
X201237790Y-84527733D01*
X201380647Y-84527733D01*
X201475885Y-84575352D01*
X201523504Y-84622971D01*
X201571123Y-84718209D01*
X201571123Y-84956304D01*
X201523504Y-85051542D01*
X201475885Y-85099161D01*
X201380647Y-85146780D01*
X201094933Y-85146780D01*
X200999695Y-85099161D01*
X200952076Y-85051542D01*
G04 #@! TO.C,H4*
X200964895Y-32670380D02*
X200964895Y-31670380D01*
X200964895Y-32146571D02*
X201536323Y-32146571D01*
X201536323Y-32670380D02*
X201536323Y-31670380D01*
X202441085Y-32003714D02*
X202441085Y-32670380D01*
X202202990Y-31622761D02*
X201964895Y-32337047D01*
X202583942Y-32337047D01*
G04 #@! TO.C,J1*
D14*
X158124438Y-32686720D02*
X158840110Y-32686720D01*
X158983244Y-32734431D01*
X159078667Y-32829854D01*
X159126378Y-32972988D01*
X159126378Y-33068411D01*
X159126378Y-31684780D02*
X159126378Y-32257317D01*
X159126378Y-31971048D02*
X158124438Y-31971048D01*
X158267572Y-32066471D01*
X158362995Y-32161894D01*
X158410707Y-32257317D01*
X149617093Y-41957706D02*
X150617253Y-41624320D01*
X149617093Y-41290933D01*
X150522000Y-40386026D02*
X150569626Y-40433653D01*
X150617253Y-40576533D01*
X150617253Y-40671786D01*
X150569626Y-40814666D01*
X150474373Y-40909920D01*
X150379120Y-40957546D01*
X150188613Y-41005173D01*
X150045733Y-41005173D01*
X149855226Y-40957546D01*
X149759973Y-40909920D01*
X149664720Y-40814666D01*
X149617093Y-40671786D01*
X149617093Y-40576533D01*
X149664720Y-40433653D01*
X149712346Y-40386026D01*
X150093360Y-39624000D02*
X150093360Y-39957386D01*
X150617253Y-39957386D02*
X149617093Y-39957386D01*
X149617093Y-39481120D01*
X150617253Y-38338080D02*
X149617093Y-38338080D01*
X149950480Y-37861813D02*
X150617253Y-37861813D01*
X150045733Y-37861813D02*
X149998106Y-37814186D01*
X149950480Y-37718933D01*
X149950480Y-37576053D01*
X149998106Y-37480800D01*
X150093360Y-37433173D01*
X150617253Y-37433173D01*
G04 #@! TO.C,J2*
X181772518Y-40415180D02*
X182488190Y-40415180D01*
X182631324Y-40462891D01*
X182726747Y-40558314D01*
X182774458Y-40701448D01*
X182774458Y-40796871D01*
X181867941Y-39985777D02*
X181820230Y-39938065D01*
X181772518Y-39842642D01*
X181772518Y-39604085D01*
X181820230Y-39508662D01*
X181867941Y-39460951D01*
X181963364Y-39413240D01*
X182058787Y-39413240D01*
X182201921Y-39460951D01*
X182774458Y-40033488D01*
X182774458Y-39413240D01*
X185126293Y-45497840D02*
X186126453Y-45164453D01*
X185126293Y-44831066D01*
X186031200Y-43926160D02*
X186078826Y-43973786D01*
X186126453Y-44116666D01*
X186126453Y-44211920D01*
X186078826Y-44354800D01*
X185983573Y-44450053D01*
X185888320Y-44497680D01*
X185697813Y-44545306D01*
X185554933Y-44545306D01*
X185364426Y-44497680D01*
X185269173Y-44450053D01*
X185173920Y-44354800D01*
X185126293Y-44211920D01*
X185126293Y-44116666D01*
X185173920Y-43973786D01*
X185221546Y-43926160D01*
X185602560Y-43164133D02*
X185602560Y-43497520D01*
X186126453Y-43497520D02*
X185126293Y-43497520D01*
X185126293Y-43021253D01*
X186031200Y-41306693D02*
X186078826Y-41354320D01*
X186126453Y-41497200D01*
X186126453Y-41592453D01*
X186078826Y-41735333D01*
X185983573Y-41830586D01*
X185888320Y-41878213D01*
X185697813Y-41925840D01*
X185554933Y-41925840D01*
X185364426Y-41878213D01*
X185269173Y-41830586D01*
X185173920Y-41735333D01*
X185126293Y-41592453D01*
X185126293Y-41497200D01*
X185173920Y-41354320D01*
X185221546Y-41306693D01*
X185126293Y-41020933D02*
X186126453Y-40687546D01*
X185126293Y-40354160D01*
G04 #@! TO.C,J3*
X184287798Y-93152440D02*
X185003470Y-93152440D01*
X185146604Y-93200151D01*
X185242027Y-93295574D01*
X185289738Y-93438708D01*
X185289738Y-93534131D01*
X184287798Y-92770748D02*
X184287798Y-92150500D01*
X184669490Y-92484480D01*
X184669490Y-92341345D01*
X184717201Y-92245922D01*
X184764912Y-92198211D01*
X184860335Y-92150500D01*
X185098892Y-92150500D01*
X185194315Y-92198211D01*
X185242027Y-92245922D01*
X185289738Y-92341345D01*
X185289738Y-92627614D01*
X185242027Y-92723037D01*
X185194315Y-92770748D01*
X179415973Y-87488693D02*
X179749360Y-88488853D01*
X180082746Y-87488693D01*
X180987653Y-88393600D02*
X180940026Y-88441226D01*
X180797146Y-88488853D01*
X180701893Y-88488853D01*
X180559013Y-88441226D01*
X180463760Y-88345973D01*
X180416133Y-88250720D01*
X180368506Y-88060213D01*
X180368506Y-87917333D01*
X180416133Y-87726826D01*
X180463760Y-87631573D01*
X180559013Y-87536320D01*
X180701893Y-87488693D01*
X180797146Y-87488693D01*
X180940026Y-87536320D01*
X180987653Y-87583946D01*
X181749680Y-87964960D02*
X181416293Y-87964960D01*
X181416293Y-88488853D02*
X181416293Y-87488693D01*
X181892560Y-87488693D01*
X183226106Y-87488693D02*
X183416613Y-87488693D01*
X183511866Y-87536320D01*
X183607120Y-87631573D01*
X183654746Y-87822080D01*
X183654746Y-88155466D01*
X183607120Y-88345973D01*
X183511866Y-88441226D01*
X183416613Y-88488853D01*
X183226106Y-88488853D01*
X183130853Y-88441226D01*
X183035600Y-88345973D01*
X182987973Y-88155466D01*
X182987973Y-87822080D01*
X183035600Y-87631573D01*
X183130853Y-87536320D01*
X183226106Y-87488693D01*
X184512026Y-87822080D02*
X184512026Y-88488853D01*
X184083386Y-87822080D02*
X184083386Y-88345973D01*
X184131013Y-88441226D01*
X184226266Y-88488853D01*
X184369146Y-88488853D01*
X184464400Y-88441226D01*
X184512026Y-88393600D01*
X184845413Y-87822080D02*
X185226426Y-87822080D01*
X184988293Y-87488693D02*
X184988293Y-88345973D01*
X185035920Y-88441226D01*
X185131173Y-88488853D01*
X185226426Y-88488853D01*
G04 #@! TO.C,J4*
X198612038Y-32686720D02*
X199327710Y-32686720D01*
X199470844Y-32734431D01*
X199566267Y-32829854D01*
X199613978Y-32972988D01*
X199613978Y-33068411D01*
X198946018Y-31780202D02*
X199613978Y-31780202D01*
X198564327Y-32018760D02*
X199279998Y-32257317D01*
X199279998Y-31637068D01*
X187869493Y-43403946D02*
X188869653Y-43070560D01*
X187869493Y-42737173D01*
X188774400Y-41832266D02*
X188822026Y-41879893D01*
X188869653Y-42022773D01*
X188869653Y-42118026D01*
X188822026Y-42260906D01*
X188726773Y-42356160D01*
X188631520Y-42403786D01*
X188441013Y-42451413D01*
X188298133Y-42451413D01*
X188107626Y-42403786D01*
X188012373Y-42356160D01*
X187917120Y-42260906D01*
X187869493Y-42118026D01*
X187869493Y-42022773D01*
X187917120Y-41879893D01*
X187964746Y-41832266D01*
X188345760Y-41070240D02*
X188345760Y-41403626D01*
X188869653Y-41403626D02*
X187869493Y-41403626D01*
X187869493Y-40927360D01*
X188869653Y-39784320D02*
X187869493Y-39784320D01*
X188583893Y-39450933D01*
X187869493Y-39117546D01*
X188869653Y-39117546D01*
X188869653Y-38498400D02*
X188822026Y-38593653D01*
X188774400Y-38641280D01*
X188679146Y-38688906D01*
X188393386Y-38688906D01*
X188298133Y-38641280D01*
X188250506Y-38593653D01*
X188202880Y-38498400D01*
X188202880Y-38355520D01*
X188250506Y-38260266D01*
X188298133Y-38212640D01*
X188393386Y-38165013D01*
X188679146Y-38165013D01*
X188774400Y-38212640D01*
X188822026Y-38260266D01*
X188869653Y-38355520D01*
X188869653Y-38498400D01*
X188869653Y-37307733D02*
X187869493Y-37307733D01*
X188822026Y-37307733D02*
X188869653Y-37402986D01*
X188869653Y-37593493D01*
X188822026Y-37688746D01*
X188774400Y-37736373D01*
X188679146Y-37784000D01*
X188393386Y-37784000D01*
X188298133Y-37736373D01*
X188250506Y-37688746D01*
X188202880Y-37593493D01*
X188202880Y-37402986D01*
X188250506Y-37307733D01*
G04 #@! TO.C,J5*
D13*
X167071466Y-85909580D02*
X167071466Y-86623866D01*
X167023847Y-86766723D01*
X166928609Y-86861961D01*
X166785752Y-86909580D01*
X166690514Y-86909580D01*
X168023847Y-85909580D02*
X167547657Y-85909580D01*
X167500038Y-86385771D01*
X167547657Y-86338152D01*
X167642895Y-86290533D01*
X167880990Y-86290533D01*
X167976228Y-86338152D01*
X168023847Y-86385771D01*
X168071466Y-86481009D01*
X168071466Y-86719104D01*
X168023847Y-86814342D01*
X167976228Y-86861961D01*
X167880990Y-86909580D01*
X167642895Y-86909580D01*
X167547657Y-86861961D01*
X167500038Y-86814342D01*
G04 #@! TO.C,Q1*
X170422819Y-72028038D02*
X170375200Y-72123276D01*
X170279961Y-72218514D01*
X170137104Y-72361371D01*
X170089485Y-72456609D01*
X170089485Y-72551847D01*
X170327580Y-72504228D02*
X170279961Y-72599466D01*
X170184723Y-72694704D01*
X169994247Y-72742323D01*
X169660914Y-72742323D01*
X169470438Y-72694704D01*
X169375200Y-72599466D01*
X169327580Y-72504228D01*
X169327580Y-72313752D01*
X169375200Y-72218514D01*
X169470438Y-72123276D01*
X169660914Y-72075657D01*
X169994247Y-72075657D01*
X170184723Y-72123276D01*
X170279961Y-72218514D01*
X170327580Y-72313752D01*
X170327580Y-72504228D01*
X170327580Y-71123276D02*
X170327580Y-71694704D01*
X170327580Y-71408990D02*
X169327580Y-71408990D01*
X169470438Y-71504228D01*
X169565676Y-71599466D01*
X169613295Y-71694704D01*
G04 #@! TO.C,Q2*
X158836419Y-67405238D02*
X158788800Y-67500476D01*
X158693561Y-67595714D01*
X158550704Y-67738571D01*
X158503085Y-67833809D01*
X158503085Y-67929047D01*
X158741180Y-67881428D02*
X158693561Y-67976666D01*
X158598323Y-68071904D01*
X158407847Y-68119523D01*
X158074514Y-68119523D01*
X157884038Y-68071904D01*
X157788800Y-67976666D01*
X157741180Y-67881428D01*
X157741180Y-67690952D01*
X157788800Y-67595714D01*
X157884038Y-67500476D01*
X158074514Y-67452857D01*
X158407847Y-67452857D01*
X158598323Y-67500476D01*
X158693561Y-67595714D01*
X158741180Y-67690952D01*
X158741180Y-67881428D01*
X157836419Y-67071904D02*
X157788800Y-67024285D01*
X157741180Y-66929047D01*
X157741180Y-66690952D01*
X157788800Y-66595714D01*
X157836419Y-66548095D01*
X157931657Y-66500476D01*
X158026895Y-66500476D01*
X158169752Y-66548095D01*
X158741180Y-67119523D01*
X158741180Y-66500476D01*
G04 #@! TO.C,Q3*
X159039619Y-37585638D02*
X158992000Y-37680876D01*
X158896761Y-37776114D01*
X158753904Y-37918971D01*
X158706285Y-38014209D01*
X158706285Y-38109447D01*
X158944380Y-38061828D02*
X158896761Y-38157066D01*
X158801523Y-38252304D01*
X158611047Y-38299923D01*
X158277714Y-38299923D01*
X158087238Y-38252304D01*
X157992000Y-38157066D01*
X157944380Y-38061828D01*
X157944380Y-37871352D01*
X157992000Y-37776114D01*
X158087238Y-37680876D01*
X158277714Y-37633257D01*
X158611047Y-37633257D01*
X158801523Y-37680876D01*
X158896761Y-37776114D01*
X158944380Y-37871352D01*
X158944380Y-38061828D01*
X157944380Y-37299923D02*
X157944380Y-36680876D01*
X158325333Y-37014209D01*
X158325333Y-36871352D01*
X158372952Y-36776114D01*
X158420571Y-36728495D01*
X158515809Y-36680876D01*
X158753904Y-36680876D01*
X158849142Y-36728495D01*
X158896761Y-36776114D01*
X158944380Y-36871352D01*
X158944380Y-37157066D01*
X158896761Y-37252304D01*
X158849142Y-37299923D01*
G04 #@! TO.C,Q4*
X159090419Y-44968571D02*
X159042800Y-45063809D01*
X158947561Y-45159047D01*
X158804704Y-45301904D01*
X158757085Y-45397142D01*
X158757085Y-45492380D01*
X158995180Y-45444761D02*
X158947561Y-45539999D01*
X158852323Y-45635237D01*
X158661847Y-45682856D01*
X158328514Y-45682856D01*
X158138038Y-45635237D01*
X158042800Y-45539999D01*
X157995180Y-45444761D01*
X157995180Y-45254285D01*
X158042800Y-45159047D01*
X158138038Y-45063809D01*
X158328514Y-45016190D01*
X158661847Y-45016190D01*
X158852323Y-45063809D01*
X158947561Y-45159047D01*
X158995180Y-45254285D01*
X158995180Y-45444761D01*
X158328514Y-44159047D02*
X158995180Y-44159047D01*
X157947561Y-44397142D02*
X158661847Y-44635237D01*
X158661847Y-44016190D01*
G04 #@! TO.C,Q5*
X158887219Y-52351504D02*
X158839600Y-52446742D01*
X158744361Y-52541980D01*
X158601504Y-52684837D01*
X158553885Y-52780075D01*
X158553885Y-52875313D01*
X158791980Y-52827694D02*
X158744361Y-52922932D01*
X158649123Y-53018170D01*
X158458647Y-53065789D01*
X158125314Y-53065789D01*
X157934838Y-53018170D01*
X157839600Y-52922932D01*
X157791980Y-52827694D01*
X157791980Y-52637218D01*
X157839600Y-52541980D01*
X157934838Y-52446742D01*
X158125314Y-52399123D01*
X158458647Y-52399123D01*
X158649123Y-52446742D01*
X158744361Y-52541980D01*
X158791980Y-52637218D01*
X158791980Y-52827694D01*
X157791980Y-51494361D02*
X157791980Y-51970551D01*
X158268171Y-52018170D01*
X158220552Y-51970551D01*
X158172933Y-51875313D01*
X158172933Y-51637218D01*
X158220552Y-51541980D01*
X158268171Y-51494361D01*
X158363409Y-51446742D01*
X158601504Y-51446742D01*
X158696742Y-51494361D01*
X158744361Y-51541980D01*
X158791980Y-51637218D01*
X158791980Y-51875313D01*
X158744361Y-51970551D01*
X158696742Y-52018170D01*
G04 #@! TO.C,Q6*
X158938019Y-59734438D02*
X158890400Y-59829676D01*
X158795161Y-59924914D01*
X158652304Y-60067771D01*
X158604685Y-60163009D01*
X158604685Y-60258247D01*
X158842780Y-60210628D02*
X158795161Y-60305866D01*
X158699923Y-60401104D01*
X158509447Y-60448723D01*
X158176114Y-60448723D01*
X157985638Y-60401104D01*
X157890400Y-60305866D01*
X157842780Y-60210628D01*
X157842780Y-60020152D01*
X157890400Y-59924914D01*
X157985638Y-59829676D01*
X158176114Y-59782057D01*
X158509447Y-59782057D01*
X158699923Y-59829676D01*
X158795161Y-59924914D01*
X158842780Y-60020152D01*
X158842780Y-60210628D01*
X157842780Y-58924914D02*
X157842780Y-59115390D01*
X157890400Y-59210628D01*
X157938019Y-59258247D01*
X158080876Y-59353485D01*
X158271352Y-59401104D01*
X158652304Y-59401104D01*
X158747542Y-59353485D01*
X158795161Y-59305866D01*
X158842780Y-59210628D01*
X158842780Y-59020152D01*
X158795161Y-58924914D01*
X158747542Y-58877295D01*
X158652304Y-58829676D01*
X158414209Y-58829676D01*
X158318971Y-58877295D01*
X158271352Y-58924914D01*
X158223733Y-59020152D01*
X158223733Y-59210628D01*
X158271352Y-59305866D01*
X158318971Y-59353485D01*
X158414209Y-59401104D01*
G04 #@! TO.C,Q7*
X164885619Y-71977238D02*
X164838000Y-72072476D01*
X164742761Y-72167714D01*
X164599904Y-72310571D01*
X164552285Y-72405809D01*
X164552285Y-72501047D01*
X164790380Y-72453428D02*
X164742761Y-72548666D01*
X164647523Y-72643904D01*
X164457047Y-72691523D01*
X164123714Y-72691523D01*
X163933238Y-72643904D01*
X163838000Y-72548666D01*
X163790380Y-72453428D01*
X163790380Y-72262952D01*
X163838000Y-72167714D01*
X163933238Y-72072476D01*
X164123714Y-72024857D01*
X164457047Y-72024857D01*
X164647523Y-72072476D01*
X164742761Y-72167714D01*
X164790380Y-72262952D01*
X164790380Y-72453428D01*
X163790380Y-71691523D02*
X163790380Y-71024857D01*
X164790380Y-71453428D01*
G04 #@! TO.C,Q8*
X176976019Y-37585638D02*
X176928400Y-37680876D01*
X176833161Y-37776114D01*
X176690304Y-37918971D01*
X176642685Y-38014209D01*
X176642685Y-38109447D01*
X176880780Y-38061828D02*
X176833161Y-38157066D01*
X176737923Y-38252304D01*
X176547447Y-38299923D01*
X176214114Y-38299923D01*
X176023638Y-38252304D01*
X175928400Y-38157066D01*
X175880780Y-38061828D01*
X175880780Y-37871352D01*
X175928400Y-37776114D01*
X176023638Y-37680876D01*
X176214114Y-37633257D01*
X176547447Y-37633257D01*
X176737923Y-37680876D01*
X176833161Y-37776114D01*
X176880780Y-37871352D01*
X176880780Y-38061828D01*
X176309352Y-37061828D02*
X176261733Y-37157066D01*
X176214114Y-37204685D01*
X176118876Y-37252304D01*
X176071257Y-37252304D01*
X175976019Y-37204685D01*
X175928400Y-37157066D01*
X175880780Y-37061828D01*
X175880780Y-36871352D01*
X175928400Y-36776114D01*
X175976019Y-36728495D01*
X176071257Y-36680876D01*
X176118876Y-36680876D01*
X176214114Y-36728495D01*
X176261733Y-36776114D01*
X176309352Y-36871352D01*
X176309352Y-37061828D01*
X176356971Y-37157066D01*
X176404590Y-37204685D01*
X176499828Y-37252304D01*
X176690304Y-37252304D01*
X176785542Y-37204685D01*
X176833161Y-37157066D01*
X176880780Y-37061828D01*
X176880780Y-36871352D01*
X176833161Y-36776114D01*
X176785542Y-36728495D01*
X176690304Y-36680876D01*
X176499828Y-36680876D01*
X176404590Y-36728495D01*
X176356971Y-36776114D01*
X176309352Y-36871352D01*
G04 #@! TO.C,Q9*
X176722019Y-45154838D02*
X176674400Y-45250076D01*
X176579161Y-45345314D01*
X176436304Y-45488171D01*
X176388685Y-45583409D01*
X176388685Y-45678647D01*
X176626780Y-45631028D02*
X176579161Y-45726266D01*
X176483923Y-45821504D01*
X176293447Y-45869123D01*
X175960114Y-45869123D01*
X175769638Y-45821504D01*
X175674400Y-45726266D01*
X175626780Y-45631028D01*
X175626780Y-45440552D01*
X175674400Y-45345314D01*
X175769638Y-45250076D01*
X175960114Y-45202457D01*
X176293447Y-45202457D01*
X176483923Y-45250076D01*
X176579161Y-45345314D01*
X176626780Y-45440552D01*
X176626780Y-45631028D01*
X176626780Y-44726266D02*
X176626780Y-44535790D01*
X176579161Y-44440552D01*
X176531542Y-44392933D01*
X176388685Y-44297695D01*
X176198209Y-44250076D01*
X175817257Y-44250076D01*
X175722019Y-44297695D01*
X175674400Y-44345314D01*
X175626780Y-44440552D01*
X175626780Y-44631028D01*
X175674400Y-44726266D01*
X175722019Y-44773885D01*
X175817257Y-44821504D01*
X176055352Y-44821504D01*
X176150590Y-44773885D01*
X176198209Y-44726266D01*
X176245828Y-44631028D01*
X176245828Y-44440552D01*
X176198209Y-44345314D01*
X176150590Y-44297695D01*
X176055352Y-44250076D01*
G04 #@! TO.C,Q10*
X176925219Y-52946228D02*
X176877600Y-53041466D01*
X176782361Y-53136704D01*
X176639504Y-53279561D01*
X176591885Y-53374800D01*
X176591885Y-53470038D01*
X176829980Y-53422419D02*
X176782361Y-53517657D01*
X176687123Y-53612895D01*
X176496647Y-53660514D01*
X176163314Y-53660514D01*
X175972838Y-53612895D01*
X175877600Y-53517657D01*
X175829980Y-53422419D01*
X175829980Y-53231942D01*
X175877600Y-53136704D01*
X175972838Y-53041466D01*
X176163314Y-52993847D01*
X176496647Y-52993847D01*
X176687123Y-53041466D01*
X176782361Y-53136704D01*
X176829980Y-53231942D01*
X176829980Y-53422419D01*
X176829980Y-52041466D02*
X176829980Y-52612895D01*
X176829980Y-52327180D02*
X175829980Y-52327180D01*
X175972838Y-52422419D01*
X176068076Y-52517657D01*
X176115695Y-52612895D01*
X175829980Y-51422419D02*
X175829980Y-51327180D01*
X175877600Y-51231942D01*
X175925219Y-51184323D01*
X176020457Y-51136704D01*
X176210933Y-51089085D01*
X176449028Y-51089085D01*
X176639504Y-51136704D01*
X176734742Y-51184323D01*
X176782361Y-51231942D01*
X176829980Y-51327180D01*
X176829980Y-51422419D01*
X176782361Y-51517657D01*
X176734742Y-51565276D01*
X176639504Y-51612895D01*
X176449028Y-51660514D01*
X176210933Y-51660514D01*
X176020457Y-51612895D01*
X175925219Y-51565276D01*
X175877600Y-51517657D01*
X175829980Y-51422419D01*
G04 #@! TO.C,Q11*
X176620419Y-60159828D02*
X176572800Y-60255066D01*
X176477561Y-60350304D01*
X176334704Y-60493161D01*
X176287085Y-60588400D01*
X176287085Y-60683638D01*
X176525180Y-60636019D02*
X176477561Y-60731257D01*
X176382323Y-60826495D01*
X176191847Y-60874114D01*
X175858514Y-60874114D01*
X175668038Y-60826495D01*
X175572800Y-60731257D01*
X175525180Y-60636019D01*
X175525180Y-60445542D01*
X175572800Y-60350304D01*
X175668038Y-60255066D01*
X175858514Y-60207447D01*
X176191847Y-60207447D01*
X176382323Y-60255066D01*
X176477561Y-60350304D01*
X176525180Y-60445542D01*
X176525180Y-60636019D01*
X176525180Y-59255066D02*
X176525180Y-59826495D01*
X176525180Y-59540780D02*
X175525180Y-59540780D01*
X175668038Y-59636019D01*
X175763276Y-59731257D01*
X175810895Y-59826495D01*
X176525180Y-58302685D02*
X176525180Y-58874114D01*
X176525180Y-58588400D02*
X175525180Y-58588400D01*
X175668038Y-58683638D01*
X175763276Y-58778876D01*
X175810895Y-58874114D01*
G04 #@! TO.C,Q12*
X170266419Y-67881428D02*
X170218800Y-67976666D01*
X170123561Y-68071904D01*
X169980704Y-68214761D01*
X169933085Y-68310000D01*
X169933085Y-68405238D01*
X170171180Y-68357619D02*
X170123561Y-68452857D01*
X170028323Y-68548095D01*
X169837847Y-68595714D01*
X169504514Y-68595714D01*
X169314038Y-68548095D01*
X169218800Y-68452857D01*
X169171180Y-68357619D01*
X169171180Y-68167142D01*
X169218800Y-68071904D01*
X169314038Y-67976666D01*
X169504514Y-67929047D01*
X169837847Y-67929047D01*
X170028323Y-67976666D01*
X170123561Y-68071904D01*
X170171180Y-68167142D01*
X170171180Y-68357619D01*
X170171180Y-66976666D02*
X170171180Y-67548095D01*
X170171180Y-67262380D02*
X169171180Y-67262380D01*
X169314038Y-67357619D01*
X169409276Y-67452857D01*
X169456895Y-67548095D01*
X169266419Y-66595714D02*
X169218800Y-66548095D01*
X169171180Y-66452857D01*
X169171180Y-66214761D01*
X169218800Y-66119523D01*
X169266419Y-66071904D01*
X169361657Y-66024285D01*
X169456895Y-66024285D01*
X169599752Y-66071904D01*
X170171180Y-66643333D01*
X170171180Y-66024285D01*
G04 #@! TO.C,R1*
X152191980Y-81294266D02*
X151715790Y-81627600D01*
X152191980Y-81865695D02*
X151191980Y-81865695D01*
X151191980Y-81484742D01*
X151239600Y-81389504D01*
X151287219Y-81341885D01*
X151382457Y-81294266D01*
X151525314Y-81294266D01*
X151620552Y-81341885D01*
X151668171Y-81389504D01*
X151715790Y-81484742D01*
X151715790Y-81865695D01*
X152191980Y-80341885D02*
X152191980Y-80913314D01*
X152191980Y-80627600D02*
X151191980Y-80627600D01*
X151334838Y-80722838D01*
X151430076Y-80818076D01*
X151477695Y-80913314D01*
G04 #@! TO.C,R2*
X153901580Y-72709066D02*
X153425390Y-73042400D01*
X153901580Y-73280495D02*
X152901580Y-73280495D01*
X152901580Y-72899542D01*
X152949200Y-72804304D01*
X152996819Y-72756685D01*
X153092057Y-72709066D01*
X153234914Y-72709066D01*
X153330152Y-72756685D01*
X153377771Y-72804304D01*
X153425390Y-72899542D01*
X153425390Y-73280495D01*
X152996819Y-72328114D02*
X152949200Y-72280495D01*
X152901580Y-72185257D01*
X152901580Y-71947161D01*
X152949200Y-71851923D01*
X152996819Y-71804304D01*
X153092057Y-71756685D01*
X153187295Y-71756685D01*
X153330152Y-71804304D01*
X153901580Y-72375733D01*
X153901580Y-71756685D01*
G04 #@! TO.C,R3*
X158625980Y-72658266D02*
X158149790Y-72991600D01*
X158625980Y-73229695D02*
X157625980Y-73229695D01*
X157625980Y-72848742D01*
X157673600Y-72753504D01*
X157721219Y-72705885D01*
X157816457Y-72658266D01*
X157959314Y-72658266D01*
X158054552Y-72705885D01*
X158102171Y-72753504D01*
X158149790Y-72848742D01*
X158149790Y-73229695D01*
X157625980Y-72324933D02*
X157625980Y-71705885D01*
X158006933Y-72039219D01*
X158006933Y-71896361D01*
X158054552Y-71801123D01*
X158102171Y-71753504D01*
X158197409Y-71705885D01*
X158435504Y-71705885D01*
X158530742Y-71753504D01*
X158578361Y-71801123D01*
X158625980Y-71896361D01*
X158625980Y-72182076D01*
X158578361Y-72277314D01*
X158530742Y-72324933D01*
G04 #@! TO.C,R4*
X181494133Y-60701180D02*
X181160800Y-60224990D01*
X180922704Y-60701180D02*
X180922704Y-59701180D01*
X181303657Y-59701180D01*
X181398895Y-59748800D01*
X181446514Y-59796419D01*
X181494133Y-59891657D01*
X181494133Y-60034514D01*
X181446514Y-60129752D01*
X181398895Y-60177371D01*
X181303657Y-60224990D01*
X180922704Y-60224990D01*
X182351276Y-60034514D02*
X182351276Y-60701180D01*
X182113180Y-59653561D02*
X181875085Y-60367847D01*
X182494133Y-60367847D01*
G04 #@! TO.C,R5*
X163553580Y-83072266D02*
X163077390Y-83405600D01*
X163553580Y-83643695D02*
X162553580Y-83643695D01*
X162553580Y-83262742D01*
X162601200Y-83167504D01*
X162648819Y-83119885D01*
X162744057Y-83072266D01*
X162886914Y-83072266D01*
X162982152Y-83119885D01*
X163029771Y-83167504D01*
X163077390Y-83262742D01*
X163077390Y-83643695D01*
X162553580Y-82167504D02*
X162553580Y-82643695D01*
X163029771Y-82691314D01*
X162982152Y-82643695D01*
X162934533Y-82548457D01*
X162934533Y-82310361D01*
X162982152Y-82215123D01*
X163029771Y-82167504D01*
X163125009Y-82119885D01*
X163363104Y-82119885D01*
X163458342Y-82167504D01*
X163505961Y-82215123D01*
X163553580Y-82310361D01*
X163553580Y-82548457D01*
X163505961Y-82643695D01*
X163458342Y-82691314D01*
G04 #@! TO.C,R6*
X198132780Y-46191466D02*
X197656590Y-46524800D01*
X198132780Y-46762895D02*
X197132780Y-46762895D01*
X197132780Y-46381942D01*
X197180400Y-46286704D01*
X197228019Y-46239085D01*
X197323257Y-46191466D01*
X197466114Y-46191466D01*
X197561352Y-46239085D01*
X197608971Y-46286704D01*
X197656590Y-46381942D01*
X197656590Y-46762895D01*
X197132780Y-45334323D02*
X197132780Y-45524800D01*
X197180400Y-45620038D01*
X197228019Y-45667657D01*
X197370876Y-45762895D01*
X197561352Y-45810514D01*
X197942304Y-45810514D01*
X198037542Y-45762895D01*
X198085161Y-45715276D01*
X198132780Y-45620038D01*
X198132780Y-45429561D01*
X198085161Y-45334323D01*
X198037542Y-45286704D01*
X197942304Y-45239085D01*
X197704209Y-45239085D01*
X197608971Y-45286704D01*
X197561352Y-45334323D01*
X197513733Y-45429561D01*
X197513733Y-45620038D01*
X197561352Y-45715276D01*
X197608971Y-45762895D01*
X197704209Y-45810514D01*
G04 #@! TO.C,R7*
X154020780Y-54979866D02*
X153544590Y-55313200D01*
X154020780Y-55551295D02*
X153020780Y-55551295D01*
X153020780Y-55170342D01*
X153068400Y-55075104D01*
X153116019Y-55027485D01*
X153211257Y-54979866D01*
X153354114Y-54979866D01*
X153449352Y-55027485D01*
X153496971Y-55075104D01*
X153544590Y-55170342D01*
X153544590Y-55551295D01*
X153020780Y-54646533D02*
X153020780Y-53979866D01*
X154020780Y-54408438D01*
G04 #@! TO.C,R8*
X166965333Y-80208380D02*
X166632000Y-79732190D01*
X166393904Y-80208380D02*
X166393904Y-79208380D01*
X166774857Y-79208380D01*
X166870095Y-79256000D01*
X166917714Y-79303619D01*
X166965333Y-79398857D01*
X166965333Y-79541714D01*
X166917714Y-79636952D01*
X166870095Y-79684571D01*
X166774857Y-79732190D01*
X166393904Y-79732190D01*
X167536761Y-79636952D02*
X167441523Y-79589333D01*
X167393904Y-79541714D01*
X167346285Y-79446476D01*
X167346285Y-79398857D01*
X167393904Y-79303619D01*
X167441523Y-79256000D01*
X167536761Y-79208380D01*
X167727238Y-79208380D01*
X167822476Y-79256000D01*
X167870095Y-79303619D01*
X167917714Y-79398857D01*
X167917714Y-79446476D01*
X167870095Y-79541714D01*
X167822476Y-79589333D01*
X167727238Y-79636952D01*
X167536761Y-79636952D01*
X167441523Y-79684571D01*
X167393904Y-79732190D01*
X167346285Y-79827428D01*
X167346285Y-80017904D01*
X167393904Y-80113142D01*
X167441523Y-80160761D01*
X167536761Y-80208380D01*
X167727238Y-80208380D01*
X167822476Y-80160761D01*
X167870095Y-80113142D01*
X167917714Y-80017904D01*
X167917714Y-79827428D01*
X167870095Y-79732190D01*
X167822476Y-79684571D01*
X167727238Y-79636952D01*
G04 #@! TO.C,R9*
X181130380Y-68695866D02*
X180654190Y-69029200D01*
X181130380Y-69267295D02*
X180130380Y-69267295D01*
X180130380Y-68886342D01*
X180178000Y-68791104D01*
X180225619Y-68743485D01*
X180320857Y-68695866D01*
X180463714Y-68695866D01*
X180558952Y-68743485D01*
X180606571Y-68791104D01*
X180654190Y-68886342D01*
X180654190Y-69267295D01*
X181130380Y-68219676D02*
X181130380Y-68029200D01*
X181082761Y-67933961D01*
X181035142Y-67886342D01*
X180892285Y-67791104D01*
X180701809Y-67743485D01*
X180320857Y-67743485D01*
X180225619Y-67791104D01*
X180178000Y-67838723D01*
X180130380Y-67933961D01*
X180130380Y-68124438D01*
X180178000Y-68219676D01*
X180225619Y-68267295D01*
X180320857Y-68314914D01*
X180558952Y-68314914D01*
X180654190Y-68267295D01*
X180701809Y-68219676D01*
X180749428Y-68124438D01*
X180749428Y-67933961D01*
X180701809Y-67838723D01*
X180654190Y-67791104D01*
X180558952Y-67743485D01*
G04 #@! TO.C,R10*
X196359542Y-56111580D02*
X196026209Y-55635390D01*
X195788114Y-56111580D02*
X195788114Y-55111580D01*
X196169066Y-55111580D01*
X196264304Y-55159200D01*
X196311923Y-55206819D01*
X196359542Y-55302057D01*
X196359542Y-55444914D01*
X196311923Y-55540152D01*
X196264304Y-55587771D01*
X196169066Y-55635390D01*
X195788114Y-55635390D01*
X197311923Y-56111580D02*
X196740495Y-56111580D01*
X197026209Y-56111580D02*
X197026209Y-55111580D01*
X196930971Y-55254438D01*
X196835733Y-55349676D01*
X196740495Y-55397295D01*
X197930971Y-55111580D02*
X198026209Y-55111580D01*
X198121447Y-55159200D01*
X198169066Y-55206819D01*
X198216685Y-55302057D01*
X198264304Y-55492533D01*
X198264304Y-55730628D01*
X198216685Y-55921104D01*
X198169066Y-56016342D01*
X198121447Y-56063961D01*
X198026209Y-56111580D01*
X197930971Y-56111580D01*
X197835733Y-56063961D01*
X197788114Y-56016342D01*
X197740495Y-55921104D01*
X197692876Y-55730628D01*
X197692876Y-55492533D01*
X197740495Y-55302057D01*
X197788114Y-55206819D01*
X197835733Y-55159200D01*
X197930971Y-55111580D01*
G04 #@! TO.C,R11*
X184856380Y-55710057D02*
X184380190Y-56043390D01*
X184856380Y-56281485D02*
X183856380Y-56281485D01*
X183856380Y-55900533D01*
X183904000Y-55805295D01*
X183951619Y-55757676D01*
X184046857Y-55710057D01*
X184189714Y-55710057D01*
X184284952Y-55757676D01*
X184332571Y-55805295D01*
X184380190Y-55900533D01*
X184380190Y-56281485D01*
X184856380Y-54757676D02*
X184856380Y-55329104D01*
X184856380Y-55043390D02*
X183856380Y-55043390D01*
X183999238Y-55138628D01*
X184094476Y-55233866D01*
X184142095Y-55329104D01*
X184856380Y-53805295D02*
X184856380Y-54376723D01*
X184856380Y-54091009D02*
X183856380Y-54091009D01*
X183999238Y-54186247D01*
X184094476Y-54281485D01*
X184142095Y-54376723D01*
G04 #@! TO.C,R12*
X182400380Y-55659257D02*
X181924190Y-55992590D01*
X182400380Y-56230685D02*
X181400380Y-56230685D01*
X181400380Y-55849733D01*
X181448000Y-55754495D01*
X181495619Y-55706876D01*
X181590857Y-55659257D01*
X181733714Y-55659257D01*
X181828952Y-55706876D01*
X181876571Y-55754495D01*
X181924190Y-55849733D01*
X181924190Y-56230685D01*
X182400380Y-54706876D02*
X182400380Y-55278304D01*
X182400380Y-54992590D02*
X181400380Y-54992590D01*
X181543238Y-55087828D01*
X181638476Y-55183066D01*
X181686095Y-55278304D01*
X181495619Y-54325923D02*
X181448000Y-54278304D01*
X181400380Y-54183066D01*
X181400380Y-53944971D01*
X181448000Y-53849733D01*
X181495619Y-53802114D01*
X181590857Y-53754495D01*
X181686095Y-53754495D01*
X181828952Y-53802114D01*
X182400380Y-54373542D01*
X182400380Y-53754495D01*
G04 #@! TO.C,R13*
X152225180Y-56218057D02*
X151748990Y-56551390D01*
X152225180Y-56789485D02*
X151225180Y-56789485D01*
X151225180Y-56408533D01*
X151272800Y-56313295D01*
X151320419Y-56265676D01*
X151415657Y-56218057D01*
X151558514Y-56218057D01*
X151653752Y-56265676D01*
X151701371Y-56313295D01*
X151748990Y-56408533D01*
X151748990Y-56789485D01*
X152225180Y-55265676D02*
X152225180Y-55837104D01*
X152225180Y-55551390D02*
X151225180Y-55551390D01*
X151368038Y-55646628D01*
X151463276Y-55741866D01*
X151510895Y-55837104D01*
X151225180Y-54932342D02*
X151225180Y-54313295D01*
X151606133Y-54646628D01*
X151606133Y-54503771D01*
X151653752Y-54408533D01*
X151701371Y-54360914D01*
X151796609Y-54313295D01*
X152034704Y-54313295D01*
X152129942Y-54360914D01*
X152177561Y-54408533D01*
X152225180Y-54503771D01*
X152225180Y-54789485D01*
X152177561Y-54884723D01*
X152129942Y-54932342D01*
G04 #@! TO.C,R14*
X157000380Y-64396857D02*
X156524190Y-64730190D01*
X157000380Y-64968285D02*
X156000380Y-64968285D01*
X156000380Y-64587333D01*
X156048000Y-64492095D01*
X156095619Y-64444476D01*
X156190857Y-64396857D01*
X156333714Y-64396857D01*
X156428952Y-64444476D01*
X156476571Y-64492095D01*
X156524190Y-64587333D01*
X156524190Y-64968285D01*
X157000380Y-63444476D02*
X157000380Y-64015904D01*
X157000380Y-63730190D02*
X156000380Y-63730190D01*
X156143238Y-63825428D01*
X156238476Y-63920666D01*
X156286095Y-64015904D01*
X156333714Y-62587333D02*
X157000380Y-62587333D01*
X155952761Y-62825428D02*
X156667047Y-63063523D01*
X156667047Y-62444476D01*
G04 #@! TO.C,R15*
X175153580Y-83751657D02*
X174677390Y-84084990D01*
X175153580Y-84323085D02*
X174153580Y-84323085D01*
X174153580Y-83942133D01*
X174201200Y-83846895D01*
X174248819Y-83799276D01*
X174344057Y-83751657D01*
X174486914Y-83751657D01*
X174582152Y-83799276D01*
X174629771Y-83846895D01*
X174677390Y-83942133D01*
X174677390Y-84323085D01*
X175153580Y-82799276D02*
X175153580Y-83370704D01*
X175153580Y-83084990D02*
X174153580Y-83084990D01*
X174296438Y-83180228D01*
X174391676Y-83275466D01*
X174439295Y-83370704D01*
X174153580Y-81894514D02*
X174153580Y-82370704D01*
X174629771Y-82418323D01*
X174582152Y-82370704D01*
X174534533Y-82275466D01*
X174534533Y-82037371D01*
X174582152Y-81942133D01*
X174629771Y-81894514D01*
X174725009Y-81846895D01*
X174963104Y-81846895D01*
X175058342Y-81894514D01*
X175105961Y-81942133D01*
X175153580Y-82037371D01*
X175153580Y-82275466D01*
X175105961Y-82370704D01*
X175058342Y-82418323D01*
G04 #@! TO.C,R16*
X158575180Y-81821257D02*
X158098990Y-82154590D01*
X158575180Y-82392685D02*
X157575180Y-82392685D01*
X157575180Y-82011733D01*
X157622800Y-81916495D01*
X157670419Y-81868876D01*
X157765657Y-81821257D01*
X157908514Y-81821257D01*
X158003752Y-81868876D01*
X158051371Y-81916495D01*
X158098990Y-82011733D01*
X158098990Y-82392685D01*
X158575180Y-80868876D02*
X158575180Y-81440304D01*
X158575180Y-81154590D02*
X157575180Y-81154590D01*
X157718038Y-81249828D01*
X157813276Y-81345066D01*
X157860895Y-81440304D01*
X157575180Y-80011733D02*
X157575180Y-80202209D01*
X157622800Y-80297447D01*
X157670419Y-80345066D01*
X157813276Y-80440304D01*
X158003752Y-80487923D01*
X158384704Y-80487923D01*
X158479942Y-80440304D01*
X158527561Y-80392685D01*
X158575180Y-80297447D01*
X158575180Y-80106971D01*
X158527561Y-80011733D01*
X158479942Y-79964114D01*
X158384704Y-79916495D01*
X158146609Y-79916495D01*
X158051371Y-79964114D01*
X158003752Y-80011733D01*
X157956133Y-80106971D01*
X157956133Y-80297447D01*
X158003752Y-80392685D01*
X158051371Y-80440304D01*
X158146609Y-80487923D01*
G04 #@! TO.C,R17*
X170208380Y-69172057D02*
X169732190Y-69505390D01*
X170208380Y-69743485D02*
X169208380Y-69743485D01*
X169208380Y-69362533D01*
X169256000Y-69267295D01*
X169303619Y-69219676D01*
X169398857Y-69172057D01*
X169541714Y-69172057D01*
X169636952Y-69219676D01*
X169684571Y-69267295D01*
X169732190Y-69362533D01*
X169732190Y-69743485D01*
X170208380Y-68219676D02*
X170208380Y-68791104D01*
X170208380Y-68505390D02*
X169208380Y-68505390D01*
X169351238Y-68600628D01*
X169446476Y-68695866D01*
X169494095Y-68791104D01*
X169208380Y-67886342D02*
X169208380Y-67219676D01*
X170208380Y-67648247D01*
G04 #@! TO.C,R18*
X181079580Y-77757257D02*
X180603390Y-78090590D01*
X181079580Y-78328685D02*
X180079580Y-78328685D01*
X180079580Y-77947733D01*
X180127200Y-77852495D01*
X180174819Y-77804876D01*
X180270057Y-77757257D01*
X180412914Y-77757257D01*
X180508152Y-77804876D01*
X180555771Y-77852495D01*
X180603390Y-77947733D01*
X180603390Y-78328685D01*
X181079580Y-76804876D02*
X181079580Y-77376304D01*
X181079580Y-77090590D02*
X180079580Y-77090590D01*
X180222438Y-77185828D01*
X180317676Y-77281066D01*
X180365295Y-77376304D01*
X180508152Y-76233447D02*
X180460533Y-76328685D01*
X180412914Y-76376304D01*
X180317676Y-76423923D01*
X180270057Y-76423923D01*
X180174819Y-76376304D01*
X180127200Y-76328685D01*
X180079580Y-76233447D01*
X180079580Y-76042971D01*
X180127200Y-75947733D01*
X180174819Y-75900114D01*
X180270057Y-75852495D01*
X180317676Y-75852495D01*
X180412914Y-75900114D01*
X180460533Y-75947733D01*
X180508152Y-76042971D01*
X180508152Y-76233447D01*
X180555771Y-76328685D01*
X180603390Y-76376304D01*
X180698628Y-76423923D01*
X180889104Y-76423923D01*
X180984342Y-76376304D01*
X181031961Y-76328685D01*
X181079580Y-76233447D01*
X181079580Y-76042971D01*
X181031961Y-75947733D01*
X180984342Y-75900114D01*
X180889104Y-75852495D01*
X180698628Y-75852495D01*
X180603390Y-75900114D01*
X180555771Y-75947733D01*
X180508152Y-76042971D01*
G04 #@! TO.C,R19*
X197726380Y-61094857D02*
X197250190Y-61428190D01*
X197726380Y-61666285D02*
X196726380Y-61666285D01*
X196726380Y-61285333D01*
X196774000Y-61190095D01*
X196821619Y-61142476D01*
X196916857Y-61094857D01*
X197059714Y-61094857D01*
X197154952Y-61142476D01*
X197202571Y-61190095D01*
X197250190Y-61285333D01*
X197250190Y-61666285D01*
X197726380Y-60142476D02*
X197726380Y-60713904D01*
X197726380Y-60428190D02*
X196726380Y-60428190D01*
X196869238Y-60523428D01*
X196964476Y-60618666D01*
X197012095Y-60713904D01*
X197726380Y-59666285D02*
X197726380Y-59475809D01*
X197678761Y-59380571D01*
X197631142Y-59332952D01*
X197488285Y-59237714D01*
X197297809Y-59190095D01*
X196916857Y-59190095D01*
X196821619Y-59237714D01*
X196774000Y-59285333D01*
X196726380Y-59380571D01*
X196726380Y-59571047D01*
X196774000Y-59666285D01*
X196821619Y-59713904D01*
X196916857Y-59761523D01*
X197154952Y-59761523D01*
X197250190Y-59713904D01*
X197297809Y-59666285D01*
X197345428Y-59571047D01*
X197345428Y-59380571D01*
X197297809Y-59285333D01*
X197250190Y-59237714D01*
X197154952Y-59190095D01*
G04 #@! TO.C,R20*
X188587142Y-67914780D02*
X188253809Y-67438590D01*
X188015714Y-67914780D02*
X188015714Y-66914780D01*
X188396666Y-66914780D01*
X188491904Y-66962400D01*
X188539523Y-67010019D01*
X188587142Y-67105257D01*
X188587142Y-67248114D01*
X188539523Y-67343352D01*
X188491904Y-67390971D01*
X188396666Y-67438590D01*
X188015714Y-67438590D01*
X188968095Y-67010019D02*
X189015714Y-66962400D01*
X189110952Y-66914780D01*
X189349047Y-66914780D01*
X189444285Y-66962400D01*
X189491904Y-67010019D01*
X189539523Y-67105257D01*
X189539523Y-67200495D01*
X189491904Y-67343352D01*
X188920476Y-67914780D01*
X189539523Y-67914780D01*
X190158571Y-66914780D02*
X190253809Y-66914780D01*
X190349047Y-66962400D01*
X190396666Y-67010019D01*
X190444285Y-67105257D01*
X190491904Y-67295733D01*
X190491904Y-67533828D01*
X190444285Y-67724304D01*
X190396666Y-67819542D01*
X190349047Y-67867161D01*
X190253809Y-67914780D01*
X190158571Y-67914780D01*
X190063333Y-67867161D01*
X190015714Y-67819542D01*
X189968095Y-67724304D01*
X189920476Y-67533828D01*
X189920476Y-67295733D01*
X189968095Y-67105257D01*
X190015714Y-67010019D01*
X190063333Y-66962400D01*
X190158571Y-66914780D01*
G04 #@! TO.C,R21*
X185499180Y-69121257D02*
X185022990Y-69454590D01*
X185499180Y-69692685D02*
X184499180Y-69692685D01*
X184499180Y-69311733D01*
X184546800Y-69216495D01*
X184594419Y-69168876D01*
X184689657Y-69121257D01*
X184832514Y-69121257D01*
X184927752Y-69168876D01*
X184975371Y-69216495D01*
X185022990Y-69311733D01*
X185022990Y-69692685D01*
X184594419Y-68740304D02*
X184546800Y-68692685D01*
X184499180Y-68597447D01*
X184499180Y-68359352D01*
X184546800Y-68264114D01*
X184594419Y-68216495D01*
X184689657Y-68168876D01*
X184784895Y-68168876D01*
X184927752Y-68216495D01*
X185499180Y-68787923D01*
X185499180Y-68168876D01*
X185499180Y-67216495D02*
X185499180Y-67787923D01*
X185499180Y-67502209D02*
X184499180Y-67502209D01*
X184642038Y-67597447D01*
X184737276Y-67692685D01*
X184784895Y-67787923D01*
G04 #@! TO.C,R22*
X179697142Y-85981980D02*
X179363809Y-85505790D01*
X179125714Y-85981980D02*
X179125714Y-84981980D01*
X179506666Y-84981980D01*
X179601904Y-85029600D01*
X179649523Y-85077219D01*
X179697142Y-85172457D01*
X179697142Y-85315314D01*
X179649523Y-85410552D01*
X179601904Y-85458171D01*
X179506666Y-85505790D01*
X179125714Y-85505790D01*
X180078095Y-85077219D02*
X180125714Y-85029600D01*
X180220952Y-84981980D01*
X180459047Y-84981980D01*
X180554285Y-85029600D01*
X180601904Y-85077219D01*
X180649523Y-85172457D01*
X180649523Y-85267695D01*
X180601904Y-85410552D01*
X180030476Y-85981980D01*
X180649523Y-85981980D01*
X181030476Y-85077219D02*
X181078095Y-85029600D01*
X181173333Y-84981980D01*
X181411428Y-84981980D01*
X181506666Y-85029600D01*
X181554285Y-85077219D01*
X181601904Y-85172457D01*
X181601904Y-85267695D01*
X181554285Y-85410552D01*
X180982857Y-85981980D01*
X181601904Y-85981980D01*
G04 #@! TO.C,RV1*
X148117980Y-49215638D02*
X147641790Y-49548971D01*
X148117980Y-49787066D02*
X147117980Y-49787066D01*
X147117980Y-49406114D01*
X147165600Y-49310876D01*
X147213219Y-49263257D01*
X147308457Y-49215638D01*
X147451314Y-49215638D01*
X147546552Y-49263257D01*
X147594171Y-49310876D01*
X147641790Y-49406114D01*
X147641790Y-49787066D01*
X147117980Y-48929923D02*
X148117980Y-48596590D01*
X147117980Y-48263257D01*
X148117980Y-47406114D02*
X148117980Y-47977542D01*
X148117980Y-47691828D02*
X147117980Y-47691828D01*
X147260838Y-47787066D01*
X147356076Y-47882304D01*
X147403695Y-47977542D01*
G04 #@! TO.C,RV2*
X144480780Y-81418038D02*
X144004590Y-81751371D01*
X144480780Y-81989466D02*
X143480780Y-81989466D01*
X143480780Y-81608514D01*
X143528400Y-81513276D01*
X143576019Y-81465657D01*
X143671257Y-81418038D01*
X143814114Y-81418038D01*
X143909352Y-81465657D01*
X143956971Y-81513276D01*
X144004590Y-81608514D01*
X144004590Y-81989466D01*
X143480780Y-81132323D02*
X144480780Y-80798990D01*
X143480780Y-80465657D01*
X143576019Y-80179942D02*
X143528400Y-80132323D01*
X143480780Y-80037085D01*
X143480780Y-79798990D01*
X143528400Y-79703752D01*
X143576019Y-79656133D01*
X143671257Y-79608514D01*
X143766495Y-79608514D01*
X143909352Y-79656133D01*
X144480780Y-80227561D01*
X144480780Y-79608514D01*
G04 #@! TO.C,RV3*
X148117980Y-66741638D02*
X147641790Y-67074971D01*
X148117980Y-67313066D02*
X147117980Y-67313066D01*
X147117980Y-66932114D01*
X147165600Y-66836876D01*
X147213219Y-66789257D01*
X147308457Y-66741638D01*
X147451314Y-66741638D01*
X147546552Y-66789257D01*
X147594171Y-66836876D01*
X147641790Y-66932114D01*
X147641790Y-67313066D01*
X147117980Y-66455923D02*
X148117980Y-66122590D01*
X147117980Y-65789257D01*
X147117980Y-65551161D02*
X147117980Y-64932114D01*
X147498933Y-65265447D01*
X147498933Y-65122590D01*
X147546552Y-65027352D01*
X147594171Y-64979733D01*
X147689409Y-64932114D01*
X147927504Y-64932114D01*
X148022742Y-64979733D01*
X148070361Y-65027352D01*
X148117980Y-65122590D01*
X148117980Y-65408304D01*
X148070361Y-65503542D01*
X148022742Y-65551161D01*
G04 #@! TO.C,U1*
X190866780Y-61874304D02*
X191676304Y-61874304D01*
X191771542Y-61826685D01*
X191819161Y-61779066D01*
X191866780Y-61683828D01*
X191866780Y-61493352D01*
X191819161Y-61398114D01*
X191771542Y-61350495D01*
X191676304Y-61302876D01*
X190866780Y-61302876D01*
X191866780Y-60302876D02*
X191866780Y-60874304D01*
X191866780Y-60588590D02*
X190866780Y-60588590D01*
X191009638Y-60683828D01*
X191104876Y-60779066D01*
X191152495Y-60874304D01*
G04 #@! TD*
M02*
