G04 #@! TF.GenerationSoftware,KiCad,Pcbnew,(5.1.0)-1*
G04 #@! TF.CreationDate,2019-04-11T22:52:00-04:00*
G04 #@! TF.ProjectId,lfo,6c666f2e-6b69-4636-9164-5f7063625858,rev?*
G04 #@! TF.SameCoordinates,Original*
G04 #@! TF.FileFunction,Soldermask,Top*
G04 #@! TF.FilePolarity,Negative*
%FSLAX46Y46*%
G04 Gerber Fmt 4.6, Leading zero omitted, Abs format (unit mm)*
G04 Created by KiCad (PCBNEW (5.1.0)-1) date 2019-04-11 22:52:00*
%MOMM*%
%LPD*%
G04 APERTURE LIST*
%ADD10C,0.100000*%
G04 APERTURE END LIST*
D10*
G36*
X225546228Y-132023703D02*
G01*
X225701100Y-132087853D01*
X225840481Y-132180985D01*
X225959015Y-132299519D01*
X226052147Y-132438900D01*
X226116297Y-132593772D01*
X226149000Y-132758184D01*
X226149000Y-132925816D01*
X226116297Y-133090228D01*
X226052147Y-133245100D01*
X225959015Y-133384481D01*
X225840481Y-133503015D01*
X225701100Y-133596147D01*
X225546228Y-133660297D01*
X225381816Y-133693000D01*
X225214184Y-133693000D01*
X225049772Y-133660297D01*
X224894900Y-133596147D01*
X224755519Y-133503015D01*
X224636985Y-133384481D01*
X224543853Y-133245100D01*
X224479703Y-133090228D01*
X224447000Y-132925816D01*
X224447000Y-132758184D01*
X224479703Y-132593772D01*
X224543853Y-132438900D01*
X224636985Y-132299519D01*
X224755519Y-132180985D01*
X224894900Y-132087853D01*
X225049772Y-132023703D01*
X225214184Y-131991000D01*
X225381816Y-131991000D01*
X225546228Y-132023703D01*
X225546228Y-132023703D01*
G37*
G36*
X220974228Y-132023703D02*
G01*
X221129100Y-132087853D01*
X221268481Y-132180985D01*
X221387015Y-132299519D01*
X221480147Y-132438900D01*
X221544297Y-132593772D01*
X221577000Y-132758184D01*
X221577000Y-132925816D01*
X221544297Y-133090228D01*
X221480147Y-133245100D01*
X221387015Y-133384481D01*
X221268481Y-133503015D01*
X221129100Y-133596147D01*
X220974228Y-133660297D01*
X220809816Y-133693000D01*
X220642184Y-133693000D01*
X220477772Y-133660297D01*
X220322900Y-133596147D01*
X220183519Y-133503015D01*
X220064985Y-133384481D01*
X219971853Y-133245100D01*
X219907703Y-133090228D01*
X219875000Y-132925816D01*
X219875000Y-132758184D01*
X219907703Y-132593772D01*
X219971853Y-132438900D01*
X220064985Y-132299519D01*
X220183519Y-132180985D01*
X220322900Y-132087853D01*
X220477772Y-132023703D01*
X220642184Y-131991000D01*
X220809816Y-131991000D01*
X220974228Y-132023703D01*
X220974228Y-132023703D01*
G37*
G36*
X217647655Y-129722591D02*
G01*
X217719525Y-129736887D01*
X217922624Y-129821013D01*
X218105409Y-129943146D01*
X218260854Y-130098591D01*
X218382987Y-130281376D01*
X218467113Y-130484475D01*
X218510000Y-130700084D01*
X218510000Y-130919916D01*
X218467113Y-131135525D01*
X218382987Y-131338624D01*
X218260854Y-131521409D01*
X218105409Y-131676854D01*
X217922624Y-131798987D01*
X217719525Y-131883113D01*
X217647655Y-131897409D01*
X217503918Y-131926000D01*
X217284082Y-131926000D01*
X217140345Y-131897409D01*
X217068475Y-131883113D01*
X216865376Y-131798987D01*
X216682591Y-131676854D01*
X216527146Y-131521409D01*
X216405013Y-131338624D01*
X216320887Y-131135525D01*
X216278000Y-130919916D01*
X216278000Y-130700084D01*
X216320887Y-130484475D01*
X216405013Y-130281376D01*
X216527146Y-130098591D01*
X216682591Y-129943146D01*
X216865376Y-129821013D01*
X217068475Y-129736887D01*
X217140345Y-129722591D01*
X217284082Y-129694000D01*
X217503918Y-129694000D01*
X217647655Y-129722591D01*
X217647655Y-129722591D01*
G37*
G36*
X209347655Y-129722591D02*
G01*
X209419525Y-129736887D01*
X209622624Y-129821013D01*
X209805409Y-129943146D01*
X209960854Y-130098591D01*
X210082987Y-130281376D01*
X210167113Y-130484475D01*
X210210000Y-130700084D01*
X210210000Y-130919916D01*
X210167113Y-131135525D01*
X210082987Y-131338624D01*
X209960854Y-131521409D01*
X209805409Y-131676854D01*
X209622624Y-131798987D01*
X209419525Y-131883113D01*
X209347655Y-131897409D01*
X209203918Y-131926000D01*
X208984082Y-131926000D01*
X208840345Y-131897409D01*
X208768475Y-131883113D01*
X208565376Y-131798987D01*
X208382591Y-131676854D01*
X208227146Y-131521409D01*
X208105013Y-131338624D01*
X208020887Y-131135525D01*
X207978000Y-130919916D01*
X207978000Y-130700084D01*
X208020887Y-130484475D01*
X208105013Y-130281376D01*
X208227146Y-130098591D01*
X208382591Y-129943146D01*
X208565376Y-129821013D01*
X208768475Y-129736887D01*
X208840345Y-129722591D01*
X208984082Y-129694000D01*
X209203918Y-129694000D01*
X209347655Y-129722591D01*
X209347655Y-129722591D01*
G37*
G36*
X228883655Y-129722591D02*
G01*
X228955525Y-129736887D01*
X229158624Y-129821013D01*
X229341409Y-129943146D01*
X229496854Y-130098591D01*
X229618987Y-130281376D01*
X229703113Y-130484475D01*
X229746000Y-130700084D01*
X229746000Y-130919916D01*
X229703113Y-131135525D01*
X229618987Y-131338624D01*
X229496854Y-131521409D01*
X229341409Y-131676854D01*
X229158624Y-131798987D01*
X228955525Y-131883113D01*
X228883655Y-131897409D01*
X228739918Y-131926000D01*
X228520082Y-131926000D01*
X228376345Y-131897409D01*
X228304475Y-131883113D01*
X228101376Y-131798987D01*
X227918591Y-131676854D01*
X227763146Y-131521409D01*
X227641013Y-131338624D01*
X227556887Y-131135525D01*
X227514000Y-130919916D01*
X227514000Y-130700084D01*
X227556887Y-130484475D01*
X227641013Y-130281376D01*
X227763146Y-130098591D01*
X227918591Y-129943146D01*
X228101376Y-129821013D01*
X228304475Y-129736887D01*
X228376345Y-129722591D01*
X228520082Y-129694000D01*
X228739918Y-129694000D01*
X228883655Y-129722591D01*
X228883655Y-129722591D01*
G37*
G36*
X237183655Y-129722591D02*
G01*
X237255525Y-129736887D01*
X237458624Y-129821013D01*
X237641409Y-129943146D01*
X237796854Y-130098591D01*
X237918987Y-130281376D01*
X238003113Y-130484475D01*
X238046000Y-130700084D01*
X238046000Y-130919916D01*
X238003113Y-131135525D01*
X237918987Y-131338624D01*
X237796854Y-131521409D01*
X237641409Y-131676854D01*
X237458624Y-131798987D01*
X237255525Y-131883113D01*
X237183655Y-131897409D01*
X237039918Y-131926000D01*
X236820082Y-131926000D01*
X236676345Y-131897409D01*
X236604475Y-131883113D01*
X236401376Y-131798987D01*
X236218591Y-131676854D01*
X236063146Y-131521409D01*
X235941013Y-131338624D01*
X235856887Y-131135525D01*
X235814000Y-130919916D01*
X235814000Y-130700084D01*
X235856887Y-130484475D01*
X235941013Y-130281376D01*
X236063146Y-130098591D01*
X236218591Y-129943146D01*
X236401376Y-129821013D01*
X236604475Y-129736887D01*
X236676345Y-129722591D01*
X236820082Y-129694000D01*
X237039918Y-129694000D01*
X237183655Y-129722591D01*
X237183655Y-129722591D01*
G37*
G36*
X240996000Y-131826000D02*
G01*
X239064000Y-131826000D01*
X239064000Y-129794000D01*
X240996000Y-129794000D01*
X240996000Y-131826000D01*
X240996000Y-131826000D01*
G37*
G36*
X206960000Y-131826000D02*
G01*
X205028000Y-131826000D01*
X205028000Y-129794000D01*
X206960000Y-129794000D01*
X206960000Y-131826000D01*
X206960000Y-131826000D01*
G37*
G36*
X225464823Y-126923313D02*
G01*
X225625242Y-126971976D01*
X225757906Y-127042886D01*
X225773078Y-127050996D01*
X225902659Y-127157341D01*
X226009004Y-127286922D01*
X226009005Y-127286924D01*
X226088024Y-127434758D01*
X226136687Y-127595177D01*
X226153117Y-127762000D01*
X226136687Y-127928823D01*
X226088024Y-128089242D01*
X226017114Y-128221906D01*
X226009004Y-128237078D01*
X225902659Y-128366659D01*
X225773078Y-128473004D01*
X225773076Y-128473005D01*
X225625242Y-128552024D01*
X225464823Y-128600687D01*
X225339804Y-128613000D01*
X225256196Y-128613000D01*
X225131177Y-128600687D01*
X224970758Y-128552024D01*
X224822924Y-128473005D01*
X224822922Y-128473004D01*
X224693341Y-128366659D01*
X224586996Y-128237078D01*
X224578886Y-128221906D01*
X224507976Y-128089242D01*
X224459313Y-127928823D01*
X224442883Y-127762000D01*
X224459313Y-127595177D01*
X224507976Y-127434758D01*
X224586995Y-127286924D01*
X224586996Y-127286922D01*
X224693341Y-127157341D01*
X224822922Y-127050996D01*
X224838094Y-127042886D01*
X224970758Y-126971976D01*
X225131177Y-126923313D01*
X225256196Y-126911000D01*
X225339804Y-126911000D01*
X225464823Y-126923313D01*
X225464823Y-126923313D01*
G37*
G36*
X220892823Y-126923313D02*
G01*
X221053242Y-126971976D01*
X221185906Y-127042886D01*
X221201078Y-127050996D01*
X221330659Y-127157341D01*
X221437004Y-127286922D01*
X221437005Y-127286924D01*
X221516024Y-127434758D01*
X221564687Y-127595177D01*
X221581117Y-127762000D01*
X221564687Y-127928823D01*
X221516024Y-128089242D01*
X221445114Y-128221906D01*
X221437004Y-128237078D01*
X221330659Y-128366659D01*
X221201078Y-128473004D01*
X221201076Y-128473005D01*
X221053242Y-128552024D01*
X220892823Y-128600687D01*
X220767804Y-128613000D01*
X220684196Y-128613000D01*
X220559177Y-128600687D01*
X220398758Y-128552024D01*
X220250924Y-128473005D01*
X220250922Y-128473004D01*
X220121341Y-128366659D01*
X220014996Y-128237078D01*
X220006886Y-128221906D01*
X219935976Y-128089242D01*
X219887313Y-127928823D01*
X219870883Y-127762000D01*
X219887313Y-127595177D01*
X219935976Y-127434758D01*
X220014995Y-127286924D01*
X220014996Y-127286922D01*
X220121341Y-127157341D01*
X220250922Y-127050996D01*
X220266094Y-127042886D01*
X220398758Y-126971976D01*
X220559177Y-126923313D01*
X220684196Y-126911000D01*
X220767804Y-126911000D01*
X220892823Y-126923313D01*
X220892823Y-126923313D01*
G37*
G36*
X221228228Y-120085703D02*
G01*
X221383100Y-120149853D01*
X221522481Y-120242985D01*
X221641015Y-120361519D01*
X221734147Y-120500900D01*
X221798297Y-120655772D01*
X221831000Y-120820184D01*
X221831000Y-120987816D01*
X221798297Y-121152228D01*
X221734147Y-121307100D01*
X221641015Y-121446481D01*
X221522481Y-121565015D01*
X221383100Y-121658147D01*
X221228228Y-121722297D01*
X221063816Y-121755000D01*
X220896184Y-121755000D01*
X220731772Y-121722297D01*
X220576900Y-121658147D01*
X220437519Y-121565015D01*
X220318985Y-121446481D01*
X220225853Y-121307100D01*
X220161703Y-121152228D01*
X220129000Y-120987816D01*
X220129000Y-120820184D01*
X220161703Y-120655772D01*
X220225853Y-120500900D01*
X220318985Y-120361519D01*
X220437519Y-120242985D01*
X220576900Y-120149853D01*
X220731772Y-120085703D01*
X220896184Y-120053000D01*
X221063816Y-120053000D01*
X221228228Y-120085703D01*
X221228228Y-120085703D01*
G37*
G36*
X225292228Y-120085703D02*
G01*
X225447100Y-120149853D01*
X225586481Y-120242985D01*
X225705015Y-120361519D01*
X225798147Y-120500900D01*
X225862297Y-120655772D01*
X225895000Y-120820184D01*
X225895000Y-120987816D01*
X225862297Y-121152228D01*
X225798147Y-121307100D01*
X225705015Y-121446481D01*
X225586481Y-121565015D01*
X225447100Y-121658147D01*
X225292228Y-121722297D01*
X225127816Y-121755000D01*
X224960184Y-121755000D01*
X224795772Y-121722297D01*
X224640900Y-121658147D01*
X224501519Y-121565015D01*
X224382985Y-121446481D01*
X224289853Y-121307100D01*
X224225703Y-121152228D01*
X224193000Y-120987816D01*
X224193000Y-120820184D01*
X224225703Y-120655772D01*
X224289853Y-120500900D01*
X224382985Y-120361519D01*
X224501519Y-120242985D01*
X224640900Y-120149853D01*
X224795772Y-120085703D01*
X224960184Y-120053000D01*
X225127816Y-120053000D01*
X225292228Y-120085703D01*
X225292228Y-120085703D01*
G37*
G36*
X217647655Y-119054591D02*
G01*
X217719525Y-119068887D01*
X217922624Y-119153013D01*
X218105409Y-119275146D01*
X218260854Y-119430591D01*
X218382987Y-119613376D01*
X218467113Y-119816475D01*
X218510000Y-120032084D01*
X218510000Y-120251916D01*
X218467113Y-120467525D01*
X218382987Y-120670624D01*
X218260854Y-120853409D01*
X218105409Y-121008854D01*
X217922624Y-121130987D01*
X217719525Y-121215113D01*
X217647655Y-121229409D01*
X217503918Y-121258000D01*
X217284082Y-121258000D01*
X217140345Y-121229409D01*
X217068475Y-121215113D01*
X216865376Y-121130987D01*
X216682591Y-121008854D01*
X216527146Y-120853409D01*
X216405013Y-120670624D01*
X216320887Y-120467525D01*
X216278000Y-120251916D01*
X216278000Y-120032084D01*
X216320887Y-119816475D01*
X216405013Y-119613376D01*
X216527146Y-119430591D01*
X216682591Y-119275146D01*
X216865376Y-119153013D01*
X217068475Y-119068887D01*
X217140345Y-119054591D01*
X217284082Y-119026000D01*
X217503918Y-119026000D01*
X217647655Y-119054591D01*
X217647655Y-119054591D01*
G37*
G36*
X228883655Y-119054591D02*
G01*
X228955525Y-119068887D01*
X229158624Y-119153013D01*
X229341409Y-119275146D01*
X229496854Y-119430591D01*
X229618987Y-119613376D01*
X229703113Y-119816475D01*
X229746000Y-120032084D01*
X229746000Y-120251916D01*
X229703113Y-120467525D01*
X229618987Y-120670624D01*
X229496854Y-120853409D01*
X229341409Y-121008854D01*
X229158624Y-121130987D01*
X228955525Y-121215113D01*
X228883655Y-121229409D01*
X228739918Y-121258000D01*
X228520082Y-121258000D01*
X228376345Y-121229409D01*
X228304475Y-121215113D01*
X228101376Y-121130987D01*
X227918591Y-121008854D01*
X227763146Y-120853409D01*
X227641013Y-120670624D01*
X227556887Y-120467525D01*
X227514000Y-120251916D01*
X227514000Y-120032084D01*
X227556887Y-119816475D01*
X227641013Y-119613376D01*
X227763146Y-119430591D01*
X227918591Y-119275146D01*
X228101376Y-119153013D01*
X228304475Y-119068887D01*
X228376345Y-119054591D01*
X228520082Y-119026000D01*
X228739918Y-119026000D01*
X228883655Y-119054591D01*
X228883655Y-119054591D01*
G37*
G36*
X237183655Y-119054591D02*
G01*
X237255525Y-119068887D01*
X237458624Y-119153013D01*
X237641409Y-119275146D01*
X237796854Y-119430591D01*
X237918987Y-119613376D01*
X238003113Y-119816475D01*
X238046000Y-120032084D01*
X238046000Y-120251916D01*
X238003113Y-120467525D01*
X237918987Y-120670624D01*
X237796854Y-120853409D01*
X237641409Y-121008854D01*
X237458624Y-121130987D01*
X237255525Y-121215113D01*
X237183655Y-121229409D01*
X237039918Y-121258000D01*
X236820082Y-121258000D01*
X236676345Y-121229409D01*
X236604475Y-121215113D01*
X236401376Y-121130987D01*
X236218591Y-121008854D01*
X236063146Y-120853409D01*
X235941013Y-120670624D01*
X235856887Y-120467525D01*
X235814000Y-120251916D01*
X235814000Y-120032084D01*
X235856887Y-119816475D01*
X235941013Y-119613376D01*
X236063146Y-119430591D01*
X236218591Y-119275146D01*
X236401376Y-119153013D01*
X236604475Y-119068887D01*
X236676345Y-119054591D01*
X236820082Y-119026000D01*
X237039918Y-119026000D01*
X237183655Y-119054591D01*
X237183655Y-119054591D01*
G37*
G36*
X209347655Y-119054591D02*
G01*
X209419525Y-119068887D01*
X209622624Y-119153013D01*
X209805409Y-119275146D01*
X209960854Y-119430591D01*
X210082987Y-119613376D01*
X210167113Y-119816475D01*
X210210000Y-120032084D01*
X210210000Y-120251916D01*
X210167113Y-120467525D01*
X210082987Y-120670624D01*
X209960854Y-120853409D01*
X209805409Y-121008854D01*
X209622624Y-121130987D01*
X209419525Y-121215113D01*
X209347655Y-121229409D01*
X209203918Y-121258000D01*
X208984082Y-121258000D01*
X208840345Y-121229409D01*
X208768475Y-121215113D01*
X208565376Y-121130987D01*
X208382591Y-121008854D01*
X208227146Y-120853409D01*
X208105013Y-120670624D01*
X208020887Y-120467525D01*
X207978000Y-120251916D01*
X207978000Y-120032084D01*
X208020887Y-119816475D01*
X208105013Y-119613376D01*
X208227146Y-119430591D01*
X208382591Y-119275146D01*
X208565376Y-119153013D01*
X208768475Y-119068887D01*
X208840345Y-119054591D01*
X208984082Y-119026000D01*
X209203918Y-119026000D01*
X209347655Y-119054591D01*
X209347655Y-119054591D01*
G37*
G36*
X206960000Y-121158000D02*
G01*
X205028000Y-121158000D01*
X205028000Y-119126000D01*
X206960000Y-119126000D01*
X206960000Y-121158000D01*
X206960000Y-121158000D01*
G37*
G36*
X240996000Y-121158000D02*
G01*
X239064000Y-121158000D01*
X239064000Y-119126000D01*
X240996000Y-119126000D01*
X240996000Y-121158000D01*
X240996000Y-121158000D01*
G37*
G36*
X225210823Y-114985313D02*
G01*
X225371242Y-115033976D01*
X225503906Y-115104886D01*
X225519078Y-115112996D01*
X225648659Y-115219341D01*
X225755004Y-115348922D01*
X225755005Y-115348924D01*
X225834024Y-115496758D01*
X225882687Y-115657177D01*
X225899117Y-115824000D01*
X225882687Y-115990823D01*
X225834024Y-116151242D01*
X225763114Y-116283906D01*
X225755004Y-116299078D01*
X225648659Y-116428659D01*
X225519078Y-116535004D01*
X225519076Y-116535005D01*
X225371242Y-116614024D01*
X225210823Y-116662687D01*
X225085804Y-116675000D01*
X225002196Y-116675000D01*
X224877177Y-116662687D01*
X224716758Y-116614024D01*
X224568924Y-116535005D01*
X224568922Y-116535004D01*
X224439341Y-116428659D01*
X224332996Y-116299078D01*
X224324886Y-116283906D01*
X224253976Y-116151242D01*
X224205313Y-115990823D01*
X224188883Y-115824000D01*
X224205313Y-115657177D01*
X224253976Y-115496758D01*
X224332995Y-115348924D01*
X224332996Y-115348922D01*
X224439341Y-115219341D01*
X224568922Y-115112996D01*
X224584094Y-115104886D01*
X224716758Y-115033976D01*
X224877177Y-114985313D01*
X225002196Y-114973000D01*
X225085804Y-114973000D01*
X225210823Y-114985313D01*
X225210823Y-114985313D01*
G37*
G36*
X221146823Y-114985313D02*
G01*
X221307242Y-115033976D01*
X221439906Y-115104886D01*
X221455078Y-115112996D01*
X221584659Y-115219341D01*
X221691004Y-115348922D01*
X221691005Y-115348924D01*
X221770024Y-115496758D01*
X221818687Y-115657177D01*
X221835117Y-115824000D01*
X221818687Y-115990823D01*
X221770024Y-116151242D01*
X221699114Y-116283906D01*
X221691004Y-116299078D01*
X221584659Y-116428659D01*
X221455078Y-116535004D01*
X221455076Y-116535005D01*
X221307242Y-116614024D01*
X221146823Y-116662687D01*
X221021804Y-116675000D01*
X220938196Y-116675000D01*
X220813177Y-116662687D01*
X220652758Y-116614024D01*
X220504924Y-116535005D01*
X220504922Y-116535004D01*
X220375341Y-116428659D01*
X220268996Y-116299078D01*
X220260886Y-116283906D01*
X220189976Y-116151242D01*
X220141313Y-115990823D01*
X220124883Y-115824000D01*
X220141313Y-115657177D01*
X220189976Y-115496758D01*
X220268995Y-115348924D01*
X220268996Y-115348922D01*
X220375341Y-115219341D01*
X220504922Y-115112996D01*
X220520094Y-115104886D01*
X220652758Y-115033976D01*
X220813177Y-114985313D01*
X220938196Y-114973000D01*
X221021804Y-114973000D01*
X221146823Y-114985313D01*
X221146823Y-114985313D01*
G37*
G36*
X221609228Y-112211703D02*
G01*
X221764100Y-112275853D01*
X221903481Y-112368985D01*
X222022015Y-112487519D01*
X222115147Y-112626900D01*
X222179297Y-112781772D01*
X222212000Y-112946184D01*
X222212000Y-113113816D01*
X222179297Y-113278228D01*
X222115147Y-113433100D01*
X222022015Y-113572481D01*
X221903481Y-113691015D01*
X221764100Y-113784147D01*
X221609228Y-113848297D01*
X221444816Y-113881000D01*
X221277184Y-113881000D01*
X221112772Y-113848297D01*
X220957900Y-113784147D01*
X220818519Y-113691015D01*
X220699985Y-113572481D01*
X220606853Y-113433100D01*
X220542703Y-113278228D01*
X220510000Y-113113816D01*
X220510000Y-112946184D01*
X220542703Y-112781772D01*
X220606853Y-112626900D01*
X220699985Y-112487519D01*
X220818519Y-112368985D01*
X220957900Y-112275853D01*
X221112772Y-112211703D01*
X221277184Y-112179000D01*
X221444816Y-112179000D01*
X221609228Y-112211703D01*
X221609228Y-112211703D01*
G37*
G36*
X216447823Y-112191313D02*
G01*
X216608242Y-112239976D01*
X216675361Y-112275852D01*
X216756078Y-112318996D01*
X216885659Y-112425341D01*
X216992004Y-112554922D01*
X216992005Y-112554924D01*
X217071024Y-112702758D01*
X217119687Y-112863177D01*
X217136117Y-113030000D01*
X217119687Y-113196823D01*
X217071024Y-113357242D01*
X217030477Y-113433100D01*
X216992004Y-113505078D01*
X216885659Y-113634659D01*
X216756078Y-113741004D01*
X216756076Y-113741005D01*
X216608242Y-113820024D01*
X216447823Y-113868687D01*
X216322804Y-113881000D01*
X216239196Y-113881000D01*
X216114177Y-113868687D01*
X215953758Y-113820024D01*
X215805924Y-113741005D01*
X215805922Y-113741004D01*
X215676341Y-113634659D01*
X215569996Y-113505078D01*
X215531523Y-113433100D01*
X215490976Y-113357242D01*
X215442313Y-113196823D01*
X215425883Y-113030000D01*
X215442313Y-112863177D01*
X215490976Y-112702758D01*
X215569995Y-112554924D01*
X215569996Y-112554922D01*
X215676341Y-112425341D01*
X215805922Y-112318996D01*
X215886639Y-112275852D01*
X215953758Y-112239976D01*
X216114177Y-112191313D01*
X216239196Y-112179000D01*
X216322804Y-112179000D01*
X216447823Y-112191313D01*
X216447823Y-112191313D01*
G37*
G36*
X229483228Y-112211703D02*
G01*
X229638100Y-112275853D01*
X229777481Y-112368985D01*
X229896015Y-112487519D01*
X229989147Y-112626900D01*
X230053297Y-112781772D01*
X230086000Y-112946184D01*
X230086000Y-113113816D01*
X230053297Y-113278228D01*
X229989147Y-113433100D01*
X229896015Y-113572481D01*
X229777481Y-113691015D01*
X229638100Y-113784147D01*
X229483228Y-113848297D01*
X229318816Y-113881000D01*
X229151184Y-113881000D01*
X228986772Y-113848297D01*
X228831900Y-113784147D01*
X228692519Y-113691015D01*
X228573985Y-113572481D01*
X228480853Y-113433100D01*
X228416703Y-113278228D01*
X228384000Y-113113816D01*
X228384000Y-112946184D01*
X228416703Y-112781772D01*
X228480853Y-112626900D01*
X228573985Y-112487519D01*
X228692519Y-112368985D01*
X228831900Y-112275853D01*
X228986772Y-112211703D01*
X229151184Y-112179000D01*
X229318816Y-112179000D01*
X229483228Y-112211703D01*
X229483228Y-112211703D01*
G37*
G36*
X224321823Y-112191313D02*
G01*
X224482242Y-112239976D01*
X224549361Y-112275852D01*
X224630078Y-112318996D01*
X224759659Y-112425341D01*
X224866004Y-112554922D01*
X224866005Y-112554924D01*
X224945024Y-112702758D01*
X224993687Y-112863177D01*
X225010117Y-113030000D01*
X224993687Y-113196823D01*
X224945024Y-113357242D01*
X224904477Y-113433100D01*
X224866004Y-113505078D01*
X224759659Y-113634659D01*
X224630078Y-113741004D01*
X224630076Y-113741005D01*
X224482242Y-113820024D01*
X224321823Y-113868687D01*
X224196804Y-113881000D01*
X224113196Y-113881000D01*
X223988177Y-113868687D01*
X223827758Y-113820024D01*
X223679924Y-113741005D01*
X223679922Y-113741004D01*
X223550341Y-113634659D01*
X223443996Y-113505078D01*
X223405523Y-113433100D01*
X223364976Y-113357242D01*
X223316313Y-113196823D01*
X223299883Y-113030000D01*
X223316313Y-112863177D01*
X223364976Y-112702758D01*
X223443995Y-112554924D01*
X223443996Y-112554922D01*
X223550341Y-112425341D01*
X223679922Y-112318996D01*
X223760639Y-112275852D01*
X223827758Y-112239976D01*
X223988177Y-112191313D01*
X224113196Y-112179000D01*
X224196804Y-112179000D01*
X224321823Y-112191313D01*
X224321823Y-112191313D01*
G37*
G36*
X212723589Y-111379876D02*
G01*
X212822893Y-111399629D01*
X212963206Y-111457748D01*
X213089484Y-111542125D01*
X213196875Y-111649516D01*
X213281252Y-111775794D01*
X213339371Y-111916107D01*
X213339371Y-111916109D01*
X213369000Y-112065062D01*
X213369000Y-112216938D01*
X213364417Y-112239976D01*
X213339371Y-112365893D01*
X213281252Y-112506206D01*
X213196875Y-112632484D01*
X213089484Y-112739875D01*
X212963206Y-112824252D01*
X212822893Y-112882371D01*
X212723589Y-112902124D01*
X212673938Y-112912000D01*
X212522062Y-112912000D01*
X212472411Y-112902124D01*
X212373107Y-112882371D01*
X212232794Y-112824252D01*
X212106516Y-112739875D01*
X211999125Y-112632484D01*
X211914748Y-112506206D01*
X211856629Y-112365893D01*
X211831583Y-112239976D01*
X211827000Y-112216938D01*
X211827000Y-112065062D01*
X211856629Y-111916109D01*
X211856629Y-111916107D01*
X211914748Y-111775794D01*
X211999125Y-111649516D01*
X212106516Y-111542125D01*
X212232794Y-111457748D01*
X212373107Y-111399629D01*
X212472411Y-111379876D01*
X212522062Y-111370000D01*
X212673938Y-111370000D01*
X212723589Y-111379876D01*
X212723589Y-111379876D01*
G37*
G36*
X207643589Y-111379876D02*
G01*
X207742893Y-111399629D01*
X207883206Y-111457748D01*
X208009484Y-111542125D01*
X208116875Y-111649516D01*
X208201252Y-111775794D01*
X208259371Y-111916107D01*
X208259371Y-111916109D01*
X208289000Y-112065062D01*
X208289000Y-112216938D01*
X208284417Y-112239976D01*
X208259371Y-112365893D01*
X208201252Y-112506206D01*
X208116875Y-112632484D01*
X208009484Y-112739875D01*
X207883206Y-112824252D01*
X207742893Y-112882371D01*
X207643589Y-112902124D01*
X207593938Y-112912000D01*
X207442062Y-112912000D01*
X207392411Y-112902124D01*
X207293107Y-112882371D01*
X207152794Y-112824252D01*
X207026516Y-112739875D01*
X206919125Y-112632484D01*
X206834748Y-112506206D01*
X206776629Y-112365893D01*
X206751583Y-112239976D01*
X206747000Y-112216938D01*
X206747000Y-112065062D01*
X206776629Y-111916109D01*
X206776629Y-111916107D01*
X206834748Y-111775794D01*
X206919125Y-111649516D01*
X207026516Y-111542125D01*
X207152794Y-111457748D01*
X207293107Y-111399629D01*
X207392411Y-111379876D01*
X207442062Y-111370000D01*
X207593938Y-111370000D01*
X207643589Y-111379876D01*
X207643589Y-111379876D01*
G37*
G36*
X210183589Y-111379876D02*
G01*
X210282893Y-111399629D01*
X210423206Y-111457748D01*
X210549484Y-111542125D01*
X210656875Y-111649516D01*
X210741252Y-111775794D01*
X210799371Y-111916107D01*
X210799371Y-111916109D01*
X210829000Y-112065062D01*
X210829000Y-112216938D01*
X210824417Y-112239976D01*
X210799371Y-112365893D01*
X210741252Y-112506206D01*
X210656875Y-112632484D01*
X210549484Y-112739875D01*
X210423206Y-112824252D01*
X210282893Y-112882371D01*
X210183589Y-112902124D01*
X210133938Y-112912000D01*
X209982062Y-112912000D01*
X209932411Y-112902124D01*
X209833107Y-112882371D01*
X209692794Y-112824252D01*
X209566516Y-112739875D01*
X209459125Y-112632484D01*
X209374748Y-112506206D01*
X209316629Y-112365893D01*
X209291583Y-112239976D01*
X209287000Y-112216938D01*
X209287000Y-112065062D01*
X209316629Y-111916109D01*
X209316629Y-111916107D01*
X209374748Y-111775794D01*
X209459125Y-111649516D01*
X209566516Y-111542125D01*
X209692794Y-111457748D01*
X209833107Y-111399629D01*
X209932411Y-111379876D01*
X209982062Y-111370000D01*
X210133938Y-111370000D01*
X210183589Y-111379876D01*
X210183589Y-111379876D01*
G37*
G36*
X238758589Y-110998876D02*
G01*
X238857893Y-111018629D01*
X238998206Y-111076748D01*
X239124484Y-111161125D01*
X239231875Y-111268516D01*
X239316252Y-111394794D01*
X239374371Y-111535107D01*
X239404000Y-111684063D01*
X239404000Y-111835937D01*
X239374371Y-111984893D01*
X239316252Y-112125206D01*
X239231875Y-112251484D01*
X239124484Y-112358875D01*
X238998206Y-112443252D01*
X238857893Y-112501371D01*
X238758589Y-112521124D01*
X238708938Y-112531000D01*
X238557062Y-112531000D01*
X238507411Y-112521124D01*
X238408107Y-112501371D01*
X238267794Y-112443252D01*
X238141516Y-112358875D01*
X238034125Y-112251484D01*
X237949748Y-112125206D01*
X237891629Y-111984893D01*
X237862000Y-111835937D01*
X237862000Y-111684063D01*
X237891629Y-111535107D01*
X237949748Y-111394794D01*
X238034125Y-111268516D01*
X238141516Y-111161125D01*
X238267794Y-111076748D01*
X238408107Y-111018629D01*
X238507411Y-110998876D01*
X238557062Y-110989000D01*
X238708938Y-110989000D01*
X238758589Y-110998876D01*
X238758589Y-110998876D01*
G37*
G36*
X233678589Y-110998876D02*
G01*
X233777893Y-111018629D01*
X233918206Y-111076748D01*
X234044484Y-111161125D01*
X234151875Y-111268516D01*
X234236252Y-111394794D01*
X234294371Y-111535107D01*
X234324000Y-111684063D01*
X234324000Y-111835937D01*
X234294371Y-111984893D01*
X234236252Y-112125206D01*
X234151875Y-112251484D01*
X234044484Y-112358875D01*
X233918206Y-112443252D01*
X233777893Y-112501371D01*
X233678589Y-112521124D01*
X233628938Y-112531000D01*
X233477062Y-112531000D01*
X233427411Y-112521124D01*
X233328107Y-112501371D01*
X233187794Y-112443252D01*
X233061516Y-112358875D01*
X232954125Y-112251484D01*
X232869748Y-112125206D01*
X232811629Y-111984893D01*
X232782000Y-111835937D01*
X232782000Y-111684063D01*
X232811629Y-111535107D01*
X232869748Y-111394794D01*
X232954125Y-111268516D01*
X233061516Y-111161125D01*
X233187794Y-111076748D01*
X233328107Y-111018629D01*
X233427411Y-110998876D01*
X233477062Y-110989000D01*
X233628938Y-110989000D01*
X233678589Y-110998876D01*
X233678589Y-110998876D01*
G37*
G36*
X236218589Y-110998876D02*
G01*
X236317893Y-111018629D01*
X236458206Y-111076748D01*
X236584484Y-111161125D01*
X236691875Y-111268516D01*
X236776252Y-111394794D01*
X236834371Y-111535107D01*
X236864000Y-111684063D01*
X236864000Y-111835937D01*
X236834371Y-111984893D01*
X236776252Y-112125206D01*
X236691875Y-112251484D01*
X236584484Y-112358875D01*
X236458206Y-112443252D01*
X236317893Y-112501371D01*
X236218589Y-112521124D01*
X236168938Y-112531000D01*
X236017062Y-112531000D01*
X235967411Y-112521124D01*
X235868107Y-112501371D01*
X235727794Y-112443252D01*
X235601516Y-112358875D01*
X235494125Y-112251484D01*
X235409748Y-112125206D01*
X235351629Y-111984893D01*
X235322000Y-111835937D01*
X235322000Y-111684063D01*
X235351629Y-111535107D01*
X235409748Y-111394794D01*
X235494125Y-111268516D01*
X235601516Y-111161125D01*
X235727794Y-111076748D01*
X235868107Y-111018629D01*
X235967411Y-110998876D01*
X236017062Y-110989000D01*
X236168938Y-110989000D01*
X236218589Y-110998876D01*
X236218589Y-110998876D01*
G37*
G36*
X229483228Y-109036703D02*
G01*
X229638100Y-109100853D01*
X229777481Y-109193985D01*
X229896015Y-109312519D01*
X229989147Y-109451900D01*
X230053297Y-109606772D01*
X230086000Y-109771184D01*
X230086000Y-109938816D01*
X230053297Y-110103228D01*
X229989147Y-110258100D01*
X229896015Y-110397481D01*
X229777481Y-110516015D01*
X229638100Y-110609147D01*
X229483228Y-110673297D01*
X229318816Y-110706000D01*
X229151184Y-110706000D01*
X228986772Y-110673297D01*
X228831900Y-110609147D01*
X228692519Y-110516015D01*
X228573985Y-110397481D01*
X228480853Y-110258100D01*
X228416703Y-110103228D01*
X228384000Y-109938816D01*
X228384000Y-109771184D01*
X228416703Y-109606772D01*
X228480853Y-109451900D01*
X228573985Y-109312519D01*
X228692519Y-109193985D01*
X228831900Y-109100853D01*
X228986772Y-109036703D01*
X229151184Y-109004000D01*
X229318816Y-109004000D01*
X229483228Y-109036703D01*
X229483228Y-109036703D01*
G37*
G36*
X224321823Y-109016313D02*
G01*
X224482242Y-109064976D01*
X224549361Y-109100852D01*
X224630078Y-109143996D01*
X224759659Y-109250341D01*
X224866004Y-109379922D01*
X224866005Y-109379924D01*
X224945024Y-109527758D01*
X224993687Y-109688177D01*
X225010117Y-109855000D01*
X224993687Y-110021823D01*
X224945024Y-110182242D01*
X224904477Y-110258100D01*
X224866004Y-110330078D01*
X224759659Y-110459659D01*
X224630078Y-110566004D01*
X224630076Y-110566005D01*
X224482242Y-110645024D01*
X224321823Y-110693687D01*
X224196804Y-110706000D01*
X224113196Y-110706000D01*
X223988177Y-110693687D01*
X223827758Y-110645024D01*
X223679924Y-110566005D01*
X223679922Y-110566004D01*
X223550341Y-110459659D01*
X223443996Y-110330078D01*
X223405523Y-110258100D01*
X223364976Y-110182242D01*
X223316313Y-110021823D01*
X223299883Y-109855000D01*
X223316313Y-109688177D01*
X223364976Y-109527758D01*
X223443995Y-109379924D01*
X223443996Y-109379922D01*
X223550341Y-109250341D01*
X223679922Y-109143996D01*
X223760639Y-109100852D01*
X223827758Y-109064976D01*
X223988177Y-109016313D01*
X224113196Y-109004000D01*
X224196804Y-109004000D01*
X224321823Y-109016313D01*
X224321823Y-109016313D01*
G37*
G36*
X222035823Y-109016313D02*
G01*
X222196242Y-109064976D01*
X222263361Y-109100852D01*
X222344078Y-109143996D01*
X222473659Y-109250341D01*
X222580004Y-109379922D01*
X222580005Y-109379924D01*
X222659024Y-109527758D01*
X222707687Y-109688177D01*
X222724117Y-109855000D01*
X222707687Y-110021823D01*
X222659024Y-110182242D01*
X222618477Y-110258100D01*
X222580004Y-110330078D01*
X222473659Y-110459659D01*
X222344078Y-110566004D01*
X222344076Y-110566005D01*
X222196242Y-110645024D01*
X222035823Y-110693687D01*
X221910804Y-110706000D01*
X221827196Y-110706000D01*
X221702177Y-110693687D01*
X221541758Y-110645024D01*
X221393924Y-110566005D01*
X221393922Y-110566004D01*
X221264341Y-110459659D01*
X221157996Y-110330078D01*
X221119523Y-110258100D01*
X221078976Y-110182242D01*
X221030313Y-110021823D01*
X221013883Y-109855000D01*
X221030313Y-109688177D01*
X221078976Y-109527758D01*
X221157995Y-109379924D01*
X221157996Y-109379922D01*
X221264341Y-109250341D01*
X221393922Y-109143996D01*
X221474639Y-109100852D01*
X221541758Y-109064976D01*
X221702177Y-109016313D01*
X221827196Y-109004000D01*
X221910804Y-109004000D01*
X222035823Y-109016313D01*
X222035823Y-109016313D01*
G37*
G36*
X217037228Y-109036703D02*
G01*
X217192100Y-109100853D01*
X217331481Y-109193985D01*
X217450015Y-109312519D01*
X217543147Y-109451900D01*
X217607297Y-109606772D01*
X217640000Y-109771184D01*
X217640000Y-109938816D01*
X217607297Y-110103228D01*
X217543147Y-110258100D01*
X217450015Y-110397481D01*
X217331481Y-110516015D01*
X217192100Y-110609147D01*
X217037228Y-110673297D01*
X216872816Y-110706000D01*
X216705184Y-110706000D01*
X216540772Y-110673297D01*
X216385900Y-110609147D01*
X216246519Y-110516015D01*
X216127985Y-110397481D01*
X216034853Y-110258100D01*
X215970703Y-110103228D01*
X215938000Y-109938816D01*
X215938000Y-109771184D01*
X215970703Y-109606772D01*
X216034853Y-109451900D01*
X216127985Y-109312519D01*
X216246519Y-109193985D01*
X216385900Y-109100853D01*
X216540772Y-109036703D01*
X216705184Y-109004000D01*
X216872816Y-109004000D01*
X217037228Y-109036703D01*
X217037228Y-109036703D01*
G37*
G36*
X241167228Y-106877703D02*
G01*
X241322100Y-106941853D01*
X241461481Y-107034985D01*
X241580015Y-107153519D01*
X241673147Y-107292900D01*
X241737297Y-107447772D01*
X241770000Y-107612184D01*
X241770000Y-107779816D01*
X241737297Y-107944228D01*
X241673147Y-108099100D01*
X241580015Y-108238481D01*
X241461481Y-108357015D01*
X241322100Y-108450147D01*
X241167228Y-108514297D01*
X241002816Y-108547000D01*
X240835184Y-108547000D01*
X240670772Y-108514297D01*
X240515900Y-108450147D01*
X240376519Y-108357015D01*
X240257985Y-108238481D01*
X240164853Y-108099100D01*
X240100703Y-107944228D01*
X240068000Y-107779816D01*
X240068000Y-107612184D01*
X240100703Y-107447772D01*
X240164853Y-107292900D01*
X240257985Y-107153519D01*
X240376519Y-107034985D01*
X240515900Y-106941853D01*
X240670772Y-106877703D01*
X240835184Y-106845000D01*
X241002816Y-106845000D01*
X241167228Y-106877703D01*
X241167228Y-106877703D01*
G37*
G36*
X226816228Y-106242703D02*
G01*
X226971100Y-106306853D01*
X227110481Y-106399985D01*
X227229015Y-106518519D01*
X227322147Y-106657900D01*
X227386297Y-106812772D01*
X227419000Y-106977184D01*
X227419000Y-107144816D01*
X227386297Y-107309228D01*
X227322147Y-107464100D01*
X227229015Y-107603481D01*
X227110481Y-107722015D01*
X226971100Y-107815147D01*
X226816228Y-107879297D01*
X226651816Y-107912000D01*
X226484184Y-107912000D01*
X226319772Y-107879297D01*
X226164900Y-107815147D01*
X226025519Y-107722015D01*
X225906985Y-107603481D01*
X225813853Y-107464100D01*
X225749703Y-107309228D01*
X225717000Y-107144816D01*
X225717000Y-106977184D01*
X225749703Y-106812772D01*
X225813853Y-106657900D01*
X225906985Y-106518519D01*
X226025519Y-106399985D01*
X226164900Y-106306853D01*
X226319772Y-106242703D01*
X226484184Y-106210000D01*
X226651816Y-106210000D01*
X226816228Y-106242703D01*
X226816228Y-106242703D01*
G37*
G36*
X223641228Y-106242703D02*
G01*
X223796100Y-106306853D01*
X223935481Y-106399985D01*
X224054015Y-106518519D01*
X224147147Y-106657900D01*
X224211297Y-106812772D01*
X224244000Y-106977184D01*
X224244000Y-107144816D01*
X224211297Y-107309228D01*
X224147147Y-107464100D01*
X224054015Y-107603481D01*
X223935481Y-107722015D01*
X223796100Y-107815147D01*
X223641228Y-107879297D01*
X223476816Y-107912000D01*
X223309184Y-107912000D01*
X223144772Y-107879297D01*
X222989900Y-107815147D01*
X222850519Y-107722015D01*
X222731985Y-107603481D01*
X222638853Y-107464100D01*
X222574703Y-107309228D01*
X222542000Y-107144816D01*
X222542000Y-106977184D01*
X222574703Y-106812772D01*
X222638853Y-106657900D01*
X222731985Y-106518519D01*
X222850519Y-106399985D01*
X222989900Y-106306853D01*
X223144772Y-106242703D01*
X223309184Y-106210000D01*
X223476816Y-106210000D01*
X223641228Y-106242703D01*
X223641228Y-106242703D01*
G37*
G36*
X206242228Y-105988703D02*
G01*
X206397100Y-106052853D01*
X206536481Y-106145985D01*
X206655015Y-106264519D01*
X206748147Y-106403900D01*
X206812297Y-106558772D01*
X206845000Y-106723184D01*
X206845000Y-106890816D01*
X206812297Y-107055228D01*
X206748147Y-107210100D01*
X206655015Y-107349481D01*
X206536481Y-107468015D01*
X206397100Y-107561147D01*
X206242228Y-107625297D01*
X206077816Y-107658000D01*
X205910184Y-107658000D01*
X205745772Y-107625297D01*
X205590900Y-107561147D01*
X205451519Y-107468015D01*
X205332985Y-107349481D01*
X205239853Y-107210100D01*
X205175703Y-107055228D01*
X205143000Y-106890816D01*
X205143000Y-106723184D01*
X205175703Y-106558772D01*
X205239853Y-106403900D01*
X205332985Y-106264519D01*
X205451519Y-106145985D01*
X205590900Y-106052853D01*
X205745772Y-105988703D01*
X205910184Y-105956000D01*
X206077816Y-105956000D01*
X206242228Y-105988703D01*
X206242228Y-105988703D01*
G37*
G36*
X209417228Y-105988703D02*
G01*
X209572100Y-106052853D01*
X209711481Y-106145985D01*
X209830015Y-106264519D01*
X209923147Y-106403900D01*
X209987297Y-106558772D01*
X210020000Y-106723184D01*
X210020000Y-106890816D01*
X209987297Y-107055228D01*
X209923147Y-107210100D01*
X209830015Y-107349481D01*
X209711481Y-107468015D01*
X209572100Y-107561147D01*
X209417228Y-107625297D01*
X209252816Y-107658000D01*
X209085184Y-107658000D01*
X208920772Y-107625297D01*
X208765900Y-107561147D01*
X208626519Y-107468015D01*
X208507985Y-107349481D01*
X208414853Y-107210100D01*
X208350703Y-107055228D01*
X208318000Y-106890816D01*
X208318000Y-106723184D01*
X208350703Y-106558772D01*
X208414853Y-106403900D01*
X208507985Y-106264519D01*
X208626519Y-106145985D01*
X208765900Y-106052853D01*
X208920772Y-105988703D01*
X209085184Y-105956000D01*
X209252816Y-105956000D01*
X209417228Y-105988703D01*
X209417228Y-105988703D01*
G37*
G36*
X237656823Y-105714313D02*
G01*
X237817242Y-105762976D01*
X237926435Y-105821341D01*
X237965078Y-105841996D01*
X238094659Y-105948341D01*
X238201004Y-106077922D01*
X238201005Y-106077924D01*
X238280024Y-106225758D01*
X238328687Y-106386177D01*
X238345117Y-106553000D01*
X238328687Y-106719823D01*
X238280024Y-106880242D01*
X238247092Y-106941853D01*
X238201004Y-107028078D01*
X238094659Y-107157659D01*
X237965078Y-107264004D01*
X237965076Y-107264005D01*
X237817242Y-107343024D01*
X237656823Y-107391687D01*
X237531804Y-107404000D01*
X237448196Y-107404000D01*
X237323177Y-107391687D01*
X237162758Y-107343024D01*
X237014924Y-107264005D01*
X237014922Y-107264004D01*
X236885341Y-107157659D01*
X236778996Y-107028078D01*
X236732908Y-106941853D01*
X236699976Y-106880242D01*
X236651313Y-106719823D01*
X236634883Y-106553000D01*
X236651313Y-106386177D01*
X236699976Y-106225758D01*
X236778995Y-106077924D01*
X236778996Y-106077922D01*
X236885341Y-105948341D01*
X237014922Y-105841996D01*
X237053565Y-105821341D01*
X237162758Y-105762976D01*
X237323177Y-105714313D01*
X237448196Y-105702000D01*
X237531804Y-105702000D01*
X237656823Y-105714313D01*
X237656823Y-105714313D01*
G37*
G36*
X230036823Y-105714313D02*
G01*
X230197242Y-105762976D01*
X230306435Y-105821341D01*
X230345078Y-105841996D01*
X230474659Y-105948341D01*
X230581004Y-106077922D01*
X230581005Y-106077924D01*
X230660024Y-106225758D01*
X230708687Y-106386177D01*
X230725117Y-106553000D01*
X230708687Y-106719823D01*
X230660024Y-106880242D01*
X230627092Y-106941853D01*
X230581004Y-107028078D01*
X230474659Y-107157659D01*
X230345078Y-107264004D01*
X230345076Y-107264005D01*
X230197242Y-107343024D01*
X230036823Y-107391687D01*
X229911804Y-107404000D01*
X229828196Y-107404000D01*
X229703177Y-107391687D01*
X229542758Y-107343024D01*
X229394924Y-107264005D01*
X229394922Y-107264004D01*
X229265341Y-107157659D01*
X229158996Y-107028078D01*
X229112908Y-106941853D01*
X229079976Y-106880242D01*
X229031313Y-106719823D01*
X229014883Y-106553000D01*
X229031313Y-106386177D01*
X229079976Y-106225758D01*
X229158995Y-106077924D01*
X229158996Y-106077922D01*
X229265341Y-105948341D01*
X229394922Y-105841996D01*
X229433565Y-105821341D01*
X229542758Y-105762976D01*
X229703177Y-105714313D01*
X229828196Y-105702000D01*
X229911804Y-105702000D01*
X230036823Y-105714313D01*
X230036823Y-105714313D01*
G37*
G36*
X220815000Y-107277000D02*
G01*
X219113000Y-107277000D01*
X219113000Y-105575000D01*
X220815000Y-105575000D01*
X220815000Y-107277000D01*
X220815000Y-107277000D01*
G37*
G36*
X212510823Y-105587313D02*
G01*
X212671242Y-105635976D01*
X212794764Y-105702000D01*
X212819078Y-105714996D01*
X212948659Y-105821341D01*
X213055004Y-105950922D01*
X213055005Y-105950924D01*
X213134024Y-106098758D01*
X213182687Y-106259177D01*
X213199117Y-106426000D01*
X213182687Y-106592823D01*
X213134024Y-106753242D01*
X213084978Y-106845000D01*
X213055004Y-106901078D01*
X212948659Y-107030659D01*
X212819078Y-107137004D01*
X212819076Y-107137005D01*
X212671242Y-107216024D01*
X212510823Y-107264687D01*
X212385804Y-107277000D01*
X212302196Y-107277000D01*
X212177177Y-107264687D01*
X212016758Y-107216024D01*
X211868924Y-107137005D01*
X211868922Y-107137004D01*
X211739341Y-107030659D01*
X211632996Y-106901078D01*
X211603022Y-106845000D01*
X211553976Y-106753242D01*
X211505313Y-106592823D01*
X211488883Y-106426000D01*
X211505313Y-106259177D01*
X211553976Y-106098758D01*
X211632995Y-105950924D01*
X211632996Y-105950922D01*
X211739341Y-105821341D01*
X211868922Y-105714996D01*
X211893236Y-105702000D01*
X212016758Y-105635976D01*
X212177177Y-105587313D01*
X212302196Y-105575000D01*
X212385804Y-105575000D01*
X212510823Y-105587313D01*
X212510823Y-105587313D01*
G37*
G36*
X237656823Y-103174313D02*
G01*
X237817242Y-103222976D01*
X237926435Y-103281341D01*
X237965078Y-103301996D01*
X238094659Y-103408341D01*
X238201004Y-103537922D01*
X238201005Y-103537924D01*
X238280024Y-103685758D01*
X238328687Y-103846177D01*
X238345117Y-104013000D01*
X238328687Y-104179823D01*
X238280024Y-104340242D01*
X238209114Y-104472906D01*
X238201004Y-104488078D01*
X238094659Y-104617659D01*
X237965078Y-104724004D01*
X237965076Y-104724005D01*
X237817242Y-104803024D01*
X237656823Y-104851687D01*
X237531804Y-104864000D01*
X237448196Y-104864000D01*
X237323177Y-104851687D01*
X237162758Y-104803024D01*
X237014924Y-104724005D01*
X237014922Y-104724004D01*
X236885341Y-104617659D01*
X236778996Y-104488078D01*
X236770886Y-104472906D01*
X236699976Y-104340242D01*
X236651313Y-104179823D01*
X236634883Y-104013000D01*
X236651313Y-103846177D01*
X236699976Y-103685758D01*
X236778995Y-103537924D01*
X236778996Y-103537922D01*
X236885341Y-103408341D01*
X237014922Y-103301996D01*
X237053565Y-103281341D01*
X237162758Y-103222976D01*
X237323177Y-103174313D01*
X237448196Y-103162000D01*
X237531804Y-103162000D01*
X237656823Y-103174313D01*
X237656823Y-103174313D01*
G37*
G36*
X230036823Y-103174313D02*
G01*
X230197242Y-103222976D01*
X230306435Y-103281341D01*
X230345078Y-103301996D01*
X230474659Y-103408341D01*
X230581004Y-103537922D01*
X230581005Y-103537924D01*
X230660024Y-103685758D01*
X230708687Y-103846177D01*
X230725117Y-104013000D01*
X230708687Y-104179823D01*
X230660024Y-104340242D01*
X230589114Y-104472906D01*
X230581004Y-104488078D01*
X230474659Y-104617659D01*
X230345078Y-104724004D01*
X230345076Y-104724005D01*
X230197242Y-104803024D01*
X230036823Y-104851687D01*
X229911804Y-104864000D01*
X229828196Y-104864000D01*
X229703177Y-104851687D01*
X229542758Y-104803024D01*
X229394924Y-104724005D01*
X229394922Y-104724004D01*
X229265341Y-104617659D01*
X229158996Y-104488078D01*
X229150886Y-104472906D01*
X229079976Y-104340242D01*
X229031313Y-104179823D01*
X229014883Y-104013000D01*
X229031313Y-103846177D01*
X229079976Y-103685758D01*
X229158995Y-103537924D01*
X229158996Y-103537922D01*
X229265341Y-103408341D01*
X229394922Y-103301996D01*
X229433565Y-103281341D01*
X229542758Y-103222976D01*
X229703177Y-103174313D01*
X229828196Y-103162000D01*
X229911804Y-103162000D01*
X230036823Y-103174313D01*
X230036823Y-103174313D01*
G37*
G36*
X220130823Y-103047313D02*
G01*
X220291242Y-103095976D01*
X220414764Y-103162000D01*
X220439078Y-103174996D01*
X220568659Y-103281341D01*
X220675004Y-103410922D01*
X220675005Y-103410924D01*
X220754024Y-103558758D01*
X220802687Y-103719177D01*
X220819117Y-103886000D01*
X220802687Y-104052823D01*
X220754024Y-104213242D01*
X220686143Y-104340239D01*
X220675004Y-104361078D01*
X220568659Y-104490659D01*
X220439078Y-104597004D01*
X220439076Y-104597005D01*
X220291242Y-104676024D01*
X220130823Y-104724687D01*
X220005804Y-104737000D01*
X219922196Y-104737000D01*
X219797177Y-104724687D01*
X219636758Y-104676024D01*
X219488924Y-104597005D01*
X219488922Y-104597004D01*
X219359341Y-104490659D01*
X219252996Y-104361078D01*
X219241857Y-104340239D01*
X219173976Y-104213242D01*
X219125313Y-104052823D01*
X219108883Y-103886000D01*
X219125313Y-103719177D01*
X219173976Y-103558758D01*
X219252995Y-103410924D01*
X219252996Y-103410922D01*
X219359341Y-103281341D01*
X219488922Y-103174996D01*
X219513236Y-103162000D01*
X219636758Y-103095976D01*
X219797177Y-103047313D01*
X219922196Y-103035000D01*
X220005804Y-103035000D01*
X220130823Y-103047313D01*
X220130823Y-103047313D01*
G37*
G36*
X212510823Y-103047313D02*
G01*
X212671242Y-103095976D01*
X212794764Y-103162000D01*
X212819078Y-103174996D01*
X212948659Y-103281341D01*
X213055004Y-103410922D01*
X213055005Y-103410924D01*
X213134024Y-103558758D01*
X213182687Y-103719177D01*
X213199117Y-103886000D01*
X213182687Y-104052823D01*
X213134024Y-104213242D01*
X213066143Y-104340239D01*
X213055004Y-104361078D01*
X212948659Y-104490659D01*
X212819078Y-104597004D01*
X212819076Y-104597005D01*
X212671242Y-104676024D01*
X212510823Y-104724687D01*
X212385804Y-104737000D01*
X212302196Y-104737000D01*
X212177177Y-104724687D01*
X212016758Y-104676024D01*
X211868924Y-104597005D01*
X211868922Y-104597004D01*
X211739341Y-104490659D01*
X211632996Y-104361078D01*
X211621857Y-104340239D01*
X211553976Y-104213242D01*
X211505313Y-104052823D01*
X211488883Y-103886000D01*
X211505313Y-103719177D01*
X211553976Y-103558758D01*
X211632995Y-103410924D01*
X211632996Y-103410922D01*
X211739341Y-103281341D01*
X211868922Y-103174996D01*
X211893236Y-103162000D01*
X212016758Y-103095976D01*
X212177177Y-103047313D01*
X212302196Y-103035000D01*
X212385804Y-103035000D01*
X212510823Y-103047313D01*
X212510823Y-103047313D01*
G37*
G36*
X241167228Y-101877703D02*
G01*
X241322100Y-101941853D01*
X241461481Y-102034985D01*
X241580015Y-102153519D01*
X241673147Y-102292900D01*
X241737297Y-102447772D01*
X241770000Y-102612184D01*
X241770000Y-102779816D01*
X241737297Y-102944228D01*
X241673147Y-103099100D01*
X241580015Y-103238481D01*
X241461481Y-103357015D01*
X241322100Y-103450147D01*
X241167228Y-103514297D01*
X241002816Y-103547000D01*
X240835184Y-103547000D01*
X240670772Y-103514297D01*
X240515900Y-103450147D01*
X240376519Y-103357015D01*
X240257985Y-103238481D01*
X240164853Y-103099100D01*
X240100703Y-102944228D01*
X240068000Y-102779816D01*
X240068000Y-102612184D01*
X240100703Y-102447772D01*
X240164853Y-102292900D01*
X240257985Y-102153519D01*
X240376519Y-102034985D01*
X240515900Y-101941853D01*
X240670772Y-101877703D01*
X240835184Y-101845000D01*
X241002816Y-101845000D01*
X241167228Y-101877703D01*
X241167228Y-101877703D01*
G37*
G36*
X226816228Y-101242703D02*
G01*
X226971100Y-101306853D01*
X227110481Y-101399985D01*
X227229015Y-101518519D01*
X227322147Y-101657900D01*
X227386297Y-101812772D01*
X227419000Y-101977184D01*
X227419000Y-102144816D01*
X227386297Y-102309228D01*
X227322147Y-102464100D01*
X227229015Y-102603481D01*
X227110481Y-102722015D01*
X226971100Y-102815147D01*
X226816228Y-102879297D01*
X226651816Y-102912000D01*
X226484184Y-102912000D01*
X226319772Y-102879297D01*
X226164900Y-102815147D01*
X226025519Y-102722015D01*
X225906985Y-102603481D01*
X225813853Y-102464100D01*
X225749703Y-102309228D01*
X225717000Y-102144816D01*
X225717000Y-101977184D01*
X225749703Y-101812772D01*
X225813853Y-101657900D01*
X225906985Y-101518519D01*
X226025519Y-101399985D01*
X226164900Y-101306853D01*
X226319772Y-101242703D01*
X226484184Y-101210000D01*
X226651816Y-101210000D01*
X226816228Y-101242703D01*
X226816228Y-101242703D01*
G37*
G36*
X223641228Y-101242703D02*
G01*
X223796100Y-101306853D01*
X223935481Y-101399985D01*
X224054015Y-101518519D01*
X224147147Y-101657900D01*
X224211297Y-101812772D01*
X224244000Y-101977184D01*
X224244000Y-102144816D01*
X224211297Y-102309228D01*
X224147147Y-102464100D01*
X224054015Y-102603481D01*
X223935481Y-102722015D01*
X223796100Y-102815147D01*
X223641228Y-102879297D01*
X223476816Y-102912000D01*
X223309184Y-102912000D01*
X223144772Y-102879297D01*
X222989900Y-102815147D01*
X222850519Y-102722015D01*
X222731985Y-102603481D01*
X222638853Y-102464100D01*
X222574703Y-102309228D01*
X222542000Y-102144816D01*
X222542000Y-101977184D01*
X222574703Y-101812772D01*
X222638853Y-101657900D01*
X222731985Y-101518519D01*
X222850519Y-101399985D01*
X222989900Y-101306853D01*
X223144772Y-101242703D01*
X223309184Y-101210000D01*
X223476816Y-101210000D01*
X223641228Y-101242703D01*
X223641228Y-101242703D01*
G37*
G36*
X209335823Y-100888313D02*
G01*
X209496242Y-100936976D01*
X209628906Y-101007886D01*
X209644078Y-101015996D01*
X209773659Y-101122341D01*
X209880004Y-101251922D01*
X209880005Y-101251924D01*
X209959024Y-101399758D01*
X210007687Y-101560177D01*
X210024117Y-101727000D01*
X210007687Y-101893823D01*
X209959024Y-102054242D01*
X209910611Y-102144816D01*
X209880004Y-102202078D01*
X209773659Y-102331659D01*
X209644078Y-102438004D01*
X209644076Y-102438005D01*
X209496242Y-102517024D01*
X209335823Y-102565687D01*
X209210804Y-102578000D01*
X209127196Y-102578000D01*
X209002177Y-102565687D01*
X208841758Y-102517024D01*
X208693924Y-102438005D01*
X208693922Y-102438004D01*
X208564341Y-102331659D01*
X208457996Y-102202078D01*
X208427389Y-102144816D01*
X208378976Y-102054242D01*
X208330313Y-101893823D01*
X208313883Y-101727000D01*
X208330313Y-101560177D01*
X208378976Y-101399758D01*
X208457995Y-101251924D01*
X208457996Y-101251922D01*
X208564341Y-101122341D01*
X208693922Y-101015996D01*
X208709094Y-101007886D01*
X208841758Y-100936976D01*
X209002177Y-100888313D01*
X209127196Y-100876000D01*
X209210804Y-100876000D01*
X209335823Y-100888313D01*
X209335823Y-100888313D01*
G37*
G36*
X206160823Y-100888313D02*
G01*
X206321242Y-100936976D01*
X206453906Y-101007886D01*
X206469078Y-101015996D01*
X206598659Y-101122341D01*
X206705004Y-101251922D01*
X206705005Y-101251924D01*
X206784024Y-101399758D01*
X206832687Y-101560177D01*
X206849117Y-101727000D01*
X206832687Y-101893823D01*
X206784024Y-102054242D01*
X206735611Y-102144816D01*
X206705004Y-102202078D01*
X206598659Y-102331659D01*
X206469078Y-102438004D01*
X206469076Y-102438005D01*
X206321242Y-102517024D01*
X206160823Y-102565687D01*
X206035804Y-102578000D01*
X205952196Y-102578000D01*
X205827177Y-102565687D01*
X205666758Y-102517024D01*
X205518924Y-102438005D01*
X205518922Y-102438004D01*
X205389341Y-102331659D01*
X205282996Y-102202078D01*
X205252389Y-102144816D01*
X205203976Y-102054242D01*
X205155313Y-101893823D01*
X205138883Y-101727000D01*
X205155313Y-101560177D01*
X205203976Y-101399758D01*
X205282995Y-101251924D01*
X205282996Y-101251922D01*
X205389341Y-101122341D01*
X205518922Y-101015996D01*
X205534094Y-101007886D01*
X205666758Y-100936976D01*
X205827177Y-100888313D01*
X205952196Y-100876000D01*
X206035804Y-100876000D01*
X206160823Y-100888313D01*
X206160823Y-100888313D01*
G37*
G36*
X237656823Y-100634313D02*
G01*
X237817242Y-100682976D01*
X237926435Y-100741341D01*
X237965078Y-100761996D01*
X238094659Y-100868341D01*
X238201004Y-100997922D01*
X238201005Y-100997924D01*
X238280024Y-101145758D01*
X238328687Y-101306177D01*
X238345117Y-101473000D01*
X238328687Y-101639823D01*
X238280024Y-101800242D01*
X238256100Y-101845000D01*
X238201004Y-101948078D01*
X238094659Y-102077659D01*
X237965078Y-102184004D01*
X237965076Y-102184005D01*
X237817242Y-102263024D01*
X237656823Y-102311687D01*
X237531804Y-102324000D01*
X237448196Y-102324000D01*
X237323177Y-102311687D01*
X237162758Y-102263024D01*
X237014924Y-102184005D01*
X237014922Y-102184004D01*
X236885341Y-102077659D01*
X236778996Y-101948078D01*
X236723900Y-101845000D01*
X236699976Y-101800242D01*
X236651313Y-101639823D01*
X236634883Y-101473000D01*
X236651313Y-101306177D01*
X236699976Y-101145758D01*
X236778995Y-100997924D01*
X236778996Y-100997922D01*
X236885341Y-100868341D01*
X237014922Y-100761996D01*
X237053565Y-100741341D01*
X237162758Y-100682976D01*
X237323177Y-100634313D01*
X237448196Y-100622000D01*
X237531804Y-100622000D01*
X237656823Y-100634313D01*
X237656823Y-100634313D01*
G37*
G36*
X230036823Y-100634313D02*
G01*
X230197242Y-100682976D01*
X230306435Y-100741341D01*
X230345078Y-100761996D01*
X230474659Y-100868341D01*
X230581004Y-100997922D01*
X230581005Y-100997924D01*
X230660024Y-101145758D01*
X230708687Y-101306177D01*
X230725117Y-101473000D01*
X230708687Y-101639823D01*
X230660024Y-101800242D01*
X230636100Y-101845000D01*
X230581004Y-101948078D01*
X230474659Y-102077659D01*
X230345078Y-102184004D01*
X230345076Y-102184005D01*
X230197242Y-102263024D01*
X230036823Y-102311687D01*
X229911804Y-102324000D01*
X229828196Y-102324000D01*
X229703177Y-102311687D01*
X229542758Y-102263024D01*
X229394924Y-102184005D01*
X229394922Y-102184004D01*
X229265341Y-102077659D01*
X229158996Y-101948078D01*
X229103900Y-101845000D01*
X229079976Y-101800242D01*
X229031313Y-101639823D01*
X229014883Y-101473000D01*
X229031313Y-101306177D01*
X229079976Y-101145758D01*
X229158995Y-100997924D01*
X229158996Y-100997922D01*
X229265341Y-100868341D01*
X229394922Y-100761996D01*
X229433565Y-100741341D01*
X229542758Y-100682976D01*
X229703177Y-100634313D01*
X229828196Y-100622000D01*
X229911804Y-100622000D01*
X230036823Y-100634313D01*
X230036823Y-100634313D01*
G37*
G36*
X220130823Y-100507313D02*
G01*
X220291242Y-100555976D01*
X220414764Y-100622000D01*
X220439078Y-100634996D01*
X220568659Y-100741341D01*
X220675004Y-100870922D01*
X220675005Y-100870924D01*
X220754024Y-101018758D01*
X220802687Y-101179177D01*
X220819117Y-101346000D01*
X220802687Y-101512823D01*
X220754024Y-101673242D01*
X220686143Y-101800239D01*
X220675004Y-101821078D01*
X220568659Y-101950659D01*
X220439078Y-102057004D01*
X220439076Y-102057005D01*
X220291242Y-102136024D01*
X220130823Y-102184687D01*
X220005804Y-102197000D01*
X219922196Y-102197000D01*
X219797177Y-102184687D01*
X219636758Y-102136024D01*
X219488924Y-102057005D01*
X219488922Y-102057004D01*
X219359341Y-101950659D01*
X219252996Y-101821078D01*
X219241857Y-101800239D01*
X219173976Y-101673242D01*
X219125313Y-101512823D01*
X219108883Y-101346000D01*
X219125313Y-101179177D01*
X219173976Y-101018758D01*
X219252995Y-100870924D01*
X219252996Y-100870922D01*
X219359341Y-100741341D01*
X219488922Y-100634996D01*
X219513236Y-100622000D01*
X219636758Y-100555976D01*
X219797177Y-100507313D01*
X219922196Y-100495000D01*
X220005804Y-100495000D01*
X220130823Y-100507313D01*
X220130823Y-100507313D01*
G37*
G36*
X212510823Y-100507313D02*
G01*
X212671242Y-100555976D01*
X212794764Y-100622000D01*
X212819078Y-100634996D01*
X212948659Y-100741341D01*
X213055004Y-100870922D01*
X213055005Y-100870924D01*
X213134024Y-101018758D01*
X213182687Y-101179177D01*
X213199117Y-101346000D01*
X213182687Y-101512823D01*
X213134024Y-101673242D01*
X213066143Y-101800239D01*
X213055004Y-101821078D01*
X212948659Y-101950659D01*
X212819078Y-102057004D01*
X212819076Y-102057005D01*
X212671242Y-102136024D01*
X212510823Y-102184687D01*
X212385804Y-102197000D01*
X212302196Y-102197000D01*
X212177177Y-102184687D01*
X212016758Y-102136024D01*
X211868924Y-102057005D01*
X211868922Y-102057004D01*
X211739341Y-101950659D01*
X211632996Y-101821078D01*
X211621857Y-101800239D01*
X211553976Y-101673242D01*
X211505313Y-101512823D01*
X211488883Y-101346000D01*
X211505313Y-101179177D01*
X211553976Y-101018758D01*
X211632995Y-100870924D01*
X211632996Y-100870922D01*
X211739341Y-100741341D01*
X211868922Y-100634996D01*
X211893236Y-100622000D01*
X212016758Y-100555976D01*
X212177177Y-100507313D01*
X212302196Y-100495000D01*
X212385804Y-100495000D01*
X212510823Y-100507313D01*
X212510823Y-100507313D01*
G37*
G36*
X241167228Y-99130703D02*
G01*
X241322100Y-99194853D01*
X241461481Y-99287985D01*
X241580015Y-99406519D01*
X241673147Y-99545900D01*
X241737297Y-99700772D01*
X241770000Y-99865184D01*
X241770000Y-100032816D01*
X241737297Y-100197228D01*
X241673147Y-100352100D01*
X241580015Y-100491481D01*
X241461481Y-100610015D01*
X241322100Y-100703147D01*
X241167228Y-100767297D01*
X241002816Y-100800000D01*
X240835184Y-100800000D01*
X240670772Y-100767297D01*
X240515900Y-100703147D01*
X240376519Y-100610015D01*
X240257985Y-100491481D01*
X240164853Y-100352100D01*
X240100703Y-100197228D01*
X240068000Y-100032816D01*
X240068000Y-99865184D01*
X240100703Y-99700772D01*
X240164853Y-99545900D01*
X240257985Y-99406519D01*
X240376519Y-99287985D01*
X240515900Y-99194853D01*
X240670772Y-99130703D01*
X240835184Y-99098000D01*
X241002816Y-99098000D01*
X241167228Y-99130703D01*
X241167228Y-99130703D01*
G37*
G36*
X226816228Y-98368703D02*
G01*
X226971100Y-98432853D01*
X227110481Y-98525985D01*
X227229015Y-98644519D01*
X227322147Y-98783900D01*
X227386297Y-98938772D01*
X227419000Y-99103184D01*
X227419000Y-99270816D01*
X227386297Y-99435228D01*
X227322147Y-99590100D01*
X227229015Y-99729481D01*
X227110481Y-99848015D01*
X226971100Y-99941147D01*
X226816228Y-100005297D01*
X226651816Y-100038000D01*
X226484184Y-100038000D01*
X226319772Y-100005297D01*
X226164900Y-99941147D01*
X226025519Y-99848015D01*
X225906985Y-99729481D01*
X225813853Y-99590100D01*
X225749703Y-99435228D01*
X225717000Y-99270816D01*
X225717000Y-99103184D01*
X225749703Y-98938772D01*
X225813853Y-98783900D01*
X225906985Y-98644519D01*
X226025519Y-98525985D01*
X226164900Y-98432853D01*
X226319772Y-98368703D01*
X226484184Y-98336000D01*
X226651816Y-98336000D01*
X226816228Y-98368703D01*
X226816228Y-98368703D01*
G37*
G36*
X209845228Y-98241703D02*
G01*
X210000100Y-98305853D01*
X210139481Y-98398985D01*
X210258015Y-98517519D01*
X210351147Y-98656900D01*
X210415297Y-98811772D01*
X210448000Y-98976184D01*
X210448000Y-99143816D01*
X210415297Y-99308228D01*
X210351147Y-99463100D01*
X210258015Y-99602481D01*
X210139481Y-99721015D01*
X210000100Y-99814147D01*
X209845228Y-99878297D01*
X209680816Y-99911000D01*
X209513184Y-99911000D01*
X209348772Y-99878297D01*
X209193900Y-99814147D01*
X209054519Y-99721015D01*
X208935985Y-99602481D01*
X208842853Y-99463100D01*
X208778703Y-99308228D01*
X208746000Y-99143816D01*
X208746000Y-98976184D01*
X208778703Y-98811772D01*
X208842853Y-98656900D01*
X208935985Y-98517519D01*
X209054519Y-98398985D01*
X209193900Y-98305853D01*
X209348772Y-98241703D01*
X209513184Y-98209000D01*
X209680816Y-98209000D01*
X209845228Y-98241703D01*
X209845228Y-98241703D01*
G37*
G36*
X204845228Y-98241703D02*
G01*
X205000100Y-98305853D01*
X205139481Y-98398985D01*
X205258015Y-98517519D01*
X205351147Y-98656900D01*
X205415297Y-98811772D01*
X205448000Y-98976184D01*
X205448000Y-99143816D01*
X205415297Y-99308228D01*
X205351147Y-99463100D01*
X205258015Y-99602481D01*
X205139481Y-99721015D01*
X205000100Y-99814147D01*
X204845228Y-99878297D01*
X204680816Y-99911000D01*
X204513184Y-99911000D01*
X204348772Y-99878297D01*
X204193900Y-99814147D01*
X204054519Y-99721015D01*
X203935985Y-99602481D01*
X203842853Y-99463100D01*
X203778703Y-99308228D01*
X203746000Y-99143816D01*
X203746000Y-98976184D01*
X203778703Y-98811772D01*
X203842853Y-98656900D01*
X203935985Y-98517519D01*
X204054519Y-98398985D01*
X204193900Y-98305853D01*
X204348772Y-98241703D01*
X204513184Y-98209000D01*
X204680816Y-98209000D01*
X204845228Y-98241703D01*
X204845228Y-98241703D01*
G37*
G36*
X230036823Y-98094313D02*
G01*
X230197242Y-98142976D01*
X230306435Y-98201341D01*
X230345078Y-98221996D01*
X230474659Y-98328341D01*
X230581004Y-98457922D01*
X230581005Y-98457924D01*
X230660024Y-98605758D01*
X230708687Y-98766177D01*
X230725117Y-98933000D01*
X230708687Y-99099823D01*
X230660024Y-99260242D01*
X230645195Y-99287985D01*
X230581004Y-99408078D01*
X230474659Y-99537659D01*
X230345078Y-99644004D01*
X230345076Y-99644005D01*
X230197242Y-99723024D01*
X230036823Y-99771687D01*
X229911804Y-99784000D01*
X229828196Y-99784000D01*
X229703177Y-99771687D01*
X229542758Y-99723024D01*
X229394924Y-99644005D01*
X229394922Y-99644004D01*
X229265341Y-99537659D01*
X229158996Y-99408078D01*
X229094805Y-99287985D01*
X229079976Y-99260242D01*
X229031313Y-99099823D01*
X229014883Y-98933000D01*
X229031313Y-98766177D01*
X229079976Y-98605758D01*
X229158995Y-98457924D01*
X229158996Y-98457922D01*
X229265341Y-98328341D01*
X229394922Y-98221996D01*
X229433565Y-98201341D01*
X229542758Y-98142976D01*
X229703177Y-98094313D01*
X229828196Y-98082000D01*
X229911804Y-98082000D01*
X230036823Y-98094313D01*
X230036823Y-98094313D01*
G37*
G36*
X237656823Y-98094313D02*
G01*
X237817242Y-98142976D01*
X237926435Y-98201341D01*
X237965078Y-98221996D01*
X238094659Y-98328341D01*
X238201004Y-98457922D01*
X238201005Y-98457924D01*
X238280024Y-98605758D01*
X238328687Y-98766177D01*
X238345117Y-98933000D01*
X238328687Y-99099823D01*
X238280024Y-99260242D01*
X238265195Y-99287985D01*
X238201004Y-99408078D01*
X238094659Y-99537659D01*
X237965078Y-99644004D01*
X237965076Y-99644005D01*
X237817242Y-99723024D01*
X237656823Y-99771687D01*
X237531804Y-99784000D01*
X237448196Y-99784000D01*
X237323177Y-99771687D01*
X237162758Y-99723024D01*
X237014924Y-99644005D01*
X237014922Y-99644004D01*
X236885341Y-99537659D01*
X236778996Y-99408078D01*
X236714805Y-99287985D01*
X236699976Y-99260242D01*
X236651313Y-99099823D01*
X236634883Y-98933000D01*
X236651313Y-98766177D01*
X236699976Y-98605758D01*
X236778995Y-98457924D01*
X236778996Y-98457922D01*
X236885341Y-98328341D01*
X237014922Y-98221996D01*
X237053565Y-98201341D01*
X237162758Y-98142976D01*
X237323177Y-98094313D01*
X237448196Y-98082000D01*
X237531804Y-98082000D01*
X237656823Y-98094313D01*
X237656823Y-98094313D01*
G37*
G36*
X212510823Y-97967313D02*
G01*
X212671242Y-98015976D01*
X212794764Y-98082000D01*
X212819078Y-98094996D01*
X212948659Y-98201341D01*
X213055004Y-98330922D01*
X213055005Y-98330924D01*
X213134024Y-98478758D01*
X213182687Y-98639177D01*
X213199117Y-98806000D01*
X213182687Y-98972823D01*
X213134024Y-99133242D01*
X213101092Y-99194853D01*
X213055004Y-99281078D01*
X212948659Y-99410659D01*
X212819078Y-99517004D01*
X212819076Y-99517005D01*
X212671242Y-99596024D01*
X212510823Y-99644687D01*
X212385804Y-99657000D01*
X212302196Y-99657000D01*
X212177177Y-99644687D01*
X212016758Y-99596024D01*
X211868924Y-99517005D01*
X211868922Y-99517004D01*
X211739341Y-99410659D01*
X211632996Y-99281078D01*
X211586908Y-99194853D01*
X211553976Y-99133242D01*
X211505313Y-98972823D01*
X211488883Y-98806000D01*
X211505313Y-98639177D01*
X211553976Y-98478758D01*
X211632995Y-98330924D01*
X211632996Y-98330922D01*
X211739341Y-98201341D01*
X211868922Y-98094996D01*
X211893236Y-98082000D01*
X212016758Y-98015976D01*
X212177177Y-97967313D01*
X212302196Y-97955000D01*
X212385804Y-97955000D01*
X212510823Y-97967313D01*
X212510823Y-97967313D01*
G37*
G36*
X220130823Y-97967313D02*
G01*
X220291242Y-98015976D01*
X220414764Y-98082000D01*
X220439078Y-98094996D01*
X220568659Y-98201341D01*
X220675004Y-98330922D01*
X220675005Y-98330924D01*
X220754024Y-98478758D01*
X220802687Y-98639177D01*
X220819117Y-98806000D01*
X220802687Y-98972823D01*
X220754024Y-99133242D01*
X220721092Y-99194853D01*
X220675004Y-99281078D01*
X220568659Y-99410659D01*
X220439078Y-99517004D01*
X220439076Y-99517005D01*
X220291242Y-99596024D01*
X220130823Y-99644687D01*
X220005804Y-99657000D01*
X219922196Y-99657000D01*
X219797177Y-99644687D01*
X219636758Y-99596024D01*
X219488924Y-99517005D01*
X219488922Y-99517004D01*
X219359341Y-99410659D01*
X219252996Y-99281078D01*
X219206908Y-99194853D01*
X219173976Y-99133242D01*
X219125313Y-98972823D01*
X219108883Y-98806000D01*
X219125313Y-98639177D01*
X219173976Y-98478758D01*
X219252995Y-98330924D01*
X219252996Y-98330922D01*
X219359341Y-98201341D01*
X219488922Y-98094996D01*
X219513236Y-98082000D01*
X219636758Y-98015976D01*
X219797177Y-97967313D01*
X219922196Y-97955000D01*
X220005804Y-97955000D01*
X220130823Y-97967313D01*
X220130823Y-97967313D01*
G37*
G36*
X237656823Y-95554313D02*
G01*
X237817242Y-95602976D01*
X237949906Y-95673886D01*
X237965078Y-95681996D01*
X238094659Y-95788341D01*
X238201004Y-95917922D01*
X238201005Y-95917924D01*
X238280024Y-96065758D01*
X238328687Y-96226177D01*
X238345117Y-96393000D01*
X238328687Y-96559823D01*
X238280024Y-96720242D01*
X238210665Y-96850004D01*
X238201004Y-96868078D01*
X238094659Y-96997659D01*
X237965078Y-97104004D01*
X237965076Y-97104005D01*
X237817242Y-97183024D01*
X237656823Y-97231687D01*
X237531804Y-97244000D01*
X237448196Y-97244000D01*
X237323177Y-97231687D01*
X237162758Y-97183024D01*
X237014924Y-97104005D01*
X237014922Y-97104004D01*
X236885341Y-96997659D01*
X236778996Y-96868078D01*
X236769335Y-96850004D01*
X236699976Y-96720242D01*
X236651313Y-96559823D01*
X236634883Y-96393000D01*
X236651313Y-96226177D01*
X236699976Y-96065758D01*
X236778995Y-95917924D01*
X236778996Y-95917922D01*
X236885341Y-95788341D01*
X237014922Y-95681996D01*
X237030094Y-95673886D01*
X237162758Y-95602976D01*
X237323177Y-95554313D01*
X237448196Y-95542000D01*
X237531804Y-95542000D01*
X237656823Y-95554313D01*
X237656823Y-95554313D01*
G37*
G36*
X230036823Y-95554313D02*
G01*
X230197242Y-95602976D01*
X230329906Y-95673886D01*
X230345078Y-95681996D01*
X230474659Y-95788341D01*
X230581004Y-95917922D01*
X230581005Y-95917924D01*
X230660024Y-96065758D01*
X230708687Y-96226177D01*
X230725117Y-96393000D01*
X230708687Y-96559823D01*
X230660024Y-96720242D01*
X230590665Y-96850004D01*
X230581004Y-96868078D01*
X230474659Y-96997659D01*
X230345078Y-97104004D01*
X230345076Y-97104005D01*
X230197242Y-97183024D01*
X230036823Y-97231687D01*
X229911804Y-97244000D01*
X229828196Y-97244000D01*
X229703177Y-97231687D01*
X229542758Y-97183024D01*
X229394924Y-97104005D01*
X229394922Y-97104004D01*
X229265341Y-96997659D01*
X229158996Y-96868078D01*
X229149335Y-96850004D01*
X229079976Y-96720242D01*
X229031313Y-96559823D01*
X229014883Y-96393000D01*
X229031313Y-96226177D01*
X229079976Y-96065758D01*
X229158995Y-95917924D01*
X229158996Y-95917922D01*
X229265341Y-95788341D01*
X229394922Y-95681996D01*
X229410094Y-95673886D01*
X229542758Y-95602976D01*
X229703177Y-95554313D01*
X229828196Y-95542000D01*
X229911804Y-95542000D01*
X230036823Y-95554313D01*
X230036823Y-95554313D01*
G37*
G36*
X212510823Y-95427313D02*
G01*
X212671242Y-95475976D01*
X212747094Y-95516520D01*
X212819078Y-95554996D01*
X212948659Y-95661341D01*
X213055004Y-95790922D01*
X213055005Y-95790924D01*
X213134024Y-95938758D01*
X213182687Y-96099177D01*
X213199117Y-96266000D01*
X213182687Y-96432823D01*
X213134024Y-96593242D01*
X213075199Y-96703295D01*
X213055004Y-96741078D01*
X212948659Y-96870659D01*
X212819078Y-96977004D01*
X212819076Y-96977005D01*
X212671242Y-97056024D01*
X212510823Y-97104687D01*
X212385804Y-97117000D01*
X212302196Y-97117000D01*
X212177177Y-97104687D01*
X212016758Y-97056024D01*
X211868924Y-96977005D01*
X211868922Y-96977004D01*
X211739341Y-96870659D01*
X211632996Y-96741078D01*
X211612801Y-96703295D01*
X211553976Y-96593242D01*
X211505313Y-96432823D01*
X211488883Y-96266000D01*
X211505313Y-96099177D01*
X211553976Y-95938758D01*
X211632995Y-95790924D01*
X211632996Y-95790922D01*
X211739341Y-95661341D01*
X211868922Y-95554996D01*
X211940906Y-95516520D01*
X212016758Y-95475976D01*
X212177177Y-95427313D01*
X212302196Y-95415000D01*
X212385804Y-95415000D01*
X212510823Y-95427313D01*
X212510823Y-95427313D01*
G37*
G36*
X220130823Y-95427313D02*
G01*
X220291242Y-95475976D01*
X220367094Y-95516520D01*
X220439078Y-95554996D01*
X220568659Y-95661341D01*
X220675004Y-95790922D01*
X220675005Y-95790924D01*
X220754024Y-95938758D01*
X220802687Y-96099177D01*
X220819117Y-96266000D01*
X220802687Y-96432823D01*
X220754024Y-96593242D01*
X220695199Y-96703295D01*
X220675004Y-96741078D01*
X220568659Y-96870659D01*
X220439078Y-96977004D01*
X220439076Y-96977005D01*
X220291242Y-97056024D01*
X220130823Y-97104687D01*
X220005804Y-97117000D01*
X219922196Y-97117000D01*
X219797177Y-97104687D01*
X219636758Y-97056024D01*
X219488924Y-96977005D01*
X219488922Y-96977004D01*
X219359341Y-96870659D01*
X219252996Y-96741078D01*
X219232801Y-96703295D01*
X219173976Y-96593242D01*
X219125313Y-96432823D01*
X219108883Y-96266000D01*
X219125313Y-96099177D01*
X219173976Y-95938758D01*
X219252995Y-95790924D01*
X219252996Y-95790922D01*
X219359341Y-95661341D01*
X219488922Y-95554996D01*
X219560906Y-95516520D01*
X219636758Y-95475976D01*
X219797177Y-95427313D01*
X219922196Y-95415000D01*
X220005804Y-95415000D01*
X220130823Y-95427313D01*
X220130823Y-95427313D01*
G37*
G36*
X223305823Y-95300313D02*
G01*
X223466242Y-95348976D01*
X223557931Y-95397985D01*
X223614078Y-95427996D01*
X223743659Y-95534341D01*
X223850004Y-95663922D01*
X223850005Y-95663924D01*
X223929024Y-95811758D01*
X223977687Y-95972177D01*
X223994117Y-96139000D01*
X223977687Y-96305823D01*
X223977260Y-96307229D01*
X223930281Y-96462100D01*
X223929024Y-96466242D01*
X223886384Y-96546015D01*
X223850004Y-96614078D01*
X223743659Y-96743659D01*
X223614078Y-96850004D01*
X223614076Y-96850005D01*
X223466242Y-96929024D01*
X223305823Y-96977687D01*
X223180804Y-96990000D01*
X223097196Y-96990000D01*
X222972177Y-96977687D01*
X222811758Y-96929024D01*
X222663924Y-96850005D01*
X222663922Y-96850004D01*
X222534341Y-96743659D01*
X222427996Y-96614078D01*
X222391616Y-96546015D01*
X222348976Y-96466242D01*
X222347720Y-96462100D01*
X222300740Y-96307229D01*
X222300313Y-96305823D01*
X222283883Y-96139000D01*
X222300313Y-95972177D01*
X222348976Y-95811758D01*
X222427995Y-95663924D01*
X222427996Y-95663922D01*
X222534341Y-95534341D01*
X222663922Y-95427996D01*
X222720069Y-95397985D01*
X222811758Y-95348976D01*
X222972177Y-95300313D01*
X223097196Y-95288000D01*
X223180804Y-95288000D01*
X223305823Y-95300313D01*
X223305823Y-95300313D01*
G37*
G36*
X205734228Y-95240703D02*
G01*
X205889100Y-95304853D01*
X206028481Y-95397985D01*
X206147015Y-95516519D01*
X206240147Y-95655900D01*
X206304297Y-95810772D01*
X206337000Y-95975184D01*
X206337000Y-96142816D01*
X206304297Y-96307228D01*
X206240147Y-96462100D01*
X206147015Y-96601481D01*
X206028481Y-96720015D01*
X205889100Y-96813147D01*
X205734228Y-96877297D01*
X205569816Y-96910000D01*
X205402184Y-96910000D01*
X205237772Y-96877297D01*
X205082900Y-96813147D01*
X204943519Y-96720015D01*
X204824985Y-96601481D01*
X204731853Y-96462100D01*
X204667703Y-96307228D01*
X204635000Y-96142816D01*
X204635000Y-95975184D01*
X204667703Y-95810772D01*
X204731853Y-95655900D01*
X204824985Y-95516519D01*
X204943519Y-95397985D01*
X205082900Y-95304853D01*
X205237772Y-95240703D01*
X205402184Y-95208000D01*
X205569816Y-95208000D01*
X205734228Y-95240703D01*
X205734228Y-95240703D01*
G37*
G36*
X209290228Y-95066703D02*
G01*
X209445100Y-95130853D01*
X209584481Y-95223985D01*
X209703015Y-95342519D01*
X209796147Y-95481900D01*
X209860297Y-95636772D01*
X209893000Y-95801184D01*
X209893000Y-95968816D01*
X209860297Y-96133228D01*
X209796147Y-96288100D01*
X209703015Y-96427481D01*
X209584481Y-96546015D01*
X209445100Y-96639147D01*
X209290228Y-96703297D01*
X209125816Y-96736000D01*
X208958184Y-96736000D01*
X208793772Y-96703297D01*
X208638900Y-96639147D01*
X208499519Y-96546015D01*
X208380985Y-96427481D01*
X208287853Y-96288100D01*
X208223703Y-96133228D01*
X208191000Y-95968816D01*
X208191000Y-95801184D01*
X208223703Y-95636772D01*
X208287853Y-95481900D01*
X208380985Y-95342519D01*
X208499519Y-95223985D01*
X208638900Y-95130853D01*
X208793772Y-95066703D01*
X208958184Y-95034000D01*
X209125816Y-95034000D01*
X209290228Y-95066703D01*
X209290228Y-95066703D01*
G37*
G36*
X241085823Y-94030313D02*
G01*
X241246242Y-94078976D01*
X241378906Y-94149886D01*
X241394078Y-94157996D01*
X241523659Y-94264341D01*
X241630004Y-94393922D01*
X241630005Y-94393924D01*
X241709024Y-94541758D01*
X241709025Y-94541761D01*
X241718083Y-94571620D01*
X241757687Y-94702177D01*
X241774117Y-94869000D01*
X241757687Y-95035823D01*
X241709024Y-95196242D01*
X241702739Y-95208000D01*
X241630004Y-95344078D01*
X241523659Y-95473659D01*
X241394078Y-95580004D01*
X241394076Y-95580005D01*
X241246242Y-95659024D01*
X241085823Y-95707687D01*
X240960804Y-95720000D01*
X240877196Y-95720000D01*
X240752177Y-95707687D01*
X240591758Y-95659024D01*
X240443924Y-95580005D01*
X240443922Y-95580004D01*
X240314341Y-95473659D01*
X240207996Y-95344078D01*
X240135261Y-95208000D01*
X240128976Y-95196242D01*
X240080313Y-95035823D01*
X240063883Y-94869000D01*
X240080313Y-94702177D01*
X240119917Y-94571620D01*
X240128975Y-94541761D01*
X240128976Y-94541758D01*
X240207995Y-94393924D01*
X240207996Y-94393922D01*
X240314341Y-94264341D01*
X240443922Y-94157996D01*
X240459094Y-94149886D01*
X240591758Y-94078976D01*
X240752177Y-94030313D01*
X240877196Y-94018000D01*
X240960804Y-94018000D01*
X241085823Y-94030313D01*
X241085823Y-94030313D01*
G37*
G36*
X226734823Y-93268313D02*
G01*
X226895242Y-93316976D01*
X227027906Y-93387886D01*
X227043078Y-93395996D01*
X227172659Y-93502341D01*
X227279004Y-93631922D01*
X227279005Y-93631924D01*
X227358024Y-93779758D01*
X227406687Y-93940177D01*
X227423117Y-94107000D01*
X227406687Y-94273823D01*
X227358024Y-94434242D01*
X227314310Y-94516025D01*
X227279004Y-94582078D01*
X227172659Y-94711659D01*
X227043078Y-94818004D01*
X227043076Y-94818005D01*
X226895242Y-94897024D01*
X226734823Y-94945687D01*
X226609804Y-94958000D01*
X226526196Y-94958000D01*
X226401177Y-94945687D01*
X226240758Y-94897024D01*
X226092924Y-94818005D01*
X226092922Y-94818004D01*
X225963341Y-94711659D01*
X225856996Y-94582078D01*
X225821690Y-94516025D01*
X225777976Y-94434242D01*
X225729313Y-94273823D01*
X225712883Y-94107000D01*
X225729313Y-93940177D01*
X225777976Y-93779758D01*
X225856995Y-93631924D01*
X225856996Y-93631922D01*
X225963341Y-93502341D01*
X226092922Y-93395996D01*
X226108094Y-93387886D01*
X226240758Y-93316976D01*
X226401177Y-93268313D01*
X226526196Y-93256000D01*
X226609804Y-93256000D01*
X226734823Y-93268313D01*
X226734823Y-93268313D01*
G37*
G36*
X230036823Y-93014313D02*
G01*
X230197242Y-93062976D01*
X230306435Y-93121341D01*
X230345078Y-93141996D01*
X230474659Y-93248341D01*
X230581004Y-93377922D01*
X230581005Y-93377924D01*
X230660024Y-93525758D01*
X230708687Y-93686177D01*
X230725117Y-93853000D01*
X230708687Y-94019823D01*
X230660024Y-94180242D01*
X230615072Y-94264341D01*
X230581004Y-94328078D01*
X230474659Y-94457659D01*
X230345078Y-94564004D01*
X230345076Y-94564005D01*
X230197242Y-94643024D01*
X230036823Y-94691687D01*
X229911804Y-94704000D01*
X229828196Y-94704000D01*
X229703177Y-94691687D01*
X229542758Y-94643024D01*
X229394924Y-94564005D01*
X229394922Y-94564004D01*
X229265341Y-94457659D01*
X229158996Y-94328078D01*
X229124928Y-94264341D01*
X229079976Y-94180242D01*
X229031313Y-94019823D01*
X229014883Y-93853000D01*
X229031313Y-93686177D01*
X229079976Y-93525758D01*
X229158995Y-93377924D01*
X229158996Y-93377922D01*
X229265341Y-93248341D01*
X229394922Y-93141996D01*
X229433565Y-93121341D01*
X229542758Y-93062976D01*
X229703177Y-93014313D01*
X229828196Y-93002000D01*
X229911804Y-93002000D01*
X230036823Y-93014313D01*
X230036823Y-93014313D01*
G37*
G36*
X237656823Y-93014313D02*
G01*
X237817242Y-93062976D01*
X237926435Y-93121341D01*
X237965078Y-93141996D01*
X238094659Y-93248341D01*
X238201004Y-93377922D01*
X238201005Y-93377924D01*
X238280024Y-93525758D01*
X238328687Y-93686177D01*
X238345117Y-93853000D01*
X238328687Y-94019823D01*
X238280024Y-94180242D01*
X238235072Y-94264341D01*
X238201004Y-94328078D01*
X238094659Y-94457659D01*
X237965078Y-94564004D01*
X237965076Y-94564005D01*
X237817242Y-94643024D01*
X237656823Y-94691687D01*
X237531804Y-94704000D01*
X237448196Y-94704000D01*
X237323177Y-94691687D01*
X237162758Y-94643024D01*
X237014924Y-94564005D01*
X237014922Y-94564004D01*
X236885341Y-94457659D01*
X236778996Y-94328078D01*
X236744928Y-94264341D01*
X236699976Y-94180242D01*
X236651313Y-94019823D01*
X236634883Y-93853000D01*
X236651313Y-93686177D01*
X236699976Y-93525758D01*
X236778995Y-93377924D01*
X236778996Y-93377922D01*
X236885341Y-93248341D01*
X237014922Y-93141996D01*
X237053565Y-93121341D01*
X237162758Y-93062976D01*
X237323177Y-93014313D01*
X237448196Y-93002000D01*
X237531804Y-93002000D01*
X237656823Y-93014313D01*
X237656823Y-93014313D01*
G37*
G36*
X212510823Y-92887313D02*
G01*
X212671242Y-92935976D01*
X212794764Y-93002000D01*
X212819078Y-93014996D01*
X212948659Y-93121341D01*
X213055004Y-93250922D01*
X213055005Y-93250924D01*
X213134024Y-93398758D01*
X213134025Y-93398761D01*
X213143083Y-93428620D01*
X213182687Y-93559177D01*
X213199117Y-93726000D01*
X213182687Y-93892823D01*
X213182686Y-93892825D01*
X213140980Y-94030313D01*
X213134024Y-94053242D01*
X213078032Y-94157995D01*
X213055004Y-94201078D01*
X212948659Y-94330659D01*
X212819078Y-94437004D01*
X212819076Y-94437005D01*
X212671242Y-94516024D01*
X212510823Y-94564687D01*
X212385804Y-94577000D01*
X212302196Y-94577000D01*
X212177177Y-94564687D01*
X212016758Y-94516024D01*
X211868924Y-94437005D01*
X211868922Y-94437004D01*
X211739341Y-94330659D01*
X211632996Y-94201078D01*
X211609968Y-94157995D01*
X211553976Y-94053242D01*
X211547021Y-94030313D01*
X211505314Y-93892825D01*
X211505313Y-93892823D01*
X211488883Y-93726000D01*
X211505313Y-93559177D01*
X211544917Y-93428620D01*
X211553975Y-93398761D01*
X211553976Y-93398758D01*
X211632995Y-93250924D01*
X211632996Y-93250922D01*
X211739341Y-93121341D01*
X211868922Y-93014996D01*
X211893236Y-93002000D01*
X212016758Y-92935976D01*
X212177177Y-92887313D01*
X212302196Y-92875000D01*
X212385804Y-92875000D01*
X212510823Y-92887313D01*
X212510823Y-92887313D01*
G37*
G36*
X220130823Y-92887313D02*
G01*
X220291242Y-92935976D01*
X220414764Y-93002000D01*
X220439078Y-93014996D01*
X220568659Y-93121341D01*
X220675004Y-93250922D01*
X220675005Y-93250924D01*
X220754024Y-93398758D01*
X220754025Y-93398761D01*
X220763083Y-93428620D01*
X220802687Y-93559177D01*
X220819117Y-93726000D01*
X220802687Y-93892823D01*
X220802686Y-93892825D01*
X220760980Y-94030313D01*
X220754024Y-94053242D01*
X220698032Y-94157995D01*
X220675004Y-94201078D01*
X220568659Y-94330659D01*
X220439078Y-94437004D01*
X220439076Y-94437005D01*
X220291242Y-94516024D01*
X220130823Y-94564687D01*
X220005804Y-94577000D01*
X219922196Y-94577000D01*
X219797177Y-94564687D01*
X219636758Y-94516024D01*
X219488924Y-94437005D01*
X219488922Y-94437004D01*
X219359341Y-94330659D01*
X219252996Y-94201078D01*
X219229968Y-94157995D01*
X219173976Y-94053242D01*
X219167021Y-94030313D01*
X219125314Y-93892825D01*
X219125313Y-93892823D01*
X219108883Y-93726000D01*
X219125313Y-93559177D01*
X219164917Y-93428620D01*
X219173975Y-93398761D01*
X219173976Y-93398758D01*
X219252995Y-93250924D01*
X219252996Y-93250922D01*
X219359341Y-93121341D01*
X219488922Y-93014996D01*
X219513236Y-93002000D01*
X219636758Y-92935976D01*
X219797177Y-92887313D01*
X219922196Y-92875000D01*
X220005804Y-92875000D01*
X220130823Y-92887313D01*
X220130823Y-92887313D01*
G37*
G36*
X241085823Y-91744313D02*
G01*
X241246242Y-91792976D01*
X241340017Y-91843100D01*
X241394078Y-91871996D01*
X241523659Y-91978341D01*
X241630004Y-92107922D01*
X241630005Y-92107924D01*
X241709024Y-92255758D01*
X241757687Y-92416177D01*
X241774117Y-92583000D01*
X241757687Y-92749823D01*
X241757686Y-92749825D01*
X241715980Y-92887313D01*
X241709024Y-92910242D01*
X241659978Y-93002000D01*
X241630004Y-93058078D01*
X241523659Y-93187659D01*
X241394078Y-93294004D01*
X241394076Y-93294005D01*
X241246242Y-93373024D01*
X241085823Y-93421687D01*
X240960804Y-93434000D01*
X240877196Y-93434000D01*
X240752177Y-93421687D01*
X240591758Y-93373024D01*
X240443924Y-93294005D01*
X240443922Y-93294004D01*
X240314341Y-93187659D01*
X240207996Y-93058078D01*
X240178022Y-93002000D01*
X240128976Y-92910242D01*
X240122021Y-92887313D01*
X240080314Y-92749825D01*
X240080313Y-92749823D01*
X240063883Y-92583000D01*
X240080313Y-92416177D01*
X240128976Y-92255758D01*
X240207995Y-92107924D01*
X240207996Y-92107922D01*
X240314341Y-91978341D01*
X240443922Y-91871996D01*
X240497983Y-91843100D01*
X240591758Y-91792976D01*
X240752177Y-91744313D01*
X240877196Y-91732000D01*
X240960804Y-91732000D01*
X241085823Y-91744313D01*
X241085823Y-91744313D01*
G37*
G36*
X226816228Y-90621703D02*
G01*
X226971100Y-90685853D01*
X227110481Y-90778985D01*
X227229015Y-90897519D01*
X227322147Y-91036900D01*
X227386297Y-91191772D01*
X227419000Y-91356184D01*
X227419000Y-91523816D01*
X227386297Y-91688228D01*
X227322147Y-91843100D01*
X227229015Y-91982481D01*
X227110481Y-92101015D01*
X226971100Y-92194147D01*
X226816228Y-92258297D01*
X226651816Y-92291000D01*
X226484184Y-92291000D01*
X226319772Y-92258297D01*
X226164900Y-92194147D01*
X226025519Y-92101015D01*
X225906985Y-91982481D01*
X225813853Y-91843100D01*
X225749703Y-91688228D01*
X225717000Y-91523816D01*
X225717000Y-91356184D01*
X225749703Y-91191772D01*
X225813853Y-91036900D01*
X225906985Y-90897519D01*
X226025519Y-90778985D01*
X226164900Y-90685853D01*
X226319772Y-90621703D01*
X226484184Y-90589000D01*
X226651816Y-90589000D01*
X226816228Y-90621703D01*
X226816228Y-90621703D01*
G37*
G36*
X230721000Y-92164000D02*
G01*
X229019000Y-92164000D01*
X229019000Y-90462000D01*
X230721000Y-90462000D01*
X230721000Y-92164000D01*
X230721000Y-92164000D01*
G37*
G36*
X237656823Y-90474313D02*
G01*
X237817242Y-90522976D01*
X237926435Y-90581341D01*
X237965078Y-90601996D01*
X238094659Y-90708341D01*
X238201004Y-90837922D01*
X238201005Y-90837924D01*
X238280024Y-90985758D01*
X238328687Y-91146177D01*
X238345117Y-91313000D01*
X238328687Y-91479823D01*
X238280024Y-91640242D01*
X238254375Y-91688228D01*
X238201004Y-91788078D01*
X238094659Y-91917659D01*
X237965078Y-92024004D01*
X237965076Y-92024005D01*
X237817242Y-92103024D01*
X237656823Y-92151687D01*
X237531804Y-92164000D01*
X237448196Y-92164000D01*
X237323177Y-92151687D01*
X237162758Y-92103024D01*
X237014924Y-92024005D01*
X237014922Y-92024004D01*
X236885341Y-91917659D01*
X236778996Y-91788078D01*
X236725625Y-91688228D01*
X236699976Y-91640242D01*
X236651313Y-91479823D01*
X236634883Y-91313000D01*
X236651313Y-91146177D01*
X236699976Y-90985758D01*
X236778995Y-90837924D01*
X236778996Y-90837922D01*
X236885341Y-90708341D01*
X237014922Y-90601996D01*
X237053565Y-90581341D01*
X237162758Y-90522976D01*
X237323177Y-90474313D01*
X237448196Y-90462000D01*
X237531804Y-90462000D01*
X237656823Y-90474313D01*
X237656823Y-90474313D01*
G37*
G36*
X220130823Y-90347313D02*
G01*
X220291242Y-90395976D01*
X220414764Y-90462000D01*
X220439078Y-90474996D01*
X220568659Y-90581341D01*
X220675004Y-90710922D01*
X220675005Y-90710924D01*
X220754024Y-90858758D01*
X220802687Y-91019177D01*
X220819117Y-91186000D01*
X220802687Y-91352823D01*
X220754024Y-91513242D01*
X220710310Y-91595025D01*
X220675004Y-91661078D01*
X220568659Y-91790659D01*
X220439078Y-91897004D01*
X220439076Y-91897005D01*
X220291242Y-91976024D01*
X220130823Y-92024687D01*
X220005804Y-92037000D01*
X219922196Y-92037000D01*
X219797177Y-92024687D01*
X219636758Y-91976024D01*
X219488924Y-91897005D01*
X219488922Y-91897004D01*
X219359341Y-91790659D01*
X219252996Y-91661078D01*
X219217690Y-91595025D01*
X219173976Y-91513242D01*
X219125313Y-91352823D01*
X219108883Y-91186000D01*
X219125313Y-91019177D01*
X219173976Y-90858758D01*
X219252995Y-90710924D01*
X219252996Y-90710922D01*
X219359341Y-90581341D01*
X219488922Y-90474996D01*
X219513236Y-90462000D01*
X219636758Y-90395976D01*
X219797177Y-90347313D01*
X219922196Y-90335000D01*
X220005804Y-90335000D01*
X220130823Y-90347313D01*
X220130823Y-90347313D01*
G37*
G36*
X212510823Y-90347313D02*
G01*
X212671242Y-90395976D01*
X212794764Y-90462000D01*
X212819078Y-90474996D01*
X212948659Y-90581341D01*
X213055004Y-90710922D01*
X213055005Y-90710924D01*
X213134024Y-90858758D01*
X213182687Y-91019177D01*
X213199117Y-91186000D01*
X213182687Y-91352823D01*
X213134024Y-91513242D01*
X213090310Y-91595025D01*
X213055004Y-91661078D01*
X212948659Y-91790659D01*
X212819078Y-91897004D01*
X212819076Y-91897005D01*
X212671242Y-91976024D01*
X212510823Y-92024687D01*
X212385804Y-92037000D01*
X212302196Y-92037000D01*
X212177177Y-92024687D01*
X212016758Y-91976024D01*
X211868924Y-91897005D01*
X211868922Y-91897004D01*
X211739341Y-91790659D01*
X211632996Y-91661078D01*
X211597690Y-91595025D01*
X211553976Y-91513242D01*
X211505313Y-91352823D01*
X211488883Y-91186000D01*
X211505313Y-91019177D01*
X211553976Y-90858758D01*
X211632995Y-90710924D01*
X211632996Y-90710922D01*
X211739341Y-90581341D01*
X211868922Y-90474996D01*
X211893236Y-90462000D01*
X212016758Y-90395976D01*
X212177177Y-90347313D01*
X212302196Y-90335000D01*
X212385804Y-90335000D01*
X212510823Y-90347313D01*
X212510823Y-90347313D01*
G37*
G36*
X205734228Y-90240703D02*
G01*
X205889100Y-90304853D01*
X206028481Y-90397985D01*
X206147015Y-90516519D01*
X206240147Y-90655900D01*
X206304297Y-90810772D01*
X206337000Y-90975184D01*
X206337000Y-91142816D01*
X206304297Y-91307228D01*
X206240147Y-91462100D01*
X206147015Y-91601481D01*
X206028481Y-91720015D01*
X205889100Y-91813147D01*
X205734228Y-91877297D01*
X205569816Y-91910000D01*
X205402184Y-91910000D01*
X205237772Y-91877297D01*
X205082900Y-91813147D01*
X204943519Y-91720015D01*
X204824985Y-91601481D01*
X204731853Y-91462100D01*
X204667703Y-91307228D01*
X204635000Y-91142816D01*
X204635000Y-90975184D01*
X204667703Y-90810772D01*
X204731853Y-90655900D01*
X204824985Y-90516519D01*
X204943519Y-90397985D01*
X205082900Y-90304853D01*
X205237772Y-90240703D01*
X205402184Y-90208000D01*
X205569816Y-90208000D01*
X205734228Y-90240703D01*
X205734228Y-90240703D01*
G37*
G36*
X223387228Y-90240703D02*
G01*
X223542100Y-90304853D01*
X223681481Y-90397985D01*
X223800015Y-90516519D01*
X223893147Y-90655900D01*
X223957297Y-90810772D01*
X223990000Y-90975184D01*
X223990000Y-91142816D01*
X223957297Y-91307228D01*
X223893147Y-91462100D01*
X223800015Y-91601481D01*
X223681481Y-91720015D01*
X223542100Y-91813147D01*
X223387228Y-91877297D01*
X223222816Y-91910000D01*
X223055184Y-91910000D01*
X222890772Y-91877297D01*
X222735900Y-91813147D01*
X222596519Y-91720015D01*
X222477985Y-91601481D01*
X222384853Y-91462100D01*
X222320703Y-91307228D01*
X222288000Y-91142816D01*
X222288000Y-90975184D01*
X222320703Y-90810772D01*
X222384853Y-90655900D01*
X222477985Y-90516519D01*
X222596519Y-90397985D01*
X222735900Y-90304853D01*
X222890772Y-90240703D01*
X223055184Y-90208000D01*
X223222816Y-90208000D01*
X223387228Y-90240703D01*
X223387228Y-90240703D01*
G37*
G36*
X209208823Y-89966313D02*
G01*
X209369242Y-90014976D01*
X209501906Y-90085886D01*
X209517078Y-90093996D01*
X209646659Y-90200341D01*
X209753004Y-90329922D01*
X209753005Y-90329924D01*
X209832024Y-90477758D01*
X209880687Y-90638177D01*
X209897117Y-90805000D01*
X209880687Y-90971823D01*
X209832024Y-91132242D01*
X209761114Y-91264906D01*
X209753004Y-91280078D01*
X209646659Y-91409659D01*
X209517078Y-91516004D01*
X209517076Y-91516005D01*
X209369242Y-91595024D01*
X209208823Y-91643687D01*
X209083804Y-91656000D01*
X209000196Y-91656000D01*
X208875177Y-91643687D01*
X208714758Y-91595024D01*
X208566924Y-91516005D01*
X208566922Y-91516004D01*
X208437341Y-91409659D01*
X208330996Y-91280078D01*
X208322886Y-91264906D01*
X208251976Y-91132242D01*
X208203313Y-90971823D01*
X208186883Y-90805000D01*
X208203313Y-90638177D01*
X208251976Y-90477758D01*
X208330995Y-90329924D01*
X208330996Y-90329922D01*
X208437341Y-90200341D01*
X208566922Y-90093996D01*
X208582094Y-90085886D01*
X208714758Y-90014976D01*
X208875177Y-89966313D01*
X209000196Y-89954000D01*
X209083804Y-89954000D01*
X209208823Y-89966313D01*
X209208823Y-89966313D01*
G37*
G36*
X237738228Y-87192703D02*
G01*
X237893100Y-87256853D01*
X238032481Y-87349985D01*
X238151015Y-87468519D01*
X238244147Y-87607900D01*
X238308297Y-87762772D01*
X238341000Y-87927184D01*
X238341000Y-88094816D01*
X238308297Y-88259228D01*
X238244147Y-88414100D01*
X238151015Y-88553481D01*
X238032481Y-88672015D01*
X237893100Y-88765147D01*
X237738228Y-88829297D01*
X237573816Y-88862000D01*
X237406184Y-88862000D01*
X237241772Y-88829297D01*
X237086900Y-88765147D01*
X236947519Y-88672015D01*
X236828985Y-88553481D01*
X236735853Y-88414100D01*
X236671703Y-88259228D01*
X236639000Y-88094816D01*
X236639000Y-87927184D01*
X236671703Y-87762772D01*
X236735853Y-87607900D01*
X236828985Y-87468519D01*
X236947519Y-87349985D01*
X237086900Y-87256853D01*
X237241772Y-87192703D01*
X237406184Y-87160000D01*
X237573816Y-87160000D01*
X237738228Y-87192703D01*
X237738228Y-87192703D01*
G37*
G36*
X232576823Y-87172313D02*
G01*
X232737242Y-87220976D01*
X232869906Y-87291886D01*
X232885078Y-87299996D01*
X233014659Y-87406341D01*
X233121004Y-87535922D01*
X233121005Y-87535924D01*
X233200024Y-87683758D01*
X233248687Y-87844177D01*
X233265117Y-88011000D01*
X233248687Y-88177823D01*
X233200024Y-88338242D01*
X233159477Y-88414100D01*
X233121004Y-88486078D01*
X233014659Y-88615659D01*
X232885078Y-88722004D01*
X232885076Y-88722005D01*
X232737242Y-88801024D01*
X232576823Y-88849687D01*
X232451804Y-88862000D01*
X232368196Y-88862000D01*
X232243177Y-88849687D01*
X232082758Y-88801024D01*
X231934924Y-88722005D01*
X231934922Y-88722004D01*
X231805341Y-88615659D01*
X231698996Y-88486078D01*
X231660523Y-88414100D01*
X231619976Y-88338242D01*
X231571313Y-88177823D01*
X231554883Y-88011000D01*
X231571313Y-87844177D01*
X231619976Y-87683758D01*
X231698995Y-87535924D01*
X231698996Y-87535922D01*
X231805341Y-87406341D01*
X231934922Y-87299996D01*
X231950094Y-87291886D01*
X232082758Y-87220976D01*
X232243177Y-87172313D01*
X232368196Y-87160000D01*
X232451804Y-87160000D01*
X232576823Y-87172313D01*
X232576823Y-87172313D01*
G37*
G36*
X218815228Y-86938703D02*
G01*
X218970100Y-87002853D01*
X219109481Y-87095985D01*
X219228015Y-87214519D01*
X219321147Y-87353900D01*
X219385297Y-87508772D01*
X219418000Y-87673184D01*
X219418000Y-87840816D01*
X219385297Y-88005228D01*
X219321147Y-88160100D01*
X219228015Y-88299481D01*
X219109481Y-88418015D01*
X218970100Y-88511147D01*
X218815228Y-88575297D01*
X218650816Y-88608000D01*
X218483184Y-88608000D01*
X218318772Y-88575297D01*
X218163900Y-88511147D01*
X218024519Y-88418015D01*
X217905985Y-88299481D01*
X217812853Y-88160100D01*
X217748703Y-88005228D01*
X217716000Y-87840816D01*
X217716000Y-87673184D01*
X217748703Y-87508772D01*
X217812853Y-87353900D01*
X217905985Y-87214519D01*
X218024519Y-87095985D01*
X218163900Y-87002853D01*
X218318772Y-86938703D01*
X218483184Y-86906000D01*
X218650816Y-86906000D01*
X218815228Y-86938703D01*
X218815228Y-86938703D01*
G37*
G36*
X223813823Y-86918313D02*
G01*
X223974242Y-86966976D01*
X224041361Y-87002852D01*
X224122078Y-87045996D01*
X224251659Y-87152341D01*
X224358004Y-87281922D01*
X224358005Y-87281924D01*
X224437024Y-87429758D01*
X224485687Y-87590177D01*
X224502117Y-87757000D01*
X224485687Y-87923823D01*
X224437024Y-88084242D01*
X224396477Y-88160100D01*
X224358004Y-88232078D01*
X224251659Y-88361659D01*
X224122078Y-88468004D01*
X224122076Y-88468005D01*
X223974242Y-88547024D01*
X223813823Y-88595687D01*
X223688804Y-88608000D01*
X223605196Y-88608000D01*
X223480177Y-88595687D01*
X223319758Y-88547024D01*
X223171924Y-88468005D01*
X223171922Y-88468004D01*
X223042341Y-88361659D01*
X222935996Y-88232078D01*
X222897523Y-88160100D01*
X222856976Y-88084242D01*
X222808313Y-87923823D01*
X222791883Y-87757000D01*
X222808313Y-87590177D01*
X222856976Y-87429758D01*
X222935995Y-87281924D01*
X222935996Y-87281922D01*
X223042341Y-87152341D01*
X223171922Y-87045996D01*
X223252639Y-87002852D01*
X223319758Y-86966976D01*
X223480177Y-86918313D01*
X223605196Y-86906000D01*
X223688804Y-86906000D01*
X223813823Y-86918313D01*
X223813823Y-86918313D01*
G37*
G36*
X241167228Y-86684703D02*
G01*
X241322100Y-86748853D01*
X241461481Y-86841985D01*
X241580015Y-86960519D01*
X241673147Y-87099900D01*
X241737297Y-87254772D01*
X241770000Y-87419184D01*
X241770000Y-87586816D01*
X241737297Y-87751228D01*
X241673147Y-87906100D01*
X241580015Y-88045481D01*
X241461481Y-88164015D01*
X241322100Y-88257147D01*
X241167228Y-88321297D01*
X241002816Y-88354000D01*
X240835184Y-88354000D01*
X240670772Y-88321297D01*
X240515900Y-88257147D01*
X240376519Y-88164015D01*
X240257985Y-88045481D01*
X240164853Y-87906100D01*
X240100703Y-87751228D01*
X240068000Y-87586816D01*
X240068000Y-87419184D01*
X240100703Y-87254772D01*
X240164853Y-87099900D01*
X240257985Y-86960519D01*
X240376519Y-86841985D01*
X240515900Y-86748853D01*
X240670772Y-86684703D01*
X240835184Y-86652000D01*
X241002816Y-86652000D01*
X241167228Y-86684703D01*
X241167228Y-86684703D01*
G37*
G36*
X226734823Y-85521313D02*
G01*
X226895242Y-85569976D01*
X227027906Y-85640886D01*
X227043078Y-85648996D01*
X227172659Y-85755341D01*
X227279004Y-85884922D01*
X227279005Y-85884924D01*
X227358024Y-86032758D01*
X227406687Y-86193177D01*
X227423117Y-86360000D01*
X227406687Y-86526823D01*
X227358024Y-86687242D01*
X227325092Y-86748853D01*
X227279004Y-86835078D01*
X227172659Y-86964659D01*
X227043078Y-87071004D01*
X227043076Y-87071005D01*
X226895242Y-87150024D01*
X226734823Y-87198687D01*
X226609804Y-87211000D01*
X226526196Y-87211000D01*
X226401177Y-87198687D01*
X226240758Y-87150024D01*
X226092924Y-87071005D01*
X226092922Y-87071004D01*
X225963341Y-86964659D01*
X225856996Y-86835078D01*
X225810908Y-86748853D01*
X225777976Y-86687242D01*
X225729313Y-86526823D01*
X225712883Y-86360000D01*
X225729313Y-86193177D01*
X225777976Y-86032758D01*
X225856995Y-85884924D01*
X225856996Y-85884922D01*
X225963341Y-85755341D01*
X226092922Y-85648996D01*
X226108094Y-85640886D01*
X226240758Y-85569976D01*
X226401177Y-85521313D01*
X226526196Y-85509000D01*
X226609804Y-85509000D01*
X226734823Y-85521313D01*
X226734823Y-85521313D01*
G37*
G36*
X234864228Y-83573203D02*
G01*
X235019100Y-83637353D01*
X235158481Y-83730485D01*
X235277015Y-83849019D01*
X235370147Y-83988400D01*
X235434297Y-84143272D01*
X235467000Y-84307684D01*
X235467000Y-84475316D01*
X235434297Y-84639728D01*
X235370147Y-84794600D01*
X235277015Y-84933981D01*
X235158481Y-85052515D01*
X235019100Y-85145647D01*
X234864228Y-85209797D01*
X234699816Y-85242500D01*
X234532184Y-85242500D01*
X234367772Y-85209797D01*
X234212900Y-85145647D01*
X234073519Y-85052515D01*
X233954985Y-84933981D01*
X233861853Y-84794600D01*
X233797703Y-84639728D01*
X233765000Y-84475316D01*
X233765000Y-84307684D01*
X233797703Y-84143272D01*
X233861853Y-83988400D01*
X233954985Y-83849019D01*
X234073519Y-83730485D01*
X234212900Y-83637353D01*
X234367772Y-83573203D01*
X234532184Y-83540500D01*
X234699816Y-83540500D01*
X234864228Y-83573203D01*
X234864228Y-83573203D01*
G37*
G36*
X229864228Y-83573203D02*
G01*
X230019100Y-83637353D01*
X230158481Y-83730485D01*
X230277015Y-83849019D01*
X230370147Y-83988400D01*
X230434297Y-84143272D01*
X230467000Y-84307684D01*
X230467000Y-84475316D01*
X230434297Y-84639728D01*
X230370147Y-84794600D01*
X230277015Y-84933981D01*
X230158481Y-85052515D01*
X230019100Y-85145647D01*
X229864228Y-85209797D01*
X229699816Y-85242500D01*
X229532184Y-85242500D01*
X229367772Y-85209797D01*
X229212900Y-85145647D01*
X229073519Y-85052515D01*
X228954985Y-84933981D01*
X228861853Y-84794600D01*
X228797703Y-84639728D01*
X228765000Y-84475316D01*
X228765000Y-84307684D01*
X228797703Y-84143272D01*
X228861853Y-83988400D01*
X228954985Y-83849019D01*
X229073519Y-83730485D01*
X229212900Y-83637353D01*
X229367772Y-83573203D01*
X229532184Y-83540500D01*
X229699816Y-83540500D01*
X229864228Y-83573203D01*
X229864228Y-83573203D01*
G37*
G36*
X209446395Y-81762546D02*
G01*
X209619466Y-81834234D01*
X209619467Y-81834235D01*
X209775227Y-81938310D01*
X209907690Y-82070773D01*
X209907691Y-82070775D01*
X210011766Y-82226534D01*
X210083454Y-82399605D01*
X210120000Y-82583333D01*
X210120000Y-82770667D01*
X210083454Y-82954395D01*
X210011766Y-83127466D01*
X210011765Y-83127467D01*
X209907690Y-83283227D01*
X209775227Y-83415690D01*
X209696818Y-83468081D01*
X209619466Y-83519766D01*
X209446395Y-83591454D01*
X209262667Y-83628000D01*
X209075333Y-83628000D01*
X208891605Y-83591454D01*
X208718534Y-83519766D01*
X208641182Y-83468081D01*
X208562773Y-83415690D01*
X208430310Y-83283227D01*
X208326235Y-83127467D01*
X208326234Y-83127466D01*
X208254546Y-82954395D01*
X208218000Y-82770667D01*
X208218000Y-82583333D01*
X208254546Y-82399605D01*
X208326234Y-82226534D01*
X208430309Y-82070775D01*
X208430310Y-82070773D01*
X208562773Y-81938310D01*
X208718533Y-81834235D01*
X208718534Y-81834234D01*
X208891605Y-81762546D01*
X209075333Y-81726000D01*
X209262667Y-81726000D01*
X209446395Y-81762546D01*
X209446395Y-81762546D01*
G37*
G36*
X207580000Y-83628000D02*
G01*
X205678000Y-83628000D01*
X205678000Y-81726000D01*
X207580000Y-81726000D01*
X207580000Y-83628000D01*
X207580000Y-83628000D01*
G37*
G36*
X217447395Y-81762546D02*
G01*
X217620466Y-81834234D01*
X217620467Y-81834235D01*
X217776227Y-81938310D01*
X217908690Y-82070773D01*
X217908691Y-82070775D01*
X218012766Y-82226534D01*
X218084454Y-82399605D01*
X218121000Y-82583333D01*
X218121000Y-82770667D01*
X218084454Y-82954395D01*
X218012766Y-83127466D01*
X218012765Y-83127467D01*
X217908690Y-83283227D01*
X217776227Y-83415690D01*
X217697818Y-83468081D01*
X217620466Y-83519766D01*
X217447395Y-83591454D01*
X217263667Y-83628000D01*
X217076333Y-83628000D01*
X216892605Y-83591454D01*
X216719534Y-83519766D01*
X216642182Y-83468081D01*
X216563773Y-83415690D01*
X216431310Y-83283227D01*
X216327235Y-83127467D01*
X216327234Y-83127466D01*
X216255546Y-82954395D01*
X216219000Y-82770667D01*
X216219000Y-82583333D01*
X216255546Y-82399605D01*
X216327234Y-82226534D01*
X216431309Y-82070775D01*
X216431310Y-82070773D01*
X216563773Y-81938310D01*
X216719533Y-81834235D01*
X216719534Y-81834234D01*
X216892605Y-81762546D01*
X217076333Y-81726000D01*
X217263667Y-81726000D01*
X217447395Y-81762546D01*
X217447395Y-81762546D01*
G37*
G36*
X215581000Y-83628000D02*
G01*
X213679000Y-83628000D01*
X213679000Y-81726000D01*
X215581000Y-81726000D01*
X215581000Y-83628000D01*
X215581000Y-83628000D01*
G37*
G36*
X232957823Y-80314313D02*
G01*
X233118242Y-80362976D01*
X233250906Y-80433886D01*
X233266078Y-80441996D01*
X233395659Y-80548341D01*
X233502004Y-80677922D01*
X233502005Y-80677924D01*
X233581024Y-80825758D01*
X233629687Y-80986177D01*
X233646117Y-81153000D01*
X233629687Y-81319823D01*
X233581024Y-81480242D01*
X233510114Y-81612906D01*
X233502004Y-81628078D01*
X233395659Y-81757659D01*
X233266078Y-81864004D01*
X233266076Y-81864005D01*
X233118242Y-81943024D01*
X232957823Y-81991687D01*
X232832804Y-82004000D01*
X232749196Y-82004000D01*
X232624177Y-81991687D01*
X232463758Y-81943024D01*
X232315924Y-81864005D01*
X232315922Y-81864004D01*
X232186341Y-81757659D01*
X232079996Y-81628078D01*
X232071886Y-81612906D01*
X232000976Y-81480242D01*
X231952313Y-81319823D01*
X231935883Y-81153000D01*
X231952313Y-80986177D01*
X232000976Y-80825758D01*
X232079995Y-80677924D01*
X232079996Y-80677922D01*
X232186341Y-80548341D01*
X232315922Y-80441996D01*
X232331094Y-80433886D01*
X232463758Y-80362976D01*
X232624177Y-80314313D01*
X232749196Y-80302000D01*
X232832804Y-80302000D01*
X232957823Y-80314313D01*
X232957823Y-80314313D01*
G37*
G36*
X230417823Y-80314313D02*
G01*
X230578242Y-80362976D01*
X230710906Y-80433886D01*
X230726078Y-80441996D01*
X230855659Y-80548341D01*
X230962004Y-80677922D01*
X230962005Y-80677924D01*
X231041024Y-80825758D01*
X231089687Y-80986177D01*
X231106117Y-81153000D01*
X231089687Y-81319823D01*
X231041024Y-81480242D01*
X230970114Y-81612906D01*
X230962004Y-81628078D01*
X230855659Y-81757659D01*
X230726078Y-81864004D01*
X230726076Y-81864005D01*
X230578242Y-81943024D01*
X230417823Y-81991687D01*
X230292804Y-82004000D01*
X230209196Y-82004000D01*
X230084177Y-81991687D01*
X229923758Y-81943024D01*
X229775924Y-81864005D01*
X229775922Y-81864004D01*
X229646341Y-81757659D01*
X229539996Y-81628078D01*
X229531886Y-81612906D01*
X229460976Y-81480242D01*
X229412313Y-81319823D01*
X229395883Y-81153000D01*
X229412313Y-80986177D01*
X229460976Y-80825758D01*
X229539995Y-80677924D01*
X229539996Y-80677922D01*
X229646341Y-80548341D01*
X229775922Y-80441996D01*
X229791094Y-80433886D01*
X229923758Y-80362976D01*
X230084177Y-80314313D01*
X230209196Y-80302000D01*
X230292804Y-80302000D01*
X230417823Y-80314313D01*
X230417823Y-80314313D01*
G37*
G36*
X227877823Y-80314313D02*
G01*
X228038242Y-80362976D01*
X228170906Y-80433886D01*
X228186078Y-80441996D01*
X228315659Y-80548341D01*
X228422004Y-80677922D01*
X228422005Y-80677924D01*
X228501024Y-80825758D01*
X228549687Y-80986177D01*
X228566117Y-81153000D01*
X228549687Y-81319823D01*
X228501024Y-81480242D01*
X228430114Y-81612906D01*
X228422004Y-81628078D01*
X228315659Y-81757659D01*
X228186078Y-81864004D01*
X228186076Y-81864005D01*
X228038242Y-81943024D01*
X227877823Y-81991687D01*
X227752804Y-82004000D01*
X227669196Y-82004000D01*
X227544177Y-81991687D01*
X227383758Y-81943024D01*
X227235924Y-81864005D01*
X227235922Y-81864004D01*
X227106341Y-81757659D01*
X226999996Y-81628078D01*
X226991886Y-81612906D01*
X226920976Y-81480242D01*
X226872313Y-81319823D01*
X226855883Y-81153000D01*
X226872313Y-80986177D01*
X226920976Y-80825758D01*
X226999995Y-80677924D01*
X226999996Y-80677922D01*
X227106341Y-80548341D01*
X227235922Y-80441996D01*
X227251094Y-80433886D01*
X227383758Y-80362976D01*
X227544177Y-80314313D01*
X227669196Y-80302000D01*
X227752804Y-80302000D01*
X227877823Y-80314313D01*
X227877823Y-80314313D01*
G37*
G36*
X226022000Y-82004000D02*
G01*
X224320000Y-82004000D01*
X224320000Y-80302000D01*
X226022000Y-80302000D01*
X226022000Y-82004000D01*
X226022000Y-82004000D01*
G37*
G36*
X235497823Y-80314313D02*
G01*
X235658242Y-80362976D01*
X235790906Y-80433886D01*
X235806078Y-80441996D01*
X235935659Y-80548341D01*
X236042004Y-80677922D01*
X236042005Y-80677924D01*
X236121024Y-80825758D01*
X236169687Y-80986177D01*
X236186117Y-81153000D01*
X236169687Y-81319823D01*
X236121024Y-81480242D01*
X236050114Y-81612906D01*
X236042004Y-81628078D01*
X235935659Y-81757659D01*
X235806078Y-81864004D01*
X235806076Y-81864005D01*
X235658242Y-81943024D01*
X235497823Y-81991687D01*
X235372804Y-82004000D01*
X235289196Y-82004000D01*
X235164177Y-81991687D01*
X235003758Y-81943024D01*
X234855924Y-81864005D01*
X234855922Y-81864004D01*
X234726341Y-81757659D01*
X234619996Y-81628078D01*
X234611886Y-81612906D01*
X234540976Y-81480242D01*
X234492313Y-81319823D01*
X234475883Y-81153000D01*
X234492313Y-80986177D01*
X234540976Y-80825758D01*
X234619995Y-80677924D01*
X234619996Y-80677922D01*
X234726341Y-80548341D01*
X234855922Y-80441996D01*
X234871094Y-80433886D01*
X235003758Y-80362976D01*
X235164177Y-80314313D01*
X235289196Y-80302000D01*
X235372804Y-80302000D01*
X235497823Y-80314313D01*
X235497823Y-80314313D01*
G37*
G36*
X238037823Y-80314313D02*
G01*
X238198242Y-80362976D01*
X238330906Y-80433886D01*
X238346078Y-80441996D01*
X238475659Y-80548341D01*
X238582004Y-80677922D01*
X238582005Y-80677924D01*
X238661024Y-80825758D01*
X238709687Y-80986177D01*
X238726117Y-81153000D01*
X238709687Y-81319823D01*
X238661024Y-81480242D01*
X238590114Y-81612906D01*
X238582004Y-81628078D01*
X238475659Y-81757659D01*
X238346078Y-81864004D01*
X238346076Y-81864005D01*
X238198242Y-81943024D01*
X238037823Y-81991687D01*
X237912804Y-82004000D01*
X237829196Y-82004000D01*
X237704177Y-81991687D01*
X237543758Y-81943024D01*
X237395924Y-81864005D01*
X237395922Y-81864004D01*
X237266341Y-81757659D01*
X237159996Y-81628078D01*
X237151886Y-81612906D01*
X237080976Y-81480242D01*
X237032313Y-81319823D01*
X237015883Y-81153000D01*
X237032313Y-80986177D01*
X237080976Y-80825758D01*
X237159995Y-80677924D01*
X237159996Y-80677922D01*
X237266341Y-80548341D01*
X237395922Y-80441996D01*
X237411094Y-80433886D01*
X237543758Y-80362976D01*
X237704177Y-80314313D01*
X237829196Y-80302000D01*
X237912804Y-80302000D01*
X238037823Y-80314313D01*
X238037823Y-80314313D01*
G37*
G36*
X240577823Y-80314313D02*
G01*
X240738242Y-80362976D01*
X240870906Y-80433886D01*
X240886078Y-80441996D01*
X241015659Y-80548341D01*
X241122004Y-80677922D01*
X241122005Y-80677924D01*
X241201024Y-80825758D01*
X241249687Y-80986177D01*
X241266117Y-81153000D01*
X241249687Y-81319823D01*
X241201024Y-81480242D01*
X241130114Y-81612906D01*
X241122004Y-81628078D01*
X241015659Y-81757659D01*
X240886078Y-81864004D01*
X240886076Y-81864005D01*
X240738242Y-81943024D01*
X240577823Y-81991687D01*
X240452804Y-82004000D01*
X240369196Y-82004000D01*
X240244177Y-81991687D01*
X240083758Y-81943024D01*
X239935924Y-81864005D01*
X239935922Y-81864004D01*
X239806341Y-81757659D01*
X239699996Y-81628078D01*
X239691886Y-81612906D01*
X239620976Y-81480242D01*
X239572313Y-81319823D01*
X239555883Y-81153000D01*
X239572313Y-80986177D01*
X239620976Y-80825758D01*
X239699995Y-80677924D01*
X239699996Y-80677922D01*
X239806341Y-80548341D01*
X239935922Y-80441996D01*
X239951094Y-80433886D01*
X240083758Y-80362976D01*
X240244177Y-80314313D01*
X240369196Y-80302000D01*
X240452804Y-80302000D01*
X240577823Y-80314313D01*
X240577823Y-80314313D01*
G37*
G36*
X221990228Y-77333703D02*
G01*
X222145100Y-77397853D01*
X222284481Y-77490985D01*
X222403015Y-77609519D01*
X222496147Y-77748900D01*
X222560297Y-77903772D01*
X222593000Y-78068184D01*
X222593000Y-78235816D01*
X222560297Y-78400228D01*
X222496147Y-78555100D01*
X222403015Y-78694481D01*
X222284481Y-78813015D01*
X222145100Y-78906147D01*
X221990228Y-78970297D01*
X221825816Y-79003000D01*
X221658184Y-79003000D01*
X221493772Y-78970297D01*
X221338900Y-78906147D01*
X221199519Y-78813015D01*
X221080985Y-78694481D01*
X220987853Y-78555100D01*
X220923703Y-78400228D01*
X220891000Y-78235816D01*
X220891000Y-78068184D01*
X220923703Y-77903772D01*
X220987853Y-77748900D01*
X221080985Y-77609519D01*
X221199519Y-77490985D01*
X221338900Y-77397853D01*
X221493772Y-77333703D01*
X221658184Y-77301000D01*
X221825816Y-77301000D01*
X221990228Y-77333703D01*
X221990228Y-77333703D01*
G37*
G36*
X210120000Y-76135000D02*
G01*
X208218000Y-76135000D01*
X208218000Y-74233000D01*
X210120000Y-74233000D01*
X210120000Y-76135000D01*
X210120000Y-76135000D01*
G37*
G36*
X214907395Y-74269546D02*
G01*
X215080466Y-74341234D01*
X215126042Y-74371687D01*
X215236227Y-74445310D01*
X215368690Y-74577773D01*
X215368691Y-74577775D01*
X215472766Y-74733534D01*
X215544454Y-74906605D01*
X215581000Y-75090333D01*
X215581000Y-75277667D01*
X215544454Y-75461395D01*
X215472766Y-75634466D01*
X215472765Y-75634467D01*
X215368690Y-75790227D01*
X215236227Y-75922690D01*
X215157818Y-75975081D01*
X215080466Y-76026766D01*
X214907395Y-76098454D01*
X214723667Y-76135000D01*
X214536333Y-76135000D01*
X214352605Y-76098454D01*
X214179534Y-76026766D01*
X214102182Y-75975081D01*
X214023773Y-75922690D01*
X213891310Y-75790227D01*
X213787235Y-75634467D01*
X213787234Y-75634466D01*
X213715546Y-75461395D01*
X213679000Y-75277667D01*
X213679000Y-75090333D01*
X213715546Y-74906605D01*
X213787234Y-74733534D01*
X213891309Y-74577775D01*
X213891310Y-74577773D01*
X214023773Y-74445310D01*
X214133958Y-74371687D01*
X214179534Y-74341234D01*
X214352605Y-74269546D01*
X214536333Y-74233000D01*
X214723667Y-74233000D01*
X214907395Y-74269546D01*
X214907395Y-74269546D01*
G37*
G36*
X218121000Y-76135000D02*
G01*
X216219000Y-76135000D01*
X216219000Y-74233000D01*
X218121000Y-74233000D01*
X218121000Y-76135000D01*
X218121000Y-76135000D01*
G37*
G36*
X206906395Y-74269546D02*
G01*
X207079466Y-74341234D01*
X207125042Y-74371687D01*
X207235227Y-74445310D01*
X207367690Y-74577773D01*
X207367691Y-74577775D01*
X207471766Y-74733534D01*
X207543454Y-74906605D01*
X207580000Y-75090333D01*
X207580000Y-75277667D01*
X207543454Y-75461395D01*
X207471766Y-75634466D01*
X207471765Y-75634467D01*
X207367690Y-75790227D01*
X207235227Y-75922690D01*
X207156818Y-75975081D01*
X207079466Y-76026766D01*
X206906395Y-76098454D01*
X206722667Y-76135000D01*
X206535333Y-76135000D01*
X206351605Y-76098454D01*
X206178534Y-76026766D01*
X206101182Y-75975081D01*
X206022773Y-75922690D01*
X205890310Y-75790227D01*
X205786235Y-75634467D01*
X205786234Y-75634466D01*
X205714546Y-75461395D01*
X205678000Y-75277667D01*
X205678000Y-75090333D01*
X205714546Y-74906605D01*
X205786234Y-74733534D01*
X205890309Y-74577775D01*
X205890310Y-74577773D01*
X206022773Y-74445310D01*
X206132958Y-74371687D01*
X206178534Y-74341234D01*
X206351605Y-74269546D01*
X206535333Y-74233000D01*
X206722667Y-74233000D01*
X206906395Y-74269546D01*
X206906395Y-74269546D01*
G37*
G36*
X230417823Y-72694313D02*
G01*
X230578242Y-72742976D01*
X230710906Y-72813886D01*
X230726078Y-72821996D01*
X230855659Y-72928341D01*
X230962004Y-73057922D01*
X230962005Y-73057924D01*
X231041024Y-73205758D01*
X231089687Y-73366177D01*
X231106117Y-73533000D01*
X231089687Y-73699823D01*
X231041024Y-73860242D01*
X230982199Y-73970295D01*
X230962004Y-74008078D01*
X230855659Y-74137659D01*
X230726078Y-74244004D01*
X230726076Y-74244005D01*
X230578242Y-74323024D01*
X230417823Y-74371687D01*
X230292804Y-74384000D01*
X230209196Y-74384000D01*
X230084177Y-74371687D01*
X229923758Y-74323024D01*
X229775924Y-74244005D01*
X229775922Y-74244004D01*
X229646341Y-74137659D01*
X229539996Y-74008078D01*
X229519801Y-73970295D01*
X229460976Y-73860242D01*
X229412313Y-73699823D01*
X229395883Y-73533000D01*
X229412313Y-73366177D01*
X229460976Y-73205758D01*
X229539995Y-73057924D01*
X229539996Y-73057922D01*
X229646341Y-72928341D01*
X229775922Y-72821996D01*
X229791094Y-72813886D01*
X229923758Y-72742976D01*
X230084177Y-72694313D01*
X230209196Y-72682000D01*
X230292804Y-72682000D01*
X230417823Y-72694313D01*
X230417823Y-72694313D01*
G37*
G36*
X225337823Y-72694313D02*
G01*
X225498242Y-72742976D01*
X225630906Y-72813886D01*
X225646078Y-72821996D01*
X225775659Y-72928341D01*
X225882004Y-73057922D01*
X225882005Y-73057924D01*
X225961024Y-73205758D01*
X226009687Y-73366177D01*
X226026117Y-73533000D01*
X226009687Y-73699823D01*
X225961024Y-73860242D01*
X225902199Y-73970295D01*
X225882004Y-74008078D01*
X225775659Y-74137659D01*
X225646078Y-74244004D01*
X225646076Y-74244005D01*
X225498242Y-74323024D01*
X225337823Y-74371687D01*
X225212804Y-74384000D01*
X225129196Y-74384000D01*
X225004177Y-74371687D01*
X224843758Y-74323024D01*
X224695924Y-74244005D01*
X224695922Y-74244004D01*
X224566341Y-74137659D01*
X224459996Y-74008078D01*
X224439801Y-73970295D01*
X224380976Y-73860242D01*
X224332313Y-73699823D01*
X224315883Y-73533000D01*
X224332313Y-73366177D01*
X224380976Y-73205758D01*
X224459995Y-73057924D01*
X224459996Y-73057922D01*
X224566341Y-72928341D01*
X224695922Y-72821996D01*
X224711094Y-72813886D01*
X224843758Y-72742976D01*
X225004177Y-72694313D01*
X225129196Y-72682000D01*
X225212804Y-72682000D01*
X225337823Y-72694313D01*
X225337823Y-72694313D01*
G37*
G36*
X232957823Y-72694313D02*
G01*
X233118242Y-72742976D01*
X233250906Y-72813886D01*
X233266078Y-72821996D01*
X233395659Y-72928341D01*
X233502004Y-73057922D01*
X233502005Y-73057924D01*
X233581024Y-73205758D01*
X233629687Y-73366177D01*
X233646117Y-73533000D01*
X233629687Y-73699823D01*
X233581024Y-73860242D01*
X233522199Y-73970295D01*
X233502004Y-74008078D01*
X233395659Y-74137659D01*
X233266078Y-74244004D01*
X233266076Y-74244005D01*
X233118242Y-74323024D01*
X232957823Y-74371687D01*
X232832804Y-74384000D01*
X232749196Y-74384000D01*
X232624177Y-74371687D01*
X232463758Y-74323024D01*
X232315924Y-74244005D01*
X232315922Y-74244004D01*
X232186341Y-74137659D01*
X232079996Y-74008078D01*
X232059801Y-73970295D01*
X232000976Y-73860242D01*
X231952313Y-73699823D01*
X231935883Y-73533000D01*
X231952313Y-73366177D01*
X232000976Y-73205758D01*
X232079995Y-73057924D01*
X232079996Y-73057922D01*
X232186341Y-72928341D01*
X232315922Y-72821996D01*
X232331094Y-72813886D01*
X232463758Y-72742976D01*
X232624177Y-72694313D01*
X232749196Y-72682000D01*
X232832804Y-72682000D01*
X232957823Y-72694313D01*
X232957823Y-72694313D01*
G37*
G36*
X235497823Y-72694313D02*
G01*
X235658242Y-72742976D01*
X235790906Y-72813886D01*
X235806078Y-72821996D01*
X235935659Y-72928341D01*
X236042004Y-73057922D01*
X236042005Y-73057924D01*
X236121024Y-73205758D01*
X236169687Y-73366177D01*
X236186117Y-73533000D01*
X236169687Y-73699823D01*
X236121024Y-73860242D01*
X236062199Y-73970295D01*
X236042004Y-74008078D01*
X235935659Y-74137659D01*
X235806078Y-74244004D01*
X235806076Y-74244005D01*
X235658242Y-74323024D01*
X235497823Y-74371687D01*
X235372804Y-74384000D01*
X235289196Y-74384000D01*
X235164177Y-74371687D01*
X235003758Y-74323024D01*
X234855924Y-74244005D01*
X234855922Y-74244004D01*
X234726341Y-74137659D01*
X234619996Y-74008078D01*
X234599801Y-73970295D01*
X234540976Y-73860242D01*
X234492313Y-73699823D01*
X234475883Y-73533000D01*
X234492313Y-73366177D01*
X234540976Y-73205758D01*
X234619995Y-73057924D01*
X234619996Y-73057922D01*
X234726341Y-72928341D01*
X234855922Y-72821996D01*
X234871094Y-72813886D01*
X235003758Y-72742976D01*
X235164177Y-72694313D01*
X235289196Y-72682000D01*
X235372804Y-72682000D01*
X235497823Y-72694313D01*
X235497823Y-72694313D01*
G37*
G36*
X238037823Y-72694313D02*
G01*
X238198242Y-72742976D01*
X238330906Y-72813886D01*
X238346078Y-72821996D01*
X238475659Y-72928341D01*
X238582004Y-73057922D01*
X238582005Y-73057924D01*
X238661024Y-73205758D01*
X238709687Y-73366177D01*
X238726117Y-73533000D01*
X238709687Y-73699823D01*
X238661024Y-73860242D01*
X238602199Y-73970295D01*
X238582004Y-74008078D01*
X238475659Y-74137659D01*
X238346078Y-74244004D01*
X238346076Y-74244005D01*
X238198242Y-74323024D01*
X238037823Y-74371687D01*
X237912804Y-74384000D01*
X237829196Y-74384000D01*
X237704177Y-74371687D01*
X237543758Y-74323024D01*
X237395924Y-74244005D01*
X237395922Y-74244004D01*
X237266341Y-74137659D01*
X237159996Y-74008078D01*
X237139801Y-73970295D01*
X237080976Y-73860242D01*
X237032313Y-73699823D01*
X237015883Y-73533000D01*
X237032313Y-73366177D01*
X237080976Y-73205758D01*
X237159995Y-73057924D01*
X237159996Y-73057922D01*
X237266341Y-72928341D01*
X237395922Y-72821996D01*
X237411094Y-72813886D01*
X237543758Y-72742976D01*
X237704177Y-72694313D01*
X237829196Y-72682000D01*
X237912804Y-72682000D01*
X238037823Y-72694313D01*
X238037823Y-72694313D01*
G37*
G36*
X227877823Y-72694313D02*
G01*
X228038242Y-72742976D01*
X228170906Y-72813886D01*
X228186078Y-72821996D01*
X228315659Y-72928341D01*
X228422004Y-73057922D01*
X228422005Y-73057924D01*
X228501024Y-73205758D01*
X228549687Y-73366177D01*
X228566117Y-73533000D01*
X228549687Y-73699823D01*
X228501024Y-73860242D01*
X228442199Y-73970295D01*
X228422004Y-74008078D01*
X228315659Y-74137659D01*
X228186078Y-74244004D01*
X228186076Y-74244005D01*
X228038242Y-74323024D01*
X227877823Y-74371687D01*
X227752804Y-74384000D01*
X227669196Y-74384000D01*
X227544177Y-74371687D01*
X227383758Y-74323024D01*
X227235924Y-74244005D01*
X227235922Y-74244004D01*
X227106341Y-74137659D01*
X226999996Y-74008078D01*
X226979801Y-73970295D01*
X226920976Y-73860242D01*
X226872313Y-73699823D01*
X226855883Y-73533000D01*
X226872313Y-73366177D01*
X226920976Y-73205758D01*
X226999995Y-73057924D01*
X226999996Y-73057922D01*
X227106341Y-72928341D01*
X227235922Y-72821996D01*
X227251094Y-72813886D01*
X227383758Y-72742976D01*
X227544177Y-72694313D01*
X227669196Y-72682000D01*
X227752804Y-72682000D01*
X227877823Y-72694313D01*
X227877823Y-72694313D01*
G37*
G36*
X240577823Y-72694313D02*
G01*
X240738242Y-72742976D01*
X240870906Y-72813886D01*
X240886078Y-72821996D01*
X241015659Y-72928341D01*
X241122004Y-73057922D01*
X241122005Y-73057924D01*
X241201024Y-73205758D01*
X241249687Y-73366177D01*
X241266117Y-73533000D01*
X241249687Y-73699823D01*
X241201024Y-73860242D01*
X241142199Y-73970295D01*
X241122004Y-74008078D01*
X241015659Y-74137659D01*
X240886078Y-74244004D01*
X240886076Y-74244005D01*
X240738242Y-74323024D01*
X240577823Y-74371687D01*
X240452804Y-74384000D01*
X240369196Y-74384000D01*
X240244177Y-74371687D01*
X240083758Y-74323024D01*
X239935924Y-74244005D01*
X239935922Y-74244004D01*
X239806341Y-74137659D01*
X239699996Y-74008078D01*
X239679801Y-73970295D01*
X239620976Y-73860242D01*
X239572313Y-73699823D01*
X239555883Y-73533000D01*
X239572313Y-73366177D01*
X239620976Y-73205758D01*
X239699995Y-73057924D01*
X239699996Y-73057922D01*
X239806341Y-72928341D01*
X239935922Y-72821996D01*
X239951094Y-72813886D01*
X240083758Y-72742976D01*
X240244177Y-72694313D01*
X240369196Y-72682000D01*
X240452804Y-72682000D01*
X240577823Y-72694313D01*
X240577823Y-72694313D01*
G37*
G36*
X221990228Y-72333703D02*
G01*
X222145100Y-72397853D01*
X222284481Y-72490985D01*
X222403015Y-72609519D01*
X222496147Y-72748900D01*
X222560297Y-72903772D01*
X222593000Y-73068184D01*
X222593000Y-73235816D01*
X222560297Y-73400228D01*
X222496147Y-73555100D01*
X222403015Y-73694481D01*
X222284481Y-73813015D01*
X222145100Y-73906147D01*
X221990228Y-73970297D01*
X221825816Y-74003000D01*
X221658184Y-74003000D01*
X221493772Y-73970297D01*
X221338900Y-73906147D01*
X221199519Y-73813015D01*
X221080985Y-73694481D01*
X220987853Y-73555100D01*
X220923703Y-73400228D01*
X220891000Y-73235816D01*
X220891000Y-73068184D01*
X220923703Y-72903772D01*
X220987853Y-72748900D01*
X221080985Y-72609519D01*
X221199519Y-72490985D01*
X221338900Y-72397853D01*
X221493772Y-72333703D01*
X221658184Y-72301000D01*
X221825816Y-72301000D01*
X221990228Y-72333703D01*
X221990228Y-72333703D01*
G37*
G36*
X220384823Y-69392313D02*
G01*
X220545242Y-69440976D01*
X220612361Y-69476852D01*
X220693078Y-69519996D01*
X220822659Y-69626341D01*
X220929004Y-69755922D01*
X220929005Y-69755924D01*
X221008024Y-69903758D01*
X221056687Y-70064177D01*
X221073117Y-70231000D01*
X221056687Y-70397823D01*
X221008024Y-70558242D01*
X220967477Y-70634100D01*
X220929004Y-70706078D01*
X220822659Y-70835659D01*
X220693078Y-70942004D01*
X220693076Y-70942005D01*
X220545242Y-71021024D01*
X220384823Y-71069687D01*
X220259804Y-71082000D01*
X220176196Y-71082000D01*
X220051177Y-71069687D01*
X219890758Y-71021024D01*
X219742924Y-70942005D01*
X219742922Y-70942004D01*
X219613341Y-70835659D01*
X219506996Y-70706078D01*
X219468523Y-70634100D01*
X219427976Y-70558242D01*
X219379313Y-70397823D01*
X219362883Y-70231000D01*
X219379313Y-70064177D01*
X219427976Y-69903758D01*
X219506995Y-69755924D01*
X219506996Y-69755922D01*
X219613341Y-69626341D01*
X219742922Y-69519996D01*
X219823639Y-69476852D01*
X219890758Y-69440976D01*
X220051177Y-69392313D01*
X220176196Y-69380000D01*
X220259804Y-69380000D01*
X220384823Y-69392313D01*
X220384823Y-69392313D01*
G37*
G36*
X225546228Y-69412703D02*
G01*
X225701100Y-69476853D01*
X225840481Y-69569985D01*
X225959015Y-69688519D01*
X226052147Y-69827900D01*
X226116297Y-69982772D01*
X226149000Y-70147184D01*
X226149000Y-70314816D01*
X226116297Y-70479228D01*
X226052147Y-70634100D01*
X225959015Y-70773481D01*
X225840481Y-70892015D01*
X225701100Y-70985147D01*
X225546228Y-71049297D01*
X225381816Y-71082000D01*
X225214184Y-71082000D01*
X225049772Y-71049297D01*
X224894900Y-70985147D01*
X224755519Y-70892015D01*
X224636985Y-70773481D01*
X224543853Y-70634100D01*
X224479703Y-70479228D01*
X224447000Y-70314816D01*
X224447000Y-70147184D01*
X224479703Y-69982772D01*
X224543853Y-69827900D01*
X224636985Y-69688519D01*
X224755519Y-69569985D01*
X224894900Y-69476853D01*
X225049772Y-69412703D01*
X225214184Y-69380000D01*
X225381816Y-69380000D01*
X225546228Y-69412703D01*
X225546228Y-69412703D01*
G37*
G36*
X235624823Y-69392313D02*
G01*
X235785242Y-69440976D01*
X235852361Y-69476852D01*
X235933078Y-69519996D01*
X236062659Y-69626341D01*
X236169004Y-69755922D01*
X236169005Y-69755924D01*
X236248024Y-69903758D01*
X236296687Y-70064177D01*
X236313117Y-70231000D01*
X236296687Y-70397823D01*
X236248024Y-70558242D01*
X236207477Y-70634100D01*
X236169004Y-70706078D01*
X236062659Y-70835659D01*
X235933078Y-70942004D01*
X235933076Y-70942005D01*
X235785242Y-71021024D01*
X235624823Y-71069687D01*
X235499804Y-71082000D01*
X235416196Y-71082000D01*
X235291177Y-71069687D01*
X235130758Y-71021024D01*
X234982924Y-70942005D01*
X234982922Y-70942004D01*
X234853341Y-70835659D01*
X234746996Y-70706078D01*
X234708523Y-70634100D01*
X234667976Y-70558242D01*
X234619313Y-70397823D01*
X234602883Y-70231000D01*
X234619313Y-70064177D01*
X234667976Y-69903758D01*
X234746995Y-69755924D01*
X234746996Y-69755922D01*
X234853341Y-69626341D01*
X234982922Y-69519996D01*
X235063639Y-69476852D01*
X235130758Y-69440976D01*
X235291177Y-69392313D01*
X235416196Y-69380000D01*
X235499804Y-69380000D01*
X235624823Y-69392313D01*
X235624823Y-69392313D01*
G37*
G36*
X240786228Y-69412703D02*
G01*
X240941100Y-69476853D01*
X241080481Y-69569985D01*
X241199015Y-69688519D01*
X241292147Y-69827900D01*
X241356297Y-69982772D01*
X241389000Y-70147184D01*
X241389000Y-70314816D01*
X241356297Y-70479228D01*
X241292147Y-70634100D01*
X241199015Y-70773481D01*
X241080481Y-70892015D01*
X240941100Y-70985147D01*
X240786228Y-71049297D01*
X240621816Y-71082000D01*
X240454184Y-71082000D01*
X240289772Y-71049297D01*
X240134900Y-70985147D01*
X239995519Y-70892015D01*
X239876985Y-70773481D01*
X239783853Y-70634100D01*
X239719703Y-70479228D01*
X239687000Y-70314816D01*
X239687000Y-70147184D01*
X239719703Y-69982772D01*
X239783853Y-69827900D01*
X239876985Y-69688519D01*
X239995519Y-69569985D01*
X240134900Y-69476853D01*
X240289772Y-69412703D01*
X240454184Y-69380000D01*
X240621816Y-69380000D01*
X240786228Y-69412703D01*
X240786228Y-69412703D01*
G37*
G36*
X233340228Y-69412703D02*
G01*
X233495100Y-69476853D01*
X233634481Y-69569985D01*
X233753015Y-69688519D01*
X233846147Y-69827900D01*
X233910297Y-69982772D01*
X233943000Y-70147184D01*
X233943000Y-70314816D01*
X233910297Y-70479228D01*
X233846147Y-70634100D01*
X233753015Y-70773481D01*
X233634481Y-70892015D01*
X233495100Y-70985147D01*
X233340228Y-71049297D01*
X233175816Y-71082000D01*
X233008184Y-71082000D01*
X232843772Y-71049297D01*
X232688900Y-70985147D01*
X232549519Y-70892015D01*
X232430985Y-70773481D01*
X232337853Y-70634100D01*
X232273703Y-70479228D01*
X232241000Y-70314816D01*
X232241000Y-70147184D01*
X232273703Y-69982772D01*
X232337853Y-69827900D01*
X232430985Y-69688519D01*
X232549519Y-69569985D01*
X232688900Y-69476853D01*
X232843772Y-69412703D01*
X233008184Y-69380000D01*
X233175816Y-69380000D01*
X233340228Y-69412703D01*
X233340228Y-69412703D01*
G37*
G36*
X228340228Y-69412703D02*
G01*
X228495100Y-69476853D01*
X228634481Y-69569985D01*
X228753015Y-69688519D01*
X228846147Y-69827900D01*
X228910297Y-69982772D01*
X228943000Y-70147184D01*
X228943000Y-70314816D01*
X228910297Y-70479228D01*
X228846147Y-70634100D01*
X228753015Y-70773481D01*
X228634481Y-70892015D01*
X228495100Y-70985147D01*
X228340228Y-71049297D01*
X228175816Y-71082000D01*
X228008184Y-71082000D01*
X227843772Y-71049297D01*
X227688900Y-70985147D01*
X227549519Y-70892015D01*
X227430985Y-70773481D01*
X227337853Y-70634100D01*
X227273703Y-70479228D01*
X227241000Y-70314816D01*
X227241000Y-70147184D01*
X227273703Y-69982772D01*
X227337853Y-69827900D01*
X227430985Y-69688519D01*
X227549519Y-69569985D01*
X227688900Y-69476853D01*
X227843772Y-69412703D01*
X228008184Y-69380000D01*
X228175816Y-69380000D01*
X228340228Y-69412703D01*
X228340228Y-69412703D01*
G37*
G36*
X227115823Y-66471313D02*
G01*
X227276242Y-66519976D01*
X227408906Y-66590886D01*
X227424078Y-66598996D01*
X227553659Y-66705341D01*
X227660004Y-66834922D01*
X227660005Y-66834924D01*
X227739024Y-66982758D01*
X227787687Y-67143177D01*
X227804117Y-67310000D01*
X227787687Y-67476823D01*
X227739024Y-67637242D01*
X227668114Y-67769906D01*
X227660004Y-67785078D01*
X227553659Y-67914659D01*
X227424078Y-68021004D01*
X227424076Y-68021005D01*
X227276242Y-68100024D01*
X227115823Y-68148687D01*
X226990804Y-68161000D01*
X226907196Y-68161000D01*
X226782177Y-68148687D01*
X226621758Y-68100024D01*
X226473924Y-68021005D01*
X226473922Y-68021004D01*
X226344341Y-67914659D01*
X226237996Y-67785078D01*
X226229886Y-67769906D01*
X226158976Y-67637242D01*
X226110313Y-67476823D01*
X226093883Y-67310000D01*
X226110313Y-67143177D01*
X226158976Y-66982758D01*
X226237995Y-66834924D01*
X226237996Y-66834922D01*
X226344341Y-66705341D01*
X226473922Y-66598996D01*
X226489094Y-66590886D01*
X226621758Y-66519976D01*
X226782177Y-66471313D01*
X226907196Y-66459000D01*
X226990804Y-66459000D01*
X227115823Y-66471313D01*
X227115823Y-66471313D01*
G37*
G36*
X225006000Y-68161000D02*
G01*
X223304000Y-68161000D01*
X223304000Y-66459000D01*
X225006000Y-66459000D01*
X225006000Y-68161000D01*
X225006000Y-68161000D01*
G37*
G36*
X206851254Y-60272818D02*
G01*
X207224511Y-60427426D01*
X207224513Y-60427427D01*
X207560436Y-60651884D01*
X207846116Y-60937564D01*
X208070574Y-61273489D01*
X208225182Y-61646746D01*
X208304000Y-62042993D01*
X208304000Y-62447007D01*
X208225182Y-62843254D01*
X208070574Y-63216511D01*
X208070573Y-63216513D01*
X207846116Y-63552436D01*
X207560436Y-63838116D01*
X207224513Y-64062573D01*
X207224512Y-64062574D01*
X207224511Y-64062574D01*
X206851254Y-64217182D01*
X206455007Y-64296000D01*
X206050993Y-64296000D01*
X205654746Y-64217182D01*
X205281489Y-64062574D01*
X205281488Y-64062574D01*
X205281487Y-64062573D01*
X204945564Y-63838116D01*
X204659884Y-63552436D01*
X204435427Y-63216513D01*
X204435426Y-63216511D01*
X204280818Y-62843254D01*
X204202000Y-62447007D01*
X204202000Y-62042993D01*
X204280818Y-61646746D01*
X204435426Y-61273489D01*
X204659884Y-60937564D01*
X204945564Y-60651884D01*
X205281487Y-60427427D01*
X205281489Y-60427426D01*
X205654746Y-60272818D01*
X206050993Y-60194000D01*
X206455007Y-60194000D01*
X206851254Y-60272818D01*
X206851254Y-60272818D01*
G37*
G36*
X240416254Y-60272818D02*
G01*
X240789511Y-60427426D01*
X240789513Y-60427427D01*
X241125436Y-60651884D01*
X241411116Y-60937564D01*
X241635574Y-61273489D01*
X241790182Y-61646746D01*
X241869000Y-62042993D01*
X241869000Y-62447007D01*
X241790182Y-62843254D01*
X241635574Y-63216511D01*
X241635573Y-63216513D01*
X241411116Y-63552436D01*
X241125436Y-63838116D01*
X240789513Y-64062573D01*
X240789512Y-64062574D01*
X240789511Y-64062574D01*
X240416254Y-64217182D01*
X240020007Y-64296000D01*
X239615993Y-64296000D01*
X239219746Y-64217182D01*
X238846489Y-64062574D01*
X238846488Y-64062574D01*
X238846487Y-64062573D01*
X238510564Y-63838116D01*
X238224884Y-63552436D01*
X238000427Y-63216513D01*
X238000426Y-63216511D01*
X237845818Y-62843254D01*
X237767000Y-62447007D01*
X237767000Y-62042993D01*
X237845818Y-61646746D01*
X238000426Y-61273489D01*
X238224884Y-60937564D01*
X238510564Y-60651884D01*
X238846487Y-60427427D01*
X238846489Y-60427426D01*
X239219746Y-60272818D01*
X239615993Y-60194000D01*
X240020007Y-60194000D01*
X240416254Y-60272818D01*
X240416254Y-60272818D01*
G37*
G36*
X215651254Y-60272818D02*
G01*
X216024511Y-60427426D01*
X216024513Y-60427427D01*
X216360436Y-60651884D01*
X216646116Y-60937564D01*
X216870574Y-61273489D01*
X217025182Y-61646746D01*
X217104000Y-62042993D01*
X217104000Y-62447007D01*
X217025182Y-62843254D01*
X216870574Y-63216511D01*
X216870573Y-63216513D01*
X216646116Y-63552436D01*
X216360436Y-63838116D01*
X216024513Y-64062573D01*
X216024512Y-64062574D01*
X216024511Y-64062574D01*
X215651254Y-64217182D01*
X215255007Y-64296000D01*
X214850993Y-64296000D01*
X214454746Y-64217182D01*
X214081489Y-64062574D01*
X214081488Y-64062574D01*
X214081487Y-64062573D01*
X213745564Y-63838116D01*
X213459884Y-63552436D01*
X213235427Y-63216513D01*
X213235426Y-63216511D01*
X213080818Y-62843254D01*
X213002000Y-62447007D01*
X213002000Y-62042993D01*
X213080818Y-61646746D01*
X213235426Y-61273489D01*
X213459884Y-60937564D01*
X213745564Y-60651884D01*
X214081487Y-60427427D01*
X214081489Y-60427426D01*
X214454746Y-60272818D01*
X214850993Y-60194000D01*
X215255007Y-60194000D01*
X215651254Y-60272818D01*
X215651254Y-60272818D01*
G37*
G36*
X231616254Y-60272818D02*
G01*
X231989511Y-60427426D01*
X231989513Y-60427427D01*
X232325436Y-60651884D01*
X232611116Y-60937564D01*
X232835574Y-61273489D01*
X232990182Y-61646746D01*
X233069000Y-62042993D01*
X233069000Y-62447007D01*
X232990182Y-62843254D01*
X232835574Y-63216511D01*
X232835573Y-63216513D01*
X232611116Y-63552436D01*
X232325436Y-63838116D01*
X231989513Y-64062573D01*
X231989512Y-64062574D01*
X231989511Y-64062574D01*
X231616254Y-64217182D01*
X231220007Y-64296000D01*
X230815993Y-64296000D01*
X230419746Y-64217182D01*
X230046489Y-64062574D01*
X230046488Y-64062574D01*
X230046487Y-64062573D01*
X229710564Y-63838116D01*
X229424884Y-63552436D01*
X229200427Y-63216513D01*
X229200426Y-63216511D01*
X229045818Y-62843254D01*
X228967000Y-62447007D01*
X228967000Y-62042993D01*
X229045818Y-61646746D01*
X229200426Y-61273489D01*
X229424884Y-60937564D01*
X229710564Y-60651884D01*
X230046487Y-60427427D01*
X230046489Y-60427426D01*
X230419746Y-60272818D01*
X230815993Y-60194000D01*
X231220007Y-60194000D01*
X231616254Y-60272818D01*
X231616254Y-60272818D01*
G37*
G36*
X224321823Y-58851313D02*
G01*
X224482242Y-58899976D01*
X224523874Y-58922229D01*
X224630078Y-58978996D01*
X224759659Y-59085341D01*
X224866004Y-59214922D01*
X224866005Y-59214924D01*
X224945024Y-59362758D01*
X224993687Y-59523177D01*
X225010117Y-59690000D01*
X224993687Y-59856823D01*
X224945024Y-60017242D01*
X224874114Y-60149906D01*
X224866004Y-60165078D01*
X224759659Y-60294659D01*
X224630078Y-60401004D01*
X224630076Y-60401005D01*
X224482242Y-60480024D01*
X224321823Y-60528687D01*
X224196804Y-60541000D01*
X224113196Y-60541000D01*
X223988177Y-60528687D01*
X223827758Y-60480024D01*
X223679924Y-60401005D01*
X223679922Y-60401004D01*
X223550341Y-60294659D01*
X223443996Y-60165078D01*
X223435886Y-60149906D01*
X223364976Y-60017242D01*
X223316313Y-59856823D01*
X223299883Y-59690000D01*
X223316313Y-59523177D01*
X223364976Y-59362758D01*
X223443995Y-59214924D01*
X223443996Y-59214922D01*
X223550341Y-59085341D01*
X223679922Y-58978996D01*
X223786126Y-58922229D01*
X223827758Y-58899976D01*
X223988177Y-58851313D01*
X224113196Y-58839000D01*
X224196804Y-58839000D01*
X224321823Y-58851313D01*
X224321823Y-58851313D01*
G37*
G36*
X227800000Y-60541000D02*
G01*
X226098000Y-60541000D01*
X226098000Y-58839000D01*
X227800000Y-58839000D01*
X227800000Y-60541000D01*
X227800000Y-60541000D01*
G37*
G36*
X220466228Y-57855703D02*
G01*
X220621100Y-57919853D01*
X220760481Y-58012985D01*
X220879015Y-58131519D01*
X220972147Y-58270900D01*
X221036297Y-58425772D01*
X221069000Y-58590184D01*
X221069000Y-58757816D01*
X221036297Y-58922228D01*
X220972147Y-59077100D01*
X220879015Y-59216481D01*
X220760481Y-59335015D01*
X220621100Y-59428147D01*
X220466228Y-59492297D01*
X220301816Y-59525000D01*
X220134184Y-59525000D01*
X219969772Y-59492297D01*
X219814900Y-59428147D01*
X219675519Y-59335015D01*
X219556985Y-59216481D01*
X219463853Y-59077100D01*
X219399703Y-58922228D01*
X219367000Y-58757816D01*
X219367000Y-58590184D01*
X219399703Y-58425772D01*
X219463853Y-58270900D01*
X219556985Y-58131519D01*
X219675519Y-58012985D01*
X219814900Y-57919853D01*
X219969772Y-57855703D01*
X220134184Y-57823000D01*
X220301816Y-57823000D01*
X220466228Y-57855703D01*
X220466228Y-57855703D01*
G37*
G36*
X223884442Y-55747518D02*
G01*
X223950627Y-55754037D01*
X224120466Y-55805557D01*
X224276991Y-55889222D01*
X224312729Y-55918552D01*
X224414186Y-56001814D01*
X224484723Y-56087765D01*
X224526778Y-56139009D01*
X224610443Y-56295534D01*
X224661963Y-56465373D01*
X224679359Y-56642000D01*
X224661963Y-56818627D01*
X224610443Y-56988466D01*
X224526778Y-57144991D01*
X224497448Y-57180729D01*
X224414186Y-57282186D01*
X224312729Y-57365448D01*
X224276991Y-57394778D01*
X224120466Y-57478443D01*
X223950627Y-57529963D01*
X223884442Y-57536482D01*
X223818260Y-57543000D01*
X223729740Y-57543000D01*
X223663558Y-57536482D01*
X223597373Y-57529963D01*
X223427534Y-57478443D01*
X223271009Y-57394778D01*
X223235271Y-57365448D01*
X223133814Y-57282186D01*
X223050552Y-57180729D01*
X223021222Y-57144991D01*
X222937557Y-56988466D01*
X222886037Y-56818627D01*
X222868641Y-56642000D01*
X222886037Y-56465373D01*
X222937557Y-56295534D01*
X223021222Y-56139009D01*
X223063277Y-56087765D01*
X223133814Y-56001814D01*
X223235271Y-55918552D01*
X223271009Y-55889222D01*
X223427534Y-55805557D01*
X223597373Y-55754037D01*
X223663558Y-55747518D01*
X223729740Y-55741000D01*
X223818260Y-55741000D01*
X223884442Y-55747518D01*
X223884442Y-55747518D01*
G37*
G36*
X226424442Y-55747518D02*
G01*
X226490627Y-55754037D01*
X226660466Y-55805557D01*
X226816991Y-55889222D01*
X226852729Y-55918552D01*
X226954186Y-56001814D01*
X227024723Y-56087765D01*
X227066778Y-56139009D01*
X227150443Y-56295534D01*
X227201963Y-56465373D01*
X227219359Y-56642000D01*
X227201963Y-56818627D01*
X227150443Y-56988466D01*
X227066778Y-57144991D01*
X227037448Y-57180729D01*
X226954186Y-57282186D01*
X226852729Y-57365448D01*
X226816991Y-57394778D01*
X226660466Y-57478443D01*
X226490627Y-57529963D01*
X226424442Y-57536482D01*
X226358260Y-57543000D01*
X226269740Y-57543000D01*
X226203558Y-57536482D01*
X226137373Y-57529963D01*
X225967534Y-57478443D01*
X225811009Y-57394778D01*
X225775271Y-57365448D01*
X225673814Y-57282186D01*
X225590552Y-57180729D01*
X225561222Y-57144991D01*
X225477557Y-56988466D01*
X225426037Y-56818627D01*
X225408641Y-56642000D01*
X225426037Y-56465373D01*
X225477557Y-56295534D01*
X225561222Y-56139009D01*
X225603277Y-56087765D01*
X225673814Y-56001814D01*
X225775271Y-55918552D01*
X225811009Y-55889222D01*
X225967534Y-55805557D01*
X226137373Y-55754037D01*
X226203558Y-55747518D01*
X226269740Y-55741000D01*
X226358260Y-55741000D01*
X226424442Y-55747518D01*
X226424442Y-55747518D01*
G37*
G36*
X208430395Y-54330546D02*
G01*
X208603466Y-54402234D01*
X208649042Y-54432687D01*
X208759227Y-54506310D01*
X208891690Y-54638773D01*
X208891691Y-54638775D01*
X208995766Y-54794534D01*
X209067454Y-54967605D01*
X209104000Y-55151333D01*
X209104000Y-55338667D01*
X209067454Y-55522395D01*
X208995766Y-55695466D01*
X208995765Y-55695467D01*
X208891690Y-55851227D01*
X208759227Y-55983690D01*
X208732102Y-56001814D01*
X208603466Y-56087766D01*
X208430395Y-56159454D01*
X208246667Y-56196000D01*
X208059333Y-56196000D01*
X207875605Y-56159454D01*
X207702534Y-56087766D01*
X207573898Y-56001814D01*
X207546773Y-55983690D01*
X207414310Y-55851227D01*
X207310235Y-55695467D01*
X207310234Y-55695466D01*
X207238546Y-55522395D01*
X207202000Y-55338667D01*
X207202000Y-55151333D01*
X207238546Y-54967605D01*
X207310234Y-54794534D01*
X207414309Y-54638775D01*
X207414310Y-54638773D01*
X207546773Y-54506310D01*
X207656958Y-54432687D01*
X207702534Y-54402234D01*
X207875605Y-54330546D01*
X208059333Y-54294000D01*
X208246667Y-54294000D01*
X208430395Y-54330546D01*
X208430395Y-54330546D01*
G37*
G36*
X233195395Y-54330546D02*
G01*
X233368466Y-54402234D01*
X233414042Y-54432687D01*
X233524227Y-54506310D01*
X233656690Y-54638773D01*
X233656691Y-54638775D01*
X233760766Y-54794534D01*
X233832454Y-54967605D01*
X233869000Y-55151333D01*
X233869000Y-55338667D01*
X233832454Y-55522395D01*
X233760766Y-55695466D01*
X233760765Y-55695467D01*
X233656690Y-55851227D01*
X233524227Y-55983690D01*
X233497102Y-56001814D01*
X233368466Y-56087766D01*
X233195395Y-56159454D01*
X233011667Y-56196000D01*
X232824333Y-56196000D01*
X232640605Y-56159454D01*
X232467534Y-56087766D01*
X232338898Y-56001814D01*
X232311773Y-55983690D01*
X232179310Y-55851227D01*
X232075235Y-55695467D01*
X232075234Y-55695466D01*
X232003546Y-55522395D01*
X231967000Y-55338667D01*
X231967000Y-55151333D01*
X232003546Y-54967605D01*
X232075234Y-54794534D01*
X232179309Y-54638775D01*
X232179310Y-54638773D01*
X232311773Y-54506310D01*
X232421958Y-54432687D01*
X232467534Y-54402234D01*
X232640605Y-54330546D01*
X232824333Y-54294000D01*
X233011667Y-54294000D01*
X233195395Y-54330546D01*
X233195395Y-54330546D01*
G37*
G36*
X235695395Y-54330546D02*
G01*
X235868466Y-54402234D01*
X235914042Y-54432687D01*
X236024227Y-54506310D01*
X236156690Y-54638773D01*
X236156691Y-54638775D01*
X236260766Y-54794534D01*
X236332454Y-54967605D01*
X236369000Y-55151333D01*
X236369000Y-55338667D01*
X236332454Y-55522395D01*
X236260766Y-55695466D01*
X236260765Y-55695467D01*
X236156690Y-55851227D01*
X236024227Y-55983690D01*
X235997102Y-56001814D01*
X235868466Y-56087766D01*
X235695395Y-56159454D01*
X235511667Y-56196000D01*
X235324333Y-56196000D01*
X235140605Y-56159454D01*
X234967534Y-56087766D01*
X234838898Y-56001814D01*
X234811773Y-55983690D01*
X234679310Y-55851227D01*
X234575235Y-55695467D01*
X234575234Y-55695466D01*
X234503546Y-55522395D01*
X234467000Y-55338667D01*
X234467000Y-55151333D01*
X234503546Y-54967605D01*
X234575234Y-54794534D01*
X234679309Y-54638775D01*
X234679310Y-54638773D01*
X234811773Y-54506310D01*
X234921958Y-54432687D01*
X234967534Y-54402234D01*
X235140605Y-54330546D01*
X235324333Y-54294000D01*
X235511667Y-54294000D01*
X235695395Y-54330546D01*
X235695395Y-54330546D01*
G37*
G36*
X238195395Y-54330546D02*
G01*
X238368466Y-54402234D01*
X238414042Y-54432687D01*
X238524227Y-54506310D01*
X238656690Y-54638773D01*
X238656691Y-54638775D01*
X238760766Y-54794534D01*
X238832454Y-54967605D01*
X238869000Y-55151333D01*
X238869000Y-55338667D01*
X238832454Y-55522395D01*
X238760766Y-55695466D01*
X238760765Y-55695467D01*
X238656690Y-55851227D01*
X238524227Y-55983690D01*
X238497102Y-56001814D01*
X238368466Y-56087766D01*
X238195395Y-56159454D01*
X238011667Y-56196000D01*
X237824333Y-56196000D01*
X237640605Y-56159454D01*
X237467534Y-56087766D01*
X237338898Y-56001814D01*
X237311773Y-55983690D01*
X237179310Y-55851227D01*
X237075235Y-55695467D01*
X237075234Y-55695466D01*
X237003546Y-55522395D01*
X236967000Y-55338667D01*
X236967000Y-55151333D01*
X237003546Y-54967605D01*
X237075234Y-54794534D01*
X237179309Y-54638775D01*
X237179310Y-54638773D01*
X237311773Y-54506310D01*
X237421958Y-54432687D01*
X237467534Y-54402234D01*
X237640605Y-54330546D01*
X237824333Y-54294000D01*
X238011667Y-54294000D01*
X238195395Y-54330546D01*
X238195395Y-54330546D01*
G37*
G36*
X213430395Y-54330546D02*
G01*
X213603466Y-54402234D01*
X213649042Y-54432687D01*
X213759227Y-54506310D01*
X213891690Y-54638773D01*
X213891691Y-54638775D01*
X213995766Y-54794534D01*
X214067454Y-54967605D01*
X214104000Y-55151333D01*
X214104000Y-55338667D01*
X214067454Y-55522395D01*
X213995766Y-55695466D01*
X213995765Y-55695467D01*
X213891690Y-55851227D01*
X213759227Y-55983690D01*
X213732102Y-56001814D01*
X213603466Y-56087766D01*
X213430395Y-56159454D01*
X213246667Y-56196000D01*
X213059333Y-56196000D01*
X212875605Y-56159454D01*
X212702534Y-56087766D01*
X212573898Y-56001814D01*
X212546773Y-55983690D01*
X212414310Y-55851227D01*
X212310235Y-55695467D01*
X212310234Y-55695466D01*
X212238546Y-55522395D01*
X212202000Y-55338667D01*
X212202000Y-55151333D01*
X212238546Y-54967605D01*
X212310234Y-54794534D01*
X212414309Y-54638775D01*
X212414310Y-54638773D01*
X212546773Y-54506310D01*
X212656958Y-54432687D01*
X212702534Y-54402234D01*
X212875605Y-54330546D01*
X213059333Y-54294000D01*
X213246667Y-54294000D01*
X213430395Y-54330546D01*
X213430395Y-54330546D01*
G37*
G36*
X210930395Y-54330546D02*
G01*
X211103466Y-54402234D01*
X211149042Y-54432687D01*
X211259227Y-54506310D01*
X211391690Y-54638773D01*
X211391691Y-54638775D01*
X211495766Y-54794534D01*
X211567454Y-54967605D01*
X211604000Y-55151333D01*
X211604000Y-55338667D01*
X211567454Y-55522395D01*
X211495766Y-55695466D01*
X211495765Y-55695467D01*
X211391690Y-55851227D01*
X211259227Y-55983690D01*
X211232102Y-56001814D01*
X211103466Y-56087766D01*
X210930395Y-56159454D01*
X210746667Y-56196000D01*
X210559333Y-56196000D01*
X210375605Y-56159454D01*
X210202534Y-56087766D01*
X210073898Y-56001814D01*
X210046773Y-55983690D01*
X209914310Y-55851227D01*
X209810235Y-55695467D01*
X209810234Y-55695466D01*
X209738546Y-55522395D01*
X209702000Y-55338667D01*
X209702000Y-55151333D01*
X209738546Y-54967605D01*
X209810234Y-54794534D01*
X209914309Y-54638775D01*
X209914310Y-54638773D01*
X210046773Y-54506310D01*
X210156958Y-54432687D01*
X210202534Y-54402234D01*
X210375605Y-54330546D01*
X210559333Y-54294000D01*
X210746667Y-54294000D01*
X210930395Y-54330546D01*
X210930395Y-54330546D01*
G37*
G36*
X223884442Y-53207518D02*
G01*
X223950627Y-53214037D01*
X224120466Y-53265557D01*
X224276991Y-53349222D01*
X224312729Y-53378552D01*
X224414186Y-53461814D01*
X224497448Y-53563271D01*
X224526778Y-53599009D01*
X224610443Y-53755534D01*
X224661963Y-53925373D01*
X224679359Y-54102000D01*
X224661963Y-54278627D01*
X224615229Y-54432687D01*
X224610442Y-54448468D01*
X224568611Y-54526728D01*
X224526778Y-54604991D01*
X224499054Y-54638773D01*
X224414186Y-54742186D01*
X224312729Y-54825448D01*
X224276991Y-54854778D01*
X224120466Y-54938443D01*
X223950627Y-54989963D01*
X223884443Y-54996481D01*
X223818260Y-55003000D01*
X223729740Y-55003000D01*
X223663557Y-54996481D01*
X223597373Y-54989963D01*
X223427534Y-54938443D01*
X223271009Y-54854778D01*
X223235271Y-54825448D01*
X223133814Y-54742186D01*
X223048946Y-54638773D01*
X223021222Y-54604991D01*
X222979389Y-54526728D01*
X222937558Y-54448468D01*
X222932771Y-54432687D01*
X222886037Y-54278627D01*
X222868641Y-54102000D01*
X222886037Y-53925373D01*
X222937557Y-53755534D01*
X223021222Y-53599009D01*
X223050552Y-53563271D01*
X223133814Y-53461814D01*
X223235271Y-53378552D01*
X223271009Y-53349222D01*
X223427534Y-53265557D01*
X223597373Y-53214037D01*
X223663558Y-53207518D01*
X223729740Y-53201000D01*
X223818260Y-53201000D01*
X223884442Y-53207518D01*
X223884442Y-53207518D01*
G37*
G36*
X226424442Y-53207518D02*
G01*
X226490627Y-53214037D01*
X226660466Y-53265557D01*
X226816991Y-53349222D01*
X226852729Y-53378552D01*
X226954186Y-53461814D01*
X227037448Y-53563271D01*
X227066778Y-53599009D01*
X227150443Y-53755534D01*
X227201963Y-53925373D01*
X227219359Y-54102000D01*
X227201963Y-54278627D01*
X227155229Y-54432687D01*
X227150442Y-54448468D01*
X227108611Y-54526728D01*
X227066778Y-54604991D01*
X227039054Y-54638773D01*
X226954186Y-54742186D01*
X226852729Y-54825448D01*
X226816991Y-54854778D01*
X226660466Y-54938443D01*
X226490627Y-54989963D01*
X226424443Y-54996481D01*
X226358260Y-55003000D01*
X226269740Y-55003000D01*
X226203557Y-54996481D01*
X226137373Y-54989963D01*
X225967534Y-54938443D01*
X225811009Y-54854778D01*
X225775271Y-54825448D01*
X225673814Y-54742186D01*
X225588946Y-54638773D01*
X225561222Y-54604991D01*
X225519389Y-54526728D01*
X225477558Y-54448468D01*
X225472771Y-54432687D01*
X225426037Y-54278627D01*
X225408641Y-54102000D01*
X225426037Y-53925373D01*
X225477557Y-53755534D01*
X225561222Y-53599009D01*
X225590552Y-53563271D01*
X225673814Y-53461814D01*
X225775271Y-53378552D01*
X225811009Y-53349222D01*
X225967534Y-53265557D01*
X226137373Y-53214037D01*
X226203558Y-53207518D01*
X226269740Y-53201000D01*
X226358260Y-53201000D01*
X226424442Y-53207518D01*
X226424442Y-53207518D01*
G37*
G36*
X220384823Y-52755313D02*
G01*
X220545242Y-52803976D01*
X220677906Y-52874886D01*
X220693078Y-52882996D01*
X220822659Y-52989341D01*
X220929004Y-53118922D01*
X220929005Y-53118924D01*
X221008024Y-53266758D01*
X221056687Y-53427177D01*
X221073117Y-53594000D01*
X221056687Y-53760823D01*
X221008024Y-53921242D01*
X220937114Y-54053906D01*
X220929004Y-54069078D01*
X220822659Y-54198659D01*
X220693078Y-54305004D01*
X220693076Y-54305005D01*
X220545242Y-54384024D01*
X220384823Y-54432687D01*
X220259804Y-54445000D01*
X220176196Y-54445000D01*
X220051177Y-54432687D01*
X219890758Y-54384024D01*
X219742924Y-54305005D01*
X219742922Y-54305004D01*
X219613341Y-54198659D01*
X219506996Y-54069078D01*
X219498886Y-54053906D01*
X219427976Y-53921242D01*
X219379313Y-53760823D01*
X219362883Y-53594000D01*
X219379313Y-53427177D01*
X219427976Y-53266758D01*
X219506995Y-53118924D01*
X219506996Y-53118922D01*
X219613341Y-52989341D01*
X219742922Y-52882996D01*
X219758094Y-52874886D01*
X219890758Y-52803976D01*
X220051177Y-52755313D01*
X220176196Y-52743000D01*
X220259804Y-52743000D01*
X220384823Y-52755313D01*
X220384823Y-52755313D01*
G37*
G36*
X223884442Y-50667518D02*
G01*
X223950627Y-50674037D01*
X224120466Y-50725557D01*
X224276991Y-50809222D01*
X224312729Y-50838552D01*
X224414186Y-50921814D01*
X224497448Y-51023271D01*
X224526778Y-51059009D01*
X224610443Y-51215534D01*
X224661963Y-51385373D01*
X224679359Y-51562000D01*
X224661963Y-51738627D01*
X224610443Y-51908466D01*
X224526778Y-52064991D01*
X224497448Y-52100729D01*
X224414186Y-52202186D01*
X224312729Y-52285448D01*
X224276991Y-52314778D01*
X224120466Y-52398443D01*
X223950627Y-52449963D01*
X223884443Y-52456481D01*
X223818260Y-52463000D01*
X223729740Y-52463000D01*
X223663557Y-52456481D01*
X223597373Y-52449963D01*
X223427534Y-52398443D01*
X223271009Y-52314778D01*
X223235271Y-52285448D01*
X223133814Y-52202186D01*
X223050552Y-52100729D01*
X223021222Y-52064991D01*
X222937557Y-51908466D01*
X222886037Y-51738627D01*
X222868641Y-51562000D01*
X222886037Y-51385373D01*
X222937557Y-51215534D01*
X223021222Y-51059009D01*
X223050552Y-51023271D01*
X223133814Y-50921814D01*
X223235271Y-50838552D01*
X223271009Y-50809222D01*
X223427534Y-50725557D01*
X223597373Y-50674037D01*
X223663558Y-50667518D01*
X223729740Y-50661000D01*
X223818260Y-50661000D01*
X223884442Y-50667518D01*
X223884442Y-50667518D01*
G37*
G36*
X226424442Y-50667518D02*
G01*
X226490627Y-50674037D01*
X226660466Y-50725557D01*
X226816991Y-50809222D01*
X226852729Y-50838552D01*
X226954186Y-50921814D01*
X227037448Y-51023271D01*
X227066778Y-51059009D01*
X227150443Y-51215534D01*
X227201963Y-51385373D01*
X227219359Y-51562000D01*
X227201963Y-51738627D01*
X227150443Y-51908466D01*
X227066778Y-52064991D01*
X227037448Y-52100729D01*
X226954186Y-52202186D01*
X226852729Y-52285448D01*
X226816991Y-52314778D01*
X226660466Y-52398443D01*
X226490627Y-52449963D01*
X226424443Y-52456481D01*
X226358260Y-52463000D01*
X226269740Y-52463000D01*
X226203557Y-52456481D01*
X226137373Y-52449963D01*
X225967534Y-52398443D01*
X225811009Y-52314778D01*
X225775271Y-52285448D01*
X225673814Y-52202186D01*
X225590552Y-52100729D01*
X225561222Y-52064991D01*
X225477557Y-51908466D01*
X225426037Y-51738627D01*
X225408641Y-51562000D01*
X225426037Y-51385373D01*
X225477557Y-51215534D01*
X225561222Y-51059009D01*
X225590552Y-51023271D01*
X225673814Y-50921814D01*
X225775271Y-50838552D01*
X225811009Y-50809222D01*
X225967534Y-50725557D01*
X226137373Y-50674037D01*
X226203558Y-50667518D01*
X226269740Y-50661000D01*
X226358260Y-50661000D01*
X226424442Y-50667518D01*
X226424442Y-50667518D01*
G37*
G36*
X220466228Y-49981703D02*
G01*
X220621100Y-50045853D01*
X220760481Y-50138985D01*
X220879015Y-50257519D01*
X220972147Y-50396900D01*
X221036297Y-50551772D01*
X221069000Y-50716184D01*
X221069000Y-50883816D01*
X221036297Y-51048228D01*
X220972147Y-51203100D01*
X220879015Y-51342481D01*
X220760481Y-51461015D01*
X220621100Y-51554147D01*
X220466228Y-51618297D01*
X220301816Y-51651000D01*
X220134184Y-51651000D01*
X219969772Y-51618297D01*
X219814900Y-51554147D01*
X219675519Y-51461015D01*
X219556985Y-51342481D01*
X219463853Y-51203100D01*
X219399703Y-51048228D01*
X219367000Y-50883816D01*
X219367000Y-50716184D01*
X219399703Y-50551772D01*
X219463853Y-50396900D01*
X219556985Y-50257519D01*
X219675519Y-50138985D01*
X219814900Y-50045853D01*
X219969772Y-49981703D01*
X220134184Y-49949000D01*
X220301816Y-49949000D01*
X220466228Y-49981703D01*
X220466228Y-49981703D01*
G37*
G36*
X223884443Y-48127519D02*
G01*
X223950627Y-48134037D01*
X224120466Y-48185557D01*
X224276991Y-48269222D01*
X224312729Y-48298552D01*
X224414186Y-48381814D01*
X224461474Y-48439436D01*
X224526778Y-48519009D01*
X224610443Y-48675534D01*
X224661963Y-48845373D01*
X224679359Y-49022000D01*
X224661963Y-49198627D01*
X224610443Y-49368466D01*
X224526778Y-49524991D01*
X224497448Y-49560729D01*
X224414186Y-49662186D01*
X224312729Y-49745448D01*
X224276991Y-49774778D01*
X224120466Y-49858443D01*
X223950627Y-49909963D01*
X223884443Y-49916481D01*
X223818260Y-49923000D01*
X223729740Y-49923000D01*
X223663557Y-49916481D01*
X223597373Y-49909963D01*
X223427534Y-49858443D01*
X223271009Y-49774778D01*
X223235271Y-49745448D01*
X223133814Y-49662186D01*
X223050552Y-49560729D01*
X223021222Y-49524991D01*
X222937557Y-49368466D01*
X222886037Y-49198627D01*
X222868641Y-49022000D01*
X222886037Y-48845373D01*
X222937557Y-48675534D01*
X223021222Y-48519009D01*
X223086526Y-48439436D01*
X223133814Y-48381814D01*
X223235271Y-48298552D01*
X223271009Y-48269222D01*
X223427534Y-48185557D01*
X223597373Y-48134037D01*
X223663558Y-48127518D01*
X223729740Y-48121000D01*
X223818260Y-48121000D01*
X223884443Y-48127519D01*
X223884443Y-48127519D01*
G37*
G36*
X226424443Y-48127519D02*
G01*
X226490627Y-48134037D01*
X226660466Y-48185557D01*
X226816991Y-48269222D01*
X226852729Y-48298552D01*
X226954186Y-48381814D01*
X227001474Y-48439436D01*
X227066778Y-48519009D01*
X227150443Y-48675534D01*
X227201963Y-48845373D01*
X227219359Y-49022000D01*
X227201963Y-49198627D01*
X227150443Y-49368466D01*
X227066778Y-49524991D01*
X227037448Y-49560729D01*
X226954186Y-49662186D01*
X226852729Y-49745448D01*
X226816991Y-49774778D01*
X226660466Y-49858443D01*
X226490627Y-49909963D01*
X226424443Y-49916481D01*
X226358260Y-49923000D01*
X226269740Y-49923000D01*
X226203557Y-49916481D01*
X226137373Y-49909963D01*
X225967534Y-49858443D01*
X225811009Y-49774778D01*
X225775271Y-49745448D01*
X225673814Y-49662186D01*
X225590552Y-49560729D01*
X225561222Y-49524991D01*
X225477557Y-49368466D01*
X225426037Y-49198627D01*
X225408641Y-49022000D01*
X225426037Y-48845373D01*
X225477557Y-48675534D01*
X225561222Y-48519009D01*
X225626526Y-48439436D01*
X225673814Y-48381814D01*
X225775271Y-48298552D01*
X225811009Y-48269222D01*
X225967534Y-48185557D01*
X226137373Y-48134037D01*
X226203558Y-48127518D01*
X226269740Y-48121000D01*
X226358260Y-48121000D01*
X226424443Y-48127519D01*
X226424443Y-48127519D01*
G37*
G36*
X240416254Y-45159818D02*
G01*
X240789511Y-45314426D01*
X240789513Y-45314427D01*
X241125436Y-45538884D01*
X241411116Y-45824564D01*
X241618899Y-46135532D01*
X241635574Y-46160489D01*
X241790182Y-46533746D01*
X241869000Y-46929993D01*
X241869000Y-47334007D01*
X241790182Y-47730254D01*
X241635574Y-48103511D01*
X241635573Y-48103513D01*
X241411116Y-48439436D01*
X241125436Y-48725116D01*
X240789513Y-48949573D01*
X240789512Y-48949574D01*
X240789511Y-48949574D01*
X240416254Y-49104182D01*
X240020007Y-49183000D01*
X239615993Y-49183000D01*
X239219746Y-49104182D01*
X238846489Y-48949574D01*
X238846488Y-48949574D01*
X238846487Y-48949573D01*
X238510564Y-48725116D01*
X238224884Y-48439436D01*
X238000427Y-48103513D01*
X238000426Y-48103511D01*
X237845818Y-47730254D01*
X237767000Y-47334007D01*
X237767000Y-46929993D01*
X237845818Y-46533746D01*
X238000426Y-46160489D01*
X238017102Y-46135532D01*
X238224884Y-45824564D01*
X238510564Y-45538884D01*
X238846487Y-45314427D01*
X238846489Y-45314426D01*
X239219746Y-45159818D01*
X239615993Y-45081000D01*
X240020007Y-45081000D01*
X240416254Y-45159818D01*
X240416254Y-45159818D01*
G37*
G36*
X206851254Y-45159818D02*
G01*
X207224511Y-45314426D01*
X207224513Y-45314427D01*
X207560436Y-45538884D01*
X207846116Y-45824564D01*
X208053899Y-46135532D01*
X208070574Y-46160489D01*
X208225182Y-46533746D01*
X208304000Y-46929993D01*
X208304000Y-47334007D01*
X208225182Y-47730254D01*
X208070574Y-48103511D01*
X208070573Y-48103513D01*
X207846116Y-48439436D01*
X207560436Y-48725116D01*
X207224513Y-48949573D01*
X207224512Y-48949574D01*
X207224511Y-48949574D01*
X206851254Y-49104182D01*
X206455007Y-49183000D01*
X206050993Y-49183000D01*
X205654746Y-49104182D01*
X205281489Y-48949574D01*
X205281488Y-48949574D01*
X205281487Y-48949573D01*
X204945564Y-48725116D01*
X204659884Y-48439436D01*
X204435427Y-48103513D01*
X204435426Y-48103511D01*
X204280818Y-47730254D01*
X204202000Y-47334007D01*
X204202000Y-46929993D01*
X204280818Y-46533746D01*
X204435426Y-46160489D01*
X204452102Y-46135532D01*
X204659884Y-45824564D01*
X204945564Y-45538884D01*
X205281487Y-45314427D01*
X205281489Y-45314426D01*
X205654746Y-45159818D01*
X206050993Y-45081000D01*
X206455007Y-45081000D01*
X206851254Y-45159818D01*
X206851254Y-45159818D01*
G37*
G36*
X215651254Y-45159818D02*
G01*
X216024511Y-45314426D01*
X216024513Y-45314427D01*
X216360436Y-45538884D01*
X216646116Y-45824564D01*
X216853899Y-46135532D01*
X216870574Y-46160489D01*
X217025182Y-46533746D01*
X217104000Y-46929993D01*
X217104000Y-47334007D01*
X217025182Y-47730254D01*
X216870574Y-48103511D01*
X216870573Y-48103513D01*
X216646116Y-48439436D01*
X216360436Y-48725116D01*
X216024513Y-48949573D01*
X216024512Y-48949574D01*
X216024511Y-48949574D01*
X215651254Y-49104182D01*
X215255007Y-49183000D01*
X214850993Y-49183000D01*
X214454746Y-49104182D01*
X214081489Y-48949574D01*
X214081488Y-48949574D01*
X214081487Y-48949573D01*
X213745564Y-48725116D01*
X213459884Y-48439436D01*
X213235427Y-48103513D01*
X213235426Y-48103511D01*
X213080818Y-47730254D01*
X213002000Y-47334007D01*
X213002000Y-46929993D01*
X213080818Y-46533746D01*
X213235426Y-46160489D01*
X213252102Y-46135532D01*
X213459884Y-45824564D01*
X213745564Y-45538884D01*
X214081487Y-45314427D01*
X214081489Y-45314426D01*
X214454746Y-45159818D01*
X214850993Y-45081000D01*
X215255007Y-45081000D01*
X215651254Y-45159818D01*
X215651254Y-45159818D01*
G37*
G36*
X231616254Y-45159818D02*
G01*
X231989511Y-45314426D01*
X231989513Y-45314427D01*
X232325436Y-45538884D01*
X232611116Y-45824564D01*
X232818899Y-46135532D01*
X232835574Y-46160489D01*
X232990182Y-46533746D01*
X233069000Y-46929993D01*
X233069000Y-47334007D01*
X232990182Y-47730254D01*
X232835574Y-48103511D01*
X232835573Y-48103513D01*
X232611116Y-48439436D01*
X232325436Y-48725116D01*
X231989513Y-48949573D01*
X231989512Y-48949574D01*
X231989511Y-48949574D01*
X231616254Y-49104182D01*
X231220007Y-49183000D01*
X230815993Y-49183000D01*
X230419746Y-49104182D01*
X230046489Y-48949574D01*
X230046488Y-48949574D01*
X230046487Y-48949573D01*
X229710564Y-48725116D01*
X229424884Y-48439436D01*
X229200427Y-48103513D01*
X229200426Y-48103511D01*
X229045818Y-47730254D01*
X228967000Y-47334007D01*
X228967000Y-46929993D01*
X229045818Y-46533746D01*
X229200426Y-46160489D01*
X229217102Y-46135532D01*
X229424884Y-45824564D01*
X229710564Y-45538884D01*
X230046487Y-45314427D01*
X230046489Y-45314426D01*
X230419746Y-45159818D01*
X230815993Y-45081000D01*
X231220007Y-45081000D01*
X231616254Y-45159818D01*
X231616254Y-45159818D01*
G37*
G36*
X224675000Y-47383000D02*
G01*
X222873000Y-47383000D01*
X222873000Y-45581000D01*
X224675000Y-45581000D01*
X224675000Y-47383000D01*
X224675000Y-47383000D01*
G37*
G36*
X226424442Y-45587518D02*
G01*
X226490627Y-45594037D01*
X226660466Y-45645557D01*
X226816991Y-45729222D01*
X226852729Y-45758552D01*
X226954186Y-45841814D01*
X227037448Y-45943271D01*
X227066778Y-45979009D01*
X227150443Y-46135534D01*
X227201963Y-46305373D01*
X227219359Y-46482000D01*
X227201963Y-46658627D01*
X227150443Y-46828466D01*
X227066778Y-46984991D01*
X227037448Y-47020729D01*
X226954186Y-47122186D01*
X226852729Y-47205448D01*
X226816991Y-47234778D01*
X226660466Y-47318443D01*
X226490627Y-47369963D01*
X226424442Y-47376482D01*
X226358260Y-47383000D01*
X226269740Y-47383000D01*
X226203557Y-47376481D01*
X226137373Y-47369963D01*
X225967534Y-47318443D01*
X225811009Y-47234778D01*
X225775271Y-47205448D01*
X225673814Y-47122186D01*
X225590552Y-47020729D01*
X225561222Y-46984991D01*
X225477557Y-46828466D01*
X225426037Y-46658627D01*
X225408641Y-46482000D01*
X225426037Y-46305373D01*
X225477557Y-46135534D01*
X225561222Y-45979009D01*
X225590552Y-45943271D01*
X225673814Y-45841814D01*
X225775271Y-45758552D01*
X225811009Y-45729222D01*
X225967534Y-45645557D01*
X226137373Y-45594037D01*
X226203558Y-45587518D01*
X226269740Y-45581000D01*
X226358260Y-45581000D01*
X226424442Y-45587518D01*
X226424442Y-45587518D01*
G37*
G36*
X220384823Y-44881313D02*
G01*
X220545242Y-44929976D01*
X220677906Y-45000886D01*
X220693078Y-45008996D01*
X220822659Y-45115341D01*
X220929004Y-45244922D01*
X220929005Y-45244924D01*
X221008024Y-45392758D01*
X221056687Y-45553177D01*
X221073117Y-45720000D01*
X221056687Y-45886823D01*
X221008024Y-46047242D01*
X220960832Y-46135532D01*
X220929004Y-46195078D01*
X220822659Y-46324659D01*
X220693078Y-46431004D01*
X220693076Y-46431005D01*
X220545242Y-46510024D01*
X220384823Y-46558687D01*
X220259804Y-46571000D01*
X220176196Y-46571000D01*
X220051177Y-46558687D01*
X219890758Y-46510024D01*
X219742924Y-46431005D01*
X219742922Y-46431004D01*
X219613341Y-46324659D01*
X219506996Y-46195078D01*
X219475168Y-46135532D01*
X219427976Y-46047242D01*
X219379313Y-45886823D01*
X219362883Y-45720000D01*
X219379313Y-45553177D01*
X219427976Y-45392758D01*
X219506995Y-45244924D01*
X219506996Y-45244922D01*
X219613341Y-45115341D01*
X219742922Y-45008996D01*
X219758094Y-45000886D01*
X219890758Y-44929976D01*
X220051177Y-44881313D01*
X220176196Y-44869000D01*
X220259804Y-44869000D01*
X220384823Y-44881313D01*
X220384823Y-44881313D01*
G37*
G36*
X220003823Y-42341313D02*
G01*
X220164242Y-42389976D01*
X220296906Y-42460886D01*
X220312078Y-42468996D01*
X220441659Y-42575341D01*
X220548004Y-42704922D01*
X220548005Y-42704924D01*
X220627024Y-42852758D01*
X220675687Y-43013177D01*
X220692117Y-43180000D01*
X220675687Y-43346823D01*
X220627024Y-43507242D01*
X220556114Y-43639906D01*
X220548004Y-43655078D01*
X220441659Y-43784659D01*
X220312078Y-43891004D01*
X220312076Y-43891005D01*
X220164242Y-43970024D01*
X220003823Y-44018687D01*
X219878804Y-44031000D01*
X219795196Y-44031000D01*
X219670177Y-44018687D01*
X219509758Y-43970024D01*
X219361924Y-43891005D01*
X219361922Y-43891004D01*
X219232341Y-43784659D01*
X219125996Y-43655078D01*
X219117886Y-43639906D01*
X219046976Y-43507242D01*
X218998313Y-43346823D01*
X218981883Y-43180000D01*
X218998313Y-43013177D01*
X219046976Y-42852758D01*
X219125995Y-42704924D01*
X219125996Y-42704922D01*
X219232341Y-42575341D01*
X219361922Y-42468996D01*
X219377094Y-42460886D01*
X219509758Y-42389976D01*
X219670177Y-42341313D01*
X219795196Y-42329000D01*
X219878804Y-42329000D01*
X220003823Y-42341313D01*
X220003823Y-42341313D01*
G37*
G36*
X228308000Y-44031000D02*
G01*
X226606000Y-44031000D01*
X226606000Y-42329000D01*
X228308000Y-42329000D01*
X228308000Y-44031000D01*
X228308000Y-44031000D01*
G37*
G36*
X220688000Y-41110000D02*
G01*
X218986000Y-41110000D01*
X218986000Y-39408000D01*
X220688000Y-39408000D01*
X220688000Y-41110000D01*
X220688000Y-41110000D01*
G37*
G36*
X227623823Y-39420313D02*
G01*
X227784242Y-39468976D01*
X227890505Y-39525775D01*
X227932078Y-39547996D01*
X228061659Y-39654341D01*
X228168004Y-39783922D01*
X228168005Y-39783924D01*
X228247024Y-39931758D01*
X228295687Y-40092177D01*
X228312117Y-40259000D01*
X228295687Y-40425823D01*
X228295686Y-40425825D01*
X228248170Y-40582466D01*
X228247024Y-40586242D01*
X228176114Y-40718906D01*
X228168004Y-40734078D01*
X228061659Y-40863659D01*
X227932078Y-40970004D01*
X227932076Y-40970005D01*
X227784242Y-41049024D01*
X227623823Y-41097687D01*
X227498804Y-41110000D01*
X227415196Y-41110000D01*
X227290177Y-41097687D01*
X227129758Y-41049024D01*
X226981924Y-40970005D01*
X226981922Y-40970004D01*
X226852341Y-40863659D01*
X226745996Y-40734078D01*
X226737886Y-40718906D01*
X226666976Y-40586242D01*
X226665831Y-40582466D01*
X226618314Y-40425825D01*
X226618313Y-40425823D01*
X226601883Y-40259000D01*
X226618313Y-40092177D01*
X226666976Y-39931758D01*
X226745995Y-39783924D01*
X226745996Y-39783922D01*
X226852341Y-39654341D01*
X226981922Y-39547996D01*
X227023495Y-39525775D01*
X227129758Y-39468976D01*
X227290177Y-39420313D01*
X227415196Y-39408000D01*
X227498804Y-39408000D01*
X227623823Y-39420313D01*
X227623823Y-39420313D01*
G37*
G36*
X238195395Y-39217546D02*
G01*
X238368466Y-39289234D01*
X238368467Y-39289235D01*
X238524227Y-39393310D01*
X238656690Y-39525773D01*
X238656691Y-39525775D01*
X238760766Y-39681534D01*
X238832454Y-39854605D01*
X238869000Y-40038333D01*
X238869000Y-40225667D01*
X238832454Y-40409395D01*
X238760766Y-40582466D01*
X238760765Y-40582467D01*
X238656690Y-40738227D01*
X238524227Y-40870690D01*
X238445818Y-40923081D01*
X238368466Y-40974766D01*
X238195395Y-41046454D01*
X238011667Y-41083000D01*
X237824333Y-41083000D01*
X237640605Y-41046454D01*
X237467534Y-40974766D01*
X237390182Y-40923081D01*
X237311773Y-40870690D01*
X237179310Y-40738227D01*
X237075235Y-40582467D01*
X237075234Y-40582466D01*
X237003546Y-40409395D01*
X236967000Y-40225667D01*
X236967000Y-40038333D01*
X237003546Y-39854605D01*
X237075234Y-39681534D01*
X237179309Y-39525775D01*
X237179310Y-39525773D01*
X237311773Y-39393310D01*
X237467533Y-39289235D01*
X237467534Y-39289234D01*
X237640605Y-39217546D01*
X237824333Y-39181000D01*
X238011667Y-39181000D01*
X238195395Y-39217546D01*
X238195395Y-39217546D01*
G37*
G36*
X235695395Y-39217546D02*
G01*
X235868466Y-39289234D01*
X235868467Y-39289235D01*
X236024227Y-39393310D01*
X236156690Y-39525773D01*
X236156691Y-39525775D01*
X236260766Y-39681534D01*
X236332454Y-39854605D01*
X236369000Y-40038333D01*
X236369000Y-40225667D01*
X236332454Y-40409395D01*
X236260766Y-40582466D01*
X236260765Y-40582467D01*
X236156690Y-40738227D01*
X236024227Y-40870690D01*
X235945818Y-40923081D01*
X235868466Y-40974766D01*
X235695395Y-41046454D01*
X235511667Y-41083000D01*
X235324333Y-41083000D01*
X235140605Y-41046454D01*
X234967534Y-40974766D01*
X234890182Y-40923081D01*
X234811773Y-40870690D01*
X234679310Y-40738227D01*
X234575235Y-40582467D01*
X234575234Y-40582466D01*
X234503546Y-40409395D01*
X234467000Y-40225667D01*
X234467000Y-40038333D01*
X234503546Y-39854605D01*
X234575234Y-39681534D01*
X234679309Y-39525775D01*
X234679310Y-39525773D01*
X234811773Y-39393310D01*
X234967533Y-39289235D01*
X234967534Y-39289234D01*
X235140605Y-39217546D01*
X235324333Y-39181000D01*
X235511667Y-39181000D01*
X235695395Y-39217546D01*
X235695395Y-39217546D01*
G37*
G36*
X233195395Y-39217546D02*
G01*
X233368466Y-39289234D01*
X233368467Y-39289235D01*
X233524227Y-39393310D01*
X233656690Y-39525773D01*
X233656691Y-39525775D01*
X233760766Y-39681534D01*
X233832454Y-39854605D01*
X233869000Y-40038333D01*
X233869000Y-40225667D01*
X233832454Y-40409395D01*
X233760766Y-40582466D01*
X233760765Y-40582467D01*
X233656690Y-40738227D01*
X233524227Y-40870690D01*
X233445818Y-40923081D01*
X233368466Y-40974766D01*
X233195395Y-41046454D01*
X233011667Y-41083000D01*
X232824333Y-41083000D01*
X232640605Y-41046454D01*
X232467534Y-40974766D01*
X232390182Y-40923081D01*
X232311773Y-40870690D01*
X232179310Y-40738227D01*
X232075235Y-40582467D01*
X232075234Y-40582466D01*
X232003546Y-40409395D01*
X231967000Y-40225667D01*
X231967000Y-40038333D01*
X232003546Y-39854605D01*
X232075234Y-39681534D01*
X232179309Y-39525775D01*
X232179310Y-39525773D01*
X232311773Y-39393310D01*
X232467533Y-39289235D01*
X232467534Y-39289234D01*
X232640605Y-39217546D01*
X232824333Y-39181000D01*
X233011667Y-39181000D01*
X233195395Y-39217546D01*
X233195395Y-39217546D01*
G37*
G36*
X213430395Y-39217546D02*
G01*
X213603466Y-39289234D01*
X213603467Y-39289235D01*
X213759227Y-39393310D01*
X213891690Y-39525773D01*
X213891691Y-39525775D01*
X213995766Y-39681534D01*
X214067454Y-39854605D01*
X214104000Y-40038333D01*
X214104000Y-40225667D01*
X214067454Y-40409395D01*
X213995766Y-40582466D01*
X213995765Y-40582467D01*
X213891690Y-40738227D01*
X213759227Y-40870690D01*
X213680818Y-40923081D01*
X213603466Y-40974766D01*
X213430395Y-41046454D01*
X213246667Y-41083000D01*
X213059333Y-41083000D01*
X212875605Y-41046454D01*
X212702534Y-40974766D01*
X212625182Y-40923081D01*
X212546773Y-40870690D01*
X212414310Y-40738227D01*
X212310235Y-40582467D01*
X212310234Y-40582466D01*
X212238546Y-40409395D01*
X212202000Y-40225667D01*
X212202000Y-40038333D01*
X212238546Y-39854605D01*
X212310234Y-39681534D01*
X212414309Y-39525775D01*
X212414310Y-39525773D01*
X212546773Y-39393310D01*
X212702533Y-39289235D01*
X212702534Y-39289234D01*
X212875605Y-39217546D01*
X213059333Y-39181000D01*
X213246667Y-39181000D01*
X213430395Y-39217546D01*
X213430395Y-39217546D01*
G37*
G36*
X210930395Y-39217546D02*
G01*
X211103466Y-39289234D01*
X211103467Y-39289235D01*
X211259227Y-39393310D01*
X211391690Y-39525773D01*
X211391691Y-39525775D01*
X211495766Y-39681534D01*
X211567454Y-39854605D01*
X211604000Y-40038333D01*
X211604000Y-40225667D01*
X211567454Y-40409395D01*
X211495766Y-40582466D01*
X211495765Y-40582467D01*
X211391690Y-40738227D01*
X211259227Y-40870690D01*
X211180818Y-40923081D01*
X211103466Y-40974766D01*
X210930395Y-41046454D01*
X210746667Y-41083000D01*
X210559333Y-41083000D01*
X210375605Y-41046454D01*
X210202534Y-40974766D01*
X210125182Y-40923081D01*
X210046773Y-40870690D01*
X209914310Y-40738227D01*
X209810235Y-40582467D01*
X209810234Y-40582466D01*
X209738546Y-40409395D01*
X209702000Y-40225667D01*
X209702000Y-40038333D01*
X209738546Y-39854605D01*
X209810234Y-39681534D01*
X209914309Y-39525775D01*
X209914310Y-39525773D01*
X210046773Y-39393310D01*
X210202533Y-39289235D01*
X210202534Y-39289234D01*
X210375605Y-39217546D01*
X210559333Y-39181000D01*
X210746667Y-39181000D01*
X210930395Y-39217546D01*
X210930395Y-39217546D01*
G37*
G36*
X208430395Y-39217546D02*
G01*
X208603466Y-39289234D01*
X208603467Y-39289235D01*
X208759227Y-39393310D01*
X208891690Y-39525773D01*
X208891691Y-39525775D01*
X208995766Y-39681534D01*
X209067454Y-39854605D01*
X209104000Y-40038333D01*
X209104000Y-40225667D01*
X209067454Y-40409395D01*
X208995766Y-40582466D01*
X208995765Y-40582467D01*
X208891690Y-40738227D01*
X208759227Y-40870690D01*
X208680818Y-40923081D01*
X208603466Y-40974766D01*
X208430395Y-41046454D01*
X208246667Y-41083000D01*
X208059333Y-41083000D01*
X207875605Y-41046454D01*
X207702534Y-40974766D01*
X207625182Y-40923081D01*
X207546773Y-40870690D01*
X207414310Y-40738227D01*
X207310235Y-40582467D01*
X207310234Y-40582466D01*
X207238546Y-40409395D01*
X207202000Y-40225667D01*
X207202000Y-40038333D01*
X207238546Y-39854605D01*
X207310234Y-39681534D01*
X207414309Y-39525775D01*
X207414310Y-39525773D01*
X207546773Y-39393310D01*
X207702533Y-39289235D01*
X207702534Y-39289234D01*
X207875605Y-39217546D01*
X208059333Y-39181000D01*
X208246667Y-39181000D01*
X208430395Y-39217546D01*
X208430395Y-39217546D01*
G37*
M02*
