G04 #@! TF.GenerationSoftware,KiCad,Pcbnew,(5.0.1)-rc2*
G04 #@! TF.CreationDate,2018-12-09T02:21:17-05:00*
G04 #@! TF.ProjectId,lfo,6C666F2E6B696361645F706362000000,rev?*
G04 #@! TF.SameCoordinates,Original*
G04 #@! TF.FileFunction,Legend,Top*
G04 #@! TF.FilePolarity,Positive*
%FSLAX46Y46*%
G04 Gerber Fmt 4.6, Leading zero omitted, Abs format (unit mm)*
G04 Created by KiCad (PCBNEW (5.0.1)-rc2) date 12/9/2018 2:21:17 AM*
%MOMM*%
%LPD*%
G01*
G04 APERTURE LIST*
%ADD10C,0.300000*%
%ADD11C,0.120000*%
%ADD12C,0.127000*%
%ADD13C,0.150000*%
%ADD14C,0.050000*%
G04 APERTURE END LIST*
D10*
X114769428Y-49470571D02*
X115769428Y-50970571D01*
X115769428Y-49470571D02*
X114769428Y-50970571D01*
X116840857Y-50184857D02*
X117055142Y-50256285D01*
X117126571Y-50327714D01*
X117198000Y-50470571D01*
X117198000Y-50684857D01*
X117126571Y-50827714D01*
X117055142Y-50899142D01*
X116912285Y-50970571D01*
X116340857Y-50970571D01*
X116340857Y-49470571D01*
X116840857Y-49470571D01*
X116983714Y-49542000D01*
X117055142Y-49613428D01*
X117126571Y-49756285D01*
X117126571Y-49899142D01*
X117055142Y-50042000D01*
X116983714Y-50113428D01*
X116840857Y-50184857D01*
X116340857Y-50184857D01*
X117840857Y-50399142D02*
X118983714Y-50399142D01*
X120483714Y-50970571D02*
X119626571Y-50970571D01*
X120055142Y-50970571D02*
X120055142Y-49470571D01*
X119912285Y-49684857D01*
X119769428Y-49827714D01*
X119626571Y-49899142D01*
X121412285Y-49470571D02*
X121555142Y-49470571D01*
X121698000Y-49542000D01*
X121769428Y-49613428D01*
X121840857Y-49756285D01*
X121912285Y-50042000D01*
X121912285Y-50399142D01*
X121840857Y-50684857D01*
X121769428Y-50827714D01*
X121698000Y-50899142D01*
X121555142Y-50970571D01*
X121412285Y-50970571D01*
X121269428Y-50899142D01*
X121198000Y-50827714D01*
X121126571Y-50684857D01*
X121055142Y-50399142D01*
X121055142Y-50042000D01*
X121126571Y-49756285D01*
X121198000Y-49613428D01*
X121269428Y-49542000D01*
X121412285Y-49470571D01*
X123198000Y-49970571D02*
X123198000Y-50970571D01*
X122840857Y-49399142D02*
X122483714Y-50470571D01*
X123412285Y-50470571D01*
X124269428Y-49470571D02*
X124412285Y-49470571D01*
X124555142Y-49542000D01*
X124626571Y-49613428D01*
X124698000Y-49756285D01*
X124769428Y-50042000D01*
X124769428Y-50399142D01*
X124698000Y-50684857D01*
X124626571Y-50827714D01*
X124555142Y-50899142D01*
X124412285Y-50970571D01*
X124269428Y-50970571D01*
X124126571Y-50899142D01*
X124055142Y-50827714D01*
X123983714Y-50684857D01*
X123912285Y-50399142D01*
X123912285Y-50042000D01*
X123983714Y-49756285D01*
X124055142Y-49613428D01*
X124126571Y-49542000D01*
X124269428Y-49470571D01*
X126483714Y-50899142D02*
X126626571Y-50970571D01*
X126912285Y-50970571D01*
X127055142Y-50899142D01*
X127126571Y-50756285D01*
X127126571Y-50684857D01*
X127055142Y-50542000D01*
X126912285Y-50470571D01*
X126698000Y-50470571D01*
X126555142Y-50399142D01*
X126483714Y-50256285D01*
X126483714Y-50184857D01*
X126555142Y-50042000D01*
X126698000Y-49970571D01*
X126912285Y-49970571D01*
X127055142Y-50042000D01*
X128483714Y-50970571D02*
X127769428Y-50970571D01*
X127769428Y-49470571D01*
X129198000Y-50970571D02*
X129055142Y-50899142D01*
X128983714Y-50827714D01*
X128912285Y-50684857D01*
X128912285Y-50256285D01*
X128983714Y-50113428D01*
X129055142Y-50042000D01*
X129198000Y-49970571D01*
X129412285Y-49970571D01*
X129555142Y-50042000D01*
X129626571Y-50113428D01*
X129698000Y-50256285D01*
X129698000Y-50684857D01*
X129626571Y-50827714D01*
X129555142Y-50899142D01*
X129412285Y-50970571D01*
X129198000Y-50970571D01*
X130840857Y-50184857D02*
X130340857Y-50184857D01*
X130340857Y-50970571D02*
X130340857Y-49470571D01*
X131055142Y-49470571D01*
X131912285Y-49470571D02*
X132198000Y-49470571D01*
X132340857Y-49542000D01*
X132483714Y-49684857D01*
X132555142Y-49970571D01*
X132555142Y-50470571D01*
X132483714Y-50756285D01*
X132340857Y-50899142D01*
X132198000Y-50970571D01*
X131912285Y-50970571D01*
X131769428Y-50899142D01*
X131626571Y-50756285D01*
X131555142Y-50470571D01*
X131555142Y-49970571D01*
X131626571Y-49684857D01*
X131769428Y-49542000D01*
X131912285Y-49470571D01*
D11*
G04 #@! TO.C,RV2*
X171522500Y-64493000D02*
X167657500Y-64493000D01*
X163147500Y-64493000D02*
X159282500Y-64493000D01*
X171522500Y-54553000D02*
X167657500Y-54553000D01*
X163147500Y-54553000D02*
X159282500Y-54553000D01*
X171522500Y-64493000D02*
X171522500Y-62894000D01*
X171522500Y-61152000D02*
X171522500Y-60393000D01*
X171522500Y-58652000D02*
X171522500Y-57893000D01*
X171522500Y-56153000D02*
X171522500Y-54553000D01*
X159282500Y-64493000D02*
X159282500Y-54553000D01*
D12*
G04 #@! TO.C,J4*
X109149000Y-80089000D02*
X115399000Y-80089000D01*
X119899000Y-80089000D02*
X118899000Y-80089000D01*
X119899000Y-78089000D02*
X119899000Y-80089000D01*
X119899000Y-74089000D02*
X119899000Y-74589000D01*
X105399000Y-74089000D02*
X119899000Y-74089000D01*
X105399000Y-79589000D02*
X105399000Y-74089000D01*
X105399000Y-80089000D02*
X106399000Y-80089000D01*
X105399000Y-79589000D02*
X105399000Y-80089000D01*
X102899000Y-79589000D02*
X105399000Y-79589000D01*
X102899000Y-74589000D02*
X102899000Y-79589000D01*
X105399000Y-74589000D02*
X102899000Y-74589000D01*
D10*
X108049000Y-83089000D02*
G75*
G03X108049000Y-83089000I-150000J0D01*
G01*
G04 #@! TO.C,J5*
X108049000Y-62007000D02*
G75*
G03X108049000Y-62007000I-150000J0D01*
G01*
D12*
X105399000Y-53507000D02*
X102899000Y-53507000D01*
X102899000Y-53507000D02*
X102899000Y-58507000D01*
X102899000Y-58507000D02*
X105399000Y-58507000D01*
X105399000Y-58507000D02*
X105399000Y-59007000D01*
X105399000Y-59007000D02*
X106399000Y-59007000D01*
X105399000Y-58507000D02*
X105399000Y-53007000D01*
X105399000Y-53007000D02*
X119899000Y-53007000D01*
X119899000Y-53007000D02*
X119899000Y-53507000D01*
X119899000Y-57007000D02*
X119899000Y-59007000D01*
X119899000Y-59007000D02*
X118899000Y-59007000D01*
X109149000Y-59007000D02*
X115399000Y-59007000D01*
D11*
G04 #@! TO.C,R3*
X141260500Y-57277000D02*
X143870500Y-57277000D01*
X141260500Y-57277000D02*
G75*
G03X141260500Y-57277000I-1370000J0D01*
G01*
G04 #@! TO.C,R4*
X134085000Y-79502000D02*
G75*
G03X134085000Y-79502000I-1370000J0D01*
G01*
X132715000Y-78132000D02*
X132715000Y-75522000D01*
G04 #@! TO.C,R6*
X153389000Y-65976500D02*
X155999000Y-65976500D01*
X153389000Y-65976500D02*
G75*
G03X153389000Y-65976500I-1370000J0D01*
G01*
G04 #@! TO.C,R5*
X127227000Y-58102500D02*
G75*
G03X127227000Y-58102500I-1370000J0D01*
G01*
X127227000Y-58102500D02*
X129837000Y-58102500D01*
G04 #@! TO.C,R1*
X153316000Y-71882000D02*
X150706000Y-71882000D01*
X156056000Y-71882000D02*
G75*
G03X156056000Y-71882000I-1370000J0D01*
G01*
G04 #@! TO.C,R2*
X155548000Y-61531500D02*
G75*
G03X155548000Y-61531500I-1370000J0D01*
G01*
X152808000Y-61531500D02*
X150198000Y-61531500D01*
G04 #@! TO.C,C1*
X133631000Y-58644000D02*
X133631000Y-53704000D01*
X136371000Y-58644000D02*
X136371000Y-53704000D01*
X133631000Y-58644000D02*
X133946000Y-58644000D01*
X136056000Y-58644000D02*
X136371000Y-58644000D01*
X133631000Y-53704000D02*
X133946000Y-53704000D01*
X136056000Y-53704000D02*
X136371000Y-53704000D01*
G04 #@! TO.C,C2*
X136254000Y-74700500D02*
X136254000Y-74385500D01*
X136254000Y-77125500D02*
X136254000Y-76810500D01*
X141194000Y-74700500D02*
X141194000Y-74385500D01*
X141194000Y-77125500D02*
X141194000Y-76810500D01*
X141194000Y-74385500D02*
X136254000Y-74385500D01*
X141194000Y-77125500D02*
X136254000Y-77125500D01*
G04 #@! TO.C,C3*
X124233000Y-69502500D02*
X124233000Y-64562500D01*
X126973000Y-69502500D02*
X126973000Y-64562500D01*
X124233000Y-69502500D02*
X124548000Y-69502500D01*
X126658000Y-69502500D02*
X126973000Y-69502500D01*
X124233000Y-64562500D02*
X124548000Y-64562500D01*
X126658000Y-64562500D02*
X126973000Y-64562500D01*
G04 #@! TO.C,D1*
X149040000Y-78295962D02*
G75*
G03X143490000Y-76750670I-2990000J462D01*
G01*
X149040000Y-78295038D02*
G75*
G02X143490000Y-79840330I-2990000J-462D01*
G01*
X148550000Y-78295500D02*
G75*
G03X148550000Y-78295500I-2500000J0D01*
G01*
X143490000Y-76750500D02*
X143490000Y-79840500D01*
G04 #@! TO.C,D2*
X155898000Y-78295962D02*
G75*
G03X150348000Y-76750670I-2990000J462D01*
G01*
X155898000Y-78295038D02*
G75*
G02X150348000Y-79840330I-2990000J-462D01*
G01*
X155408000Y-78295500D02*
G75*
G03X155408000Y-78295500I-2500000J0D01*
G01*
X150348000Y-76750500D02*
X150348000Y-79840500D01*
G04 #@! TO.C,D3*
X153856500Y-58460500D02*
X153856500Y-56220500D01*
X153616500Y-58460500D02*
X153616500Y-56220500D01*
X153736500Y-58460500D02*
X153736500Y-56220500D01*
X149566500Y-57340500D02*
X150216500Y-57340500D01*
X155106500Y-57340500D02*
X154456500Y-57340500D01*
X150216500Y-58460500D02*
X154456500Y-58460500D01*
X150216500Y-56220500D02*
X150216500Y-58460500D01*
X154456500Y-56220500D02*
X150216500Y-56220500D01*
X154456500Y-58460500D02*
X154456500Y-56220500D01*
G04 #@! TO.C,D4*
X146724000Y-52601000D02*
X146724000Y-54841000D01*
X146724000Y-54841000D02*
X150964000Y-54841000D01*
X150964000Y-54841000D02*
X150964000Y-52601000D01*
X150964000Y-52601000D02*
X146724000Y-52601000D01*
X146074000Y-53721000D02*
X146724000Y-53721000D01*
X151614000Y-53721000D02*
X150964000Y-53721000D01*
X147444000Y-52601000D02*
X147444000Y-54841000D01*
X147564000Y-52601000D02*
X147564000Y-54841000D01*
X147324000Y-52601000D02*
X147324000Y-54841000D01*
G04 #@! TO.C,J1*
X149983500Y-86293000D02*
X149983500Y-83633000D01*
X132143500Y-86293000D02*
X149983500Y-86293000D01*
X132143500Y-83633000D02*
X149983500Y-83633000D01*
X132143500Y-86293000D02*
X132143500Y-83633000D01*
X130873500Y-86293000D02*
X129543500Y-86293000D01*
X129543500Y-86293000D02*
X129543500Y-84963000D01*
G04 #@! TO.C,J2*
X114113000Y-72450000D02*
X116773000Y-72450000D01*
X114113000Y-67310000D02*
X114113000Y-72450000D01*
X116773000Y-67310000D02*
X116773000Y-72450000D01*
X114113000Y-67310000D02*
X116773000Y-67310000D01*
X114113000Y-66040000D02*
X114113000Y-64710000D01*
X114113000Y-64710000D02*
X115443000Y-64710000D01*
G04 #@! TO.C,J3*
X125035000Y-73663500D02*
X126365000Y-73663500D01*
X125035000Y-74993500D02*
X125035000Y-73663500D01*
X125035000Y-76263500D02*
X127695000Y-76263500D01*
X127695000Y-76263500D02*
X127695000Y-81403500D01*
X125035000Y-76263500D02*
X125035000Y-81403500D01*
X125035000Y-81403500D02*
X127695000Y-81403500D01*
G04 #@! TO.C,RV1*
X159409500Y-82019000D02*
X159409500Y-72079000D01*
X171649500Y-73679000D02*
X171649500Y-72079000D01*
X171649500Y-76178000D02*
X171649500Y-75419000D01*
X171649500Y-78678000D02*
X171649500Y-77919000D01*
X171649500Y-82019000D02*
X171649500Y-80420000D01*
X163274500Y-72079000D02*
X159409500Y-72079000D01*
X171649500Y-72079000D02*
X167784500Y-72079000D01*
X163274500Y-82019000D02*
X159409500Y-82019000D01*
X171649500Y-82019000D02*
X167784500Y-82019000D01*
G04 #@! TO.C,U1*
X128781500Y-65738500D02*
G75*
G02X128781500Y-67738500I0J-1000000D01*
G01*
X128781500Y-67738500D02*
X128781500Y-69388500D01*
X128781500Y-69388500D02*
X146681500Y-69388500D01*
X146681500Y-69388500D02*
X146681500Y-64088500D01*
X146681500Y-64088500D02*
X128781500Y-64088500D01*
X128781500Y-64088500D02*
X128781500Y-65738500D01*
X128721500Y-71878500D02*
X146741500Y-71878500D01*
X146741500Y-71878500D02*
X146741500Y-61598500D01*
X146741500Y-61598500D02*
X128721500Y-61598500D01*
X128721500Y-61598500D02*
X128721500Y-71878500D01*
G04 #@! TO.C,RV2*
D13*
X165757261Y-67625380D02*
X165423928Y-67149190D01*
X165185833Y-67625380D02*
X165185833Y-66625380D01*
X165566785Y-66625380D01*
X165662023Y-66673000D01*
X165709642Y-66720619D01*
X165757261Y-66815857D01*
X165757261Y-66958714D01*
X165709642Y-67053952D01*
X165662023Y-67101571D01*
X165566785Y-67149190D01*
X165185833Y-67149190D01*
X166042976Y-66625380D02*
X166376309Y-67625380D01*
X166709642Y-66625380D01*
X166995357Y-66720619D02*
X167042976Y-66673000D01*
X167138214Y-66625380D01*
X167376309Y-66625380D01*
X167471547Y-66673000D01*
X167519166Y-66720619D01*
X167566785Y-66815857D01*
X167566785Y-66911095D01*
X167519166Y-67053952D01*
X166947738Y-67625380D01*
X167566785Y-67625380D01*
G04 #@! TO.C,J4*
D14*
X112315020Y-76540318D02*
X112315020Y-77255990D01*
X112267308Y-77399124D01*
X112171885Y-77494547D01*
X112028751Y-77542258D01*
X111933328Y-77542258D01*
X113221537Y-76874298D02*
X113221537Y-77542258D01*
X112982980Y-76492607D02*
X112744422Y-77208278D01*
X113364671Y-77208278D01*
X114109426Y-83272293D02*
X114680946Y-83272293D01*
X114395186Y-84272453D02*
X114395186Y-83272293D01*
X115014333Y-84272453D02*
X115014333Y-83605680D01*
X115014333Y-83796186D02*
X115061960Y-83700933D01*
X115109586Y-83653306D01*
X115204840Y-83605680D01*
X115300093Y-83605680D01*
X115633480Y-84272453D02*
X115633480Y-83605680D01*
X115633480Y-83272293D02*
X115585853Y-83319920D01*
X115633480Y-83367546D01*
X115681106Y-83319920D01*
X115633480Y-83272293D01*
X115633480Y-83367546D01*
X116300253Y-83272293D02*
X116490760Y-83272293D01*
X116586013Y-83319920D01*
X116681266Y-83415173D01*
X116728893Y-83605680D01*
X116728893Y-83939066D01*
X116681266Y-84129573D01*
X116586013Y-84224826D01*
X116490760Y-84272453D01*
X116300253Y-84272453D01*
X116205000Y-84224826D01*
X116109746Y-84129573D01*
X116062120Y-83939066D01*
X116062120Y-83605680D01*
X116109746Y-83415173D01*
X116205000Y-83319920D01*
X116300253Y-83272293D01*
X117586173Y-83605680D02*
X117586173Y-84272453D01*
X117157533Y-83605680D02*
X117157533Y-84129573D01*
X117205160Y-84224826D01*
X117300413Y-84272453D01*
X117443293Y-84272453D01*
X117538546Y-84224826D01*
X117586173Y-84177200D01*
X117919560Y-83605680D02*
X118300573Y-83605680D01*
X118062440Y-83272293D02*
X118062440Y-84129573D01*
X118110066Y-84224826D01*
X118205320Y-84272453D01*
X118300573Y-84272453D01*
G04 #@! TO.C,J5*
X112569020Y-55331318D02*
X112569020Y-56046990D01*
X112521308Y-56190124D01*
X112425885Y-56285547D01*
X112282751Y-56333258D01*
X112187328Y-56333258D01*
X113523248Y-55331318D02*
X113046134Y-55331318D01*
X112998422Y-55808432D01*
X113046134Y-55760721D01*
X113141557Y-55713010D01*
X113380114Y-55713010D01*
X113475537Y-55760721D01*
X113523248Y-55808432D01*
X113570960Y-55903855D01*
X113570960Y-56142412D01*
X113523248Y-56237835D01*
X113475537Y-56285547D01*
X113380114Y-56333258D01*
X113141557Y-56333258D01*
X113046134Y-56285547D01*
X112998422Y-56237835D01*
X109577080Y-62682453D02*
X109577080Y-61682293D01*
X109958093Y-61682293D01*
X110053346Y-61729920D01*
X110100973Y-61777546D01*
X110148600Y-61872800D01*
X110148600Y-62015680D01*
X110100973Y-62110933D01*
X110053346Y-62158560D01*
X109958093Y-62206186D01*
X109577080Y-62206186D01*
X111005880Y-62015680D02*
X111005880Y-62682453D01*
X110577240Y-62015680D02*
X110577240Y-62539573D01*
X110624866Y-62634826D01*
X110720120Y-62682453D01*
X110863000Y-62682453D01*
X110958253Y-62634826D01*
X111005880Y-62587200D01*
X111625026Y-62682453D02*
X111529773Y-62634826D01*
X111482146Y-62539573D01*
X111482146Y-61682293D01*
X111958413Y-62634826D02*
X112053666Y-62682453D01*
X112244173Y-62682453D01*
X112339426Y-62634826D01*
X112387053Y-62539573D01*
X112387053Y-62491946D01*
X112339426Y-62396693D01*
X112244173Y-62349066D01*
X112101293Y-62349066D01*
X112006040Y-62301440D01*
X111958413Y-62206186D01*
X111958413Y-62158560D01*
X112006040Y-62063306D01*
X112101293Y-62015680D01*
X112244173Y-62015680D01*
X112339426Y-62063306D01*
X113196706Y-62634826D02*
X113101453Y-62682453D01*
X112910946Y-62682453D01*
X112815693Y-62634826D01*
X112768066Y-62539573D01*
X112768066Y-62158560D01*
X112815693Y-62063306D01*
X112910946Y-62015680D01*
X113101453Y-62015680D01*
X113196706Y-62063306D01*
X113244333Y-62158560D01*
X113244333Y-62253813D01*
X112768066Y-62349066D01*
X113863480Y-61682293D02*
X114053986Y-61682293D01*
X114149240Y-61729920D01*
X114244493Y-61825173D01*
X114292120Y-62015680D01*
X114292120Y-62349066D01*
X114244493Y-62539573D01*
X114149240Y-62634826D01*
X114053986Y-62682453D01*
X113863480Y-62682453D01*
X113768226Y-62634826D01*
X113672973Y-62539573D01*
X113625346Y-62349066D01*
X113625346Y-62015680D01*
X113672973Y-61825173D01*
X113768226Y-61729920D01*
X113863480Y-61682293D01*
X115149400Y-62015680D02*
X115149400Y-62682453D01*
X114720760Y-62015680D02*
X114720760Y-62539573D01*
X114768386Y-62634826D01*
X114863640Y-62682453D01*
X115006520Y-62682453D01*
X115101773Y-62634826D01*
X115149400Y-62587200D01*
X115482786Y-62015680D02*
X115863800Y-62015680D01*
X115625666Y-61682293D02*
X115625666Y-62539573D01*
X115673293Y-62634826D01*
X115768546Y-62682453D01*
X115863800Y-62682453D01*
G04 #@! TO.C,R3*
D13*
X142263833Y-55359380D02*
X141930500Y-54883190D01*
X141692404Y-55359380D02*
X141692404Y-54359380D01*
X142073357Y-54359380D01*
X142168595Y-54407000D01*
X142216214Y-54454619D01*
X142263833Y-54549857D01*
X142263833Y-54692714D01*
X142216214Y-54787952D01*
X142168595Y-54835571D01*
X142073357Y-54883190D01*
X141692404Y-54883190D01*
X142597166Y-54359380D02*
X143216214Y-54359380D01*
X142882880Y-54740333D01*
X143025738Y-54740333D01*
X143120976Y-54787952D01*
X143168595Y-54835571D01*
X143216214Y-54930809D01*
X143216214Y-55168904D01*
X143168595Y-55264142D01*
X143120976Y-55311761D01*
X143025738Y-55359380D01*
X142740023Y-55359380D01*
X142644785Y-55311761D01*
X142597166Y-55264142D01*
G04 #@! TO.C,R4*
X130797380Y-77128666D02*
X130321190Y-77462000D01*
X130797380Y-77700095D02*
X129797380Y-77700095D01*
X129797380Y-77319142D01*
X129845000Y-77223904D01*
X129892619Y-77176285D01*
X129987857Y-77128666D01*
X130130714Y-77128666D01*
X130225952Y-77176285D01*
X130273571Y-77223904D01*
X130321190Y-77319142D01*
X130321190Y-77700095D01*
X130130714Y-76271523D02*
X130797380Y-76271523D01*
X129749761Y-76509619D02*
X130464047Y-76747714D01*
X130464047Y-76128666D01*
G04 #@! TO.C,R6*
X154582833Y-65666880D02*
X154249500Y-65190690D01*
X154011404Y-65666880D02*
X154011404Y-64666880D01*
X154392357Y-64666880D01*
X154487595Y-64714500D01*
X154535214Y-64762119D01*
X154582833Y-64857357D01*
X154582833Y-65000214D01*
X154535214Y-65095452D01*
X154487595Y-65143071D01*
X154392357Y-65190690D01*
X154011404Y-65190690D01*
X155439976Y-64666880D02*
X155249500Y-64666880D01*
X155154261Y-64714500D01*
X155106642Y-64762119D01*
X155011404Y-64904976D01*
X154963785Y-65095452D01*
X154963785Y-65476404D01*
X155011404Y-65571642D01*
X155059023Y-65619261D01*
X155154261Y-65666880D01*
X155344738Y-65666880D01*
X155439976Y-65619261D01*
X155487595Y-65571642D01*
X155535214Y-65476404D01*
X155535214Y-65238309D01*
X155487595Y-65143071D01*
X155439976Y-65095452D01*
X155344738Y-65047833D01*
X155154261Y-65047833D01*
X155059023Y-65095452D01*
X155011404Y-65143071D01*
X154963785Y-65238309D01*
G04 #@! TO.C,R5*
X128230333Y-56184880D02*
X127897000Y-55708690D01*
X127658904Y-56184880D02*
X127658904Y-55184880D01*
X128039857Y-55184880D01*
X128135095Y-55232500D01*
X128182714Y-55280119D01*
X128230333Y-55375357D01*
X128230333Y-55518214D01*
X128182714Y-55613452D01*
X128135095Y-55661071D01*
X128039857Y-55708690D01*
X127658904Y-55708690D01*
X129135095Y-55184880D02*
X128658904Y-55184880D01*
X128611285Y-55661071D01*
X128658904Y-55613452D01*
X128754142Y-55565833D01*
X128992238Y-55565833D01*
X129087476Y-55613452D01*
X129135095Y-55661071D01*
X129182714Y-55756309D01*
X129182714Y-55994404D01*
X129135095Y-56089642D01*
X129087476Y-56137261D01*
X128992238Y-56184880D01*
X128754142Y-56184880D01*
X128658904Y-56137261D01*
X128611285Y-56089642D01*
G04 #@! TO.C,R1*
X151661833Y-71635880D02*
X151328500Y-71159690D01*
X151090404Y-71635880D02*
X151090404Y-70635880D01*
X151471357Y-70635880D01*
X151566595Y-70683500D01*
X151614214Y-70731119D01*
X151661833Y-70826357D01*
X151661833Y-70969214D01*
X151614214Y-71064452D01*
X151566595Y-71112071D01*
X151471357Y-71159690D01*
X151090404Y-71159690D01*
X152614214Y-71635880D02*
X152042785Y-71635880D01*
X152328500Y-71635880D02*
X152328500Y-70635880D01*
X152233261Y-70778738D01*
X152138023Y-70873976D01*
X152042785Y-70921595D01*
G04 #@! TO.C,R2*
X151280833Y-62110880D02*
X150947500Y-61634690D01*
X150709404Y-62110880D02*
X150709404Y-61110880D01*
X151090357Y-61110880D01*
X151185595Y-61158500D01*
X151233214Y-61206119D01*
X151280833Y-61301357D01*
X151280833Y-61444214D01*
X151233214Y-61539452D01*
X151185595Y-61587071D01*
X151090357Y-61634690D01*
X150709404Y-61634690D01*
X151661785Y-61206119D02*
X151709404Y-61158500D01*
X151804642Y-61110880D01*
X152042738Y-61110880D01*
X152137976Y-61158500D01*
X152185595Y-61206119D01*
X152233214Y-61301357D01*
X152233214Y-61396595D01*
X152185595Y-61539452D01*
X151614166Y-62110880D01*
X152233214Y-62110880D01*
G04 #@! TO.C,C1*
X132858142Y-56340666D02*
X132905761Y-56388285D01*
X132953380Y-56531142D01*
X132953380Y-56626380D01*
X132905761Y-56769238D01*
X132810523Y-56864476D01*
X132715285Y-56912095D01*
X132524809Y-56959714D01*
X132381952Y-56959714D01*
X132191476Y-56912095D01*
X132096238Y-56864476D01*
X132001000Y-56769238D01*
X131953380Y-56626380D01*
X131953380Y-56531142D01*
X132001000Y-56388285D01*
X132048619Y-56340666D01*
X132953380Y-55388285D02*
X132953380Y-55959714D01*
X132953380Y-55674000D02*
X131953380Y-55674000D01*
X132096238Y-55769238D01*
X132191476Y-55864476D01*
X132239095Y-55959714D01*
G04 #@! TO.C,C2*
X138557333Y-78612642D02*
X138509714Y-78660261D01*
X138366857Y-78707880D01*
X138271619Y-78707880D01*
X138128761Y-78660261D01*
X138033523Y-78565023D01*
X137985904Y-78469785D01*
X137938285Y-78279309D01*
X137938285Y-78136452D01*
X137985904Y-77945976D01*
X138033523Y-77850738D01*
X138128761Y-77755500D01*
X138271619Y-77707880D01*
X138366857Y-77707880D01*
X138509714Y-77755500D01*
X138557333Y-77803119D01*
X138938285Y-77803119D02*
X138985904Y-77755500D01*
X139081142Y-77707880D01*
X139319238Y-77707880D01*
X139414476Y-77755500D01*
X139462095Y-77803119D01*
X139509714Y-77898357D01*
X139509714Y-77993595D01*
X139462095Y-78136452D01*
X138890666Y-78707880D01*
X139509714Y-78707880D01*
G04 #@! TO.C,C3*
X123460142Y-67199166D02*
X123507761Y-67246785D01*
X123555380Y-67389642D01*
X123555380Y-67484880D01*
X123507761Y-67627738D01*
X123412523Y-67722976D01*
X123317285Y-67770595D01*
X123126809Y-67818214D01*
X122983952Y-67818214D01*
X122793476Y-67770595D01*
X122698238Y-67722976D01*
X122603000Y-67627738D01*
X122555380Y-67484880D01*
X122555380Y-67389642D01*
X122603000Y-67246785D01*
X122650619Y-67199166D01*
X122555380Y-66865833D02*
X122555380Y-66246785D01*
X122936333Y-66580119D01*
X122936333Y-66437261D01*
X122983952Y-66342023D01*
X123031571Y-66294404D01*
X123126809Y-66246785D01*
X123364904Y-66246785D01*
X123460142Y-66294404D01*
X123507761Y-66342023D01*
X123555380Y-66437261D01*
X123555380Y-66722976D01*
X123507761Y-66818214D01*
X123460142Y-66865833D01*
G04 #@! TO.C,D1*
X145311904Y-74787880D02*
X145311904Y-73787880D01*
X145550000Y-73787880D01*
X145692857Y-73835500D01*
X145788095Y-73930738D01*
X145835714Y-74025976D01*
X145883333Y-74216452D01*
X145883333Y-74359309D01*
X145835714Y-74549785D01*
X145788095Y-74645023D01*
X145692857Y-74740261D01*
X145550000Y-74787880D01*
X145311904Y-74787880D01*
X146835714Y-74787880D02*
X146264285Y-74787880D01*
X146550000Y-74787880D02*
X146550000Y-73787880D01*
X146454761Y-73930738D01*
X146359523Y-74025976D01*
X146264285Y-74073595D01*
G04 #@! TO.C,D2*
X152169904Y-74787880D02*
X152169904Y-73787880D01*
X152408000Y-73787880D01*
X152550857Y-73835500D01*
X152646095Y-73930738D01*
X152693714Y-74025976D01*
X152741333Y-74216452D01*
X152741333Y-74359309D01*
X152693714Y-74549785D01*
X152646095Y-74645023D01*
X152550857Y-74740261D01*
X152408000Y-74787880D01*
X152169904Y-74787880D01*
X153122285Y-73883119D02*
X153169904Y-73835500D01*
X153265142Y-73787880D01*
X153503238Y-73787880D01*
X153598476Y-73835500D01*
X153646095Y-73883119D01*
X153693714Y-73978357D01*
X153693714Y-74073595D01*
X153646095Y-74216452D01*
X153074666Y-74787880D01*
X153693714Y-74787880D01*
G04 #@! TO.C,D3*
X151598404Y-59912880D02*
X151598404Y-58912880D01*
X151836500Y-58912880D01*
X151979357Y-58960500D01*
X152074595Y-59055738D01*
X152122214Y-59150976D01*
X152169833Y-59341452D01*
X152169833Y-59484309D01*
X152122214Y-59674785D01*
X152074595Y-59770023D01*
X151979357Y-59865261D01*
X151836500Y-59912880D01*
X151598404Y-59912880D01*
X152503166Y-58912880D02*
X153122214Y-58912880D01*
X152788880Y-59293833D01*
X152931738Y-59293833D01*
X153026976Y-59341452D01*
X153074595Y-59389071D01*
X153122214Y-59484309D01*
X153122214Y-59722404D01*
X153074595Y-59817642D01*
X153026976Y-59865261D01*
X152931738Y-59912880D01*
X152646023Y-59912880D01*
X152550785Y-59865261D01*
X152503166Y-59817642D01*
X155884595Y-59592880D02*
X155884595Y-58592880D01*
X156456023Y-59592880D02*
X156027452Y-59021452D01*
X156456023Y-58592880D02*
X155884595Y-59164309D01*
G04 #@! TO.C,D4*
X148105904Y-52053380D02*
X148105904Y-51053380D01*
X148344000Y-51053380D01*
X148486857Y-51101000D01*
X148582095Y-51196238D01*
X148629714Y-51291476D01*
X148677333Y-51481952D01*
X148677333Y-51624809D01*
X148629714Y-51815285D01*
X148582095Y-51910523D01*
X148486857Y-52005761D01*
X148344000Y-52053380D01*
X148105904Y-52053380D01*
X149534476Y-51386714D02*
X149534476Y-52053380D01*
X149296380Y-51005761D02*
X149058285Y-51720047D01*
X149677333Y-51720047D01*
X144772095Y-52373380D02*
X144772095Y-51373380D01*
X145343523Y-52373380D02*
X144914952Y-51801952D01*
X145343523Y-51373380D02*
X144772095Y-51944809D01*
G04 #@! TO.C,J1*
X127995880Y-85296333D02*
X128710166Y-85296333D01*
X128853023Y-85343952D01*
X128948261Y-85439190D01*
X128995880Y-85582047D01*
X128995880Y-85677285D01*
X128995880Y-84296333D02*
X128995880Y-84867761D01*
X128995880Y-84582047D02*
X127995880Y-84582047D01*
X128138738Y-84677285D01*
X128233976Y-84772523D01*
X128281595Y-84867761D01*
G04 #@! TO.C,J2*
X115109666Y-63162380D02*
X115109666Y-63876666D01*
X115062047Y-64019523D01*
X114966809Y-64114761D01*
X114823952Y-64162380D01*
X114728714Y-64162380D01*
X115538238Y-63257619D02*
X115585857Y-63210000D01*
X115681095Y-63162380D01*
X115919190Y-63162380D01*
X116014428Y-63210000D01*
X116062047Y-63257619D01*
X116109666Y-63352857D01*
X116109666Y-63448095D01*
X116062047Y-63590952D01*
X115490619Y-64162380D01*
X116109666Y-64162380D01*
G04 #@! TO.C,J3*
X126031666Y-72115880D02*
X126031666Y-72830166D01*
X125984047Y-72973023D01*
X125888809Y-73068261D01*
X125745952Y-73115880D01*
X125650714Y-73115880D01*
X126412619Y-72115880D02*
X127031666Y-72115880D01*
X126698333Y-72496833D01*
X126841190Y-72496833D01*
X126936428Y-72544452D01*
X126984047Y-72592071D01*
X127031666Y-72687309D01*
X127031666Y-72925404D01*
X126984047Y-73020642D01*
X126936428Y-73068261D01*
X126841190Y-73115880D01*
X126555476Y-73115880D01*
X126460238Y-73068261D01*
X126412619Y-73020642D01*
G04 #@! TO.C,RV1*
X165884261Y-85151380D02*
X165550928Y-84675190D01*
X165312833Y-85151380D02*
X165312833Y-84151380D01*
X165693785Y-84151380D01*
X165789023Y-84199000D01*
X165836642Y-84246619D01*
X165884261Y-84341857D01*
X165884261Y-84484714D01*
X165836642Y-84579952D01*
X165789023Y-84627571D01*
X165693785Y-84675190D01*
X165312833Y-84675190D01*
X166169976Y-84151380D02*
X166503309Y-85151380D01*
X166836642Y-84151380D01*
X167693785Y-85151380D02*
X167122357Y-85151380D01*
X167408071Y-85151380D02*
X167408071Y-84151380D01*
X167312833Y-84294238D01*
X167217595Y-84389476D01*
X167122357Y-84437095D01*
G04 #@! TO.C,U1*
X127233880Y-67500404D02*
X128043404Y-67500404D01*
X128138642Y-67452785D01*
X128186261Y-67405166D01*
X128233880Y-67309928D01*
X128233880Y-67119452D01*
X128186261Y-67024214D01*
X128138642Y-66976595D01*
X128043404Y-66928976D01*
X127233880Y-66928976D01*
X128233880Y-65928976D02*
X128233880Y-66500404D01*
X128233880Y-66214690D02*
X127233880Y-66214690D01*
X127376738Y-66309928D01*
X127471976Y-66405166D01*
X127519595Y-66500404D01*
G04 #@! TD*
M02*
