G04 #@! TF.GenerationSoftware,KiCad,Pcbnew,(5.0.1)-rc2*
G04 #@! TF.CreationDate,2018-12-09T02:21:17-05:00*
G04 #@! TF.ProjectId,lfo,6C666F2E6B696361645F706362000000,rev?*
G04 #@! TF.SameCoordinates,Original*
G04 #@! TF.FileFunction,Copper,L1,Top,Signal*
G04 #@! TF.FilePolarity,Positive*
%FSLAX46Y46*%
G04 Gerber Fmt 4.6, Leading zero omitted, Abs format (unit mm)*
G04 Created by KiCad (PCBNEW (5.0.1)-rc2) date 12/9/2018 2:21:17 AM*
%MOMM*%
%LPD*%
G01*
G04 APERTURE LIST*
G04 #@! TA.AperFunction,ComponentPad*
%ADD10C,1.800000*%
G04 #@! TD*
G04 #@! TA.AperFunction,WasherPad*
%ADD11C,4.000000*%
G04 #@! TD*
G04 #@! TA.AperFunction,SMDPad,CuDef*
%ADD12R,2.600000X2.800000*%
G04 #@! TD*
G04 #@! TA.AperFunction,SMDPad,CuDef*
%ADD13R,2.800000X2.800000*%
G04 #@! TD*
G04 #@! TA.AperFunction,SMDPad,CuDef*
%ADD14R,2.200000X2.800000*%
G04 #@! TD*
G04 #@! TA.AperFunction,ComponentPad*
%ADD15O,1.600000X1.600000*%
G04 #@! TD*
G04 #@! TA.AperFunction,ComponentPad*
%ADD16C,1.600000*%
G04 #@! TD*
G04 #@! TA.AperFunction,ComponentPad*
%ADD17R,1.800000X1.800000*%
G04 #@! TD*
G04 #@! TA.AperFunction,ComponentPad*
%ADD18R,1.600000X1.600000*%
G04 #@! TD*
G04 #@! TA.AperFunction,ComponentPad*
%ADD19R,1.700000X1.700000*%
G04 #@! TD*
G04 #@! TA.AperFunction,ComponentPad*
%ADD20O,1.700000X1.700000*%
G04 #@! TD*
G04 #@! TA.AperFunction,ViaPad*
%ADD21C,0.800000*%
G04 #@! TD*
G04 #@! TA.AperFunction,Conductor*
%ADD22C,0.250000*%
G04 #@! TD*
G04 #@! TA.AperFunction,Conductor*
%ADD23C,0.254000*%
G04 #@! TD*
G04 APERTURE END LIST*
D10*
G04 #@! TO.P,RV2,3*
G04 #@! TO.N,Net-(D3-Pad1)*
X172402500Y-62023000D03*
G04 #@! TO.P,RV2,2*
G04 #@! TO.N,Net-(R2-Pad1)*
X172402500Y-59523000D03*
G04 #@! TO.P,RV2,1*
G04 #@! TO.N,Net-(D4-Pad2)*
X172402500Y-57023000D03*
D11*
G04 #@! TO.P,RV2,*
G04 #@! TO.N,*
X165402500Y-63923000D03*
X165402500Y-55123000D03*
G04 #@! TD*
D12*
G04 #@! TO.P,J4,TN*
G04 #@! TO.N,Net-(J4-PadTN)*
X121199000Y-76339000D03*
D13*
G04 #@! TO.P,J4,T*
G04 #@! TO.N,TriOut*
X117199000Y-80789000D03*
D14*
G04 #@! TO.P,J4,S*
G04 #@! TO.N,GND*
X107799000Y-80789000D03*
G04 #@! TD*
G04 #@! TO.P,J5,S*
G04 #@! TO.N,GND*
X107799000Y-59707000D03*
D13*
G04 #@! TO.P,J5,T*
G04 #@! TO.N,PulseOut*
X117199000Y-59707000D03*
D12*
G04 #@! TO.P,J5,TN*
G04 #@! TO.N,Net-(J5-PadTN)*
X121199000Y-55257000D03*
G04 #@! TD*
D15*
G04 #@! TO.P,R3,2*
G04 #@! TO.N,Net-(D3-Pad2)*
X144970500Y-57277000D03*
D16*
G04 #@! TO.P,R3,1*
G04 #@! TO.N,Net-(C1-Pad2)*
X139890500Y-57277000D03*
G04 #@! TD*
G04 #@! TO.P,R4,1*
G04 #@! TO.N,TriOut*
X132715000Y-79502000D03*
D15*
G04 #@! TO.P,R4,2*
G04 #@! TO.N,Net-(C1-Pad1)*
X132715000Y-74422000D03*
G04 #@! TD*
G04 #@! TO.P,R6,2*
G04 #@! TO.N,Net-(R6-Pad2)*
X157099000Y-65976500D03*
D16*
G04 #@! TO.P,R6,1*
G04 #@! TO.N,Net-(R2-Pad2)*
X152019000Y-65976500D03*
G04 #@! TD*
G04 #@! TO.P,R5,1*
G04 #@! TO.N,Net-(R5-Pad1)*
X125857000Y-58102500D03*
D15*
G04 #@! TO.P,R5,2*
G04 #@! TO.N,Net-(D1-Pad2)*
X130937000Y-58102500D03*
G04 #@! TD*
G04 #@! TO.P,R1,2*
G04 #@! TO.N,Net-(R1-Pad2)*
X149606000Y-71882000D03*
D16*
G04 #@! TO.P,R1,1*
G04 #@! TO.N,PulseOut*
X154686000Y-71882000D03*
G04 #@! TD*
G04 #@! TO.P,R2,1*
G04 #@! TO.N,Net-(R2-Pad1)*
X154178000Y-61531500D03*
D15*
G04 #@! TO.P,R2,2*
G04 #@! TO.N,Net-(R2-Pad2)*
X149098000Y-61531500D03*
G04 #@! TD*
D16*
G04 #@! TO.P,C1,1*
G04 #@! TO.N,Net-(C1-Pad1)*
X135001000Y-58674000D03*
G04 #@! TO.P,C1,2*
G04 #@! TO.N,Net-(C1-Pad2)*
X135001000Y-53674000D03*
G04 #@! TD*
G04 #@! TO.P,C2,2*
G04 #@! TO.N,+9V*
X136224000Y-75755500D03*
G04 #@! TO.P,C2,1*
G04 #@! TO.N,GND*
X141224000Y-75755500D03*
G04 #@! TD*
G04 #@! TO.P,C3,1*
G04 #@! TO.N,GND*
X125603000Y-69532500D03*
G04 #@! TO.P,C3,2*
G04 #@! TO.N,-9V*
X125603000Y-64532500D03*
G04 #@! TD*
D17*
G04 #@! TO.P,D1,1*
G04 #@! TO.N,GND*
X144780000Y-78295500D03*
D10*
G04 #@! TO.P,D1,2*
G04 #@! TO.N,Net-(D1-Pad2)*
X147320000Y-78295500D03*
G04 #@! TD*
D17*
G04 #@! TO.P,D2,1*
G04 #@! TO.N,Net-(D1-Pad2)*
X151638000Y-78295500D03*
D10*
G04 #@! TO.P,D2,2*
G04 #@! TO.N,GND*
X154178000Y-78295500D03*
G04 #@! TD*
D15*
G04 #@! TO.P,D3,2*
G04 #@! TO.N,Net-(D3-Pad2)*
X148526500Y-57340500D03*
D18*
G04 #@! TO.P,D3,1*
G04 #@! TO.N,Net-(D3-Pad1)*
X156146500Y-57340500D03*
G04 #@! TD*
G04 #@! TO.P,D4,1*
G04 #@! TO.N,Net-(D3-Pad2)*
X145034000Y-53721000D03*
D15*
G04 #@! TO.P,D4,2*
G04 #@! TO.N,Net-(D4-Pad2)*
X152654000Y-53721000D03*
G04 #@! TD*
D19*
G04 #@! TO.P,J1,1*
G04 #@! TO.N,+9V*
X130873500Y-84963000D03*
D20*
G04 #@! TO.P,J1,2*
G04 #@! TO.N,GND*
X133413500Y-84963000D03*
G04 #@! TO.P,J1,3*
G04 #@! TO.N,-9V*
X135953500Y-84963000D03*
G04 #@! TO.P,J1,4*
G04 #@! TO.N,+9V*
X138493500Y-84963000D03*
G04 #@! TO.P,J1,5*
G04 #@! TO.N,GND*
X141033500Y-84963000D03*
G04 #@! TO.P,J1,6*
G04 #@! TO.N,-9V*
X143573500Y-84963000D03*
G04 #@! TO.P,J1,7*
G04 #@! TO.N,TriOut*
X146113500Y-84963000D03*
G04 #@! TO.P,J1,8*
G04 #@! TO.N,PulseOut*
X148653500Y-84963000D03*
G04 #@! TD*
D19*
G04 #@! TO.P,J2,1*
G04 #@! TO.N,+9V*
X115443000Y-66040000D03*
D20*
G04 #@! TO.P,J2,2*
G04 #@! TO.N,GND*
X115443000Y-68580000D03*
G04 #@! TO.P,J2,3*
G04 #@! TO.N,-9V*
X115443000Y-71120000D03*
G04 #@! TD*
G04 #@! TO.P,J3,3*
G04 #@! TO.N,-9V*
X126365000Y-80073500D03*
G04 #@! TO.P,J3,2*
G04 #@! TO.N,GND*
X126365000Y-77533500D03*
D19*
G04 #@! TO.P,J3,1*
G04 #@! TO.N,+9V*
X126365000Y-74993500D03*
G04 #@! TD*
D11*
G04 #@! TO.P,RV1,*
G04 #@! TO.N,*
X165529500Y-72649000D03*
X165529500Y-81449000D03*
D10*
G04 #@! TO.P,RV1,1*
G04 #@! TO.N,Net-(R1-Pad2)*
X172529500Y-74549000D03*
G04 #@! TO.P,RV1,2*
G04 #@! TO.N,Net-(R6-Pad2)*
X172529500Y-77049000D03*
G04 #@! TO.P,RV1,3*
G04 #@! TO.N,GND*
X172529500Y-79549000D03*
G04 #@! TD*
D18*
G04 #@! TO.P,U1,1*
G04 #@! TO.N,Net-(R1-Pad2)*
X130111500Y-70548500D03*
D15*
G04 #@! TO.P,U1,8*
G04 #@! TO.N,Net-(C1-Pad1)*
X145351500Y-62928500D03*
G04 #@! TO.P,U1,2*
G04 #@! TO.N,Net-(R1-Pad2)*
X132651500Y-70548500D03*
G04 #@! TO.P,U1,9*
G04 #@! TO.N,Net-(C1-Pad2)*
X142811500Y-62928500D03*
G04 #@! TO.P,U1,3*
G04 #@! TO.N,Net-(D1-Pad2)*
X135191500Y-70548500D03*
G04 #@! TO.P,U1,10*
G04 #@! TO.N,GND*
X140271500Y-62928500D03*
G04 #@! TO.P,U1,4*
G04 #@! TO.N,+9V*
X137731500Y-70548500D03*
G04 #@! TO.P,U1,11*
G04 #@! TO.N,-9V*
X137731500Y-62928500D03*
G04 #@! TO.P,U1,5*
G04 #@! TO.N,GND*
X140271500Y-70548500D03*
G04 #@! TO.P,U1,12*
G04 #@! TO.N,Net-(D1-Pad2)*
X135191500Y-62928500D03*
G04 #@! TO.P,U1,6*
G04 #@! TO.N,Net-(R2-Pad2)*
X142811500Y-70548500D03*
G04 #@! TO.P,U1,13*
G04 #@! TO.N,Net-(C1-Pad1)*
X132651500Y-62928500D03*
G04 #@! TO.P,U1,7*
G04 #@! TO.N,Net-(R2-Pad1)*
X145351500Y-70548500D03*
G04 #@! TO.P,U1,14*
G04 #@! TO.N,Net-(R5-Pad1)*
X130111500Y-62928500D03*
G04 #@! TD*
D21*
G04 #@! TO.N,PulseOut*
X117348000Y-62738000D03*
G04 #@! TD*
D22*
G04 #@! TO.N,Net-(C1-Pad1)*
X133514999Y-73622001D02*
X132715000Y-74422000D01*
X133776501Y-73360499D02*
X133514999Y-73622001D01*
X133776501Y-65184871D02*
X133776501Y-73360499D01*
X132651500Y-64059870D02*
X133776501Y-65184871D01*
X132651500Y-62928500D02*
X132651500Y-64059870D01*
G04 #@! TO.N,Net-(C1-Pad2)*
X142811500Y-60198000D02*
X139890500Y-57277000D01*
X142811500Y-62928500D02*
X142811500Y-60198000D01*
X138604000Y-57277000D02*
X139890500Y-57277000D01*
X135001000Y-53674000D02*
X138604000Y-57277000D01*
G04 #@! TO.N,+9V*
X135092630Y-75755500D02*
X136224000Y-75755500D01*
X128227000Y-75755500D02*
X135092630Y-75755500D01*
X127465000Y-74993500D02*
X128227000Y-75755500D01*
X126365000Y-74993500D02*
X127465000Y-74993500D01*
X126365000Y-73893500D02*
X126365000Y-74993500D01*
X126728001Y-73530499D02*
X126365000Y-73893500D01*
X126728001Y-68992499D02*
X126728001Y-73530499D01*
X123775502Y-66040000D02*
X126728001Y-68992499D01*
X115443000Y-66040000D02*
X123775502Y-66040000D01*
G04 #@! TO.N,GND*
X171276000Y-78295500D02*
X154178000Y-78295500D01*
X172529500Y-79549000D02*
X171276000Y-78295500D01*
X144780000Y-79445500D02*
X145408000Y-80073500D01*
X144780000Y-78295500D02*
X144780000Y-79445500D01*
X152400000Y-80073500D02*
X154178000Y-78295500D01*
X145408000Y-80073500D02*
X152400000Y-80073500D01*
X140271500Y-70548500D02*
X140271500Y-62928500D01*
X142355370Y-75755500D02*
X141224000Y-75755500D01*
X143390000Y-75755500D02*
X142355370Y-75755500D01*
X144780000Y-77145500D02*
X143390000Y-75755500D01*
X144780000Y-78295500D02*
X144780000Y-77145500D01*
X107799000Y-60007000D02*
X107799000Y-59707000D01*
X106449000Y-61357000D02*
X107799000Y-60007000D01*
X106449000Y-77789000D02*
X106449000Y-61357000D01*
X107799000Y-79139000D02*
X106449000Y-77789000D01*
X107799000Y-80789000D02*
X107799000Y-79139000D01*
X124650500Y-68580000D02*
X125603000Y-69532500D01*
X115443000Y-68580000D02*
X124650500Y-68580000D01*
X115022000Y-68580000D02*
X115443000Y-68580000D01*
X107799000Y-61357000D02*
X115022000Y-68580000D01*
X107799000Y-59707000D02*
X107799000Y-61357000D01*
X124803001Y-70332499D02*
X125603000Y-69532500D01*
X124079000Y-71056500D02*
X124803001Y-70332499D01*
X124079000Y-75247500D02*
X124079000Y-71056500D01*
X126365000Y-77533500D02*
X124079000Y-75247500D01*
X144780000Y-81216500D02*
X144780000Y-78295500D01*
X141033500Y-84963000D02*
X144780000Y-81216500D01*
G04 #@! TO.N,-9V*
X131064000Y-80073500D02*
X126365000Y-80073500D01*
X135953500Y-84963000D02*
X131064000Y-80073500D01*
G04 #@! TO.N,Net-(D1-Pad2)*
X135191500Y-62357000D02*
X135191500Y-62928500D01*
X130937000Y-58102500D02*
X135191500Y-62357000D01*
X150488000Y-78295500D02*
X147320000Y-78295500D01*
X151638000Y-78295500D02*
X150488000Y-78295500D01*
X146420001Y-77395501D02*
X147320000Y-78295500D01*
X143654999Y-74630499D02*
X146420001Y-77395501D01*
X139273499Y-74630499D02*
X143654999Y-74630499D01*
X135191500Y-70548500D02*
X139273499Y-74630499D01*
X135191500Y-70548500D02*
X135191500Y-62928500D01*
G04 #@! TO.N,Net-(D3-Pad2)*
X145034000Y-57213500D02*
X144970500Y-57277000D01*
X148463000Y-57277000D02*
X148526500Y-57340500D01*
X144970500Y-57277000D02*
X148463000Y-57277000D01*
X144970500Y-53784500D02*
X145034000Y-53721000D01*
X144970500Y-57277000D02*
X144970500Y-53784500D01*
G04 #@! TO.N,Net-(D4-Pad2)*
X171129708Y-57023000D02*
X172402500Y-57023000D01*
X170704707Y-57448001D02*
X171129708Y-57023000D01*
X164286499Y-57448001D02*
X170704707Y-57448001D01*
X160559498Y-53721000D02*
X164286499Y-57448001D01*
X152654000Y-53721000D02*
X160559498Y-53721000D01*
G04 #@! TO.N,TriOut*
X131583630Y-79502000D02*
X132715000Y-79502000D01*
X130980129Y-78898499D02*
X131583630Y-79502000D01*
X120739501Y-78898499D02*
X130980129Y-78898499D01*
X118849000Y-80789000D02*
X120739501Y-78898499D01*
X117199000Y-80789000D02*
X118849000Y-80789000D01*
G04 #@! TO.N,PulseOut*
X117199000Y-62589000D02*
X117348000Y-62738000D01*
X117199000Y-59707000D02*
X117199000Y-62589000D01*
G04 #@! TO.N,Net-(R1-Pad2)*
X131161500Y-70548500D02*
X132651500Y-70548500D01*
X130111500Y-70548500D02*
X131161500Y-70548500D01*
X150405999Y-71082001D02*
X149606000Y-71882000D01*
X151164001Y-70323999D02*
X150405999Y-71082001D01*
X168304499Y-70323999D02*
X151164001Y-70323999D01*
X172529500Y-74549000D02*
X168304499Y-70323999D01*
G04 #@! TO.N,Net-(R2-Pad1)*
X170394000Y-61531500D02*
X172402500Y-59523000D01*
X154178000Y-61531500D02*
X170394000Y-61531500D01*
X146482870Y-70548500D02*
X145351500Y-70548500D01*
X149112002Y-70548500D02*
X146482870Y-70548500D01*
X154178000Y-65482502D02*
X149112002Y-70548500D01*
X154178000Y-61531500D02*
X154178000Y-65482502D01*
G04 #@! TO.N,Net-(R2-Pad2)*
X150887630Y-65976500D02*
X152019000Y-65976500D01*
X146252130Y-65976500D02*
X150887630Y-65976500D01*
X142811500Y-69417130D02*
X146252130Y-65976500D01*
X142811500Y-70548500D02*
X142811500Y-69417130D01*
X149098000Y-63055500D02*
X149098000Y-61531500D01*
X152019000Y-65976500D02*
X149098000Y-63055500D01*
G04 #@! TO.N,Net-(R5-Pad1)*
X130111500Y-62357000D02*
X130111500Y-62928500D01*
X125857000Y-58102500D02*
X130111500Y-62357000D01*
G04 #@! TO.N,Net-(R6-Pad2)*
X173429499Y-76149001D02*
X172529500Y-77049000D01*
X173754501Y-75823999D02*
X173429499Y-76149001D01*
X173754501Y-73960999D02*
X173754501Y-75823999D01*
X166570001Y-66776499D02*
X173754501Y-73960999D01*
X157898999Y-66776499D02*
X166570001Y-66776499D01*
X157099000Y-65976500D02*
X157898999Y-66776499D01*
G04 #@! TD*
D23*
G04 #@! TO.N,+9V*
G36*
X175015151Y-48784511D02*
X174910801Y-48532588D01*
X174352412Y-47974199D01*
X173622841Y-47672000D01*
X172833159Y-47672000D01*
X172103588Y-47974199D01*
X171545199Y-48532588D01*
X171243000Y-49262159D01*
X171243000Y-50051841D01*
X171545199Y-50781412D01*
X172103588Y-51339801D01*
X172833159Y-51642000D01*
X173622841Y-51642000D01*
X174352412Y-51339801D01*
X174910801Y-50781412D01*
X175022985Y-50510576D01*
X175182994Y-85765718D01*
X174910801Y-85108588D01*
X174352412Y-84550199D01*
X173622841Y-84248000D01*
X172833159Y-84248000D01*
X172103588Y-84550199D01*
X171545199Y-85108588D01*
X171243000Y-85838159D01*
X171243000Y-86627841D01*
X171545199Y-87357412D01*
X172103588Y-87915801D01*
X172833159Y-88218000D01*
X173622841Y-88218000D01*
X174352412Y-87915801D01*
X174910801Y-87357412D01*
X175187190Y-86690153D01*
X175194573Y-88317000D01*
X104850000Y-88317000D01*
X104850000Y-85838159D01*
X107743000Y-85838159D01*
X107743000Y-86627841D01*
X108045199Y-87357412D01*
X108603588Y-87915801D01*
X109333159Y-88218000D01*
X110122841Y-88218000D01*
X110852412Y-87915801D01*
X111410801Y-87357412D01*
X111713000Y-86627841D01*
X111713000Y-85838159D01*
X111468859Y-85248750D01*
X129388500Y-85248750D01*
X129388500Y-85939309D01*
X129485173Y-86172698D01*
X129663801Y-86351327D01*
X129897190Y-86448000D01*
X130587750Y-86448000D01*
X130746500Y-86289250D01*
X130746500Y-85090000D01*
X129547250Y-85090000D01*
X129388500Y-85248750D01*
X111468859Y-85248750D01*
X111410801Y-85108588D01*
X110852412Y-84550199D01*
X110122841Y-84248000D01*
X109333159Y-84248000D01*
X108603588Y-84550199D01*
X108045199Y-85108588D01*
X107743000Y-85838159D01*
X104850000Y-85838159D01*
X104850000Y-83986691D01*
X129388500Y-83986691D01*
X129388500Y-84677250D01*
X129547250Y-84836000D01*
X130746500Y-84836000D01*
X130746500Y-83636750D01*
X130587750Y-83478000D01*
X129897190Y-83478000D01*
X129663801Y-83574673D01*
X129485173Y-83753302D01*
X129388500Y-83986691D01*
X104850000Y-83986691D01*
X104850000Y-76037226D01*
X105003146Y-61357000D01*
X105674112Y-61357000D01*
X105689001Y-61431852D01*
X105689000Y-77714153D01*
X105674112Y-77789000D01*
X105689000Y-77863847D01*
X105689000Y-77863851D01*
X105733096Y-78085536D01*
X105901071Y-78336929D01*
X105964530Y-78379331D01*
X106406160Y-78820962D01*
X106241191Y-78931191D01*
X106100843Y-79141235D01*
X106051560Y-79389000D01*
X106051560Y-82189000D01*
X106100843Y-82436765D01*
X106241191Y-82646809D01*
X106451235Y-82787157D01*
X106699000Y-82836440D01*
X108899000Y-82836440D01*
X109146765Y-82787157D01*
X109356809Y-82646809D01*
X109497157Y-82436765D01*
X109546440Y-82189000D01*
X109546440Y-79389000D01*
X109497157Y-79141235D01*
X109356809Y-78931191D01*
X109146765Y-78790843D01*
X108899000Y-78741560D01*
X108447483Y-78741560D01*
X108389329Y-78654526D01*
X108389327Y-78654524D01*
X108346929Y-78591071D01*
X108283476Y-78548673D01*
X108100338Y-78365536D01*
X108603615Y-78574000D01*
X109194385Y-78574000D01*
X109740185Y-78347922D01*
X110157922Y-77930185D01*
X110384000Y-77384385D01*
X110384000Y-76793615D01*
X114414000Y-76793615D01*
X114414000Y-77384385D01*
X114640078Y-77930185D01*
X115057815Y-78347922D01*
X115603615Y-78574000D01*
X116194385Y-78574000D01*
X116740185Y-78347922D01*
X117157922Y-77930185D01*
X117384000Y-77384385D01*
X117384000Y-76793615D01*
X117157922Y-76247815D01*
X116740185Y-75830078D01*
X116194385Y-75604000D01*
X115603615Y-75604000D01*
X115057815Y-75830078D01*
X114640078Y-76247815D01*
X114414000Y-76793615D01*
X110384000Y-76793615D01*
X110157922Y-76247815D01*
X109740185Y-75830078D01*
X109194385Y-75604000D01*
X108603615Y-75604000D01*
X108057815Y-75830078D01*
X107640078Y-76247815D01*
X107414000Y-76793615D01*
X107414000Y-77384385D01*
X107622465Y-77887663D01*
X107209000Y-77474199D01*
X107209000Y-61841964D01*
X107251072Y-61904929D01*
X107314528Y-61947329D01*
X113931943Y-68564744D01*
X113928908Y-68580000D01*
X114044161Y-69159418D01*
X114372375Y-69650625D01*
X114670761Y-69850000D01*
X114372375Y-70049375D01*
X114044161Y-70540582D01*
X113928908Y-71120000D01*
X114044161Y-71699418D01*
X114372375Y-72190625D01*
X114863582Y-72518839D01*
X115296744Y-72605000D01*
X115589256Y-72605000D01*
X116022418Y-72518839D01*
X116513625Y-72190625D01*
X116841839Y-71699418D01*
X116957092Y-71120000D01*
X116841839Y-70540582D01*
X116513625Y-70049375D01*
X116215239Y-69850000D01*
X116513625Y-69650625D01*
X116721178Y-69340000D01*
X124168000Y-69340000D01*
X124168000Y-69817939D01*
X124189896Y-69870802D01*
X123594528Y-70466171D01*
X123531072Y-70508571D01*
X123488672Y-70572027D01*
X123488671Y-70572028D01*
X123363097Y-70759963D01*
X123304112Y-71056500D01*
X123319001Y-71131352D01*
X123319000Y-75172653D01*
X123304112Y-75247500D01*
X123319000Y-75322347D01*
X123319000Y-75322351D01*
X123363096Y-75544036D01*
X123531071Y-75795429D01*
X123594530Y-75837831D01*
X124923791Y-77167092D01*
X124850908Y-77533500D01*
X124966161Y-78112918D01*
X124983254Y-78138499D01*
X122995771Y-78138499D01*
X123097157Y-77986765D01*
X123146440Y-77739000D01*
X123146440Y-74939000D01*
X123097157Y-74691235D01*
X122956809Y-74481191D01*
X122746765Y-74340843D01*
X122499000Y-74291560D01*
X119899000Y-74291560D01*
X119651235Y-74340843D01*
X119441191Y-74481191D01*
X119300843Y-74691235D01*
X119251560Y-74939000D01*
X119251560Y-77739000D01*
X119300843Y-77986765D01*
X119441191Y-78196809D01*
X119651235Y-78337157D01*
X119899000Y-78386440D01*
X120167604Y-78386440D01*
X120149172Y-78414026D01*
X119234454Y-79328744D01*
X119197157Y-79141235D01*
X119056809Y-78931191D01*
X118846765Y-78790843D01*
X118599000Y-78741560D01*
X115799000Y-78741560D01*
X115551235Y-78790843D01*
X115341191Y-78931191D01*
X115200843Y-79141235D01*
X115151560Y-79389000D01*
X115151560Y-82189000D01*
X115200843Y-82436765D01*
X115341191Y-82646809D01*
X115551235Y-82787157D01*
X115799000Y-82836440D01*
X118599000Y-82836440D01*
X118846765Y-82787157D01*
X119056809Y-82646809D01*
X119197157Y-82436765D01*
X119246440Y-82189000D01*
X119246440Y-81437483D01*
X119396929Y-81336929D01*
X119439331Y-81273470D01*
X121054303Y-79658499D01*
X124933457Y-79658499D01*
X124850908Y-80073500D01*
X124966161Y-80652918D01*
X125294375Y-81144125D01*
X125785582Y-81472339D01*
X126218744Y-81558500D01*
X126511256Y-81558500D01*
X126944418Y-81472339D01*
X127435625Y-81144125D01*
X127643178Y-80833500D01*
X130749199Y-80833500D01*
X133393698Y-83478000D01*
X133267244Y-83478000D01*
X132834082Y-83564161D01*
X132342875Y-83892375D01*
X132328404Y-83914033D01*
X132261827Y-83753302D01*
X132083199Y-83574673D01*
X131849810Y-83478000D01*
X131159250Y-83478000D01*
X131000500Y-83636750D01*
X131000500Y-84836000D01*
X131020500Y-84836000D01*
X131020500Y-85090000D01*
X131000500Y-85090000D01*
X131000500Y-86289250D01*
X131159250Y-86448000D01*
X131849810Y-86448000D01*
X132083199Y-86351327D01*
X132261827Y-86172698D01*
X132328404Y-86011967D01*
X132342875Y-86033625D01*
X132834082Y-86361839D01*
X133267244Y-86448000D01*
X133559756Y-86448000D01*
X133992918Y-86361839D01*
X134484125Y-86033625D01*
X134683500Y-85735239D01*
X134882875Y-86033625D01*
X135374082Y-86361839D01*
X135807244Y-86448000D01*
X136099756Y-86448000D01*
X136532918Y-86361839D01*
X137024125Y-86033625D01*
X137237343Y-85714522D01*
X137298317Y-85844358D01*
X137726576Y-86234645D01*
X138136610Y-86404476D01*
X138366500Y-86283155D01*
X138366500Y-85090000D01*
X138346500Y-85090000D01*
X138346500Y-84836000D01*
X138366500Y-84836000D01*
X138366500Y-83642845D01*
X138136610Y-83521524D01*
X137726576Y-83691355D01*
X137298317Y-84081642D01*
X137237343Y-84211478D01*
X137024125Y-83892375D01*
X136532918Y-83564161D01*
X136099756Y-83478000D01*
X135807244Y-83478000D01*
X135587093Y-83521791D01*
X133001756Y-80936455D01*
X133527862Y-80718534D01*
X133931534Y-80314862D01*
X134150000Y-79787439D01*
X134150000Y-79216561D01*
X133931534Y-78689138D01*
X133527862Y-78285466D01*
X133000439Y-78067000D01*
X132429561Y-78067000D01*
X131902138Y-78285466D01*
X131672018Y-78515586D01*
X131570459Y-78414028D01*
X131528058Y-78350570D01*
X131276666Y-78182595D01*
X131054981Y-78138499D01*
X131054976Y-78138499D01*
X130980129Y-78123611D01*
X130905282Y-78138499D01*
X127746746Y-78138499D01*
X127763839Y-78112918D01*
X127879092Y-77533500D01*
X127763839Y-76954082D01*
X127636326Y-76763245D01*
X135395861Y-76763245D01*
X135469995Y-77009364D01*
X136007223Y-77202465D01*
X136577454Y-77175278D01*
X136978005Y-77009364D01*
X137052139Y-76763245D01*
X136224000Y-75935105D01*
X135395861Y-76763245D01*
X127636326Y-76763245D01*
X127435625Y-76462875D01*
X127413967Y-76448404D01*
X127574698Y-76381827D01*
X127753327Y-76203199D01*
X127850000Y-75969810D01*
X127850000Y-75279250D01*
X127691250Y-75120500D01*
X126492000Y-75120500D01*
X126492000Y-75140500D01*
X126238000Y-75140500D01*
X126238000Y-75120500D01*
X126218000Y-75120500D01*
X126218000Y-74866500D01*
X126238000Y-74866500D01*
X126238000Y-73667250D01*
X126492000Y-73667250D01*
X126492000Y-74866500D01*
X127691250Y-74866500D01*
X127850000Y-74707750D01*
X127850000Y-74017190D01*
X127753327Y-73783801D01*
X127574698Y-73605173D01*
X127341309Y-73508500D01*
X126650750Y-73508500D01*
X126492000Y-73667250D01*
X126238000Y-73667250D01*
X126079250Y-73508500D01*
X125388691Y-73508500D01*
X125155302Y-73605173D01*
X124976673Y-73783801D01*
X124880000Y-74017190D01*
X124880000Y-74707750D01*
X125038748Y-74866498D01*
X124880000Y-74866498D01*
X124880000Y-74973699D01*
X124839000Y-74932699D01*
X124839000Y-71371301D01*
X125264698Y-70945604D01*
X125317561Y-70967500D01*
X125888439Y-70967500D01*
X126415862Y-70749034D01*
X126819534Y-70345362D01*
X127038000Y-69817939D01*
X127038000Y-69247061D01*
X126819534Y-68719638D01*
X126415862Y-68315966D01*
X125888439Y-68097500D01*
X125317561Y-68097500D01*
X125264698Y-68119397D01*
X125240831Y-68095529D01*
X125198429Y-68032071D01*
X124947037Y-67864096D01*
X124725352Y-67820000D01*
X124725347Y-67820000D01*
X124650500Y-67805112D01*
X124575653Y-67820000D01*
X116721178Y-67820000D01*
X116513625Y-67509375D01*
X116491967Y-67494904D01*
X116652698Y-67428327D01*
X116831327Y-67249699D01*
X116928000Y-67016310D01*
X116928000Y-66325750D01*
X116769250Y-66167000D01*
X115570000Y-66167000D01*
X115570000Y-66187000D01*
X115316000Y-66187000D01*
X115316000Y-66167000D01*
X114116750Y-66167000D01*
X113958000Y-66325750D01*
X113958000Y-66441198D01*
X112580492Y-65063690D01*
X113958000Y-65063690D01*
X113958000Y-65754250D01*
X114116750Y-65913000D01*
X115316000Y-65913000D01*
X115316000Y-64713750D01*
X115570000Y-64713750D01*
X115570000Y-65913000D01*
X116769250Y-65913000D01*
X116928000Y-65754250D01*
X116928000Y-65063690D01*
X116831327Y-64830301D01*
X116652698Y-64651673D01*
X116419309Y-64555000D01*
X115728750Y-64555000D01*
X115570000Y-64713750D01*
X115316000Y-64713750D01*
X115157250Y-64555000D01*
X114466691Y-64555000D01*
X114233302Y-64651673D01*
X114054673Y-64830301D01*
X113958000Y-65063690D01*
X112580492Y-65063690D01*
X111763863Y-64247061D01*
X124168000Y-64247061D01*
X124168000Y-64817939D01*
X124386466Y-65345362D01*
X124790138Y-65749034D01*
X125317561Y-65967500D01*
X125888439Y-65967500D01*
X126415862Y-65749034D01*
X126819534Y-65345362D01*
X127038000Y-64817939D01*
X127038000Y-64247061D01*
X126819534Y-63719638D01*
X126415862Y-63315966D01*
X125888439Y-63097500D01*
X125317561Y-63097500D01*
X124790138Y-63315966D01*
X124386466Y-63719638D01*
X124168000Y-64247061D01*
X111763863Y-64247061D01*
X109191840Y-61675039D01*
X109356809Y-61564809D01*
X109497157Y-61354765D01*
X109546440Y-61107000D01*
X109546440Y-58307000D01*
X115151560Y-58307000D01*
X115151560Y-61107000D01*
X115200843Y-61354765D01*
X115341191Y-61564809D01*
X115551235Y-61705157D01*
X115799000Y-61754440D01*
X116439001Y-61754440D01*
X116439001Y-62227932D01*
X116313000Y-62532126D01*
X116313000Y-62943874D01*
X116470569Y-63324280D01*
X116761720Y-63615431D01*
X117142126Y-63773000D01*
X117553874Y-63773000D01*
X117934280Y-63615431D01*
X118225431Y-63324280D01*
X118383000Y-62943874D01*
X118383000Y-62532126D01*
X118225431Y-62151720D01*
X117959000Y-61885289D01*
X117959000Y-61754440D01*
X118599000Y-61754440D01*
X118846765Y-61705157D01*
X119056809Y-61564809D01*
X119197157Y-61354765D01*
X119246440Y-61107000D01*
X119246440Y-58307000D01*
X119197157Y-58059235D01*
X119056809Y-57849191D01*
X119008724Y-57817061D01*
X124422000Y-57817061D01*
X124422000Y-58387939D01*
X124640466Y-58915362D01*
X125044138Y-59319034D01*
X125571561Y-59537500D01*
X126142439Y-59537500D01*
X126195302Y-59515603D01*
X128875329Y-62195630D01*
X128759760Y-62368591D01*
X128648387Y-62928500D01*
X128759760Y-63488409D01*
X129076923Y-63963077D01*
X129551591Y-64280240D01*
X129970167Y-64363500D01*
X130252833Y-64363500D01*
X130671409Y-64280240D01*
X131146077Y-63963077D01*
X131381500Y-63610742D01*
X131616923Y-63963077D01*
X131894213Y-64148356D01*
X131935597Y-64356407D01*
X132103572Y-64607799D01*
X132167028Y-64650199D01*
X133016501Y-65499673D01*
X133016501Y-69157990D01*
X132792833Y-69113500D01*
X132510167Y-69113500D01*
X132091591Y-69196760D01*
X131616923Y-69513923D01*
X131536285Y-69634606D01*
X131509657Y-69500735D01*
X131369309Y-69290691D01*
X131159265Y-69150343D01*
X130911500Y-69101060D01*
X129311500Y-69101060D01*
X129063735Y-69150343D01*
X128853691Y-69290691D01*
X128713343Y-69500735D01*
X128664060Y-69748500D01*
X128664060Y-71348500D01*
X128713343Y-71596265D01*
X128853691Y-71806309D01*
X129063735Y-71946657D01*
X129311500Y-71995940D01*
X130911500Y-71995940D01*
X131159265Y-71946657D01*
X131369309Y-71806309D01*
X131509657Y-71596265D01*
X131536285Y-71462394D01*
X131616923Y-71583077D01*
X132091591Y-71900240D01*
X132510167Y-71983500D01*
X132792833Y-71983500D01*
X133016502Y-71939009D01*
X133016502Y-73018860D01*
X132856333Y-72987000D01*
X132573667Y-72987000D01*
X132155091Y-73070260D01*
X131680423Y-73387423D01*
X131363260Y-73862091D01*
X131251887Y-74422000D01*
X131363260Y-74981909D01*
X131680423Y-75456577D01*
X132155091Y-75773740D01*
X132573667Y-75857000D01*
X132856333Y-75857000D01*
X133274909Y-75773740D01*
X133626636Y-75538723D01*
X134777035Y-75538723D01*
X134804222Y-76108954D01*
X134970136Y-76509505D01*
X135216255Y-76583639D01*
X136044395Y-75755500D01*
X136403605Y-75755500D01*
X137231745Y-76583639D01*
X137477864Y-76509505D01*
X137670965Y-75972277D01*
X137643778Y-75402046D01*
X137477864Y-75001495D01*
X137231745Y-74927361D01*
X136403605Y-75755500D01*
X136044395Y-75755500D01*
X135216255Y-74927361D01*
X134970136Y-75001495D01*
X134777035Y-75538723D01*
X133626636Y-75538723D01*
X133749577Y-75456577D01*
X134066740Y-74981909D01*
X134113316Y-74747755D01*
X135395861Y-74747755D01*
X136224000Y-75575895D01*
X137052139Y-74747755D01*
X136978005Y-74501636D01*
X136440777Y-74308535D01*
X135870546Y-74335722D01*
X135469995Y-74501636D01*
X135395861Y-74747755D01*
X134113316Y-74747755D01*
X134178113Y-74422000D01*
X134113688Y-74098113D01*
X134260971Y-73950830D01*
X134324430Y-73908428D01*
X134492405Y-73657036D01*
X134536501Y-73435351D01*
X134536501Y-73435347D01*
X134551389Y-73360499D01*
X134536501Y-73285651D01*
X134536501Y-71836703D01*
X134631591Y-71900240D01*
X135050167Y-71983500D01*
X135332833Y-71983500D01*
X135515386Y-71947188D01*
X138683172Y-75114975D01*
X138725570Y-75178428D01*
X138789023Y-75220826D01*
X138789025Y-75220828D01*
X138883569Y-75284000D01*
X138976962Y-75346403D01*
X139198647Y-75390499D01*
X139198651Y-75390499D01*
X139273498Y-75405387D01*
X139348345Y-75390499D01*
X139821956Y-75390499D01*
X139789000Y-75470061D01*
X139789000Y-76040939D01*
X140007466Y-76568362D01*
X140411138Y-76972034D01*
X140938561Y-77190500D01*
X141509439Y-77190500D01*
X142036862Y-76972034D01*
X142440534Y-76568362D01*
X142462430Y-76515500D01*
X143075199Y-76515500D01*
X143467269Y-76907571D01*
X143422191Y-76937691D01*
X143281843Y-77147735D01*
X143232560Y-77395500D01*
X143232560Y-79195500D01*
X143281843Y-79443265D01*
X143422191Y-79653309D01*
X143632235Y-79793657D01*
X143880000Y-79842940D01*
X144020000Y-79842940D01*
X144020000Y-80901698D01*
X141399908Y-83521791D01*
X141179756Y-83478000D01*
X140887244Y-83478000D01*
X140454082Y-83564161D01*
X139962875Y-83892375D01*
X139749657Y-84211478D01*
X139688683Y-84081642D01*
X139260424Y-83691355D01*
X138850390Y-83521524D01*
X138620500Y-83642845D01*
X138620500Y-84836000D01*
X138640500Y-84836000D01*
X138640500Y-85090000D01*
X138620500Y-85090000D01*
X138620500Y-86283155D01*
X138850390Y-86404476D01*
X139260424Y-86234645D01*
X139688683Y-85844358D01*
X139749657Y-85714522D01*
X139962875Y-86033625D01*
X140454082Y-86361839D01*
X140887244Y-86448000D01*
X141179756Y-86448000D01*
X141612918Y-86361839D01*
X142104125Y-86033625D01*
X142303500Y-85735239D01*
X142502875Y-86033625D01*
X142994082Y-86361839D01*
X143427244Y-86448000D01*
X143719756Y-86448000D01*
X144152918Y-86361839D01*
X144644125Y-86033625D01*
X144843500Y-85735239D01*
X145042875Y-86033625D01*
X145534082Y-86361839D01*
X145967244Y-86448000D01*
X146259756Y-86448000D01*
X146692918Y-86361839D01*
X147184125Y-86033625D01*
X147383500Y-85735239D01*
X147582875Y-86033625D01*
X148074082Y-86361839D01*
X148507244Y-86448000D01*
X148799756Y-86448000D01*
X149232918Y-86361839D01*
X149724125Y-86033625D01*
X150052339Y-85542418D01*
X150167592Y-84963000D01*
X150052339Y-84383582D01*
X149724125Y-83892375D01*
X149232918Y-83564161D01*
X148799756Y-83478000D01*
X148507244Y-83478000D01*
X148074082Y-83564161D01*
X147582875Y-83892375D01*
X147383500Y-84190761D01*
X147184125Y-83892375D01*
X146692918Y-83564161D01*
X146259756Y-83478000D01*
X145967244Y-83478000D01*
X145534082Y-83564161D01*
X145042875Y-83892375D01*
X144843500Y-84190761D01*
X144644125Y-83892375D01*
X144152918Y-83564161D01*
X143719756Y-83478000D01*
X143593302Y-83478000D01*
X145264473Y-81806829D01*
X145327929Y-81764429D01*
X145495904Y-81513037D01*
X145540000Y-81291352D01*
X145540000Y-81291348D01*
X145554888Y-81216501D01*
X145540000Y-81141654D01*
X145540000Y-80833500D01*
X152325153Y-80833500D01*
X152400000Y-80848388D01*
X152474847Y-80833500D01*
X152474852Y-80833500D01*
X152696537Y-80789404D01*
X152947929Y-80621429D01*
X152990331Y-80557970D01*
X153763161Y-79785140D01*
X153872670Y-79830500D01*
X154483330Y-79830500D01*
X155047507Y-79596810D01*
X155479310Y-79165007D01*
X155524669Y-79055500D01*
X164422333Y-79055500D01*
X164036892Y-79215155D01*
X163295655Y-79956392D01*
X162894500Y-80924866D01*
X162894500Y-81973134D01*
X163295655Y-82941608D01*
X164036892Y-83682845D01*
X165005366Y-84084000D01*
X166053634Y-84084000D01*
X167022108Y-83682845D01*
X167763345Y-82941608D01*
X168164500Y-81973134D01*
X168164500Y-80924866D01*
X167763345Y-79956392D01*
X167022108Y-79215155D01*
X166636667Y-79055500D01*
X170961199Y-79055500D01*
X171039860Y-79134161D01*
X170994500Y-79243670D01*
X170994500Y-79854330D01*
X171228190Y-80418507D01*
X171659993Y-80850310D01*
X172224170Y-81084000D01*
X172834830Y-81084000D01*
X173399007Y-80850310D01*
X173830810Y-80418507D01*
X174064500Y-79854330D01*
X174064500Y-79243670D01*
X173830810Y-78679493D01*
X173450317Y-78299000D01*
X173830810Y-77918507D01*
X174064500Y-77354330D01*
X174064500Y-76743670D01*
X174019140Y-76634162D01*
X174019828Y-76633474D01*
X174019830Y-76633471D01*
X174238971Y-76414330D01*
X174302430Y-76371928D01*
X174470405Y-76120536D01*
X174514501Y-75898851D01*
X174514501Y-75898847D01*
X174529389Y-75824000D01*
X174514501Y-75749153D01*
X174514501Y-74035845D01*
X174529389Y-73960998D01*
X174514501Y-73886151D01*
X174514501Y-73886147D01*
X174470405Y-73664462D01*
X174428603Y-73601901D01*
X174344830Y-73476525D01*
X174344828Y-73476523D01*
X174302430Y-73413070D01*
X174238977Y-73370672D01*
X167160332Y-66292029D01*
X167117930Y-66228570D01*
X166941362Y-66110591D01*
X167636345Y-65415608D01*
X168037500Y-64447134D01*
X168037500Y-63398866D01*
X167636345Y-62430392D01*
X167497453Y-62291500D01*
X170319153Y-62291500D01*
X170394000Y-62306388D01*
X170468847Y-62291500D01*
X170468852Y-62291500D01*
X170690537Y-62247404D01*
X170867500Y-62129161D01*
X170867500Y-62328330D01*
X171101190Y-62892507D01*
X171532993Y-63324310D01*
X172097170Y-63558000D01*
X172707830Y-63558000D01*
X173272007Y-63324310D01*
X173703810Y-62892507D01*
X173937500Y-62328330D01*
X173937500Y-61717670D01*
X173703810Y-61153493D01*
X173323317Y-60773000D01*
X173703810Y-60392507D01*
X173937500Y-59828330D01*
X173937500Y-59217670D01*
X173703810Y-58653493D01*
X173323317Y-58273000D01*
X173703810Y-57892507D01*
X173937500Y-57328330D01*
X173937500Y-56717670D01*
X173703810Y-56153493D01*
X173272007Y-55721690D01*
X172707830Y-55488000D01*
X172097170Y-55488000D01*
X171532993Y-55721690D01*
X171101190Y-56153493D01*
X171055918Y-56262790D01*
X171054860Y-56263000D01*
X171054856Y-56263000D01*
X170833171Y-56307096D01*
X170581779Y-56475071D01*
X170539377Y-56538530D01*
X170389906Y-56688001D01*
X167563952Y-56688001D01*
X167636345Y-56615608D01*
X168037500Y-55647134D01*
X168037500Y-54598866D01*
X167636345Y-53630392D01*
X166895108Y-52889155D01*
X165926634Y-52488000D01*
X164878366Y-52488000D01*
X163909892Y-52889155D01*
X163168655Y-53630392D01*
X162767500Y-54598866D01*
X162767500Y-54854200D01*
X161149829Y-53236530D01*
X161107427Y-53173071D01*
X160856035Y-53005096D01*
X160634350Y-52961000D01*
X160634345Y-52961000D01*
X160559498Y-52946112D01*
X160484651Y-52961000D01*
X153872043Y-52961000D01*
X153688577Y-52686423D01*
X153213909Y-52369260D01*
X152795333Y-52286000D01*
X152512667Y-52286000D01*
X152094091Y-52369260D01*
X151619423Y-52686423D01*
X151302260Y-53161091D01*
X151190887Y-53721000D01*
X151302260Y-54280909D01*
X151619423Y-54755577D01*
X152094091Y-55072740D01*
X152512667Y-55156000D01*
X152795333Y-55156000D01*
X153213909Y-55072740D01*
X153688577Y-54755577D01*
X153872043Y-54481000D01*
X160244697Y-54481000D01*
X163696172Y-57932477D01*
X163738570Y-57995930D01*
X163802023Y-58038328D01*
X163802025Y-58038330D01*
X163833312Y-58059235D01*
X163989962Y-58163905D01*
X164211647Y-58208001D01*
X164211651Y-58208001D01*
X164286498Y-58222889D01*
X164361345Y-58208001D01*
X170629860Y-58208001D01*
X170704707Y-58222889D01*
X170779554Y-58208001D01*
X170779559Y-58208001D01*
X171001244Y-58163905D01*
X171223848Y-58015165D01*
X171481683Y-58273000D01*
X171101190Y-58653493D01*
X170867500Y-59217670D01*
X170867500Y-59828330D01*
X170912860Y-59937839D01*
X170079199Y-60771500D01*
X155416430Y-60771500D01*
X155394534Y-60718638D01*
X154990862Y-60314966D01*
X154463439Y-60096500D01*
X153892561Y-60096500D01*
X153365138Y-60314966D01*
X152961466Y-60718638D01*
X152743000Y-61246061D01*
X152743000Y-61816939D01*
X152961466Y-62344362D01*
X153365138Y-62748034D01*
X153418000Y-62769930D01*
X153418001Y-65167699D01*
X153290167Y-65295533D01*
X153235534Y-65163638D01*
X152831862Y-64759966D01*
X152304439Y-64541500D01*
X151733561Y-64541500D01*
X151680698Y-64563397D01*
X149863302Y-62746001D01*
X150132577Y-62566077D01*
X150449740Y-62091409D01*
X150561113Y-61531500D01*
X150449740Y-60971591D01*
X150132577Y-60496923D01*
X149657909Y-60179760D01*
X149239333Y-60096500D01*
X148956667Y-60096500D01*
X148538091Y-60179760D01*
X148063423Y-60496923D01*
X147746260Y-60971591D01*
X147634887Y-61531500D01*
X147746260Y-62091409D01*
X148063423Y-62566077D01*
X148338000Y-62749544D01*
X148338000Y-62980653D01*
X148323112Y-63055500D01*
X148338000Y-63130347D01*
X148338000Y-63130351D01*
X148382096Y-63352036D01*
X148550071Y-63603429D01*
X148613530Y-63645831D01*
X150184198Y-65216500D01*
X146326978Y-65216500D01*
X146252130Y-65201612D01*
X146177282Y-65216500D01*
X146177278Y-65216500D01*
X145955593Y-65260596D01*
X145704201Y-65428571D01*
X145661801Y-65492027D01*
X142327028Y-68826801D01*
X142263572Y-68869201D01*
X142221172Y-68932657D01*
X142221171Y-68932658D01*
X142095597Y-69120593D01*
X142054213Y-69328644D01*
X141776923Y-69513923D01*
X141541500Y-69866258D01*
X141306077Y-69513923D01*
X141031500Y-69330457D01*
X141031500Y-64146543D01*
X141306077Y-63963077D01*
X141541500Y-63610742D01*
X141776923Y-63963077D01*
X142251591Y-64280240D01*
X142670167Y-64363500D01*
X142952833Y-64363500D01*
X143371409Y-64280240D01*
X143846077Y-63963077D01*
X144081500Y-63610742D01*
X144316923Y-63963077D01*
X144791591Y-64280240D01*
X145210167Y-64363500D01*
X145492833Y-64363500D01*
X145911409Y-64280240D01*
X146386077Y-63963077D01*
X146703240Y-63488409D01*
X146814613Y-62928500D01*
X146703240Y-62368591D01*
X146386077Y-61893923D01*
X145911409Y-61576760D01*
X145492833Y-61493500D01*
X145210167Y-61493500D01*
X144791591Y-61576760D01*
X144316923Y-61893923D01*
X144081500Y-62246258D01*
X143846077Y-61893923D01*
X143571500Y-61710457D01*
X143571500Y-60272848D01*
X143586388Y-60198000D01*
X143571500Y-60123152D01*
X143571500Y-60123148D01*
X143527404Y-59901463D01*
X143527404Y-59901462D01*
X143401829Y-59713527D01*
X143359429Y-59650071D01*
X143295973Y-59607671D01*
X141303603Y-57615302D01*
X141325500Y-57562439D01*
X141325500Y-57277000D01*
X143507387Y-57277000D01*
X143618760Y-57836909D01*
X143935923Y-58311577D01*
X144410591Y-58628740D01*
X144829167Y-58712000D01*
X145111833Y-58712000D01*
X145530409Y-58628740D01*
X146005077Y-58311577D01*
X146188543Y-58037000D01*
X147266027Y-58037000D01*
X147491923Y-58375077D01*
X147966591Y-58692240D01*
X148385167Y-58775500D01*
X148667833Y-58775500D01*
X149086409Y-58692240D01*
X149561077Y-58375077D01*
X149878240Y-57900409D01*
X149989613Y-57340500D01*
X149878240Y-56780591D01*
X149717817Y-56540500D01*
X154699060Y-56540500D01*
X154699060Y-58140500D01*
X154748343Y-58388265D01*
X154888691Y-58598309D01*
X155098735Y-58738657D01*
X155346500Y-58787940D01*
X156946500Y-58787940D01*
X157194265Y-58738657D01*
X157404309Y-58598309D01*
X157544657Y-58388265D01*
X157593940Y-58140500D01*
X157593940Y-56540500D01*
X157544657Y-56292735D01*
X157404309Y-56082691D01*
X157194265Y-55942343D01*
X156946500Y-55893060D01*
X155346500Y-55893060D01*
X155098735Y-55942343D01*
X154888691Y-56082691D01*
X154748343Y-56292735D01*
X154699060Y-56540500D01*
X149717817Y-56540500D01*
X149561077Y-56305923D01*
X149086409Y-55988760D01*
X148667833Y-55905500D01*
X148385167Y-55905500D01*
X147966591Y-55988760D01*
X147491923Y-56305923D01*
X147350886Y-56517000D01*
X146188543Y-56517000D01*
X146005077Y-56242423D01*
X145730500Y-56058957D01*
X145730500Y-55168440D01*
X145834000Y-55168440D01*
X146081765Y-55119157D01*
X146291809Y-54978809D01*
X146432157Y-54768765D01*
X146481440Y-54521000D01*
X146481440Y-52921000D01*
X146432157Y-52673235D01*
X146291809Y-52463191D01*
X146081765Y-52322843D01*
X145834000Y-52273560D01*
X144234000Y-52273560D01*
X143986235Y-52322843D01*
X143776191Y-52463191D01*
X143635843Y-52673235D01*
X143586560Y-52921000D01*
X143586560Y-54521000D01*
X143635843Y-54768765D01*
X143776191Y-54978809D01*
X143986235Y-55119157D01*
X144210501Y-55163766D01*
X144210500Y-56058956D01*
X143935923Y-56242423D01*
X143618760Y-56717091D01*
X143507387Y-57277000D01*
X141325500Y-57277000D01*
X141325500Y-56991561D01*
X141107034Y-56464138D01*
X140703362Y-56060466D01*
X140175939Y-55842000D01*
X139605061Y-55842000D01*
X139077638Y-56060466D01*
X138769953Y-56368151D01*
X136414103Y-54012302D01*
X136436000Y-53959439D01*
X136436000Y-53388561D01*
X136217534Y-52861138D01*
X135813862Y-52457466D01*
X135286439Y-52239000D01*
X134715561Y-52239000D01*
X134188138Y-52457466D01*
X133784466Y-52861138D01*
X133566000Y-53388561D01*
X133566000Y-53959439D01*
X133784466Y-54486862D01*
X134188138Y-54890534D01*
X134715561Y-55109000D01*
X135286439Y-55109000D01*
X135339302Y-55087103D01*
X138013673Y-57761476D01*
X138056071Y-57824929D01*
X138119524Y-57867327D01*
X138119526Y-57867329D01*
X138214561Y-57930829D01*
X138307463Y-57992904D01*
X138529148Y-58037000D01*
X138529152Y-58037000D01*
X138603999Y-58051888D01*
X138654108Y-58041921D01*
X138673966Y-58089862D01*
X139077638Y-58493534D01*
X139605061Y-58712000D01*
X140175939Y-58712000D01*
X140228802Y-58690103D01*
X142051501Y-60512803D01*
X142051500Y-61710456D01*
X141776923Y-61893923D01*
X141541500Y-62246258D01*
X141306077Y-61893923D01*
X140831409Y-61576760D01*
X140412833Y-61493500D01*
X140130167Y-61493500D01*
X139711591Y-61576760D01*
X139236923Y-61893923D01*
X139001500Y-62246258D01*
X138766077Y-61893923D01*
X138291409Y-61576760D01*
X137872833Y-61493500D01*
X137590167Y-61493500D01*
X137171591Y-61576760D01*
X136696923Y-61893923D01*
X136461500Y-62246258D01*
X136226077Y-61893923D01*
X135751409Y-61576760D01*
X135420175Y-61510873D01*
X132335688Y-58426387D01*
X132343212Y-58388561D01*
X133566000Y-58388561D01*
X133566000Y-58959439D01*
X133784466Y-59486862D01*
X134188138Y-59890534D01*
X134715561Y-60109000D01*
X135286439Y-60109000D01*
X135813862Y-59890534D01*
X136217534Y-59486862D01*
X136436000Y-58959439D01*
X136436000Y-58388561D01*
X136217534Y-57861138D01*
X135813862Y-57457466D01*
X135286439Y-57239000D01*
X134715561Y-57239000D01*
X134188138Y-57457466D01*
X133784466Y-57861138D01*
X133566000Y-58388561D01*
X132343212Y-58388561D01*
X132400113Y-58102500D01*
X132288740Y-57542591D01*
X131971577Y-57067923D01*
X131496909Y-56750760D01*
X131078333Y-56667500D01*
X130795667Y-56667500D01*
X130377091Y-56750760D01*
X129902423Y-57067923D01*
X129585260Y-57542591D01*
X129473887Y-58102500D01*
X129585260Y-58662409D01*
X129902423Y-59137077D01*
X130377091Y-59454240D01*
X130795667Y-59537500D01*
X131078333Y-59537500D01*
X131260887Y-59501188D01*
X133588266Y-61828568D01*
X133211409Y-61576760D01*
X132792833Y-61493500D01*
X132510167Y-61493500D01*
X132091591Y-61576760D01*
X131616923Y-61893923D01*
X131381500Y-62246258D01*
X131146077Y-61893923D01*
X130671409Y-61576760D01*
X130340175Y-61510873D01*
X127270103Y-58440802D01*
X127292000Y-58387939D01*
X127292000Y-57817061D01*
X127073534Y-57289638D01*
X126669862Y-56885966D01*
X126142439Y-56667500D01*
X125571561Y-56667500D01*
X125044138Y-56885966D01*
X124640466Y-57289638D01*
X124422000Y-57817061D01*
X119008724Y-57817061D01*
X118846765Y-57708843D01*
X118599000Y-57659560D01*
X115799000Y-57659560D01*
X115551235Y-57708843D01*
X115341191Y-57849191D01*
X115200843Y-58059235D01*
X115151560Y-58307000D01*
X109546440Y-58307000D01*
X109497157Y-58059235D01*
X109356809Y-57849191D01*
X109146765Y-57708843D01*
X108899000Y-57659560D01*
X106699000Y-57659560D01*
X106451235Y-57708843D01*
X106241191Y-57849191D01*
X106100843Y-58059235D01*
X106051560Y-58307000D01*
X106051560Y-60679639D01*
X105964528Y-60766671D01*
X105901072Y-60809071D01*
X105858672Y-60872527D01*
X105858671Y-60872528D01*
X105733097Y-61060463D01*
X105674112Y-61357000D01*
X105003146Y-61357000D01*
X105062039Y-55711615D01*
X107414000Y-55711615D01*
X107414000Y-56302385D01*
X107640078Y-56848185D01*
X108057815Y-57265922D01*
X108603615Y-57492000D01*
X109194385Y-57492000D01*
X109740185Y-57265922D01*
X110157922Y-56848185D01*
X110384000Y-56302385D01*
X110384000Y-55711615D01*
X114414000Y-55711615D01*
X114414000Y-56302385D01*
X114640078Y-56848185D01*
X115057815Y-57265922D01*
X115603615Y-57492000D01*
X116194385Y-57492000D01*
X116740185Y-57265922D01*
X117157922Y-56848185D01*
X117384000Y-56302385D01*
X117384000Y-55711615D01*
X117157922Y-55165815D01*
X116740185Y-54748078D01*
X116194385Y-54522000D01*
X115603615Y-54522000D01*
X115057815Y-54748078D01*
X114640078Y-55165815D01*
X114414000Y-55711615D01*
X110384000Y-55711615D01*
X110157922Y-55165815D01*
X109740185Y-54748078D01*
X109194385Y-54522000D01*
X108603615Y-54522000D01*
X108057815Y-54748078D01*
X107640078Y-55165815D01*
X107414000Y-55711615D01*
X105062039Y-55711615D01*
X105081386Y-53857000D01*
X119251560Y-53857000D01*
X119251560Y-56657000D01*
X119300843Y-56904765D01*
X119441191Y-57114809D01*
X119651235Y-57255157D01*
X119899000Y-57304440D01*
X122499000Y-57304440D01*
X122746765Y-57255157D01*
X122956809Y-57114809D01*
X123097157Y-56904765D01*
X123146440Y-56657000D01*
X123146440Y-53857000D01*
X123097157Y-53609235D01*
X122956809Y-53399191D01*
X122746765Y-53258843D01*
X122499000Y-53209560D01*
X119899000Y-53209560D01*
X119651235Y-53258843D01*
X119441191Y-53399191D01*
X119300843Y-53609235D01*
X119251560Y-53857000D01*
X105081386Y-53857000D01*
X105129322Y-49262159D01*
X107298500Y-49262159D01*
X107298500Y-50051841D01*
X107600699Y-50781412D01*
X108159088Y-51339801D01*
X108888659Y-51642000D01*
X109678341Y-51642000D01*
X110407912Y-51339801D01*
X110966301Y-50781412D01*
X111268500Y-50051841D01*
X111268500Y-49262159D01*
X110966301Y-48532588D01*
X110407912Y-47974199D01*
X109678341Y-47672000D01*
X108888659Y-47672000D01*
X108159088Y-47974199D01*
X107600699Y-48532588D01*
X107298500Y-49262159D01*
X105129322Y-49262159D01*
X105148269Y-47446000D01*
X175009076Y-47446000D01*
X175015151Y-48784511D01*
X175015151Y-48784511D01*
G37*
X175015151Y-48784511D02*
X174910801Y-48532588D01*
X174352412Y-47974199D01*
X173622841Y-47672000D01*
X172833159Y-47672000D01*
X172103588Y-47974199D01*
X171545199Y-48532588D01*
X171243000Y-49262159D01*
X171243000Y-50051841D01*
X171545199Y-50781412D01*
X172103588Y-51339801D01*
X172833159Y-51642000D01*
X173622841Y-51642000D01*
X174352412Y-51339801D01*
X174910801Y-50781412D01*
X175022985Y-50510576D01*
X175182994Y-85765718D01*
X174910801Y-85108588D01*
X174352412Y-84550199D01*
X173622841Y-84248000D01*
X172833159Y-84248000D01*
X172103588Y-84550199D01*
X171545199Y-85108588D01*
X171243000Y-85838159D01*
X171243000Y-86627841D01*
X171545199Y-87357412D01*
X172103588Y-87915801D01*
X172833159Y-88218000D01*
X173622841Y-88218000D01*
X174352412Y-87915801D01*
X174910801Y-87357412D01*
X175187190Y-86690153D01*
X175194573Y-88317000D01*
X104850000Y-88317000D01*
X104850000Y-85838159D01*
X107743000Y-85838159D01*
X107743000Y-86627841D01*
X108045199Y-87357412D01*
X108603588Y-87915801D01*
X109333159Y-88218000D01*
X110122841Y-88218000D01*
X110852412Y-87915801D01*
X111410801Y-87357412D01*
X111713000Y-86627841D01*
X111713000Y-85838159D01*
X111468859Y-85248750D01*
X129388500Y-85248750D01*
X129388500Y-85939309D01*
X129485173Y-86172698D01*
X129663801Y-86351327D01*
X129897190Y-86448000D01*
X130587750Y-86448000D01*
X130746500Y-86289250D01*
X130746500Y-85090000D01*
X129547250Y-85090000D01*
X129388500Y-85248750D01*
X111468859Y-85248750D01*
X111410801Y-85108588D01*
X110852412Y-84550199D01*
X110122841Y-84248000D01*
X109333159Y-84248000D01*
X108603588Y-84550199D01*
X108045199Y-85108588D01*
X107743000Y-85838159D01*
X104850000Y-85838159D01*
X104850000Y-83986691D01*
X129388500Y-83986691D01*
X129388500Y-84677250D01*
X129547250Y-84836000D01*
X130746500Y-84836000D01*
X130746500Y-83636750D01*
X130587750Y-83478000D01*
X129897190Y-83478000D01*
X129663801Y-83574673D01*
X129485173Y-83753302D01*
X129388500Y-83986691D01*
X104850000Y-83986691D01*
X104850000Y-76037226D01*
X105003146Y-61357000D01*
X105674112Y-61357000D01*
X105689001Y-61431852D01*
X105689000Y-77714153D01*
X105674112Y-77789000D01*
X105689000Y-77863847D01*
X105689000Y-77863851D01*
X105733096Y-78085536D01*
X105901071Y-78336929D01*
X105964530Y-78379331D01*
X106406160Y-78820962D01*
X106241191Y-78931191D01*
X106100843Y-79141235D01*
X106051560Y-79389000D01*
X106051560Y-82189000D01*
X106100843Y-82436765D01*
X106241191Y-82646809D01*
X106451235Y-82787157D01*
X106699000Y-82836440D01*
X108899000Y-82836440D01*
X109146765Y-82787157D01*
X109356809Y-82646809D01*
X109497157Y-82436765D01*
X109546440Y-82189000D01*
X109546440Y-79389000D01*
X109497157Y-79141235D01*
X109356809Y-78931191D01*
X109146765Y-78790843D01*
X108899000Y-78741560D01*
X108447483Y-78741560D01*
X108389329Y-78654526D01*
X108389327Y-78654524D01*
X108346929Y-78591071D01*
X108283476Y-78548673D01*
X108100338Y-78365536D01*
X108603615Y-78574000D01*
X109194385Y-78574000D01*
X109740185Y-78347922D01*
X110157922Y-77930185D01*
X110384000Y-77384385D01*
X110384000Y-76793615D01*
X114414000Y-76793615D01*
X114414000Y-77384385D01*
X114640078Y-77930185D01*
X115057815Y-78347922D01*
X115603615Y-78574000D01*
X116194385Y-78574000D01*
X116740185Y-78347922D01*
X117157922Y-77930185D01*
X117384000Y-77384385D01*
X117384000Y-76793615D01*
X117157922Y-76247815D01*
X116740185Y-75830078D01*
X116194385Y-75604000D01*
X115603615Y-75604000D01*
X115057815Y-75830078D01*
X114640078Y-76247815D01*
X114414000Y-76793615D01*
X110384000Y-76793615D01*
X110157922Y-76247815D01*
X109740185Y-75830078D01*
X109194385Y-75604000D01*
X108603615Y-75604000D01*
X108057815Y-75830078D01*
X107640078Y-76247815D01*
X107414000Y-76793615D01*
X107414000Y-77384385D01*
X107622465Y-77887663D01*
X107209000Y-77474199D01*
X107209000Y-61841964D01*
X107251072Y-61904929D01*
X107314528Y-61947329D01*
X113931943Y-68564744D01*
X113928908Y-68580000D01*
X114044161Y-69159418D01*
X114372375Y-69650625D01*
X114670761Y-69850000D01*
X114372375Y-70049375D01*
X114044161Y-70540582D01*
X113928908Y-71120000D01*
X114044161Y-71699418D01*
X114372375Y-72190625D01*
X114863582Y-72518839D01*
X115296744Y-72605000D01*
X115589256Y-72605000D01*
X116022418Y-72518839D01*
X116513625Y-72190625D01*
X116841839Y-71699418D01*
X116957092Y-71120000D01*
X116841839Y-70540582D01*
X116513625Y-70049375D01*
X116215239Y-69850000D01*
X116513625Y-69650625D01*
X116721178Y-69340000D01*
X124168000Y-69340000D01*
X124168000Y-69817939D01*
X124189896Y-69870802D01*
X123594528Y-70466171D01*
X123531072Y-70508571D01*
X123488672Y-70572027D01*
X123488671Y-70572028D01*
X123363097Y-70759963D01*
X123304112Y-71056500D01*
X123319001Y-71131352D01*
X123319000Y-75172653D01*
X123304112Y-75247500D01*
X123319000Y-75322347D01*
X123319000Y-75322351D01*
X123363096Y-75544036D01*
X123531071Y-75795429D01*
X123594530Y-75837831D01*
X124923791Y-77167092D01*
X124850908Y-77533500D01*
X124966161Y-78112918D01*
X124983254Y-78138499D01*
X122995771Y-78138499D01*
X123097157Y-77986765D01*
X123146440Y-77739000D01*
X123146440Y-74939000D01*
X123097157Y-74691235D01*
X122956809Y-74481191D01*
X122746765Y-74340843D01*
X122499000Y-74291560D01*
X119899000Y-74291560D01*
X119651235Y-74340843D01*
X119441191Y-74481191D01*
X119300843Y-74691235D01*
X119251560Y-74939000D01*
X119251560Y-77739000D01*
X119300843Y-77986765D01*
X119441191Y-78196809D01*
X119651235Y-78337157D01*
X119899000Y-78386440D01*
X120167604Y-78386440D01*
X120149172Y-78414026D01*
X119234454Y-79328744D01*
X119197157Y-79141235D01*
X119056809Y-78931191D01*
X118846765Y-78790843D01*
X118599000Y-78741560D01*
X115799000Y-78741560D01*
X115551235Y-78790843D01*
X115341191Y-78931191D01*
X115200843Y-79141235D01*
X115151560Y-79389000D01*
X115151560Y-82189000D01*
X115200843Y-82436765D01*
X115341191Y-82646809D01*
X115551235Y-82787157D01*
X115799000Y-82836440D01*
X118599000Y-82836440D01*
X118846765Y-82787157D01*
X119056809Y-82646809D01*
X119197157Y-82436765D01*
X119246440Y-82189000D01*
X119246440Y-81437483D01*
X119396929Y-81336929D01*
X119439331Y-81273470D01*
X121054303Y-79658499D01*
X124933457Y-79658499D01*
X124850908Y-80073500D01*
X124966161Y-80652918D01*
X125294375Y-81144125D01*
X125785582Y-81472339D01*
X126218744Y-81558500D01*
X126511256Y-81558500D01*
X126944418Y-81472339D01*
X127435625Y-81144125D01*
X127643178Y-80833500D01*
X130749199Y-80833500D01*
X133393698Y-83478000D01*
X133267244Y-83478000D01*
X132834082Y-83564161D01*
X132342875Y-83892375D01*
X132328404Y-83914033D01*
X132261827Y-83753302D01*
X132083199Y-83574673D01*
X131849810Y-83478000D01*
X131159250Y-83478000D01*
X131000500Y-83636750D01*
X131000500Y-84836000D01*
X131020500Y-84836000D01*
X131020500Y-85090000D01*
X131000500Y-85090000D01*
X131000500Y-86289250D01*
X131159250Y-86448000D01*
X131849810Y-86448000D01*
X132083199Y-86351327D01*
X132261827Y-86172698D01*
X132328404Y-86011967D01*
X132342875Y-86033625D01*
X132834082Y-86361839D01*
X133267244Y-86448000D01*
X133559756Y-86448000D01*
X133992918Y-86361839D01*
X134484125Y-86033625D01*
X134683500Y-85735239D01*
X134882875Y-86033625D01*
X135374082Y-86361839D01*
X135807244Y-86448000D01*
X136099756Y-86448000D01*
X136532918Y-86361839D01*
X137024125Y-86033625D01*
X137237343Y-85714522D01*
X137298317Y-85844358D01*
X137726576Y-86234645D01*
X138136610Y-86404476D01*
X138366500Y-86283155D01*
X138366500Y-85090000D01*
X138346500Y-85090000D01*
X138346500Y-84836000D01*
X138366500Y-84836000D01*
X138366500Y-83642845D01*
X138136610Y-83521524D01*
X137726576Y-83691355D01*
X137298317Y-84081642D01*
X137237343Y-84211478D01*
X137024125Y-83892375D01*
X136532918Y-83564161D01*
X136099756Y-83478000D01*
X135807244Y-83478000D01*
X135587093Y-83521791D01*
X133001756Y-80936455D01*
X133527862Y-80718534D01*
X133931534Y-80314862D01*
X134150000Y-79787439D01*
X134150000Y-79216561D01*
X133931534Y-78689138D01*
X133527862Y-78285466D01*
X133000439Y-78067000D01*
X132429561Y-78067000D01*
X131902138Y-78285466D01*
X131672018Y-78515586D01*
X131570459Y-78414028D01*
X131528058Y-78350570D01*
X131276666Y-78182595D01*
X131054981Y-78138499D01*
X131054976Y-78138499D01*
X130980129Y-78123611D01*
X130905282Y-78138499D01*
X127746746Y-78138499D01*
X127763839Y-78112918D01*
X127879092Y-77533500D01*
X127763839Y-76954082D01*
X127636326Y-76763245D01*
X135395861Y-76763245D01*
X135469995Y-77009364D01*
X136007223Y-77202465D01*
X136577454Y-77175278D01*
X136978005Y-77009364D01*
X137052139Y-76763245D01*
X136224000Y-75935105D01*
X135395861Y-76763245D01*
X127636326Y-76763245D01*
X127435625Y-76462875D01*
X127413967Y-76448404D01*
X127574698Y-76381827D01*
X127753327Y-76203199D01*
X127850000Y-75969810D01*
X127850000Y-75279250D01*
X127691250Y-75120500D01*
X126492000Y-75120500D01*
X126492000Y-75140500D01*
X126238000Y-75140500D01*
X126238000Y-75120500D01*
X126218000Y-75120500D01*
X126218000Y-74866500D01*
X126238000Y-74866500D01*
X126238000Y-73667250D01*
X126492000Y-73667250D01*
X126492000Y-74866500D01*
X127691250Y-74866500D01*
X127850000Y-74707750D01*
X127850000Y-74017190D01*
X127753327Y-73783801D01*
X127574698Y-73605173D01*
X127341309Y-73508500D01*
X126650750Y-73508500D01*
X126492000Y-73667250D01*
X126238000Y-73667250D01*
X126079250Y-73508500D01*
X125388691Y-73508500D01*
X125155302Y-73605173D01*
X124976673Y-73783801D01*
X124880000Y-74017190D01*
X124880000Y-74707750D01*
X125038748Y-74866498D01*
X124880000Y-74866498D01*
X124880000Y-74973699D01*
X124839000Y-74932699D01*
X124839000Y-71371301D01*
X125264698Y-70945604D01*
X125317561Y-70967500D01*
X125888439Y-70967500D01*
X126415862Y-70749034D01*
X126819534Y-70345362D01*
X127038000Y-69817939D01*
X127038000Y-69247061D01*
X126819534Y-68719638D01*
X126415862Y-68315966D01*
X125888439Y-68097500D01*
X125317561Y-68097500D01*
X125264698Y-68119397D01*
X125240831Y-68095529D01*
X125198429Y-68032071D01*
X124947037Y-67864096D01*
X124725352Y-67820000D01*
X124725347Y-67820000D01*
X124650500Y-67805112D01*
X124575653Y-67820000D01*
X116721178Y-67820000D01*
X116513625Y-67509375D01*
X116491967Y-67494904D01*
X116652698Y-67428327D01*
X116831327Y-67249699D01*
X116928000Y-67016310D01*
X116928000Y-66325750D01*
X116769250Y-66167000D01*
X115570000Y-66167000D01*
X115570000Y-66187000D01*
X115316000Y-66187000D01*
X115316000Y-66167000D01*
X114116750Y-66167000D01*
X113958000Y-66325750D01*
X113958000Y-66441198D01*
X112580492Y-65063690D01*
X113958000Y-65063690D01*
X113958000Y-65754250D01*
X114116750Y-65913000D01*
X115316000Y-65913000D01*
X115316000Y-64713750D01*
X115570000Y-64713750D01*
X115570000Y-65913000D01*
X116769250Y-65913000D01*
X116928000Y-65754250D01*
X116928000Y-65063690D01*
X116831327Y-64830301D01*
X116652698Y-64651673D01*
X116419309Y-64555000D01*
X115728750Y-64555000D01*
X115570000Y-64713750D01*
X115316000Y-64713750D01*
X115157250Y-64555000D01*
X114466691Y-64555000D01*
X114233302Y-64651673D01*
X114054673Y-64830301D01*
X113958000Y-65063690D01*
X112580492Y-65063690D01*
X111763863Y-64247061D01*
X124168000Y-64247061D01*
X124168000Y-64817939D01*
X124386466Y-65345362D01*
X124790138Y-65749034D01*
X125317561Y-65967500D01*
X125888439Y-65967500D01*
X126415862Y-65749034D01*
X126819534Y-65345362D01*
X127038000Y-64817939D01*
X127038000Y-64247061D01*
X126819534Y-63719638D01*
X126415862Y-63315966D01*
X125888439Y-63097500D01*
X125317561Y-63097500D01*
X124790138Y-63315966D01*
X124386466Y-63719638D01*
X124168000Y-64247061D01*
X111763863Y-64247061D01*
X109191840Y-61675039D01*
X109356809Y-61564809D01*
X109497157Y-61354765D01*
X109546440Y-61107000D01*
X109546440Y-58307000D01*
X115151560Y-58307000D01*
X115151560Y-61107000D01*
X115200843Y-61354765D01*
X115341191Y-61564809D01*
X115551235Y-61705157D01*
X115799000Y-61754440D01*
X116439001Y-61754440D01*
X116439001Y-62227932D01*
X116313000Y-62532126D01*
X116313000Y-62943874D01*
X116470569Y-63324280D01*
X116761720Y-63615431D01*
X117142126Y-63773000D01*
X117553874Y-63773000D01*
X117934280Y-63615431D01*
X118225431Y-63324280D01*
X118383000Y-62943874D01*
X118383000Y-62532126D01*
X118225431Y-62151720D01*
X117959000Y-61885289D01*
X117959000Y-61754440D01*
X118599000Y-61754440D01*
X118846765Y-61705157D01*
X119056809Y-61564809D01*
X119197157Y-61354765D01*
X119246440Y-61107000D01*
X119246440Y-58307000D01*
X119197157Y-58059235D01*
X119056809Y-57849191D01*
X119008724Y-57817061D01*
X124422000Y-57817061D01*
X124422000Y-58387939D01*
X124640466Y-58915362D01*
X125044138Y-59319034D01*
X125571561Y-59537500D01*
X126142439Y-59537500D01*
X126195302Y-59515603D01*
X128875329Y-62195630D01*
X128759760Y-62368591D01*
X128648387Y-62928500D01*
X128759760Y-63488409D01*
X129076923Y-63963077D01*
X129551591Y-64280240D01*
X129970167Y-64363500D01*
X130252833Y-64363500D01*
X130671409Y-64280240D01*
X131146077Y-63963077D01*
X131381500Y-63610742D01*
X131616923Y-63963077D01*
X131894213Y-64148356D01*
X131935597Y-64356407D01*
X132103572Y-64607799D01*
X132167028Y-64650199D01*
X133016501Y-65499673D01*
X133016501Y-69157990D01*
X132792833Y-69113500D01*
X132510167Y-69113500D01*
X132091591Y-69196760D01*
X131616923Y-69513923D01*
X131536285Y-69634606D01*
X131509657Y-69500735D01*
X131369309Y-69290691D01*
X131159265Y-69150343D01*
X130911500Y-69101060D01*
X129311500Y-69101060D01*
X129063735Y-69150343D01*
X128853691Y-69290691D01*
X128713343Y-69500735D01*
X128664060Y-69748500D01*
X128664060Y-71348500D01*
X128713343Y-71596265D01*
X128853691Y-71806309D01*
X129063735Y-71946657D01*
X129311500Y-71995940D01*
X130911500Y-71995940D01*
X131159265Y-71946657D01*
X131369309Y-71806309D01*
X131509657Y-71596265D01*
X131536285Y-71462394D01*
X131616923Y-71583077D01*
X132091591Y-71900240D01*
X132510167Y-71983500D01*
X132792833Y-71983500D01*
X133016502Y-71939009D01*
X133016502Y-73018860D01*
X132856333Y-72987000D01*
X132573667Y-72987000D01*
X132155091Y-73070260D01*
X131680423Y-73387423D01*
X131363260Y-73862091D01*
X131251887Y-74422000D01*
X131363260Y-74981909D01*
X131680423Y-75456577D01*
X132155091Y-75773740D01*
X132573667Y-75857000D01*
X132856333Y-75857000D01*
X133274909Y-75773740D01*
X133626636Y-75538723D01*
X134777035Y-75538723D01*
X134804222Y-76108954D01*
X134970136Y-76509505D01*
X135216255Y-76583639D01*
X136044395Y-75755500D01*
X136403605Y-75755500D01*
X137231745Y-76583639D01*
X137477864Y-76509505D01*
X137670965Y-75972277D01*
X137643778Y-75402046D01*
X137477864Y-75001495D01*
X137231745Y-74927361D01*
X136403605Y-75755500D01*
X136044395Y-75755500D01*
X135216255Y-74927361D01*
X134970136Y-75001495D01*
X134777035Y-75538723D01*
X133626636Y-75538723D01*
X133749577Y-75456577D01*
X134066740Y-74981909D01*
X134113316Y-74747755D01*
X135395861Y-74747755D01*
X136224000Y-75575895D01*
X137052139Y-74747755D01*
X136978005Y-74501636D01*
X136440777Y-74308535D01*
X135870546Y-74335722D01*
X135469995Y-74501636D01*
X135395861Y-74747755D01*
X134113316Y-74747755D01*
X134178113Y-74422000D01*
X134113688Y-74098113D01*
X134260971Y-73950830D01*
X134324430Y-73908428D01*
X134492405Y-73657036D01*
X134536501Y-73435351D01*
X134536501Y-73435347D01*
X134551389Y-73360499D01*
X134536501Y-73285651D01*
X134536501Y-71836703D01*
X134631591Y-71900240D01*
X135050167Y-71983500D01*
X135332833Y-71983500D01*
X135515386Y-71947188D01*
X138683172Y-75114975D01*
X138725570Y-75178428D01*
X138789023Y-75220826D01*
X138789025Y-75220828D01*
X138883569Y-75284000D01*
X138976962Y-75346403D01*
X139198647Y-75390499D01*
X139198651Y-75390499D01*
X139273498Y-75405387D01*
X139348345Y-75390499D01*
X139821956Y-75390499D01*
X139789000Y-75470061D01*
X139789000Y-76040939D01*
X140007466Y-76568362D01*
X140411138Y-76972034D01*
X140938561Y-77190500D01*
X141509439Y-77190500D01*
X142036862Y-76972034D01*
X142440534Y-76568362D01*
X142462430Y-76515500D01*
X143075199Y-76515500D01*
X143467269Y-76907571D01*
X143422191Y-76937691D01*
X143281843Y-77147735D01*
X143232560Y-77395500D01*
X143232560Y-79195500D01*
X143281843Y-79443265D01*
X143422191Y-79653309D01*
X143632235Y-79793657D01*
X143880000Y-79842940D01*
X144020000Y-79842940D01*
X144020000Y-80901698D01*
X141399908Y-83521791D01*
X141179756Y-83478000D01*
X140887244Y-83478000D01*
X140454082Y-83564161D01*
X139962875Y-83892375D01*
X139749657Y-84211478D01*
X139688683Y-84081642D01*
X139260424Y-83691355D01*
X138850390Y-83521524D01*
X138620500Y-83642845D01*
X138620500Y-84836000D01*
X138640500Y-84836000D01*
X138640500Y-85090000D01*
X138620500Y-85090000D01*
X138620500Y-86283155D01*
X138850390Y-86404476D01*
X139260424Y-86234645D01*
X139688683Y-85844358D01*
X139749657Y-85714522D01*
X139962875Y-86033625D01*
X140454082Y-86361839D01*
X140887244Y-86448000D01*
X141179756Y-86448000D01*
X141612918Y-86361839D01*
X142104125Y-86033625D01*
X142303500Y-85735239D01*
X142502875Y-86033625D01*
X142994082Y-86361839D01*
X143427244Y-86448000D01*
X143719756Y-86448000D01*
X144152918Y-86361839D01*
X144644125Y-86033625D01*
X144843500Y-85735239D01*
X145042875Y-86033625D01*
X145534082Y-86361839D01*
X145967244Y-86448000D01*
X146259756Y-86448000D01*
X146692918Y-86361839D01*
X147184125Y-86033625D01*
X147383500Y-85735239D01*
X147582875Y-86033625D01*
X148074082Y-86361839D01*
X148507244Y-86448000D01*
X148799756Y-86448000D01*
X149232918Y-86361839D01*
X149724125Y-86033625D01*
X150052339Y-85542418D01*
X150167592Y-84963000D01*
X150052339Y-84383582D01*
X149724125Y-83892375D01*
X149232918Y-83564161D01*
X148799756Y-83478000D01*
X148507244Y-83478000D01*
X148074082Y-83564161D01*
X147582875Y-83892375D01*
X147383500Y-84190761D01*
X147184125Y-83892375D01*
X146692918Y-83564161D01*
X146259756Y-83478000D01*
X145967244Y-83478000D01*
X145534082Y-83564161D01*
X145042875Y-83892375D01*
X144843500Y-84190761D01*
X144644125Y-83892375D01*
X144152918Y-83564161D01*
X143719756Y-83478000D01*
X143593302Y-83478000D01*
X145264473Y-81806829D01*
X145327929Y-81764429D01*
X145495904Y-81513037D01*
X145540000Y-81291352D01*
X145540000Y-81291348D01*
X145554888Y-81216501D01*
X145540000Y-81141654D01*
X145540000Y-80833500D01*
X152325153Y-80833500D01*
X152400000Y-80848388D01*
X152474847Y-80833500D01*
X152474852Y-80833500D01*
X152696537Y-80789404D01*
X152947929Y-80621429D01*
X152990331Y-80557970D01*
X153763161Y-79785140D01*
X153872670Y-79830500D01*
X154483330Y-79830500D01*
X155047507Y-79596810D01*
X155479310Y-79165007D01*
X155524669Y-79055500D01*
X164422333Y-79055500D01*
X164036892Y-79215155D01*
X163295655Y-79956392D01*
X162894500Y-80924866D01*
X162894500Y-81973134D01*
X163295655Y-82941608D01*
X164036892Y-83682845D01*
X165005366Y-84084000D01*
X166053634Y-84084000D01*
X167022108Y-83682845D01*
X167763345Y-82941608D01*
X168164500Y-81973134D01*
X168164500Y-80924866D01*
X167763345Y-79956392D01*
X167022108Y-79215155D01*
X166636667Y-79055500D01*
X170961199Y-79055500D01*
X171039860Y-79134161D01*
X170994500Y-79243670D01*
X170994500Y-79854330D01*
X171228190Y-80418507D01*
X171659993Y-80850310D01*
X172224170Y-81084000D01*
X172834830Y-81084000D01*
X173399007Y-80850310D01*
X173830810Y-80418507D01*
X174064500Y-79854330D01*
X174064500Y-79243670D01*
X173830810Y-78679493D01*
X173450317Y-78299000D01*
X173830810Y-77918507D01*
X174064500Y-77354330D01*
X174064500Y-76743670D01*
X174019140Y-76634162D01*
X174019828Y-76633474D01*
X174019830Y-76633471D01*
X174238971Y-76414330D01*
X174302430Y-76371928D01*
X174470405Y-76120536D01*
X174514501Y-75898851D01*
X174514501Y-75898847D01*
X174529389Y-75824000D01*
X174514501Y-75749153D01*
X174514501Y-74035845D01*
X174529389Y-73960998D01*
X174514501Y-73886151D01*
X174514501Y-73886147D01*
X174470405Y-73664462D01*
X174428603Y-73601901D01*
X174344830Y-73476525D01*
X174344828Y-73476523D01*
X174302430Y-73413070D01*
X174238977Y-73370672D01*
X167160332Y-66292029D01*
X167117930Y-66228570D01*
X166941362Y-66110591D01*
X167636345Y-65415608D01*
X168037500Y-64447134D01*
X168037500Y-63398866D01*
X167636345Y-62430392D01*
X167497453Y-62291500D01*
X170319153Y-62291500D01*
X170394000Y-62306388D01*
X170468847Y-62291500D01*
X170468852Y-62291500D01*
X170690537Y-62247404D01*
X170867500Y-62129161D01*
X170867500Y-62328330D01*
X171101190Y-62892507D01*
X171532993Y-63324310D01*
X172097170Y-63558000D01*
X172707830Y-63558000D01*
X173272007Y-63324310D01*
X173703810Y-62892507D01*
X173937500Y-62328330D01*
X173937500Y-61717670D01*
X173703810Y-61153493D01*
X173323317Y-60773000D01*
X173703810Y-60392507D01*
X173937500Y-59828330D01*
X173937500Y-59217670D01*
X173703810Y-58653493D01*
X173323317Y-58273000D01*
X173703810Y-57892507D01*
X173937500Y-57328330D01*
X173937500Y-56717670D01*
X173703810Y-56153493D01*
X173272007Y-55721690D01*
X172707830Y-55488000D01*
X172097170Y-55488000D01*
X171532993Y-55721690D01*
X171101190Y-56153493D01*
X171055918Y-56262790D01*
X171054860Y-56263000D01*
X171054856Y-56263000D01*
X170833171Y-56307096D01*
X170581779Y-56475071D01*
X170539377Y-56538530D01*
X170389906Y-56688001D01*
X167563952Y-56688001D01*
X167636345Y-56615608D01*
X168037500Y-55647134D01*
X168037500Y-54598866D01*
X167636345Y-53630392D01*
X166895108Y-52889155D01*
X165926634Y-52488000D01*
X164878366Y-52488000D01*
X163909892Y-52889155D01*
X163168655Y-53630392D01*
X162767500Y-54598866D01*
X162767500Y-54854200D01*
X161149829Y-53236530D01*
X161107427Y-53173071D01*
X160856035Y-53005096D01*
X160634350Y-52961000D01*
X160634345Y-52961000D01*
X160559498Y-52946112D01*
X160484651Y-52961000D01*
X153872043Y-52961000D01*
X153688577Y-52686423D01*
X153213909Y-52369260D01*
X152795333Y-52286000D01*
X152512667Y-52286000D01*
X152094091Y-52369260D01*
X151619423Y-52686423D01*
X151302260Y-53161091D01*
X151190887Y-53721000D01*
X151302260Y-54280909D01*
X151619423Y-54755577D01*
X152094091Y-55072740D01*
X152512667Y-55156000D01*
X152795333Y-55156000D01*
X153213909Y-55072740D01*
X153688577Y-54755577D01*
X153872043Y-54481000D01*
X160244697Y-54481000D01*
X163696172Y-57932477D01*
X163738570Y-57995930D01*
X163802023Y-58038328D01*
X163802025Y-58038330D01*
X163833312Y-58059235D01*
X163989962Y-58163905D01*
X164211647Y-58208001D01*
X164211651Y-58208001D01*
X164286498Y-58222889D01*
X164361345Y-58208001D01*
X170629860Y-58208001D01*
X170704707Y-58222889D01*
X170779554Y-58208001D01*
X170779559Y-58208001D01*
X171001244Y-58163905D01*
X171223848Y-58015165D01*
X171481683Y-58273000D01*
X171101190Y-58653493D01*
X170867500Y-59217670D01*
X170867500Y-59828330D01*
X170912860Y-59937839D01*
X170079199Y-60771500D01*
X155416430Y-60771500D01*
X155394534Y-60718638D01*
X154990862Y-60314966D01*
X154463439Y-60096500D01*
X153892561Y-60096500D01*
X153365138Y-60314966D01*
X152961466Y-60718638D01*
X152743000Y-61246061D01*
X152743000Y-61816939D01*
X152961466Y-62344362D01*
X153365138Y-62748034D01*
X153418000Y-62769930D01*
X153418001Y-65167699D01*
X153290167Y-65295533D01*
X153235534Y-65163638D01*
X152831862Y-64759966D01*
X152304439Y-64541500D01*
X151733561Y-64541500D01*
X151680698Y-64563397D01*
X149863302Y-62746001D01*
X150132577Y-62566077D01*
X150449740Y-62091409D01*
X150561113Y-61531500D01*
X150449740Y-60971591D01*
X150132577Y-60496923D01*
X149657909Y-60179760D01*
X149239333Y-60096500D01*
X148956667Y-60096500D01*
X148538091Y-60179760D01*
X148063423Y-60496923D01*
X147746260Y-60971591D01*
X147634887Y-61531500D01*
X147746260Y-62091409D01*
X148063423Y-62566077D01*
X148338000Y-62749544D01*
X148338000Y-62980653D01*
X148323112Y-63055500D01*
X148338000Y-63130347D01*
X148338000Y-63130351D01*
X148382096Y-63352036D01*
X148550071Y-63603429D01*
X148613530Y-63645831D01*
X150184198Y-65216500D01*
X146326978Y-65216500D01*
X146252130Y-65201612D01*
X146177282Y-65216500D01*
X146177278Y-65216500D01*
X145955593Y-65260596D01*
X145704201Y-65428571D01*
X145661801Y-65492027D01*
X142327028Y-68826801D01*
X142263572Y-68869201D01*
X142221172Y-68932657D01*
X142221171Y-68932658D01*
X142095597Y-69120593D01*
X142054213Y-69328644D01*
X141776923Y-69513923D01*
X141541500Y-69866258D01*
X141306077Y-69513923D01*
X141031500Y-69330457D01*
X141031500Y-64146543D01*
X141306077Y-63963077D01*
X141541500Y-63610742D01*
X141776923Y-63963077D01*
X142251591Y-64280240D01*
X142670167Y-64363500D01*
X142952833Y-64363500D01*
X143371409Y-64280240D01*
X143846077Y-63963077D01*
X144081500Y-63610742D01*
X144316923Y-63963077D01*
X144791591Y-64280240D01*
X145210167Y-64363500D01*
X145492833Y-64363500D01*
X145911409Y-64280240D01*
X146386077Y-63963077D01*
X146703240Y-63488409D01*
X146814613Y-62928500D01*
X146703240Y-62368591D01*
X146386077Y-61893923D01*
X145911409Y-61576760D01*
X145492833Y-61493500D01*
X145210167Y-61493500D01*
X144791591Y-61576760D01*
X144316923Y-61893923D01*
X144081500Y-62246258D01*
X143846077Y-61893923D01*
X143571500Y-61710457D01*
X143571500Y-60272848D01*
X143586388Y-60198000D01*
X143571500Y-60123152D01*
X143571500Y-60123148D01*
X143527404Y-59901463D01*
X143527404Y-59901462D01*
X143401829Y-59713527D01*
X143359429Y-59650071D01*
X143295973Y-59607671D01*
X141303603Y-57615302D01*
X141325500Y-57562439D01*
X141325500Y-57277000D01*
X143507387Y-57277000D01*
X143618760Y-57836909D01*
X143935923Y-58311577D01*
X144410591Y-58628740D01*
X144829167Y-58712000D01*
X145111833Y-58712000D01*
X145530409Y-58628740D01*
X146005077Y-58311577D01*
X146188543Y-58037000D01*
X147266027Y-58037000D01*
X147491923Y-58375077D01*
X147966591Y-58692240D01*
X148385167Y-58775500D01*
X148667833Y-58775500D01*
X149086409Y-58692240D01*
X149561077Y-58375077D01*
X149878240Y-57900409D01*
X149989613Y-57340500D01*
X149878240Y-56780591D01*
X149717817Y-56540500D01*
X154699060Y-56540500D01*
X154699060Y-58140500D01*
X154748343Y-58388265D01*
X154888691Y-58598309D01*
X155098735Y-58738657D01*
X155346500Y-58787940D01*
X156946500Y-58787940D01*
X157194265Y-58738657D01*
X157404309Y-58598309D01*
X157544657Y-58388265D01*
X157593940Y-58140500D01*
X157593940Y-56540500D01*
X157544657Y-56292735D01*
X157404309Y-56082691D01*
X157194265Y-55942343D01*
X156946500Y-55893060D01*
X155346500Y-55893060D01*
X155098735Y-55942343D01*
X154888691Y-56082691D01*
X154748343Y-56292735D01*
X154699060Y-56540500D01*
X149717817Y-56540500D01*
X149561077Y-56305923D01*
X149086409Y-55988760D01*
X148667833Y-55905500D01*
X148385167Y-55905500D01*
X147966591Y-55988760D01*
X147491923Y-56305923D01*
X147350886Y-56517000D01*
X146188543Y-56517000D01*
X146005077Y-56242423D01*
X145730500Y-56058957D01*
X145730500Y-55168440D01*
X145834000Y-55168440D01*
X146081765Y-55119157D01*
X146291809Y-54978809D01*
X146432157Y-54768765D01*
X146481440Y-54521000D01*
X146481440Y-52921000D01*
X146432157Y-52673235D01*
X146291809Y-52463191D01*
X146081765Y-52322843D01*
X145834000Y-52273560D01*
X144234000Y-52273560D01*
X143986235Y-52322843D01*
X143776191Y-52463191D01*
X143635843Y-52673235D01*
X143586560Y-52921000D01*
X143586560Y-54521000D01*
X143635843Y-54768765D01*
X143776191Y-54978809D01*
X143986235Y-55119157D01*
X144210501Y-55163766D01*
X144210500Y-56058956D01*
X143935923Y-56242423D01*
X143618760Y-56717091D01*
X143507387Y-57277000D01*
X141325500Y-57277000D01*
X141325500Y-56991561D01*
X141107034Y-56464138D01*
X140703362Y-56060466D01*
X140175939Y-55842000D01*
X139605061Y-55842000D01*
X139077638Y-56060466D01*
X138769953Y-56368151D01*
X136414103Y-54012302D01*
X136436000Y-53959439D01*
X136436000Y-53388561D01*
X136217534Y-52861138D01*
X135813862Y-52457466D01*
X135286439Y-52239000D01*
X134715561Y-52239000D01*
X134188138Y-52457466D01*
X133784466Y-52861138D01*
X133566000Y-53388561D01*
X133566000Y-53959439D01*
X133784466Y-54486862D01*
X134188138Y-54890534D01*
X134715561Y-55109000D01*
X135286439Y-55109000D01*
X135339302Y-55087103D01*
X138013673Y-57761476D01*
X138056071Y-57824929D01*
X138119524Y-57867327D01*
X138119526Y-57867329D01*
X138214561Y-57930829D01*
X138307463Y-57992904D01*
X138529148Y-58037000D01*
X138529152Y-58037000D01*
X138603999Y-58051888D01*
X138654108Y-58041921D01*
X138673966Y-58089862D01*
X139077638Y-58493534D01*
X139605061Y-58712000D01*
X140175939Y-58712000D01*
X140228802Y-58690103D01*
X142051501Y-60512803D01*
X142051500Y-61710456D01*
X141776923Y-61893923D01*
X141541500Y-62246258D01*
X141306077Y-61893923D01*
X140831409Y-61576760D01*
X140412833Y-61493500D01*
X140130167Y-61493500D01*
X139711591Y-61576760D01*
X139236923Y-61893923D01*
X139001500Y-62246258D01*
X138766077Y-61893923D01*
X138291409Y-61576760D01*
X137872833Y-61493500D01*
X137590167Y-61493500D01*
X137171591Y-61576760D01*
X136696923Y-61893923D01*
X136461500Y-62246258D01*
X136226077Y-61893923D01*
X135751409Y-61576760D01*
X135420175Y-61510873D01*
X132335688Y-58426387D01*
X132343212Y-58388561D01*
X133566000Y-58388561D01*
X133566000Y-58959439D01*
X133784466Y-59486862D01*
X134188138Y-59890534D01*
X134715561Y-60109000D01*
X135286439Y-60109000D01*
X135813862Y-59890534D01*
X136217534Y-59486862D01*
X136436000Y-58959439D01*
X136436000Y-58388561D01*
X136217534Y-57861138D01*
X135813862Y-57457466D01*
X135286439Y-57239000D01*
X134715561Y-57239000D01*
X134188138Y-57457466D01*
X133784466Y-57861138D01*
X133566000Y-58388561D01*
X132343212Y-58388561D01*
X132400113Y-58102500D01*
X132288740Y-57542591D01*
X131971577Y-57067923D01*
X131496909Y-56750760D01*
X131078333Y-56667500D01*
X130795667Y-56667500D01*
X130377091Y-56750760D01*
X129902423Y-57067923D01*
X129585260Y-57542591D01*
X129473887Y-58102500D01*
X129585260Y-58662409D01*
X129902423Y-59137077D01*
X130377091Y-59454240D01*
X130795667Y-59537500D01*
X131078333Y-59537500D01*
X131260887Y-59501188D01*
X133588266Y-61828568D01*
X133211409Y-61576760D01*
X132792833Y-61493500D01*
X132510167Y-61493500D01*
X132091591Y-61576760D01*
X131616923Y-61893923D01*
X131381500Y-62246258D01*
X131146077Y-61893923D01*
X130671409Y-61576760D01*
X130340175Y-61510873D01*
X127270103Y-58440802D01*
X127292000Y-58387939D01*
X127292000Y-57817061D01*
X127073534Y-57289638D01*
X126669862Y-56885966D01*
X126142439Y-56667500D01*
X125571561Y-56667500D01*
X125044138Y-56885966D01*
X124640466Y-57289638D01*
X124422000Y-57817061D01*
X119008724Y-57817061D01*
X118846765Y-57708843D01*
X118599000Y-57659560D01*
X115799000Y-57659560D01*
X115551235Y-57708843D01*
X115341191Y-57849191D01*
X115200843Y-58059235D01*
X115151560Y-58307000D01*
X109546440Y-58307000D01*
X109497157Y-58059235D01*
X109356809Y-57849191D01*
X109146765Y-57708843D01*
X108899000Y-57659560D01*
X106699000Y-57659560D01*
X106451235Y-57708843D01*
X106241191Y-57849191D01*
X106100843Y-58059235D01*
X106051560Y-58307000D01*
X106051560Y-60679639D01*
X105964528Y-60766671D01*
X105901072Y-60809071D01*
X105858672Y-60872527D01*
X105858671Y-60872528D01*
X105733097Y-61060463D01*
X105674112Y-61357000D01*
X105003146Y-61357000D01*
X105062039Y-55711615D01*
X107414000Y-55711615D01*
X107414000Y-56302385D01*
X107640078Y-56848185D01*
X108057815Y-57265922D01*
X108603615Y-57492000D01*
X109194385Y-57492000D01*
X109740185Y-57265922D01*
X110157922Y-56848185D01*
X110384000Y-56302385D01*
X110384000Y-55711615D01*
X114414000Y-55711615D01*
X114414000Y-56302385D01*
X114640078Y-56848185D01*
X115057815Y-57265922D01*
X115603615Y-57492000D01*
X116194385Y-57492000D01*
X116740185Y-57265922D01*
X117157922Y-56848185D01*
X117384000Y-56302385D01*
X117384000Y-55711615D01*
X117157922Y-55165815D01*
X116740185Y-54748078D01*
X116194385Y-54522000D01*
X115603615Y-54522000D01*
X115057815Y-54748078D01*
X114640078Y-55165815D01*
X114414000Y-55711615D01*
X110384000Y-55711615D01*
X110157922Y-55165815D01*
X109740185Y-54748078D01*
X109194385Y-54522000D01*
X108603615Y-54522000D01*
X108057815Y-54748078D01*
X107640078Y-55165815D01*
X107414000Y-55711615D01*
X105062039Y-55711615D01*
X105081386Y-53857000D01*
X119251560Y-53857000D01*
X119251560Y-56657000D01*
X119300843Y-56904765D01*
X119441191Y-57114809D01*
X119651235Y-57255157D01*
X119899000Y-57304440D01*
X122499000Y-57304440D01*
X122746765Y-57255157D01*
X122956809Y-57114809D01*
X123097157Y-56904765D01*
X123146440Y-56657000D01*
X123146440Y-53857000D01*
X123097157Y-53609235D01*
X122956809Y-53399191D01*
X122746765Y-53258843D01*
X122499000Y-53209560D01*
X119899000Y-53209560D01*
X119651235Y-53258843D01*
X119441191Y-53399191D01*
X119300843Y-53609235D01*
X119251560Y-53857000D01*
X105081386Y-53857000D01*
X105129322Y-49262159D01*
X107298500Y-49262159D01*
X107298500Y-50051841D01*
X107600699Y-50781412D01*
X108159088Y-51339801D01*
X108888659Y-51642000D01*
X109678341Y-51642000D01*
X110407912Y-51339801D01*
X110966301Y-50781412D01*
X111268500Y-50051841D01*
X111268500Y-49262159D01*
X110966301Y-48532588D01*
X110407912Y-47974199D01*
X109678341Y-47672000D01*
X108888659Y-47672000D01*
X108159088Y-47974199D01*
X107600699Y-48532588D01*
X107298500Y-49262159D01*
X105129322Y-49262159D01*
X105148269Y-47446000D01*
X175009076Y-47446000D01*
X175015151Y-48784511D01*
G36*
X139236923Y-63963077D02*
X139511501Y-64146544D01*
X139511500Y-69330456D01*
X139236923Y-69513923D01*
X138980553Y-69897608D01*
X138883889Y-69693366D01*
X138468923Y-69317459D01*
X138080539Y-69156596D01*
X137858500Y-69278585D01*
X137858500Y-70421500D01*
X137878500Y-70421500D01*
X137878500Y-70675500D01*
X137858500Y-70675500D01*
X137858500Y-71818415D01*
X138080539Y-71940404D01*
X138468923Y-71779541D01*
X138883889Y-71403634D01*
X138980553Y-71199392D01*
X139236923Y-71583077D01*
X139711591Y-71900240D01*
X140130167Y-71983500D01*
X140412833Y-71983500D01*
X140831409Y-71900240D01*
X141306077Y-71583077D01*
X141541500Y-71230742D01*
X141776923Y-71583077D01*
X142251591Y-71900240D01*
X142670167Y-71983500D01*
X142952833Y-71983500D01*
X143371409Y-71900240D01*
X143846077Y-71583077D01*
X144081500Y-71230742D01*
X144316923Y-71583077D01*
X144791591Y-71900240D01*
X145210167Y-71983500D01*
X145492833Y-71983500D01*
X145911409Y-71900240D01*
X146386077Y-71583077D01*
X146569543Y-71308500D01*
X148263341Y-71308500D01*
X148254260Y-71322091D01*
X148142887Y-71882000D01*
X148254260Y-72441909D01*
X148571423Y-72916577D01*
X149046091Y-73233740D01*
X149464667Y-73317000D01*
X149747333Y-73317000D01*
X150165909Y-73233740D01*
X150640577Y-72916577D01*
X150957740Y-72441909D01*
X151069113Y-71882000D01*
X151004688Y-71558113D01*
X151478803Y-71083999D01*
X153463310Y-71083999D01*
X153251000Y-71596561D01*
X153251000Y-72167439D01*
X153469466Y-72694862D01*
X153873138Y-73098534D01*
X154400561Y-73317000D01*
X154971439Y-73317000D01*
X155498862Y-73098534D01*
X155902534Y-72694862D01*
X156121000Y-72167439D01*
X156121000Y-71596561D01*
X155908690Y-71083999D01*
X163368048Y-71083999D01*
X163295655Y-71156392D01*
X162894500Y-72124866D01*
X162894500Y-73173134D01*
X163295655Y-74141608D01*
X164036892Y-74882845D01*
X165005366Y-75284000D01*
X166053634Y-75284000D01*
X167022108Y-74882845D01*
X167763345Y-74141608D01*
X168164500Y-73173134D01*
X168164500Y-72124866D01*
X167763345Y-71156392D01*
X167690952Y-71083999D01*
X167989698Y-71083999D01*
X171039860Y-74134162D01*
X170994500Y-74243670D01*
X170994500Y-74854330D01*
X171228190Y-75418507D01*
X171608683Y-75799000D01*
X171228190Y-76179493D01*
X170994500Y-76743670D01*
X170994500Y-77354330D01*
X171069543Y-77535500D01*
X155524669Y-77535500D01*
X155479310Y-77425993D01*
X155047507Y-76994190D01*
X154483330Y-76760500D01*
X153872670Y-76760500D01*
X153308493Y-76994190D01*
X153139275Y-77163408D01*
X153136157Y-77147735D01*
X152995809Y-76937691D01*
X152785765Y-76797343D01*
X152538000Y-76748060D01*
X150738000Y-76748060D01*
X150490235Y-76797343D01*
X150280191Y-76937691D01*
X150139843Y-77147735D01*
X150090560Y-77395500D01*
X150090560Y-77535500D01*
X148666669Y-77535500D01*
X148621310Y-77425993D01*
X148189507Y-76994190D01*
X147625330Y-76760500D01*
X147014670Y-76760500D01*
X146905162Y-76805860D01*
X144245330Y-74146029D01*
X144202928Y-74082570D01*
X143951536Y-73914595D01*
X143729851Y-73870499D01*
X143729846Y-73870499D01*
X143654999Y-73855611D01*
X143580152Y-73870499D01*
X139588302Y-73870499D01*
X137560429Y-71842628D01*
X137604500Y-71818415D01*
X137604500Y-70675500D01*
X137584500Y-70675500D01*
X137584500Y-70421500D01*
X137604500Y-70421500D01*
X137604500Y-69278585D01*
X137382461Y-69156596D01*
X136994077Y-69317459D01*
X136579111Y-69693366D01*
X136482447Y-69897608D01*
X136226077Y-69513923D01*
X135951500Y-69330457D01*
X135951500Y-64146543D01*
X136226077Y-63963077D01*
X136461500Y-63610742D01*
X136696923Y-63963077D01*
X137171591Y-64280240D01*
X137590167Y-64363500D01*
X137872833Y-64363500D01*
X138291409Y-64280240D01*
X138766077Y-63963077D01*
X139001500Y-63610742D01*
X139236923Y-63963077D01*
X139236923Y-63963077D01*
G37*
X139236923Y-63963077D02*
X139511501Y-64146544D01*
X139511500Y-69330456D01*
X139236923Y-69513923D01*
X138980553Y-69897608D01*
X138883889Y-69693366D01*
X138468923Y-69317459D01*
X138080539Y-69156596D01*
X137858500Y-69278585D01*
X137858500Y-70421500D01*
X137878500Y-70421500D01*
X137878500Y-70675500D01*
X137858500Y-70675500D01*
X137858500Y-71818415D01*
X138080539Y-71940404D01*
X138468923Y-71779541D01*
X138883889Y-71403634D01*
X138980553Y-71199392D01*
X139236923Y-71583077D01*
X139711591Y-71900240D01*
X140130167Y-71983500D01*
X140412833Y-71983500D01*
X140831409Y-71900240D01*
X141306077Y-71583077D01*
X141541500Y-71230742D01*
X141776923Y-71583077D01*
X142251591Y-71900240D01*
X142670167Y-71983500D01*
X142952833Y-71983500D01*
X143371409Y-71900240D01*
X143846077Y-71583077D01*
X144081500Y-71230742D01*
X144316923Y-71583077D01*
X144791591Y-71900240D01*
X145210167Y-71983500D01*
X145492833Y-71983500D01*
X145911409Y-71900240D01*
X146386077Y-71583077D01*
X146569543Y-71308500D01*
X148263341Y-71308500D01*
X148254260Y-71322091D01*
X148142887Y-71882000D01*
X148254260Y-72441909D01*
X148571423Y-72916577D01*
X149046091Y-73233740D01*
X149464667Y-73317000D01*
X149747333Y-73317000D01*
X150165909Y-73233740D01*
X150640577Y-72916577D01*
X150957740Y-72441909D01*
X151069113Y-71882000D01*
X151004688Y-71558113D01*
X151478803Y-71083999D01*
X153463310Y-71083999D01*
X153251000Y-71596561D01*
X153251000Y-72167439D01*
X153469466Y-72694862D01*
X153873138Y-73098534D01*
X154400561Y-73317000D01*
X154971439Y-73317000D01*
X155498862Y-73098534D01*
X155902534Y-72694862D01*
X156121000Y-72167439D01*
X156121000Y-71596561D01*
X155908690Y-71083999D01*
X163368048Y-71083999D01*
X163295655Y-71156392D01*
X162894500Y-72124866D01*
X162894500Y-73173134D01*
X163295655Y-74141608D01*
X164036892Y-74882845D01*
X165005366Y-75284000D01*
X166053634Y-75284000D01*
X167022108Y-74882845D01*
X167763345Y-74141608D01*
X168164500Y-73173134D01*
X168164500Y-72124866D01*
X167763345Y-71156392D01*
X167690952Y-71083999D01*
X167989698Y-71083999D01*
X171039860Y-74134162D01*
X170994500Y-74243670D01*
X170994500Y-74854330D01*
X171228190Y-75418507D01*
X171608683Y-75799000D01*
X171228190Y-76179493D01*
X170994500Y-76743670D01*
X170994500Y-77354330D01*
X171069543Y-77535500D01*
X155524669Y-77535500D01*
X155479310Y-77425993D01*
X155047507Y-76994190D01*
X154483330Y-76760500D01*
X153872670Y-76760500D01*
X153308493Y-76994190D01*
X153139275Y-77163408D01*
X153136157Y-77147735D01*
X152995809Y-76937691D01*
X152785765Y-76797343D01*
X152538000Y-76748060D01*
X150738000Y-76748060D01*
X150490235Y-76797343D01*
X150280191Y-76937691D01*
X150139843Y-77147735D01*
X150090560Y-77395500D01*
X150090560Y-77535500D01*
X148666669Y-77535500D01*
X148621310Y-77425993D01*
X148189507Y-76994190D01*
X147625330Y-76760500D01*
X147014670Y-76760500D01*
X146905162Y-76805860D01*
X144245330Y-74146029D01*
X144202928Y-74082570D01*
X143951536Y-73914595D01*
X143729851Y-73870499D01*
X143729846Y-73870499D01*
X143654999Y-73855611D01*
X143580152Y-73870499D01*
X139588302Y-73870499D01*
X137560429Y-71842628D01*
X137604500Y-71818415D01*
X137604500Y-70675500D01*
X137584500Y-70675500D01*
X137584500Y-70421500D01*
X137604500Y-70421500D01*
X137604500Y-69278585D01*
X137382461Y-69156596D01*
X136994077Y-69317459D01*
X136579111Y-69693366D01*
X136482447Y-69897608D01*
X136226077Y-69513923D01*
X135951500Y-69330457D01*
X135951500Y-64146543D01*
X136226077Y-63963077D01*
X136461500Y-63610742D01*
X136696923Y-63963077D01*
X137171591Y-64280240D01*
X137590167Y-64363500D01*
X137872833Y-64363500D01*
X138291409Y-64280240D01*
X138766077Y-63963077D01*
X139001500Y-63610742D01*
X139236923Y-63963077D01*
G04 #@! TD*
M02*
