G04 #@! TF.GenerationSoftware,KiCad,Pcbnew,(5.1.0)-1*
G04 #@! TF.CreationDate,2019-04-22T00:57:04-04:00*
G04 #@! TF.ProjectId,cem3340-module_REDDIT,63656d33-3334-4302-9d6d-6f64756c655f,rev?*
G04 #@! TF.SameCoordinates,Original*
G04 #@! TF.FileFunction,Soldermask,Top*
G04 #@! TF.FilePolarity,Negative*
%FSLAX46Y46*%
G04 Gerber Fmt 4.6, Leading zero omitted, Abs format (unit mm)*
G04 Created by KiCad (PCBNEW (5.1.0)-1) date 2019-04-22 00:57:04*
%MOMM*%
%LPD*%
G04 APERTURE LIST*
%ADD10C,1.440000*%
%ADD11C,1.600000*%
%ADD12R,1.600000X1.600000*%
%ADD13C,2.000000*%
%ADD14R,1.500000X1.050000*%
%ADD15O,1.500000X1.050000*%
%ADD16C,2.130000*%
%ADD17R,1.830000X1.930000*%
%ADD18R,1.930000X1.830000*%
%ADD19R,1.700000X1.700000*%
%ADD20O,1.700000X1.700000*%
%ADD21O,1.600000X1.600000*%
%ADD22C,4.000000*%
%ADD23C,1.800000*%
%ADD24C,1.400000*%
G04 APERTURE END LIST*
D10*
X195580000Y-136652000D03*
X198120000Y-136652000D03*
X200660000Y-136652000D03*
X235712000Y-93726000D03*
X233172000Y-93726000D03*
X230632000Y-93726000D03*
X194945000Y-91186000D03*
X197485000Y-91186000D03*
X200025000Y-91186000D03*
X194818000Y-112014000D03*
X197358000Y-112014000D03*
X199898000Y-112014000D03*
X235712000Y-79756000D03*
X233172000Y-79756000D03*
X230632000Y-79756000D03*
X235712000Y-129794000D03*
X233172000Y-129794000D03*
X230632000Y-129794000D03*
X235712000Y-136652000D03*
X233172000Y-136652000D03*
X230632000Y-136652000D03*
D11*
X238426000Y-85852000D03*
X233426000Y-85852000D03*
X225552000Y-89154000D03*
X230552000Y-89154000D03*
X226314000Y-78058000D03*
X226314000Y-83058000D03*
X209550000Y-134112000D03*
X204550000Y-134112000D03*
X196850000Y-99568000D03*
X191850000Y-99568000D03*
X224322000Y-122936000D03*
D12*
X226822000Y-122936000D03*
X235712000Y-109728000D03*
D11*
X235712000Y-107228000D03*
X197024000Y-107696000D03*
X192024000Y-107696000D03*
D12*
X218694000Y-97282000D03*
D11*
X218694000Y-94782000D03*
X215392000Y-102870000D03*
X215392000Y-107870000D03*
X193040000Y-127254000D03*
X193040000Y-132254000D03*
X207264000Y-124380000D03*
X207264000Y-119380000D03*
X212518000Y-116586000D03*
X207518000Y-116586000D03*
D13*
X199644000Y-103632000D03*
X192144000Y-103632000D03*
D14*
X236474000Y-98298000D03*
D15*
X236474000Y-100838000D03*
X236474000Y-99568000D03*
D16*
X226090000Y-56515000D03*
D17*
X237490000Y-56515000D03*
D16*
X234390000Y-56515000D03*
X196215000Y-66600000D03*
D18*
X196215000Y-63500000D03*
D16*
X196215000Y-74900000D03*
X217945000Y-56515000D03*
D17*
X221045000Y-56515000D03*
D16*
X209645000Y-56515000D03*
X226090000Y-144780000D03*
D17*
X237490000Y-144780000D03*
D16*
X234390000Y-144780000D03*
X217945000Y-144780000D03*
D17*
X221045000Y-144780000D03*
D16*
X209645000Y-144780000D03*
D19*
X226822000Y-115824000D03*
D20*
X224282000Y-115824000D03*
X226822000Y-113284000D03*
X224282000Y-113284000D03*
X226822000Y-110744000D03*
X224282000Y-110744000D03*
X226822000Y-108204000D03*
X224282000Y-108204000D03*
X226822000Y-105664000D03*
X224282000Y-105664000D03*
D19*
X192786000Y-82296000D03*
D20*
X192786000Y-79756000D03*
D16*
X234315000Y-66600000D03*
D18*
X234315000Y-63500000D03*
D16*
X234315000Y-74900000D03*
X204440000Y-56515000D03*
D17*
X193040000Y-56515000D03*
D16*
X196140000Y-56515000D03*
X204440000Y-144780000D03*
D17*
X193040000Y-144780000D03*
D16*
X196140000Y-144780000D03*
D11*
X211836000Y-91948000D03*
D21*
X206756000Y-91948000D03*
X199644000Y-78232000D03*
D11*
X199644000Y-83312000D03*
X204851000Y-137922000D03*
D21*
X209931000Y-137922000D03*
D11*
X212598000Y-130556000D03*
D21*
X212598000Y-135636000D03*
D11*
X207010000Y-88392000D03*
D21*
X212090000Y-88392000D03*
X199644000Y-116586000D03*
D11*
X204724000Y-116586000D03*
D21*
X197612000Y-95758000D03*
D11*
X192532000Y-95758000D03*
D21*
X219202000Y-130302000D03*
D11*
X219202000Y-135382000D03*
X215392000Y-110744000D03*
D21*
X215392000Y-115824000D03*
D11*
X197104000Y-86614000D03*
D21*
X192024000Y-86614000D03*
X219202000Y-122428000D03*
D11*
X219202000Y-127508000D03*
D21*
X212852000Y-78232000D03*
D11*
X212852000Y-83312000D03*
X219456000Y-83312000D03*
D21*
X219456000Y-78232000D03*
X225552000Y-85852000D03*
D11*
X230632000Y-85852000D03*
X218694000Y-110744000D03*
D21*
X218694000Y-115824000D03*
D11*
X202946000Y-78740000D03*
D21*
X202946000Y-83820000D03*
X206248000Y-78232000D03*
D11*
X206248000Y-83312000D03*
D21*
X195834000Y-130810000D03*
D11*
X200914000Y-130810000D03*
X208788000Y-130810000D03*
D21*
X203708000Y-130810000D03*
D11*
X232664000Y-102870000D03*
D21*
X232664000Y-97790000D03*
D11*
X229362000Y-101600000D03*
D21*
X224282000Y-101600000D03*
D11*
X216154000Y-78740000D03*
D21*
X216154000Y-83820000D03*
X193040000Y-119380000D03*
D11*
X193040000Y-124460000D03*
D21*
X224282000Y-98298000D03*
D11*
X229362000Y-98298000D03*
D21*
X191770000Y-116586000D03*
D11*
X196850000Y-116586000D03*
D21*
X222758000Y-77978000D03*
D11*
X222758000Y-83058000D03*
X209550000Y-83312000D03*
D21*
X209550000Y-78232000D03*
X232918000Y-89154000D03*
D11*
X237998000Y-89154000D03*
D22*
X217810000Y-70500000D03*
X226610000Y-70500000D03*
D23*
X219710000Y-63500000D03*
X222210000Y-63500000D03*
X224710000Y-63500000D03*
X210740000Y-63500000D03*
X208240000Y-63500000D03*
X205740000Y-63500000D03*
D22*
X212640000Y-70500000D03*
X203840000Y-70500000D03*
D24*
X233680000Y-120396000D03*
X233680000Y-117856000D03*
D12*
X203962000Y-127508000D03*
D21*
X196342000Y-119888000D03*
X203962000Y-124968000D03*
X196342000Y-122428000D03*
X203962000Y-122428000D03*
X196342000Y-124968000D03*
X203962000Y-119888000D03*
X196342000Y-127508000D03*
D12*
X211836000Y-113030000D03*
D21*
X204216000Y-95250000D03*
X211836000Y-110490000D03*
X204216000Y-97790000D03*
X211836000Y-107950000D03*
X204216000Y-100330000D03*
X211836000Y-105410000D03*
X204216000Y-102870000D03*
X211836000Y-102870000D03*
X204216000Y-105410000D03*
X211836000Y-100330000D03*
X204216000Y-107950000D03*
X211836000Y-97790000D03*
X204216000Y-110490000D03*
X211836000Y-95250000D03*
X204216000Y-113030000D03*
D15*
X225806000Y-93726000D03*
X225806000Y-92456000D03*
D14*
X225806000Y-94996000D03*
M02*
