M48
INCH,TZ
T1C0.0157
T2C0.0295
T3C0.0315
T4C0.0394
T5C0.0480
T6C0.0559
T7C0.0563
%
G90
G05
T1
X75500Y-47900
X75647Y-41653
X76000Y-25400
X76700Y-42300
X77500Y-53000
X81700Y-44500
X81943Y-43457
X82200Y-53700
X82300Y-44500
X82300Y-46000
X82300Y-50000
X83450Y-47850
X83700Y-49200
X85200Y-38600
X85200Y-47000
X85300Y-35300
X85485Y-52685
X86100Y-42600
X86900Y-40300
X87100Y-49400
X87385Y-39900
X87500Y-35300
X87600Y-43600
X88500Y-52200
X89943Y-47957
X91500Y-39600
X93557Y-47957
T2
X93100Y-38700
X93100Y-39200
X93100Y-39700
X88900Y-36400
X88900Y-36900
X88900Y-37400
T3
X75531Y-39200
X77500Y-39200
X79900Y-31000
X79900Y-33000
X81600Y-47000
X81600Y-48969
X91600Y-38500
X91600Y-40500
X90800Y-31400
X91800Y-31400
X92800Y-31400
X91900Y-33800
X93869Y-33800
X88300Y-38700
X90300Y-38700
X81400Y-36200
X83400Y-36200
X90800Y-51100
X91800Y-51100
X92800Y-51100
X85100Y-31000
X85100Y-33000
X78600Y-30800
X78600Y-32800
X75600Y-42400
X77569Y-42400
X88316Y-48400
X89300Y-48400
X75800Y-37700
X77800Y-37700
X86400Y-30800
X86400Y-32800
X86300Y-51300
X86300Y-53300
X86300Y-48200
X86300Y-50200
X80531Y-52800
X82500Y-52800
X81200Y-30800
X81200Y-32800
X84800Y-40500
X84800Y-42469
X92800Y-42216
X92800Y-43200
X88300Y-40000
X90300Y-40000
X76750Y-35900
X77750Y-35900
X78750Y-35900
X89100Y-30731
X89100Y-32700
X75500Y-45900
X77500Y-45900
X80650Y-54300
X82650Y-54300
X90800Y-53800
X91800Y-53800
X92800Y-53800
X86100Y-43600
X86100Y-45600
X82500Y-30800
X82500Y-32800
X84800Y-43600
X84800Y-45600
X77300Y-47200
X77300Y-48200
X77300Y-49200
X77300Y-50200
X80300Y-47200
X80300Y-48200
X80300Y-49200
X80300Y-50200
X83800Y-30800
X83800Y-32800
X90800Y-36900
X91800Y-36900
X92800Y-36900
X88800Y-33800
X90800Y-33800
X76700Y-44100
X77700Y-44100
X78700Y-44100
X92000Y-46400
X92000Y-47400
X80200Y-51500
X82200Y-51500
X91700Y-35100
X93700Y-35100
X77000Y-53800
X78000Y-53800
X79000Y-53800
X76000Y-47000
X76000Y-49000
X86100Y-37316
X86100Y-38300
X77100Y-51500
X79100Y-51500
X81700Y-45900
X83669Y-45900
X87700Y-30700
X87700Y-32700
X83700Y-51400
X83700Y-53400
X88800Y-35100
X90769Y-35100
X78600Y-45900
X80600Y-45900
X80400Y-37500
X80400Y-38500
X80400Y-39500
X80400Y-40500
X80400Y-41500
X80400Y-42500
X80400Y-43500
X80400Y-44500
X83400Y-37500
X83400Y-38500
X83400Y-39500
X83400Y-40500
X83400Y-41500
X83400Y-42500
X83400Y-43500
X83400Y-44500
X81500Y-34800
X83500Y-34800
X76000Y-50100
X76000Y-52069
X75600Y-34100
X77600Y-34100
T4
X86500Y-25000
X87484Y-25000
X88469Y-25000
X75900Y-31400
X75900Y-32400
X75647Y-40800
X78600Y-40800
X88300Y-41600
X88300Y-42600
X88300Y-43600
X88300Y-44600
X88300Y-45600
X89300Y-41600
X89300Y-42600
X89300Y-43600
X89300Y-44600
X89300Y-45600
X81000Y-25000
X81984Y-25000
X82969Y-25000
T5
X93500Y-57000
X76000Y-22250
X77250Y-25000
X76000Y-57000
X93500Y-22250
X92250Y-25000
X87026Y-22250
X87026Y-57000
T6
X77220Y-22250
X77250Y-26220
X77220Y-57000
X92280Y-22250
X92250Y-26220
X85805Y-22250
X85805Y-57000
X92280Y-57000
T7
X80488Y-22250
X77250Y-29488
X80488Y-57000
X89012Y-22250
X92250Y-29488
X82537Y-22250
X82537Y-57000
X89012Y-57000
T0
M30
