M48
INCH,TZ
T1C0.0295
T2C0.0315
T3C0.0374
T4C0.0394
%
G90
G05
T1
X61550Y-31300
X61550Y-31800
X61550Y-32300
T2
X58550Y-33650
X60550Y-33650
X59850Y-19450
X61850Y-19450
X59800Y-28450
X61800Y-28450
X58500Y-16250
X61500Y-16250
X55350Y-21000
X55350Y-23000
X54050Y-25200
X54050Y-27200
X58350Y-21000
X58350Y-22000
X58350Y-23000
X58350Y-24000
X58350Y-25000
X58350Y-26000
X58350Y-27000
X61350Y-21000
X61350Y-22000
X61350Y-23000
X61350Y-24000
X61350Y-25000
X61350Y-26000
X61350Y-27000
X60000Y-29850
X62000Y-29850
X55300Y-17850
X55300Y-19850
X60100Y-12604
X60100Y-14100
X56750Y-20831
X56750Y-22800
X58550Y-17600
X58550Y-19569
X54050Y-18900
X54050Y-20900
X64350Y-23650
X67350Y-23650
X54050Y-22050
X54050Y-24050
X59800Y-17750
X61800Y-17750
X58550Y-28250
X58550Y-30250
X56800Y-17850
X56800Y-19850
X55350Y-24100
X55350Y-26069
X57200Y-28450
X57200Y-30450
X56750Y-24050
X56750Y-26050
T3
X54900Y-29081
X54900Y-30066
X54900Y-31050
T4
X63150Y-32531
X63150Y-33516
X63150Y-34500
X63150Y-25948
X63150Y-26932
X63150Y-27917
X63150Y-19365
X63150Y-20349
X63150Y-21333
X63150Y-12781
X63150Y-13766
X63150Y-14750
T0
M30
