G04 #@! TF.GenerationSoftware,KiCad,Pcbnew,(5.0.1)-rc2*
G04 #@! TF.CreationDate,2018-12-04T01:24:34-05:00*
G04 #@! TF.ProjectId,envelope,656E76656C6F70652E6B696361645F70,rev?*
G04 #@! TF.SameCoordinates,Original*
G04 #@! TF.FileFunction,Copper,L1,Top,Signal*
G04 #@! TF.FilePolarity,Positive*
%FSLAX46Y46*%
G04 Gerber Fmt 4.6, Leading zero omitted, Abs format (unit mm)*
G04 Created by KiCad (PCBNEW (5.0.1)-rc2) date 12/4/2018 1:24:34 AM*
%MOMM*%
%LPD*%
G01*
G04 APERTURE LIST*
G04 #@! TA.AperFunction,ComponentPad*
%ADD10C,1.600000*%
G04 #@! TD*
G04 #@! TA.AperFunction,ComponentPad*
%ADD11O,1.600000X1.600000*%
G04 #@! TD*
G04 #@! TA.AperFunction,WasherPad*
%ADD12C,4.000000*%
G04 #@! TD*
G04 #@! TA.AperFunction,ComponentPad*
%ADD13C,1.800000*%
G04 #@! TD*
G04 #@! TA.AperFunction,ComponentPad*
%ADD14R,1.600000X1.600000*%
G04 #@! TD*
G04 #@! TA.AperFunction,Conductor*
%ADD15C,0.100000*%
G04 #@! TD*
G04 #@! TA.AperFunction,ComponentPad*
%ADD16C,1.700000*%
G04 #@! TD*
G04 #@! TA.AperFunction,ComponentPad*
%ADD17O,1.950000X1.700000*%
G04 #@! TD*
G04 #@! TA.AperFunction,SMDPad,CuDef*
%ADD18R,2.600000X2.800000*%
G04 #@! TD*
G04 #@! TA.AperFunction,SMDPad,CuDef*
%ADD19R,2.800000X2.800000*%
G04 #@! TD*
G04 #@! TA.AperFunction,SMDPad,CuDef*
%ADD20R,2.200000X2.800000*%
G04 #@! TD*
G04 #@! TA.AperFunction,ComponentPad*
%ADD21O,1.500000X1.050000*%
G04 #@! TD*
G04 #@! TA.AperFunction,ComponentPad*
%ADD22R,1.500000X1.050000*%
G04 #@! TD*
G04 #@! TA.AperFunction,Conductor*
%ADD23C,0.508000*%
G04 #@! TD*
G04 #@! TA.AperFunction,Conductor*
%ADD24C,0.254000*%
G04 #@! TD*
G04 APERTURE END LIST*
D10*
G04 #@! TO.P,R11,1*
G04 #@! TO.N,Net-(D1-Pad2)*
X144272000Y-45339000D03*
D11*
G04 #@! TO.P,R11,2*
G04 #@! TO.N,Net-(R11-Pad2)*
X144272000Y-50419000D03*
G04 #@! TD*
D12*
G04 #@! TO.P,RV_S1,*
G04 #@! TO.N,*
X167401000Y-72808332D03*
X167401000Y-64008332D03*
D13*
G04 #@! TO.P,RV_S1,1*
G04 #@! TO.N,Net-(R13-Pad2)*
X160401000Y-70908332D03*
G04 #@! TO.P,RV_S1,2*
G04 #@! TO.N,Net-(D2-Pad1)*
X160401000Y-68408332D03*
G04 #@! TO.P,RV_S1,3*
G04 #@! TO.N,Net-(R12-Pad1)*
X160401000Y-65908332D03*
G04 #@! TD*
G04 #@! TO.P,RV_R1,3*
G04 #@! TO.N,Net-(Q1-Pad3)*
X160401000Y-82630000D03*
G04 #@! TO.P,RV_R1,2*
G04 #@! TO.N,Net-(C5-Pad1)*
X160401000Y-85130000D03*
G04 #@! TO.P,RV_R1,1*
X160401000Y-87630000D03*
D12*
G04 #@! TO.P,RV_R1,*
G04 #@! TO.N,*
X167401000Y-80730000D03*
X167401000Y-89530000D03*
G04 #@! TD*
G04 #@! TO.P,RV_D1,*
G04 #@! TO.N,*
X167401000Y-56086666D03*
X167401000Y-47286666D03*
D13*
G04 #@! TO.P,RV_D1,1*
G04 #@! TO.N,Net-(D2-Pad2)*
X160401000Y-54186666D03*
G04 #@! TO.P,RV_D1,2*
G04 #@! TO.N,Net-(C5-Pad1)*
X160401000Y-51686666D03*
G04 #@! TO.P,RV_D1,3*
X160401000Y-49186666D03*
G04 #@! TD*
G04 #@! TO.P,RV_A1,3*
G04 #@! TO.N,Net-(C5-Pad1)*
X160401000Y-32465000D03*
G04 #@! TO.P,RV_A1,2*
X160401000Y-34965000D03*
G04 #@! TO.P,RV_A1,1*
G04 #@! TO.N,Net-(D1-Pad1)*
X160401000Y-37465000D03*
D12*
G04 #@! TO.P,RV_A1,*
G04 #@! TO.N,*
X167401000Y-30565000D03*
X167401000Y-39365000D03*
G04 #@! TD*
D14*
G04 #@! TO.P,C5,1*
G04 #@! TO.N,Net-(C5-Pad1)*
X152654000Y-35814000D03*
D10*
G04 #@! TO.P,C5,2*
G04 #@! TO.N,GND*
X152654000Y-32014000D03*
G04 #@! TD*
D15*
G04 #@! TO.N,-9V*
G04 #@! TO.C,J8*
G36*
X140195504Y-78018204D02*
X140219773Y-78021804D01*
X140243571Y-78027765D01*
X140266671Y-78036030D01*
X140288849Y-78046520D01*
X140309893Y-78059133D01*
X140329598Y-78073747D01*
X140347777Y-78090223D01*
X140364253Y-78108402D01*
X140378867Y-78128107D01*
X140391480Y-78149151D01*
X140401970Y-78171329D01*
X140410235Y-78194429D01*
X140416196Y-78218227D01*
X140419796Y-78242496D01*
X140421000Y-78267000D01*
X140421000Y-79467000D01*
X140419796Y-79491504D01*
X140416196Y-79515773D01*
X140410235Y-79539571D01*
X140401970Y-79562671D01*
X140391480Y-79584849D01*
X140378867Y-79605893D01*
X140364253Y-79625598D01*
X140347777Y-79643777D01*
X140329598Y-79660253D01*
X140309893Y-79674867D01*
X140288849Y-79687480D01*
X140266671Y-79697970D01*
X140243571Y-79706235D01*
X140219773Y-79712196D01*
X140195504Y-79715796D01*
X140171000Y-79717000D01*
X138721000Y-79717000D01*
X138696496Y-79715796D01*
X138672227Y-79712196D01*
X138648429Y-79706235D01*
X138625329Y-79697970D01*
X138603151Y-79687480D01*
X138582107Y-79674867D01*
X138562402Y-79660253D01*
X138544223Y-79643777D01*
X138527747Y-79625598D01*
X138513133Y-79605893D01*
X138500520Y-79584849D01*
X138490030Y-79562671D01*
X138481765Y-79539571D01*
X138475804Y-79515773D01*
X138472204Y-79491504D01*
X138471000Y-79467000D01*
X138471000Y-78267000D01*
X138472204Y-78242496D01*
X138475804Y-78218227D01*
X138481765Y-78194429D01*
X138490030Y-78171329D01*
X138500520Y-78149151D01*
X138513133Y-78128107D01*
X138527747Y-78108402D01*
X138544223Y-78090223D01*
X138562402Y-78073747D01*
X138582107Y-78059133D01*
X138603151Y-78046520D01*
X138625329Y-78036030D01*
X138648429Y-78027765D01*
X138672227Y-78021804D01*
X138696496Y-78018204D01*
X138721000Y-78017000D01*
X140171000Y-78017000D01*
X140195504Y-78018204D01*
X140195504Y-78018204D01*
G37*
D16*
G04 #@! TD*
G04 #@! TO.P,J8,1*
G04 #@! TO.N,-9V*
X139446000Y-78867000D03*
D17*
G04 #@! TO.P,J8,2*
G04 #@! TO.N,GND*
X139446000Y-76367000D03*
G04 #@! TO.P,J8,3*
G04 #@! TO.N,+9V*
X139446000Y-73867000D03*
G04 #@! TD*
D10*
G04 #@! TO.P,C1,2*
G04 #@! TO.N,-9V*
X144145000Y-52912000D03*
G04 #@! TO.P,C1,1*
G04 #@! TO.N,GND*
X144145000Y-57912000D03*
G04 #@! TD*
G04 #@! TO.P,C3,1*
G04 #@! TO.N,Net-(C3-Pad1)*
X140589000Y-61214000D03*
G04 #@! TO.P,C3,2*
G04 #@! TO.N,Net-(C3-Pad2)*
X140589000Y-66214000D03*
G04 #@! TD*
G04 #@! TO.P,C4,2*
G04 #@! TO.N,+9V*
X148717000Y-49704000D03*
G04 #@! TO.P,C4,1*
G04 #@! TO.N,GND*
X148717000Y-44704000D03*
G04 #@! TD*
D11*
G04 #@! TO.P,D1,2*
G04 #@! TO.N,Net-(D1-Pad2)*
X148590000Y-41275000D03*
D14*
G04 #@! TO.P,D1,1*
G04 #@! TO.N,Net-(D1-Pad1)*
X156210000Y-41275000D03*
G04 #@! TD*
G04 #@! TO.P,D2,1*
G04 #@! TO.N,Net-(D2-Pad1)*
X163449000Y-60071000D03*
D11*
G04 #@! TO.P,D2,2*
G04 #@! TO.N,Net-(D2-Pad2)*
X171069000Y-60071000D03*
G04 #@! TD*
D18*
G04 #@! TO.P,J2,TN*
G04 #@! TO.N,Net-(J2-PadTN)*
X144567000Y-37096000D03*
D19*
G04 #@! TO.P,J2,T*
G04 #@! TO.N,Net-(J2-PadT)*
X140567000Y-41546000D03*
D20*
G04 #@! TO.P,J2,S*
G04 #@! TO.N,GND*
X131167000Y-41546000D03*
G04 #@! TD*
G04 #@! TO.P,J9,S*
G04 #@! TO.N,GND*
X131167000Y-89298000D03*
D19*
G04 #@! TO.P,J9,T*
G04 #@! TO.N,Net-(J9-PadT)*
X140567000Y-89298000D03*
D18*
G04 #@! TO.P,J9,TN*
G04 #@! TO.N,Net-(J9-PadTN)*
X144567000Y-84848000D03*
G04 #@! TD*
D21*
G04 #@! TO.P,Q1,2*
G04 #@! TO.N,Net-(Q1-Pad2)*
X156337000Y-80772000D03*
G04 #@! TO.P,Q1,3*
G04 #@! TO.N,Net-(Q1-Pad3)*
X156337000Y-79502000D03*
D22*
G04 #@! TO.P,Q1,1*
G04 #@! TO.N,GND*
X156337000Y-82042000D03*
G04 #@! TD*
D11*
G04 #@! TO.P,R1,2*
G04 #@! TO.N,Net-(R1-Pad2)*
X145288000Y-77343000D03*
D10*
G04 #@! TO.P,R1,1*
G04 #@! TO.N,+9V*
X145288000Y-72263000D03*
G04 #@! TD*
D11*
G04 #@! TO.P,R2,2*
G04 #@! TO.N,Net-(R1-Pad2)*
X148717000Y-71755000D03*
D10*
G04 #@! TO.P,R2,1*
G04 #@! TO.N,GND*
X148717000Y-76835000D03*
G04 #@! TD*
G04 #@! TO.P,R3,1*
G04 #@! TO.N,Net-(J2-PadT)*
X140462000Y-45339000D03*
D11*
G04 #@! TO.P,R3,2*
G04 #@! TO.N,GND*
X140462000Y-50419000D03*
G04 #@! TD*
D10*
G04 #@! TO.P,R4,1*
G04 #@! TO.N,Net-(R4-Pad1)*
X137287000Y-69088000D03*
D11*
G04 #@! TO.P,R4,2*
G04 #@! TO.N,Net-(J2-PadT)*
X137287000Y-64008000D03*
G04 #@! TD*
D10*
G04 #@! TO.P,R5,1*
G04 #@! TO.N,Net-(R5-Pad1)*
X157099000Y-49403000D03*
D11*
G04 #@! TO.P,R5,2*
G04 #@! TO.N,Net-(R1-Pad2)*
X152019000Y-49403000D03*
G04 #@! TD*
G04 #@! TO.P,R6,2*
G04 #@! TO.N,Net-(C3-Pad2)*
X144145000Y-66167000D03*
D10*
G04 #@! TO.P,R6,1*
G04 #@! TO.N,Net-(R4-Pad1)*
X144145000Y-61087000D03*
G04 #@! TD*
G04 #@! TO.P,R7,1*
G04 #@! TO.N,Net-(R5-Pad1)*
X156972000Y-45085000D03*
D11*
G04 #@! TO.P,R7,2*
G04 #@! TO.N,Net-(R7-Pad2)*
X151892000Y-45085000D03*
G04 #@! TD*
D10*
G04 #@! TO.P,R8,1*
G04 #@! TO.N,GND*
X140589000Y-53340000D03*
D11*
G04 #@! TO.P,R8,2*
G04 #@! TO.N,Net-(C3-Pad1)*
X140589000Y-58420000D03*
G04 #@! TD*
G04 #@! TO.P,R9,2*
G04 #@! TO.N,Net-(R11-Pad2)*
X137287000Y-48006000D03*
D10*
G04 #@! TO.P,R9,1*
G04 #@! TO.N,Net-(C3-Pad1)*
X137287000Y-53086000D03*
G04 #@! TD*
D11*
G04 #@! TO.P,R10,2*
G04 #@! TO.N,Net-(C3-Pad2)*
X157480000Y-75819000D03*
D10*
G04 #@! TO.P,R10,1*
G04 #@! TO.N,Net-(Q1-Pad2)*
X152400000Y-75819000D03*
G04 #@! TD*
D11*
G04 #@! TO.P,R12,2*
G04 #@! TO.N,Net-(R11-Pad2)*
X151892000Y-72263000D03*
D10*
G04 #@! TO.P,R12,1*
G04 #@! TO.N,Net-(R12-Pad1)*
X156972000Y-72263000D03*
G04 #@! TD*
D11*
G04 #@! TO.P,R13,2*
G04 #@! TO.N,Net-(R13-Pad2)*
X153797000Y-85471000D03*
D10*
G04 #@! TO.P,R13,1*
G04 #@! TO.N,+9V*
X148717000Y-85471000D03*
G04 #@! TD*
G04 #@! TO.P,R14,1*
G04 #@! TO.N,Net-(J9-PadT)*
X137287000Y-61087000D03*
D11*
G04 #@! TO.P,R14,2*
G04 #@! TO.N,Net-(R14-Pad2)*
X137287000Y-56007000D03*
G04 #@! TD*
D14*
G04 #@! TO.P,U2,1*
G04 #@! TO.N,Net-(C3-Pad2)*
X155829000Y-68580000D03*
D11*
G04 #@! TO.P,U2,8*
G04 #@! TO.N,Net-(R11-Pad2)*
X148209000Y-53340000D03*
G04 #@! TO.P,U2,2*
G04 #@! TO.N,Net-(R1-Pad2)*
X155829000Y-66040000D03*
G04 #@! TO.P,U2,9*
G04 #@! TO.N,Net-(R14-Pad2)*
X148209000Y-55880000D03*
G04 #@! TO.P,U2,3*
G04 #@! TO.N,Net-(R4-Pad1)*
X155829000Y-63500000D03*
G04 #@! TO.P,U2,10*
G04 #@! TO.N,Net-(C3-Pad1)*
X148209000Y-58420000D03*
G04 #@! TO.P,U2,4*
G04 #@! TO.N,+9V*
X155829000Y-60960000D03*
G04 #@! TO.P,U2,11*
G04 #@! TO.N,-9V*
X148209000Y-60960000D03*
G04 #@! TO.P,U2,5*
G04 #@! TO.N,Net-(R5-Pad1)*
X155829000Y-58420000D03*
G04 #@! TO.P,U2,12*
G04 #@! TO.N,Net-(C5-Pad1)*
X148209000Y-63500000D03*
G04 #@! TO.P,U2,6*
G04 #@! TO.N,Net-(R14-Pad2)*
X155829000Y-55880000D03*
G04 #@! TO.P,U2,13*
X148209000Y-66040000D03*
G04 #@! TO.P,U2,7*
G04 #@! TO.N,Net-(R7-Pad2)*
X155829000Y-53340000D03*
G04 #@! TO.P,U2,14*
G04 #@! TO.N,Net-(R14-Pad2)*
X148209000Y-68580000D03*
G04 #@! TD*
D23*
G04 #@! TO.N,GND*
X131167000Y-88998000D02*
X131167000Y-89298000D01*
X129559000Y-87390000D02*
X131167000Y-88998000D01*
X131167000Y-41846000D02*
X129559000Y-43454000D01*
X131167000Y-41546000D02*
X131167000Y-41846000D01*
X129559000Y-43454000D02*
X129559000Y-84582000D01*
X129559000Y-84582000D02*
X129559000Y-87390000D01*
D24*
X148717000Y-45835370D02*
X148717000Y-44704000D01*
X148717000Y-47641962D02*
X148717000Y-45835370D01*
X144812961Y-51546001D02*
X148717000Y-47641962D01*
X142720371Y-51546001D02*
X144812961Y-51546001D01*
X141593370Y-50419000D02*
X142720371Y-51546001D01*
X140462000Y-50419000D02*
X141593370Y-50419000D01*
D23*
X151522630Y-32014000D02*
X152654000Y-32014000D01*
X142307000Y-32014000D02*
X151522630Y-32014000D01*
X132775000Y-41546000D02*
X142307000Y-32014000D01*
X131167000Y-41546000D02*
X132775000Y-41546000D01*
X139321000Y-76367000D02*
X139446000Y-76367000D01*
X137963000Y-77725000D02*
X139321000Y-76367000D01*
X137963000Y-81761202D02*
X137963000Y-77725000D01*
X145185799Y-88984001D02*
X137963000Y-81761202D01*
X162778921Y-88984001D02*
X145185799Y-88984001D01*
X172323001Y-79439921D02*
X162778921Y-88984001D01*
X172323001Y-40655079D02*
X172323001Y-79439921D01*
X162528922Y-30861000D02*
X172323001Y-40655079D01*
X153807000Y-30861000D02*
X162528922Y-30861000D01*
X152654000Y-32014000D02*
X153807000Y-30861000D01*
D24*
G04 #@! TO.N,Net-(C3-Pad1)*
X147409001Y-59219999D02*
X148209000Y-58420000D01*
X141388999Y-59219999D02*
X147409001Y-59219999D01*
X140589000Y-58420000D02*
X141388999Y-59219999D01*
X139789001Y-60414001D02*
X140589000Y-61214000D01*
X139789001Y-59219999D02*
X139789001Y-60414001D01*
X140589000Y-58420000D02*
X139789001Y-59219999D01*
X140589000Y-56388000D02*
X140589000Y-58420000D01*
X137287000Y-53086000D02*
X140589000Y-56388000D01*
G04 #@! TO.N,Net-(C3-Pad2)*
X155829000Y-69634000D02*
X155829000Y-68580000D01*
X155829000Y-73036630D02*
X155829000Y-69634000D01*
X157480000Y-74687630D02*
X155829000Y-73036630D01*
X157480000Y-75819000D02*
X157480000Y-74687630D01*
X144747039Y-78470001D02*
X144145000Y-77867962D01*
X148749961Y-78470001D02*
X144747039Y-78470001D01*
X144145000Y-67298370D02*
X144145000Y-66167000D01*
X149844001Y-77375961D02*
X148749961Y-78470001D01*
X144145000Y-77867962D02*
X144145000Y-67298370D01*
X149844001Y-75978961D02*
X149844001Y-77375961D01*
X155829000Y-69993962D02*
X149844001Y-75978961D01*
X155829000Y-68580000D02*
X155829000Y-69993962D01*
X144098000Y-66214000D02*
X144145000Y-66167000D01*
X140589000Y-66214000D02*
X144098000Y-66214000D01*
G04 #@! TO.N,Net-(C5-Pad1)*
X160401000Y-87630000D02*
X160401000Y-85130000D01*
X160401000Y-51686666D02*
X160401000Y-49186666D01*
X153503000Y-34965000D02*
X152654000Y-35814000D01*
X160401000Y-34965000D02*
X153503000Y-34965000D01*
X161300999Y-48286667D02*
X160401000Y-49186666D01*
X162941000Y-46646666D02*
X161300999Y-48286667D01*
X162941000Y-35005000D02*
X162941000Y-46646666D01*
X160401000Y-32465000D02*
X162941000Y-35005000D01*
X159173999Y-61822963D02*
X159173999Y-52913667D01*
X156369961Y-64627001D02*
X159173999Y-61822963D01*
X149336001Y-64627001D02*
X156369961Y-64627001D01*
X148209000Y-63500000D02*
X149336001Y-64627001D01*
X159501001Y-52586665D02*
X160401000Y-51686666D01*
X159173999Y-52913667D02*
X159501001Y-52586665D01*
X159173999Y-54775627D02*
X159173999Y-52913667D01*
X159812039Y-55413667D02*
X159173999Y-54775627D01*
X160980269Y-55413667D02*
X159812039Y-55413667D01*
X165073999Y-59507397D02*
X160980269Y-55413667D01*
X165073999Y-80457001D02*
X165073999Y-59507397D01*
X160401000Y-85130000D02*
X165073999Y-80457001D01*
X160401000Y-32465000D02*
X160401000Y-34965000D01*
G04 #@! TO.N,Net-(D1-Pad2)*
X148336000Y-41275000D02*
X148590000Y-41275000D01*
X144272000Y-45339000D02*
X148336000Y-41275000D01*
G04 #@! TO.N,Net-(D1-Pad1)*
X159128208Y-37465000D02*
X160401000Y-37465000D01*
X158966000Y-37465000D02*
X159128208Y-37465000D01*
X156210000Y-40221000D02*
X158966000Y-37465000D01*
X156210000Y-41275000D02*
X156210000Y-40221000D01*
G04 #@! TO.N,Net-(D2-Pad1)*
X163449000Y-65360332D02*
X163449000Y-60071000D01*
X160401000Y-68408332D02*
X163449000Y-65360332D01*
G04 #@! TO.N,Net-(D2-Pad2)*
X166285334Y-60071000D02*
X171069000Y-60071000D01*
X160401000Y-54186666D02*
X166285334Y-60071000D01*
G04 #@! TO.N,Net-(Q1-Pad2)*
X156112000Y-80772000D02*
X156337000Y-80772000D01*
X152400000Y-77060000D02*
X156112000Y-80772000D01*
X152400000Y-75819000D02*
X152400000Y-77060000D01*
G04 #@! TO.N,Net-(Q1-Pad3)*
X156562000Y-79502000D02*
X156337000Y-79502000D01*
X158790001Y-81730001D02*
X156562000Y-79502000D01*
X159501001Y-81730001D02*
X158790001Y-81730001D01*
X160401000Y-82630000D02*
X159501001Y-81730001D01*
G04 #@! TO.N,Net-(R1-Pad2)*
X148717000Y-73914000D02*
X148717000Y-71755000D01*
X145288000Y-77343000D02*
X148717000Y-73914000D01*
X154432000Y-66040000D02*
X155829000Y-66040000D01*
X148717000Y-71755000D02*
X154432000Y-66040000D01*
G04 #@! TO.N,Net-(J2-PadT)*
X140462000Y-41651000D02*
X140567000Y-41546000D01*
X140462000Y-45339000D02*
X140462000Y-41651000D01*
X136487001Y-63208001D02*
X137287000Y-64008000D01*
X136159999Y-62880999D02*
X136487001Y-63208001D01*
X136159999Y-47465039D02*
X136159999Y-62880999D01*
X138286038Y-45339000D02*
X136159999Y-47465039D01*
X140462000Y-45339000D02*
X138286038Y-45339000D01*
G04 #@! TO.N,Net-(R4-Pad1)*
X155029001Y-62700001D02*
X155829000Y-63500000D01*
X154701999Y-62372999D02*
X155029001Y-62700001D01*
X145430999Y-62372999D02*
X154701999Y-62372999D01*
X144145000Y-61087000D02*
X145430999Y-62372999D01*
X137287000Y-67956630D02*
X137287000Y-69088000D01*
X137287000Y-67848038D02*
X137287000Y-67956630D01*
X142340028Y-62795010D02*
X137287000Y-67848038D01*
X142436990Y-62795010D02*
X142340028Y-62795010D01*
X144145000Y-61087000D02*
X142436990Y-62795010D01*
G04 #@! TO.N,Net-(R5-Pad1)*
X156972000Y-49276000D02*
X157099000Y-49403000D01*
X156972000Y-45085000D02*
X156972000Y-49276000D01*
X157099000Y-57150000D02*
X155829000Y-58420000D01*
X157099000Y-49403000D02*
X157099000Y-57150000D01*
G04 #@! TO.N,Net-(R7-Pad2)*
X155829000Y-49022000D02*
X151892000Y-45085000D01*
X155829000Y-53340000D02*
X155829000Y-49022000D01*
G04 #@! TO.N,Net-(R11-Pad2)*
X141859000Y-48006000D02*
X137287000Y-48006000D01*
X144272000Y-50419000D02*
X141859000Y-48006000D01*
G04 #@! TO.N,Net-(R12-Pad1)*
X159501001Y-66808331D02*
X160401000Y-65908332D01*
X157771999Y-68537333D02*
X159501001Y-66808331D01*
X157771999Y-71463001D02*
X157771999Y-68537333D01*
X156972000Y-72263000D02*
X157771999Y-71463001D01*
G04 #@! TO.N,Net-(R13-Pad2)*
X155365001Y-83902999D02*
X153797000Y-85471000D01*
X160943963Y-83902999D02*
X155365001Y-83902999D01*
X161628001Y-83218961D02*
X160943963Y-83902999D01*
X161628001Y-73408125D02*
X161628001Y-83218961D01*
X160401000Y-70908332D02*
X160401000Y-72181124D01*
X160401000Y-72181124D02*
X161628001Y-73408125D01*
G04 #@! TO.N,Net-(J9-PadT)*
X138414001Y-62214001D02*
X138086999Y-61886999D01*
X138414001Y-64548961D02*
X138414001Y-62214001D01*
X138086999Y-61886999D02*
X137287000Y-61087000D01*
X136159999Y-66802963D02*
X138414001Y-64548961D01*
X136159999Y-86544999D02*
X136159999Y-66802963D01*
X138913000Y-89298000D02*
X136159999Y-86544999D01*
X140567000Y-89298000D02*
X138913000Y-89298000D01*
G04 #@! TO.N,Net-(R14-Pad2)*
X138414001Y-57134001D02*
X138086999Y-56806999D01*
X138414001Y-60706963D02*
X138414001Y-57134001D01*
X141129961Y-62341001D02*
X140048039Y-62341001D01*
X140048039Y-62341001D02*
X138414001Y-60706963D01*
X143637963Y-59832999D02*
X141129961Y-62341001D01*
X138086999Y-56806999D02*
X137287000Y-56007000D01*
X154697630Y-55880000D02*
X150744631Y-59832999D01*
X155829000Y-55880000D02*
X154697630Y-55880000D01*
X148463963Y-59832999D02*
X148209000Y-59832999D01*
X149336001Y-58960961D02*
X148463963Y-59832999D01*
X149336001Y-57007001D02*
X149336001Y-58960961D01*
X148209000Y-55880000D02*
X149336001Y-57007001D01*
X150744631Y-59832999D02*
X148209000Y-59832999D01*
X148209000Y-59832999D02*
X143637963Y-59832999D01*
X148209000Y-67448630D02*
X148209000Y-66040000D01*
X148209000Y-68580000D02*
X148209000Y-67448630D01*
G04 #@! TD*
G04 #@! TO.N,GND*
G36*
X177115000Y-97095720D02*
X175109878Y-97118797D01*
X175558912Y-96932801D01*
X176117301Y-96374412D01*
X176419500Y-95644841D01*
X176419500Y-94855159D01*
X176117301Y-94125588D01*
X175558912Y-93567199D01*
X174829341Y-93265000D01*
X174039659Y-93265000D01*
X173310088Y-93567199D01*
X172751699Y-94125588D01*
X172449500Y-94855159D01*
X172449500Y-95644841D01*
X172751699Y-96374412D01*
X173310088Y-96932801D01*
X173795638Y-97133923D01*
X127952831Y-97661526D01*
X127960051Y-94855159D01*
X128507500Y-94855159D01*
X128507500Y-95644841D01*
X128809699Y-96374412D01*
X129368088Y-96932801D01*
X130097659Y-97235000D01*
X130887341Y-97235000D01*
X131616912Y-96932801D01*
X132175301Y-96374412D01*
X132477500Y-95644841D01*
X132477500Y-94855159D01*
X132175301Y-94125588D01*
X131616912Y-93567199D01*
X130887341Y-93265000D01*
X130097659Y-93265000D01*
X129368088Y-93567199D01*
X128809699Y-94125588D01*
X128507500Y-94855159D01*
X127960051Y-94855159D01*
X127973613Y-89583750D01*
X129432000Y-89583750D01*
X129432000Y-90824310D01*
X129528673Y-91057699D01*
X129707302Y-91236327D01*
X129940691Y-91333000D01*
X130881250Y-91333000D01*
X131040000Y-91174250D01*
X131040000Y-89425000D01*
X131294000Y-89425000D01*
X131294000Y-91174250D01*
X131452750Y-91333000D01*
X132393309Y-91333000D01*
X132626698Y-91236327D01*
X132805327Y-91057699D01*
X132902000Y-90824310D01*
X132902000Y-89583750D01*
X132743250Y-89425000D01*
X131294000Y-89425000D01*
X131040000Y-89425000D01*
X129590750Y-89425000D01*
X129432000Y-89583750D01*
X127973613Y-89583750D01*
X127978275Y-87771690D01*
X129432000Y-87771690D01*
X129432000Y-89012250D01*
X129590750Y-89171000D01*
X131040000Y-89171000D01*
X131040000Y-87421750D01*
X131294000Y-87421750D01*
X131294000Y-89171000D01*
X132743250Y-89171000D01*
X132902000Y-89012250D01*
X132902000Y-87771690D01*
X132805327Y-87538301D01*
X132626698Y-87359673D01*
X132393309Y-87263000D01*
X131452750Y-87263000D01*
X131294000Y-87421750D01*
X131040000Y-87421750D01*
X130881250Y-87263000D01*
X129940691Y-87263000D01*
X129707302Y-87359673D01*
X129528673Y-87538301D01*
X129432000Y-87771690D01*
X127978275Y-87771690D01*
X127984627Y-85302615D01*
X130782000Y-85302615D01*
X130782000Y-85893385D01*
X131008078Y-86439185D01*
X131425815Y-86856922D01*
X131971615Y-87083000D01*
X132562385Y-87083000D01*
X133108185Y-86856922D01*
X133525922Y-86439185D01*
X133752000Y-85893385D01*
X133752000Y-85302615D01*
X133525922Y-84756815D01*
X133108185Y-84339078D01*
X132562385Y-84113000D01*
X131971615Y-84113000D01*
X131425815Y-84339078D01*
X131008078Y-84756815D01*
X130782000Y-85302615D01*
X127984627Y-85302615D01*
X128081980Y-47465039D01*
X135383072Y-47465039D01*
X135397999Y-47540082D01*
X135398000Y-62805951D01*
X135383072Y-62880999D01*
X135409577Y-63014251D01*
X135442212Y-63178316D01*
X135610629Y-63430370D01*
X135674251Y-63472881D01*
X135887843Y-63686473D01*
X135823887Y-64008000D01*
X135935260Y-64567909D01*
X136252423Y-65042577D01*
X136606301Y-65279031D01*
X135674250Y-66211082D01*
X135610629Y-66253592D01*
X135568118Y-66317214D01*
X135568117Y-66317215D01*
X135442212Y-66505646D01*
X135383072Y-66802963D01*
X135398000Y-66878011D01*
X135397999Y-86469956D01*
X135383072Y-86544999D01*
X135397999Y-86620042D01*
X135397999Y-86620046D01*
X135442211Y-86842315D01*
X135610628Y-87094370D01*
X135674252Y-87136882D01*
X138321118Y-89783749D01*
X138363629Y-89847371D01*
X138427251Y-89889882D01*
X138519560Y-89951561D01*
X138519560Y-90698000D01*
X138568843Y-90945765D01*
X138709191Y-91155809D01*
X138919235Y-91296157D01*
X139167000Y-91345440D01*
X141967000Y-91345440D01*
X142214765Y-91296157D01*
X142424809Y-91155809D01*
X142565157Y-90945765D01*
X142614440Y-90698000D01*
X142614440Y-87898000D01*
X142565157Y-87650235D01*
X142424809Y-87440191D01*
X142214765Y-87299843D01*
X141967000Y-87250560D01*
X139167000Y-87250560D01*
X138919235Y-87299843D01*
X138709191Y-87440191D01*
X138568843Y-87650235D01*
X138531351Y-87838721D01*
X136921999Y-86229369D01*
X136921999Y-85302615D01*
X137782000Y-85302615D01*
X137782000Y-85893385D01*
X138008078Y-86439185D01*
X138425815Y-86856922D01*
X138971615Y-87083000D01*
X139562385Y-87083000D01*
X140108185Y-86856922D01*
X140525922Y-86439185D01*
X140752000Y-85893385D01*
X140752000Y-85302615D01*
X140525922Y-84756815D01*
X140108185Y-84339078D01*
X139562385Y-84113000D01*
X138971615Y-84113000D01*
X138425815Y-84339078D01*
X138008078Y-84756815D01*
X137782000Y-85302615D01*
X136921999Y-85302615D01*
X136921999Y-83448000D01*
X142619560Y-83448000D01*
X142619560Y-86248000D01*
X142668843Y-86495765D01*
X142809191Y-86705809D01*
X143019235Y-86846157D01*
X143267000Y-86895440D01*
X145867000Y-86895440D01*
X146114765Y-86846157D01*
X146324809Y-86705809D01*
X146465157Y-86495765D01*
X146514440Y-86248000D01*
X146514440Y-85185561D01*
X147282000Y-85185561D01*
X147282000Y-85756439D01*
X147500466Y-86283862D01*
X147904138Y-86687534D01*
X148431561Y-86906000D01*
X149002439Y-86906000D01*
X149529862Y-86687534D01*
X149933534Y-86283862D01*
X150152000Y-85756439D01*
X150152000Y-85185561D01*
X149933534Y-84658138D01*
X149529862Y-84254466D01*
X149002439Y-84036000D01*
X148431561Y-84036000D01*
X147904138Y-84254466D01*
X147500466Y-84658138D01*
X147282000Y-85185561D01*
X146514440Y-85185561D01*
X146514440Y-83448000D01*
X146465157Y-83200235D01*
X146324809Y-82990191D01*
X146114765Y-82849843D01*
X145867000Y-82800560D01*
X143267000Y-82800560D01*
X143019235Y-82849843D01*
X142809191Y-82990191D01*
X142668843Y-83200235D01*
X142619560Y-83448000D01*
X136921999Y-83448000D01*
X136921999Y-78267000D01*
X137823560Y-78267000D01*
X137823560Y-79467000D01*
X137891874Y-79810435D01*
X138086414Y-80101586D01*
X138377565Y-80296126D01*
X138721000Y-80364440D01*
X140171000Y-80364440D01*
X140514435Y-80296126D01*
X140805586Y-80101586D01*
X141000126Y-79810435D01*
X141068440Y-79467000D01*
X141068440Y-78267000D01*
X141000126Y-77923565D01*
X140805586Y-77632414D01*
X140539789Y-77454815D01*
X140773497Y-77238193D01*
X141012476Y-76723890D01*
X140891155Y-76494000D01*
X139573000Y-76494000D01*
X139573000Y-76514000D01*
X139319000Y-76514000D01*
X139319000Y-76494000D01*
X138000845Y-76494000D01*
X137879524Y-76723890D01*
X138118503Y-77238193D01*
X138352211Y-77454815D01*
X138086414Y-77632414D01*
X137891874Y-77923565D01*
X137823560Y-78267000D01*
X136921999Y-78267000D01*
X136921999Y-73867000D01*
X137806908Y-73867000D01*
X137922161Y-74446418D01*
X138250375Y-74937625D01*
X138523687Y-75120246D01*
X138118503Y-75495807D01*
X137879524Y-76010110D01*
X138000845Y-76240000D01*
X139319000Y-76240000D01*
X139319000Y-76220000D01*
X139573000Y-76220000D01*
X139573000Y-76240000D01*
X140891155Y-76240000D01*
X141012476Y-76010110D01*
X140773497Y-75495807D01*
X140368313Y-75120246D01*
X140641625Y-74937625D01*
X140969839Y-74446418D01*
X141085092Y-73867000D01*
X140969839Y-73287582D01*
X140641625Y-72796375D01*
X140150418Y-72468161D01*
X139717256Y-72382000D01*
X139174744Y-72382000D01*
X138741582Y-72468161D01*
X138250375Y-72796375D01*
X137922161Y-73287582D01*
X137806908Y-73867000D01*
X136921999Y-73867000D01*
X136921999Y-70490044D01*
X137001561Y-70523000D01*
X137572439Y-70523000D01*
X138099862Y-70304534D01*
X138503534Y-69900862D01*
X138722000Y-69373439D01*
X138722000Y-68802561D01*
X138503534Y-68275138D01*
X138220532Y-67992136D01*
X139317795Y-66894874D01*
X139372466Y-67026862D01*
X139776138Y-67430534D01*
X140303561Y-67649000D01*
X140874439Y-67649000D01*
X141401862Y-67430534D01*
X141805534Y-67026862D01*
X141826602Y-66976000D01*
X142959697Y-66976000D01*
X143110423Y-67201577D01*
X143383001Y-67383708D01*
X143383000Y-77792919D01*
X143368073Y-77867962D01*
X143383000Y-77943005D01*
X143383000Y-77943009D01*
X143427212Y-78165278D01*
X143595629Y-78417333D01*
X143659253Y-78459845D01*
X144155157Y-78955750D01*
X144197668Y-79019372D01*
X144449722Y-79187789D01*
X144671991Y-79232001D01*
X144671992Y-79232001D01*
X144747039Y-79246929D01*
X144822086Y-79232001D01*
X148674918Y-79232001D01*
X148749961Y-79246928D01*
X148825004Y-79232001D01*
X148825009Y-79232001D01*
X149047278Y-79187789D01*
X149299332Y-79019372D01*
X149341844Y-78955748D01*
X150329750Y-77967843D01*
X150393372Y-77925332D01*
X150452442Y-77836928D01*
X150561788Y-77673280D01*
X150561788Y-77673279D01*
X150561789Y-77673278D01*
X150606001Y-77451009D01*
X150606001Y-77451005D01*
X150620928Y-77375962D01*
X150606001Y-77300919D01*
X150606001Y-76294591D01*
X150965000Y-75935592D01*
X150965000Y-76104439D01*
X151183466Y-76631862D01*
X151587138Y-77035534D01*
X151624834Y-77051148D01*
X151623073Y-77060000D01*
X151682213Y-77357317D01*
X151690394Y-77369560D01*
X151850630Y-77609371D01*
X151914251Y-77651881D01*
X154946711Y-80684342D01*
X154929275Y-80772000D01*
X155019305Y-81224609D01*
X155020224Y-81225984D01*
X154952000Y-81390691D01*
X154952000Y-81756250D01*
X155110750Y-81915000D01*
X155912290Y-81915000D01*
X155997754Y-81932000D01*
X156676246Y-81932000D01*
X156761710Y-81915000D01*
X157563250Y-81915000D01*
X157722000Y-81756250D01*
X157722000Y-81739631D01*
X158198118Y-82215749D01*
X158240630Y-82279372D01*
X158304252Y-82321883D01*
X158492682Y-82447788D01*
X158492683Y-82447788D01*
X158492684Y-82447789D01*
X158714953Y-82492001D01*
X158714957Y-82492001D01*
X158790000Y-82506928D01*
X158865043Y-82492001D01*
X158866000Y-82492001D01*
X158866000Y-82935330D01*
X158951191Y-83140999D01*
X157360579Y-83140999D01*
X157446699Y-83105327D01*
X157625327Y-82926698D01*
X157722000Y-82693309D01*
X157722000Y-82327750D01*
X157563250Y-82169000D01*
X156464000Y-82169000D01*
X156464000Y-82189000D01*
X156210000Y-82189000D01*
X156210000Y-82169000D01*
X155110750Y-82169000D01*
X154952000Y-82327750D01*
X154952000Y-82693309D01*
X155048673Y-82926698D01*
X155227301Y-83105327D01*
X155305808Y-83137846D01*
X155289957Y-83140999D01*
X155289953Y-83140999D01*
X155067684Y-83185211D01*
X155067683Y-83185212D01*
X155067682Y-83185212D01*
X155012802Y-83221882D01*
X154815630Y-83353628D01*
X154773119Y-83417250D01*
X154118527Y-84071843D01*
X153938333Y-84036000D01*
X153655667Y-84036000D01*
X153237091Y-84119260D01*
X152762423Y-84436423D01*
X152445260Y-84911091D01*
X152333887Y-85471000D01*
X152445260Y-86030909D01*
X152762423Y-86505577D01*
X153237091Y-86822740D01*
X153655667Y-86906000D01*
X153938333Y-86906000D01*
X154356909Y-86822740D01*
X154831577Y-86505577D01*
X155148740Y-86030909D01*
X155260113Y-85471000D01*
X155196157Y-85149473D01*
X155680632Y-84664999D01*
X158932138Y-84664999D01*
X158866000Y-84824670D01*
X158866000Y-85435330D01*
X159099690Y-85999507D01*
X159480183Y-86380000D01*
X159099690Y-86760493D01*
X158866000Y-87324670D01*
X158866000Y-87935330D01*
X159099690Y-88499507D01*
X159531493Y-88931310D01*
X160095670Y-89165000D01*
X160706330Y-89165000D01*
X161090513Y-89005866D01*
X164766000Y-89005866D01*
X164766000Y-90054134D01*
X165167155Y-91022608D01*
X165908392Y-91763845D01*
X166876866Y-92165000D01*
X167925134Y-92165000D01*
X168893608Y-91763845D01*
X169634845Y-91022608D01*
X170036000Y-90054134D01*
X170036000Y-89005866D01*
X169634845Y-88037392D01*
X168893608Y-87296155D01*
X167925134Y-86895000D01*
X166876866Y-86895000D01*
X165908392Y-87296155D01*
X165167155Y-88037392D01*
X164766000Y-89005866D01*
X161090513Y-89005866D01*
X161270507Y-88931310D01*
X161702310Y-88499507D01*
X161936000Y-87935330D01*
X161936000Y-87324670D01*
X161702310Y-86760493D01*
X161321817Y-86380000D01*
X161702310Y-85999507D01*
X161936000Y-85435330D01*
X161936000Y-84824670D01*
X161891469Y-84717162D01*
X164938367Y-81670264D01*
X165167155Y-82222608D01*
X165908392Y-82963845D01*
X166876866Y-83365000D01*
X167925134Y-83365000D01*
X168893608Y-82963845D01*
X169634845Y-82222608D01*
X170036000Y-81254134D01*
X170036000Y-80205866D01*
X169634845Y-79237392D01*
X168893608Y-78496155D01*
X167925134Y-78095000D01*
X166876866Y-78095000D01*
X165908392Y-78496155D01*
X165835999Y-78568548D01*
X165835999Y-74969784D01*
X165908392Y-75042177D01*
X166876866Y-75443332D01*
X167925134Y-75443332D01*
X168893608Y-75042177D01*
X169634845Y-74300940D01*
X170036000Y-73332466D01*
X170036000Y-72284198D01*
X169634845Y-71315724D01*
X168893608Y-70574487D01*
X167925134Y-70173332D01*
X166876866Y-70173332D01*
X165908392Y-70574487D01*
X165835999Y-70646880D01*
X165835999Y-66169784D01*
X165908392Y-66242177D01*
X166876866Y-66643332D01*
X167925134Y-66643332D01*
X168893608Y-66242177D01*
X169634845Y-65500940D01*
X170036000Y-64532466D01*
X170036000Y-63484198D01*
X169634845Y-62515724D01*
X168893608Y-61774487D01*
X167925134Y-61373332D01*
X166876866Y-61373332D01*
X165908392Y-61774487D01*
X165835999Y-61846880D01*
X165835999Y-60687213D01*
X165988017Y-60788788D01*
X166210286Y-60833000D01*
X166210291Y-60833000D01*
X166285334Y-60847927D01*
X166360377Y-60833000D01*
X169852293Y-60833000D01*
X170034423Y-61105577D01*
X170509091Y-61422740D01*
X170927667Y-61506000D01*
X171210333Y-61506000D01*
X171628909Y-61422740D01*
X172103577Y-61105577D01*
X172420740Y-60630909D01*
X172532113Y-60071000D01*
X172420740Y-59511091D01*
X172103577Y-59036423D01*
X171628909Y-58719260D01*
X171210333Y-58636000D01*
X170927667Y-58636000D01*
X170509091Y-58719260D01*
X170034423Y-59036423D01*
X169852293Y-59309000D01*
X166600965Y-59309000D01*
X162854497Y-55562532D01*
X164766000Y-55562532D01*
X164766000Y-56610800D01*
X165167155Y-57579274D01*
X165908392Y-58320511D01*
X166876866Y-58721666D01*
X167925134Y-58721666D01*
X168893608Y-58320511D01*
X169634845Y-57579274D01*
X170036000Y-56610800D01*
X170036000Y-55562532D01*
X169634845Y-54594058D01*
X168893608Y-53852821D01*
X167925134Y-53451666D01*
X166876866Y-53451666D01*
X165908392Y-53852821D01*
X165167155Y-54594058D01*
X164766000Y-55562532D01*
X162854497Y-55562532D01*
X161891469Y-54599504D01*
X161936000Y-54491996D01*
X161936000Y-53881336D01*
X161702310Y-53317159D01*
X161321817Y-52936666D01*
X161702310Y-52556173D01*
X161936000Y-51991996D01*
X161936000Y-51381336D01*
X161702310Y-50817159D01*
X161321817Y-50436666D01*
X161702310Y-50056173D01*
X161936000Y-49491996D01*
X161936000Y-48881336D01*
X161891469Y-48773828D01*
X161892881Y-48772416D01*
X161892883Y-48772413D01*
X163426749Y-47238548D01*
X163490371Y-47196037D01*
X163658788Y-46943983D01*
X163694880Y-46762532D01*
X164766000Y-46762532D01*
X164766000Y-47810800D01*
X165167155Y-48779274D01*
X165908392Y-49520511D01*
X166876866Y-49921666D01*
X167925134Y-49921666D01*
X168893608Y-49520511D01*
X169634845Y-48779274D01*
X170036000Y-47810800D01*
X170036000Y-46762532D01*
X169634845Y-45794058D01*
X168893608Y-45052821D01*
X167925134Y-44651666D01*
X166876866Y-44651666D01*
X165908392Y-45052821D01*
X165167155Y-45794058D01*
X164766000Y-46762532D01*
X163694880Y-46762532D01*
X163703000Y-46721714D01*
X163703000Y-46721713D01*
X163717928Y-46646666D01*
X163703000Y-46571619D01*
X163703000Y-38840866D01*
X164766000Y-38840866D01*
X164766000Y-39889134D01*
X165167155Y-40857608D01*
X165908392Y-41598845D01*
X166876866Y-42000000D01*
X167925134Y-42000000D01*
X168893608Y-41598845D01*
X169634845Y-40857608D01*
X170036000Y-39889134D01*
X170036000Y-38840866D01*
X169634845Y-37872392D01*
X168893608Y-37131155D01*
X167925134Y-36730000D01*
X166876866Y-36730000D01*
X165908392Y-37131155D01*
X165167155Y-37872392D01*
X164766000Y-38840866D01*
X163703000Y-38840866D01*
X163703000Y-35080042D01*
X163717927Y-35004999D01*
X163703000Y-34929956D01*
X163703000Y-34929952D01*
X163658788Y-34707683D01*
X163490371Y-34455629D01*
X163426747Y-34413117D01*
X161891468Y-32877838D01*
X161936000Y-32770330D01*
X161936000Y-32159670D01*
X161702310Y-31595493D01*
X161270507Y-31163690D01*
X160706330Y-30930000D01*
X160095670Y-30930000D01*
X159531493Y-31163690D01*
X159099690Y-31595493D01*
X158866000Y-32159670D01*
X158866000Y-32770330D01*
X159099690Y-33334507D01*
X159480183Y-33715000D01*
X159099690Y-34095493D01*
X159055159Y-34203000D01*
X153578042Y-34203000D01*
X153502999Y-34188073D01*
X153427956Y-34203000D01*
X153427952Y-34203000D01*
X153205683Y-34247212D01*
X153205682Y-34247213D01*
X153205681Y-34247213D01*
X153027066Y-34366560D01*
X151854000Y-34366560D01*
X151606235Y-34415843D01*
X151396191Y-34556191D01*
X151255843Y-34766235D01*
X151206560Y-35014000D01*
X151206560Y-36614000D01*
X151255843Y-36861765D01*
X151396191Y-37071809D01*
X151606235Y-37212157D01*
X151854000Y-37261440D01*
X153454000Y-37261440D01*
X153701765Y-37212157D01*
X153911809Y-37071809D01*
X154052157Y-36861765D01*
X154101440Y-36614000D01*
X154101440Y-35727000D01*
X159055159Y-35727000D01*
X159099690Y-35834507D01*
X159480183Y-36215000D01*
X159099690Y-36595493D01*
X159055159Y-36703000D01*
X159041047Y-36703000D01*
X158966000Y-36688072D01*
X158890953Y-36703000D01*
X158890952Y-36703000D01*
X158668683Y-36747212D01*
X158416629Y-36915629D01*
X158374118Y-36979251D01*
X155724251Y-39629119D01*
X155660630Y-39671629D01*
X155618119Y-39735251D01*
X155618118Y-39735252D01*
X155556440Y-39827560D01*
X155410000Y-39827560D01*
X155162235Y-39876843D01*
X154952191Y-40017191D01*
X154811843Y-40227235D01*
X154762560Y-40475000D01*
X154762560Y-42075000D01*
X154811843Y-42322765D01*
X154952191Y-42532809D01*
X155162235Y-42673157D01*
X155410000Y-42722440D01*
X157010000Y-42722440D01*
X157257765Y-42673157D01*
X157467809Y-42532809D01*
X157608157Y-42322765D01*
X157657440Y-42075000D01*
X157657440Y-40475000D01*
X157608157Y-40227235D01*
X157477274Y-40031356D01*
X159136907Y-38371724D01*
X159531493Y-38766310D01*
X160095670Y-39000000D01*
X160706330Y-39000000D01*
X161270507Y-38766310D01*
X161702310Y-38334507D01*
X161936000Y-37770330D01*
X161936000Y-37159670D01*
X161702310Y-36595493D01*
X161321817Y-36215000D01*
X161702310Y-35834507D01*
X161936000Y-35270330D01*
X161936000Y-35077630D01*
X162179000Y-35320630D01*
X162179001Y-46331034D01*
X160815253Y-47694783D01*
X160815250Y-47694785D01*
X160813838Y-47696197D01*
X160706330Y-47651666D01*
X160095670Y-47651666D01*
X159531493Y-47885356D01*
X159099690Y-48317159D01*
X158866000Y-48881336D01*
X158866000Y-49491996D01*
X159099690Y-50056173D01*
X159480183Y-50436666D01*
X159099690Y-50817159D01*
X158866000Y-51381336D01*
X158866000Y-51991996D01*
X158910532Y-52099504D01*
X158688251Y-52321785D01*
X158624629Y-52364296D01*
X158582118Y-52427918D01*
X158582117Y-52427919D01*
X158456212Y-52616350D01*
X158397072Y-52913667D01*
X158412000Y-52988715D01*
X158411999Y-54700583D01*
X158397072Y-54775627D01*
X158411999Y-54850670D01*
X158411999Y-54850674D01*
X158412000Y-54850678D01*
X158411999Y-61507332D01*
X157100031Y-62819301D01*
X156863577Y-62465423D01*
X156511242Y-62230000D01*
X156863577Y-61994577D01*
X157180740Y-61519909D01*
X157292113Y-60960000D01*
X157180740Y-60400091D01*
X156863577Y-59925423D01*
X156511242Y-59690000D01*
X156863577Y-59454577D01*
X157180740Y-58979909D01*
X157292113Y-58420000D01*
X157228157Y-58098473D01*
X157584749Y-57741882D01*
X157648371Y-57699371D01*
X157742467Y-57558546D01*
X157816787Y-57447319D01*
X157816787Y-57447318D01*
X157816788Y-57447317D01*
X157861000Y-57225048D01*
X157861000Y-57225044D01*
X157875927Y-57150001D01*
X157861000Y-57074958D01*
X157861000Y-50640602D01*
X157911862Y-50619534D01*
X158315534Y-50215862D01*
X158534000Y-49688439D01*
X158534000Y-49117561D01*
X158315534Y-48590138D01*
X157911862Y-48186466D01*
X157734000Y-48112793D01*
X157734000Y-46322602D01*
X157784862Y-46301534D01*
X158188534Y-45897862D01*
X158407000Y-45370439D01*
X158407000Y-44799561D01*
X158188534Y-44272138D01*
X157784862Y-43868466D01*
X157257439Y-43650000D01*
X156686561Y-43650000D01*
X156159138Y-43868466D01*
X155755466Y-44272138D01*
X155537000Y-44799561D01*
X155537000Y-45370439D01*
X155755466Y-45897862D01*
X156159138Y-46301534D01*
X156210000Y-46322602D01*
X156210001Y-48262603D01*
X156178617Y-48293987D01*
X153291157Y-45406527D01*
X153355113Y-45085000D01*
X153243740Y-44525091D01*
X152926577Y-44050423D01*
X152451909Y-43733260D01*
X152033333Y-43650000D01*
X151750667Y-43650000D01*
X151332091Y-43733260D01*
X150857423Y-44050423D01*
X150540260Y-44525091D01*
X150428887Y-45085000D01*
X150540260Y-45644909D01*
X150857423Y-46119577D01*
X151332091Y-46436740D01*
X151750667Y-46520000D01*
X152033333Y-46520000D01*
X152213527Y-46484157D01*
X155067001Y-49337632D01*
X155067000Y-52123293D01*
X154794423Y-52305423D01*
X154477260Y-52780091D01*
X154365887Y-53340000D01*
X154477260Y-53899909D01*
X154794423Y-54374577D01*
X155146758Y-54610000D01*
X154794423Y-54845423D01*
X154610716Y-55120360D01*
X154400313Y-55162212D01*
X154148259Y-55330629D01*
X154105748Y-55394251D01*
X150429001Y-59070999D01*
X150091041Y-59070999D01*
X150098001Y-59036009D01*
X150098001Y-59036004D01*
X150112928Y-58960961D01*
X150098001Y-58885918D01*
X150098001Y-57082043D01*
X150112928Y-57007000D01*
X150098001Y-56931957D01*
X150098001Y-56931953D01*
X150053789Y-56709684D01*
X149885372Y-56457630D01*
X149821751Y-56415120D01*
X149608157Y-56201527D01*
X149672113Y-55880000D01*
X149560740Y-55320091D01*
X149243577Y-54845423D01*
X148891242Y-54610000D01*
X149243577Y-54374577D01*
X149560740Y-53899909D01*
X149672113Y-53340000D01*
X149560740Y-52780091D01*
X149243577Y-52305423D01*
X148768909Y-51988260D01*
X148350333Y-51905000D01*
X148067667Y-51905000D01*
X147649091Y-51988260D01*
X147174423Y-52305423D01*
X146857260Y-52780091D01*
X146745887Y-53340000D01*
X146857260Y-53899909D01*
X147174423Y-54374577D01*
X147526758Y-54610000D01*
X147174423Y-54845423D01*
X146857260Y-55320091D01*
X146745887Y-55880000D01*
X146857260Y-56439909D01*
X147174423Y-56914577D01*
X147526758Y-57150000D01*
X147174423Y-57385423D01*
X146857260Y-57860091D01*
X146745887Y-58420000D01*
X146753445Y-58457999D01*
X145473630Y-58457999D01*
X145591965Y-58128777D01*
X145564778Y-57558546D01*
X145398864Y-57157995D01*
X145152745Y-57083861D01*
X144324605Y-57912000D01*
X144338748Y-57926142D01*
X144159143Y-58105748D01*
X144145000Y-58091605D01*
X144130858Y-58105748D01*
X143951252Y-57926142D01*
X143965395Y-57912000D01*
X143137255Y-57083861D01*
X142891136Y-57157995D01*
X142698035Y-57695223D01*
X142725222Y-58265454D01*
X142804977Y-58457999D01*
X142044555Y-58457999D01*
X142052113Y-58420000D01*
X141940740Y-57860091D01*
X141623577Y-57385423D01*
X141351000Y-57203293D01*
X141351000Y-56904255D01*
X143316861Y-56904255D01*
X144145000Y-57732395D01*
X144973139Y-56904255D01*
X144899005Y-56658136D01*
X144361777Y-56465035D01*
X143791546Y-56492222D01*
X143390995Y-56658136D01*
X143316861Y-56904255D01*
X141351000Y-56904255D01*
X141351000Y-56463042D01*
X141365927Y-56387999D01*
X141351000Y-56312956D01*
X141351000Y-56312952D01*
X141306788Y-56090683D01*
X141249904Y-56005549D01*
X141180882Y-55902251D01*
X141138371Y-55838629D01*
X141074750Y-55796119D01*
X139893537Y-54614906D01*
X140372223Y-54786965D01*
X140942454Y-54759778D01*
X141343005Y-54593864D01*
X141417139Y-54347745D01*
X140589000Y-53519605D01*
X140574858Y-53533748D01*
X140395252Y-53354142D01*
X140409395Y-53340000D01*
X140768605Y-53340000D01*
X141596745Y-54168139D01*
X141842864Y-54094005D01*
X142035965Y-53556777D01*
X142008778Y-52986546D01*
X141842864Y-52585995D01*
X141596745Y-52511861D01*
X140768605Y-53340000D01*
X140409395Y-53340000D01*
X139581255Y-52511861D01*
X139335136Y-52585995D01*
X139142035Y-53123223D01*
X139169222Y-53693454D01*
X139308620Y-54029989D01*
X138700932Y-53422302D01*
X138722000Y-53371439D01*
X138722000Y-52800561D01*
X138528022Y-52332255D01*
X139760861Y-52332255D01*
X140589000Y-53160395D01*
X141417139Y-52332255D01*
X141343005Y-52086136D01*
X140805777Y-51893035D01*
X140235546Y-51920222D01*
X139834995Y-52086136D01*
X139760861Y-52332255D01*
X138528022Y-52332255D01*
X138503534Y-52273138D01*
X138099862Y-51869466D01*
X137572439Y-51651000D01*
X137001561Y-51651000D01*
X136921999Y-51683956D01*
X136921999Y-50768041D01*
X139070086Y-50768041D01*
X139309611Y-51274134D01*
X139724577Y-51650041D01*
X140112961Y-51810904D01*
X140335000Y-51688915D01*
X140335000Y-50546000D01*
X140589000Y-50546000D01*
X140589000Y-51688915D01*
X140811039Y-51810904D01*
X141199423Y-51650041D01*
X141614389Y-51274134D01*
X141853914Y-50768041D01*
X141732629Y-50546000D01*
X140589000Y-50546000D01*
X140335000Y-50546000D01*
X139191371Y-50546000D01*
X139070086Y-50768041D01*
X136921999Y-50768041D01*
X136921999Y-50069959D01*
X139070086Y-50069959D01*
X139191371Y-50292000D01*
X140335000Y-50292000D01*
X140335000Y-49149085D01*
X140589000Y-49149085D01*
X140589000Y-50292000D01*
X141732629Y-50292000D01*
X141853914Y-50069959D01*
X141614389Y-49563866D01*
X141199423Y-49187959D01*
X140811039Y-49027096D01*
X140589000Y-49149085D01*
X140335000Y-49149085D01*
X140112961Y-49027096D01*
X139724577Y-49187959D01*
X139309611Y-49563866D01*
X139070086Y-50069959D01*
X136921999Y-50069959D01*
X136921999Y-49396510D01*
X137145667Y-49441000D01*
X137428333Y-49441000D01*
X137846909Y-49357740D01*
X138321577Y-49040577D01*
X138503707Y-48768000D01*
X141543370Y-48768000D01*
X142872843Y-50097473D01*
X142808887Y-50419000D01*
X142920260Y-50978909D01*
X143237423Y-51453577D01*
X143497145Y-51627118D01*
X143332138Y-51695466D01*
X142928466Y-52099138D01*
X142710000Y-52626561D01*
X142710000Y-53197439D01*
X142928466Y-53724862D01*
X143332138Y-54128534D01*
X143859561Y-54347000D01*
X144430439Y-54347000D01*
X144957862Y-54128534D01*
X145361534Y-53724862D01*
X145580000Y-53197439D01*
X145580000Y-52626561D01*
X145361534Y-52099138D01*
X144957862Y-51695466D01*
X144949653Y-51692066D01*
X145306577Y-51453577D01*
X145623740Y-50978909D01*
X145735113Y-50419000D01*
X145623740Y-49859091D01*
X145329388Y-49418561D01*
X147282000Y-49418561D01*
X147282000Y-49989439D01*
X147500466Y-50516862D01*
X147904138Y-50920534D01*
X148431561Y-51139000D01*
X149002439Y-51139000D01*
X149529862Y-50920534D01*
X149933534Y-50516862D01*
X150152000Y-49989439D01*
X150152000Y-49418561D01*
X150145555Y-49403000D01*
X150555887Y-49403000D01*
X150667260Y-49962909D01*
X150984423Y-50437577D01*
X151459091Y-50754740D01*
X151877667Y-50838000D01*
X152160333Y-50838000D01*
X152578909Y-50754740D01*
X153053577Y-50437577D01*
X153370740Y-49962909D01*
X153482113Y-49403000D01*
X153370740Y-48843091D01*
X153053577Y-48368423D01*
X152578909Y-48051260D01*
X152160333Y-47968000D01*
X151877667Y-47968000D01*
X151459091Y-48051260D01*
X150984423Y-48368423D01*
X150667260Y-48843091D01*
X150555887Y-49403000D01*
X150145555Y-49403000D01*
X149933534Y-48891138D01*
X149529862Y-48487466D01*
X149002439Y-48269000D01*
X148431561Y-48269000D01*
X147904138Y-48487466D01*
X147500466Y-48891138D01*
X147282000Y-49418561D01*
X145329388Y-49418561D01*
X145306577Y-49384423D01*
X144831909Y-49067260D01*
X144413333Y-48984000D01*
X144130667Y-48984000D01*
X143950473Y-49019843D01*
X142450883Y-47520253D01*
X142408371Y-47456629D01*
X142156317Y-47288212D01*
X141934048Y-47244000D01*
X141934043Y-47244000D01*
X141859000Y-47229073D01*
X141783957Y-47244000D01*
X138503707Y-47244000D01*
X138321577Y-46971423D01*
X137967699Y-46734969D01*
X138601669Y-46101000D01*
X139224398Y-46101000D01*
X139245466Y-46151862D01*
X139649138Y-46555534D01*
X140176561Y-46774000D01*
X140747439Y-46774000D01*
X141274862Y-46555534D01*
X141678534Y-46151862D01*
X141897000Y-45624439D01*
X141897000Y-45053561D01*
X142837000Y-45053561D01*
X142837000Y-45624439D01*
X143055466Y-46151862D01*
X143459138Y-46555534D01*
X143986561Y-46774000D01*
X144557439Y-46774000D01*
X145084862Y-46555534D01*
X145488534Y-46151862D01*
X145670836Y-45711745D01*
X147888861Y-45711745D01*
X147962995Y-45957864D01*
X148500223Y-46150965D01*
X149070454Y-46123778D01*
X149471005Y-45957864D01*
X149545139Y-45711745D01*
X148717000Y-44883605D01*
X147888861Y-45711745D01*
X145670836Y-45711745D01*
X145707000Y-45624439D01*
X145707000Y-45053561D01*
X145685932Y-45002698D01*
X146201407Y-44487223D01*
X147270035Y-44487223D01*
X147297222Y-45057454D01*
X147463136Y-45458005D01*
X147709255Y-45532139D01*
X148537395Y-44704000D01*
X148896605Y-44704000D01*
X149724745Y-45532139D01*
X149970864Y-45458005D01*
X150163965Y-44920777D01*
X150136778Y-44350546D01*
X149970864Y-43949995D01*
X149724745Y-43875861D01*
X148896605Y-44704000D01*
X148537395Y-44704000D01*
X147709255Y-43875861D01*
X147463136Y-43949995D01*
X147270035Y-44487223D01*
X146201407Y-44487223D01*
X146992375Y-43696255D01*
X147888861Y-43696255D01*
X148717000Y-44524395D01*
X149545139Y-43696255D01*
X149471005Y-43450136D01*
X148933777Y-43257035D01*
X148363546Y-43284222D01*
X147962995Y-43450136D01*
X147888861Y-43696255D01*
X146992375Y-43696255D01*
X148056615Y-42632016D01*
X148448667Y-42710000D01*
X148731333Y-42710000D01*
X149149909Y-42626740D01*
X149624577Y-42309577D01*
X149941740Y-41834909D01*
X150053113Y-41275000D01*
X149941740Y-40715091D01*
X149624577Y-40240423D01*
X149149909Y-39923260D01*
X148731333Y-39840000D01*
X148448667Y-39840000D01*
X148030091Y-39923260D01*
X147555423Y-40240423D01*
X147238260Y-40715091D01*
X147126887Y-41275000D01*
X147148701Y-41384668D01*
X144608302Y-43925068D01*
X144557439Y-43904000D01*
X143986561Y-43904000D01*
X143459138Y-44122466D01*
X143055466Y-44526138D01*
X142837000Y-45053561D01*
X141897000Y-45053561D01*
X141678534Y-44526138D01*
X141274862Y-44122466D01*
X141224000Y-44101398D01*
X141224000Y-43593440D01*
X141967000Y-43593440D01*
X142214765Y-43544157D01*
X142424809Y-43403809D01*
X142565157Y-43193765D01*
X142614440Y-42946000D01*
X142614440Y-40146000D01*
X142565157Y-39898235D01*
X142424809Y-39688191D01*
X142214765Y-39547843D01*
X141967000Y-39498560D01*
X139167000Y-39498560D01*
X138919235Y-39547843D01*
X138709191Y-39688191D01*
X138568843Y-39898235D01*
X138519560Y-40146000D01*
X138519560Y-42946000D01*
X138568843Y-43193765D01*
X138709191Y-43403809D01*
X138919235Y-43544157D01*
X139167000Y-43593440D01*
X139700000Y-43593440D01*
X139700000Y-44101398D01*
X139649138Y-44122466D01*
X139245466Y-44526138D01*
X139224398Y-44577000D01*
X138361080Y-44577000D01*
X138286037Y-44562073D01*
X138210994Y-44577000D01*
X138210990Y-44577000D01*
X137988721Y-44621212D01*
X137988720Y-44621213D01*
X137988719Y-44621213D01*
X137943143Y-44651666D01*
X137736667Y-44789629D01*
X137694156Y-44853251D01*
X135674252Y-46873156D01*
X135610628Y-46915668D01*
X135442211Y-47167723D01*
X135397999Y-47389992D01*
X135397999Y-47389996D01*
X135383072Y-47465039D01*
X128081980Y-47465039D01*
X128096474Y-41831750D01*
X129432000Y-41831750D01*
X129432000Y-43072310D01*
X129528673Y-43305699D01*
X129707302Y-43484327D01*
X129940691Y-43581000D01*
X130881250Y-43581000D01*
X131040000Y-43422250D01*
X131040000Y-41673000D01*
X131294000Y-41673000D01*
X131294000Y-43422250D01*
X131452750Y-43581000D01*
X132393309Y-43581000D01*
X132626698Y-43484327D01*
X132805327Y-43305699D01*
X132902000Y-43072310D01*
X132902000Y-41831750D01*
X132743250Y-41673000D01*
X131294000Y-41673000D01*
X131040000Y-41673000D01*
X129590750Y-41673000D01*
X129432000Y-41831750D01*
X128096474Y-41831750D01*
X128101136Y-40019690D01*
X129432000Y-40019690D01*
X129432000Y-41260250D01*
X129590750Y-41419000D01*
X131040000Y-41419000D01*
X131040000Y-39669750D01*
X131294000Y-39669750D01*
X131294000Y-41419000D01*
X132743250Y-41419000D01*
X132902000Y-41260250D01*
X132902000Y-40019690D01*
X132805327Y-39786301D01*
X132626698Y-39607673D01*
X132393309Y-39511000D01*
X131452750Y-39511000D01*
X131294000Y-39669750D01*
X131040000Y-39669750D01*
X130881250Y-39511000D01*
X129940691Y-39511000D01*
X129707302Y-39607673D01*
X129528673Y-39786301D01*
X129432000Y-40019690D01*
X128101136Y-40019690D01*
X128107488Y-37550615D01*
X130782000Y-37550615D01*
X130782000Y-38141385D01*
X131008078Y-38687185D01*
X131425815Y-39104922D01*
X131971615Y-39331000D01*
X132562385Y-39331000D01*
X133108185Y-39104922D01*
X133525922Y-38687185D01*
X133752000Y-38141385D01*
X133752000Y-37550615D01*
X137782000Y-37550615D01*
X137782000Y-38141385D01*
X138008078Y-38687185D01*
X138425815Y-39104922D01*
X138971615Y-39331000D01*
X139562385Y-39331000D01*
X140108185Y-39104922D01*
X140525922Y-38687185D01*
X140752000Y-38141385D01*
X140752000Y-37550615D01*
X140525922Y-37004815D01*
X140108185Y-36587078D01*
X139562385Y-36361000D01*
X138971615Y-36361000D01*
X138425815Y-36587078D01*
X138008078Y-37004815D01*
X137782000Y-37550615D01*
X133752000Y-37550615D01*
X133525922Y-37004815D01*
X133108185Y-36587078D01*
X132562385Y-36361000D01*
X131971615Y-36361000D01*
X131425815Y-36587078D01*
X131008078Y-37004815D01*
X130782000Y-37550615D01*
X128107488Y-37550615D01*
X128112260Y-35696000D01*
X142619560Y-35696000D01*
X142619560Y-38496000D01*
X142668843Y-38743765D01*
X142809191Y-38953809D01*
X143019235Y-39094157D01*
X143267000Y-39143440D01*
X145867000Y-39143440D01*
X146114765Y-39094157D01*
X146324809Y-38953809D01*
X146465157Y-38743765D01*
X146514440Y-38496000D01*
X146514440Y-35696000D01*
X146465157Y-35448235D01*
X146324809Y-35238191D01*
X146114765Y-35097843D01*
X145867000Y-35048560D01*
X143267000Y-35048560D01*
X143019235Y-35097843D01*
X142809191Y-35238191D01*
X142668843Y-35448235D01*
X142619560Y-35696000D01*
X128112260Y-35696000D01*
X128119140Y-33021745D01*
X151825861Y-33021745D01*
X151899995Y-33267864D01*
X152437223Y-33460965D01*
X153007454Y-33433778D01*
X153408005Y-33267864D01*
X153482139Y-33021745D01*
X152654000Y-32193605D01*
X151825861Y-33021745D01*
X128119140Y-33021745D01*
X128122291Y-31797223D01*
X151207035Y-31797223D01*
X151234222Y-32367454D01*
X151400136Y-32768005D01*
X151646255Y-32842139D01*
X152474395Y-32014000D01*
X152833605Y-32014000D01*
X153661745Y-32842139D01*
X153907864Y-32768005D01*
X154100965Y-32230777D01*
X154073778Y-31660546D01*
X153907864Y-31259995D01*
X153661745Y-31185861D01*
X152833605Y-32014000D01*
X152474395Y-32014000D01*
X151646255Y-31185861D01*
X151400136Y-31259995D01*
X151207035Y-31797223D01*
X128122291Y-31797223D01*
X128124326Y-31006255D01*
X151825861Y-31006255D01*
X152654000Y-31834395D01*
X153482139Y-31006255D01*
X153408005Y-30760136D01*
X152870777Y-30567035D01*
X152300546Y-30594222D01*
X151899995Y-30760136D01*
X151825861Y-31006255D01*
X128124326Y-31006255D01*
X128126810Y-30040866D01*
X164766000Y-30040866D01*
X164766000Y-31089134D01*
X165167155Y-32057608D01*
X165908392Y-32798845D01*
X166876866Y-33200000D01*
X167925134Y-33200000D01*
X168893608Y-32798845D01*
X169634845Y-32057608D01*
X170036000Y-31089134D01*
X170036000Y-30040866D01*
X169634845Y-29072392D01*
X168893608Y-28331155D01*
X167925134Y-27930000D01*
X166876866Y-27930000D01*
X165908392Y-28331155D01*
X165167155Y-29072392D01*
X164766000Y-30040866D01*
X128126810Y-30040866D01*
X128138461Y-25513159D01*
X128507500Y-25513159D01*
X128507500Y-26302841D01*
X128809699Y-27032412D01*
X129368088Y-27590801D01*
X130097659Y-27893000D01*
X130887341Y-27893000D01*
X131616912Y-27590801D01*
X132175301Y-27032412D01*
X132477500Y-26302841D01*
X132477500Y-25513159D01*
X172449500Y-25513159D01*
X172449500Y-26302841D01*
X172751699Y-27032412D01*
X173310088Y-27590801D01*
X174039659Y-27893000D01*
X174829341Y-27893000D01*
X175558912Y-27590801D01*
X176117301Y-27032412D01*
X176419500Y-26302841D01*
X176419500Y-25513159D01*
X176117301Y-24783588D01*
X175558912Y-24225199D01*
X174829341Y-23923000D01*
X174039659Y-23923000D01*
X173310088Y-24225199D01*
X172751699Y-24783588D01*
X172449500Y-25513159D01*
X132477500Y-25513159D01*
X132175301Y-24783588D01*
X131616912Y-24225199D01*
X130887341Y-23923000D01*
X130097659Y-23923000D01*
X129368088Y-24225199D01*
X128809699Y-24783588D01*
X128507500Y-25513159D01*
X128138461Y-25513159D01*
X128142674Y-23876000D01*
X177115001Y-23876000D01*
X177115000Y-97095720D01*
X177115000Y-97095720D01*
G37*
X177115000Y-97095720D02*
X175109878Y-97118797D01*
X175558912Y-96932801D01*
X176117301Y-96374412D01*
X176419500Y-95644841D01*
X176419500Y-94855159D01*
X176117301Y-94125588D01*
X175558912Y-93567199D01*
X174829341Y-93265000D01*
X174039659Y-93265000D01*
X173310088Y-93567199D01*
X172751699Y-94125588D01*
X172449500Y-94855159D01*
X172449500Y-95644841D01*
X172751699Y-96374412D01*
X173310088Y-96932801D01*
X173795638Y-97133923D01*
X127952831Y-97661526D01*
X127960051Y-94855159D01*
X128507500Y-94855159D01*
X128507500Y-95644841D01*
X128809699Y-96374412D01*
X129368088Y-96932801D01*
X130097659Y-97235000D01*
X130887341Y-97235000D01*
X131616912Y-96932801D01*
X132175301Y-96374412D01*
X132477500Y-95644841D01*
X132477500Y-94855159D01*
X132175301Y-94125588D01*
X131616912Y-93567199D01*
X130887341Y-93265000D01*
X130097659Y-93265000D01*
X129368088Y-93567199D01*
X128809699Y-94125588D01*
X128507500Y-94855159D01*
X127960051Y-94855159D01*
X127973613Y-89583750D01*
X129432000Y-89583750D01*
X129432000Y-90824310D01*
X129528673Y-91057699D01*
X129707302Y-91236327D01*
X129940691Y-91333000D01*
X130881250Y-91333000D01*
X131040000Y-91174250D01*
X131040000Y-89425000D01*
X131294000Y-89425000D01*
X131294000Y-91174250D01*
X131452750Y-91333000D01*
X132393309Y-91333000D01*
X132626698Y-91236327D01*
X132805327Y-91057699D01*
X132902000Y-90824310D01*
X132902000Y-89583750D01*
X132743250Y-89425000D01*
X131294000Y-89425000D01*
X131040000Y-89425000D01*
X129590750Y-89425000D01*
X129432000Y-89583750D01*
X127973613Y-89583750D01*
X127978275Y-87771690D01*
X129432000Y-87771690D01*
X129432000Y-89012250D01*
X129590750Y-89171000D01*
X131040000Y-89171000D01*
X131040000Y-87421750D01*
X131294000Y-87421750D01*
X131294000Y-89171000D01*
X132743250Y-89171000D01*
X132902000Y-89012250D01*
X132902000Y-87771690D01*
X132805327Y-87538301D01*
X132626698Y-87359673D01*
X132393309Y-87263000D01*
X131452750Y-87263000D01*
X131294000Y-87421750D01*
X131040000Y-87421750D01*
X130881250Y-87263000D01*
X129940691Y-87263000D01*
X129707302Y-87359673D01*
X129528673Y-87538301D01*
X129432000Y-87771690D01*
X127978275Y-87771690D01*
X127984627Y-85302615D01*
X130782000Y-85302615D01*
X130782000Y-85893385D01*
X131008078Y-86439185D01*
X131425815Y-86856922D01*
X131971615Y-87083000D01*
X132562385Y-87083000D01*
X133108185Y-86856922D01*
X133525922Y-86439185D01*
X133752000Y-85893385D01*
X133752000Y-85302615D01*
X133525922Y-84756815D01*
X133108185Y-84339078D01*
X132562385Y-84113000D01*
X131971615Y-84113000D01*
X131425815Y-84339078D01*
X131008078Y-84756815D01*
X130782000Y-85302615D01*
X127984627Y-85302615D01*
X128081980Y-47465039D01*
X135383072Y-47465039D01*
X135397999Y-47540082D01*
X135398000Y-62805951D01*
X135383072Y-62880999D01*
X135409577Y-63014251D01*
X135442212Y-63178316D01*
X135610629Y-63430370D01*
X135674251Y-63472881D01*
X135887843Y-63686473D01*
X135823887Y-64008000D01*
X135935260Y-64567909D01*
X136252423Y-65042577D01*
X136606301Y-65279031D01*
X135674250Y-66211082D01*
X135610629Y-66253592D01*
X135568118Y-66317214D01*
X135568117Y-66317215D01*
X135442212Y-66505646D01*
X135383072Y-66802963D01*
X135398000Y-66878011D01*
X135397999Y-86469956D01*
X135383072Y-86544999D01*
X135397999Y-86620042D01*
X135397999Y-86620046D01*
X135442211Y-86842315D01*
X135610628Y-87094370D01*
X135674252Y-87136882D01*
X138321118Y-89783749D01*
X138363629Y-89847371D01*
X138427251Y-89889882D01*
X138519560Y-89951561D01*
X138519560Y-90698000D01*
X138568843Y-90945765D01*
X138709191Y-91155809D01*
X138919235Y-91296157D01*
X139167000Y-91345440D01*
X141967000Y-91345440D01*
X142214765Y-91296157D01*
X142424809Y-91155809D01*
X142565157Y-90945765D01*
X142614440Y-90698000D01*
X142614440Y-87898000D01*
X142565157Y-87650235D01*
X142424809Y-87440191D01*
X142214765Y-87299843D01*
X141967000Y-87250560D01*
X139167000Y-87250560D01*
X138919235Y-87299843D01*
X138709191Y-87440191D01*
X138568843Y-87650235D01*
X138531351Y-87838721D01*
X136921999Y-86229369D01*
X136921999Y-85302615D01*
X137782000Y-85302615D01*
X137782000Y-85893385D01*
X138008078Y-86439185D01*
X138425815Y-86856922D01*
X138971615Y-87083000D01*
X139562385Y-87083000D01*
X140108185Y-86856922D01*
X140525922Y-86439185D01*
X140752000Y-85893385D01*
X140752000Y-85302615D01*
X140525922Y-84756815D01*
X140108185Y-84339078D01*
X139562385Y-84113000D01*
X138971615Y-84113000D01*
X138425815Y-84339078D01*
X138008078Y-84756815D01*
X137782000Y-85302615D01*
X136921999Y-85302615D01*
X136921999Y-83448000D01*
X142619560Y-83448000D01*
X142619560Y-86248000D01*
X142668843Y-86495765D01*
X142809191Y-86705809D01*
X143019235Y-86846157D01*
X143267000Y-86895440D01*
X145867000Y-86895440D01*
X146114765Y-86846157D01*
X146324809Y-86705809D01*
X146465157Y-86495765D01*
X146514440Y-86248000D01*
X146514440Y-85185561D01*
X147282000Y-85185561D01*
X147282000Y-85756439D01*
X147500466Y-86283862D01*
X147904138Y-86687534D01*
X148431561Y-86906000D01*
X149002439Y-86906000D01*
X149529862Y-86687534D01*
X149933534Y-86283862D01*
X150152000Y-85756439D01*
X150152000Y-85185561D01*
X149933534Y-84658138D01*
X149529862Y-84254466D01*
X149002439Y-84036000D01*
X148431561Y-84036000D01*
X147904138Y-84254466D01*
X147500466Y-84658138D01*
X147282000Y-85185561D01*
X146514440Y-85185561D01*
X146514440Y-83448000D01*
X146465157Y-83200235D01*
X146324809Y-82990191D01*
X146114765Y-82849843D01*
X145867000Y-82800560D01*
X143267000Y-82800560D01*
X143019235Y-82849843D01*
X142809191Y-82990191D01*
X142668843Y-83200235D01*
X142619560Y-83448000D01*
X136921999Y-83448000D01*
X136921999Y-78267000D01*
X137823560Y-78267000D01*
X137823560Y-79467000D01*
X137891874Y-79810435D01*
X138086414Y-80101586D01*
X138377565Y-80296126D01*
X138721000Y-80364440D01*
X140171000Y-80364440D01*
X140514435Y-80296126D01*
X140805586Y-80101586D01*
X141000126Y-79810435D01*
X141068440Y-79467000D01*
X141068440Y-78267000D01*
X141000126Y-77923565D01*
X140805586Y-77632414D01*
X140539789Y-77454815D01*
X140773497Y-77238193D01*
X141012476Y-76723890D01*
X140891155Y-76494000D01*
X139573000Y-76494000D01*
X139573000Y-76514000D01*
X139319000Y-76514000D01*
X139319000Y-76494000D01*
X138000845Y-76494000D01*
X137879524Y-76723890D01*
X138118503Y-77238193D01*
X138352211Y-77454815D01*
X138086414Y-77632414D01*
X137891874Y-77923565D01*
X137823560Y-78267000D01*
X136921999Y-78267000D01*
X136921999Y-73867000D01*
X137806908Y-73867000D01*
X137922161Y-74446418D01*
X138250375Y-74937625D01*
X138523687Y-75120246D01*
X138118503Y-75495807D01*
X137879524Y-76010110D01*
X138000845Y-76240000D01*
X139319000Y-76240000D01*
X139319000Y-76220000D01*
X139573000Y-76220000D01*
X139573000Y-76240000D01*
X140891155Y-76240000D01*
X141012476Y-76010110D01*
X140773497Y-75495807D01*
X140368313Y-75120246D01*
X140641625Y-74937625D01*
X140969839Y-74446418D01*
X141085092Y-73867000D01*
X140969839Y-73287582D01*
X140641625Y-72796375D01*
X140150418Y-72468161D01*
X139717256Y-72382000D01*
X139174744Y-72382000D01*
X138741582Y-72468161D01*
X138250375Y-72796375D01*
X137922161Y-73287582D01*
X137806908Y-73867000D01*
X136921999Y-73867000D01*
X136921999Y-70490044D01*
X137001561Y-70523000D01*
X137572439Y-70523000D01*
X138099862Y-70304534D01*
X138503534Y-69900862D01*
X138722000Y-69373439D01*
X138722000Y-68802561D01*
X138503534Y-68275138D01*
X138220532Y-67992136D01*
X139317795Y-66894874D01*
X139372466Y-67026862D01*
X139776138Y-67430534D01*
X140303561Y-67649000D01*
X140874439Y-67649000D01*
X141401862Y-67430534D01*
X141805534Y-67026862D01*
X141826602Y-66976000D01*
X142959697Y-66976000D01*
X143110423Y-67201577D01*
X143383001Y-67383708D01*
X143383000Y-77792919D01*
X143368073Y-77867962D01*
X143383000Y-77943005D01*
X143383000Y-77943009D01*
X143427212Y-78165278D01*
X143595629Y-78417333D01*
X143659253Y-78459845D01*
X144155157Y-78955750D01*
X144197668Y-79019372D01*
X144449722Y-79187789D01*
X144671991Y-79232001D01*
X144671992Y-79232001D01*
X144747039Y-79246929D01*
X144822086Y-79232001D01*
X148674918Y-79232001D01*
X148749961Y-79246928D01*
X148825004Y-79232001D01*
X148825009Y-79232001D01*
X149047278Y-79187789D01*
X149299332Y-79019372D01*
X149341844Y-78955748D01*
X150329750Y-77967843D01*
X150393372Y-77925332D01*
X150452442Y-77836928D01*
X150561788Y-77673280D01*
X150561788Y-77673279D01*
X150561789Y-77673278D01*
X150606001Y-77451009D01*
X150606001Y-77451005D01*
X150620928Y-77375962D01*
X150606001Y-77300919D01*
X150606001Y-76294591D01*
X150965000Y-75935592D01*
X150965000Y-76104439D01*
X151183466Y-76631862D01*
X151587138Y-77035534D01*
X151624834Y-77051148D01*
X151623073Y-77060000D01*
X151682213Y-77357317D01*
X151690394Y-77369560D01*
X151850630Y-77609371D01*
X151914251Y-77651881D01*
X154946711Y-80684342D01*
X154929275Y-80772000D01*
X155019305Y-81224609D01*
X155020224Y-81225984D01*
X154952000Y-81390691D01*
X154952000Y-81756250D01*
X155110750Y-81915000D01*
X155912290Y-81915000D01*
X155997754Y-81932000D01*
X156676246Y-81932000D01*
X156761710Y-81915000D01*
X157563250Y-81915000D01*
X157722000Y-81756250D01*
X157722000Y-81739631D01*
X158198118Y-82215749D01*
X158240630Y-82279372D01*
X158304252Y-82321883D01*
X158492682Y-82447788D01*
X158492683Y-82447788D01*
X158492684Y-82447789D01*
X158714953Y-82492001D01*
X158714957Y-82492001D01*
X158790000Y-82506928D01*
X158865043Y-82492001D01*
X158866000Y-82492001D01*
X158866000Y-82935330D01*
X158951191Y-83140999D01*
X157360579Y-83140999D01*
X157446699Y-83105327D01*
X157625327Y-82926698D01*
X157722000Y-82693309D01*
X157722000Y-82327750D01*
X157563250Y-82169000D01*
X156464000Y-82169000D01*
X156464000Y-82189000D01*
X156210000Y-82189000D01*
X156210000Y-82169000D01*
X155110750Y-82169000D01*
X154952000Y-82327750D01*
X154952000Y-82693309D01*
X155048673Y-82926698D01*
X155227301Y-83105327D01*
X155305808Y-83137846D01*
X155289957Y-83140999D01*
X155289953Y-83140999D01*
X155067684Y-83185211D01*
X155067683Y-83185212D01*
X155067682Y-83185212D01*
X155012802Y-83221882D01*
X154815630Y-83353628D01*
X154773119Y-83417250D01*
X154118527Y-84071843D01*
X153938333Y-84036000D01*
X153655667Y-84036000D01*
X153237091Y-84119260D01*
X152762423Y-84436423D01*
X152445260Y-84911091D01*
X152333887Y-85471000D01*
X152445260Y-86030909D01*
X152762423Y-86505577D01*
X153237091Y-86822740D01*
X153655667Y-86906000D01*
X153938333Y-86906000D01*
X154356909Y-86822740D01*
X154831577Y-86505577D01*
X155148740Y-86030909D01*
X155260113Y-85471000D01*
X155196157Y-85149473D01*
X155680632Y-84664999D01*
X158932138Y-84664999D01*
X158866000Y-84824670D01*
X158866000Y-85435330D01*
X159099690Y-85999507D01*
X159480183Y-86380000D01*
X159099690Y-86760493D01*
X158866000Y-87324670D01*
X158866000Y-87935330D01*
X159099690Y-88499507D01*
X159531493Y-88931310D01*
X160095670Y-89165000D01*
X160706330Y-89165000D01*
X161090513Y-89005866D01*
X164766000Y-89005866D01*
X164766000Y-90054134D01*
X165167155Y-91022608D01*
X165908392Y-91763845D01*
X166876866Y-92165000D01*
X167925134Y-92165000D01*
X168893608Y-91763845D01*
X169634845Y-91022608D01*
X170036000Y-90054134D01*
X170036000Y-89005866D01*
X169634845Y-88037392D01*
X168893608Y-87296155D01*
X167925134Y-86895000D01*
X166876866Y-86895000D01*
X165908392Y-87296155D01*
X165167155Y-88037392D01*
X164766000Y-89005866D01*
X161090513Y-89005866D01*
X161270507Y-88931310D01*
X161702310Y-88499507D01*
X161936000Y-87935330D01*
X161936000Y-87324670D01*
X161702310Y-86760493D01*
X161321817Y-86380000D01*
X161702310Y-85999507D01*
X161936000Y-85435330D01*
X161936000Y-84824670D01*
X161891469Y-84717162D01*
X164938367Y-81670264D01*
X165167155Y-82222608D01*
X165908392Y-82963845D01*
X166876866Y-83365000D01*
X167925134Y-83365000D01*
X168893608Y-82963845D01*
X169634845Y-82222608D01*
X170036000Y-81254134D01*
X170036000Y-80205866D01*
X169634845Y-79237392D01*
X168893608Y-78496155D01*
X167925134Y-78095000D01*
X166876866Y-78095000D01*
X165908392Y-78496155D01*
X165835999Y-78568548D01*
X165835999Y-74969784D01*
X165908392Y-75042177D01*
X166876866Y-75443332D01*
X167925134Y-75443332D01*
X168893608Y-75042177D01*
X169634845Y-74300940D01*
X170036000Y-73332466D01*
X170036000Y-72284198D01*
X169634845Y-71315724D01*
X168893608Y-70574487D01*
X167925134Y-70173332D01*
X166876866Y-70173332D01*
X165908392Y-70574487D01*
X165835999Y-70646880D01*
X165835999Y-66169784D01*
X165908392Y-66242177D01*
X166876866Y-66643332D01*
X167925134Y-66643332D01*
X168893608Y-66242177D01*
X169634845Y-65500940D01*
X170036000Y-64532466D01*
X170036000Y-63484198D01*
X169634845Y-62515724D01*
X168893608Y-61774487D01*
X167925134Y-61373332D01*
X166876866Y-61373332D01*
X165908392Y-61774487D01*
X165835999Y-61846880D01*
X165835999Y-60687213D01*
X165988017Y-60788788D01*
X166210286Y-60833000D01*
X166210291Y-60833000D01*
X166285334Y-60847927D01*
X166360377Y-60833000D01*
X169852293Y-60833000D01*
X170034423Y-61105577D01*
X170509091Y-61422740D01*
X170927667Y-61506000D01*
X171210333Y-61506000D01*
X171628909Y-61422740D01*
X172103577Y-61105577D01*
X172420740Y-60630909D01*
X172532113Y-60071000D01*
X172420740Y-59511091D01*
X172103577Y-59036423D01*
X171628909Y-58719260D01*
X171210333Y-58636000D01*
X170927667Y-58636000D01*
X170509091Y-58719260D01*
X170034423Y-59036423D01*
X169852293Y-59309000D01*
X166600965Y-59309000D01*
X162854497Y-55562532D01*
X164766000Y-55562532D01*
X164766000Y-56610800D01*
X165167155Y-57579274D01*
X165908392Y-58320511D01*
X166876866Y-58721666D01*
X167925134Y-58721666D01*
X168893608Y-58320511D01*
X169634845Y-57579274D01*
X170036000Y-56610800D01*
X170036000Y-55562532D01*
X169634845Y-54594058D01*
X168893608Y-53852821D01*
X167925134Y-53451666D01*
X166876866Y-53451666D01*
X165908392Y-53852821D01*
X165167155Y-54594058D01*
X164766000Y-55562532D01*
X162854497Y-55562532D01*
X161891469Y-54599504D01*
X161936000Y-54491996D01*
X161936000Y-53881336D01*
X161702310Y-53317159D01*
X161321817Y-52936666D01*
X161702310Y-52556173D01*
X161936000Y-51991996D01*
X161936000Y-51381336D01*
X161702310Y-50817159D01*
X161321817Y-50436666D01*
X161702310Y-50056173D01*
X161936000Y-49491996D01*
X161936000Y-48881336D01*
X161891469Y-48773828D01*
X161892881Y-48772416D01*
X161892883Y-48772413D01*
X163426749Y-47238548D01*
X163490371Y-47196037D01*
X163658788Y-46943983D01*
X163694880Y-46762532D01*
X164766000Y-46762532D01*
X164766000Y-47810800D01*
X165167155Y-48779274D01*
X165908392Y-49520511D01*
X166876866Y-49921666D01*
X167925134Y-49921666D01*
X168893608Y-49520511D01*
X169634845Y-48779274D01*
X170036000Y-47810800D01*
X170036000Y-46762532D01*
X169634845Y-45794058D01*
X168893608Y-45052821D01*
X167925134Y-44651666D01*
X166876866Y-44651666D01*
X165908392Y-45052821D01*
X165167155Y-45794058D01*
X164766000Y-46762532D01*
X163694880Y-46762532D01*
X163703000Y-46721714D01*
X163703000Y-46721713D01*
X163717928Y-46646666D01*
X163703000Y-46571619D01*
X163703000Y-38840866D01*
X164766000Y-38840866D01*
X164766000Y-39889134D01*
X165167155Y-40857608D01*
X165908392Y-41598845D01*
X166876866Y-42000000D01*
X167925134Y-42000000D01*
X168893608Y-41598845D01*
X169634845Y-40857608D01*
X170036000Y-39889134D01*
X170036000Y-38840866D01*
X169634845Y-37872392D01*
X168893608Y-37131155D01*
X167925134Y-36730000D01*
X166876866Y-36730000D01*
X165908392Y-37131155D01*
X165167155Y-37872392D01*
X164766000Y-38840866D01*
X163703000Y-38840866D01*
X163703000Y-35080042D01*
X163717927Y-35004999D01*
X163703000Y-34929956D01*
X163703000Y-34929952D01*
X163658788Y-34707683D01*
X163490371Y-34455629D01*
X163426747Y-34413117D01*
X161891468Y-32877838D01*
X161936000Y-32770330D01*
X161936000Y-32159670D01*
X161702310Y-31595493D01*
X161270507Y-31163690D01*
X160706330Y-30930000D01*
X160095670Y-30930000D01*
X159531493Y-31163690D01*
X159099690Y-31595493D01*
X158866000Y-32159670D01*
X158866000Y-32770330D01*
X159099690Y-33334507D01*
X159480183Y-33715000D01*
X159099690Y-34095493D01*
X159055159Y-34203000D01*
X153578042Y-34203000D01*
X153502999Y-34188073D01*
X153427956Y-34203000D01*
X153427952Y-34203000D01*
X153205683Y-34247212D01*
X153205682Y-34247213D01*
X153205681Y-34247213D01*
X153027066Y-34366560D01*
X151854000Y-34366560D01*
X151606235Y-34415843D01*
X151396191Y-34556191D01*
X151255843Y-34766235D01*
X151206560Y-35014000D01*
X151206560Y-36614000D01*
X151255843Y-36861765D01*
X151396191Y-37071809D01*
X151606235Y-37212157D01*
X151854000Y-37261440D01*
X153454000Y-37261440D01*
X153701765Y-37212157D01*
X153911809Y-37071809D01*
X154052157Y-36861765D01*
X154101440Y-36614000D01*
X154101440Y-35727000D01*
X159055159Y-35727000D01*
X159099690Y-35834507D01*
X159480183Y-36215000D01*
X159099690Y-36595493D01*
X159055159Y-36703000D01*
X159041047Y-36703000D01*
X158966000Y-36688072D01*
X158890953Y-36703000D01*
X158890952Y-36703000D01*
X158668683Y-36747212D01*
X158416629Y-36915629D01*
X158374118Y-36979251D01*
X155724251Y-39629119D01*
X155660630Y-39671629D01*
X155618119Y-39735251D01*
X155618118Y-39735252D01*
X155556440Y-39827560D01*
X155410000Y-39827560D01*
X155162235Y-39876843D01*
X154952191Y-40017191D01*
X154811843Y-40227235D01*
X154762560Y-40475000D01*
X154762560Y-42075000D01*
X154811843Y-42322765D01*
X154952191Y-42532809D01*
X155162235Y-42673157D01*
X155410000Y-42722440D01*
X157010000Y-42722440D01*
X157257765Y-42673157D01*
X157467809Y-42532809D01*
X157608157Y-42322765D01*
X157657440Y-42075000D01*
X157657440Y-40475000D01*
X157608157Y-40227235D01*
X157477274Y-40031356D01*
X159136907Y-38371724D01*
X159531493Y-38766310D01*
X160095670Y-39000000D01*
X160706330Y-39000000D01*
X161270507Y-38766310D01*
X161702310Y-38334507D01*
X161936000Y-37770330D01*
X161936000Y-37159670D01*
X161702310Y-36595493D01*
X161321817Y-36215000D01*
X161702310Y-35834507D01*
X161936000Y-35270330D01*
X161936000Y-35077630D01*
X162179000Y-35320630D01*
X162179001Y-46331034D01*
X160815253Y-47694783D01*
X160815250Y-47694785D01*
X160813838Y-47696197D01*
X160706330Y-47651666D01*
X160095670Y-47651666D01*
X159531493Y-47885356D01*
X159099690Y-48317159D01*
X158866000Y-48881336D01*
X158866000Y-49491996D01*
X159099690Y-50056173D01*
X159480183Y-50436666D01*
X159099690Y-50817159D01*
X158866000Y-51381336D01*
X158866000Y-51991996D01*
X158910532Y-52099504D01*
X158688251Y-52321785D01*
X158624629Y-52364296D01*
X158582118Y-52427918D01*
X158582117Y-52427919D01*
X158456212Y-52616350D01*
X158397072Y-52913667D01*
X158412000Y-52988715D01*
X158411999Y-54700583D01*
X158397072Y-54775627D01*
X158411999Y-54850670D01*
X158411999Y-54850674D01*
X158412000Y-54850678D01*
X158411999Y-61507332D01*
X157100031Y-62819301D01*
X156863577Y-62465423D01*
X156511242Y-62230000D01*
X156863577Y-61994577D01*
X157180740Y-61519909D01*
X157292113Y-60960000D01*
X157180740Y-60400091D01*
X156863577Y-59925423D01*
X156511242Y-59690000D01*
X156863577Y-59454577D01*
X157180740Y-58979909D01*
X157292113Y-58420000D01*
X157228157Y-58098473D01*
X157584749Y-57741882D01*
X157648371Y-57699371D01*
X157742467Y-57558546D01*
X157816787Y-57447319D01*
X157816787Y-57447318D01*
X157816788Y-57447317D01*
X157861000Y-57225048D01*
X157861000Y-57225044D01*
X157875927Y-57150001D01*
X157861000Y-57074958D01*
X157861000Y-50640602D01*
X157911862Y-50619534D01*
X158315534Y-50215862D01*
X158534000Y-49688439D01*
X158534000Y-49117561D01*
X158315534Y-48590138D01*
X157911862Y-48186466D01*
X157734000Y-48112793D01*
X157734000Y-46322602D01*
X157784862Y-46301534D01*
X158188534Y-45897862D01*
X158407000Y-45370439D01*
X158407000Y-44799561D01*
X158188534Y-44272138D01*
X157784862Y-43868466D01*
X157257439Y-43650000D01*
X156686561Y-43650000D01*
X156159138Y-43868466D01*
X155755466Y-44272138D01*
X155537000Y-44799561D01*
X155537000Y-45370439D01*
X155755466Y-45897862D01*
X156159138Y-46301534D01*
X156210000Y-46322602D01*
X156210001Y-48262603D01*
X156178617Y-48293987D01*
X153291157Y-45406527D01*
X153355113Y-45085000D01*
X153243740Y-44525091D01*
X152926577Y-44050423D01*
X152451909Y-43733260D01*
X152033333Y-43650000D01*
X151750667Y-43650000D01*
X151332091Y-43733260D01*
X150857423Y-44050423D01*
X150540260Y-44525091D01*
X150428887Y-45085000D01*
X150540260Y-45644909D01*
X150857423Y-46119577D01*
X151332091Y-46436740D01*
X151750667Y-46520000D01*
X152033333Y-46520000D01*
X152213527Y-46484157D01*
X155067001Y-49337632D01*
X155067000Y-52123293D01*
X154794423Y-52305423D01*
X154477260Y-52780091D01*
X154365887Y-53340000D01*
X154477260Y-53899909D01*
X154794423Y-54374577D01*
X155146758Y-54610000D01*
X154794423Y-54845423D01*
X154610716Y-55120360D01*
X154400313Y-55162212D01*
X154148259Y-55330629D01*
X154105748Y-55394251D01*
X150429001Y-59070999D01*
X150091041Y-59070999D01*
X150098001Y-59036009D01*
X150098001Y-59036004D01*
X150112928Y-58960961D01*
X150098001Y-58885918D01*
X150098001Y-57082043D01*
X150112928Y-57007000D01*
X150098001Y-56931957D01*
X150098001Y-56931953D01*
X150053789Y-56709684D01*
X149885372Y-56457630D01*
X149821751Y-56415120D01*
X149608157Y-56201527D01*
X149672113Y-55880000D01*
X149560740Y-55320091D01*
X149243577Y-54845423D01*
X148891242Y-54610000D01*
X149243577Y-54374577D01*
X149560740Y-53899909D01*
X149672113Y-53340000D01*
X149560740Y-52780091D01*
X149243577Y-52305423D01*
X148768909Y-51988260D01*
X148350333Y-51905000D01*
X148067667Y-51905000D01*
X147649091Y-51988260D01*
X147174423Y-52305423D01*
X146857260Y-52780091D01*
X146745887Y-53340000D01*
X146857260Y-53899909D01*
X147174423Y-54374577D01*
X147526758Y-54610000D01*
X147174423Y-54845423D01*
X146857260Y-55320091D01*
X146745887Y-55880000D01*
X146857260Y-56439909D01*
X147174423Y-56914577D01*
X147526758Y-57150000D01*
X147174423Y-57385423D01*
X146857260Y-57860091D01*
X146745887Y-58420000D01*
X146753445Y-58457999D01*
X145473630Y-58457999D01*
X145591965Y-58128777D01*
X145564778Y-57558546D01*
X145398864Y-57157995D01*
X145152745Y-57083861D01*
X144324605Y-57912000D01*
X144338748Y-57926142D01*
X144159143Y-58105748D01*
X144145000Y-58091605D01*
X144130858Y-58105748D01*
X143951252Y-57926142D01*
X143965395Y-57912000D01*
X143137255Y-57083861D01*
X142891136Y-57157995D01*
X142698035Y-57695223D01*
X142725222Y-58265454D01*
X142804977Y-58457999D01*
X142044555Y-58457999D01*
X142052113Y-58420000D01*
X141940740Y-57860091D01*
X141623577Y-57385423D01*
X141351000Y-57203293D01*
X141351000Y-56904255D01*
X143316861Y-56904255D01*
X144145000Y-57732395D01*
X144973139Y-56904255D01*
X144899005Y-56658136D01*
X144361777Y-56465035D01*
X143791546Y-56492222D01*
X143390995Y-56658136D01*
X143316861Y-56904255D01*
X141351000Y-56904255D01*
X141351000Y-56463042D01*
X141365927Y-56387999D01*
X141351000Y-56312956D01*
X141351000Y-56312952D01*
X141306788Y-56090683D01*
X141249904Y-56005549D01*
X141180882Y-55902251D01*
X141138371Y-55838629D01*
X141074750Y-55796119D01*
X139893537Y-54614906D01*
X140372223Y-54786965D01*
X140942454Y-54759778D01*
X141343005Y-54593864D01*
X141417139Y-54347745D01*
X140589000Y-53519605D01*
X140574858Y-53533748D01*
X140395252Y-53354142D01*
X140409395Y-53340000D01*
X140768605Y-53340000D01*
X141596745Y-54168139D01*
X141842864Y-54094005D01*
X142035965Y-53556777D01*
X142008778Y-52986546D01*
X141842864Y-52585995D01*
X141596745Y-52511861D01*
X140768605Y-53340000D01*
X140409395Y-53340000D01*
X139581255Y-52511861D01*
X139335136Y-52585995D01*
X139142035Y-53123223D01*
X139169222Y-53693454D01*
X139308620Y-54029989D01*
X138700932Y-53422302D01*
X138722000Y-53371439D01*
X138722000Y-52800561D01*
X138528022Y-52332255D01*
X139760861Y-52332255D01*
X140589000Y-53160395D01*
X141417139Y-52332255D01*
X141343005Y-52086136D01*
X140805777Y-51893035D01*
X140235546Y-51920222D01*
X139834995Y-52086136D01*
X139760861Y-52332255D01*
X138528022Y-52332255D01*
X138503534Y-52273138D01*
X138099862Y-51869466D01*
X137572439Y-51651000D01*
X137001561Y-51651000D01*
X136921999Y-51683956D01*
X136921999Y-50768041D01*
X139070086Y-50768041D01*
X139309611Y-51274134D01*
X139724577Y-51650041D01*
X140112961Y-51810904D01*
X140335000Y-51688915D01*
X140335000Y-50546000D01*
X140589000Y-50546000D01*
X140589000Y-51688915D01*
X140811039Y-51810904D01*
X141199423Y-51650041D01*
X141614389Y-51274134D01*
X141853914Y-50768041D01*
X141732629Y-50546000D01*
X140589000Y-50546000D01*
X140335000Y-50546000D01*
X139191371Y-50546000D01*
X139070086Y-50768041D01*
X136921999Y-50768041D01*
X136921999Y-50069959D01*
X139070086Y-50069959D01*
X139191371Y-50292000D01*
X140335000Y-50292000D01*
X140335000Y-49149085D01*
X140589000Y-49149085D01*
X140589000Y-50292000D01*
X141732629Y-50292000D01*
X141853914Y-50069959D01*
X141614389Y-49563866D01*
X141199423Y-49187959D01*
X140811039Y-49027096D01*
X140589000Y-49149085D01*
X140335000Y-49149085D01*
X140112961Y-49027096D01*
X139724577Y-49187959D01*
X139309611Y-49563866D01*
X139070086Y-50069959D01*
X136921999Y-50069959D01*
X136921999Y-49396510D01*
X137145667Y-49441000D01*
X137428333Y-49441000D01*
X137846909Y-49357740D01*
X138321577Y-49040577D01*
X138503707Y-48768000D01*
X141543370Y-48768000D01*
X142872843Y-50097473D01*
X142808887Y-50419000D01*
X142920260Y-50978909D01*
X143237423Y-51453577D01*
X143497145Y-51627118D01*
X143332138Y-51695466D01*
X142928466Y-52099138D01*
X142710000Y-52626561D01*
X142710000Y-53197439D01*
X142928466Y-53724862D01*
X143332138Y-54128534D01*
X143859561Y-54347000D01*
X144430439Y-54347000D01*
X144957862Y-54128534D01*
X145361534Y-53724862D01*
X145580000Y-53197439D01*
X145580000Y-52626561D01*
X145361534Y-52099138D01*
X144957862Y-51695466D01*
X144949653Y-51692066D01*
X145306577Y-51453577D01*
X145623740Y-50978909D01*
X145735113Y-50419000D01*
X145623740Y-49859091D01*
X145329388Y-49418561D01*
X147282000Y-49418561D01*
X147282000Y-49989439D01*
X147500466Y-50516862D01*
X147904138Y-50920534D01*
X148431561Y-51139000D01*
X149002439Y-51139000D01*
X149529862Y-50920534D01*
X149933534Y-50516862D01*
X150152000Y-49989439D01*
X150152000Y-49418561D01*
X150145555Y-49403000D01*
X150555887Y-49403000D01*
X150667260Y-49962909D01*
X150984423Y-50437577D01*
X151459091Y-50754740D01*
X151877667Y-50838000D01*
X152160333Y-50838000D01*
X152578909Y-50754740D01*
X153053577Y-50437577D01*
X153370740Y-49962909D01*
X153482113Y-49403000D01*
X153370740Y-48843091D01*
X153053577Y-48368423D01*
X152578909Y-48051260D01*
X152160333Y-47968000D01*
X151877667Y-47968000D01*
X151459091Y-48051260D01*
X150984423Y-48368423D01*
X150667260Y-48843091D01*
X150555887Y-49403000D01*
X150145555Y-49403000D01*
X149933534Y-48891138D01*
X149529862Y-48487466D01*
X149002439Y-48269000D01*
X148431561Y-48269000D01*
X147904138Y-48487466D01*
X147500466Y-48891138D01*
X147282000Y-49418561D01*
X145329388Y-49418561D01*
X145306577Y-49384423D01*
X144831909Y-49067260D01*
X144413333Y-48984000D01*
X144130667Y-48984000D01*
X143950473Y-49019843D01*
X142450883Y-47520253D01*
X142408371Y-47456629D01*
X142156317Y-47288212D01*
X141934048Y-47244000D01*
X141934043Y-47244000D01*
X141859000Y-47229073D01*
X141783957Y-47244000D01*
X138503707Y-47244000D01*
X138321577Y-46971423D01*
X137967699Y-46734969D01*
X138601669Y-46101000D01*
X139224398Y-46101000D01*
X139245466Y-46151862D01*
X139649138Y-46555534D01*
X140176561Y-46774000D01*
X140747439Y-46774000D01*
X141274862Y-46555534D01*
X141678534Y-46151862D01*
X141897000Y-45624439D01*
X141897000Y-45053561D01*
X142837000Y-45053561D01*
X142837000Y-45624439D01*
X143055466Y-46151862D01*
X143459138Y-46555534D01*
X143986561Y-46774000D01*
X144557439Y-46774000D01*
X145084862Y-46555534D01*
X145488534Y-46151862D01*
X145670836Y-45711745D01*
X147888861Y-45711745D01*
X147962995Y-45957864D01*
X148500223Y-46150965D01*
X149070454Y-46123778D01*
X149471005Y-45957864D01*
X149545139Y-45711745D01*
X148717000Y-44883605D01*
X147888861Y-45711745D01*
X145670836Y-45711745D01*
X145707000Y-45624439D01*
X145707000Y-45053561D01*
X145685932Y-45002698D01*
X146201407Y-44487223D01*
X147270035Y-44487223D01*
X147297222Y-45057454D01*
X147463136Y-45458005D01*
X147709255Y-45532139D01*
X148537395Y-44704000D01*
X148896605Y-44704000D01*
X149724745Y-45532139D01*
X149970864Y-45458005D01*
X150163965Y-44920777D01*
X150136778Y-44350546D01*
X149970864Y-43949995D01*
X149724745Y-43875861D01*
X148896605Y-44704000D01*
X148537395Y-44704000D01*
X147709255Y-43875861D01*
X147463136Y-43949995D01*
X147270035Y-44487223D01*
X146201407Y-44487223D01*
X146992375Y-43696255D01*
X147888861Y-43696255D01*
X148717000Y-44524395D01*
X149545139Y-43696255D01*
X149471005Y-43450136D01*
X148933777Y-43257035D01*
X148363546Y-43284222D01*
X147962995Y-43450136D01*
X147888861Y-43696255D01*
X146992375Y-43696255D01*
X148056615Y-42632016D01*
X148448667Y-42710000D01*
X148731333Y-42710000D01*
X149149909Y-42626740D01*
X149624577Y-42309577D01*
X149941740Y-41834909D01*
X150053113Y-41275000D01*
X149941740Y-40715091D01*
X149624577Y-40240423D01*
X149149909Y-39923260D01*
X148731333Y-39840000D01*
X148448667Y-39840000D01*
X148030091Y-39923260D01*
X147555423Y-40240423D01*
X147238260Y-40715091D01*
X147126887Y-41275000D01*
X147148701Y-41384668D01*
X144608302Y-43925068D01*
X144557439Y-43904000D01*
X143986561Y-43904000D01*
X143459138Y-44122466D01*
X143055466Y-44526138D01*
X142837000Y-45053561D01*
X141897000Y-45053561D01*
X141678534Y-44526138D01*
X141274862Y-44122466D01*
X141224000Y-44101398D01*
X141224000Y-43593440D01*
X141967000Y-43593440D01*
X142214765Y-43544157D01*
X142424809Y-43403809D01*
X142565157Y-43193765D01*
X142614440Y-42946000D01*
X142614440Y-40146000D01*
X142565157Y-39898235D01*
X142424809Y-39688191D01*
X142214765Y-39547843D01*
X141967000Y-39498560D01*
X139167000Y-39498560D01*
X138919235Y-39547843D01*
X138709191Y-39688191D01*
X138568843Y-39898235D01*
X138519560Y-40146000D01*
X138519560Y-42946000D01*
X138568843Y-43193765D01*
X138709191Y-43403809D01*
X138919235Y-43544157D01*
X139167000Y-43593440D01*
X139700000Y-43593440D01*
X139700000Y-44101398D01*
X139649138Y-44122466D01*
X139245466Y-44526138D01*
X139224398Y-44577000D01*
X138361080Y-44577000D01*
X138286037Y-44562073D01*
X138210994Y-44577000D01*
X138210990Y-44577000D01*
X137988721Y-44621212D01*
X137988720Y-44621213D01*
X137988719Y-44621213D01*
X137943143Y-44651666D01*
X137736667Y-44789629D01*
X137694156Y-44853251D01*
X135674252Y-46873156D01*
X135610628Y-46915668D01*
X135442211Y-47167723D01*
X135397999Y-47389992D01*
X135397999Y-47389996D01*
X135383072Y-47465039D01*
X128081980Y-47465039D01*
X128096474Y-41831750D01*
X129432000Y-41831750D01*
X129432000Y-43072310D01*
X129528673Y-43305699D01*
X129707302Y-43484327D01*
X129940691Y-43581000D01*
X130881250Y-43581000D01*
X131040000Y-43422250D01*
X131040000Y-41673000D01*
X131294000Y-41673000D01*
X131294000Y-43422250D01*
X131452750Y-43581000D01*
X132393309Y-43581000D01*
X132626698Y-43484327D01*
X132805327Y-43305699D01*
X132902000Y-43072310D01*
X132902000Y-41831750D01*
X132743250Y-41673000D01*
X131294000Y-41673000D01*
X131040000Y-41673000D01*
X129590750Y-41673000D01*
X129432000Y-41831750D01*
X128096474Y-41831750D01*
X128101136Y-40019690D01*
X129432000Y-40019690D01*
X129432000Y-41260250D01*
X129590750Y-41419000D01*
X131040000Y-41419000D01*
X131040000Y-39669750D01*
X131294000Y-39669750D01*
X131294000Y-41419000D01*
X132743250Y-41419000D01*
X132902000Y-41260250D01*
X132902000Y-40019690D01*
X132805327Y-39786301D01*
X132626698Y-39607673D01*
X132393309Y-39511000D01*
X131452750Y-39511000D01*
X131294000Y-39669750D01*
X131040000Y-39669750D01*
X130881250Y-39511000D01*
X129940691Y-39511000D01*
X129707302Y-39607673D01*
X129528673Y-39786301D01*
X129432000Y-40019690D01*
X128101136Y-40019690D01*
X128107488Y-37550615D01*
X130782000Y-37550615D01*
X130782000Y-38141385D01*
X131008078Y-38687185D01*
X131425815Y-39104922D01*
X131971615Y-39331000D01*
X132562385Y-39331000D01*
X133108185Y-39104922D01*
X133525922Y-38687185D01*
X133752000Y-38141385D01*
X133752000Y-37550615D01*
X137782000Y-37550615D01*
X137782000Y-38141385D01*
X138008078Y-38687185D01*
X138425815Y-39104922D01*
X138971615Y-39331000D01*
X139562385Y-39331000D01*
X140108185Y-39104922D01*
X140525922Y-38687185D01*
X140752000Y-38141385D01*
X140752000Y-37550615D01*
X140525922Y-37004815D01*
X140108185Y-36587078D01*
X139562385Y-36361000D01*
X138971615Y-36361000D01*
X138425815Y-36587078D01*
X138008078Y-37004815D01*
X137782000Y-37550615D01*
X133752000Y-37550615D01*
X133525922Y-37004815D01*
X133108185Y-36587078D01*
X132562385Y-36361000D01*
X131971615Y-36361000D01*
X131425815Y-36587078D01*
X131008078Y-37004815D01*
X130782000Y-37550615D01*
X128107488Y-37550615D01*
X128112260Y-35696000D01*
X142619560Y-35696000D01*
X142619560Y-38496000D01*
X142668843Y-38743765D01*
X142809191Y-38953809D01*
X143019235Y-39094157D01*
X143267000Y-39143440D01*
X145867000Y-39143440D01*
X146114765Y-39094157D01*
X146324809Y-38953809D01*
X146465157Y-38743765D01*
X146514440Y-38496000D01*
X146514440Y-35696000D01*
X146465157Y-35448235D01*
X146324809Y-35238191D01*
X146114765Y-35097843D01*
X145867000Y-35048560D01*
X143267000Y-35048560D01*
X143019235Y-35097843D01*
X142809191Y-35238191D01*
X142668843Y-35448235D01*
X142619560Y-35696000D01*
X128112260Y-35696000D01*
X128119140Y-33021745D01*
X151825861Y-33021745D01*
X151899995Y-33267864D01*
X152437223Y-33460965D01*
X153007454Y-33433778D01*
X153408005Y-33267864D01*
X153482139Y-33021745D01*
X152654000Y-32193605D01*
X151825861Y-33021745D01*
X128119140Y-33021745D01*
X128122291Y-31797223D01*
X151207035Y-31797223D01*
X151234222Y-32367454D01*
X151400136Y-32768005D01*
X151646255Y-32842139D01*
X152474395Y-32014000D01*
X152833605Y-32014000D01*
X153661745Y-32842139D01*
X153907864Y-32768005D01*
X154100965Y-32230777D01*
X154073778Y-31660546D01*
X153907864Y-31259995D01*
X153661745Y-31185861D01*
X152833605Y-32014000D01*
X152474395Y-32014000D01*
X151646255Y-31185861D01*
X151400136Y-31259995D01*
X151207035Y-31797223D01*
X128122291Y-31797223D01*
X128124326Y-31006255D01*
X151825861Y-31006255D01*
X152654000Y-31834395D01*
X153482139Y-31006255D01*
X153408005Y-30760136D01*
X152870777Y-30567035D01*
X152300546Y-30594222D01*
X151899995Y-30760136D01*
X151825861Y-31006255D01*
X128124326Y-31006255D01*
X128126810Y-30040866D01*
X164766000Y-30040866D01*
X164766000Y-31089134D01*
X165167155Y-32057608D01*
X165908392Y-32798845D01*
X166876866Y-33200000D01*
X167925134Y-33200000D01*
X168893608Y-32798845D01*
X169634845Y-32057608D01*
X170036000Y-31089134D01*
X170036000Y-30040866D01*
X169634845Y-29072392D01*
X168893608Y-28331155D01*
X167925134Y-27930000D01*
X166876866Y-27930000D01*
X165908392Y-28331155D01*
X165167155Y-29072392D01*
X164766000Y-30040866D01*
X128126810Y-30040866D01*
X128138461Y-25513159D01*
X128507500Y-25513159D01*
X128507500Y-26302841D01*
X128809699Y-27032412D01*
X129368088Y-27590801D01*
X130097659Y-27893000D01*
X130887341Y-27893000D01*
X131616912Y-27590801D01*
X132175301Y-27032412D01*
X132477500Y-26302841D01*
X132477500Y-25513159D01*
X172449500Y-25513159D01*
X172449500Y-26302841D01*
X172751699Y-27032412D01*
X173310088Y-27590801D01*
X174039659Y-27893000D01*
X174829341Y-27893000D01*
X175558912Y-27590801D01*
X176117301Y-27032412D01*
X176419500Y-26302841D01*
X176419500Y-25513159D01*
X176117301Y-24783588D01*
X175558912Y-24225199D01*
X174829341Y-23923000D01*
X174039659Y-23923000D01*
X173310088Y-24225199D01*
X172751699Y-24783588D01*
X172449500Y-25513159D01*
X132477500Y-25513159D01*
X132175301Y-24783588D01*
X131616912Y-24225199D01*
X130887341Y-23923000D01*
X130097659Y-23923000D01*
X129368088Y-24225199D01*
X128809699Y-24783588D01*
X128507500Y-25513159D01*
X128138461Y-25513159D01*
X128142674Y-23876000D01*
X177115001Y-23876000D01*
X177115000Y-97095720D01*
G36*
X148910748Y-76820858D02*
X148896605Y-76835000D01*
X148910748Y-76849142D01*
X148731143Y-77028748D01*
X148717000Y-77014605D01*
X148702858Y-77028748D01*
X148523252Y-76849142D01*
X148537395Y-76835000D01*
X148523252Y-76820858D01*
X148702858Y-76641252D01*
X148717000Y-76655395D01*
X148731142Y-76641252D01*
X148910748Y-76820858D01*
X148910748Y-76820858D01*
G37*
X148910748Y-76820858D02*
X148896605Y-76835000D01*
X148910748Y-76849142D01*
X148731143Y-77028748D01*
X148717000Y-77014605D01*
X148702858Y-77028748D01*
X148523252Y-76849142D01*
X148537395Y-76835000D01*
X148523252Y-76820858D01*
X148702858Y-76641252D01*
X148717000Y-76655395D01*
X148731142Y-76641252D01*
X148910748Y-76820858D01*
G04 #@! TD*
M02*
