G04 #@! TF.GenerationSoftware,KiCad,Pcbnew,(5.0.1)-rc2*
G04 #@! TF.CreationDate,2018-10-16T02:33:53-04:00*
G04 #@! TF.ProjectId,vco2,76636F322E6B696361645F7063620000,1*
G04 #@! TF.SameCoordinates,Original*
G04 #@! TF.FileFunction,Legend,Top*
G04 #@! TF.FilePolarity,Positive*
%FSLAX46Y46*%
G04 Gerber Fmt 4.6, Leading zero omitted, Abs format (unit mm)*
G04 Created by KiCad (PCBNEW (5.0.1)-rc2) date 10/16/2018 2:33:53 AM*
%MOMM*%
%LPD*%
G01*
G04 APERTURE LIST*
%ADD10C,0.300000*%
%ADD11C,0.120000*%
%ADD12C,0.150000*%
G04 APERTURE END LIST*
D10*
X92948571Y-105382142D02*
X93162857Y-105453571D01*
X93520000Y-105453571D01*
X93662857Y-105382142D01*
X93734285Y-105310714D01*
X93805714Y-105167857D01*
X93805714Y-105025000D01*
X93734285Y-104882142D01*
X93662857Y-104810714D01*
X93520000Y-104739285D01*
X93234285Y-104667857D01*
X93091428Y-104596428D01*
X93020000Y-104525000D01*
X92948571Y-104382142D01*
X92948571Y-104239285D01*
X93020000Y-104096428D01*
X93091428Y-104025000D01*
X93234285Y-103953571D01*
X93591428Y-103953571D01*
X93805714Y-104025000D01*
X95091428Y-104453571D02*
X95091428Y-105953571D01*
X95091428Y-105382142D02*
X94948571Y-105453571D01*
X94662857Y-105453571D01*
X94520000Y-105382142D01*
X94448571Y-105310714D01*
X94377142Y-105167857D01*
X94377142Y-104739285D01*
X94448571Y-104596428D01*
X94520000Y-104525000D01*
X94662857Y-104453571D01*
X94948571Y-104453571D01*
X95091428Y-104525000D01*
X96448571Y-104453571D02*
X96448571Y-105453571D01*
X95805714Y-104453571D02*
X95805714Y-105239285D01*
X95877142Y-105382142D01*
X96020000Y-105453571D01*
X96234285Y-105453571D01*
X96377142Y-105382142D01*
X96448571Y-105310714D01*
X97805714Y-105453571D02*
X97805714Y-104667857D01*
X97734285Y-104525000D01*
X97591428Y-104453571D01*
X97305714Y-104453571D01*
X97162857Y-104525000D01*
X97805714Y-105382142D02*
X97662857Y-105453571D01*
X97305714Y-105453571D01*
X97162857Y-105382142D01*
X97091428Y-105239285D01*
X97091428Y-105096428D01*
X97162857Y-104953571D01*
X97305714Y-104882142D01*
X97662857Y-104882142D01*
X97805714Y-104810714D01*
X98520000Y-105453571D02*
X98520000Y-104453571D01*
X98520000Y-104739285D02*
X98591428Y-104596428D01*
X98662857Y-104525000D01*
X98805714Y-104453571D01*
X98948571Y-104453571D01*
X100020000Y-105382142D02*
X99877142Y-105453571D01*
X99591428Y-105453571D01*
X99448571Y-105382142D01*
X99377142Y-105239285D01*
X99377142Y-104667857D01*
X99448571Y-104525000D01*
X99591428Y-104453571D01*
X99877142Y-104453571D01*
X100020000Y-104525000D01*
X100091428Y-104667857D01*
X100091428Y-104810714D01*
X99377142Y-104953571D01*
X151388571Y-127607142D02*
X151602857Y-127678571D01*
X151960000Y-127678571D01*
X152102857Y-127607142D01*
X152174285Y-127535714D01*
X152245714Y-127392857D01*
X152245714Y-127250000D01*
X152174285Y-127107142D01*
X152102857Y-127035714D01*
X151960000Y-126964285D01*
X151674285Y-126892857D01*
X151531428Y-126821428D01*
X151460000Y-126750000D01*
X151388571Y-126607142D01*
X151388571Y-126464285D01*
X151460000Y-126321428D01*
X151531428Y-126250000D01*
X151674285Y-126178571D01*
X152031428Y-126178571D01*
X152245714Y-126250000D01*
X152888571Y-127678571D02*
X152888571Y-126678571D01*
X152888571Y-126178571D02*
X152817142Y-126250000D01*
X152888571Y-126321428D01*
X152960000Y-126250000D01*
X152888571Y-126178571D01*
X152888571Y-126321428D01*
X154245714Y-126678571D02*
X154245714Y-127892857D01*
X154174285Y-128035714D01*
X154102857Y-128107142D01*
X153960000Y-128178571D01*
X153745714Y-128178571D01*
X153602857Y-128107142D01*
X154245714Y-127607142D02*
X154102857Y-127678571D01*
X153817142Y-127678571D01*
X153674285Y-127607142D01*
X153602857Y-127535714D01*
X153531428Y-127392857D01*
X153531428Y-126964285D01*
X153602857Y-126821428D01*
X153674285Y-126750000D01*
X153817142Y-126678571D01*
X154102857Y-126678571D01*
X154245714Y-126750000D01*
X154960000Y-126678571D02*
X154960000Y-127678571D01*
X154960000Y-126821428D02*
X155031428Y-126750000D01*
X155174285Y-126678571D01*
X155388571Y-126678571D01*
X155531428Y-126750000D01*
X155602857Y-126892857D01*
X155602857Y-127678571D01*
X156960000Y-127678571D02*
X156960000Y-126892857D01*
X156888571Y-126750000D01*
X156745714Y-126678571D01*
X156460000Y-126678571D01*
X156317142Y-126750000D01*
X156960000Y-127607142D02*
X156817142Y-127678571D01*
X156460000Y-127678571D01*
X156317142Y-127607142D01*
X156245714Y-127464285D01*
X156245714Y-127321428D01*
X156317142Y-127178571D01*
X156460000Y-127107142D01*
X156817142Y-127107142D01*
X156960000Y-127035714D01*
X157888571Y-127678571D02*
X157745714Y-127607142D01*
X157674285Y-127464285D01*
X157674285Y-126178571D01*
X159602857Y-127678571D02*
X159602857Y-126178571D01*
X160317142Y-126678571D02*
X160317142Y-127678571D01*
X160317142Y-126821428D02*
X160388571Y-126750000D01*
X160531428Y-126678571D01*
X160745714Y-126678571D01*
X160888571Y-126750000D01*
X160960000Y-126892857D01*
X160960000Y-127678571D01*
X159996428Y-113772142D02*
X161139285Y-113772142D01*
X160567857Y-114343571D02*
X160567857Y-113200714D01*
X162567857Y-112843571D02*
X161853571Y-112843571D01*
X161782142Y-113557857D01*
X161853571Y-113486428D01*
X161996428Y-113415000D01*
X162353571Y-113415000D01*
X162496428Y-113486428D01*
X162567857Y-113557857D01*
X162639285Y-113700714D01*
X162639285Y-114057857D01*
X162567857Y-114200714D01*
X162496428Y-114272142D01*
X162353571Y-114343571D01*
X161996428Y-114343571D01*
X161853571Y-114272142D01*
X161782142Y-114200714D01*
X163067857Y-112843571D02*
X163567857Y-114343571D01*
X164067857Y-112843571D01*
X92198571Y-99508571D02*
X93055714Y-99508571D01*
X92627142Y-101008571D02*
X92627142Y-99508571D01*
X93555714Y-101008571D02*
X93555714Y-100008571D01*
X93555714Y-100294285D02*
X93627142Y-100151428D01*
X93698571Y-100080000D01*
X93841428Y-100008571D01*
X93984285Y-100008571D01*
X94484285Y-101008571D02*
X94484285Y-100008571D01*
X94484285Y-99508571D02*
X94412857Y-99580000D01*
X94484285Y-99651428D01*
X94555714Y-99580000D01*
X94484285Y-99508571D01*
X94484285Y-99651428D01*
X95841428Y-101008571D02*
X95841428Y-100222857D01*
X95770000Y-100080000D01*
X95627142Y-100008571D01*
X95341428Y-100008571D01*
X95198571Y-100080000D01*
X95841428Y-100937142D02*
X95698571Y-101008571D01*
X95341428Y-101008571D01*
X95198571Y-100937142D01*
X95127142Y-100794285D01*
X95127142Y-100651428D01*
X95198571Y-100508571D01*
X95341428Y-100437142D01*
X95698571Y-100437142D01*
X95841428Y-100365714D01*
X96555714Y-100008571D02*
X96555714Y-101008571D01*
X96555714Y-100151428D02*
X96627142Y-100080000D01*
X96770000Y-100008571D01*
X96984285Y-100008571D01*
X97127142Y-100080000D01*
X97198571Y-100222857D01*
X97198571Y-101008571D01*
X98555714Y-100008571D02*
X98555714Y-101222857D01*
X98484285Y-101365714D01*
X98412857Y-101437142D01*
X98270000Y-101508571D01*
X98055714Y-101508571D01*
X97912857Y-101437142D01*
X98555714Y-100937142D02*
X98412857Y-101008571D01*
X98127142Y-101008571D01*
X97984285Y-100937142D01*
X97912857Y-100865714D01*
X97841428Y-100722857D01*
X97841428Y-100294285D01*
X97912857Y-100151428D01*
X97984285Y-100080000D01*
X98127142Y-100008571D01*
X98412857Y-100008571D01*
X98555714Y-100080000D01*
X99484285Y-101008571D02*
X99341428Y-100937142D01*
X99270000Y-100794285D01*
X99270000Y-99508571D01*
X100627142Y-100937142D02*
X100484285Y-101008571D01*
X100198571Y-101008571D01*
X100055714Y-100937142D01*
X99984285Y-100794285D01*
X99984285Y-100222857D01*
X100055714Y-100080000D01*
X100198571Y-100008571D01*
X100484285Y-100008571D01*
X100627142Y-100080000D01*
X100698571Y-100222857D01*
X100698571Y-100365714D01*
X99984285Y-100508571D01*
X87122857Y-135068571D02*
X88122857Y-136568571D01*
X88122857Y-135068571D02*
X87122857Y-136568571D01*
X89194285Y-135782857D02*
X89408571Y-135854285D01*
X89480000Y-135925714D01*
X89551428Y-136068571D01*
X89551428Y-136282857D01*
X89480000Y-136425714D01*
X89408571Y-136497142D01*
X89265714Y-136568571D01*
X88694285Y-136568571D01*
X88694285Y-135068571D01*
X89194285Y-135068571D01*
X89337142Y-135140000D01*
X89408571Y-135211428D01*
X89480000Y-135354285D01*
X89480000Y-135497142D01*
X89408571Y-135640000D01*
X89337142Y-135711428D01*
X89194285Y-135782857D01*
X88694285Y-135782857D01*
X90980000Y-136568571D02*
X90122857Y-136568571D01*
X90551428Y-136568571D02*
X90551428Y-135068571D01*
X90408571Y-135282857D01*
X90265714Y-135425714D01*
X90122857Y-135497142D01*
X91908571Y-135068571D02*
X92051428Y-135068571D01*
X92194285Y-135140000D01*
X92265714Y-135211428D01*
X92337142Y-135354285D01*
X92408571Y-135640000D01*
X92408571Y-135997142D01*
X92337142Y-136282857D01*
X92265714Y-136425714D01*
X92194285Y-136497142D01*
X92051428Y-136568571D01*
X91908571Y-136568571D01*
X91765714Y-136497142D01*
X91694285Y-136425714D01*
X91622857Y-136282857D01*
X91551428Y-135997142D01*
X91551428Y-135640000D01*
X91622857Y-135354285D01*
X91694285Y-135211428D01*
X91765714Y-135140000D01*
X91908571Y-135068571D01*
X93337142Y-135068571D02*
X93480000Y-135068571D01*
X93622857Y-135140000D01*
X93694285Y-135211428D01*
X93765714Y-135354285D01*
X93837142Y-135640000D01*
X93837142Y-135997142D01*
X93765714Y-136282857D01*
X93694285Y-136425714D01*
X93622857Y-136497142D01*
X93480000Y-136568571D01*
X93337142Y-136568571D01*
X93194285Y-136497142D01*
X93122857Y-136425714D01*
X93051428Y-136282857D01*
X92980000Y-135997142D01*
X92980000Y-135640000D01*
X93051428Y-135354285D01*
X93122857Y-135211428D01*
X93194285Y-135140000D01*
X93337142Y-135068571D01*
X94765714Y-135068571D02*
X94908571Y-135068571D01*
X95051428Y-135140000D01*
X95122857Y-135211428D01*
X95194285Y-135354285D01*
X95265714Y-135640000D01*
X95265714Y-135997142D01*
X95194285Y-136282857D01*
X95122857Y-136425714D01*
X95051428Y-136497142D01*
X94908571Y-136568571D01*
X94765714Y-136568571D01*
X94622857Y-136497142D01*
X94551428Y-136425714D01*
X94480000Y-136282857D01*
X94408571Y-135997142D01*
X94408571Y-135640000D01*
X94480000Y-135354285D01*
X94551428Y-135211428D01*
X94622857Y-135140000D01*
X94765714Y-135068571D01*
X96837142Y-135068571D02*
X97337142Y-136568571D01*
X97837142Y-135068571D01*
X99194285Y-136425714D02*
X99122857Y-136497142D01*
X98908571Y-136568571D01*
X98765714Y-136568571D01*
X98551428Y-136497142D01*
X98408571Y-136354285D01*
X98337142Y-136211428D01*
X98265714Y-135925714D01*
X98265714Y-135711428D01*
X98337142Y-135425714D01*
X98408571Y-135282857D01*
X98551428Y-135140000D01*
X98765714Y-135068571D01*
X98908571Y-135068571D01*
X99122857Y-135140000D01*
X99194285Y-135211428D01*
X100122857Y-135068571D02*
X100408571Y-135068571D01*
X100551428Y-135140000D01*
X100694285Y-135282857D01*
X100765714Y-135568571D01*
X100765714Y-136068571D01*
X100694285Y-136354285D01*
X100551428Y-136497142D01*
X100408571Y-136568571D01*
X100122857Y-136568571D01*
X99980000Y-136497142D01*
X99837142Y-136354285D01*
X99765714Y-136068571D01*
X99765714Y-135568571D01*
X99837142Y-135282857D01*
X99980000Y-135140000D01*
X100122857Y-135068571D01*
D11*
G04 #@! TO.C,R12*
X95250000Y-127992000D02*
X95250000Y-127302000D01*
X95250000Y-117372000D02*
X95250000Y-118062000D01*
X96970000Y-127302000D02*
X96970000Y-118062000D01*
X93530000Y-127302000D02*
X96970000Y-127302000D01*
X93530000Y-118062000D02*
X93530000Y-127302000D01*
X96970000Y-118062000D02*
X93530000Y-118062000D01*
G04 #@! TO.C,C2*
X105838000Y-107812000D02*
X105838000Y-99572000D01*
X111078000Y-107812000D02*
X111078000Y-99572000D01*
X105838000Y-107812000D02*
X107202000Y-107812000D01*
X109714000Y-107812000D02*
X111078000Y-107812000D01*
X105838000Y-99572000D02*
X107202000Y-99572000D01*
X109714000Y-99572000D02*
X111078000Y-99572000D01*
G04 #@! TO.C,C3*
X115838000Y-119376000D02*
X114474000Y-119376000D01*
X119714000Y-119376000D02*
X118350000Y-119376000D01*
X115838000Y-111136000D02*
X114474000Y-111136000D01*
X119714000Y-111136000D02*
X118350000Y-111136000D01*
X114474000Y-111136000D02*
X114474000Y-119376000D01*
X119714000Y-111136000D02*
X119714000Y-119376000D01*
G04 #@! TO.C,C4*
X128350000Y-111136000D02*
X128350000Y-119376000D01*
X123110000Y-111136000D02*
X123110000Y-119376000D01*
X128350000Y-111136000D02*
X126986000Y-111136000D01*
X124474000Y-111136000D02*
X123110000Y-111136000D01*
X128350000Y-119376000D02*
X126986000Y-119376000D01*
X124474000Y-119376000D02*
X123110000Y-119376000D01*
G04 #@! TO.C,J1*
X159906000Y-133702000D02*
X159906000Y-133982000D01*
X159906000Y-133982000D02*
X158306000Y-133982000D01*
X158306000Y-133982000D02*
X158306000Y-134902000D01*
X158306000Y-134902000D02*
X166126000Y-134902000D01*
X166126000Y-134902000D02*
X166126000Y-128782000D01*
X166126000Y-128782000D02*
X158306000Y-128782000D01*
X158306000Y-128782000D02*
X158306000Y-129702000D01*
X158306000Y-129702000D02*
X159906000Y-129702000D01*
X159906000Y-129702000D02*
X159906000Y-129982000D01*
X166126000Y-132342000D02*
X161766000Y-132342000D01*
X161766000Y-132342000D02*
X161766000Y-131342000D01*
X161766000Y-131342000D02*
X166126000Y-131342000D01*
X159906000Y-134902000D02*
X159906000Y-133982000D01*
X159906000Y-128782000D02*
X159906000Y-129702000D01*
X162266000Y-134142000D02*
X163866000Y-134142000D01*
X163866000Y-134142000D02*
X163866000Y-133142000D01*
X163866000Y-133142000D02*
X162266000Y-133142000D01*
X162266000Y-133142000D02*
X162266000Y-134142000D01*
X162266000Y-129542000D02*
X163866000Y-129542000D01*
X163866000Y-129542000D02*
X163866000Y-130542000D01*
X163866000Y-130542000D02*
X162266000Y-130542000D01*
X162266000Y-130542000D02*
X162266000Y-129542000D01*
X163866000Y-133142000D02*
X166126000Y-133142000D01*
X163866000Y-133642000D02*
X166126000Y-133642000D01*
X159906000Y-133702000D02*
X158691000Y-133702000D01*
G04 #@! TO.C,J2*
X160160000Y-120494000D02*
X158945000Y-120494000D01*
X164120000Y-120434000D02*
X166380000Y-120434000D01*
X164120000Y-119934000D02*
X166380000Y-119934000D01*
X162520000Y-117334000D02*
X162520000Y-116334000D01*
X164120000Y-117334000D02*
X162520000Y-117334000D01*
X164120000Y-116334000D02*
X164120000Y-117334000D01*
X162520000Y-116334000D02*
X164120000Y-116334000D01*
X162520000Y-119934000D02*
X162520000Y-120934000D01*
X164120000Y-119934000D02*
X162520000Y-119934000D01*
X164120000Y-120934000D02*
X164120000Y-119934000D01*
X162520000Y-120934000D02*
X164120000Y-120934000D01*
X160160000Y-115574000D02*
X160160000Y-116494000D01*
X160160000Y-121694000D02*
X160160000Y-120774000D01*
X162020000Y-118134000D02*
X166380000Y-118134000D01*
X162020000Y-119134000D02*
X162020000Y-118134000D01*
X166380000Y-119134000D02*
X162020000Y-119134000D01*
X160160000Y-116494000D02*
X160160000Y-116774000D01*
X158560000Y-116494000D02*
X160160000Y-116494000D01*
X158560000Y-115574000D02*
X158560000Y-116494000D01*
X166380000Y-115574000D02*
X158560000Y-115574000D01*
X166380000Y-121694000D02*
X166380000Y-115574000D01*
X158560000Y-121694000D02*
X166380000Y-121694000D01*
X158560000Y-120774000D02*
X158560000Y-121694000D01*
X160160000Y-120774000D02*
X158560000Y-120774000D01*
X160160000Y-120494000D02*
X160160000Y-120774000D01*
G04 #@! TO.C,J3*
X93586000Y-108106000D02*
X94801000Y-108106000D01*
X89626000Y-108166000D02*
X87366000Y-108166000D01*
X89626000Y-108666000D02*
X87366000Y-108666000D01*
X91226000Y-111266000D02*
X91226000Y-112266000D01*
X89626000Y-111266000D02*
X91226000Y-111266000D01*
X89626000Y-112266000D02*
X89626000Y-111266000D01*
X91226000Y-112266000D02*
X89626000Y-112266000D01*
X91226000Y-108666000D02*
X91226000Y-107666000D01*
X89626000Y-108666000D02*
X91226000Y-108666000D01*
X89626000Y-107666000D02*
X89626000Y-108666000D01*
X91226000Y-107666000D02*
X89626000Y-107666000D01*
X93586000Y-113026000D02*
X93586000Y-112106000D01*
X93586000Y-106906000D02*
X93586000Y-107826000D01*
X91726000Y-110466000D02*
X87366000Y-110466000D01*
X91726000Y-109466000D02*
X91726000Y-110466000D01*
X87366000Y-109466000D02*
X91726000Y-109466000D01*
X93586000Y-112106000D02*
X93586000Y-111826000D01*
X95186000Y-112106000D02*
X93586000Y-112106000D01*
X95186000Y-113026000D02*
X95186000Y-112106000D01*
X87366000Y-113026000D02*
X95186000Y-113026000D01*
X87366000Y-106906000D02*
X87366000Y-113026000D01*
X95186000Y-106906000D02*
X87366000Y-106906000D01*
X95186000Y-107826000D02*
X95186000Y-106906000D01*
X93586000Y-107826000D02*
X95186000Y-107826000D01*
X93586000Y-108106000D02*
X93586000Y-107826000D01*
G04 #@! TO.C,J4*
X93840000Y-93120000D02*
X93840000Y-92840000D01*
X93840000Y-92840000D02*
X95440000Y-92840000D01*
X95440000Y-92840000D02*
X95440000Y-91920000D01*
X95440000Y-91920000D02*
X87620000Y-91920000D01*
X87620000Y-91920000D02*
X87620000Y-98040000D01*
X87620000Y-98040000D02*
X95440000Y-98040000D01*
X95440000Y-98040000D02*
X95440000Y-97120000D01*
X95440000Y-97120000D02*
X93840000Y-97120000D01*
X93840000Y-97120000D02*
X93840000Y-96840000D01*
X87620000Y-94480000D02*
X91980000Y-94480000D01*
X91980000Y-94480000D02*
X91980000Y-95480000D01*
X91980000Y-95480000D02*
X87620000Y-95480000D01*
X93840000Y-91920000D02*
X93840000Y-92840000D01*
X93840000Y-98040000D02*
X93840000Y-97120000D01*
X91480000Y-92680000D02*
X89880000Y-92680000D01*
X89880000Y-92680000D02*
X89880000Y-93680000D01*
X89880000Y-93680000D02*
X91480000Y-93680000D01*
X91480000Y-93680000D02*
X91480000Y-92680000D01*
X91480000Y-97280000D02*
X89880000Y-97280000D01*
X89880000Y-97280000D02*
X89880000Y-96280000D01*
X89880000Y-96280000D02*
X91480000Y-96280000D01*
X91480000Y-96280000D02*
X91480000Y-97280000D01*
X89880000Y-93680000D02*
X87620000Y-93680000D01*
X89880000Y-93180000D02*
X87620000Y-93180000D01*
X93840000Y-93120000D02*
X95055000Y-93120000D01*
G04 #@! TO.C,Q3*
X131296000Y-98116000D02*
X134896000Y-98116000D01*
X131257522Y-98104478D02*
G75*
G02X133096000Y-93666000I1838478J1838478D01*
G01*
X134934478Y-98104478D02*
G75*
G03X133096000Y-93666000I-1838478J1838478D01*
G01*
G04 #@! TO.C,R7*
X149812000Y-103944000D02*
X149812000Y-107384000D01*
X149812000Y-107384000D02*
X159052000Y-107384000D01*
X159052000Y-107384000D02*
X159052000Y-103944000D01*
X159052000Y-103944000D02*
X149812000Y-103944000D01*
X149122000Y-105664000D02*
X149812000Y-105664000D01*
X159742000Y-105664000D02*
X159052000Y-105664000D01*
G04 #@! TO.C,R8*
X123396000Y-126296000D02*
X123396000Y-129736000D01*
X123396000Y-129736000D02*
X132636000Y-129736000D01*
X132636000Y-129736000D02*
X132636000Y-126296000D01*
X132636000Y-126296000D02*
X123396000Y-126296000D01*
X122706000Y-128016000D02*
X123396000Y-128016000D01*
X133326000Y-128016000D02*
X132636000Y-128016000D01*
G04 #@! TO.C,R9*
X150900000Y-100584000D02*
X151590000Y-100584000D01*
X161520000Y-100584000D02*
X160830000Y-100584000D01*
X151590000Y-102304000D02*
X160830000Y-102304000D01*
X151590000Y-98864000D02*
X151590000Y-102304000D01*
X160830000Y-98864000D02*
X151590000Y-98864000D01*
X160830000Y-102304000D02*
X160830000Y-98864000D01*
G04 #@! TO.C,R10*
X135430000Y-106114000D02*
X135430000Y-102674000D01*
X135430000Y-102674000D02*
X126190000Y-102674000D01*
X126190000Y-102674000D02*
X126190000Y-106114000D01*
X126190000Y-106114000D02*
X135430000Y-106114000D01*
X136120000Y-104394000D02*
X135430000Y-104394000D01*
X125500000Y-104394000D02*
X126190000Y-104394000D01*
G04 #@! TO.C,R11*
X118872000Y-94258000D02*
X118872000Y-94948000D01*
X118872000Y-104878000D02*
X118872000Y-104188000D01*
X117152000Y-94948000D02*
X117152000Y-104188000D01*
X120592000Y-94948000D02*
X117152000Y-94948000D01*
X120592000Y-104188000D02*
X120592000Y-94948000D01*
X117152000Y-104188000D02*
X120592000Y-104188000D01*
G04 #@! TO.C,R13*
X116356000Y-135890000D02*
X117046000Y-135890000D01*
X126976000Y-135890000D02*
X126286000Y-135890000D01*
X117046000Y-137610000D02*
X126286000Y-137610000D01*
X117046000Y-134170000D02*
X117046000Y-137610000D01*
X126286000Y-134170000D02*
X117046000Y-134170000D01*
X126286000Y-137610000D02*
X126286000Y-134170000D01*
G04 #@! TO.C,R14*
X143050000Y-137610000D02*
X143050000Y-134170000D01*
X143050000Y-134170000D02*
X133810000Y-134170000D01*
X133810000Y-134170000D02*
X133810000Y-137610000D01*
X133810000Y-137610000D02*
X143050000Y-137610000D01*
X143740000Y-135890000D02*
X143050000Y-135890000D01*
X133120000Y-135890000D02*
X133810000Y-135890000D01*
G04 #@! TO.C,R15*
X144838000Y-120698000D02*
X148278000Y-120698000D01*
X148278000Y-120698000D02*
X148278000Y-111458000D01*
X148278000Y-111458000D02*
X144838000Y-111458000D01*
X144838000Y-111458000D02*
X144838000Y-120698000D01*
X146558000Y-121388000D02*
X146558000Y-120698000D01*
X146558000Y-110768000D02*
X146558000Y-111458000D01*
G04 #@! TO.C,U3*
X142554000Y-116316000D02*
G75*
G02X142554000Y-114316000I0J1000000D01*
G01*
X142554000Y-114316000D02*
X142554000Y-112666000D01*
X142554000Y-112666000D02*
X132274000Y-112666000D01*
X132274000Y-112666000D02*
X132274000Y-117966000D01*
X132274000Y-117966000D02*
X142554000Y-117966000D01*
X142554000Y-117966000D02*
X142554000Y-116316000D01*
X142614000Y-110176000D02*
X132214000Y-110176000D01*
X132214000Y-110176000D02*
X132214000Y-120456000D01*
X132214000Y-120456000D02*
X142614000Y-120456000D01*
X142614000Y-120456000D02*
X142614000Y-110176000D01*
G04 #@! TO.C,U4*
X110864000Y-120456000D02*
X110864000Y-110176000D01*
X100464000Y-120456000D02*
X110864000Y-120456000D01*
X100464000Y-110176000D02*
X100464000Y-120456000D01*
X110864000Y-110176000D02*
X100464000Y-110176000D01*
X110804000Y-117966000D02*
X110804000Y-116316000D01*
X100524000Y-117966000D02*
X110804000Y-117966000D01*
X100524000Y-112666000D02*
X100524000Y-117966000D01*
X110804000Y-112666000D02*
X100524000Y-112666000D01*
X110804000Y-114316000D02*
X110804000Y-112666000D01*
X110804000Y-116316000D02*
G75*
G02X110804000Y-114316000I0J1000000D01*
G01*
G04 #@! TO.C,R12*
D12*
X98422380Y-123324857D02*
X97946190Y-123658190D01*
X98422380Y-123896285D02*
X97422380Y-123896285D01*
X97422380Y-123515333D01*
X97470000Y-123420095D01*
X97517619Y-123372476D01*
X97612857Y-123324857D01*
X97755714Y-123324857D01*
X97850952Y-123372476D01*
X97898571Y-123420095D01*
X97946190Y-123515333D01*
X97946190Y-123896285D01*
X98422380Y-122372476D02*
X98422380Y-122943904D01*
X98422380Y-122658190D02*
X97422380Y-122658190D01*
X97565238Y-122753428D01*
X97660476Y-122848666D01*
X97708095Y-122943904D01*
X97517619Y-121991523D02*
X97470000Y-121943904D01*
X97422380Y-121848666D01*
X97422380Y-121610571D01*
X97470000Y-121515333D01*
X97517619Y-121467714D01*
X97612857Y-121420095D01*
X97708095Y-121420095D01*
X97850952Y-121467714D01*
X98422380Y-122039142D01*
X98422380Y-121420095D01*
G04 #@! TO.C,C2*
X105065142Y-103858666D02*
X105112761Y-103906285D01*
X105160380Y-104049142D01*
X105160380Y-104144380D01*
X105112761Y-104287238D01*
X105017523Y-104382476D01*
X104922285Y-104430095D01*
X104731809Y-104477714D01*
X104588952Y-104477714D01*
X104398476Y-104430095D01*
X104303238Y-104382476D01*
X104208000Y-104287238D01*
X104160380Y-104144380D01*
X104160380Y-104049142D01*
X104208000Y-103906285D01*
X104255619Y-103858666D01*
X104255619Y-103477714D02*
X104208000Y-103430095D01*
X104160380Y-103334857D01*
X104160380Y-103096761D01*
X104208000Y-103001523D01*
X104255619Y-102953904D01*
X104350857Y-102906285D01*
X104446095Y-102906285D01*
X104588952Y-102953904D01*
X105160380Y-103525333D01*
X105160380Y-102906285D01*
G04 #@! TO.C,C3*
X121201142Y-115422666D02*
X121248761Y-115470285D01*
X121296380Y-115613142D01*
X121296380Y-115708380D01*
X121248761Y-115851238D01*
X121153523Y-115946476D01*
X121058285Y-115994095D01*
X120867809Y-116041714D01*
X120724952Y-116041714D01*
X120534476Y-115994095D01*
X120439238Y-115946476D01*
X120344000Y-115851238D01*
X120296380Y-115708380D01*
X120296380Y-115613142D01*
X120344000Y-115470285D01*
X120391619Y-115422666D01*
X120296380Y-115089333D02*
X120296380Y-114470285D01*
X120677333Y-114803619D01*
X120677333Y-114660761D01*
X120724952Y-114565523D01*
X120772571Y-114517904D01*
X120867809Y-114470285D01*
X121105904Y-114470285D01*
X121201142Y-114517904D01*
X121248761Y-114565523D01*
X121296380Y-114660761D01*
X121296380Y-114946476D01*
X121248761Y-115041714D01*
X121201142Y-115089333D01*
G04 #@! TO.C,C4*
X129837142Y-115422666D02*
X129884761Y-115470285D01*
X129932380Y-115613142D01*
X129932380Y-115708380D01*
X129884761Y-115851238D01*
X129789523Y-115946476D01*
X129694285Y-115994095D01*
X129503809Y-116041714D01*
X129360952Y-116041714D01*
X129170476Y-115994095D01*
X129075238Y-115946476D01*
X128980000Y-115851238D01*
X128932380Y-115708380D01*
X128932380Y-115613142D01*
X128980000Y-115470285D01*
X129027619Y-115422666D01*
X129265714Y-114565523D02*
X129932380Y-114565523D01*
X128884761Y-114803619D02*
X129599047Y-115041714D01*
X129599047Y-114422666D01*
G04 #@! TO.C,J1*
X156668380Y-132175333D02*
X157382666Y-132175333D01*
X157525523Y-132222952D01*
X157620761Y-132318190D01*
X157668380Y-132461047D01*
X157668380Y-132556285D01*
X157668380Y-131175333D02*
X157668380Y-131746761D01*
X157668380Y-131461047D02*
X156668380Y-131461047D01*
X156811238Y-131556285D01*
X156906476Y-131651523D01*
X156954095Y-131746761D01*
G04 #@! TO.C,J2*
X156922380Y-118967333D02*
X157636666Y-118967333D01*
X157779523Y-119014952D01*
X157874761Y-119110190D01*
X157922380Y-119253047D01*
X157922380Y-119348285D01*
X157017619Y-118538761D02*
X156970000Y-118491142D01*
X156922380Y-118395904D01*
X156922380Y-118157809D01*
X156970000Y-118062571D01*
X157017619Y-118014952D01*
X157112857Y-117967333D01*
X157208095Y-117967333D01*
X157350952Y-118014952D01*
X157922380Y-118586380D01*
X157922380Y-117967333D01*
G04 #@! TO.C,J3*
X95728380Y-110299333D02*
X96442666Y-110299333D01*
X96585523Y-110346952D01*
X96680761Y-110442190D01*
X96728380Y-110585047D01*
X96728380Y-110680285D01*
X95728380Y-109918380D02*
X95728380Y-109299333D01*
X96109333Y-109632666D01*
X96109333Y-109489809D01*
X96156952Y-109394571D01*
X96204571Y-109346952D01*
X96299809Y-109299333D01*
X96537904Y-109299333D01*
X96633142Y-109346952D01*
X96680761Y-109394571D01*
X96728380Y-109489809D01*
X96728380Y-109775523D01*
X96680761Y-109870761D01*
X96633142Y-109918380D01*
G04 #@! TO.C,J4*
X95982380Y-95313333D02*
X96696666Y-95313333D01*
X96839523Y-95360952D01*
X96934761Y-95456190D01*
X96982380Y-95599047D01*
X96982380Y-95694285D01*
X96315714Y-94408571D02*
X96982380Y-94408571D01*
X95934761Y-94646666D02*
X96649047Y-94884761D01*
X96649047Y-94265714D01*
G04 #@! TO.C,Q3*
X133000761Y-93253619D02*
X132905523Y-93206000D01*
X132810285Y-93110761D01*
X132667428Y-92967904D01*
X132572190Y-92920285D01*
X132476952Y-92920285D01*
X132524571Y-93158380D02*
X132429333Y-93110761D01*
X132334095Y-93015523D01*
X132286476Y-92825047D01*
X132286476Y-92491714D01*
X132334095Y-92301238D01*
X132429333Y-92206000D01*
X132524571Y-92158380D01*
X132715047Y-92158380D01*
X132810285Y-92206000D01*
X132905523Y-92301238D01*
X132953142Y-92491714D01*
X132953142Y-92825047D01*
X132905523Y-93015523D01*
X132810285Y-93110761D01*
X132715047Y-93158380D01*
X132524571Y-93158380D01*
X133286476Y-92158380D02*
X133905523Y-92158380D01*
X133572190Y-92539333D01*
X133715047Y-92539333D01*
X133810285Y-92586952D01*
X133857904Y-92634571D01*
X133905523Y-92729809D01*
X133905523Y-92967904D01*
X133857904Y-93063142D01*
X133810285Y-93110761D01*
X133715047Y-93158380D01*
X133429333Y-93158380D01*
X133334095Y-93110761D01*
X133286476Y-93063142D01*
G04 #@! TO.C,R7*
X154265333Y-103396380D02*
X153932000Y-102920190D01*
X153693904Y-103396380D02*
X153693904Y-102396380D01*
X154074857Y-102396380D01*
X154170095Y-102444000D01*
X154217714Y-102491619D01*
X154265333Y-102586857D01*
X154265333Y-102729714D01*
X154217714Y-102824952D01*
X154170095Y-102872571D01*
X154074857Y-102920190D01*
X153693904Y-102920190D01*
X154598666Y-102396380D02*
X155265333Y-102396380D01*
X154836761Y-103396380D01*
G04 #@! TO.C,R8*
X127849333Y-125748380D02*
X127516000Y-125272190D01*
X127277904Y-125748380D02*
X127277904Y-124748380D01*
X127658857Y-124748380D01*
X127754095Y-124796000D01*
X127801714Y-124843619D01*
X127849333Y-124938857D01*
X127849333Y-125081714D01*
X127801714Y-125176952D01*
X127754095Y-125224571D01*
X127658857Y-125272190D01*
X127277904Y-125272190D01*
X128420761Y-125176952D02*
X128325523Y-125129333D01*
X128277904Y-125081714D01*
X128230285Y-124986476D01*
X128230285Y-124938857D01*
X128277904Y-124843619D01*
X128325523Y-124796000D01*
X128420761Y-124748380D01*
X128611238Y-124748380D01*
X128706476Y-124796000D01*
X128754095Y-124843619D01*
X128801714Y-124938857D01*
X128801714Y-124986476D01*
X128754095Y-125081714D01*
X128706476Y-125129333D01*
X128611238Y-125176952D01*
X128420761Y-125176952D01*
X128325523Y-125224571D01*
X128277904Y-125272190D01*
X128230285Y-125367428D01*
X128230285Y-125557904D01*
X128277904Y-125653142D01*
X128325523Y-125700761D01*
X128420761Y-125748380D01*
X128611238Y-125748380D01*
X128706476Y-125700761D01*
X128754095Y-125653142D01*
X128801714Y-125557904D01*
X128801714Y-125367428D01*
X128754095Y-125272190D01*
X128706476Y-125224571D01*
X128611238Y-125176952D01*
G04 #@! TO.C,R9*
X156043333Y-103756380D02*
X155710000Y-103280190D01*
X155471904Y-103756380D02*
X155471904Y-102756380D01*
X155852857Y-102756380D01*
X155948095Y-102804000D01*
X155995714Y-102851619D01*
X156043333Y-102946857D01*
X156043333Y-103089714D01*
X155995714Y-103184952D01*
X155948095Y-103232571D01*
X155852857Y-103280190D01*
X155471904Y-103280190D01*
X156519523Y-103756380D02*
X156710000Y-103756380D01*
X156805238Y-103708761D01*
X156852857Y-103661142D01*
X156948095Y-103518285D01*
X156995714Y-103327809D01*
X156995714Y-102946857D01*
X156948095Y-102851619D01*
X156900476Y-102804000D01*
X156805238Y-102756380D01*
X156614761Y-102756380D01*
X156519523Y-102804000D01*
X156471904Y-102851619D01*
X156424285Y-102946857D01*
X156424285Y-103184952D01*
X156471904Y-103280190D01*
X156519523Y-103327809D01*
X156614761Y-103375428D01*
X156805238Y-103375428D01*
X156900476Y-103327809D01*
X156948095Y-103280190D01*
X156995714Y-103184952D01*
G04 #@! TO.C,R10*
X130167142Y-107566380D02*
X129833809Y-107090190D01*
X129595714Y-107566380D02*
X129595714Y-106566380D01*
X129976666Y-106566380D01*
X130071904Y-106614000D01*
X130119523Y-106661619D01*
X130167142Y-106756857D01*
X130167142Y-106899714D01*
X130119523Y-106994952D01*
X130071904Y-107042571D01*
X129976666Y-107090190D01*
X129595714Y-107090190D01*
X131119523Y-107566380D02*
X130548095Y-107566380D01*
X130833809Y-107566380D02*
X130833809Y-106566380D01*
X130738571Y-106709238D01*
X130643333Y-106804476D01*
X130548095Y-106852095D01*
X131738571Y-106566380D02*
X131833809Y-106566380D01*
X131929047Y-106614000D01*
X131976666Y-106661619D01*
X132024285Y-106756857D01*
X132071904Y-106947333D01*
X132071904Y-107185428D01*
X132024285Y-107375904D01*
X131976666Y-107471142D01*
X131929047Y-107518761D01*
X131833809Y-107566380D01*
X131738571Y-107566380D01*
X131643333Y-107518761D01*
X131595714Y-107471142D01*
X131548095Y-107375904D01*
X131500476Y-107185428D01*
X131500476Y-106947333D01*
X131548095Y-106756857D01*
X131595714Y-106661619D01*
X131643333Y-106614000D01*
X131738571Y-106566380D01*
G04 #@! TO.C,R11*
X116604380Y-100210857D02*
X116128190Y-100544190D01*
X116604380Y-100782285D02*
X115604380Y-100782285D01*
X115604380Y-100401333D01*
X115652000Y-100306095D01*
X115699619Y-100258476D01*
X115794857Y-100210857D01*
X115937714Y-100210857D01*
X116032952Y-100258476D01*
X116080571Y-100306095D01*
X116128190Y-100401333D01*
X116128190Y-100782285D01*
X116604380Y-99258476D02*
X116604380Y-99829904D01*
X116604380Y-99544190D02*
X115604380Y-99544190D01*
X115747238Y-99639428D01*
X115842476Y-99734666D01*
X115890095Y-99829904D01*
X116604380Y-98306095D02*
X116604380Y-98877523D01*
X116604380Y-98591809D02*
X115604380Y-98591809D01*
X115747238Y-98687047D01*
X115842476Y-98782285D01*
X115890095Y-98877523D01*
G04 #@! TO.C,R13*
X121023142Y-139062380D02*
X120689809Y-138586190D01*
X120451714Y-139062380D02*
X120451714Y-138062380D01*
X120832666Y-138062380D01*
X120927904Y-138110000D01*
X120975523Y-138157619D01*
X121023142Y-138252857D01*
X121023142Y-138395714D01*
X120975523Y-138490952D01*
X120927904Y-138538571D01*
X120832666Y-138586190D01*
X120451714Y-138586190D01*
X121975523Y-139062380D02*
X121404095Y-139062380D01*
X121689809Y-139062380D02*
X121689809Y-138062380D01*
X121594571Y-138205238D01*
X121499333Y-138300476D01*
X121404095Y-138348095D01*
X122308857Y-138062380D02*
X122927904Y-138062380D01*
X122594571Y-138443333D01*
X122737428Y-138443333D01*
X122832666Y-138490952D01*
X122880285Y-138538571D01*
X122927904Y-138633809D01*
X122927904Y-138871904D01*
X122880285Y-138967142D01*
X122832666Y-139014761D01*
X122737428Y-139062380D01*
X122451714Y-139062380D01*
X122356476Y-139014761D01*
X122308857Y-138967142D01*
G04 #@! TO.C,R14*
X137787142Y-139062380D02*
X137453809Y-138586190D01*
X137215714Y-139062380D02*
X137215714Y-138062380D01*
X137596666Y-138062380D01*
X137691904Y-138110000D01*
X137739523Y-138157619D01*
X137787142Y-138252857D01*
X137787142Y-138395714D01*
X137739523Y-138490952D01*
X137691904Y-138538571D01*
X137596666Y-138586190D01*
X137215714Y-138586190D01*
X138739523Y-139062380D02*
X138168095Y-139062380D01*
X138453809Y-139062380D02*
X138453809Y-138062380D01*
X138358571Y-138205238D01*
X138263333Y-138300476D01*
X138168095Y-138348095D01*
X139596666Y-138395714D02*
X139596666Y-139062380D01*
X139358571Y-138014761D02*
X139120476Y-138729047D01*
X139739523Y-138729047D01*
G04 #@! TO.C,R15*
X144290380Y-116720857D02*
X143814190Y-117054190D01*
X144290380Y-117292285D02*
X143290380Y-117292285D01*
X143290380Y-116911333D01*
X143338000Y-116816095D01*
X143385619Y-116768476D01*
X143480857Y-116720857D01*
X143623714Y-116720857D01*
X143718952Y-116768476D01*
X143766571Y-116816095D01*
X143814190Y-116911333D01*
X143814190Y-117292285D01*
X144290380Y-115768476D02*
X144290380Y-116339904D01*
X144290380Y-116054190D02*
X143290380Y-116054190D01*
X143433238Y-116149428D01*
X143528476Y-116244666D01*
X143576095Y-116339904D01*
X143290380Y-114863714D02*
X143290380Y-115339904D01*
X143766571Y-115387523D01*
X143718952Y-115339904D01*
X143671333Y-115244666D01*
X143671333Y-115006571D01*
X143718952Y-114911333D01*
X143766571Y-114863714D01*
X143861809Y-114816095D01*
X144099904Y-114816095D01*
X144195142Y-114863714D01*
X144242761Y-114911333D01*
X144290380Y-115006571D01*
X144290380Y-115244666D01*
X144242761Y-115339904D01*
X144195142Y-115387523D01*
G04 #@! TO.C,U3*
X143006380Y-116077904D02*
X143815904Y-116077904D01*
X143911142Y-116030285D01*
X143958761Y-115982666D01*
X144006380Y-115887428D01*
X144006380Y-115696952D01*
X143958761Y-115601714D01*
X143911142Y-115554095D01*
X143815904Y-115506476D01*
X143006380Y-115506476D01*
X143006380Y-115125523D02*
X143006380Y-114506476D01*
X143387333Y-114839809D01*
X143387333Y-114696952D01*
X143434952Y-114601714D01*
X143482571Y-114554095D01*
X143577809Y-114506476D01*
X143815904Y-114506476D01*
X143911142Y-114554095D01*
X143958761Y-114601714D01*
X144006380Y-114696952D01*
X144006380Y-114982666D01*
X143958761Y-115077904D01*
X143911142Y-115125523D01*
G04 #@! TO.C,U4*
X111256380Y-116077904D02*
X112065904Y-116077904D01*
X112161142Y-116030285D01*
X112208761Y-115982666D01*
X112256380Y-115887428D01*
X112256380Y-115696952D01*
X112208761Y-115601714D01*
X112161142Y-115554095D01*
X112065904Y-115506476D01*
X111256380Y-115506476D01*
X111589714Y-114601714D02*
X112256380Y-114601714D01*
X111208761Y-114839809D02*
X111923047Y-115077904D01*
X111923047Y-114458857D01*
G04 #@! TD*
M02*
