G04 #@! TF.GenerationSoftware,KiCad,Pcbnew,(5.0.1)-rc2*
G04 #@! TF.CreationDate,2018-10-16T02:33:53-04:00*
G04 #@! TF.ProjectId,vco2,76636F322E6B696361645F7063620000,1*
G04 #@! TF.SameCoordinates,Original*
G04 #@! TF.FileFunction,Soldermask,Top*
G04 #@! TF.FilePolarity,Negative*
%FSLAX46Y46*%
G04 Gerber Fmt 4.6, Leading zero omitted, Abs format (unit mm)*
G04 Created by KiCad (PCBNEW (5.0.1)-rc2) date 10/16/2018 2:33:53 AM*
%MOMM*%
%LPD*%
G01*
G04 APERTURE LIST*
%ADD10C,0.100000*%
G04 APERTURE END LIST*
D10*
G36*
X145028228Y-135071703D02*
X145183100Y-135135853D01*
X145322481Y-135228985D01*
X145441015Y-135347519D01*
X145534147Y-135486900D01*
X145598297Y-135641772D01*
X145631000Y-135806184D01*
X145631000Y-135973816D01*
X145598297Y-136138228D01*
X145534147Y-136293100D01*
X145441015Y-136432481D01*
X145322481Y-136551015D01*
X145183100Y-136644147D01*
X145028228Y-136708297D01*
X144863816Y-136741000D01*
X144696184Y-136741000D01*
X144531772Y-136708297D01*
X144376900Y-136644147D01*
X144237519Y-136551015D01*
X144118985Y-136432481D01*
X144025853Y-136293100D01*
X143961703Y-136138228D01*
X143929000Y-135973816D01*
X143929000Y-135806184D01*
X143961703Y-135641772D01*
X144025853Y-135486900D01*
X144118985Y-135347519D01*
X144237519Y-135228985D01*
X144376900Y-135135853D01*
X144531772Y-135071703D01*
X144696184Y-135039000D01*
X144863816Y-135039000D01*
X145028228Y-135071703D01*
X145028228Y-135071703D01*
G37*
G36*
X128264228Y-135071703D02*
X128419100Y-135135853D01*
X128558481Y-135228985D01*
X128677015Y-135347519D01*
X128770147Y-135486900D01*
X128834297Y-135641772D01*
X128867000Y-135806184D01*
X128867000Y-135973816D01*
X128834297Y-136138228D01*
X128770147Y-136293100D01*
X128677015Y-136432481D01*
X128558481Y-136551015D01*
X128419100Y-136644147D01*
X128264228Y-136708297D01*
X128099816Y-136741000D01*
X127932184Y-136741000D01*
X127767772Y-136708297D01*
X127612900Y-136644147D01*
X127473519Y-136551015D01*
X127354985Y-136432481D01*
X127261853Y-136293100D01*
X127197703Y-136138228D01*
X127165000Y-135973816D01*
X127165000Y-135806184D01*
X127197703Y-135641772D01*
X127261853Y-135486900D01*
X127354985Y-135347519D01*
X127473519Y-135228985D01*
X127612900Y-135135853D01*
X127767772Y-135071703D01*
X127932184Y-135039000D01*
X128099816Y-135039000D01*
X128264228Y-135071703D01*
X128264228Y-135071703D01*
G37*
G36*
X115482821Y-135051313D02*
X115482824Y-135051314D01*
X115482825Y-135051314D01*
X115643239Y-135099975D01*
X115643241Y-135099976D01*
X115643244Y-135099977D01*
X115791078Y-135178995D01*
X115920659Y-135285341D01*
X116027005Y-135414922D01*
X116106023Y-135562756D01*
X116106024Y-135562759D01*
X116106025Y-135562761D01*
X116154686Y-135723175D01*
X116154687Y-135723179D01*
X116171117Y-135890000D01*
X116154687Y-136056821D01*
X116154686Y-136056824D01*
X116154686Y-136056825D01*
X116129993Y-136138228D01*
X116106023Y-136217244D01*
X116027005Y-136365078D01*
X115920659Y-136494659D01*
X115791078Y-136601005D01*
X115643244Y-136680023D01*
X115643241Y-136680024D01*
X115643239Y-136680025D01*
X115482825Y-136728686D01*
X115482824Y-136728686D01*
X115482821Y-136728687D01*
X115357804Y-136741000D01*
X115274196Y-136741000D01*
X115149179Y-136728687D01*
X115149176Y-136728686D01*
X115149175Y-136728686D01*
X114988761Y-136680025D01*
X114988759Y-136680024D01*
X114988756Y-136680023D01*
X114840922Y-136601005D01*
X114711341Y-136494659D01*
X114604995Y-136365078D01*
X114525977Y-136217244D01*
X114502008Y-136138228D01*
X114477314Y-136056825D01*
X114477314Y-136056824D01*
X114477313Y-136056821D01*
X114460883Y-135890000D01*
X114477313Y-135723179D01*
X114477314Y-135723175D01*
X114525975Y-135562761D01*
X114525976Y-135562759D01*
X114525977Y-135562756D01*
X114604995Y-135414922D01*
X114711341Y-135285341D01*
X114840922Y-135178995D01*
X114988756Y-135099977D01*
X114988759Y-135099976D01*
X114988761Y-135099975D01*
X115149175Y-135051314D01*
X115149176Y-135051314D01*
X115149179Y-135051313D01*
X115274196Y-135039000D01*
X115357804Y-135039000D01*
X115482821Y-135051313D01*
X115482821Y-135051313D01*
G37*
G36*
X132246821Y-135051313D02*
X132246824Y-135051314D01*
X132246825Y-135051314D01*
X132407239Y-135099975D01*
X132407241Y-135099976D01*
X132407244Y-135099977D01*
X132555078Y-135178995D01*
X132684659Y-135285341D01*
X132791005Y-135414922D01*
X132870023Y-135562756D01*
X132870024Y-135562759D01*
X132870025Y-135562761D01*
X132918686Y-135723175D01*
X132918687Y-135723179D01*
X132935117Y-135890000D01*
X132918687Y-136056821D01*
X132918686Y-136056824D01*
X132918686Y-136056825D01*
X132893993Y-136138228D01*
X132870023Y-136217244D01*
X132791005Y-136365078D01*
X132684659Y-136494659D01*
X132555078Y-136601005D01*
X132407244Y-136680023D01*
X132407241Y-136680024D01*
X132407239Y-136680025D01*
X132246825Y-136728686D01*
X132246824Y-136728686D01*
X132246821Y-136728687D01*
X132121804Y-136741000D01*
X132038196Y-136741000D01*
X131913179Y-136728687D01*
X131913176Y-136728686D01*
X131913175Y-136728686D01*
X131752761Y-136680025D01*
X131752759Y-136680024D01*
X131752756Y-136680023D01*
X131604922Y-136601005D01*
X131475341Y-136494659D01*
X131368995Y-136365078D01*
X131289977Y-136217244D01*
X131266008Y-136138228D01*
X131241314Y-136056825D01*
X131241314Y-136056824D01*
X131241313Y-136056821D01*
X131224883Y-135890000D01*
X131241313Y-135723179D01*
X131241314Y-135723175D01*
X131289975Y-135562761D01*
X131289976Y-135562759D01*
X131289977Y-135562756D01*
X131368995Y-135414922D01*
X131475341Y-135285341D01*
X131604922Y-135178995D01*
X131752756Y-135099977D01*
X131752759Y-135099976D01*
X131752761Y-135099975D01*
X131913175Y-135051314D01*
X131913176Y-135051314D01*
X131913179Y-135051313D01*
X132038196Y-135039000D01*
X132121804Y-135039000D01*
X132246821Y-135051313D01*
X132246821Y-135051313D01*
G37*
G36*
X160532242Y-132195404D02*
X160569339Y-132206657D01*
X160603520Y-132224927D01*
X160633482Y-132249518D01*
X160658073Y-132279480D01*
X160676343Y-132313661D01*
X160687596Y-132350758D01*
X160692000Y-132395473D01*
X160692000Y-133288527D01*
X160687596Y-133333242D01*
X160676343Y-133370339D01*
X160658073Y-133404520D01*
X160633482Y-133434482D01*
X160603520Y-133459073D01*
X160569339Y-133477343D01*
X160532242Y-133488596D01*
X160487527Y-133493000D01*
X159044473Y-133493000D01*
X158999758Y-133488596D01*
X158962661Y-133477343D01*
X158928480Y-133459073D01*
X158898518Y-133434482D01*
X158873927Y-133404520D01*
X158855657Y-133370339D01*
X158844404Y-133333242D01*
X158840000Y-133288527D01*
X158840000Y-132395473D01*
X158844404Y-132350758D01*
X158855657Y-132313661D01*
X158873927Y-132279480D01*
X158898518Y-132249518D01*
X158928480Y-132224927D01*
X158962661Y-132206657D01*
X158999758Y-132195404D01*
X159044473Y-132191000D01*
X160487527Y-132191000D01*
X160532242Y-132195404D01*
X160532242Y-132195404D01*
G37*
G36*
X160104855Y-130194140D02*
X160168618Y-130200420D01*
X160250427Y-130225237D01*
X160291333Y-130237645D01*
X160391491Y-130291181D01*
X160404426Y-130298095D01*
X160503553Y-130379447D01*
X160584905Y-130478574D01*
X160584906Y-130478576D01*
X160645355Y-130591667D01*
X160645355Y-130591668D01*
X160682580Y-130714382D01*
X160695149Y-130842000D01*
X160682580Y-130969618D01*
X160657763Y-131051427D01*
X160645355Y-131092333D01*
X160591819Y-131192491D01*
X160584905Y-131205426D01*
X160503553Y-131304553D01*
X160404426Y-131385905D01*
X160404424Y-131385906D01*
X160291333Y-131446355D01*
X160250427Y-131458763D01*
X160168618Y-131483580D01*
X160104855Y-131489860D01*
X160072974Y-131493000D01*
X159459026Y-131493000D01*
X159427145Y-131489860D01*
X159363382Y-131483580D01*
X159281573Y-131458763D01*
X159240667Y-131446355D01*
X159127576Y-131385906D01*
X159127574Y-131385905D01*
X159028447Y-131304553D01*
X158947095Y-131205426D01*
X158940181Y-131192491D01*
X158886645Y-131092333D01*
X158874237Y-131051427D01*
X158849420Y-130969618D01*
X158836851Y-130842000D01*
X158849420Y-130714382D01*
X158886645Y-130591668D01*
X158886645Y-130591667D01*
X158947094Y-130478576D01*
X158947095Y-130478574D01*
X159028447Y-130379447D01*
X159127574Y-130298095D01*
X159140509Y-130291181D01*
X159240667Y-130237645D01*
X159281573Y-130225237D01*
X159363382Y-130200420D01*
X159427145Y-130194140D01*
X159459026Y-130191000D01*
X160072974Y-130191000D01*
X160104855Y-130194140D01*
X160104855Y-130194140D01*
G37*
G36*
X95416821Y-128193313D02*
X95416824Y-128193314D01*
X95416825Y-128193314D01*
X95577239Y-128241975D01*
X95577241Y-128241976D01*
X95577244Y-128241977D01*
X95725078Y-128320995D01*
X95854659Y-128427341D01*
X95961005Y-128556922D01*
X96040023Y-128704756D01*
X96040024Y-128704759D01*
X96040025Y-128704761D01*
X96088686Y-128865175D01*
X96088687Y-128865179D01*
X96105117Y-129032000D01*
X96088687Y-129198821D01*
X96040023Y-129359244D01*
X95961005Y-129507078D01*
X95854659Y-129636659D01*
X95725078Y-129743005D01*
X95577244Y-129822023D01*
X95577241Y-129822024D01*
X95577239Y-129822025D01*
X95416825Y-129870686D01*
X95416824Y-129870686D01*
X95416821Y-129870687D01*
X95291804Y-129883000D01*
X95208196Y-129883000D01*
X95083179Y-129870687D01*
X95083176Y-129870686D01*
X95083175Y-129870686D01*
X94922761Y-129822025D01*
X94922759Y-129822024D01*
X94922756Y-129822023D01*
X94774922Y-129743005D01*
X94645341Y-129636659D01*
X94538995Y-129507078D01*
X94459977Y-129359244D01*
X94411313Y-129198821D01*
X94394883Y-129032000D01*
X94411313Y-128865179D01*
X94411314Y-128865175D01*
X94459975Y-128704761D01*
X94459976Y-128704759D01*
X94459977Y-128704756D01*
X94538995Y-128556922D01*
X94645341Y-128427341D01*
X94774922Y-128320995D01*
X94922756Y-128241977D01*
X94922759Y-128241976D01*
X94922761Y-128241975D01*
X95083175Y-128193314D01*
X95083176Y-128193314D01*
X95083179Y-128193313D01*
X95208196Y-128181000D01*
X95291804Y-128181000D01*
X95416821Y-128193313D01*
X95416821Y-128193313D01*
G37*
G36*
X121914228Y-127197703D02*
X122069100Y-127261853D01*
X122208481Y-127354985D01*
X122327015Y-127473519D01*
X122420147Y-127612900D01*
X122484297Y-127767772D01*
X122517000Y-127932184D01*
X122517000Y-128099816D01*
X122484297Y-128264228D01*
X122420147Y-128419100D01*
X122327015Y-128558481D01*
X122208481Y-128677015D01*
X122069100Y-128770147D01*
X121914228Y-128834297D01*
X121749816Y-128867000D01*
X121582184Y-128867000D01*
X121417772Y-128834297D01*
X121262900Y-128770147D01*
X121123519Y-128677015D01*
X121004985Y-128558481D01*
X120911853Y-128419100D01*
X120847703Y-128264228D01*
X120815000Y-128099816D01*
X120815000Y-127932184D01*
X120847703Y-127767772D01*
X120911853Y-127612900D01*
X121004985Y-127473519D01*
X121123519Y-127354985D01*
X121262900Y-127261853D01*
X121417772Y-127197703D01*
X121582184Y-127165000D01*
X121749816Y-127165000D01*
X121914228Y-127197703D01*
X121914228Y-127197703D01*
G37*
G36*
X134532821Y-127177313D02*
X134532824Y-127177314D01*
X134532825Y-127177314D01*
X134693239Y-127225975D01*
X134693241Y-127225976D01*
X134693244Y-127225977D01*
X134841078Y-127304995D01*
X134970659Y-127411341D01*
X135077005Y-127540922D01*
X135156023Y-127688756D01*
X135156024Y-127688759D01*
X135156025Y-127688761D01*
X135204686Y-127849175D01*
X135204687Y-127849179D01*
X135221117Y-128016000D01*
X135204687Y-128182821D01*
X135204686Y-128182824D01*
X135204686Y-128182825D01*
X135162773Y-128320995D01*
X135156023Y-128343244D01*
X135077005Y-128491078D01*
X134970659Y-128620659D01*
X134841078Y-128727005D01*
X134693244Y-128806023D01*
X134693241Y-128806024D01*
X134693239Y-128806025D01*
X134532825Y-128854686D01*
X134532824Y-128854686D01*
X134532821Y-128854687D01*
X134407804Y-128867000D01*
X134324196Y-128867000D01*
X134199179Y-128854687D01*
X134199176Y-128854686D01*
X134199175Y-128854686D01*
X134038761Y-128806025D01*
X134038759Y-128806024D01*
X134038756Y-128806023D01*
X133890922Y-128727005D01*
X133761341Y-128620659D01*
X133654995Y-128491078D01*
X133575977Y-128343244D01*
X133569228Y-128320995D01*
X133527314Y-128182825D01*
X133527314Y-128182824D01*
X133527313Y-128182821D01*
X133510883Y-128016000D01*
X133527313Y-127849179D01*
X133527314Y-127849175D01*
X133575975Y-127688761D01*
X133575976Y-127688759D01*
X133575977Y-127688756D01*
X133654995Y-127540922D01*
X133761341Y-127411341D01*
X133890922Y-127304995D01*
X134038756Y-127225977D01*
X134038759Y-127225976D01*
X134038761Y-127225975D01*
X134199175Y-127177314D01*
X134199176Y-127177314D01*
X134199179Y-127177313D01*
X134324196Y-127165000D01*
X134407804Y-127165000D01*
X134532821Y-127177313D01*
X134532821Y-127177313D01*
G37*
G36*
X146806228Y-121609703D02*
X146961100Y-121673853D01*
X147100481Y-121766985D01*
X147219015Y-121885519D01*
X147312147Y-122024900D01*
X147376297Y-122179772D01*
X147409000Y-122344184D01*
X147409000Y-122511816D01*
X147376297Y-122676228D01*
X147312147Y-122831100D01*
X147219015Y-122970481D01*
X147100481Y-123089015D01*
X146961100Y-123182147D01*
X146806228Y-123246297D01*
X146641816Y-123279000D01*
X146474184Y-123279000D01*
X146309772Y-123246297D01*
X146154900Y-123182147D01*
X146015519Y-123089015D01*
X145896985Y-122970481D01*
X145803853Y-122831100D01*
X145739703Y-122676228D01*
X145707000Y-122511816D01*
X145707000Y-122344184D01*
X145739703Y-122179772D01*
X145803853Y-122024900D01*
X145896985Y-121885519D01*
X146015519Y-121766985D01*
X146154900Y-121673853D01*
X146309772Y-121609703D01*
X146474184Y-121577000D01*
X146641816Y-121577000D01*
X146806228Y-121609703D01*
X146806228Y-121609703D01*
G37*
G36*
X160786242Y-118987404D02*
X160823339Y-118998657D01*
X160857520Y-119016927D01*
X160887482Y-119041518D01*
X160912073Y-119071480D01*
X160930343Y-119105661D01*
X160941596Y-119142758D01*
X160946000Y-119187473D01*
X160946000Y-120080527D01*
X160941596Y-120125242D01*
X160930343Y-120162339D01*
X160912073Y-120196520D01*
X160887482Y-120226482D01*
X160857520Y-120251073D01*
X160823339Y-120269343D01*
X160786242Y-120280596D01*
X160741527Y-120285000D01*
X159298473Y-120285000D01*
X159253758Y-120280596D01*
X159216661Y-120269343D01*
X159182480Y-120251073D01*
X159152518Y-120226482D01*
X159127927Y-120196520D01*
X159109657Y-120162339D01*
X159098404Y-120125242D01*
X159094000Y-120080527D01*
X159094000Y-119187473D01*
X159098404Y-119142758D01*
X159109657Y-119105661D01*
X159127927Y-119071480D01*
X159152518Y-119041518D01*
X159182480Y-119016927D01*
X159216661Y-118998657D01*
X159253758Y-118987404D01*
X159298473Y-118983000D01*
X160741527Y-118983000D01*
X160786242Y-118987404D01*
X160786242Y-118987404D01*
G37*
G36*
X126036565Y-117995389D02*
X126227834Y-118074615D01*
X126399976Y-118189637D01*
X126546363Y-118336024D01*
X126661385Y-118508166D01*
X126740611Y-118699435D01*
X126781000Y-118902484D01*
X126781000Y-119109516D01*
X126740611Y-119312565D01*
X126661385Y-119503834D01*
X126546363Y-119675976D01*
X126399976Y-119822363D01*
X126227834Y-119937385D01*
X126036565Y-120016611D01*
X125833516Y-120057000D01*
X125626484Y-120057000D01*
X125423435Y-120016611D01*
X125232166Y-119937385D01*
X125060024Y-119822363D01*
X124913637Y-119675976D01*
X124798615Y-119503834D01*
X124719389Y-119312565D01*
X124679000Y-119109516D01*
X124679000Y-118902484D01*
X124719389Y-118699435D01*
X124798615Y-118508166D01*
X124913637Y-118336024D01*
X125060024Y-118189637D01*
X125232166Y-118074615D01*
X125423435Y-117995389D01*
X125626484Y-117955000D01*
X125833516Y-117955000D01*
X126036565Y-117995389D01*
X126036565Y-117995389D01*
G37*
G36*
X117400565Y-117995389D02*
X117591834Y-118074615D01*
X117763976Y-118189637D01*
X117910363Y-118336024D01*
X118025385Y-118508166D01*
X118104611Y-118699435D01*
X118145000Y-118902484D01*
X118145000Y-119109516D01*
X118104611Y-119312565D01*
X118025385Y-119503834D01*
X117910363Y-119675976D01*
X117763976Y-119822363D01*
X117591834Y-119937385D01*
X117400565Y-120016611D01*
X117197516Y-120057000D01*
X116990484Y-120057000D01*
X116787435Y-120016611D01*
X116596166Y-119937385D01*
X116424024Y-119822363D01*
X116277637Y-119675976D01*
X116162615Y-119503834D01*
X116083389Y-119312565D01*
X116043000Y-119109516D01*
X116043000Y-118902484D01*
X116083389Y-118699435D01*
X116162615Y-118508166D01*
X116277637Y-118336024D01*
X116424024Y-118189637D01*
X116596166Y-118074615D01*
X116787435Y-117995389D01*
X116990484Y-117955000D01*
X117197516Y-117955000D01*
X117400565Y-117995389D01*
X117400565Y-117995389D01*
G37*
G36*
X136310821Y-118287313D02*
X136310824Y-118287314D01*
X136310825Y-118287314D01*
X136471239Y-118335975D01*
X136471241Y-118335976D01*
X136471244Y-118335977D01*
X136619078Y-118414995D01*
X136748659Y-118521341D01*
X136855005Y-118650922D01*
X136934023Y-118798756D01*
X136934024Y-118798759D01*
X136934025Y-118798761D01*
X136982686Y-118959175D01*
X136982687Y-118959179D01*
X136999117Y-119126000D01*
X136982687Y-119292821D01*
X136934023Y-119453244D01*
X136855005Y-119601078D01*
X136748659Y-119730659D01*
X136619078Y-119837005D01*
X136471244Y-119916023D01*
X136471241Y-119916024D01*
X136471239Y-119916025D01*
X136310825Y-119964686D01*
X136310824Y-119964686D01*
X136310821Y-119964687D01*
X136185804Y-119977000D01*
X136102196Y-119977000D01*
X135977179Y-119964687D01*
X135977176Y-119964686D01*
X135977175Y-119964686D01*
X135816761Y-119916025D01*
X135816759Y-119916024D01*
X135816756Y-119916023D01*
X135668922Y-119837005D01*
X135539341Y-119730659D01*
X135432995Y-119601078D01*
X135353977Y-119453244D01*
X135305313Y-119292821D01*
X135288883Y-119126000D01*
X135305313Y-118959179D01*
X135305314Y-118959175D01*
X135353975Y-118798761D01*
X135353976Y-118798759D01*
X135353977Y-118798756D01*
X135432995Y-118650922D01*
X135539341Y-118521341D01*
X135668922Y-118414995D01*
X135816756Y-118335977D01*
X135816759Y-118335976D01*
X135816761Y-118335975D01*
X135977175Y-118287314D01*
X135977176Y-118287314D01*
X135977179Y-118287313D01*
X136102196Y-118275000D01*
X136185804Y-118275000D01*
X136310821Y-118287313D01*
X136310821Y-118287313D01*
G37*
G36*
X138850821Y-118287313D02*
X138850824Y-118287314D01*
X138850825Y-118287314D01*
X139011239Y-118335975D01*
X139011241Y-118335976D01*
X139011244Y-118335977D01*
X139159078Y-118414995D01*
X139288659Y-118521341D01*
X139395005Y-118650922D01*
X139474023Y-118798756D01*
X139474024Y-118798759D01*
X139474025Y-118798761D01*
X139522686Y-118959175D01*
X139522687Y-118959179D01*
X139539117Y-119126000D01*
X139522687Y-119292821D01*
X139474023Y-119453244D01*
X139395005Y-119601078D01*
X139288659Y-119730659D01*
X139159078Y-119837005D01*
X139011244Y-119916023D01*
X139011241Y-119916024D01*
X139011239Y-119916025D01*
X138850825Y-119964686D01*
X138850824Y-119964686D01*
X138850821Y-119964687D01*
X138725804Y-119977000D01*
X138642196Y-119977000D01*
X138517179Y-119964687D01*
X138517176Y-119964686D01*
X138517175Y-119964686D01*
X138356761Y-119916025D01*
X138356759Y-119916024D01*
X138356756Y-119916023D01*
X138208922Y-119837005D01*
X138079341Y-119730659D01*
X137972995Y-119601078D01*
X137893977Y-119453244D01*
X137845313Y-119292821D01*
X137828883Y-119126000D01*
X137845313Y-118959179D01*
X137845314Y-118959175D01*
X137893975Y-118798761D01*
X137893976Y-118798759D01*
X137893977Y-118798756D01*
X137972995Y-118650922D01*
X138079341Y-118521341D01*
X138208922Y-118414995D01*
X138356756Y-118335977D01*
X138356759Y-118335976D01*
X138356761Y-118335975D01*
X138517175Y-118287314D01*
X138517176Y-118287314D01*
X138517179Y-118287313D01*
X138642196Y-118275000D01*
X138725804Y-118275000D01*
X138850821Y-118287313D01*
X138850821Y-118287313D01*
G37*
G36*
X102020821Y-118287313D02*
X102020824Y-118287314D01*
X102020825Y-118287314D01*
X102181239Y-118335975D01*
X102181241Y-118335976D01*
X102181244Y-118335977D01*
X102329078Y-118414995D01*
X102458659Y-118521341D01*
X102565005Y-118650922D01*
X102644023Y-118798756D01*
X102644024Y-118798759D01*
X102644025Y-118798761D01*
X102692686Y-118959175D01*
X102692687Y-118959179D01*
X102709117Y-119126000D01*
X102692687Y-119292821D01*
X102644023Y-119453244D01*
X102565005Y-119601078D01*
X102458659Y-119730659D01*
X102329078Y-119837005D01*
X102181244Y-119916023D01*
X102181241Y-119916024D01*
X102181239Y-119916025D01*
X102020825Y-119964686D01*
X102020824Y-119964686D01*
X102020821Y-119964687D01*
X101895804Y-119977000D01*
X101812196Y-119977000D01*
X101687179Y-119964687D01*
X101687176Y-119964686D01*
X101687175Y-119964686D01*
X101526761Y-119916025D01*
X101526759Y-119916024D01*
X101526756Y-119916023D01*
X101378922Y-119837005D01*
X101249341Y-119730659D01*
X101142995Y-119601078D01*
X101063977Y-119453244D01*
X101015313Y-119292821D01*
X100998883Y-119126000D01*
X101015313Y-118959179D01*
X101015314Y-118959175D01*
X101063975Y-118798761D01*
X101063976Y-118798759D01*
X101063977Y-118798756D01*
X101142995Y-118650922D01*
X101249341Y-118521341D01*
X101378922Y-118414995D01*
X101526756Y-118335977D01*
X101526759Y-118335976D01*
X101526761Y-118335975D01*
X101687175Y-118287314D01*
X101687176Y-118287314D01*
X101687179Y-118287313D01*
X101812196Y-118275000D01*
X101895804Y-118275000D01*
X102020821Y-118287313D01*
X102020821Y-118287313D01*
G37*
G36*
X104560821Y-118287313D02*
X104560824Y-118287314D01*
X104560825Y-118287314D01*
X104721239Y-118335975D01*
X104721241Y-118335976D01*
X104721244Y-118335977D01*
X104869078Y-118414995D01*
X104998659Y-118521341D01*
X105105005Y-118650922D01*
X105184023Y-118798756D01*
X105184024Y-118798759D01*
X105184025Y-118798761D01*
X105232686Y-118959175D01*
X105232687Y-118959179D01*
X105249117Y-119126000D01*
X105232687Y-119292821D01*
X105184023Y-119453244D01*
X105105005Y-119601078D01*
X104998659Y-119730659D01*
X104869078Y-119837005D01*
X104721244Y-119916023D01*
X104721241Y-119916024D01*
X104721239Y-119916025D01*
X104560825Y-119964686D01*
X104560824Y-119964686D01*
X104560821Y-119964687D01*
X104435804Y-119977000D01*
X104352196Y-119977000D01*
X104227179Y-119964687D01*
X104227176Y-119964686D01*
X104227175Y-119964686D01*
X104066761Y-119916025D01*
X104066759Y-119916024D01*
X104066756Y-119916023D01*
X103918922Y-119837005D01*
X103789341Y-119730659D01*
X103682995Y-119601078D01*
X103603977Y-119453244D01*
X103555313Y-119292821D01*
X103538883Y-119126000D01*
X103555313Y-118959179D01*
X103555314Y-118959175D01*
X103603975Y-118798761D01*
X103603976Y-118798759D01*
X103603977Y-118798756D01*
X103682995Y-118650922D01*
X103789341Y-118521341D01*
X103918922Y-118414995D01*
X104066756Y-118335977D01*
X104066759Y-118335976D01*
X104066761Y-118335975D01*
X104227175Y-118287314D01*
X104227176Y-118287314D01*
X104227179Y-118287313D01*
X104352196Y-118275000D01*
X104435804Y-118275000D01*
X104560821Y-118287313D01*
X104560821Y-118287313D01*
G37*
G36*
X107100821Y-118287313D02*
X107100824Y-118287314D01*
X107100825Y-118287314D01*
X107261239Y-118335975D01*
X107261241Y-118335976D01*
X107261244Y-118335977D01*
X107409078Y-118414995D01*
X107538659Y-118521341D01*
X107645005Y-118650922D01*
X107724023Y-118798756D01*
X107724024Y-118798759D01*
X107724025Y-118798761D01*
X107772686Y-118959175D01*
X107772687Y-118959179D01*
X107789117Y-119126000D01*
X107772687Y-119292821D01*
X107724023Y-119453244D01*
X107645005Y-119601078D01*
X107538659Y-119730659D01*
X107409078Y-119837005D01*
X107261244Y-119916023D01*
X107261241Y-119916024D01*
X107261239Y-119916025D01*
X107100825Y-119964686D01*
X107100824Y-119964686D01*
X107100821Y-119964687D01*
X106975804Y-119977000D01*
X106892196Y-119977000D01*
X106767179Y-119964687D01*
X106767176Y-119964686D01*
X106767175Y-119964686D01*
X106606761Y-119916025D01*
X106606759Y-119916024D01*
X106606756Y-119916023D01*
X106458922Y-119837005D01*
X106329341Y-119730659D01*
X106222995Y-119601078D01*
X106143977Y-119453244D01*
X106095313Y-119292821D01*
X106078883Y-119126000D01*
X106095313Y-118959179D01*
X106095314Y-118959175D01*
X106143975Y-118798761D01*
X106143976Y-118798759D01*
X106143977Y-118798756D01*
X106222995Y-118650922D01*
X106329341Y-118521341D01*
X106458922Y-118414995D01*
X106606756Y-118335977D01*
X106606759Y-118335976D01*
X106606761Y-118335975D01*
X106767175Y-118287314D01*
X106767176Y-118287314D01*
X106767179Y-118287313D01*
X106892196Y-118275000D01*
X106975804Y-118275000D01*
X107100821Y-118287313D01*
X107100821Y-118287313D01*
G37*
G36*
X109640821Y-118287313D02*
X109640824Y-118287314D01*
X109640825Y-118287314D01*
X109801239Y-118335975D01*
X109801241Y-118335976D01*
X109801244Y-118335977D01*
X109949078Y-118414995D01*
X110078659Y-118521341D01*
X110185005Y-118650922D01*
X110264023Y-118798756D01*
X110264024Y-118798759D01*
X110264025Y-118798761D01*
X110312686Y-118959175D01*
X110312687Y-118959179D01*
X110329117Y-119126000D01*
X110312687Y-119292821D01*
X110264023Y-119453244D01*
X110185005Y-119601078D01*
X110078659Y-119730659D01*
X109949078Y-119837005D01*
X109801244Y-119916023D01*
X109801241Y-119916024D01*
X109801239Y-119916025D01*
X109640825Y-119964686D01*
X109640824Y-119964686D01*
X109640821Y-119964687D01*
X109515804Y-119977000D01*
X109432196Y-119977000D01*
X109307179Y-119964687D01*
X109307176Y-119964686D01*
X109307175Y-119964686D01*
X109146761Y-119916025D01*
X109146759Y-119916024D01*
X109146756Y-119916023D01*
X108998922Y-119837005D01*
X108869341Y-119730659D01*
X108762995Y-119601078D01*
X108683977Y-119453244D01*
X108635313Y-119292821D01*
X108618883Y-119126000D01*
X108635313Y-118959179D01*
X108635314Y-118959175D01*
X108683975Y-118798761D01*
X108683976Y-118798759D01*
X108683977Y-118798756D01*
X108762995Y-118650922D01*
X108869341Y-118521341D01*
X108998922Y-118414995D01*
X109146756Y-118335977D01*
X109146759Y-118335976D01*
X109146761Y-118335975D01*
X109307175Y-118287314D01*
X109307176Y-118287314D01*
X109307179Y-118287313D01*
X109432196Y-118275000D01*
X109515804Y-118275000D01*
X109640821Y-118287313D01*
X109640821Y-118287313D01*
G37*
G36*
X133770821Y-118287313D02*
X133770824Y-118287314D01*
X133770825Y-118287314D01*
X133931239Y-118335975D01*
X133931241Y-118335976D01*
X133931244Y-118335977D01*
X134079078Y-118414995D01*
X134208659Y-118521341D01*
X134315005Y-118650922D01*
X134394023Y-118798756D01*
X134394024Y-118798759D01*
X134394025Y-118798761D01*
X134442686Y-118959175D01*
X134442687Y-118959179D01*
X134459117Y-119126000D01*
X134442687Y-119292821D01*
X134394023Y-119453244D01*
X134315005Y-119601078D01*
X134208659Y-119730659D01*
X134079078Y-119837005D01*
X133931244Y-119916023D01*
X133931241Y-119916024D01*
X133931239Y-119916025D01*
X133770825Y-119964686D01*
X133770824Y-119964686D01*
X133770821Y-119964687D01*
X133645804Y-119977000D01*
X133562196Y-119977000D01*
X133437179Y-119964687D01*
X133437176Y-119964686D01*
X133437175Y-119964686D01*
X133276761Y-119916025D01*
X133276759Y-119916024D01*
X133276756Y-119916023D01*
X133128922Y-119837005D01*
X132999341Y-119730659D01*
X132892995Y-119601078D01*
X132813977Y-119453244D01*
X132765313Y-119292821D01*
X132748883Y-119126000D01*
X132765313Y-118959179D01*
X132765314Y-118959175D01*
X132813975Y-118798761D01*
X132813976Y-118798759D01*
X132813977Y-118798756D01*
X132892995Y-118650922D01*
X132999341Y-118521341D01*
X133128922Y-118414995D01*
X133276756Y-118335977D01*
X133276759Y-118335976D01*
X133276761Y-118335975D01*
X133437175Y-118287314D01*
X133437176Y-118287314D01*
X133437179Y-118287313D01*
X133562196Y-118275000D01*
X133645804Y-118275000D01*
X133770821Y-118287313D01*
X133770821Y-118287313D01*
G37*
G36*
X141390821Y-118287313D02*
X141390824Y-118287314D01*
X141390825Y-118287314D01*
X141551239Y-118335975D01*
X141551241Y-118335976D01*
X141551244Y-118335977D01*
X141699078Y-118414995D01*
X141828659Y-118521341D01*
X141935005Y-118650922D01*
X142014023Y-118798756D01*
X142014024Y-118798759D01*
X142014025Y-118798761D01*
X142062686Y-118959175D01*
X142062687Y-118959179D01*
X142079117Y-119126000D01*
X142062687Y-119292821D01*
X142014023Y-119453244D01*
X141935005Y-119601078D01*
X141828659Y-119730659D01*
X141699078Y-119837005D01*
X141551244Y-119916023D01*
X141551241Y-119916024D01*
X141551239Y-119916025D01*
X141390825Y-119964686D01*
X141390824Y-119964686D01*
X141390821Y-119964687D01*
X141265804Y-119977000D01*
X141182196Y-119977000D01*
X141057179Y-119964687D01*
X141057176Y-119964686D01*
X141057175Y-119964686D01*
X140896761Y-119916025D01*
X140896759Y-119916024D01*
X140896756Y-119916023D01*
X140748922Y-119837005D01*
X140619341Y-119730659D01*
X140512995Y-119601078D01*
X140433977Y-119453244D01*
X140385313Y-119292821D01*
X140368883Y-119126000D01*
X140385313Y-118959179D01*
X140385314Y-118959175D01*
X140433975Y-118798761D01*
X140433976Y-118798759D01*
X140433977Y-118798756D01*
X140512995Y-118650922D01*
X140619341Y-118521341D01*
X140748922Y-118414995D01*
X140896756Y-118335977D01*
X140896759Y-118335976D01*
X140896761Y-118335975D01*
X141057175Y-118287314D01*
X141057176Y-118287314D01*
X141057179Y-118287313D01*
X141182196Y-118275000D01*
X141265804Y-118275000D01*
X141390821Y-118287313D01*
X141390821Y-118287313D01*
G37*
G36*
X160358855Y-116986140D02*
X160422618Y-116992420D01*
X160504427Y-117017237D01*
X160545333Y-117029645D01*
X160645491Y-117083181D01*
X160658426Y-117090095D01*
X160757553Y-117171447D01*
X160838905Y-117270574D01*
X160838906Y-117270576D01*
X160899355Y-117383667D01*
X160899355Y-117383668D01*
X160936580Y-117506382D01*
X160949149Y-117634000D01*
X160936580Y-117761618D01*
X160911763Y-117843427D01*
X160899355Y-117884333D01*
X160861582Y-117955000D01*
X160838905Y-117997426D01*
X160757553Y-118096553D01*
X160658426Y-118177905D01*
X160658424Y-118177906D01*
X160545333Y-118238355D01*
X160504427Y-118250763D01*
X160422618Y-118275580D01*
X160358855Y-118281860D01*
X160326974Y-118285000D01*
X159713026Y-118285000D01*
X159681145Y-118281860D01*
X159617382Y-118275580D01*
X159535573Y-118250763D01*
X159494667Y-118238355D01*
X159381576Y-118177906D01*
X159381574Y-118177905D01*
X159282447Y-118096553D01*
X159201095Y-117997426D01*
X159178418Y-117955000D01*
X159140645Y-117884333D01*
X159128237Y-117843427D01*
X159103420Y-117761618D01*
X159090851Y-117634000D01*
X159103420Y-117506382D01*
X159140645Y-117383668D01*
X159140645Y-117383667D01*
X159201094Y-117270576D01*
X159201095Y-117270574D01*
X159282447Y-117171447D01*
X159381574Y-117090095D01*
X159394509Y-117083181D01*
X159494667Y-117029645D01*
X159535573Y-117017237D01*
X159617382Y-116992420D01*
X159681145Y-116986140D01*
X159713026Y-116983000D01*
X160326974Y-116983000D01*
X160358855Y-116986140D01*
X160358855Y-116986140D01*
G37*
G36*
X95498228Y-115513703D02*
X95653100Y-115577853D01*
X95792481Y-115670985D01*
X95911015Y-115789519D01*
X96004147Y-115928900D01*
X96068297Y-116083772D01*
X96101000Y-116248184D01*
X96101000Y-116415816D01*
X96068297Y-116580228D01*
X96004147Y-116735100D01*
X95911015Y-116874481D01*
X95792481Y-116993015D01*
X95653100Y-117086147D01*
X95498228Y-117150297D01*
X95333816Y-117183000D01*
X95166184Y-117183000D01*
X95001772Y-117150297D01*
X94846900Y-117086147D01*
X94707519Y-116993015D01*
X94588985Y-116874481D01*
X94495853Y-116735100D01*
X94431703Y-116580228D01*
X94399000Y-116415816D01*
X94399000Y-116248184D01*
X94431703Y-116083772D01*
X94495853Y-115928900D01*
X94588985Y-115789519D01*
X94707519Y-115670985D01*
X94846900Y-115577853D01*
X95001772Y-115513703D01*
X95166184Y-115481000D01*
X95333816Y-115481000D01*
X95498228Y-115513703D01*
X95498228Y-115513703D01*
G37*
G36*
X126036565Y-110495389D02*
X126227834Y-110574615D01*
X126399976Y-110689637D01*
X126546363Y-110836024D01*
X126661385Y-111008166D01*
X126740611Y-111199435D01*
X126781000Y-111402484D01*
X126781000Y-111609516D01*
X126740611Y-111812565D01*
X126661385Y-112003834D01*
X126546363Y-112175976D01*
X126399976Y-112322363D01*
X126227834Y-112437385D01*
X126036565Y-112516611D01*
X125833516Y-112557000D01*
X125626484Y-112557000D01*
X125423435Y-112516611D01*
X125232166Y-112437385D01*
X125060024Y-112322363D01*
X124913637Y-112175976D01*
X124798615Y-112003834D01*
X124719389Y-111812565D01*
X124679000Y-111609516D01*
X124679000Y-111402484D01*
X124719389Y-111199435D01*
X124798615Y-111008166D01*
X124913637Y-110836024D01*
X125060024Y-110689637D01*
X125232166Y-110574615D01*
X125423435Y-110495389D01*
X125626484Y-110455000D01*
X125833516Y-110455000D01*
X126036565Y-110495389D01*
X126036565Y-110495389D01*
G37*
G36*
X117400565Y-110495389D02*
X117591834Y-110574615D01*
X117763976Y-110689637D01*
X117910363Y-110836024D01*
X118025385Y-111008166D01*
X118104611Y-111199435D01*
X118145000Y-111402484D01*
X118145000Y-111609516D01*
X118104611Y-111812565D01*
X118025385Y-112003834D01*
X117910363Y-112175976D01*
X117763976Y-112322363D01*
X117591834Y-112437385D01*
X117400565Y-112516611D01*
X117197516Y-112557000D01*
X116990484Y-112557000D01*
X116787435Y-112516611D01*
X116596166Y-112437385D01*
X116424024Y-112322363D01*
X116277637Y-112175976D01*
X116162615Y-112003834D01*
X116083389Y-111812565D01*
X116043000Y-111609516D01*
X116043000Y-111402484D01*
X116083389Y-111199435D01*
X116162615Y-111008166D01*
X116277637Y-110836024D01*
X116424024Y-110689637D01*
X116596166Y-110574615D01*
X116787435Y-110495389D01*
X116990484Y-110455000D01*
X117197516Y-110455000D01*
X117400565Y-110495389D01*
X117400565Y-110495389D01*
G37*
G36*
X138850821Y-110667313D02*
X138850824Y-110667314D01*
X138850825Y-110667314D01*
X139011239Y-110715975D01*
X139011241Y-110715976D01*
X139011244Y-110715977D01*
X139159078Y-110794995D01*
X139288659Y-110901341D01*
X139395005Y-111030922D01*
X139474023Y-111178756D01*
X139474024Y-111178759D01*
X139474025Y-111178761D01*
X139522686Y-111339175D01*
X139522687Y-111339179D01*
X139539117Y-111506000D01*
X139522687Y-111672821D01*
X139474023Y-111833244D01*
X139395005Y-111981078D01*
X139288659Y-112110659D01*
X139159078Y-112217005D01*
X139011244Y-112296023D01*
X139011241Y-112296024D01*
X139011239Y-112296025D01*
X138850825Y-112344686D01*
X138850824Y-112344686D01*
X138850821Y-112344687D01*
X138725804Y-112357000D01*
X138642196Y-112357000D01*
X138517179Y-112344687D01*
X138517176Y-112344686D01*
X138517175Y-112344686D01*
X138356761Y-112296025D01*
X138356759Y-112296024D01*
X138356756Y-112296023D01*
X138208922Y-112217005D01*
X138079341Y-112110659D01*
X137972995Y-111981078D01*
X137893977Y-111833244D01*
X137845313Y-111672821D01*
X137828883Y-111506000D01*
X137845313Y-111339179D01*
X137845314Y-111339175D01*
X137893975Y-111178761D01*
X137893976Y-111178759D01*
X137893977Y-111178756D01*
X137972995Y-111030922D01*
X138079341Y-110901341D01*
X138208922Y-110794995D01*
X138356756Y-110715977D01*
X138356759Y-110715976D01*
X138356761Y-110715975D01*
X138517175Y-110667314D01*
X138517176Y-110667314D01*
X138517179Y-110667313D01*
X138642196Y-110655000D01*
X138725804Y-110655000D01*
X138850821Y-110667313D01*
X138850821Y-110667313D01*
G37*
G36*
X110325000Y-112357000D02*
X108623000Y-112357000D01*
X108623000Y-110655000D01*
X110325000Y-110655000D01*
X110325000Y-112357000D01*
X110325000Y-112357000D01*
G37*
G36*
X107100821Y-110667313D02*
X107100824Y-110667314D01*
X107100825Y-110667314D01*
X107261239Y-110715975D01*
X107261241Y-110715976D01*
X107261244Y-110715977D01*
X107409078Y-110794995D01*
X107538659Y-110901341D01*
X107645005Y-111030922D01*
X107724023Y-111178756D01*
X107724024Y-111178759D01*
X107724025Y-111178761D01*
X107772686Y-111339175D01*
X107772687Y-111339179D01*
X107789117Y-111506000D01*
X107772687Y-111672821D01*
X107724023Y-111833244D01*
X107645005Y-111981078D01*
X107538659Y-112110659D01*
X107409078Y-112217005D01*
X107261244Y-112296023D01*
X107261241Y-112296024D01*
X107261239Y-112296025D01*
X107100825Y-112344686D01*
X107100824Y-112344686D01*
X107100821Y-112344687D01*
X106975804Y-112357000D01*
X106892196Y-112357000D01*
X106767179Y-112344687D01*
X106767176Y-112344686D01*
X106767175Y-112344686D01*
X106606761Y-112296025D01*
X106606759Y-112296024D01*
X106606756Y-112296023D01*
X106458922Y-112217005D01*
X106329341Y-112110659D01*
X106222995Y-111981078D01*
X106143977Y-111833244D01*
X106095313Y-111672821D01*
X106078883Y-111506000D01*
X106095313Y-111339179D01*
X106095314Y-111339175D01*
X106143975Y-111178761D01*
X106143976Y-111178759D01*
X106143977Y-111178756D01*
X106222995Y-111030922D01*
X106329341Y-110901341D01*
X106458922Y-110794995D01*
X106606756Y-110715977D01*
X106606759Y-110715976D01*
X106606761Y-110715975D01*
X106767175Y-110667314D01*
X106767176Y-110667314D01*
X106767179Y-110667313D01*
X106892196Y-110655000D01*
X106975804Y-110655000D01*
X107100821Y-110667313D01*
X107100821Y-110667313D01*
G37*
G36*
X104560821Y-110667313D02*
X104560824Y-110667314D01*
X104560825Y-110667314D01*
X104721239Y-110715975D01*
X104721241Y-110715976D01*
X104721244Y-110715977D01*
X104869078Y-110794995D01*
X104998659Y-110901341D01*
X105105005Y-111030922D01*
X105184023Y-111178756D01*
X105184024Y-111178759D01*
X105184025Y-111178761D01*
X105232686Y-111339175D01*
X105232687Y-111339179D01*
X105249117Y-111506000D01*
X105232687Y-111672821D01*
X105184023Y-111833244D01*
X105105005Y-111981078D01*
X104998659Y-112110659D01*
X104869078Y-112217005D01*
X104721244Y-112296023D01*
X104721241Y-112296024D01*
X104721239Y-112296025D01*
X104560825Y-112344686D01*
X104560824Y-112344686D01*
X104560821Y-112344687D01*
X104435804Y-112357000D01*
X104352196Y-112357000D01*
X104227179Y-112344687D01*
X104227176Y-112344686D01*
X104227175Y-112344686D01*
X104066761Y-112296025D01*
X104066759Y-112296024D01*
X104066756Y-112296023D01*
X103918922Y-112217005D01*
X103789341Y-112110659D01*
X103682995Y-111981078D01*
X103603977Y-111833244D01*
X103555313Y-111672821D01*
X103538883Y-111506000D01*
X103555313Y-111339179D01*
X103555314Y-111339175D01*
X103603975Y-111178761D01*
X103603976Y-111178759D01*
X103603977Y-111178756D01*
X103682995Y-111030922D01*
X103789341Y-110901341D01*
X103918922Y-110794995D01*
X104066756Y-110715977D01*
X104066759Y-110715976D01*
X104066761Y-110715975D01*
X104227175Y-110667314D01*
X104227176Y-110667314D01*
X104227179Y-110667313D01*
X104352196Y-110655000D01*
X104435804Y-110655000D01*
X104560821Y-110667313D01*
X104560821Y-110667313D01*
G37*
G36*
X133770821Y-110667313D02*
X133770824Y-110667314D01*
X133770825Y-110667314D01*
X133931239Y-110715975D01*
X133931241Y-110715976D01*
X133931244Y-110715977D01*
X134079078Y-110794995D01*
X134208659Y-110901341D01*
X134315005Y-111030922D01*
X134394023Y-111178756D01*
X134394024Y-111178759D01*
X134394025Y-111178761D01*
X134442686Y-111339175D01*
X134442687Y-111339179D01*
X134459117Y-111506000D01*
X134442687Y-111672821D01*
X134394023Y-111833244D01*
X134315005Y-111981078D01*
X134208659Y-112110659D01*
X134079078Y-112217005D01*
X133931244Y-112296023D01*
X133931241Y-112296024D01*
X133931239Y-112296025D01*
X133770825Y-112344686D01*
X133770824Y-112344686D01*
X133770821Y-112344687D01*
X133645804Y-112357000D01*
X133562196Y-112357000D01*
X133437179Y-112344687D01*
X133437176Y-112344686D01*
X133437175Y-112344686D01*
X133276761Y-112296025D01*
X133276759Y-112296024D01*
X133276756Y-112296023D01*
X133128922Y-112217005D01*
X132999341Y-112110659D01*
X132892995Y-111981078D01*
X132813977Y-111833244D01*
X132765313Y-111672821D01*
X132748883Y-111506000D01*
X132765313Y-111339179D01*
X132765314Y-111339175D01*
X132813975Y-111178761D01*
X132813976Y-111178759D01*
X132813977Y-111178756D01*
X132892995Y-111030922D01*
X132999341Y-110901341D01*
X133128922Y-110794995D01*
X133276756Y-110715977D01*
X133276759Y-110715976D01*
X133276761Y-110715975D01*
X133437175Y-110667314D01*
X133437176Y-110667314D01*
X133437179Y-110667313D01*
X133562196Y-110655000D01*
X133645804Y-110655000D01*
X133770821Y-110667313D01*
X133770821Y-110667313D01*
G37*
G36*
X136310821Y-110667313D02*
X136310824Y-110667314D01*
X136310825Y-110667314D01*
X136471239Y-110715975D01*
X136471241Y-110715976D01*
X136471244Y-110715977D01*
X136619078Y-110794995D01*
X136748659Y-110901341D01*
X136855005Y-111030922D01*
X136934023Y-111178756D01*
X136934024Y-111178759D01*
X136934025Y-111178761D01*
X136982686Y-111339175D01*
X136982687Y-111339179D01*
X136999117Y-111506000D01*
X136982687Y-111672821D01*
X136934023Y-111833244D01*
X136855005Y-111981078D01*
X136748659Y-112110659D01*
X136619078Y-112217005D01*
X136471244Y-112296023D01*
X136471241Y-112296024D01*
X136471239Y-112296025D01*
X136310825Y-112344686D01*
X136310824Y-112344686D01*
X136310821Y-112344687D01*
X136185804Y-112357000D01*
X136102196Y-112357000D01*
X135977179Y-112344687D01*
X135977176Y-112344686D01*
X135977175Y-112344686D01*
X135816761Y-112296025D01*
X135816759Y-112296024D01*
X135816756Y-112296023D01*
X135668922Y-112217005D01*
X135539341Y-112110659D01*
X135432995Y-111981078D01*
X135353977Y-111833244D01*
X135305313Y-111672821D01*
X135288883Y-111506000D01*
X135305313Y-111339179D01*
X135305314Y-111339175D01*
X135353975Y-111178761D01*
X135353976Y-111178759D01*
X135353977Y-111178756D01*
X135432995Y-111030922D01*
X135539341Y-110901341D01*
X135668922Y-110794995D01*
X135816756Y-110715977D01*
X135816759Y-110715976D01*
X135816761Y-110715975D01*
X135977175Y-110667314D01*
X135977176Y-110667314D01*
X135977179Y-110667313D01*
X136102196Y-110655000D01*
X136185804Y-110655000D01*
X136310821Y-110667313D01*
X136310821Y-110667313D01*
G37*
G36*
X142075000Y-112357000D02*
X140373000Y-112357000D01*
X140373000Y-110655000D01*
X142075000Y-110655000D01*
X142075000Y-112357000D01*
X142075000Y-112357000D01*
G37*
G36*
X102020821Y-110667313D02*
X102020824Y-110667314D01*
X102020825Y-110667314D01*
X102181239Y-110715975D01*
X102181241Y-110715976D01*
X102181244Y-110715977D01*
X102329078Y-110794995D01*
X102458659Y-110901341D01*
X102565005Y-111030922D01*
X102644023Y-111178756D01*
X102644024Y-111178759D01*
X102644025Y-111178761D01*
X102692686Y-111339175D01*
X102692687Y-111339179D01*
X102709117Y-111506000D01*
X102692687Y-111672821D01*
X102644023Y-111833244D01*
X102565005Y-111981078D01*
X102458659Y-112110659D01*
X102329078Y-112217005D01*
X102181244Y-112296023D01*
X102181241Y-112296024D01*
X102181239Y-112296025D01*
X102020825Y-112344686D01*
X102020824Y-112344686D01*
X102020821Y-112344687D01*
X101895804Y-112357000D01*
X101812196Y-112357000D01*
X101687179Y-112344687D01*
X101687176Y-112344686D01*
X101687175Y-112344686D01*
X101526761Y-112296025D01*
X101526759Y-112296024D01*
X101526756Y-112296023D01*
X101378922Y-112217005D01*
X101249341Y-112110659D01*
X101142995Y-111981078D01*
X101063977Y-111833244D01*
X101015313Y-111672821D01*
X100998883Y-111506000D01*
X101015313Y-111339179D01*
X101015314Y-111339175D01*
X101063975Y-111178761D01*
X101063976Y-111178759D01*
X101063977Y-111178756D01*
X101142995Y-111030922D01*
X101249341Y-110901341D01*
X101378922Y-110794995D01*
X101526756Y-110715977D01*
X101526759Y-110715976D01*
X101526761Y-110715975D01*
X101687175Y-110667314D01*
X101687176Y-110667314D01*
X101687179Y-110667313D01*
X101812196Y-110655000D01*
X101895804Y-110655000D01*
X102020821Y-110667313D01*
X102020821Y-110667313D01*
G37*
G36*
X94064855Y-110318140D02*
X94128618Y-110324420D01*
X94210427Y-110349237D01*
X94251333Y-110361645D01*
X94351491Y-110415181D01*
X94364426Y-110422095D01*
X94463553Y-110503447D01*
X94544905Y-110602574D01*
X94544906Y-110602576D01*
X94605355Y-110715667D01*
X94605355Y-110715668D01*
X94642580Y-110838382D01*
X94655149Y-110966000D01*
X94642580Y-111093618D01*
X94617763Y-111175427D01*
X94605355Y-111216333D01*
X94551819Y-111316491D01*
X94544905Y-111329426D01*
X94463553Y-111428553D01*
X94364426Y-111509905D01*
X94364424Y-111509906D01*
X94251333Y-111570355D01*
X94210427Y-111582763D01*
X94128618Y-111607580D01*
X94064855Y-111613860D01*
X94032974Y-111617000D01*
X93419026Y-111617000D01*
X93387145Y-111613860D01*
X93323382Y-111607580D01*
X93241573Y-111582763D01*
X93200667Y-111570355D01*
X93087576Y-111509906D01*
X93087574Y-111509905D01*
X92988447Y-111428553D01*
X92907095Y-111329426D01*
X92900181Y-111316491D01*
X92846645Y-111216333D01*
X92834237Y-111175427D01*
X92809420Y-111093618D01*
X92796851Y-110966000D01*
X92809420Y-110838382D01*
X92846645Y-110715668D01*
X92846645Y-110715667D01*
X92907094Y-110602576D01*
X92907095Y-110602574D01*
X92988447Y-110503447D01*
X93087574Y-110422095D01*
X93100509Y-110415181D01*
X93200667Y-110361645D01*
X93241573Y-110349237D01*
X93323382Y-110324420D01*
X93387145Y-110318140D01*
X93419026Y-110315000D01*
X94032974Y-110315000D01*
X94064855Y-110318140D01*
X94064855Y-110318140D01*
G37*
G36*
X146724821Y-108889313D02*
X146724824Y-108889314D01*
X146724825Y-108889314D01*
X146885239Y-108937975D01*
X146885241Y-108937976D01*
X146885244Y-108937977D01*
X147033078Y-109016995D01*
X147162659Y-109123341D01*
X147269005Y-109252922D01*
X147348023Y-109400756D01*
X147348024Y-109400759D01*
X147348025Y-109400761D01*
X147386780Y-109528520D01*
X147396687Y-109561179D01*
X147413117Y-109728000D01*
X147396687Y-109894821D01*
X147348023Y-110055244D01*
X147269005Y-110203078D01*
X147162659Y-110332659D01*
X147033078Y-110439005D01*
X146885244Y-110518023D01*
X146885241Y-110518024D01*
X146885239Y-110518025D01*
X146724825Y-110566686D01*
X146724824Y-110566686D01*
X146724821Y-110566687D01*
X146599804Y-110579000D01*
X146516196Y-110579000D01*
X146391179Y-110566687D01*
X146391176Y-110566686D01*
X146391175Y-110566686D01*
X146230761Y-110518025D01*
X146230759Y-110518024D01*
X146230756Y-110518023D01*
X146082922Y-110439005D01*
X145953341Y-110332659D01*
X145846995Y-110203078D01*
X145767977Y-110055244D01*
X145719313Y-109894821D01*
X145702883Y-109728000D01*
X145719313Y-109561179D01*
X145729220Y-109528520D01*
X145767975Y-109400761D01*
X145767976Y-109400759D01*
X145767977Y-109400756D01*
X145846995Y-109252922D01*
X145953341Y-109123341D01*
X146082922Y-109016995D01*
X146230756Y-108937977D01*
X146230759Y-108937976D01*
X146230761Y-108937975D01*
X146391175Y-108889314D01*
X146391176Y-108889314D01*
X146391179Y-108889313D01*
X146516196Y-108877000D01*
X146599804Y-108877000D01*
X146724821Y-108889313D01*
X146724821Y-108889313D01*
G37*
G36*
X94492242Y-108319404D02*
X94529339Y-108330657D01*
X94563520Y-108348927D01*
X94593482Y-108373518D01*
X94618073Y-108403480D01*
X94636343Y-108437661D01*
X94647596Y-108474758D01*
X94652000Y-108519473D01*
X94652000Y-109412527D01*
X94647596Y-109457242D01*
X94636343Y-109494339D01*
X94618073Y-109528520D01*
X94593482Y-109558482D01*
X94563520Y-109583073D01*
X94529339Y-109601343D01*
X94492242Y-109612596D01*
X94447527Y-109617000D01*
X93004473Y-109617000D01*
X92959758Y-109612596D01*
X92922661Y-109601343D01*
X92888480Y-109583073D01*
X92858518Y-109558482D01*
X92833927Y-109528520D01*
X92815657Y-109494339D01*
X92804404Y-109457242D01*
X92800000Y-109412527D01*
X92800000Y-108519473D01*
X92804404Y-108474758D01*
X92815657Y-108437661D01*
X92833927Y-108403480D01*
X92858518Y-108373518D01*
X92888480Y-108348927D01*
X92922661Y-108330657D01*
X92959758Y-108319404D01*
X93004473Y-108315000D01*
X94447527Y-108315000D01*
X94492242Y-108319404D01*
X94492242Y-108319404D01*
G37*
G36*
X108764565Y-106431389D02*
X108955834Y-106510615D01*
X109127976Y-106625637D01*
X109274363Y-106772024D01*
X109389385Y-106944166D01*
X109468611Y-107135435D01*
X109509000Y-107338484D01*
X109509000Y-107545516D01*
X109468611Y-107748565D01*
X109389385Y-107939834D01*
X109274363Y-108111976D01*
X109127976Y-108258363D01*
X108955834Y-108373385D01*
X108764565Y-108452611D01*
X108561516Y-108493000D01*
X108354484Y-108493000D01*
X108151435Y-108452611D01*
X107960166Y-108373385D01*
X107788024Y-108258363D01*
X107641637Y-108111976D01*
X107526615Y-107939834D01*
X107447389Y-107748565D01*
X107407000Y-107545516D01*
X107407000Y-107338484D01*
X107447389Y-107135435D01*
X107526615Y-106944166D01*
X107641637Y-106772024D01*
X107788024Y-106625637D01*
X107960166Y-106510615D01*
X108151435Y-106431389D01*
X108354484Y-106391000D01*
X108561516Y-106391000D01*
X108764565Y-106431389D01*
X108764565Y-106431389D01*
G37*
G36*
X119120228Y-105099703D02*
X119275100Y-105163853D01*
X119414481Y-105256985D01*
X119533015Y-105375519D01*
X119626147Y-105514900D01*
X119690297Y-105669772D01*
X119723000Y-105834184D01*
X119723000Y-106001816D01*
X119690297Y-106166228D01*
X119626147Y-106321100D01*
X119533015Y-106460481D01*
X119414481Y-106579015D01*
X119275100Y-106672147D01*
X119120228Y-106736297D01*
X118955816Y-106769000D01*
X118788184Y-106769000D01*
X118623772Y-106736297D01*
X118468900Y-106672147D01*
X118329519Y-106579015D01*
X118210985Y-106460481D01*
X118117853Y-106321100D01*
X118053703Y-106166228D01*
X118021000Y-106001816D01*
X118021000Y-105834184D01*
X118053703Y-105669772D01*
X118117853Y-105514900D01*
X118210985Y-105375519D01*
X118329519Y-105256985D01*
X118468900Y-105163853D01*
X118623772Y-105099703D01*
X118788184Y-105067000D01*
X118955816Y-105067000D01*
X119120228Y-105099703D01*
X119120228Y-105099703D01*
G37*
G36*
X148330228Y-104845703D02*
X148485100Y-104909853D01*
X148624481Y-105002985D01*
X148743015Y-105121519D01*
X148836147Y-105260900D01*
X148900297Y-105415772D01*
X148933000Y-105580184D01*
X148933000Y-105747816D01*
X148900297Y-105912228D01*
X148836147Y-106067100D01*
X148743015Y-106206481D01*
X148624481Y-106325015D01*
X148485100Y-106418147D01*
X148330228Y-106482297D01*
X148165816Y-106515000D01*
X147998184Y-106515000D01*
X147833772Y-106482297D01*
X147678900Y-106418147D01*
X147539519Y-106325015D01*
X147420985Y-106206481D01*
X147327853Y-106067100D01*
X147263703Y-105912228D01*
X147231000Y-105747816D01*
X147231000Y-105580184D01*
X147263703Y-105415772D01*
X147327853Y-105260900D01*
X147420985Y-105121519D01*
X147539519Y-105002985D01*
X147678900Y-104909853D01*
X147833772Y-104845703D01*
X147998184Y-104813000D01*
X148165816Y-104813000D01*
X148330228Y-104845703D01*
X148330228Y-104845703D01*
G37*
G36*
X160948821Y-104825313D02*
X160948824Y-104825314D01*
X160948825Y-104825314D01*
X161109239Y-104873975D01*
X161109241Y-104873976D01*
X161109244Y-104873977D01*
X161257078Y-104952995D01*
X161386659Y-105059341D01*
X161493005Y-105188922D01*
X161572023Y-105336756D01*
X161572024Y-105336759D01*
X161572025Y-105336761D01*
X161620686Y-105497175D01*
X161620687Y-105497179D01*
X161637117Y-105664000D01*
X161620687Y-105830821D01*
X161620686Y-105830824D01*
X161620686Y-105830825D01*
X161595993Y-105912228D01*
X161572023Y-105991244D01*
X161493005Y-106139078D01*
X161386659Y-106268659D01*
X161257078Y-106375005D01*
X161109244Y-106454023D01*
X161109241Y-106454024D01*
X161109239Y-106454025D01*
X160948825Y-106502686D01*
X160948824Y-106502686D01*
X160948821Y-106502687D01*
X160823804Y-106515000D01*
X160740196Y-106515000D01*
X160615179Y-106502687D01*
X160615176Y-106502686D01*
X160615175Y-106502686D01*
X160454761Y-106454025D01*
X160454759Y-106454024D01*
X160454756Y-106454023D01*
X160306922Y-106375005D01*
X160177341Y-106268659D01*
X160070995Y-106139078D01*
X159991977Y-105991244D01*
X159968008Y-105912228D01*
X159943314Y-105830825D01*
X159943314Y-105830824D01*
X159943313Y-105830821D01*
X159926883Y-105664000D01*
X159943313Y-105497179D01*
X159943314Y-105497175D01*
X159991975Y-105336761D01*
X159991976Y-105336759D01*
X159991977Y-105336756D01*
X160070995Y-105188922D01*
X160177341Y-105059341D01*
X160306922Y-104952995D01*
X160454756Y-104873977D01*
X160454759Y-104873976D01*
X160454761Y-104873975D01*
X160615175Y-104825314D01*
X160615176Y-104825314D01*
X160615179Y-104825313D01*
X160740196Y-104813000D01*
X160823804Y-104813000D01*
X160948821Y-104825313D01*
X160948821Y-104825313D01*
G37*
G36*
X124626821Y-103555313D02*
X124626824Y-103555314D01*
X124626825Y-103555314D01*
X124787239Y-103603975D01*
X124787241Y-103603976D01*
X124787244Y-103603977D01*
X124935078Y-103682995D01*
X125064659Y-103789341D01*
X125171005Y-103918922D01*
X125250023Y-104066756D01*
X125250024Y-104066759D01*
X125250025Y-104066761D01*
X125298686Y-104227175D01*
X125298687Y-104227179D01*
X125315117Y-104394000D01*
X125298687Y-104560821D01*
X125298686Y-104560824D01*
X125298686Y-104560825D01*
X125273993Y-104642228D01*
X125250023Y-104721244D01*
X125171005Y-104869078D01*
X125064659Y-104998659D01*
X124935078Y-105105005D01*
X124787244Y-105184023D01*
X124787241Y-105184024D01*
X124787239Y-105184025D01*
X124626825Y-105232686D01*
X124626824Y-105232686D01*
X124626821Y-105232687D01*
X124501804Y-105245000D01*
X124418196Y-105245000D01*
X124293179Y-105232687D01*
X124293176Y-105232686D01*
X124293175Y-105232686D01*
X124132761Y-105184025D01*
X124132759Y-105184024D01*
X124132756Y-105184023D01*
X123984922Y-105105005D01*
X123855341Y-104998659D01*
X123748995Y-104869078D01*
X123669977Y-104721244D01*
X123646008Y-104642228D01*
X123621314Y-104560825D01*
X123621314Y-104560824D01*
X123621313Y-104560821D01*
X123604883Y-104394000D01*
X123621313Y-104227179D01*
X123621314Y-104227175D01*
X123669975Y-104066761D01*
X123669976Y-104066759D01*
X123669977Y-104066756D01*
X123748995Y-103918922D01*
X123855341Y-103789341D01*
X123984922Y-103682995D01*
X124132756Y-103603977D01*
X124132759Y-103603976D01*
X124132761Y-103603975D01*
X124293175Y-103555314D01*
X124293176Y-103555314D01*
X124293179Y-103555313D01*
X124418196Y-103543000D01*
X124501804Y-103543000D01*
X124626821Y-103555313D01*
X124626821Y-103555313D01*
G37*
G36*
X137408228Y-103575703D02*
X137563100Y-103639853D01*
X137702481Y-103732985D01*
X137821015Y-103851519D01*
X137914147Y-103990900D01*
X137978297Y-104145772D01*
X138011000Y-104310184D01*
X138011000Y-104477816D01*
X137978297Y-104642228D01*
X137914147Y-104797100D01*
X137821015Y-104936481D01*
X137702481Y-105055015D01*
X137563100Y-105148147D01*
X137408228Y-105212297D01*
X137243816Y-105245000D01*
X137076184Y-105245000D01*
X136911772Y-105212297D01*
X136756900Y-105148147D01*
X136617519Y-105055015D01*
X136498985Y-104936481D01*
X136405853Y-104797100D01*
X136341703Y-104642228D01*
X136309000Y-104477816D01*
X136309000Y-104310184D01*
X136341703Y-104145772D01*
X136405853Y-103990900D01*
X136498985Y-103851519D01*
X136617519Y-103732985D01*
X136756900Y-103639853D01*
X136911772Y-103575703D01*
X137076184Y-103543000D01*
X137243816Y-103543000D01*
X137408228Y-103575703D01*
X137408228Y-103575703D01*
G37*
G36*
X150026821Y-99745313D02*
X150026824Y-99745314D01*
X150026825Y-99745314D01*
X150187239Y-99793975D01*
X150187241Y-99793976D01*
X150187244Y-99793977D01*
X150335078Y-99872995D01*
X150464659Y-99979341D01*
X150571005Y-100108922D01*
X150650023Y-100256756D01*
X150650024Y-100256759D01*
X150650025Y-100256761D01*
X150698686Y-100417175D01*
X150698687Y-100417179D01*
X150715117Y-100584000D01*
X150698687Y-100750821D01*
X150698686Y-100750824D01*
X150698686Y-100750825D01*
X150661508Y-100873385D01*
X150650023Y-100911244D01*
X150571005Y-101059078D01*
X150464659Y-101188659D01*
X150335078Y-101295005D01*
X150187244Y-101374023D01*
X150187241Y-101374024D01*
X150187239Y-101374025D01*
X150026825Y-101422686D01*
X150026824Y-101422686D01*
X150026821Y-101422687D01*
X149901804Y-101435000D01*
X149818196Y-101435000D01*
X149693179Y-101422687D01*
X149693176Y-101422686D01*
X149693175Y-101422686D01*
X149532761Y-101374025D01*
X149532759Y-101374024D01*
X149532756Y-101374023D01*
X149384922Y-101295005D01*
X149255341Y-101188659D01*
X149148995Y-101059078D01*
X149069977Y-100911244D01*
X149058493Y-100873385D01*
X149021314Y-100750825D01*
X149021314Y-100750824D01*
X149021313Y-100750821D01*
X149004883Y-100584000D01*
X149021313Y-100417179D01*
X149021314Y-100417175D01*
X149069975Y-100256761D01*
X149069976Y-100256759D01*
X149069977Y-100256756D01*
X149148995Y-100108922D01*
X149255341Y-99979341D01*
X149384922Y-99872995D01*
X149532756Y-99793977D01*
X149532759Y-99793976D01*
X149532761Y-99793975D01*
X149693175Y-99745314D01*
X149693176Y-99745314D01*
X149693179Y-99745313D01*
X149818196Y-99733000D01*
X149901804Y-99733000D01*
X150026821Y-99745313D01*
X150026821Y-99745313D01*
G37*
G36*
X162808228Y-99765703D02*
X162963100Y-99829853D01*
X163102481Y-99922985D01*
X163221015Y-100041519D01*
X163314147Y-100180900D01*
X163378297Y-100335772D01*
X163411000Y-100500184D01*
X163411000Y-100667816D01*
X163378297Y-100832228D01*
X163314147Y-100987100D01*
X163221015Y-101126481D01*
X163102481Y-101245015D01*
X162963100Y-101338147D01*
X162808228Y-101402297D01*
X162643816Y-101435000D01*
X162476184Y-101435000D01*
X162311772Y-101402297D01*
X162156900Y-101338147D01*
X162017519Y-101245015D01*
X161898985Y-101126481D01*
X161805853Y-100987100D01*
X161741703Y-100832228D01*
X161709000Y-100667816D01*
X161709000Y-100500184D01*
X161741703Y-100335772D01*
X161805853Y-100180900D01*
X161898985Y-100041519D01*
X162017519Y-99922985D01*
X162156900Y-99829853D01*
X162311772Y-99765703D01*
X162476184Y-99733000D01*
X162643816Y-99733000D01*
X162808228Y-99765703D01*
X162808228Y-99765703D01*
G37*
G36*
X108764565Y-98931389D02*
X108955834Y-99010615D01*
X109127976Y-99125637D01*
X109274363Y-99272024D01*
X109389385Y-99444166D01*
X109468611Y-99635435D01*
X109509000Y-99838484D01*
X109509000Y-100045516D01*
X109468611Y-100248565D01*
X109389385Y-100439834D01*
X109274363Y-100611976D01*
X109127976Y-100758363D01*
X108955834Y-100873385D01*
X108764565Y-100952611D01*
X108561516Y-100993000D01*
X108354484Y-100993000D01*
X108151435Y-100952611D01*
X107960166Y-100873385D01*
X107788024Y-100758363D01*
X107641637Y-100611976D01*
X107526615Y-100439834D01*
X107447389Y-100248565D01*
X107407000Y-100045516D01*
X107407000Y-99838484D01*
X107447389Y-99635435D01*
X107526615Y-99444166D01*
X107641637Y-99272024D01*
X107788024Y-99125637D01*
X107960166Y-99010615D01*
X108151435Y-98931389D01*
X108354484Y-98891000D01*
X108561516Y-98891000D01*
X108764565Y-98931389D01*
X108764565Y-98931389D01*
G37*
G36*
X134478915Y-95473334D02*
X134587491Y-95506271D01*
X134687556Y-95559756D01*
X134775264Y-95631736D01*
X134847244Y-95719443D01*
X134900729Y-95819508D01*
X134933666Y-95928084D01*
X134942000Y-96012702D01*
X134942000Y-96519297D01*
X134933666Y-96603916D01*
X134900729Y-96712492D01*
X134847244Y-96812557D01*
X134775264Y-96900264D01*
X134687557Y-96972244D01*
X134587492Y-97025729D01*
X134478916Y-97058666D01*
X134366000Y-97069787D01*
X134253085Y-97058666D01*
X134144509Y-97025729D01*
X134044444Y-96972244D01*
X133956737Y-96900264D01*
X133884757Y-96812557D01*
X133841240Y-96731143D01*
X133827627Y-96710768D01*
X133810299Y-96693441D01*
X133789925Y-96679827D01*
X133767286Y-96670450D01*
X133743253Y-96665669D01*
X133718748Y-96665669D01*
X133694715Y-96670449D01*
X133672076Y-96679827D01*
X133651701Y-96693440D01*
X133634374Y-96710768D01*
X133620760Y-96731143D01*
X133577244Y-96812557D01*
X133505264Y-96900264D01*
X133417557Y-96972244D01*
X133317492Y-97025729D01*
X133208916Y-97058666D01*
X133096000Y-97069787D01*
X132983085Y-97058666D01*
X132874509Y-97025729D01*
X132774444Y-96972244D01*
X132686737Y-96900264D01*
X132623626Y-96823364D01*
X132606299Y-96806036D01*
X132585924Y-96792423D01*
X132563285Y-96783045D01*
X132539252Y-96778265D01*
X132514748Y-96778265D01*
X132490714Y-96783046D01*
X132468075Y-96792423D01*
X132447701Y-96806037D01*
X132430373Y-96823364D01*
X132416760Y-96843739D01*
X132407382Y-96866378D01*
X132402000Y-96902663D01*
X132402000Y-97067000D01*
X131250000Y-97067000D01*
X131250000Y-95465000D01*
X132402000Y-95465000D01*
X132402000Y-95629337D01*
X132404402Y-95653723D01*
X132411515Y-95677172D01*
X132423066Y-95698783D01*
X132438612Y-95717725D01*
X132457554Y-95733271D01*
X132479165Y-95744822D01*
X132502614Y-95751935D01*
X132527000Y-95754337D01*
X132551386Y-95751935D01*
X132574835Y-95744822D01*
X132596446Y-95733271D01*
X132623626Y-95708636D01*
X132686734Y-95631739D01*
X132686736Y-95631736D01*
X132774443Y-95559756D01*
X132874508Y-95506271D01*
X132983084Y-95473334D01*
X133096000Y-95462213D01*
X133208915Y-95473334D01*
X133317491Y-95506271D01*
X133417556Y-95559756D01*
X133505264Y-95631736D01*
X133577244Y-95719443D01*
X133620767Y-95800869D01*
X133634373Y-95821232D01*
X133651700Y-95838560D01*
X133672075Y-95852174D01*
X133694713Y-95861551D01*
X133718747Y-95866332D01*
X133743251Y-95866332D01*
X133767285Y-95861552D01*
X133789924Y-95852175D01*
X133810298Y-95838561D01*
X133827626Y-95821234D01*
X133841240Y-95800858D01*
X133884756Y-95719444D01*
X133956734Y-95631739D01*
X133956736Y-95631736D01*
X134044443Y-95559756D01*
X134144508Y-95506271D01*
X134253084Y-95473334D01*
X134366000Y-95462213D01*
X134478915Y-95473334D01*
X134478915Y-95473334D01*
G37*
G36*
X94318855Y-95332140D02*
X94382618Y-95338420D01*
X94464427Y-95363237D01*
X94505333Y-95375645D01*
X94605491Y-95429181D01*
X94618426Y-95436095D01*
X94717553Y-95517447D01*
X94798905Y-95616574D01*
X94798906Y-95616576D01*
X94859355Y-95729667D01*
X94859355Y-95729668D01*
X94896580Y-95852382D01*
X94909149Y-95980000D01*
X94896580Y-96107618D01*
X94871763Y-96189427D01*
X94859355Y-96230333D01*
X94805819Y-96330491D01*
X94798905Y-96343426D01*
X94717553Y-96442553D01*
X94618426Y-96523905D01*
X94618424Y-96523906D01*
X94505333Y-96584355D01*
X94464427Y-96596763D01*
X94382618Y-96621580D01*
X94318855Y-96627860D01*
X94286974Y-96631000D01*
X93673026Y-96631000D01*
X93641145Y-96627860D01*
X93577382Y-96621580D01*
X93495573Y-96596763D01*
X93454667Y-96584355D01*
X93341576Y-96523906D01*
X93341574Y-96523905D01*
X93242447Y-96442553D01*
X93161095Y-96343426D01*
X93154181Y-96330491D01*
X93100645Y-96230333D01*
X93088237Y-96189427D01*
X93063420Y-96107618D01*
X93050851Y-95980000D01*
X93063420Y-95852382D01*
X93100645Y-95729668D01*
X93100645Y-95729667D01*
X93161094Y-95616576D01*
X93161095Y-95616574D01*
X93242447Y-95517447D01*
X93341574Y-95436095D01*
X93354509Y-95429181D01*
X93454667Y-95375645D01*
X93495573Y-95363237D01*
X93577382Y-95338420D01*
X93641145Y-95332140D01*
X93673026Y-95329000D01*
X94286974Y-95329000D01*
X94318855Y-95332140D01*
X94318855Y-95332140D01*
G37*
G36*
X94746242Y-93333404D02*
X94783339Y-93344657D01*
X94817520Y-93362927D01*
X94847482Y-93387518D01*
X94872073Y-93417480D01*
X94890343Y-93451661D01*
X94901596Y-93488758D01*
X94906000Y-93533473D01*
X94906000Y-94426527D01*
X94901596Y-94471242D01*
X94890343Y-94508339D01*
X94872073Y-94542520D01*
X94847482Y-94572482D01*
X94817520Y-94597073D01*
X94783339Y-94615343D01*
X94746242Y-94626596D01*
X94701527Y-94631000D01*
X93258473Y-94631000D01*
X93213758Y-94626596D01*
X93176661Y-94615343D01*
X93142480Y-94597073D01*
X93112518Y-94572482D01*
X93087927Y-94542520D01*
X93069657Y-94508339D01*
X93058404Y-94471242D01*
X93054000Y-94426527D01*
X93054000Y-93533473D01*
X93058404Y-93488758D01*
X93069657Y-93451661D01*
X93087927Y-93417480D01*
X93112518Y-93387518D01*
X93142480Y-93362927D01*
X93176661Y-93344657D01*
X93213758Y-93333404D01*
X93258473Y-93329000D01*
X94701527Y-93329000D01*
X94746242Y-93333404D01*
X94746242Y-93333404D01*
G37*
G36*
X119038821Y-92379313D02*
X119038824Y-92379314D01*
X119038825Y-92379314D01*
X119199239Y-92427975D01*
X119199241Y-92427976D01*
X119199244Y-92427977D01*
X119347078Y-92506995D01*
X119476659Y-92613341D01*
X119583005Y-92742922D01*
X119662023Y-92890756D01*
X119710687Y-93051179D01*
X119727117Y-93218000D01*
X119710687Y-93384821D01*
X119710686Y-93384824D01*
X119710686Y-93384825D01*
X119676826Y-93496447D01*
X119662023Y-93545244D01*
X119583005Y-93693078D01*
X119476659Y-93822659D01*
X119347078Y-93929005D01*
X119199244Y-94008023D01*
X119199241Y-94008024D01*
X119199239Y-94008025D01*
X119038825Y-94056686D01*
X119038824Y-94056686D01*
X119038821Y-94056687D01*
X118913804Y-94069000D01*
X118830196Y-94069000D01*
X118705179Y-94056687D01*
X118705176Y-94056686D01*
X118705175Y-94056686D01*
X118544761Y-94008025D01*
X118544759Y-94008024D01*
X118544756Y-94008023D01*
X118396922Y-93929005D01*
X118267341Y-93822659D01*
X118160995Y-93693078D01*
X118081977Y-93545244D01*
X118067175Y-93496447D01*
X118033314Y-93384825D01*
X118033314Y-93384824D01*
X118033313Y-93384821D01*
X118016883Y-93218000D01*
X118033313Y-93051179D01*
X118081977Y-92890756D01*
X118160995Y-92742922D01*
X118267341Y-92613341D01*
X118396922Y-92506995D01*
X118544756Y-92427977D01*
X118544759Y-92427976D01*
X118544761Y-92427975D01*
X118705175Y-92379314D01*
X118705176Y-92379314D01*
X118705179Y-92379313D01*
X118830196Y-92367000D01*
X118913804Y-92367000D01*
X119038821Y-92379313D01*
X119038821Y-92379313D01*
G37*
M02*
