M48
INCH,TZ
T1C0.0295
T2C0.0315
T3C0.0394
%
G90
G05
T1
X62900Y-51513
X62900Y-52300
X36900Y-42900
X51900Y-37900
X52400Y-37900
X52900Y-37900
X37000Y-37000
X37000Y-37787
X63000Y-46313
X63000Y-47100
X36900Y-43687
T2
X47900Y-50400
X52900Y-50400
X52600Y-43900
X52600Y-46900
X53600Y-43900
X53600Y-46900
X54600Y-43900
X54600Y-46900
X55600Y-43900
X55600Y-46900
X57700Y-43200
X57700Y-48200
X37500Y-45800
X37500Y-50800
X40100Y-43900
X40100Y-46900
X41100Y-43900
X41100Y-46900
X42100Y-43900
X42100Y-46900
X43100Y-43900
X43100Y-46900
X46800Y-36700
X46800Y-41700
X52000Y-53500
X57000Y-53500
X49000Y-41100
X54000Y-41100
X45400Y-53500
X50400Y-53500
X58300Y-41600
X63300Y-41600
X59000Y-39600
X64000Y-39600
T3
X42700Y-39347
X42700Y-42300
X46100Y-43900
X46100Y-46853
X49500Y-43900
X49500Y-46853
T0
M30
