G04 #@! TF.GenerationSoftware,KiCad,Pcbnew,(5.0.1)-rc2*
G04 #@! TF.CreationDate,2018-10-16T02:33:53-04:00*
G04 #@! TF.ProjectId,vco2,76636F322E6B696361645F7063620000,1*
G04 #@! TF.SameCoordinates,Original*
G04 #@! TF.FileFunction,Copper,L1,Top,Signal*
G04 #@! TF.FilePolarity,Positive*
%FSLAX46Y46*%
G04 Gerber Fmt 4.6, Leading zero omitted, Abs format (unit mm)*
G04 Created by KiCad (PCBNEW (5.0.1)-rc2) date 10/16/2018 2:33:53 AM*
%MOMM*%
%LPD*%
G01*
G04 APERTURE LIST*
G04 #@! TA.AperFunction,ComponentPad*
%ADD10O,1.600000X1.600000*%
G04 #@! TD*
G04 #@! TA.AperFunction,ComponentPad*
%ADD11C,1.600000*%
G04 #@! TD*
G04 #@! TA.AperFunction,ComponentPad*
%ADD12C,2.000000*%
G04 #@! TD*
G04 #@! TA.AperFunction,Conductor*
%ADD13C,0.100000*%
G04 #@! TD*
G04 #@! TA.AperFunction,ComponentPad*
%ADD14C,1.200000*%
G04 #@! TD*
G04 #@! TA.AperFunction,ComponentPad*
%ADD15O,1.750000X1.200000*%
G04 #@! TD*
G04 #@! TA.AperFunction,ComponentPad*
%ADD16O,1.050000X1.500000*%
G04 #@! TD*
G04 #@! TA.AperFunction,ComponentPad*
%ADD17R,1.050000X1.500000*%
G04 #@! TD*
G04 #@! TA.AperFunction,ComponentPad*
%ADD18R,1.600000X1.600000*%
G04 #@! TD*
G04 #@! TA.AperFunction,Conductor*
%ADD19C,0.250000*%
G04 #@! TD*
G04 #@! TA.AperFunction,Conductor*
%ADD20C,0.381000*%
G04 #@! TD*
G04 #@! TA.AperFunction,Conductor*
%ADD21C,0.152400*%
G04 #@! TD*
G04 #@! TA.AperFunction,Conductor*
%ADD22C,0.254000*%
G04 #@! TD*
G04 APERTURE END LIST*
D10*
G04 #@! TO.P,R12,2*
G04 #@! TO.N,Net-(R12-Pad2)*
X95250000Y-129032000D03*
D11*
G04 #@! TO.P,R12,1*
G04 #@! TO.N,GND*
X95250000Y-116332000D03*
G04 #@! TD*
D12*
G04 #@! TO.P,C2,1*
G04 #@! TO.N,Net-(C2-Pad1)*
X108458000Y-107442000D03*
G04 #@! TO.P,C2,2*
G04 #@! TO.N,Net-(C2-Pad2)*
X108458000Y-99942000D03*
G04 #@! TD*
G04 #@! TO.P,C3,2*
G04 #@! TO.N,+5V*
X117094000Y-119006000D03*
G04 #@! TO.P,C3,1*
G04 #@! TO.N,GND*
X117094000Y-111506000D03*
G04 #@! TD*
G04 #@! TO.P,C4,1*
G04 #@! TO.N,GND*
X125730000Y-111506000D03*
G04 #@! TO.P,C4,2*
G04 #@! TO.N,+5V*
X125730000Y-119006000D03*
G04 #@! TD*
D13*
G04 #@! TO.N,Net-(J1-Pad1)*
G04 #@! TO.C,J1*
G36*
X160415505Y-132243204D02*
X160439773Y-132246804D01*
X160463572Y-132252765D01*
X160486671Y-132261030D01*
X160508850Y-132271520D01*
X160529893Y-132284132D01*
X160549599Y-132298747D01*
X160567777Y-132315223D01*
X160584253Y-132333401D01*
X160598868Y-132353107D01*
X160611480Y-132374150D01*
X160621970Y-132396329D01*
X160630235Y-132419428D01*
X160636196Y-132443227D01*
X160639796Y-132467495D01*
X160641000Y-132491999D01*
X160641000Y-133192001D01*
X160639796Y-133216505D01*
X160636196Y-133240773D01*
X160630235Y-133264572D01*
X160621970Y-133287671D01*
X160611480Y-133309850D01*
X160598868Y-133330893D01*
X160584253Y-133350599D01*
X160567777Y-133368777D01*
X160549599Y-133385253D01*
X160529893Y-133399868D01*
X160508850Y-133412480D01*
X160486671Y-133422970D01*
X160463572Y-133431235D01*
X160439773Y-133437196D01*
X160415505Y-133440796D01*
X160391001Y-133442000D01*
X159140999Y-133442000D01*
X159116495Y-133440796D01*
X159092227Y-133437196D01*
X159068428Y-133431235D01*
X159045329Y-133422970D01*
X159023150Y-133412480D01*
X159002107Y-133399868D01*
X158982401Y-133385253D01*
X158964223Y-133368777D01*
X158947747Y-133350599D01*
X158933132Y-133330893D01*
X158920520Y-133309850D01*
X158910030Y-133287671D01*
X158901765Y-133264572D01*
X158895804Y-133240773D01*
X158892204Y-133216505D01*
X158891000Y-133192001D01*
X158891000Y-132491999D01*
X158892204Y-132467495D01*
X158895804Y-132443227D01*
X158901765Y-132419428D01*
X158910030Y-132396329D01*
X158920520Y-132374150D01*
X158933132Y-132353107D01*
X158947747Y-132333401D01*
X158964223Y-132315223D01*
X158982401Y-132298747D01*
X159002107Y-132284132D01*
X159023150Y-132271520D01*
X159045329Y-132261030D01*
X159068428Y-132252765D01*
X159092227Y-132246804D01*
X159116495Y-132243204D01*
X159140999Y-132242000D01*
X160391001Y-132242000D01*
X160415505Y-132243204D01*
X160415505Y-132243204D01*
G37*
D14*
G04 #@! TD*
G04 #@! TO.P,J1,1*
G04 #@! TO.N,Net-(J1-Pad1)*
X159766000Y-132842000D03*
D15*
G04 #@! TO.P,J1,2*
G04 #@! TO.N,GND*
X159766000Y-130842000D03*
G04 #@! TD*
G04 #@! TO.P,J2,2*
G04 #@! TO.N,GND*
X160020000Y-117634000D03*
D13*
G04 #@! TD*
G04 #@! TO.N,+5V*
G04 #@! TO.C,J2*
G36*
X160669505Y-119035204D02*
X160693773Y-119038804D01*
X160717572Y-119044765D01*
X160740671Y-119053030D01*
X160762850Y-119063520D01*
X160783893Y-119076132D01*
X160803599Y-119090747D01*
X160821777Y-119107223D01*
X160838253Y-119125401D01*
X160852868Y-119145107D01*
X160865480Y-119166150D01*
X160875970Y-119188329D01*
X160884235Y-119211428D01*
X160890196Y-119235227D01*
X160893796Y-119259495D01*
X160895000Y-119283999D01*
X160895000Y-119984001D01*
X160893796Y-120008505D01*
X160890196Y-120032773D01*
X160884235Y-120056572D01*
X160875970Y-120079671D01*
X160865480Y-120101850D01*
X160852868Y-120122893D01*
X160838253Y-120142599D01*
X160821777Y-120160777D01*
X160803599Y-120177253D01*
X160783893Y-120191868D01*
X160762850Y-120204480D01*
X160740671Y-120214970D01*
X160717572Y-120223235D01*
X160693773Y-120229196D01*
X160669505Y-120232796D01*
X160645001Y-120234000D01*
X159394999Y-120234000D01*
X159370495Y-120232796D01*
X159346227Y-120229196D01*
X159322428Y-120223235D01*
X159299329Y-120214970D01*
X159277150Y-120204480D01*
X159256107Y-120191868D01*
X159236401Y-120177253D01*
X159218223Y-120160777D01*
X159201747Y-120142599D01*
X159187132Y-120122893D01*
X159174520Y-120101850D01*
X159164030Y-120079671D01*
X159155765Y-120056572D01*
X159149804Y-120032773D01*
X159146204Y-120008505D01*
X159145000Y-119984001D01*
X159145000Y-119283999D01*
X159146204Y-119259495D01*
X159149804Y-119235227D01*
X159155765Y-119211428D01*
X159164030Y-119188329D01*
X159174520Y-119166150D01*
X159187132Y-119145107D01*
X159201747Y-119125401D01*
X159218223Y-119107223D01*
X159236401Y-119090747D01*
X159256107Y-119076132D01*
X159277150Y-119063520D01*
X159299329Y-119053030D01*
X159322428Y-119044765D01*
X159346227Y-119038804D01*
X159370495Y-119035204D01*
X159394999Y-119034000D01*
X160645001Y-119034000D01*
X160669505Y-119035204D01*
X160669505Y-119035204D01*
G37*
D14*
G04 #@! TO.P,J2,1*
G04 #@! TO.N,+5V*
X160020000Y-119634000D03*
G04 #@! TD*
D15*
G04 #@! TO.P,J3,2*
G04 #@! TO.N,GND*
X93726000Y-110966000D03*
D13*
G04 #@! TD*
G04 #@! TO.N,Net-(J3-Pad1)*
G04 #@! TO.C,J3*
G36*
X94375505Y-108367204D02*
X94399773Y-108370804D01*
X94423572Y-108376765D01*
X94446671Y-108385030D01*
X94468850Y-108395520D01*
X94489893Y-108408132D01*
X94509599Y-108422747D01*
X94527777Y-108439223D01*
X94544253Y-108457401D01*
X94558868Y-108477107D01*
X94571480Y-108498150D01*
X94581970Y-108520329D01*
X94590235Y-108543428D01*
X94596196Y-108567227D01*
X94599796Y-108591495D01*
X94601000Y-108615999D01*
X94601000Y-109316001D01*
X94599796Y-109340505D01*
X94596196Y-109364773D01*
X94590235Y-109388572D01*
X94581970Y-109411671D01*
X94571480Y-109433850D01*
X94558868Y-109454893D01*
X94544253Y-109474599D01*
X94527777Y-109492777D01*
X94509599Y-109509253D01*
X94489893Y-109523868D01*
X94468850Y-109536480D01*
X94446671Y-109546970D01*
X94423572Y-109555235D01*
X94399773Y-109561196D01*
X94375505Y-109564796D01*
X94351001Y-109566000D01*
X93100999Y-109566000D01*
X93076495Y-109564796D01*
X93052227Y-109561196D01*
X93028428Y-109555235D01*
X93005329Y-109546970D01*
X92983150Y-109536480D01*
X92962107Y-109523868D01*
X92942401Y-109509253D01*
X92924223Y-109492777D01*
X92907747Y-109474599D01*
X92893132Y-109454893D01*
X92880520Y-109433850D01*
X92870030Y-109411671D01*
X92861765Y-109388572D01*
X92855804Y-109364773D01*
X92852204Y-109340505D01*
X92851000Y-109316001D01*
X92851000Y-108615999D01*
X92852204Y-108591495D01*
X92855804Y-108567227D01*
X92861765Y-108543428D01*
X92870030Y-108520329D01*
X92880520Y-108498150D01*
X92893132Y-108477107D01*
X92907747Y-108457401D01*
X92924223Y-108439223D01*
X92942401Y-108422747D01*
X92962107Y-108408132D01*
X92983150Y-108395520D01*
X93005329Y-108385030D01*
X93028428Y-108376765D01*
X93052227Y-108370804D01*
X93076495Y-108367204D01*
X93100999Y-108366000D01*
X94351001Y-108366000D01*
X94375505Y-108367204D01*
X94375505Y-108367204D01*
G37*
D14*
G04 #@! TO.P,J3,1*
G04 #@! TO.N,Net-(J3-Pad1)*
X93726000Y-108966000D03*
G04 #@! TD*
D13*
G04 #@! TO.N,Net-(J4-Pad1)*
G04 #@! TO.C,J4*
G36*
X94629505Y-93381204D02*
X94653773Y-93384804D01*
X94677572Y-93390765D01*
X94700671Y-93399030D01*
X94722850Y-93409520D01*
X94743893Y-93422132D01*
X94763599Y-93436747D01*
X94781777Y-93453223D01*
X94798253Y-93471401D01*
X94812868Y-93491107D01*
X94825480Y-93512150D01*
X94835970Y-93534329D01*
X94844235Y-93557428D01*
X94850196Y-93581227D01*
X94853796Y-93605495D01*
X94855000Y-93629999D01*
X94855000Y-94330001D01*
X94853796Y-94354505D01*
X94850196Y-94378773D01*
X94844235Y-94402572D01*
X94835970Y-94425671D01*
X94825480Y-94447850D01*
X94812868Y-94468893D01*
X94798253Y-94488599D01*
X94781777Y-94506777D01*
X94763599Y-94523253D01*
X94743893Y-94537868D01*
X94722850Y-94550480D01*
X94700671Y-94560970D01*
X94677572Y-94569235D01*
X94653773Y-94575196D01*
X94629505Y-94578796D01*
X94605001Y-94580000D01*
X93354999Y-94580000D01*
X93330495Y-94578796D01*
X93306227Y-94575196D01*
X93282428Y-94569235D01*
X93259329Y-94560970D01*
X93237150Y-94550480D01*
X93216107Y-94537868D01*
X93196401Y-94523253D01*
X93178223Y-94506777D01*
X93161747Y-94488599D01*
X93147132Y-94468893D01*
X93134520Y-94447850D01*
X93124030Y-94425671D01*
X93115765Y-94402572D01*
X93109804Y-94378773D01*
X93106204Y-94354505D01*
X93105000Y-94330001D01*
X93105000Y-93629999D01*
X93106204Y-93605495D01*
X93109804Y-93581227D01*
X93115765Y-93557428D01*
X93124030Y-93534329D01*
X93134520Y-93512150D01*
X93147132Y-93491107D01*
X93161747Y-93471401D01*
X93178223Y-93453223D01*
X93196401Y-93436747D01*
X93216107Y-93422132D01*
X93237150Y-93409520D01*
X93259329Y-93399030D01*
X93282428Y-93390765D01*
X93306227Y-93384804D01*
X93330495Y-93381204D01*
X93354999Y-93380000D01*
X94605001Y-93380000D01*
X94629505Y-93381204D01*
X94629505Y-93381204D01*
G37*
D14*
G04 #@! TD*
G04 #@! TO.P,J4,1*
G04 #@! TO.N,Net-(J4-Pad1)*
X93980000Y-93980000D03*
D15*
G04 #@! TO.P,J4,2*
G04 #@! TO.N,GND*
X93980000Y-95980000D03*
G04 #@! TD*
D16*
G04 #@! TO.P,Q3,2*
G04 #@! TO.N,Net-(Q3-Pad2)*
X133096000Y-96266000D03*
G04 #@! TO.P,Q3,3*
G04 #@! TO.N,GND*
X134366000Y-96266000D03*
D17*
G04 #@! TO.P,Q3,1*
G04 #@! TO.N,Net-(Q3-Pad1)*
X131826000Y-96266000D03*
G04 #@! TD*
D11*
G04 #@! TO.P,R7,1*
G04 #@! TO.N,Net-(C2-Pad2)*
X148082000Y-105664000D03*
D10*
G04 #@! TO.P,R7,2*
G04 #@! TO.N,Net-(J1-Pad1)*
X160782000Y-105664000D03*
G04 #@! TD*
D11*
G04 #@! TO.P,R8,1*
G04 #@! TO.N,Net-(R12-Pad2)*
X121666000Y-128016000D03*
D10*
G04 #@! TO.P,R8,2*
G04 #@! TO.N,+5V*
X134366000Y-128016000D03*
G04 #@! TD*
G04 #@! TO.P,R9,2*
G04 #@! TO.N,Net-(R10-Pad1)*
X149860000Y-100584000D03*
D11*
G04 #@! TO.P,R9,1*
G04 #@! TO.N,Net-(J1-Pad1)*
X162560000Y-100584000D03*
G04 #@! TD*
G04 #@! TO.P,R10,1*
G04 #@! TO.N,Net-(R10-Pad1)*
X137160000Y-104394000D03*
D10*
G04 #@! TO.P,R10,2*
G04 #@! TO.N,GND*
X124460000Y-104394000D03*
G04 #@! TD*
G04 #@! TO.P,R11,2*
G04 #@! TO.N,Net-(Q3-Pad1)*
X118872000Y-93218000D03*
D11*
G04 #@! TO.P,R11,1*
G04 #@! TO.N,Net-(C2-Pad2)*
X118872000Y-105918000D03*
G04 #@! TD*
D10*
G04 #@! TO.P,R13,2*
G04 #@! TO.N,Net-(R12-Pad2)*
X115316000Y-135890000D03*
D11*
G04 #@! TO.P,R13,1*
G04 #@! TO.N,Net-(R13-Pad1)*
X128016000Y-135890000D03*
G04 #@! TD*
G04 #@! TO.P,R14,1*
G04 #@! TO.N,Net-(R14-Pad1)*
X144780000Y-135890000D03*
D10*
G04 #@! TO.P,R14,2*
G04 #@! TO.N,Net-(R13-Pad1)*
X132080000Y-135890000D03*
G04 #@! TD*
D11*
G04 #@! TO.P,R15,1*
G04 #@! TO.N,Net-(R14-Pad1)*
X146558000Y-122428000D03*
D10*
G04 #@! TO.P,R15,2*
G04 #@! TO.N,Net-(Q3-Pad2)*
X146558000Y-109728000D03*
G04 #@! TD*
D18*
G04 #@! TO.P,U3,1*
G04 #@! TO.N,Net-(C2-Pad1)*
X141224000Y-111506000D03*
D10*
G04 #@! TO.P,U3,5*
G04 #@! TO.N,Net-(R13-Pad1)*
X133604000Y-119126000D03*
G04 #@! TO.P,U3,2*
G04 #@! TO.N,Net-(C2-Pad2)*
X138684000Y-111506000D03*
G04 #@! TO.P,U3,6*
G04 #@! TO.N,Net-(C2-Pad1)*
X136144000Y-119126000D03*
G04 #@! TO.P,U3,3*
G04 #@! TO.N,Net-(R10-Pad1)*
X136144000Y-111506000D03*
G04 #@! TO.P,U3,7*
G04 #@! TO.N,Net-(R14-Pad1)*
X138684000Y-119126000D03*
G04 #@! TO.P,U3,4*
G04 #@! TO.N,GND*
X133604000Y-111506000D03*
G04 #@! TO.P,U3,8*
G04 #@! TO.N,+5V*
X141224000Y-119126000D03*
G04 #@! TD*
G04 #@! TO.P,U4,8*
G04 #@! TO.N,+5V*
X109474000Y-119126000D03*
G04 #@! TO.P,U4,4*
G04 #@! TO.N,GND*
X101854000Y-111506000D03*
G04 #@! TO.P,U4,7*
G04 #@! TO.N,Net-(J4-Pad1)*
X106934000Y-119126000D03*
G04 #@! TO.P,U4,3*
G04 #@! TO.N,Net-(C2-Pad1)*
X104394000Y-111506000D03*
G04 #@! TO.P,U4,6*
G04 #@! TO.N,Net-(J4-Pad1)*
X104394000Y-119126000D03*
G04 #@! TO.P,U4,2*
G04 #@! TO.N,Net-(J3-Pad1)*
X106934000Y-111506000D03*
G04 #@! TO.P,U4,5*
G04 #@! TO.N,Net-(R14-Pad1)*
X101854000Y-119126000D03*
D18*
G04 #@! TO.P,U4,1*
G04 #@! TO.N,Net-(J3-Pad1)*
X109474000Y-111506000D03*
G04 #@! TD*
D19*
G04 #@! TO.N,Net-(C2-Pad1)*
X104394000Y-111506000D02*
X108458000Y-107442000D01*
X109457999Y-108441999D02*
X108458000Y-107442000D01*
X113847001Y-112831001D02*
X113792000Y-112776000D01*
X141224000Y-114046000D02*
X136144000Y-119126000D01*
X141224000Y-111506000D02*
X141224000Y-114046000D01*
X112776000Y-112014000D02*
X112776000Y-111760000D01*
X118312990Y-117550990D02*
X112776000Y-112014000D01*
X134568990Y-117550990D02*
X118312990Y-117550990D01*
X136144000Y-119126000D02*
X134568990Y-117550990D01*
X113792000Y-112776000D02*
X112776000Y-111760000D01*
X112776000Y-111760000D02*
X109457999Y-108441999D01*
G04 #@! TO.N,Net-(C2-Pad2)*
X114434000Y-105918000D02*
X118872000Y-105918000D01*
X108458000Y-99942000D02*
X114434000Y-105918000D01*
X120003370Y-105918000D02*
X118872000Y-105918000D01*
X129681002Y-105918000D02*
X120003370Y-105918000D01*
X134729001Y-110965999D02*
X129681002Y-105918000D01*
X134729001Y-111994591D02*
X134729001Y-110965999D01*
X136272410Y-113538000D02*
X134729001Y-111994591D01*
X137783370Y-113538000D02*
X136272410Y-113538000D01*
X138684000Y-112637370D02*
X137783370Y-113538000D01*
X138684000Y-111506000D02*
X138684000Y-112637370D01*
X139483999Y-110706001D02*
X138684000Y-111506000D01*
X139809001Y-110380999D02*
X139483999Y-110706001D01*
X142284001Y-110380999D02*
X139809001Y-110380999D01*
X144425002Y-112522000D02*
X142284001Y-110380999D01*
X148082000Y-112522000D02*
X144425002Y-112522000D01*
X148082000Y-105664000D02*
X148082000Y-112522000D01*
G04 #@! TO.N,+5V*
X116974000Y-119126000D02*
X117094000Y-119006000D01*
X109474000Y-119126000D02*
X116974000Y-119126000D01*
X142240000Y-118110000D02*
X141224000Y-119126000D01*
X126729999Y-118006001D02*
X125730000Y-119006000D01*
X126735001Y-118000999D02*
X126729999Y-118006001D01*
X134144001Y-118000999D02*
X126735001Y-118000999D01*
X134729001Y-118585999D02*
X134144001Y-118000999D01*
X136684001Y-120251001D02*
X135491001Y-120251001D01*
X137269001Y-119666001D02*
X136684001Y-120251001D01*
X137269001Y-118762999D02*
X137269001Y-119666001D01*
X138111795Y-117920205D02*
X137269001Y-118762999D01*
X140018205Y-117920205D02*
X138111795Y-117920205D01*
X134729001Y-119489001D02*
X134729001Y-118585999D01*
X141224000Y-119126000D02*
X140018205Y-117920205D01*
X134366000Y-121158000D02*
X135382000Y-120142000D01*
X134366000Y-126238000D02*
X134366000Y-121158000D01*
X135382000Y-120142000D02*
X134729001Y-119489001D01*
X135491001Y-120251001D02*
X135382000Y-120142000D01*
X134366000Y-126238000D02*
X134366000Y-125984000D01*
X134366000Y-128016000D02*
X134366000Y-126238000D01*
X118508213Y-119006000D02*
X125730000Y-119006000D01*
X117094000Y-119006000D02*
X118508213Y-119006000D01*
X155194000Y-119634000D02*
X153670000Y-118110000D01*
X160020000Y-119634000D02*
X155194000Y-119634000D01*
X154178000Y-118110000D02*
X153670000Y-118110000D01*
X153670000Y-118110000D02*
X142240000Y-118110000D01*
G04 #@! TO.N,GND*
X93451000Y-110966000D02*
X93726000Y-110966000D01*
X101854000Y-111506000D02*
X108204000Y-105156000D01*
X110744000Y-105156000D02*
X117094000Y-111506000D01*
X108204000Y-105156000D02*
X110744000Y-105156000D01*
X125730000Y-111506000D02*
X133604000Y-111506000D01*
X101314000Y-110966000D02*
X101854000Y-111506000D01*
X159766000Y-129992000D02*
X159766000Y-130842000D01*
X161220010Y-128537990D02*
X159766000Y-129992000D01*
X161220010Y-117709010D02*
X161220010Y-128537990D01*
X161145000Y-117634000D02*
X161220010Y-117709010D01*
X160020000Y-117634000D02*
X161145000Y-117634000D01*
X159798000Y-117856000D02*
X160020000Y-117634000D01*
X93726000Y-110966000D02*
X93726000Y-111816000D01*
X94940000Y-114890630D02*
X94940000Y-113030000D01*
X95250000Y-115200630D02*
X94940000Y-114890630D01*
X95250000Y-116332000D02*
X95250000Y-115200630D01*
X93726000Y-111816000D02*
X94940000Y-113030000D01*
X94940000Y-113030000D02*
X94996000Y-113086000D01*
X123660001Y-103594001D02*
X116040001Y-103594001D01*
X124460000Y-104394000D02*
X123660001Y-103594001D01*
X101854000Y-110374630D02*
X101854000Y-111506000D01*
X101854000Y-104584998D02*
X101854000Y-110374630D01*
X107821999Y-98616999D02*
X101854000Y-104584998D01*
X116040001Y-103594001D02*
X111062999Y-98616999D01*
X93705000Y-95980000D02*
X93980000Y-95980000D01*
X94255000Y-95980000D02*
X96891999Y-98616999D01*
X111062999Y-98616999D02*
X108204000Y-98616999D01*
X108204000Y-98616999D02*
X107821999Y-98616999D01*
X96381370Y-116332000D02*
X95250000Y-116332000D01*
X98172410Y-116332000D02*
X96381370Y-116332000D01*
X101854000Y-112650410D02*
X98172410Y-116332000D01*
X101854000Y-111506000D02*
X101854000Y-112650410D01*
X117094000Y-111506000D02*
X125730000Y-111506000D01*
X99060000Y-106757000D02*
X99060000Y-98616999D01*
X94851000Y-110966000D02*
X99060000Y-106757000D01*
X93726000Y-110966000D02*
X94851000Y-110966000D01*
X96891999Y-98616999D02*
X99060000Y-98616999D01*
X99060000Y-98616999D02*
X108204000Y-98616999D01*
X93980000Y-95980000D02*
X94255000Y-95980000D01*
X125591370Y-104394000D02*
X124460000Y-104394000D01*
X127238000Y-104394000D02*
X125591370Y-104394000D01*
X134366000Y-97266000D02*
X127238000Y-104394000D01*
X134366000Y-96266000D02*
X134366000Y-97266000D01*
D20*
X98142001Y-92092999D02*
X94255000Y-95980000D01*
X154801999Y-92092999D02*
X98142001Y-92092999D01*
X157226000Y-94517000D02*
X154801999Y-92092999D01*
X157226000Y-113990000D02*
X157226000Y-94517000D01*
X160020000Y-116784000D02*
X157226000Y-113990000D01*
D19*
X160020000Y-117634000D02*
X160020000Y-116784000D01*
G04 #@! TO.N,Net-(J1-Pad1)*
X162560000Y-103886000D02*
X162560000Y-100584000D01*
X160782000Y-105664000D02*
X162306000Y-104140000D01*
X162306000Y-104140000D02*
X162560000Y-103886000D01*
X161581999Y-106463999D02*
X160782000Y-105664000D01*
X161670020Y-106552020D02*
X161581999Y-106463999D01*
D21*
X166116000Y-110998000D02*
X166116000Y-126492000D01*
X161670020Y-106552020D02*
X166116000Y-110998000D01*
X166116000Y-126492000D02*
X161544000Y-131064000D01*
D19*
X159766000Y-132842000D02*
X161544000Y-131064000D01*
X161544000Y-131064000D02*
X161670020Y-130937980D01*
G04 #@! TO.N,Net-(J3-Pad1)*
X108065370Y-111506000D02*
X109474000Y-111506000D01*
X106934000Y-111506000D02*
X108065370Y-111506000D01*
X93055290Y-109636710D02*
X93726000Y-108966000D01*
X92525990Y-110166010D02*
X93055290Y-109636710D01*
X92525990Y-115272992D02*
X92525990Y-110166010D01*
X94709999Y-117457001D02*
X92525990Y-115272992D01*
X95790001Y-117457001D02*
X94709999Y-117457001D01*
X96464992Y-116782010D02*
X95790001Y-117457001D01*
X101657990Y-116782010D02*
X96464992Y-116782010D01*
X106934000Y-111506000D02*
X101657990Y-116782010D01*
G04 #@! TO.N,Net-(J4-Pad1)*
X104394000Y-119126000D02*
X104394000Y-117994630D01*
X106134001Y-119925999D02*
X106934000Y-119126000D01*
X105193999Y-119925999D02*
X106134001Y-119925999D01*
X104394000Y-119126000D02*
X105193999Y-119925999D01*
X92525990Y-95434010D02*
X93980000Y-93980000D01*
X103378000Y-118110000D02*
X103268999Y-118000999D01*
X104394000Y-119126000D02*
X103378000Y-118110000D01*
X91186000Y-96774000D02*
X92525990Y-95434010D01*
X91186000Y-114569412D02*
X91186000Y-113792000D01*
X91186000Y-113933002D02*
X91186000Y-113792000D01*
X102725001Y-117457001D02*
X99458999Y-117457001D01*
X103378000Y-118110000D02*
X102725001Y-117457001D01*
X99458999Y-117457001D02*
X98298000Y-118618000D01*
X95234588Y-118618000D02*
X91186000Y-114569412D01*
X91186000Y-113792000D02*
X91186000Y-96774000D01*
X98298000Y-118618000D02*
X95234588Y-118618000D01*
G04 #@! TO.N,Net-(Q3-Pad2)*
X146558000Y-108596630D02*
X146558000Y-109728000D01*
X150985001Y-101124001D02*
X146558000Y-105551002D01*
X146131992Y-95190990D02*
X150985001Y-100043999D01*
X133171010Y-95190990D02*
X146131992Y-95190990D01*
X133096000Y-95266000D02*
X133171010Y-95190990D01*
X150985001Y-100043999D02*
X150985001Y-101124001D01*
X133096000Y-96266000D02*
X133096000Y-95266000D01*
X146558000Y-106426000D02*
X146558000Y-108596630D01*
X146558000Y-105551002D02*
X146558000Y-106426000D01*
X146558000Y-105522998D02*
X146558000Y-106426000D01*
G04 #@! TO.N,Net-(Q3-Pad1)*
X120396000Y-94742000D02*
X118872000Y-93218000D01*
X121920000Y-96266000D02*
X118872000Y-93218000D01*
X131826000Y-96266000D02*
X121920000Y-96266000D01*
G04 #@! TO.N,Net-(R12-Pad2)*
X115939370Y-128016000D02*
X121666000Y-128016000D01*
X114808000Y-128016000D02*
X115939370Y-128016000D01*
X114516001Y-135090001D02*
X115316000Y-135890000D01*
X114008001Y-134582001D02*
X114516001Y-135090001D01*
X114808000Y-128016000D02*
X114008001Y-128815999D01*
X95250000Y-129032000D02*
X114008001Y-129032000D01*
X114008001Y-128815999D02*
X114008001Y-129032000D01*
X114008001Y-129032000D02*
X114008001Y-134582001D01*
G04 #@! TO.N,Net-(R10-Pad1)*
X137160000Y-110490000D02*
X137160000Y-104394000D01*
X136144000Y-111506000D02*
X137160000Y-110490000D01*
X140970000Y-100584000D02*
X149860000Y-100584000D01*
X137160000Y-104394000D02*
X140970000Y-100584000D01*
G04 #@! TO.N,Net-(R13-Pad1)*
X128016000Y-135890000D02*
X132080000Y-135890000D01*
X132080000Y-120650000D02*
X133604000Y-119126000D01*
X132080000Y-135890000D02*
X132080000Y-120650000D01*
G04 #@! TO.N,Net-(R14-Pad1)*
X144780000Y-124206000D02*
X146558000Y-122428000D01*
X144780000Y-135890000D02*
X144780000Y-124206000D01*
X140462000Y-122428000D02*
X137414000Y-125476000D01*
X137414000Y-125476000D02*
X137414000Y-138684000D01*
X137414000Y-138684000D02*
X123698000Y-138684000D01*
X123698000Y-138684000D02*
X123698000Y-127366998D01*
X123331002Y-126492000D02*
X123952000Y-127112998D01*
X109220000Y-126492000D02*
X123331002Y-126492000D01*
X101854000Y-119126000D02*
X109220000Y-126492000D01*
X123698000Y-127366998D02*
X123952000Y-127112998D01*
X140854630Y-122428000D02*
X141224000Y-122428000D01*
X138684000Y-120257370D02*
X140854630Y-122428000D01*
X138684000Y-119126000D02*
X138684000Y-120257370D01*
X146558000Y-122428000D02*
X141224000Y-122428000D01*
X141224000Y-122428000D02*
X140462000Y-122428000D01*
G04 #@! TD*
D22*
G04 #@! TO.N,GND*
G36*
X167513000Y-91565031D02*
X167513000Y-138303000D01*
X138174000Y-138303000D01*
X138174000Y-125790801D01*
X140776802Y-123188000D01*
X140779782Y-123188000D01*
X140854629Y-123202888D01*
X140929476Y-123188000D01*
X144723199Y-123188000D01*
X144295528Y-123615671D01*
X144232072Y-123658071D01*
X144189672Y-123721527D01*
X144189671Y-123721528D01*
X144064097Y-123909463D01*
X144005112Y-124206000D01*
X144020001Y-124280852D01*
X144020000Y-134651570D01*
X143967138Y-134673466D01*
X143563466Y-135077138D01*
X143345000Y-135604561D01*
X143345000Y-136175439D01*
X143563466Y-136702862D01*
X143967138Y-137106534D01*
X144494561Y-137325000D01*
X145065439Y-137325000D01*
X145592862Y-137106534D01*
X145996534Y-136702862D01*
X146215000Y-136175439D01*
X146215000Y-135604561D01*
X145996534Y-135077138D01*
X145592862Y-134673466D01*
X145540000Y-134651570D01*
X145540000Y-132491999D01*
X158243560Y-132491999D01*
X158243560Y-133192001D01*
X158311873Y-133535436D01*
X158506414Y-133826586D01*
X158797564Y-134021127D01*
X159140999Y-134089440D01*
X160391001Y-134089440D01*
X160734436Y-134021127D01*
X161025586Y-133826586D01*
X161220127Y-133535436D01*
X161288440Y-133192001D01*
X161288440Y-132491999D01*
X161272241Y-132410561D01*
X162134329Y-131548473D01*
X162134331Y-131548470D01*
X162260349Y-131422452D01*
X162385923Y-131234517D01*
X162387575Y-131226213D01*
X166569367Y-127044422D01*
X166628746Y-127004746D01*
X166668422Y-126945367D01*
X166668424Y-126945365D01*
X166785935Y-126769498D01*
X166785935Y-126769497D01*
X166785936Y-126769496D01*
X166827200Y-126562046D01*
X166827200Y-126562043D01*
X166841132Y-126492001D01*
X166827200Y-126421959D01*
X166827200Y-111068041D01*
X166841132Y-110997999D01*
X166827200Y-110927955D01*
X166827200Y-110927954D01*
X166785936Y-110720504D01*
X166785935Y-110720502D01*
X166668424Y-110544635D01*
X166668420Y-110544631D01*
X166628745Y-110485254D01*
X166569369Y-110445580D01*
X162387575Y-106263787D01*
X162385923Y-106255483D01*
X162260349Y-106067547D01*
X162180688Y-105987886D01*
X162245113Y-105664000D01*
X162180688Y-105340114D01*
X162896329Y-104624474D01*
X162896333Y-104624468D01*
X163044470Y-104476331D01*
X163107929Y-104433929D01*
X163275904Y-104182537D01*
X163320000Y-103960852D01*
X163320000Y-103960848D01*
X163334888Y-103886001D01*
X163320000Y-103811154D01*
X163320000Y-101822430D01*
X163372862Y-101800534D01*
X163776534Y-101396862D01*
X163995000Y-100869439D01*
X163995000Y-100298561D01*
X163776534Y-99771138D01*
X163372862Y-99367466D01*
X162845439Y-99149000D01*
X162274561Y-99149000D01*
X161747138Y-99367466D01*
X161343466Y-99771138D01*
X161125000Y-100298561D01*
X161125000Y-100869439D01*
X161343466Y-101396862D01*
X161747138Y-101800534D01*
X161800001Y-101822430D01*
X161800000Y-103571197D01*
X161105886Y-104265312D01*
X160923333Y-104229000D01*
X160640667Y-104229000D01*
X160222091Y-104312260D01*
X159747423Y-104629423D01*
X159430260Y-105104091D01*
X159318887Y-105664000D01*
X159430260Y-106223909D01*
X159747423Y-106698577D01*
X160222091Y-107015740D01*
X160640667Y-107099000D01*
X160923333Y-107099000D01*
X161105886Y-107062688D01*
X161185547Y-107142349D01*
X161373483Y-107267923D01*
X161381787Y-107269575D01*
X165404800Y-111292589D01*
X165404801Y-126197410D01*
X161381787Y-130220425D01*
X161373483Y-130222077D01*
X161185548Y-130347651D01*
X161166894Y-130366305D01*
X161004080Y-130058526D01*
X160630947Y-129749610D01*
X160168000Y-129607000D01*
X159893000Y-129607000D01*
X159893000Y-130715000D01*
X159913000Y-130715000D01*
X159913000Y-130969000D01*
X159893000Y-130969000D01*
X159893000Y-130989000D01*
X159639000Y-130989000D01*
X159639000Y-130969000D01*
X158422269Y-130969000D01*
X158297538Y-131159609D01*
X158301408Y-131197281D01*
X158527920Y-131625474D01*
X158673347Y-131745873D01*
X158506414Y-131857414D01*
X158311873Y-132148564D01*
X158243560Y-132491999D01*
X145540000Y-132491999D01*
X145540000Y-130524391D01*
X158297538Y-130524391D01*
X158422269Y-130715000D01*
X159639000Y-130715000D01*
X159639000Y-129607000D01*
X159364000Y-129607000D01*
X158901053Y-129749610D01*
X158527920Y-130058526D01*
X158301408Y-130486719D01*
X158297538Y-130524391D01*
X145540000Y-130524391D01*
X145540000Y-124520801D01*
X146219698Y-123841103D01*
X146272561Y-123863000D01*
X146843439Y-123863000D01*
X147370862Y-123644534D01*
X147774534Y-123240862D01*
X147993000Y-122713439D01*
X147993000Y-122142561D01*
X147774534Y-121615138D01*
X147370862Y-121211466D01*
X146843439Y-120993000D01*
X146272561Y-120993000D01*
X145745138Y-121211466D01*
X145341466Y-121615138D01*
X145319570Y-121668000D01*
X141169433Y-121668000D01*
X139684667Y-120183235D01*
X139718577Y-120160577D01*
X139954000Y-119808242D01*
X140189423Y-120160577D01*
X140664091Y-120477740D01*
X141082667Y-120561000D01*
X141365333Y-120561000D01*
X141783909Y-120477740D01*
X142258577Y-120160577D01*
X142575740Y-119685909D01*
X142687113Y-119126000D01*
X142636191Y-118870000D01*
X153355199Y-118870000D01*
X154603673Y-120118476D01*
X154646071Y-120181929D01*
X154709524Y-120224327D01*
X154709526Y-120224329D01*
X154749444Y-120251001D01*
X154897463Y-120349904D01*
X155119148Y-120394000D01*
X155119152Y-120394000D01*
X155193999Y-120408888D01*
X155268846Y-120394000D01*
X158610350Y-120394000D01*
X158760414Y-120618586D01*
X159051564Y-120813127D01*
X159394999Y-120881440D01*
X160645001Y-120881440D01*
X160988436Y-120813127D01*
X161279586Y-120618586D01*
X161474127Y-120327436D01*
X161542440Y-119984001D01*
X161542440Y-119283999D01*
X161474127Y-118940564D01*
X161279586Y-118649414D01*
X161112653Y-118537873D01*
X161258080Y-118417474D01*
X161484592Y-117989281D01*
X161488462Y-117951609D01*
X161363731Y-117761000D01*
X160147000Y-117761000D01*
X160147000Y-117781000D01*
X159893000Y-117781000D01*
X159893000Y-117761000D01*
X158676269Y-117761000D01*
X158551538Y-117951609D01*
X158555408Y-117989281D01*
X158781920Y-118417474D01*
X158927347Y-118537873D01*
X158760414Y-118649414D01*
X158610350Y-118874000D01*
X155508803Y-118874000D01*
X154918365Y-118283563D01*
X154952889Y-118110000D01*
X154893904Y-117813463D01*
X154725929Y-117562071D01*
X154474537Y-117394096D01*
X154252852Y-117350000D01*
X153744847Y-117350000D01*
X153670000Y-117335112D01*
X153595153Y-117350000D01*
X142314847Y-117350000D01*
X142240000Y-117335112D01*
X142165153Y-117350000D01*
X142165148Y-117350000D01*
X141943463Y-117394096D01*
X141692071Y-117562071D01*
X141649671Y-117625527D01*
X141547886Y-117727312D01*
X141365333Y-117691000D01*
X141082667Y-117691000D01*
X140900113Y-117727312D01*
X140608536Y-117435735D01*
X140566134Y-117372276D01*
X140482497Y-117316391D01*
X158551538Y-117316391D01*
X158676269Y-117507000D01*
X159893000Y-117507000D01*
X159893000Y-116399000D01*
X160147000Y-116399000D01*
X160147000Y-117507000D01*
X161363731Y-117507000D01*
X161488462Y-117316391D01*
X161484592Y-117278719D01*
X161258080Y-116850526D01*
X160884947Y-116541610D01*
X160422000Y-116399000D01*
X160147000Y-116399000D01*
X159893000Y-116399000D01*
X159618000Y-116399000D01*
X159155053Y-116541610D01*
X158781920Y-116850526D01*
X158555408Y-117278719D01*
X158551538Y-117316391D01*
X140482497Y-117316391D01*
X140314742Y-117204301D01*
X140093057Y-117160205D01*
X140093052Y-117160205D01*
X140018205Y-117145317D01*
X139943358Y-117160205D01*
X139184596Y-117160205D01*
X141708473Y-114636329D01*
X141771929Y-114593929D01*
X141939904Y-114342537D01*
X141984000Y-114120852D01*
X141984000Y-114120847D01*
X141998888Y-114046000D01*
X141984000Y-113971153D01*
X141984000Y-112953440D01*
X142024000Y-112953440D01*
X142271765Y-112904157D01*
X142481809Y-112763809D01*
X142622157Y-112553765D01*
X142671440Y-112306000D01*
X142671440Y-111843239D01*
X143834673Y-113006473D01*
X143877073Y-113069929D01*
X143940529Y-113112329D01*
X144128464Y-113237904D01*
X144176607Y-113247480D01*
X144350150Y-113282000D01*
X144350154Y-113282000D01*
X144425002Y-113296888D01*
X144499850Y-113282000D01*
X148007148Y-113282000D01*
X148082000Y-113296889D01*
X148211590Y-113271112D01*
X148378537Y-113237904D01*
X148629929Y-113069929D01*
X148797904Y-112818537D01*
X148856889Y-112522000D01*
X148842000Y-112447148D01*
X148842000Y-106902430D01*
X148894862Y-106880534D01*
X149298534Y-106476862D01*
X149517000Y-105949439D01*
X149517000Y-105378561D01*
X149298534Y-104851138D01*
X148894862Y-104447466D01*
X148782768Y-104401035D01*
X151469474Y-101714330D01*
X151532930Y-101671930D01*
X151700905Y-101420538D01*
X151745001Y-101198853D01*
X151745001Y-101198848D01*
X151759889Y-101124001D01*
X151745001Y-101049154D01*
X151745001Y-100118845D01*
X151759889Y-100043998D01*
X151745001Y-99969151D01*
X151745001Y-99969147D01*
X151700905Y-99747462D01*
X151532930Y-99496070D01*
X151469474Y-99453670D01*
X146722323Y-94706520D01*
X146679921Y-94643061D01*
X146428529Y-94475086D01*
X146206844Y-94430990D01*
X146206839Y-94430990D01*
X146131992Y-94416102D01*
X146057145Y-94430990D01*
X133245856Y-94430990D01*
X133171009Y-94416102D01*
X133096162Y-94430990D01*
X133096158Y-94430990D01*
X132874473Y-94475086D01*
X132623081Y-94643061D01*
X132593035Y-94688027D01*
X132548072Y-94718071D01*
X132505672Y-94781527D01*
X132505671Y-94781528D01*
X132436195Y-94885506D01*
X132351000Y-94868560D01*
X131301000Y-94868560D01*
X131053235Y-94917843D01*
X130843191Y-95058191D01*
X130702843Y-95268235D01*
X130655549Y-95506000D01*
X122234802Y-95506000D01*
X120986332Y-94257530D01*
X120986329Y-94257526D01*
X120270688Y-93541886D01*
X120335113Y-93218000D01*
X120223740Y-92658091D01*
X119906577Y-92183423D01*
X119431909Y-91866260D01*
X119013333Y-91783000D01*
X118730667Y-91783000D01*
X118312091Y-91866260D01*
X117837423Y-92183423D01*
X117520260Y-92658091D01*
X117408887Y-93218000D01*
X117520260Y-93777909D01*
X117837423Y-94252577D01*
X118312091Y-94569740D01*
X118730667Y-94653000D01*
X119013333Y-94653000D01*
X119195886Y-94616688D01*
X119911526Y-95332329D01*
X119911530Y-95332332D01*
X121329671Y-96750473D01*
X121372071Y-96813929D01*
X121623463Y-96981904D01*
X121845148Y-97026000D01*
X121845153Y-97026000D01*
X121920000Y-97040888D01*
X121994847Y-97026000D01*
X130655549Y-97026000D01*
X130702843Y-97263765D01*
X130843191Y-97473809D01*
X131053235Y-97614157D01*
X131301000Y-97663440D01*
X132351000Y-97663440D01*
X132598765Y-97614157D01*
X132644134Y-97583842D01*
X133096000Y-97673725D01*
X133548609Y-97583695D01*
X133740996Y-97455146D01*
X133998664Y-97601266D01*
X134060190Y-97609964D01*
X134239000Y-97484163D01*
X134239000Y-96690709D01*
X134256000Y-96605245D01*
X134256000Y-96393000D01*
X134493000Y-96393000D01*
X134493000Y-97484163D01*
X134671810Y-97609964D01*
X134733336Y-97601266D01*
X135130255Y-97376179D01*
X135410823Y-97016331D01*
X135532326Y-96576506D01*
X135372593Y-96393000D01*
X134493000Y-96393000D01*
X134256000Y-96393000D01*
X134256000Y-96119000D01*
X134493000Y-96119000D01*
X134493000Y-96139000D01*
X135372593Y-96139000D01*
X135532326Y-95955494D01*
X135531082Y-95950990D01*
X145817191Y-95950990D01*
X149179222Y-99313022D01*
X148825423Y-99549423D01*
X148641957Y-99824000D01*
X141044848Y-99824000D01*
X140970000Y-99809112D01*
X140895152Y-99824000D01*
X140895148Y-99824000D01*
X140721605Y-99858520D01*
X140673462Y-99868096D01*
X140562858Y-99942000D01*
X140422071Y-100036071D01*
X140379671Y-100099527D01*
X137498302Y-102980897D01*
X137445439Y-102959000D01*
X136874561Y-102959000D01*
X136347138Y-103177466D01*
X135943466Y-103581138D01*
X135725000Y-104108561D01*
X135725000Y-104679439D01*
X135943466Y-105206862D01*
X136347138Y-105610534D01*
X136400001Y-105632431D01*
X136400000Y-110093809D01*
X136285333Y-110071000D01*
X136002667Y-110071000D01*
X135584091Y-110154260D01*
X135233101Y-110388784D01*
X135213474Y-110375670D01*
X130271333Y-105433530D01*
X130228931Y-105370071D01*
X129977539Y-105202096D01*
X129755854Y-105158000D01*
X129755849Y-105158000D01*
X129681002Y-105143112D01*
X129606155Y-105158000D01*
X125666966Y-105158000D01*
X125691041Y-105131423D01*
X125851904Y-104743039D01*
X125729915Y-104521000D01*
X124587000Y-104521000D01*
X124587000Y-104541000D01*
X124333000Y-104541000D01*
X124333000Y-104521000D01*
X123190085Y-104521000D01*
X123068096Y-104743039D01*
X123228959Y-105131423D01*
X123253034Y-105158000D01*
X120110430Y-105158000D01*
X120088534Y-105105138D01*
X119684862Y-104701466D01*
X119157439Y-104483000D01*
X118586561Y-104483000D01*
X118059138Y-104701466D01*
X117655466Y-105105138D01*
X117633570Y-105158000D01*
X114748802Y-105158000D01*
X113635763Y-104044961D01*
X123068096Y-104044961D01*
X123190085Y-104267000D01*
X124333000Y-104267000D01*
X124333000Y-103123371D01*
X124587000Y-103123371D01*
X124587000Y-104267000D01*
X125729915Y-104267000D01*
X125851904Y-104044961D01*
X125691041Y-103656577D01*
X125315134Y-103241611D01*
X124809041Y-103002086D01*
X124587000Y-103123371D01*
X124333000Y-103123371D01*
X124110959Y-103002086D01*
X123604866Y-103241611D01*
X123228959Y-103656577D01*
X123068096Y-104044961D01*
X113635763Y-104044961D01*
X110024177Y-100433376D01*
X110093000Y-100267222D01*
X110093000Y-99616778D01*
X109844086Y-99015847D01*
X109384153Y-98555914D01*
X108783222Y-98307000D01*
X108132778Y-98307000D01*
X107531847Y-98555914D01*
X107071914Y-99015847D01*
X106823000Y-99616778D01*
X106823000Y-100267222D01*
X107071914Y-100868153D01*
X107531847Y-101328086D01*
X108132778Y-101577000D01*
X108783222Y-101577000D01*
X108949376Y-101508177D01*
X113843670Y-106402472D01*
X113886071Y-106465929D01*
X114137463Y-106633904D01*
X114359148Y-106678000D01*
X114359152Y-106678000D01*
X114433999Y-106692888D01*
X114508846Y-106678000D01*
X117633570Y-106678000D01*
X117655466Y-106730862D01*
X118059138Y-107134534D01*
X118586561Y-107353000D01*
X119157439Y-107353000D01*
X119684862Y-107134534D01*
X120088534Y-106730862D01*
X120110430Y-106678000D01*
X129366201Y-106678000D01*
X132934872Y-110246672D01*
X132866577Y-110274959D01*
X132451611Y-110650866D01*
X132212086Y-111156959D01*
X132333371Y-111379000D01*
X133477000Y-111379000D01*
X133477000Y-111359000D01*
X133731000Y-111359000D01*
X133731000Y-111379000D01*
X133751000Y-111379000D01*
X133751000Y-111633000D01*
X133731000Y-111633000D01*
X133731000Y-112775915D01*
X133953039Y-112897904D01*
X134341423Y-112737041D01*
X134370400Y-112710791D01*
X135682081Y-114022473D01*
X135724481Y-114085929D01*
X135975873Y-114253904D01*
X136197558Y-114298000D01*
X136197563Y-114298000D01*
X136272410Y-114312888D01*
X136347257Y-114298000D01*
X137708523Y-114298000D01*
X137783370Y-114312888D01*
X137858217Y-114298000D01*
X137858222Y-114298000D01*
X138079907Y-114253904D01*
X138331299Y-114085929D01*
X138373701Y-114022470D01*
X139168473Y-113227699D01*
X139231929Y-113185299D01*
X139399904Y-112933907D01*
X139441288Y-112725855D01*
X139718577Y-112540577D01*
X139799215Y-112419894D01*
X139825843Y-112553765D01*
X139966191Y-112763809D01*
X140176235Y-112904157D01*
X140424000Y-112953440D01*
X140464001Y-112953440D01*
X140464001Y-113731197D01*
X136467887Y-117727312D01*
X136285333Y-117691000D01*
X136002667Y-117691000D01*
X135820114Y-117727312D01*
X135159321Y-117066520D01*
X135116919Y-117003061D01*
X134865527Y-116835086D01*
X134643842Y-116790990D01*
X134643837Y-116790990D01*
X134568990Y-116776102D01*
X134494143Y-116790990D01*
X118627793Y-116790990D01*
X114610489Y-112773687D01*
X114587583Y-112658532D01*
X116121073Y-112658532D01*
X116219736Y-112925387D01*
X116829461Y-113151908D01*
X117479460Y-113127856D01*
X117968264Y-112925387D01*
X118066927Y-112658532D01*
X124757073Y-112658532D01*
X124855736Y-112925387D01*
X125465461Y-113151908D01*
X126115460Y-113127856D01*
X126604264Y-112925387D01*
X126702927Y-112658532D01*
X125730000Y-111685605D01*
X124757073Y-112658532D01*
X118066927Y-112658532D01*
X117094000Y-111685605D01*
X116121073Y-112658532D01*
X114587583Y-112658532D01*
X114562904Y-112534464D01*
X114437330Y-112346529D01*
X114382331Y-112291530D01*
X114382329Y-112291527D01*
X113366331Y-111275530D01*
X113343567Y-111241461D01*
X115448092Y-111241461D01*
X115472144Y-111891460D01*
X115674613Y-112380264D01*
X115941468Y-112478927D01*
X116914395Y-111506000D01*
X117273605Y-111506000D01*
X118246532Y-112478927D01*
X118513387Y-112380264D01*
X118739908Y-111770539D01*
X118720331Y-111241461D01*
X124084092Y-111241461D01*
X124108144Y-111891460D01*
X124310613Y-112380264D01*
X124577468Y-112478927D01*
X125550395Y-111506000D01*
X125909605Y-111506000D01*
X126882532Y-112478927D01*
X127149387Y-112380264D01*
X127344514Y-111855041D01*
X132212086Y-111855041D01*
X132451611Y-112361134D01*
X132866577Y-112737041D01*
X133254961Y-112897904D01*
X133477000Y-112775915D01*
X133477000Y-111633000D01*
X132333371Y-111633000D01*
X132212086Y-111855041D01*
X127344514Y-111855041D01*
X127375908Y-111770539D01*
X127351856Y-111120540D01*
X127149387Y-110631736D01*
X126882532Y-110533073D01*
X125909605Y-111506000D01*
X125550395Y-111506000D01*
X124577468Y-110533073D01*
X124310613Y-110631736D01*
X124084092Y-111241461D01*
X118720331Y-111241461D01*
X118715856Y-111120540D01*
X118513387Y-110631736D01*
X118246532Y-110533073D01*
X117273605Y-111506000D01*
X116914395Y-111506000D01*
X115941468Y-110533073D01*
X115674613Y-110631736D01*
X115448092Y-111241461D01*
X113343567Y-111241461D01*
X113323929Y-111212071D01*
X113260473Y-111169671D01*
X112444270Y-110353468D01*
X116121073Y-110353468D01*
X117094000Y-111326395D01*
X118066927Y-110353468D01*
X124757073Y-110353468D01*
X125730000Y-111326395D01*
X126702927Y-110353468D01*
X126604264Y-110086613D01*
X125994539Y-109860092D01*
X125344540Y-109884144D01*
X124855736Y-110086613D01*
X124757073Y-110353468D01*
X118066927Y-110353468D01*
X117968264Y-110086613D01*
X117358539Y-109860092D01*
X116708540Y-109884144D01*
X116219736Y-110086613D01*
X116121073Y-110353468D01*
X112444270Y-110353468D01*
X110048330Y-107957529D01*
X110048328Y-107957526D01*
X110024177Y-107933375D01*
X110093000Y-107767222D01*
X110093000Y-107116778D01*
X109844086Y-106515847D01*
X109384153Y-106055914D01*
X108783222Y-105807000D01*
X108132778Y-105807000D01*
X107531847Y-106055914D01*
X107071914Y-106515847D01*
X106823000Y-107116778D01*
X106823000Y-107767222D01*
X106891823Y-107933375D01*
X104717887Y-110107312D01*
X104535333Y-110071000D01*
X104252667Y-110071000D01*
X103834091Y-110154260D01*
X103359423Y-110471423D01*
X103103053Y-110855108D01*
X103006389Y-110650866D01*
X102591423Y-110274959D01*
X102203039Y-110114096D01*
X101981000Y-110236085D01*
X101981000Y-111379000D01*
X102001000Y-111379000D01*
X102001000Y-111633000D01*
X101981000Y-111633000D01*
X101981000Y-112775915D01*
X102203039Y-112897904D01*
X102591423Y-112737041D01*
X103006389Y-112361134D01*
X103103053Y-112156892D01*
X103359423Y-112540577D01*
X103834091Y-112857740D01*
X104252667Y-112941000D01*
X104424198Y-112941000D01*
X101343189Y-116022010D01*
X96671850Y-116022010D01*
X96669778Y-115978546D01*
X96503864Y-115577995D01*
X96257745Y-115503861D01*
X95429605Y-116332000D01*
X95443748Y-116346142D01*
X95264143Y-116525748D01*
X95250000Y-116511605D01*
X95235858Y-116525748D01*
X95056252Y-116346142D01*
X95070395Y-116332000D01*
X94242255Y-115503861D01*
X93996136Y-115577995D01*
X93972249Y-115644450D01*
X93652054Y-115324255D01*
X94421861Y-115324255D01*
X95250000Y-116152395D01*
X96078139Y-115324255D01*
X96004005Y-115078136D01*
X95466777Y-114885035D01*
X94896546Y-114912222D01*
X94495995Y-115078136D01*
X94421861Y-115324255D01*
X93652054Y-115324255D01*
X93285990Y-114958191D01*
X93285990Y-112189291D01*
X93324000Y-112201000D01*
X93599000Y-112201000D01*
X93599000Y-111093000D01*
X93853000Y-111093000D01*
X93853000Y-112201000D01*
X94128000Y-112201000D01*
X94590947Y-112058390D01*
X94836567Y-111855041D01*
X100462086Y-111855041D01*
X100701611Y-112361134D01*
X101116577Y-112737041D01*
X101504961Y-112897904D01*
X101727000Y-112775915D01*
X101727000Y-111633000D01*
X100583371Y-111633000D01*
X100462086Y-111855041D01*
X94836567Y-111855041D01*
X94964080Y-111749474D01*
X95190592Y-111321281D01*
X95194462Y-111283609D01*
X95111585Y-111156959D01*
X100462086Y-111156959D01*
X100583371Y-111379000D01*
X101727000Y-111379000D01*
X101727000Y-110236085D01*
X101504961Y-110114096D01*
X101116577Y-110274959D01*
X100701611Y-110650866D01*
X100462086Y-111156959D01*
X95111585Y-111156959D01*
X95069731Y-111093000D01*
X93853000Y-111093000D01*
X93599000Y-111093000D01*
X93579000Y-111093000D01*
X93579000Y-110839000D01*
X93599000Y-110839000D01*
X93599000Y-110819000D01*
X93853000Y-110819000D01*
X93853000Y-110839000D01*
X95069731Y-110839000D01*
X95194462Y-110648391D01*
X95190592Y-110610719D01*
X94964080Y-110182526D01*
X94818653Y-110062127D01*
X94985586Y-109950586D01*
X95180127Y-109659436D01*
X95248440Y-109316001D01*
X95248440Y-108615999D01*
X95180127Y-108272564D01*
X94985586Y-107981414D01*
X94694436Y-107786873D01*
X94351001Y-107718560D01*
X93100999Y-107718560D01*
X92757564Y-107786873D01*
X92466414Y-107981414D01*
X92271873Y-108272564D01*
X92203560Y-108615999D01*
X92203560Y-109316001D01*
X92219759Y-109397440D01*
X92041518Y-109575681D01*
X91978062Y-109618081D01*
X91946000Y-109666065D01*
X91946000Y-97088801D01*
X92579106Y-96455695D01*
X92741920Y-96763474D01*
X93115053Y-97072390D01*
X93578000Y-97215000D01*
X93853000Y-97215000D01*
X93853000Y-96107000D01*
X94107000Y-96107000D01*
X94107000Y-97215000D01*
X94382000Y-97215000D01*
X94844947Y-97072390D01*
X95218080Y-96763474D01*
X95444592Y-96335281D01*
X95448462Y-96297609D01*
X95323731Y-96107000D01*
X94107000Y-96107000D01*
X93853000Y-96107000D01*
X93833000Y-96107000D01*
X93833000Y-95853000D01*
X93853000Y-95853000D01*
X93853000Y-95833000D01*
X94107000Y-95833000D01*
X94107000Y-95853000D01*
X95323731Y-95853000D01*
X95448462Y-95662391D01*
X95444592Y-95624719D01*
X95218080Y-95196526D01*
X95072653Y-95076127D01*
X95239586Y-94964586D01*
X95434127Y-94673436D01*
X95502440Y-94330001D01*
X95502440Y-93629999D01*
X95434127Y-93286564D01*
X95239586Y-92995414D01*
X94948436Y-92800873D01*
X94605001Y-92732560D01*
X93354999Y-92732560D01*
X93011564Y-92800873D01*
X92720414Y-92995414D01*
X92525873Y-93286564D01*
X92457560Y-93629999D01*
X92457560Y-94330001D01*
X92473759Y-94411440D01*
X92041520Y-94843679D01*
X92041517Y-94843681D01*
X90701528Y-96183671D01*
X90638072Y-96226071D01*
X90595672Y-96289527D01*
X90595671Y-96289528D01*
X90470097Y-96477463D01*
X90411112Y-96774000D01*
X90426001Y-96848852D01*
X90426000Y-113717148D01*
X90426000Y-114494565D01*
X90411112Y-114569412D01*
X90426000Y-114644259D01*
X90426000Y-114644263D01*
X90470096Y-114865948D01*
X90638071Y-115117341D01*
X90701530Y-115159743D01*
X94644259Y-119102473D01*
X94686659Y-119165929D01*
X94938051Y-119333904D01*
X95159736Y-119378000D01*
X95159740Y-119378000D01*
X95234587Y-119392888D01*
X95309434Y-119378000D01*
X98223153Y-119378000D01*
X98298000Y-119392888D01*
X98372847Y-119378000D01*
X98372852Y-119378000D01*
X98594537Y-119333904D01*
X98845929Y-119165929D01*
X98888331Y-119102470D01*
X99773801Y-118217001D01*
X100735514Y-118217001D01*
X100502260Y-118566091D01*
X100390887Y-119126000D01*
X100502260Y-119685909D01*
X100819423Y-120160577D01*
X101294091Y-120477740D01*
X101712667Y-120561000D01*
X101995333Y-120561000D01*
X102177887Y-120524688D01*
X108629670Y-126976472D01*
X108672071Y-127039929D01*
X108923463Y-127207904D01*
X109145148Y-127252000D01*
X109145152Y-127252000D01*
X109219999Y-127266888D01*
X109294846Y-127252000D01*
X114753261Y-127252000D01*
X114733152Y-127256000D01*
X114733148Y-127256000D01*
X114511463Y-127300096D01*
X114511461Y-127300097D01*
X114511462Y-127300097D01*
X114323526Y-127425671D01*
X114323524Y-127425673D01*
X114260071Y-127468071D01*
X114217673Y-127531525D01*
X113523530Y-128225668D01*
X113460072Y-128268070D01*
X113457446Y-128272000D01*
X96468043Y-128272000D01*
X96284577Y-127997423D01*
X95809909Y-127680260D01*
X95391333Y-127597000D01*
X95108667Y-127597000D01*
X94690091Y-127680260D01*
X94215423Y-127997423D01*
X93898260Y-128472091D01*
X93786887Y-129032000D01*
X93898260Y-129591909D01*
X94215423Y-130066577D01*
X94690091Y-130383740D01*
X95108667Y-130467000D01*
X95391333Y-130467000D01*
X95809909Y-130383740D01*
X96284577Y-130066577D01*
X96468043Y-129792000D01*
X113248001Y-129792000D01*
X113248002Y-134507149D01*
X113233113Y-134582001D01*
X113248002Y-134656853D01*
X113292098Y-134878538D01*
X113460073Y-135129930D01*
X113523528Y-135172329D01*
X113917312Y-135566115D01*
X113852887Y-135890000D01*
X113964260Y-136449909D01*
X114281423Y-136924577D01*
X114756091Y-137241740D01*
X115174667Y-137325000D01*
X115457333Y-137325000D01*
X115875909Y-137241740D01*
X116350577Y-136924577D01*
X116667740Y-136449909D01*
X116779113Y-135890000D01*
X116667740Y-135330091D01*
X116350577Y-134855423D01*
X115875909Y-134538260D01*
X115457333Y-134455000D01*
X115174667Y-134455000D01*
X114992115Y-134491312D01*
X114768001Y-134267199D01*
X114768001Y-129130801D01*
X115122802Y-128776000D01*
X120427570Y-128776000D01*
X120449466Y-128828862D01*
X120853138Y-129232534D01*
X121380561Y-129451000D01*
X121951439Y-129451000D01*
X122478862Y-129232534D01*
X122882534Y-128828862D01*
X122938001Y-128694953D01*
X122938000Y-138303000D01*
X85220386Y-138303000D01*
X86483651Y-90298947D01*
X167513000Y-91565031D01*
X167513000Y-91565031D01*
G37*
X167513000Y-91565031D02*
X167513000Y-138303000D01*
X138174000Y-138303000D01*
X138174000Y-125790801D01*
X140776802Y-123188000D01*
X140779782Y-123188000D01*
X140854629Y-123202888D01*
X140929476Y-123188000D01*
X144723199Y-123188000D01*
X144295528Y-123615671D01*
X144232072Y-123658071D01*
X144189672Y-123721527D01*
X144189671Y-123721528D01*
X144064097Y-123909463D01*
X144005112Y-124206000D01*
X144020001Y-124280852D01*
X144020000Y-134651570D01*
X143967138Y-134673466D01*
X143563466Y-135077138D01*
X143345000Y-135604561D01*
X143345000Y-136175439D01*
X143563466Y-136702862D01*
X143967138Y-137106534D01*
X144494561Y-137325000D01*
X145065439Y-137325000D01*
X145592862Y-137106534D01*
X145996534Y-136702862D01*
X146215000Y-136175439D01*
X146215000Y-135604561D01*
X145996534Y-135077138D01*
X145592862Y-134673466D01*
X145540000Y-134651570D01*
X145540000Y-132491999D01*
X158243560Y-132491999D01*
X158243560Y-133192001D01*
X158311873Y-133535436D01*
X158506414Y-133826586D01*
X158797564Y-134021127D01*
X159140999Y-134089440D01*
X160391001Y-134089440D01*
X160734436Y-134021127D01*
X161025586Y-133826586D01*
X161220127Y-133535436D01*
X161288440Y-133192001D01*
X161288440Y-132491999D01*
X161272241Y-132410561D01*
X162134329Y-131548473D01*
X162134331Y-131548470D01*
X162260349Y-131422452D01*
X162385923Y-131234517D01*
X162387575Y-131226213D01*
X166569367Y-127044422D01*
X166628746Y-127004746D01*
X166668422Y-126945367D01*
X166668424Y-126945365D01*
X166785935Y-126769498D01*
X166785935Y-126769497D01*
X166785936Y-126769496D01*
X166827200Y-126562046D01*
X166827200Y-126562043D01*
X166841132Y-126492001D01*
X166827200Y-126421959D01*
X166827200Y-111068041D01*
X166841132Y-110997999D01*
X166827200Y-110927955D01*
X166827200Y-110927954D01*
X166785936Y-110720504D01*
X166785935Y-110720502D01*
X166668424Y-110544635D01*
X166668420Y-110544631D01*
X166628745Y-110485254D01*
X166569369Y-110445580D01*
X162387575Y-106263787D01*
X162385923Y-106255483D01*
X162260349Y-106067547D01*
X162180688Y-105987886D01*
X162245113Y-105664000D01*
X162180688Y-105340114D01*
X162896329Y-104624474D01*
X162896333Y-104624468D01*
X163044470Y-104476331D01*
X163107929Y-104433929D01*
X163275904Y-104182537D01*
X163320000Y-103960852D01*
X163320000Y-103960848D01*
X163334888Y-103886001D01*
X163320000Y-103811154D01*
X163320000Y-101822430D01*
X163372862Y-101800534D01*
X163776534Y-101396862D01*
X163995000Y-100869439D01*
X163995000Y-100298561D01*
X163776534Y-99771138D01*
X163372862Y-99367466D01*
X162845439Y-99149000D01*
X162274561Y-99149000D01*
X161747138Y-99367466D01*
X161343466Y-99771138D01*
X161125000Y-100298561D01*
X161125000Y-100869439D01*
X161343466Y-101396862D01*
X161747138Y-101800534D01*
X161800001Y-101822430D01*
X161800000Y-103571197D01*
X161105886Y-104265312D01*
X160923333Y-104229000D01*
X160640667Y-104229000D01*
X160222091Y-104312260D01*
X159747423Y-104629423D01*
X159430260Y-105104091D01*
X159318887Y-105664000D01*
X159430260Y-106223909D01*
X159747423Y-106698577D01*
X160222091Y-107015740D01*
X160640667Y-107099000D01*
X160923333Y-107099000D01*
X161105886Y-107062688D01*
X161185547Y-107142349D01*
X161373483Y-107267923D01*
X161381787Y-107269575D01*
X165404800Y-111292589D01*
X165404801Y-126197410D01*
X161381787Y-130220425D01*
X161373483Y-130222077D01*
X161185548Y-130347651D01*
X161166894Y-130366305D01*
X161004080Y-130058526D01*
X160630947Y-129749610D01*
X160168000Y-129607000D01*
X159893000Y-129607000D01*
X159893000Y-130715000D01*
X159913000Y-130715000D01*
X159913000Y-130969000D01*
X159893000Y-130969000D01*
X159893000Y-130989000D01*
X159639000Y-130989000D01*
X159639000Y-130969000D01*
X158422269Y-130969000D01*
X158297538Y-131159609D01*
X158301408Y-131197281D01*
X158527920Y-131625474D01*
X158673347Y-131745873D01*
X158506414Y-131857414D01*
X158311873Y-132148564D01*
X158243560Y-132491999D01*
X145540000Y-132491999D01*
X145540000Y-130524391D01*
X158297538Y-130524391D01*
X158422269Y-130715000D01*
X159639000Y-130715000D01*
X159639000Y-129607000D01*
X159364000Y-129607000D01*
X158901053Y-129749610D01*
X158527920Y-130058526D01*
X158301408Y-130486719D01*
X158297538Y-130524391D01*
X145540000Y-130524391D01*
X145540000Y-124520801D01*
X146219698Y-123841103D01*
X146272561Y-123863000D01*
X146843439Y-123863000D01*
X147370862Y-123644534D01*
X147774534Y-123240862D01*
X147993000Y-122713439D01*
X147993000Y-122142561D01*
X147774534Y-121615138D01*
X147370862Y-121211466D01*
X146843439Y-120993000D01*
X146272561Y-120993000D01*
X145745138Y-121211466D01*
X145341466Y-121615138D01*
X145319570Y-121668000D01*
X141169433Y-121668000D01*
X139684667Y-120183235D01*
X139718577Y-120160577D01*
X139954000Y-119808242D01*
X140189423Y-120160577D01*
X140664091Y-120477740D01*
X141082667Y-120561000D01*
X141365333Y-120561000D01*
X141783909Y-120477740D01*
X142258577Y-120160577D01*
X142575740Y-119685909D01*
X142687113Y-119126000D01*
X142636191Y-118870000D01*
X153355199Y-118870000D01*
X154603673Y-120118476D01*
X154646071Y-120181929D01*
X154709524Y-120224327D01*
X154709526Y-120224329D01*
X154749444Y-120251001D01*
X154897463Y-120349904D01*
X155119148Y-120394000D01*
X155119152Y-120394000D01*
X155193999Y-120408888D01*
X155268846Y-120394000D01*
X158610350Y-120394000D01*
X158760414Y-120618586D01*
X159051564Y-120813127D01*
X159394999Y-120881440D01*
X160645001Y-120881440D01*
X160988436Y-120813127D01*
X161279586Y-120618586D01*
X161474127Y-120327436D01*
X161542440Y-119984001D01*
X161542440Y-119283999D01*
X161474127Y-118940564D01*
X161279586Y-118649414D01*
X161112653Y-118537873D01*
X161258080Y-118417474D01*
X161484592Y-117989281D01*
X161488462Y-117951609D01*
X161363731Y-117761000D01*
X160147000Y-117761000D01*
X160147000Y-117781000D01*
X159893000Y-117781000D01*
X159893000Y-117761000D01*
X158676269Y-117761000D01*
X158551538Y-117951609D01*
X158555408Y-117989281D01*
X158781920Y-118417474D01*
X158927347Y-118537873D01*
X158760414Y-118649414D01*
X158610350Y-118874000D01*
X155508803Y-118874000D01*
X154918365Y-118283563D01*
X154952889Y-118110000D01*
X154893904Y-117813463D01*
X154725929Y-117562071D01*
X154474537Y-117394096D01*
X154252852Y-117350000D01*
X153744847Y-117350000D01*
X153670000Y-117335112D01*
X153595153Y-117350000D01*
X142314847Y-117350000D01*
X142240000Y-117335112D01*
X142165153Y-117350000D01*
X142165148Y-117350000D01*
X141943463Y-117394096D01*
X141692071Y-117562071D01*
X141649671Y-117625527D01*
X141547886Y-117727312D01*
X141365333Y-117691000D01*
X141082667Y-117691000D01*
X140900113Y-117727312D01*
X140608536Y-117435735D01*
X140566134Y-117372276D01*
X140482497Y-117316391D01*
X158551538Y-117316391D01*
X158676269Y-117507000D01*
X159893000Y-117507000D01*
X159893000Y-116399000D01*
X160147000Y-116399000D01*
X160147000Y-117507000D01*
X161363731Y-117507000D01*
X161488462Y-117316391D01*
X161484592Y-117278719D01*
X161258080Y-116850526D01*
X160884947Y-116541610D01*
X160422000Y-116399000D01*
X160147000Y-116399000D01*
X159893000Y-116399000D01*
X159618000Y-116399000D01*
X159155053Y-116541610D01*
X158781920Y-116850526D01*
X158555408Y-117278719D01*
X158551538Y-117316391D01*
X140482497Y-117316391D01*
X140314742Y-117204301D01*
X140093057Y-117160205D01*
X140093052Y-117160205D01*
X140018205Y-117145317D01*
X139943358Y-117160205D01*
X139184596Y-117160205D01*
X141708473Y-114636329D01*
X141771929Y-114593929D01*
X141939904Y-114342537D01*
X141984000Y-114120852D01*
X141984000Y-114120847D01*
X141998888Y-114046000D01*
X141984000Y-113971153D01*
X141984000Y-112953440D01*
X142024000Y-112953440D01*
X142271765Y-112904157D01*
X142481809Y-112763809D01*
X142622157Y-112553765D01*
X142671440Y-112306000D01*
X142671440Y-111843239D01*
X143834673Y-113006473D01*
X143877073Y-113069929D01*
X143940529Y-113112329D01*
X144128464Y-113237904D01*
X144176607Y-113247480D01*
X144350150Y-113282000D01*
X144350154Y-113282000D01*
X144425002Y-113296888D01*
X144499850Y-113282000D01*
X148007148Y-113282000D01*
X148082000Y-113296889D01*
X148211590Y-113271112D01*
X148378537Y-113237904D01*
X148629929Y-113069929D01*
X148797904Y-112818537D01*
X148856889Y-112522000D01*
X148842000Y-112447148D01*
X148842000Y-106902430D01*
X148894862Y-106880534D01*
X149298534Y-106476862D01*
X149517000Y-105949439D01*
X149517000Y-105378561D01*
X149298534Y-104851138D01*
X148894862Y-104447466D01*
X148782768Y-104401035D01*
X151469474Y-101714330D01*
X151532930Y-101671930D01*
X151700905Y-101420538D01*
X151745001Y-101198853D01*
X151745001Y-101198848D01*
X151759889Y-101124001D01*
X151745001Y-101049154D01*
X151745001Y-100118845D01*
X151759889Y-100043998D01*
X151745001Y-99969151D01*
X151745001Y-99969147D01*
X151700905Y-99747462D01*
X151532930Y-99496070D01*
X151469474Y-99453670D01*
X146722323Y-94706520D01*
X146679921Y-94643061D01*
X146428529Y-94475086D01*
X146206844Y-94430990D01*
X146206839Y-94430990D01*
X146131992Y-94416102D01*
X146057145Y-94430990D01*
X133245856Y-94430990D01*
X133171009Y-94416102D01*
X133096162Y-94430990D01*
X133096158Y-94430990D01*
X132874473Y-94475086D01*
X132623081Y-94643061D01*
X132593035Y-94688027D01*
X132548072Y-94718071D01*
X132505672Y-94781527D01*
X132505671Y-94781528D01*
X132436195Y-94885506D01*
X132351000Y-94868560D01*
X131301000Y-94868560D01*
X131053235Y-94917843D01*
X130843191Y-95058191D01*
X130702843Y-95268235D01*
X130655549Y-95506000D01*
X122234802Y-95506000D01*
X120986332Y-94257530D01*
X120986329Y-94257526D01*
X120270688Y-93541886D01*
X120335113Y-93218000D01*
X120223740Y-92658091D01*
X119906577Y-92183423D01*
X119431909Y-91866260D01*
X119013333Y-91783000D01*
X118730667Y-91783000D01*
X118312091Y-91866260D01*
X117837423Y-92183423D01*
X117520260Y-92658091D01*
X117408887Y-93218000D01*
X117520260Y-93777909D01*
X117837423Y-94252577D01*
X118312091Y-94569740D01*
X118730667Y-94653000D01*
X119013333Y-94653000D01*
X119195886Y-94616688D01*
X119911526Y-95332329D01*
X119911530Y-95332332D01*
X121329671Y-96750473D01*
X121372071Y-96813929D01*
X121623463Y-96981904D01*
X121845148Y-97026000D01*
X121845153Y-97026000D01*
X121920000Y-97040888D01*
X121994847Y-97026000D01*
X130655549Y-97026000D01*
X130702843Y-97263765D01*
X130843191Y-97473809D01*
X131053235Y-97614157D01*
X131301000Y-97663440D01*
X132351000Y-97663440D01*
X132598765Y-97614157D01*
X132644134Y-97583842D01*
X133096000Y-97673725D01*
X133548609Y-97583695D01*
X133740996Y-97455146D01*
X133998664Y-97601266D01*
X134060190Y-97609964D01*
X134239000Y-97484163D01*
X134239000Y-96690709D01*
X134256000Y-96605245D01*
X134256000Y-96393000D01*
X134493000Y-96393000D01*
X134493000Y-97484163D01*
X134671810Y-97609964D01*
X134733336Y-97601266D01*
X135130255Y-97376179D01*
X135410823Y-97016331D01*
X135532326Y-96576506D01*
X135372593Y-96393000D01*
X134493000Y-96393000D01*
X134256000Y-96393000D01*
X134256000Y-96119000D01*
X134493000Y-96119000D01*
X134493000Y-96139000D01*
X135372593Y-96139000D01*
X135532326Y-95955494D01*
X135531082Y-95950990D01*
X145817191Y-95950990D01*
X149179222Y-99313022D01*
X148825423Y-99549423D01*
X148641957Y-99824000D01*
X141044848Y-99824000D01*
X140970000Y-99809112D01*
X140895152Y-99824000D01*
X140895148Y-99824000D01*
X140721605Y-99858520D01*
X140673462Y-99868096D01*
X140562858Y-99942000D01*
X140422071Y-100036071D01*
X140379671Y-100099527D01*
X137498302Y-102980897D01*
X137445439Y-102959000D01*
X136874561Y-102959000D01*
X136347138Y-103177466D01*
X135943466Y-103581138D01*
X135725000Y-104108561D01*
X135725000Y-104679439D01*
X135943466Y-105206862D01*
X136347138Y-105610534D01*
X136400001Y-105632431D01*
X136400000Y-110093809D01*
X136285333Y-110071000D01*
X136002667Y-110071000D01*
X135584091Y-110154260D01*
X135233101Y-110388784D01*
X135213474Y-110375670D01*
X130271333Y-105433530D01*
X130228931Y-105370071D01*
X129977539Y-105202096D01*
X129755854Y-105158000D01*
X129755849Y-105158000D01*
X129681002Y-105143112D01*
X129606155Y-105158000D01*
X125666966Y-105158000D01*
X125691041Y-105131423D01*
X125851904Y-104743039D01*
X125729915Y-104521000D01*
X124587000Y-104521000D01*
X124587000Y-104541000D01*
X124333000Y-104541000D01*
X124333000Y-104521000D01*
X123190085Y-104521000D01*
X123068096Y-104743039D01*
X123228959Y-105131423D01*
X123253034Y-105158000D01*
X120110430Y-105158000D01*
X120088534Y-105105138D01*
X119684862Y-104701466D01*
X119157439Y-104483000D01*
X118586561Y-104483000D01*
X118059138Y-104701466D01*
X117655466Y-105105138D01*
X117633570Y-105158000D01*
X114748802Y-105158000D01*
X113635763Y-104044961D01*
X123068096Y-104044961D01*
X123190085Y-104267000D01*
X124333000Y-104267000D01*
X124333000Y-103123371D01*
X124587000Y-103123371D01*
X124587000Y-104267000D01*
X125729915Y-104267000D01*
X125851904Y-104044961D01*
X125691041Y-103656577D01*
X125315134Y-103241611D01*
X124809041Y-103002086D01*
X124587000Y-103123371D01*
X124333000Y-103123371D01*
X124110959Y-103002086D01*
X123604866Y-103241611D01*
X123228959Y-103656577D01*
X123068096Y-104044961D01*
X113635763Y-104044961D01*
X110024177Y-100433376D01*
X110093000Y-100267222D01*
X110093000Y-99616778D01*
X109844086Y-99015847D01*
X109384153Y-98555914D01*
X108783222Y-98307000D01*
X108132778Y-98307000D01*
X107531847Y-98555914D01*
X107071914Y-99015847D01*
X106823000Y-99616778D01*
X106823000Y-100267222D01*
X107071914Y-100868153D01*
X107531847Y-101328086D01*
X108132778Y-101577000D01*
X108783222Y-101577000D01*
X108949376Y-101508177D01*
X113843670Y-106402472D01*
X113886071Y-106465929D01*
X114137463Y-106633904D01*
X114359148Y-106678000D01*
X114359152Y-106678000D01*
X114433999Y-106692888D01*
X114508846Y-106678000D01*
X117633570Y-106678000D01*
X117655466Y-106730862D01*
X118059138Y-107134534D01*
X118586561Y-107353000D01*
X119157439Y-107353000D01*
X119684862Y-107134534D01*
X120088534Y-106730862D01*
X120110430Y-106678000D01*
X129366201Y-106678000D01*
X132934872Y-110246672D01*
X132866577Y-110274959D01*
X132451611Y-110650866D01*
X132212086Y-111156959D01*
X132333371Y-111379000D01*
X133477000Y-111379000D01*
X133477000Y-111359000D01*
X133731000Y-111359000D01*
X133731000Y-111379000D01*
X133751000Y-111379000D01*
X133751000Y-111633000D01*
X133731000Y-111633000D01*
X133731000Y-112775915D01*
X133953039Y-112897904D01*
X134341423Y-112737041D01*
X134370400Y-112710791D01*
X135682081Y-114022473D01*
X135724481Y-114085929D01*
X135975873Y-114253904D01*
X136197558Y-114298000D01*
X136197563Y-114298000D01*
X136272410Y-114312888D01*
X136347257Y-114298000D01*
X137708523Y-114298000D01*
X137783370Y-114312888D01*
X137858217Y-114298000D01*
X137858222Y-114298000D01*
X138079907Y-114253904D01*
X138331299Y-114085929D01*
X138373701Y-114022470D01*
X139168473Y-113227699D01*
X139231929Y-113185299D01*
X139399904Y-112933907D01*
X139441288Y-112725855D01*
X139718577Y-112540577D01*
X139799215Y-112419894D01*
X139825843Y-112553765D01*
X139966191Y-112763809D01*
X140176235Y-112904157D01*
X140424000Y-112953440D01*
X140464001Y-112953440D01*
X140464001Y-113731197D01*
X136467887Y-117727312D01*
X136285333Y-117691000D01*
X136002667Y-117691000D01*
X135820114Y-117727312D01*
X135159321Y-117066520D01*
X135116919Y-117003061D01*
X134865527Y-116835086D01*
X134643842Y-116790990D01*
X134643837Y-116790990D01*
X134568990Y-116776102D01*
X134494143Y-116790990D01*
X118627793Y-116790990D01*
X114610489Y-112773687D01*
X114587583Y-112658532D01*
X116121073Y-112658532D01*
X116219736Y-112925387D01*
X116829461Y-113151908D01*
X117479460Y-113127856D01*
X117968264Y-112925387D01*
X118066927Y-112658532D01*
X124757073Y-112658532D01*
X124855736Y-112925387D01*
X125465461Y-113151908D01*
X126115460Y-113127856D01*
X126604264Y-112925387D01*
X126702927Y-112658532D01*
X125730000Y-111685605D01*
X124757073Y-112658532D01*
X118066927Y-112658532D01*
X117094000Y-111685605D01*
X116121073Y-112658532D01*
X114587583Y-112658532D01*
X114562904Y-112534464D01*
X114437330Y-112346529D01*
X114382331Y-112291530D01*
X114382329Y-112291527D01*
X113366331Y-111275530D01*
X113343567Y-111241461D01*
X115448092Y-111241461D01*
X115472144Y-111891460D01*
X115674613Y-112380264D01*
X115941468Y-112478927D01*
X116914395Y-111506000D01*
X117273605Y-111506000D01*
X118246532Y-112478927D01*
X118513387Y-112380264D01*
X118739908Y-111770539D01*
X118720331Y-111241461D01*
X124084092Y-111241461D01*
X124108144Y-111891460D01*
X124310613Y-112380264D01*
X124577468Y-112478927D01*
X125550395Y-111506000D01*
X125909605Y-111506000D01*
X126882532Y-112478927D01*
X127149387Y-112380264D01*
X127344514Y-111855041D01*
X132212086Y-111855041D01*
X132451611Y-112361134D01*
X132866577Y-112737041D01*
X133254961Y-112897904D01*
X133477000Y-112775915D01*
X133477000Y-111633000D01*
X132333371Y-111633000D01*
X132212086Y-111855041D01*
X127344514Y-111855041D01*
X127375908Y-111770539D01*
X127351856Y-111120540D01*
X127149387Y-110631736D01*
X126882532Y-110533073D01*
X125909605Y-111506000D01*
X125550395Y-111506000D01*
X124577468Y-110533073D01*
X124310613Y-110631736D01*
X124084092Y-111241461D01*
X118720331Y-111241461D01*
X118715856Y-111120540D01*
X118513387Y-110631736D01*
X118246532Y-110533073D01*
X117273605Y-111506000D01*
X116914395Y-111506000D01*
X115941468Y-110533073D01*
X115674613Y-110631736D01*
X115448092Y-111241461D01*
X113343567Y-111241461D01*
X113323929Y-111212071D01*
X113260473Y-111169671D01*
X112444270Y-110353468D01*
X116121073Y-110353468D01*
X117094000Y-111326395D01*
X118066927Y-110353468D01*
X124757073Y-110353468D01*
X125730000Y-111326395D01*
X126702927Y-110353468D01*
X126604264Y-110086613D01*
X125994539Y-109860092D01*
X125344540Y-109884144D01*
X124855736Y-110086613D01*
X124757073Y-110353468D01*
X118066927Y-110353468D01*
X117968264Y-110086613D01*
X117358539Y-109860092D01*
X116708540Y-109884144D01*
X116219736Y-110086613D01*
X116121073Y-110353468D01*
X112444270Y-110353468D01*
X110048330Y-107957529D01*
X110048328Y-107957526D01*
X110024177Y-107933375D01*
X110093000Y-107767222D01*
X110093000Y-107116778D01*
X109844086Y-106515847D01*
X109384153Y-106055914D01*
X108783222Y-105807000D01*
X108132778Y-105807000D01*
X107531847Y-106055914D01*
X107071914Y-106515847D01*
X106823000Y-107116778D01*
X106823000Y-107767222D01*
X106891823Y-107933375D01*
X104717887Y-110107312D01*
X104535333Y-110071000D01*
X104252667Y-110071000D01*
X103834091Y-110154260D01*
X103359423Y-110471423D01*
X103103053Y-110855108D01*
X103006389Y-110650866D01*
X102591423Y-110274959D01*
X102203039Y-110114096D01*
X101981000Y-110236085D01*
X101981000Y-111379000D01*
X102001000Y-111379000D01*
X102001000Y-111633000D01*
X101981000Y-111633000D01*
X101981000Y-112775915D01*
X102203039Y-112897904D01*
X102591423Y-112737041D01*
X103006389Y-112361134D01*
X103103053Y-112156892D01*
X103359423Y-112540577D01*
X103834091Y-112857740D01*
X104252667Y-112941000D01*
X104424198Y-112941000D01*
X101343189Y-116022010D01*
X96671850Y-116022010D01*
X96669778Y-115978546D01*
X96503864Y-115577995D01*
X96257745Y-115503861D01*
X95429605Y-116332000D01*
X95443748Y-116346142D01*
X95264143Y-116525748D01*
X95250000Y-116511605D01*
X95235858Y-116525748D01*
X95056252Y-116346142D01*
X95070395Y-116332000D01*
X94242255Y-115503861D01*
X93996136Y-115577995D01*
X93972249Y-115644450D01*
X93652054Y-115324255D01*
X94421861Y-115324255D01*
X95250000Y-116152395D01*
X96078139Y-115324255D01*
X96004005Y-115078136D01*
X95466777Y-114885035D01*
X94896546Y-114912222D01*
X94495995Y-115078136D01*
X94421861Y-115324255D01*
X93652054Y-115324255D01*
X93285990Y-114958191D01*
X93285990Y-112189291D01*
X93324000Y-112201000D01*
X93599000Y-112201000D01*
X93599000Y-111093000D01*
X93853000Y-111093000D01*
X93853000Y-112201000D01*
X94128000Y-112201000D01*
X94590947Y-112058390D01*
X94836567Y-111855041D01*
X100462086Y-111855041D01*
X100701611Y-112361134D01*
X101116577Y-112737041D01*
X101504961Y-112897904D01*
X101727000Y-112775915D01*
X101727000Y-111633000D01*
X100583371Y-111633000D01*
X100462086Y-111855041D01*
X94836567Y-111855041D01*
X94964080Y-111749474D01*
X95190592Y-111321281D01*
X95194462Y-111283609D01*
X95111585Y-111156959D01*
X100462086Y-111156959D01*
X100583371Y-111379000D01*
X101727000Y-111379000D01*
X101727000Y-110236085D01*
X101504961Y-110114096D01*
X101116577Y-110274959D01*
X100701611Y-110650866D01*
X100462086Y-111156959D01*
X95111585Y-111156959D01*
X95069731Y-111093000D01*
X93853000Y-111093000D01*
X93599000Y-111093000D01*
X93579000Y-111093000D01*
X93579000Y-110839000D01*
X93599000Y-110839000D01*
X93599000Y-110819000D01*
X93853000Y-110819000D01*
X93853000Y-110839000D01*
X95069731Y-110839000D01*
X95194462Y-110648391D01*
X95190592Y-110610719D01*
X94964080Y-110182526D01*
X94818653Y-110062127D01*
X94985586Y-109950586D01*
X95180127Y-109659436D01*
X95248440Y-109316001D01*
X95248440Y-108615999D01*
X95180127Y-108272564D01*
X94985586Y-107981414D01*
X94694436Y-107786873D01*
X94351001Y-107718560D01*
X93100999Y-107718560D01*
X92757564Y-107786873D01*
X92466414Y-107981414D01*
X92271873Y-108272564D01*
X92203560Y-108615999D01*
X92203560Y-109316001D01*
X92219759Y-109397440D01*
X92041518Y-109575681D01*
X91978062Y-109618081D01*
X91946000Y-109666065D01*
X91946000Y-97088801D01*
X92579106Y-96455695D01*
X92741920Y-96763474D01*
X93115053Y-97072390D01*
X93578000Y-97215000D01*
X93853000Y-97215000D01*
X93853000Y-96107000D01*
X94107000Y-96107000D01*
X94107000Y-97215000D01*
X94382000Y-97215000D01*
X94844947Y-97072390D01*
X95218080Y-96763474D01*
X95444592Y-96335281D01*
X95448462Y-96297609D01*
X95323731Y-96107000D01*
X94107000Y-96107000D01*
X93853000Y-96107000D01*
X93833000Y-96107000D01*
X93833000Y-95853000D01*
X93853000Y-95853000D01*
X93853000Y-95833000D01*
X94107000Y-95833000D01*
X94107000Y-95853000D01*
X95323731Y-95853000D01*
X95448462Y-95662391D01*
X95444592Y-95624719D01*
X95218080Y-95196526D01*
X95072653Y-95076127D01*
X95239586Y-94964586D01*
X95434127Y-94673436D01*
X95502440Y-94330001D01*
X95502440Y-93629999D01*
X95434127Y-93286564D01*
X95239586Y-92995414D01*
X94948436Y-92800873D01*
X94605001Y-92732560D01*
X93354999Y-92732560D01*
X93011564Y-92800873D01*
X92720414Y-92995414D01*
X92525873Y-93286564D01*
X92457560Y-93629999D01*
X92457560Y-94330001D01*
X92473759Y-94411440D01*
X92041520Y-94843679D01*
X92041517Y-94843681D01*
X90701528Y-96183671D01*
X90638072Y-96226071D01*
X90595672Y-96289527D01*
X90595671Y-96289528D01*
X90470097Y-96477463D01*
X90411112Y-96774000D01*
X90426001Y-96848852D01*
X90426000Y-113717148D01*
X90426000Y-114494565D01*
X90411112Y-114569412D01*
X90426000Y-114644259D01*
X90426000Y-114644263D01*
X90470096Y-114865948D01*
X90638071Y-115117341D01*
X90701530Y-115159743D01*
X94644259Y-119102473D01*
X94686659Y-119165929D01*
X94938051Y-119333904D01*
X95159736Y-119378000D01*
X95159740Y-119378000D01*
X95234587Y-119392888D01*
X95309434Y-119378000D01*
X98223153Y-119378000D01*
X98298000Y-119392888D01*
X98372847Y-119378000D01*
X98372852Y-119378000D01*
X98594537Y-119333904D01*
X98845929Y-119165929D01*
X98888331Y-119102470D01*
X99773801Y-118217001D01*
X100735514Y-118217001D01*
X100502260Y-118566091D01*
X100390887Y-119126000D01*
X100502260Y-119685909D01*
X100819423Y-120160577D01*
X101294091Y-120477740D01*
X101712667Y-120561000D01*
X101995333Y-120561000D01*
X102177887Y-120524688D01*
X108629670Y-126976472D01*
X108672071Y-127039929D01*
X108923463Y-127207904D01*
X109145148Y-127252000D01*
X109145152Y-127252000D01*
X109219999Y-127266888D01*
X109294846Y-127252000D01*
X114753261Y-127252000D01*
X114733152Y-127256000D01*
X114733148Y-127256000D01*
X114511463Y-127300096D01*
X114511461Y-127300097D01*
X114511462Y-127300097D01*
X114323526Y-127425671D01*
X114323524Y-127425673D01*
X114260071Y-127468071D01*
X114217673Y-127531525D01*
X113523530Y-128225668D01*
X113460072Y-128268070D01*
X113457446Y-128272000D01*
X96468043Y-128272000D01*
X96284577Y-127997423D01*
X95809909Y-127680260D01*
X95391333Y-127597000D01*
X95108667Y-127597000D01*
X94690091Y-127680260D01*
X94215423Y-127997423D01*
X93898260Y-128472091D01*
X93786887Y-129032000D01*
X93898260Y-129591909D01*
X94215423Y-130066577D01*
X94690091Y-130383740D01*
X95108667Y-130467000D01*
X95391333Y-130467000D01*
X95809909Y-130383740D01*
X96284577Y-130066577D01*
X96468043Y-129792000D01*
X113248001Y-129792000D01*
X113248002Y-134507149D01*
X113233113Y-134582001D01*
X113248002Y-134656853D01*
X113292098Y-134878538D01*
X113460073Y-135129930D01*
X113523528Y-135172329D01*
X113917312Y-135566115D01*
X113852887Y-135890000D01*
X113964260Y-136449909D01*
X114281423Y-136924577D01*
X114756091Y-137241740D01*
X115174667Y-137325000D01*
X115457333Y-137325000D01*
X115875909Y-137241740D01*
X116350577Y-136924577D01*
X116667740Y-136449909D01*
X116779113Y-135890000D01*
X116667740Y-135330091D01*
X116350577Y-134855423D01*
X115875909Y-134538260D01*
X115457333Y-134455000D01*
X115174667Y-134455000D01*
X114992115Y-134491312D01*
X114768001Y-134267199D01*
X114768001Y-129130801D01*
X115122802Y-128776000D01*
X120427570Y-128776000D01*
X120449466Y-128828862D01*
X120853138Y-129232534D01*
X121380561Y-129451000D01*
X121951439Y-129451000D01*
X122478862Y-129232534D01*
X122882534Y-128828862D01*
X122938001Y-128694953D01*
X122938000Y-138303000D01*
X85220386Y-138303000D01*
X86483651Y-90298947D01*
X167513000Y-91565031D01*
G04 #@! TD*
M02*
