M48
INCH,TZ
T1C0.0295
T2C0.0315
T3C0.0394
T4C0.0433
%
G90
G05
T1
X53000Y-35813
X53000Y-36600
X53000Y-49013
X53000Y-49800
X29250Y-41000
X29250Y-41787
X29400Y-37000
X29400Y-37500
X29400Y-38000
X29250Y-49000
X29250Y-49787
T2
X36200Y-41400
X36200Y-46400
X45800Y-35600
X50800Y-35600
X34000Y-41600
X34000Y-46600
X31200Y-42200
X31200Y-47200
X31400Y-35600
X36400Y-35600
X38600Y-35600
X43600Y-35600
X38000Y-43000
X38000Y-46000
X39000Y-43000
X39000Y-46000
X40000Y-43000
X40000Y-46000
X41000Y-43000
X41000Y-46000
X49000Y-42800
X49000Y-45800
X50000Y-42800
X50000Y-45800
X51000Y-42800
X51000Y-45800
X52000Y-42800
X52000Y-45800
X45800Y-39000
X50800Y-39000
X31400Y-38400
X36400Y-38400
X38600Y-39000
X43600Y-39000
T3
X46400Y-43047
X46400Y-46000
X44447Y-48400
X47400Y-48400
X43400Y-43047
X43400Y-46000
T4
X32750Y-49500
X33750Y-49500
X34750Y-49500
T0
M30
