G04 #@! TF.GenerationSoftware,KiCad,Pcbnew,(5.0.1)-rc2*
G04 #@! TF.CreationDate,2018-10-16T23:55:48-04:00*
G04 #@! TF.ProjectId,vco2,76636F322E6B696361645F7063620000,1*
G04 #@! TF.SameCoordinates,Original*
G04 #@! TF.FileFunction,Soldermask,Top*
G04 #@! TF.FilePolarity,Negative*
%FSLAX46Y46*%
G04 Gerber Fmt 4.6, Leading zero omitted, Abs format (unit mm)*
G04 Created by KiCad (PCBNEW (5.0.1)-rc2) date 10/16/2018 11:55:48 PM*
%MOMM*%
%LPD*%
G01*
G04 APERTURE LIST*
%ADD10C,0.100000*%
G04 APERTURE END LIST*
D10*
G36*
X135386242Y-125845404D02*
X135423339Y-125856657D01*
X135457520Y-125874927D01*
X135487482Y-125899518D01*
X135512073Y-125929480D01*
X135530343Y-125963661D01*
X135541596Y-126000758D01*
X135546000Y-126045473D01*
X135546000Y-126938527D01*
X135541596Y-126983242D01*
X135530343Y-127020339D01*
X135512073Y-127054520D01*
X135487482Y-127084482D01*
X135457520Y-127109073D01*
X135423339Y-127127343D01*
X135386242Y-127138596D01*
X135341527Y-127143000D01*
X133898473Y-127143000D01*
X133853758Y-127138596D01*
X133816661Y-127127343D01*
X133782480Y-127109073D01*
X133752518Y-127084482D01*
X133727927Y-127054520D01*
X133709657Y-127020339D01*
X133698404Y-126983242D01*
X133694000Y-126938527D01*
X133694000Y-126045473D01*
X133698404Y-126000758D01*
X133709657Y-125963661D01*
X133727927Y-125929480D01*
X133752518Y-125899518D01*
X133782480Y-125874927D01*
X133816661Y-125856657D01*
X133853758Y-125845404D01*
X133898473Y-125841000D01*
X135341527Y-125841000D01*
X135386242Y-125845404D01*
X135386242Y-125845404D01*
G37*
G36*
X74633855Y-125812140D02*
X74697618Y-125818420D01*
X74772054Y-125841000D01*
X74820333Y-125855645D01*
X74878458Y-125886714D01*
X74933426Y-125916095D01*
X75032553Y-125997447D01*
X75113905Y-126096574D01*
X75113906Y-126096576D01*
X75174355Y-126209667D01*
X75174355Y-126209668D01*
X75211580Y-126332382D01*
X75224149Y-126460000D01*
X75211580Y-126587618D01*
X75202995Y-126615919D01*
X75174355Y-126710333D01*
X75136582Y-126781000D01*
X75113905Y-126823426D01*
X75032553Y-126922553D01*
X74933426Y-127003905D01*
X74933424Y-127003906D01*
X74820333Y-127064355D01*
X74779427Y-127076763D01*
X74697618Y-127101580D01*
X74633855Y-127107860D01*
X74601974Y-127111000D01*
X73988026Y-127111000D01*
X73956145Y-127107860D01*
X73892382Y-127101580D01*
X73810573Y-127076763D01*
X73769667Y-127064355D01*
X73656576Y-127003906D01*
X73656574Y-127003905D01*
X73557447Y-126922553D01*
X73476095Y-126823426D01*
X73453418Y-126781000D01*
X73415645Y-126710333D01*
X73387005Y-126615919D01*
X73378420Y-126587618D01*
X73365851Y-126460000D01*
X73378420Y-126332382D01*
X73415645Y-126209668D01*
X73415645Y-126209667D01*
X73476094Y-126096576D01*
X73476095Y-126096574D01*
X73557447Y-125997447D01*
X73656574Y-125916095D01*
X73711542Y-125886714D01*
X73769667Y-125855645D01*
X73817946Y-125841000D01*
X73892382Y-125818420D01*
X73956145Y-125812140D01*
X73988026Y-125809000D01*
X74601974Y-125809000D01*
X74633855Y-125812140D01*
X74633855Y-125812140D01*
G37*
G36*
X83381720Y-124693520D02*
X83570881Y-124750901D01*
X83745212Y-124844083D01*
X83898015Y-124969485D01*
X84023417Y-125122288D01*
X84116599Y-125296620D01*
X84173980Y-125485781D01*
X84173980Y-125485784D01*
X84188500Y-125633205D01*
X84188500Y-125826796D01*
X84185559Y-125856657D01*
X84173980Y-125974220D01*
X84116599Y-126163381D01*
X84023417Y-126337712D01*
X83898015Y-126490515D01*
X83745212Y-126615917D01*
X83570880Y-126709099D01*
X83381719Y-126766480D01*
X83185000Y-126785855D01*
X82988280Y-126766480D01*
X82799119Y-126709099D01*
X82624788Y-126615917D01*
X82471985Y-126490515D01*
X82346583Y-126337712D01*
X82253401Y-126163380D01*
X82196020Y-125974219D01*
X82184342Y-125855645D01*
X82181500Y-125826795D01*
X82181500Y-125633204D01*
X82196020Y-125485783D01*
X82196020Y-125485780D01*
X82253401Y-125296619D01*
X82346583Y-125122288D01*
X82471985Y-124969485D01*
X82624788Y-124844083D01*
X82799120Y-124750901D01*
X82988281Y-124693520D01*
X83185000Y-124674145D01*
X83381720Y-124693520D01*
X83381720Y-124693520D01*
G37*
G36*
X85921720Y-124693520D02*
X86110881Y-124750901D01*
X86285212Y-124844083D01*
X86438015Y-124969485D01*
X86563417Y-125122288D01*
X86656599Y-125296620D01*
X86713980Y-125485781D01*
X86713980Y-125485784D01*
X86728500Y-125633205D01*
X86728500Y-125826796D01*
X86725559Y-125856657D01*
X86713980Y-125974220D01*
X86656599Y-126163381D01*
X86563417Y-126337712D01*
X86438015Y-126490515D01*
X86285212Y-126615917D01*
X86110880Y-126709099D01*
X85921719Y-126766480D01*
X85725000Y-126785855D01*
X85528280Y-126766480D01*
X85339119Y-126709099D01*
X85164788Y-126615917D01*
X85011985Y-126490515D01*
X84886583Y-126337712D01*
X84793401Y-126163380D01*
X84736020Y-125974219D01*
X84724342Y-125855645D01*
X84721500Y-125826795D01*
X84721500Y-125633204D01*
X84736020Y-125485783D01*
X84736020Y-125485780D01*
X84793401Y-125296619D01*
X84886583Y-125122288D01*
X85011985Y-124969485D01*
X85164788Y-124844083D01*
X85339120Y-124750901D01*
X85528281Y-124693520D01*
X85725000Y-124674145D01*
X85921720Y-124693520D01*
X85921720Y-124693520D01*
G37*
G36*
X89268500Y-126781000D02*
X87261500Y-126781000D01*
X87261500Y-124679000D01*
X89268500Y-124679000D01*
X89268500Y-126781000D01*
X89268500Y-126781000D01*
G37*
G36*
X134946539Y-123842927D02*
X135022618Y-123850420D01*
X135078982Y-123867518D01*
X135145333Y-123887645D01*
X135223733Y-123929551D01*
X135258426Y-123948095D01*
X135357553Y-124029447D01*
X135438905Y-124128574D01*
X135438906Y-124128576D01*
X135499355Y-124241667D01*
X135499355Y-124241668D01*
X135536580Y-124364382D01*
X135549149Y-124492000D01*
X135536580Y-124619618D01*
X135514162Y-124693520D01*
X135499355Y-124742333D01*
X135494775Y-124750901D01*
X135438905Y-124855426D01*
X135357553Y-124954553D01*
X135258426Y-125035905D01*
X135258424Y-125035906D01*
X135145333Y-125096355D01*
X135114236Y-125105788D01*
X135022618Y-125133580D01*
X134958855Y-125139860D01*
X134926974Y-125143000D01*
X134313026Y-125143000D01*
X134281145Y-125139860D01*
X134217382Y-125133580D01*
X134125764Y-125105788D01*
X134094667Y-125096355D01*
X133981576Y-125035906D01*
X133981574Y-125035905D01*
X133882447Y-124954553D01*
X133801095Y-124855426D01*
X133745225Y-124750901D01*
X133740645Y-124742333D01*
X133725838Y-124693520D01*
X133703420Y-124619618D01*
X133690851Y-124492000D01*
X133703420Y-124364382D01*
X133740645Y-124241668D01*
X133740645Y-124241667D01*
X133801094Y-124128576D01*
X133801095Y-124128574D01*
X133882447Y-124029447D01*
X133981574Y-123948095D01*
X134016267Y-123929551D01*
X134094667Y-123887645D01*
X134161018Y-123867518D01*
X134217382Y-123850420D01*
X134293461Y-123842927D01*
X134313026Y-123841000D01*
X134926974Y-123841000D01*
X134946539Y-123842927D01*
X134946539Y-123842927D01*
G37*
G36*
X75061242Y-123813404D02*
X75098339Y-123824657D01*
X75132520Y-123842927D01*
X75162482Y-123867518D01*
X75187073Y-123897480D01*
X75205343Y-123931661D01*
X75216596Y-123968758D01*
X75221000Y-124013473D01*
X75221000Y-124906527D01*
X75216596Y-124951242D01*
X75205343Y-124988339D01*
X75187073Y-125022520D01*
X75162482Y-125052482D01*
X75132520Y-125077073D01*
X75098339Y-125095343D01*
X75061242Y-125106596D01*
X75016527Y-125111000D01*
X73573473Y-125111000D01*
X73528758Y-125106596D01*
X73491661Y-125095343D01*
X73457480Y-125077073D01*
X73427518Y-125052482D01*
X73402927Y-125022520D01*
X73384657Y-124988339D01*
X73373404Y-124951242D01*
X73369000Y-124906527D01*
X73369000Y-124013473D01*
X73373404Y-123968758D01*
X73384657Y-123931661D01*
X73402927Y-123897480D01*
X73427518Y-123867518D01*
X73457480Y-123842927D01*
X73491661Y-123824657D01*
X73528758Y-123813404D01*
X73573473Y-123809000D01*
X75016527Y-123809000D01*
X75061242Y-123813404D01*
X75061242Y-123813404D01*
G37*
G36*
X120702565Y-121925389D02*
X120893834Y-122004615D01*
X121065976Y-122119637D01*
X121212363Y-122266024D01*
X121327385Y-122438166D01*
X121406611Y-122629435D01*
X121447000Y-122832484D01*
X121447000Y-123039516D01*
X121406611Y-123242565D01*
X121327385Y-123433834D01*
X121212363Y-123605976D01*
X121065976Y-123752363D01*
X120893834Y-123867385D01*
X120702565Y-123946611D01*
X120499516Y-123987000D01*
X120292484Y-123987000D01*
X120089435Y-123946611D01*
X119898166Y-123867385D01*
X119726024Y-123752363D01*
X119579637Y-123605976D01*
X119464615Y-123433834D01*
X119385389Y-123242565D01*
X119345000Y-123039516D01*
X119345000Y-122832484D01*
X119385389Y-122629435D01*
X119464615Y-122438166D01*
X119579637Y-122266024D01*
X119726024Y-122119637D01*
X119898166Y-122004615D01*
X120089435Y-121925389D01*
X120292484Y-121885000D01*
X120499516Y-121885000D01*
X120702565Y-121925389D01*
X120702565Y-121925389D01*
G37*
G36*
X113202565Y-121925389D02*
X113393834Y-122004615D01*
X113565976Y-122119637D01*
X113712363Y-122266024D01*
X113827385Y-122438166D01*
X113906611Y-122629435D01*
X113947000Y-122832484D01*
X113947000Y-123039516D01*
X113906611Y-123242565D01*
X113827385Y-123433834D01*
X113712363Y-123605976D01*
X113565976Y-123752363D01*
X113393834Y-123867385D01*
X113202565Y-123946611D01*
X112999516Y-123987000D01*
X112792484Y-123987000D01*
X112589435Y-123946611D01*
X112398166Y-123867385D01*
X112226024Y-123752363D01*
X112079637Y-123605976D01*
X111964615Y-123433834D01*
X111885389Y-123242565D01*
X111845000Y-123039516D01*
X111845000Y-122832484D01*
X111885389Y-122629435D01*
X111964615Y-122438166D01*
X112079637Y-122266024D01*
X112226024Y-122119637D01*
X112398166Y-122004615D01*
X112589435Y-121925389D01*
X112792484Y-121885000D01*
X112999516Y-121885000D01*
X113202565Y-121925389D01*
X113202565Y-121925389D01*
G37*
G36*
X79496228Y-119069703D02*
X79651100Y-119133853D01*
X79790481Y-119226985D01*
X79909015Y-119345519D01*
X80002147Y-119484900D01*
X80066297Y-119639772D01*
X80099000Y-119804184D01*
X80099000Y-119971816D01*
X80066297Y-120136228D01*
X80002147Y-120291100D01*
X79909015Y-120430481D01*
X79790481Y-120549015D01*
X79651100Y-120642147D01*
X79496228Y-120706297D01*
X79331816Y-120739000D01*
X79164184Y-120739000D01*
X78999772Y-120706297D01*
X78844900Y-120642147D01*
X78705519Y-120549015D01*
X78586985Y-120430481D01*
X78493853Y-120291100D01*
X78429703Y-120136228D01*
X78397000Y-119971816D01*
X78397000Y-119804184D01*
X78429703Y-119639772D01*
X78493853Y-119484900D01*
X78586985Y-119345519D01*
X78705519Y-119226985D01*
X78844900Y-119133853D01*
X78999772Y-119069703D01*
X79164184Y-119037000D01*
X79331816Y-119037000D01*
X79496228Y-119069703D01*
X79496228Y-119069703D01*
G37*
G36*
X86526821Y-117525313D02*
X86526824Y-117525314D01*
X86526825Y-117525314D01*
X86687239Y-117573975D01*
X86687241Y-117573976D01*
X86687244Y-117573977D01*
X86835078Y-117652995D01*
X86964659Y-117759341D01*
X87071005Y-117888922D01*
X87150023Y-118036756D01*
X87150024Y-118036759D01*
X87150025Y-118036761D01*
X87198686Y-118197175D01*
X87198687Y-118197179D01*
X87215117Y-118364000D01*
X87198687Y-118530821D01*
X87198686Y-118530824D01*
X87198686Y-118530825D01*
X87155165Y-118674296D01*
X87150023Y-118691244D01*
X87071005Y-118839078D01*
X86964659Y-118968659D01*
X86835078Y-119075005D01*
X86687244Y-119154023D01*
X86687241Y-119154024D01*
X86687239Y-119154025D01*
X86526825Y-119202686D01*
X86526824Y-119202686D01*
X86526821Y-119202687D01*
X86401804Y-119215000D01*
X86318196Y-119215000D01*
X86193179Y-119202687D01*
X86193176Y-119202686D01*
X86193175Y-119202686D01*
X86032761Y-119154025D01*
X86032759Y-119154024D01*
X86032756Y-119154023D01*
X85884922Y-119075005D01*
X85755341Y-118968659D01*
X85648995Y-118839078D01*
X85569977Y-118691244D01*
X85564836Y-118674296D01*
X85521314Y-118530825D01*
X85521314Y-118530824D01*
X85521313Y-118530821D01*
X85504883Y-118364000D01*
X85521313Y-118197179D01*
X85521314Y-118197175D01*
X85569975Y-118036761D01*
X85569976Y-118036759D01*
X85569977Y-118036756D01*
X85648995Y-117888922D01*
X85755341Y-117759341D01*
X85884922Y-117652995D01*
X86032756Y-117573977D01*
X86032759Y-117573976D01*
X86032761Y-117573975D01*
X86193175Y-117525314D01*
X86193176Y-117525314D01*
X86193179Y-117525313D01*
X86318196Y-117513000D01*
X86401804Y-117513000D01*
X86526821Y-117525313D01*
X86526821Y-117525313D01*
G37*
G36*
X92196228Y-117037703D02*
X92351100Y-117101853D01*
X92490481Y-117194985D01*
X92609015Y-117313519D01*
X92702147Y-117452900D01*
X92766297Y-117607772D01*
X92799000Y-117772184D01*
X92799000Y-117939816D01*
X92766297Y-118104228D01*
X92702147Y-118259100D01*
X92609015Y-118398481D01*
X92490481Y-118517015D01*
X92351100Y-118610147D01*
X92196228Y-118674297D01*
X92031816Y-118707000D01*
X91864184Y-118707000D01*
X91699772Y-118674297D01*
X91544900Y-118610147D01*
X91405519Y-118517015D01*
X91286985Y-118398481D01*
X91193853Y-118259100D01*
X91129703Y-118104228D01*
X91097000Y-117939816D01*
X91097000Y-117772184D01*
X91129703Y-117607772D01*
X91193853Y-117452900D01*
X91286985Y-117313519D01*
X91405519Y-117194985D01*
X91544900Y-117101853D01*
X91699772Y-117037703D01*
X91864184Y-117005000D01*
X92031816Y-117005000D01*
X92196228Y-117037703D01*
X92196228Y-117037703D01*
G37*
G36*
X110542565Y-115829389D02*
X110733834Y-115908615D01*
X110905976Y-116023637D01*
X111052363Y-116170024D01*
X111167385Y-116342166D01*
X111246611Y-116533435D01*
X111287000Y-116736484D01*
X111287000Y-116943516D01*
X111246611Y-117146565D01*
X111167385Y-117337834D01*
X111052363Y-117509976D01*
X110905976Y-117656363D01*
X110733834Y-117771385D01*
X110542565Y-117850611D01*
X110339516Y-117891000D01*
X110132484Y-117891000D01*
X109929435Y-117850611D01*
X109738166Y-117771385D01*
X109566024Y-117656363D01*
X109419637Y-117509976D01*
X109304615Y-117337834D01*
X109225389Y-117146565D01*
X109185000Y-116943516D01*
X109185000Y-116736484D01*
X109225389Y-116533435D01*
X109304615Y-116342166D01*
X109419637Y-116170024D01*
X109566024Y-116023637D01*
X109738166Y-115908615D01*
X109929435Y-115829389D01*
X110132484Y-115789000D01*
X110339516Y-115789000D01*
X110542565Y-115829389D01*
X110542565Y-115829389D01*
G37*
G36*
X118162565Y-115829389D02*
X118353834Y-115908615D01*
X118525976Y-116023637D01*
X118672363Y-116170024D01*
X118787385Y-116342166D01*
X118866611Y-116533435D01*
X118907000Y-116736484D01*
X118907000Y-116943516D01*
X118866611Y-117146565D01*
X118787385Y-117337834D01*
X118672363Y-117509976D01*
X118525976Y-117656363D01*
X118353834Y-117771385D01*
X118162565Y-117850611D01*
X117959516Y-117891000D01*
X117752484Y-117891000D01*
X117549435Y-117850611D01*
X117358166Y-117771385D01*
X117186024Y-117656363D01*
X117039637Y-117509976D01*
X116924615Y-117337834D01*
X116845389Y-117146565D01*
X116805000Y-116943516D01*
X116805000Y-116736484D01*
X116845389Y-116533435D01*
X116924615Y-116342166D01*
X117039637Y-116170024D01*
X117186024Y-116023637D01*
X117358166Y-115908615D01*
X117549435Y-115829389D01*
X117752484Y-115789000D01*
X117959516Y-115789000D01*
X118162565Y-115829389D01*
X118162565Y-115829389D01*
G37*
G36*
X97371000Y-117691000D02*
X95669000Y-117691000D01*
X95669000Y-115989000D01*
X97371000Y-115989000D01*
X97371000Y-117691000D01*
X97371000Y-117691000D01*
G37*
G36*
X104306821Y-116001313D02*
X104306824Y-116001314D01*
X104306825Y-116001314D01*
X104467239Y-116049975D01*
X104467241Y-116049976D01*
X104467244Y-116049977D01*
X104615078Y-116128995D01*
X104744659Y-116235341D01*
X104851005Y-116364922D01*
X104930023Y-116512756D01*
X104930024Y-116512759D01*
X104930025Y-116512761D01*
X104974460Y-116659244D01*
X104978687Y-116673179D01*
X104995117Y-116840000D01*
X104978687Y-117006821D01*
X104978686Y-117006824D01*
X104978686Y-117006825D01*
X104943741Y-117122025D01*
X104930023Y-117167244D01*
X104851005Y-117315078D01*
X104744659Y-117444659D01*
X104615078Y-117551005D01*
X104467244Y-117630023D01*
X104467241Y-117630024D01*
X104467239Y-117630025D01*
X104306825Y-117678686D01*
X104306824Y-117678686D01*
X104306821Y-117678687D01*
X104181804Y-117691000D01*
X104098196Y-117691000D01*
X103973179Y-117678687D01*
X103973176Y-117678686D01*
X103973175Y-117678686D01*
X103812761Y-117630025D01*
X103812759Y-117630024D01*
X103812756Y-117630023D01*
X103664922Y-117551005D01*
X103535341Y-117444659D01*
X103428995Y-117315078D01*
X103349977Y-117167244D01*
X103336260Y-117122025D01*
X103301314Y-117006825D01*
X103301314Y-117006824D01*
X103301313Y-117006821D01*
X103284883Y-116840000D01*
X103301313Y-116673179D01*
X103305540Y-116659244D01*
X103349975Y-116512761D01*
X103349976Y-116512759D01*
X103349977Y-116512756D01*
X103428995Y-116364922D01*
X103535341Y-116235341D01*
X103664922Y-116128995D01*
X103812756Y-116049977D01*
X103812759Y-116049976D01*
X103812761Y-116049975D01*
X103973175Y-116001314D01*
X103973176Y-116001314D01*
X103973179Y-116001313D01*
X104098196Y-115989000D01*
X104181804Y-115989000D01*
X104306821Y-116001313D01*
X104306821Y-116001313D01*
G37*
G36*
X101766821Y-116001313D02*
X101766824Y-116001314D01*
X101766825Y-116001314D01*
X101927239Y-116049975D01*
X101927241Y-116049976D01*
X101927244Y-116049977D01*
X102075078Y-116128995D01*
X102204659Y-116235341D01*
X102311005Y-116364922D01*
X102390023Y-116512756D01*
X102390024Y-116512759D01*
X102390025Y-116512761D01*
X102434460Y-116659244D01*
X102438687Y-116673179D01*
X102455117Y-116840000D01*
X102438687Y-117006821D01*
X102438686Y-117006824D01*
X102438686Y-117006825D01*
X102403741Y-117122025D01*
X102390023Y-117167244D01*
X102311005Y-117315078D01*
X102204659Y-117444659D01*
X102075078Y-117551005D01*
X101927244Y-117630023D01*
X101927241Y-117630024D01*
X101927239Y-117630025D01*
X101766825Y-117678686D01*
X101766824Y-117678686D01*
X101766821Y-117678687D01*
X101641804Y-117691000D01*
X101558196Y-117691000D01*
X101433179Y-117678687D01*
X101433176Y-117678686D01*
X101433175Y-117678686D01*
X101272761Y-117630025D01*
X101272759Y-117630024D01*
X101272756Y-117630023D01*
X101124922Y-117551005D01*
X100995341Y-117444659D01*
X100888995Y-117315078D01*
X100809977Y-117167244D01*
X100796260Y-117122025D01*
X100761314Y-117006825D01*
X100761314Y-117006824D01*
X100761313Y-117006821D01*
X100744883Y-116840000D01*
X100761313Y-116673179D01*
X100765540Y-116659244D01*
X100809975Y-116512761D01*
X100809976Y-116512759D01*
X100809977Y-116512756D01*
X100888995Y-116364922D01*
X100995341Y-116235341D01*
X101124922Y-116128995D01*
X101272756Y-116049977D01*
X101272759Y-116049976D01*
X101272761Y-116049975D01*
X101433175Y-116001314D01*
X101433176Y-116001314D01*
X101433179Y-116001313D01*
X101558196Y-115989000D01*
X101641804Y-115989000D01*
X101766821Y-116001313D01*
X101766821Y-116001313D01*
G37*
G36*
X99226821Y-116001313D02*
X99226824Y-116001314D01*
X99226825Y-116001314D01*
X99387239Y-116049975D01*
X99387241Y-116049976D01*
X99387244Y-116049977D01*
X99535078Y-116128995D01*
X99664659Y-116235341D01*
X99771005Y-116364922D01*
X99850023Y-116512756D01*
X99850024Y-116512759D01*
X99850025Y-116512761D01*
X99894460Y-116659244D01*
X99898687Y-116673179D01*
X99915117Y-116840000D01*
X99898687Y-117006821D01*
X99898686Y-117006824D01*
X99898686Y-117006825D01*
X99863741Y-117122025D01*
X99850023Y-117167244D01*
X99771005Y-117315078D01*
X99664659Y-117444659D01*
X99535078Y-117551005D01*
X99387244Y-117630023D01*
X99387241Y-117630024D01*
X99387239Y-117630025D01*
X99226825Y-117678686D01*
X99226824Y-117678686D01*
X99226821Y-117678687D01*
X99101804Y-117691000D01*
X99018196Y-117691000D01*
X98893179Y-117678687D01*
X98893176Y-117678686D01*
X98893175Y-117678686D01*
X98732761Y-117630025D01*
X98732759Y-117630024D01*
X98732756Y-117630023D01*
X98584922Y-117551005D01*
X98455341Y-117444659D01*
X98348995Y-117315078D01*
X98269977Y-117167244D01*
X98256260Y-117122025D01*
X98221314Y-117006825D01*
X98221314Y-117006824D01*
X98221313Y-117006821D01*
X98204883Y-116840000D01*
X98221313Y-116673179D01*
X98225540Y-116659244D01*
X98269975Y-116512761D01*
X98269976Y-116512759D01*
X98269977Y-116512756D01*
X98348995Y-116364922D01*
X98455341Y-116235341D01*
X98584922Y-116128995D01*
X98732756Y-116049977D01*
X98732759Y-116049976D01*
X98732761Y-116049975D01*
X98893175Y-116001314D01*
X98893176Y-116001314D01*
X98893179Y-116001313D01*
X99018196Y-115989000D01*
X99101804Y-115989000D01*
X99226821Y-116001313D01*
X99226821Y-116001313D01*
G37*
G36*
X129706821Y-115493313D02*
X129706824Y-115493314D01*
X129706825Y-115493314D01*
X129867239Y-115541975D01*
X129867241Y-115541976D01*
X129867244Y-115541977D01*
X130015078Y-115620995D01*
X130144659Y-115727341D01*
X130251005Y-115856922D01*
X130330023Y-116004756D01*
X130330024Y-116004759D01*
X130330025Y-116004761D01*
X130343741Y-116049977D01*
X130378687Y-116165179D01*
X130395117Y-116332000D01*
X130378687Y-116498821D01*
X130378686Y-116498824D01*
X130378686Y-116498825D01*
X130374459Y-116512761D01*
X130330023Y-116659244D01*
X130251005Y-116807078D01*
X130144659Y-116936659D01*
X130015078Y-117043005D01*
X129867244Y-117122023D01*
X129867241Y-117122024D01*
X129867239Y-117122025D01*
X129706825Y-117170686D01*
X129706824Y-117170686D01*
X129706821Y-117170687D01*
X129581804Y-117183000D01*
X129498196Y-117183000D01*
X129373179Y-117170687D01*
X129373176Y-117170686D01*
X129373175Y-117170686D01*
X129212761Y-117122025D01*
X129212759Y-117122024D01*
X129212756Y-117122023D01*
X129064922Y-117043005D01*
X128935341Y-116936659D01*
X128828995Y-116807078D01*
X128749977Y-116659244D01*
X128705542Y-116512761D01*
X128701314Y-116498825D01*
X128701314Y-116498824D01*
X128701313Y-116498821D01*
X128684883Y-116332000D01*
X128701313Y-116165179D01*
X128736259Y-116049977D01*
X128749975Y-116004761D01*
X128749976Y-116004759D01*
X128749977Y-116004756D01*
X128828995Y-115856922D01*
X128935341Y-115727341D01*
X129064922Y-115620995D01*
X129212756Y-115541977D01*
X129212759Y-115541976D01*
X129212761Y-115541975D01*
X129373175Y-115493314D01*
X129373176Y-115493314D01*
X129373179Y-115493313D01*
X129498196Y-115481000D01*
X129581804Y-115481000D01*
X129706821Y-115493313D01*
X129706821Y-115493313D01*
G37*
G36*
X125311000Y-117183000D02*
X123609000Y-117183000D01*
X123609000Y-115481000D01*
X125311000Y-115481000D01*
X125311000Y-117183000D01*
X125311000Y-117183000D01*
G37*
G36*
X127166821Y-115493313D02*
X127166824Y-115493314D01*
X127166825Y-115493314D01*
X127327239Y-115541975D01*
X127327241Y-115541976D01*
X127327244Y-115541977D01*
X127475078Y-115620995D01*
X127604659Y-115727341D01*
X127711005Y-115856922D01*
X127790023Y-116004756D01*
X127790024Y-116004759D01*
X127790025Y-116004761D01*
X127803741Y-116049977D01*
X127838687Y-116165179D01*
X127855117Y-116332000D01*
X127838687Y-116498821D01*
X127838686Y-116498824D01*
X127838686Y-116498825D01*
X127834459Y-116512761D01*
X127790023Y-116659244D01*
X127711005Y-116807078D01*
X127604659Y-116936659D01*
X127475078Y-117043005D01*
X127327244Y-117122023D01*
X127327241Y-117122024D01*
X127327239Y-117122025D01*
X127166825Y-117170686D01*
X127166824Y-117170686D01*
X127166821Y-117170687D01*
X127041804Y-117183000D01*
X126958196Y-117183000D01*
X126833179Y-117170687D01*
X126833176Y-117170686D01*
X126833175Y-117170686D01*
X126672761Y-117122025D01*
X126672759Y-117122024D01*
X126672756Y-117122023D01*
X126524922Y-117043005D01*
X126395341Y-116936659D01*
X126288995Y-116807078D01*
X126209977Y-116659244D01*
X126165542Y-116512761D01*
X126161314Y-116498825D01*
X126161314Y-116498824D01*
X126161313Y-116498821D01*
X126144883Y-116332000D01*
X126161313Y-116165179D01*
X126196259Y-116049977D01*
X126209975Y-116004761D01*
X126209976Y-116004759D01*
X126209977Y-116004756D01*
X126288995Y-115856922D01*
X126395341Y-115727341D01*
X126524922Y-115620995D01*
X126672756Y-115541977D01*
X126672759Y-115541976D01*
X126672761Y-115541975D01*
X126833175Y-115493314D01*
X126833176Y-115493314D01*
X126833179Y-115493313D01*
X126958196Y-115481000D01*
X127041804Y-115481000D01*
X127166821Y-115493313D01*
X127166821Y-115493313D01*
G37*
G36*
X132246821Y-115493313D02*
X132246824Y-115493314D01*
X132246825Y-115493314D01*
X132407239Y-115541975D01*
X132407241Y-115541976D01*
X132407244Y-115541977D01*
X132555078Y-115620995D01*
X132684659Y-115727341D01*
X132791005Y-115856922D01*
X132870023Y-116004756D01*
X132870024Y-116004759D01*
X132870025Y-116004761D01*
X132883741Y-116049977D01*
X132918687Y-116165179D01*
X132935117Y-116332000D01*
X132918687Y-116498821D01*
X132918686Y-116498824D01*
X132918686Y-116498825D01*
X132914459Y-116512761D01*
X132870023Y-116659244D01*
X132791005Y-116807078D01*
X132684659Y-116936659D01*
X132555078Y-117043005D01*
X132407244Y-117122023D01*
X132407241Y-117122024D01*
X132407239Y-117122025D01*
X132246825Y-117170686D01*
X132246824Y-117170686D01*
X132246821Y-117170687D01*
X132121804Y-117183000D01*
X132038196Y-117183000D01*
X131913179Y-117170687D01*
X131913176Y-117170686D01*
X131913175Y-117170686D01*
X131752761Y-117122025D01*
X131752759Y-117122024D01*
X131752756Y-117122023D01*
X131604922Y-117043005D01*
X131475341Y-116936659D01*
X131368995Y-116807078D01*
X131289977Y-116659244D01*
X131245542Y-116512761D01*
X131241314Y-116498825D01*
X131241314Y-116498824D01*
X131241313Y-116498821D01*
X131224883Y-116332000D01*
X131241313Y-116165179D01*
X131276259Y-116049977D01*
X131289975Y-116004761D01*
X131289976Y-116004759D01*
X131289977Y-116004756D01*
X131368995Y-115856922D01*
X131475341Y-115727341D01*
X131604922Y-115620995D01*
X131752756Y-115541977D01*
X131752759Y-115541976D01*
X131752761Y-115541975D01*
X131913175Y-115493314D01*
X131913176Y-115493314D01*
X131913179Y-115493313D01*
X132038196Y-115481000D01*
X132121804Y-115481000D01*
X132246821Y-115493313D01*
X132246821Y-115493313D01*
G37*
G36*
X110542565Y-108329389D02*
X110733834Y-108408615D01*
X110905976Y-108523637D01*
X111052363Y-108670024D01*
X111167385Y-108842166D01*
X111246611Y-109033435D01*
X111287000Y-109236484D01*
X111287000Y-109443516D01*
X111246611Y-109646565D01*
X111167385Y-109837834D01*
X111052363Y-110009976D01*
X110905976Y-110156363D01*
X110733834Y-110271385D01*
X110542565Y-110350611D01*
X110339516Y-110391000D01*
X110132484Y-110391000D01*
X109929435Y-110350611D01*
X109738166Y-110271385D01*
X109566024Y-110156363D01*
X109419637Y-110009976D01*
X109304615Y-109837834D01*
X109225389Y-109646565D01*
X109185000Y-109443516D01*
X109185000Y-109236484D01*
X109225389Y-109033435D01*
X109304615Y-108842166D01*
X109419637Y-108670024D01*
X109566024Y-108523637D01*
X109738166Y-108408615D01*
X109929435Y-108329389D01*
X110132484Y-108289000D01*
X110339516Y-108289000D01*
X110542565Y-108329389D01*
X110542565Y-108329389D01*
G37*
G36*
X118162565Y-108329389D02*
X118353834Y-108408615D01*
X118525976Y-108523637D01*
X118672363Y-108670024D01*
X118787385Y-108842166D01*
X118866611Y-109033435D01*
X118907000Y-109236484D01*
X118907000Y-109443516D01*
X118866611Y-109646565D01*
X118787385Y-109837834D01*
X118672363Y-110009976D01*
X118525976Y-110156363D01*
X118353834Y-110271385D01*
X118162565Y-110350611D01*
X117959516Y-110391000D01*
X117752484Y-110391000D01*
X117549435Y-110350611D01*
X117358166Y-110271385D01*
X117186024Y-110156363D01*
X117039637Y-110009976D01*
X116924615Y-109837834D01*
X116845389Y-109646565D01*
X116805000Y-109443516D01*
X116805000Y-109236484D01*
X116845389Y-109033435D01*
X116924615Y-108842166D01*
X117039637Y-108670024D01*
X117186024Y-108523637D01*
X117358166Y-108408615D01*
X117549435Y-108329389D01*
X117752484Y-108289000D01*
X117959516Y-108289000D01*
X118162565Y-108329389D01*
X118162565Y-108329389D01*
G37*
G36*
X104306821Y-108381313D02*
X104306824Y-108381314D01*
X104306825Y-108381314D01*
X104467239Y-108429975D01*
X104467241Y-108429976D01*
X104467244Y-108429977D01*
X104615078Y-108508995D01*
X104744659Y-108615341D01*
X104851005Y-108744922D01*
X104930023Y-108892756D01*
X104930024Y-108892759D01*
X104930025Y-108892761D01*
X104974460Y-109039244D01*
X104978687Y-109053179D01*
X104995117Y-109220000D01*
X104978687Y-109386821D01*
X104978686Y-109386824D01*
X104978686Y-109386825D01*
X104943741Y-109502025D01*
X104930023Y-109547244D01*
X104851005Y-109695078D01*
X104744659Y-109824659D01*
X104615078Y-109931005D01*
X104467244Y-110010023D01*
X104467241Y-110010024D01*
X104467239Y-110010025D01*
X104306825Y-110058686D01*
X104306824Y-110058686D01*
X104306821Y-110058687D01*
X104181804Y-110071000D01*
X104098196Y-110071000D01*
X103973179Y-110058687D01*
X103973176Y-110058686D01*
X103973175Y-110058686D01*
X103812761Y-110010025D01*
X103812759Y-110010024D01*
X103812756Y-110010023D01*
X103664922Y-109931005D01*
X103535341Y-109824659D01*
X103428995Y-109695078D01*
X103349977Y-109547244D01*
X103336260Y-109502025D01*
X103301314Y-109386825D01*
X103301314Y-109386824D01*
X103301313Y-109386821D01*
X103284883Y-109220000D01*
X103301313Y-109053179D01*
X103305540Y-109039244D01*
X103349975Y-108892761D01*
X103349976Y-108892759D01*
X103349977Y-108892756D01*
X103428995Y-108744922D01*
X103535341Y-108615341D01*
X103664922Y-108508995D01*
X103812756Y-108429977D01*
X103812759Y-108429976D01*
X103812761Y-108429975D01*
X103973175Y-108381314D01*
X103973176Y-108381314D01*
X103973179Y-108381313D01*
X104098196Y-108369000D01*
X104181804Y-108369000D01*
X104306821Y-108381313D01*
X104306821Y-108381313D01*
G37*
G36*
X101766821Y-108381313D02*
X101766824Y-108381314D01*
X101766825Y-108381314D01*
X101927239Y-108429975D01*
X101927241Y-108429976D01*
X101927244Y-108429977D01*
X102075078Y-108508995D01*
X102204659Y-108615341D01*
X102311005Y-108744922D01*
X102390023Y-108892756D01*
X102390024Y-108892759D01*
X102390025Y-108892761D01*
X102434460Y-109039244D01*
X102438687Y-109053179D01*
X102455117Y-109220000D01*
X102438687Y-109386821D01*
X102438686Y-109386824D01*
X102438686Y-109386825D01*
X102403741Y-109502025D01*
X102390023Y-109547244D01*
X102311005Y-109695078D01*
X102204659Y-109824659D01*
X102075078Y-109931005D01*
X101927244Y-110010023D01*
X101927241Y-110010024D01*
X101927239Y-110010025D01*
X101766825Y-110058686D01*
X101766824Y-110058686D01*
X101766821Y-110058687D01*
X101641804Y-110071000D01*
X101558196Y-110071000D01*
X101433179Y-110058687D01*
X101433176Y-110058686D01*
X101433175Y-110058686D01*
X101272761Y-110010025D01*
X101272759Y-110010024D01*
X101272756Y-110010023D01*
X101124922Y-109931005D01*
X100995341Y-109824659D01*
X100888995Y-109695078D01*
X100809977Y-109547244D01*
X100796260Y-109502025D01*
X100761314Y-109386825D01*
X100761314Y-109386824D01*
X100761313Y-109386821D01*
X100744883Y-109220000D01*
X100761313Y-109053179D01*
X100765540Y-109039244D01*
X100809975Y-108892761D01*
X100809976Y-108892759D01*
X100809977Y-108892756D01*
X100888995Y-108744922D01*
X100995341Y-108615341D01*
X101124922Y-108508995D01*
X101272756Y-108429977D01*
X101272759Y-108429976D01*
X101272761Y-108429975D01*
X101433175Y-108381314D01*
X101433176Y-108381314D01*
X101433179Y-108381313D01*
X101558196Y-108369000D01*
X101641804Y-108369000D01*
X101766821Y-108381313D01*
X101766821Y-108381313D01*
G37*
G36*
X96686821Y-108381313D02*
X96686824Y-108381314D01*
X96686825Y-108381314D01*
X96847239Y-108429975D01*
X96847241Y-108429976D01*
X96847244Y-108429977D01*
X96995078Y-108508995D01*
X97124659Y-108615341D01*
X97231005Y-108744922D01*
X97310023Y-108892756D01*
X97310024Y-108892759D01*
X97310025Y-108892761D01*
X97354460Y-109039244D01*
X97358687Y-109053179D01*
X97375117Y-109220000D01*
X97358687Y-109386821D01*
X97358686Y-109386824D01*
X97358686Y-109386825D01*
X97323741Y-109502025D01*
X97310023Y-109547244D01*
X97231005Y-109695078D01*
X97124659Y-109824659D01*
X96995078Y-109931005D01*
X96847244Y-110010023D01*
X96847241Y-110010024D01*
X96847239Y-110010025D01*
X96686825Y-110058686D01*
X96686824Y-110058686D01*
X96686821Y-110058687D01*
X96561804Y-110071000D01*
X96478196Y-110071000D01*
X96353179Y-110058687D01*
X96353176Y-110058686D01*
X96353175Y-110058686D01*
X96192761Y-110010025D01*
X96192759Y-110010024D01*
X96192756Y-110010023D01*
X96044922Y-109931005D01*
X95915341Y-109824659D01*
X95808995Y-109695078D01*
X95729977Y-109547244D01*
X95716260Y-109502025D01*
X95681314Y-109386825D01*
X95681314Y-109386824D01*
X95681313Y-109386821D01*
X95664883Y-109220000D01*
X95681313Y-109053179D01*
X95685540Y-109039244D01*
X95729975Y-108892761D01*
X95729976Y-108892759D01*
X95729977Y-108892756D01*
X95808995Y-108744922D01*
X95915341Y-108615341D01*
X96044922Y-108508995D01*
X96192756Y-108429977D01*
X96192759Y-108429976D01*
X96192761Y-108429975D01*
X96353175Y-108381314D01*
X96353176Y-108381314D01*
X96353179Y-108381313D01*
X96478196Y-108369000D01*
X96561804Y-108369000D01*
X96686821Y-108381313D01*
X96686821Y-108381313D01*
G37*
G36*
X99226821Y-108381313D02*
X99226824Y-108381314D01*
X99226825Y-108381314D01*
X99387239Y-108429975D01*
X99387241Y-108429976D01*
X99387244Y-108429977D01*
X99535078Y-108508995D01*
X99664659Y-108615341D01*
X99771005Y-108744922D01*
X99850023Y-108892756D01*
X99850024Y-108892759D01*
X99850025Y-108892761D01*
X99894460Y-109039244D01*
X99898687Y-109053179D01*
X99915117Y-109220000D01*
X99898687Y-109386821D01*
X99898686Y-109386824D01*
X99898686Y-109386825D01*
X99863741Y-109502025D01*
X99850023Y-109547244D01*
X99771005Y-109695078D01*
X99664659Y-109824659D01*
X99535078Y-109931005D01*
X99387244Y-110010023D01*
X99387241Y-110010024D01*
X99387239Y-110010025D01*
X99226825Y-110058686D01*
X99226824Y-110058686D01*
X99226821Y-110058687D01*
X99101804Y-110071000D01*
X99018196Y-110071000D01*
X98893179Y-110058687D01*
X98893176Y-110058686D01*
X98893175Y-110058686D01*
X98732761Y-110010025D01*
X98732759Y-110010024D01*
X98732756Y-110010023D01*
X98584922Y-109931005D01*
X98455341Y-109824659D01*
X98348995Y-109695078D01*
X98269977Y-109547244D01*
X98256260Y-109502025D01*
X98221314Y-109386825D01*
X98221314Y-109386824D01*
X98221313Y-109386821D01*
X98204883Y-109220000D01*
X98221313Y-109053179D01*
X98225540Y-109039244D01*
X98269975Y-108892761D01*
X98269976Y-108892759D01*
X98269977Y-108892756D01*
X98348995Y-108744922D01*
X98455341Y-108615341D01*
X98584922Y-108508995D01*
X98732756Y-108429977D01*
X98732759Y-108429976D01*
X98732761Y-108429975D01*
X98893175Y-108381314D01*
X98893176Y-108381314D01*
X98893179Y-108381313D01*
X99018196Y-108369000D01*
X99101804Y-108369000D01*
X99226821Y-108381313D01*
X99226821Y-108381313D01*
G37*
G36*
X132246821Y-107873313D02*
X132246824Y-107873314D01*
X132246825Y-107873314D01*
X132407239Y-107921975D01*
X132407241Y-107921976D01*
X132407244Y-107921977D01*
X132555078Y-108000995D01*
X132684659Y-108107341D01*
X132791005Y-108236922D01*
X132870023Y-108384756D01*
X132870024Y-108384759D01*
X132870025Y-108384761D01*
X132918686Y-108545175D01*
X132918687Y-108545179D01*
X132935117Y-108712000D01*
X132918687Y-108878821D01*
X132918686Y-108878824D01*
X132918686Y-108878825D01*
X132871786Y-109033435D01*
X132870023Y-109039244D01*
X132791005Y-109187078D01*
X132684659Y-109316659D01*
X132555078Y-109423005D01*
X132407244Y-109502023D01*
X132407241Y-109502024D01*
X132407239Y-109502025D01*
X132246825Y-109550686D01*
X132246824Y-109550686D01*
X132246821Y-109550687D01*
X132121804Y-109563000D01*
X132038196Y-109563000D01*
X131913179Y-109550687D01*
X131913176Y-109550686D01*
X131913175Y-109550686D01*
X131752761Y-109502025D01*
X131752759Y-109502024D01*
X131752756Y-109502023D01*
X131604922Y-109423005D01*
X131475341Y-109316659D01*
X131368995Y-109187078D01*
X131289977Y-109039244D01*
X131288215Y-109033435D01*
X131241314Y-108878825D01*
X131241314Y-108878824D01*
X131241313Y-108878821D01*
X131224883Y-108712000D01*
X131241313Y-108545179D01*
X131241314Y-108545175D01*
X131289975Y-108384761D01*
X131289976Y-108384759D01*
X131289977Y-108384756D01*
X131368995Y-108236922D01*
X131475341Y-108107341D01*
X131604922Y-108000995D01*
X131752756Y-107921977D01*
X131752759Y-107921976D01*
X131752761Y-107921975D01*
X131913175Y-107873314D01*
X131913176Y-107873314D01*
X131913179Y-107873313D01*
X132038196Y-107861000D01*
X132121804Y-107861000D01*
X132246821Y-107873313D01*
X132246821Y-107873313D01*
G37*
G36*
X129706821Y-107873313D02*
X129706824Y-107873314D01*
X129706825Y-107873314D01*
X129867239Y-107921975D01*
X129867241Y-107921976D01*
X129867244Y-107921977D01*
X130015078Y-108000995D01*
X130144659Y-108107341D01*
X130251005Y-108236922D01*
X130330023Y-108384756D01*
X130330024Y-108384759D01*
X130330025Y-108384761D01*
X130378686Y-108545175D01*
X130378687Y-108545179D01*
X130395117Y-108712000D01*
X130378687Y-108878821D01*
X130378686Y-108878824D01*
X130378686Y-108878825D01*
X130331786Y-109033435D01*
X130330023Y-109039244D01*
X130251005Y-109187078D01*
X130144659Y-109316659D01*
X130015078Y-109423005D01*
X129867244Y-109502023D01*
X129867241Y-109502024D01*
X129867239Y-109502025D01*
X129706825Y-109550686D01*
X129706824Y-109550686D01*
X129706821Y-109550687D01*
X129581804Y-109563000D01*
X129498196Y-109563000D01*
X129373179Y-109550687D01*
X129373176Y-109550686D01*
X129373175Y-109550686D01*
X129212761Y-109502025D01*
X129212759Y-109502024D01*
X129212756Y-109502023D01*
X129064922Y-109423005D01*
X128935341Y-109316659D01*
X128828995Y-109187078D01*
X128749977Y-109039244D01*
X128748215Y-109033435D01*
X128701314Y-108878825D01*
X128701314Y-108878824D01*
X128701313Y-108878821D01*
X128684883Y-108712000D01*
X128701313Y-108545179D01*
X128701314Y-108545175D01*
X128749975Y-108384761D01*
X128749976Y-108384759D01*
X128749977Y-108384756D01*
X128828995Y-108236922D01*
X128935341Y-108107341D01*
X129064922Y-108000995D01*
X129212756Y-107921977D01*
X129212759Y-107921976D01*
X129212761Y-107921975D01*
X129373175Y-107873314D01*
X129373176Y-107873314D01*
X129373179Y-107873313D01*
X129498196Y-107861000D01*
X129581804Y-107861000D01*
X129706821Y-107873313D01*
X129706821Y-107873313D01*
G37*
G36*
X127166821Y-107873313D02*
X127166824Y-107873314D01*
X127166825Y-107873314D01*
X127327239Y-107921975D01*
X127327241Y-107921976D01*
X127327244Y-107921977D01*
X127475078Y-108000995D01*
X127604659Y-108107341D01*
X127711005Y-108236922D01*
X127790023Y-108384756D01*
X127790024Y-108384759D01*
X127790025Y-108384761D01*
X127838686Y-108545175D01*
X127838687Y-108545179D01*
X127855117Y-108712000D01*
X127838687Y-108878821D01*
X127838686Y-108878824D01*
X127838686Y-108878825D01*
X127791786Y-109033435D01*
X127790023Y-109039244D01*
X127711005Y-109187078D01*
X127604659Y-109316659D01*
X127475078Y-109423005D01*
X127327244Y-109502023D01*
X127327241Y-109502024D01*
X127327239Y-109502025D01*
X127166825Y-109550686D01*
X127166824Y-109550686D01*
X127166821Y-109550687D01*
X127041804Y-109563000D01*
X126958196Y-109563000D01*
X126833179Y-109550687D01*
X126833176Y-109550686D01*
X126833175Y-109550686D01*
X126672761Y-109502025D01*
X126672759Y-109502024D01*
X126672756Y-109502023D01*
X126524922Y-109423005D01*
X126395341Y-109316659D01*
X126288995Y-109187078D01*
X126209977Y-109039244D01*
X126208215Y-109033435D01*
X126161314Y-108878825D01*
X126161314Y-108878824D01*
X126161313Y-108878821D01*
X126144883Y-108712000D01*
X126161313Y-108545179D01*
X126161314Y-108545175D01*
X126209975Y-108384761D01*
X126209976Y-108384759D01*
X126209977Y-108384756D01*
X126288995Y-108236922D01*
X126395341Y-108107341D01*
X126524922Y-108000995D01*
X126672756Y-107921977D01*
X126672759Y-107921976D01*
X126672761Y-107921975D01*
X126833175Y-107873314D01*
X126833176Y-107873314D01*
X126833179Y-107873313D01*
X126958196Y-107861000D01*
X127041804Y-107861000D01*
X127166821Y-107873313D01*
X127166821Y-107873313D01*
G37*
G36*
X124626821Y-107873313D02*
X124626824Y-107873314D01*
X124626825Y-107873314D01*
X124787239Y-107921975D01*
X124787241Y-107921976D01*
X124787244Y-107921977D01*
X124935078Y-108000995D01*
X125064659Y-108107341D01*
X125171005Y-108236922D01*
X125250023Y-108384756D01*
X125250024Y-108384759D01*
X125250025Y-108384761D01*
X125298686Y-108545175D01*
X125298687Y-108545179D01*
X125315117Y-108712000D01*
X125298687Y-108878821D01*
X125298686Y-108878824D01*
X125298686Y-108878825D01*
X125251786Y-109033435D01*
X125250023Y-109039244D01*
X125171005Y-109187078D01*
X125064659Y-109316659D01*
X124935078Y-109423005D01*
X124787244Y-109502023D01*
X124787241Y-109502024D01*
X124787239Y-109502025D01*
X124626825Y-109550686D01*
X124626824Y-109550686D01*
X124626821Y-109550687D01*
X124501804Y-109563000D01*
X124418196Y-109563000D01*
X124293179Y-109550687D01*
X124293176Y-109550686D01*
X124293175Y-109550686D01*
X124132761Y-109502025D01*
X124132759Y-109502024D01*
X124132756Y-109502023D01*
X123984922Y-109423005D01*
X123855341Y-109316659D01*
X123748995Y-109187078D01*
X123669977Y-109039244D01*
X123668215Y-109033435D01*
X123621314Y-108878825D01*
X123621314Y-108878824D01*
X123621313Y-108878821D01*
X123604883Y-108712000D01*
X123621313Y-108545179D01*
X123621314Y-108545175D01*
X123669975Y-108384761D01*
X123669976Y-108384759D01*
X123669977Y-108384756D01*
X123748995Y-108236922D01*
X123855341Y-108107341D01*
X123984922Y-108000995D01*
X124132756Y-107921977D01*
X124132759Y-107921976D01*
X124132761Y-107921975D01*
X124293175Y-107873314D01*
X124293176Y-107873314D01*
X124293179Y-107873313D01*
X124418196Y-107861000D01*
X124501804Y-107861000D01*
X124626821Y-107873313D01*
X124626821Y-107873313D01*
G37*
G36*
X79414821Y-106349313D02*
X79414824Y-106349314D01*
X79414825Y-106349314D01*
X79575239Y-106397975D01*
X79575241Y-106397976D01*
X79575244Y-106397977D01*
X79723078Y-106476995D01*
X79852659Y-106583341D01*
X79959005Y-106712922D01*
X80038023Y-106860756D01*
X80086687Y-107021179D01*
X80103117Y-107188000D01*
X80086687Y-107354821D01*
X80038023Y-107515244D01*
X79959005Y-107663078D01*
X79852659Y-107792659D01*
X79723078Y-107899005D01*
X79575244Y-107978023D01*
X79575241Y-107978024D01*
X79575239Y-107978025D01*
X79414825Y-108026686D01*
X79414824Y-108026686D01*
X79414821Y-108026687D01*
X79289804Y-108039000D01*
X79206196Y-108039000D01*
X79081179Y-108026687D01*
X79081176Y-108026686D01*
X79081175Y-108026686D01*
X78920761Y-107978025D01*
X78920759Y-107978024D01*
X78920756Y-107978023D01*
X78772922Y-107899005D01*
X78643341Y-107792659D01*
X78536995Y-107663078D01*
X78457977Y-107515244D01*
X78409313Y-107354821D01*
X78392883Y-107188000D01*
X78409313Y-107021179D01*
X78457977Y-106860756D01*
X78536995Y-106712922D01*
X78643341Y-106583341D01*
X78772922Y-106476995D01*
X78920756Y-106397977D01*
X78920759Y-106397976D01*
X78920761Y-106397975D01*
X79081175Y-106349314D01*
X79081176Y-106349314D01*
X79081179Y-106349313D01*
X79206196Y-106337000D01*
X79289804Y-106337000D01*
X79414821Y-106349313D01*
X79414821Y-106349313D01*
G37*
G36*
X74633855Y-105492140D02*
X74697618Y-105498420D01*
X74779427Y-105523237D01*
X74820333Y-105535645D01*
X74903659Y-105580184D01*
X74933426Y-105596095D01*
X75032553Y-105677447D01*
X75113905Y-105776574D01*
X75113906Y-105776576D01*
X75174355Y-105889667D01*
X75174355Y-105889668D01*
X75211580Y-106012382D01*
X75224149Y-106140000D01*
X75211580Y-106267618D01*
X75194169Y-106325014D01*
X75174355Y-106390333D01*
X75170270Y-106397975D01*
X75113905Y-106503426D01*
X75032553Y-106602553D01*
X74933426Y-106683905D01*
X74933424Y-106683906D01*
X74820333Y-106744355D01*
X74779427Y-106756763D01*
X74697618Y-106781580D01*
X74633855Y-106787860D01*
X74601974Y-106791000D01*
X73988026Y-106791000D01*
X73956145Y-106787860D01*
X73892382Y-106781580D01*
X73810573Y-106756763D01*
X73769667Y-106744355D01*
X73656576Y-106683906D01*
X73656574Y-106683905D01*
X73557447Y-106602553D01*
X73476095Y-106503426D01*
X73419730Y-106397975D01*
X73415645Y-106390333D01*
X73395831Y-106325014D01*
X73378420Y-106267618D01*
X73365851Y-106140000D01*
X73378420Y-106012382D01*
X73415645Y-105889668D01*
X73415645Y-105889667D01*
X73476094Y-105776576D01*
X73476095Y-105776574D01*
X73557447Y-105677447D01*
X73656574Y-105596095D01*
X73686341Y-105580184D01*
X73769667Y-105535645D01*
X73810573Y-105523237D01*
X73892382Y-105498420D01*
X73956145Y-105492140D01*
X73988026Y-105489000D01*
X74601974Y-105489000D01*
X74633855Y-105492140D01*
X74633855Y-105492140D01*
G37*
G36*
X86608228Y-104845703D02*
X86763100Y-104909853D01*
X86902481Y-105002985D01*
X87021015Y-105121519D01*
X87114147Y-105260900D01*
X87178297Y-105415772D01*
X87211000Y-105580184D01*
X87211000Y-105747816D01*
X87178297Y-105912228D01*
X87114147Y-106067100D01*
X87021015Y-106206481D01*
X86902481Y-106325015D01*
X86763100Y-106418147D01*
X86608228Y-106482297D01*
X86443816Y-106515000D01*
X86276184Y-106515000D01*
X86111772Y-106482297D01*
X85956900Y-106418147D01*
X85817519Y-106325015D01*
X85698985Y-106206481D01*
X85605853Y-106067100D01*
X85541703Y-105912228D01*
X85509000Y-105747816D01*
X85509000Y-105580184D01*
X85541703Y-105415772D01*
X85605853Y-105260900D01*
X85698985Y-105121519D01*
X85817519Y-105002985D01*
X85956900Y-104909853D01*
X86111772Y-104845703D01*
X86276184Y-104813000D01*
X86443816Y-104813000D01*
X86608228Y-104845703D01*
X86608228Y-104845703D01*
G37*
G36*
X92114821Y-104317313D02*
X92114824Y-104317314D01*
X92114825Y-104317314D01*
X92275239Y-104365975D01*
X92275241Y-104365976D01*
X92275244Y-104365977D01*
X92423078Y-104444995D01*
X92552659Y-104551341D01*
X92659005Y-104680922D01*
X92738023Y-104828756D01*
X92738024Y-104828759D01*
X92738025Y-104828761D01*
X92762624Y-104909853D01*
X92786687Y-104989179D01*
X92803117Y-105156000D01*
X92786687Y-105322821D01*
X92786686Y-105322824D01*
X92786686Y-105322825D01*
X92758491Y-105415772D01*
X92738023Y-105483244D01*
X92659005Y-105631078D01*
X92552659Y-105760659D01*
X92423078Y-105867005D01*
X92275244Y-105946023D01*
X92275241Y-105946024D01*
X92275239Y-105946025D01*
X92114825Y-105994686D01*
X92114824Y-105994686D01*
X92114821Y-105994687D01*
X91989804Y-106007000D01*
X91906196Y-106007000D01*
X91781179Y-105994687D01*
X91781176Y-105994686D01*
X91781175Y-105994686D01*
X91620761Y-105946025D01*
X91620759Y-105946024D01*
X91620756Y-105946023D01*
X91472922Y-105867005D01*
X91343341Y-105760659D01*
X91236995Y-105631078D01*
X91157977Y-105483244D01*
X91137510Y-105415772D01*
X91109314Y-105322825D01*
X91109314Y-105322824D01*
X91109313Y-105322821D01*
X91092883Y-105156000D01*
X91109313Y-104989179D01*
X91133376Y-104909853D01*
X91157975Y-104828761D01*
X91157976Y-104828759D01*
X91157977Y-104828756D01*
X91236995Y-104680922D01*
X91343341Y-104551341D01*
X91472922Y-104444995D01*
X91620756Y-104365977D01*
X91620759Y-104365976D01*
X91620761Y-104365975D01*
X91781175Y-104317314D01*
X91781176Y-104317314D01*
X91781179Y-104317313D01*
X91906196Y-104305000D01*
X91989804Y-104305000D01*
X92114821Y-104317313D01*
X92114821Y-104317313D01*
G37*
G36*
X75061242Y-103493404D02*
X75098339Y-103504657D01*
X75132520Y-103522927D01*
X75162482Y-103547518D01*
X75187073Y-103577480D01*
X75205343Y-103611661D01*
X75216596Y-103648758D01*
X75221000Y-103693473D01*
X75221000Y-104586527D01*
X75216596Y-104631242D01*
X75205343Y-104668339D01*
X75187073Y-104702520D01*
X75162482Y-104732482D01*
X75132520Y-104757073D01*
X75098339Y-104775343D01*
X75061242Y-104786596D01*
X75016527Y-104791000D01*
X73573473Y-104791000D01*
X73528758Y-104786596D01*
X73491661Y-104775343D01*
X73457480Y-104757073D01*
X73427518Y-104732482D01*
X73402927Y-104702520D01*
X73384657Y-104668339D01*
X73373404Y-104631242D01*
X73369000Y-104586527D01*
X73369000Y-103693473D01*
X73373404Y-103648758D01*
X73384657Y-103611661D01*
X73402927Y-103577480D01*
X73427518Y-103547518D01*
X73457480Y-103522927D01*
X73491661Y-103504657D01*
X73528758Y-103493404D01*
X73573473Y-103489000D01*
X75016527Y-103489000D01*
X75061242Y-103493404D01*
X75061242Y-103493404D01*
G37*
G36*
X110910821Y-98221313D02*
X110910824Y-98221314D01*
X110910825Y-98221314D01*
X111071239Y-98269975D01*
X111071241Y-98269976D01*
X111071244Y-98269977D01*
X111219078Y-98348995D01*
X111348659Y-98455341D01*
X111455005Y-98584922D01*
X111534023Y-98732756D01*
X111534024Y-98732759D01*
X111534025Y-98732761D01*
X111582686Y-98893175D01*
X111582687Y-98893179D01*
X111599117Y-99060000D01*
X111582687Y-99226821D01*
X111582686Y-99226824D01*
X111582686Y-99226825D01*
X111557993Y-99308228D01*
X111534023Y-99387244D01*
X111455005Y-99535078D01*
X111348659Y-99664659D01*
X111219078Y-99771005D01*
X111071244Y-99850023D01*
X111071241Y-99850024D01*
X111071239Y-99850025D01*
X110910825Y-99898686D01*
X110910824Y-99898686D01*
X110910821Y-99898687D01*
X110785804Y-99911000D01*
X110702196Y-99911000D01*
X110577179Y-99898687D01*
X110577176Y-99898686D01*
X110577175Y-99898686D01*
X110416761Y-99850025D01*
X110416759Y-99850024D01*
X110416756Y-99850023D01*
X110268922Y-99771005D01*
X110139341Y-99664659D01*
X110032995Y-99535078D01*
X109953977Y-99387244D01*
X109930008Y-99308228D01*
X109905314Y-99226825D01*
X109905314Y-99226824D01*
X109905313Y-99226821D01*
X109888883Y-99060000D01*
X109905313Y-98893179D01*
X109905314Y-98893175D01*
X109953975Y-98732761D01*
X109953976Y-98732759D01*
X109953977Y-98732756D01*
X110032995Y-98584922D01*
X110139341Y-98455341D01*
X110268922Y-98348995D01*
X110416756Y-98269977D01*
X110416759Y-98269976D01*
X110416761Y-98269975D01*
X110577175Y-98221314D01*
X110577176Y-98221314D01*
X110577179Y-98221313D01*
X110702196Y-98209000D01*
X110785804Y-98209000D01*
X110910821Y-98221313D01*
X110910821Y-98221313D01*
G37*
G36*
X98292228Y-98241703D02*
X98447100Y-98305853D01*
X98586481Y-98398985D01*
X98705015Y-98517519D01*
X98798147Y-98656900D01*
X98862297Y-98811772D01*
X98895000Y-98976184D01*
X98895000Y-99143816D01*
X98862297Y-99308228D01*
X98798147Y-99463100D01*
X98705015Y-99602481D01*
X98586481Y-99721015D01*
X98447100Y-99814147D01*
X98292228Y-99878297D01*
X98127816Y-99911000D01*
X97960184Y-99911000D01*
X97795772Y-99878297D01*
X97640900Y-99814147D01*
X97501519Y-99721015D01*
X97382985Y-99602481D01*
X97289853Y-99463100D01*
X97225703Y-99308228D01*
X97193000Y-99143816D01*
X97193000Y-98976184D01*
X97225703Y-98811772D01*
X97289853Y-98656900D01*
X97382985Y-98517519D01*
X97501519Y-98398985D01*
X97640900Y-98305853D01*
X97795772Y-98241703D01*
X97960184Y-98209000D01*
X98127816Y-98209000D01*
X98292228Y-98241703D01*
X98292228Y-98241703D01*
G37*
G36*
X129280228Y-98241703D02*
X129435100Y-98305853D01*
X129574481Y-98398985D01*
X129693015Y-98517519D01*
X129786147Y-98656900D01*
X129850297Y-98811772D01*
X129883000Y-98976184D01*
X129883000Y-99143816D01*
X129850297Y-99308228D01*
X129786147Y-99463100D01*
X129693015Y-99602481D01*
X129574481Y-99721015D01*
X129435100Y-99814147D01*
X129280228Y-99878297D01*
X129115816Y-99911000D01*
X128948184Y-99911000D01*
X128783772Y-99878297D01*
X128628900Y-99814147D01*
X128489519Y-99721015D01*
X128370985Y-99602481D01*
X128277853Y-99463100D01*
X128213703Y-99308228D01*
X128181000Y-99143816D01*
X128181000Y-98976184D01*
X128213703Y-98811772D01*
X128277853Y-98656900D01*
X128370985Y-98517519D01*
X128489519Y-98398985D01*
X128628900Y-98305853D01*
X128783772Y-98241703D01*
X128948184Y-98209000D01*
X129115816Y-98209000D01*
X129280228Y-98241703D01*
X129280228Y-98241703D01*
G37*
G36*
X116498821Y-98221313D02*
X116498824Y-98221314D01*
X116498825Y-98221314D01*
X116659239Y-98269975D01*
X116659241Y-98269976D01*
X116659244Y-98269977D01*
X116807078Y-98348995D01*
X116936659Y-98455341D01*
X117043005Y-98584922D01*
X117122023Y-98732756D01*
X117122024Y-98732759D01*
X117122025Y-98732761D01*
X117170686Y-98893175D01*
X117170687Y-98893179D01*
X117187117Y-99060000D01*
X117170687Y-99226821D01*
X117170686Y-99226824D01*
X117170686Y-99226825D01*
X117145993Y-99308228D01*
X117122023Y-99387244D01*
X117043005Y-99535078D01*
X116936659Y-99664659D01*
X116807078Y-99771005D01*
X116659244Y-99850023D01*
X116659241Y-99850024D01*
X116659239Y-99850025D01*
X116498825Y-99898686D01*
X116498824Y-99898686D01*
X116498821Y-99898687D01*
X116373804Y-99911000D01*
X116290196Y-99911000D01*
X116165179Y-99898687D01*
X116165176Y-99898686D01*
X116165175Y-99898686D01*
X116004761Y-99850025D01*
X116004759Y-99850024D01*
X116004756Y-99850023D01*
X115856922Y-99771005D01*
X115727341Y-99664659D01*
X115620995Y-99535078D01*
X115541977Y-99387244D01*
X115518008Y-99308228D01*
X115493314Y-99226825D01*
X115493314Y-99226824D01*
X115493313Y-99226821D01*
X115476883Y-99060000D01*
X115493313Y-98893179D01*
X115493314Y-98893175D01*
X115541975Y-98732761D01*
X115541976Y-98732759D01*
X115541977Y-98732756D01*
X115620995Y-98584922D01*
X115727341Y-98455341D01*
X115856922Y-98348995D01*
X116004756Y-98269977D01*
X116004759Y-98269976D01*
X116004761Y-98269975D01*
X116165175Y-98221314D01*
X116165176Y-98221314D01*
X116165179Y-98221313D01*
X116290196Y-98209000D01*
X116373804Y-98209000D01*
X116498821Y-98221313D01*
X116498821Y-98221313D01*
G37*
G36*
X80004228Y-96717703D02*
X80159100Y-96781853D01*
X80298481Y-96874985D01*
X80417015Y-96993519D01*
X80510147Y-97132900D01*
X80574297Y-97287772D01*
X80607000Y-97452184D01*
X80607000Y-97619816D01*
X80574297Y-97784228D01*
X80510147Y-97939100D01*
X80417015Y-98078481D01*
X80298481Y-98197015D01*
X80159100Y-98290147D01*
X80004228Y-98354297D01*
X79839816Y-98387000D01*
X79672184Y-98387000D01*
X79507772Y-98354297D01*
X79352900Y-98290147D01*
X79213519Y-98197015D01*
X79094985Y-98078481D01*
X79001853Y-97939100D01*
X78937703Y-97784228D01*
X78905000Y-97619816D01*
X78905000Y-97452184D01*
X78937703Y-97287772D01*
X79001853Y-97132900D01*
X79094985Y-96993519D01*
X79213519Y-96874985D01*
X79352900Y-96781853D01*
X79507772Y-96717703D01*
X79672184Y-96685000D01*
X79839816Y-96685000D01*
X80004228Y-96717703D01*
X80004228Y-96717703D01*
G37*
G36*
X92622821Y-96697313D02*
X92622824Y-96697314D01*
X92622825Y-96697314D01*
X92783239Y-96745975D01*
X92783241Y-96745976D01*
X92783244Y-96745977D01*
X92931078Y-96824995D01*
X93060659Y-96931341D01*
X93167005Y-97060922D01*
X93246023Y-97208756D01*
X93246024Y-97208759D01*
X93246025Y-97208761D01*
X93294686Y-97369175D01*
X93294687Y-97369179D01*
X93311117Y-97536000D01*
X93294687Y-97702821D01*
X93294686Y-97702824D01*
X93294686Y-97702825D01*
X93269993Y-97784228D01*
X93246023Y-97863244D01*
X93167005Y-98011078D01*
X93060659Y-98140659D01*
X92931078Y-98247005D01*
X92783244Y-98326023D01*
X92783241Y-98326024D01*
X92783239Y-98326025D01*
X92622825Y-98374686D01*
X92622824Y-98374686D01*
X92622821Y-98374687D01*
X92497804Y-98387000D01*
X92414196Y-98387000D01*
X92289179Y-98374687D01*
X92289176Y-98374686D01*
X92289175Y-98374686D01*
X92128761Y-98326025D01*
X92128759Y-98326024D01*
X92128756Y-98326023D01*
X91980922Y-98247005D01*
X91851341Y-98140659D01*
X91744995Y-98011078D01*
X91665977Y-97863244D01*
X91642008Y-97784228D01*
X91617314Y-97702825D01*
X91617314Y-97702824D01*
X91617313Y-97702821D01*
X91600883Y-97536000D01*
X91617313Y-97369179D01*
X91617314Y-97369175D01*
X91665975Y-97208761D01*
X91665976Y-97208759D01*
X91665977Y-97208756D01*
X91744995Y-97060922D01*
X91851341Y-96931341D01*
X91980922Y-96824995D01*
X92128756Y-96745977D01*
X92128759Y-96745976D01*
X92128761Y-96745975D01*
X92289175Y-96697314D01*
X92289176Y-96697314D01*
X92289179Y-96697313D01*
X92414196Y-96685000D01*
X92497804Y-96685000D01*
X92622821Y-96697313D01*
X92622821Y-96697313D01*
G37*
G36*
X75013916Y-93412334D02*
X75122492Y-93445271D01*
X75222557Y-93498756D01*
X75310264Y-93570736D01*
X75382244Y-93658443D01*
X75435729Y-93758508D01*
X75468666Y-93867084D01*
X75479787Y-93980000D01*
X75468666Y-94092916D01*
X75435729Y-94201492D01*
X75435726Y-94201497D01*
X75382244Y-94301557D01*
X75310264Y-94389264D01*
X75222557Y-94461244D01*
X75141143Y-94504760D01*
X75120768Y-94518373D01*
X75103441Y-94535701D01*
X75089827Y-94556075D01*
X75080450Y-94578714D01*
X75075669Y-94602747D01*
X75075669Y-94627252D01*
X75080449Y-94651285D01*
X75089827Y-94673924D01*
X75103440Y-94694299D01*
X75120768Y-94711626D01*
X75141143Y-94725240D01*
X75222557Y-94768756D01*
X75310264Y-94840736D01*
X75382244Y-94928443D01*
X75435729Y-95028508D01*
X75468666Y-95137084D01*
X75479787Y-95250000D01*
X75468666Y-95362916D01*
X75435729Y-95471492D01*
X75435726Y-95471497D01*
X75382244Y-95571557D01*
X75310264Y-95659264D01*
X75233365Y-95722374D01*
X75216038Y-95739701D01*
X75202424Y-95760076D01*
X75193046Y-95782715D01*
X75188266Y-95806748D01*
X75188266Y-95831252D01*
X75193047Y-95855286D01*
X75202424Y-95877925D01*
X75216038Y-95898299D01*
X75233365Y-95915626D01*
X75253740Y-95929240D01*
X75276379Y-95938618D01*
X75312664Y-95944000D01*
X75477000Y-95944000D01*
X75477000Y-97096000D01*
X73875000Y-97096000D01*
X73875000Y-95944000D01*
X74039336Y-95944000D01*
X74063722Y-95941598D01*
X74087171Y-95934485D01*
X74108782Y-95922934D01*
X74127724Y-95907388D01*
X74143270Y-95888446D01*
X74154821Y-95866835D01*
X74161934Y-95843386D01*
X74164336Y-95819000D01*
X74161934Y-95794614D01*
X74154821Y-95771165D01*
X74143270Y-95749554D01*
X74118635Y-95722374D01*
X74041736Y-95659264D01*
X73969756Y-95571557D01*
X73916274Y-95471497D01*
X73916271Y-95471492D01*
X73883334Y-95362916D01*
X73872213Y-95250000D01*
X73883334Y-95137084D01*
X73916271Y-95028508D01*
X73969756Y-94928443D01*
X74041736Y-94840736D01*
X74129443Y-94768756D01*
X74210857Y-94725240D01*
X74231232Y-94711627D01*
X74248559Y-94694299D01*
X74262173Y-94673925D01*
X74271550Y-94651286D01*
X74276331Y-94627253D01*
X74276331Y-94602748D01*
X74271551Y-94578715D01*
X74262173Y-94556076D01*
X74248560Y-94535701D01*
X74231232Y-94518374D01*
X74210857Y-94504760D01*
X74129443Y-94461244D01*
X74041736Y-94389264D01*
X73969756Y-94301557D01*
X73916274Y-94201497D01*
X73916271Y-94201492D01*
X73883334Y-94092916D01*
X73872213Y-93980000D01*
X73883334Y-93867084D01*
X73916271Y-93758508D01*
X73969756Y-93658443D01*
X74041736Y-93570736D01*
X74129443Y-93498756D01*
X74229508Y-93445271D01*
X74338084Y-93412334D01*
X74422702Y-93404000D01*
X74929298Y-93404000D01*
X75013916Y-93412334D01*
X75013916Y-93412334D01*
G37*
G36*
X135386242Y-92317404D02*
X135423339Y-92328657D01*
X135457520Y-92346927D01*
X135487482Y-92371518D01*
X135512073Y-92401480D01*
X135530343Y-92435661D01*
X135541596Y-92472758D01*
X135546000Y-92517473D01*
X135546000Y-93410527D01*
X135541596Y-93455242D01*
X135530343Y-93492339D01*
X135512073Y-93526520D01*
X135487482Y-93556482D01*
X135457520Y-93581073D01*
X135423339Y-93599343D01*
X135386242Y-93610596D01*
X135341527Y-93615000D01*
X133898473Y-93615000D01*
X133853758Y-93610596D01*
X133816661Y-93599343D01*
X133782480Y-93581073D01*
X133752518Y-93556482D01*
X133727927Y-93526520D01*
X133709657Y-93492339D01*
X133698404Y-93455242D01*
X133694000Y-93410527D01*
X133694000Y-92517473D01*
X133698404Y-92472758D01*
X133709657Y-92435661D01*
X133727927Y-92401480D01*
X133752518Y-92371518D01*
X133782480Y-92346927D01*
X133816661Y-92328657D01*
X133853758Y-92317404D01*
X133898473Y-92313000D01*
X135341527Y-92313000D01*
X135386242Y-92317404D01*
X135386242Y-92317404D01*
G37*
G36*
X134958855Y-90316140D02*
X135022618Y-90322420D01*
X135104427Y-90347237D01*
X135145333Y-90359645D01*
X135245491Y-90413181D01*
X135258426Y-90420095D01*
X135357553Y-90501447D01*
X135438905Y-90600574D01*
X135438906Y-90600576D01*
X135499355Y-90713667D01*
X135499355Y-90713668D01*
X135536580Y-90836382D01*
X135549149Y-90964000D01*
X135536580Y-91091618D01*
X135511763Y-91173427D01*
X135499355Y-91214333D01*
X135473509Y-91262687D01*
X135438905Y-91327426D01*
X135357553Y-91426553D01*
X135258426Y-91507905D01*
X135258424Y-91507906D01*
X135145333Y-91568355D01*
X135104427Y-91580763D01*
X135022618Y-91605580D01*
X134958855Y-91611860D01*
X134926974Y-91615000D01*
X134313026Y-91615000D01*
X134281145Y-91611860D01*
X134217382Y-91605580D01*
X134135573Y-91580763D01*
X134094667Y-91568355D01*
X133981576Y-91507906D01*
X133981574Y-91507905D01*
X133882447Y-91426553D01*
X133801095Y-91327426D01*
X133766491Y-91262687D01*
X133740645Y-91214333D01*
X133728237Y-91173427D01*
X133703420Y-91091618D01*
X133690851Y-90964000D01*
X133703420Y-90836382D01*
X133740645Y-90713668D01*
X133740645Y-90713667D01*
X133801094Y-90600576D01*
X133801095Y-90600574D01*
X133882447Y-90501447D01*
X133981574Y-90420095D01*
X133994509Y-90413181D01*
X134094667Y-90359645D01*
X134135573Y-90347237D01*
X134217382Y-90322420D01*
X134281145Y-90316140D01*
X134313026Y-90313000D01*
X134926974Y-90313000D01*
X134958855Y-90316140D01*
X134958855Y-90316140D01*
G37*
G36*
X98292228Y-89605703D02*
X98447100Y-89669853D01*
X98586481Y-89762985D01*
X98705015Y-89881519D01*
X98798147Y-90020900D01*
X98862297Y-90175772D01*
X98895000Y-90340184D01*
X98895000Y-90507816D01*
X98862297Y-90672228D01*
X98798147Y-90827100D01*
X98705015Y-90966481D01*
X98586481Y-91085015D01*
X98447100Y-91178147D01*
X98292228Y-91242297D01*
X98127816Y-91275000D01*
X97960184Y-91275000D01*
X97795772Y-91242297D01*
X97640900Y-91178147D01*
X97501519Y-91085015D01*
X97382985Y-90966481D01*
X97289853Y-90827100D01*
X97225703Y-90672228D01*
X97193000Y-90507816D01*
X97193000Y-90340184D01*
X97225703Y-90175772D01*
X97289853Y-90020900D01*
X97382985Y-89881519D01*
X97501519Y-89762985D01*
X97640900Y-89669853D01*
X97795772Y-89605703D01*
X97960184Y-89573000D01*
X98127816Y-89573000D01*
X98292228Y-89605703D01*
X98292228Y-89605703D01*
G37*
G36*
X92622821Y-89585313D02*
X92622824Y-89585314D01*
X92622825Y-89585314D01*
X92783239Y-89633975D01*
X92783241Y-89633976D01*
X92783244Y-89633977D01*
X92931078Y-89712995D01*
X93060659Y-89819341D01*
X93167005Y-89948922D01*
X93246023Y-90096756D01*
X93246024Y-90096759D01*
X93246025Y-90096761D01*
X93294686Y-90257175D01*
X93294687Y-90257179D01*
X93311117Y-90424000D01*
X93294687Y-90590821D01*
X93294686Y-90590824D01*
X93294686Y-90590825D01*
X93269993Y-90672228D01*
X93246023Y-90751244D01*
X93167005Y-90899078D01*
X93060659Y-91028659D01*
X92931078Y-91135005D01*
X92783244Y-91214023D01*
X92783241Y-91214024D01*
X92783239Y-91214025D01*
X92622825Y-91262686D01*
X92622824Y-91262686D01*
X92622821Y-91262687D01*
X92497804Y-91275000D01*
X92414196Y-91275000D01*
X92289179Y-91262687D01*
X92289176Y-91262686D01*
X92289175Y-91262686D01*
X92128761Y-91214025D01*
X92128759Y-91214024D01*
X92128756Y-91214023D01*
X91980922Y-91135005D01*
X91851341Y-91028659D01*
X91744995Y-90899078D01*
X91665977Y-90751244D01*
X91642008Y-90672228D01*
X91617314Y-90590825D01*
X91617314Y-90590824D01*
X91617313Y-90590821D01*
X91600883Y-90424000D01*
X91617313Y-90257179D01*
X91617314Y-90257175D01*
X91665975Y-90096761D01*
X91665976Y-90096759D01*
X91665977Y-90096756D01*
X91744995Y-89948922D01*
X91851341Y-89819341D01*
X91980922Y-89712995D01*
X92128756Y-89633977D01*
X92128759Y-89633976D01*
X92128761Y-89633975D01*
X92289175Y-89585314D01*
X92289176Y-89585314D01*
X92289179Y-89585313D01*
X92414196Y-89573000D01*
X92497804Y-89573000D01*
X92622821Y-89585313D01*
X92622821Y-89585313D01*
G37*
G36*
X110910821Y-89585313D02*
X110910824Y-89585314D01*
X110910825Y-89585314D01*
X111071239Y-89633975D01*
X111071241Y-89633976D01*
X111071244Y-89633977D01*
X111219078Y-89712995D01*
X111348659Y-89819341D01*
X111455005Y-89948922D01*
X111534023Y-90096756D01*
X111534024Y-90096759D01*
X111534025Y-90096761D01*
X111582686Y-90257175D01*
X111582687Y-90257179D01*
X111599117Y-90424000D01*
X111582687Y-90590821D01*
X111582686Y-90590824D01*
X111582686Y-90590825D01*
X111557993Y-90672228D01*
X111534023Y-90751244D01*
X111455005Y-90899078D01*
X111348659Y-91028659D01*
X111219078Y-91135005D01*
X111071244Y-91214023D01*
X111071241Y-91214024D01*
X111071239Y-91214025D01*
X110910825Y-91262686D01*
X110910824Y-91262686D01*
X110910821Y-91262687D01*
X110785804Y-91275000D01*
X110702196Y-91275000D01*
X110577179Y-91262687D01*
X110577176Y-91262686D01*
X110577175Y-91262686D01*
X110416761Y-91214025D01*
X110416759Y-91214024D01*
X110416756Y-91214023D01*
X110268922Y-91135005D01*
X110139341Y-91028659D01*
X110032995Y-90899078D01*
X109953977Y-90751244D01*
X109930008Y-90672228D01*
X109905314Y-90590825D01*
X109905314Y-90590824D01*
X109905313Y-90590821D01*
X109888883Y-90424000D01*
X109905313Y-90257179D01*
X109905314Y-90257175D01*
X109953975Y-90096761D01*
X109953976Y-90096759D01*
X109953977Y-90096756D01*
X110032995Y-89948922D01*
X110139341Y-89819341D01*
X110268922Y-89712995D01*
X110416756Y-89633977D01*
X110416759Y-89633976D01*
X110416761Y-89633975D01*
X110577175Y-89585314D01*
X110577176Y-89585314D01*
X110577179Y-89585313D01*
X110702196Y-89573000D01*
X110785804Y-89573000D01*
X110910821Y-89585313D01*
X110910821Y-89585313D01*
G37*
G36*
X116580228Y-89605703D02*
X116735100Y-89669853D01*
X116874481Y-89762985D01*
X116993015Y-89881519D01*
X117086147Y-90020900D01*
X117150297Y-90175772D01*
X117183000Y-90340184D01*
X117183000Y-90507816D01*
X117150297Y-90672228D01*
X117086147Y-90827100D01*
X116993015Y-90966481D01*
X116874481Y-91085015D01*
X116735100Y-91178147D01*
X116580228Y-91242297D01*
X116415816Y-91275000D01*
X116248184Y-91275000D01*
X116083772Y-91242297D01*
X115928900Y-91178147D01*
X115789519Y-91085015D01*
X115670985Y-90966481D01*
X115577853Y-90827100D01*
X115513703Y-90672228D01*
X115481000Y-90507816D01*
X115481000Y-90340184D01*
X115513703Y-90175772D01*
X115577853Y-90020900D01*
X115670985Y-89881519D01*
X115789519Y-89762985D01*
X115928900Y-89669853D01*
X116083772Y-89605703D01*
X116248184Y-89573000D01*
X116415816Y-89573000D01*
X116580228Y-89605703D01*
X116580228Y-89605703D01*
G37*
G36*
X80004228Y-89605703D02*
X80159100Y-89669853D01*
X80298481Y-89762985D01*
X80417015Y-89881519D01*
X80510147Y-90020900D01*
X80574297Y-90175772D01*
X80607000Y-90340184D01*
X80607000Y-90507816D01*
X80574297Y-90672228D01*
X80510147Y-90827100D01*
X80417015Y-90966481D01*
X80298481Y-91085015D01*
X80159100Y-91178147D01*
X80004228Y-91242297D01*
X79839816Y-91275000D01*
X79672184Y-91275000D01*
X79507772Y-91242297D01*
X79352900Y-91178147D01*
X79213519Y-91085015D01*
X79094985Y-90966481D01*
X79001853Y-90827100D01*
X78937703Y-90672228D01*
X78905000Y-90507816D01*
X78905000Y-90340184D01*
X78937703Y-90175772D01*
X79001853Y-90020900D01*
X79094985Y-89881519D01*
X79213519Y-89762985D01*
X79352900Y-89669853D01*
X79507772Y-89605703D01*
X79672184Y-89573000D01*
X79839816Y-89573000D01*
X80004228Y-89605703D01*
X80004228Y-89605703D01*
G37*
G36*
X129198821Y-89585313D02*
X129198824Y-89585314D01*
X129198825Y-89585314D01*
X129359239Y-89633975D01*
X129359241Y-89633976D01*
X129359244Y-89633977D01*
X129507078Y-89712995D01*
X129636659Y-89819341D01*
X129743005Y-89948922D01*
X129822023Y-90096756D01*
X129822024Y-90096759D01*
X129822025Y-90096761D01*
X129870686Y-90257175D01*
X129870687Y-90257179D01*
X129887117Y-90424000D01*
X129870687Y-90590821D01*
X129870686Y-90590824D01*
X129870686Y-90590825D01*
X129845993Y-90672228D01*
X129822023Y-90751244D01*
X129743005Y-90899078D01*
X129636659Y-91028659D01*
X129507078Y-91135005D01*
X129359244Y-91214023D01*
X129359241Y-91214024D01*
X129359239Y-91214025D01*
X129198825Y-91262686D01*
X129198824Y-91262686D01*
X129198821Y-91262687D01*
X129073804Y-91275000D01*
X128990196Y-91275000D01*
X128865179Y-91262687D01*
X128865176Y-91262686D01*
X128865175Y-91262686D01*
X128704761Y-91214025D01*
X128704759Y-91214024D01*
X128704756Y-91214023D01*
X128556922Y-91135005D01*
X128427341Y-91028659D01*
X128320995Y-90899078D01*
X128241977Y-90751244D01*
X128218008Y-90672228D01*
X128193314Y-90590825D01*
X128193314Y-90590824D01*
X128193313Y-90590821D01*
X128176883Y-90424000D01*
X128193313Y-90257179D01*
X128193314Y-90257175D01*
X128241975Y-90096761D01*
X128241976Y-90096759D01*
X128241977Y-90096756D01*
X128320995Y-89948922D01*
X128427341Y-89819341D01*
X128556922Y-89712995D01*
X128704756Y-89633977D01*
X128704759Y-89633976D01*
X128704761Y-89633975D01*
X128865175Y-89585314D01*
X128865176Y-89585314D01*
X128865179Y-89585313D01*
X128990196Y-89573000D01*
X129073804Y-89573000D01*
X129198821Y-89585313D01*
X129198821Y-89585313D01*
G37*
M02*
