G04 #@! TF.GenerationSoftware,KiCad,Pcbnew,(5.0.1)-rc2*
G04 #@! TF.CreationDate,2018-10-16T23:55:48-04:00*
G04 #@! TF.ProjectId,vco2,76636F322E6B696361645F7063620000,1*
G04 #@! TF.SameCoordinates,Original*
G04 #@! TF.FileFunction,Copper,L1,Top,Signal*
G04 #@! TF.FilePolarity,Positive*
%FSLAX46Y46*%
G04 Gerber Fmt 4.6, Leading zero omitted, Abs format (unit mm)*
G04 Created by KiCad (PCBNEW (5.0.1)-rc2) date 10/16/2018 11:55:48 PM*
%MOMM*%
%LPD*%
G01*
G04 APERTURE LIST*
G04 #@! TA.AperFunction,ComponentPad*
%ADD10C,1.600000*%
G04 #@! TD*
G04 #@! TA.AperFunction,ComponentPad*
%ADD11O,1.600000X1.600000*%
G04 #@! TD*
G04 #@! TA.AperFunction,ComponentPad*
%ADD12R,1.600000X1.600000*%
G04 #@! TD*
G04 #@! TA.AperFunction,ComponentPad*
%ADD13O,1.750000X1.200000*%
G04 #@! TD*
G04 #@! TA.AperFunction,Conductor*
%ADD14C,0.100000*%
G04 #@! TD*
G04 #@! TA.AperFunction,ComponentPad*
%ADD15C,1.200000*%
G04 #@! TD*
G04 #@! TA.AperFunction,ComponentPad*
%ADD16C,2.000000*%
G04 #@! TD*
G04 #@! TA.AperFunction,ComponentPad*
%ADD17O,1.500000X1.050000*%
G04 #@! TD*
G04 #@! TA.AperFunction,ComponentPad*
%ADD18R,1.500000X1.050000*%
G04 #@! TD*
G04 #@! TA.AperFunction,ComponentPad*
%ADD19R,1.905000X2.000000*%
G04 #@! TD*
G04 #@! TA.AperFunction,ComponentPad*
%ADD20O,1.905000X2.000000*%
G04 #@! TD*
G04 #@! TA.AperFunction,Conductor*
%ADD21C,0.254000*%
G04 #@! TD*
G04 #@! TA.AperFunction,Conductor*
%ADD22C,0.152400*%
G04 #@! TD*
G04 #@! TA.AperFunction,Conductor*
%ADD23C,0.508000*%
G04 #@! TD*
G04 #@! TA.AperFunction,Conductor*
%ADD24C,0.381000*%
G04 #@! TD*
G04 APERTURE END LIST*
D10*
G04 #@! TO.P,R12,1*
G04 #@! TO.N,GND*
X98044000Y-99060000D03*
D11*
G04 #@! TO.P,R12,2*
G04 #@! TO.N,Net-(R12-Pad2)*
X110744000Y-99060000D03*
G04 #@! TD*
D12*
G04 #@! TO.P,U4,1*
G04 #@! TO.N,Net-(J3-Pad1)*
X124460000Y-116332000D03*
D11*
G04 #@! TO.P,U4,5*
G04 #@! TO.N,Net-(R14-Pad1)*
X132080000Y-108712000D03*
G04 #@! TO.P,U4,2*
G04 #@! TO.N,Net-(J3-Pad1)*
X127000000Y-116332000D03*
G04 #@! TO.P,U4,6*
G04 #@! TO.N,Net-(J4-Pad1)*
X129540000Y-108712000D03*
G04 #@! TO.P,U4,3*
G04 #@! TO.N,Net-(C2-Pad1)*
X129540000Y-116332000D03*
G04 #@! TO.P,U4,7*
G04 #@! TO.N,Net-(J4-Pad1)*
X127000000Y-108712000D03*
G04 #@! TO.P,U4,4*
G04 #@! TO.N,GND*
X132080000Y-116332000D03*
G04 #@! TO.P,U4,8*
G04 #@! TO.N,+5V*
X124460000Y-108712000D03*
G04 #@! TD*
D13*
G04 #@! TO.P,J2,2*
G04 #@! TO.N,GND*
X74295000Y-126460000D03*
D14*
G04 #@! TD*
G04 #@! TO.N,Net-(J2-Pad1)*
G04 #@! TO.C,J2*
G36*
X74944505Y-123861204D02*
X74968773Y-123864804D01*
X74992572Y-123870765D01*
X75015671Y-123879030D01*
X75037850Y-123889520D01*
X75058893Y-123902132D01*
X75078599Y-123916747D01*
X75096777Y-123933223D01*
X75113253Y-123951401D01*
X75127868Y-123971107D01*
X75140480Y-123992150D01*
X75150970Y-124014329D01*
X75159235Y-124037428D01*
X75165196Y-124061227D01*
X75168796Y-124085495D01*
X75170000Y-124109999D01*
X75170000Y-124810001D01*
X75168796Y-124834505D01*
X75165196Y-124858773D01*
X75159235Y-124882572D01*
X75150970Y-124905671D01*
X75140480Y-124927850D01*
X75127868Y-124948893D01*
X75113253Y-124968599D01*
X75096777Y-124986777D01*
X75078599Y-125003253D01*
X75058893Y-125017868D01*
X75037850Y-125030480D01*
X75015671Y-125040970D01*
X74992572Y-125049235D01*
X74968773Y-125055196D01*
X74944505Y-125058796D01*
X74920001Y-125060000D01*
X73669999Y-125060000D01*
X73645495Y-125058796D01*
X73621227Y-125055196D01*
X73597428Y-125049235D01*
X73574329Y-125040970D01*
X73552150Y-125030480D01*
X73531107Y-125017868D01*
X73511401Y-125003253D01*
X73493223Y-124986777D01*
X73476747Y-124968599D01*
X73462132Y-124948893D01*
X73449520Y-124927850D01*
X73439030Y-124905671D01*
X73430765Y-124882572D01*
X73424804Y-124858773D01*
X73421204Y-124834505D01*
X73420000Y-124810001D01*
X73420000Y-124109999D01*
X73421204Y-124085495D01*
X73424804Y-124061227D01*
X73430765Y-124037428D01*
X73439030Y-124014329D01*
X73449520Y-123992150D01*
X73462132Y-123971107D01*
X73476747Y-123951401D01*
X73493223Y-123933223D01*
X73511401Y-123916747D01*
X73531107Y-123902132D01*
X73552150Y-123889520D01*
X73574329Y-123879030D01*
X73597428Y-123870765D01*
X73621227Y-123864804D01*
X73645495Y-123861204D01*
X73669999Y-123860000D01*
X74920001Y-123860000D01*
X74944505Y-123861204D01*
X74944505Y-123861204D01*
G37*
D15*
G04 #@! TO.P,J2,1*
G04 #@! TO.N,Net-(J2-Pad1)*
X74295000Y-124460000D03*
G04 #@! TD*
D11*
G04 #@! TO.P,U3,8*
G04 #@! TO.N,+5V*
X96520000Y-109220000D03*
G04 #@! TO.P,U3,4*
G04 #@! TO.N,GND*
X104140000Y-116840000D03*
G04 #@! TO.P,U3,7*
G04 #@! TO.N,Net-(R14-Pad1)*
X99060000Y-109220000D03*
G04 #@! TO.P,U3,3*
G04 #@! TO.N,Net-(R10-Pad1)*
X101600000Y-116840000D03*
G04 #@! TO.P,U3,6*
G04 #@! TO.N,Net-(C2-Pad1)*
X101600000Y-109220000D03*
G04 #@! TO.P,U3,2*
G04 #@! TO.N,Net-(C2-Pad2)*
X99060000Y-116840000D03*
G04 #@! TO.P,U3,5*
G04 #@! TO.N,Net-(R13-Pad1)*
X104140000Y-109220000D03*
D12*
G04 #@! TO.P,U3,1*
G04 #@! TO.N,Net-(C2-Pad1)*
X96520000Y-116840000D03*
G04 #@! TD*
D16*
G04 #@! TO.P,C3,1*
G04 #@! TO.N,GND*
X110236000Y-116840000D03*
G04 #@! TO.P,C3,2*
G04 #@! TO.N,+5V*
X110236000Y-109340000D03*
G04 #@! TD*
D11*
G04 #@! TO.P,R10,2*
G04 #@! TO.N,GND*
X79248000Y-107188000D03*
D10*
G04 #@! TO.P,R10,1*
G04 #@! TO.N,Net-(R10-Pad1)*
X79248000Y-119888000D03*
G04 #@! TD*
D11*
G04 #@! TO.P,R14,2*
G04 #@! TO.N,Net-(R13-Pad1)*
X92456000Y-97536000D03*
D10*
G04 #@! TO.P,R14,1*
G04 #@! TO.N,Net-(R14-Pad1)*
X79756000Y-97536000D03*
G04 #@! TD*
D17*
G04 #@! TO.P,Q3,2*
G04 #@! TO.N,Net-(Q3-Pad2)*
X74676000Y-95250000D03*
G04 #@! TO.P,Q3,3*
G04 #@! TO.N,GND*
X74676000Y-93980000D03*
D18*
G04 #@! TO.P,Q3,1*
G04 #@! TO.N,Net-(Q3-Pad1)*
X74676000Y-96520000D03*
G04 #@! TD*
D14*
G04 #@! TO.N,Net-(J1-Pad1)*
G04 #@! TO.C,J1*
G36*
X74944505Y-103541204D02*
X74968773Y-103544804D01*
X74992572Y-103550765D01*
X75015671Y-103559030D01*
X75037850Y-103569520D01*
X75058893Y-103582132D01*
X75078599Y-103596747D01*
X75096777Y-103613223D01*
X75113253Y-103631401D01*
X75127868Y-103651107D01*
X75140480Y-103672150D01*
X75150970Y-103694329D01*
X75159235Y-103717428D01*
X75165196Y-103741227D01*
X75168796Y-103765495D01*
X75170000Y-103789999D01*
X75170000Y-104490001D01*
X75168796Y-104514505D01*
X75165196Y-104538773D01*
X75159235Y-104562572D01*
X75150970Y-104585671D01*
X75140480Y-104607850D01*
X75127868Y-104628893D01*
X75113253Y-104648599D01*
X75096777Y-104666777D01*
X75078599Y-104683253D01*
X75058893Y-104697868D01*
X75037850Y-104710480D01*
X75015671Y-104720970D01*
X74992572Y-104729235D01*
X74968773Y-104735196D01*
X74944505Y-104738796D01*
X74920001Y-104740000D01*
X73669999Y-104740000D01*
X73645495Y-104738796D01*
X73621227Y-104735196D01*
X73597428Y-104729235D01*
X73574329Y-104720970D01*
X73552150Y-104710480D01*
X73531107Y-104697868D01*
X73511401Y-104683253D01*
X73493223Y-104666777D01*
X73476747Y-104648599D01*
X73462132Y-104628893D01*
X73449520Y-104607850D01*
X73439030Y-104585671D01*
X73430765Y-104562572D01*
X73424804Y-104538773D01*
X73421204Y-104514505D01*
X73420000Y-104490001D01*
X73420000Y-103789999D01*
X73421204Y-103765495D01*
X73424804Y-103741227D01*
X73430765Y-103717428D01*
X73439030Y-103694329D01*
X73449520Y-103672150D01*
X73462132Y-103651107D01*
X73476747Y-103631401D01*
X73493223Y-103613223D01*
X73511401Y-103596747D01*
X73531107Y-103582132D01*
X73552150Y-103569520D01*
X73574329Y-103559030D01*
X73597428Y-103550765D01*
X73621227Y-103544804D01*
X73645495Y-103541204D01*
X73669999Y-103540000D01*
X74920001Y-103540000D01*
X74944505Y-103541204D01*
X74944505Y-103541204D01*
G37*
D15*
G04 #@! TD*
G04 #@! TO.P,J1,1*
G04 #@! TO.N,Net-(J1-Pad1)*
X74295000Y-104140000D03*
D13*
G04 #@! TO.P,J1,2*
G04 #@! TO.N,GND*
X74295000Y-106140000D03*
G04 #@! TD*
D16*
G04 #@! TO.P,C2,1*
G04 #@! TO.N,Net-(C2-Pad1)*
X120396000Y-122936000D03*
G04 #@! TO.P,C2,2*
G04 #@! TO.N,Net-(C2-Pad2)*
X112896000Y-122936000D03*
G04 #@! TD*
G04 #@! TO.P,C4,2*
G04 #@! TO.N,+5V*
X117856000Y-109340000D03*
G04 #@! TO.P,C4,1*
G04 #@! TO.N,GND*
X117856000Y-116840000D03*
G04 #@! TD*
D10*
G04 #@! TO.P,R9,1*
G04 #@! TO.N,Net-(J1-Pad1)*
X86360000Y-105664000D03*
D11*
G04 #@! TO.P,R9,2*
G04 #@! TO.N,Net-(R10-Pad1)*
X86360000Y-118364000D03*
G04 #@! TD*
D10*
G04 #@! TO.P,R11,1*
G04 #@! TO.N,Net-(C2-Pad2)*
X91948000Y-117856000D03*
D11*
G04 #@! TO.P,R11,2*
G04 #@! TO.N,Net-(Q3-Pad1)*
X91948000Y-105156000D03*
G04 #@! TD*
D19*
G04 #@! TO.P,U5,1*
G04 #@! TO.N,GND*
X88265000Y-125730000D03*
D20*
G04 #@! TO.P,U5,2*
G04 #@! TO.N,+5V*
X85725000Y-125730000D03*
G04 #@! TO.P,U5,3*
G04 #@! TO.N,Net-(J2-Pad1)*
X83185000Y-125730000D03*
G04 #@! TD*
D13*
G04 #@! TO.P,J3,2*
G04 #@! TO.N,GND*
X134620000Y-124492000D03*
D14*
G04 #@! TD*
G04 #@! TO.N,Net-(J3-Pad1)*
G04 #@! TO.C,J3*
G36*
X135269505Y-125893204D02*
X135293773Y-125896804D01*
X135317572Y-125902765D01*
X135340671Y-125911030D01*
X135362850Y-125921520D01*
X135383893Y-125934132D01*
X135403599Y-125948747D01*
X135421777Y-125965223D01*
X135438253Y-125983401D01*
X135452868Y-126003107D01*
X135465480Y-126024150D01*
X135475970Y-126046329D01*
X135484235Y-126069428D01*
X135490196Y-126093227D01*
X135493796Y-126117495D01*
X135495000Y-126141999D01*
X135495000Y-126842001D01*
X135493796Y-126866505D01*
X135490196Y-126890773D01*
X135484235Y-126914572D01*
X135475970Y-126937671D01*
X135465480Y-126959850D01*
X135452868Y-126980893D01*
X135438253Y-127000599D01*
X135421777Y-127018777D01*
X135403599Y-127035253D01*
X135383893Y-127049868D01*
X135362850Y-127062480D01*
X135340671Y-127072970D01*
X135317572Y-127081235D01*
X135293773Y-127087196D01*
X135269505Y-127090796D01*
X135245001Y-127092000D01*
X133994999Y-127092000D01*
X133970495Y-127090796D01*
X133946227Y-127087196D01*
X133922428Y-127081235D01*
X133899329Y-127072970D01*
X133877150Y-127062480D01*
X133856107Y-127049868D01*
X133836401Y-127035253D01*
X133818223Y-127018777D01*
X133801747Y-127000599D01*
X133787132Y-126980893D01*
X133774520Y-126959850D01*
X133764030Y-126937671D01*
X133755765Y-126914572D01*
X133749804Y-126890773D01*
X133746204Y-126866505D01*
X133745000Y-126842001D01*
X133745000Y-126141999D01*
X133746204Y-126117495D01*
X133749804Y-126093227D01*
X133755765Y-126069428D01*
X133764030Y-126046329D01*
X133774520Y-126024150D01*
X133787132Y-126003107D01*
X133801747Y-125983401D01*
X133818223Y-125965223D01*
X133836401Y-125948747D01*
X133856107Y-125934132D01*
X133877150Y-125921520D01*
X133899329Y-125911030D01*
X133922428Y-125902765D01*
X133946227Y-125896804D01*
X133970495Y-125893204D01*
X133994999Y-125892000D01*
X135245001Y-125892000D01*
X135269505Y-125893204D01*
X135269505Y-125893204D01*
G37*
D15*
G04 #@! TO.P,J3,1*
G04 #@! TO.N,Net-(J3-Pad1)*
X134620000Y-126492000D03*
G04 #@! TD*
D14*
G04 #@! TO.N,Net-(J4-Pad1)*
G04 #@! TO.C,J4*
G36*
X135269505Y-92365204D02*
X135293773Y-92368804D01*
X135317572Y-92374765D01*
X135340671Y-92383030D01*
X135362850Y-92393520D01*
X135383893Y-92406132D01*
X135403599Y-92420747D01*
X135421777Y-92437223D01*
X135438253Y-92455401D01*
X135452868Y-92475107D01*
X135465480Y-92496150D01*
X135475970Y-92518329D01*
X135484235Y-92541428D01*
X135490196Y-92565227D01*
X135493796Y-92589495D01*
X135495000Y-92613999D01*
X135495000Y-93314001D01*
X135493796Y-93338505D01*
X135490196Y-93362773D01*
X135484235Y-93386572D01*
X135475970Y-93409671D01*
X135465480Y-93431850D01*
X135452868Y-93452893D01*
X135438253Y-93472599D01*
X135421777Y-93490777D01*
X135403599Y-93507253D01*
X135383893Y-93521868D01*
X135362850Y-93534480D01*
X135340671Y-93544970D01*
X135317572Y-93553235D01*
X135293773Y-93559196D01*
X135269505Y-93562796D01*
X135245001Y-93564000D01*
X133994999Y-93564000D01*
X133970495Y-93562796D01*
X133946227Y-93559196D01*
X133922428Y-93553235D01*
X133899329Y-93544970D01*
X133877150Y-93534480D01*
X133856107Y-93521868D01*
X133836401Y-93507253D01*
X133818223Y-93490777D01*
X133801747Y-93472599D01*
X133787132Y-93452893D01*
X133774520Y-93431850D01*
X133764030Y-93409671D01*
X133755765Y-93386572D01*
X133749804Y-93362773D01*
X133746204Y-93338505D01*
X133745000Y-93314001D01*
X133745000Y-92613999D01*
X133746204Y-92589495D01*
X133749804Y-92565227D01*
X133755765Y-92541428D01*
X133764030Y-92518329D01*
X133774520Y-92496150D01*
X133787132Y-92475107D01*
X133801747Y-92455401D01*
X133818223Y-92437223D01*
X133836401Y-92420747D01*
X133856107Y-92406132D01*
X133877150Y-92393520D01*
X133899329Y-92383030D01*
X133922428Y-92374765D01*
X133946227Y-92368804D01*
X133970495Y-92365204D01*
X133994999Y-92364000D01*
X135245001Y-92364000D01*
X135269505Y-92365204D01*
X135269505Y-92365204D01*
G37*
D15*
G04 #@! TD*
G04 #@! TO.P,J4,1*
G04 #@! TO.N,Net-(J4-Pad1)*
X134620000Y-92964000D03*
D13*
G04 #@! TO.P,J4,2*
G04 #@! TO.N,GND*
X134620000Y-90964000D03*
G04 #@! TD*
D11*
G04 #@! TO.P,R7,2*
G04 #@! TO.N,Net-(J1-Pad1)*
X116332000Y-99060000D03*
D10*
G04 #@! TO.P,R7,1*
G04 #@! TO.N,Net-(C2-Pad2)*
X129032000Y-99060000D03*
G04 #@! TD*
D11*
G04 #@! TO.P,R8,2*
G04 #@! TO.N,+5V*
X129032000Y-90424000D03*
D10*
G04 #@! TO.P,R8,1*
G04 #@! TO.N,Net-(R12-Pad2)*
X116332000Y-90424000D03*
G04 #@! TD*
G04 #@! TO.P,R13,1*
G04 #@! TO.N,Net-(R13-Pad1)*
X98044000Y-90424000D03*
D11*
G04 #@! TO.P,R13,2*
G04 #@! TO.N,Net-(R12-Pad2)*
X110744000Y-90424000D03*
G04 #@! TD*
D10*
G04 #@! TO.P,R15,1*
G04 #@! TO.N,Net-(R14-Pad1)*
X79756000Y-90424000D03*
D11*
G04 #@! TO.P,R15,2*
G04 #@! TO.N,Net-(Q3-Pad2)*
X92456000Y-90424000D03*
G04 #@! TD*
D21*
G04 #@! TO.N,Net-(C2-Pad1)*
X119396001Y-121936001D02*
X120396000Y-122936000D01*
X108712010Y-111252010D02*
X119396001Y-121936001D01*
X103632010Y-111252010D02*
X108712010Y-111252010D01*
X101600000Y-109220000D02*
X103632010Y-111252010D01*
D22*
G04 #@! TO.N,Net-(C2-Pad2)*
X99060000Y-117468000D02*
X99060000Y-116840000D01*
D21*
X102958999Y-116451117D02*
X102958999Y-119722999D01*
X102166881Y-115658999D02*
X102958999Y-116451117D01*
X99060000Y-116840000D02*
X100241001Y-115658999D01*
X100241001Y-115658999D02*
X102166881Y-115658999D01*
X106172000Y-122936000D02*
X112896000Y-122936000D01*
X102958999Y-119722999D02*
X106172000Y-122936000D01*
X98260001Y-117639999D02*
X99060000Y-116840000D01*
X97244001Y-118655999D02*
X98260001Y-117639999D01*
X92747999Y-118655999D02*
X97244001Y-118655999D01*
X91948000Y-117856000D02*
X92747999Y-118655999D01*
X129032000Y-100207882D02*
X129032000Y-100191370D01*
X116474999Y-117502881D02*
X116474999Y-112764883D01*
X117193119Y-118221001D02*
X116474999Y-117502881D01*
X117724883Y-118221001D02*
X117193119Y-118221001D01*
X121777001Y-122273119D02*
X117724883Y-118221001D01*
X121777001Y-123598881D02*
X121777001Y-122273119D01*
X119899882Y-125476000D02*
X121777001Y-123598881D01*
X116474999Y-112764883D02*
X129032000Y-100207882D01*
X115436000Y-125476000D02*
X119899882Y-125476000D01*
X129032000Y-100191370D02*
X129032000Y-99060000D01*
X112896000Y-122936000D02*
X115436000Y-125476000D01*
D23*
G04 #@! TO.N,GND*
X72911990Y-123796020D02*
X74788010Y-121920000D01*
X72911990Y-125351990D02*
X72911990Y-123796020D01*
X74295000Y-126460000D02*
X74020000Y-126460000D01*
X74020000Y-126460000D02*
X72911990Y-125351990D01*
X88265000Y-125682500D02*
X88265000Y-125730000D01*
X84502500Y-121920000D02*
X88265000Y-125682500D01*
X74788010Y-121920000D02*
X84502500Y-121920000D01*
X74788010Y-121920000D02*
X74295000Y-121426990D01*
D24*
X104140000Y-116840000D02*
X110236000Y-116840000D01*
X132080000Y-115200630D02*
X132080000Y-116332000D01*
X129655370Y-112776000D02*
X132080000Y-115200630D01*
X121920000Y-112776000D02*
X129655370Y-112776000D01*
X117856000Y-116840000D02*
X121920000Y-112776000D01*
X134895000Y-90964000D02*
X134620000Y-90964000D01*
X135939510Y-92008510D02*
X134895000Y-90964000D01*
X135939510Y-106694352D02*
X135939510Y-92008510D01*
X129857862Y-112776000D02*
X135939510Y-106694352D01*
X129655370Y-112776000D02*
X129857862Y-112776000D01*
X134620000Y-108013862D02*
X134620000Y-124492000D01*
X135939510Y-106694352D02*
X134620000Y-108013862D01*
X73545000Y-93980000D02*
X74676000Y-93980000D01*
X72975490Y-94549510D02*
X73545000Y-93980000D01*
X72975490Y-105095490D02*
X72975490Y-94549510D01*
X74020000Y-106140000D02*
X72975490Y-105095490D01*
X74295000Y-106140000D02*
X74020000Y-106140000D01*
X133364000Y-90964000D02*
X134620000Y-90964000D01*
X130728490Y-88328490D02*
X133364000Y-90964000D01*
X74676000Y-92947882D02*
X79295391Y-88328490D01*
X74676000Y-93980000D02*
X74676000Y-92947882D01*
X74523511Y-115087489D02*
X74295000Y-115316000D01*
X103518859Y-115087489D02*
X74523511Y-115087489D01*
X104140000Y-115708630D02*
X103518859Y-115087489D01*
X104140000Y-116840000D02*
X104140000Y-115708630D01*
D23*
X74295000Y-121426990D02*
X74295000Y-115316000D01*
X74295000Y-115316000D02*
X74295000Y-106140000D01*
D21*
X78200000Y-106140000D02*
X79248000Y-107188000D01*
X74295000Y-106140000D02*
X78200000Y-106140000D01*
X98843999Y-94132491D02*
X104648000Y-88328490D01*
X98843999Y-98260001D02*
X98843999Y-94132491D01*
X98044000Y-99060000D02*
X98843999Y-98260001D01*
D24*
X79295391Y-88328490D02*
X104648000Y-88328490D01*
X104648000Y-88328490D02*
X130728490Y-88328490D01*
D21*
G04 #@! TO.N,Net-(J1-Pad1)*
X85560001Y-104864001D02*
X86360000Y-105664000D01*
X84165290Y-103469290D02*
X85560001Y-104864001D01*
X74965710Y-103469290D02*
X84165290Y-103469290D01*
X74295000Y-104140000D02*
X74965710Y-103469290D01*
G04 #@! TO.N,Net-(J3-Pad1)*
X133261001Y-125133001D02*
X133949290Y-125821290D01*
X133949290Y-125821290D02*
X134620000Y-126492000D01*
X130721001Y-122593001D02*
X133949290Y-125821290D01*
X130721001Y-115765119D02*
X130721001Y-122593001D01*
X130106881Y-115150999D02*
X130721001Y-115765119D01*
X128181001Y-115150999D02*
X130106881Y-115150999D01*
X127000000Y-116332000D02*
X128181001Y-115150999D01*
X124460000Y-116332000D02*
X127000000Y-116332000D01*
G04 #@! TO.N,Net-(J4-Pad1)*
X127000000Y-108712000D02*
X129540000Y-108712000D01*
X129540000Y-108712000D02*
X134620000Y-103632000D01*
X134620000Y-103632000D02*
X134620000Y-103124000D01*
X134620000Y-103124000D02*
X134620000Y-92964000D01*
G04 #@! TO.N,Net-(Q3-Pad2)*
X92456000Y-90424000D02*
X90932000Y-88900000D01*
X79532118Y-88900000D02*
X77724000Y-90708118D01*
X90932000Y-88900000D02*
X79532118Y-88900000D01*
X75680000Y-95250000D02*
X74676000Y-95250000D01*
X77724000Y-93206000D02*
X75680000Y-95250000D01*
X77724000Y-90708118D02*
X77724000Y-93206000D01*
G04 #@! TO.N,Net-(Q3-Pad1)*
X91148001Y-104356001D02*
X91948000Y-105156000D01*
X89753280Y-102961280D02*
X91148001Y-104356001D01*
X81342280Y-102961280D02*
X89753280Y-102961280D01*
X74901000Y-96520000D02*
X81342280Y-102961280D01*
X74676000Y-96520000D02*
X74901000Y-96520000D01*
G04 #@! TO.N,Net-(R12-Pad2)*
X110744000Y-90424000D02*
X116332000Y-90424000D01*
X110744000Y-90424000D02*
X110744000Y-99060000D01*
G04 #@! TO.N,Net-(R10-Pad1)*
X84836000Y-119888000D02*
X86360000Y-118364000D01*
X79248000Y-119888000D02*
X84836000Y-119888000D01*
X87159999Y-119163999D02*
X86360000Y-118364000D01*
X87884000Y-119888000D02*
X87159999Y-119163999D01*
X98552000Y-119888000D02*
X87884000Y-119888000D01*
X101600000Y-116840000D02*
X98552000Y-119888000D01*
G04 #@! TO.N,Net-(R13-Pad1)*
X92456000Y-96012000D02*
X98044000Y-90424000D01*
X92456000Y-97536000D02*
X92456000Y-96012000D01*
X92456000Y-97536000D02*
X104140000Y-109220000D01*
G04 #@! TO.N,Net-(R14-Pad1)*
X79756000Y-90424000D02*
X79756000Y-97536000D01*
X98260001Y-108420001D02*
X99060000Y-109220000D01*
X88557001Y-98717001D02*
X98260001Y-108420001D01*
X80937001Y-98717001D02*
X88557001Y-98717001D01*
X79756000Y-97536000D02*
X80937001Y-98717001D01*
X99060000Y-109220000D02*
X100241001Y-108038999D01*
X100241001Y-108038999D02*
X102240565Y-108038999D01*
X107187990Y-106456128D02*
X115765119Y-97878999D01*
X102240565Y-108038999D02*
X102958999Y-108757433D01*
X102958999Y-108757433D02*
X102958999Y-109786881D01*
X102958999Y-109786881D02*
X103573119Y-110401001D01*
X106006999Y-110401001D02*
X107187990Y-109220010D01*
X107187990Y-109220010D02*
X107187990Y-106456128D01*
X115765119Y-97878999D02*
X129598881Y-97878999D01*
X103573119Y-110401001D02*
X106006999Y-110401001D01*
X129598881Y-97878999D02*
X130213001Y-98493119D01*
X130213001Y-98493119D02*
X130213001Y-106291117D01*
X130898999Y-109893001D02*
X132080000Y-108712000D01*
X126433119Y-109893001D02*
X130898999Y-109893001D01*
X125641001Y-109100883D02*
X126433119Y-109893001D01*
X125641001Y-108323117D02*
X125641001Y-109100883D01*
X127673001Y-106291117D02*
X125641001Y-108323117D01*
X130213001Y-106291117D02*
X127673001Y-106291117D01*
G04 #@! TD*
G04 #@! TO.N,GND*
G36*
X137791959Y-130175000D02*
X68453849Y-130175000D01*
X68476498Y-126777609D01*
X72826538Y-126777609D01*
X72830408Y-126815281D01*
X73056920Y-127243474D01*
X73430053Y-127552390D01*
X73893000Y-127695000D01*
X74168000Y-127695000D01*
X74168000Y-126587000D01*
X74422000Y-126587000D01*
X74422000Y-127695000D01*
X74697000Y-127695000D01*
X75159947Y-127552390D01*
X75533080Y-127243474D01*
X75759592Y-126815281D01*
X75763462Y-126777609D01*
X75638731Y-126587000D01*
X74422000Y-126587000D01*
X74168000Y-126587000D01*
X72951269Y-126587000D01*
X72826538Y-126777609D01*
X68476498Y-126777609D01*
X68494282Y-124109999D01*
X72772560Y-124109999D01*
X72772560Y-124810001D01*
X72840873Y-125153436D01*
X73035414Y-125444586D01*
X73202347Y-125556127D01*
X73056920Y-125676526D01*
X72830408Y-126104719D01*
X72826538Y-126142391D01*
X72951269Y-126333000D01*
X74168000Y-126333000D01*
X74168000Y-126313000D01*
X74422000Y-126313000D01*
X74422000Y-126333000D01*
X75638731Y-126333000D01*
X75763462Y-126142391D01*
X75759592Y-126104719D01*
X75533080Y-125676526D01*
X75387653Y-125556127D01*
X75432516Y-125526150D01*
X81597500Y-125526150D01*
X81597500Y-125933849D01*
X81689609Y-126396910D01*
X82040477Y-126922023D01*
X82565589Y-127272891D01*
X83185000Y-127396100D01*
X83804410Y-127272891D01*
X84329523Y-126922023D01*
X84455000Y-126734233D01*
X84580477Y-126922023D01*
X85105589Y-127272891D01*
X85725000Y-127396100D01*
X86344410Y-127272891D01*
X86740444Y-127008270D01*
X86774173Y-127089699D01*
X86952802Y-127268327D01*
X87186191Y-127365000D01*
X87979250Y-127365000D01*
X88138000Y-127206250D01*
X88138000Y-125857000D01*
X88392000Y-125857000D01*
X88392000Y-127206250D01*
X88550750Y-127365000D01*
X89343809Y-127365000D01*
X89577198Y-127268327D01*
X89755827Y-127089699D01*
X89852500Y-126856310D01*
X89852500Y-126015750D01*
X89693750Y-125857000D01*
X88392000Y-125857000D01*
X88138000Y-125857000D01*
X88118000Y-125857000D01*
X88118000Y-125603000D01*
X88138000Y-125603000D01*
X88138000Y-124253750D01*
X88392000Y-124253750D01*
X88392000Y-125603000D01*
X89693750Y-125603000D01*
X89852500Y-125444250D01*
X89852500Y-124603690D01*
X89755827Y-124370301D01*
X89577198Y-124191673D01*
X89343809Y-124095000D01*
X88550750Y-124095000D01*
X88392000Y-124253750D01*
X88138000Y-124253750D01*
X87979250Y-124095000D01*
X87186191Y-124095000D01*
X86952802Y-124191673D01*
X86774173Y-124370301D01*
X86740444Y-124451729D01*
X86344411Y-124187109D01*
X85725000Y-124063900D01*
X85105590Y-124187109D01*
X84580477Y-124537977D01*
X84455000Y-124725767D01*
X84329523Y-124537977D01*
X83804411Y-124187109D01*
X83185000Y-124063900D01*
X82565590Y-124187109D01*
X82040477Y-124537977D01*
X81689609Y-125063089D01*
X81597500Y-125526150D01*
X75432516Y-125526150D01*
X75554586Y-125444586D01*
X75749127Y-125153436D01*
X75817440Y-124810001D01*
X75817440Y-124109999D01*
X75749127Y-123766564D01*
X75554586Y-123475414D01*
X75263436Y-123280873D01*
X74920001Y-123212560D01*
X73669999Y-123212560D01*
X73326564Y-123280873D01*
X73035414Y-123475414D01*
X72840873Y-123766564D01*
X72772560Y-124109999D01*
X68494282Y-124109999D01*
X68604767Y-107537041D01*
X77856086Y-107537041D01*
X78095611Y-108043134D01*
X78510577Y-108419041D01*
X78898961Y-108579904D01*
X79121000Y-108457915D01*
X79121000Y-107315000D01*
X79375000Y-107315000D01*
X79375000Y-108457915D01*
X79597039Y-108579904D01*
X79985423Y-108419041D01*
X80400389Y-108043134D01*
X80639914Y-107537041D01*
X80518629Y-107315000D01*
X79375000Y-107315000D01*
X79121000Y-107315000D01*
X77977371Y-107315000D01*
X77856086Y-107537041D01*
X68604767Y-107537041D01*
X68611964Y-106457609D01*
X72826538Y-106457609D01*
X72830408Y-106495281D01*
X73056920Y-106923474D01*
X73430053Y-107232390D01*
X73893000Y-107375000D01*
X74168000Y-107375000D01*
X74168000Y-106267000D01*
X74422000Y-106267000D01*
X74422000Y-107375000D01*
X74697000Y-107375000D01*
X75159947Y-107232390D01*
X75533080Y-106923474D01*
X75577788Y-106838959D01*
X77856086Y-106838959D01*
X77977371Y-107061000D01*
X79121000Y-107061000D01*
X79121000Y-105918085D01*
X79375000Y-105918085D01*
X79375000Y-107061000D01*
X80518629Y-107061000D01*
X80639914Y-106838959D01*
X80400389Y-106332866D01*
X79985423Y-105956959D01*
X79597039Y-105796096D01*
X79375000Y-105918085D01*
X79121000Y-105918085D01*
X78898961Y-105796096D01*
X78510577Y-105956959D01*
X78095611Y-106332866D01*
X77856086Y-106838959D01*
X75577788Y-106838959D01*
X75759592Y-106495281D01*
X75763462Y-106457609D01*
X75638731Y-106267000D01*
X74422000Y-106267000D01*
X74168000Y-106267000D01*
X72951269Y-106267000D01*
X72826538Y-106457609D01*
X68611964Y-106457609D01*
X68629749Y-103789999D01*
X72772560Y-103789999D01*
X72772560Y-104490001D01*
X72840873Y-104833436D01*
X73035414Y-105124586D01*
X73202347Y-105236127D01*
X73056920Y-105356526D01*
X72830408Y-105784719D01*
X72826538Y-105822391D01*
X72951269Y-106013000D01*
X74168000Y-106013000D01*
X74168000Y-105993000D01*
X74422000Y-105993000D01*
X74422000Y-106013000D01*
X75638731Y-106013000D01*
X75763462Y-105822391D01*
X75759592Y-105784719D01*
X75533080Y-105356526D01*
X75387653Y-105236127D01*
X75554586Y-105124586D01*
X75749127Y-104833436D01*
X75817440Y-104490001D01*
X75817440Y-104231290D01*
X83849660Y-104231290D01*
X84946068Y-105327699D01*
X84925000Y-105378561D01*
X84925000Y-105949439D01*
X85143466Y-106476862D01*
X85547138Y-106880534D01*
X86074561Y-107099000D01*
X86645439Y-107099000D01*
X87172862Y-106880534D01*
X87576534Y-106476862D01*
X87795000Y-105949439D01*
X87795000Y-105378561D01*
X87576534Y-104851138D01*
X87172862Y-104447466D01*
X86645439Y-104229000D01*
X86074561Y-104229000D01*
X86023699Y-104250068D01*
X85496911Y-103723280D01*
X89437650Y-103723280D01*
X90548843Y-104834474D01*
X90484887Y-105156000D01*
X90596260Y-105715909D01*
X90913423Y-106190577D01*
X91388091Y-106507740D01*
X91806667Y-106591000D01*
X92089333Y-106591000D01*
X92507909Y-106507740D01*
X92982577Y-106190577D01*
X93299740Y-105715909D01*
X93411113Y-105156000D01*
X93299740Y-104596091D01*
X93181496Y-104419127D01*
X96547369Y-107785000D01*
X96378667Y-107785000D01*
X95960091Y-107868260D01*
X95485423Y-108185423D01*
X95168260Y-108660091D01*
X95056887Y-109220000D01*
X95168260Y-109779909D01*
X95485423Y-110254577D01*
X95960091Y-110571740D01*
X96378667Y-110655000D01*
X96661333Y-110655000D01*
X97079909Y-110571740D01*
X97554577Y-110254577D01*
X97790000Y-109902242D01*
X98025423Y-110254577D01*
X98500091Y-110571740D01*
X98918667Y-110655000D01*
X99201333Y-110655000D01*
X99619909Y-110571740D01*
X100094577Y-110254577D01*
X100330000Y-109902242D01*
X100565423Y-110254577D01*
X101040091Y-110571740D01*
X101458667Y-110655000D01*
X101741333Y-110655000D01*
X101921527Y-110619157D01*
X103040127Y-111737758D01*
X103082639Y-111801381D01*
X103334693Y-111969798D01*
X103556962Y-112014010D01*
X103556966Y-112014010D01*
X103632009Y-112028937D01*
X103707052Y-112014010D01*
X108396380Y-112014010D01*
X118828994Y-122446625D01*
X118761000Y-122610778D01*
X118761000Y-123261222D01*
X119009914Y-123862153D01*
X119469847Y-124322086D01*
X119827868Y-124470383D01*
X119584252Y-124714000D01*
X115751630Y-124714000D01*
X114463005Y-123425375D01*
X114531000Y-123261222D01*
X114531000Y-122610778D01*
X114282086Y-122009847D01*
X113822153Y-121549914D01*
X113221222Y-121301000D01*
X112570778Y-121301000D01*
X111969847Y-121549914D01*
X111509914Y-122009847D01*
X111441920Y-122174000D01*
X106487631Y-122174000D01*
X103720999Y-119407369D01*
X103720999Y-118202927D01*
X103790961Y-118231904D01*
X104013000Y-118109915D01*
X104013000Y-116967000D01*
X104267000Y-116967000D01*
X104267000Y-118109915D01*
X104489039Y-118231904D01*
X104877423Y-118071041D01*
X104964089Y-117992532D01*
X109263073Y-117992532D01*
X109361736Y-118259387D01*
X109971461Y-118485908D01*
X110621460Y-118461856D01*
X111110264Y-118259387D01*
X111208927Y-117992532D01*
X110236000Y-117019605D01*
X109263073Y-117992532D01*
X104964089Y-117992532D01*
X105292389Y-117695134D01*
X105531914Y-117189041D01*
X105410629Y-116967000D01*
X104267000Y-116967000D01*
X104013000Y-116967000D01*
X103993000Y-116967000D01*
X103993000Y-116713000D01*
X104013000Y-116713000D01*
X104013000Y-115570085D01*
X104267000Y-115570085D01*
X104267000Y-116713000D01*
X105410629Y-116713000D01*
X105485756Y-116575461D01*
X108590092Y-116575461D01*
X108614144Y-117225460D01*
X108816613Y-117714264D01*
X109083468Y-117812927D01*
X110056395Y-116840000D01*
X110415605Y-116840000D01*
X111388532Y-117812927D01*
X111655387Y-117714264D01*
X111881908Y-117104539D01*
X111857856Y-116454540D01*
X111655387Y-115965736D01*
X111388532Y-115867073D01*
X110415605Y-116840000D01*
X110056395Y-116840000D01*
X109083468Y-115867073D01*
X108816613Y-115965736D01*
X108590092Y-116575461D01*
X105485756Y-116575461D01*
X105531914Y-116490959D01*
X105292389Y-115984866D01*
X104964090Y-115687468D01*
X109263073Y-115687468D01*
X110236000Y-116660395D01*
X111208927Y-115687468D01*
X111110264Y-115420613D01*
X110500539Y-115194092D01*
X109850540Y-115218144D01*
X109361736Y-115420613D01*
X109263073Y-115687468D01*
X104964090Y-115687468D01*
X104877423Y-115608959D01*
X104489039Y-115448096D01*
X104267000Y-115570085D01*
X104013000Y-115570085D01*
X103790961Y-115448096D01*
X103402577Y-115608959D01*
X103293385Y-115707873D01*
X102758764Y-115173252D01*
X102716252Y-115109628D01*
X102464198Y-114941211D01*
X102241929Y-114896999D01*
X102241924Y-114896999D01*
X102166881Y-114882072D01*
X102091838Y-114896999D01*
X100316048Y-114896999D01*
X100241001Y-114882071D01*
X100165954Y-114896999D01*
X100165953Y-114896999D01*
X99943684Y-114941211D01*
X99691630Y-115109628D01*
X99649119Y-115173250D01*
X99381527Y-115440843D01*
X99201333Y-115405000D01*
X98918667Y-115405000D01*
X98500091Y-115488260D01*
X98025423Y-115805423D01*
X97944785Y-115926106D01*
X97918157Y-115792235D01*
X97777809Y-115582191D01*
X97567765Y-115441843D01*
X97320000Y-115392560D01*
X95720000Y-115392560D01*
X95472235Y-115441843D01*
X95262191Y-115582191D01*
X95121843Y-115792235D01*
X95072560Y-116040000D01*
X95072560Y-117640000D01*
X95121843Y-117887765D01*
X95126008Y-117893999D01*
X93383000Y-117893999D01*
X93383000Y-117570561D01*
X93164534Y-117043138D01*
X92760862Y-116639466D01*
X92233439Y-116421000D01*
X91662561Y-116421000D01*
X91135138Y-116639466D01*
X90731466Y-117043138D01*
X90513000Y-117570561D01*
X90513000Y-118141439D01*
X90731466Y-118668862D01*
X91135138Y-119072534D01*
X91264216Y-119126000D01*
X88199631Y-119126000D01*
X87759157Y-118685527D01*
X87823113Y-118364000D01*
X87711740Y-117804091D01*
X87394577Y-117329423D01*
X86919909Y-117012260D01*
X86501333Y-116929000D01*
X86218667Y-116929000D01*
X85800091Y-117012260D01*
X85325423Y-117329423D01*
X85008260Y-117804091D01*
X84896887Y-118364000D01*
X84960843Y-118685527D01*
X84520370Y-119126000D01*
X80485602Y-119126000D01*
X80464534Y-119075138D01*
X80060862Y-118671466D01*
X79533439Y-118453000D01*
X78962561Y-118453000D01*
X78435138Y-118671466D01*
X78031466Y-119075138D01*
X77813000Y-119602561D01*
X77813000Y-120173439D01*
X78031466Y-120700862D01*
X78435138Y-121104534D01*
X78962561Y-121323000D01*
X79533439Y-121323000D01*
X80060862Y-121104534D01*
X80464534Y-120700862D01*
X80485602Y-120650000D01*
X84760957Y-120650000D01*
X84836000Y-120664927D01*
X84911043Y-120650000D01*
X84911048Y-120650000D01*
X85133317Y-120605788D01*
X85385371Y-120437371D01*
X85427884Y-120373746D01*
X86038473Y-119763157D01*
X86218667Y-119799000D01*
X86501333Y-119799000D01*
X86681527Y-119763157D01*
X87292118Y-120373749D01*
X87334629Y-120437371D01*
X87586683Y-120605788D01*
X87808952Y-120650000D01*
X87808956Y-120650000D01*
X87883999Y-120664927D01*
X87959042Y-120650000D01*
X98476957Y-120650000D01*
X98552000Y-120664927D01*
X98627043Y-120650000D01*
X98627048Y-120650000D01*
X98849317Y-120605788D01*
X99101371Y-120437371D01*
X99143883Y-120373747D01*
X101278473Y-118239157D01*
X101458667Y-118275000D01*
X101741333Y-118275000D01*
X102159909Y-118191740D01*
X102197000Y-118166957D01*
X102197000Y-119647951D01*
X102182072Y-119722999D01*
X102197000Y-119798047D01*
X102241212Y-120020316D01*
X102409629Y-120272370D01*
X102473250Y-120314880D01*
X105580117Y-123421748D01*
X105622629Y-123485371D01*
X105874683Y-123653788D01*
X106096952Y-123698000D01*
X106096953Y-123698000D01*
X106172000Y-123712928D01*
X106247047Y-123698000D01*
X111441920Y-123698000D01*
X111509914Y-123862153D01*
X111969847Y-124322086D01*
X112570778Y-124571000D01*
X113221222Y-124571000D01*
X113385375Y-124503005D01*
X114844116Y-125961746D01*
X114886629Y-126025371D01*
X115061175Y-126141999D01*
X115138681Y-126193787D01*
X115138682Y-126193787D01*
X115138683Y-126193788D01*
X115360952Y-126238000D01*
X115360956Y-126238000D01*
X115435999Y-126252927D01*
X115511042Y-126238000D01*
X119824839Y-126238000D01*
X119899882Y-126252927D01*
X119974925Y-126238000D01*
X119974930Y-126238000D01*
X120197199Y-126193788D01*
X120449253Y-126025371D01*
X120491765Y-125961747D01*
X122262751Y-124190762D01*
X122326372Y-124148252D01*
X122494789Y-123896198D01*
X122539001Y-123673929D01*
X122539001Y-123673925D01*
X122553928Y-123598882D01*
X122539001Y-123523839D01*
X122539001Y-122348161D01*
X122553928Y-122273118D01*
X122539001Y-122198075D01*
X122539001Y-122198071D01*
X122494789Y-121975802D01*
X122427579Y-121875214D01*
X122368883Y-121787370D01*
X122326372Y-121723748D01*
X122262750Y-121681237D01*
X118760127Y-118178615D01*
X118828927Y-117992532D01*
X117856000Y-117019605D01*
X117841858Y-117033748D01*
X117662253Y-116854143D01*
X117676395Y-116840000D01*
X118035605Y-116840000D01*
X119008532Y-117812927D01*
X119275387Y-117714264D01*
X119501908Y-117104539D01*
X119477856Y-116454540D01*
X119275387Y-115965736D01*
X119008532Y-115867073D01*
X118035605Y-116840000D01*
X117676395Y-116840000D01*
X117662253Y-116825858D01*
X117841858Y-116646253D01*
X117856000Y-116660395D01*
X118828927Y-115687468D01*
X118771447Y-115532000D01*
X123012560Y-115532000D01*
X123012560Y-117132000D01*
X123061843Y-117379765D01*
X123202191Y-117589809D01*
X123412235Y-117730157D01*
X123660000Y-117779440D01*
X125260000Y-117779440D01*
X125507765Y-117730157D01*
X125717809Y-117589809D01*
X125858157Y-117379765D01*
X125884785Y-117245894D01*
X125965423Y-117366577D01*
X126440091Y-117683740D01*
X126858667Y-117767000D01*
X127141333Y-117767000D01*
X127559909Y-117683740D01*
X128034577Y-117366577D01*
X128270000Y-117014242D01*
X128505423Y-117366577D01*
X128980091Y-117683740D01*
X129398667Y-117767000D01*
X129681333Y-117767000D01*
X129959001Y-117711768D01*
X129959002Y-122517953D01*
X129944074Y-122593001D01*
X130003214Y-122890318D01*
X130109941Y-123050046D01*
X130171631Y-123142372D01*
X130235252Y-123184882D01*
X133075739Y-126025370D01*
X133113290Y-126062920D01*
X133097560Y-126141999D01*
X133097560Y-126842001D01*
X133165873Y-127185436D01*
X133360414Y-127476586D01*
X133651564Y-127671127D01*
X133994999Y-127739440D01*
X135245001Y-127739440D01*
X135588436Y-127671127D01*
X135879586Y-127476586D01*
X136074127Y-127185436D01*
X136142440Y-126842001D01*
X136142440Y-126141999D01*
X136074127Y-125798564D01*
X135879586Y-125507414D01*
X135712653Y-125395873D01*
X135858080Y-125275474D01*
X136084592Y-124847281D01*
X136088462Y-124809609D01*
X135963731Y-124619000D01*
X134747000Y-124619000D01*
X134747000Y-124639000D01*
X134493000Y-124639000D01*
X134493000Y-124619000D01*
X134473000Y-124619000D01*
X134473000Y-124365000D01*
X134493000Y-124365000D01*
X134493000Y-123257000D01*
X134747000Y-123257000D01*
X134747000Y-124365000D01*
X135963731Y-124365000D01*
X136088462Y-124174391D01*
X136084592Y-124136719D01*
X135858080Y-123708526D01*
X135484947Y-123399610D01*
X135022000Y-123257000D01*
X134747000Y-123257000D01*
X134493000Y-123257000D01*
X134218000Y-123257000D01*
X133755053Y-123399610D01*
X133381920Y-123708526D01*
X133220085Y-124014455D01*
X131483001Y-122277371D01*
X131483001Y-117621203D01*
X131730961Y-117723904D01*
X131953000Y-117601915D01*
X131953000Y-116459000D01*
X132207000Y-116459000D01*
X132207000Y-117601915D01*
X132429039Y-117723904D01*
X132817423Y-117563041D01*
X133232389Y-117187134D01*
X133471914Y-116681041D01*
X133350629Y-116459000D01*
X132207000Y-116459000D01*
X131953000Y-116459000D01*
X131933000Y-116459000D01*
X131933000Y-116205000D01*
X131953000Y-116205000D01*
X131953000Y-115062085D01*
X132207000Y-115062085D01*
X132207000Y-116205000D01*
X133350629Y-116205000D01*
X133471914Y-115982959D01*
X133232389Y-115476866D01*
X132817423Y-115100959D01*
X132429039Y-114940096D01*
X132207000Y-115062085D01*
X131953000Y-115062085D01*
X131730961Y-114940096D01*
X131342577Y-115100959D01*
X131239000Y-115194786D01*
X131206751Y-115173238D01*
X130698764Y-114665252D01*
X130656252Y-114601628D01*
X130404198Y-114433211D01*
X130181929Y-114388999D01*
X130181924Y-114388999D01*
X130106881Y-114374072D01*
X130031838Y-114388999D01*
X128256048Y-114388999D01*
X128181001Y-114374071D01*
X128105954Y-114388999D01*
X128105953Y-114388999D01*
X127883684Y-114433211D01*
X127631630Y-114601628D01*
X127589119Y-114665250D01*
X127321527Y-114932843D01*
X127141333Y-114897000D01*
X126858667Y-114897000D01*
X126440091Y-114980260D01*
X125965423Y-115297423D01*
X125884785Y-115418106D01*
X125858157Y-115284235D01*
X125717809Y-115074191D01*
X125507765Y-114933843D01*
X125260000Y-114884560D01*
X123660000Y-114884560D01*
X123412235Y-114933843D01*
X123202191Y-115074191D01*
X123061843Y-115284235D01*
X123012560Y-115532000D01*
X118771447Y-115532000D01*
X118730264Y-115420613D01*
X118120539Y-115194092D01*
X117470540Y-115218144D01*
X117236999Y-115314880D01*
X117236999Y-113080513D01*
X129451001Y-100866512D01*
X129451002Y-105529117D01*
X127748044Y-105529117D01*
X127673001Y-105514190D01*
X127597958Y-105529117D01*
X127597953Y-105529117D01*
X127375684Y-105573329D01*
X127123630Y-105741746D01*
X127081119Y-105805368D01*
X125323425Y-107563063D01*
X125019909Y-107360260D01*
X124601333Y-107277000D01*
X124318667Y-107277000D01*
X123900091Y-107360260D01*
X123425423Y-107677423D01*
X123108260Y-108152091D01*
X122996887Y-108712000D01*
X123108260Y-109271909D01*
X123425423Y-109746577D01*
X123900091Y-110063740D01*
X124318667Y-110147000D01*
X124601333Y-110147000D01*
X125019909Y-110063740D01*
X125323425Y-109860937D01*
X125841237Y-110378750D01*
X125883748Y-110442372D01*
X126135802Y-110610789D01*
X126358071Y-110655001D01*
X126358075Y-110655001D01*
X126433118Y-110669928D01*
X126508161Y-110655001D01*
X130823956Y-110655001D01*
X130898999Y-110669928D01*
X130974042Y-110655001D01*
X130974047Y-110655001D01*
X131196316Y-110610789D01*
X131448370Y-110442372D01*
X131490882Y-110378748D01*
X131758473Y-110111157D01*
X131938667Y-110147000D01*
X132221333Y-110147000D01*
X132639909Y-110063740D01*
X133114577Y-109746577D01*
X133431740Y-109271909D01*
X133543113Y-108712000D01*
X133431740Y-108152091D01*
X133114577Y-107677423D01*
X132639909Y-107360260D01*
X132221333Y-107277000D01*
X132052630Y-107277000D01*
X135105750Y-104223881D01*
X135169371Y-104181371D01*
X135337788Y-103929317D01*
X135382000Y-103707048D01*
X135382000Y-103707043D01*
X135396927Y-103632000D01*
X135382000Y-103556957D01*
X135382000Y-94184189D01*
X135588436Y-94143127D01*
X135879586Y-93948586D01*
X136074127Y-93657436D01*
X136142440Y-93314001D01*
X136142440Y-92613999D01*
X136074127Y-92270564D01*
X135879586Y-91979414D01*
X135712653Y-91867873D01*
X135858080Y-91747474D01*
X136084592Y-91319281D01*
X136088462Y-91281609D01*
X135963731Y-91091000D01*
X134747000Y-91091000D01*
X134747000Y-91111000D01*
X134493000Y-91111000D01*
X134493000Y-91091000D01*
X133276269Y-91091000D01*
X133151538Y-91281609D01*
X133155408Y-91319281D01*
X133381920Y-91747474D01*
X133527347Y-91867873D01*
X133360414Y-91979414D01*
X133165873Y-92270564D01*
X133097560Y-92613999D01*
X133097560Y-93314001D01*
X133165873Y-93657436D01*
X133360414Y-93948586D01*
X133651564Y-94143127D01*
X133858001Y-94184190D01*
X133858000Y-103048952D01*
X133858000Y-103316369D01*
X130975001Y-106199369D01*
X130975001Y-98568166D01*
X130989929Y-98493119D01*
X130961234Y-98348862D01*
X130930789Y-98195802D01*
X130834874Y-98052255D01*
X130804883Y-98007370D01*
X130762372Y-97943748D01*
X130698751Y-97901238D01*
X130190764Y-97393252D01*
X130148252Y-97329628D01*
X129896198Y-97161211D01*
X129673929Y-97116999D01*
X129673924Y-97116999D01*
X129598881Y-97102072D01*
X129523838Y-97116999D01*
X115840161Y-97116999D01*
X115765118Y-97102072D01*
X115690075Y-97116999D01*
X115690071Y-97116999D01*
X115467802Y-97161211D01*
X115467801Y-97161212D01*
X115467800Y-97161212D01*
X115353196Y-97237788D01*
X115215748Y-97329628D01*
X115173237Y-97393250D01*
X106702241Y-105864247D01*
X106638620Y-105906757D01*
X106596109Y-105970379D01*
X106596108Y-105970380D01*
X106470203Y-106158811D01*
X106411063Y-106456128D01*
X106425991Y-106531176D01*
X106425990Y-108904380D01*
X105691369Y-109639001D01*
X105519768Y-109639001D01*
X105603113Y-109220000D01*
X105491740Y-108660091D01*
X105174577Y-108185423D01*
X104699909Y-107868260D01*
X104281333Y-107785000D01*
X103998667Y-107785000D01*
X103818474Y-107820843D01*
X96065376Y-100067745D01*
X97215861Y-100067745D01*
X97289995Y-100313864D01*
X97827223Y-100506965D01*
X98397454Y-100479778D01*
X98798005Y-100313864D01*
X98872139Y-100067745D01*
X98044000Y-99239605D01*
X97215861Y-100067745D01*
X96065376Y-100067745D01*
X94840854Y-98843223D01*
X96597035Y-98843223D01*
X96624222Y-99413454D01*
X96790136Y-99814005D01*
X97036255Y-99888139D01*
X97864395Y-99060000D01*
X98223605Y-99060000D01*
X99051745Y-99888139D01*
X99297864Y-99814005D01*
X99490965Y-99276777D01*
X99463778Y-98706546D01*
X99297864Y-98305995D01*
X99051745Y-98231861D01*
X98223605Y-99060000D01*
X97864395Y-99060000D01*
X97036255Y-98231861D01*
X96790136Y-98305995D01*
X96597035Y-98843223D01*
X94840854Y-98843223D01*
X94049886Y-98052255D01*
X97215861Y-98052255D01*
X98044000Y-98880395D01*
X98872139Y-98052255D01*
X98798005Y-97806136D01*
X98260777Y-97613035D01*
X97690546Y-97640222D01*
X97289995Y-97806136D01*
X97215861Y-98052255D01*
X94049886Y-98052255D01*
X93855157Y-97857527D01*
X93919113Y-97536000D01*
X93807740Y-96976091D01*
X93490577Y-96501423D01*
X93222998Y-96322632D01*
X97707699Y-91837932D01*
X97758561Y-91859000D01*
X98329439Y-91859000D01*
X98856862Y-91640534D01*
X99260534Y-91236862D01*
X99479000Y-90709439D01*
X99479000Y-90424000D01*
X109280887Y-90424000D01*
X109392260Y-90983909D01*
X109709423Y-91458577D01*
X109982000Y-91640707D01*
X109982001Y-97843292D01*
X109709423Y-98025423D01*
X109392260Y-98500091D01*
X109280887Y-99060000D01*
X109392260Y-99619909D01*
X109709423Y-100094577D01*
X110184091Y-100411740D01*
X110602667Y-100495000D01*
X110885333Y-100495000D01*
X111303909Y-100411740D01*
X111778577Y-100094577D01*
X112095740Y-99619909D01*
X112207113Y-99060000D01*
X112095740Y-98500091D01*
X111778577Y-98025423D01*
X111506000Y-97843293D01*
X111506000Y-91640707D01*
X111778577Y-91458577D01*
X111960707Y-91186000D01*
X115094398Y-91186000D01*
X115115466Y-91236862D01*
X115519138Y-91640534D01*
X116046561Y-91859000D01*
X116617439Y-91859000D01*
X117144862Y-91640534D01*
X117548534Y-91236862D01*
X117767000Y-90709439D01*
X117767000Y-90424000D01*
X127568887Y-90424000D01*
X127680260Y-90983909D01*
X127997423Y-91458577D01*
X128472091Y-91775740D01*
X128890667Y-91859000D01*
X129173333Y-91859000D01*
X129591909Y-91775740D01*
X130066577Y-91458577D01*
X130383740Y-90983909D01*
X130450876Y-90646391D01*
X133151538Y-90646391D01*
X133276269Y-90837000D01*
X134493000Y-90837000D01*
X134493000Y-89729000D01*
X134747000Y-89729000D01*
X134747000Y-90837000D01*
X135963731Y-90837000D01*
X136088462Y-90646391D01*
X136084592Y-90608719D01*
X135858080Y-90180526D01*
X135484947Y-89871610D01*
X135022000Y-89729000D01*
X134747000Y-89729000D01*
X134493000Y-89729000D01*
X134218000Y-89729000D01*
X133755053Y-89871610D01*
X133381920Y-90180526D01*
X133155408Y-90608719D01*
X133151538Y-90646391D01*
X130450876Y-90646391D01*
X130495113Y-90424000D01*
X130383740Y-89864091D01*
X130066577Y-89389423D01*
X129591909Y-89072260D01*
X129173333Y-88989000D01*
X128890667Y-88989000D01*
X128472091Y-89072260D01*
X127997423Y-89389423D01*
X127680260Y-89864091D01*
X127568887Y-90424000D01*
X117767000Y-90424000D01*
X117767000Y-90138561D01*
X117548534Y-89611138D01*
X117144862Y-89207466D01*
X116617439Y-88989000D01*
X116046561Y-88989000D01*
X115519138Y-89207466D01*
X115115466Y-89611138D01*
X115094398Y-89662000D01*
X111960707Y-89662000D01*
X111778577Y-89389423D01*
X111303909Y-89072260D01*
X110885333Y-88989000D01*
X110602667Y-88989000D01*
X110184091Y-89072260D01*
X109709423Y-89389423D01*
X109392260Y-89864091D01*
X109280887Y-90424000D01*
X99479000Y-90424000D01*
X99479000Y-90138561D01*
X99260534Y-89611138D01*
X98856862Y-89207466D01*
X98329439Y-88989000D01*
X97758561Y-88989000D01*
X97231138Y-89207466D01*
X96827466Y-89611138D01*
X96609000Y-90138561D01*
X96609000Y-90709439D01*
X96630068Y-90760301D01*
X91970251Y-95420119D01*
X91906630Y-95462629D01*
X91864119Y-95526251D01*
X91864118Y-95526252D01*
X91738213Y-95714683D01*
X91679073Y-96012000D01*
X91694001Y-96087048D01*
X91694001Y-96319292D01*
X91421423Y-96501423D01*
X91104260Y-96976091D01*
X90992887Y-97536000D01*
X91104260Y-98095909D01*
X91421423Y-98570577D01*
X91896091Y-98887740D01*
X92314667Y-98971000D01*
X92597333Y-98971000D01*
X92777527Y-98935157D01*
X101119368Y-107276999D01*
X100316048Y-107276999D01*
X100241001Y-107262071D01*
X100165954Y-107276999D01*
X100165953Y-107276999D01*
X99943684Y-107321211D01*
X99691630Y-107489628D01*
X99649119Y-107553250D01*
X99381527Y-107820843D01*
X99201333Y-107785000D01*
X98918667Y-107785000D01*
X98738474Y-107820843D01*
X89148884Y-98231254D01*
X89106372Y-98167630D01*
X88854318Y-97999213D01*
X88632049Y-97955001D01*
X88632044Y-97955001D01*
X88557001Y-97940074D01*
X88481958Y-97955001D01*
X81252632Y-97955001D01*
X81169932Y-97872301D01*
X81191000Y-97821439D01*
X81191000Y-97250561D01*
X80972534Y-96723138D01*
X80568862Y-96319466D01*
X80518000Y-96298398D01*
X80518000Y-91661602D01*
X80568862Y-91640534D01*
X80972534Y-91236862D01*
X81191000Y-90709439D01*
X81191000Y-90138561D01*
X80993602Y-89662000D01*
X90616370Y-89662000D01*
X91056843Y-90102473D01*
X90992887Y-90424000D01*
X91104260Y-90983909D01*
X91421423Y-91458577D01*
X91896091Y-91775740D01*
X92314667Y-91859000D01*
X92597333Y-91859000D01*
X93015909Y-91775740D01*
X93490577Y-91458577D01*
X93807740Y-90983909D01*
X93919113Y-90424000D01*
X93807740Y-89864091D01*
X93490577Y-89389423D01*
X93015909Y-89072260D01*
X92597333Y-88989000D01*
X92314667Y-88989000D01*
X92134473Y-89024843D01*
X91523884Y-88414254D01*
X91481371Y-88350629D01*
X91229317Y-88182212D01*
X91007048Y-88138000D01*
X91007043Y-88138000D01*
X90932000Y-88123073D01*
X90856957Y-88138000D01*
X79607161Y-88138000D01*
X79532118Y-88123073D01*
X79457075Y-88138000D01*
X79457070Y-88138000D01*
X79234801Y-88182212D01*
X78982747Y-88350629D01*
X78940236Y-88414251D01*
X77238253Y-90116235D01*
X77174629Y-90158747D01*
X77006212Y-90410802D01*
X76962000Y-90633071D01*
X76962000Y-90633075D01*
X76947073Y-90708118D01*
X76962000Y-90783161D01*
X76962001Y-92890368D01*
X75999372Y-93852998D01*
X75894164Y-93852998D01*
X76019964Y-93674190D01*
X76011266Y-93612664D01*
X75786179Y-93215745D01*
X75426331Y-92935177D01*
X74986506Y-92813674D01*
X74803000Y-92973407D01*
X74803000Y-93853000D01*
X74823000Y-93853000D01*
X74823000Y-94090000D01*
X74336754Y-94090000D01*
X74251290Y-94107000D01*
X73457837Y-94107000D01*
X73332036Y-94285810D01*
X73340734Y-94347336D01*
X73486854Y-94605004D01*
X73358305Y-94797391D01*
X73268275Y-95250000D01*
X73358157Y-95701867D01*
X73327843Y-95747235D01*
X73278560Y-95995000D01*
X73278560Y-97045000D01*
X73327843Y-97292765D01*
X73468191Y-97502809D01*
X73678235Y-97643157D01*
X73926000Y-97692440D01*
X74995810Y-97692440D01*
X80010659Y-102707290D01*
X75040752Y-102707290D01*
X74965709Y-102692363D01*
X74890666Y-102707290D01*
X74890662Y-102707290D01*
X74668393Y-102751502D01*
X74668392Y-102751503D01*
X74668391Y-102751503D01*
X74513388Y-102855073D01*
X74457285Y-102892560D01*
X73669999Y-102892560D01*
X73326564Y-102960873D01*
X73035414Y-103155414D01*
X72840873Y-103446564D01*
X72772560Y-103789999D01*
X68629749Y-103789999D01*
X68697188Y-93674190D01*
X73332036Y-93674190D01*
X73457837Y-93853000D01*
X74549000Y-93853000D01*
X74549000Y-92973407D01*
X74365494Y-92813674D01*
X73925669Y-92935177D01*
X73565821Y-93215745D01*
X73340734Y-93612664D01*
X73332036Y-93674190D01*
X68697188Y-93674190D01*
X68706849Y-92225062D01*
X70446556Y-87503000D01*
X136781971Y-87503000D01*
X137791959Y-130175000D01*
X137791959Y-130175000D01*
G37*
X137791959Y-130175000D02*
X68453849Y-130175000D01*
X68476498Y-126777609D01*
X72826538Y-126777609D01*
X72830408Y-126815281D01*
X73056920Y-127243474D01*
X73430053Y-127552390D01*
X73893000Y-127695000D01*
X74168000Y-127695000D01*
X74168000Y-126587000D01*
X74422000Y-126587000D01*
X74422000Y-127695000D01*
X74697000Y-127695000D01*
X75159947Y-127552390D01*
X75533080Y-127243474D01*
X75759592Y-126815281D01*
X75763462Y-126777609D01*
X75638731Y-126587000D01*
X74422000Y-126587000D01*
X74168000Y-126587000D01*
X72951269Y-126587000D01*
X72826538Y-126777609D01*
X68476498Y-126777609D01*
X68494282Y-124109999D01*
X72772560Y-124109999D01*
X72772560Y-124810001D01*
X72840873Y-125153436D01*
X73035414Y-125444586D01*
X73202347Y-125556127D01*
X73056920Y-125676526D01*
X72830408Y-126104719D01*
X72826538Y-126142391D01*
X72951269Y-126333000D01*
X74168000Y-126333000D01*
X74168000Y-126313000D01*
X74422000Y-126313000D01*
X74422000Y-126333000D01*
X75638731Y-126333000D01*
X75763462Y-126142391D01*
X75759592Y-126104719D01*
X75533080Y-125676526D01*
X75387653Y-125556127D01*
X75432516Y-125526150D01*
X81597500Y-125526150D01*
X81597500Y-125933849D01*
X81689609Y-126396910D01*
X82040477Y-126922023D01*
X82565589Y-127272891D01*
X83185000Y-127396100D01*
X83804410Y-127272891D01*
X84329523Y-126922023D01*
X84455000Y-126734233D01*
X84580477Y-126922023D01*
X85105589Y-127272891D01*
X85725000Y-127396100D01*
X86344410Y-127272891D01*
X86740444Y-127008270D01*
X86774173Y-127089699D01*
X86952802Y-127268327D01*
X87186191Y-127365000D01*
X87979250Y-127365000D01*
X88138000Y-127206250D01*
X88138000Y-125857000D01*
X88392000Y-125857000D01*
X88392000Y-127206250D01*
X88550750Y-127365000D01*
X89343809Y-127365000D01*
X89577198Y-127268327D01*
X89755827Y-127089699D01*
X89852500Y-126856310D01*
X89852500Y-126015750D01*
X89693750Y-125857000D01*
X88392000Y-125857000D01*
X88138000Y-125857000D01*
X88118000Y-125857000D01*
X88118000Y-125603000D01*
X88138000Y-125603000D01*
X88138000Y-124253750D01*
X88392000Y-124253750D01*
X88392000Y-125603000D01*
X89693750Y-125603000D01*
X89852500Y-125444250D01*
X89852500Y-124603690D01*
X89755827Y-124370301D01*
X89577198Y-124191673D01*
X89343809Y-124095000D01*
X88550750Y-124095000D01*
X88392000Y-124253750D01*
X88138000Y-124253750D01*
X87979250Y-124095000D01*
X87186191Y-124095000D01*
X86952802Y-124191673D01*
X86774173Y-124370301D01*
X86740444Y-124451729D01*
X86344411Y-124187109D01*
X85725000Y-124063900D01*
X85105590Y-124187109D01*
X84580477Y-124537977D01*
X84455000Y-124725767D01*
X84329523Y-124537977D01*
X83804411Y-124187109D01*
X83185000Y-124063900D01*
X82565590Y-124187109D01*
X82040477Y-124537977D01*
X81689609Y-125063089D01*
X81597500Y-125526150D01*
X75432516Y-125526150D01*
X75554586Y-125444586D01*
X75749127Y-125153436D01*
X75817440Y-124810001D01*
X75817440Y-124109999D01*
X75749127Y-123766564D01*
X75554586Y-123475414D01*
X75263436Y-123280873D01*
X74920001Y-123212560D01*
X73669999Y-123212560D01*
X73326564Y-123280873D01*
X73035414Y-123475414D01*
X72840873Y-123766564D01*
X72772560Y-124109999D01*
X68494282Y-124109999D01*
X68604767Y-107537041D01*
X77856086Y-107537041D01*
X78095611Y-108043134D01*
X78510577Y-108419041D01*
X78898961Y-108579904D01*
X79121000Y-108457915D01*
X79121000Y-107315000D01*
X79375000Y-107315000D01*
X79375000Y-108457915D01*
X79597039Y-108579904D01*
X79985423Y-108419041D01*
X80400389Y-108043134D01*
X80639914Y-107537041D01*
X80518629Y-107315000D01*
X79375000Y-107315000D01*
X79121000Y-107315000D01*
X77977371Y-107315000D01*
X77856086Y-107537041D01*
X68604767Y-107537041D01*
X68611964Y-106457609D01*
X72826538Y-106457609D01*
X72830408Y-106495281D01*
X73056920Y-106923474D01*
X73430053Y-107232390D01*
X73893000Y-107375000D01*
X74168000Y-107375000D01*
X74168000Y-106267000D01*
X74422000Y-106267000D01*
X74422000Y-107375000D01*
X74697000Y-107375000D01*
X75159947Y-107232390D01*
X75533080Y-106923474D01*
X75577788Y-106838959D01*
X77856086Y-106838959D01*
X77977371Y-107061000D01*
X79121000Y-107061000D01*
X79121000Y-105918085D01*
X79375000Y-105918085D01*
X79375000Y-107061000D01*
X80518629Y-107061000D01*
X80639914Y-106838959D01*
X80400389Y-106332866D01*
X79985423Y-105956959D01*
X79597039Y-105796096D01*
X79375000Y-105918085D01*
X79121000Y-105918085D01*
X78898961Y-105796096D01*
X78510577Y-105956959D01*
X78095611Y-106332866D01*
X77856086Y-106838959D01*
X75577788Y-106838959D01*
X75759592Y-106495281D01*
X75763462Y-106457609D01*
X75638731Y-106267000D01*
X74422000Y-106267000D01*
X74168000Y-106267000D01*
X72951269Y-106267000D01*
X72826538Y-106457609D01*
X68611964Y-106457609D01*
X68629749Y-103789999D01*
X72772560Y-103789999D01*
X72772560Y-104490001D01*
X72840873Y-104833436D01*
X73035414Y-105124586D01*
X73202347Y-105236127D01*
X73056920Y-105356526D01*
X72830408Y-105784719D01*
X72826538Y-105822391D01*
X72951269Y-106013000D01*
X74168000Y-106013000D01*
X74168000Y-105993000D01*
X74422000Y-105993000D01*
X74422000Y-106013000D01*
X75638731Y-106013000D01*
X75763462Y-105822391D01*
X75759592Y-105784719D01*
X75533080Y-105356526D01*
X75387653Y-105236127D01*
X75554586Y-105124586D01*
X75749127Y-104833436D01*
X75817440Y-104490001D01*
X75817440Y-104231290D01*
X83849660Y-104231290D01*
X84946068Y-105327699D01*
X84925000Y-105378561D01*
X84925000Y-105949439D01*
X85143466Y-106476862D01*
X85547138Y-106880534D01*
X86074561Y-107099000D01*
X86645439Y-107099000D01*
X87172862Y-106880534D01*
X87576534Y-106476862D01*
X87795000Y-105949439D01*
X87795000Y-105378561D01*
X87576534Y-104851138D01*
X87172862Y-104447466D01*
X86645439Y-104229000D01*
X86074561Y-104229000D01*
X86023699Y-104250068D01*
X85496911Y-103723280D01*
X89437650Y-103723280D01*
X90548843Y-104834474D01*
X90484887Y-105156000D01*
X90596260Y-105715909D01*
X90913423Y-106190577D01*
X91388091Y-106507740D01*
X91806667Y-106591000D01*
X92089333Y-106591000D01*
X92507909Y-106507740D01*
X92982577Y-106190577D01*
X93299740Y-105715909D01*
X93411113Y-105156000D01*
X93299740Y-104596091D01*
X93181496Y-104419127D01*
X96547369Y-107785000D01*
X96378667Y-107785000D01*
X95960091Y-107868260D01*
X95485423Y-108185423D01*
X95168260Y-108660091D01*
X95056887Y-109220000D01*
X95168260Y-109779909D01*
X95485423Y-110254577D01*
X95960091Y-110571740D01*
X96378667Y-110655000D01*
X96661333Y-110655000D01*
X97079909Y-110571740D01*
X97554577Y-110254577D01*
X97790000Y-109902242D01*
X98025423Y-110254577D01*
X98500091Y-110571740D01*
X98918667Y-110655000D01*
X99201333Y-110655000D01*
X99619909Y-110571740D01*
X100094577Y-110254577D01*
X100330000Y-109902242D01*
X100565423Y-110254577D01*
X101040091Y-110571740D01*
X101458667Y-110655000D01*
X101741333Y-110655000D01*
X101921527Y-110619157D01*
X103040127Y-111737758D01*
X103082639Y-111801381D01*
X103334693Y-111969798D01*
X103556962Y-112014010D01*
X103556966Y-112014010D01*
X103632009Y-112028937D01*
X103707052Y-112014010D01*
X108396380Y-112014010D01*
X118828994Y-122446625D01*
X118761000Y-122610778D01*
X118761000Y-123261222D01*
X119009914Y-123862153D01*
X119469847Y-124322086D01*
X119827868Y-124470383D01*
X119584252Y-124714000D01*
X115751630Y-124714000D01*
X114463005Y-123425375D01*
X114531000Y-123261222D01*
X114531000Y-122610778D01*
X114282086Y-122009847D01*
X113822153Y-121549914D01*
X113221222Y-121301000D01*
X112570778Y-121301000D01*
X111969847Y-121549914D01*
X111509914Y-122009847D01*
X111441920Y-122174000D01*
X106487631Y-122174000D01*
X103720999Y-119407369D01*
X103720999Y-118202927D01*
X103790961Y-118231904D01*
X104013000Y-118109915D01*
X104013000Y-116967000D01*
X104267000Y-116967000D01*
X104267000Y-118109915D01*
X104489039Y-118231904D01*
X104877423Y-118071041D01*
X104964089Y-117992532D01*
X109263073Y-117992532D01*
X109361736Y-118259387D01*
X109971461Y-118485908D01*
X110621460Y-118461856D01*
X111110264Y-118259387D01*
X111208927Y-117992532D01*
X110236000Y-117019605D01*
X109263073Y-117992532D01*
X104964089Y-117992532D01*
X105292389Y-117695134D01*
X105531914Y-117189041D01*
X105410629Y-116967000D01*
X104267000Y-116967000D01*
X104013000Y-116967000D01*
X103993000Y-116967000D01*
X103993000Y-116713000D01*
X104013000Y-116713000D01*
X104013000Y-115570085D01*
X104267000Y-115570085D01*
X104267000Y-116713000D01*
X105410629Y-116713000D01*
X105485756Y-116575461D01*
X108590092Y-116575461D01*
X108614144Y-117225460D01*
X108816613Y-117714264D01*
X109083468Y-117812927D01*
X110056395Y-116840000D01*
X110415605Y-116840000D01*
X111388532Y-117812927D01*
X111655387Y-117714264D01*
X111881908Y-117104539D01*
X111857856Y-116454540D01*
X111655387Y-115965736D01*
X111388532Y-115867073D01*
X110415605Y-116840000D01*
X110056395Y-116840000D01*
X109083468Y-115867073D01*
X108816613Y-115965736D01*
X108590092Y-116575461D01*
X105485756Y-116575461D01*
X105531914Y-116490959D01*
X105292389Y-115984866D01*
X104964090Y-115687468D01*
X109263073Y-115687468D01*
X110236000Y-116660395D01*
X111208927Y-115687468D01*
X111110264Y-115420613D01*
X110500539Y-115194092D01*
X109850540Y-115218144D01*
X109361736Y-115420613D01*
X109263073Y-115687468D01*
X104964090Y-115687468D01*
X104877423Y-115608959D01*
X104489039Y-115448096D01*
X104267000Y-115570085D01*
X104013000Y-115570085D01*
X103790961Y-115448096D01*
X103402577Y-115608959D01*
X103293385Y-115707873D01*
X102758764Y-115173252D01*
X102716252Y-115109628D01*
X102464198Y-114941211D01*
X102241929Y-114896999D01*
X102241924Y-114896999D01*
X102166881Y-114882072D01*
X102091838Y-114896999D01*
X100316048Y-114896999D01*
X100241001Y-114882071D01*
X100165954Y-114896999D01*
X100165953Y-114896999D01*
X99943684Y-114941211D01*
X99691630Y-115109628D01*
X99649119Y-115173250D01*
X99381527Y-115440843D01*
X99201333Y-115405000D01*
X98918667Y-115405000D01*
X98500091Y-115488260D01*
X98025423Y-115805423D01*
X97944785Y-115926106D01*
X97918157Y-115792235D01*
X97777809Y-115582191D01*
X97567765Y-115441843D01*
X97320000Y-115392560D01*
X95720000Y-115392560D01*
X95472235Y-115441843D01*
X95262191Y-115582191D01*
X95121843Y-115792235D01*
X95072560Y-116040000D01*
X95072560Y-117640000D01*
X95121843Y-117887765D01*
X95126008Y-117893999D01*
X93383000Y-117893999D01*
X93383000Y-117570561D01*
X93164534Y-117043138D01*
X92760862Y-116639466D01*
X92233439Y-116421000D01*
X91662561Y-116421000D01*
X91135138Y-116639466D01*
X90731466Y-117043138D01*
X90513000Y-117570561D01*
X90513000Y-118141439D01*
X90731466Y-118668862D01*
X91135138Y-119072534D01*
X91264216Y-119126000D01*
X88199631Y-119126000D01*
X87759157Y-118685527D01*
X87823113Y-118364000D01*
X87711740Y-117804091D01*
X87394577Y-117329423D01*
X86919909Y-117012260D01*
X86501333Y-116929000D01*
X86218667Y-116929000D01*
X85800091Y-117012260D01*
X85325423Y-117329423D01*
X85008260Y-117804091D01*
X84896887Y-118364000D01*
X84960843Y-118685527D01*
X84520370Y-119126000D01*
X80485602Y-119126000D01*
X80464534Y-119075138D01*
X80060862Y-118671466D01*
X79533439Y-118453000D01*
X78962561Y-118453000D01*
X78435138Y-118671466D01*
X78031466Y-119075138D01*
X77813000Y-119602561D01*
X77813000Y-120173439D01*
X78031466Y-120700862D01*
X78435138Y-121104534D01*
X78962561Y-121323000D01*
X79533439Y-121323000D01*
X80060862Y-121104534D01*
X80464534Y-120700862D01*
X80485602Y-120650000D01*
X84760957Y-120650000D01*
X84836000Y-120664927D01*
X84911043Y-120650000D01*
X84911048Y-120650000D01*
X85133317Y-120605788D01*
X85385371Y-120437371D01*
X85427884Y-120373746D01*
X86038473Y-119763157D01*
X86218667Y-119799000D01*
X86501333Y-119799000D01*
X86681527Y-119763157D01*
X87292118Y-120373749D01*
X87334629Y-120437371D01*
X87586683Y-120605788D01*
X87808952Y-120650000D01*
X87808956Y-120650000D01*
X87883999Y-120664927D01*
X87959042Y-120650000D01*
X98476957Y-120650000D01*
X98552000Y-120664927D01*
X98627043Y-120650000D01*
X98627048Y-120650000D01*
X98849317Y-120605788D01*
X99101371Y-120437371D01*
X99143883Y-120373747D01*
X101278473Y-118239157D01*
X101458667Y-118275000D01*
X101741333Y-118275000D01*
X102159909Y-118191740D01*
X102197000Y-118166957D01*
X102197000Y-119647951D01*
X102182072Y-119722999D01*
X102197000Y-119798047D01*
X102241212Y-120020316D01*
X102409629Y-120272370D01*
X102473250Y-120314880D01*
X105580117Y-123421748D01*
X105622629Y-123485371D01*
X105874683Y-123653788D01*
X106096952Y-123698000D01*
X106096953Y-123698000D01*
X106172000Y-123712928D01*
X106247047Y-123698000D01*
X111441920Y-123698000D01*
X111509914Y-123862153D01*
X111969847Y-124322086D01*
X112570778Y-124571000D01*
X113221222Y-124571000D01*
X113385375Y-124503005D01*
X114844116Y-125961746D01*
X114886629Y-126025371D01*
X115061175Y-126141999D01*
X115138681Y-126193787D01*
X115138682Y-126193787D01*
X115138683Y-126193788D01*
X115360952Y-126238000D01*
X115360956Y-126238000D01*
X115435999Y-126252927D01*
X115511042Y-126238000D01*
X119824839Y-126238000D01*
X119899882Y-126252927D01*
X119974925Y-126238000D01*
X119974930Y-126238000D01*
X120197199Y-126193788D01*
X120449253Y-126025371D01*
X120491765Y-125961747D01*
X122262751Y-124190762D01*
X122326372Y-124148252D01*
X122494789Y-123896198D01*
X122539001Y-123673929D01*
X122539001Y-123673925D01*
X122553928Y-123598882D01*
X122539001Y-123523839D01*
X122539001Y-122348161D01*
X122553928Y-122273118D01*
X122539001Y-122198075D01*
X122539001Y-122198071D01*
X122494789Y-121975802D01*
X122427579Y-121875214D01*
X122368883Y-121787370D01*
X122326372Y-121723748D01*
X122262750Y-121681237D01*
X118760127Y-118178615D01*
X118828927Y-117992532D01*
X117856000Y-117019605D01*
X117841858Y-117033748D01*
X117662253Y-116854143D01*
X117676395Y-116840000D01*
X118035605Y-116840000D01*
X119008532Y-117812927D01*
X119275387Y-117714264D01*
X119501908Y-117104539D01*
X119477856Y-116454540D01*
X119275387Y-115965736D01*
X119008532Y-115867073D01*
X118035605Y-116840000D01*
X117676395Y-116840000D01*
X117662253Y-116825858D01*
X117841858Y-116646253D01*
X117856000Y-116660395D01*
X118828927Y-115687468D01*
X118771447Y-115532000D01*
X123012560Y-115532000D01*
X123012560Y-117132000D01*
X123061843Y-117379765D01*
X123202191Y-117589809D01*
X123412235Y-117730157D01*
X123660000Y-117779440D01*
X125260000Y-117779440D01*
X125507765Y-117730157D01*
X125717809Y-117589809D01*
X125858157Y-117379765D01*
X125884785Y-117245894D01*
X125965423Y-117366577D01*
X126440091Y-117683740D01*
X126858667Y-117767000D01*
X127141333Y-117767000D01*
X127559909Y-117683740D01*
X128034577Y-117366577D01*
X128270000Y-117014242D01*
X128505423Y-117366577D01*
X128980091Y-117683740D01*
X129398667Y-117767000D01*
X129681333Y-117767000D01*
X129959001Y-117711768D01*
X129959002Y-122517953D01*
X129944074Y-122593001D01*
X130003214Y-122890318D01*
X130109941Y-123050046D01*
X130171631Y-123142372D01*
X130235252Y-123184882D01*
X133075739Y-126025370D01*
X133113290Y-126062920D01*
X133097560Y-126141999D01*
X133097560Y-126842001D01*
X133165873Y-127185436D01*
X133360414Y-127476586D01*
X133651564Y-127671127D01*
X133994999Y-127739440D01*
X135245001Y-127739440D01*
X135588436Y-127671127D01*
X135879586Y-127476586D01*
X136074127Y-127185436D01*
X136142440Y-126842001D01*
X136142440Y-126141999D01*
X136074127Y-125798564D01*
X135879586Y-125507414D01*
X135712653Y-125395873D01*
X135858080Y-125275474D01*
X136084592Y-124847281D01*
X136088462Y-124809609D01*
X135963731Y-124619000D01*
X134747000Y-124619000D01*
X134747000Y-124639000D01*
X134493000Y-124639000D01*
X134493000Y-124619000D01*
X134473000Y-124619000D01*
X134473000Y-124365000D01*
X134493000Y-124365000D01*
X134493000Y-123257000D01*
X134747000Y-123257000D01*
X134747000Y-124365000D01*
X135963731Y-124365000D01*
X136088462Y-124174391D01*
X136084592Y-124136719D01*
X135858080Y-123708526D01*
X135484947Y-123399610D01*
X135022000Y-123257000D01*
X134747000Y-123257000D01*
X134493000Y-123257000D01*
X134218000Y-123257000D01*
X133755053Y-123399610D01*
X133381920Y-123708526D01*
X133220085Y-124014455D01*
X131483001Y-122277371D01*
X131483001Y-117621203D01*
X131730961Y-117723904D01*
X131953000Y-117601915D01*
X131953000Y-116459000D01*
X132207000Y-116459000D01*
X132207000Y-117601915D01*
X132429039Y-117723904D01*
X132817423Y-117563041D01*
X133232389Y-117187134D01*
X133471914Y-116681041D01*
X133350629Y-116459000D01*
X132207000Y-116459000D01*
X131953000Y-116459000D01*
X131933000Y-116459000D01*
X131933000Y-116205000D01*
X131953000Y-116205000D01*
X131953000Y-115062085D01*
X132207000Y-115062085D01*
X132207000Y-116205000D01*
X133350629Y-116205000D01*
X133471914Y-115982959D01*
X133232389Y-115476866D01*
X132817423Y-115100959D01*
X132429039Y-114940096D01*
X132207000Y-115062085D01*
X131953000Y-115062085D01*
X131730961Y-114940096D01*
X131342577Y-115100959D01*
X131239000Y-115194786D01*
X131206751Y-115173238D01*
X130698764Y-114665252D01*
X130656252Y-114601628D01*
X130404198Y-114433211D01*
X130181929Y-114388999D01*
X130181924Y-114388999D01*
X130106881Y-114374072D01*
X130031838Y-114388999D01*
X128256048Y-114388999D01*
X128181001Y-114374071D01*
X128105954Y-114388999D01*
X128105953Y-114388999D01*
X127883684Y-114433211D01*
X127631630Y-114601628D01*
X127589119Y-114665250D01*
X127321527Y-114932843D01*
X127141333Y-114897000D01*
X126858667Y-114897000D01*
X126440091Y-114980260D01*
X125965423Y-115297423D01*
X125884785Y-115418106D01*
X125858157Y-115284235D01*
X125717809Y-115074191D01*
X125507765Y-114933843D01*
X125260000Y-114884560D01*
X123660000Y-114884560D01*
X123412235Y-114933843D01*
X123202191Y-115074191D01*
X123061843Y-115284235D01*
X123012560Y-115532000D01*
X118771447Y-115532000D01*
X118730264Y-115420613D01*
X118120539Y-115194092D01*
X117470540Y-115218144D01*
X117236999Y-115314880D01*
X117236999Y-113080513D01*
X129451001Y-100866512D01*
X129451002Y-105529117D01*
X127748044Y-105529117D01*
X127673001Y-105514190D01*
X127597958Y-105529117D01*
X127597953Y-105529117D01*
X127375684Y-105573329D01*
X127123630Y-105741746D01*
X127081119Y-105805368D01*
X125323425Y-107563063D01*
X125019909Y-107360260D01*
X124601333Y-107277000D01*
X124318667Y-107277000D01*
X123900091Y-107360260D01*
X123425423Y-107677423D01*
X123108260Y-108152091D01*
X122996887Y-108712000D01*
X123108260Y-109271909D01*
X123425423Y-109746577D01*
X123900091Y-110063740D01*
X124318667Y-110147000D01*
X124601333Y-110147000D01*
X125019909Y-110063740D01*
X125323425Y-109860937D01*
X125841237Y-110378750D01*
X125883748Y-110442372D01*
X126135802Y-110610789D01*
X126358071Y-110655001D01*
X126358075Y-110655001D01*
X126433118Y-110669928D01*
X126508161Y-110655001D01*
X130823956Y-110655001D01*
X130898999Y-110669928D01*
X130974042Y-110655001D01*
X130974047Y-110655001D01*
X131196316Y-110610789D01*
X131448370Y-110442372D01*
X131490882Y-110378748D01*
X131758473Y-110111157D01*
X131938667Y-110147000D01*
X132221333Y-110147000D01*
X132639909Y-110063740D01*
X133114577Y-109746577D01*
X133431740Y-109271909D01*
X133543113Y-108712000D01*
X133431740Y-108152091D01*
X133114577Y-107677423D01*
X132639909Y-107360260D01*
X132221333Y-107277000D01*
X132052630Y-107277000D01*
X135105750Y-104223881D01*
X135169371Y-104181371D01*
X135337788Y-103929317D01*
X135382000Y-103707048D01*
X135382000Y-103707043D01*
X135396927Y-103632000D01*
X135382000Y-103556957D01*
X135382000Y-94184189D01*
X135588436Y-94143127D01*
X135879586Y-93948586D01*
X136074127Y-93657436D01*
X136142440Y-93314001D01*
X136142440Y-92613999D01*
X136074127Y-92270564D01*
X135879586Y-91979414D01*
X135712653Y-91867873D01*
X135858080Y-91747474D01*
X136084592Y-91319281D01*
X136088462Y-91281609D01*
X135963731Y-91091000D01*
X134747000Y-91091000D01*
X134747000Y-91111000D01*
X134493000Y-91111000D01*
X134493000Y-91091000D01*
X133276269Y-91091000D01*
X133151538Y-91281609D01*
X133155408Y-91319281D01*
X133381920Y-91747474D01*
X133527347Y-91867873D01*
X133360414Y-91979414D01*
X133165873Y-92270564D01*
X133097560Y-92613999D01*
X133097560Y-93314001D01*
X133165873Y-93657436D01*
X133360414Y-93948586D01*
X133651564Y-94143127D01*
X133858001Y-94184190D01*
X133858000Y-103048952D01*
X133858000Y-103316369D01*
X130975001Y-106199369D01*
X130975001Y-98568166D01*
X130989929Y-98493119D01*
X130961234Y-98348862D01*
X130930789Y-98195802D01*
X130834874Y-98052255D01*
X130804883Y-98007370D01*
X130762372Y-97943748D01*
X130698751Y-97901238D01*
X130190764Y-97393252D01*
X130148252Y-97329628D01*
X129896198Y-97161211D01*
X129673929Y-97116999D01*
X129673924Y-97116999D01*
X129598881Y-97102072D01*
X129523838Y-97116999D01*
X115840161Y-97116999D01*
X115765118Y-97102072D01*
X115690075Y-97116999D01*
X115690071Y-97116999D01*
X115467802Y-97161211D01*
X115467801Y-97161212D01*
X115467800Y-97161212D01*
X115353196Y-97237788D01*
X115215748Y-97329628D01*
X115173237Y-97393250D01*
X106702241Y-105864247D01*
X106638620Y-105906757D01*
X106596109Y-105970379D01*
X106596108Y-105970380D01*
X106470203Y-106158811D01*
X106411063Y-106456128D01*
X106425991Y-106531176D01*
X106425990Y-108904380D01*
X105691369Y-109639001D01*
X105519768Y-109639001D01*
X105603113Y-109220000D01*
X105491740Y-108660091D01*
X105174577Y-108185423D01*
X104699909Y-107868260D01*
X104281333Y-107785000D01*
X103998667Y-107785000D01*
X103818474Y-107820843D01*
X96065376Y-100067745D01*
X97215861Y-100067745D01*
X97289995Y-100313864D01*
X97827223Y-100506965D01*
X98397454Y-100479778D01*
X98798005Y-100313864D01*
X98872139Y-100067745D01*
X98044000Y-99239605D01*
X97215861Y-100067745D01*
X96065376Y-100067745D01*
X94840854Y-98843223D01*
X96597035Y-98843223D01*
X96624222Y-99413454D01*
X96790136Y-99814005D01*
X97036255Y-99888139D01*
X97864395Y-99060000D01*
X98223605Y-99060000D01*
X99051745Y-99888139D01*
X99297864Y-99814005D01*
X99490965Y-99276777D01*
X99463778Y-98706546D01*
X99297864Y-98305995D01*
X99051745Y-98231861D01*
X98223605Y-99060000D01*
X97864395Y-99060000D01*
X97036255Y-98231861D01*
X96790136Y-98305995D01*
X96597035Y-98843223D01*
X94840854Y-98843223D01*
X94049886Y-98052255D01*
X97215861Y-98052255D01*
X98044000Y-98880395D01*
X98872139Y-98052255D01*
X98798005Y-97806136D01*
X98260777Y-97613035D01*
X97690546Y-97640222D01*
X97289995Y-97806136D01*
X97215861Y-98052255D01*
X94049886Y-98052255D01*
X93855157Y-97857527D01*
X93919113Y-97536000D01*
X93807740Y-96976091D01*
X93490577Y-96501423D01*
X93222998Y-96322632D01*
X97707699Y-91837932D01*
X97758561Y-91859000D01*
X98329439Y-91859000D01*
X98856862Y-91640534D01*
X99260534Y-91236862D01*
X99479000Y-90709439D01*
X99479000Y-90424000D01*
X109280887Y-90424000D01*
X109392260Y-90983909D01*
X109709423Y-91458577D01*
X109982000Y-91640707D01*
X109982001Y-97843292D01*
X109709423Y-98025423D01*
X109392260Y-98500091D01*
X109280887Y-99060000D01*
X109392260Y-99619909D01*
X109709423Y-100094577D01*
X110184091Y-100411740D01*
X110602667Y-100495000D01*
X110885333Y-100495000D01*
X111303909Y-100411740D01*
X111778577Y-100094577D01*
X112095740Y-99619909D01*
X112207113Y-99060000D01*
X112095740Y-98500091D01*
X111778577Y-98025423D01*
X111506000Y-97843293D01*
X111506000Y-91640707D01*
X111778577Y-91458577D01*
X111960707Y-91186000D01*
X115094398Y-91186000D01*
X115115466Y-91236862D01*
X115519138Y-91640534D01*
X116046561Y-91859000D01*
X116617439Y-91859000D01*
X117144862Y-91640534D01*
X117548534Y-91236862D01*
X117767000Y-90709439D01*
X117767000Y-90424000D01*
X127568887Y-90424000D01*
X127680260Y-90983909D01*
X127997423Y-91458577D01*
X128472091Y-91775740D01*
X128890667Y-91859000D01*
X129173333Y-91859000D01*
X129591909Y-91775740D01*
X130066577Y-91458577D01*
X130383740Y-90983909D01*
X130450876Y-90646391D01*
X133151538Y-90646391D01*
X133276269Y-90837000D01*
X134493000Y-90837000D01*
X134493000Y-89729000D01*
X134747000Y-89729000D01*
X134747000Y-90837000D01*
X135963731Y-90837000D01*
X136088462Y-90646391D01*
X136084592Y-90608719D01*
X135858080Y-90180526D01*
X135484947Y-89871610D01*
X135022000Y-89729000D01*
X134747000Y-89729000D01*
X134493000Y-89729000D01*
X134218000Y-89729000D01*
X133755053Y-89871610D01*
X133381920Y-90180526D01*
X133155408Y-90608719D01*
X133151538Y-90646391D01*
X130450876Y-90646391D01*
X130495113Y-90424000D01*
X130383740Y-89864091D01*
X130066577Y-89389423D01*
X129591909Y-89072260D01*
X129173333Y-88989000D01*
X128890667Y-88989000D01*
X128472091Y-89072260D01*
X127997423Y-89389423D01*
X127680260Y-89864091D01*
X127568887Y-90424000D01*
X117767000Y-90424000D01*
X117767000Y-90138561D01*
X117548534Y-89611138D01*
X117144862Y-89207466D01*
X116617439Y-88989000D01*
X116046561Y-88989000D01*
X115519138Y-89207466D01*
X115115466Y-89611138D01*
X115094398Y-89662000D01*
X111960707Y-89662000D01*
X111778577Y-89389423D01*
X111303909Y-89072260D01*
X110885333Y-88989000D01*
X110602667Y-88989000D01*
X110184091Y-89072260D01*
X109709423Y-89389423D01*
X109392260Y-89864091D01*
X109280887Y-90424000D01*
X99479000Y-90424000D01*
X99479000Y-90138561D01*
X99260534Y-89611138D01*
X98856862Y-89207466D01*
X98329439Y-88989000D01*
X97758561Y-88989000D01*
X97231138Y-89207466D01*
X96827466Y-89611138D01*
X96609000Y-90138561D01*
X96609000Y-90709439D01*
X96630068Y-90760301D01*
X91970251Y-95420119D01*
X91906630Y-95462629D01*
X91864119Y-95526251D01*
X91864118Y-95526252D01*
X91738213Y-95714683D01*
X91679073Y-96012000D01*
X91694001Y-96087048D01*
X91694001Y-96319292D01*
X91421423Y-96501423D01*
X91104260Y-96976091D01*
X90992887Y-97536000D01*
X91104260Y-98095909D01*
X91421423Y-98570577D01*
X91896091Y-98887740D01*
X92314667Y-98971000D01*
X92597333Y-98971000D01*
X92777527Y-98935157D01*
X101119368Y-107276999D01*
X100316048Y-107276999D01*
X100241001Y-107262071D01*
X100165954Y-107276999D01*
X100165953Y-107276999D01*
X99943684Y-107321211D01*
X99691630Y-107489628D01*
X99649119Y-107553250D01*
X99381527Y-107820843D01*
X99201333Y-107785000D01*
X98918667Y-107785000D01*
X98738474Y-107820843D01*
X89148884Y-98231254D01*
X89106372Y-98167630D01*
X88854318Y-97999213D01*
X88632049Y-97955001D01*
X88632044Y-97955001D01*
X88557001Y-97940074D01*
X88481958Y-97955001D01*
X81252632Y-97955001D01*
X81169932Y-97872301D01*
X81191000Y-97821439D01*
X81191000Y-97250561D01*
X80972534Y-96723138D01*
X80568862Y-96319466D01*
X80518000Y-96298398D01*
X80518000Y-91661602D01*
X80568862Y-91640534D01*
X80972534Y-91236862D01*
X81191000Y-90709439D01*
X81191000Y-90138561D01*
X80993602Y-89662000D01*
X90616370Y-89662000D01*
X91056843Y-90102473D01*
X90992887Y-90424000D01*
X91104260Y-90983909D01*
X91421423Y-91458577D01*
X91896091Y-91775740D01*
X92314667Y-91859000D01*
X92597333Y-91859000D01*
X93015909Y-91775740D01*
X93490577Y-91458577D01*
X93807740Y-90983909D01*
X93919113Y-90424000D01*
X93807740Y-89864091D01*
X93490577Y-89389423D01*
X93015909Y-89072260D01*
X92597333Y-88989000D01*
X92314667Y-88989000D01*
X92134473Y-89024843D01*
X91523884Y-88414254D01*
X91481371Y-88350629D01*
X91229317Y-88182212D01*
X91007048Y-88138000D01*
X91007043Y-88138000D01*
X90932000Y-88123073D01*
X90856957Y-88138000D01*
X79607161Y-88138000D01*
X79532118Y-88123073D01*
X79457075Y-88138000D01*
X79457070Y-88138000D01*
X79234801Y-88182212D01*
X78982747Y-88350629D01*
X78940236Y-88414251D01*
X77238253Y-90116235D01*
X77174629Y-90158747D01*
X77006212Y-90410802D01*
X76962000Y-90633071D01*
X76962000Y-90633075D01*
X76947073Y-90708118D01*
X76962000Y-90783161D01*
X76962001Y-92890368D01*
X75999372Y-93852998D01*
X75894164Y-93852998D01*
X76019964Y-93674190D01*
X76011266Y-93612664D01*
X75786179Y-93215745D01*
X75426331Y-92935177D01*
X74986506Y-92813674D01*
X74803000Y-92973407D01*
X74803000Y-93853000D01*
X74823000Y-93853000D01*
X74823000Y-94090000D01*
X74336754Y-94090000D01*
X74251290Y-94107000D01*
X73457837Y-94107000D01*
X73332036Y-94285810D01*
X73340734Y-94347336D01*
X73486854Y-94605004D01*
X73358305Y-94797391D01*
X73268275Y-95250000D01*
X73358157Y-95701867D01*
X73327843Y-95747235D01*
X73278560Y-95995000D01*
X73278560Y-97045000D01*
X73327843Y-97292765D01*
X73468191Y-97502809D01*
X73678235Y-97643157D01*
X73926000Y-97692440D01*
X74995810Y-97692440D01*
X80010659Y-102707290D01*
X75040752Y-102707290D01*
X74965709Y-102692363D01*
X74890666Y-102707290D01*
X74890662Y-102707290D01*
X74668393Y-102751502D01*
X74668392Y-102751503D01*
X74668391Y-102751503D01*
X74513388Y-102855073D01*
X74457285Y-102892560D01*
X73669999Y-102892560D01*
X73326564Y-102960873D01*
X73035414Y-103155414D01*
X72840873Y-103446564D01*
X72772560Y-103789999D01*
X68629749Y-103789999D01*
X68697188Y-93674190D01*
X73332036Y-93674190D01*
X73457837Y-93853000D01*
X74549000Y-93853000D01*
X74549000Y-92973407D01*
X74365494Y-92813674D01*
X73925669Y-92935177D01*
X73565821Y-93215745D01*
X73340734Y-93612664D01*
X73332036Y-93674190D01*
X68697188Y-93674190D01*
X68706849Y-92225062D01*
X70446556Y-87503000D01*
X136781971Y-87503000D01*
X137791959Y-130175000D01*
G04 #@! TD*
M02*
