G04 #@! TF.GenerationSoftware,KiCad,Pcbnew,(5.1.0)-1*
G04 #@! TF.CreationDate,2019-04-12T00:03:03-04:00*
G04 #@! TF.ProjectId,passive_mults,70617373-6976-4655-9f6d-756c74732e6b,rev?*
G04 #@! TF.SameCoordinates,Original*
G04 #@! TF.FileFunction,Copper,L2,Bot*
G04 #@! TF.FilePolarity,Positive*
%FSLAX46Y46*%
G04 Gerber Fmt 4.6, Leading zero omitted, Abs format (unit mm)*
G04 Created by KiCad (PCBNEW (5.1.0)-1) date 2019-04-12 00:03:03*
%MOMM*%
%LPD*%
G04 APERTURE LIST*
%ADD10C,2.130000*%
%ADD11R,1.930000X1.830000*%
%ADD12C,0.254000*%
G04 APERTURE END LIST*
D10*
X194437000Y-118993800D03*
D11*
X194437000Y-107593800D03*
D10*
X194437000Y-110693800D03*
X194437000Y-135987000D03*
D11*
X194437000Y-124587000D03*
D10*
X194437000Y-127687000D03*
X194437000Y-39781000D03*
D11*
X194437000Y-51181000D03*
D10*
X194437000Y-48081000D03*
X194437000Y-90760600D03*
D11*
X194437000Y-102160600D03*
D10*
X194437000Y-99060600D03*
X194437000Y-73767400D03*
D11*
X194437000Y-85167400D03*
D10*
X194437000Y-82067400D03*
X194437000Y-56774200D03*
D11*
X194437000Y-68174200D03*
D10*
X194437000Y-65074200D03*
D12*
G36*
X198730001Y-137049577D02*
G01*
X195652097Y-137176067D01*
X195757477Y-137070687D01*
X195943521Y-136792252D01*
X196071670Y-136482872D01*
X196137000Y-136154435D01*
X196137000Y-135819565D01*
X196071670Y-135491128D01*
X195943521Y-135181748D01*
X195757477Y-134903313D01*
X195520687Y-134666523D01*
X195242252Y-134480479D01*
X194932872Y-134352330D01*
X194604435Y-134287000D01*
X194269565Y-134287000D01*
X193941128Y-134352330D01*
X193631748Y-134480479D01*
X193353313Y-134666523D01*
X193116523Y-134903313D01*
X192930479Y-135181748D01*
X192802330Y-135491128D01*
X192737000Y-135819565D01*
X192737000Y-136154435D01*
X192802330Y-136482872D01*
X192930479Y-136792252D01*
X193116523Y-137070687D01*
X193317832Y-137271996D01*
X190470733Y-137389000D01*
X190144000Y-137389000D01*
X190144000Y-127519565D01*
X192737000Y-127519565D01*
X192737000Y-127854435D01*
X192802330Y-128182872D01*
X192930479Y-128492252D01*
X193116523Y-128770687D01*
X193353313Y-129007477D01*
X193631748Y-129193521D01*
X193941128Y-129321670D01*
X194269565Y-129387000D01*
X194604435Y-129387000D01*
X194932872Y-129321670D01*
X195242252Y-129193521D01*
X195520687Y-129007477D01*
X195757477Y-128770687D01*
X195943521Y-128492252D01*
X196071670Y-128182872D01*
X196137000Y-127854435D01*
X196137000Y-127519565D01*
X196071670Y-127191128D01*
X195943521Y-126881748D01*
X195757477Y-126603313D01*
X195520687Y-126366523D01*
X195242252Y-126180479D01*
X195141860Y-126138895D01*
X195402000Y-126140072D01*
X195526482Y-126127812D01*
X195646180Y-126091502D01*
X195756494Y-126032537D01*
X195853185Y-125953185D01*
X195932537Y-125856494D01*
X195991502Y-125746180D01*
X196027812Y-125626482D01*
X196040072Y-125502000D01*
X196037000Y-124872750D01*
X195878250Y-124714000D01*
X194564000Y-124714000D01*
X194564000Y-124734000D01*
X194310000Y-124734000D01*
X194310000Y-124714000D01*
X192995750Y-124714000D01*
X192837000Y-124872750D01*
X192833928Y-125502000D01*
X192846188Y-125626482D01*
X192882498Y-125746180D01*
X192941463Y-125856494D01*
X193020815Y-125953185D01*
X193117506Y-126032537D01*
X193227820Y-126091502D01*
X193347518Y-126127812D01*
X193472000Y-126140072D01*
X193732140Y-126138895D01*
X193631748Y-126180479D01*
X193353313Y-126366523D01*
X193116523Y-126603313D01*
X192930479Y-126881748D01*
X192802330Y-127191128D01*
X192737000Y-127519565D01*
X190144000Y-127519565D01*
X190144000Y-123672000D01*
X192833928Y-123672000D01*
X192837000Y-124301250D01*
X192995750Y-124460000D01*
X194310000Y-124460000D01*
X194310000Y-123195750D01*
X194564000Y-123195750D01*
X194564000Y-124460000D01*
X195878250Y-124460000D01*
X196037000Y-124301250D01*
X196040072Y-123672000D01*
X196027812Y-123547518D01*
X195991502Y-123427820D01*
X195932537Y-123317506D01*
X195853185Y-123220815D01*
X195756494Y-123141463D01*
X195646180Y-123082498D01*
X195526482Y-123046188D01*
X195402000Y-123033928D01*
X194722750Y-123037000D01*
X194564000Y-123195750D01*
X194310000Y-123195750D01*
X194151250Y-123037000D01*
X193472000Y-123033928D01*
X193347518Y-123046188D01*
X193227820Y-123082498D01*
X193117506Y-123141463D01*
X193020815Y-123220815D01*
X192941463Y-123317506D01*
X192882498Y-123427820D01*
X192846188Y-123547518D01*
X192833928Y-123672000D01*
X190144000Y-123672000D01*
X190144000Y-118826365D01*
X192737000Y-118826365D01*
X192737000Y-119161235D01*
X192802330Y-119489672D01*
X192930479Y-119799052D01*
X193116523Y-120077487D01*
X193353313Y-120314277D01*
X193631748Y-120500321D01*
X193941128Y-120628470D01*
X194269565Y-120693800D01*
X194604435Y-120693800D01*
X194932872Y-120628470D01*
X195242252Y-120500321D01*
X195520687Y-120314277D01*
X195757477Y-120077487D01*
X195943521Y-119799052D01*
X196071670Y-119489672D01*
X196137000Y-119161235D01*
X196137000Y-118826365D01*
X196071670Y-118497928D01*
X195943521Y-118188548D01*
X195757477Y-117910113D01*
X195520687Y-117673323D01*
X195242252Y-117487279D01*
X194932872Y-117359130D01*
X194604435Y-117293800D01*
X194269565Y-117293800D01*
X193941128Y-117359130D01*
X193631748Y-117487279D01*
X193353313Y-117673323D01*
X193116523Y-117910113D01*
X192930479Y-118188548D01*
X192802330Y-118497928D01*
X192737000Y-118826365D01*
X190144000Y-118826365D01*
X190144000Y-110526365D01*
X192737000Y-110526365D01*
X192737000Y-110861235D01*
X192802330Y-111189672D01*
X192930479Y-111499052D01*
X193116523Y-111777487D01*
X193353313Y-112014277D01*
X193631748Y-112200321D01*
X193941128Y-112328470D01*
X194269565Y-112393800D01*
X194604435Y-112393800D01*
X194932872Y-112328470D01*
X195242252Y-112200321D01*
X195520687Y-112014277D01*
X195757477Y-111777487D01*
X195943521Y-111499052D01*
X196071670Y-111189672D01*
X196137000Y-110861235D01*
X196137000Y-110526365D01*
X196071670Y-110197928D01*
X195943521Y-109888548D01*
X195757477Y-109610113D01*
X195520687Y-109373323D01*
X195242252Y-109187279D01*
X195141860Y-109145695D01*
X195402000Y-109146872D01*
X195526482Y-109134612D01*
X195646180Y-109098302D01*
X195756494Y-109039337D01*
X195853185Y-108959985D01*
X195932537Y-108863294D01*
X195991502Y-108752980D01*
X196027812Y-108633282D01*
X196040072Y-108508800D01*
X196037000Y-107879550D01*
X195878250Y-107720800D01*
X194564000Y-107720800D01*
X194564000Y-107740800D01*
X194310000Y-107740800D01*
X194310000Y-107720800D01*
X192995750Y-107720800D01*
X192837000Y-107879550D01*
X192833928Y-108508800D01*
X192846188Y-108633282D01*
X192882498Y-108752980D01*
X192941463Y-108863294D01*
X193020815Y-108959985D01*
X193117506Y-109039337D01*
X193227820Y-109098302D01*
X193347518Y-109134612D01*
X193472000Y-109146872D01*
X193732140Y-109145695D01*
X193631748Y-109187279D01*
X193353313Y-109373323D01*
X193116523Y-109610113D01*
X192930479Y-109888548D01*
X192802330Y-110197928D01*
X192737000Y-110526365D01*
X190144000Y-110526365D01*
X190144000Y-106678800D01*
X192833928Y-106678800D01*
X192837000Y-107308050D01*
X192995750Y-107466800D01*
X194310000Y-107466800D01*
X194310000Y-106202550D01*
X194564000Y-106202550D01*
X194564000Y-107466800D01*
X195878250Y-107466800D01*
X196037000Y-107308050D01*
X196040072Y-106678800D01*
X196027812Y-106554318D01*
X195991502Y-106434620D01*
X195932537Y-106324306D01*
X195853185Y-106227615D01*
X195756494Y-106148263D01*
X195646180Y-106089298D01*
X195526482Y-106052988D01*
X195402000Y-106040728D01*
X194722750Y-106043800D01*
X194564000Y-106202550D01*
X194310000Y-106202550D01*
X194151250Y-106043800D01*
X193472000Y-106040728D01*
X193347518Y-106052988D01*
X193227820Y-106089298D01*
X193117506Y-106148263D01*
X193020815Y-106227615D01*
X192941463Y-106324306D01*
X192882498Y-106434620D01*
X192846188Y-106554318D01*
X192833928Y-106678800D01*
X190144000Y-106678800D01*
X190144000Y-103075600D01*
X192833928Y-103075600D01*
X192846188Y-103200082D01*
X192882498Y-103319780D01*
X192941463Y-103430094D01*
X193020815Y-103526785D01*
X193117506Y-103606137D01*
X193227820Y-103665102D01*
X193347518Y-103701412D01*
X193472000Y-103713672D01*
X194151250Y-103710600D01*
X194310000Y-103551850D01*
X194310000Y-102287600D01*
X194564000Y-102287600D01*
X194564000Y-103551850D01*
X194722750Y-103710600D01*
X195402000Y-103713672D01*
X195526482Y-103701412D01*
X195646180Y-103665102D01*
X195756494Y-103606137D01*
X195853185Y-103526785D01*
X195932537Y-103430094D01*
X195991502Y-103319780D01*
X196027812Y-103200082D01*
X196040072Y-103075600D01*
X196037000Y-102446350D01*
X195878250Y-102287600D01*
X194564000Y-102287600D01*
X194310000Y-102287600D01*
X192995750Y-102287600D01*
X192837000Y-102446350D01*
X192833928Y-103075600D01*
X190144000Y-103075600D01*
X190144000Y-98893165D01*
X192737000Y-98893165D01*
X192737000Y-99228035D01*
X192802330Y-99556472D01*
X192930479Y-99865852D01*
X193116523Y-100144287D01*
X193353313Y-100381077D01*
X193631748Y-100567121D01*
X193732140Y-100608705D01*
X193472000Y-100607528D01*
X193347518Y-100619788D01*
X193227820Y-100656098D01*
X193117506Y-100715063D01*
X193020815Y-100794415D01*
X192941463Y-100891106D01*
X192882498Y-101001420D01*
X192846188Y-101121118D01*
X192833928Y-101245600D01*
X192837000Y-101874850D01*
X192995750Y-102033600D01*
X194310000Y-102033600D01*
X194310000Y-102013600D01*
X194564000Y-102013600D01*
X194564000Y-102033600D01*
X195878250Y-102033600D01*
X196037000Y-101874850D01*
X196040072Y-101245600D01*
X196027812Y-101121118D01*
X195991502Y-101001420D01*
X195932537Y-100891106D01*
X195853185Y-100794415D01*
X195756494Y-100715063D01*
X195646180Y-100656098D01*
X195526482Y-100619788D01*
X195402000Y-100607528D01*
X195141860Y-100608705D01*
X195242252Y-100567121D01*
X195520687Y-100381077D01*
X195757477Y-100144287D01*
X195943521Y-99865852D01*
X196071670Y-99556472D01*
X196137000Y-99228035D01*
X196137000Y-98893165D01*
X196071670Y-98564728D01*
X195943521Y-98255348D01*
X195757477Y-97976913D01*
X195520687Y-97740123D01*
X195242252Y-97554079D01*
X194932872Y-97425930D01*
X194604435Y-97360600D01*
X194269565Y-97360600D01*
X193941128Y-97425930D01*
X193631748Y-97554079D01*
X193353313Y-97740123D01*
X193116523Y-97976913D01*
X192930479Y-98255348D01*
X192802330Y-98564728D01*
X192737000Y-98893165D01*
X190144000Y-98893165D01*
X190144000Y-90593165D01*
X192737000Y-90593165D01*
X192737000Y-90928035D01*
X192802330Y-91256472D01*
X192930479Y-91565852D01*
X193116523Y-91844287D01*
X193353313Y-92081077D01*
X193631748Y-92267121D01*
X193941128Y-92395270D01*
X194269565Y-92460600D01*
X194604435Y-92460600D01*
X194932872Y-92395270D01*
X195242252Y-92267121D01*
X195520687Y-92081077D01*
X195757477Y-91844287D01*
X195943521Y-91565852D01*
X196071670Y-91256472D01*
X196137000Y-90928035D01*
X196137000Y-90593165D01*
X196071670Y-90264728D01*
X195943521Y-89955348D01*
X195757477Y-89676913D01*
X195520687Y-89440123D01*
X195242252Y-89254079D01*
X194932872Y-89125930D01*
X194604435Y-89060600D01*
X194269565Y-89060600D01*
X193941128Y-89125930D01*
X193631748Y-89254079D01*
X193353313Y-89440123D01*
X193116523Y-89676913D01*
X192930479Y-89955348D01*
X192802330Y-90264728D01*
X192737000Y-90593165D01*
X190144000Y-90593165D01*
X190144000Y-86082400D01*
X192833928Y-86082400D01*
X192846188Y-86206882D01*
X192882498Y-86326580D01*
X192941463Y-86436894D01*
X193020815Y-86533585D01*
X193117506Y-86612937D01*
X193227820Y-86671902D01*
X193347518Y-86708212D01*
X193472000Y-86720472D01*
X194151250Y-86717400D01*
X194310000Y-86558650D01*
X194310000Y-85294400D01*
X194564000Y-85294400D01*
X194564000Y-86558650D01*
X194722750Y-86717400D01*
X195402000Y-86720472D01*
X195526482Y-86708212D01*
X195646180Y-86671902D01*
X195756494Y-86612937D01*
X195853185Y-86533585D01*
X195932537Y-86436894D01*
X195991502Y-86326580D01*
X196027812Y-86206882D01*
X196040072Y-86082400D01*
X196037000Y-85453150D01*
X195878250Y-85294400D01*
X194564000Y-85294400D01*
X194310000Y-85294400D01*
X192995750Y-85294400D01*
X192837000Y-85453150D01*
X192833928Y-86082400D01*
X190144000Y-86082400D01*
X190144000Y-81899965D01*
X192737000Y-81899965D01*
X192737000Y-82234835D01*
X192802330Y-82563272D01*
X192930479Y-82872652D01*
X193116523Y-83151087D01*
X193353313Y-83387877D01*
X193631748Y-83573921D01*
X193732140Y-83615505D01*
X193472000Y-83614328D01*
X193347518Y-83626588D01*
X193227820Y-83662898D01*
X193117506Y-83721863D01*
X193020815Y-83801215D01*
X192941463Y-83897906D01*
X192882498Y-84008220D01*
X192846188Y-84127918D01*
X192833928Y-84252400D01*
X192837000Y-84881650D01*
X192995750Y-85040400D01*
X194310000Y-85040400D01*
X194310000Y-85020400D01*
X194564000Y-85020400D01*
X194564000Y-85040400D01*
X195878250Y-85040400D01*
X196037000Y-84881650D01*
X196040072Y-84252400D01*
X196027812Y-84127918D01*
X195991502Y-84008220D01*
X195932537Y-83897906D01*
X195853185Y-83801215D01*
X195756494Y-83721863D01*
X195646180Y-83662898D01*
X195526482Y-83626588D01*
X195402000Y-83614328D01*
X195141860Y-83615505D01*
X195242252Y-83573921D01*
X195520687Y-83387877D01*
X195757477Y-83151087D01*
X195943521Y-82872652D01*
X196071670Y-82563272D01*
X196137000Y-82234835D01*
X196137000Y-81899965D01*
X196071670Y-81571528D01*
X195943521Y-81262148D01*
X195757477Y-80983713D01*
X195520687Y-80746923D01*
X195242252Y-80560879D01*
X194932872Y-80432730D01*
X194604435Y-80367400D01*
X194269565Y-80367400D01*
X193941128Y-80432730D01*
X193631748Y-80560879D01*
X193353313Y-80746923D01*
X193116523Y-80983713D01*
X192930479Y-81262148D01*
X192802330Y-81571528D01*
X192737000Y-81899965D01*
X190144000Y-81899965D01*
X190144000Y-73599965D01*
X192737000Y-73599965D01*
X192737000Y-73934835D01*
X192802330Y-74263272D01*
X192930479Y-74572652D01*
X193116523Y-74851087D01*
X193353313Y-75087877D01*
X193631748Y-75273921D01*
X193941128Y-75402070D01*
X194269565Y-75467400D01*
X194604435Y-75467400D01*
X194932872Y-75402070D01*
X195242252Y-75273921D01*
X195520687Y-75087877D01*
X195757477Y-74851087D01*
X195943521Y-74572652D01*
X196071670Y-74263272D01*
X196137000Y-73934835D01*
X196137000Y-73599965D01*
X196071670Y-73271528D01*
X195943521Y-72962148D01*
X195757477Y-72683713D01*
X195520687Y-72446923D01*
X195242252Y-72260879D01*
X194932872Y-72132730D01*
X194604435Y-72067400D01*
X194269565Y-72067400D01*
X193941128Y-72132730D01*
X193631748Y-72260879D01*
X193353313Y-72446923D01*
X193116523Y-72683713D01*
X192930479Y-72962148D01*
X192802330Y-73271528D01*
X192737000Y-73599965D01*
X190144000Y-73599965D01*
X190144000Y-69089200D01*
X192833928Y-69089200D01*
X192846188Y-69213682D01*
X192882498Y-69333380D01*
X192941463Y-69443694D01*
X193020815Y-69540385D01*
X193117506Y-69619737D01*
X193227820Y-69678702D01*
X193347518Y-69715012D01*
X193472000Y-69727272D01*
X194151250Y-69724200D01*
X194310000Y-69565450D01*
X194310000Y-68301200D01*
X194564000Y-68301200D01*
X194564000Y-69565450D01*
X194722750Y-69724200D01*
X195402000Y-69727272D01*
X195526482Y-69715012D01*
X195646180Y-69678702D01*
X195756494Y-69619737D01*
X195853185Y-69540385D01*
X195932537Y-69443694D01*
X195991502Y-69333380D01*
X196027812Y-69213682D01*
X196040072Y-69089200D01*
X196037000Y-68459950D01*
X195878250Y-68301200D01*
X194564000Y-68301200D01*
X194310000Y-68301200D01*
X192995750Y-68301200D01*
X192837000Y-68459950D01*
X192833928Y-69089200D01*
X190144000Y-69089200D01*
X190144000Y-64906765D01*
X192737000Y-64906765D01*
X192737000Y-65241635D01*
X192802330Y-65570072D01*
X192930479Y-65879452D01*
X193116523Y-66157887D01*
X193353313Y-66394677D01*
X193631748Y-66580721D01*
X193732140Y-66622305D01*
X193472000Y-66621128D01*
X193347518Y-66633388D01*
X193227820Y-66669698D01*
X193117506Y-66728663D01*
X193020815Y-66808015D01*
X192941463Y-66904706D01*
X192882498Y-67015020D01*
X192846188Y-67134718D01*
X192833928Y-67259200D01*
X192837000Y-67888450D01*
X192995750Y-68047200D01*
X194310000Y-68047200D01*
X194310000Y-68027200D01*
X194564000Y-68027200D01*
X194564000Y-68047200D01*
X195878250Y-68047200D01*
X196037000Y-67888450D01*
X196040072Y-67259200D01*
X196027812Y-67134718D01*
X195991502Y-67015020D01*
X195932537Y-66904706D01*
X195853185Y-66808015D01*
X195756494Y-66728663D01*
X195646180Y-66669698D01*
X195526482Y-66633388D01*
X195402000Y-66621128D01*
X195141860Y-66622305D01*
X195242252Y-66580721D01*
X195520687Y-66394677D01*
X195757477Y-66157887D01*
X195943521Y-65879452D01*
X196071670Y-65570072D01*
X196137000Y-65241635D01*
X196137000Y-64906765D01*
X196071670Y-64578328D01*
X195943521Y-64268948D01*
X195757477Y-63990513D01*
X195520687Y-63753723D01*
X195242252Y-63567679D01*
X194932872Y-63439530D01*
X194604435Y-63374200D01*
X194269565Y-63374200D01*
X193941128Y-63439530D01*
X193631748Y-63567679D01*
X193353313Y-63753723D01*
X193116523Y-63990513D01*
X192930479Y-64268948D01*
X192802330Y-64578328D01*
X192737000Y-64906765D01*
X190144000Y-64906765D01*
X190144000Y-56606765D01*
X192737000Y-56606765D01*
X192737000Y-56941635D01*
X192802330Y-57270072D01*
X192930479Y-57579452D01*
X193116523Y-57857887D01*
X193353313Y-58094677D01*
X193631748Y-58280721D01*
X193941128Y-58408870D01*
X194269565Y-58474200D01*
X194604435Y-58474200D01*
X194932872Y-58408870D01*
X195242252Y-58280721D01*
X195520687Y-58094677D01*
X195757477Y-57857887D01*
X195943521Y-57579452D01*
X196071670Y-57270072D01*
X196137000Y-56941635D01*
X196137000Y-56606765D01*
X196071670Y-56278328D01*
X195943521Y-55968948D01*
X195757477Y-55690513D01*
X195520687Y-55453723D01*
X195242252Y-55267679D01*
X194932872Y-55139530D01*
X194604435Y-55074200D01*
X194269565Y-55074200D01*
X193941128Y-55139530D01*
X193631748Y-55267679D01*
X193353313Y-55453723D01*
X193116523Y-55690513D01*
X192930479Y-55968948D01*
X192802330Y-56278328D01*
X192737000Y-56606765D01*
X190144000Y-56606765D01*
X190144000Y-52096000D01*
X192833928Y-52096000D01*
X192846188Y-52220482D01*
X192882498Y-52340180D01*
X192941463Y-52450494D01*
X193020815Y-52547185D01*
X193117506Y-52626537D01*
X193227820Y-52685502D01*
X193347518Y-52721812D01*
X193472000Y-52734072D01*
X194151250Y-52731000D01*
X194310000Y-52572250D01*
X194310000Y-51308000D01*
X194564000Y-51308000D01*
X194564000Y-52572250D01*
X194722750Y-52731000D01*
X195402000Y-52734072D01*
X195526482Y-52721812D01*
X195646180Y-52685502D01*
X195756494Y-52626537D01*
X195853185Y-52547185D01*
X195932537Y-52450494D01*
X195991502Y-52340180D01*
X196027812Y-52220482D01*
X196040072Y-52096000D01*
X196037000Y-51466750D01*
X195878250Y-51308000D01*
X194564000Y-51308000D01*
X194310000Y-51308000D01*
X192995750Y-51308000D01*
X192837000Y-51466750D01*
X192833928Y-52096000D01*
X190144000Y-52096000D01*
X190144000Y-47913565D01*
X192737000Y-47913565D01*
X192737000Y-48248435D01*
X192802330Y-48576872D01*
X192930479Y-48886252D01*
X193116523Y-49164687D01*
X193353313Y-49401477D01*
X193631748Y-49587521D01*
X193732140Y-49629105D01*
X193472000Y-49627928D01*
X193347518Y-49640188D01*
X193227820Y-49676498D01*
X193117506Y-49735463D01*
X193020815Y-49814815D01*
X192941463Y-49911506D01*
X192882498Y-50021820D01*
X192846188Y-50141518D01*
X192833928Y-50266000D01*
X192837000Y-50895250D01*
X192995750Y-51054000D01*
X194310000Y-51054000D01*
X194310000Y-51034000D01*
X194564000Y-51034000D01*
X194564000Y-51054000D01*
X195878250Y-51054000D01*
X196037000Y-50895250D01*
X196040072Y-50266000D01*
X196027812Y-50141518D01*
X195991502Y-50021820D01*
X195932537Y-49911506D01*
X195853185Y-49814815D01*
X195756494Y-49735463D01*
X195646180Y-49676498D01*
X195526482Y-49640188D01*
X195402000Y-49627928D01*
X195141860Y-49629105D01*
X195242252Y-49587521D01*
X195520687Y-49401477D01*
X195757477Y-49164687D01*
X195943521Y-48886252D01*
X196071670Y-48576872D01*
X196137000Y-48248435D01*
X196137000Y-47913565D01*
X196071670Y-47585128D01*
X195943521Y-47275748D01*
X195757477Y-46997313D01*
X195520687Y-46760523D01*
X195242252Y-46574479D01*
X194932872Y-46446330D01*
X194604435Y-46381000D01*
X194269565Y-46381000D01*
X193941128Y-46446330D01*
X193631748Y-46574479D01*
X193353313Y-46760523D01*
X193116523Y-46997313D01*
X192930479Y-47275748D01*
X192802330Y-47585128D01*
X192737000Y-47913565D01*
X190144000Y-47913565D01*
X190144000Y-38859872D01*
X193035113Y-38819152D01*
X192930479Y-38975748D01*
X192802330Y-39285128D01*
X192737000Y-39613565D01*
X192737000Y-39948435D01*
X192802330Y-40276872D01*
X192930479Y-40586252D01*
X193116523Y-40864687D01*
X193353313Y-41101477D01*
X193631748Y-41287521D01*
X193941128Y-41415670D01*
X194269565Y-41481000D01*
X194604435Y-41481000D01*
X194932872Y-41415670D01*
X195242252Y-41287521D01*
X195520687Y-41101477D01*
X195757477Y-40864687D01*
X195943521Y-40586252D01*
X196071670Y-40276872D01*
X196137000Y-39948435D01*
X196137000Y-39613565D01*
X196071670Y-39285128D01*
X195943521Y-38975748D01*
X195812747Y-38780030D01*
X197234893Y-38760000D01*
X198730000Y-38760000D01*
X198730001Y-137049577D01*
X198730001Y-137049577D01*
G37*
X198730001Y-137049577D02*
X195652097Y-137176067D01*
X195757477Y-137070687D01*
X195943521Y-136792252D01*
X196071670Y-136482872D01*
X196137000Y-136154435D01*
X196137000Y-135819565D01*
X196071670Y-135491128D01*
X195943521Y-135181748D01*
X195757477Y-134903313D01*
X195520687Y-134666523D01*
X195242252Y-134480479D01*
X194932872Y-134352330D01*
X194604435Y-134287000D01*
X194269565Y-134287000D01*
X193941128Y-134352330D01*
X193631748Y-134480479D01*
X193353313Y-134666523D01*
X193116523Y-134903313D01*
X192930479Y-135181748D01*
X192802330Y-135491128D01*
X192737000Y-135819565D01*
X192737000Y-136154435D01*
X192802330Y-136482872D01*
X192930479Y-136792252D01*
X193116523Y-137070687D01*
X193317832Y-137271996D01*
X190470733Y-137389000D01*
X190144000Y-137389000D01*
X190144000Y-127519565D01*
X192737000Y-127519565D01*
X192737000Y-127854435D01*
X192802330Y-128182872D01*
X192930479Y-128492252D01*
X193116523Y-128770687D01*
X193353313Y-129007477D01*
X193631748Y-129193521D01*
X193941128Y-129321670D01*
X194269565Y-129387000D01*
X194604435Y-129387000D01*
X194932872Y-129321670D01*
X195242252Y-129193521D01*
X195520687Y-129007477D01*
X195757477Y-128770687D01*
X195943521Y-128492252D01*
X196071670Y-128182872D01*
X196137000Y-127854435D01*
X196137000Y-127519565D01*
X196071670Y-127191128D01*
X195943521Y-126881748D01*
X195757477Y-126603313D01*
X195520687Y-126366523D01*
X195242252Y-126180479D01*
X195141860Y-126138895D01*
X195402000Y-126140072D01*
X195526482Y-126127812D01*
X195646180Y-126091502D01*
X195756494Y-126032537D01*
X195853185Y-125953185D01*
X195932537Y-125856494D01*
X195991502Y-125746180D01*
X196027812Y-125626482D01*
X196040072Y-125502000D01*
X196037000Y-124872750D01*
X195878250Y-124714000D01*
X194564000Y-124714000D01*
X194564000Y-124734000D01*
X194310000Y-124734000D01*
X194310000Y-124714000D01*
X192995750Y-124714000D01*
X192837000Y-124872750D01*
X192833928Y-125502000D01*
X192846188Y-125626482D01*
X192882498Y-125746180D01*
X192941463Y-125856494D01*
X193020815Y-125953185D01*
X193117506Y-126032537D01*
X193227820Y-126091502D01*
X193347518Y-126127812D01*
X193472000Y-126140072D01*
X193732140Y-126138895D01*
X193631748Y-126180479D01*
X193353313Y-126366523D01*
X193116523Y-126603313D01*
X192930479Y-126881748D01*
X192802330Y-127191128D01*
X192737000Y-127519565D01*
X190144000Y-127519565D01*
X190144000Y-123672000D01*
X192833928Y-123672000D01*
X192837000Y-124301250D01*
X192995750Y-124460000D01*
X194310000Y-124460000D01*
X194310000Y-123195750D01*
X194564000Y-123195750D01*
X194564000Y-124460000D01*
X195878250Y-124460000D01*
X196037000Y-124301250D01*
X196040072Y-123672000D01*
X196027812Y-123547518D01*
X195991502Y-123427820D01*
X195932537Y-123317506D01*
X195853185Y-123220815D01*
X195756494Y-123141463D01*
X195646180Y-123082498D01*
X195526482Y-123046188D01*
X195402000Y-123033928D01*
X194722750Y-123037000D01*
X194564000Y-123195750D01*
X194310000Y-123195750D01*
X194151250Y-123037000D01*
X193472000Y-123033928D01*
X193347518Y-123046188D01*
X193227820Y-123082498D01*
X193117506Y-123141463D01*
X193020815Y-123220815D01*
X192941463Y-123317506D01*
X192882498Y-123427820D01*
X192846188Y-123547518D01*
X192833928Y-123672000D01*
X190144000Y-123672000D01*
X190144000Y-118826365D01*
X192737000Y-118826365D01*
X192737000Y-119161235D01*
X192802330Y-119489672D01*
X192930479Y-119799052D01*
X193116523Y-120077487D01*
X193353313Y-120314277D01*
X193631748Y-120500321D01*
X193941128Y-120628470D01*
X194269565Y-120693800D01*
X194604435Y-120693800D01*
X194932872Y-120628470D01*
X195242252Y-120500321D01*
X195520687Y-120314277D01*
X195757477Y-120077487D01*
X195943521Y-119799052D01*
X196071670Y-119489672D01*
X196137000Y-119161235D01*
X196137000Y-118826365D01*
X196071670Y-118497928D01*
X195943521Y-118188548D01*
X195757477Y-117910113D01*
X195520687Y-117673323D01*
X195242252Y-117487279D01*
X194932872Y-117359130D01*
X194604435Y-117293800D01*
X194269565Y-117293800D01*
X193941128Y-117359130D01*
X193631748Y-117487279D01*
X193353313Y-117673323D01*
X193116523Y-117910113D01*
X192930479Y-118188548D01*
X192802330Y-118497928D01*
X192737000Y-118826365D01*
X190144000Y-118826365D01*
X190144000Y-110526365D01*
X192737000Y-110526365D01*
X192737000Y-110861235D01*
X192802330Y-111189672D01*
X192930479Y-111499052D01*
X193116523Y-111777487D01*
X193353313Y-112014277D01*
X193631748Y-112200321D01*
X193941128Y-112328470D01*
X194269565Y-112393800D01*
X194604435Y-112393800D01*
X194932872Y-112328470D01*
X195242252Y-112200321D01*
X195520687Y-112014277D01*
X195757477Y-111777487D01*
X195943521Y-111499052D01*
X196071670Y-111189672D01*
X196137000Y-110861235D01*
X196137000Y-110526365D01*
X196071670Y-110197928D01*
X195943521Y-109888548D01*
X195757477Y-109610113D01*
X195520687Y-109373323D01*
X195242252Y-109187279D01*
X195141860Y-109145695D01*
X195402000Y-109146872D01*
X195526482Y-109134612D01*
X195646180Y-109098302D01*
X195756494Y-109039337D01*
X195853185Y-108959985D01*
X195932537Y-108863294D01*
X195991502Y-108752980D01*
X196027812Y-108633282D01*
X196040072Y-108508800D01*
X196037000Y-107879550D01*
X195878250Y-107720800D01*
X194564000Y-107720800D01*
X194564000Y-107740800D01*
X194310000Y-107740800D01*
X194310000Y-107720800D01*
X192995750Y-107720800D01*
X192837000Y-107879550D01*
X192833928Y-108508800D01*
X192846188Y-108633282D01*
X192882498Y-108752980D01*
X192941463Y-108863294D01*
X193020815Y-108959985D01*
X193117506Y-109039337D01*
X193227820Y-109098302D01*
X193347518Y-109134612D01*
X193472000Y-109146872D01*
X193732140Y-109145695D01*
X193631748Y-109187279D01*
X193353313Y-109373323D01*
X193116523Y-109610113D01*
X192930479Y-109888548D01*
X192802330Y-110197928D01*
X192737000Y-110526365D01*
X190144000Y-110526365D01*
X190144000Y-106678800D01*
X192833928Y-106678800D01*
X192837000Y-107308050D01*
X192995750Y-107466800D01*
X194310000Y-107466800D01*
X194310000Y-106202550D01*
X194564000Y-106202550D01*
X194564000Y-107466800D01*
X195878250Y-107466800D01*
X196037000Y-107308050D01*
X196040072Y-106678800D01*
X196027812Y-106554318D01*
X195991502Y-106434620D01*
X195932537Y-106324306D01*
X195853185Y-106227615D01*
X195756494Y-106148263D01*
X195646180Y-106089298D01*
X195526482Y-106052988D01*
X195402000Y-106040728D01*
X194722750Y-106043800D01*
X194564000Y-106202550D01*
X194310000Y-106202550D01*
X194151250Y-106043800D01*
X193472000Y-106040728D01*
X193347518Y-106052988D01*
X193227820Y-106089298D01*
X193117506Y-106148263D01*
X193020815Y-106227615D01*
X192941463Y-106324306D01*
X192882498Y-106434620D01*
X192846188Y-106554318D01*
X192833928Y-106678800D01*
X190144000Y-106678800D01*
X190144000Y-103075600D01*
X192833928Y-103075600D01*
X192846188Y-103200082D01*
X192882498Y-103319780D01*
X192941463Y-103430094D01*
X193020815Y-103526785D01*
X193117506Y-103606137D01*
X193227820Y-103665102D01*
X193347518Y-103701412D01*
X193472000Y-103713672D01*
X194151250Y-103710600D01*
X194310000Y-103551850D01*
X194310000Y-102287600D01*
X194564000Y-102287600D01*
X194564000Y-103551850D01*
X194722750Y-103710600D01*
X195402000Y-103713672D01*
X195526482Y-103701412D01*
X195646180Y-103665102D01*
X195756494Y-103606137D01*
X195853185Y-103526785D01*
X195932537Y-103430094D01*
X195991502Y-103319780D01*
X196027812Y-103200082D01*
X196040072Y-103075600D01*
X196037000Y-102446350D01*
X195878250Y-102287600D01*
X194564000Y-102287600D01*
X194310000Y-102287600D01*
X192995750Y-102287600D01*
X192837000Y-102446350D01*
X192833928Y-103075600D01*
X190144000Y-103075600D01*
X190144000Y-98893165D01*
X192737000Y-98893165D01*
X192737000Y-99228035D01*
X192802330Y-99556472D01*
X192930479Y-99865852D01*
X193116523Y-100144287D01*
X193353313Y-100381077D01*
X193631748Y-100567121D01*
X193732140Y-100608705D01*
X193472000Y-100607528D01*
X193347518Y-100619788D01*
X193227820Y-100656098D01*
X193117506Y-100715063D01*
X193020815Y-100794415D01*
X192941463Y-100891106D01*
X192882498Y-101001420D01*
X192846188Y-101121118D01*
X192833928Y-101245600D01*
X192837000Y-101874850D01*
X192995750Y-102033600D01*
X194310000Y-102033600D01*
X194310000Y-102013600D01*
X194564000Y-102013600D01*
X194564000Y-102033600D01*
X195878250Y-102033600D01*
X196037000Y-101874850D01*
X196040072Y-101245600D01*
X196027812Y-101121118D01*
X195991502Y-101001420D01*
X195932537Y-100891106D01*
X195853185Y-100794415D01*
X195756494Y-100715063D01*
X195646180Y-100656098D01*
X195526482Y-100619788D01*
X195402000Y-100607528D01*
X195141860Y-100608705D01*
X195242252Y-100567121D01*
X195520687Y-100381077D01*
X195757477Y-100144287D01*
X195943521Y-99865852D01*
X196071670Y-99556472D01*
X196137000Y-99228035D01*
X196137000Y-98893165D01*
X196071670Y-98564728D01*
X195943521Y-98255348D01*
X195757477Y-97976913D01*
X195520687Y-97740123D01*
X195242252Y-97554079D01*
X194932872Y-97425930D01*
X194604435Y-97360600D01*
X194269565Y-97360600D01*
X193941128Y-97425930D01*
X193631748Y-97554079D01*
X193353313Y-97740123D01*
X193116523Y-97976913D01*
X192930479Y-98255348D01*
X192802330Y-98564728D01*
X192737000Y-98893165D01*
X190144000Y-98893165D01*
X190144000Y-90593165D01*
X192737000Y-90593165D01*
X192737000Y-90928035D01*
X192802330Y-91256472D01*
X192930479Y-91565852D01*
X193116523Y-91844287D01*
X193353313Y-92081077D01*
X193631748Y-92267121D01*
X193941128Y-92395270D01*
X194269565Y-92460600D01*
X194604435Y-92460600D01*
X194932872Y-92395270D01*
X195242252Y-92267121D01*
X195520687Y-92081077D01*
X195757477Y-91844287D01*
X195943521Y-91565852D01*
X196071670Y-91256472D01*
X196137000Y-90928035D01*
X196137000Y-90593165D01*
X196071670Y-90264728D01*
X195943521Y-89955348D01*
X195757477Y-89676913D01*
X195520687Y-89440123D01*
X195242252Y-89254079D01*
X194932872Y-89125930D01*
X194604435Y-89060600D01*
X194269565Y-89060600D01*
X193941128Y-89125930D01*
X193631748Y-89254079D01*
X193353313Y-89440123D01*
X193116523Y-89676913D01*
X192930479Y-89955348D01*
X192802330Y-90264728D01*
X192737000Y-90593165D01*
X190144000Y-90593165D01*
X190144000Y-86082400D01*
X192833928Y-86082400D01*
X192846188Y-86206882D01*
X192882498Y-86326580D01*
X192941463Y-86436894D01*
X193020815Y-86533585D01*
X193117506Y-86612937D01*
X193227820Y-86671902D01*
X193347518Y-86708212D01*
X193472000Y-86720472D01*
X194151250Y-86717400D01*
X194310000Y-86558650D01*
X194310000Y-85294400D01*
X194564000Y-85294400D01*
X194564000Y-86558650D01*
X194722750Y-86717400D01*
X195402000Y-86720472D01*
X195526482Y-86708212D01*
X195646180Y-86671902D01*
X195756494Y-86612937D01*
X195853185Y-86533585D01*
X195932537Y-86436894D01*
X195991502Y-86326580D01*
X196027812Y-86206882D01*
X196040072Y-86082400D01*
X196037000Y-85453150D01*
X195878250Y-85294400D01*
X194564000Y-85294400D01*
X194310000Y-85294400D01*
X192995750Y-85294400D01*
X192837000Y-85453150D01*
X192833928Y-86082400D01*
X190144000Y-86082400D01*
X190144000Y-81899965D01*
X192737000Y-81899965D01*
X192737000Y-82234835D01*
X192802330Y-82563272D01*
X192930479Y-82872652D01*
X193116523Y-83151087D01*
X193353313Y-83387877D01*
X193631748Y-83573921D01*
X193732140Y-83615505D01*
X193472000Y-83614328D01*
X193347518Y-83626588D01*
X193227820Y-83662898D01*
X193117506Y-83721863D01*
X193020815Y-83801215D01*
X192941463Y-83897906D01*
X192882498Y-84008220D01*
X192846188Y-84127918D01*
X192833928Y-84252400D01*
X192837000Y-84881650D01*
X192995750Y-85040400D01*
X194310000Y-85040400D01*
X194310000Y-85020400D01*
X194564000Y-85020400D01*
X194564000Y-85040400D01*
X195878250Y-85040400D01*
X196037000Y-84881650D01*
X196040072Y-84252400D01*
X196027812Y-84127918D01*
X195991502Y-84008220D01*
X195932537Y-83897906D01*
X195853185Y-83801215D01*
X195756494Y-83721863D01*
X195646180Y-83662898D01*
X195526482Y-83626588D01*
X195402000Y-83614328D01*
X195141860Y-83615505D01*
X195242252Y-83573921D01*
X195520687Y-83387877D01*
X195757477Y-83151087D01*
X195943521Y-82872652D01*
X196071670Y-82563272D01*
X196137000Y-82234835D01*
X196137000Y-81899965D01*
X196071670Y-81571528D01*
X195943521Y-81262148D01*
X195757477Y-80983713D01*
X195520687Y-80746923D01*
X195242252Y-80560879D01*
X194932872Y-80432730D01*
X194604435Y-80367400D01*
X194269565Y-80367400D01*
X193941128Y-80432730D01*
X193631748Y-80560879D01*
X193353313Y-80746923D01*
X193116523Y-80983713D01*
X192930479Y-81262148D01*
X192802330Y-81571528D01*
X192737000Y-81899965D01*
X190144000Y-81899965D01*
X190144000Y-73599965D01*
X192737000Y-73599965D01*
X192737000Y-73934835D01*
X192802330Y-74263272D01*
X192930479Y-74572652D01*
X193116523Y-74851087D01*
X193353313Y-75087877D01*
X193631748Y-75273921D01*
X193941128Y-75402070D01*
X194269565Y-75467400D01*
X194604435Y-75467400D01*
X194932872Y-75402070D01*
X195242252Y-75273921D01*
X195520687Y-75087877D01*
X195757477Y-74851087D01*
X195943521Y-74572652D01*
X196071670Y-74263272D01*
X196137000Y-73934835D01*
X196137000Y-73599965D01*
X196071670Y-73271528D01*
X195943521Y-72962148D01*
X195757477Y-72683713D01*
X195520687Y-72446923D01*
X195242252Y-72260879D01*
X194932872Y-72132730D01*
X194604435Y-72067400D01*
X194269565Y-72067400D01*
X193941128Y-72132730D01*
X193631748Y-72260879D01*
X193353313Y-72446923D01*
X193116523Y-72683713D01*
X192930479Y-72962148D01*
X192802330Y-73271528D01*
X192737000Y-73599965D01*
X190144000Y-73599965D01*
X190144000Y-69089200D01*
X192833928Y-69089200D01*
X192846188Y-69213682D01*
X192882498Y-69333380D01*
X192941463Y-69443694D01*
X193020815Y-69540385D01*
X193117506Y-69619737D01*
X193227820Y-69678702D01*
X193347518Y-69715012D01*
X193472000Y-69727272D01*
X194151250Y-69724200D01*
X194310000Y-69565450D01*
X194310000Y-68301200D01*
X194564000Y-68301200D01*
X194564000Y-69565450D01*
X194722750Y-69724200D01*
X195402000Y-69727272D01*
X195526482Y-69715012D01*
X195646180Y-69678702D01*
X195756494Y-69619737D01*
X195853185Y-69540385D01*
X195932537Y-69443694D01*
X195991502Y-69333380D01*
X196027812Y-69213682D01*
X196040072Y-69089200D01*
X196037000Y-68459950D01*
X195878250Y-68301200D01*
X194564000Y-68301200D01*
X194310000Y-68301200D01*
X192995750Y-68301200D01*
X192837000Y-68459950D01*
X192833928Y-69089200D01*
X190144000Y-69089200D01*
X190144000Y-64906765D01*
X192737000Y-64906765D01*
X192737000Y-65241635D01*
X192802330Y-65570072D01*
X192930479Y-65879452D01*
X193116523Y-66157887D01*
X193353313Y-66394677D01*
X193631748Y-66580721D01*
X193732140Y-66622305D01*
X193472000Y-66621128D01*
X193347518Y-66633388D01*
X193227820Y-66669698D01*
X193117506Y-66728663D01*
X193020815Y-66808015D01*
X192941463Y-66904706D01*
X192882498Y-67015020D01*
X192846188Y-67134718D01*
X192833928Y-67259200D01*
X192837000Y-67888450D01*
X192995750Y-68047200D01*
X194310000Y-68047200D01*
X194310000Y-68027200D01*
X194564000Y-68027200D01*
X194564000Y-68047200D01*
X195878250Y-68047200D01*
X196037000Y-67888450D01*
X196040072Y-67259200D01*
X196027812Y-67134718D01*
X195991502Y-67015020D01*
X195932537Y-66904706D01*
X195853185Y-66808015D01*
X195756494Y-66728663D01*
X195646180Y-66669698D01*
X195526482Y-66633388D01*
X195402000Y-66621128D01*
X195141860Y-66622305D01*
X195242252Y-66580721D01*
X195520687Y-66394677D01*
X195757477Y-66157887D01*
X195943521Y-65879452D01*
X196071670Y-65570072D01*
X196137000Y-65241635D01*
X196137000Y-64906765D01*
X196071670Y-64578328D01*
X195943521Y-64268948D01*
X195757477Y-63990513D01*
X195520687Y-63753723D01*
X195242252Y-63567679D01*
X194932872Y-63439530D01*
X194604435Y-63374200D01*
X194269565Y-63374200D01*
X193941128Y-63439530D01*
X193631748Y-63567679D01*
X193353313Y-63753723D01*
X193116523Y-63990513D01*
X192930479Y-64268948D01*
X192802330Y-64578328D01*
X192737000Y-64906765D01*
X190144000Y-64906765D01*
X190144000Y-56606765D01*
X192737000Y-56606765D01*
X192737000Y-56941635D01*
X192802330Y-57270072D01*
X192930479Y-57579452D01*
X193116523Y-57857887D01*
X193353313Y-58094677D01*
X193631748Y-58280721D01*
X193941128Y-58408870D01*
X194269565Y-58474200D01*
X194604435Y-58474200D01*
X194932872Y-58408870D01*
X195242252Y-58280721D01*
X195520687Y-58094677D01*
X195757477Y-57857887D01*
X195943521Y-57579452D01*
X196071670Y-57270072D01*
X196137000Y-56941635D01*
X196137000Y-56606765D01*
X196071670Y-56278328D01*
X195943521Y-55968948D01*
X195757477Y-55690513D01*
X195520687Y-55453723D01*
X195242252Y-55267679D01*
X194932872Y-55139530D01*
X194604435Y-55074200D01*
X194269565Y-55074200D01*
X193941128Y-55139530D01*
X193631748Y-55267679D01*
X193353313Y-55453723D01*
X193116523Y-55690513D01*
X192930479Y-55968948D01*
X192802330Y-56278328D01*
X192737000Y-56606765D01*
X190144000Y-56606765D01*
X190144000Y-52096000D01*
X192833928Y-52096000D01*
X192846188Y-52220482D01*
X192882498Y-52340180D01*
X192941463Y-52450494D01*
X193020815Y-52547185D01*
X193117506Y-52626537D01*
X193227820Y-52685502D01*
X193347518Y-52721812D01*
X193472000Y-52734072D01*
X194151250Y-52731000D01*
X194310000Y-52572250D01*
X194310000Y-51308000D01*
X194564000Y-51308000D01*
X194564000Y-52572250D01*
X194722750Y-52731000D01*
X195402000Y-52734072D01*
X195526482Y-52721812D01*
X195646180Y-52685502D01*
X195756494Y-52626537D01*
X195853185Y-52547185D01*
X195932537Y-52450494D01*
X195991502Y-52340180D01*
X196027812Y-52220482D01*
X196040072Y-52096000D01*
X196037000Y-51466750D01*
X195878250Y-51308000D01*
X194564000Y-51308000D01*
X194310000Y-51308000D01*
X192995750Y-51308000D01*
X192837000Y-51466750D01*
X192833928Y-52096000D01*
X190144000Y-52096000D01*
X190144000Y-47913565D01*
X192737000Y-47913565D01*
X192737000Y-48248435D01*
X192802330Y-48576872D01*
X192930479Y-48886252D01*
X193116523Y-49164687D01*
X193353313Y-49401477D01*
X193631748Y-49587521D01*
X193732140Y-49629105D01*
X193472000Y-49627928D01*
X193347518Y-49640188D01*
X193227820Y-49676498D01*
X193117506Y-49735463D01*
X193020815Y-49814815D01*
X192941463Y-49911506D01*
X192882498Y-50021820D01*
X192846188Y-50141518D01*
X192833928Y-50266000D01*
X192837000Y-50895250D01*
X192995750Y-51054000D01*
X194310000Y-51054000D01*
X194310000Y-51034000D01*
X194564000Y-51034000D01*
X194564000Y-51054000D01*
X195878250Y-51054000D01*
X196037000Y-50895250D01*
X196040072Y-50266000D01*
X196027812Y-50141518D01*
X195991502Y-50021820D01*
X195932537Y-49911506D01*
X195853185Y-49814815D01*
X195756494Y-49735463D01*
X195646180Y-49676498D01*
X195526482Y-49640188D01*
X195402000Y-49627928D01*
X195141860Y-49629105D01*
X195242252Y-49587521D01*
X195520687Y-49401477D01*
X195757477Y-49164687D01*
X195943521Y-48886252D01*
X196071670Y-48576872D01*
X196137000Y-48248435D01*
X196137000Y-47913565D01*
X196071670Y-47585128D01*
X195943521Y-47275748D01*
X195757477Y-46997313D01*
X195520687Y-46760523D01*
X195242252Y-46574479D01*
X194932872Y-46446330D01*
X194604435Y-46381000D01*
X194269565Y-46381000D01*
X193941128Y-46446330D01*
X193631748Y-46574479D01*
X193353313Y-46760523D01*
X193116523Y-46997313D01*
X192930479Y-47275748D01*
X192802330Y-47585128D01*
X192737000Y-47913565D01*
X190144000Y-47913565D01*
X190144000Y-38859872D01*
X193035113Y-38819152D01*
X192930479Y-38975748D01*
X192802330Y-39285128D01*
X192737000Y-39613565D01*
X192737000Y-39948435D01*
X192802330Y-40276872D01*
X192930479Y-40586252D01*
X193116523Y-40864687D01*
X193353313Y-41101477D01*
X193631748Y-41287521D01*
X193941128Y-41415670D01*
X194269565Y-41481000D01*
X194604435Y-41481000D01*
X194932872Y-41415670D01*
X195242252Y-41287521D01*
X195520687Y-41101477D01*
X195757477Y-40864687D01*
X195943521Y-40586252D01*
X196071670Y-40276872D01*
X196137000Y-39948435D01*
X196137000Y-39613565D01*
X196071670Y-39285128D01*
X195943521Y-38975748D01*
X195812747Y-38780030D01*
X197234893Y-38760000D01*
X198730000Y-38760000D01*
X198730001Y-137049577D01*
M02*
