G04 #@! TF.GenerationSoftware,KiCad,Pcbnew,(5.1.0)-1*
G04 #@! TF.CreationDate,2019-04-12T00:03:03-04:00*
G04 #@! TF.ProjectId,passive_mults,70617373-6976-4655-9f6d-756c74732e6b,rev?*
G04 #@! TF.SameCoordinates,Original*
G04 #@! TF.FileFunction,Copper,L1,Top*
G04 #@! TF.FilePolarity,Positive*
%FSLAX46Y46*%
G04 Gerber Fmt 4.6, Leading zero omitted, Abs format (unit mm)*
G04 Created by KiCad (PCBNEW (5.1.0)-1) date 2019-04-12 00:03:03*
%MOMM*%
%LPD*%
G04 APERTURE LIST*
%ADD10C,2.130000*%
%ADD11R,1.930000X1.830000*%
%ADD12C,0.254000*%
G04 APERTURE END LIST*
D10*
X194437000Y-118993800D03*
D11*
X194437000Y-107593800D03*
D10*
X194437000Y-110693800D03*
X194437000Y-135987000D03*
D11*
X194437000Y-124587000D03*
D10*
X194437000Y-127687000D03*
X194437000Y-39781000D03*
D11*
X194437000Y-51181000D03*
D10*
X194437000Y-48081000D03*
X194437000Y-90760600D03*
D11*
X194437000Y-102160600D03*
D10*
X194437000Y-99060600D03*
X194437000Y-73767400D03*
D11*
X194437000Y-85167400D03*
D10*
X194437000Y-82067400D03*
X194437000Y-56774200D03*
D11*
X194437000Y-68174200D03*
D10*
X194437000Y-65074200D03*
D12*
G36*
X193255237Y-38778845D02*
G01*
X192984193Y-38882454D01*
X192836810Y-39183148D01*
X192750922Y-39506818D01*
X192729829Y-39841023D01*
X192774342Y-40172922D01*
X192882750Y-40489760D01*
X192984193Y-40679546D01*
X193255239Y-40783156D01*
X194257395Y-39781000D01*
X194243253Y-39766858D01*
X194422858Y-39587253D01*
X194437000Y-39601395D01*
X194451143Y-39587253D01*
X194630748Y-39766858D01*
X194616605Y-39781000D01*
X195618761Y-40783156D01*
X195889807Y-40679546D01*
X196037190Y-40378852D01*
X196123078Y-40055182D01*
X196144171Y-39720977D01*
X196099658Y-39389078D01*
X195991250Y-39072240D01*
X195889807Y-38882454D01*
X195618763Y-38778845D01*
X195637608Y-38760000D01*
X198730000Y-38760000D01*
X198730000Y-40045335D01*
X198628698Y-41007705D01*
X198628000Y-41021334D01*
X198730000Y-79781564D01*
X198730001Y-137389000D01*
X197109859Y-137389000D01*
X195363749Y-137366025D01*
X195439156Y-137168761D01*
X194437000Y-136166605D01*
X193434844Y-137168761D01*
X193500881Y-137341514D01*
X190144000Y-137297345D01*
X190144000Y-136047023D01*
X192729829Y-136047023D01*
X192774342Y-136378922D01*
X192882750Y-136695760D01*
X192984193Y-136885546D01*
X193255239Y-136989156D01*
X194257395Y-135987000D01*
X194616605Y-135987000D01*
X195618761Y-136989156D01*
X195889807Y-136885546D01*
X196037190Y-136584852D01*
X196123078Y-136261182D01*
X196144171Y-135926977D01*
X196099658Y-135595078D01*
X195991250Y-135278240D01*
X195889807Y-135088454D01*
X195618761Y-134984844D01*
X194616605Y-135987000D01*
X194257395Y-135987000D01*
X193255239Y-134984844D01*
X192984193Y-135088454D01*
X192836810Y-135389148D01*
X192750922Y-135712818D01*
X192729829Y-136047023D01*
X190144000Y-136047023D01*
X190144000Y-134805239D01*
X193434844Y-134805239D01*
X194437000Y-135807395D01*
X195439156Y-134805239D01*
X195335546Y-134534193D01*
X195034852Y-134386810D01*
X194711182Y-134300922D01*
X194376977Y-134279829D01*
X194045078Y-134324342D01*
X193728240Y-134432750D01*
X193538454Y-134534193D01*
X193434844Y-134805239D01*
X190144000Y-134805239D01*
X190144000Y-127519565D01*
X192737000Y-127519565D01*
X192737000Y-127854435D01*
X192802330Y-128182872D01*
X192930479Y-128492252D01*
X193116523Y-128770687D01*
X193353313Y-129007477D01*
X193631748Y-129193521D01*
X193941128Y-129321670D01*
X194269565Y-129387000D01*
X194604435Y-129387000D01*
X194932872Y-129321670D01*
X195242252Y-129193521D01*
X195520687Y-129007477D01*
X195757477Y-128770687D01*
X195943521Y-128492252D01*
X196071670Y-128182872D01*
X196137000Y-127854435D01*
X196137000Y-127519565D01*
X196071670Y-127191128D01*
X195943521Y-126881748D01*
X195757477Y-126603313D01*
X195520687Y-126366523D01*
X195242252Y-126180479D01*
X195144701Y-126140072D01*
X195402000Y-126140072D01*
X195526482Y-126127812D01*
X195646180Y-126091502D01*
X195756494Y-126032537D01*
X195853185Y-125953185D01*
X195932537Y-125856494D01*
X195991502Y-125746180D01*
X196027812Y-125626482D01*
X196040072Y-125502000D01*
X196040072Y-123672000D01*
X196027812Y-123547518D01*
X195991502Y-123427820D01*
X195932537Y-123317506D01*
X195853185Y-123220815D01*
X195756494Y-123141463D01*
X195646180Y-123082498D01*
X195526482Y-123046188D01*
X195402000Y-123033928D01*
X193472000Y-123033928D01*
X193347518Y-123046188D01*
X193227820Y-123082498D01*
X193117506Y-123141463D01*
X193020815Y-123220815D01*
X192941463Y-123317506D01*
X192882498Y-123427820D01*
X192846188Y-123547518D01*
X192833928Y-123672000D01*
X192833928Y-125502000D01*
X192846188Y-125626482D01*
X192882498Y-125746180D01*
X192941463Y-125856494D01*
X193020815Y-125953185D01*
X193117506Y-126032537D01*
X193227820Y-126091502D01*
X193347518Y-126127812D01*
X193472000Y-126140072D01*
X193729299Y-126140072D01*
X193631748Y-126180479D01*
X193353313Y-126366523D01*
X193116523Y-126603313D01*
X192930479Y-126881748D01*
X192802330Y-127191128D01*
X192737000Y-127519565D01*
X190144000Y-127519565D01*
X190144000Y-120175561D01*
X193434844Y-120175561D01*
X193538454Y-120446607D01*
X193839148Y-120593990D01*
X194162818Y-120679878D01*
X194497023Y-120700971D01*
X194828922Y-120656458D01*
X195145760Y-120548050D01*
X195335546Y-120446607D01*
X195439156Y-120175561D01*
X194437000Y-119173405D01*
X193434844Y-120175561D01*
X190144000Y-120175561D01*
X190144000Y-119053823D01*
X192729829Y-119053823D01*
X192774342Y-119385722D01*
X192882750Y-119702560D01*
X192984193Y-119892346D01*
X193255239Y-119995956D01*
X194257395Y-118993800D01*
X194616605Y-118993800D01*
X195618761Y-119995956D01*
X195889807Y-119892346D01*
X196037190Y-119591652D01*
X196123078Y-119267982D01*
X196144171Y-118933777D01*
X196099658Y-118601878D01*
X195991250Y-118285040D01*
X195889807Y-118095254D01*
X195618761Y-117991644D01*
X194616605Y-118993800D01*
X194257395Y-118993800D01*
X193255239Y-117991644D01*
X192984193Y-118095254D01*
X192836810Y-118395948D01*
X192750922Y-118719618D01*
X192729829Y-119053823D01*
X190144000Y-119053823D01*
X190144000Y-117812039D01*
X193434844Y-117812039D01*
X194437000Y-118814195D01*
X195439156Y-117812039D01*
X195335546Y-117540993D01*
X195034852Y-117393610D01*
X194711182Y-117307722D01*
X194376977Y-117286629D01*
X194045078Y-117331142D01*
X193728240Y-117439550D01*
X193538454Y-117540993D01*
X193434844Y-117812039D01*
X190144000Y-117812039D01*
X190144000Y-110526365D01*
X192737000Y-110526365D01*
X192737000Y-110861235D01*
X192802330Y-111189672D01*
X192930479Y-111499052D01*
X193116523Y-111777487D01*
X193353313Y-112014277D01*
X193631748Y-112200321D01*
X193941128Y-112328470D01*
X194269565Y-112393800D01*
X194604435Y-112393800D01*
X194932872Y-112328470D01*
X195242252Y-112200321D01*
X195520687Y-112014277D01*
X195757477Y-111777487D01*
X195943521Y-111499052D01*
X196071670Y-111189672D01*
X196137000Y-110861235D01*
X196137000Y-110526365D01*
X196071670Y-110197928D01*
X195943521Y-109888548D01*
X195757477Y-109610113D01*
X195520687Y-109373323D01*
X195242252Y-109187279D01*
X195144701Y-109146872D01*
X195402000Y-109146872D01*
X195526482Y-109134612D01*
X195646180Y-109098302D01*
X195756494Y-109039337D01*
X195853185Y-108959985D01*
X195932537Y-108863294D01*
X195991502Y-108752980D01*
X196027812Y-108633282D01*
X196040072Y-108508800D01*
X196040072Y-106678800D01*
X196027812Y-106554318D01*
X195991502Y-106434620D01*
X195932537Y-106324306D01*
X195853185Y-106227615D01*
X195756494Y-106148263D01*
X195646180Y-106089298D01*
X195526482Y-106052988D01*
X195402000Y-106040728D01*
X193472000Y-106040728D01*
X193347518Y-106052988D01*
X193227820Y-106089298D01*
X193117506Y-106148263D01*
X193020815Y-106227615D01*
X192941463Y-106324306D01*
X192882498Y-106434620D01*
X192846188Y-106554318D01*
X192833928Y-106678800D01*
X192833928Y-108508800D01*
X192846188Y-108633282D01*
X192882498Y-108752980D01*
X192941463Y-108863294D01*
X193020815Y-108959985D01*
X193117506Y-109039337D01*
X193227820Y-109098302D01*
X193347518Y-109134612D01*
X193472000Y-109146872D01*
X193729299Y-109146872D01*
X193631748Y-109187279D01*
X193353313Y-109373323D01*
X193116523Y-109610113D01*
X192930479Y-109888548D01*
X192802330Y-110197928D01*
X192737000Y-110526365D01*
X190144000Y-110526365D01*
X190144000Y-98893165D01*
X192737000Y-98893165D01*
X192737000Y-99228035D01*
X192802330Y-99556472D01*
X192930479Y-99865852D01*
X193116523Y-100144287D01*
X193353313Y-100381077D01*
X193631748Y-100567121D01*
X193729299Y-100607528D01*
X193472000Y-100607528D01*
X193347518Y-100619788D01*
X193227820Y-100656098D01*
X193117506Y-100715063D01*
X193020815Y-100794415D01*
X192941463Y-100891106D01*
X192882498Y-101001420D01*
X192846188Y-101121118D01*
X192833928Y-101245600D01*
X192833928Y-103075600D01*
X192846188Y-103200082D01*
X192882498Y-103319780D01*
X192941463Y-103430094D01*
X193020815Y-103526785D01*
X193117506Y-103606137D01*
X193227820Y-103665102D01*
X193347518Y-103701412D01*
X193472000Y-103713672D01*
X195402000Y-103713672D01*
X195526482Y-103701412D01*
X195646180Y-103665102D01*
X195756494Y-103606137D01*
X195853185Y-103526785D01*
X195932537Y-103430094D01*
X195991502Y-103319780D01*
X196027812Y-103200082D01*
X196040072Y-103075600D01*
X196040072Y-101245600D01*
X196027812Y-101121118D01*
X195991502Y-101001420D01*
X195932537Y-100891106D01*
X195853185Y-100794415D01*
X195756494Y-100715063D01*
X195646180Y-100656098D01*
X195526482Y-100619788D01*
X195402000Y-100607528D01*
X195144701Y-100607528D01*
X195242252Y-100567121D01*
X195520687Y-100381077D01*
X195757477Y-100144287D01*
X195943521Y-99865852D01*
X196071670Y-99556472D01*
X196137000Y-99228035D01*
X196137000Y-98893165D01*
X196071670Y-98564728D01*
X195943521Y-98255348D01*
X195757477Y-97976913D01*
X195520687Y-97740123D01*
X195242252Y-97554079D01*
X194932872Y-97425930D01*
X194604435Y-97360600D01*
X194269565Y-97360600D01*
X193941128Y-97425930D01*
X193631748Y-97554079D01*
X193353313Y-97740123D01*
X193116523Y-97976913D01*
X192930479Y-98255348D01*
X192802330Y-98564728D01*
X192737000Y-98893165D01*
X190144000Y-98893165D01*
X190144000Y-91942361D01*
X193434844Y-91942361D01*
X193538454Y-92213407D01*
X193839148Y-92360790D01*
X194162818Y-92446678D01*
X194497023Y-92467771D01*
X194828922Y-92423258D01*
X195145760Y-92314850D01*
X195335546Y-92213407D01*
X195439156Y-91942361D01*
X194437000Y-90940205D01*
X193434844Y-91942361D01*
X190144000Y-91942361D01*
X190144000Y-90820623D01*
X192729829Y-90820623D01*
X192774342Y-91152522D01*
X192882750Y-91469360D01*
X192984193Y-91659146D01*
X193255239Y-91762756D01*
X194257395Y-90760600D01*
X194616605Y-90760600D01*
X195618761Y-91762756D01*
X195889807Y-91659146D01*
X196037190Y-91358452D01*
X196123078Y-91034782D01*
X196144171Y-90700577D01*
X196099658Y-90368678D01*
X195991250Y-90051840D01*
X195889807Y-89862054D01*
X195618761Y-89758444D01*
X194616605Y-90760600D01*
X194257395Y-90760600D01*
X193255239Y-89758444D01*
X192984193Y-89862054D01*
X192836810Y-90162748D01*
X192750922Y-90486418D01*
X192729829Y-90820623D01*
X190144000Y-90820623D01*
X190144000Y-89578839D01*
X193434844Y-89578839D01*
X194437000Y-90580995D01*
X195439156Y-89578839D01*
X195335546Y-89307793D01*
X195034852Y-89160410D01*
X194711182Y-89074522D01*
X194376977Y-89053429D01*
X194045078Y-89097942D01*
X193728240Y-89206350D01*
X193538454Y-89307793D01*
X193434844Y-89578839D01*
X190144000Y-89578839D01*
X190144000Y-81899965D01*
X192737000Y-81899965D01*
X192737000Y-82234835D01*
X192802330Y-82563272D01*
X192930479Y-82872652D01*
X193116523Y-83151087D01*
X193353313Y-83387877D01*
X193631748Y-83573921D01*
X193729299Y-83614328D01*
X193472000Y-83614328D01*
X193347518Y-83626588D01*
X193227820Y-83662898D01*
X193117506Y-83721863D01*
X193020815Y-83801215D01*
X192941463Y-83897906D01*
X192882498Y-84008220D01*
X192846188Y-84127918D01*
X192833928Y-84252400D01*
X192833928Y-86082400D01*
X192846188Y-86206882D01*
X192882498Y-86326580D01*
X192941463Y-86436894D01*
X193020815Y-86533585D01*
X193117506Y-86612937D01*
X193227820Y-86671902D01*
X193347518Y-86708212D01*
X193472000Y-86720472D01*
X195402000Y-86720472D01*
X195526482Y-86708212D01*
X195646180Y-86671902D01*
X195756494Y-86612937D01*
X195853185Y-86533585D01*
X195932537Y-86436894D01*
X195991502Y-86326580D01*
X196027812Y-86206882D01*
X196040072Y-86082400D01*
X196040072Y-84252400D01*
X196027812Y-84127918D01*
X195991502Y-84008220D01*
X195932537Y-83897906D01*
X195853185Y-83801215D01*
X195756494Y-83721863D01*
X195646180Y-83662898D01*
X195526482Y-83626588D01*
X195402000Y-83614328D01*
X195144701Y-83614328D01*
X195242252Y-83573921D01*
X195520687Y-83387877D01*
X195757477Y-83151087D01*
X195943521Y-82872652D01*
X196071670Y-82563272D01*
X196137000Y-82234835D01*
X196137000Y-81899965D01*
X196071670Y-81571528D01*
X195943521Y-81262148D01*
X195757477Y-80983713D01*
X195520687Y-80746923D01*
X195242252Y-80560879D01*
X194932872Y-80432730D01*
X194604435Y-80367400D01*
X194269565Y-80367400D01*
X193941128Y-80432730D01*
X193631748Y-80560879D01*
X193353313Y-80746923D01*
X193116523Y-80983713D01*
X192930479Y-81262148D01*
X192802330Y-81571528D01*
X192737000Y-81899965D01*
X190144000Y-81899965D01*
X190144000Y-74949161D01*
X193434844Y-74949161D01*
X193538454Y-75220207D01*
X193839148Y-75367590D01*
X194162818Y-75453478D01*
X194497023Y-75474571D01*
X194828922Y-75430058D01*
X195145760Y-75321650D01*
X195335546Y-75220207D01*
X195439156Y-74949161D01*
X194437000Y-73947005D01*
X193434844Y-74949161D01*
X190144000Y-74949161D01*
X190144000Y-73827423D01*
X192729829Y-73827423D01*
X192774342Y-74159322D01*
X192882750Y-74476160D01*
X192984193Y-74665946D01*
X193255239Y-74769556D01*
X194257395Y-73767400D01*
X194616605Y-73767400D01*
X195618761Y-74769556D01*
X195889807Y-74665946D01*
X196037190Y-74365252D01*
X196123078Y-74041582D01*
X196144171Y-73707377D01*
X196099658Y-73375478D01*
X195991250Y-73058640D01*
X195889807Y-72868854D01*
X195618761Y-72765244D01*
X194616605Y-73767400D01*
X194257395Y-73767400D01*
X193255239Y-72765244D01*
X192984193Y-72868854D01*
X192836810Y-73169548D01*
X192750922Y-73493218D01*
X192729829Y-73827423D01*
X190144000Y-73827423D01*
X190144000Y-72585639D01*
X193434844Y-72585639D01*
X194437000Y-73587795D01*
X195439156Y-72585639D01*
X195335546Y-72314593D01*
X195034852Y-72167210D01*
X194711182Y-72081322D01*
X194376977Y-72060229D01*
X194045078Y-72104742D01*
X193728240Y-72213150D01*
X193538454Y-72314593D01*
X193434844Y-72585639D01*
X190144000Y-72585639D01*
X190144000Y-64906765D01*
X192737000Y-64906765D01*
X192737000Y-65241635D01*
X192802330Y-65570072D01*
X192930479Y-65879452D01*
X193116523Y-66157887D01*
X193353313Y-66394677D01*
X193631748Y-66580721D01*
X193729299Y-66621128D01*
X193472000Y-66621128D01*
X193347518Y-66633388D01*
X193227820Y-66669698D01*
X193117506Y-66728663D01*
X193020815Y-66808015D01*
X192941463Y-66904706D01*
X192882498Y-67015020D01*
X192846188Y-67134718D01*
X192833928Y-67259200D01*
X192833928Y-69089200D01*
X192846188Y-69213682D01*
X192882498Y-69333380D01*
X192941463Y-69443694D01*
X193020815Y-69540385D01*
X193117506Y-69619737D01*
X193227820Y-69678702D01*
X193347518Y-69715012D01*
X193472000Y-69727272D01*
X195402000Y-69727272D01*
X195526482Y-69715012D01*
X195646180Y-69678702D01*
X195756494Y-69619737D01*
X195853185Y-69540385D01*
X195932537Y-69443694D01*
X195991502Y-69333380D01*
X196027812Y-69213682D01*
X196040072Y-69089200D01*
X196040072Y-67259200D01*
X196027812Y-67134718D01*
X195991502Y-67015020D01*
X195932537Y-66904706D01*
X195853185Y-66808015D01*
X195756494Y-66728663D01*
X195646180Y-66669698D01*
X195526482Y-66633388D01*
X195402000Y-66621128D01*
X195144701Y-66621128D01*
X195242252Y-66580721D01*
X195520687Y-66394677D01*
X195757477Y-66157887D01*
X195943521Y-65879452D01*
X196071670Y-65570072D01*
X196137000Y-65241635D01*
X196137000Y-64906765D01*
X196071670Y-64578328D01*
X195943521Y-64268948D01*
X195757477Y-63990513D01*
X195520687Y-63753723D01*
X195242252Y-63567679D01*
X194932872Y-63439530D01*
X194604435Y-63374200D01*
X194269565Y-63374200D01*
X193941128Y-63439530D01*
X193631748Y-63567679D01*
X193353313Y-63753723D01*
X193116523Y-63990513D01*
X192930479Y-64268948D01*
X192802330Y-64578328D01*
X192737000Y-64906765D01*
X190144000Y-64906765D01*
X190144000Y-57955961D01*
X193434844Y-57955961D01*
X193538454Y-58227007D01*
X193839148Y-58374390D01*
X194162818Y-58460278D01*
X194497023Y-58481371D01*
X194828922Y-58436858D01*
X195145760Y-58328450D01*
X195335546Y-58227007D01*
X195439156Y-57955961D01*
X194437000Y-56953805D01*
X193434844Y-57955961D01*
X190144000Y-57955961D01*
X190144000Y-56834223D01*
X192729829Y-56834223D01*
X192774342Y-57166122D01*
X192882750Y-57482960D01*
X192984193Y-57672746D01*
X193255239Y-57776356D01*
X194257395Y-56774200D01*
X194616605Y-56774200D01*
X195618761Y-57776356D01*
X195889807Y-57672746D01*
X196037190Y-57372052D01*
X196123078Y-57048382D01*
X196144171Y-56714177D01*
X196099658Y-56382278D01*
X195991250Y-56065440D01*
X195889807Y-55875654D01*
X195618761Y-55772044D01*
X194616605Y-56774200D01*
X194257395Y-56774200D01*
X193255239Y-55772044D01*
X192984193Y-55875654D01*
X192836810Y-56176348D01*
X192750922Y-56500018D01*
X192729829Y-56834223D01*
X190144000Y-56834223D01*
X190144000Y-55592439D01*
X193434844Y-55592439D01*
X194437000Y-56594595D01*
X195439156Y-55592439D01*
X195335546Y-55321393D01*
X195034852Y-55174010D01*
X194711182Y-55088122D01*
X194376977Y-55067029D01*
X194045078Y-55111542D01*
X193728240Y-55219950D01*
X193538454Y-55321393D01*
X193434844Y-55592439D01*
X190144000Y-55592439D01*
X190144000Y-47913565D01*
X192737000Y-47913565D01*
X192737000Y-48248435D01*
X192802330Y-48576872D01*
X192930479Y-48886252D01*
X193116523Y-49164687D01*
X193353313Y-49401477D01*
X193631748Y-49587521D01*
X193729299Y-49627928D01*
X193472000Y-49627928D01*
X193347518Y-49640188D01*
X193227820Y-49676498D01*
X193117506Y-49735463D01*
X193020815Y-49814815D01*
X192941463Y-49911506D01*
X192882498Y-50021820D01*
X192846188Y-50141518D01*
X192833928Y-50266000D01*
X192833928Y-52096000D01*
X192846188Y-52220482D01*
X192882498Y-52340180D01*
X192941463Y-52450494D01*
X193020815Y-52547185D01*
X193117506Y-52626537D01*
X193227820Y-52685502D01*
X193347518Y-52721812D01*
X193472000Y-52734072D01*
X195402000Y-52734072D01*
X195526482Y-52721812D01*
X195646180Y-52685502D01*
X195756494Y-52626537D01*
X195853185Y-52547185D01*
X195932537Y-52450494D01*
X195991502Y-52340180D01*
X196027812Y-52220482D01*
X196040072Y-52096000D01*
X196040072Y-50266000D01*
X196027812Y-50141518D01*
X195991502Y-50021820D01*
X195932537Y-49911506D01*
X195853185Y-49814815D01*
X195756494Y-49735463D01*
X195646180Y-49676498D01*
X195526482Y-49640188D01*
X195402000Y-49627928D01*
X195144701Y-49627928D01*
X195242252Y-49587521D01*
X195520687Y-49401477D01*
X195757477Y-49164687D01*
X195943521Y-48886252D01*
X196071670Y-48576872D01*
X196137000Y-48248435D01*
X196137000Y-47913565D01*
X196071670Y-47585128D01*
X195943521Y-47275748D01*
X195757477Y-46997313D01*
X195520687Y-46760523D01*
X195242252Y-46574479D01*
X194932872Y-46446330D01*
X194604435Y-46381000D01*
X194269565Y-46381000D01*
X193941128Y-46446330D01*
X193631748Y-46574479D01*
X193353313Y-46760523D01*
X193116523Y-46997313D01*
X192930479Y-47275748D01*
X192802330Y-47585128D01*
X192737000Y-47913565D01*
X190144000Y-47913565D01*
X190144000Y-40962761D01*
X193434844Y-40962761D01*
X193538454Y-41233807D01*
X193839148Y-41381190D01*
X194162818Y-41467078D01*
X194497023Y-41488171D01*
X194828922Y-41443658D01*
X195145760Y-41335250D01*
X195335546Y-41233807D01*
X195439156Y-40962761D01*
X194437000Y-39960605D01*
X193434844Y-40962761D01*
X190144000Y-40962761D01*
X190144000Y-38760000D01*
X193236392Y-38760000D01*
X193255237Y-38778845D01*
X193255237Y-38778845D01*
G37*
X193255237Y-38778845D02*
X192984193Y-38882454D01*
X192836810Y-39183148D01*
X192750922Y-39506818D01*
X192729829Y-39841023D01*
X192774342Y-40172922D01*
X192882750Y-40489760D01*
X192984193Y-40679546D01*
X193255239Y-40783156D01*
X194257395Y-39781000D01*
X194243253Y-39766858D01*
X194422858Y-39587253D01*
X194437000Y-39601395D01*
X194451143Y-39587253D01*
X194630748Y-39766858D01*
X194616605Y-39781000D01*
X195618761Y-40783156D01*
X195889807Y-40679546D01*
X196037190Y-40378852D01*
X196123078Y-40055182D01*
X196144171Y-39720977D01*
X196099658Y-39389078D01*
X195991250Y-39072240D01*
X195889807Y-38882454D01*
X195618763Y-38778845D01*
X195637608Y-38760000D01*
X198730000Y-38760000D01*
X198730000Y-40045335D01*
X198628698Y-41007705D01*
X198628000Y-41021334D01*
X198730000Y-79781564D01*
X198730001Y-137389000D01*
X197109859Y-137389000D01*
X195363749Y-137366025D01*
X195439156Y-137168761D01*
X194437000Y-136166605D01*
X193434844Y-137168761D01*
X193500881Y-137341514D01*
X190144000Y-137297345D01*
X190144000Y-136047023D01*
X192729829Y-136047023D01*
X192774342Y-136378922D01*
X192882750Y-136695760D01*
X192984193Y-136885546D01*
X193255239Y-136989156D01*
X194257395Y-135987000D01*
X194616605Y-135987000D01*
X195618761Y-136989156D01*
X195889807Y-136885546D01*
X196037190Y-136584852D01*
X196123078Y-136261182D01*
X196144171Y-135926977D01*
X196099658Y-135595078D01*
X195991250Y-135278240D01*
X195889807Y-135088454D01*
X195618761Y-134984844D01*
X194616605Y-135987000D01*
X194257395Y-135987000D01*
X193255239Y-134984844D01*
X192984193Y-135088454D01*
X192836810Y-135389148D01*
X192750922Y-135712818D01*
X192729829Y-136047023D01*
X190144000Y-136047023D01*
X190144000Y-134805239D01*
X193434844Y-134805239D01*
X194437000Y-135807395D01*
X195439156Y-134805239D01*
X195335546Y-134534193D01*
X195034852Y-134386810D01*
X194711182Y-134300922D01*
X194376977Y-134279829D01*
X194045078Y-134324342D01*
X193728240Y-134432750D01*
X193538454Y-134534193D01*
X193434844Y-134805239D01*
X190144000Y-134805239D01*
X190144000Y-127519565D01*
X192737000Y-127519565D01*
X192737000Y-127854435D01*
X192802330Y-128182872D01*
X192930479Y-128492252D01*
X193116523Y-128770687D01*
X193353313Y-129007477D01*
X193631748Y-129193521D01*
X193941128Y-129321670D01*
X194269565Y-129387000D01*
X194604435Y-129387000D01*
X194932872Y-129321670D01*
X195242252Y-129193521D01*
X195520687Y-129007477D01*
X195757477Y-128770687D01*
X195943521Y-128492252D01*
X196071670Y-128182872D01*
X196137000Y-127854435D01*
X196137000Y-127519565D01*
X196071670Y-127191128D01*
X195943521Y-126881748D01*
X195757477Y-126603313D01*
X195520687Y-126366523D01*
X195242252Y-126180479D01*
X195144701Y-126140072D01*
X195402000Y-126140072D01*
X195526482Y-126127812D01*
X195646180Y-126091502D01*
X195756494Y-126032537D01*
X195853185Y-125953185D01*
X195932537Y-125856494D01*
X195991502Y-125746180D01*
X196027812Y-125626482D01*
X196040072Y-125502000D01*
X196040072Y-123672000D01*
X196027812Y-123547518D01*
X195991502Y-123427820D01*
X195932537Y-123317506D01*
X195853185Y-123220815D01*
X195756494Y-123141463D01*
X195646180Y-123082498D01*
X195526482Y-123046188D01*
X195402000Y-123033928D01*
X193472000Y-123033928D01*
X193347518Y-123046188D01*
X193227820Y-123082498D01*
X193117506Y-123141463D01*
X193020815Y-123220815D01*
X192941463Y-123317506D01*
X192882498Y-123427820D01*
X192846188Y-123547518D01*
X192833928Y-123672000D01*
X192833928Y-125502000D01*
X192846188Y-125626482D01*
X192882498Y-125746180D01*
X192941463Y-125856494D01*
X193020815Y-125953185D01*
X193117506Y-126032537D01*
X193227820Y-126091502D01*
X193347518Y-126127812D01*
X193472000Y-126140072D01*
X193729299Y-126140072D01*
X193631748Y-126180479D01*
X193353313Y-126366523D01*
X193116523Y-126603313D01*
X192930479Y-126881748D01*
X192802330Y-127191128D01*
X192737000Y-127519565D01*
X190144000Y-127519565D01*
X190144000Y-120175561D01*
X193434844Y-120175561D01*
X193538454Y-120446607D01*
X193839148Y-120593990D01*
X194162818Y-120679878D01*
X194497023Y-120700971D01*
X194828922Y-120656458D01*
X195145760Y-120548050D01*
X195335546Y-120446607D01*
X195439156Y-120175561D01*
X194437000Y-119173405D01*
X193434844Y-120175561D01*
X190144000Y-120175561D01*
X190144000Y-119053823D01*
X192729829Y-119053823D01*
X192774342Y-119385722D01*
X192882750Y-119702560D01*
X192984193Y-119892346D01*
X193255239Y-119995956D01*
X194257395Y-118993800D01*
X194616605Y-118993800D01*
X195618761Y-119995956D01*
X195889807Y-119892346D01*
X196037190Y-119591652D01*
X196123078Y-119267982D01*
X196144171Y-118933777D01*
X196099658Y-118601878D01*
X195991250Y-118285040D01*
X195889807Y-118095254D01*
X195618761Y-117991644D01*
X194616605Y-118993800D01*
X194257395Y-118993800D01*
X193255239Y-117991644D01*
X192984193Y-118095254D01*
X192836810Y-118395948D01*
X192750922Y-118719618D01*
X192729829Y-119053823D01*
X190144000Y-119053823D01*
X190144000Y-117812039D01*
X193434844Y-117812039D01*
X194437000Y-118814195D01*
X195439156Y-117812039D01*
X195335546Y-117540993D01*
X195034852Y-117393610D01*
X194711182Y-117307722D01*
X194376977Y-117286629D01*
X194045078Y-117331142D01*
X193728240Y-117439550D01*
X193538454Y-117540993D01*
X193434844Y-117812039D01*
X190144000Y-117812039D01*
X190144000Y-110526365D01*
X192737000Y-110526365D01*
X192737000Y-110861235D01*
X192802330Y-111189672D01*
X192930479Y-111499052D01*
X193116523Y-111777487D01*
X193353313Y-112014277D01*
X193631748Y-112200321D01*
X193941128Y-112328470D01*
X194269565Y-112393800D01*
X194604435Y-112393800D01*
X194932872Y-112328470D01*
X195242252Y-112200321D01*
X195520687Y-112014277D01*
X195757477Y-111777487D01*
X195943521Y-111499052D01*
X196071670Y-111189672D01*
X196137000Y-110861235D01*
X196137000Y-110526365D01*
X196071670Y-110197928D01*
X195943521Y-109888548D01*
X195757477Y-109610113D01*
X195520687Y-109373323D01*
X195242252Y-109187279D01*
X195144701Y-109146872D01*
X195402000Y-109146872D01*
X195526482Y-109134612D01*
X195646180Y-109098302D01*
X195756494Y-109039337D01*
X195853185Y-108959985D01*
X195932537Y-108863294D01*
X195991502Y-108752980D01*
X196027812Y-108633282D01*
X196040072Y-108508800D01*
X196040072Y-106678800D01*
X196027812Y-106554318D01*
X195991502Y-106434620D01*
X195932537Y-106324306D01*
X195853185Y-106227615D01*
X195756494Y-106148263D01*
X195646180Y-106089298D01*
X195526482Y-106052988D01*
X195402000Y-106040728D01*
X193472000Y-106040728D01*
X193347518Y-106052988D01*
X193227820Y-106089298D01*
X193117506Y-106148263D01*
X193020815Y-106227615D01*
X192941463Y-106324306D01*
X192882498Y-106434620D01*
X192846188Y-106554318D01*
X192833928Y-106678800D01*
X192833928Y-108508800D01*
X192846188Y-108633282D01*
X192882498Y-108752980D01*
X192941463Y-108863294D01*
X193020815Y-108959985D01*
X193117506Y-109039337D01*
X193227820Y-109098302D01*
X193347518Y-109134612D01*
X193472000Y-109146872D01*
X193729299Y-109146872D01*
X193631748Y-109187279D01*
X193353313Y-109373323D01*
X193116523Y-109610113D01*
X192930479Y-109888548D01*
X192802330Y-110197928D01*
X192737000Y-110526365D01*
X190144000Y-110526365D01*
X190144000Y-98893165D01*
X192737000Y-98893165D01*
X192737000Y-99228035D01*
X192802330Y-99556472D01*
X192930479Y-99865852D01*
X193116523Y-100144287D01*
X193353313Y-100381077D01*
X193631748Y-100567121D01*
X193729299Y-100607528D01*
X193472000Y-100607528D01*
X193347518Y-100619788D01*
X193227820Y-100656098D01*
X193117506Y-100715063D01*
X193020815Y-100794415D01*
X192941463Y-100891106D01*
X192882498Y-101001420D01*
X192846188Y-101121118D01*
X192833928Y-101245600D01*
X192833928Y-103075600D01*
X192846188Y-103200082D01*
X192882498Y-103319780D01*
X192941463Y-103430094D01*
X193020815Y-103526785D01*
X193117506Y-103606137D01*
X193227820Y-103665102D01*
X193347518Y-103701412D01*
X193472000Y-103713672D01*
X195402000Y-103713672D01*
X195526482Y-103701412D01*
X195646180Y-103665102D01*
X195756494Y-103606137D01*
X195853185Y-103526785D01*
X195932537Y-103430094D01*
X195991502Y-103319780D01*
X196027812Y-103200082D01*
X196040072Y-103075600D01*
X196040072Y-101245600D01*
X196027812Y-101121118D01*
X195991502Y-101001420D01*
X195932537Y-100891106D01*
X195853185Y-100794415D01*
X195756494Y-100715063D01*
X195646180Y-100656098D01*
X195526482Y-100619788D01*
X195402000Y-100607528D01*
X195144701Y-100607528D01*
X195242252Y-100567121D01*
X195520687Y-100381077D01*
X195757477Y-100144287D01*
X195943521Y-99865852D01*
X196071670Y-99556472D01*
X196137000Y-99228035D01*
X196137000Y-98893165D01*
X196071670Y-98564728D01*
X195943521Y-98255348D01*
X195757477Y-97976913D01*
X195520687Y-97740123D01*
X195242252Y-97554079D01*
X194932872Y-97425930D01*
X194604435Y-97360600D01*
X194269565Y-97360600D01*
X193941128Y-97425930D01*
X193631748Y-97554079D01*
X193353313Y-97740123D01*
X193116523Y-97976913D01*
X192930479Y-98255348D01*
X192802330Y-98564728D01*
X192737000Y-98893165D01*
X190144000Y-98893165D01*
X190144000Y-91942361D01*
X193434844Y-91942361D01*
X193538454Y-92213407D01*
X193839148Y-92360790D01*
X194162818Y-92446678D01*
X194497023Y-92467771D01*
X194828922Y-92423258D01*
X195145760Y-92314850D01*
X195335546Y-92213407D01*
X195439156Y-91942361D01*
X194437000Y-90940205D01*
X193434844Y-91942361D01*
X190144000Y-91942361D01*
X190144000Y-90820623D01*
X192729829Y-90820623D01*
X192774342Y-91152522D01*
X192882750Y-91469360D01*
X192984193Y-91659146D01*
X193255239Y-91762756D01*
X194257395Y-90760600D01*
X194616605Y-90760600D01*
X195618761Y-91762756D01*
X195889807Y-91659146D01*
X196037190Y-91358452D01*
X196123078Y-91034782D01*
X196144171Y-90700577D01*
X196099658Y-90368678D01*
X195991250Y-90051840D01*
X195889807Y-89862054D01*
X195618761Y-89758444D01*
X194616605Y-90760600D01*
X194257395Y-90760600D01*
X193255239Y-89758444D01*
X192984193Y-89862054D01*
X192836810Y-90162748D01*
X192750922Y-90486418D01*
X192729829Y-90820623D01*
X190144000Y-90820623D01*
X190144000Y-89578839D01*
X193434844Y-89578839D01*
X194437000Y-90580995D01*
X195439156Y-89578839D01*
X195335546Y-89307793D01*
X195034852Y-89160410D01*
X194711182Y-89074522D01*
X194376977Y-89053429D01*
X194045078Y-89097942D01*
X193728240Y-89206350D01*
X193538454Y-89307793D01*
X193434844Y-89578839D01*
X190144000Y-89578839D01*
X190144000Y-81899965D01*
X192737000Y-81899965D01*
X192737000Y-82234835D01*
X192802330Y-82563272D01*
X192930479Y-82872652D01*
X193116523Y-83151087D01*
X193353313Y-83387877D01*
X193631748Y-83573921D01*
X193729299Y-83614328D01*
X193472000Y-83614328D01*
X193347518Y-83626588D01*
X193227820Y-83662898D01*
X193117506Y-83721863D01*
X193020815Y-83801215D01*
X192941463Y-83897906D01*
X192882498Y-84008220D01*
X192846188Y-84127918D01*
X192833928Y-84252400D01*
X192833928Y-86082400D01*
X192846188Y-86206882D01*
X192882498Y-86326580D01*
X192941463Y-86436894D01*
X193020815Y-86533585D01*
X193117506Y-86612937D01*
X193227820Y-86671902D01*
X193347518Y-86708212D01*
X193472000Y-86720472D01*
X195402000Y-86720472D01*
X195526482Y-86708212D01*
X195646180Y-86671902D01*
X195756494Y-86612937D01*
X195853185Y-86533585D01*
X195932537Y-86436894D01*
X195991502Y-86326580D01*
X196027812Y-86206882D01*
X196040072Y-86082400D01*
X196040072Y-84252400D01*
X196027812Y-84127918D01*
X195991502Y-84008220D01*
X195932537Y-83897906D01*
X195853185Y-83801215D01*
X195756494Y-83721863D01*
X195646180Y-83662898D01*
X195526482Y-83626588D01*
X195402000Y-83614328D01*
X195144701Y-83614328D01*
X195242252Y-83573921D01*
X195520687Y-83387877D01*
X195757477Y-83151087D01*
X195943521Y-82872652D01*
X196071670Y-82563272D01*
X196137000Y-82234835D01*
X196137000Y-81899965D01*
X196071670Y-81571528D01*
X195943521Y-81262148D01*
X195757477Y-80983713D01*
X195520687Y-80746923D01*
X195242252Y-80560879D01*
X194932872Y-80432730D01*
X194604435Y-80367400D01*
X194269565Y-80367400D01*
X193941128Y-80432730D01*
X193631748Y-80560879D01*
X193353313Y-80746923D01*
X193116523Y-80983713D01*
X192930479Y-81262148D01*
X192802330Y-81571528D01*
X192737000Y-81899965D01*
X190144000Y-81899965D01*
X190144000Y-74949161D01*
X193434844Y-74949161D01*
X193538454Y-75220207D01*
X193839148Y-75367590D01*
X194162818Y-75453478D01*
X194497023Y-75474571D01*
X194828922Y-75430058D01*
X195145760Y-75321650D01*
X195335546Y-75220207D01*
X195439156Y-74949161D01*
X194437000Y-73947005D01*
X193434844Y-74949161D01*
X190144000Y-74949161D01*
X190144000Y-73827423D01*
X192729829Y-73827423D01*
X192774342Y-74159322D01*
X192882750Y-74476160D01*
X192984193Y-74665946D01*
X193255239Y-74769556D01*
X194257395Y-73767400D01*
X194616605Y-73767400D01*
X195618761Y-74769556D01*
X195889807Y-74665946D01*
X196037190Y-74365252D01*
X196123078Y-74041582D01*
X196144171Y-73707377D01*
X196099658Y-73375478D01*
X195991250Y-73058640D01*
X195889807Y-72868854D01*
X195618761Y-72765244D01*
X194616605Y-73767400D01*
X194257395Y-73767400D01*
X193255239Y-72765244D01*
X192984193Y-72868854D01*
X192836810Y-73169548D01*
X192750922Y-73493218D01*
X192729829Y-73827423D01*
X190144000Y-73827423D01*
X190144000Y-72585639D01*
X193434844Y-72585639D01*
X194437000Y-73587795D01*
X195439156Y-72585639D01*
X195335546Y-72314593D01*
X195034852Y-72167210D01*
X194711182Y-72081322D01*
X194376977Y-72060229D01*
X194045078Y-72104742D01*
X193728240Y-72213150D01*
X193538454Y-72314593D01*
X193434844Y-72585639D01*
X190144000Y-72585639D01*
X190144000Y-64906765D01*
X192737000Y-64906765D01*
X192737000Y-65241635D01*
X192802330Y-65570072D01*
X192930479Y-65879452D01*
X193116523Y-66157887D01*
X193353313Y-66394677D01*
X193631748Y-66580721D01*
X193729299Y-66621128D01*
X193472000Y-66621128D01*
X193347518Y-66633388D01*
X193227820Y-66669698D01*
X193117506Y-66728663D01*
X193020815Y-66808015D01*
X192941463Y-66904706D01*
X192882498Y-67015020D01*
X192846188Y-67134718D01*
X192833928Y-67259200D01*
X192833928Y-69089200D01*
X192846188Y-69213682D01*
X192882498Y-69333380D01*
X192941463Y-69443694D01*
X193020815Y-69540385D01*
X193117506Y-69619737D01*
X193227820Y-69678702D01*
X193347518Y-69715012D01*
X193472000Y-69727272D01*
X195402000Y-69727272D01*
X195526482Y-69715012D01*
X195646180Y-69678702D01*
X195756494Y-69619737D01*
X195853185Y-69540385D01*
X195932537Y-69443694D01*
X195991502Y-69333380D01*
X196027812Y-69213682D01*
X196040072Y-69089200D01*
X196040072Y-67259200D01*
X196027812Y-67134718D01*
X195991502Y-67015020D01*
X195932537Y-66904706D01*
X195853185Y-66808015D01*
X195756494Y-66728663D01*
X195646180Y-66669698D01*
X195526482Y-66633388D01*
X195402000Y-66621128D01*
X195144701Y-66621128D01*
X195242252Y-66580721D01*
X195520687Y-66394677D01*
X195757477Y-66157887D01*
X195943521Y-65879452D01*
X196071670Y-65570072D01*
X196137000Y-65241635D01*
X196137000Y-64906765D01*
X196071670Y-64578328D01*
X195943521Y-64268948D01*
X195757477Y-63990513D01*
X195520687Y-63753723D01*
X195242252Y-63567679D01*
X194932872Y-63439530D01*
X194604435Y-63374200D01*
X194269565Y-63374200D01*
X193941128Y-63439530D01*
X193631748Y-63567679D01*
X193353313Y-63753723D01*
X193116523Y-63990513D01*
X192930479Y-64268948D01*
X192802330Y-64578328D01*
X192737000Y-64906765D01*
X190144000Y-64906765D01*
X190144000Y-57955961D01*
X193434844Y-57955961D01*
X193538454Y-58227007D01*
X193839148Y-58374390D01*
X194162818Y-58460278D01*
X194497023Y-58481371D01*
X194828922Y-58436858D01*
X195145760Y-58328450D01*
X195335546Y-58227007D01*
X195439156Y-57955961D01*
X194437000Y-56953805D01*
X193434844Y-57955961D01*
X190144000Y-57955961D01*
X190144000Y-56834223D01*
X192729829Y-56834223D01*
X192774342Y-57166122D01*
X192882750Y-57482960D01*
X192984193Y-57672746D01*
X193255239Y-57776356D01*
X194257395Y-56774200D01*
X194616605Y-56774200D01*
X195618761Y-57776356D01*
X195889807Y-57672746D01*
X196037190Y-57372052D01*
X196123078Y-57048382D01*
X196144171Y-56714177D01*
X196099658Y-56382278D01*
X195991250Y-56065440D01*
X195889807Y-55875654D01*
X195618761Y-55772044D01*
X194616605Y-56774200D01*
X194257395Y-56774200D01*
X193255239Y-55772044D01*
X192984193Y-55875654D01*
X192836810Y-56176348D01*
X192750922Y-56500018D01*
X192729829Y-56834223D01*
X190144000Y-56834223D01*
X190144000Y-55592439D01*
X193434844Y-55592439D01*
X194437000Y-56594595D01*
X195439156Y-55592439D01*
X195335546Y-55321393D01*
X195034852Y-55174010D01*
X194711182Y-55088122D01*
X194376977Y-55067029D01*
X194045078Y-55111542D01*
X193728240Y-55219950D01*
X193538454Y-55321393D01*
X193434844Y-55592439D01*
X190144000Y-55592439D01*
X190144000Y-47913565D01*
X192737000Y-47913565D01*
X192737000Y-48248435D01*
X192802330Y-48576872D01*
X192930479Y-48886252D01*
X193116523Y-49164687D01*
X193353313Y-49401477D01*
X193631748Y-49587521D01*
X193729299Y-49627928D01*
X193472000Y-49627928D01*
X193347518Y-49640188D01*
X193227820Y-49676498D01*
X193117506Y-49735463D01*
X193020815Y-49814815D01*
X192941463Y-49911506D01*
X192882498Y-50021820D01*
X192846188Y-50141518D01*
X192833928Y-50266000D01*
X192833928Y-52096000D01*
X192846188Y-52220482D01*
X192882498Y-52340180D01*
X192941463Y-52450494D01*
X193020815Y-52547185D01*
X193117506Y-52626537D01*
X193227820Y-52685502D01*
X193347518Y-52721812D01*
X193472000Y-52734072D01*
X195402000Y-52734072D01*
X195526482Y-52721812D01*
X195646180Y-52685502D01*
X195756494Y-52626537D01*
X195853185Y-52547185D01*
X195932537Y-52450494D01*
X195991502Y-52340180D01*
X196027812Y-52220482D01*
X196040072Y-52096000D01*
X196040072Y-50266000D01*
X196027812Y-50141518D01*
X195991502Y-50021820D01*
X195932537Y-49911506D01*
X195853185Y-49814815D01*
X195756494Y-49735463D01*
X195646180Y-49676498D01*
X195526482Y-49640188D01*
X195402000Y-49627928D01*
X195144701Y-49627928D01*
X195242252Y-49587521D01*
X195520687Y-49401477D01*
X195757477Y-49164687D01*
X195943521Y-48886252D01*
X196071670Y-48576872D01*
X196137000Y-48248435D01*
X196137000Y-47913565D01*
X196071670Y-47585128D01*
X195943521Y-47275748D01*
X195757477Y-46997313D01*
X195520687Y-46760523D01*
X195242252Y-46574479D01*
X194932872Y-46446330D01*
X194604435Y-46381000D01*
X194269565Y-46381000D01*
X193941128Y-46446330D01*
X193631748Y-46574479D01*
X193353313Y-46760523D01*
X193116523Y-46997313D01*
X192930479Y-47275748D01*
X192802330Y-47585128D01*
X192737000Y-47913565D01*
X190144000Y-47913565D01*
X190144000Y-40962761D01*
X193434844Y-40962761D01*
X193538454Y-41233807D01*
X193839148Y-41381190D01*
X194162818Y-41467078D01*
X194497023Y-41488171D01*
X194828922Y-41443658D01*
X195145760Y-41335250D01*
X195335546Y-41233807D01*
X195439156Y-40962761D01*
X194437000Y-39960605D01*
X193434844Y-40962761D01*
X190144000Y-40962761D01*
X190144000Y-38760000D01*
X193236392Y-38760000D01*
X193255237Y-38778845D01*
M02*
