G04 #@! TF.GenerationSoftware,KiCad,Pcbnew,(5.1.0)-1*
G04 #@! TF.CreationDate,2019-04-12T00:03:04-04:00*
G04 #@! TF.ProjectId,passive_mults,70617373-6976-4655-9f6d-756c74732e6b,rev?*
G04 #@! TF.SameCoordinates,Original*
G04 #@! TF.FileFunction,Soldermask,Top*
G04 #@! TF.FilePolarity,Negative*
%FSLAX46Y46*%
G04 Gerber Fmt 4.6, Leading zero omitted, Abs format (unit mm)*
G04 Created by KiCad (PCBNEW (5.1.0)-1) date 2019-04-12 00:03:04*
%MOMM*%
%LPD*%
G04 APERTURE LIST*
%ADD10C,0.100000*%
G04 APERTURE END LIST*
D10*
G36*
X194690655Y-134899591D02*
G01*
X194762525Y-134913887D01*
X194965624Y-134998013D01*
X195148409Y-135120146D01*
X195303854Y-135275591D01*
X195425987Y-135458376D01*
X195510113Y-135661475D01*
X195553000Y-135877084D01*
X195553000Y-136096916D01*
X195510113Y-136312525D01*
X195425987Y-136515624D01*
X195303854Y-136698409D01*
X195148409Y-136853854D01*
X194965624Y-136975987D01*
X194762525Y-137060113D01*
X194690655Y-137074409D01*
X194546918Y-137103000D01*
X194327082Y-137103000D01*
X194183345Y-137074409D01*
X194111475Y-137060113D01*
X193908376Y-136975987D01*
X193725591Y-136853854D01*
X193570146Y-136698409D01*
X193448013Y-136515624D01*
X193363887Y-136312525D01*
X193321000Y-136096916D01*
X193321000Y-135877084D01*
X193363887Y-135661475D01*
X193448013Y-135458376D01*
X193570146Y-135275591D01*
X193725591Y-135120146D01*
X193908376Y-134998013D01*
X194111475Y-134913887D01*
X194183345Y-134899591D01*
X194327082Y-134871000D01*
X194546918Y-134871000D01*
X194690655Y-134899591D01*
X194690655Y-134899591D01*
G37*
G36*
X194690655Y-126599591D02*
G01*
X194762525Y-126613887D01*
X194965624Y-126698013D01*
X195148409Y-126820146D01*
X195303854Y-126975591D01*
X195425987Y-127158376D01*
X195510113Y-127361475D01*
X195553000Y-127577084D01*
X195553000Y-127796916D01*
X195510113Y-128012525D01*
X195425987Y-128215624D01*
X195303854Y-128398409D01*
X195148409Y-128553854D01*
X194965624Y-128675987D01*
X194762525Y-128760113D01*
X194690655Y-128774409D01*
X194546918Y-128803000D01*
X194327082Y-128803000D01*
X194183345Y-128774409D01*
X194111475Y-128760113D01*
X193908376Y-128675987D01*
X193725591Y-128553854D01*
X193570146Y-128398409D01*
X193448013Y-128215624D01*
X193363887Y-128012525D01*
X193321000Y-127796916D01*
X193321000Y-127577084D01*
X193363887Y-127361475D01*
X193448013Y-127158376D01*
X193570146Y-126975591D01*
X193725591Y-126820146D01*
X193908376Y-126698013D01*
X194111475Y-126613887D01*
X194183345Y-126599591D01*
X194327082Y-126571000D01*
X194546918Y-126571000D01*
X194690655Y-126599591D01*
X194690655Y-126599591D01*
G37*
G36*
X195453000Y-125553000D02*
G01*
X193421000Y-125553000D01*
X193421000Y-123621000D01*
X195453000Y-123621000D01*
X195453000Y-125553000D01*
X195453000Y-125553000D01*
G37*
G36*
X194690655Y-117906391D02*
G01*
X194762525Y-117920687D01*
X194965624Y-118004813D01*
X195148409Y-118126946D01*
X195303854Y-118282391D01*
X195425987Y-118465176D01*
X195510113Y-118668275D01*
X195553000Y-118883884D01*
X195553000Y-119103716D01*
X195510113Y-119319325D01*
X195425987Y-119522424D01*
X195303854Y-119705209D01*
X195148409Y-119860654D01*
X194965624Y-119982787D01*
X194762525Y-120066913D01*
X194690655Y-120081209D01*
X194546918Y-120109800D01*
X194327082Y-120109800D01*
X194183345Y-120081209D01*
X194111475Y-120066913D01*
X193908376Y-119982787D01*
X193725591Y-119860654D01*
X193570146Y-119705209D01*
X193448013Y-119522424D01*
X193363887Y-119319325D01*
X193321000Y-119103716D01*
X193321000Y-118883884D01*
X193363887Y-118668275D01*
X193448013Y-118465176D01*
X193570146Y-118282391D01*
X193725591Y-118126946D01*
X193908376Y-118004813D01*
X194111475Y-117920687D01*
X194183345Y-117906391D01*
X194327082Y-117877800D01*
X194546918Y-117877800D01*
X194690655Y-117906391D01*
X194690655Y-117906391D01*
G37*
G36*
X194690655Y-109606391D02*
G01*
X194762525Y-109620687D01*
X194965624Y-109704813D01*
X195148409Y-109826946D01*
X195303854Y-109982391D01*
X195425987Y-110165176D01*
X195510113Y-110368275D01*
X195553000Y-110583884D01*
X195553000Y-110803716D01*
X195510113Y-111019325D01*
X195425987Y-111222424D01*
X195303854Y-111405209D01*
X195148409Y-111560654D01*
X194965624Y-111682787D01*
X194762525Y-111766913D01*
X194690655Y-111781209D01*
X194546918Y-111809800D01*
X194327082Y-111809800D01*
X194183345Y-111781209D01*
X194111475Y-111766913D01*
X193908376Y-111682787D01*
X193725591Y-111560654D01*
X193570146Y-111405209D01*
X193448013Y-111222424D01*
X193363887Y-111019325D01*
X193321000Y-110803716D01*
X193321000Y-110583884D01*
X193363887Y-110368275D01*
X193448013Y-110165176D01*
X193570146Y-109982391D01*
X193725591Y-109826946D01*
X193908376Y-109704813D01*
X194111475Y-109620687D01*
X194183345Y-109606391D01*
X194327082Y-109577800D01*
X194546918Y-109577800D01*
X194690655Y-109606391D01*
X194690655Y-109606391D01*
G37*
G36*
X195453000Y-108559800D02*
G01*
X193421000Y-108559800D01*
X193421000Y-106627800D01*
X195453000Y-106627800D01*
X195453000Y-108559800D01*
X195453000Y-108559800D01*
G37*
G36*
X195453000Y-103126600D02*
G01*
X193421000Y-103126600D01*
X193421000Y-101194600D01*
X195453000Y-101194600D01*
X195453000Y-103126600D01*
X195453000Y-103126600D01*
G37*
G36*
X194690655Y-97973191D02*
G01*
X194762525Y-97987487D01*
X194965624Y-98071613D01*
X195148409Y-98193746D01*
X195303854Y-98349191D01*
X195425987Y-98531976D01*
X195510113Y-98735075D01*
X195553000Y-98950684D01*
X195553000Y-99170516D01*
X195510113Y-99386125D01*
X195425987Y-99589224D01*
X195303854Y-99772009D01*
X195148409Y-99927454D01*
X194965624Y-100049587D01*
X194762525Y-100133713D01*
X194690655Y-100148009D01*
X194546918Y-100176600D01*
X194327082Y-100176600D01*
X194183345Y-100148009D01*
X194111475Y-100133713D01*
X193908376Y-100049587D01*
X193725591Y-99927454D01*
X193570146Y-99772009D01*
X193448013Y-99589224D01*
X193363887Y-99386125D01*
X193321000Y-99170516D01*
X193321000Y-98950684D01*
X193363887Y-98735075D01*
X193448013Y-98531976D01*
X193570146Y-98349191D01*
X193725591Y-98193746D01*
X193908376Y-98071613D01*
X194111475Y-97987487D01*
X194183345Y-97973191D01*
X194327082Y-97944600D01*
X194546918Y-97944600D01*
X194690655Y-97973191D01*
X194690655Y-97973191D01*
G37*
G36*
X194690655Y-89673191D02*
G01*
X194762525Y-89687487D01*
X194965624Y-89771613D01*
X195148409Y-89893746D01*
X195303854Y-90049191D01*
X195425987Y-90231976D01*
X195510113Y-90435075D01*
X195553000Y-90650684D01*
X195553000Y-90870516D01*
X195510113Y-91086125D01*
X195425987Y-91289224D01*
X195303854Y-91472009D01*
X195148409Y-91627454D01*
X194965624Y-91749587D01*
X194762525Y-91833713D01*
X194690655Y-91848009D01*
X194546918Y-91876600D01*
X194327082Y-91876600D01*
X194183345Y-91848009D01*
X194111475Y-91833713D01*
X193908376Y-91749587D01*
X193725591Y-91627454D01*
X193570146Y-91472009D01*
X193448013Y-91289224D01*
X193363887Y-91086125D01*
X193321000Y-90870516D01*
X193321000Y-90650684D01*
X193363887Y-90435075D01*
X193448013Y-90231976D01*
X193570146Y-90049191D01*
X193725591Y-89893746D01*
X193908376Y-89771613D01*
X194111475Y-89687487D01*
X194183345Y-89673191D01*
X194327082Y-89644600D01*
X194546918Y-89644600D01*
X194690655Y-89673191D01*
X194690655Y-89673191D01*
G37*
G36*
X195453000Y-86133400D02*
G01*
X193421000Y-86133400D01*
X193421000Y-84201400D01*
X195453000Y-84201400D01*
X195453000Y-86133400D01*
X195453000Y-86133400D01*
G37*
G36*
X194690655Y-80979991D02*
G01*
X194762525Y-80994287D01*
X194965624Y-81078413D01*
X195148409Y-81200546D01*
X195303854Y-81355991D01*
X195425987Y-81538776D01*
X195510113Y-81741875D01*
X195553000Y-81957484D01*
X195553000Y-82177316D01*
X195510113Y-82392925D01*
X195425987Y-82596024D01*
X195303854Y-82778809D01*
X195148409Y-82934254D01*
X194965624Y-83056387D01*
X194762525Y-83140513D01*
X194690655Y-83154809D01*
X194546918Y-83183400D01*
X194327082Y-83183400D01*
X194183345Y-83154809D01*
X194111475Y-83140513D01*
X193908376Y-83056387D01*
X193725591Y-82934254D01*
X193570146Y-82778809D01*
X193448013Y-82596024D01*
X193363887Y-82392925D01*
X193321000Y-82177316D01*
X193321000Y-81957484D01*
X193363887Y-81741875D01*
X193448013Y-81538776D01*
X193570146Y-81355991D01*
X193725591Y-81200546D01*
X193908376Y-81078413D01*
X194111475Y-80994287D01*
X194183345Y-80979991D01*
X194327082Y-80951400D01*
X194546918Y-80951400D01*
X194690655Y-80979991D01*
X194690655Y-80979991D01*
G37*
G36*
X194690655Y-72679991D02*
G01*
X194762525Y-72694287D01*
X194965624Y-72778413D01*
X195148409Y-72900546D01*
X195303854Y-73055991D01*
X195425987Y-73238776D01*
X195510113Y-73441875D01*
X195553000Y-73657484D01*
X195553000Y-73877316D01*
X195510113Y-74092925D01*
X195425987Y-74296024D01*
X195303854Y-74478809D01*
X195148409Y-74634254D01*
X194965624Y-74756387D01*
X194762525Y-74840513D01*
X194690655Y-74854809D01*
X194546918Y-74883400D01*
X194327082Y-74883400D01*
X194183345Y-74854809D01*
X194111475Y-74840513D01*
X193908376Y-74756387D01*
X193725591Y-74634254D01*
X193570146Y-74478809D01*
X193448013Y-74296024D01*
X193363887Y-74092925D01*
X193321000Y-73877316D01*
X193321000Y-73657484D01*
X193363887Y-73441875D01*
X193448013Y-73238776D01*
X193570146Y-73055991D01*
X193725591Y-72900546D01*
X193908376Y-72778413D01*
X194111475Y-72694287D01*
X194183345Y-72679991D01*
X194327082Y-72651400D01*
X194546918Y-72651400D01*
X194690655Y-72679991D01*
X194690655Y-72679991D01*
G37*
G36*
X195453000Y-69140200D02*
G01*
X193421000Y-69140200D01*
X193421000Y-67208200D01*
X195453000Y-67208200D01*
X195453000Y-69140200D01*
X195453000Y-69140200D01*
G37*
G36*
X194690655Y-63986791D02*
G01*
X194762525Y-64001087D01*
X194965624Y-64085213D01*
X195148409Y-64207346D01*
X195303854Y-64362791D01*
X195425987Y-64545576D01*
X195510113Y-64748675D01*
X195553000Y-64964284D01*
X195553000Y-65184116D01*
X195510113Y-65399725D01*
X195425987Y-65602824D01*
X195303854Y-65785609D01*
X195148409Y-65941054D01*
X194965624Y-66063187D01*
X194762525Y-66147313D01*
X194690655Y-66161609D01*
X194546918Y-66190200D01*
X194327082Y-66190200D01*
X194183345Y-66161609D01*
X194111475Y-66147313D01*
X193908376Y-66063187D01*
X193725591Y-65941054D01*
X193570146Y-65785609D01*
X193448013Y-65602824D01*
X193363887Y-65399725D01*
X193321000Y-65184116D01*
X193321000Y-64964284D01*
X193363887Y-64748675D01*
X193448013Y-64545576D01*
X193570146Y-64362791D01*
X193725591Y-64207346D01*
X193908376Y-64085213D01*
X194111475Y-64001087D01*
X194183345Y-63986791D01*
X194327082Y-63958200D01*
X194546918Y-63958200D01*
X194690655Y-63986791D01*
X194690655Y-63986791D01*
G37*
G36*
X194690655Y-55686791D02*
G01*
X194762525Y-55701087D01*
X194965624Y-55785213D01*
X195148409Y-55907346D01*
X195303854Y-56062791D01*
X195425987Y-56245576D01*
X195510113Y-56448675D01*
X195553000Y-56664284D01*
X195553000Y-56884116D01*
X195510113Y-57099725D01*
X195425987Y-57302824D01*
X195303854Y-57485609D01*
X195148409Y-57641054D01*
X194965624Y-57763187D01*
X194762525Y-57847313D01*
X194690655Y-57861609D01*
X194546918Y-57890200D01*
X194327082Y-57890200D01*
X194183345Y-57861609D01*
X194111475Y-57847313D01*
X193908376Y-57763187D01*
X193725591Y-57641054D01*
X193570146Y-57485609D01*
X193448013Y-57302824D01*
X193363887Y-57099725D01*
X193321000Y-56884116D01*
X193321000Y-56664284D01*
X193363887Y-56448675D01*
X193448013Y-56245576D01*
X193570146Y-56062791D01*
X193725591Y-55907346D01*
X193908376Y-55785213D01*
X194111475Y-55701087D01*
X194183345Y-55686791D01*
X194327082Y-55658200D01*
X194546918Y-55658200D01*
X194690655Y-55686791D01*
X194690655Y-55686791D01*
G37*
G36*
X195453000Y-52147000D02*
G01*
X193421000Y-52147000D01*
X193421000Y-50215000D01*
X195453000Y-50215000D01*
X195453000Y-52147000D01*
X195453000Y-52147000D01*
G37*
G36*
X194690655Y-46993591D02*
G01*
X194762525Y-47007887D01*
X194965624Y-47092013D01*
X195148409Y-47214146D01*
X195303854Y-47369591D01*
X195425987Y-47552376D01*
X195510113Y-47755475D01*
X195553000Y-47971084D01*
X195553000Y-48190916D01*
X195510113Y-48406525D01*
X195425987Y-48609624D01*
X195303854Y-48792409D01*
X195148409Y-48947854D01*
X194965624Y-49069987D01*
X194762525Y-49154113D01*
X194690655Y-49168409D01*
X194546918Y-49197000D01*
X194327082Y-49197000D01*
X194183345Y-49168409D01*
X194111475Y-49154113D01*
X193908376Y-49069987D01*
X193725591Y-48947854D01*
X193570146Y-48792409D01*
X193448013Y-48609624D01*
X193363887Y-48406525D01*
X193321000Y-48190916D01*
X193321000Y-47971084D01*
X193363887Y-47755475D01*
X193448013Y-47552376D01*
X193570146Y-47369591D01*
X193725591Y-47214146D01*
X193908376Y-47092013D01*
X194111475Y-47007887D01*
X194183345Y-46993591D01*
X194327082Y-46965000D01*
X194546918Y-46965000D01*
X194690655Y-46993591D01*
X194690655Y-46993591D01*
G37*
G36*
X194690655Y-38693591D02*
G01*
X194762525Y-38707887D01*
X194965624Y-38792013D01*
X195148409Y-38914146D01*
X195303854Y-39069591D01*
X195425987Y-39252376D01*
X195510113Y-39455475D01*
X195553000Y-39671084D01*
X195553000Y-39890916D01*
X195510113Y-40106525D01*
X195425987Y-40309624D01*
X195303854Y-40492409D01*
X195148409Y-40647854D01*
X194965624Y-40769987D01*
X194762525Y-40854113D01*
X194690655Y-40868409D01*
X194546918Y-40897000D01*
X194327082Y-40897000D01*
X194183345Y-40868409D01*
X194111475Y-40854113D01*
X193908376Y-40769987D01*
X193725591Y-40647854D01*
X193570146Y-40492409D01*
X193448013Y-40309624D01*
X193363887Y-40106525D01*
X193321000Y-39890916D01*
X193321000Y-39671084D01*
X193363887Y-39455475D01*
X193448013Y-39252376D01*
X193570146Y-39069591D01*
X193725591Y-38914146D01*
X193908376Y-38792013D01*
X194111475Y-38707887D01*
X194183345Y-38693591D01*
X194327082Y-38665000D01*
X194546918Y-38665000D01*
X194690655Y-38693591D01*
X194690655Y-38693591D01*
G37*
M02*
