M48
INCH,TZ
T1C0.0157
T2C0.0295
T3C0.0315
T4C0.0394
T5C0.0433
T6C0.0480
T7C0.0559
T8C0.0563
%
G90
G05
T1
X19200Y-46800
X20200Y-36800
X21600Y-34800
X21600Y-36300
X21800Y-49800
X21900Y-38300
X22200Y-55300
X23300Y-38500
X24200Y-47600
X25257Y-42743
X25300Y-42000
X25600Y-41300
X26243Y-35157
X26300Y-38400
X26500Y-30600
X27857Y-39743
X30400Y-34400
X30600Y-47300
X31100Y-54300
X31200Y-32000
X32600Y-37900
X32700Y-43900
X33400Y-35800
X34000Y-24800
X34500Y-29100
X35200Y-39300
X35300Y-28200
X35500Y-36800
X35500Y-40400
X35700Y-43100
X36000Y-39400
X36100Y-34000
X36500Y-41300
X37700Y-41200
X38700Y-45500
X39357Y-40643
X40300Y-23400
X40400Y-20300
X40700Y-35400
X40800Y-33500
X40900Y-30800
X40900Y-31700
X42100Y-32600
X42400Y-35400
X42800Y-47400
X43500Y-40300
X43600Y-32600
X43800Y-38300
X44700Y-29900
X44700Y-34900
X44900Y-30500
X45100Y-32600
X45400Y-29100
X45400Y-46400
X45700Y-31100
T2
X26600Y-19400
X26600Y-19900
X26600Y-20400
X40000Y-31700
X40000Y-32200
X40000Y-32700
X28720Y-25100
X29220Y-25100
X29720Y-25100
T3
X19500Y-37600
X19500Y-39600
X39300Y-47700
X39300Y-49700
X42700Y-45300
X44669Y-45300
X28000Y-31400
X28000Y-33369
X26600Y-31400
X26600Y-33400
X36350Y-31500
X38350Y-31500
X35670Y-25660
X37639Y-25660
X20900Y-26800
X20900Y-28769
X38350Y-38900
X40350Y-38900
X43200Y-24500
X43200Y-26500
X43280Y-31620
X43280Y-33589
X38300Y-43300
X40300Y-43300
X31100Y-43600
X31100Y-45600
X41900Y-24400
X41900Y-26400
X41431Y-35100
X43400Y-35100
X44900Y-19031
X44900Y-21000
X39900Y-40200
X39900Y-42200
X38450Y-40100
X38450Y-42069
X31470Y-27060
X31470Y-30060
X32470Y-27060
X32470Y-30060
X33470Y-27060
X33470Y-30060
X34470Y-27060
X34470Y-30060
X35470Y-27060
X35470Y-30060
X36470Y-27060
X36470Y-30060
X37470Y-27060
X37470Y-30060
X38970Y-25060
X38970Y-27029
X26531Y-27000
X28500Y-27000
X31150Y-37100
X31150Y-39100
X29700Y-39000
X29700Y-41000
X23900Y-34600
X23900Y-35600
X23900Y-36600
X23900Y-37600
X26900Y-34600
X26900Y-35600
X26900Y-36600
X26900Y-37600
X25450Y-25600
X27450Y-25600
X44800Y-22100
X44800Y-24100
X27100Y-22100
X27100Y-24100
X35413Y-45600
X36200Y-45600
X32650Y-33900
X32650Y-35900
X24200Y-52400
X24200Y-54400
X38350Y-34550
X40319Y-34550
X22500Y-34431
X22500Y-36400
X38350Y-36150
X40350Y-36150
X36150Y-32800
X38150Y-32800
X22500Y-31400
X22500Y-33369
X28300Y-39000
X28300Y-40969
X29700Y-34250
X29700Y-36250
X41740Y-31600
X41740Y-33600
X27900Y-42200
X29869Y-42200
X22481Y-25600
X24450Y-25600
X19500Y-27000
X19500Y-29000
X41600Y-30400
X43600Y-30400
X40270Y-28260
X40270Y-30260
X28300Y-34400
X28300Y-36369
X34050Y-34800
X34050Y-35800
X34050Y-36800
X34050Y-37800
X34050Y-38800
X34050Y-39800
X34050Y-40800
X34050Y-41800
X37050Y-34800
X37050Y-35800
X37050Y-36800
X37050Y-37800
X37050Y-38800
X37050Y-39800
X37050Y-40800
X37050Y-41800
X22350Y-27050
X22350Y-28050
X22350Y-29050
X22350Y-30050
X25350Y-27050
X25350Y-28050
X25350Y-29050
X25350Y-30050
X34800Y-21900
X34800Y-23900
X34850Y-31400
X34850Y-33369
X28300Y-43431
X28300Y-45400
X41600Y-36700
X41600Y-37700
X41600Y-38700
X41600Y-39700
X41600Y-40700
X41600Y-41700
X41600Y-42700
X41600Y-43700
X44600Y-36700
X44600Y-37700
X44600Y-38700
X44600Y-39700
X44600Y-40700
X44600Y-41700
X44600Y-42700
X44600Y-43700
X30550Y-32600
X33550Y-32600
X22300Y-39200
X22300Y-41169
X26550Y-29850
X28550Y-29850
X20800Y-37850
X22800Y-37850
X31150Y-40300
X31150Y-42300
X19500Y-40600
X19500Y-42600
X32600Y-37050
X32600Y-39050
X20900Y-39200
X20900Y-41200
X25300Y-31200
X25300Y-33200
X31150Y-33900
X31150Y-35900
X31100Y-25640
X33100Y-25640
X44900Y-25031
X44900Y-27000
X32650Y-40100
X32650Y-42069
X26700Y-28500
X28700Y-28500
X29450Y-31200
X29450Y-33200
X30040Y-28291
X30040Y-30260
X19131Y-30400
X21100Y-30400
X19500Y-44000
X19500Y-46000
X38350Y-37500
X40350Y-37500
X38870Y-28060
X38870Y-30060
X20731Y-42400
X22700Y-42400
X28031Y-37650
X30000Y-37650
X40470Y-25110
X40470Y-27110
X44900Y-31700
X44900Y-33669
X22300Y-43631
X22300Y-45600
X34113Y-43600
X34900Y-43600
X19250Y-25600
X21250Y-25600
X32500Y-45500
X33287Y-45500
X39600Y-45300
X41569Y-45300
X23800Y-39200
X23800Y-40200
X23800Y-41200
X23800Y-42200
X23800Y-43200
X23800Y-44200
X23800Y-45200
X26800Y-39200
X26800Y-40200
X26800Y-41200
X26800Y-42200
X26800Y-43200
X26800Y-44200
X26800Y-45200
X42200Y-28600
X43200Y-28600
X44200Y-28600
X29700Y-43400
X29700Y-45400
X30550Y-31400
X33550Y-31400
X20900Y-43800
X20900Y-45800
X23900Y-31400
X23900Y-33400
T4
X30200Y-19150
X31184Y-19150
X32169Y-19150
X19700Y-32100
X19700Y-33100
X19700Y-34100
X19700Y-35100
X19700Y-36100
X20700Y-32100
X20700Y-33100
X20700Y-34100
X20700Y-35100
X20700Y-36100
X21250Y-19150
X22234Y-19150
X23219Y-19150
X37450Y-19150
X38434Y-19150
X39419Y-19150
T5
X41900Y-19200
X41900Y-23200
X43400Y-19200
X43400Y-23200
T6
X19400Y-48700
X37783Y-51500
X43450Y-51500
X27117Y-51500
X31007Y-48700
X32400Y-51500
X33511Y-48700
X21450Y-51500
X45117Y-48700
T7
X34731Y-48700
X21450Y-52720
X43897Y-48700
X20620Y-48700
X37783Y-52720
X43450Y-52720
X27117Y-52720
X29786Y-48700
X32400Y-52720
T8
X37999Y-48700
X21450Y-55988
X40629Y-48700
X23888Y-48700
X37783Y-55988
X43450Y-55988
X27117Y-55988
X26518Y-48700
X32400Y-55988
T0
M30
