G04 #@! TF.GenerationSoftware,KiCad,Pcbnew,(5.1.0)-1*
G04 #@! TF.CreationDate,2019-04-02T22:50:19-04:00*
G04 #@! TF.ProjectId,ripples,72697070-6c65-4732-9e6b-696361645f70,rev?*
G04 #@! TF.SameCoordinates,Original*
G04 #@! TF.FileFunction,Legend,Top*
G04 #@! TF.FilePolarity,Positive*
%FSLAX46Y46*%
G04 Gerber Fmt 4.6, Leading zero omitted, Abs format (unit mm)*
G04 Created by KiCad (PCBNEW (5.1.0)-1) date 2019-04-02 22:50:19*
%MOMM*%
%LPD*%
G04 APERTURE LIST*
%ADD10C,0.150000*%
%ADD11C,0.120000*%
G04 APERTURE END LIST*
D10*
X90098571Y-49101428D02*
X90098571Y-48768095D01*
X90622380Y-48768095D02*
X89622380Y-48768095D01*
X89622380Y-49244285D01*
X90622380Y-49625238D02*
X89622380Y-49625238D01*
X90336666Y-49958571D01*
X89622380Y-50291904D01*
X90622380Y-50291904D01*
X63936571Y-58364476D02*
X63936571Y-58031142D01*
X64460380Y-58031142D02*
X63460380Y-58031142D01*
X63460380Y-58507333D01*
X63793714Y-59316857D02*
X64793714Y-59316857D01*
X64412761Y-59316857D02*
X64460380Y-59221619D01*
X64460380Y-59031142D01*
X64412761Y-58935904D01*
X64365142Y-58888285D01*
X64269904Y-58840666D01*
X63984190Y-58840666D01*
X63888952Y-58888285D01*
X63841333Y-58935904D01*
X63793714Y-59031142D01*
X63793714Y-59221619D01*
X63841333Y-59316857D01*
X86233047Y-49569619D02*
X86328285Y-49522000D01*
X86423523Y-49426761D01*
X86566380Y-49283904D01*
X86661619Y-49236285D01*
X86756857Y-49236285D01*
X86709238Y-49474380D02*
X86804476Y-49426761D01*
X86899714Y-49331523D01*
X86947333Y-49141047D01*
X86947333Y-48807714D01*
X86899714Y-48617238D01*
X86804476Y-48522000D01*
X86709238Y-48474380D01*
X86518761Y-48474380D01*
X86423523Y-48522000D01*
X86328285Y-48617238D01*
X86280666Y-48807714D01*
X86280666Y-49141047D01*
X86328285Y-49331523D01*
X86423523Y-49426761D01*
X86518761Y-49474380D01*
X86709238Y-49474380D01*
X100909428Y-128698571D02*
X100909428Y-129031904D01*
X100385619Y-129031904D02*
X101385619Y-129031904D01*
X101385619Y-128555714D01*
X100385619Y-128174761D02*
X101385619Y-128174761D01*
X100671333Y-127841428D01*
X101385619Y-127508095D01*
X100385619Y-127508095D01*
X82256380Y-125896571D02*
X82304000Y-125991809D01*
X82399238Y-126087047D01*
X82542095Y-126229904D01*
X82589714Y-126325142D01*
X82589714Y-126420380D01*
X82351619Y-126372761D02*
X82399238Y-126468000D01*
X82494476Y-126563238D01*
X82684952Y-126610857D01*
X83018285Y-126610857D01*
X83208761Y-126563238D01*
X83304000Y-126468000D01*
X83351619Y-126372761D01*
X83351619Y-126182285D01*
X83304000Y-126087047D01*
X83208761Y-125991809D01*
X83018285Y-125944190D01*
X82684952Y-125944190D01*
X82494476Y-125991809D01*
X82399238Y-126087047D01*
X82351619Y-126182285D01*
X82351619Y-126372761D01*
X82446857Y-124182285D02*
X82399238Y-124229904D01*
X82351619Y-124372761D01*
X82351619Y-124468000D01*
X82399238Y-124610857D01*
X82494476Y-124706095D01*
X82589714Y-124753714D01*
X82780190Y-124801333D01*
X82923047Y-124801333D01*
X83113523Y-124753714D01*
X83208761Y-124706095D01*
X83304000Y-124610857D01*
X83351619Y-124468000D01*
X83351619Y-124372761D01*
X83304000Y-124229904D01*
X83256380Y-124182285D01*
X83351619Y-123896571D02*
X82351619Y-123563238D01*
X83351619Y-123229904D01*
X77112857Y-126372952D02*
X77065238Y-126325333D01*
X77017619Y-126182476D01*
X77017619Y-126087238D01*
X77065238Y-125944380D01*
X77160476Y-125849142D01*
X77255714Y-125801523D01*
X77446190Y-125753904D01*
X77589047Y-125753904D01*
X77779523Y-125801523D01*
X77874761Y-125849142D01*
X77970000Y-125944380D01*
X78017619Y-126087238D01*
X78017619Y-126182476D01*
X77970000Y-126325333D01*
X77922380Y-126372952D01*
X78017619Y-126658666D02*
X77017619Y-126992000D01*
X78017619Y-127325333D01*
X62793619Y-124341142D02*
X63793619Y-124341142D01*
X63460285Y-124817333D02*
X62793619Y-124817333D01*
X63365047Y-124817333D02*
X63412666Y-124864952D01*
X63460285Y-124960190D01*
X63460285Y-125103047D01*
X63412666Y-125198285D01*
X63317428Y-125245904D01*
X62793619Y-125245904D01*
X63460285Y-125722095D02*
X62460285Y-125722095D01*
X63412666Y-125722095D02*
X63460285Y-125817333D01*
X63460285Y-126007809D01*
X63412666Y-126103047D01*
X63365047Y-126150666D01*
X63269809Y-126198285D01*
X62984095Y-126198285D01*
X62888857Y-126150666D01*
X62841238Y-126103047D01*
X62793619Y-126007809D01*
X62793619Y-125817333D01*
X62841238Y-125722095D01*
X63460285Y-127055428D02*
X62793619Y-127055428D01*
X63460285Y-126626857D02*
X62936476Y-126626857D01*
X62841238Y-126674476D01*
X62793619Y-126769714D01*
X62793619Y-126912571D01*
X62841238Y-127007809D01*
X62888857Y-127055428D01*
X63460285Y-127388761D02*
X63460285Y-127769714D01*
X63793619Y-127531619D02*
X62936476Y-127531619D01*
X62841238Y-127579238D01*
X62793619Y-127674476D01*
X62793619Y-127769714D01*
X59999619Y-141319333D02*
X59999619Y-140843142D01*
X60999619Y-140843142D01*
X59999619Y-141652666D02*
X60999619Y-141652666D01*
X60999619Y-142033619D01*
X60952000Y-142128857D01*
X60904380Y-142176476D01*
X60809142Y-142224095D01*
X60666285Y-142224095D01*
X60571047Y-142176476D01*
X60523428Y-142128857D01*
X60475809Y-142033619D01*
X60475809Y-141652666D01*
X60904380Y-142605047D02*
X60952000Y-142652666D01*
X60999619Y-142747904D01*
X60999619Y-142986000D01*
X60952000Y-143081238D01*
X60904380Y-143128857D01*
X60809142Y-143176476D01*
X60713904Y-143176476D01*
X60571047Y-143128857D01*
X59999619Y-142557428D01*
X59999619Y-143176476D01*
X74747428Y-130413238D02*
X74699809Y-130556095D01*
X74652190Y-130603714D01*
X74556952Y-130651333D01*
X74414095Y-130651333D01*
X74318857Y-130603714D01*
X74271238Y-130556095D01*
X74223619Y-130460857D01*
X74223619Y-130079904D01*
X75223619Y-130079904D01*
X75223619Y-130413238D01*
X75176000Y-130508476D01*
X75128380Y-130556095D01*
X75033142Y-130603714D01*
X74937904Y-130603714D01*
X74842666Y-130556095D01*
X74795047Y-130508476D01*
X74747428Y-130413238D01*
X74747428Y-130079904D01*
X74223619Y-131079904D02*
X75223619Y-131079904D01*
X75223619Y-131460857D01*
X75176000Y-131556095D01*
X75128380Y-131603714D01*
X75033142Y-131651333D01*
X74890285Y-131651333D01*
X74795047Y-131603714D01*
X74747428Y-131556095D01*
X74699809Y-131460857D01*
X74699809Y-131079904D01*
X75128380Y-132032285D02*
X75176000Y-132079904D01*
X75223619Y-132175142D01*
X75223619Y-132413238D01*
X75176000Y-132508476D01*
X75128380Y-132556095D01*
X75033142Y-132603714D01*
X74937904Y-132603714D01*
X74795047Y-132556095D01*
X74223619Y-131984666D01*
X74223619Y-132603714D01*
X88685619Y-129762571D02*
X87685619Y-130095904D01*
X88685619Y-130429238D01*
X87780857Y-131334000D02*
X87733238Y-131286380D01*
X87685619Y-131143523D01*
X87685619Y-131048285D01*
X87733238Y-130905428D01*
X87828476Y-130810190D01*
X87923714Y-130762571D01*
X88114190Y-130714952D01*
X88257047Y-130714952D01*
X88447523Y-130762571D01*
X88542761Y-130810190D01*
X88638000Y-130905428D01*
X88685619Y-131048285D01*
X88685619Y-131143523D01*
X88638000Y-131286380D01*
X88590380Y-131334000D01*
X87971333Y-131714952D02*
X87971333Y-132191142D01*
X87685619Y-131619714D02*
X88685619Y-131953047D01*
X87685619Y-132286380D01*
X87780857Y-133953047D02*
X87733238Y-133905428D01*
X87685619Y-133762571D01*
X87685619Y-133667333D01*
X87733238Y-133524476D01*
X87828476Y-133429238D01*
X87923714Y-133381619D01*
X88114190Y-133334000D01*
X88257047Y-133334000D01*
X88447523Y-133381619D01*
X88542761Y-133429238D01*
X88638000Y-133524476D01*
X88685619Y-133667333D01*
X88685619Y-133762571D01*
X88638000Y-133905428D01*
X88590380Y-133953047D01*
X88685619Y-134238761D02*
X87685619Y-134572095D01*
X88685619Y-134905428D01*
X101147619Y-139033333D02*
X101147619Y-138557142D01*
X102147619Y-138557142D01*
X101147619Y-139366666D02*
X102147619Y-139366666D01*
X102147619Y-139747619D01*
X102100000Y-139842857D01*
X102052380Y-139890476D01*
X101957142Y-139938095D01*
X101814285Y-139938095D01*
X101719047Y-139890476D01*
X101671428Y-139842857D01*
X101623809Y-139747619D01*
X101623809Y-139366666D01*
X101814285Y-140795238D02*
X101147619Y-140795238D01*
X102195238Y-140557142D02*
X101480952Y-140319047D01*
X101480952Y-140938095D01*
X105100380Y-136500761D02*
X105100380Y-136976952D01*
X104100380Y-136976952D01*
X105100380Y-136167428D02*
X104100380Y-136167428D01*
X104100380Y-135786476D01*
X104148000Y-135691238D01*
X104195619Y-135643619D01*
X104290857Y-135596000D01*
X104433714Y-135596000D01*
X104528952Y-135643619D01*
X104576571Y-135691238D01*
X104624190Y-135786476D01*
X104624190Y-136167428D01*
X104433714Y-134738857D02*
X105100380Y-134738857D01*
X104052761Y-134976952D02*
X104767047Y-135215047D01*
X104767047Y-134596000D01*
X104719428Y-133453142D02*
X104719428Y-132691238D01*
X105100380Y-133072190D02*
X104338476Y-133072190D01*
X104100380Y-131596000D02*
X105100380Y-131262666D01*
X104100380Y-130929333D01*
X105005142Y-130024571D02*
X105052761Y-130072190D01*
X105100380Y-130215047D01*
X105100380Y-130310285D01*
X105052761Y-130453142D01*
X104957523Y-130548380D01*
X104862285Y-130596000D01*
X104671809Y-130643619D01*
X104528952Y-130643619D01*
X104338476Y-130596000D01*
X104243238Y-130548380D01*
X104148000Y-130453142D01*
X104100380Y-130310285D01*
X104100380Y-130215047D01*
X104148000Y-130072190D01*
X104195619Y-130024571D01*
X104814666Y-129643619D02*
X104814666Y-129167428D01*
X105100380Y-129738857D02*
X104100380Y-129405523D01*
X105100380Y-129072190D01*
D11*
X110406000Y-90875000D02*
X105066000Y-90875000D01*
X110406000Y-87433000D02*
X105066000Y-87433000D01*
X110406000Y-90875000D02*
X110406000Y-90209000D01*
X110406000Y-88099000D02*
X110406000Y-87433000D01*
X105066000Y-90875000D02*
X105066000Y-90209000D01*
X105066000Y-88099000D02*
X105066000Y-87433000D01*
X112991000Y-85688000D02*
X112325000Y-85688000D01*
X115767000Y-85688000D02*
X115101000Y-85688000D01*
X112991000Y-80348000D02*
X112325000Y-80348000D01*
X115767000Y-80348000D02*
X115101000Y-80348000D01*
X112325000Y-80348000D02*
X112325000Y-85688000D01*
X115767000Y-80348000D02*
X115767000Y-85688000D01*
X108288000Y-113341000D02*
X113628000Y-113341000D01*
X108288000Y-116783000D02*
X113628000Y-116783000D01*
X108288000Y-113341000D02*
X108288000Y-114007000D01*
X108288000Y-116117000D02*
X108288000Y-116783000D01*
X113628000Y-113341000D02*
X113628000Y-114007000D01*
X113628000Y-116117000D02*
X113628000Y-116783000D01*
X100704800Y-63482400D02*
X100704800Y-68822400D01*
X97262800Y-63482400D02*
X97262800Y-68822400D01*
X100704800Y-63482400D02*
X100038800Y-63482400D01*
X97928800Y-63482400D02*
X97262800Y-63482400D01*
X100704800Y-68822400D02*
X100038800Y-68822400D01*
X97928800Y-68822400D02*
X97262800Y-68822400D01*
X97239000Y-86036000D02*
X102579000Y-86036000D01*
X97239000Y-89478000D02*
X102579000Y-89478000D01*
X97239000Y-86036000D02*
X97239000Y-86702000D01*
X97239000Y-88812000D02*
X97239000Y-89478000D01*
X102579000Y-86036000D02*
X102579000Y-86702000D01*
X102579000Y-88812000D02*
X102579000Y-89478000D01*
X57828000Y-109417000D02*
X52488000Y-109417000D01*
X57828000Y-105975000D02*
X52488000Y-105975000D01*
X57828000Y-109417000D02*
X57828000Y-108751000D01*
X57828000Y-106641000D02*
X57828000Y-105975000D01*
X52488000Y-109417000D02*
X52488000Y-108751000D01*
X52488000Y-106641000D02*
X52488000Y-105975000D01*
X70696000Y-105467000D02*
X76036000Y-105467000D01*
X70696000Y-108909000D02*
X76036000Y-108909000D01*
X70696000Y-105467000D02*
X70696000Y-106133000D01*
X70696000Y-108243000D02*
X70696000Y-108909000D01*
X76036000Y-105467000D02*
X76036000Y-106133000D01*
X76036000Y-108243000D02*
X76036000Y-108909000D01*
X115101000Y-63410000D02*
X115767000Y-63410000D01*
X112325000Y-63410000D02*
X112991000Y-63410000D01*
X115101000Y-68750000D02*
X115767000Y-68750000D01*
X112325000Y-68750000D02*
X112991000Y-68750000D01*
X115767000Y-68750000D02*
X115767000Y-63410000D01*
X112325000Y-68750000D02*
X112325000Y-63410000D01*
X90240000Y-79586000D02*
X90240000Y-84926000D01*
X86798000Y-79586000D02*
X86798000Y-84926000D01*
X90240000Y-79586000D02*
X89574000Y-79586000D01*
X87464000Y-79586000D02*
X86798000Y-79586000D01*
X90240000Y-84926000D02*
X89574000Y-84926000D01*
X87464000Y-84926000D02*
X86798000Y-84926000D01*
X95771800Y-66231400D02*
X95771800Y-66897400D01*
X95771800Y-63455400D02*
X95771800Y-64121400D01*
X90431800Y-66231400D02*
X90431800Y-66897400D01*
X90431800Y-63455400D02*
X90431800Y-64121400D01*
X90431800Y-66897400D02*
X95771800Y-66897400D01*
X90431800Y-63455400D02*
X95771800Y-63455400D01*
X58871000Y-79586000D02*
X58871000Y-84926000D01*
X55429000Y-79586000D02*
X55429000Y-84926000D01*
X58871000Y-79586000D02*
X58205000Y-79586000D01*
X56095000Y-79586000D02*
X55429000Y-79586000D01*
X58871000Y-84926000D02*
X58205000Y-84926000D01*
X56095000Y-84926000D02*
X55429000Y-84926000D01*
X77356600Y-71690400D02*
X78022600Y-71690400D01*
X74580600Y-71690400D02*
X75246600Y-71690400D01*
X77356600Y-77030400D02*
X78022600Y-77030400D01*
X74580600Y-77030400D02*
X75246600Y-77030400D01*
X78022600Y-77030400D02*
X78022600Y-71690400D01*
X74580600Y-77030400D02*
X74580600Y-71690400D01*
X70827000Y-92546000D02*
X70161000Y-92546000D01*
X73603000Y-92546000D02*
X72937000Y-92546000D01*
X70827000Y-87206000D02*
X70161000Y-87206000D01*
X73603000Y-87206000D02*
X72937000Y-87206000D01*
X70161000Y-87206000D02*
X70161000Y-92546000D01*
X73603000Y-87206000D02*
X73603000Y-92546000D01*
X55429000Y-92626000D02*
X55429000Y-87286000D01*
X58871000Y-92626000D02*
X58871000Y-87286000D01*
X55429000Y-92626000D02*
X56095000Y-92626000D01*
X58205000Y-92626000D02*
X58871000Y-92626000D01*
X55429000Y-87286000D02*
X56095000Y-87286000D01*
X58205000Y-87286000D02*
X58871000Y-87286000D01*
X90266000Y-110744000D02*
G75*
G03X90266000Y-110744000I-2620000J0D01*
G01*
X87646000Y-109704000D02*
X87646000Y-108164000D01*
X87646000Y-113324000D02*
X87646000Y-111784000D01*
X87606000Y-109704000D02*
X87606000Y-108164000D01*
X87606000Y-113324000D02*
X87606000Y-111784000D01*
X87566000Y-113323000D02*
X87566000Y-111784000D01*
X87566000Y-109704000D02*
X87566000Y-108165000D01*
X87526000Y-113322000D02*
X87526000Y-111784000D01*
X87526000Y-109704000D02*
X87526000Y-108166000D01*
X87486000Y-113320000D02*
X87486000Y-111784000D01*
X87486000Y-109704000D02*
X87486000Y-108168000D01*
X87446000Y-113317000D02*
X87446000Y-111784000D01*
X87446000Y-109704000D02*
X87446000Y-108171000D01*
X87406000Y-113313000D02*
X87406000Y-111784000D01*
X87406000Y-109704000D02*
X87406000Y-108175000D01*
X87366000Y-113309000D02*
X87366000Y-111784000D01*
X87366000Y-109704000D02*
X87366000Y-108179000D01*
X87326000Y-113305000D02*
X87326000Y-111784000D01*
X87326000Y-109704000D02*
X87326000Y-108183000D01*
X87286000Y-113300000D02*
X87286000Y-111784000D01*
X87286000Y-109704000D02*
X87286000Y-108188000D01*
X87246000Y-113294000D02*
X87246000Y-111784000D01*
X87246000Y-109704000D02*
X87246000Y-108194000D01*
X87206000Y-113287000D02*
X87206000Y-111784000D01*
X87206000Y-109704000D02*
X87206000Y-108201000D01*
X87166000Y-113280000D02*
X87166000Y-111784000D01*
X87166000Y-109704000D02*
X87166000Y-108208000D01*
X87126000Y-113272000D02*
X87126000Y-111784000D01*
X87126000Y-109704000D02*
X87126000Y-108216000D01*
X87086000Y-113264000D02*
X87086000Y-111784000D01*
X87086000Y-109704000D02*
X87086000Y-108224000D01*
X87046000Y-113255000D02*
X87046000Y-111784000D01*
X87046000Y-109704000D02*
X87046000Y-108233000D01*
X87006000Y-113245000D02*
X87006000Y-111784000D01*
X87006000Y-109704000D02*
X87006000Y-108243000D01*
X86966000Y-113235000D02*
X86966000Y-111784000D01*
X86966000Y-109704000D02*
X86966000Y-108253000D01*
X86925000Y-113224000D02*
X86925000Y-111784000D01*
X86925000Y-109704000D02*
X86925000Y-108264000D01*
X86885000Y-113212000D02*
X86885000Y-111784000D01*
X86885000Y-109704000D02*
X86885000Y-108276000D01*
X86845000Y-113199000D02*
X86845000Y-111784000D01*
X86845000Y-109704000D02*
X86845000Y-108289000D01*
X86805000Y-113186000D02*
X86805000Y-111784000D01*
X86805000Y-109704000D02*
X86805000Y-108302000D01*
X86765000Y-113172000D02*
X86765000Y-111784000D01*
X86765000Y-109704000D02*
X86765000Y-108316000D01*
X86725000Y-113158000D02*
X86725000Y-111784000D01*
X86725000Y-109704000D02*
X86725000Y-108330000D01*
X86685000Y-113142000D02*
X86685000Y-111784000D01*
X86685000Y-109704000D02*
X86685000Y-108346000D01*
X86645000Y-113126000D02*
X86645000Y-111784000D01*
X86645000Y-109704000D02*
X86645000Y-108362000D01*
X86605000Y-113109000D02*
X86605000Y-111784000D01*
X86605000Y-109704000D02*
X86605000Y-108379000D01*
X86565000Y-113092000D02*
X86565000Y-111784000D01*
X86565000Y-109704000D02*
X86565000Y-108396000D01*
X86525000Y-113073000D02*
X86525000Y-111784000D01*
X86525000Y-109704000D02*
X86525000Y-108415000D01*
X86485000Y-113054000D02*
X86485000Y-111784000D01*
X86485000Y-109704000D02*
X86485000Y-108434000D01*
X86445000Y-113034000D02*
X86445000Y-111784000D01*
X86445000Y-109704000D02*
X86445000Y-108454000D01*
X86405000Y-113012000D02*
X86405000Y-111784000D01*
X86405000Y-109704000D02*
X86405000Y-108476000D01*
X86365000Y-112991000D02*
X86365000Y-111784000D01*
X86365000Y-109704000D02*
X86365000Y-108497000D01*
X86325000Y-112968000D02*
X86325000Y-111784000D01*
X86325000Y-109704000D02*
X86325000Y-108520000D01*
X86285000Y-112944000D02*
X86285000Y-111784000D01*
X86285000Y-109704000D02*
X86285000Y-108544000D01*
X86245000Y-112919000D02*
X86245000Y-111784000D01*
X86245000Y-109704000D02*
X86245000Y-108569000D01*
X86205000Y-112893000D02*
X86205000Y-111784000D01*
X86205000Y-109704000D02*
X86205000Y-108595000D01*
X86165000Y-112866000D02*
X86165000Y-111784000D01*
X86165000Y-109704000D02*
X86165000Y-108622000D01*
X86125000Y-112839000D02*
X86125000Y-111784000D01*
X86125000Y-109704000D02*
X86125000Y-108649000D01*
X86085000Y-112809000D02*
X86085000Y-111784000D01*
X86085000Y-109704000D02*
X86085000Y-108679000D01*
X86045000Y-112779000D02*
X86045000Y-111784000D01*
X86045000Y-109704000D02*
X86045000Y-108709000D01*
X86005000Y-112748000D02*
X86005000Y-111784000D01*
X86005000Y-109704000D02*
X86005000Y-108740000D01*
X85965000Y-112715000D02*
X85965000Y-111784000D01*
X85965000Y-109704000D02*
X85965000Y-108773000D01*
X85925000Y-112681000D02*
X85925000Y-111784000D01*
X85925000Y-109704000D02*
X85925000Y-108807000D01*
X85885000Y-112645000D02*
X85885000Y-111784000D01*
X85885000Y-109704000D02*
X85885000Y-108843000D01*
X85845000Y-112608000D02*
X85845000Y-111784000D01*
X85845000Y-109704000D02*
X85845000Y-108880000D01*
X85805000Y-112570000D02*
X85805000Y-111784000D01*
X85805000Y-109704000D02*
X85805000Y-108918000D01*
X85765000Y-112529000D02*
X85765000Y-111784000D01*
X85765000Y-109704000D02*
X85765000Y-108959000D01*
X85725000Y-112487000D02*
X85725000Y-111784000D01*
X85725000Y-109704000D02*
X85725000Y-109001000D01*
X85685000Y-112443000D02*
X85685000Y-111784000D01*
X85685000Y-109704000D02*
X85685000Y-109045000D01*
X85645000Y-112397000D02*
X85645000Y-111784000D01*
X85645000Y-109704000D02*
X85645000Y-109091000D01*
X85605000Y-112349000D02*
X85605000Y-109139000D01*
X85565000Y-112298000D02*
X85565000Y-109190000D01*
X85525000Y-112244000D02*
X85525000Y-109244000D01*
X85485000Y-112187000D02*
X85485000Y-109301000D01*
X85445000Y-112127000D02*
X85445000Y-109361000D01*
X85405000Y-112063000D02*
X85405000Y-109425000D01*
X85365000Y-111995000D02*
X85365000Y-109493000D01*
X85325000Y-111922000D02*
X85325000Y-109566000D01*
X85285000Y-111842000D02*
X85285000Y-109646000D01*
X85245000Y-111755000D02*
X85245000Y-109733000D01*
X85205000Y-111659000D02*
X85205000Y-109829000D01*
X85165000Y-111549000D02*
X85165000Y-109939000D01*
X85125000Y-111421000D02*
X85125000Y-110067000D01*
X85085000Y-111262000D02*
X85085000Y-110226000D01*
X85045000Y-111028000D02*
X85045000Y-110460000D01*
X90450775Y-112219000D02*
X89950775Y-112219000D01*
X90200775Y-112469000D02*
X90200775Y-111969000D01*
X70065000Y-84926000D02*
X69399000Y-84926000D01*
X72841000Y-84926000D02*
X72175000Y-84926000D01*
X70065000Y-79586000D02*
X69399000Y-79586000D01*
X72841000Y-79586000D02*
X72175000Y-79586000D01*
X69399000Y-79586000D02*
X69399000Y-84926000D01*
X72841000Y-79586000D02*
X72841000Y-84926000D01*
X56933000Y-63969000D02*
X56933000Y-63303000D01*
X56933000Y-66745000D02*
X56933000Y-66079000D01*
X62273000Y-63969000D02*
X62273000Y-63303000D01*
X62273000Y-66745000D02*
X62273000Y-66079000D01*
X62273000Y-63303000D02*
X56933000Y-63303000D01*
X62273000Y-66745000D02*
X56933000Y-66745000D01*
X53764000Y-78937000D02*
X48424000Y-78937000D01*
X53764000Y-75495000D02*
X48424000Y-75495000D01*
X53764000Y-78937000D02*
X53764000Y-78271000D01*
X53764000Y-76161000D02*
X53764000Y-75495000D01*
X48424000Y-78937000D02*
X48424000Y-78271000D01*
X48424000Y-76161000D02*
X48424000Y-75495000D01*
X99384000Y-101684000D02*
X99384000Y-107024000D01*
X95942000Y-101684000D02*
X95942000Y-107024000D01*
X99384000Y-101684000D02*
X98718000Y-101684000D01*
X96608000Y-101684000D02*
X95942000Y-101684000D01*
X99384000Y-107024000D02*
X98718000Y-107024000D01*
X96608000Y-107024000D02*
X95942000Y-107024000D01*
X81876000Y-107024000D02*
X81210000Y-107024000D01*
X84652000Y-107024000D02*
X83986000Y-107024000D01*
X81876000Y-101684000D02*
X81210000Y-101684000D01*
X84652000Y-101684000D02*
X83986000Y-101684000D01*
X81210000Y-101684000D02*
X81210000Y-107024000D01*
X84652000Y-101684000D02*
X84652000Y-107024000D01*
X111652200Y-80144800D02*
X111652200Y-85484800D01*
X108210200Y-80144800D02*
X108210200Y-85484800D01*
X111652200Y-80144800D02*
X110986200Y-80144800D01*
X108876200Y-80144800D02*
X108210200Y-80144800D01*
X111652200Y-85484800D02*
X110986200Y-85484800D01*
X108876200Y-85484800D02*
X108210200Y-85484800D01*
X70161000Y-115486000D02*
X70161000Y-110146000D01*
X73603000Y-115486000D02*
X73603000Y-110146000D01*
X70161000Y-115486000D02*
X70827000Y-115486000D01*
X72937000Y-115486000D02*
X73603000Y-115486000D01*
X70161000Y-110146000D02*
X70827000Y-110146000D01*
X72937000Y-110146000D02*
X73603000Y-110146000D01*
X71030000Y-94576000D02*
X71030000Y-93910000D01*
X71030000Y-97352000D02*
X71030000Y-96686000D01*
X76370000Y-94576000D02*
X76370000Y-93910000D01*
X76370000Y-97352000D02*
X76370000Y-96686000D01*
X76370000Y-93910000D02*
X71030000Y-93910000D01*
X76370000Y-97352000D02*
X71030000Y-97352000D01*
X115101000Y-48170000D02*
X115767000Y-48170000D01*
X112325000Y-48170000D02*
X112991000Y-48170000D01*
X115101000Y-53510000D02*
X115767000Y-53510000D01*
X112325000Y-53510000D02*
X112991000Y-53510000D01*
X115767000Y-53510000D02*
X115767000Y-48170000D01*
X112325000Y-53510000D02*
X112325000Y-48170000D01*
X67220000Y-67525000D02*
X67220000Y-66859000D01*
X67220000Y-70301000D02*
X67220000Y-69635000D01*
X72560000Y-67525000D02*
X72560000Y-66859000D01*
X72560000Y-70301000D02*
X72560000Y-69635000D01*
X72560000Y-66859000D02*
X67220000Y-66859000D01*
X72560000Y-70301000D02*
X67220000Y-70301000D01*
X55587000Y-104738000D02*
X54921000Y-104738000D01*
X58363000Y-104738000D02*
X57697000Y-104738000D01*
X55587000Y-99398000D02*
X54921000Y-99398000D01*
X58363000Y-99398000D02*
X57697000Y-99398000D01*
X54921000Y-99398000D02*
X54921000Y-104738000D01*
X58363000Y-99398000D02*
X58363000Y-104738000D01*
X54921000Y-115994000D02*
X54921000Y-110654000D01*
X58363000Y-115994000D02*
X58363000Y-110654000D01*
X54921000Y-115994000D02*
X55587000Y-115994000D01*
X57697000Y-115994000D02*
X58363000Y-115994000D01*
X54921000Y-110654000D02*
X55587000Y-110654000D01*
X57697000Y-110654000D02*
X58363000Y-110654000D01*
X105754000Y-116117000D02*
X105754000Y-116783000D01*
X105754000Y-113341000D02*
X105754000Y-114007000D01*
X100414000Y-116117000D02*
X100414000Y-116783000D01*
X100414000Y-113341000D02*
X100414000Y-114007000D01*
X100414000Y-116783000D02*
X105754000Y-116783000D01*
X100414000Y-113341000D02*
X105754000Y-113341000D01*
X52031000Y-73242000D02*
X51365000Y-73242000D01*
X54807000Y-73242000D02*
X54141000Y-73242000D01*
X52031000Y-67902000D02*
X51365000Y-67902000D01*
X54807000Y-67902000D02*
X54141000Y-67902000D01*
X51365000Y-67902000D02*
X51365000Y-73242000D01*
X54807000Y-67902000D02*
X54807000Y-73242000D01*
X73603000Y-98890000D02*
X73603000Y-104230000D01*
X70161000Y-98890000D02*
X70161000Y-104230000D01*
X73603000Y-98890000D02*
X72937000Y-98890000D01*
X70827000Y-98890000D02*
X70161000Y-98890000D01*
X73603000Y-104230000D02*
X72937000Y-104230000D01*
X70827000Y-104230000D02*
X70161000Y-104230000D01*
X93502775Y-117549000D02*
X93502775Y-117049000D01*
X93752775Y-117299000D02*
X93252775Y-117299000D01*
X88347000Y-116108000D02*
X88347000Y-115540000D01*
X88387000Y-116342000D02*
X88387000Y-115306000D01*
X88427000Y-116501000D02*
X88427000Y-115147000D01*
X88467000Y-116629000D02*
X88467000Y-115019000D01*
X88507000Y-116739000D02*
X88507000Y-114909000D01*
X88547000Y-116835000D02*
X88547000Y-114813000D01*
X88587000Y-116922000D02*
X88587000Y-114726000D01*
X88627000Y-117002000D02*
X88627000Y-114646000D01*
X88667000Y-117075000D02*
X88667000Y-114573000D01*
X88707000Y-117143000D02*
X88707000Y-114505000D01*
X88747000Y-117207000D02*
X88747000Y-114441000D01*
X88787000Y-117267000D02*
X88787000Y-114381000D01*
X88827000Y-117324000D02*
X88827000Y-114324000D01*
X88867000Y-117378000D02*
X88867000Y-114270000D01*
X88907000Y-117429000D02*
X88907000Y-114219000D01*
X88947000Y-114784000D02*
X88947000Y-114171000D01*
X88947000Y-117477000D02*
X88947000Y-116864000D01*
X88987000Y-114784000D02*
X88987000Y-114125000D01*
X88987000Y-117523000D02*
X88987000Y-116864000D01*
X89027000Y-114784000D02*
X89027000Y-114081000D01*
X89027000Y-117567000D02*
X89027000Y-116864000D01*
X89067000Y-114784000D02*
X89067000Y-114039000D01*
X89067000Y-117609000D02*
X89067000Y-116864000D01*
X89107000Y-114784000D02*
X89107000Y-113998000D01*
X89107000Y-117650000D02*
X89107000Y-116864000D01*
X89147000Y-114784000D02*
X89147000Y-113960000D01*
X89147000Y-117688000D02*
X89147000Y-116864000D01*
X89187000Y-114784000D02*
X89187000Y-113923000D01*
X89187000Y-117725000D02*
X89187000Y-116864000D01*
X89227000Y-114784000D02*
X89227000Y-113887000D01*
X89227000Y-117761000D02*
X89227000Y-116864000D01*
X89267000Y-114784000D02*
X89267000Y-113853000D01*
X89267000Y-117795000D02*
X89267000Y-116864000D01*
X89307000Y-114784000D02*
X89307000Y-113820000D01*
X89307000Y-117828000D02*
X89307000Y-116864000D01*
X89347000Y-114784000D02*
X89347000Y-113789000D01*
X89347000Y-117859000D02*
X89347000Y-116864000D01*
X89387000Y-114784000D02*
X89387000Y-113759000D01*
X89387000Y-117889000D02*
X89387000Y-116864000D01*
X89427000Y-114784000D02*
X89427000Y-113729000D01*
X89427000Y-117919000D02*
X89427000Y-116864000D01*
X89467000Y-114784000D02*
X89467000Y-113702000D01*
X89467000Y-117946000D02*
X89467000Y-116864000D01*
X89507000Y-114784000D02*
X89507000Y-113675000D01*
X89507000Y-117973000D02*
X89507000Y-116864000D01*
X89547000Y-114784000D02*
X89547000Y-113649000D01*
X89547000Y-117999000D02*
X89547000Y-116864000D01*
X89587000Y-114784000D02*
X89587000Y-113624000D01*
X89587000Y-118024000D02*
X89587000Y-116864000D01*
X89627000Y-114784000D02*
X89627000Y-113600000D01*
X89627000Y-118048000D02*
X89627000Y-116864000D01*
X89667000Y-114784000D02*
X89667000Y-113577000D01*
X89667000Y-118071000D02*
X89667000Y-116864000D01*
X89707000Y-114784000D02*
X89707000Y-113556000D01*
X89707000Y-118092000D02*
X89707000Y-116864000D01*
X89747000Y-114784000D02*
X89747000Y-113534000D01*
X89747000Y-118114000D02*
X89747000Y-116864000D01*
X89787000Y-114784000D02*
X89787000Y-113514000D01*
X89787000Y-118134000D02*
X89787000Y-116864000D01*
X89827000Y-114784000D02*
X89827000Y-113495000D01*
X89827000Y-118153000D02*
X89827000Y-116864000D01*
X89867000Y-114784000D02*
X89867000Y-113476000D01*
X89867000Y-118172000D02*
X89867000Y-116864000D01*
X89907000Y-114784000D02*
X89907000Y-113459000D01*
X89907000Y-118189000D02*
X89907000Y-116864000D01*
X89947000Y-114784000D02*
X89947000Y-113442000D01*
X89947000Y-118206000D02*
X89947000Y-116864000D01*
X89987000Y-114784000D02*
X89987000Y-113426000D01*
X89987000Y-118222000D02*
X89987000Y-116864000D01*
X90027000Y-114784000D02*
X90027000Y-113410000D01*
X90027000Y-118238000D02*
X90027000Y-116864000D01*
X90067000Y-114784000D02*
X90067000Y-113396000D01*
X90067000Y-118252000D02*
X90067000Y-116864000D01*
X90107000Y-114784000D02*
X90107000Y-113382000D01*
X90107000Y-118266000D02*
X90107000Y-116864000D01*
X90147000Y-114784000D02*
X90147000Y-113369000D01*
X90147000Y-118279000D02*
X90147000Y-116864000D01*
X90187000Y-114784000D02*
X90187000Y-113356000D01*
X90187000Y-118292000D02*
X90187000Y-116864000D01*
X90227000Y-114784000D02*
X90227000Y-113344000D01*
X90227000Y-118304000D02*
X90227000Y-116864000D01*
X90268000Y-114784000D02*
X90268000Y-113333000D01*
X90268000Y-118315000D02*
X90268000Y-116864000D01*
X90308000Y-114784000D02*
X90308000Y-113323000D01*
X90308000Y-118325000D02*
X90308000Y-116864000D01*
X90348000Y-114784000D02*
X90348000Y-113313000D01*
X90348000Y-118335000D02*
X90348000Y-116864000D01*
X90388000Y-114784000D02*
X90388000Y-113304000D01*
X90388000Y-118344000D02*
X90388000Y-116864000D01*
X90428000Y-114784000D02*
X90428000Y-113296000D01*
X90428000Y-118352000D02*
X90428000Y-116864000D01*
X90468000Y-114784000D02*
X90468000Y-113288000D01*
X90468000Y-118360000D02*
X90468000Y-116864000D01*
X90508000Y-114784000D02*
X90508000Y-113281000D01*
X90508000Y-118367000D02*
X90508000Y-116864000D01*
X90548000Y-114784000D02*
X90548000Y-113274000D01*
X90548000Y-118374000D02*
X90548000Y-116864000D01*
X90588000Y-114784000D02*
X90588000Y-113268000D01*
X90588000Y-118380000D02*
X90588000Y-116864000D01*
X90628000Y-114784000D02*
X90628000Y-113263000D01*
X90628000Y-118385000D02*
X90628000Y-116864000D01*
X90668000Y-114784000D02*
X90668000Y-113259000D01*
X90668000Y-118389000D02*
X90668000Y-116864000D01*
X90708000Y-114784000D02*
X90708000Y-113255000D01*
X90708000Y-118393000D02*
X90708000Y-116864000D01*
X90748000Y-114784000D02*
X90748000Y-113251000D01*
X90748000Y-118397000D02*
X90748000Y-116864000D01*
X90788000Y-114784000D02*
X90788000Y-113248000D01*
X90788000Y-118400000D02*
X90788000Y-116864000D01*
X90828000Y-114784000D02*
X90828000Y-113246000D01*
X90828000Y-118402000D02*
X90828000Y-116864000D01*
X90868000Y-114784000D02*
X90868000Y-113245000D01*
X90868000Y-118403000D02*
X90868000Y-116864000D01*
X90908000Y-118404000D02*
X90908000Y-116864000D01*
X90908000Y-114784000D02*
X90908000Y-113244000D01*
X90948000Y-118404000D02*
X90948000Y-116864000D01*
X90948000Y-114784000D02*
X90948000Y-113244000D01*
X93568000Y-115824000D02*
G75*
G03X93568000Y-115824000I-2620000J0D01*
G01*
X86170000Y-115570000D02*
G75*
G03X86170000Y-115570000I-2620000J0D01*
G01*
X83550000Y-116610000D02*
X83550000Y-118150000D01*
X83550000Y-112990000D02*
X83550000Y-114530000D01*
X83590000Y-116610000D02*
X83590000Y-118150000D01*
X83590000Y-112990000D02*
X83590000Y-114530000D01*
X83630000Y-112991000D02*
X83630000Y-114530000D01*
X83630000Y-116610000D02*
X83630000Y-118149000D01*
X83670000Y-112992000D02*
X83670000Y-114530000D01*
X83670000Y-116610000D02*
X83670000Y-118148000D01*
X83710000Y-112994000D02*
X83710000Y-114530000D01*
X83710000Y-116610000D02*
X83710000Y-118146000D01*
X83750000Y-112997000D02*
X83750000Y-114530000D01*
X83750000Y-116610000D02*
X83750000Y-118143000D01*
X83790000Y-113001000D02*
X83790000Y-114530000D01*
X83790000Y-116610000D02*
X83790000Y-118139000D01*
X83830000Y-113005000D02*
X83830000Y-114530000D01*
X83830000Y-116610000D02*
X83830000Y-118135000D01*
X83870000Y-113009000D02*
X83870000Y-114530000D01*
X83870000Y-116610000D02*
X83870000Y-118131000D01*
X83910000Y-113014000D02*
X83910000Y-114530000D01*
X83910000Y-116610000D02*
X83910000Y-118126000D01*
X83950000Y-113020000D02*
X83950000Y-114530000D01*
X83950000Y-116610000D02*
X83950000Y-118120000D01*
X83990000Y-113027000D02*
X83990000Y-114530000D01*
X83990000Y-116610000D02*
X83990000Y-118113000D01*
X84030000Y-113034000D02*
X84030000Y-114530000D01*
X84030000Y-116610000D02*
X84030000Y-118106000D01*
X84070000Y-113042000D02*
X84070000Y-114530000D01*
X84070000Y-116610000D02*
X84070000Y-118098000D01*
X84110000Y-113050000D02*
X84110000Y-114530000D01*
X84110000Y-116610000D02*
X84110000Y-118090000D01*
X84150000Y-113059000D02*
X84150000Y-114530000D01*
X84150000Y-116610000D02*
X84150000Y-118081000D01*
X84190000Y-113069000D02*
X84190000Y-114530000D01*
X84190000Y-116610000D02*
X84190000Y-118071000D01*
X84230000Y-113079000D02*
X84230000Y-114530000D01*
X84230000Y-116610000D02*
X84230000Y-118061000D01*
X84271000Y-113090000D02*
X84271000Y-114530000D01*
X84271000Y-116610000D02*
X84271000Y-118050000D01*
X84311000Y-113102000D02*
X84311000Y-114530000D01*
X84311000Y-116610000D02*
X84311000Y-118038000D01*
X84351000Y-113115000D02*
X84351000Y-114530000D01*
X84351000Y-116610000D02*
X84351000Y-118025000D01*
X84391000Y-113128000D02*
X84391000Y-114530000D01*
X84391000Y-116610000D02*
X84391000Y-118012000D01*
X84431000Y-113142000D02*
X84431000Y-114530000D01*
X84431000Y-116610000D02*
X84431000Y-117998000D01*
X84471000Y-113156000D02*
X84471000Y-114530000D01*
X84471000Y-116610000D02*
X84471000Y-117984000D01*
X84511000Y-113172000D02*
X84511000Y-114530000D01*
X84511000Y-116610000D02*
X84511000Y-117968000D01*
X84551000Y-113188000D02*
X84551000Y-114530000D01*
X84551000Y-116610000D02*
X84551000Y-117952000D01*
X84591000Y-113205000D02*
X84591000Y-114530000D01*
X84591000Y-116610000D02*
X84591000Y-117935000D01*
X84631000Y-113222000D02*
X84631000Y-114530000D01*
X84631000Y-116610000D02*
X84631000Y-117918000D01*
X84671000Y-113241000D02*
X84671000Y-114530000D01*
X84671000Y-116610000D02*
X84671000Y-117899000D01*
X84711000Y-113260000D02*
X84711000Y-114530000D01*
X84711000Y-116610000D02*
X84711000Y-117880000D01*
X84751000Y-113280000D02*
X84751000Y-114530000D01*
X84751000Y-116610000D02*
X84751000Y-117860000D01*
X84791000Y-113302000D02*
X84791000Y-114530000D01*
X84791000Y-116610000D02*
X84791000Y-117838000D01*
X84831000Y-113323000D02*
X84831000Y-114530000D01*
X84831000Y-116610000D02*
X84831000Y-117817000D01*
X84871000Y-113346000D02*
X84871000Y-114530000D01*
X84871000Y-116610000D02*
X84871000Y-117794000D01*
X84911000Y-113370000D02*
X84911000Y-114530000D01*
X84911000Y-116610000D02*
X84911000Y-117770000D01*
X84951000Y-113395000D02*
X84951000Y-114530000D01*
X84951000Y-116610000D02*
X84951000Y-117745000D01*
X84991000Y-113421000D02*
X84991000Y-114530000D01*
X84991000Y-116610000D02*
X84991000Y-117719000D01*
X85031000Y-113448000D02*
X85031000Y-114530000D01*
X85031000Y-116610000D02*
X85031000Y-117692000D01*
X85071000Y-113475000D02*
X85071000Y-114530000D01*
X85071000Y-116610000D02*
X85071000Y-117665000D01*
X85111000Y-113505000D02*
X85111000Y-114530000D01*
X85111000Y-116610000D02*
X85111000Y-117635000D01*
X85151000Y-113535000D02*
X85151000Y-114530000D01*
X85151000Y-116610000D02*
X85151000Y-117605000D01*
X85191000Y-113566000D02*
X85191000Y-114530000D01*
X85191000Y-116610000D02*
X85191000Y-117574000D01*
X85231000Y-113599000D02*
X85231000Y-114530000D01*
X85231000Y-116610000D02*
X85231000Y-117541000D01*
X85271000Y-113633000D02*
X85271000Y-114530000D01*
X85271000Y-116610000D02*
X85271000Y-117507000D01*
X85311000Y-113669000D02*
X85311000Y-114530000D01*
X85311000Y-116610000D02*
X85311000Y-117471000D01*
X85351000Y-113706000D02*
X85351000Y-114530000D01*
X85351000Y-116610000D02*
X85351000Y-117434000D01*
X85391000Y-113744000D02*
X85391000Y-114530000D01*
X85391000Y-116610000D02*
X85391000Y-117396000D01*
X85431000Y-113785000D02*
X85431000Y-114530000D01*
X85431000Y-116610000D02*
X85431000Y-117355000D01*
X85471000Y-113827000D02*
X85471000Y-114530000D01*
X85471000Y-116610000D02*
X85471000Y-117313000D01*
X85511000Y-113871000D02*
X85511000Y-114530000D01*
X85511000Y-116610000D02*
X85511000Y-117269000D01*
X85551000Y-113917000D02*
X85551000Y-114530000D01*
X85551000Y-116610000D02*
X85551000Y-117223000D01*
X85591000Y-113965000D02*
X85591000Y-117175000D01*
X85631000Y-114016000D02*
X85631000Y-117124000D01*
X85671000Y-114070000D02*
X85671000Y-117070000D01*
X85711000Y-114127000D02*
X85711000Y-117013000D01*
X85751000Y-114187000D02*
X85751000Y-116953000D01*
X85791000Y-114251000D02*
X85791000Y-116889000D01*
X85831000Y-114319000D02*
X85831000Y-116821000D01*
X85871000Y-114392000D02*
X85871000Y-116748000D01*
X85911000Y-114472000D02*
X85911000Y-116668000D01*
X85951000Y-114559000D02*
X85951000Y-116581000D01*
X85991000Y-114655000D02*
X85991000Y-116485000D01*
X86031000Y-114765000D02*
X86031000Y-116375000D01*
X86071000Y-114893000D02*
X86071000Y-116247000D01*
X86111000Y-115052000D02*
X86111000Y-116088000D01*
X86151000Y-115286000D02*
X86151000Y-115854000D01*
X80745225Y-114095000D02*
X81245225Y-114095000D01*
X80995225Y-113845000D02*
X80995225Y-114345000D01*
X79287000Y-78636000D02*
X79287000Y-80876000D01*
X79287000Y-80876000D02*
X83527000Y-80876000D01*
X83527000Y-80876000D02*
X83527000Y-78636000D01*
X83527000Y-78636000D02*
X79287000Y-78636000D01*
X78637000Y-79756000D02*
X79287000Y-79756000D01*
X84177000Y-79756000D02*
X83527000Y-79756000D01*
X80007000Y-78636000D02*
X80007000Y-80876000D01*
X80127000Y-78636000D02*
X80127000Y-80876000D01*
X79887000Y-78636000D02*
X79887000Y-80876000D01*
X79887000Y-81684000D02*
X79887000Y-83924000D01*
X80127000Y-81684000D02*
X80127000Y-83924000D01*
X80007000Y-81684000D02*
X80007000Y-83924000D01*
X84177000Y-82804000D02*
X83527000Y-82804000D01*
X78637000Y-82804000D02*
X79287000Y-82804000D01*
X83527000Y-81684000D02*
X79287000Y-81684000D01*
X83527000Y-83924000D02*
X83527000Y-81684000D01*
X79287000Y-83924000D02*
X83527000Y-83924000D01*
X79287000Y-81684000D02*
X79287000Y-83924000D01*
X107896000Y-51128000D02*
X104956000Y-51128000D01*
X104956000Y-51128000D02*
X104956000Y-56568000D01*
X104956000Y-56568000D02*
X107896000Y-56568000D01*
X107896000Y-56568000D02*
X107896000Y-51128000D01*
X106426000Y-50108000D02*
X106426000Y-51128000D01*
X106426000Y-57588000D02*
X106426000Y-56568000D01*
X107896000Y-52028000D02*
X104956000Y-52028000D01*
X107896000Y-52148000D02*
X104956000Y-52148000D01*
X107896000Y-51908000D02*
X104956000Y-51908000D01*
X111706000Y-51908000D02*
X108766000Y-51908000D01*
X111706000Y-52148000D02*
X108766000Y-52148000D01*
X111706000Y-52028000D02*
X108766000Y-52028000D01*
X110236000Y-57588000D02*
X110236000Y-56568000D01*
X110236000Y-50108000D02*
X110236000Y-51128000D01*
X111706000Y-56568000D02*
X111706000Y-51128000D01*
X108766000Y-56568000D02*
X111706000Y-56568000D01*
X108766000Y-51128000D02*
X108766000Y-56568000D01*
X111706000Y-51128000D02*
X108766000Y-51128000D01*
X112618332Y-119198000D02*
X102118332Y-119198000D01*
X112618332Y-128198000D02*
X102118332Y-128198000D01*
X102118332Y-128198000D02*
X102118332Y-124198000D01*
X102118332Y-123198000D02*
X102118332Y-119198000D01*
X112618332Y-128198000D02*
X112618332Y-124048000D01*
X112618332Y-123348000D02*
X112618332Y-119198000D01*
X109918332Y-123698000D02*
G75*
G03X109918332Y-123698000I-1800000J0D01*
G01*
X115598332Y-122638000D02*
X114798332Y-122638000D01*
X115598332Y-122638000D02*
X115598332Y-123498000D01*
X87097554Y-128198000D02*
X97597554Y-128198000D01*
X87097554Y-119198000D02*
X97597554Y-119198000D01*
X97597554Y-119198000D02*
X97597554Y-123198000D01*
X97597554Y-124198000D02*
X97597554Y-128198000D01*
X87097554Y-119198000D02*
X87097554Y-123348000D01*
X87097554Y-124048000D02*
X87097554Y-128198000D01*
X93397554Y-123698000D02*
G75*
G03X93397554Y-123698000I-1800000J0D01*
G01*
X84117554Y-124758000D02*
X84917554Y-124758000D01*
X84117554Y-124758000D02*
X84117554Y-123898000D01*
X79756777Y-122638000D02*
X79756777Y-123498000D01*
X79756777Y-122638000D02*
X78956777Y-122638000D01*
X74076777Y-123698000D02*
G75*
G03X74076777Y-123698000I-1800000J0D01*
G01*
X76776777Y-123348000D02*
X76776777Y-119198000D01*
X76776777Y-128198000D02*
X76776777Y-124048000D01*
X66276777Y-123198000D02*
X66276777Y-119198000D01*
X66276777Y-128198000D02*
X66276777Y-124198000D01*
X76776777Y-128198000D02*
X66276777Y-128198000D01*
X76776777Y-119198000D02*
X66276777Y-119198000D01*
X51256000Y-128198000D02*
X61756000Y-128198000D01*
X51256000Y-119198000D02*
X61756000Y-119198000D01*
X61756000Y-119198000D02*
X61756000Y-123198000D01*
X61756000Y-124198000D02*
X61756000Y-128198000D01*
X51256000Y-119198000D02*
X51256000Y-123348000D01*
X51256000Y-124048000D02*
X51256000Y-128198000D01*
X57556000Y-123698000D02*
G75*
G03X57556000Y-123698000I-1800000J0D01*
G01*
X48276000Y-124758000D02*
X49076000Y-124758000D01*
X48276000Y-124758000D02*
X48276000Y-123898000D01*
X77796000Y-132790000D02*
X77796000Y-143290000D01*
X86796000Y-132790000D02*
X86796000Y-143290000D01*
X86796000Y-143290000D02*
X82796000Y-143290000D01*
X81796000Y-143290000D02*
X77796000Y-143290000D01*
X86796000Y-132790000D02*
X82646000Y-132790000D01*
X81946000Y-132790000D02*
X77796000Y-132790000D01*
X84096000Y-137290000D02*
G75*
G03X84096000Y-137290000I-1800000J0D01*
G01*
X81236000Y-129810000D02*
X81236000Y-130610000D01*
X81236000Y-129810000D02*
X82096000Y-129810000D01*
X109303000Y-129810000D02*
X110163000Y-129810000D01*
X109303000Y-129810000D02*
X109303000Y-130610000D01*
X112163000Y-137290000D02*
G75*
G03X112163000Y-137290000I-1800000J0D01*
G01*
X110013000Y-132790000D02*
X105863000Y-132790000D01*
X114863000Y-132790000D02*
X110713000Y-132790000D01*
X109863000Y-143290000D02*
X105863000Y-143290000D01*
X114863000Y-143290000D02*
X110863000Y-143290000D01*
X114863000Y-132790000D02*
X114863000Y-143290000D01*
X105863000Y-132790000D02*
X105863000Y-143290000D01*
X94909666Y-129810000D02*
X95769666Y-129810000D01*
X94909666Y-129810000D02*
X94909666Y-130610000D01*
X97769666Y-137290000D02*
G75*
G03X97769666Y-137290000I-1800000J0D01*
G01*
X95619666Y-132790000D02*
X91469666Y-132790000D01*
X100469666Y-132790000D02*
X96319666Y-132790000D01*
X95469666Y-143290000D02*
X91469666Y-143290000D01*
X100469666Y-143290000D02*
X96469666Y-143290000D01*
X100469666Y-132790000D02*
X100469666Y-143290000D01*
X91469666Y-132790000D02*
X91469666Y-143290000D01*
X53423000Y-129810000D02*
X54283000Y-129810000D01*
X53423000Y-129810000D02*
X53423000Y-130610000D01*
X56283000Y-137290000D02*
G75*
G03X56283000Y-137290000I-1800000J0D01*
G01*
X54133000Y-132790000D02*
X49983000Y-132790000D01*
X58983000Y-132790000D02*
X54833000Y-132790000D01*
X53983000Y-143290000D02*
X49983000Y-143290000D01*
X58983000Y-143290000D02*
X54983000Y-143290000D01*
X58983000Y-132790000D02*
X58983000Y-143290000D01*
X49983000Y-132790000D02*
X49983000Y-143290000D01*
X64376333Y-132790000D02*
X64376333Y-143290000D01*
X73376333Y-132790000D02*
X73376333Y-143290000D01*
X73376333Y-143290000D02*
X69376333Y-143290000D01*
X68376333Y-143290000D02*
X64376333Y-143290000D01*
X73376333Y-132790000D02*
X69226333Y-132790000D01*
X68526333Y-132790000D02*
X64376333Y-132790000D01*
X70676333Y-137290000D02*
G75*
G03X70676333Y-137290000I-1800000J0D01*
G01*
X67816333Y-129810000D02*
X67816333Y-130610000D01*
X67816333Y-129810000D02*
X68676333Y-129810000D01*
X103450000Y-83588000D02*
X103450000Y-79988000D01*
X103438478Y-83626478D02*
G75*
G02X99000000Y-81788000I-1838478J1838478D01*
G01*
X103438478Y-79949522D02*
G75*
G03X99000000Y-81788000I-1838478J-1838478D01*
G01*
X76018800Y-61904000D02*
X72418800Y-61904000D01*
X76057278Y-61915522D02*
G75*
G02X74218800Y-66354000I-1838478J-1838478D01*
G01*
X72380322Y-61915522D02*
G75*
G03X74218800Y-66354000I1838478J-1838478D01*
G01*
X98271000Y-83312000D02*
G75*
G03X98271000Y-83312000I-1370000J0D01*
G01*
X95531000Y-83312000D02*
X92921000Y-83312000D01*
X111098000Y-62230000D02*
G75*
G03X111098000Y-62230000I-1370000J0D01*
G01*
X109728000Y-63600000D02*
X109728000Y-66210000D01*
X100099800Y-76352400D02*
G75*
G03X100099800Y-76352400I-1370000J0D01*
G01*
X98729800Y-74982400D02*
X98729800Y-72372400D01*
X104163800Y-68859400D02*
G75*
G03X104163800Y-68859400I-1370000J0D01*
G01*
X102793800Y-67489400D02*
X102793800Y-64879400D01*
X61468000Y-134466000D02*
X61468000Y-137076000D01*
X62838000Y-133096000D02*
G75*
G03X62838000Y-133096000I-1370000J0D01*
G01*
X93699000Y-80010000D02*
X96309000Y-80010000D01*
X93699000Y-80010000D02*
G75*
G03X93699000Y-80010000I-1370000J0D01*
G01*
X70204000Y-61214000D02*
G75*
G03X70204000Y-61214000I-1370000J0D01*
G01*
X68834000Y-59844000D02*
X68834000Y-57234000D01*
X102285800Y-75490400D02*
X102285800Y-72880400D01*
X103655800Y-76860400D02*
G75*
G03X103655800Y-76860400I-1370000J0D01*
G01*
X74803000Y-82958000D02*
X74803000Y-80348000D01*
X76173000Y-84328000D02*
G75*
G03X76173000Y-84328000I-1370000J0D01*
G01*
X107389600Y-85344000D02*
G75*
G03X107389600Y-85344000I-1370000J0D01*
G01*
X106019600Y-83974000D02*
X106019600Y-81364000D01*
X107796000Y-67056000D02*
G75*
G03X107796000Y-67056000I-1370000J0D01*
G01*
X106426000Y-65686000D02*
X106426000Y-63076000D01*
X102716000Y-102108000D02*
G75*
G03X102716000Y-102108000I-1370000J0D01*
G01*
X101346000Y-103478000D02*
X101346000Y-106088000D01*
X101192000Y-121158000D02*
G75*
G03X101192000Y-121158000I-1370000J0D01*
G01*
X99822000Y-122528000D02*
X99822000Y-125138000D01*
X80364000Y-65125600D02*
X82974000Y-65125600D01*
X80364000Y-65125600D02*
G75*
G03X80364000Y-65125600I-1370000J0D01*
G01*
X62076000Y-79756000D02*
G75*
G03X62076000Y-79756000I-1370000J0D01*
G01*
X60706000Y-81126000D02*
X60706000Y-83736000D01*
X89762000Y-55626000D02*
G75*
G03X89762000Y-55626000I-1370000J0D01*
G01*
X88392000Y-56996000D02*
X88392000Y-59606000D01*
X82804000Y-95477000D02*
X82804000Y-98087000D01*
X84174000Y-94107000D02*
G75*
G03X84174000Y-94107000I-1370000J0D01*
G01*
X65632000Y-84328000D02*
G75*
G03X65632000Y-84328000I-1370000J0D01*
G01*
X64262000Y-82958000D02*
X64262000Y-80348000D01*
X79121000Y-87476000D02*
X79121000Y-90086000D01*
X80491000Y-86106000D02*
G75*
G03X80491000Y-86106000I-1370000J0D01*
G01*
X82931000Y-87476000D02*
X82931000Y-90086000D01*
X84301000Y-86106000D02*
G75*
G03X84301000Y-86106000I-1370000J0D01*
G01*
X67564000Y-81126000D02*
X67564000Y-83736000D01*
X68934000Y-79756000D02*
G75*
G03X68934000Y-79756000I-1370000J0D01*
G01*
X98779000Y-95250000D02*
X101389000Y-95250000D01*
X98779000Y-95250000D02*
G75*
G03X98779000Y-95250000I-1370000J0D01*
G01*
X112114000Y-77216000D02*
G75*
G03X112114000Y-77216000I-1370000J0D01*
G01*
X109374000Y-77216000D02*
X106764000Y-77216000D01*
X98779000Y-91821000D02*
X101389000Y-91821000D01*
X98779000Y-91821000D02*
G75*
G03X98779000Y-91821000I-1370000J0D01*
G01*
X80364000Y-110744000D02*
G75*
G03X80364000Y-110744000I-1370000J0D01*
G01*
X78994000Y-112114000D02*
X78994000Y-114724000D01*
X69188000Y-72390000D02*
X71798000Y-72390000D01*
X69188000Y-72390000D02*
G75*
G03X69188000Y-72390000I-1370000J0D01*
G01*
X98779000Y-98806000D02*
X101389000Y-98806000D01*
X98779000Y-98806000D02*
G75*
G03X98779000Y-98806000I-1370000J0D01*
G01*
X76808000Y-115316000D02*
G75*
G03X76808000Y-115316000I-1370000J0D01*
G01*
X75438000Y-113946000D02*
X75438000Y-111336000D01*
X75438000Y-90705000D02*
X75438000Y-88095000D01*
X76808000Y-92075000D02*
G75*
G03X76808000Y-92075000I-1370000J0D01*
G01*
X115162000Y-56134000D02*
G75*
G03X115162000Y-56134000I-1370000J0D01*
G01*
X113792000Y-57504000D02*
X113792000Y-60114000D01*
X54202000Y-96139000D02*
X56812000Y-96139000D01*
X54202000Y-96139000D02*
G75*
G03X54202000Y-96139000I-1370000J0D01*
G01*
X49530000Y-106834000D02*
X49530000Y-104224000D01*
X50900000Y-108204000D02*
G75*
G03X50900000Y-108204000I-1370000J0D01*
G01*
X68353000Y-65024000D02*
X65743000Y-65024000D01*
X71093000Y-65024000D02*
G75*
G03X71093000Y-65024000I-1370000J0D01*
G01*
X54456000Y-99568000D02*
G75*
G03X54456000Y-99568000I-1370000J0D01*
G01*
X53086000Y-100938000D02*
X53086000Y-103548000D01*
X54456000Y-116332000D02*
G75*
G03X54456000Y-116332000I-1370000J0D01*
G01*
X53086000Y-114962000D02*
X53086000Y-112352000D01*
X50900000Y-95504000D02*
G75*
G03X50900000Y-95504000I-1370000J0D01*
G01*
X49530000Y-96874000D02*
X49530000Y-99484000D01*
X49530000Y-113130000D02*
X49530000Y-115740000D01*
X50900000Y-111760000D02*
G75*
G03X50900000Y-111760000I-1370000J0D01*
G01*
X52605000Y-65024000D02*
X49995000Y-65024000D01*
X55345000Y-65024000D02*
G75*
G03X55345000Y-65024000I-1370000J0D01*
G01*
X98652000Y-109982000D02*
X101262000Y-109982000D01*
X98652000Y-109982000D02*
G75*
G03X98652000Y-109982000I-1370000J0D01*
G01*
X71147000Y-75819000D02*
X68537000Y-75819000D01*
X73887000Y-75819000D02*
G75*
G03X73887000Y-75819000I-1370000J0D01*
G01*
X80491000Y-99314000D02*
G75*
G03X80491000Y-99314000I-1370000J0D01*
G01*
X79121000Y-97944000D02*
X79121000Y-95334000D01*
X50900000Y-68580000D02*
G75*
G03X50900000Y-68580000I-1370000J0D01*
G01*
X49530000Y-69950000D02*
X49530000Y-72560000D01*
X79121000Y-106072000D02*
X79121000Y-103462000D01*
X80491000Y-107442000D02*
G75*
G03X80491000Y-107442000I-1370000J0D01*
G01*
X76808000Y-99060000D02*
G75*
G03X76808000Y-99060000I-1370000J0D01*
G01*
X75438000Y-100430000D02*
X75438000Y-103040000D01*
X84178000Y-49521000D02*
X84178000Y-53386000D01*
X84178000Y-57896000D02*
X84178000Y-61761000D01*
X74238000Y-49521000D02*
X74238000Y-53386000D01*
X74238000Y-57896000D02*
X74238000Y-61761000D01*
X84178000Y-49521000D02*
X82579000Y-49521000D01*
X80837000Y-49521000D02*
X80078000Y-49521000D01*
X78337000Y-49521000D02*
X77578000Y-49521000D01*
X75838000Y-49521000D02*
X74238000Y-49521000D01*
X84178000Y-61761000D02*
X74238000Y-61761000D01*
X102593000Y-61761000D02*
X92653000Y-61761000D01*
X94253000Y-49521000D02*
X92653000Y-49521000D01*
X96752000Y-49521000D02*
X95993000Y-49521000D01*
X99252000Y-49521000D02*
X98493000Y-49521000D01*
X102593000Y-49521000D02*
X100994000Y-49521000D01*
X92653000Y-57896000D02*
X92653000Y-61761000D01*
X92653000Y-49521000D02*
X92653000Y-53386000D01*
X102593000Y-57896000D02*
X102593000Y-61761000D01*
X102593000Y-49521000D02*
X102593000Y-53386000D01*
X61445000Y-49521000D02*
X61445000Y-53386000D01*
X61445000Y-57896000D02*
X61445000Y-61761000D01*
X51505000Y-49521000D02*
X51505000Y-53386000D01*
X51505000Y-57896000D02*
X51505000Y-61761000D01*
X61445000Y-49521000D02*
X59846000Y-49521000D01*
X58104000Y-49521000D02*
X57345000Y-49521000D01*
X55604000Y-49521000D02*
X54845000Y-49521000D01*
X53105000Y-49521000D02*
X51505000Y-49521000D01*
X61445000Y-61761000D02*
X51505000Y-61761000D01*
X114613000Y-75174000D02*
X104843000Y-75174000D01*
X114613000Y-70104000D02*
X104843000Y-70104000D01*
X114613000Y-75174000D02*
X114613000Y-70104000D01*
X104843000Y-75174000D02*
X104843000Y-70104000D01*
X116133000Y-72709000D02*
X114614000Y-72709000D01*
X116133000Y-70279000D02*
X114614000Y-70279000D01*
X116133000Y-72709000D02*
X116133000Y-70279000D01*
X114614000Y-72709000D02*
X114614000Y-70279000D01*
X116133000Y-71494000D02*
X115374000Y-71494000D01*
X65516000Y-86554000D02*
G75*
G02X63516000Y-86554000I-1000000J0D01*
G01*
X63516000Y-86554000D02*
X61866000Y-86554000D01*
X61866000Y-86554000D02*
X61866000Y-96834000D01*
X61866000Y-96834000D02*
X67166000Y-96834000D01*
X67166000Y-96834000D02*
X67166000Y-86554000D01*
X67166000Y-86554000D02*
X65516000Y-86554000D01*
X59376000Y-86494000D02*
X59376000Y-96894000D01*
X59376000Y-96894000D02*
X69656000Y-96894000D01*
X69656000Y-96894000D02*
X69656000Y-86494000D01*
X69656000Y-86494000D02*
X59376000Y-86494000D01*
X114614000Y-91828000D02*
X104334000Y-91828000D01*
X114614000Y-112388000D02*
X114614000Y-91828000D01*
X104334000Y-112388000D02*
X114614000Y-112388000D01*
X104334000Y-91828000D02*
X104334000Y-112388000D01*
X112124000Y-91888000D02*
X110474000Y-91888000D01*
X112124000Y-112328000D02*
X112124000Y-91888000D01*
X106824000Y-112328000D02*
X112124000Y-112328000D01*
X106824000Y-91888000D02*
X106824000Y-112328000D01*
X108474000Y-91888000D02*
X106824000Y-91888000D01*
X110474000Y-91888000D02*
G75*
G02X108474000Y-91888000I-1000000J0D01*
G01*
X65719000Y-67317000D02*
X55439000Y-67317000D01*
X65719000Y-77717000D02*
X65719000Y-67317000D01*
X55439000Y-77717000D02*
X65719000Y-77717000D01*
X55439000Y-67317000D02*
X55439000Y-77717000D01*
X63229000Y-67377000D02*
X61579000Y-67377000D01*
X63229000Y-77657000D02*
X63229000Y-67377000D01*
X57929000Y-77657000D02*
X63229000Y-77657000D01*
X57929000Y-67377000D02*
X57929000Y-77657000D01*
X59579000Y-67377000D02*
X57929000Y-67377000D01*
X61579000Y-67377000D02*
G75*
G02X59579000Y-67377000I-1000000J0D01*
G01*
X69402478Y-48707522D02*
G75*
G03X64964000Y-50546000I-1838478J-1838478D01*
G01*
X69402478Y-52384478D02*
G75*
G02X64964000Y-50546000I-1838478J1838478D01*
G01*
X69414000Y-52346000D02*
X69414000Y-48746000D01*
X78543800Y-67402400D02*
X78543800Y-77682400D01*
X96563800Y-67402400D02*
X78543800Y-67402400D01*
X96563800Y-77682400D02*
X96563800Y-67402400D01*
X78543800Y-77682400D02*
X96563800Y-77682400D01*
X78603800Y-69892400D02*
X78603800Y-71542400D01*
X96503800Y-69892400D02*
X78603800Y-69892400D01*
X96503800Y-75192400D02*
X96503800Y-69892400D01*
X78603800Y-75192400D02*
X96503800Y-75192400D01*
X78603800Y-73542400D02*
X78603800Y-75192400D01*
X78603800Y-71542400D02*
G75*
G02X78603800Y-73542400I0J-1000000D01*
G01*
X65262000Y-98238000D02*
G75*
G02X63262000Y-98238000I-1000000J0D01*
G01*
X63262000Y-98238000D02*
X61612000Y-98238000D01*
X61612000Y-98238000D02*
X61612000Y-116138000D01*
X61612000Y-116138000D02*
X66912000Y-116138000D01*
X66912000Y-116138000D02*
X66912000Y-98238000D01*
X66912000Y-98238000D02*
X65262000Y-98238000D01*
X59122000Y-98178000D02*
X59122000Y-116198000D01*
X59122000Y-116198000D02*
X69402000Y-116198000D01*
X69402000Y-116198000D02*
X69402000Y-98178000D01*
X69402000Y-98178000D02*
X59122000Y-98178000D01*
X91297000Y-87062000D02*
G75*
G02X89297000Y-87062000I-1000000J0D01*
G01*
X89297000Y-87062000D02*
X87647000Y-87062000D01*
X87647000Y-87062000D02*
X87647000Y-107502000D01*
X87647000Y-107502000D02*
X92947000Y-107502000D01*
X92947000Y-107502000D02*
X92947000Y-87062000D01*
X92947000Y-87062000D02*
X91297000Y-87062000D01*
X85157000Y-87002000D02*
X85157000Y-107562000D01*
X85157000Y-107562000D02*
X95437000Y-107562000D01*
X95437000Y-107562000D02*
X95437000Y-87002000D01*
X95437000Y-87002000D02*
X85157000Y-87002000D01*
D10*
X107402333Y-89511142D02*
X107354714Y-89558761D01*
X107211857Y-89606380D01*
X107116619Y-89606380D01*
X106973761Y-89558761D01*
X106878523Y-89463523D01*
X106830904Y-89368285D01*
X106783285Y-89177809D01*
X106783285Y-89034952D01*
X106830904Y-88844476D01*
X106878523Y-88749238D01*
X106973761Y-88654000D01*
X107116619Y-88606380D01*
X107211857Y-88606380D01*
X107354714Y-88654000D01*
X107402333Y-88701619D01*
X107735666Y-88606380D02*
X108402333Y-88606380D01*
X107973761Y-89606380D01*
X114784142Y-83097666D02*
X114831761Y-83145285D01*
X114879380Y-83288142D01*
X114879380Y-83383380D01*
X114831761Y-83526238D01*
X114736523Y-83621476D01*
X114641285Y-83669095D01*
X114450809Y-83716714D01*
X114307952Y-83716714D01*
X114117476Y-83669095D01*
X114022238Y-83621476D01*
X113927000Y-83526238D01*
X113879380Y-83383380D01*
X113879380Y-83288142D01*
X113927000Y-83145285D01*
X113974619Y-83097666D01*
X113879380Y-82764333D02*
X113879380Y-82145285D01*
X114260333Y-82478619D01*
X114260333Y-82335761D01*
X114307952Y-82240523D01*
X114355571Y-82192904D01*
X114450809Y-82145285D01*
X114688904Y-82145285D01*
X114784142Y-82192904D01*
X114831761Y-82240523D01*
X114879380Y-82335761D01*
X114879380Y-82621476D01*
X114831761Y-82716714D01*
X114784142Y-82764333D01*
X110704333Y-115673142D02*
X110656714Y-115720761D01*
X110513857Y-115768380D01*
X110418619Y-115768380D01*
X110275761Y-115720761D01*
X110180523Y-115625523D01*
X110132904Y-115530285D01*
X110085285Y-115339809D01*
X110085285Y-115196952D01*
X110132904Y-115006476D01*
X110180523Y-114911238D01*
X110275761Y-114816000D01*
X110418619Y-114768380D01*
X110513857Y-114768380D01*
X110656714Y-114816000D01*
X110704333Y-114863619D01*
X111656714Y-115768380D02*
X111085285Y-115768380D01*
X111371000Y-115768380D02*
X111371000Y-114768380D01*
X111275761Y-114911238D01*
X111180523Y-115006476D01*
X111085285Y-115054095D01*
X99594942Y-66613066D02*
X99642561Y-66660685D01*
X99690180Y-66803542D01*
X99690180Y-66898780D01*
X99642561Y-67041638D01*
X99547323Y-67136876D01*
X99452085Y-67184495D01*
X99261609Y-67232114D01*
X99118752Y-67232114D01*
X98928276Y-67184495D01*
X98833038Y-67136876D01*
X98737800Y-67041638D01*
X98690180Y-66898780D01*
X98690180Y-66803542D01*
X98737800Y-66660685D01*
X98785419Y-66613066D01*
X98785419Y-66232114D02*
X98737800Y-66184495D01*
X98690180Y-66089257D01*
X98690180Y-65851161D01*
X98737800Y-65755923D01*
X98785419Y-65708304D01*
X98880657Y-65660685D01*
X98975895Y-65660685D01*
X99118752Y-65708304D01*
X99690180Y-66279733D01*
X99690180Y-65660685D01*
X99706133Y-87987142D02*
X99658514Y-88034761D01*
X99515657Y-88082380D01*
X99420419Y-88082380D01*
X99277561Y-88034761D01*
X99182323Y-87939523D01*
X99134704Y-87844285D01*
X99087085Y-87653809D01*
X99087085Y-87510952D01*
X99134704Y-87320476D01*
X99182323Y-87225238D01*
X99277561Y-87130000D01*
X99420419Y-87082380D01*
X99515657Y-87082380D01*
X99658514Y-87130000D01*
X99706133Y-87177619D01*
X100563276Y-87415714D02*
X100563276Y-88082380D01*
X100325180Y-87034761D02*
X100087085Y-87749047D01*
X100706133Y-87749047D01*
X54951333Y-108053142D02*
X54903714Y-108100761D01*
X54760857Y-108148380D01*
X54665619Y-108148380D01*
X54522761Y-108100761D01*
X54427523Y-108005523D01*
X54379904Y-107910285D01*
X54332285Y-107719809D01*
X54332285Y-107576952D01*
X54379904Y-107386476D01*
X54427523Y-107291238D01*
X54522761Y-107196000D01*
X54665619Y-107148380D01*
X54760857Y-107148380D01*
X54903714Y-107196000D01*
X54951333Y-107243619D01*
X55856095Y-107148380D02*
X55379904Y-107148380D01*
X55332285Y-107624571D01*
X55379904Y-107576952D01*
X55475142Y-107529333D01*
X55713238Y-107529333D01*
X55808476Y-107576952D01*
X55856095Y-107624571D01*
X55903714Y-107719809D01*
X55903714Y-107957904D01*
X55856095Y-108053142D01*
X55808476Y-108100761D01*
X55713238Y-108148380D01*
X55475142Y-108148380D01*
X55379904Y-108100761D01*
X55332285Y-108053142D01*
X73199333Y-107545142D02*
X73151714Y-107592761D01*
X73008857Y-107640380D01*
X72913619Y-107640380D01*
X72770761Y-107592761D01*
X72675523Y-107497523D01*
X72627904Y-107402285D01*
X72580285Y-107211809D01*
X72580285Y-107068952D01*
X72627904Y-106878476D01*
X72675523Y-106783238D01*
X72770761Y-106688000D01*
X72913619Y-106640380D01*
X73008857Y-106640380D01*
X73151714Y-106688000D01*
X73199333Y-106735619D01*
X74056476Y-106640380D02*
X73866000Y-106640380D01*
X73770761Y-106688000D01*
X73723142Y-106735619D01*
X73627904Y-106878476D01*
X73580285Y-107068952D01*
X73580285Y-107449904D01*
X73627904Y-107545142D01*
X73675523Y-107592761D01*
X73770761Y-107640380D01*
X73961238Y-107640380D01*
X74056476Y-107592761D01*
X74104095Y-107545142D01*
X74151714Y-107449904D01*
X74151714Y-107211809D01*
X74104095Y-107116571D01*
X74056476Y-107068952D01*
X73961238Y-107021333D01*
X73770761Y-107021333D01*
X73675523Y-107068952D01*
X73627904Y-107116571D01*
X73580285Y-107211809D01*
X113895142Y-66206666D02*
X113942761Y-66254285D01*
X113990380Y-66397142D01*
X113990380Y-66492380D01*
X113942761Y-66635238D01*
X113847523Y-66730476D01*
X113752285Y-66778095D01*
X113561809Y-66825714D01*
X113418952Y-66825714D01*
X113228476Y-66778095D01*
X113133238Y-66730476D01*
X113038000Y-66635238D01*
X112990380Y-66492380D01*
X112990380Y-66397142D01*
X113038000Y-66254285D01*
X113085619Y-66206666D01*
X113418952Y-65635238D02*
X113371333Y-65730476D01*
X113323714Y-65778095D01*
X113228476Y-65825714D01*
X113180857Y-65825714D01*
X113085619Y-65778095D01*
X113038000Y-65730476D01*
X112990380Y-65635238D01*
X112990380Y-65444761D01*
X113038000Y-65349523D01*
X113085619Y-65301904D01*
X113180857Y-65254285D01*
X113228476Y-65254285D01*
X113323714Y-65301904D01*
X113371333Y-65349523D01*
X113418952Y-65444761D01*
X113418952Y-65635238D01*
X113466571Y-65730476D01*
X113514190Y-65778095D01*
X113609428Y-65825714D01*
X113799904Y-65825714D01*
X113895142Y-65778095D01*
X113942761Y-65730476D01*
X113990380Y-65635238D01*
X113990380Y-65444761D01*
X113942761Y-65349523D01*
X113895142Y-65301904D01*
X113799904Y-65254285D01*
X113609428Y-65254285D01*
X113514190Y-65301904D01*
X113466571Y-65349523D01*
X113418952Y-65444761D01*
X89892142Y-82462666D02*
X89939761Y-82510285D01*
X89987380Y-82653142D01*
X89987380Y-82748380D01*
X89939761Y-82891238D01*
X89844523Y-82986476D01*
X89749285Y-83034095D01*
X89558809Y-83081714D01*
X89415952Y-83081714D01*
X89225476Y-83034095D01*
X89130238Y-82986476D01*
X89035000Y-82891238D01*
X88987380Y-82748380D01*
X88987380Y-82653142D01*
X89035000Y-82510285D01*
X89082619Y-82462666D01*
X89987380Y-81986476D02*
X89987380Y-81796000D01*
X89939761Y-81700761D01*
X89892142Y-81653142D01*
X89749285Y-81557904D01*
X89558809Y-81510285D01*
X89177857Y-81510285D01*
X89082619Y-81557904D01*
X89035000Y-81605523D01*
X88987380Y-81700761D01*
X88987380Y-81891238D01*
X89035000Y-81986476D01*
X89082619Y-82034095D01*
X89177857Y-82081714D01*
X89415952Y-82081714D01*
X89511190Y-82034095D01*
X89558809Y-81986476D01*
X89606428Y-81891238D01*
X89606428Y-81700761D01*
X89558809Y-81605523D01*
X89511190Y-81557904D01*
X89415952Y-81510285D01*
X92458942Y-65025542D02*
X92411323Y-65073161D01*
X92268466Y-65120780D01*
X92173228Y-65120780D01*
X92030371Y-65073161D01*
X91935133Y-64977923D01*
X91887514Y-64882685D01*
X91839895Y-64692209D01*
X91839895Y-64549352D01*
X91887514Y-64358876D01*
X91935133Y-64263638D01*
X92030371Y-64168400D01*
X92173228Y-64120780D01*
X92268466Y-64120780D01*
X92411323Y-64168400D01*
X92458942Y-64216019D01*
X93411323Y-65120780D02*
X92839895Y-65120780D01*
X93125609Y-65120780D02*
X93125609Y-64120780D01*
X93030371Y-64263638D01*
X92935133Y-64358876D01*
X92839895Y-64406495D01*
X94030371Y-64120780D02*
X94125609Y-64120780D01*
X94220847Y-64168400D01*
X94268466Y-64216019D01*
X94316085Y-64311257D01*
X94363704Y-64501733D01*
X94363704Y-64739828D01*
X94316085Y-64930304D01*
X94268466Y-65025542D01*
X94220847Y-65073161D01*
X94125609Y-65120780D01*
X94030371Y-65120780D01*
X93935133Y-65073161D01*
X93887514Y-65025542D01*
X93839895Y-64930304D01*
X93792276Y-64739828D01*
X93792276Y-64501733D01*
X93839895Y-64311257D01*
X93887514Y-64216019D01*
X93935133Y-64168400D01*
X94030371Y-64120780D01*
X57507142Y-82898857D02*
X57554761Y-82946476D01*
X57602380Y-83089333D01*
X57602380Y-83184571D01*
X57554761Y-83327428D01*
X57459523Y-83422666D01*
X57364285Y-83470285D01*
X57173809Y-83517904D01*
X57030952Y-83517904D01*
X56840476Y-83470285D01*
X56745238Y-83422666D01*
X56650000Y-83327428D01*
X56602380Y-83184571D01*
X56602380Y-83089333D01*
X56650000Y-82946476D01*
X56697619Y-82898857D01*
X57602380Y-81946476D02*
X57602380Y-82517904D01*
X57602380Y-82232190D02*
X56602380Y-82232190D01*
X56745238Y-82327428D01*
X56840476Y-82422666D01*
X56888095Y-82517904D01*
X57602380Y-80994095D02*
X57602380Y-81565523D01*
X57602380Y-81279809D02*
X56602380Y-81279809D01*
X56745238Y-81375047D01*
X56840476Y-81470285D01*
X56888095Y-81565523D01*
X75658742Y-74931542D02*
X75611123Y-74979161D01*
X75468266Y-75026780D01*
X75373028Y-75026780D01*
X75230171Y-74979161D01*
X75134933Y-74883923D01*
X75087314Y-74788685D01*
X75039695Y-74598209D01*
X75039695Y-74455352D01*
X75087314Y-74264876D01*
X75134933Y-74169638D01*
X75230171Y-74074400D01*
X75373028Y-74026780D01*
X75468266Y-74026780D01*
X75611123Y-74074400D01*
X75658742Y-74122019D01*
X76611123Y-75026780D02*
X76039695Y-75026780D01*
X76325409Y-75026780D02*
X76325409Y-74026780D01*
X76230171Y-74169638D01*
X76134933Y-74264876D01*
X76039695Y-74312495D01*
X76992076Y-74122019D02*
X77039695Y-74074400D01*
X77134933Y-74026780D01*
X77373028Y-74026780D01*
X77468266Y-74074400D01*
X77515885Y-74122019D01*
X77563504Y-74217257D01*
X77563504Y-74312495D01*
X77515885Y-74455352D01*
X76944457Y-75026780D01*
X77563504Y-75026780D01*
X71239142Y-90273142D02*
X71191523Y-90320761D01*
X71048666Y-90368380D01*
X70953428Y-90368380D01*
X70810571Y-90320761D01*
X70715333Y-90225523D01*
X70667714Y-90130285D01*
X70620095Y-89939809D01*
X70620095Y-89796952D01*
X70667714Y-89606476D01*
X70715333Y-89511238D01*
X70810571Y-89416000D01*
X70953428Y-89368380D01*
X71048666Y-89368380D01*
X71191523Y-89416000D01*
X71239142Y-89463619D01*
X72191523Y-90368380D02*
X71620095Y-90368380D01*
X71905809Y-90368380D02*
X71905809Y-89368380D01*
X71810571Y-89511238D01*
X71715333Y-89606476D01*
X71620095Y-89654095D01*
X72524857Y-89368380D02*
X73143904Y-89368380D01*
X72810571Y-89749333D01*
X72953428Y-89749333D01*
X73048666Y-89796952D01*
X73096285Y-89844571D01*
X73143904Y-89939809D01*
X73143904Y-90177904D01*
X73096285Y-90273142D01*
X73048666Y-90320761D01*
X72953428Y-90368380D01*
X72667714Y-90368380D01*
X72572476Y-90320761D01*
X72524857Y-90273142D01*
X56491142Y-90558857D02*
X56538761Y-90606476D01*
X56586380Y-90749333D01*
X56586380Y-90844571D01*
X56538761Y-90987428D01*
X56443523Y-91082666D01*
X56348285Y-91130285D01*
X56157809Y-91177904D01*
X56014952Y-91177904D01*
X55824476Y-91130285D01*
X55729238Y-91082666D01*
X55634000Y-90987428D01*
X55586380Y-90844571D01*
X55586380Y-90749333D01*
X55634000Y-90606476D01*
X55681619Y-90558857D01*
X56586380Y-89606476D02*
X56586380Y-90177904D01*
X56586380Y-89892190D02*
X55586380Y-89892190D01*
X55729238Y-89987428D01*
X55824476Y-90082666D01*
X55872095Y-90177904D01*
X55919714Y-88749333D02*
X56586380Y-88749333D01*
X55538761Y-88987428D02*
X56253047Y-89225523D01*
X56253047Y-88606476D01*
X87003142Y-114851142D02*
X86955523Y-114898761D01*
X86812666Y-114946380D01*
X86717428Y-114946380D01*
X86574571Y-114898761D01*
X86479333Y-114803523D01*
X86431714Y-114708285D01*
X86384095Y-114517809D01*
X86384095Y-114374952D01*
X86431714Y-114184476D01*
X86479333Y-114089238D01*
X86574571Y-113994000D01*
X86717428Y-113946380D01*
X86812666Y-113946380D01*
X86955523Y-113994000D01*
X87003142Y-114041619D01*
X87955523Y-114946380D02*
X87384095Y-114946380D01*
X87669809Y-114946380D02*
X87669809Y-113946380D01*
X87574571Y-114089238D01*
X87479333Y-114184476D01*
X87384095Y-114232095D01*
X88860285Y-113946380D02*
X88384095Y-113946380D01*
X88336476Y-114422571D01*
X88384095Y-114374952D01*
X88479333Y-114327333D01*
X88717428Y-114327333D01*
X88812666Y-114374952D01*
X88860285Y-114422571D01*
X88907904Y-114517809D01*
X88907904Y-114755904D01*
X88860285Y-114851142D01*
X88812666Y-114898761D01*
X88717428Y-114946380D01*
X88479333Y-114946380D01*
X88384095Y-114898761D01*
X88336476Y-114851142D01*
X72493142Y-82898857D02*
X72540761Y-82946476D01*
X72588380Y-83089333D01*
X72588380Y-83184571D01*
X72540761Y-83327428D01*
X72445523Y-83422666D01*
X72350285Y-83470285D01*
X72159809Y-83517904D01*
X72016952Y-83517904D01*
X71826476Y-83470285D01*
X71731238Y-83422666D01*
X71636000Y-83327428D01*
X71588380Y-83184571D01*
X71588380Y-83089333D01*
X71636000Y-82946476D01*
X71683619Y-82898857D01*
X72588380Y-81946476D02*
X72588380Y-82517904D01*
X72588380Y-82232190D02*
X71588380Y-82232190D01*
X71731238Y-82327428D01*
X71826476Y-82422666D01*
X71874095Y-82517904D01*
X71588380Y-81089333D02*
X71588380Y-81279809D01*
X71636000Y-81375047D01*
X71683619Y-81422666D01*
X71826476Y-81517904D01*
X72016952Y-81565523D01*
X72397904Y-81565523D01*
X72493142Y-81517904D01*
X72540761Y-81470285D01*
X72588380Y-81375047D01*
X72588380Y-81184571D01*
X72540761Y-81089333D01*
X72493142Y-81041714D01*
X72397904Y-80994095D01*
X72159809Y-80994095D01*
X72064571Y-81041714D01*
X72016952Y-81089333D01*
X71969333Y-81184571D01*
X71969333Y-81375047D01*
X72016952Y-81470285D01*
X72064571Y-81517904D01*
X72159809Y-81565523D01*
X58920142Y-64365142D02*
X58872523Y-64412761D01*
X58729666Y-64460380D01*
X58634428Y-64460380D01*
X58491571Y-64412761D01*
X58396333Y-64317523D01*
X58348714Y-64222285D01*
X58301095Y-64031809D01*
X58301095Y-63888952D01*
X58348714Y-63698476D01*
X58396333Y-63603238D01*
X58491571Y-63508000D01*
X58634428Y-63460380D01*
X58729666Y-63460380D01*
X58872523Y-63508000D01*
X58920142Y-63555619D01*
X59872523Y-64460380D02*
X59301095Y-64460380D01*
X59586809Y-64460380D02*
X59586809Y-63460380D01*
X59491571Y-63603238D01*
X59396333Y-63698476D01*
X59301095Y-63746095D01*
X60205857Y-63460380D02*
X60872523Y-63460380D01*
X60443952Y-64460380D01*
X50451142Y-77573142D02*
X50403523Y-77620761D01*
X50260666Y-77668380D01*
X50165428Y-77668380D01*
X50022571Y-77620761D01*
X49927333Y-77525523D01*
X49879714Y-77430285D01*
X49832095Y-77239809D01*
X49832095Y-77096952D01*
X49879714Y-76906476D01*
X49927333Y-76811238D01*
X50022571Y-76716000D01*
X50165428Y-76668380D01*
X50260666Y-76668380D01*
X50403523Y-76716000D01*
X50451142Y-76763619D01*
X51403523Y-77668380D02*
X50832095Y-77668380D01*
X51117809Y-77668380D02*
X51117809Y-76668380D01*
X51022571Y-76811238D01*
X50927333Y-76906476D01*
X50832095Y-76954095D01*
X51974952Y-77096952D02*
X51879714Y-77049333D01*
X51832095Y-77001714D01*
X51784476Y-76906476D01*
X51784476Y-76858857D01*
X51832095Y-76763619D01*
X51879714Y-76716000D01*
X51974952Y-76668380D01*
X52165428Y-76668380D01*
X52260666Y-76716000D01*
X52308285Y-76763619D01*
X52355904Y-76858857D01*
X52355904Y-76906476D01*
X52308285Y-77001714D01*
X52260666Y-77049333D01*
X52165428Y-77096952D01*
X51974952Y-77096952D01*
X51879714Y-77144571D01*
X51832095Y-77192190D01*
X51784476Y-77287428D01*
X51784476Y-77477904D01*
X51832095Y-77573142D01*
X51879714Y-77620761D01*
X51974952Y-77668380D01*
X52165428Y-77668380D01*
X52260666Y-77620761D01*
X52308285Y-77573142D01*
X52355904Y-77477904D01*
X52355904Y-77287428D01*
X52308285Y-77192190D01*
X52260666Y-77144571D01*
X52165428Y-77096952D01*
X97020142Y-105005142D02*
X96972523Y-105052761D01*
X96829666Y-105100380D01*
X96734428Y-105100380D01*
X96591571Y-105052761D01*
X96496333Y-104957523D01*
X96448714Y-104862285D01*
X96401095Y-104671809D01*
X96401095Y-104528952D01*
X96448714Y-104338476D01*
X96496333Y-104243238D01*
X96591571Y-104148000D01*
X96734428Y-104100380D01*
X96829666Y-104100380D01*
X96972523Y-104148000D01*
X97020142Y-104195619D01*
X97972523Y-105100380D02*
X97401095Y-105100380D01*
X97686809Y-105100380D02*
X97686809Y-104100380D01*
X97591571Y-104243238D01*
X97496333Y-104338476D01*
X97401095Y-104386095D01*
X98448714Y-105100380D02*
X98639190Y-105100380D01*
X98734428Y-105052761D01*
X98782047Y-105005142D01*
X98877285Y-104862285D01*
X98924904Y-104671809D01*
X98924904Y-104290857D01*
X98877285Y-104195619D01*
X98829666Y-104148000D01*
X98734428Y-104100380D01*
X98543952Y-104100380D01*
X98448714Y-104148000D01*
X98401095Y-104195619D01*
X98353476Y-104290857D01*
X98353476Y-104528952D01*
X98401095Y-104624190D01*
X98448714Y-104671809D01*
X98543952Y-104719428D01*
X98734428Y-104719428D01*
X98829666Y-104671809D01*
X98877285Y-104624190D01*
X98924904Y-104528952D01*
X83796142Y-105036857D02*
X83843761Y-105084476D01*
X83891380Y-105227333D01*
X83891380Y-105322571D01*
X83843761Y-105465428D01*
X83748523Y-105560666D01*
X83653285Y-105608285D01*
X83462809Y-105655904D01*
X83319952Y-105655904D01*
X83129476Y-105608285D01*
X83034238Y-105560666D01*
X82939000Y-105465428D01*
X82891380Y-105322571D01*
X82891380Y-105227333D01*
X82939000Y-105084476D01*
X82986619Y-105036857D01*
X82986619Y-104655904D02*
X82939000Y-104608285D01*
X82891380Y-104513047D01*
X82891380Y-104274952D01*
X82939000Y-104179714D01*
X82986619Y-104132095D01*
X83081857Y-104084476D01*
X83177095Y-104084476D01*
X83319952Y-104132095D01*
X83891380Y-104703523D01*
X83891380Y-104084476D01*
X82891380Y-103465428D02*
X82891380Y-103370190D01*
X82939000Y-103274952D01*
X82986619Y-103227333D01*
X83081857Y-103179714D01*
X83272333Y-103132095D01*
X83510428Y-103132095D01*
X83700904Y-103179714D01*
X83796142Y-103227333D01*
X83843761Y-103274952D01*
X83891380Y-103370190D01*
X83891380Y-103465428D01*
X83843761Y-103560666D01*
X83796142Y-103608285D01*
X83700904Y-103655904D01*
X83510428Y-103703523D01*
X83272333Y-103703523D01*
X83081857Y-103655904D01*
X82986619Y-103608285D01*
X82939000Y-103560666D01*
X82891380Y-103465428D01*
X110339142Y-83457657D02*
X110386761Y-83505276D01*
X110434380Y-83648133D01*
X110434380Y-83743371D01*
X110386761Y-83886228D01*
X110291523Y-83981466D01*
X110196285Y-84029085D01*
X110005809Y-84076704D01*
X109862952Y-84076704D01*
X109672476Y-84029085D01*
X109577238Y-83981466D01*
X109482000Y-83886228D01*
X109434380Y-83743371D01*
X109434380Y-83648133D01*
X109482000Y-83505276D01*
X109529619Y-83457657D01*
X109529619Y-83076704D02*
X109482000Y-83029085D01*
X109434380Y-82933847D01*
X109434380Y-82695752D01*
X109482000Y-82600514D01*
X109529619Y-82552895D01*
X109624857Y-82505276D01*
X109720095Y-82505276D01*
X109862952Y-82552895D01*
X110434380Y-83124323D01*
X110434380Y-82505276D01*
X110434380Y-81552895D02*
X110434380Y-82124323D01*
X110434380Y-81838609D02*
X109434380Y-81838609D01*
X109577238Y-81933847D01*
X109672476Y-82029085D01*
X109720095Y-82124323D01*
X72239142Y-113418857D02*
X72286761Y-113466476D01*
X72334380Y-113609333D01*
X72334380Y-113704571D01*
X72286761Y-113847428D01*
X72191523Y-113942666D01*
X72096285Y-113990285D01*
X71905809Y-114037904D01*
X71762952Y-114037904D01*
X71572476Y-113990285D01*
X71477238Y-113942666D01*
X71382000Y-113847428D01*
X71334380Y-113704571D01*
X71334380Y-113609333D01*
X71382000Y-113466476D01*
X71429619Y-113418857D01*
X71429619Y-113037904D02*
X71382000Y-112990285D01*
X71334380Y-112895047D01*
X71334380Y-112656952D01*
X71382000Y-112561714D01*
X71429619Y-112514095D01*
X71524857Y-112466476D01*
X71620095Y-112466476D01*
X71762952Y-112514095D01*
X72334380Y-113085523D01*
X72334380Y-112466476D01*
X71429619Y-112085523D02*
X71382000Y-112037904D01*
X71334380Y-111942666D01*
X71334380Y-111704571D01*
X71382000Y-111609333D01*
X71429619Y-111561714D01*
X71524857Y-111514095D01*
X71620095Y-111514095D01*
X71762952Y-111561714D01*
X72334380Y-112133142D01*
X72334380Y-111514095D01*
X73057142Y-96750142D02*
X73009523Y-96797761D01*
X72866666Y-96845380D01*
X72771428Y-96845380D01*
X72628571Y-96797761D01*
X72533333Y-96702523D01*
X72485714Y-96607285D01*
X72438095Y-96416809D01*
X72438095Y-96273952D01*
X72485714Y-96083476D01*
X72533333Y-95988238D01*
X72628571Y-95893000D01*
X72771428Y-95845380D01*
X72866666Y-95845380D01*
X73009523Y-95893000D01*
X73057142Y-95940619D01*
X73438095Y-95940619D02*
X73485714Y-95893000D01*
X73580952Y-95845380D01*
X73819047Y-95845380D01*
X73914285Y-95893000D01*
X73961904Y-95940619D01*
X74009523Y-96035857D01*
X74009523Y-96131095D01*
X73961904Y-96273952D01*
X73390476Y-96845380D01*
X74009523Y-96845380D01*
X74342857Y-95845380D02*
X74961904Y-95845380D01*
X74628571Y-96226333D01*
X74771428Y-96226333D01*
X74866666Y-96273952D01*
X74914285Y-96321571D01*
X74961904Y-96416809D01*
X74961904Y-96654904D01*
X74914285Y-96750142D01*
X74866666Y-96797761D01*
X74771428Y-96845380D01*
X74485714Y-96845380D01*
X74390476Y-96797761D01*
X74342857Y-96750142D01*
X113641142Y-51482857D02*
X113688761Y-51530476D01*
X113736380Y-51673333D01*
X113736380Y-51768571D01*
X113688761Y-51911428D01*
X113593523Y-52006666D01*
X113498285Y-52054285D01*
X113307809Y-52101904D01*
X113164952Y-52101904D01*
X112974476Y-52054285D01*
X112879238Y-52006666D01*
X112784000Y-51911428D01*
X112736380Y-51768571D01*
X112736380Y-51673333D01*
X112784000Y-51530476D01*
X112831619Y-51482857D01*
X112831619Y-51101904D02*
X112784000Y-51054285D01*
X112736380Y-50959047D01*
X112736380Y-50720952D01*
X112784000Y-50625714D01*
X112831619Y-50578095D01*
X112926857Y-50530476D01*
X113022095Y-50530476D01*
X113164952Y-50578095D01*
X113736380Y-51149523D01*
X113736380Y-50530476D01*
X113069714Y-49673333D02*
X113736380Y-49673333D01*
X112688761Y-49911428D02*
X113403047Y-50149523D01*
X113403047Y-49530476D01*
X70247142Y-69222857D02*
X70294761Y-69270476D01*
X70342380Y-69413333D01*
X70342380Y-69508571D01*
X70294761Y-69651428D01*
X70199523Y-69746666D01*
X70104285Y-69794285D01*
X69913809Y-69841904D01*
X69770952Y-69841904D01*
X69580476Y-69794285D01*
X69485238Y-69746666D01*
X69390000Y-69651428D01*
X69342380Y-69508571D01*
X69342380Y-69413333D01*
X69390000Y-69270476D01*
X69437619Y-69222857D01*
X69437619Y-68841904D02*
X69390000Y-68794285D01*
X69342380Y-68699047D01*
X69342380Y-68460952D01*
X69390000Y-68365714D01*
X69437619Y-68318095D01*
X69532857Y-68270476D01*
X69628095Y-68270476D01*
X69770952Y-68318095D01*
X70342380Y-68889523D01*
X70342380Y-68270476D01*
X69342380Y-67365714D02*
X69342380Y-67841904D01*
X69818571Y-67889523D01*
X69770952Y-67841904D01*
X69723333Y-67746666D01*
X69723333Y-67508571D01*
X69770952Y-67413333D01*
X69818571Y-67365714D01*
X69913809Y-67318095D01*
X70151904Y-67318095D01*
X70247142Y-67365714D01*
X70294761Y-67413333D01*
X70342380Y-67508571D01*
X70342380Y-67746666D01*
X70294761Y-67841904D01*
X70247142Y-67889523D01*
X55999142Y-102465142D02*
X55951523Y-102512761D01*
X55808666Y-102560380D01*
X55713428Y-102560380D01*
X55570571Y-102512761D01*
X55475333Y-102417523D01*
X55427714Y-102322285D01*
X55380095Y-102131809D01*
X55380095Y-101988952D01*
X55427714Y-101798476D01*
X55475333Y-101703238D01*
X55570571Y-101608000D01*
X55713428Y-101560380D01*
X55808666Y-101560380D01*
X55951523Y-101608000D01*
X55999142Y-101655619D01*
X56380095Y-101655619D02*
X56427714Y-101608000D01*
X56522952Y-101560380D01*
X56761047Y-101560380D01*
X56856285Y-101608000D01*
X56903904Y-101655619D01*
X56951523Y-101750857D01*
X56951523Y-101846095D01*
X56903904Y-101988952D01*
X56332476Y-102560380D01*
X56951523Y-102560380D01*
X57808666Y-101560380D02*
X57618190Y-101560380D01*
X57522952Y-101608000D01*
X57475333Y-101655619D01*
X57380095Y-101798476D01*
X57332476Y-101988952D01*
X57332476Y-102369904D01*
X57380095Y-102465142D01*
X57427714Y-102512761D01*
X57522952Y-102560380D01*
X57713428Y-102560380D01*
X57808666Y-102512761D01*
X57856285Y-102465142D01*
X57903904Y-102369904D01*
X57903904Y-102131809D01*
X57856285Y-102036571D01*
X57808666Y-101988952D01*
X57713428Y-101941333D01*
X57522952Y-101941333D01*
X57427714Y-101988952D01*
X57380095Y-102036571D01*
X57332476Y-102131809D01*
X56999142Y-113926857D02*
X57046761Y-113974476D01*
X57094380Y-114117333D01*
X57094380Y-114212571D01*
X57046761Y-114355428D01*
X56951523Y-114450666D01*
X56856285Y-114498285D01*
X56665809Y-114545904D01*
X56522952Y-114545904D01*
X56332476Y-114498285D01*
X56237238Y-114450666D01*
X56142000Y-114355428D01*
X56094380Y-114212571D01*
X56094380Y-114117333D01*
X56142000Y-113974476D01*
X56189619Y-113926857D01*
X56189619Y-113545904D02*
X56142000Y-113498285D01*
X56094380Y-113403047D01*
X56094380Y-113164952D01*
X56142000Y-113069714D01*
X56189619Y-113022095D01*
X56284857Y-112974476D01*
X56380095Y-112974476D01*
X56522952Y-113022095D01*
X57094380Y-113593523D01*
X57094380Y-112974476D01*
X56094380Y-112641142D02*
X56094380Y-111974476D01*
X57094380Y-112403047D01*
X102227142Y-115038142D02*
X102179523Y-115085761D01*
X102036666Y-115133380D01*
X101941428Y-115133380D01*
X101798571Y-115085761D01*
X101703333Y-114990523D01*
X101655714Y-114895285D01*
X101608095Y-114704809D01*
X101608095Y-114561952D01*
X101655714Y-114371476D01*
X101703333Y-114276238D01*
X101798571Y-114181000D01*
X101941428Y-114133380D01*
X102036666Y-114133380D01*
X102179523Y-114181000D01*
X102227142Y-114228619D01*
X102608095Y-114228619D02*
X102655714Y-114181000D01*
X102750952Y-114133380D01*
X102989047Y-114133380D01*
X103084285Y-114181000D01*
X103131904Y-114228619D01*
X103179523Y-114323857D01*
X103179523Y-114419095D01*
X103131904Y-114561952D01*
X102560476Y-115133380D01*
X103179523Y-115133380D01*
X103750952Y-114561952D02*
X103655714Y-114514333D01*
X103608095Y-114466714D01*
X103560476Y-114371476D01*
X103560476Y-114323857D01*
X103608095Y-114228619D01*
X103655714Y-114181000D01*
X103750952Y-114133380D01*
X103941428Y-114133380D01*
X104036666Y-114181000D01*
X104084285Y-114228619D01*
X104131904Y-114323857D01*
X104131904Y-114371476D01*
X104084285Y-114466714D01*
X104036666Y-114514333D01*
X103941428Y-114561952D01*
X103750952Y-114561952D01*
X103655714Y-114609571D01*
X103608095Y-114657190D01*
X103560476Y-114752428D01*
X103560476Y-114942904D01*
X103608095Y-115038142D01*
X103655714Y-115085761D01*
X103750952Y-115133380D01*
X103941428Y-115133380D01*
X104036666Y-115085761D01*
X104084285Y-115038142D01*
X104131904Y-114942904D01*
X104131904Y-114752428D01*
X104084285Y-114657190D01*
X104036666Y-114609571D01*
X103941428Y-114561952D01*
X52443142Y-70969142D02*
X52395523Y-71016761D01*
X52252666Y-71064380D01*
X52157428Y-71064380D01*
X52014571Y-71016761D01*
X51919333Y-70921523D01*
X51871714Y-70826285D01*
X51824095Y-70635809D01*
X51824095Y-70492952D01*
X51871714Y-70302476D01*
X51919333Y-70207238D01*
X52014571Y-70112000D01*
X52157428Y-70064380D01*
X52252666Y-70064380D01*
X52395523Y-70112000D01*
X52443142Y-70159619D01*
X52824095Y-70159619D02*
X52871714Y-70112000D01*
X52966952Y-70064380D01*
X53205047Y-70064380D01*
X53300285Y-70112000D01*
X53347904Y-70159619D01*
X53395523Y-70254857D01*
X53395523Y-70350095D01*
X53347904Y-70492952D01*
X52776476Y-71064380D01*
X53395523Y-71064380D01*
X53871714Y-71064380D02*
X54062190Y-71064380D01*
X54157428Y-71016761D01*
X54205047Y-70969142D01*
X54300285Y-70826285D01*
X54347904Y-70635809D01*
X54347904Y-70254857D01*
X54300285Y-70159619D01*
X54252666Y-70112000D01*
X54157428Y-70064380D01*
X53966952Y-70064380D01*
X53871714Y-70112000D01*
X53824095Y-70159619D01*
X53776476Y-70254857D01*
X53776476Y-70492952D01*
X53824095Y-70588190D01*
X53871714Y-70635809D01*
X53966952Y-70683428D01*
X54157428Y-70683428D01*
X54252666Y-70635809D01*
X54300285Y-70588190D01*
X54347904Y-70492952D01*
X72239142Y-102242857D02*
X72286761Y-102290476D01*
X72334380Y-102433333D01*
X72334380Y-102528571D01*
X72286761Y-102671428D01*
X72191523Y-102766666D01*
X72096285Y-102814285D01*
X71905809Y-102861904D01*
X71762952Y-102861904D01*
X71572476Y-102814285D01*
X71477238Y-102766666D01*
X71382000Y-102671428D01*
X71334380Y-102528571D01*
X71334380Y-102433333D01*
X71382000Y-102290476D01*
X71429619Y-102242857D01*
X71334380Y-101909523D02*
X71334380Y-101290476D01*
X71715333Y-101623809D01*
X71715333Y-101480952D01*
X71762952Y-101385714D01*
X71810571Y-101338095D01*
X71905809Y-101290476D01*
X72143904Y-101290476D01*
X72239142Y-101338095D01*
X72286761Y-101385714D01*
X72334380Y-101480952D01*
X72334380Y-101766666D01*
X72286761Y-101861904D01*
X72239142Y-101909523D01*
X71334380Y-100671428D02*
X71334380Y-100576190D01*
X71382000Y-100480952D01*
X71429619Y-100433333D01*
X71524857Y-100385714D01*
X71715333Y-100338095D01*
X71953428Y-100338095D01*
X72143904Y-100385714D01*
X72239142Y-100433333D01*
X72286761Y-100480952D01*
X72334380Y-100576190D01*
X72334380Y-100671428D01*
X72286761Y-100766666D01*
X72239142Y-100814285D01*
X72143904Y-100861904D01*
X71953428Y-100909523D01*
X71715333Y-100909523D01*
X71524857Y-100861904D01*
X71429619Y-100814285D01*
X71382000Y-100766666D01*
X71334380Y-100671428D01*
X90305142Y-119931142D02*
X90257523Y-119978761D01*
X90114666Y-120026380D01*
X90019428Y-120026380D01*
X89876571Y-119978761D01*
X89781333Y-119883523D01*
X89733714Y-119788285D01*
X89686095Y-119597809D01*
X89686095Y-119454952D01*
X89733714Y-119264476D01*
X89781333Y-119169238D01*
X89876571Y-119074000D01*
X90019428Y-119026380D01*
X90114666Y-119026380D01*
X90257523Y-119074000D01*
X90305142Y-119121619D01*
X90638476Y-119026380D02*
X91257523Y-119026380D01*
X90924190Y-119407333D01*
X91067047Y-119407333D01*
X91162285Y-119454952D01*
X91209904Y-119502571D01*
X91257523Y-119597809D01*
X91257523Y-119835904D01*
X91209904Y-119931142D01*
X91162285Y-119978761D01*
X91067047Y-120026380D01*
X90781333Y-120026380D01*
X90686095Y-119978761D01*
X90638476Y-119931142D01*
X92209904Y-120026380D02*
X91638476Y-120026380D01*
X91924190Y-120026380D02*
X91924190Y-119026380D01*
X91828952Y-119169238D01*
X91733714Y-119264476D01*
X91638476Y-119312095D01*
X82907142Y-112177142D02*
X82859523Y-112224761D01*
X82716666Y-112272380D01*
X82621428Y-112272380D01*
X82478571Y-112224761D01*
X82383333Y-112129523D01*
X82335714Y-112034285D01*
X82288095Y-111843809D01*
X82288095Y-111700952D01*
X82335714Y-111510476D01*
X82383333Y-111415238D01*
X82478571Y-111320000D01*
X82621428Y-111272380D01*
X82716666Y-111272380D01*
X82859523Y-111320000D01*
X82907142Y-111367619D01*
X83240476Y-111272380D02*
X83859523Y-111272380D01*
X83526190Y-111653333D01*
X83669047Y-111653333D01*
X83764285Y-111700952D01*
X83811904Y-111748571D01*
X83859523Y-111843809D01*
X83859523Y-112081904D01*
X83811904Y-112177142D01*
X83764285Y-112224761D01*
X83669047Y-112272380D01*
X83383333Y-112272380D01*
X83288095Y-112224761D01*
X83240476Y-112177142D01*
X84240476Y-111367619D02*
X84288095Y-111320000D01*
X84383333Y-111272380D01*
X84621428Y-111272380D01*
X84716666Y-111320000D01*
X84764285Y-111367619D01*
X84811904Y-111462857D01*
X84811904Y-111558095D01*
X84764285Y-111700952D01*
X84192857Y-112272380D01*
X84811904Y-112272380D01*
X80922904Y-79954380D02*
X80922904Y-78954380D01*
X81161000Y-78954380D01*
X81303857Y-79002000D01*
X81399095Y-79097238D01*
X81446714Y-79192476D01*
X81494333Y-79382952D01*
X81494333Y-79525809D01*
X81446714Y-79716285D01*
X81399095Y-79811523D01*
X81303857Y-79906761D01*
X81161000Y-79954380D01*
X80922904Y-79954380D01*
X82446714Y-79954380D02*
X81875285Y-79954380D01*
X82161000Y-79954380D02*
X82161000Y-78954380D01*
X82065761Y-79097238D01*
X81970523Y-79192476D01*
X81875285Y-79240095D01*
X79113095Y-80208380D02*
X79113095Y-79208380D01*
X79684523Y-80208380D02*
X79255952Y-79636952D01*
X79684523Y-79208380D02*
X79113095Y-79779809D01*
X80922904Y-83256380D02*
X80922904Y-82256380D01*
X81161000Y-82256380D01*
X81303857Y-82304000D01*
X81399095Y-82399238D01*
X81446714Y-82494476D01*
X81494333Y-82684952D01*
X81494333Y-82827809D01*
X81446714Y-83018285D01*
X81399095Y-83113523D01*
X81303857Y-83208761D01*
X81161000Y-83256380D01*
X80922904Y-83256380D01*
X81875285Y-82351619D02*
X81922904Y-82304000D01*
X82018142Y-82256380D01*
X82256238Y-82256380D01*
X82351476Y-82304000D01*
X82399095Y-82351619D01*
X82446714Y-82446857D01*
X82446714Y-82542095D01*
X82399095Y-82684952D01*
X81827666Y-83256380D01*
X82446714Y-83256380D01*
X78859095Y-83510380D02*
X78859095Y-82510380D01*
X79430523Y-83510380D02*
X79001952Y-82938952D01*
X79430523Y-82510380D02*
X78859095Y-83081809D01*
X107386380Y-54840095D02*
X106386380Y-54840095D01*
X106386380Y-54602000D01*
X106434000Y-54459142D01*
X106529238Y-54363904D01*
X106624476Y-54316285D01*
X106814952Y-54268666D01*
X106957809Y-54268666D01*
X107148285Y-54316285D01*
X107243523Y-54363904D01*
X107338761Y-54459142D01*
X107386380Y-54602000D01*
X107386380Y-54840095D01*
X106386380Y-53935333D02*
X106386380Y-53316285D01*
X106767333Y-53649619D01*
X106767333Y-53506761D01*
X106814952Y-53411523D01*
X106862571Y-53363904D01*
X106957809Y-53316285D01*
X107195904Y-53316285D01*
X107291142Y-53363904D01*
X107338761Y-53411523D01*
X107386380Y-53506761D01*
X107386380Y-53792476D01*
X107338761Y-53887714D01*
X107291142Y-53935333D01*
X107640380Y-51061904D02*
X106640380Y-51061904D01*
X107640380Y-50490476D02*
X107068952Y-50919047D01*
X106640380Y-50490476D02*
X107211809Y-51061904D01*
X110942380Y-54840095D02*
X109942380Y-54840095D01*
X109942380Y-54602000D01*
X109990000Y-54459142D01*
X110085238Y-54363904D01*
X110180476Y-54316285D01*
X110370952Y-54268666D01*
X110513809Y-54268666D01*
X110704285Y-54316285D01*
X110799523Y-54363904D01*
X110894761Y-54459142D01*
X110942380Y-54602000D01*
X110942380Y-54840095D01*
X110275714Y-53411523D02*
X110942380Y-53411523D01*
X109894761Y-53649619D02*
X110609047Y-53887714D01*
X110609047Y-53268666D01*
X111450380Y-51061904D02*
X110450380Y-51061904D01*
X111450380Y-50490476D02*
X110878952Y-50919047D01*
X110450380Y-50490476D02*
X111021809Y-51061904D01*
X112970712Y-120001333D02*
X113684998Y-120001333D01*
X113827855Y-120048952D01*
X113923093Y-120144190D01*
X113970712Y-120287047D01*
X113970712Y-120382285D01*
X113970712Y-119001333D02*
X113970712Y-119572761D01*
X113970712Y-119287047D02*
X112970712Y-119287047D01*
X113113570Y-119382285D01*
X113208808Y-119477523D01*
X113256427Y-119572761D01*
X85649934Y-128061333D02*
X86364220Y-128061333D01*
X86507077Y-128108952D01*
X86602315Y-128204190D01*
X86649934Y-128347047D01*
X86649934Y-128442285D01*
X85745173Y-127632761D02*
X85697554Y-127585142D01*
X85649934Y-127489904D01*
X85649934Y-127251809D01*
X85697554Y-127156571D01*
X85745173Y-127108952D01*
X85840411Y-127061333D01*
X85935649Y-127061333D01*
X86078506Y-127108952D01*
X86649934Y-127680380D01*
X86649934Y-127061333D01*
X77129157Y-120001333D02*
X77843443Y-120001333D01*
X77986300Y-120048952D01*
X78081538Y-120144190D01*
X78129157Y-120287047D01*
X78129157Y-120382285D01*
X77129157Y-119620380D02*
X77129157Y-119001333D01*
X77510110Y-119334666D01*
X77510110Y-119191809D01*
X77557729Y-119096571D01*
X77605348Y-119048952D01*
X77700586Y-119001333D01*
X77938681Y-119001333D01*
X78033919Y-119048952D01*
X78081538Y-119096571D01*
X78129157Y-119191809D01*
X78129157Y-119477523D01*
X78081538Y-119572761D01*
X78033919Y-119620380D01*
X49808380Y-128061333D02*
X50522666Y-128061333D01*
X50665523Y-128108952D01*
X50760761Y-128204190D01*
X50808380Y-128347047D01*
X50808380Y-128442285D01*
X50141714Y-127156571D02*
X50808380Y-127156571D01*
X49760761Y-127394666D02*
X50475047Y-127632761D01*
X50475047Y-127013714D01*
X77932666Y-131342380D02*
X77932666Y-132056666D01*
X77885047Y-132199523D01*
X77789809Y-132294761D01*
X77646952Y-132342380D01*
X77551714Y-132342380D01*
X78885047Y-131342380D02*
X78408857Y-131342380D01*
X78361238Y-131818571D01*
X78408857Y-131770952D01*
X78504095Y-131723333D01*
X78742190Y-131723333D01*
X78837428Y-131770952D01*
X78885047Y-131818571D01*
X78932666Y-131913809D01*
X78932666Y-132151904D01*
X78885047Y-132247142D01*
X78837428Y-132294761D01*
X78742190Y-132342380D01*
X78504095Y-132342380D01*
X78408857Y-132294761D01*
X78361238Y-132247142D01*
X105999666Y-131342380D02*
X105999666Y-132056666D01*
X105952047Y-132199523D01*
X105856809Y-132294761D01*
X105713952Y-132342380D01*
X105618714Y-132342380D01*
X106380619Y-131342380D02*
X107047285Y-131342380D01*
X106618714Y-132342380D01*
X91606332Y-131342380D02*
X91606332Y-132056666D01*
X91558713Y-132199523D01*
X91463475Y-132294761D01*
X91320618Y-132342380D01*
X91225380Y-132342380D01*
X92225380Y-131770952D02*
X92130142Y-131723333D01*
X92082523Y-131675714D01*
X92034904Y-131580476D01*
X92034904Y-131532857D01*
X92082523Y-131437619D01*
X92130142Y-131390000D01*
X92225380Y-131342380D01*
X92415856Y-131342380D01*
X92511094Y-131390000D01*
X92558713Y-131437619D01*
X92606332Y-131532857D01*
X92606332Y-131580476D01*
X92558713Y-131675714D01*
X92511094Y-131723333D01*
X92415856Y-131770952D01*
X92225380Y-131770952D01*
X92130142Y-131818571D01*
X92082523Y-131866190D01*
X92034904Y-131961428D01*
X92034904Y-132151904D01*
X92082523Y-132247142D01*
X92130142Y-132294761D01*
X92225380Y-132342380D01*
X92415856Y-132342380D01*
X92511094Y-132294761D01*
X92558713Y-132247142D01*
X92606332Y-132151904D01*
X92606332Y-131961428D01*
X92558713Y-131866190D01*
X92511094Y-131818571D01*
X92415856Y-131770952D01*
X50119666Y-131342380D02*
X50119666Y-132056666D01*
X50072047Y-132199523D01*
X49976809Y-132294761D01*
X49833952Y-132342380D01*
X49738714Y-132342380D01*
X50643476Y-132342380D02*
X50833952Y-132342380D01*
X50929190Y-132294761D01*
X50976809Y-132247142D01*
X51072047Y-132104285D01*
X51119666Y-131913809D01*
X51119666Y-131532857D01*
X51072047Y-131437619D01*
X51024428Y-131390000D01*
X50929190Y-131342380D01*
X50738714Y-131342380D01*
X50643476Y-131390000D01*
X50595857Y-131437619D01*
X50548238Y-131532857D01*
X50548238Y-131770952D01*
X50595857Y-131866190D01*
X50643476Y-131913809D01*
X50738714Y-131961428D01*
X50929190Y-131961428D01*
X51024428Y-131913809D01*
X51072047Y-131866190D01*
X51119666Y-131770952D01*
X64036809Y-131342380D02*
X64036809Y-132056666D01*
X63989190Y-132199523D01*
X63893952Y-132294761D01*
X63751094Y-132342380D01*
X63655856Y-132342380D01*
X65036809Y-132342380D02*
X64465380Y-132342380D01*
X64751094Y-132342380D02*
X64751094Y-131342380D01*
X64655856Y-131485238D01*
X64560618Y-131580476D01*
X64465380Y-131628095D01*
X65655856Y-131342380D02*
X65751094Y-131342380D01*
X65846333Y-131390000D01*
X65893952Y-131437619D01*
X65941571Y-131532857D01*
X65989190Y-131723333D01*
X65989190Y-131961428D01*
X65941571Y-132151904D01*
X65893952Y-132247142D01*
X65846333Y-132294761D01*
X65751094Y-132342380D01*
X65655856Y-132342380D01*
X65560618Y-132294761D01*
X65512999Y-132247142D01*
X65465380Y-132151904D01*
X65417761Y-131961428D01*
X65417761Y-131723333D01*
X65465380Y-131532857D01*
X65512999Y-131437619D01*
X65560618Y-131390000D01*
X65655856Y-131342380D01*
X100623619Y-81883238D02*
X100576000Y-81978476D01*
X100480761Y-82073714D01*
X100337904Y-82216571D01*
X100290285Y-82311809D01*
X100290285Y-82407047D01*
X100528380Y-82359428D02*
X100480761Y-82454666D01*
X100385523Y-82549904D01*
X100195047Y-82597523D01*
X99861714Y-82597523D01*
X99671238Y-82549904D01*
X99576000Y-82454666D01*
X99528380Y-82359428D01*
X99528380Y-82168952D01*
X99576000Y-82073714D01*
X99671238Y-81978476D01*
X99861714Y-81930857D01*
X100195047Y-81930857D01*
X100385523Y-81978476D01*
X100480761Y-82073714D01*
X100528380Y-82168952D01*
X100528380Y-82359428D01*
X100528380Y-80978476D02*
X100528380Y-81549904D01*
X100528380Y-81264190D02*
X99528380Y-81264190D01*
X99671238Y-81359428D01*
X99766476Y-81454666D01*
X99814095Y-81549904D01*
X74123561Y-66333619D02*
X74028323Y-66286000D01*
X73933085Y-66190761D01*
X73790228Y-66047904D01*
X73694990Y-66000285D01*
X73599752Y-66000285D01*
X73647371Y-66238380D02*
X73552133Y-66190761D01*
X73456895Y-66095523D01*
X73409276Y-65905047D01*
X73409276Y-65571714D01*
X73456895Y-65381238D01*
X73552133Y-65286000D01*
X73647371Y-65238380D01*
X73837847Y-65238380D01*
X73933085Y-65286000D01*
X74028323Y-65381238D01*
X74075942Y-65571714D01*
X74075942Y-65905047D01*
X74028323Y-66095523D01*
X73933085Y-66190761D01*
X73837847Y-66238380D01*
X73647371Y-66238380D01*
X74456895Y-65333619D02*
X74504514Y-65286000D01*
X74599752Y-65238380D01*
X74837847Y-65238380D01*
X74933085Y-65286000D01*
X74980704Y-65333619D01*
X75028323Y-65428857D01*
X75028323Y-65524095D01*
X74980704Y-65666952D01*
X74409276Y-66238380D01*
X75028323Y-66238380D01*
X94194333Y-84526380D02*
X93861000Y-84050190D01*
X93622904Y-84526380D02*
X93622904Y-83526380D01*
X94003857Y-83526380D01*
X94099095Y-83574000D01*
X94146714Y-83621619D01*
X94194333Y-83716857D01*
X94194333Y-83859714D01*
X94146714Y-83954952D01*
X94099095Y-84002571D01*
X94003857Y-84050190D01*
X93622904Y-84050190D01*
X95146714Y-84526380D02*
X94575285Y-84526380D01*
X94861000Y-84526380D02*
X94861000Y-83526380D01*
X94765761Y-83669238D01*
X94670523Y-83764476D01*
X94575285Y-83812095D01*
X110688380Y-64936666D02*
X110212190Y-65270000D01*
X110688380Y-65508095D02*
X109688380Y-65508095D01*
X109688380Y-65127142D01*
X109736000Y-65031904D01*
X109783619Y-64984285D01*
X109878857Y-64936666D01*
X110021714Y-64936666D01*
X110116952Y-64984285D01*
X110164571Y-65031904D01*
X110212190Y-65127142D01*
X110212190Y-65508095D01*
X109783619Y-64555714D02*
X109736000Y-64508095D01*
X109688380Y-64412857D01*
X109688380Y-64174761D01*
X109736000Y-64079523D01*
X109783619Y-64031904D01*
X109878857Y-63984285D01*
X109974095Y-63984285D01*
X110116952Y-64031904D01*
X110688380Y-64603333D01*
X110688380Y-63984285D01*
X98674180Y-73979066D02*
X98197990Y-74312400D01*
X98674180Y-74550495D02*
X97674180Y-74550495D01*
X97674180Y-74169542D01*
X97721800Y-74074304D01*
X97769419Y-74026685D01*
X97864657Y-73979066D01*
X98007514Y-73979066D01*
X98102752Y-74026685D01*
X98150371Y-74074304D01*
X98197990Y-74169542D01*
X98197990Y-74550495D01*
X97674180Y-73645733D02*
X97674180Y-73026685D01*
X98055133Y-73360019D01*
X98055133Y-73217161D01*
X98102752Y-73121923D01*
X98150371Y-73074304D01*
X98245609Y-73026685D01*
X98483704Y-73026685D01*
X98578942Y-73074304D01*
X98626561Y-73121923D01*
X98674180Y-73217161D01*
X98674180Y-73502876D01*
X98626561Y-73598114D01*
X98578942Y-73645733D01*
X102738180Y-66486066D02*
X102261990Y-66819400D01*
X102738180Y-67057495D02*
X101738180Y-67057495D01*
X101738180Y-66676542D01*
X101785800Y-66581304D01*
X101833419Y-66533685D01*
X101928657Y-66486066D01*
X102071514Y-66486066D01*
X102166752Y-66533685D01*
X102214371Y-66581304D01*
X102261990Y-66676542D01*
X102261990Y-67057495D01*
X102071514Y-65628923D02*
X102738180Y-65628923D01*
X101690561Y-65867019D02*
X102404847Y-66105114D01*
X102404847Y-65486066D01*
X62428380Y-135802666D02*
X61952190Y-136136000D01*
X62428380Y-136374095D02*
X61428380Y-136374095D01*
X61428380Y-135993142D01*
X61476000Y-135897904D01*
X61523619Y-135850285D01*
X61618857Y-135802666D01*
X61761714Y-135802666D01*
X61856952Y-135850285D01*
X61904571Y-135897904D01*
X61952190Y-135993142D01*
X61952190Y-136374095D01*
X61428380Y-134897904D02*
X61428380Y-135374095D01*
X61904571Y-135421714D01*
X61856952Y-135374095D01*
X61809333Y-135278857D01*
X61809333Y-135040761D01*
X61856952Y-134945523D01*
X61904571Y-134897904D01*
X61999809Y-134850285D01*
X62237904Y-134850285D01*
X62333142Y-134897904D01*
X62380761Y-134945523D01*
X62428380Y-135040761D01*
X62428380Y-135278857D01*
X62380761Y-135374095D01*
X62333142Y-135421714D01*
X94702333Y-79700380D02*
X94369000Y-79224190D01*
X94130904Y-79700380D02*
X94130904Y-78700380D01*
X94511857Y-78700380D01*
X94607095Y-78748000D01*
X94654714Y-78795619D01*
X94702333Y-78890857D01*
X94702333Y-79033714D01*
X94654714Y-79128952D01*
X94607095Y-79176571D01*
X94511857Y-79224190D01*
X94130904Y-79224190D01*
X95559476Y-78700380D02*
X95369000Y-78700380D01*
X95273761Y-78748000D01*
X95226142Y-78795619D01*
X95130904Y-78938476D01*
X95083285Y-79128952D01*
X95083285Y-79509904D01*
X95130904Y-79605142D01*
X95178523Y-79652761D01*
X95273761Y-79700380D01*
X95464238Y-79700380D01*
X95559476Y-79652761D01*
X95607095Y-79605142D01*
X95654714Y-79509904D01*
X95654714Y-79271809D01*
X95607095Y-79176571D01*
X95559476Y-79128952D01*
X95464238Y-79081333D01*
X95273761Y-79081333D01*
X95178523Y-79128952D01*
X95130904Y-79176571D01*
X95083285Y-79271809D01*
X68651380Y-58586666D02*
X68175190Y-58920000D01*
X68651380Y-59158095D02*
X67651380Y-59158095D01*
X67651380Y-58777142D01*
X67699000Y-58681904D01*
X67746619Y-58634285D01*
X67841857Y-58586666D01*
X67984714Y-58586666D01*
X68079952Y-58634285D01*
X68127571Y-58681904D01*
X68175190Y-58777142D01*
X68175190Y-59158095D01*
X67651380Y-58253333D02*
X67651380Y-57586666D01*
X68651380Y-58015238D01*
X102103180Y-74360066D02*
X101626990Y-74693400D01*
X102103180Y-74931495D02*
X101103180Y-74931495D01*
X101103180Y-74550542D01*
X101150800Y-74455304D01*
X101198419Y-74407685D01*
X101293657Y-74360066D01*
X101436514Y-74360066D01*
X101531752Y-74407685D01*
X101579371Y-74455304D01*
X101626990Y-74550542D01*
X101626990Y-74931495D01*
X101531752Y-73788638D02*
X101484133Y-73883876D01*
X101436514Y-73931495D01*
X101341276Y-73979114D01*
X101293657Y-73979114D01*
X101198419Y-73931495D01*
X101150800Y-73883876D01*
X101103180Y-73788638D01*
X101103180Y-73598161D01*
X101150800Y-73502923D01*
X101198419Y-73455304D01*
X101293657Y-73407685D01*
X101341276Y-73407685D01*
X101436514Y-73455304D01*
X101484133Y-73502923D01*
X101531752Y-73598161D01*
X101531752Y-73788638D01*
X101579371Y-73883876D01*
X101626990Y-73931495D01*
X101722228Y-73979114D01*
X101912704Y-73979114D01*
X102007942Y-73931495D01*
X102055561Y-73883876D01*
X102103180Y-73788638D01*
X102103180Y-73598161D01*
X102055561Y-73502923D01*
X102007942Y-73455304D01*
X101912704Y-73407685D01*
X101722228Y-73407685D01*
X101626990Y-73455304D01*
X101579371Y-73502923D01*
X101531752Y-73598161D01*
X74620380Y-82081666D02*
X74144190Y-82415000D01*
X74620380Y-82653095D02*
X73620380Y-82653095D01*
X73620380Y-82272142D01*
X73668000Y-82176904D01*
X73715619Y-82129285D01*
X73810857Y-82081666D01*
X73953714Y-82081666D01*
X74048952Y-82129285D01*
X74096571Y-82176904D01*
X74144190Y-82272142D01*
X74144190Y-82653095D01*
X74620380Y-81605476D02*
X74620380Y-81415000D01*
X74572761Y-81319761D01*
X74525142Y-81272142D01*
X74382285Y-81176904D01*
X74191809Y-81129285D01*
X73810857Y-81129285D01*
X73715619Y-81176904D01*
X73668000Y-81224523D01*
X73620380Y-81319761D01*
X73620380Y-81510238D01*
X73668000Y-81605476D01*
X73715619Y-81653095D01*
X73810857Y-81700714D01*
X74048952Y-81700714D01*
X74144190Y-81653095D01*
X74191809Y-81605476D01*
X74239428Y-81510238D01*
X74239428Y-81319761D01*
X74191809Y-81224523D01*
X74144190Y-81176904D01*
X74048952Y-81129285D01*
X105325942Y-82900780D02*
X104992609Y-82424590D01*
X104754514Y-82900780D02*
X104754514Y-81900780D01*
X105135466Y-81900780D01*
X105230704Y-81948400D01*
X105278323Y-81996019D01*
X105325942Y-82091257D01*
X105325942Y-82234114D01*
X105278323Y-82329352D01*
X105230704Y-82376971D01*
X105135466Y-82424590D01*
X104754514Y-82424590D01*
X106278323Y-82900780D02*
X105706895Y-82900780D01*
X105992609Y-82900780D02*
X105992609Y-81900780D01*
X105897371Y-82043638D01*
X105802133Y-82138876D01*
X105706895Y-82186495D01*
X106897371Y-81900780D02*
X106992609Y-81900780D01*
X107087847Y-81948400D01*
X107135466Y-81996019D01*
X107183085Y-82091257D01*
X107230704Y-82281733D01*
X107230704Y-82519828D01*
X107183085Y-82710304D01*
X107135466Y-82805542D01*
X107087847Y-82853161D01*
X106992609Y-82900780D01*
X106897371Y-82900780D01*
X106802133Y-82853161D01*
X106754514Y-82805542D01*
X106706895Y-82710304D01*
X106659276Y-82519828D01*
X106659276Y-82281733D01*
X106706895Y-82091257D01*
X106754514Y-81996019D01*
X106802133Y-81948400D01*
X106897371Y-81900780D01*
X106370380Y-65158857D02*
X105894190Y-65492190D01*
X106370380Y-65730285D02*
X105370380Y-65730285D01*
X105370380Y-65349333D01*
X105418000Y-65254095D01*
X105465619Y-65206476D01*
X105560857Y-65158857D01*
X105703714Y-65158857D01*
X105798952Y-65206476D01*
X105846571Y-65254095D01*
X105894190Y-65349333D01*
X105894190Y-65730285D01*
X106370380Y-64206476D02*
X106370380Y-64777904D01*
X106370380Y-64492190D02*
X105370380Y-64492190D01*
X105513238Y-64587428D01*
X105608476Y-64682666D01*
X105656095Y-64777904D01*
X106370380Y-63254095D02*
X106370380Y-63825523D01*
X106370380Y-63539809D02*
X105370380Y-63539809D01*
X105513238Y-63635047D01*
X105608476Y-63730285D01*
X105656095Y-63825523D01*
X100703142Y-105227380D02*
X100369809Y-104751190D01*
X100131714Y-105227380D02*
X100131714Y-104227380D01*
X100512666Y-104227380D01*
X100607904Y-104275000D01*
X100655523Y-104322619D01*
X100703142Y-104417857D01*
X100703142Y-104560714D01*
X100655523Y-104655952D01*
X100607904Y-104703571D01*
X100512666Y-104751190D01*
X100131714Y-104751190D01*
X101655523Y-105227380D02*
X101084095Y-105227380D01*
X101369809Y-105227380D02*
X101369809Y-104227380D01*
X101274571Y-104370238D01*
X101179333Y-104465476D01*
X101084095Y-104513095D01*
X102036476Y-104322619D02*
X102084095Y-104275000D01*
X102179333Y-104227380D01*
X102417428Y-104227380D01*
X102512666Y-104275000D01*
X102560285Y-104322619D01*
X102607904Y-104417857D01*
X102607904Y-104513095D01*
X102560285Y-104655952D01*
X101988857Y-105227380D01*
X102607904Y-105227380D01*
X101036380Y-124340857D02*
X100560190Y-124674190D01*
X101036380Y-124912285D02*
X100036380Y-124912285D01*
X100036380Y-124531333D01*
X100084000Y-124436095D01*
X100131619Y-124388476D01*
X100226857Y-124340857D01*
X100369714Y-124340857D01*
X100464952Y-124388476D01*
X100512571Y-124436095D01*
X100560190Y-124531333D01*
X100560190Y-124912285D01*
X101036380Y-123388476D02*
X101036380Y-123959904D01*
X101036380Y-123674190D02*
X100036380Y-123674190D01*
X100179238Y-123769428D01*
X100274476Y-123864666D01*
X100322095Y-123959904D01*
X100036380Y-123055142D02*
X100036380Y-122436095D01*
X100417333Y-122769428D01*
X100417333Y-122626571D01*
X100464952Y-122531333D01*
X100512571Y-122483714D01*
X100607809Y-122436095D01*
X100845904Y-122436095D01*
X100941142Y-122483714D01*
X100988761Y-122531333D01*
X101036380Y-122626571D01*
X101036380Y-122912285D01*
X100988761Y-123007523D01*
X100941142Y-123055142D01*
X81986380Y-65768457D02*
X81510190Y-66101790D01*
X81986380Y-66339885D02*
X80986380Y-66339885D01*
X80986380Y-65958933D01*
X81034000Y-65863695D01*
X81081619Y-65816076D01*
X81176857Y-65768457D01*
X81319714Y-65768457D01*
X81414952Y-65816076D01*
X81462571Y-65863695D01*
X81510190Y-65958933D01*
X81510190Y-66339885D01*
X81986380Y-64816076D02*
X81986380Y-65387504D01*
X81986380Y-65101790D02*
X80986380Y-65101790D01*
X81129238Y-65197028D01*
X81224476Y-65292266D01*
X81272095Y-65387504D01*
X81319714Y-63958933D02*
X81986380Y-63958933D01*
X80938761Y-64197028D02*
X81653047Y-64435123D01*
X81653047Y-63816076D01*
X60650380Y-82938857D02*
X60174190Y-83272190D01*
X60650380Y-83510285D02*
X59650380Y-83510285D01*
X59650380Y-83129333D01*
X59698000Y-83034095D01*
X59745619Y-82986476D01*
X59840857Y-82938857D01*
X59983714Y-82938857D01*
X60078952Y-82986476D01*
X60126571Y-83034095D01*
X60174190Y-83129333D01*
X60174190Y-83510285D01*
X60650380Y-81986476D02*
X60650380Y-82557904D01*
X60650380Y-82272190D02*
X59650380Y-82272190D01*
X59793238Y-82367428D01*
X59888476Y-82462666D01*
X59936095Y-82557904D01*
X59650380Y-81081714D02*
X59650380Y-81557904D01*
X60126571Y-81605523D01*
X60078952Y-81557904D01*
X60031333Y-81462666D01*
X60031333Y-81224571D01*
X60078952Y-81129333D01*
X60126571Y-81081714D01*
X60221809Y-81034095D01*
X60459904Y-81034095D01*
X60555142Y-81081714D01*
X60602761Y-81129333D01*
X60650380Y-81224571D01*
X60650380Y-81462666D01*
X60602761Y-81557904D01*
X60555142Y-81605523D01*
X89479380Y-58935857D02*
X89003190Y-59269190D01*
X89479380Y-59507285D02*
X88479380Y-59507285D01*
X88479380Y-59126333D01*
X88527000Y-59031095D01*
X88574619Y-58983476D01*
X88669857Y-58935857D01*
X88812714Y-58935857D01*
X88907952Y-58983476D01*
X88955571Y-59031095D01*
X89003190Y-59126333D01*
X89003190Y-59507285D01*
X89479380Y-57983476D02*
X89479380Y-58554904D01*
X89479380Y-58269190D02*
X88479380Y-58269190D01*
X88622238Y-58364428D01*
X88717476Y-58459666D01*
X88765095Y-58554904D01*
X88479380Y-57126333D02*
X88479380Y-57316809D01*
X88527000Y-57412047D01*
X88574619Y-57459666D01*
X88717476Y-57554904D01*
X88907952Y-57602523D01*
X89288904Y-57602523D01*
X89384142Y-57554904D01*
X89431761Y-57507285D01*
X89479380Y-57412047D01*
X89479380Y-57221571D01*
X89431761Y-57126333D01*
X89384142Y-57078714D01*
X89288904Y-57031095D01*
X89050809Y-57031095D01*
X88955571Y-57078714D01*
X88907952Y-57126333D01*
X88860333Y-57221571D01*
X88860333Y-57412047D01*
X88907952Y-57507285D01*
X88955571Y-57554904D01*
X89050809Y-57602523D01*
X85626380Y-97289857D02*
X85150190Y-97623190D01*
X85626380Y-97861285D02*
X84626380Y-97861285D01*
X84626380Y-97480333D01*
X84674000Y-97385095D01*
X84721619Y-97337476D01*
X84816857Y-97289857D01*
X84959714Y-97289857D01*
X85054952Y-97337476D01*
X85102571Y-97385095D01*
X85150190Y-97480333D01*
X85150190Y-97861285D01*
X85626380Y-96337476D02*
X85626380Y-96908904D01*
X85626380Y-96623190D02*
X84626380Y-96623190D01*
X84769238Y-96718428D01*
X84864476Y-96813666D01*
X84912095Y-96908904D01*
X84626380Y-96004142D02*
X84626380Y-95337476D01*
X85626380Y-95766047D01*
X63698380Y-82430857D02*
X63222190Y-82764190D01*
X63698380Y-83002285D02*
X62698380Y-83002285D01*
X62698380Y-82621333D01*
X62746000Y-82526095D01*
X62793619Y-82478476D01*
X62888857Y-82430857D01*
X63031714Y-82430857D01*
X63126952Y-82478476D01*
X63174571Y-82526095D01*
X63222190Y-82621333D01*
X63222190Y-83002285D01*
X63698380Y-81478476D02*
X63698380Y-82049904D01*
X63698380Y-81764190D02*
X62698380Y-81764190D01*
X62841238Y-81859428D01*
X62936476Y-81954666D01*
X62984095Y-82049904D01*
X63126952Y-80907047D02*
X63079333Y-81002285D01*
X63031714Y-81049904D01*
X62936476Y-81097523D01*
X62888857Y-81097523D01*
X62793619Y-81049904D01*
X62746000Y-81002285D01*
X62698380Y-80907047D01*
X62698380Y-80716571D01*
X62746000Y-80621333D01*
X62793619Y-80573714D01*
X62888857Y-80526095D01*
X62936476Y-80526095D01*
X63031714Y-80573714D01*
X63079333Y-80621333D01*
X63126952Y-80716571D01*
X63126952Y-80907047D01*
X63174571Y-81002285D01*
X63222190Y-81049904D01*
X63317428Y-81097523D01*
X63507904Y-81097523D01*
X63603142Y-81049904D01*
X63650761Y-81002285D01*
X63698380Y-80907047D01*
X63698380Y-80716571D01*
X63650761Y-80621333D01*
X63603142Y-80573714D01*
X63507904Y-80526095D01*
X63317428Y-80526095D01*
X63222190Y-80573714D01*
X63174571Y-80621333D01*
X63126952Y-80716571D01*
X80335380Y-89288857D02*
X79859190Y-89622190D01*
X80335380Y-89860285D02*
X79335380Y-89860285D01*
X79335380Y-89479333D01*
X79383000Y-89384095D01*
X79430619Y-89336476D01*
X79525857Y-89288857D01*
X79668714Y-89288857D01*
X79763952Y-89336476D01*
X79811571Y-89384095D01*
X79859190Y-89479333D01*
X79859190Y-89860285D01*
X80335380Y-88336476D02*
X80335380Y-88907904D01*
X80335380Y-88622190D02*
X79335380Y-88622190D01*
X79478238Y-88717428D01*
X79573476Y-88812666D01*
X79621095Y-88907904D01*
X80335380Y-87860285D02*
X80335380Y-87669809D01*
X80287761Y-87574571D01*
X80240142Y-87526952D01*
X80097285Y-87431714D01*
X79906809Y-87384095D01*
X79525857Y-87384095D01*
X79430619Y-87431714D01*
X79383000Y-87479333D01*
X79335380Y-87574571D01*
X79335380Y-87765047D01*
X79383000Y-87860285D01*
X79430619Y-87907904D01*
X79525857Y-87955523D01*
X79763952Y-87955523D01*
X79859190Y-87907904D01*
X79906809Y-87860285D01*
X79954428Y-87765047D01*
X79954428Y-87574571D01*
X79906809Y-87479333D01*
X79859190Y-87431714D01*
X79763952Y-87384095D01*
X83637380Y-89288857D02*
X83161190Y-89622190D01*
X83637380Y-89860285D02*
X82637380Y-89860285D01*
X82637380Y-89479333D01*
X82685000Y-89384095D01*
X82732619Y-89336476D01*
X82827857Y-89288857D01*
X82970714Y-89288857D01*
X83065952Y-89336476D01*
X83113571Y-89384095D01*
X83161190Y-89479333D01*
X83161190Y-89860285D01*
X82732619Y-88907904D02*
X82685000Y-88860285D01*
X82637380Y-88765047D01*
X82637380Y-88526952D01*
X82685000Y-88431714D01*
X82732619Y-88384095D01*
X82827857Y-88336476D01*
X82923095Y-88336476D01*
X83065952Y-88384095D01*
X83637380Y-88955523D01*
X83637380Y-88336476D01*
X82637380Y-87717428D02*
X82637380Y-87622190D01*
X82685000Y-87526952D01*
X82732619Y-87479333D01*
X82827857Y-87431714D01*
X83018333Y-87384095D01*
X83256428Y-87384095D01*
X83446904Y-87431714D01*
X83542142Y-87479333D01*
X83589761Y-87526952D01*
X83637380Y-87622190D01*
X83637380Y-87717428D01*
X83589761Y-87812666D01*
X83542142Y-87860285D01*
X83446904Y-87907904D01*
X83256428Y-87955523D01*
X83018333Y-87955523D01*
X82827857Y-87907904D01*
X82732619Y-87860285D01*
X82685000Y-87812666D01*
X82637380Y-87717428D01*
X66921142Y-83256380D02*
X66587809Y-82780190D01*
X66349714Y-83256380D02*
X66349714Y-82256380D01*
X66730666Y-82256380D01*
X66825904Y-82304000D01*
X66873523Y-82351619D01*
X66921142Y-82446857D01*
X66921142Y-82589714D01*
X66873523Y-82684952D01*
X66825904Y-82732571D01*
X66730666Y-82780190D01*
X66349714Y-82780190D01*
X67302095Y-82351619D02*
X67349714Y-82304000D01*
X67444952Y-82256380D01*
X67683047Y-82256380D01*
X67778285Y-82304000D01*
X67825904Y-82351619D01*
X67873523Y-82446857D01*
X67873523Y-82542095D01*
X67825904Y-82684952D01*
X67254476Y-83256380D01*
X67873523Y-83256380D01*
X68825904Y-83256380D02*
X68254476Y-83256380D01*
X68540190Y-83256380D02*
X68540190Y-82256380D01*
X68444952Y-82399238D01*
X68349714Y-82494476D01*
X68254476Y-82542095D01*
X99052142Y-94813380D02*
X98718809Y-94337190D01*
X98480714Y-94813380D02*
X98480714Y-93813380D01*
X98861666Y-93813380D01*
X98956904Y-93861000D01*
X99004523Y-93908619D01*
X99052142Y-94003857D01*
X99052142Y-94146714D01*
X99004523Y-94241952D01*
X98956904Y-94289571D01*
X98861666Y-94337190D01*
X98480714Y-94337190D01*
X99433095Y-93908619D02*
X99480714Y-93861000D01*
X99575952Y-93813380D01*
X99814047Y-93813380D01*
X99909285Y-93861000D01*
X99956904Y-93908619D01*
X100004523Y-94003857D01*
X100004523Y-94099095D01*
X99956904Y-94241952D01*
X99385476Y-94813380D01*
X100004523Y-94813380D01*
X100385476Y-93908619D02*
X100433095Y-93861000D01*
X100528333Y-93813380D01*
X100766428Y-93813380D01*
X100861666Y-93861000D01*
X100909285Y-93908619D01*
X100956904Y-94003857D01*
X100956904Y-94099095D01*
X100909285Y-94241952D01*
X100337857Y-94813380D01*
X100956904Y-94813380D01*
X107599242Y-78506580D02*
X107265909Y-78030390D01*
X107027814Y-78506580D02*
X107027814Y-77506580D01*
X107408766Y-77506580D01*
X107504004Y-77554200D01*
X107551623Y-77601819D01*
X107599242Y-77697057D01*
X107599242Y-77839914D01*
X107551623Y-77935152D01*
X107504004Y-77982771D01*
X107408766Y-78030390D01*
X107027814Y-78030390D01*
X107980195Y-77601819D02*
X108027814Y-77554200D01*
X108123052Y-77506580D01*
X108361147Y-77506580D01*
X108456385Y-77554200D01*
X108504004Y-77601819D01*
X108551623Y-77697057D01*
X108551623Y-77792295D01*
X108504004Y-77935152D01*
X107932576Y-78506580D01*
X108551623Y-78506580D01*
X108884957Y-77506580D02*
X109504004Y-77506580D01*
X109170671Y-77887533D01*
X109313528Y-77887533D01*
X109408766Y-77935152D01*
X109456385Y-77982771D01*
X109504004Y-78078009D01*
X109504004Y-78316104D01*
X109456385Y-78411342D01*
X109408766Y-78458961D01*
X109313528Y-78506580D01*
X109027814Y-78506580D01*
X108932576Y-78458961D01*
X108884957Y-78411342D01*
X99433142Y-91638380D02*
X99099809Y-91162190D01*
X98861714Y-91638380D02*
X98861714Y-90638380D01*
X99242666Y-90638380D01*
X99337904Y-90686000D01*
X99385523Y-90733619D01*
X99433142Y-90828857D01*
X99433142Y-90971714D01*
X99385523Y-91066952D01*
X99337904Y-91114571D01*
X99242666Y-91162190D01*
X98861714Y-91162190D01*
X99814095Y-90733619D02*
X99861714Y-90686000D01*
X99956952Y-90638380D01*
X100195047Y-90638380D01*
X100290285Y-90686000D01*
X100337904Y-90733619D01*
X100385523Y-90828857D01*
X100385523Y-90924095D01*
X100337904Y-91066952D01*
X99766476Y-91638380D01*
X100385523Y-91638380D01*
X101242666Y-90971714D02*
X101242666Y-91638380D01*
X101004571Y-90590761D02*
X100766476Y-91305047D01*
X101385523Y-91305047D01*
X78938380Y-113926857D02*
X78462190Y-114260190D01*
X78938380Y-114498285D02*
X77938380Y-114498285D01*
X77938380Y-114117333D01*
X77986000Y-114022095D01*
X78033619Y-113974476D01*
X78128857Y-113926857D01*
X78271714Y-113926857D01*
X78366952Y-113974476D01*
X78414571Y-114022095D01*
X78462190Y-114117333D01*
X78462190Y-114498285D01*
X78033619Y-113545904D02*
X77986000Y-113498285D01*
X77938380Y-113403047D01*
X77938380Y-113164952D01*
X77986000Y-113069714D01*
X78033619Y-113022095D01*
X78128857Y-112974476D01*
X78224095Y-112974476D01*
X78366952Y-113022095D01*
X78938380Y-113593523D01*
X78938380Y-112974476D01*
X77938380Y-112069714D02*
X77938380Y-112545904D01*
X78414571Y-112593523D01*
X78366952Y-112545904D01*
X78319333Y-112450666D01*
X78319333Y-112212571D01*
X78366952Y-112117333D01*
X78414571Y-112069714D01*
X78509809Y-112022095D01*
X78747904Y-112022095D01*
X78843142Y-112069714D01*
X78890761Y-112117333D01*
X78938380Y-112212571D01*
X78938380Y-112450666D01*
X78890761Y-112545904D01*
X78843142Y-112593523D01*
X71064380Y-72905857D02*
X70588190Y-73239190D01*
X71064380Y-73477285D02*
X70064380Y-73477285D01*
X70064380Y-73096333D01*
X70112000Y-73001095D01*
X70159619Y-72953476D01*
X70254857Y-72905857D01*
X70397714Y-72905857D01*
X70492952Y-72953476D01*
X70540571Y-73001095D01*
X70588190Y-73096333D01*
X70588190Y-73477285D01*
X70159619Y-72524904D02*
X70112000Y-72477285D01*
X70064380Y-72382047D01*
X70064380Y-72143952D01*
X70112000Y-72048714D01*
X70159619Y-72001095D01*
X70254857Y-71953476D01*
X70350095Y-71953476D01*
X70492952Y-72001095D01*
X71064380Y-72572523D01*
X71064380Y-71953476D01*
X70064380Y-71096333D02*
X70064380Y-71286809D01*
X70112000Y-71382047D01*
X70159619Y-71429666D01*
X70302476Y-71524904D01*
X70492952Y-71572523D01*
X70873904Y-71572523D01*
X70969142Y-71524904D01*
X71016761Y-71477285D01*
X71064380Y-71382047D01*
X71064380Y-71191571D01*
X71016761Y-71096333D01*
X70969142Y-71048714D01*
X70873904Y-71001095D01*
X70635809Y-71001095D01*
X70540571Y-71048714D01*
X70492952Y-71096333D01*
X70445333Y-71191571D01*
X70445333Y-71382047D01*
X70492952Y-71477285D01*
X70540571Y-71524904D01*
X70635809Y-71572523D01*
X99306142Y-98496380D02*
X98972809Y-98020190D01*
X98734714Y-98496380D02*
X98734714Y-97496380D01*
X99115666Y-97496380D01*
X99210904Y-97544000D01*
X99258523Y-97591619D01*
X99306142Y-97686857D01*
X99306142Y-97829714D01*
X99258523Y-97924952D01*
X99210904Y-97972571D01*
X99115666Y-98020190D01*
X98734714Y-98020190D01*
X99687095Y-97591619D02*
X99734714Y-97544000D01*
X99829952Y-97496380D01*
X100068047Y-97496380D01*
X100163285Y-97544000D01*
X100210904Y-97591619D01*
X100258523Y-97686857D01*
X100258523Y-97782095D01*
X100210904Y-97924952D01*
X99639476Y-98496380D01*
X100258523Y-98496380D01*
X100591857Y-97496380D02*
X101258523Y-97496380D01*
X100829952Y-98496380D01*
X75382380Y-113418857D02*
X74906190Y-113752190D01*
X75382380Y-113990285D02*
X74382380Y-113990285D01*
X74382380Y-113609333D01*
X74430000Y-113514095D01*
X74477619Y-113466476D01*
X74572857Y-113418857D01*
X74715714Y-113418857D01*
X74810952Y-113466476D01*
X74858571Y-113514095D01*
X74906190Y-113609333D01*
X74906190Y-113990285D01*
X74477619Y-113037904D02*
X74430000Y-112990285D01*
X74382380Y-112895047D01*
X74382380Y-112656952D01*
X74430000Y-112561714D01*
X74477619Y-112514095D01*
X74572857Y-112466476D01*
X74668095Y-112466476D01*
X74810952Y-112514095D01*
X75382380Y-113085523D01*
X75382380Y-112466476D01*
X74810952Y-111895047D02*
X74763333Y-111990285D01*
X74715714Y-112037904D01*
X74620476Y-112085523D01*
X74572857Y-112085523D01*
X74477619Y-112037904D01*
X74430000Y-111990285D01*
X74382380Y-111895047D01*
X74382380Y-111704571D01*
X74430000Y-111609333D01*
X74477619Y-111561714D01*
X74572857Y-111514095D01*
X74620476Y-111514095D01*
X74715714Y-111561714D01*
X74763333Y-111609333D01*
X74810952Y-111704571D01*
X74810952Y-111895047D01*
X74858571Y-111990285D01*
X74906190Y-112037904D01*
X75001428Y-112085523D01*
X75191904Y-112085523D01*
X75287142Y-112037904D01*
X75334761Y-111990285D01*
X75382380Y-111895047D01*
X75382380Y-111704571D01*
X75334761Y-111609333D01*
X75287142Y-111561714D01*
X75191904Y-111514095D01*
X75001428Y-111514095D01*
X74906190Y-111561714D01*
X74858571Y-111609333D01*
X74810952Y-111704571D01*
X75382380Y-90177857D02*
X74906190Y-90511190D01*
X75382380Y-90749285D02*
X74382380Y-90749285D01*
X74382380Y-90368333D01*
X74430000Y-90273095D01*
X74477619Y-90225476D01*
X74572857Y-90177857D01*
X74715714Y-90177857D01*
X74810952Y-90225476D01*
X74858571Y-90273095D01*
X74906190Y-90368333D01*
X74906190Y-90749285D01*
X74477619Y-89796904D02*
X74430000Y-89749285D01*
X74382380Y-89654047D01*
X74382380Y-89415952D01*
X74430000Y-89320714D01*
X74477619Y-89273095D01*
X74572857Y-89225476D01*
X74668095Y-89225476D01*
X74810952Y-89273095D01*
X75382380Y-89844523D01*
X75382380Y-89225476D01*
X75382380Y-88749285D02*
X75382380Y-88558809D01*
X75334761Y-88463571D01*
X75287142Y-88415952D01*
X75144285Y-88320714D01*
X74953809Y-88273095D01*
X74572857Y-88273095D01*
X74477619Y-88320714D01*
X74430000Y-88368333D01*
X74382380Y-88463571D01*
X74382380Y-88654047D01*
X74430000Y-88749285D01*
X74477619Y-88796904D01*
X74572857Y-88844523D01*
X74810952Y-88844523D01*
X74906190Y-88796904D01*
X74953809Y-88749285D01*
X75001428Y-88654047D01*
X75001428Y-88463571D01*
X74953809Y-88368333D01*
X74906190Y-88320714D01*
X74810952Y-88273095D01*
X115057180Y-59570857D02*
X114580990Y-59904190D01*
X115057180Y-60142285D02*
X114057180Y-60142285D01*
X114057180Y-59761333D01*
X114104800Y-59666095D01*
X114152419Y-59618476D01*
X114247657Y-59570857D01*
X114390514Y-59570857D01*
X114485752Y-59618476D01*
X114533371Y-59666095D01*
X114580990Y-59761333D01*
X114580990Y-60142285D01*
X114057180Y-59237523D02*
X114057180Y-58618476D01*
X114438133Y-58951809D01*
X114438133Y-58808952D01*
X114485752Y-58713714D01*
X114533371Y-58666095D01*
X114628609Y-58618476D01*
X114866704Y-58618476D01*
X114961942Y-58666095D01*
X115009561Y-58713714D01*
X115057180Y-58808952D01*
X115057180Y-59094666D01*
X115009561Y-59189904D01*
X114961942Y-59237523D01*
X114057180Y-57999428D02*
X114057180Y-57904190D01*
X114104800Y-57808952D01*
X114152419Y-57761333D01*
X114247657Y-57713714D01*
X114438133Y-57666095D01*
X114676228Y-57666095D01*
X114866704Y-57713714D01*
X114961942Y-57761333D01*
X115009561Y-57808952D01*
X115057180Y-57904190D01*
X115057180Y-57999428D01*
X115009561Y-58094666D01*
X114961942Y-58142285D01*
X114866704Y-58189904D01*
X114676228Y-58237523D01*
X114438133Y-58237523D01*
X114247657Y-58189904D01*
X114152419Y-58142285D01*
X114104800Y-58094666D01*
X114057180Y-57999428D01*
X54983142Y-95829380D02*
X54649809Y-95353190D01*
X54411714Y-95829380D02*
X54411714Y-94829380D01*
X54792666Y-94829380D01*
X54887904Y-94877000D01*
X54935523Y-94924619D01*
X54983142Y-95019857D01*
X54983142Y-95162714D01*
X54935523Y-95257952D01*
X54887904Y-95305571D01*
X54792666Y-95353190D01*
X54411714Y-95353190D01*
X55316476Y-94829380D02*
X55935523Y-94829380D01*
X55602190Y-95210333D01*
X55745047Y-95210333D01*
X55840285Y-95257952D01*
X55887904Y-95305571D01*
X55935523Y-95400809D01*
X55935523Y-95638904D01*
X55887904Y-95734142D01*
X55840285Y-95781761D01*
X55745047Y-95829380D01*
X55459333Y-95829380D01*
X55364095Y-95781761D01*
X55316476Y-95734142D01*
X56887904Y-95829380D02*
X56316476Y-95829380D01*
X56602190Y-95829380D02*
X56602190Y-94829380D01*
X56506952Y-94972238D01*
X56411714Y-95067476D01*
X56316476Y-95115095D01*
X48966380Y-106306857D02*
X48490190Y-106640190D01*
X48966380Y-106878285D02*
X47966380Y-106878285D01*
X47966380Y-106497333D01*
X48014000Y-106402095D01*
X48061619Y-106354476D01*
X48156857Y-106306857D01*
X48299714Y-106306857D01*
X48394952Y-106354476D01*
X48442571Y-106402095D01*
X48490190Y-106497333D01*
X48490190Y-106878285D01*
X47966380Y-105973523D02*
X47966380Y-105354476D01*
X48347333Y-105687809D01*
X48347333Y-105544952D01*
X48394952Y-105449714D01*
X48442571Y-105402095D01*
X48537809Y-105354476D01*
X48775904Y-105354476D01*
X48871142Y-105402095D01*
X48918761Y-105449714D01*
X48966380Y-105544952D01*
X48966380Y-105830666D01*
X48918761Y-105925904D01*
X48871142Y-105973523D01*
X48061619Y-104973523D02*
X48014000Y-104925904D01*
X47966380Y-104830666D01*
X47966380Y-104592571D01*
X48014000Y-104497333D01*
X48061619Y-104449714D01*
X48156857Y-104402095D01*
X48252095Y-104402095D01*
X48394952Y-104449714D01*
X48966380Y-105021142D01*
X48966380Y-104402095D01*
X66540142Y-64968380D02*
X66206809Y-64492190D01*
X65968714Y-64968380D02*
X65968714Y-63968380D01*
X66349666Y-63968380D01*
X66444904Y-64016000D01*
X66492523Y-64063619D01*
X66540142Y-64158857D01*
X66540142Y-64301714D01*
X66492523Y-64396952D01*
X66444904Y-64444571D01*
X66349666Y-64492190D01*
X65968714Y-64492190D01*
X66873476Y-63968380D02*
X67492523Y-63968380D01*
X67159190Y-64349333D01*
X67302047Y-64349333D01*
X67397285Y-64396952D01*
X67444904Y-64444571D01*
X67492523Y-64539809D01*
X67492523Y-64777904D01*
X67444904Y-64873142D01*
X67397285Y-64920761D01*
X67302047Y-64968380D01*
X67016333Y-64968380D01*
X66921095Y-64920761D01*
X66873476Y-64873142D01*
X67825857Y-63968380D02*
X68444904Y-63968380D01*
X68111571Y-64349333D01*
X68254428Y-64349333D01*
X68349666Y-64396952D01*
X68397285Y-64444571D01*
X68444904Y-64539809D01*
X68444904Y-64777904D01*
X68397285Y-64873142D01*
X68349666Y-64920761D01*
X68254428Y-64968380D01*
X67968714Y-64968380D01*
X67873476Y-64920761D01*
X67825857Y-64873142D01*
X52522380Y-102750857D02*
X52046190Y-103084190D01*
X52522380Y-103322285D02*
X51522380Y-103322285D01*
X51522380Y-102941333D01*
X51570000Y-102846095D01*
X51617619Y-102798476D01*
X51712857Y-102750857D01*
X51855714Y-102750857D01*
X51950952Y-102798476D01*
X51998571Y-102846095D01*
X52046190Y-102941333D01*
X52046190Y-103322285D01*
X51522380Y-102417523D02*
X51522380Y-101798476D01*
X51903333Y-102131809D01*
X51903333Y-101988952D01*
X51950952Y-101893714D01*
X51998571Y-101846095D01*
X52093809Y-101798476D01*
X52331904Y-101798476D01*
X52427142Y-101846095D01*
X52474761Y-101893714D01*
X52522380Y-101988952D01*
X52522380Y-102274666D01*
X52474761Y-102369904D01*
X52427142Y-102417523D01*
X51855714Y-100941333D02*
X52522380Y-100941333D01*
X51474761Y-101179428D02*
X52189047Y-101417523D01*
X52189047Y-100798476D01*
X53030380Y-114434857D02*
X52554190Y-114768190D01*
X53030380Y-115006285D02*
X52030380Y-115006285D01*
X52030380Y-114625333D01*
X52078000Y-114530095D01*
X52125619Y-114482476D01*
X52220857Y-114434857D01*
X52363714Y-114434857D01*
X52458952Y-114482476D01*
X52506571Y-114530095D01*
X52554190Y-114625333D01*
X52554190Y-115006285D01*
X52030380Y-114101523D02*
X52030380Y-113482476D01*
X52411333Y-113815809D01*
X52411333Y-113672952D01*
X52458952Y-113577714D01*
X52506571Y-113530095D01*
X52601809Y-113482476D01*
X52839904Y-113482476D01*
X52935142Y-113530095D01*
X52982761Y-113577714D01*
X53030380Y-113672952D01*
X53030380Y-113958666D01*
X52982761Y-114053904D01*
X52935142Y-114101523D01*
X52030380Y-112577714D02*
X52030380Y-113053904D01*
X52506571Y-113101523D01*
X52458952Y-113053904D01*
X52411333Y-112958666D01*
X52411333Y-112720571D01*
X52458952Y-112625333D01*
X52506571Y-112577714D01*
X52601809Y-112530095D01*
X52839904Y-112530095D01*
X52935142Y-112577714D01*
X52982761Y-112625333D01*
X53030380Y-112720571D01*
X53030380Y-112958666D01*
X52982761Y-113053904D01*
X52935142Y-113101523D01*
X50998380Y-98686857D02*
X50522190Y-99020190D01*
X50998380Y-99258285D02*
X49998380Y-99258285D01*
X49998380Y-98877333D01*
X50046000Y-98782095D01*
X50093619Y-98734476D01*
X50188857Y-98686857D01*
X50331714Y-98686857D01*
X50426952Y-98734476D01*
X50474571Y-98782095D01*
X50522190Y-98877333D01*
X50522190Y-99258285D01*
X49998380Y-98353523D02*
X49998380Y-97734476D01*
X50379333Y-98067809D01*
X50379333Y-97924952D01*
X50426952Y-97829714D01*
X50474571Y-97782095D01*
X50569809Y-97734476D01*
X50807904Y-97734476D01*
X50903142Y-97782095D01*
X50950761Y-97829714D01*
X50998380Y-97924952D01*
X50998380Y-98210666D01*
X50950761Y-98305904D01*
X50903142Y-98353523D01*
X49998380Y-96877333D02*
X49998380Y-97067809D01*
X50046000Y-97163047D01*
X50093619Y-97210666D01*
X50236476Y-97305904D01*
X50426952Y-97353523D01*
X50807904Y-97353523D01*
X50903142Y-97305904D01*
X50950761Y-97258285D01*
X50998380Y-97163047D01*
X50998380Y-96972571D01*
X50950761Y-96877333D01*
X50903142Y-96829714D01*
X50807904Y-96782095D01*
X50569809Y-96782095D01*
X50474571Y-96829714D01*
X50426952Y-96877333D01*
X50379333Y-96972571D01*
X50379333Y-97163047D01*
X50426952Y-97258285D01*
X50474571Y-97305904D01*
X50569809Y-97353523D01*
X50998380Y-114942857D02*
X50522190Y-115276190D01*
X50998380Y-115514285D02*
X49998380Y-115514285D01*
X49998380Y-115133333D01*
X50046000Y-115038095D01*
X50093619Y-114990476D01*
X50188857Y-114942857D01*
X50331714Y-114942857D01*
X50426952Y-114990476D01*
X50474571Y-115038095D01*
X50522190Y-115133333D01*
X50522190Y-115514285D01*
X49998380Y-114609523D02*
X49998380Y-113990476D01*
X50379333Y-114323809D01*
X50379333Y-114180952D01*
X50426952Y-114085714D01*
X50474571Y-114038095D01*
X50569809Y-113990476D01*
X50807904Y-113990476D01*
X50903142Y-114038095D01*
X50950761Y-114085714D01*
X50998380Y-114180952D01*
X50998380Y-114466666D01*
X50950761Y-114561904D01*
X50903142Y-114609523D01*
X49998380Y-113657142D02*
X49998380Y-112990476D01*
X50998380Y-113419047D01*
X50792142Y-66492380D02*
X50458809Y-66016190D01*
X50220714Y-66492380D02*
X50220714Y-65492380D01*
X50601666Y-65492380D01*
X50696904Y-65540000D01*
X50744523Y-65587619D01*
X50792142Y-65682857D01*
X50792142Y-65825714D01*
X50744523Y-65920952D01*
X50696904Y-65968571D01*
X50601666Y-66016190D01*
X50220714Y-66016190D01*
X51125476Y-65492380D02*
X51744523Y-65492380D01*
X51411190Y-65873333D01*
X51554047Y-65873333D01*
X51649285Y-65920952D01*
X51696904Y-65968571D01*
X51744523Y-66063809D01*
X51744523Y-66301904D01*
X51696904Y-66397142D01*
X51649285Y-66444761D01*
X51554047Y-66492380D01*
X51268333Y-66492380D01*
X51173095Y-66444761D01*
X51125476Y-66397142D01*
X52315952Y-65920952D02*
X52220714Y-65873333D01*
X52173095Y-65825714D01*
X52125476Y-65730476D01*
X52125476Y-65682857D01*
X52173095Y-65587619D01*
X52220714Y-65540000D01*
X52315952Y-65492380D01*
X52506428Y-65492380D01*
X52601666Y-65540000D01*
X52649285Y-65587619D01*
X52696904Y-65682857D01*
X52696904Y-65730476D01*
X52649285Y-65825714D01*
X52601666Y-65873333D01*
X52506428Y-65920952D01*
X52315952Y-65920952D01*
X52220714Y-65968571D01*
X52173095Y-66016190D01*
X52125476Y-66111428D01*
X52125476Y-66301904D01*
X52173095Y-66397142D01*
X52220714Y-66444761D01*
X52315952Y-66492380D01*
X52506428Y-66492380D01*
X52601666Y-66444761D01*
X52649285Y-66397142D01*
X52696904Y-66301904D01*
X52696904Y-66111428D01*
X52649285Y-66016190D01*
X52601666Y-65968571D01*
X52506428Y-65920952D01*
X99179142Y-110688380D02*
X98845809Y-110212190D01*
X98607714Y-110688380D02*
X98607714Y-109688380D01*
X98988666Y-109688380D01*
X99083904Y-109736000D01*
X99131523Y-109783619D01*
X99179142Y-109878857D01*
X99179142Y-110021714D01*
X99131523Y-110116952D01*
X99083904Y-110164571D01*
X98988666Y-110212190D01*
X98607714Y-110212190D01*
X99512476Y-109688380D02*
X100131523Y-109688380D01*
X99798190Y-110069333D01*
X99941047Y-110069333D01*
X100036285Y-110116952D01*
X100083904Y-110164571D01*
X100131523Y-110259809D01*
X100131523Y-110497904D01*
X100083904Y-110593142D01*
X100036285Y-110640761D01*
X99941047Y-110688380D01*
X99655333Y-110688380D01*
X99560095Y-110640761D01*
X99512476Y-110593142D01*
X100607714Y-110688380D02*
X100798190Y-110688380D01*
X100893428Y-110640761D01*
X100941047Y-110593142D01*
X101036285Y-110450285D01*
X101083904Y-110259809D01*
X101083904Y-109878857D01*
X101036285Y-109783619D01*
X100988666Y-109736000D01*
X100893428Y-109688380D01*
X100702952Y-109688380D01*
X100607714Y-109736000D01*
X100560095Y-109783619D01*
X100512476Y-109878857D01*
X100512476Y-110116952D01*
X100560095Y-110212190D01*
X100607714Y-110259809D01*
X100702952Y-110307428D01*
X100893428Y-110307428D01*
X100988666Y-110259809D01*
X101036285Y-110212190D01*
X101083904Y-110116952D01*
X69207142Y-76652380D02*
X68873809Y-76176190D01*
X68635714Y-76652380D02*
X68635714Y-75652380D01*
X69016666Y-75652380D01*
X69111904Y-75700000D01*
X69159523Y-75747619D01*
X69207142Y-75842857D01*
X69207142Y-75985714D01*
X69159523Y-76080952D01*
X69111904Y-76128571D01*
X69016666Y-76176190D01*
X68635714Y-76176190D01*
X70064285Y-75985714D02*
X70064285Y-76652380D01*
X69826190Y-75604761D02*
X69588095Y-76319047D01*
X70207142Y-76319047D01*
X70778571Y-75652380D02*
X70873809Y-75652380D01*
X70969047Y-75700000D01*
X71016666Y-75747619D01*
X71064285Y-75842857D01*
X71111904Y-76033333D01*
X71111904Y-76271428D01*
X71064285Y-76461904D01*
X71016666Y-76557142D01*
X70969047Y-76604761D01*
X70873809Y-76652380D01*
X70778571Y-76652380D01*
X70683333Y-76604761D01*
X70635714Y-76557142D01*
X70588095Y-76461904D01*
X70540476Y-76271428D01*
X70540476Y-76033333D01*
X70588095Y-75842857D01*
X70635714Y-75747619D01*
X70683333Y-75700000D01*
X70778571Y-75652380D01*
X79065380Y-97416857D02*
X78589190Y-97750190D01*
X79065380Y-97988285D02*
X78065380Y-97988285D01*
X78065380Y-97607333D01*
X78113000Y-97512095D01*
X78160619Y-97464476D01*
X78255857Y-97416857D01*
X78398714Y-97416857D01*
X78493952Y-97464476D01*
X78541571Y-97512095D01*
X78589190Y-97607333D01*
X78589190Y-97988285D01*
X78398714Y-96559714D02*
X79065380Y-96559714D01*
X78017761Y-96797809D02*
X78732047Y-97035904D01*
X78732047Y-96416857D01*
X79065380Y-95512095D02*
X79065380Y-96083523D01*
X79065380Y-95797809D02*
X78065380Y-95797809D01*
X78208238Y-95893047D01*
X78303476Y-95988285D01*
X78351095Y-96083523D01*
X48887142Y-71572380D02*
X48553809Y-71096190D01*
X48315714Y-71572380D02*
X48315714Y-70572380D01*
X48696666Y-70572380D01*
X48791904Y-70620000D01*
X48839523Y-70667619D01*
X48887142Y-70762857D01*
X48887142Y-70905714D01*
X48839523Y-71000952D01*
X48791904Y-71048571D01*
X48696666Y-71096190D01*
X48315714Y-71096190D01*
X49744285Y-70905714D02*
X49744285Y-71572380D01*
X49506190Y-70524761D02*
X49268095Y-71239047D01*
X49887142Y-71239047D01*
X50220476Y-70667619D02*
X50268095Y-70620000D01*
X50363333Y-70572380D01*
X50601428Y-70572380D01*
X50696666Y-70620000D01*
X50744285Y-70667619D01*
X50791904Y-70762857D01*
X50791904Y-70858095D01*
X50744285Y-71000952D01*
X50172857Y-71572380D01*
X50791904Y-71572380D01*
X79065380Y-105544857D02*
X78589190Y-105878190D01*
X79065380Y-106116285D02*
X78065380Y-106116285D01*
X78065380Y-105735333D01*
X78113000Y-105640095D01*
X78160619Y-105592476D01*
X78255857Y-105544857D01*
X78398714Y-105544857D01*
X78493952Y-105592476D01*
X78541571Y-105640095D01*
X78589190Y-105735333D01*
X78589190Y-106116285D01*
X78398714Y-104687714D02*
X79065380Y-104687714D01*
X78017761Y-104925809D02*
X78732047Y-105163904D01*
X78732047Y-104544857D01*
X78065380Y-104259142D02*
X78065380Y-103640095D01*
X78446333Y-103973428D01*
X78446333Y-103830571D01*
X78493952Y-103735333D01*
X78541571Y-103687714D01*
X78636809Y-103640095D01*
X78874904Y-103640095D01*
X78970142Y-103687714D01*
X79017761Y-103735333D01*
X79065380Y-103830571D01*
X79065380Y-104116285D01*
X79017761Y-104211523D01*
X78970142Y-104259142D01*
X76398380Y-102242857D02*
X75922190Y-102576190D01*
X76398380Y-102814285D02*
X75398380Y-102814285D01*
X75398380Y-102433333D01*
X75446000Y-102338095D01*
X75493619Y-102290476D01*
X75588857Y-102242857D01*
X75731714Y-102242857D01*
X75826952Y-102290476D01*
X75874571Y-102338095D01*
X75922190Y-102433333D01*
X75922190Y-102814285D01*
X75731714Y-101385714D02*
X76398380Y-101385714D01*
X75350761Y-101623809D02*
X76065047Y-101861904D01*
X76065047Y-101242857D01*
X75731714Y-100433333D02*
X76398380Y-100433333D01*
X75350761Y-100671428D02*
X76065047Y-100909523D01*
X76065047Y-100290476D01*
X79160761Y-52522380D02*
X78827428Y-52046190D01*
X78589333Y-52522380D02*
X78589333Y-51522380D01*
X78970285Y-51522380D01*
X79065523Y-51570000D01*
X79113142Y-51617619D01*
X79160761Y-51712857D01*
X79160761Y-51855714D01*
X79113142Y-51950952D01*
X79065523Y-51998571D01*
X78970285Y-52046190D01*
X78589333Y-52046190D01*
X79446476Y-51522380D02*
X79779809Y-52522380D01*
X80113142Y-51522380D01*
X80970285Y-52522380D02*
X80398857Y-52522380D01*
X80684571Y-52522380D02*
X80684571Y-51522380D01*
X80589333Y-51665238D01*
X80494095Y-51760476D01*
X80398857Y-51808095D01*
X98496380Y-55459238D02*
X98020190Y-55792571D01*
X98496380Y-56030666D02*
X97496380Y-56030666D01*
X97496380Y-55649714D01*
X97544000Y-55554476D01*
X97591619Y-55506857D01*
X97686857Y-55459238D01*
X97829714Y-55459238D01*
X97924952Y-55506857D01*
X97972571Y-55554476D01*
X98020190Y-55649714D01*
X98020190Y-56030666D01*
X97496380Y-55173523D02*
X98496380Y-54840190D01*
X97496380Y-54506857D01*
X97591619Y-54221142D02*
X97544000Y-54173523D01*
X97496380Y-54078285D01*
X97496380Y-53840190D01*
X97544000Y-53744952D01*
X97591619Y-53697333D01*
X97686857Y-53649714D01*
X97782095Y-53649714D01*
X97924952Y-53697333D01*
X98496380Y-54268761D01*
X98496380Y-53649714D01*
X64577380Y-55286238D02*
X64101190Y-55619571D01*
X64577380Y-55857666D02*
X63577380Y-55857666D01*
X63577380Y-55476714D01*
X63625000Y-55381476D01*
X63672619Y-55333857D01*
X63767857Y-55286238D01*
X63910714Y-55286238D01*
X64005952Y-55333857D01*
X64053571Y-55381476D01*
X64101190Y-55476714D01*
X64101190Y-55857666D01*
X63577380Y-55000523D02*
X64577380Y-54667190D01*
X63577380Y-54333857D01*
X63577380Y-54095761D02*
X63577380Y-53476714D01*
X63958333Y-53810047D01*
X63958333Y-53667190D01*
X64005952Y-53571952D01*
X64053571Y-53524333D01*
X64148809Y-53476714D01*
X64386904Y-53476714D01*
X64482142Y-53524333D01*
X64529761Y-53571952D01*
X64577380Y-53667190D01*
X64577380Y-53952904D01*
X64529761Y-54048142D01*
X64482142Y-54095761D01*
X110478961Y-75077580D02*
X110145628Y-74601390D01*
X109907533Y-75077580D02*
X109907533Y-74077580D01*
X110288485Y-74077580D01*
X110383723Y-74125200D01*
X110431342Y-74172819D01*
X110478961Y-74268057D01*
X110478961Y-74410914D01*
X110431342Y-74506152D01*
X110383723Y-74553771D01*
X110288485Y-74601390D01*
X109907533Y-74601390D01*
X110764676Y-74077580D02*
X111098009Y-75077580D01*
X111431342Y-74077580D01*
X112193247Y-74410914D02*
X112193247Y-75077580D01*
X111955152Y-74029961D02*
X111717057Y-74744247D01*
X112336104Y-74744247D01*
X63754095Y-91400380D02*
X63754095Y-92209904D01*
X63801714Y-92305142D01*
X63849333Y-92352761D01*
X63944571Y-92400380D01*
X64135047Y-92400380D01*
X64230285Y-92352761D01*
X64277904Y-92305142D01*
X64325523Y-92209904D01*
X64325523Y-91400380D01*
X65325523Y-92400380D02*
X64754095Y-92400380D01*
X65039809Y-92400380D02*
X65039809Y-91400380D01*
X64944571Y-91543238D01*
X64849333Y-91638476D01*
X64754095Y-91686095D01*
X108356495Y-94702380D02*
X108356495Y-95511904D01*
X108404114Y-95607142D01*
X108451733Y-95654761D01*
X108546971Y-95702380D01*
X108737447Y-95702380D01*
X108832685Y-95654761D01*
X108880304Y-95607142D01*
X108927923Y-95511904D01*
X108927923Y-94702380D01*
X109356495Y-94797619D02*
X109404114Y-94750000D01*
X109499352Y-94702380D01*
X109737447Y-94702380D01*
X109832685Y-94750000D01*
X109880304Y-94797619D01*
X109927923Y-94892857D01*
X109927923Y-94988095D01*
X109880304Y-95130952D01*
X109308876Y-95702380D01*
X109927923Y-95702380D01*
X59944095Y-71080380D02*
X59944095Y-71889904D01*
X59991714Y-71985142D01*
X60039333Y-72032761D01*
X60134571Y-72080380D01*
X60325047Y-72080380D01*
X60420285Y-72032761D01*
X60467904Y-71985142D01*
X60515523Y-71889904D01*
X60515523Y-71080380D01*
X60896476Y-71080380D02*
X61515523Y-71080380D01*
X61182190Y-71461333D01*
X61325047Y-71461333D01*
X61420285Y-71508952D01*
X61467904Y-71556571D01*
X61515523Y-71651809D01*
X61515523Y-71889904D01*
X61467904Y-71985142D01*
X61420285Y-72032761D01*
X61325047Y-72080380D01*
X61039333Y-72080380D01*
X60944095Y-72032761D01*
X60896476Y-71985142D01*
X63456380Y-51307904D02*
X64265904Y-51307904D01*
X64361142Y-51260285D01*
X64408761Y-51212666D01*
X64456380Y-51117428D01*
X64456380Y-50926952D01*
X64408761Y-50831714D01*
X64361142Y-50784095D01*
X64265904Y-50736476D01*
X63456380Y-50736476D01*
X63789714Y-49831714D02*
X64456380Y-49831714D01*
X63408761Y-50069809D02*
X64123047Y-50307904D01*
X64123047Y-49688857D01*
X80656180Y-73304304D02*
X81465704Y-73304304D01*
X81560942Y-73256685D01*
X81608561Y-73209066D01*
X81656180Y-73113828D01*
X81656180Y-72923352D01*
X81608561Y-72828114D01*
X81560942Y-72780495D01*
X81465704Y-72732876D01*
X80656180Y-72732876D01*
X80656180Y-71780495D02*
X80656180Y-72256685D01*
X81132371Y-72304304D01*
X81084752Y-72256685D01*
X81037133Y-72161447D01*
X81037133Y-71923352D01*
X81084752Y-71828114D01*
X81132371Y-71780495D01*
X81227609Y-71732876D01*
X81465704Y-71732876D01*
X81560942Y-71780495D01*
X81608561Y-71828114D01*
X81656180Y-71923352D01*
X81656180Y-72161447D01*
X81608561Y-72256685D01*
X81560942Y-72304304D01*
X63500095Y-96690380D02*
X63500095Y-97499904D01*
X63547714Y-97595142D01*
X63595333Y-97642761D01*
X63690571Y-97690380D01*
X63881047Y-97690380D01*
X63976285Y-97642761D01*
X64023904Y-97595142D01*
X64071523Y-97499904D01*
X64071523Y-96690380D01*
X64976285Y-96690380D02*
X64785809Y-96690380D01*
X64690571Y-96738000D01*
X64642952Y-96785619D01*
X64547714Y-96928476D01*
X64500095Y-97118952D01*
X64500095Y-97499904D01*
X64547714Y-97595142D01*
X64595333Y-97642761D01*
X64690571Y-97690380D01*
X64881047Y-97690380D01*
X64976285Y-97642761D01*
X65023904Y-97595142D01*
X65071523Y-97499904D01*
X65071523Y-97261809D01*
X65023904Y-97166571D01*
X64976285Y-97118952D01*
X64881047Y-97071333D01*
X64690571Y-97071333D01*
X64595333Y-97118952D01*
X64547714Y-97166571D01*
X64500095Y-97261809D01*
X89535095Y-91146380D02*
X89535095Y-91955904D01*
X89582714Y-92051142D01*
X89630333Y-92098761D01*
X89725571Y-92146380D01*
X89916047Y-92146380D01*
X90011285Y-92098761D01*
X90058904Y-92051142D01*
X90106523Y-91955904D01*
X90106523Y-91146380D01*
X90487476Y-91146380D02*
X91154142Y-91146380D01*
X90725571Y-92146380D01*
M02*
