G04 #@! TF.GenerationSoftware,KiCad,Pcbnew,(5.1.0)-1*
G04 #@! TF.CreationDate,2019-04-02T22:50:19-04:00*
G04 #@! TF.ProjectId,ripples,72697070-6c65-4732-9e6b-696361645f70,rev?*
G04 #@! TF.SameCoordinates,Original*
G04 #@! TF.FileFunction,Legend,Bot*
G04 #@! TF.FilePolarity,Positive*
%FSLAX46Y46*%
G04 Gerber Fmt 4.6, Leading zero omitted, Abs format (unit mm)*
G04 Created by KiCad (PCBNEW (5.1.0)-1) date 2019-04-02 22:50:19*
%MOMM*%
%LPD*%
G04 APERTURE LIST*
%ADD10C,0.150000*%
%ADD11C,0.200000*%
%ADD12C,0.300000*%
%ADD13C,0.120000*%
G04 APERTURE END LIST*
D10*
X105100380Y-129691238D02*
X105100380Y-129215047D01*
X104100380Y-129215047D01*
X105100380Y-130024571D02*
X104100380Y-130024571D01*
X104100380Y-130405523D01*
X104148000Y-130500761D01*
X104195619Y-130548380D01*
X104290857Y-130596000D01*
X104433714Y-130596000D01*
X104528952Y-130548380D01*
X104576571Y-130500761D01*
X104624190Y-130405523D01*
X104624190Y-130024571D01*
X104433714Y-131453142D02*
X105100380Y-131453142D01*
X104052761Y-131215047D02*
X104767047Y-130976952D01*
X104767047Y-131596000D01*
X104719428Y-132738857D02*
X104719428Y-133500761D01*
X105100380Y-133119809D02*
X104338476Y-133119809D01*
X104100380Y-134596000D02*
X105100380Y-134929333D01*
X104100380Y-135262666D01*
X105005142Y-136167428D02*
X105052761Y-136119809D01*
X105100380Y-135976952D01*
X105100380Y-135881714D01*
X105052761Y-135738857D01*
X104957523Y-135643619D01*
X104862285Y-135596000D01*
X104671809Y-135548380D01*
X104528952Y-135548380D01*
X104338476Y-135596000D01*
X104243238Y-135643619D01*
X104148000Y-135738857D01*
X104100380Y-135881714D01*
X104100380Y-135976952D01*
X104148000Y-136119809D01*
X104195619Y-136167428D01*
X104814666Y-136548380D02*
X104814666Y-137024571D01*
X105100380Y-136453142D02*
X104100380Y-136786476D01*
X105100380Y-137119809D01*
X74747428Y-132222761D02*
X74699809Y-132079904D01*
X74652190Y-132032285D01*
X74556952Y-131984666D01*
X74414095Y-131984666D01*
X74318857Y-132032285D01*
X74271238Y-132079904D01*
X74223619Y-132175142D01*
X74223619Y-132556095D01*
X75223619Y-132556095D01*
X75223619Y-132222761D01*
X75176000Y-132127523D01*
X75128380Y-132079904D01*
X75033142Y-132032285D01*
X74937904Y-132032285D01*
X74842666Y-132079904D01*
X74795047Y-132127523D01*
X74747428Y-132222761D01*
X74747428Y-132556095D01*
X74223619Y-131556095D02*
X75223619Y-131556095D01*
X75223619Y-131175142D01*
X75176000Y-131079904D01*
X75128380Y-131032285D01*
X75033142Y-130984666D01*
X74890285Y-130984666D01*
X74795047Y-131032285D01*
X74747428Y-131079904D01*
X74699809Y-131175142D01*
X74699809Y-131556095D01*
X75128380Y-130603714D02*
X75176000Y-130556095D01*
X75223619Y-130460857D01*
X75223619Y-130222761D01*
X75176000Y-130127523D01*
X75128380Y-130079904D01*
X75033142Y-130032285D01*
X74937904Y-130032285D01*
X74795047Y-130079904D01*
X74223619Y-130651333D01*
X74223619Y-130032285D01*
X88685619Y-134905428D02*
X87685619Y-134572095D01*
X88685619Y-134238761D01*
X87780857Y-133334000D02*
X87733238Y-133381619D01*
X87685619Y-133524476D01*
X87685619Y-133619714D01*
X87733238Y-133762571D01*
X87828476Y-133857809D01*
X87923714Y-133905428D01*
X88114190Y-133953047D01*
X88257047Y-133953047D01*
X88447523Y-133905428D01*
X88542761Y-133857809D01*
X88638000Y-133762571D01*
X88685619Y-133619714D01*
X88685619Y-133524476D01*
X88638000Y-133381619D01*
X88590380Y-133334000D01*
X87971333Y-132953047D02*
X87971333Y-132476857D01*
X87685619Y-133048285D02*
X88685619Y-132714952D01*
X87685619Y-132381619D01*
X87780857Y-130714952D02*
X87733238Y-130762571D01*
X87685619Y-130905428D01*
X87685619Y-131000666D01*
X87733238Y-131143523D01*
X87828476Y-131238761D01*
X87923714Y-131286380D01*
X88114190Y-131334000D01*
X88257047Y-131334000D01*
X88447523Y-131286380D01*
X88542761Y-131238761D01*
X88638000Y-131143523D01*
X88685619Y-131000666D01*
X88685619Y-130905428D01*
X88638000Y-130762571D01*
X88590380Y-130714952D01*
X88685619Y-130429238D02*
X87685619Y-130095904D01*
X88685619Y-129762571D01*
X101147619Y-140366666D02*
X101147619Y-140842857D01*
X102147619Y-140842857D01*
X101147619Y-140033333D02*
X102147619Y-140033333D01*
X102147619Y-139652380D01*
X102100000Y-139557142D01*
X102052380Y-139509523D01*
X101957142Y-139461904D01*
X101814285Y-139461904D01*
X101719047Y-139509523D01*
X101671428Y-139557142D01*
X101623809Y-139652380D01*
X101623809Y-140033333D01*
X101814285Y-138604761D02*
X101147619Y-138604761D01*
X102195238Y-138842857D02*
X101480952Y-139080952D01*
X101480952Y-138461904D01*
X59999619Y-142652666D02*
X59999619Y-143128857D01*
X60999619Y-143128857D01*
X59999619Y-142319333D02*
X60999619Y-142319333D01*
X60999619Y-141938380D01*
X60952000Y-141843142D01*
X60904380Y-141795523D01*
X60809142Y-141747904D01*
X60666285Y-141747904D01*
X60571047Y-141795523D01*
X60523428Y-141843142D01*
X60475809Y-141938380D01*
X60475809Y-142319333D01*
X60904380Y-141366952D02*
X60952000Y-141319333D01*
X60999619Y-141224095D01*
X60999619Y-140986000D01*
X60952000Y-140890761D01*
X60904380Y-140843142D01*
X60809142Y-140795523D01*
X60713904Y-140795523D01*
X60571047Y-140843142D01*
X59999619Y-141414571D01*
X59999619Y-140795523D01*
X100909428Y-128698571D02*
X100909428Y-129031904D01*
X100385619Y-129031904D02*
X101385619Y-129031904D01*
X101385619Y-128555714D01*
X100385619Y-128174761D02*
X101385619Y-128174761D01*
X100671333Y-127841428D01*
X101385619Y-127508095D01*
X100385619Y-127508095D01*
X82256380Y-125896571D02*
X82304000Y-125991809D01*
X82399238Y-126087047D01*
X82542095Y-126229904D01*
X82589714Y-126325142D01*
X82589714Y-126420380D01*
X82351619Y-126372761D02*
X82399238Y-126468000D01*
X82494476Y-126563238D01*
X82684952Y-126610857D01*
X83018285Y-126610857D01*
X83208761Y-126563238D01*
X83304000Y-126468000D01*
X83351619Y-126372761D01*
X83351619Y-126182285D01*
X83304000Y-126087047D01*
X83208761Y-125991809D01*
X83018285Y-125944190D01*
X82684952Y-125944190D01*
X82494476Y-125991809D01*
X82399238Y-126087047D01*
X82351619Y-126182285D01*
X82351619Y-126372761D01*
X82446857Y-124182285D02*
X82399238Y-124229904D01*
X82351619Y-124372761D01*
X82351619Y-124468000D01*
X82399238Y-124610857D01*
X82494476Y-124706095D01*
X82589714Y-124753714D01*
X82780190Y-124801333D01*
X82923047Y-124801333D01*
X83113523Y-124753714D01*
X83208761Y-124706095D01*
X83304000Y-124610857D01*
X83351619Y-124468000D01*
X83351619Y-124372761D01*
X83304000Y-124229904D01*
X83256380Y-124182285D01*
X83351619Y-123896571D02*
X82351619Y-123563238D01*
X83351619Y-123229904D01*
X77112857Y-126611047D02*
X77065238Y-126658666D01*
X77017619Y-126801523D01*
X77017619Y-126896761D01*
X77065238Y-127039619D01*
X77160476Y-127134857D01*
X77255714Y-127182476D01*
X77446190Y-127230095D01*
X77589047Y-127230095D01*
X77779523Y-127182476D01*
X77874761Y-127134857D01*
X77970000Y-127039619D01*
X78017619Y-126896761D01*
X78017619Y-126801523D01*
X77970000Y-126658666D01*
X77922380Y-126611047D01*
X78017619Y-126325333D02*
X77017619Y-125992000D01*
X78017619Y-125658666D01*
X62793619Y-127626857D02*
X63793619Y-127626857D01*
X63460285Y-127150666D02*
X62793619Y-127150666D01*
X63365047Y-127150666D02*
X63412666Y-127103047D01*
X63460285Y-127007809D01*
X63460285Y-126864952D01*
X63412666Y-126769714D01*
X63317428Y-126722095D01*
X62793619Y-126722095D01*
X63460285Y-126245904D02*
X62460285Y-126245904D01*
X63412666Y-126245904D02*
X63460285Y-126150666D01*
X63460285Y-125960190D01*
X63412666Y-125864952D01*
X63365047Y-125817333D01*
X63269809Y-125769714D01*
X62984095Y-125769714D01*
X62888857Y-125817333D01*
X62841238Y-125864952D01*
X62793619Y-125960190D01*
X62793619Y-126150666D01*
X62841238Y-126245904D01*
X63460285Y-124912571D02*
X62793619Y-124912571D01*
X63460285Y-125341142D02*
X62936476Y-125341142D01*
X62841238Y-125293523D01*
X62793619Y-125198285D01*
X62793619Y-125055428D01*
X62841238Y-124960190D01*
X62888857Y-124912571D01*
X63460285Y-124579238D02*
X63460285Y-124198285D01*
X63793619Y-124436380D02*
X62936476Y-124436380D01*
X62841238Y-124388761D01*
X62793619Y-124293523D01*
X62793619Y-124198285D01*
X90098571Y-49101428D02*
X90098571Y-48768095D01*
X90622380Y-48768095D02*
X89622380Y-48768095D01*
X89622380Y-49244285D01*
X90622380Y-49625238D02*
X89622380Y-49625238D01*
X90336666Y-49958571D01*
X89622380Y-50291904D01*
X90622380Y-50291904D01*
X86233047Y-49569619D02*
X86328285Y-49522000D01*
X86423523Y-49426761D01*
X86566380Y-49283904D01*
X86661619Y-49236285D01*
X86756857Y-49236285D01*
X86709238Y-49474380D02*
X86804476Y-49426761D01*
X86899714Y-49331523D01*
X86947333Y-49141047D01*
X86947333Y-48807714D01*
X86899714Y-48617238D01*
X86804476Y-48522000D01*
X86709238Y-48474380D01*
X86518761Y-48474380D01*
X86423523Y-48522000D01*
X86328285Y-48617238D01*
X86280666Y-48807714D01*
X86280666Y-49141047D01*
X86328285Y-49331523D01*
X86423523Y-49426761D01*
X86518761Y-49474380D01*
X86709238Y-49474380D01*
X63936571Y-58364476D02*
X63936571Y-58031142D01*
X64460380Y-58031142D02*
X63460380Y-58031142D01*
X63460380Y-58507333D01*
X63793714Y-59316857D02*
X64793714Y-59316857D01*
X64412761Y-59316857D02*
X64460380Y-59221619D01*
X64460380Y-59031142D01*
X64412761Y-58935904D01*
X64365142Y-58888285D01*
X64269904Y-58840666D01*
X63984190Y-58840666D01*
X63888952Y-58888285D01*
X63841333Y-58935904D01*
X63793714Y-59031142D01*
X63793714Y-59221619D01*
X63841333Y-59316857D01*
D11*
X99249714Y-139132571D02*
X98249714Y-140632571D01*
X98249714Y-139132571D02*
X99249714Y-140632571D01*
X97178285Y-139846857D02*
X96964000Y-139918285D01*
X96892571Y-139989714D01*
X96821142Y-140132571D01*
X96821142Y-140346857D01*
X96892571Y-140489714D01*
X96964000Y-140561142D01*
X97106857Y-140632571D01*
X97678285Y-140632571D01*
X97678285Y-139132571D01*
X97178285Y-139132571D01*
X97035428Y-139204000D01*
X96964000Y-139275428D01*
X96892571Y-139418285D01*
X96892571Y-139561142D01*
X96964000Y-139704000D01*
X97035428Y-139775428D01*
X97178285Y-139846857D01*
X97678285Y-139846857D01*
X96178285Y-140061142D02*
X95035428Y-140061142D01*
X93464000Y-140632571D02*
X93964000Y-139918285D01*
X94321142Y-140632571D02*
X94321142Y-139132571D01*
X93749714Y-139132571D01*
X93606857Y-139204000D01*
X93535428Y-139275428D01*
X93464000Y-139418285D01*
X93464000Y-139632571D01*
X93535428Y-139775428D01*
X93606857Y-139846857D01*
X93749714Y-139918285D01*
X94321142Y-139918285D01*
X92821142Y-140632571D02*
X92821142Y-139632571D01*
X92821142Y-139132571D02*
X92892571Y-139204000D01*
X92821142Y-139275428D01*
X92749714Y-139204000D01*
X92821142Y-139132571D01*
X92821142Y-139275428D01*
X92106857Y-139632571D02*
X92106857Y-141132571D01*
X92106857Y-139704000D02*
X91964000Y-139632571D01*
X91678285Y-139632571D01*
X91535428Y-139704000D01*
X91464000Y-139775428D01*
X91392571Y-139918285D01*
X91392571Y-140346857D01*
X91464000Y-140489714D01*
X91535428Y-140561142D01*
X91678285Y-140632571D01*
X91964000Y-140632571D01*
X92106857Y-140561142D01*
X90749714Y-139632571D02*
X90749714Y-141132571D01*
X90749714Y-139704000D02*
X90606857Y-139632571D01*
X90321142Y-139632571D01*
X90178285Y-139704000D01*
X90106857Y-139775428D01*
X90035428Y-139918285D01*
X90035428Y-140346857D01*
X90106857Y-140489714D01*
X90178285Y-140561142D01*
X90321142Y-140632571D01*
X90606857Y-140632571D01*
X90749714Y-140561142D01*
X89178285Y-140632571D02*
X89321142Y-140561142D01*
X89392571Y-140418285D01*
X89392571Y-139132571D01*
X88035428Y-140561142D02*
X88178285Y-140632571D01*
X88464000Y-140632571D01*
X88606857Y-140561142D01*
X88678285Y-140418285D01*
X88678285Y-139846857D01*
X88606857Y-139704000D01*
X88464000Y-139632571D01*
X88178285Y-139632571D01*
X88035428Y-139704000D01*
X87964000Y-139846857D01*
X87964000Y-139989714D01*
X88678285Y-140132571D01*
X87392571Y-140561142D02*
X87249714Y-140632571D01*
X86964000Y-140632571D01*
X86821142Y-140561142D01*
X86749714Y-140418285D01*
X86749714Y-140346857D01*
X86821142Y-140204000D01*
X86964000Y-140132571D01*
X87178285Y-140132571D01*
X87321142Y-140061142D01*
X87392571Y-139918285D01*
X87392571Y-139846857D01*
X87321142Y-139704000D01*
X87178285Y-139632571D01*
X86964000Y-139632571D01*
X86821142Y-139704000D01*
D12*
X54038571Y-79609142D02*
X55181428Y-79609142D01*
X54292571Y-93833142D02*
X55435428Y-93833142D01*
X54864000Y-94404571D02*
X54864000Y-93261714D01*
D13*
X48708000Y-80204000D02*
X53908000Y-80204000D01*
X48708000Y-90424000D02*
X48708000Y-80204000D01*
X53908000Y-93024000D02*
X53908000Y-80204000D01*
X48708000Y-90424000D02*
X51308000Y-90424000D01*
X51308000Y-90424000D02*
X51308000Y-93024000D01*
X51308000Y-93024000D02*
X53908000Y-93024000D01*
X48708000Y-91694000D02*
X48708000Y-93024000D01*
X48708000Y-93024000D02*
X50038000Y-93024000D01*
D10*
X51641333Y-93476380D02*
X51641333Y-94190666D01*
X51688952Y-94333523D01*
X51784190Y-94428761D01*
X51927047Y-94476380D01*
X52022285Y-94476380D01*
X50736571Y-93476380D02*
X50927047Y-93476380D01*
X51022285Y-93524000D01*
X51069904Y-93571619D01*
X51165142Y-93714476D01*
X51212761Y-93904952D01*
X51212761Y-94285904D01*
X51165142Y-94381142D01*
X51117523Y-94428761D01*
X51022285Y-94476380D01*
X50831809Y-94476380D01*
X50736571Y-94428761D01*
X50688952Y-94381142D01*
X50641333Y-94285904D01*
X50641333Y-94047809D01*
X50688952Y-93952571D01*
X50736571Y-93904952D01*
X50831809Y-93857333D01*
X51022285Y-93857333D01*
X51117523Y-93904952D01*
X51165142Y-93952571D01*
X51212761Y-94047809D01*
M02*
