M48
INCH,TZ
T1C0.0669
T2C0.0787
%
G90
G05
T1
X59170Y-20340
X39884Y-39730
X39884Y-26297
X42640Y-26297
X39884Y-19580
X42640Y-19580
X59060Y-25170
X61816Y-25170
X61926Y-20340
X39884Y-33013
X42640Y-33013
X42640Y-39730
T2
X51356Y-19113
X51356Y-22578
X51356Y-25200
X51356Y-28665
X51356Y-31287
X51356Y-34751
X51356Y-37373
X51356Y-40838
X60196Y-36143
X60196Y-39608
T0
M30
