G04 #@! TF.GenerationSoftware,KiCad,Pcbnew,(5.0.1)-rc2*
G04 #@! TF.CreationDate,2019-01-13T23:04:29-05:00*
G04 #@! TF.ProjectId,mixer,6D697865722E6B696361645F70636200,rev?*
G04 #@! TF.SameCoordinates,Original*
G04 #@! TF.FileFunction,Copper,L1,Top,Signal*
G04 #@! TF.FilePolarity,Positive*
%FSLAX46Y46*%
G04 Gerber Fmt 4.6, Leading zero omitted, Abs format (unit mm)*
G04 Created by KiCad (PCBNEW (5.0.1)-rc2) date 1/13/2019 11:04:29 PM*
%MOMM*%
%LPD*%
G01*
G04 APERTURE LIST*
G04 #@! TA.AperFunction,ComponentPad*
%ADD10O,1.600000X1.600000*%
G04 #@! TD*
G04 #@! TA.AperFunction,ComponentPad*
%ADD11C,1.600000*%
G04 #@! TD*
G04 #@! TA.AperFunction,ComponentPad*
%ADD12C,5.700000*%
G04 #@! TD*
G04 #@! TA.AperFunction,Conductor*
%ADD13C,0.100000*%
G04 #@! TD*
G04 #@! TA.AperFunction,ComponentPad*
%ADD14C,1.200000*%
G04 #@! TD*
G04 #@! TA.AperFunction,ComponentPad*
%ADD15O,1.750000X1.200000*%
G04 #@! TD*
G04 #@! TA.AperFunction,SMDPad,CuDef*
%ADD16R,2.600000X2.800000*%
G04 #@! TD*
G04 #@! TA.AperFunction,SMDPad,CuDef*
%ADD17R,2.800000X2.800000*%
G04 #@! TD*
G04 #@! TA.AperFunction,SMDPad,CuDef*
%ADD18R,2.200000X2.800000*%
G04 #@! TD*
G04 #@! TA.AperFunction,ComponentPad*
%ADD19C,1.800000*%
G04 #@! TD*
G04 #@! TA.AperFunction,WasherPad*
%ADD20C,4.000000*%
G04 #@! TD*
G04 #@! TA.AperFunction,ComponentPad*
%ADD21R,1.600000X1.600000*%
G04 #@! TD*
G04 #@! TA.AperFunction,ViaPad*
%ADD22C,0.800000*%
G04 #@! TD*
G04 #@! TA.AperFunction,Conductor*
%ADD23C,0.250000*%
G04 #@! TD*
G04 #@! TA.AperFunction,Conductor*
%ADD24C,0.254000*%
G04 #@! TD*
G04 APERTURE END LIST*
D10*
G04 #@! TO.P,R7,2*
G04 #@! TO.N,Net-(C4-Pad2)*
X155790900Y-69900800D03*
D11*
G04 #@! TO.P,R7,1*
G04 #@! TO.N,Net-(C4-Pad1)*
X150710900Y-69900800D03*
G04 #@! TD*
D12*
G04 #@! TO.P,H1,1*
G04 #@! TO.N,GND*
X101511100Y-110426500D03*
G04 #@! TD*
G04 #@! TO.P,H2,1*
G04 #@! TO.N,GND*
X101511100Y-41567100D03*
G04 #@! TD*
G04 #@! TO.P,H3,1*
G04 #@! TO.N,GND*
X156044900Y-110426500D03*
G04 #@! TD*
G04 #@! TO.P,H4,1*
G04 #@! TO.N,GND*
X156044900Y-41567100D03*
G04 #@! TD*
D13*
G04 #@! TO.N,+12V*
G04 #@! TO.C,J5*
G36*
X141352805Y-91374604D02*
X141377073Y-91378204D01*
X141400872Y-91384165D01*
X141423971Y-91392430D01*
X141446150Y-91402920D01*
X141467193Y-91415532D01*
X141486899Y-91430147D01*
X141505077Y-91446623D01*
X141521553Y-91464801D01*
X141536168Y-91484507D01*
X141548780Y-91505550D01*
X141559270Y-91527729D01*
X141567535Y-91550828D01*
X141573496Y-91574627D01*
X141577096Y-91598895D01*
X141578300Y-91623399D01*
X141578300Y-92323401D01*
X141577096Y-92347905D01*
X141573496Y-92372173D01*
X141567535Y-92395972D01*
X141559270Y-92419071D01*
X141548780Y-92441250D01*
X141536168Y-92462293D01*
X141521553Y-92481999D01*
X141505077Y-92500177D01*
X141486899Y-92516653D01*
X141467193Y-92531268D01*
X141446150Y-92543880D01*
X141423971Y-92554370D01*
X141400872Y-92562635D01*
X141377073Y-92568596D01*
X141352805Y-92572196D01*
X141328301Y-92573400D01*
X140078299Y-92573400D01*
X140053795Y-92572196D01*
X140029527Y-92568596D01*
X140005728Y-92562635D01*
X139982629Y-92554370D01*
X139960450Y-92543880D01*
X139939407Y-92531268D01*
X139919701Y-92516653D01*
X139901523Y-92500177D01*
X139885047Y-92481999D01*
X139870432Y-92462293D01*
X139857820Y-92441250D01*
X139847330Y-92419071D01*
X139839065Y-92395972D01*
X139833104Y-92372173D01*
X139829504Y-92347905D01*
X139828300Y-92323401D01*
X139828300Y-91623399D01*
X139829504Y-91598895D01*
X139833104Y-91574627D01*
X139839065Y-91550828D01*
X139847330Y-91527729D01*
X139857820Y-91505550D01*
X139870432Y-91484507D01*
X139885047Y-91464801D01*
X139901523Y-91446623D01*
X139919701Y-91430147D01*
X139939407Y-91415532D01*
X139960450Y-91402920D01*
X139982629Y-91392430D01*
X140005728Y-91384165D01*
X140029527Y-91378204D01*
X140053795Y-91374604D01*
X140078299Y-91373400D01*
X141328301Y-91373400D01*
X141352805Y-91374604D01*
X141352805Y-91374604D01*
G37*
D14*
G04 #@! TD*
G04 #@! TO.P,J5,1*
G04 #@! TO.N,+12V*
X140703300Y-91973400D03*
D15*
G04 #@! TO.P,J5,2*
G04 #@! TO.N,GND*
X140703300Y-93973400D03*
G04 #@! TO.P,J5,3*
G04 #@! TO.N,-12V*
X140703300Y-95973400D03*
G04 #@! TD*
D11*
G04 #@! TO.P,C4,1*
G04 #@! TO.N,Net-(C4-Pad1)*
X155448000Y-72999600D03*
G04 #@! TO.P,C4,2*
G04 #@! TO.N,Net-(C4-Pad2)*
X155448000Y-77999600D03*
G04 #@! TD*
G04 #@! TO.P,C1,2*
G04 #@! TO.N,+12V*
X147722600Y-69900800D03*
G04 #@! TO.P,C1,1*
G04 #@! TO.N,GND*
X142722600Y-69900800D03*
G04 #@! TD*
G04 #@! TO.P,C2,1*
G04 #@! TO.N,GND*
X148742400Y-85775800D03*
G04 #@! TO.P,C2,2*
G04 #@! TO.N,-12V*
X143742400Y-85775800D03*
G04 #@! TD*
G04 #@! TO.P,C3,1*
G04 #@! TO.N,Net-(C3-Pad1)*
X139674600Y-83794600D03*
G04 #@! TO.P,C3,2*
G04 #@! TO.N,Net-(C3-Pad2)*
X139674600Y-78794600D03*
G04 #@! TD*
D16*
G04 #@! TO.P,J1,TN*
G04 #@! TO.N,Net-(J1-PadTN)*
X113604400Y-48983200D03*
D17*
G04 #@! TO.P,J1,T*
G04 #@! TO.N,Net-(J1-PadT)*
X109604400Y-53433200D03*
D18*
G04 #@! TO.P,J1,S*
G04 #@! TO.N,GND*
X100204400Y-53433200D03*
G04 #@! TD*
G04 #@! TO.P,J2,S*
G04 #@! TO.N,GND*
X100204400Y-70493533D03*
D17*
G04 #@! TO.P,J2,T*
G04 #@! TO.N,Net-(J2-PadT)*
X109604400Y-70493533D03*
D16*
G04 #@! TO.P,J2,TN*
G04 #@! TO.N,Net-(J2-PadTN)*
X113604400Y-66043533D03*
G04 #@! TD*
D18*
G04 #@! TO.P,J3,S*
G04 #@! TO.N,GND*
X100204400Y-87553866D03*
D17*
G04 #@! TO.P,J3,T*
G04 #@! TO.N,Net-(J3-PadT)*
X109604400Y-87553866D03*
D16*
G04 #@! TO.P,J3,TN*
G04 #@! TO.N,Net-(J3-PadTN)*
X113604400Y-83103866D03*
G04 #@! TD*
D18*
G04 #@! TO.P,J4,S*
G04 #@! TO.N,GND*
X100204400Y-104614200D03*
D17*
G04 #@! TO.P,J4,T*
G04 #@! TO.N,Net-(J4-PadT)*
X109604400Y-104614200D03*
D16*
G04 #@! TO.P,J4,TN*
G04 #@! TO.N,Net-(J4-PadTN)*
X113604400Y-100164200D03*
G04 #@! TD*
G04 #@! TO.P,J6,TN*
G04 #@! TO.N,Net-(J6-PadTN)*
X144993000Y-52413600D03*
D17*
G04 #@! TO.P,J6,T*
G04 #@! TO.N,Net-(J6-PadT)*
X148993000Y-47963600D03*
D18*
G04 #@! TO.P,J6,S*
G04 #@! TO.N,GND*
X158393000Y-47963600D03*
G04 #@! TD*
D16*
G04 #@! TO.P,J7,TN*
G04 #@! TO.N,Net-(J7-PadTN)*
X144713600Y-64681800D03*
D17*
G04 #@! TO.P,J7,T*
G04 #@! TO.N,Net-(J7-PadT)*
X148713600Y-60231800D03*
D18*
G04 #@! TO.P,J7,S*
G04 #@! TO.N,GND*
X158113600Y-60231800D03*
G04 #@! TD*
D11*
G04 #@! TO.P,R1,1*
G04 #@! TO.N,Net-(C3-Pad2)*
X119354600Y-58089800D03*
D10*
G04 #@! TO.P,R1,2*
G04 #@! TO.N,Net-(R1-Pad2)*
X119354600Y-53009800D03*
G04 #@! TD*
G04 #@! TO.P,R2,2*
G04 #@! TO.N,Net-(R2-Pad2)*
X119151400Y-68478400D03*
D11*
G04 #@! TO.P,R2,1*
G04 #@! TO.N,Net-(C3-Pad2)*
X119151400Y-63398400D03*
G04 #@! TD*
G04 #@! TO.P,R3,1*
G04 #@! TO.N,Net-(C3-Pad2)*
X118618000Y-81864200D03*
D10*
G04 #@! TO.P,R3,2*
G04 #@! TO.N,Net-(R3-Pad2)*
X118618000Y-76784200D03*
G04 #@! TD*
D11*
G04 #@! TO.P,R4,1*
G04 #@! TO.N,Net-(C3-Pad2)*
X118618000Y-94437200D03*
D10*
G04 #@! TO.P,R4,2*
G04 #@! TO.N,Net-(R4-Pad2)*
X118618000Y-99517200D03*
G04 #@! TD*
D11*
G04 #@! TO.P,R5,1*
G04 #@! TO.N,Net-(C3-Pad1)*
X139700000Y-71120000D03*
D10*
G04 #@! TO.P,R5,2*
G04 #@! TO.N,Net-(C3-Pad2)*
X139700000Y-76200000D03*
G04 #@! TD*
G04 #@! TO.P,R6,2*
G04 #@! TO.N,Net-(R6-Pad2)*
X157886400Y-85699600D03*
D11*
G04 #@! TO.P,R6,1*
G04 #@! TO.N,Net-(C4-Pad2)*
X152806400Y-85699600D03*
G04 #@! TD*
D10*
G04 #@! TO.P,R8,2*
G04 #@! TO.N,Net-(C4-Pad1)*
X139801600Y-53213000D03*
D11*
G04 #@! TO.P,R8,1*
G04 #@! TO.N,Net-(J6-PadT)*
X139801600Y-48133000D03*
G04 #@! TD*
G04 #@! TO.P,R9,1*
G04 #@! TO.N,Net-(J7-PadT)*
X139801600Y-63144400D03*
D10*
G04 #@! TO.P,R9,2*
G04 #@! TO.N,Net-(C4-Pad1)*
X139801600Y-58064400D03*
G04 #@! TD*
D19*
G04 #@! TO.P,RV1,3*
G04 #@! TO.N,GND*
X123444000Y-50448200D03*
G04 #@! TO.P,RV1,2*
G04 #@! TO.N,Net-(R1-Pad2)*
X123444000Y-52948200D03*
G04 #@! TO.P,RV1,1*
G04 #@! TO.N,Net-(J1-PadT)*
X123444000Y-55448200D03*
D20*
G04 #@! TO.P,RV1,*
G04 #@! TO.N,*
X130444000Y-48548200D03*
X130444000Y-57348200D03*
G04 #@! TD*
D19*
G04 #@! TO.P,RV2,3*
G04 #@! TO.N,GND*
X123444000Y-65908333D03*
G04 #@! TO.P,RV2,2*
G04 #@! TO.N,Net-(R2-Pad2)*
X123444000Y-68408333D03*
G04 #@! TO.P,RV2,1*
G04 #@! TO.N,Net-(J2-PadT)*
X123444000Y-70908333D03*
D20*
G04 #@! TO.P,RV2,*
G04 #@! TO.N,*
X130444000Y-64008333D03*
X130444000Y-72808333D03*
G04 #@! TD*
G04 #@! TO.P,RV3,*
G04 #@! TO.N,*
X130444000Y-88268466D03*
X130444000Y-79468466D03*
D19*
G04 #@! TO.P,RV3,1*
G04 #@! TO.N,Net-(J3-PadT)*
X123444000Y-86368466D03*
G04 #@! TO.P,RV3,2*
G04 #@! TO.N,Net-(R3-Pad2)*
X123444000Y-83868466D03*
G04 #@! TO.P,RV3,3*
G04 #@! TO.N,GND*
X123444000Y-81368466D03*
G04 #@! TD*
D20*
G04 #@! TO.P,RV4,*
G04 #@! TO.N,*
X130444000Y-103728600D03*
X130444000Y-94928600D03*
D19*
G04 #@! TO.P,RV4,1*
G04 #@! TO.N,Net-(J4-PadT)*
X123444000Y-101828600D03*
G04 #@! TO.P,RV4,2*
G04 #@! TO.N,Net-(R4-Pad2)*
X123444000Y-99328600D03*
G04 #@! TO.P,RV4,3*
G04 #@! TO.N,GND*
X123444000Y-96828600D03*
G04 #@! TD*
G04 #@! TO.P,RV5,3*
G04 #@! TO.N,Net-(R6-Pad2)*
X145897600Y-93704400D03*
G04 #@! TO.P,RV5,2*
G04 #@! TO.N,Net-(C3-Pad1)*
X145897600Y-96204400D03*
G04 #@! TO.P,RV5,1*
G04 #@! TO.N,Net-(RV5-Pad1)*
X145897600Y-98704400D03*
D20*
G04 #@! TO.P,RV5,*
G04 #@! TO.N,*
X152897600Y-91804400D03*
X152897600Y-100604400D03*
G04 #@! TD*
D21*
G04 #@! TO.P,U1,1*
G04 #@! TO.N,Net-(C3-Pad1)*
X144449800Y-73533000D03*
D10*
G04 #@! TO.P,U1,5*
G04 #@! TO.N,GND*
X152069800Y-81153000D03*
G04 #@! TO.P,U1,2*
G04 #@! TO.N,Net-(C3-Pad2)*
X144449800Y-76073000D03*
G04 #@! TO.P,U1,6*
G04 #@! TO.N,Net-(C4-Pad2)*
X152069800Y-78613000D03*
G04 #@! TO.P,U1,3*
G04 #@! TO.N,GND*
X144449800Y-78613000D03*
G04 #@! TO.P,U1,7*
G04 #@! TO.N,Net-(C4-Pad1)*
X152069800Y-76073000D03*
G04 #@! TO.P,U1,4*
G04 #@! TO.N,-12V*
X144449800Y-81153000D03*
G04 #@! TO.P,U1,8*
G04 #@! TO.N,+12V*
X152069800Y-73533000D03*
G04 #@! TD*
D22*
G04 #@! TO.N,GND*
X102479401Y-58267600D03*
X102479401Y-88478867D03*
X102479401Y-67918532D03*
X102479401Y-98958400D03*
X159463600Y-53467000D03*
X150495000Y-108204000D03*
G04 #@! TD*
D23*
G04 #@! TO.N,+12V*
X141374010Y-91302690D02*
X140703300Y-91973400D01*
X145574801Y-87101899D02*
X141374010Y-91302690D01*
X145574801Y-80027999D02*
X145574801Y-87101899D01*
X152069800Y-73533000D02*
X145574801Y-80027999D01*
G04 #@! TO.N,GND*
X122171208Y-50448200D02*
X123444000Y-50448200D01*
X121911207Y-50708201D02*
X122171208Y-50448200D01*
X109068401Y-50708201D02*
X121911207Y-50708201D01*
X106343402Y-53433200D02*
X109068401Y-50708201D01*
X100204400Y-53433200D02*
X106343402Y-53433200D01*
X100204400Y-70193533D02*
X100204400Y-70493533D01*
X102479401Y-67918532D02*
X102479401Y-67918532D01*
X102479401Y-57358201D02*
X102479401Y-58267600D01*
X100204400Y-55083200D02*
X102479401Y-57358201D01*
X100204400Y-53433200D02*
X100204400Y-55083200D01*
X100204400Y-87253866D02*
X100204400Y-87553866D01*
X102479401Y-84978865D02*
X100204400Y-87253866D01*
X102479401Y-74418534D02*
X102479401Y-84978865D01*
X100204400Y-72143533D02*
X102479401Y-74418534D01*
X100204400Y-70493533D02*
X100204400Y-72143533D01*
X100204400Y-104314200D02*
X100204400Y-104614200D01*
X102479401Y-102039199D02*
X100204400Y-104314200D01*
X102479401Y-88478867D02*
X102479401Y-88478867D01*
X101554400Y-87553866D02*
X102479401Y-88478867D01*
X100204400Y-87553866D02*
X101554400Y-87553866D01*
X102479401Y-58267600D02*
X102479401Y-67918532D01*
X102479401Y-88478867D02*
X102479401Y-98958400D01*
X102479401Y-67918532D02*
X100204400Y-70193533D01*
X102479401Y-98958400D02*
X102479401Y-102039199D01*
X158113600Y-59931800D02*
X158113600Y-60231800D01*
X159463600Y-58581800D02*
X158113600Y-59931800D01*
X159463600Y-50684200D02*
X159463600Y-53467000D01*
X158393000Y-49613600D02*
X159463600Y-50684200D01*
X158393000Y-47963600D02*
X158393000Y-49613600D01*
X159463600Y-53467000D02*
X159463600Y-58581800D01*
X153822400Y-108204000D02*
X156044900Y-110426500D01*
X150495000Y-108204000D02*
X153822400Y-108204000D01*
X100204400Y-109119800D02*
X101511100Y-110426500D01*
X100204400Y-104614200D02*
X100204400Y-109119800D01*
X100204400Y-53133200D02*
X100204400Y-53433200D01*
X98854400Y-51783200D02*
X100204400Y-53133200D01*
X98854400Y-48254308D02*
X98854400Y-51783200D01*
X101511100Y-45597608D02*
X98854400Y-48254308D01*
X101511100Y-41567100D02*
X101511100Y-45597608D01*
X157043000Y-47963600D02*
X158393000Y-47963600D01*
X156044900Y-46965500D02*
X157043000Y-47963600D01*
X156044900Y-41567100D02*
X156044900Y-46965500D01*
G04 #@! TO.N,-12V*
X143742400Y-81860400D02*
X144449800Y-81153000D01*
X143742400Y-85775800D02*
X143742400Y-81860400D01*
G04 #@! TO.N,Net-(C3-Pad1)*
X142113000Y-73533000D02*
X139700000Y-71120000D01*
X144449800Y-73533000D02*
X142113000Y-73533000D01*
X138874601Y-84594599D02*
X139674600Y-83794600D01*
X138874601Y-95727862D02*
X138874601Y-84594599D01*
X140045149Y-96898410D02*
X138874601Y-95727862D01*
X143930798Y-96898410D02*
X140045149Y-96898410D01*
X144624808Y-96204400D02*
X143930798Y-96898410D01*
X145897600Y-96204400D02*
X144624808Y-96204400D01*
G04 #@! TO.N,Net-(C3-Pad2)*
X119354600Y-63195200D02*
X119151400Y-63398400D01*
X119354600Y-58089800D02*
X119354600Y-63195200D01*
X138874601Y-79594599D02*
X139674600Y-78794600D01*
X136675733Y-81793467D02*
X138874601Y-79594599D01*
X131261733Y-81793467D02*
X136675733Y-81793467D01*
X139674600Y-76225400D02*
X139700000Y-76200000D01*
X139674600Y-78794600D02*
X139674600Y-76225400D01*
X144322800Y-76200000D02*
X144449800Y-76073000D01*
X139700000Y-76200000D02*
X144322800Y-76200000D01*
X138900001Y-75400001D02*
X139700000Y-76200000D01*
X138394666Y-75400001D02*
X138900001Y-75400001D01*
X126393065Y-63398400D02*
X138394666Y-75400001D01*
X119151400Y-63398400D02*
X126393065Y-63398400D01*
X127961733Y-85093467D02*
X129565400Y-83489800D01*
X121847267Y-85093467D02*
X127961733Y-85093467D01*
X118618000Y-81864200D02*
X121847267Y-85093467D01*
X118618000Y-94437200D02*
X129565400Y-83489800D01*
X129565400Y-83489800D02*
X131261733Y-81793467D01*
G04 #@! TO.N,Net-(C4-Pad1)*
X139801600Y-53213000D02*
X139801600Y-58064400D01*
X155143200Y-72999600D02*
X155448000Y-72999600D01*
X152069800Y-76073000D02*
X155143200Y-72999600D01*
X152349200Y-69900800D02*
X150710900Y-69900800D01*
X155448000Y-72999600D02*
X152349200Y-69900800D01*
X151510899Y-69100801D02*
X150710900Y-69900800D01*
X151510899Y-59644097D02*
X151510899Y-69100801D01*
X149931202Y-58064400D02*
X151510899Y-59644097D01*
X139801600Y-58064400D02*
X149931202Y-58064400D01*
G04 #@! TO.N,Net-(C4-Pad2)*
X154584400Y-83921600D02*
X153606399Y-84899601D01*
X154584400Y-81127600D02*
X154584400Y-83921600D01*
X152069800Y-78613000D02*
X154584400Y-81127600D01*
X152806400Y-85699600D02*
X153606399Y-84899601D01*
X156247999Y-77199601D02*
X155448000Y-77999600D01*
X156590899Y-76856701D02*
X156247999Y-77199601D01*
X156590899Y-70700799D02*
X156590899Y-76856701D01*
X155790900Y-69900800D02*
X156590899Y-70700799D01*
X152683200Y-77999600D02*
X152069800Y-78613000D01*
X155448000Y-77999600D02*
X152683200Y-77999600D01*
G04 #@! TO.N,Net-(R1-Pad2)*
X123382400Y-53009800D02*
X123444000Y-52948200D01*
X119354600Y-53009800D02*
X123382400Y-53009800D01*
G04 #@! TO.N,Net-(R2-Pad2)*
X123373933Y-68478400D02*
X123444000Y-68408333D01*
X119151400Y-68478400D02*
X123373933Y-68478400D01*
G04 #@! TO.N,Net-(R3-Pad2)*
X118618000Y-79042466D02*
X118618000Y-76784200D01*
X123444000Y-83868466D02*
X118618000Y-79042466D01*
G04 #@! TO.N,Net-(R4-Pad2)*
X118806600Y-99328600D02*
X118618000Y-99517200D01*
X123444000Y-99328600D02*
X118806600Y-99328600D01*
G04 #@! TO.N,Net-(R6-Pad2)*
X157086401Y-86499599D02*
X157886400Y-85699600D01*
X154106601Y-89479399D02*
X157086401Y-86499599D01*
X150122601Y-89479399D02*
X154106601Y-89479399D01*
X145897600Y-93704400D02*
X150122601Y-89479399D01*
G04 #@! TO.N,Net-(J6-PadT)*
X148823600Y-48133000D02*
X148993000Y-47963600D01*
X139801600Y-48133000D02*
X148823600Y-48133000D01*
G04 #@! TO.N,Net-(J7-PadT)*
X142714200Y-60231800D02*
X148713600Y-60231800D01*
X139801600Y-63144400D02*
X142714200Y-60231800D01*
G04 #@! TO.N,Net-(J1-PadT)*
X122171208Y-55448200D02*
X123444000Y-55448200D01*
X113269400Y-55448200D02*
X122171208Y-55448200D01*
X111254400Y-53433200D02*
X113269400Y-55448200D01*
X109604400Y-53433200D02*
X111254400Y-53433200D01*
G04 #@! TO.N,Net-(J2-PadT)*
X123029200Y-70493533D02*
X123444000Y-70908333D01*
X109604400Y-70493533D02*
X123029200Y-70493533D01*
G04 #@! TO.N,Net-(J3-PadT)*
X122258600Y-87553866D02*
X123444000Y-86368466D01*
X109604400Y-87553866D02*
X122258600Y-87553866D01*
G04 #@! TO.N,Net-(J4-PadT)*
X122171208Y-101828600D02*
X123444000Y-101828600D01*
X122110607Y-101889201D02*
X122171208Y-101828600D01*
X110679399Y-101889201D02*
X122110607Y-101889201D01*
X109604400Y-102964200D02*
X110679399Y-101889201D01*
X109604400Y-104614200D02*
X109604400Y-102964200D01*
G04 #@! TD*
D24*
G04 #@! TO.N,+12V*
G36*
X154070806Y-44521540D02*
X155284901Y-45024435D01*
X155284901Y-46890648D01*
X155270012Y-46965500D01*
X155284901Y-47040352D01*
X155328997Y-47262037D01*
X155496972Y-47513429D01*
X155560428Y-47555829D01*
X156452670Y-48448072D01*
X156495071Y-48511529D01*
X156645560Y-48612083D01*
X156645560Y-49363600D01*
X156694843Y-49611365D01*
X156835191Y-49821409D01*
X157045235Y-49961757D01*
X157293000Y-50011040D01*
X157744518Y-50011040D01*
X157764409Y-50040808D01*
X157845072Y-50161529D01*
X157908528Y-50203929D01*
X158091664Y-50387065D01*
X157588385Y-50178600D01*
X156997615Y-50178600D01*
X156451815Y-50404678D01*
X156034078Y-50822415D01*
X155808000Y-51368215D01*
X155808000Y-51958985D01*
X156034078Y-52504785D01*
X156451815Y-52922522D01*
X156997615Y-53148600D01*
X157588385Y-53148600D01*
X158134185Y-52922522D01*
X158551922Y-52504785D01*
X158703601Y-52138601D01*
X158703601Y-52763288D01*
X158586169Y-52880720D01*
X158428600Y-53261126D01*
X158428600Y-53672874D01*
X158586169Y-54053280D01*
X158703600Y-54170711D01*
X158703601Y-58184360D01*
X157013600Y-58184360D01*
X156765835Y-58233643D01*
X156555791Y-58373991D01*
X156415443Y-58584035D01*
X156366160Y-58831800D01*
X156366160Y-61631800D01*
X156415443Y-61879565D01*
X156555791Y-62089609D01*
X156765835Y-62229957D01*
X157013600Y-62279240D01*
X159213600Y-62279240D01*
X159461365Y-62229957D01*
X159671409Y-62089609D01*
X159811757Y-61879565D01*
X159861040Y-61631800D01*
X159861040Y-59259163D01*
X159948076Y-59172127D01*
X160011529Y-59129729D01*
X160053927Y-59066276D01*
X160053929Y-59066274D01*
X160102196Y-58994036D01*
X159488208Y-105465271D01*
X103511620Y-107498486D01*
X103485194Y-107472060D01*
X102204310Y-106941500D01*
X100964400Y-106941500D01*
X100964400Y-106661640D01*
X101304400Y-106661640D01*
X101552165Y-106612357D01*
X101762209Y-106472009D01*
X101902557Y-106261965D01*
X101951840Y-106014200D01*
X101951840Y-103641562D01*
X102379202Y-103214200D01*
X107556960Y-103214200D01*
X107556960Y-106014200D01*
X107606243Y-106261965D01*
X107746591Y-106472009D01*
X107956635Y-106612357D01*
X108204400Y-106661640D01*
X111004400Y-106661640D01*
X111252165Y-106612357D01*
X111462209Y-106472009D01*
X111602557Y-106261965D01*
X111651840Y-106014200D01*
X111651840Y-103214200D01*
X111602557Y-102966435D01*
X111462209Y-102756391D01*
X111301789Y-102649201D01*
X122035760Y-102649201D01*
X122110607Y-102664089D01*
X122127230Y-102660783D01*
X122142690Y-102698107D01*
X122574493Y-103129910D01*
X123138670Y-103363600D01*
X123749330Y-103363600D01*
X124133513Y-103204466D01*
X127809000Y-103204466D01*
X127809000Y-104252734D01*
X128210155Y-105221208D01*
X128951392Y-105962445D01*
X129919866Y-106363600D01*
X130968134Y-106363600D01*
X131936608Y-105962445D01*
X132677845Y-105221208D01*
X133079000Y-104252734D01*
X133079000Y-103204466D01*
X132677845Y-102235992D01*
X131936608Y-101494755D01*
X130968134Y-101093600D01*
X129919866Y-101093600D01*
X128951392Y-101494755D01*
X128210155Y-102235992D01*
X127809000Y-103204466D01*
X124133513Y-103204466D01*
X124313507Y-103129910D01*
X124745310Y-102698107D01*
X124979000Y-102133930D01*
X124979000Y-101523270D01*
X124745310Y-100959093D01*
X124364817Y-100578600D01*
X124745310Y-100198107D01*
X124979000Y-99633930D01*
X124979000Y-99023270D01*
X124745310Y-98459093D01*
X124364817Y-98078600D01*
X124745310Y-97698107D01*
X124979000Y-97133930D01*
X124979000Y-96523270D01*
X124745310Y-95959093D01*
X124313507Y-95527290D01*
X123749330Y-95293600D01*
X123138670Y-95293600D01*
X122574493Y-95527290D01*
X122142690Y-95959093D01*
X121909000Y-96523270D01*
X121909000Y-97133930D01*
X122142690Y-97698107D01*
X122523183Y-98078600D01*
X122142690Y-98459093D01*
X122097331Y-98568600D01*
X119710025Y-98568600D01*
X119652577Y-98482623D01*
X119177909Y-98165460D01*
X118759333Y-98082200D01*
X118476667Y-98082200D01*
X118058091Y-98165460D01*
X117583423Y-98482623D01*
X117266260Y-98957291D01*
X117154887Y-99517200D01*
X117266260Y-100077109D01*
X117583423Y-100551777D01*
X118058091Y-100868940D01*
X118476667Y-100952200D01*
X118759333Y-100952200D01*
X119177909Y-100868940D01*
X119652577Y-100551777D01*
X119962062Y-100088600D01*
X122097331Y-100088600D01*
X122142690Y-100198107D01*
X122523183Y-100578600D01*
X122142690Y-100959093D01*
X122097418Y-101068390D01*
X122096360Y-101068600D01*
X122096356Y-101068600D01*
X121874671Y-101112696D01*
X121849970Y-101129201D01*
X115551840Y-101129201D01*
X115551840Y-98764200D01*
X115502557Y-98516435D01*
X115362209Y-98306391D01*
X115152165Y-98166043D01*
X114904400Y-98116760D01*
X112304400Y-98116760D01*
X112056635Y-98166043D01*
X111846591Y-98306391D01*
X111706243Y-98516435D01*
X111656960Y-98764200D01*
X111656960Y-101129201D01*
X110754245Y-101129201D01*
X110679398Y-101114313D01*
X110604551Y-101129201D01*
X110604547Y-101129201D01*
X110382862Y-101173297D01*
X110131470Y-101341272D01*
X110089070Y-101404728D01*
X109119928Y-102373871D01*
X109056472Y-102416271D01*
X109014072Y-102479727D01*
X109014071Y-102479728D01*
X108955918Y-102566760D01*
X108204400Y-102566760D01*
X107956635Y-102616043D01*
X107746591Y-102756391D01*
X107606243Y-102966435D01*
X107556960Y-103214200D01*
X102379202Y-103214200D01*
X102963874Y-102629528D01*
X103027330Y-102587128D01*
X103195305Y-102335736D01*
X103239401Y-102114051D01*
X103239401Y-102114047D01*
X103254289Y-102039200D01*
X103239401Y-101964353D01*
X103239401Y-100618815D01*
X106819400Y-100618815D01*
X106819400Y-101209585D01*
X107045478Y-101755385D01*
X107463215Y-102173122D01*
X108009015Y-102399200D01*
X108599785Y-102399200D01*
X109145585Y-102173122D01*
X109563322Y-101755385D01*
X109789400Y-101209585D01*
X109789400Y-100618815D01*
X109563322Y-100073015D01*
X109145585Y-99655278D01*
X108599785Y-99429200D01*
X108009015Y-99429200D01*
X107463215Y-99655278D01*
X107045478Y-100073015D01*
X106819400Y-100618815D01*
X103239401Y-100618815D01*
X103239401Y-99662111D01*
X103356832Y-99544680D01*
X103514401Y-99164274D01*
X103514401Y-98752526D01*
X103356832Y-98372120D01*
X103239401Y-98254689D01*
X103239401Y-89182578D01*
X103356832Y-89065147D01*
X103514401Y-88684741D01*
X103514401Y-88272993D01*
X103356832Y-87892587D01*
X103065681Y-87601436D01*
X102685275Y-87443867D01*
X102519202Y-87443867D01*
X102144731Y-87069396D01*
X102102329Y-87005937D01*
X101951840Y-86905383D01*
X101951840Y-86581228D01*
X102379202Y-86153866D01*
X107556960Y-86153866D01*
X107556960Y-88953866D01*
X107606243Y-89201631D01*
X107746591Y-89411675D01*
X107956635Y-89552023D01*
X108204400Y-89601306D01*
X111004400Y-89601306D01*
X111252165Y-89552023D01*
X111462209Y-89411675D01*
X111602557Y-89201631D01*
X111651840Y-88953866D01*
X111651840Y-88313866D01*
X122183753Y-88313866D01*
X122258600Y-88328754D01*
X122333447Y-88313866D01*
X122333452Y-88313866D01*
X122555137Y-88269770D01*
X122806529Y-88101795D01*
X122848931Y-88038336D01*
X123029161Y-87858106D01*
X123138670Y-87903466D01*
X123749330Y-87903466D01*
X124308583Y-87671816D01*
X118956302Y-93024097D01*
X118903439Y-93002200D01*
X118332561Y-93002200D01*
X117805138Y-93220666D01*
X117401466Y-93624338D01*
X117183000Y-94151761D01*
X117183000Y-94722639D01*
X117401466Y-95250062D01*
X117805138Y-95653734D01*
X118332561Y-95872200D01*
X118903439Y-95872200D01*
X119430862Y-95653734D01*
X119834534Y-95250062D01*
X120053000Y-94722639D01*
X120053000Y-94404466D01*
X127809000Y-94404466D01*
X127809000Y-95452734D01*
X128210155Y-96421208D01*
X128951392Y-97162445D01*
X129919866Y-97563600D01*
X130968134Y-97563600D01*
X131936608Y-97162445D01*
X132677845Y-96421208D01*
X133079000Y-95452734D01*
X133079000Y-94404466D01*
X132677845Y-93435992D01*
X131936608Y-92694755D01*
X130968134Y-92293600D01*
X129919866Y-92293600D01*
X128951392Y-92694755D01*
X128210155Y-93435992D01*
X127809000Y-94404466D01*
X120053000Y-94404466D01*
X120053000Y-94151761D01*
X120031103Y-94098898D01*
X126385669Y-87744332D01*
X127809000Y-87744332D01*
X127809000Y-88792600D01*
X128210155Y-89761074D01*
X128951392Y-90502311D01*
X129919866Y-90903466D01*
X130968134Y-90903466D01*
X131936608Y-90502311D01*
X132677845Y-89761074D01*
X133079000Y-88792600D01*
X133079000Y-87744332D01*
X132677845Y-86775858D01*
X131936608Y-86034621D01*
X130968134Y-85633466D01*
X129919866Y-85633466D01*
X128951392Y-86034621D01*
X128210155Y-86775858D01*
X127809000Y-87744332D01*
X126385669Y-87744332D01*
X128446206Y-85683796D01*
X128509662Y-85641396D01*
X128552062Y-85577940D01*
X129535403Y-84594599D01*
X138099713Y-84594599D01*
X138114602Y-84669451D01*
X138114601Y-95653015D01*
X138099713Y-95727862D01*
X138114601Y-95802709D01*
X138114601Y-95802713D01*
X138158697Y-96024398D01*
X138326672Y-96275791D01*
X138390131Y-96318193D01*
X139454820Y-97382883D01*
X139497220Y-97446339D01*
X139748612Y-97614314D01*
X139970297Y-97658410D01*
X139970302Y-97658410D01*
X140045149Y-97673298D01*
X140119996Y-97658410D01*
X143855951Y-97658410D01*
X143930798Y-97673298D01*
X144005645Y-97658410D01*
X144005650Y-97658410D01*
X144227335Y-97614314D01*
X144478727Y-97446339D01*
X144521128Y-97382881D01*
X144713196Y-97190813D01*
X144976783Y-97454400D01*
X144596290Y-97834893D01*
X144362600Y-98399070D01*
X144362600Y-99009730D01*
X144596290Y-99573907D01*
X145028093Y-100005710D01*
X145592270Y-100239400D01*
X146202930Y-100239400D01*
X146587113Y-100080266D01*
X150262600Y-100080266D01*
X150262600Y-101128534D01*
X150663755Y-102097008D01*
X151404992Y-102838245D01*
X152373466Y-103239400D01*
X153421734Y-103239400D01*
X154390208Y-102838245D01*
X155131445Y-102097008D01*
X155532600Y-101128534D01*
X155532600Y-100080266D01*
X155131445Y-99111792D01*
X154390208Y-98370555D01*
X153421734Y-97969400D01*
X152373466Y-97969400D01*
X151404992Y-98370555D01*
X150663755Y-99111792D01*
X150262600Y-100080266D01*
X146587113Y-100080266D01*
X146767107Y-100005710D01*
X147198910Y-99573907D01*
X147432600Y-99009730D01*
X147432600Y-98399070D01*
X147198910Y-97834893D01*
X146818417Y-97454400D01*
X147198910Y-97073907D01*
X147432600Y-96509730D01*
X147432600Y-95899070D01*
X147198910Y-95334893D01*
X146818417Y-94954400D01*
X147198910Y-94573907D01*
X147432600Y-94009730D01*
X147432600Y-93399070D01*
X147387240Y-93289561D01*
X150437403Y-90239399D01*
X150736148Y-90239399D01*
X150663755Y-90311792D01*
X150262600Y-91280266D01*
X150262600Y-92328534D01*
X150663755Y-93297008D01*
X151404992Y-94038245D01*
X152373466Y-94439400D01*
X153421734Y-94439400D01*
X154390208Y-94038245D01*
X155131445Y-93297008D01*
X155532600Y-92328534D01*
X155532600Y-91280266D01*
X155131445Y-90311792D01*
X154740227Y-89920574D01*
X157562514Y-87098288D01*
X157745067Y-87134600D01*
X158027733Y-87134600D01*
X158446309Y-87051340D01*
X158920977Y-86734177D01*
X159238140Y-86259509D01*
X159349513Y-85699600D01*
X159238140Y-85139691D01*
X158920977Y-84665023D01*
X158446309Y-84347860D01*
X158027733Y-84264600D01*
X157745067Y-84264600D01*
X157326491Y-84347860D01*
X156851823Y-84665023D01*
X156534660Y-85139691D01*
X156423287Y-85699600D01*
X156487712Y-86023486D01*
X153791800Y-88719399D01*
X150197449Y-88719399D01*
X150122601Y-88704511D01*
X150047753Y-88719399D01*
X150047749Y-88719399D01*
X149874206Y-88753919D01*
X149826063Y-88763495D01*
X149782505Y-88792600D01*
X149574672Y-88931470D01*
X149532272Y-88994926D01*
X146312439Y-92214760D01*
X146202930Y-92169400D01*
X145592270Y-92169400D01*
X145028093Y-92403090D01*
X144596290Y-92834893D01*
X144362600Y-93399070D01*
X144362600Y-94009730D01*
X144596290Y-94573907D01*
X144976783Y-94954400D01*
X144596290Y-95334893D01*
X144551018Y-95444190D01*
X144549960Y-95444400D01*
X144549956Y-95444400D01*
X144328271Y-95488496D01*
X144328269Y-95488497D01*
X144328270Y-95488497D01*
X144140334Y-95614071D01*
X144140332Y-95614073D01*
X144076879Y-95656471D01*
X144034480Y-95719925D01*
X143615996Y-96138410D01*
X142204672Y-96138410D01*
X142237495Y-95973400D01*
X142141644Y-95491527D01*
X141868685Y-95083015D01*
X141704635Y-94973400D01*
X141868685Y-94863785D01*
X142141644Y-94455273D01*
X142237495Y-93973400D01*
X142141644Y-93491527D01*
X141898736Y-93127990D01*
X141937999Y-93111727D01*
X142116627Y-92933098D01*
X142213300Y-92699709D01*
X142213300Y-92259150D01*
X142054550Y-92100400D01*
X140830300Y-92100400D01*
X140830300Y-92120400D01*
X140576300Y-92120400D01*
X140576300Y-92100400D01*
X140556300Y-92100400D01*
X140556300Y-91846400D01*
X140576300Y-91846400D01*
X140576300Y-90897150D01*
X140830300Y-90897150D01*
X140830300Y-91846400D01*
X142054550Y-91846400D01*
X142213300Y-91687650D01*
X142213300Y-91247091D01*
X142116627Y-91013702D01*
X141937999Y-90835073D01*
X141704610Y-90738400D01*
X140989050Y-90738400D01*
X140830300Y-90897150D01*
X140576300Y-90897150D01*
X140417550Y-90738400D01*
X139701990Y-90738400D01*
X139634601Y-90766313D01*
X139634601Y-85229600D01*
X139960039Y-85229600D01*
X140487462Y-85011134D01*
X140891134Y-84607462D01*
X141109600Y-84080039D01*
X141109600Y-83509161D01*
X140891134Y-82981738D01*
X140487462Y-82578066D01*
X139960039Y-82359600D01*
X139389161Y-82359600D01*
X138861738Y-82578066D01*
X138458066Y-82981738D01*
X138239600Y-83509161D01*
X138239600Y-84080039D01*
X138264389Y-84139884D01*
X138158698Y-84298062D01*
X138099713Y-84594599D01*
X129535403Y-84594599D01*
X130155729Y-83974273D01*
X130155731Y-83974270D01*
X131576535Y-82553467D01*
X136600886Y-82553467D01*
X136675733Y-82568355D01*
X136750580Y-82553467D01*
X136750585Y-82553467D01*
X136972270Y-82509371D01*
X137223662Y-82341396D01*
X137266064Y-82277937D01*
X139336298Y-80207704D01*
X139389161Y-80229600D01*
X139960039Y-80229600D01*
X140487462Y-80011134D01*
X140891134Y-79607462D01*
X141109600Y-79080039D01*
X141109600Y-78509161D01*
X140891134Y-77981738D01*
X140487462Y-77578066D01*
X140434600Y-77556170D01*
X140434600Y-77435015D01*
X140734577Y-77234577D01*
X140918043Y-76960000D01*
X143316615Y-76960000D01*
X143415223Y-77107577D01*
X143767558Y-77343000D01*
X143415223Y-77578423D01*
X143098060Y-78053091D01*
X142986687Y-78613000D01*
X143098060Y-79172909D01*
X143415223Y-79647577D01*
X143767558Y-79883000D01*
X143415223Y-80118423D01*
X143098060Y-80593091D01*
X142986687Y-81153000D01*
X143058797Y-81515522D01*
X143026497Y-81563863D01*
X142967512Y-81860400D01*
X142982401Y-81935252D01*
X142982400Y-84537370D01*
X142929538Y-84559266D01*
X142525866Y-84962938D01*
X142307400Y-85490361D01*
X142307400Y-86061239D01*
X142525866Y-86588662D01*
X142929538Y-86992334D01*
X143456961Y-87210800D01*
X144027839Y-87210800D01*
X144555262Y-86992334D01*
X144958934Y-86588662D01*
X145177400Y-86061239D01*
X145177400Y-85490361D01*
X147307400Y-85490361D01*
X147307400Y-86061239D01*
X147525866Y-86588662D01*
X147929538Y-86992334D01*
X148456961Y-87210800D01*
X149027839Y-87210800D01*
X149555262Y-86992334D01*
X149958934Y-86588662D01*
X150177400Y-86061239D01*
X150177400Y-85490361D01*
X149958934Y-84962938D01*
X149555262Y-84559266D01*
X149027839Y-84340800D01*
X148456961Y-84340800D01*
X147929538Y-84559266D01*
X147525866Y-84962938D01*
X147307400Y-85490361D01*
X145177400Y-85490361D01*
X144958934Y-84962938D01*
X144555262Y-84559266D01*
X144502400Y-84537370D01*
X144502400Y-82588000D01*
X144591133Y-82588000D01*
X145009709Y-82504740D01*
X145484377Y-82187577D01*
X145801540Y-81712909D01*
X145912913Y-81153000D01*
X145801540Y-80593091D01*
X145484377Y-80118423D01*
X145132042Y-79883000D01*
X145484377Y-79647577D01*
X145801540Y-79172909D01*
X145912913Y-78613000D01*
X145801540Y-78053091D01*
X145484377Y-77578423D01*
X145132042Y-77343000D01*
X145484377Y-77107577D01*
X145801540Y-76632909D01*
X145912913Y-76073000D01*
X145801540Y-75513091D01*
X145484377Y-75038423D01*
X145363694Y-74957785D01*
X145497565Y-74931157D01*
X145707609Y-74790809D01*
X145847957Y-74580765D01*
X145897240Y-74333000D01*
X145897240Y-73183961D01*
X150677896Y-73183961D01*
X150799885Y-73406000D01*
X151942800Y-73406000D01*
X151942800Y-72262371D01*
X152196800Y-72262371D01*
X152196800Y-73406000D01*
X153339715Y-73406000D01*
X153461704Y-73183961D01*
X153300841Y-72795577D01*
X152924934Y-72380611D01*
X152418841Y-72141086D01*
X152196800Y-72262371D01*
X151942800Y-72262371D01*
X151720759Y-72141086D01*
X151214666Y-72380611D01*
X150838759Y-72795577D01*
X150677896Y-73183961D01*
X145897240Y-73183961D01*
X145897240Y-72733000D01*
X145847957Y-72485235D01*
X145707609Y-72275191D01*
X145497565Y-72134843D01*
X145249800Y-72085560D01*
X143649800Y-72085560D01*
X143402035Y-72134843D01*
X143191991Y-72275191D01*
X143051643Y-72485235D01*
X143002360Y-72733000D01*
X143002360Y-72773000D01*
X142427803Y-72773000D01*
X141113104Y-71458302D01*
X141135000Y-71405439D01*
X141135000Y-70834561D01*
X140916534Y-70307138D01*
X140512862Y-69903466D01*
X139985439Y-69685000D01*
X139414561Y-69685000D01*
X138887138Y-69903466D01*
X138483466Y-70307138D01*
X138265000Y-70834561D01*
X138265000Y-71405439D01*
X138483466Y-71932862D01*
X138887138Y-72336534D01*
X139414561Y-72555000D01*
X139985439Y-72555000D01*
X140038302Y-72533104D01*
X141522673Y-74017476D01*
X141565071Y-74080929D01*
X141628524Y-74123327D01*
X141628526Y-74123329D01*
X141753902Y-74207102D01*
X141816463Y-74248904D01*
X142038148Y-74293000D01*
X142038152Y-74293000D01*
X142112999Y-74307888D01*
X142187846Y-74293000D01*
X143002360Y-74293000D01*
X143002360Y-74333000D01*
X143051643Y-74580765D01*
X143191991Y-74790809D01*
X143402035Y-74931157D01*
X143535906Y-74957785D01*
X143415223Y-75038423D01*
X143146898Y-75440000D01*
X140918043Y-75440000D01*
X140734577Y-75165423D01*
X140259909Y-74848260D01*
X139841333Y-74765000D01*
X139558667Y-74765000D01*
X139372915Y-74801948D01*
X139196538Y-74684097D01*
X138974853Y-74640001D01*
X138974848Y-74640001D01*
X138900001Y-74625113D01*
X138825154Y-74640001D01*
X138709468Y-74640001D01*
X133684828Y-69615361D01*
X141287600Y-69615361D01*
X141287600Y-70186239D01*
X141506066Y-70713662D01*
X141909738Y-71117334D01*
X142437161Y-71335800D01*
X143008039Y-71335800D01*
X143535462Y-71117334D01*
X143744251Y-70908545D01*
X146894461Y-70908545D01*
X146968595Y-71154664D01*
X147505823Y-71347765D01*
X148076054Y-71320578D01*
X148476605Y-71154664D01*
X148550739Y-70908545D01*
X147722600Y-70080405D01*
X146894461Y-70908545D01*
X143744251Y-70908545D01*
X143939134Y-70713662D01*
X144157600Y-70186239D01*
X144157600Y-69684023D01*
X146275635Y-69684023D01*
X146302822Y-70254254D01*
X146468736Y-70654805D01*
X146714855Y-70728939D01*
X147542995Y-69900800D01*
X147902205Y-69900800D01*
X148730345Y-70728939D01*
X148976464Y-70654805D01*
X149169565Y-70117577D01*
X149142378Y-69547346D01*
X148976464Y-69146795D01*
X148730345Y-69072661D01*
X147902205Y-69900800D01*
X147542995Y-69900800D01*
X146714855Y-69072661D01*
X146468736Y-69146795D01*
X146275635Y-69684023D01*
X144157600Y-69684023D01*
X144157600Y-69615361D01*
X143939134Y-69087938D01*
X143744251Y-68893055D01*
X146894461Y-68893055D01*
X147722600Y-69721195D01*
X148550739Y-68893055D01*
X148476605Y-68646936D01*
X147939377Y-68453835D01*
X147369146Y-68481022D01*
X146968595Y-68646936D01*
X146894461Y-68893055D01*
X143744251Y-68893055D01*
X143535462Y-68684266D01*
X143008039Y-68465800D01*
X142437161Y-68465800D01*
X141909738Y-68684266D01*
X141506066Y-69087938D01*
X141287600Y-69615361D01*
X133684828Y-69615361D01*
X130712799Y-66643333D01*
X130968134Y-66643333D01*
X131936608Y-66242178D01*
X132677845Y-65500941D01*
X133079000Y-64532467D01*
X133079000Y-63484199D01*
X132677845Y-62515725D01*
X131936608Y-61774488D01*
X130968134Y-61373333D01*
X129919866Y-61373333D01*
X128951392Y-61774488D01*
X128210155Y-62515725D01*
X127809000Y-63484199D01*
X127809000Y-63739534D01*
X126983396Y-62913930D01*
X126940994Y-62850471D01*
X126689602Y-62682496D01*
X126467917Y-62638400D01*
X126467912Y-62638400D01*
X126393065Y-62623512D01*
X126318218Y-62638400D01*
X120389830Y-62638400D01*
X120367934Y-62585538D01*
X120114600Y-62332204D01*
X120114600Y-59328230D01*
X120167462Y-59306334D01*
X120571134Y-58902662D01*
X120789600Y-58375239D01*
X120789600Y-57804361D01*
X120571134Y-57276938D01*
X120167462Y-56873266D01*
X119640039Y-56654800D01*
X119069161Y-56654800D01*
X118541738Y-56873266D01*
X118138066Y-57276938D01*
X117919600Y-57804361D01*
X117919600Y-58375239D01*
X118138066Y-58902662D01*
X118541738Y-59306334D01*
X118594600Y-59328230D01*
X118594601Y-62075801D01*
X118338538Y-62181866D01*
X117934866Y-62585538D01*
X117716400Y-63112961D01*
X117716400Y-63683839D01*
X117934866Y-64211262D01*
X118338538Y-64614934D01*
X118865961Y-64833400D01*
X119436839Y-64833400D01*
X119964262Y-64614934D01*
X120367934Y-64211262D01*
X120389830Y-64158400D01*
X126078264Y-64158400D01*
X137804336Y-75884473D01*
X137846737Y-75947930D01*
X138098129Y-76115905D01*
X138247697Y-76145656D01*
X138236887Y-76200000D01*
X138348260Y-76759909D01*
X138665423Y-77234577D01*
X138914601Y-77401072D01*
X138914600Y-77556170D01*
X138861738Y-77578066D01*
X138458066Y-77981738D01*
X138239600Y-78509161D01*
X138239600Y-79080039D01*
X138261496Y-79132902D01*
X136360932Y-81033467D01*
X132605452Y-81033467D01*
X132677845Y-80961074D01*
X133079000Y-79992600D01*
X133079000Y-78944332D01*
X132677845Y-77975858D01*
X131936608Y-77234621D01*
X130968134Y-76833466D01*
X129919866Y-76833466D01*
X128951392Y-77234621D01*
X128210155Y-77975858D01*
X127809000Y-78944332D01*
X127809000Y-79992600D01*
X128210155Y-80961074D01*
X128951392Y-81702311D01*
X129889507Y-82090891D01*
X129080930Y-82899469D01*
X129080927Y-82899471D01*
X127646931Y-84333467D01*
X124912862Y-84333467D01*
X124979000Y-84173796D01*
X124979000Y-83563136D01*
X124745310Y-82998959D01*
X124364817Y-82618466D01*
X124745310Y-82237973D01*
X124979000Y-81673796D01*
X124979000Y-81063136D01*
X124745310Y-80498959D01*
X124313507Y-80067156D01*
X123749330Y-79833466D01*
X123138670Y-79833466D01*
X122574493Y-80067156D01*
X122142690Y-80498959D01*
X121909000Y-81063136D01*
X121909000Y-81258664D01*
X119378000Y-78727665D01*
X119378000Y-78002243D01*
X119652577Y-77818777D01*
X119969740Y-77344109D01*
X120081113Y-76784200D01*
X119969740Y-76224291D01*
X119652577Y-75749623D01*
X119177909Y-75432460D01*
X118759333Y-75349200D01*
X118476667Y-75349200D01*
X118058091Y-75432460D01*
X117583423Y-75749623D01*
X117266260Y-76224291D01*
X117154887Y-76784200D01*
X117266260Y-77344109D01*
X117583423Y-77818777D01*
X117858000Y-78002244D01*
X117858000Y-78967619D01*
X117843112Y-79042466D01*
X117858000Y-79117313D01*
X117858000Y-79117317D01*
X117902096Y-79339002D01*
X118070071Y-79590395D01*
X118133530Y-79632797D01*
X118948667Y-80447934D01*
X118903439Y-80429200D01*
X118332561Y-80429200D01*
X117805138Y-80647666D01*
X117401466Y-81051338D01*
X117183000Y-81578761D01*
X117183000Y-82149639D01*
X117401466Y-82677062D01*
X117805138Y-83080734D01*
X118332561Y-83299200D01*
X118903439Y-83299200D01*
X118956302Y-83277303D01*
X121256938Y-85577940D01*
X121299338Y-85641396D01*
X121550730Y-85809371D01*
X121772415Y-85853467D01*
X121772419Y-85853467D01*
X121847266Y-85868355D01*
X121922113Y-85853467D01*
X121995848Y-85853467D01*
X121909000Y-86063136D01*
X121909000Y-86673796D01*
X121954360Y-86783305D01*
X121943799Y-86793866D01*
X111651840Y-86793866D01*
X111651840Y-86153866D01*
X111602557Y-85906101D01*
X111462209Y-85696057D01*
X111252165Y-85555709D01*
X111004400Y-85506426D01*
X108204400Y-85506426D01*
X107956635Y-85555709D01*
X107746591Y-85696057D01*
X107606243Y-85906101D01*
X107556960Y-86153866D01*
X102379202Y-86153866D01*
X102963874Y-85569194D01*
X103027330Y-85526794D01*
X103195305Y-85275402D01*
X103239401Y-85053717D01*
X103239401Y-85053713D01*
X103254289Y-84978866D01*
X103239401Y-84904019D01*
X103239401Y-83558481D01*
X106819400Y-83558481D01*
X106819400Y-84149251D01*
X107045478Y-84695051D01*
X107463215Y-85112788D01*
X108009015Y-85338866D01*
X108599785Y-85338866D01*
X109145585Y-85112788D01*
X109563322Y-84695051D01*
X109789400Y-84149251D01*
X109789400Y-83558481D01*
X109563322Y-83012681D01*
X109145585Y-82594944D01*
X108599785Y-82368866D01*
X108009015Y-82368866D01*
X107463215Y-82594944D01*
X107045478Y-83012681D01*
X106819400Y-83558481D01*
X103239401Y-83558481D01*
X103239401Y-81703866D01*
X111656960Y-81703866D01*
X111656960Y-84503866D01*
X111706243Y-84751631D01*
X111846591Y-84961675D01*
X112056635Y-85102023D01*
X112304400Y-85151306D01*
X114904400Y-85151306D01*
X115152165Y-85102023D01*
X115362209Y-84961675D01*
X115502557Y-84751631D01*
X115551840Y-84503866D01*
X115551840Y-81703866D01*
X115502557Y-81456101D01*
X115362209Y-81246057D01*
X115152165Y-81105709D01*
X114904400Y-81056426D01*
X112304400Y-81056426D01*
X112056635Y-81105709D01*
X111846591Y-81246057D01*
X111706243Y-81456101D01*
X111656960Y-81703866D01*
X103239401Y-81703866D01*
X103239401Y-74493380D01*
X103254289Y-74418533D01*
X103239401Y-74343686D01*
X103239401Y-74343682D01*
X103195305Y-74121997D01*
X103027330Y-73870605D01*
X102963874Y-73828205D01*
X101597240Y-72461572D01*
X101762209Y-72351342D01*
X101902557Y-72141298D01*
X101951840Y-71893533D01*
X101951840Y-69520895D01*
X102379202Y-69093533D01*
X107556960Y-69093533D01*
X107556960Y-71893533D01*
X107606243Y-72141298D01*
X107746591Y-72351342D01*
X107956635Y-72491690D01*
X108204400Y-72540973D01*
X111004400Y-72540973D01*
X111252165Y-72491690D01*
X111462209Y-72351342D01*
X111602557Y-72141298D01*
X111651840Y-71893533D01*
X111651840Y-71253533D01*
X121925515Y-71253533D01*
X122142690Y-71777840D01*
X122574493Y-72209643D01*
X123138670Y-72443333D01*
X123749330Y-72443333D01*
X124133513Y-72284199D01*
X127809000Y-72284199D01*
X127809000Y-73332467D01*
X128210155Y-74300941D01*
X128951392Y-75042178D01*
X129919866Y-75443333D01*
X130968134Y-75443333D01*
X131936608Y-75042178D01*
X132677845Y-74300941D01*
X133079000Y-73332467D01*
X133079000Y-72284199D01*
X132677845Y-71315725D01*
X131936608Y-70574488D01*
X130968134Y-70173333D01*
X129919866Y-70173333D01*
X128951392Y-70574488D01*
X128210155Y-71315725D01*
X127809000Y-72284199D01*
X124133513Y-72284199D01*
X124313507Y-72209643D01*
X124745310Y-71777840D01*
X124979000Y-71213663D01*
X124979000Y-70603003D01*
X124745310Y-70038826D01*
X124364817Y-69658333D01*
X124745310Y-69277840D01*
X124979000Y-68713663D01*
X124979000Y-68103003D01*
X124745310Y-67538826D01*
X124364817Y-67158333D01*
X124745310Y-66777840D01*
X124979000Y-66213663D01*
X124979000Y-65603003D01*
X124745310Y-65038826D01*
X124313507Y-64607023D01*
X123749330Y-64373333D01*
X123138670Y-64373333D01*
X122574493Y-64607023D01*
X122142690Y-65038826D01*
X121909000Y-65603003D01*
X121909000Y-66213663D01*
X122142690Y-66777840D01*
X122523183Y-67158333D01*
X122142690Y-67538826D01*
X122068308Y-67718400D01*
X120369443Y-67718400D01*
X120185977Y-67443823D01*
X119711309Y-67126660D01*
X119292733Y-67043400D01*
X119010067Y-67043400D01*
X118591491Y-67126660D01*
X118116823Y-67443823D01*
X117799660Y-67918491D01*
X117688287Y-68478400D01*
X117799660Y-69038309D01*
X118116823Y-69512977D01*
X118446908Y-69733533D01*
X111651840Y-69733533D01*
X111651840Y-69093533D01*
X111602557Y-68845768D01*
X111462209Y-68635724D01*
X111252165Y-68495376D01*
X111004400Y-68446093D01*
X108204400Y-68446093D01*
X107956635Y-68495376D01*
X107746591Y-68635724D01*
X107606243Y-68845768D01*
X107556960Y-69093533D01*
X102379202Y-69093533D01*
X102519203Y-68953532D01*
X102685275Y-68953532D01*
X103065681Y-68795963D01*
X103356832Y-68504812D01*
X103514401Y-68124406D01*
X103514401Y-67712658D01*
X103356832Y-67332252D01*
X103239401Y-67214821D01*
X103239401Y-66498148D01*
X106819400Y-66498148D01*
X106819400Y-67088918D01*
X107045478Y-67634718D01*
X107463215Y-68052455D01*
X108009015Y-68278533D01*
X108599785Y-68278533D01*
X109145585Y-68052455D01*
X109563322Y-67634718D01*
X109789400Y-67088918D01*
X109789400Y-66498148D01*
X109563322Y-65952348D01*
X109145585Y-65534611D01*
X108599785Y-65308533D01*
X108009015Y-65308533D01*
X107463215Y-65534611D01*
X107045478Y-65952348D01*
X106819400Y-66498148D01*
X103239401Y-66498148D01*
X103239401Y-64643533D01*
X111656960Y-64643533D01*
X111656960Y-67443533D01*
X111706243Y-67691298D01*
X111846591Y-67901342D01*
X112056635Y-68041690D01*
X112304400Y-68090973D01*
X114904400Y-68090973D01*
X115152165Y-68041690D01*
X115362209Y-67901342D01*
X115502557Y-67691298D01*
X115551840Y-67443533D01*
X115551840Y-64643533D01*
X115502557Y-64395768D01*
X115362209Y-64185724D01*
X115152165Y-64045376D01*
X114904400Y-63996093D01*
X112304400Y-63996093D01*
X112056635Y-64045376D01*
X111846591Y-64185724D01*
X111706243Y-64395768D01*
X111656960Y-64643533D01*
X103239401Y-64643533D01*
X103239401Y-58971311D01*
X103356832Y-58853880D01*
X103514401Y-58473474D01*
X103514401Y-58061726D01*
X103356832Y-57681320D01*
X103239401Y-57563889D01*
X103239401Y-57433047D01*
X103254289Y-57358200D01*
X103239401Y-57283353D01*
X103239401Y-57283349D01*
X103195305Y-57061664D01*
X103027330Y-56810272D01*
X102963874Y-56767872D01*
X101597240Y-55401239D01*
X101762209Y-55291009D01*
X101902557Y-55080965D01*
X101951840Y-54833200D01*
X101951840Y-54193200D01*
X106268555Y-54193200D01*
X106343402Y-54208088D01*
X106418249Y-54193200D01*
X106418254Y-54193200D01*
X106639939Y-54149104D01*
X106891331Y-53981129D01*
X106933733Y-53917670D01*
X107556960Y-53294443D01*
X107556960Y-54833200D01*
X107606243Y-55080965D01*
X107746591Y-55291009D01*
X107956635Y-55431357D01*
X108204400Y-55480640D01*
X111004400Y-55480640D01*
X111252165Y-55431357D01*
X111462209Y-55291009D01*
X111602557Y-55080965D01*
X111639854Y-54893456D01*
X112679073Y-55932676D01*
X112721471Y-55996129D01*
X112784924Y-56038527D01*
X112784926Y-56038529D01*
X112910302Y-56122302D01*
X112972863Y-56164104D01*
X113194548Y-56208200D01*
X113194552Y-56208200D01*
X113269399Y-56223088D01*
X113344246Y-56208200D01*
X122097331Y-56208200D01*
X122142690Y-56317707D01*
X122574493Y-56749510D01*
X123138670Y-56983200D01*
X123749330Y-56983200D01*
X124133513Y-56824066D01*
X127809000Y-56824066D01*
X127809000Y-57872334D01*
X128210155Y-58840808D01*
X128951392Y-59582045D01*
X129919866Y-59983200D01*
X130968134Y-59983200D01*
X131936608Y-59582045D01*
X132677845Y-58840808D01*
X133079000Y-57872334D01*
X133079000Y-56824066D01*
X132677845Y-55855592D01*
X131936608Y-55114355D01*
X130968134Y-54713200D01*
X129919866Y-54713200D01*
X128951392Y-55114355D01*
X128210155Y-55855592D01*
X127809000Y-56824066D01*
X124133513Y-56824066D01*
X124313507Y-56749510D01*
X124745310Y-56317707D01*
X124979000Y-55753530D01*
X124979000Y-55142870D01*
X124745310Y-54578693D01*
X124364817Y-54198200D01*
X124745310Y-53817707D01*
X124979000Y-53253530D01*
X124979000Y-53213000D01*
X138338487Y-53213000D01*
X138449860Y-53772909D01*
X138767023Y-54247577D01*
X139041600Y-54431044D01*
X139041601Y-56846356D01*
X138767023Y-57029823D01*
X138449860Y-57504491D01*
X138338487Y-58064400D01*
X138449860Y-58624309D01*
X138767023Y-59098977D01*
X139241691Y-59416140D01*
X139660267Y-59499400D01*
X139942933Y-59499400D01*
X140361509Y-59416140D01*
X140836177Y-59098977D01*
X141019643Y-58824400D01*
X146667632Y-58824400D01*
X146666160Y-58831800D01*
X146666160Y-59471800D01*
X142789046Y-59471800D01*
X142714199Y-59456912D01*
X142639352Y-59471800D01*
X142639348Y-59471800D01*
X142417663Y-59515896D01*
X142355102Y-59557698D01*
X142229726Y-59641471D01*
X142229724Y-59641473D01*
X142166271Y-59683871D01*
X142123873Y-59747324D01*
X140139902Y-61731297D01*
X140087039Y-61709400D01*
X139516161Y-61709400D01*
X138988738Y-61927866D01*
X138585066Y-62331538D01*
X138366600Y-62858961D01*
X138366600Y-63429839D01*
X138585066Y-63957262D01*
X138988738Y-64360934D01*
X139516161Y-64579400D01*
X140087039Y-64579400D01*
X140614462Y-64360934D01*
X141018134Y-63957262D01*
X141236600Y-63429839D01*
X141236600Y-63281800D01*
X142766160Y-63281800D01*
X142766160Y-66081800D01*
X142815443Y-66329565D01*
X142955791Y-66539609D01*
X143165835Y-66679957D01*
X143413600Y-66729240D01*
X146013600Y-66729240D01*
X146261365Y-66679957D01*
X146471409Y-66539609D01*
X146611757Y-66329565D01*
X146661040Y-66081800D01*
X146661040Y-63281800D01*
X146611757Y-63034035D01*
X146471409Y-62823991D01*
X146261365Y-62683643D01*
X146013600Y-62634360D01*
X143413600Y-62634360D01*
X143165835Y-62683643D01*
X142955791Y-62823991D01*
X142815443Y-63034035D01*
X142766160Y-63281800D01*
X141236600Y-63281800D01*
X141236600Y-62858961D01*
X141214703Y-62806098D01*
X143029003Y-60991800D01*
X146666160Y-60991800D01*
X146666160Y-61631800D01*
X146715443Y-61879565D01*
X146855791Y-62089609D01*
X147065835Y-62229957D01*
X147313600Y-62279240D01*
X150113600Y-62279240D01*
X150361365Y-62229957D01*
X150571409Y-62089609D01*
X150711757Y-61879565D01*
X150750899Y-61682782D01*
X150750899Y-62629847D01*
X150308985Y-62446800D01*
X149718215Y-62446800D01*
X149172415Y-62672878D01*
X148754678Y-63090615D01*
X148528600Y-63636415D01*
X148528600Y-64227185D01*
X148754678Y-64772985D01*
X149172415Y-65190722D01*
X149718215Y-65416800D01*
X150308985Y-65416800D01*
X150750900Y-65233753D01*
X150750900Y-68465800D01*
X150425461Y-68465800D01*
X149898038Y-68684266D01*
X149494366Y-69087938D01*
X149275900Y-69615361D01*
X149275900Y-70186239D01*
X149494366Y-70713662D01*
X149898038Y-71117334D01*
X150425461Y-71335800D01*
X150996339Y-71335800D01*
X151523762Y-71117334D01*
X151927434Y-70713662D01*
X151949330Y-70660800D01*
X152034399Y-70660800D01*
X154034897Y-72661298D01*
X154013000Y-72714161D01*
X154013000Y-73054998D01*
X153363928Y-73704071D01*
X153339715Y-73660000D01*
X152196800Y-73660000D01*
X152196800Y-73680000D01*
X151942800Y-73680000D01*
X151942800Y-73660000D01*
X150799885Y-73660000D01*
X150677896Y-73882039D01*
X150838759Y-74270423D01*
X151214666Y-74685389D01*
X151418908Y-74782053D01*
X151035223Y-75038423D01*
X150718060Y-75513091D01*
X150606687Y-76073000D01*
X150718060Y-76632909D01*
X151035223Y-77107577D01*
X151387558Y-77343000D01*
X151035223Y-77578423D01*
X150718060Y-78053091D01*
X150606687Y-78613000D01*
X150718060Y-79172909D01*
X151035223Y-79647577D01*
X151387558Y-79883000D01*
X151035223Y-80118423D01*
X150718060Y-80593091D01*
X150606687Y-81153000D01*
X150718060Y-81712909D01*
X151035223Y-82187577D01*
X151509891Y-82504740D01*
X151928467Y-82588000D01*
X152211133Y-82588000D01*
X152629709Y-82504740D01*
X153104377Y-82187577D01*
X153421540Y-81712909D01*
X153532913Y-81153000D01*
X153532395Y-81150398D01*
X153824400Y-81442403D01*
X153824401Y-83606797D01*
X153144702Y-84286497D01*
X153091839Y-84264600D01*
X152520961Y-84264600D01*
X151993538Y-84483066D01*
X151589866Y-84886738D01*
X151371400Y-85414161D01*
X151371400Y-85985039D01*
X151589866Y-86512462D01*
X151993538Y-86916134D01*
X152520961Y-87134600D01*
X153091839Y-87134600D01*
X153619262Y-86916134D01*
X154022934Y-86512462D01*
X154241400Y-85985039D01*
X154241400Y-85414161D01*
X154219503Y-85361298D01*
X155068873Y-84511929D01*
X155132329Y-84469529D01*
X155300304Y-84218137D01*
X155344400Y-83996452D01*
X155344400Y-83996448D01*
X155359288Y-83921601D01*
X155344400Y-83846754D01*
X155344400Y-81202446D01*
X155359288Y-81127599D01*
X155344400Y-81052752D01*
X155344400Y-81052748D01*
X155300304Y-80831063D01*
X155258502Y-80768502D01*
X155174729Y-80643126D01*
X155174727Y-80643124D01*
X155132329Y-80579671D01*
X155068876Y-80537273D01*
X153468488Y-78936886D01*
X153503752Y-78759600D01*
X154209570Y-78759600D01*
X154231466Y-78812462D01*
X154635138Y-79216134D01*
X155162561Y-79434600D01*
X155733439Y-79434600D01*
X156260862Y-79216134D01*
X156664534Y-78812462D01*
X156883000Y-78285039D01*
X156883000Y-77714161D01*
X156861103Y-77661298D01*
X157075369Y-77447032D01*
X157138828Y-77404630D01*
X157275824Y-77199602D01*
X157306803Y-77153239D01*
X157316379Y-77105096D01*
X157350899Y-76931553D01*
X157350899Y-76931549D01*
X157365787Y-76856701D01*
X157350899Y-76781853D01*
X157350899Y-70775645D01*
X157365787Y-70700798D01*
X157350899Y-70625951D01*
X157350899Y-70625947D01*
X157306803Y-70404262D01*
X157206571Y-70254254D01*
X157188952Y-70227884D01*
X157254013Y-69900800D01*
X157142640Y-69340891D01*
X156825477Y-68866223D01*
X156350809Y-68549060D01*
X155932233Y-68465800D01*
X155649567Y-68465800D01*
X155230991Y-68549060D01*
X154756323Y-68866223D01*
X154439160Y-69340891D01*
X154327787Y-69900800D01*
X154439160Y-70460709D01*
X154756323Y-70935377D01*
X155230991Y-71252540D01*
X155649567Y-71335800D01*
X155830899Y-71335800D01*
X155830899Y-71604969D01*
X155733439Y-71564600D01*
X155162561Y-71564600D01*
X155109698Y-71586497D01*
X152939531Y-69416330D01*
X152897129Y-69352871D01*
X152645737Y-69184896D01*
X152424052Y-69140800D01*
X152424047Y-69140800D01*
X152349200Y-69125912D01*
X152277974Y-69140080D01*
X152285787Y-69100802D01*
X152270899Y-69025955D01*
X152270899Y-63636415D01*
X155528600Y-63636415D01*
X155528600Y-64227185D01*
X155754678Y-64772985D01*
X156172415Y-65190722D01*
X156718215Y-65416800D01*
X157308985Y-65416800D01*
X157854785Y-65190722D01*
X158272522Y-64772985D01*
X158498600Y-64227185D01*
X158498600Y-63636415D01*
X158272522Y-63090615D01*
X157854785Y-62672878D01*
X157308985Y-62446800D01*
X156718215Y-62446800D01*
X156172415Y-62672878D01*
X155754678Y-63090615D01*
X155528600Y-63636415D01*
X152270899Y-63636415D01*
X152270899Y-59718944D01*
X152285787Y-59644097D01*
X152270899Y-59569250D01*
X152270899Y-59569245D01*
X152226803Y-59347560D01*
X152058828Y-59096168D01*
X151995372Y-59053768D01*
X150521533Y-57579930D01*
X150479131Y-57516471D01*
X150227739Y-57348496D01*
X150006054Y-57304400D01*
X150006049Y-57304400D01*
X149931202Y-57289512D01*
X149856355Y-57304400D01*
X141019643Y-57304400D01*
X140836177Y-57029823D01*
X140561600Y-56846357D01*
X140561600Y-54431043D01*
X140836177Y-54247577D01*
X141153340Y-53772909D01*
X141264713Y-53213000D01*
X141153340Y-52653091D01*
X140836177Y-52178423D01*
X140361509Y-51861260D01*
X139942933Y-51778000D01*
X139660267Y-51778000D01*
X139241691Y-51861260D01*
X138767023Y-52178423D01*
X138449860Y-52653091D01*
X138338487Y-53213000D01*
X124979000Y-53213000D01*
X124979000Y-52642870D01*
X124745310Y-52078693D01*
X124364817Y-51698200D01*
X124745310Y-51317707D01*
X124979000Y-50753530D01*
X124979000Y-50142870D01*
X124745310Y-49578693D01*
X124313507Y-49146890D01*
X123749330Y-48913200D01*
X123138670Y-48913200D01*
X122574493Y-49146890D01*
X122142690Y-49578693D01*
X122097418Y-49687990D01*
X122096361Y-49688200D01*
X122096356Y-49688200D01*
X121874671Y-49732296D01*
X121623279Y-49900271D01*
X121591253Y-49948201D01*
X115551840Y-49948201D01*
X115551840Y-48024066D01*
X127809000Y-48024066D01*
X127809000Y-49072334D01*
X128210155Y-50040808D01*
X128951392Y-50782045D01*
X129919866Y-51183200D01*
X130968134Y-51183200D01*
X131377584Y-51013600D01*
X143045560Y-51013600D01*
X143045560Y-53813600D01*
X143094843Y-54061365D01*
X143235191Y-54271409D01*
X143445235Y-54411757D01*
X143693000Y-54461040D01*
X146293000Y-54461040D01*
X146540765Y-54411757D01*
X146750809Y-54271409D01*
X146891157Y-54061365D01*
X146940440Y-53813600D01*
X146940440Y-51368215D01*
X148808000Y-51368215D01*
X148808000Y-51958985D01*
X149034078Y-52504785D01*
X149451815Y-52922522D01*
X149997615Y-53148600D01*
X150588385Y-53148600D01*
X151134185Y-52922522D01*
X151551922Y-52504785D01*
X151778000Y-51958985D01*
X151778000Y-51368215D01*
X151551922Y-50822415D01*
X151134185Y-50404678D01*
X150588385Y-50178600D01*
X149997615Y-50178600D01*
X149451815Y-50404678D01*
X149034078Y-50822415D01*
X148808000Y-51368215D01*
X146940440Y-51368215D01*
X146940440Y-51013600D01*
X146891157Y-50765835D01*
X146750809Y-50555791D01*
X146540765Y-50415443D01*
X146293000Y-50366160D01*
X143693000Y-50366160D01*
X143445235Y-50415443D01*
X143235191Y-50555791D01*
X143094843Y-50765835D01*
X143045560Y-51013600D01*
X131377584Y-51013600D01*
X131936608Y-50782045D01*
X132677845Y-50040808D01*
X133079000Y-49072334D01*
X133079000Y-48024066D01*
X133005890Y-47847561D01*
X138366600Y-47847561D01*
X138366600Y-48418439D01*
X138585066Y-48945862D01*
X138988738Y-49349534D01*
X139516161Y-49568000D01*
X140087039Y-49568000D01*
X140614462Y-49349534D01*
X141018134Y-48945862D01*
X141040030Y-48893000D01*
X146945560Y-48893000D01*
X146945560Y-49363600D01*
X146994843Y-49611365D01*
X147135191Y-49821409D01*
X147345235Y-49961757D01*
X147593000Y-50011040D01*
X150393000Y-50011040D01*
X150640765Y-49961757D01*
X150850809Y-49821409D01*
X150991157Y-49611365D01*
X151040440Y-49363600D01*
X151040440Y-46563600D01*
X150991157Y-46315835D01*
X150850809Y-46105791D01*
X150640765Y-45965443D01*
X150393000Y-45916160D01*
X147593000Y-45916160D01*
X147345235Y-45965443D01*
X147135191Y-46105791D01*
X146994843Y-46315835D01*
X146945560Y-46563600D01*
X146945560Y-47373000D01*
X141040030Y-47373000D01*
X141018134Y-47320138D01*
X140614462Y-46916466D01*
X140087039Y-46698000D01*
X139516161Y-46698000D01*
X138988738Y-46916466D01*
X138585066Y-47320138D01*
X138366600Y-47847561D01*
X133005890Y-47847561D01*
X132677845Y-47055592D01*
X131936608Y-46314355D01*
X130968134Y-45913200D01*
X129919866Y-45913200D01*
X128951392Y-46314355D01*
X128210155Y-47055592D01*
X127809000Y-48024066D01*
X115551840Y-48024066D01*
X115551840Y-47583200D01*
X115502557Y-47335435D01*
X115362209Y-47125391D01*
X115152165Y-46985043D01*
X114904400Y-46935760D01*
X112304400Y-46935760D01*
X112056635Y-46985043D01*
X111846591Y-47125391D01*
X111706243Y-47335435D01*
X111656960Y-47583200D01*
X111656960Y-49948201D01*
X109789400Y-49948201D01*
X109789400Y-49437815D01*
X109563322Y-48892015D01*
X109145585Y-48474278D01*
X108599785Y-48248200D01*
X108009015Y-48248200D01*
X107463215Y-48474278D01*
X107045478Y-48892015D01*
X106819400Y-49437815D01*
X106819400Y-50028585D01*
X107045478Y-50574385D01*
X107463215Y-50992122D01*
X107637491Y-51064309D01*
X106028601Y-52673200D01*
X101951840Y-52673200D01*
X101951840Y-52033200D01*
X101902557Y-51785435D01*
X101762209Y-51575391D01*
X101552165Y-51435043D01*
X101304400Y-51385760D01*
X99614400Y-51385760D01*
X99614400Y-49437815D01*
X99819400Y-49437815D01*
X99819400Y-50028585D01*
X100045478Y-50574385D01*
X100463215Y-50992122D01*
X101009015Y-51218200D01*
X101599785Y-51218200D01*
X102145585Y-50992122D01*
X102563322Y-50574385D01*
X102789400Y-50028585D01*
X102789400Y-49437815D01*
X102563322Y-48892015D01*
X102145585Y-48474278D01*
X101599785Y-48248200D01*
X101009015Y-48248200D01*
X100463215Y-48474278D01*
X100045478Y-48892015D01*
X99819400Y-49437815D01*
X99614400Y-49437815D01*
X99614400Y-48569109D01*
X101995573Y-46187937D01*
X102059029Y-46145537D01*
X102227004Y-45894145D01*
X102271100Y-45672460D01*
X102271100Y-45672456D01*
X102285988Y-45597609D01*
X102271100Y-45522762D01*
X102271100Y-45024435D01*
X103485194Y-44521540D01*
X103636924Y-44369810D01*
X153765652Y-44216386D01*
X154070806Y-44521540D01*
X154070806Y-44521540D01*
G37*
X154070806Y-44521540D02*
X155284901Y-45024435D01*
X155284901Y-46890648D01*
X155270012Y-46965500D01*
X155284901Y-47040352D01*
X155328997Y-47262037D01*
X155496972Y-47513429D01*
X155560428Y-47555829D01*
X156452670Y-48448072D01*
X156495071Y-48511529D01*
X156645560Y-48612083D01*
X156645560Y-49363600D01*
X156694843Y-49611365D01*
X156835191Y-49821409D01*
X157045235Y-49961757D01*
X157293000Y-50011040D01*
X157744518Y-50011040D01*
X157764409Y-50040808D01*
X157845072Y-50161529D01*
X157908528Y-50203929D01*
X158091664Y-50387065D01*
X157588385Y-50178600D01*
X156997615Y-50178600D01*
X156451815Y-50404678D01*
X156034078Y-50822415D01*
X155808000Y-51368215D01*
X155808000Y-51958985D01*
X156034078Y-52504785D01*
X156451815Y-52922522D01*
X156997615Y-53148600D01*
X157588385Y-53148600D01*
X158134185Y-52922522D01*
X158551922Y-52504785D01*
X158703601Y-52138601D01*
X158703601Y-52763288D01*
X158586169Y-52880720D01*
X158428600Y-53261126D01*
X158428600Y-53672874D01*
X158586169Y-54053280D01*
X158703600Y-54170711D01*
X158703601Y-58184360D01*
X157013600Y-58184360D01*
X156765835Y-58233643D01*
X156555791Y-58373991D01*
X156415443Y-58584035D01*
X156366160Y-58831800D01*
X156366160Y-61631800D01*
X156415443Y-61879565D01*
X156555791Y-62089609D01*
X156765835Y-62229957D01*
X157013600Y-62279240D01*
X159213600Y-62279240D01*
X159461365Y-62229957D01*
X159671409Y-62089609D01*
X159811757Y-61879565D01*
X159861040Y-61631800D01*
X159861040Y-59259163D01*
X159948076Y-59172127D01*
X160011529Y-59129729D01*
X160053927Y-59066276D01*
X160053929Y-59066274D01*
X160102196Y-58994036D01*
X159488208Y-105465271D01*
X103511620Y-107498486D01*
X103485194Y-107472060D01*
X102204310Y-106941500D01*
X100964400Y-106941500D01*
X100964400Y-106661640D01*
X101304400Y-106661640D01*
X101552165Y-106612357D01*
X101762209Y-106472009D01*
X101902557Y-106261965D01*
X101951840Y-106014200D01*
X101951840Y-103641562D01*
X102379202Y-103214200D01*
X107556960Y-103214200D01*
X107556960Y-106014200D01*
X107606243Y-106261965D01*
X107746591Y-106472009D01*
X107956635Y-106612357D01*
X108204400Y-106661640D01*
X111004400Y-106661640D01*
X111252165Y-106612357D01*
X111462209Y-106472009D01*
X111602557Y-106261965D01*
X111651840Y-106014200D01*
X111651840Y-103214200D01*
X111602557Y-102966435D01*
X111462209Y-102756391D01*
X111301789Y-102649201D01*
X122035760Y-102649201D01*
X122110607Y-102664089D01*
X122127230Y-102660783D01*
X122142690Y-102698107D01*
X122574493Y-103129910D01*
X123138670Y-103363600D01*
X123749330Y-103363600D01*
X124133513Y-103204466D01*
X127809000Y-103204466D01*
X127809000Y-104252734D01*
X128210155Y-105221208D01*
X128951392Y-105962445D01*
X129919866Y-106363600D01*
X130968134Y-106363600D01*
X131936608Y-105962445D01*
X132677845Y-105221208D01*
X133079000Y-104252734D01*
X133079000Y-103204466D01*
X132677845Y-102235992D01*
X131936608Y-101494755D01*
X130968134Y-101093600D01*
X129919866Y-101093600D01*
X128951392Y-101494755D01*
X128210155Y-102235992D01*
X127809000Y-103204466D01*
X124133513Y-103204466D01*
X124313507Y-103129910D01*
X124745310Y-102698107D01*
X124979000Y-102133930D01*
X124979000Y-101523270D01*
X124745310Y-100959093D01*
X124364817Y-100578600D01*
X124745310Y-100198107D01*
X124979000Y-99633930D01*
X124979000Y-99023270D01*
X124745310Y-98459093D01*
X124364817Y-98078600D01*
X124745310Y-97698107D01*
X124979000Y-97133930D01*
X124979000Y-96523270D01*
X124745310Y-95959093D01*
X124313507Y-95527290D01*
X123749330Y-95293600D01*
X123138670Y-95293600D01*
X122574493Y-95527290D01*
X122142690Y-95959093D01*
X121909000Y-96523270D01*
X121909000Y-97133930D01*
X122142690Y-97698107D01*
X122523183Y-98078600D01*
X122142690Y-98459093D01*
X122097331Y-98568600D01*
X119710025Y-98568600D01*
X119652577Y-98482623D01*
X119177909Y-98165460D01*
X118759333Y-98082200D01*
X118476667Y-98082200D01*
X118058091Y-98165460D01*
X117583423Y-98482623D01*
X117266260Y-98957291D01*
X117154887Y-99517200D01*
X117266260Y-100077109D01*
X117583423Y-100551777D01*
X118058091Y-100868940D01*
X118476667Y-100952200D01*
X118759333Y-100952200D01*
X119177909Y-100868940D01*
X119652577Y-100551777D01*
X119962062Y-100088600D01*
X122097331Y-100088600D01*
X122142690Y-100198107D01*
X122523183Y-100578600D01*
X122142690Y-100959093D01*
X122097418Y-101068390D01*
X122096360Y-101068600D01*
X122096356Y-101068600D01*
X121874671Y-101112696D01*
X121849970Y-101129201D01*
X115551840Y-101129201D01*
X115551840Y-98764200D01*
X115502557Y-98516435D01*
X115362209Y-98306391D01*
X115152165Y-98166043D01*
X114904400Y-98116760D01*
X112304400Y-98116760D01*
X112056635Y-98166043D01*
X111846591Y-98306391D01*
X111706243Y-98516435D01*
X111656960Y-98764200D01*
X111656960Y-101129201D01*
X110754245Y-101129201D01*
X110679398Y-101114313D01*
X110604551Y-101129201D01*
X110604547Y-101129201D01*
X110382862Y-101173297D01*
X110131470Y-101341272D01*
X110089070Y-101404728D01*
X109119928Y-102373871D01*
X109056472Y-102416271D01*
X109014072Y-102479727D01*
X109014071Y-102479728D01*
X108955918Y-102566760D01*
X108204400Y-102566760D01*
X107956635Y-102616043D01*
X107746591Y-102756391D01*
X107606243Y-102966435D01*
X107556960Y-103214200D01*
X102379202Y-103214200D01*
X102963874Y-102629528D01*
X103027330Y-102587128D01*
X103195305Y-102335736D01*
X103239401Y-102114051D01*
X103239401Y-102114047D01*
X103254289Y-102039200D01*
X103239401Y-101964353D01*
X103239401Y-100618815D01*
X106819400Y-100618815D01*
X106819400Y-101209585D01*
X107045478Y-101755385D01*
X107463215Y-102173122D01*
X108009015Y-102399200D01*
X108599785Y-102399200D01*
X109145585Y-102173122D01*
X109563322Y-101755385D01*
X109789400Y-101209585D01*
X109789400Y-100618815D01*
X109563322Y-100073015D01*
X109145585Y-99655278D01*
X108599785Y-99429200D01*
X108009015Y-99429200D01*
X107463215Y-99655278D01*
X107045478Y-100073015D01*
X106819400Y-100618815D01*
X103239401Y-100618815D01*
X103239401Y-99662111D01*
X103356832Y-99544680D01*
X103514401Y-99164274D01*
X103514401Y-98752526D01*
X103356832Y-98372120D01*
X103239401Y-98254689D01*
X103239401Y-89182578D01*
X103356832Y-89065147D01*
X103514401Y-88684741D01*
X103514401Y-88272993D01*
X103356832Y-87892587D01*
X103065681Y-87601436D01*
X102685275Y-87443867D01*
X102519202Y-87443867D01*
X102144731Y-87069396D01*
X102102329Y-87005937D01*
X101951840Y-86905383D01*
X101951840Y-86581228D01*
X102379202Y-86153866D01*
X107556960Y-86153866D01*
X107556960Y-88953866D01*
X107606243Y-89201631D01*
X107746591Y-89411675D01*
X107956635Y-89552023D01*
X108204400Y-89601306D01*
X111004400Y-89601306D01*
X111252165Y-89552023D01*
X111462209Y-89411675D01*
X111602557Y-89201631D01*
X111651840Y-88953866D01*
X111651840Y-88313866D01*
X122183753Y-88313866D01*
X122258600Y-88328754D01*
X122333447Y-88313866D01*
X122333452Y-88313866D01*
X122555137Y-88269770D01*
X122806529Y-88101795D01*
X122848931Y-88038336D01*
X123029161Y-87858106D01*
X123138670Y-87903466D01*
X123749330Y-87903466D01*
X124308583Y-87671816D01*
X118956302Y-93024097D01*
X118903439Y-93002200D01*
X118332561Y-93002200D01*
X117805138Y-93220666D01*
X117401466Y-93624338D01*
X117183000Y-94151761D01*
X117183000Y-94722639D01*
X117401466Y-95250062D01*
X117805138Y-95653734D01*
X118332561Y-95872200D01*
X118903439Y-95872200D01*
X119430862Y-95653734D01*
X119834534Y-95250062D01*
X120053000Y-94722639D01*
X120053000Y-94404466D01*
X127809000Y-94404466D01*
X127809000Y-95452734D01*
X128210155Y-96421208D01*
X128951392Y-97162445D01*
X129919866Y-97563600D01*
X130968134Y-97563600D01*
X131936608Y-97162445D01*
X132677845Y-96421208D01*
X133079000Y-95452734D01*
X133079000Y-94404466D01*
X132677845Y-93435992D01*
X131936608Y-92694755D01*
X130968134Y-92293600D01*
X129919866Y-92293600D01*
X128951392Y-92694755D01*
X128210155Y-93435992D01*
X127809000Y-94404466D01*
X120053000Y-94404466D01*
X120053000Y-94151761D01*
X120031103Y-94098898D01*
X126385669Y-87744332D01*
X127809000Y-87744332D01*
X127809000Y-88792600D01*
X128210155Y-89761074D01*
X128951392Y-90502311D01*
X129919866Y-90903466D01*
X130968134Y-90903466D01*
X131936608Y-90502311D01*
X132677845Y-89761074D01*
X133079000Y-88792600D01*
X133079000Y-87744332D01*
X132677845Y-86775858D01*
X131936608Y-86034621D01*
X130968134Y-85633466D01*
X129919866Y-85633466D01*
X128951392Y-86034621D01*
X128210155Y-86775858D01*
X127809000Y-87744332D01*
X126385669Y-87744332D01*
X128446206Y-85683796D01*
X128509662Y-85641396D01*
X128552062Y-85577940D01*
X129535403Y-84594599D01*
X138099713Y-84594599D01*
X138114602Y-84669451D01*
X138114601Y-95653015D01*
X138099713Y-95727862D01*
X138114601Y-95802709D01*
X138114601Y-95802713D01*
X138158697Y-96024398D01*
X138326672Y-96275791D01*
X138390131Y-96318193D01*
X139454820Y-97382883D01*
X139497220Y-97446339D01*
X139748612Y-97614314D01*
X139970297Y-97658410D01*
X139970302Y-97658410D01*
X140045149Y-97673298D01*
X140119996Y-97658410D01*
X143855951Y-97658410D01*
X143930798Y-97673298D01*
X144005645Y-97658410D01*
X144005650Y-97658410D01*
X144227335Y-97614314D01*
X144478727Y-97446339D01*
X144521128Y-97382881D01*
X144713196Y-97190813D01*
X144976783Y-97454400D01*
X144596290Y-97834893D01*
X144362600Y-98399070D01*
X144362600Y-99009730D01*
X144596290Y-99573907D01*
X145028093Y-100005710D01*
X145592270Y-100239400D01*
X146202930Y-100239400D01*
X146587113Y-100080266D01*
X150262600Y-100080266D01*
X150262600Y-101128534D01*
X150663755Y-102097008D01*
X151404992Y-102838245D01*
X152373466Y-103239400D01*
X153421734Y-103239400D01*
X154390208Y-102838245D01*
X155131445Y-102097008D01*
X155532600Y-101128534D01*
X155532600Y-100080266D01*
X155131445Y-99111792D01*
X154390208Y-98370555D01*
X153421734Y-97969400D01*
X152373466Y-97969400D01*
X151404992Y-98370555D01*
X150663755Y-99111792D01*
X150262600Y-100080266D01*
X146587113Y-100080266D01*
X146767107Y-100005710D01*
X147198910Y-99573907D01*
X147432600Y-99009730D01*
X147432600Y-98399070D01*
X147198910Y-97834893D01*
X146818417Y-97454400D01*
X147198910Y-97073907D01*
X147432600Y-96509730D01*
X147432600Y-95899070D01*
X147198910Y-95334893D01*
X146818417Y-94954400D01*
X147198910Y-94573907D01*
X147432600Y-94009730D01*
X147432600Y-93399070D01*
X147387240Y-93289561D01*
X150437403Y-90239399D01*
X150736148Y-90239399D01*
X150663755Y-90311792D01*
X150262600Y-91280266D01*
X150262600Y-92328534D01*
X150663755Y-93297008D01*
X151404992Y-94038245D01*
X152373466Y-94439400D01*
X153421734Y-94439400D01*
X154390208Y-94038245D01*
X155131445Y-93297008D01*
X155532600Y-92328534D01*
X155532600Y-91280266D01*
X155131445Y-90311792D01*
X154740227Y-89920574D01*
X157562514Y-87098288D01*
X157745067Y-87134600D01*
X158027733Y-87134600D01*
X158446309Y-87051340D01*
X158920977Y-86734177D01*
X159238140Y-86259509D01*
X159349513Y-85699600D01*
X159238140Y-85139691D01*
X158920977Y-84665023D01*
X158446309Y-84347860D01*
X158027733Y-84264600D01*
X157745067Y-84264600D01*
X157326491Y-84347860D01*
X156851823Y-84665023D01*
X156534660Y-85139691D01*
X156423287Y-85699600D01*
X156487712Y-86023486D01*
X153791800Y-88719399D01*
X150197449Y-88719399D01*
X150122601Y-88704511D01*
X150047753Y-88719399D01*
X150047749Y-88719399D01*
X149874206Y-88753919D01*
X149826063Y-88763495D01*
X149782505Y-88792600D01*
X149574672Y-88931470D01*
X149532272Y-88994926D01*
X146312439Y-92214760D01*
X146202930Y-92169400D01*
X145592270Y-92169400D01*
X145028093Y-92403090D01*
X144596290Y-92834893D01*
X144362600Y-93399070D01*
X144362600Y-94009730D01*
X144596290Y-94573907D01*
X144976783Y-94954400D01*
X144596290Y-95334893D01*
X144551018Y-95444190D01*
X144549960Y-95444400D01*
X144549956Y-95444400D01*
X144328271Y-95488496D01*
X144328269Y-95488497D01*
X144328270Y-95488497D01*
X144140334Y-95614071D01*
X144140332Y-95614073D01*
X144076879Y-95656471D01*
X144034480Y-95719925D01*
X143615996Y-96138410D01*
X142204672Y-96138410D01*
X142237495Y-95973400D01*
X142141644Y-95491527D01*
X141868685Y-95083015D01*
X141704635Y-94973400D01*
X141868685Y-94863785D01*
X142141644Y-94455273D01*
X142237495Y-93973400D01*
X142141644Y-93491527D01*
X141898736Y-93127990D01*
X141937999Y-93111727D01*
X142116627Y-92933098D01*
X142213300Y-92699709D01*
X142213300Y-92259150D01*
X142054550Y-92100400D01*
X140830300Y-92100400D01*
X140830300Y-92120400D01*
X140576300Y-92120400D01*
X140576300Y-92100400D01*
X140556300Y-92100400D01*
X140556300Y-91846400D01*
X140576300Y-91846400D01*
X140576300Y-90897150D01*
X140830300Y-90897150D01*
X140830300Y-91846400D01*
X142054550Y-91846400D01*
X142213300Y-91687650D01*
X142213300Y-91247091D01*
X142116627Y-91013702D01*
X141937999Y-90835073D01*
X141704610Y-90738400D01*
X140989050Y-90738400D01*
X140830300Y-90897150D01*
X140576300Y-90897150D01*
X140417550Y-90738400D01*
X139701990Y-90738400D01*
X139634601Y-90766313D01*
X139634601Y-85229600D01*
X139960039Y-85229600D01*
X140487462Y-85011134D01*
X140891134Y-84607462D01*
X141109600Y-84080039D01*
X141109600Y-83509161D01*
X140891134Y-82981738D01*
X140487462Y-82578066D01*
X139960039Y-82359600D01*
X139389161Y-82359600D01*
X138861738Y-82578066D01*
X138458066Y-82981738D01*
X138239600Y-83509161D01*
X138239600Y-84080039D01*
X138264389Y-84139884D01*
X138158698Y-84298062D01*
X138099713Y-84594599D01*
X129535403Y-84594599D01*
X130155729Y-83974273D01*
X130155731Y-83974270D01*
X131576535Y-82553467D01*
X136600886Y-82553467D01*
X136675733Y-82568355D01*
X136750580Y-82553467D01*
X136750585Y-82553467D01*
X136972270Y-82509371D01*
X137223662Y-82341396D01*
X137266064Y-82277937D01*
X139336298Y-80207704D01*
X139389161Y-80229600D01*
X139960039Y-80229600D01*
X140487462Y-80011134D01*
X140891134Y-79607462D01*
X141109600Y-79080039D01*
X141109600Y-78509161D01*
X140891134Y-77981738D01*
X140487462Y-77578066D01*
X140434600Y-77556170D01*
X140434600Y-77435015D01*
X140734577Y-77234577D01*
X140918043Y-76960000D01*
X143316615Y-76960000D01*
X143415223Y-77107577D01*
X143767558Y-77343000D01*
X143415223Y-77578423D01*
X143098060Y-78053091D01*
X142986687Y-78613000D01*
X143098060Y-79172909D01*
X143415223Y-79647577D01*
X143767558Y-79883000D01*
X143415223Y-80118423D01*
X143098060Y-80593091D01*
X142986687Y-81153000D01*
X143058797Y-81515522D01*
X143026497Y-81563863D01*
X142967512Y-81860400D01*
X142982401Y-81935252D01*
X142982400Y-84537370D01*
X142929538Y-84559266D01*
X142525866Y-84962938D01*
X142307400Y-85490361D01*
X142307400Y-86061239D01*
X142525866Y-86588662D01*
X142929538Y-86992334D01*
X143456961Y-87210800D01*
X144027839Y-87210800D01*
X144555262Y-86992334D01*
X144958934Y-86588662D01*
X145177400Y-86061239D01*
X145177400Y-85490361D01*
X147307400Y-85490361D01*
X147307400Y-86061239D01*
X147525866Y-86588662D01*
X147929538Y-86992334D01*
X148456961Y-87210800D01*
X149027839Y-87210800D01*
X149555262Y-86992334D01*
X149958934Y-86588662D01*
X150177400Y-86061239D01*
X150177400Y-85490361D01*
X149958934Y-84962938D01*
X149555262Y-84559266D01*
X149027839Y-84340800D01*
X148456961Y-84340800D01*
X147929538Y-84559266D01*
X147525866Y-84962938D01*
X147307400Y-85490361D01*
X145177400Y-85490361D01*
X144958934Y-84962938D01*
X144555262Y-84559266D01*
X144502400Y-84537370D01*
X144502400Y-82588000D01*
X144591133Y-82588000D01*
X145009709Y-82504740D01*
X145484377Y-82187577D01*
X145801540Y-81712909D01*
X145912913Y-81153000D01*
X145801540Y-80593091D01*
X145484377Y-80118423D01*
X145132042Y-79883000D01*
X145484377Y-79647577D01*
X145801540Y-79172909D01*
X145912913Y-78613000D01*
X145801540Y-78053091D01*
X145484377Y-77578423D01*
X145132042Y-77343000D01*
X145484377Y-77107577D01*
X145801540Y-76632909D01*
X145912913Y-76073000D01*
X145801540Y-75513091D01*
X145484377Y-75038423D01*
X145363694Y-74957785D01*
X145497565Y-74931157D01*
X145707609Y-74790809D01*
X145847957Y-74580765D01*
X145897240Y-74333000D01*
X145897240Y-73183961D01*
X150677896Y-73183961D01*
X150799885Y-73406000D01*
X151942800Y-73406000D01*
X151942800Y-72262371D01*
X152196800Y-72262371D01*
X152196800Y-73406000D01*
X153339715Y-73406000D01*
X153461704Y-73183961D01*
X153300841Y-72795577D01*
X152924934Y-72380611D01*
X152418841Y-72141086D01*
X152196800Y-72262371D01*
X151942800Y-72262371D01*
X151720759Y-72141086D01*
X151214666Y-72380611D01*
X150838759Y-72795577D01*
X150677896Y-73183961D01*
X145897240Y-73183961D01*
X145897240Y-72733000D01*
X145847957Y-72485235D01*
X145707609Y-72275191D01*
X145497565Y-72134843D01*
X145249800Y-72085560D01*
X143649800Y-72085560D01*
X143402035Y-72134843D01*
X143191991Y-72275191D01*
X143051643Y-72485235D01*
X143002360Y-72733000D01*
X143002360Y-72773000D01*
X142427803Y-72773000D01*
X141113104Y-71458302D01*
X141135000Y-71405439D01*
X141135000Y-70834561D01*
X140916534Y-70307138D01*
X140512862Y-69903466D01*
X139985439Y-69685000D01*
X139414561Y-69685000D01*
X138887138Y-69903466D01*
X138483466Y-70307138D01*
X138265000Y-70834561D01*
X138265000Y-71405439D01*
X138483466Y-71932862D01*
X138887138Y-72336534D01*
X139414561Y-72555000D01*
X139985439Y-72555000D01*
X140038302Y-72533104D01*
X141522673Y-74017476D01*
X141565071Y-74080929D01*
X141628524Y-74123327D01*
X141628526Y-74123329D01*
X141753902Y-74207102D01*
X141816463Y-74248904D01*
X142038148Y-74293000D01*
X142038152Y-74293000D01*
X142112999Y-74307888D01*
X142187846Y-74293000D01*
X143002360Y-74293000D01*
X143002360Y-74333000D01*
X143051643Y-74580765D01*
X143191991Y-74790809D01*
X143402035Y-74931157D01*
X143535906Y-74957785D01*
X143415223Y-75038423D01*
X143146898Y-75440000D01*
X140918043Y-75440000D01*
X140734577Y-75165423D01*
X140259909Y-74848260D01*
X139841333Y-74765000D01*
X139558667Y-74765000D01*
X139372915Y-74801948D01*
X139196538Y-74684097D01*
X138974853Y-74640001D01*
X138974848Y-74640001D01*
X138900001Y-74625113D01*
X138825154Y-74640001D01*
X138709468Y-74640001D01*
X133684828Y-69615361D01*
X141287600Y-69615361D01*
X141287600Y-70186239D01*
X141506066Y-70713662D01*
X141909738Y-71117334D01*
X142437161Y-71335800D01*
X143008039Y-71335800D01*
X143535462Y-71117334D01*
X143744251Y-70908545D01*
X146894461Y-70908545D01*
X146968595Y-71154664D01*
X147505823Y-71347765D01*
X148076054Y-71320578D01*
X148476605Y-71154664D01*
X148550739Y-70908545D01*
X147722600Y-70080405D01*
X146894461Y-70908545D01*
X143744251Y-70908545D01*
X143939134Y-70713662D01*
X144157600Y-70186239D01*
X144157600Y-69684023D01*
X146275635Y-69684023D01*
X146302822Y-70254254D01*
X146468736Y-70654805D01*
X146714855Y-70728939D01*
X147542995Y-69900800D01*
X147902205Y-69900800D01*
X148730345Y-70728939D01*
X148976464Y-70654805D01*
X149169565Y-70117577D01*
X149142378Y-69547346D01*
X148976464Y-69146795D01*
X148730345Y-69072661D01*
X147902205Y-69900800D01*
X147542995Y-69900800D01*
X146714855Y-69072661D01*
X146468736Y-69146795D01*
X146275635Y-69684023D01*
X144157600Y-69684023D01*
X144157600Y-69615361D01*
X143939134Y-69087938D01*
X143744251Y-68893055D01*
X146894461Y-68893055D01*
X147722600Y-69721195D01*
X148550739Y-68893055D01*
X148476605Y-68646936D01*
X147939377Y-68453835D01*
X147369146Y-68481022D01*
X146968595Y-68646936D01*
X146894461Y-68893055D01*
X143744251Y-68893055D01*
X143535462Y-68684266D01*
X143008039Y-68465800D01*
X142437161Y-68465800D01*
X141909738Y-68684266D01*
X141506066Y-69087938D01*
X141287600Y-69615361D01*
X133684828Y-69615361D01*
X130712799Y-66643333D01*
X130968134Y-66643333D01*
X131936608Y-66242178D01*
X132677845Y-65500941D01*
X133079000Y-64532467D01*
X133079000Y-63484199D01*
X132677845Y-62515725D01*
X131936608Y-61774488D01*
X130968134Y-61373333D01*
X129919866Y-61373333D01*
X128951392Y-61774488D01*
X128210155Y-62515725D01*
X127809000Y-63484199D01*
X127809000Y-63739534D01*
X126983396Y-62913930D01*
X126940994Y-62850471D01*
X126689602Y-62682496D01*
X126467917Y-62638400D01*
X126467912Y-62638400D01*
X126393065Y-62623512D01*
X126318218Y-62638400D01*
X120389830Y-62638400D01*
X120367934Y-62585538D01*
X120114600Y-62332204D01*
X120114600Y-59328230D01*
X120167462Y-59306334D01*
X120571134Y-58902662D01*
X120789600Y-58375239D01*
X120789600Y-57804361D01*
X120571134Y-57276938D01*
X120167462Y-56873266D01*
X119640039Y-56654800D01*
X119069161Y-56654800D01*
X118541738Y-56873266D01*
X118138066Y-57276938D01*
X117919600Y-57804361D01*
X117919600Y-58375239D01*
X118138066Y-58902662D01*
X118541738Y-59306334D01*
X118594600Y-59328230D01*
X118594601Y-62075801D01*
X118338538Y-62181866D01*
X117934866Y-62585538D01*
X117716400Y-63112961D01*
X117716400Y-63683839D01*
X117934866Y-64211262D01*
X118338538Y-64614934D01*
X118865961Y-64833400D01*
X119436839Y-64833400D01*
X119964262Y-64614934D01*
X120367934Y-64211262D01*
X120389830Y-64158400D01*
X126078264Y-64158400D01*
X137804336Y-75884473D01*
X137846737Y-75947930D01*
X138098129Y-76115905D01*
X138247697Y-76145656D01*
X138236887Y-76200000D01*
X138348260Y-76759909D01*
X138665423Y-77234577D01*
X138914601Y-77401072D01*
X138914600Y-77556170D01*
X138861738Y-77578066D01*
X138458066Y-77981738D01*
X138239600Y-78509161D01*
X138239600Y-79080039D01*
X138261496Y-79132902D01*
X136360932Y-81033467D01*
X132605452Y-81033467D01*
X132677845Y-80961074D01*
X133079000Y-79992600D01*
X133079000Y-78944332D01*
X132677845Y-77975858D01*
X131936608Y-77234621D01*
X130968134Y-76833466D01*
X129919866Y-76833466D01*
X128951392Y-77234621D01*
X128210155Y-77975858D01*
X127809000Y-78944332D01*
X127809000Y-79992600D01*
X128210155Y-80961074D01*
X128951392Y-81702311D01*
X129889507Y-82090891D01*
X129080930Y-82899469D01*
X129080927Y-82899471D01*
X127646931Y-84333467D01*
X124912862Y-84333467D01*
X124979000Y-84173796D01*
X124979000Y-83563136D01*
X124745310Y-82998959D01*
X124364817Y-82618466D01*
X124745310Y-82237973D01*
X124979000Y-81673796D01*
X124979000Y-81063136D01*
X124745310Y-80498959D01*
X124313507Y-80067156D01*
X123749330Y-79833466D01*
X123138670Y-79833466D01*
X122574493Y-80067156D01*
X122142690Y-80498959D01*
X121909000Y-81063136D01*
X121909000Y-81258664D01*
X119378000Y-78727665D01*
X119378000Y-78002243D01*
X119652577Y-77818777D01*
X119969740Y-77344109D01*
X120081113Y-76784200D01*
X119969740Y-76224291D01*
X119652577Y-75749623D01*
X119177909Y-75432460D01*
X118759333Y-75349200D01*
X118476667Y-75349200D01*
X118058091Y-75432460D01*
X117583423Y-75749623D01*
X117266260Y-76224291D01*
X117154887Y-76784200D01*
X117266260Y-77344109D01*
X117583423Y-77818777D01*
X117858000Y-78002244D01*
X117858000Y-78967619D01*
X117843112Y-79042466D01*
X117858000Y-79117313D01*
X117858000Y-79117317D01*
X117902096Y-79339002D01*
X118070071Y-79590395D01*
X118133530Y-79632797D01*
X118948667Y-80447934D01*
X118903439Y-80429200D01*
X118332561Y-80429200D01*
X117805138Y-80647666D01*
X117401466Y-81051338D01*
X117183000Y-81578761D01*
X117183000Y-82149639D01*
X117401466Y-82677062D01*
X117805138Y-83080734D01*
X118332561Y-83299200D01*
X118903439Y-83299200D01*
X118956302Y-83277303D01*
X121256938Y-85577940D01*
X121299338Y-85641396D01*
X121550730Y-85809371D01*
X121772415Y-85853467D01*
X121772419Y-85853467D01*
X121847266Y-85868355D01*
X121922113Y-85853467D01*
X121995848Y-85853467D01*
X121909000Y-86063136D01*
X121909000Y-86673796D01*
X121954360Y-86783305D01*
X121943799Y-86793866D01*
X111651840Y-86793866D01*
X111651840Y-86153866D01*
X111602557Y-85906101D01*
X111462209Y-85696057D01*
X111252165Y-85555709D01*
X111004400Y-85506426D01*
X108204400Y-85506426D01*
X107956635Y-85555709D01*
X107746591Y-85696057D01*
X107606243Y-85906101D01*
X107556960Y-86153866D01*
X102379202Y-86153866D01*
X102963874Y-85569194D01*
X103027330Y-85526794D01*
X103195305Y-85275402D01*
X103239401Y-85053717D01*
X103239401Y-85053713D01*
X103254289Y-84978866D01*
X103239401Y-84904019D01*
X103239401Y-83558481D01*
X106819400Y-83558481D01*
X106819400Y-84149251D01*
X107045478Y-84695051D01*
X107463215Y-85112788D01*
X108009015Y-85338866D01*
X108599785Y-85338866D01*
X109145585Y-85112788D01*
X109563322Y-84695051D01*
X109789400Y-84149251D01*
X109789400Y-83558481D01*
X109563322Y-83012681D01*
X109145585Y-82594944D01*
X108599785Y-82368866D01*
X108009015Y-82368866D01*
X107463215Y-82594944D01*
X107045478Y-83012681D01*
X106819400Y-83558481D01*
X103239401Y-83558481D01*
X103239401Y-81703866D01*
X111656960Y-81703866D01*
X111656960Y-84503866D01*
X111706243Y-84751631D01*
X111846591Y-84961675D01*
X112056635Y-85102023D01*
X112304400Y-85151306D01*
X114904400Y-85151306D01*
X115152165Y-85102023D01*
X115362209Y-84961675D01*
X115502557Y-84751631D01*
X115551840Y-84503866D01*
X115551840Y-81703866D01*
X115502557Y-81456101D01*
X115362209Y-81246057D01*
X115152165Y-81105709D01*
X114904400Y-81056426D01*
X112304400Y-81056426D01*
X112056635Y-81105709D01*
X111846591Y-81246057D01*
X111706243Y-81456101D01*
X111656960Y-81703866D01*
X103239401Y-81703866D01*
X103239401Y-74493380D01*
X103254289Y-74418533D01*
X103239401Y-74343686D01*
X103239401Y-74343682D01*
X103195305Y-74121997D01*
X103027330Y-73870605D01*
X102963874Y-73828205D01*
X101597240Y-72461572D01*
X101762209Y-72351342D01*
X101902557Y-72141298D01*
X101951840Y-71893533D01*
X101951840Y-69520895D01*
X102379202Y-69093533D01*
X107556960Y-69093533D01*
X107556960Y-71893533D01*
X107606243Y-72141298D01*
X107746591Y-72351342D01*
X107956635Y-72491690D01*
X108204400Y-72540973D01*
X111004400Y-72540973D01*
X111252165Y-72491690D01*
X111462209Y-72351342D01*
X111602557Y-72141298D01*
X111651840Y-71893533D01*
X111651840Y-71253533D01*
X121925515Y-71253533D01*
X122142690Y-71777840D01*
X122574493Y-72209643D01*
X123138670Y-72443333D01*
X123749330Y-72443333D01*
X124133513Y-72284199D01*
X127809000Y-72284199D01*
X127809000Y-73332467D01*
X128210155Y-74300941D01*
X128951392Y-75042178D01*
X129919866Y-75443333D01*
X130968134Y-75443333D01*
X131936608Y-75042178D01*
X132677845Y-74300941D01*
X133079000Y-73332467D01*
X133079000Y-72284199D01*
X132677845Y-71315725D01*
X131936608Y-70574488D01*
X130968134Y-70173333D01*
X129919866Y-70173333D01*
X128951392Y-70574488D01*
X128210155Y-71315725D01*
X127809000Y-72284199D01*
X124133513Y-72284199D01*
X124313507Y-72209643D01*
X124745310Y-71777840D01*
X124979000Y-71213663D01*
X124979000Y-70603003D01*
X124745310Y-70038826D01*
X124364817Y-69658333D01*
X124745310Y-69277840D01*
X124979000Y-68713663D01*
X124979000Y-68103003D01*
X124745310Y-67538826D01*
X124364817Y-67158333D01*
X124745310Y-66777840D01*
X124979000Y-66213663D01*
X124979000Y-65603003D01*
X124745310Y-65038826D01*
X124313507Y-64607023D01*
X123749330Y-64373333D01*
X123138670Y-64373333D01*
X122574493Y-64607023D01*
X122142690Y-65038826D01*
X121909000Y-65603003D01*
X121909000Y-66213663D01*
X122142690Y-66777840D01*
X122523183Y-67158333D01*
X122142690Y-67538826D01*
X122068308Y-67718400D01*
X120369443Y-67718400D01*
X120185977Y-67443823D01*
X119711309Y-67126660D01*
X119292733Y-67043400D01*
X119010067Y-67043400D01*
X118591491Y-67126660D01*
X118116823Y-67443823D01*
X117799660Y-67918491D01*
X117688287Y-68478400D01*
X117799660Y-69038309D01*
X118116823Y-69512977D01*
X118446908Y-69733533D01*
X111651840Y-69733533D01*
X111651840Y-69093533D01*
X111602557Y-68845768D01*
X111462209Y-68635724D01*
X111252165Y-68495376D01*
X111004400Y-68446093D01*
X108204400Y-68446093D01*
X107956635Y-68495376D01*
X107746591Y-68635724D01*
X107606243Y-68845768D01*
X107556960Y-69093533D01*
X102379202Y-69093533D01*
X102519203Y-68953532D01*
X102685275Y-68953532D01*
X103065681Y-68795963D01*
X103356832Y-68504812D01*
X103514401Y-68124406D01*
X103514401Y-67712658D01*
X103356832Y-67332252D01*
X103239401Y-67214821D01*
X103239401Y-66498148D01*
X106819400Y-66498148D01*
X106819400Y-67088918D01*
X107045478Y-67634718D01*
X107463215Y-68052455D01*
X108009015Y-68278533D01*
X108599785Y-68278533D01*
X109145585Y-68052455D01*
X109563322Y-67634718D01*
X109789400Y-67088918D01*
X109789400Y-66498148D01*
X109563322Y-65952348D01*
X109145585Y-65534611D01*
X108599785Y-65308533D01*
X108009015Y-65308533D01*
X107463215Y-65534611D01*
X107045478Y-65952348D01*
X106819400Y-66498148D01*
X103239401Y-66498148D01*
X103239401Y-64643533D01*
X111656960Y-64643533D01*
X111656960Y-67443533D01*
X111706243Y-67691298D01*
X111846591Y-67901342D01*
X112056635Y-68041690D01*
X112304400Y-68090973D01*
X114904400Y-68090973D01*
X115152165Y-68041690D01*
X115362209Y-67901342D01*
X115502557Y-67691298D01*
X115551840Y-67443533D01*
X115551840Y-64643533D01*
X115502557Y-64395768D01*
X115362209Y-64185724D01*
X115152165Y-64045376D01*
X114904400Y-63996093D01*
X112304400Y-63996093D01*
X112056635Y-64045376D01*
X111846591Y-64185724D01*
X111706243Y-64395768D01*
X111656960Y-64643533D01*
X103239401Y-64643533D01*
X103239401Y-58971311D01*
X103356832Y-58853880D01*
X103514401Y-58473474D01*
X103514401Y-58061726D01*
X103356832Y-57681320D01*
X103239401Y-57563889D01*
X103239401Y-57433047D01*
X103254289Y-57358200D01*
X103239401Y-57283353D01*
X103239401Y-57283349D01*
X103195305Y-57061664D01*
X103027330Y-56810272D01*
X102963874Y-56767872D01*
X101597240Y-55401239D01*
X101762209Y-55291009D01*
X101902557Y-55080965D01*
X101951840Y-54833200D01*
X101951840Y-54193200D01*
X106268555Y-54193200D01*
X106343402Y-54208088D01*
X106418249Y-54193200D01*
X106418254Y-54193200D01*
X106639939Y-54149104D01*
X106891331Y-53981129D01*
X106933733Y-53917670D01*
X107556960Y-53294443D01*
X107556960Y-54833200D01*
X107606243Y-55080965D01*
X107746591Y-55291009D01*
X107956635Y-55431357D01*
X108204400Y-55480640D01*
X111004400Y-55480640D01*
X111252165Y-55431357D01*
X111462209Y-55291009D01*
X111602557Y-55080965D01*
X111639854Y-54893456D01*
X112679073Y-55932676D01*
X112721471Y-55996129D01*
X112784924Y-56038527D01*
X112784926Y-56038529D01*
X112910302Y-56122302D01*
X112972863Y-56164104D01*
X113194548Y-56208200D01*
X113194552Y-56208200D01*
X113269399Y-56223088D01*
X113344246Y-56208200D01*
X122097331Y-56208200D01*
X122142690Y-56317707D01*
X122574493Y-56749510D01*
X123138670Y-56983200D01*
X123749330Y-56983200D01*
X124133513Y-56824066D01*
X127809000Y-56824066D01*
X127809000Y-57872334D01*
X128210155Y-58840808D01*
X128951392Y-59582045D01*
X129919866Y-59983200D01*
X130968134Y-59983200D01*
X131936608Y-59582045D01*
X132677845Y-58840808D01*
X133079000Y-57872334D01*
X133079000Y-56824066D01*
X132677845Y-55855592D01*
X131936608Y-55114355D01*
X130968134Y-54713200D01*
X129919866Y-54713200D01*
X128951392Y-55114355D01*
X128210155Y-55855592D01*
X127809000Y-56824066D01*
X124133513Y-56824066D01*
X124313507Y-56749510D01*
X124745310Y-56317707D01*
X124979000Y-55753530D01*
X124979000Y-55142870D01*
X124745310Y-54578693D01*
X124364817Y-54198200D01*
X124745310Y-53817707D01*
X124979000Y-53253530D01*
X124979000Y-53213000D01*
X138338487Y-53213000D01*
X138449860Y-53772909D01*
X138767023Y-54247577D01*
X139041600Y-54431044D01*
X139041601Y-56846356D01*
X138767023Y-57029823D01*
X138449860Y-57504491D01*
X138338487Y-58064400D01*
X138449860Y-58624309D01*
X138767023Y-59098977D01*
X139241691Y-59416140D01*
X139660267Y-59499400D01*
X139942933Y-59499400D01*
X140361509Y-59416140D01*
X140836177Y-59098977D01*
X141019643Y-58824400D01*
X146667632Y-58824400D01*
X146666160Y-58831800D01*
X146666160Y-59471800D01*
X142789046Y-59471800D01*
X142714199Y-59456912D01*
X142639352Y-59471800D01*
X142639348Y-59471800D01*
X142417663Y-59515896D01*
X142355102Y-59557698D01*
X142229726Y-59641471D01*
X142229724Y-59641473D01*
X142166271Y-59683871D01*
X142123873Y-59747324D01*
X140139902Y-61731297D01*
X140087039Y-61709400D01*
X139516161Y-61709400D01*
X138988738Y-61927866D01*
X138585066Y-62331538D01*
X138366600Y-62858961D01*
X138366600Y-63429839D01*
X138585066Y-63957262D01*
X138988738Y-64360934D01*
X139516161Y-64579400D01*
X140087039Y-64579400D01*
X140614462Y-64360934D01*
X141018134Y-63957262D01*
X141236600Y-63429839D01*
X141236600Y-63281800D01*
X142766160Y-63281800D01*
X142766160Y-66081800D01*
X142815443Y-66329565D01*
X142955791Y-66539609D01*
X143165835Y-66679957D01*
X143413600Y-66729240D01*
X146013600Y-66729240D01*
X146261365Y-66679957D01*
X146471409Y-66539609D01*
X146611757Y-66329565D01*
X146661040Y-66081800D01*
X146661040Y-63281800D01*
X146611757Y-63034035D01*
X146471409Y-62823991D01*
X146261365Y-62683643D01*
X146013600Y-62634360D01*
X143413600Y-62634360D01*
X143165835Y-62683643D01*
X142955791Y-62823991D01*
X142815443Y-63034035D01*
X142766160Y-63281800D01*
X141236600Y-63281800D01*
X141236600Y-62858961D01*
X141214703Y-62806098D01*
X143029003Y-60991800D01*
X146666160Y-60991800D01*
X146666160Y-61631800D01*
X146715443Y-61879565D01*
X146855791Y-62089609D01*
X147065835Y-62229957D01*
X147313600Y-62279240D01*
X150113600Y-62279240D01*
X150361365Y-62229957D01*
X150571409Y-62089609D01*
X150711757Y-61879565D01*
X150750899Y-61682782D01*
X150750899Y-62629847D01*
X150308985Y-62446800D01*
X149718215Y-62446800D01*
X149172415Y-62672878D01*
X148754678Y-63090615D01*
X148528600Y-63636415D01*
X148528600Y-64227185D01*
X148754678Y-64772985D01*
X149172415Y-65190722D01*
X149718215Y-65416800D01*
X150308985Y-65416800D01*
X150750900Y-65233753D01*
X150750900Y-68465800D01*
X150425461Y-68465800D01*
X149898038Y-68684266D01*
X149494366Y-69087938D01*
X149275900Y-69615361D01*
X149275900Y-70186239D01*
X149494366Y-70713662D01*
X149898038Y-71117334D01*
X150425461Y-71335800D01*
X150996339Y-71335800D01*
X151523762Y-71117334D01*
X151927434Y-70713662D01*
X151949330Y-70660800D01*
X152034399Y-70660800D01*
X154034897Y-72661298D01*
X154013000Y-72714161D01*
X154013000Y-73054998D01*
X153363928Y-73704071D01*
X153339715Y-73660000D01*
X152196800Y-73660000D01*
X152196800Y-73680000D01*
X151942800Y-73680000D01*
X151942800Y-73660000D01*
X150799885Y-73660000D01*
X150677896Y-73882039D01*
X150838759Y-74270423D01*
X151214666Y-74685389D01*
X151418908Y-74782053D01*
X151035223Y-75038423D01*
X150718060Y-75513091D01*
X150606687Y-76073000D01*
X150718060Y-76632909D01*
X151035223Y-77107577D01*
X151387558Y-77343000D01*
X151035223Y-77578423D01*
X150718060Y-78053091D01*
X150606687Y-78613000D01*
X150718060Y-79172909D01*
X151035223Y-79647577D01*
X151387558Y-79883000D01*
X151035223Y-80118423D01*
X150718060Y-80593091D01*
X150606687Y-81153000D01*
X150718060Y-81712909D01*
X151035223Y-82187577D01*
X151509891Y-82504740D01*
X151928467Y-82588000D01*
X152211133Y-82588000D01*
X152629709Y-82504740D01*
X153104377Y-82187577D01*
X153421540Y-81712909D01*
X153532913Y-81153000D01*
X153532395Y-81150398D01*
X153824400Y-81442403D01*
X153824401Y-83606797D01*
X153144702Y-84286497D01*
X153091839Y-84264600D01*
X152520961Y-84264600D01*
X151993538Y-84483066D01*
X151589866Y-84886738D01*
X151371400Y-85414161D01*
X151371400Y-85985039D01*
X151589866Y-86512462D01*
X151993538Y-86916134D01*
X152520961Y-87134600D01*
X153091839Y-87134600D01*
X153619262Y-86916134D01*
X154022934Y-86512462D01*
X154241400Y-85985039D01*
X154241400Y-85414161D01*
X154219503Y-85361298D01*
X155068873Y-84511929D01*
X155132329Y-84469529D01*
X155300304Y-84218137D01*
X155344400Y-83996452D01*
X155344400Y-83996448D01*
X155359288Y-83921601D01*
X155344400Y-83846754D01*
X155344400Y-81202446D01*
X155359288Y-81127599D01*
X155344400Y-81052752D01*
X155344400Y-81052748D01*
X155300304Y-80831063D01*
X155258502Y-80768502D01*
X155174729Y-80643126D01*
X155174727Y-80643124D01*
X155132329Y-80579671D01*
X155068876Y-80537273D01*
X153468488Y-78936886D01*
X153503752Y-78759600D01*
X154209570Y-78759600D01*
X154231466Y-78812462D01*
X154635138Y-79216134D01*
X155162561Y-79434600D01*
X155733439Y-79434600D01*
X156260862Y-79216134D01*
X156664534Y-78812462D01*
X156883000Y-78285039D01*
X156883000Y-77714161D01*
X156861103Y-77661298D01*
X157075369Y-77447032D01*
X157138828Y-77404630D01*
X157275824Y-77199602D01*
X157306803Y-77153239D01*
X157316379Y-77105096D01*
X157350899Y-76931553D01*
X157350899Y-76931549D01*
X157365787Y-76856701D01*
X157350899Y-76781853D01*
X157350899Y-70775645D01*
X157365787Y-70700798D01*
X157350899Y-70625951D01*
X157350899Y-70625947D01*
X157306803Y-70404262D01*
X157206571Y-70254254D01*
X157188952Y-70227884D01*
X157254013Y-69900800D01*
X157142640Y-69340891D01*
X156825477Y-68866223D01*
X156350809Y-68549060D01*
X155932233Y-68465800D01*
X155649567Y-68465800D01*
X155230991Y-68549060D01*
X154756323Y-68866223D01*
X154439160Y-69340891D01*
X154327787Y-69900800D01*
X154439160Y-70460709D01*
X154756323Y-70935377D01*
X155230991Y-71252540D01*
X155649567Y-71335800D01*
X155830899Y-71335800D01*
X155830899Y-71604969D01*
X155733439Y-71564600D01*
X155162561Y-71564600D01*
X155109698Y-71586497D01*
X152939531Y-69416330D01*
X152897129Y-69352871D01*
X152645737Y-69184896D01*
X152424052Y-69140800D01*
X152424047Y-69140800D01*
X152349200Y-69125912D01*
X152277974Y-69140080D01*
X152285787Y-69100802D01*
X152270899Y-69025955D01*
X152270899Y-63636415D01*
X155528600Y-63636415D01*
X155528600Y-64227185D01*
X155754678Y-64772985D01*
X156172415Y-65190722D01*
X156718215Y-65416800D01*
X157308985Y-65416800D01*
X157854785Y-65190722D01*
X158272522Y-64772985D01*
X158498600Y-64227185D01*
X158498600Y-63636415D01*
X158272522Y-63090615D01*
X157854785Y-62672878D01*
X157308985Y-62446800D01*
X156718215Y-62446800D01*
X156172415Y-62672878D01*
X155754678Y-63090615D01*
X155528600Y-63636415D01*
X152270899Y-63636415D01*
X152270899Y-59718944D01*
X152285787Y-59644097D01*
X152270899Y-59569250D01*
X152270899Y-59569245D01*
X152226803Y-59347560D01*
X152058828Y-59096168D01*
X151995372Y-59053768D01*
X150521533Y-57579930D01*
X150479131Y-57516471D01*
X150227739Y-57348496D01*
X150006054Y-57304400D01*
X150006049Y-57304400D01*
X149931202Y-57289512D01*
X149856355Y-57304400D01*
X141019643Y-57304400D01*
X140836177Y-57029823D01*
X140561600Y-56846357D01*
X140561600Y-54431043D01*
X140836177Y-54247577D01*
X141153340Y-53772909D01*
X141264713Y-53213000D01*
X141153340Y-52653091D01*
X140836177Y-52178423D01*
X140361509Y-51861260D01*
X139942933Y-51778000D01*
X139660267Y-51778000D01*
X139241691Y-51861260D01*
X138767023Y-52178423D01*
X138449860Y-52653091D01*
X138338487Y-53213000D01*
X124979000Y-53213000D01*
X124979000Y-52642870D01*
X124745310Y-52078693D01*
X124364817Y-51698200D01*
X124745310Y-51317707D01*
X124979000Y-50753530D01*
X124979000Y-50142870D01*
X124745310Y-49578693D01*
X124313507Y-49146890D01*
X123749330Y-48913200D01*
X123138670Y-48913200D01*
X122574493Y-49146890D01*
X122142690Y-49578693D01*
X122097418Y-49687990D01*
X122096361Y-49688200D01*
X122096356Y-49688200D01*
X121874671Y-49732296D01*
X121623279Y-49900271D01*
X121591253Y-49948201D01*
X115551840Y-49948201D01*
X115551840Y-48024066D01*
X127809000Y-48024066D01*
X127809000Y-49072334D01*
X128210155Y-50040808D01*
X128951392Y-50782045D01*
X129919866Y-51183200D01*
X130968134Y-51183200D01*
X131377584Y-51013600D01*
X143045560Y-51013600D01*
X143045560Y-53813600D01*
X143094843Y-54061365D01*
X143235191Y-54271409D01*
X143445235Y-54411757D01*
X143693000Y-54461040D01*
X146293000Y-54461040D01*
X146540765Y-54411757D01*
X146750809Y-54271409D01*
X146891157Y-54061365D01*
X146940440Y-53813600D01*
X146940440Y-51368215D01*
X148808000Y-51368215D01*
X148808000Y-51958985D01*
X149034078Y-52504785D01*
X149451815Y-52922522D01*
X149997615Y-53148600D01*
X150588385Y-53148600D01*
X151134185Y-52922522D01*
X151551922Y-52504785D01*
X151778000Y-51958985D01*
X151778000Y-51368215D01*
X151551922Y-50822415D01*
X151134185Y-50404678D01*
X150588385Y-50178600D01*
X149997615Y-50178600D01*
X149451815Y-50404678D01*
X149034078Y-50822415D01*
X148808000Y-51368215D01*
X146940440Y-51368215D01*
X146940440Y-51013600D01*
X146891157Y-50765835D01*
X146750809Y-50555791D01*
X146540765Y-50415443D01*
X146293000Y-50366160D01*
X143693000Y-50366160D01*
X143445235Y-50415443D01*
X143235191Y-50555791D01*
X143094843Y-50765835D01*
X143045560Y-51013600D01*
X131377584Y-51013600D01*
X131936608Y-50782045D01*
X132677845Y-50040808D01*
X133079000Y-49072334D01*
X133079000Y-48024066D01*
X133005890Y-47847561D01*
X138366600Y-47847561D01*
X138366600Y-48418439D01*
X138585066Y-48945862D01*
X138988738Y-49349534D01*
X139516161Y-49568000D01*
X140087039Y-49568000D01*
X140614462Y-49349534D01*
X141018134Y-48945862D01*
X141040030Y-48893000D01*
X146945560Y-48893000D01*
X146945560Y-49363600D01*
X146994843Y-49611365D01*
X147135191Y-49821409D01*
X147345235Y-49961757D01*
X147593000Y-50011040D01*
X150393000Y-50011040D01*
X150640765Y-49961757D01*
X150850809Y-49821409D01*
X150991157Y-49611365D01*
X151040440Y-49363600D01*
X151040440Y-46563600D01*
X150991157Y-46315835D01*
X150850809Y-46105791D01*
X150640765Y-45965443D01*
X150393000Y-45916160D01*
X147593000Y-45916160D01*
X147345235Y-45965443D01*
X147135191Y-46105791D01*
X146994843Y-46315835D01*
X146945560Y-46563600D01*
X146945560Y-47373000D01*
X141040030Y-47373000D01*
X141018134Y-47320138D01*
X140614462Y-46916466D01*
X140087039Y-46698000D01*
X139516161Y-46698000D01*
X138988738Y-46916466D01*
X138585066Y-47320138D01*
X138366600Y-47847561D01*
X133005890Y-47847561D01*
X132677845Y-47055592D01*
X131936608Y-46314355D01*
X130968134Y-45913200D01*
X129919866Y-45913200D01*
X128951392Y-46314355D01*
X128210155Y-47055592D01*
X127809000Y-48024066D01*
X115551840Y-48024066D01*
X115551840Y-47583200D01*
X115502557Y-47335435D01*
X115362209Y-47125391D01*
X115152165Y-46985043D01*
X114904400Y-46935760D01*
X112304400Y-46935760D01*
X112056635Y-46985043D01*
X111846591Y-47125391D01*
X111706243Y-47335435D01*
X111656960Y-47583200D01*
X111656960Y-49948201D01*
X109789400Y-49948201D01*
X109789400Y-49437815D01*
X109563322Y-48892015D01*
X109145585Y-48474278D01*
X108599785Y-48248200D01*
X108009015Y-48248200D01*
X107463215Y-48474278D01*
X107045478Y-48892015D01*
X106819400Y-49437815D01*
X106819400Y-50028585D01*
X107045478Y-50574385D01*
X107463215Y-50992122D01*
X107637491Y-51064309D01*
X106028601Y-52673200D01*
X101951840Y-52673200D01*
X101951840Y-52033200D01*
X101902557Y-51785435D01*
X101762209Y-51575391D01*
X101552165Y-51435043D01*
X101304400Y-51385760D01*
X99614400Y-51385760D01*
X99614400Y-49437815D01*
X99819400Y-49437815D01*
X99819400Y-50028585D01*
X100045478Y-50574385D01*
X100463215Y-50992122D01*
X101009015Y-51218200D01*
X101599785Y-51218200D01*
X102145585Y-50992122D01*
X102563322Y-50574385D01*
X102789400Y-50028585D01*
X102789400Y-49437815D01*
X102563322Y-48892015D01*
X102145585Y-48474278D01*
X101599785Y-48248200D01*
X101009015Y-48248200D01*
X100463215Y-48474278D01*
X100045478Y-48892015D01*
X99819400Y-49437815D01*
X99614400Y-49437815D01*
X99614400Y-48569109D01*
X101995573Y-46187937D01*
X102059029Y-46145537D01*
X102227004Y-45894145D01*
X102271100Y-45672460D01*
X102271100Y-45672456D01*
X102285988Y-45597609D01*
X102271100Y-45522762D01*
X102271100Y-45024435D01*
X103485194Y-44521540D01*
X103636924Y-44369810D01*
X153765652Y-44216386D01*
X154070806Y-44521540D01*
G04 #@! TD*
M02*
